<?xml version="1.0" encoding="UTF-8" standalone="no"?>
<!DOCTYPE svg PUBLIC "-//W3C//DTD SVG 1.1//EN"
 "http://www.w3.org/Graphics/SVG/1.1/DTD/svg11.dtd">
<!-- Generated by graphviz version 2.43.0 (0)
 -->
<!-- Title: byteorder.h Pages: 1 -->
<!--zoomable 196 -->
<svg id="main" version="1.1" xmlns="http://www.w3.org/2000/svg" xmlns:xlink="http://www.w3.org/1999/xlink" xml:space="preserve" onload="init(evt)">
<style type="text/css"><![CDATA[
.edge:hover path { stroke: red; }
.edge:hover polygon { stroke: red; fill: red; }
]]></style>
<script type="text/javascript"><![CDATA[
var edges = document.getElementsByTagName('g');
if (edges && edges.length) {
  for (var i=0;i<edges.length;i++) {
    if (edges[i].id.substr(0,4)=='edge') {
      edges[i].setAttribute('class','edge');
    }
  }
}
]]></script>
        <defs>
                <circle id="rim" cx="0" cy="0" r="7"/>
                <circle id="rim2" cx="0" cy="0" r="3.5"/>
                <g id="zoomPlus">
                        <use xlink:href="#rim" fill="#404040">
                                <set attributeName="fill" to="#808080" begin="zoomplus.mouseover" end="zoomplus.mouseout"/>
                        </use>
                        <path d="M-4,0h8M0,-4v8" fill="none" stroke="white" stroke-width="1.5" pointer-events="none"/>
                </g>
                <g id="zoomMin">
                        <use xlink:href="#rim" fill="#404040">
                                <set attributeName="fill" to="#808080" begin="zoomminus.mouseover" end="zoomminus.mouseout"/>
                        </use>
                        <path d="M-4,0h8" fill="none" stroke="white" stroke-width="1.5" pointer-events="none"/>
                </g>
                <g id="dirArrow">
                        <path fill="none" stroke="white" stroke-width="1.5" d="M0,-3.0v7 M-2.5,-0.5L0,-3.0L2.5,-0.5"/>
                </g>
               <g id="resetDef">
                       <use xlink:href="#rim2" fill="#404040">
                               <set attributeName="fill" to="#808080" begin="reset.mouseover" end="reset.mouseout"/>
                       </use>
               </g>
        </defs>

<script type="text/javascript">
var viewWidth = 629;
var viewHeight = 196;
var sectionId = 'dynsection-1';
</script>
<script xlink:href="svgpan.js"/>
<svg id="graph" class="graph">
<g id="viewport">
<title>byteorder.h</title>
<polygon fill="white" stroke="transparent" points="-4,4 -4,-192 625,-192 625,4 -4,4"/>
<!-- Node1 -->
<g id="node1" class="node">
<title>Node1</title>
<g id="a_node1"><a xlink:title="This is a set of macros for consistent endianness conversion. They work for both little and big endia...">
<polygon fill="#bfbfbf" stroke="black" points="311.5,-168.5 311.5,-187.5 383.5,-187.5 383.5,-168.5 311.5,-168.5"/>
<text text-anchor="middle" x="347.5" y="-175.5" font-family="Helvetica,sans-Serif" font-size="10.00">byteorder.h</text>
</a>
</g>
</g>
<!-- Node2 -->
<g id="node2" class="node">
<title>Node2</title>
<g id="a_node2"><a xlink:href="cmp__data__types_8c.html" target="_top" xlink:title="collection of functions to handle the different compression data types">
<polygon fill="white" stroke="black" points="0,-112.5 0,-131.5 105,-131.5 105,-112.5 0,-112.5"/>
<text text-anchor="middle" x="52.5" y="-119.5" font-family="Helvetica,sans-Serif" font-size="10.00">cmp_data_types.c</text>
</a>
</g>
</g>
<!-- Node1&#45;&gt;Node2 -->
<g id="edge1" class="edge">
<title>Node1&#45;&gt;Node2</title>
<path fill="none" stroke="midnightblue" d="M301.48,-168.58C246.37,-158.49 154.58,-141.69 99.18,-131.55"/>
<polygon fill="midnightblue" stroke="midnightblue" points="300.86,-172.02 311.33,-170.38 302.12,-165.14 300.86,-172.02"/>
</g>
<!-- Node3 -->
<g id="node3" class="node">
<title>Node3</title>
<g id="a_node3"><a xlink:href="cmp__entity_8c.html" target="_top" xlink:title="functions and definition to handle a compression entity">
<polygon fill="white" stroke="black" points="123.5,-112.5 123.5,-131.5 201.5,-131.5 201.5,-112.5 123.5,-112.5"/>
<text text-anchor="middle" x="162.5" y="-119.5" font-family="Helvetica,sans-Serif" font-size="10.00">cmp_entity.c</text>
</a>
</g>
</g>
<!-- Node1&#45;&gt;Node3 -->
<g id="edge2" class="edge">
<title>Node1&#45;&gt;Node3</title>
<path fill="none" stroke="midnightblue" d="M308.33,-165.57C273.43,-155.38 223.15,-140.7 191.68,-131.52"/>
<polygon fill="midnightblue" stroke="midnightblue" points="307.61,-169 318.19,-168.44 309.57,-162.28 307.61,-169"/>
</g>
<!-- Node4 -->
<g id="node4" class="node">
<title>Node4</title>
<g id="a_node4"><a xlink:href="read__bitstream_8h.html" target="_top" xlink:title="this library handles the reading from an MSB&#45;first bitstream">
<polygon fill="white" stroke="black" points="219.5,-112.5 219.5,-131.5 319.5,-131.5 319.5,-112.5 219.5,-112.5"/>
<text text-anchor="middle" x="269.5" y="-119.5" font-family="Helvetica,sans-Serif" font-size="10.00">read_bitstream.h</text>
</a>
</g>
</g>
<!-- Node1&#45;&gt;Node4 -->
<g id="edge3" class="edge">
<title>Node1&#45;&gt;Node4</title>
<path fill="none" stroke="midnightblue" d="M326.73,-162.62C312.48,-152.76 294.04,-139.99 282,-131.65"/>
<polygon fill="midnightblue" stroke="midnightblue" points="324.75,-165.51 334.97,-168.32 328.74,-159.75 324.75,-165.51"/>
</g>
<!-- Node5 -->
<g id="node5" class="node">
<title>Node5</title>
<g id="a_node5"><a xlink:href="decmp_8c.html" target="_top" xlink:title="software decompression library">
<polygon fill="white" stroke="black" points="283.5,-56.5 283.5,-75.5 341.5,-75.5 341.5,-56.5 283.5,-56.5"/>
<text text-anchor="middle" x="312.5" y="-63.5" font-family="Helvetica,sans-Serif" font-size="10.00">decmp.c</text>
</a>
</g>
</g>
<!-- Node1&#45;&gt;Node5 -->
<g id="edge9" class="edge">
<title>Node1&#45;&gt;Node5</title>
<path fill="none" stroke="midnightblue" d="M342.38,-158.44C338.71,-145.39 333.53,-127.56 328.5,-112 324.36,-99.22 319.06,-84.59 315.71,-75.58"/>
<polygon fill="midnightblue" stroke="midnightblue" points="339.02,-159.43 345.08,-168.12 345.76,-157.55 339.02,-159.43"/>
</g>
<!-- Node7 -->
<g id="node7" class="node">
<title>Node7</title>
<g id="a_node7"><a xlink:href="cmp__icu_8c.html" target="_top" xlink:title="software compression library">
<polygon fill="white" stroke="black" points="376,-112.5 376,-131.5 441,-131.5 441,-112.5 376,-112.5"/>
<text text-anchor="middle" x="408.5" y="-119.5" font-family="Helvetica,sans-Serif" font-size="10.00">cmp_icu.c</text>
</a>
</g>
</g>
<!-- Node1&#45;&gt;Node7 -->
<g id="edge6" class="edge">
<title>Node1&#45;&gt;Node7</title>
<path fill="none" stroke="midnightblue" d="M364.97,-161.54C375.84,-151.91 389.44,-139.87 398.52,-131.83"/>
<polygon fill="midnightblue" stroke="midnightblue" points="362.47,-159.07 357.3,-168.32 367.11,-164.32 362.47,-159.07"/>
</g>
<!-- Node9 -->
<g id="node9" class="node">
<title>Node9</title>
<g id="a_node9"><a xlink:href="rdcu__ctrl_8c.html" target="_top" xlink:title="RMAP RDCU control library.">
<polygon fill="white" stroke="black" points="459,-112.5 459,-131.5 526,-131.5 526,-112.5 459,-112.5"/>
<text text-anchor="middle" x="492.5" y="-119.5" font-family="Helvetica,sans-Serif" font-size="10.00">rdcu_ctrl.c</text>
</a>
</g>
</g>
<!-- Node1&#45;&gt;Node9 -->
<g id="edge10" class="edge">
<title>Node1&#45;&gt;Node9</title>
<path fill="none" stroke="midnightblue" d="M379.98,-164.91C407.24,-154.75 445.49,-140.51 469.63,-131.52"/>
<polygon fill="midnightblue" stroke="midnightblue" points="378.63,-161.67 370.48,-168.44 381.07,-168.23 378.63,-161.67"/>
</g>
<!-- Node10 -->
<g id="node10" class="node">
<title>Node10</title>
<g id="a_node10"><a xlink:href="rdcu__rmap_8c.html" target="_top" xlink:title="RMAP RDCU link interface.">
<polygon fill="white" stroke="black" points="544,-112.5 544,-131.5 621,-131.5 621,-112.5 544,-112.5"/>
<text text-anchor="middle" x="582.5" y="-119.5" font-family="Helvetica,sans-Serif" font-size="10.00">rdcu_rmap.c</text>
</a>
</g>
</g>
<!-- Node1&#45;&gt;Node10 -->
<g id="edge11" class="edge">
<title>Node1&#45;&gt;Node10</title>
<path fill="none" stroke="midnightblue" d="M393.66,-166.39C438.09,-156.18 504.41,-140.94 545.48,-131.51"/>
<polygon fill="midnightblue" stroke="midnightblue" points="392.67,-163.03 383.7,-168.68 394.23,-169.85 392.67,-163.03"/>
</g>
<!-- Node4&#45;&gt;Node5 -->
<g id="edge4" class="edge">
<title>Node4&#45;&gt;Node5</title>
<path fill="none" stroke="midnightblue" d="M282.92,-104.14C290.41,-94.74 299.44,-83.4 305.53,-75.75"/>
<polygon fill="midnightblue" stroke="midnightblue" points="280.09,-102.08 276.6,-112.08 285.57,-106.44 280.09,-102.08"/>
</g>
<!-- Node6 -->
<g id="node6" class="node">
<title>Node6</title>
<g id="a_node6"><a xlink:href="test__decmp_8c.html" target="_top" xlink:title="decompression tests">
<polygon fill="white" stroke="black" points="299.5,-0.5 299.5,-19.5 381.5,-19.5 381.5,-0.5 299.5,-0.5"/>
<text text-anchor="middle" x="340.5" y="-7.5" font-family="Helvetica,sans-Serif" font-size="10.00">test_decmp.c</text>
</a>
</g>
</g>
<!-- Node5&#45;&gt;Node6 -->
<g id="edge5" class="edge">
<title>Node5&#45;&gt;Node6</title>
<path fill="none" stroke="midnightblue" d="M321.84,-46.98C326.59,-37.82 332.16,-27.09 335.96,-19.75"/>
<polygon fill="midnightblue" stroke="midnightblue" points="318.62,-45.59 317.12,-56.08 324.83,-48.82 318.62,-45.59"/>
</g>
<!-- Node7&#45;&gt;Node6 -->
<g id="edge8" class="edge">
<title>Node7&#45;&gt;Node6</title>
<path fill="none" stroke="midnightblue" d="M397.77,-103.64C383,-79.74 356.96,-37.63 345.81,-19.59"/>
<polygon fill="midnightblue" stroke="midnightblue" points="394.93,-105.7 403.16,-112.37 400.88,-102.02 394.93,-105.7"/>
</g>
<!-- Node8 -->
<g id="node8" class="node">
<title>Node8</title>
<g id="a_node8"><a xlink:href="test__cmp__icu_8c.html" target="_top" xlink:title="software compression tests">
<polygon fill="white" stroke="black" points="398,-56.5 398,-75.5 487,-75.5 487,-56.5 398,-56.5"/>
<text text-anchor="middle" x="442.5" y="-63.5" font-family="Helvetica,sans-Serif" font-size="10.00">test_cmp_icu.c</text>
</a>
</g>
</g>
<!-- Node7&#45;&gt;Node8 -->
<g id="edge7" class="edge">
<title>Node7&#45;&gt;Node8</title>
<path fill="none" stroke="midnightblue" d="M419.48,-103.57C425.33,-94.27 432.27,-83.25 436.99,-75.75"/>
<polygon fill="midnightblue" stroke="midnightblue" points="416.48,-101.76 414.11,-112.08 422.4,-105.49 416.48,-101.76"/>
</g>
</g>
</svg>
        <g id="navigator" transform="translate(0 0)" fill="#404254">
                <rect fill="#f2f5e9" fill-opacity="0.5" stroke="#606060" stroke-width=".5" x="0" y="0" width="60" height="60"/>
                <use id="zoomplus" xlink:href="#zoomPlus" x="17" y="9" onmousedown="handleZoom(evt,'in')"/>
                <use id="zoomminus" xlink:href="#zoomMin" x="42" y="9" onmousedown="handleZoom(evt,'out')"/>
                <use id="reset" xlink:href="#resetDef" x="30" y="36" onmousedown="handleReset()"/>
                <g id="arrowUp" xlink:href="#dirArrow" transform="translate(30 24)" onmousedown="handlePan(0,-1)">
                  <use xlink:href="#rim" fill="#404040">
                        <set attributeName="fill" to="#808080" begin="arrowUp.mouseover" end="arrowUp.mouseout"/>
                  </use>
                  <path fill="none" stroke="white" stroke-width="1.5" d="M0,-3.0v7 M-2.5,-0.5L0,-3.0L2.5,-0.5"/>
                </g>
                <g id="arrowRight" xlink:href="#dirArrow" transform="rotate(90) translate(36 -43)" onmousedown="handlePan(1,0)">
                  <use xlink:href="#rim" fill="#404040">
                        <set attributeName="fill" to="#808080" begin="arrowRight.mouseover" end="arrowRight.mouseout"/>
                  </use>
                  <path fill="none" stroke="white" stroke-width="1.5" d="M0,-3.0v7 M-2.5,-0.5L0,-3.0L2.5,-0.5"/>
                </g>
                <g id="arrowDown" xlink:href="#dirArrow" transform="rotate(180) translate(-30 -48)" onmousedown="handlePan(0,1)">
                  <use xlink:href="#rim" fill="#404040">
                        <set attributeName="fill" to="#808080" begin="arrowDown.mouseover" end="arrowDown.mouseout"/>
                  </use>
                  <path fill="none" stroke="white" stroke-width="1.5" d="M0,-3.0v7 M-2.5,-0.5L0,-3.0L2.5,-0.5"/>
                </g>
                <g id="arrowLeft" xlink:href="#dirArrow" transform="rotate(270) translate(-36 17)" onmousedown="handlePan(-1,0)">
                  <use xlink:href="#rim" fill="#404040">
                        <set attributeName="fill" to="#808080" begin="arrowLeft.mouseover" end="arrowLeft.mouseout"/>
                  </use>
                  <path fill="none" stroke="white" stroke-width="1.5" d="M0,-3.0v7 M-2.5,-0.5L0,-3.0L2.5,-0.5"/>
                </g>
        </g>
        <svg viewBox="0 0 15 15" width="100%" height="30px" preserveAspectRatio="xMaxYMin meet">
         <g id="arrow_out" transform="scale(0.3 0.3)">
          <a xlink:href="byteorder_8h__dep__incl_org.svg" target="_base">
           <rect id="button" ry="5" rx="5" y="6" x="6" height="38" width="38"
                fill="#f2f5e9" fill-opacity="0.5" stroke="#606060" stroke-width="1.0"/>
           <path id="arrow"
             d="M 11.500037,31.436501 C 11.940474,20.09759 22.043105,11.32322 32.158766,21.979434 L 37.068811,17.246167 C 37.068811,17.246167 37.088388,32 37.088388,32 L 22.160133,31.978069 C 22.160133,31.978069 26.997745,27.140456 26.997745,27.140456 C 18.528582,18.264221 13.291696,25.230495 11.500037,31.436501 z"
             style="fill:#404040;"/>
          </a>
         </g>
        </svg>
</svg>
