<?xml version="1.0" encoding="UTF-8" standalone="no"?>
<!DOCTYPE svg PUBLIC "-//W3C//DTD SVG 1.1//EN"
 "http://www.w3.org/Graphics/SVG/1.1/DTD/svg11.dtd">
<!-- Generated by graphviz version 2.43.0 (0)
 -->
<!-- Title: rdcu_cfg_buffers_is_invalid Pages: 1 -->
<svg width="276pt" height="104pt"
 viewBox="0.00 0.00 276.00 104.00" xmlns="http://www.w3.org/2000/svg" xmlns:xlink="http://www.w3.org/1999/xlink">
<g id="graph0" class="graph" transform="scale(1 1) rotate(0) translate(4 100)">
<title>rdcu_cfg_buffers_is_invalid</title>
<polygon fill="white" stroke="transparent" points="-4,4 -4,-100 272,-100 272,4 -4,4"/>
<!-- Node1 -->
<g id="node1" class="node">
<title>Node1</title>
<g id="a_node1"><a xlink:title="check if RDCU buffer settings are invalid">
<polygon fill="#bfbfbf" stroke="black" points="0,-33 0,-63 110,-63 110,-33 0,-33"/>
<text text-anchor="start" x="8" y="-51" font-family="Helvetica,sans-Serif" font-size="10.00">rdcu_cfg_buffers_is</text>
<text text-anchor="middle" x="55" y="-40" font-family="Helvetica,sans-Serif" font-size="10.00">_invalid</text>
</a>
</g>
</g>
<!-- Node2 -->
<g id="node2" class="node">
<title>Node2</title>
<g id="a_node2"><a xlink:href="cmp__rdcu__cfg_8c_a44623195b1df75bdf1134277861f2e3b.html#a44623195b1df75bdf1134277861f2e3b" target="_top" xlink:title="check if two buffers are overlapping">
<polygon fill="white" stroke="black" points="161,-76.5 161,-95.5 253,-95.5 253,-76.5 161,-76.5"/>
<text text-anchor="middle" x="207" y="-83.5" font-family="Helvetica,sans-Serif" font-size="10.00">buffers_overlap</text>
</a>
</g>
</g>
<!-- Node1&#45;&gt;Node2 -->
<g id="edge1" class="edge">
<title>Node1&#45;&gt;Node2</title>
<path fill="none" stroke="midnightblue" d="M110.15,-61.72C125.99,-65.73 143.17,-70.08 158.55,-73.98"/>
<polygon fill="midnightblue" stroke="midnightblue" points="157.81,-77.4 168.37,-76.47 159.53,-70.62 157.81,-77.4"/>
</g>
<!-- Node3 -->
<g id="node3" class="node">
<title>Node3</title>
<g id="a_node3"><a xlink:href="cmp__support_8c_afba7806c424cfb8c7678c1b4cebdfcbb.html#afba7806c424cfb8c7678c1b4cebdfcbb" target="_top" xlink:title="check if a model mode is selected">
<polygon fill="white" stroke="black" points="146,-38.5 146,-57.5 268,-57.5 268,-38.5 146,-38.5"/>
<text text-anchor="middle" x="207" y="-45.5" font-family="Helvetica,sans-Serif" font-size="10.00">model_mode_is_used</text>
</a>
</g>
</g>
<!-- Node1&#45;&gt;Node3 -->
<g id="edge2" class="edge">
<title>Node1&#45;&gt;Node3</title>
<path fill="none" stroke="midnightblue" d="M110.15,-48C118.48,-48 127.17,-48 135.78,-48"/>
<polygon fill="midnightblue" stroke="midnightblue" points="135.83,-51.5 145.83,-48 135.83,-44.5 135.83,-51.5"/>
</g>
<!-- Node4 -->
<g id="node4" class="node">
<title>Node4</title>
<g id="a_node4"><a xlink:href="cmp__rdcu__cfg_8c_aaa2275f0756d097ec8b94139ab116be4.html#aaa2275f0756d097ec8b94139ab116be4" target="_top" xlink:title="check if a buffer is in outside the RDCU SRAM">
<polygon fill="white" stroke="black" points="149,-0.5 149,-19.5 265,-19.5 265,-0.5 149,-0.5"/>
<text text-anchor="middle" x="207" y="-7.5" font-family="Helvetica,sans-Serif" font-size="10.00">outside_sram_range</text>
</a>
</g>
</g>
<!-- Node1&#45;&gt;Node4 -->
<g id="edge3" class="edge">
<title>Node1&#45;&gt;Node4</title>
<path fill="none" stroke="midnightblue" d="M110.15,-34.28C125.99,-30.27 143.17,-25.92 158.55,-22.02"/>
<polygon fill="midnightblue" stroke="midnightblue" points="159.53,-25.38 168.37,-19.53 157.81,-18.6 159.53,-25.38"/>
</g>
</g>
</svg>
