<?xml version="1.0" encoding="UTF-8" standalone="no"?>
<!DOCTYPE svg PUBLIC "-//W3C//DTD SVG 1.1//EN"
 "http://www.w3.org/Graphics/SVG/1.1/DTD/svg11.dtd">
<!-- Generated by graphviz version 2.43.0 (0)
 -->
<!-- Title: cmp_cal_up_model.h Pages: 1 -->
<svg width="1577pt" height="319pt"
 viewBox="0.00 0.00 1576.50 319.00" xmlns="http://www.w3.org/2000/svg" xmlns:xlink="http://www.w3.org/1999/xlink">
<g id="graph0" class="graph" transform="scale(1 1) rotate(0) translate(4 315)">
<title>cmp_cal_up_model.h</title>
<polygon fill="white" stroke="transparent" points="-4,4 -4,-315 1572.5,-315 1572.5,4 -4,4"/>
<!-- Node1 -->
<g id="node1" class="node">
<title>Node1</title>
<g id="a_node1"><a xlink:title="functions to calculate the update (new) model">
<polygon fill="#bfbfbf" stroke="black" points="572,-291.5 572,-310.5 691,-310.5 691,-291.5 572,-291.5"/>
<text text-anchor="middle" x="631.5" y="-298.5" font-family="Helvetica,sans-Serif" font-size="10.00">cmp_cal_up_model.h</text>
</a>
</g>
</g>
<!-- Node2 -->
<g id="node2" class="node">
<title>Node2</title>
<g id="a_node2"><a xlink:href="cmp__support_8h.html" target="_top" xlink:title="compression/decompression helper functions">
<polygon fill="white" stroke="black" points="587,-235.5 587,-254.5 676,-254.5 676,-235.5 587,-235.5"/>
<text text-anchor="middle" x="631.5" y="-242.5" font-family="Helvetica,sans-Serif" font-size="10.00">cmp_support.h</text>
</a>
</g>
</g>
<!-- Node1&#45;&gt;Node2 -->
<g id="edge1" class="edge">
<title>Node1&#45;&gt;Node2</title>
<path fill="none" stroke="midnightblue" d="M631.5,-280.8C631.5,-271.91 631.5,-261.78 631.5,-254.75"/>
<polygon fill="midnightblue" stroke="midnightblue" points="628,-281.08 631.5,-291.08 635,-281.08 628,-281.08"/>
</g>
<!-- Node3 -->
<g id="node3" class="node">
<title>Node3</title>
<g id="a_node3"><a xlink:href="cmp__icu_8h.html" target="_top" xlink:title="software compression library">
<polygon fill="white" stroke="black" points="66.5,-179.5 66.5,-198.5 132.5,-198.5 132.5,-179.5 66.5,-179.5"/>
<text text-anchor="middle" x="99.5" y="-186.5" font-family="Helvetica,sans-Serif" font-size="10.00">cmp_icu.h</text>
</a>
</g>
</g>
<!-- Node2&#45;&gt;Node3 -->
<g id="edge2" class="edge">
<title>Node2&#45;&gt;Node3</title>
<path fill="none" stroke="midnightblue" d="M576.92,-238.92C491.48,-230.89 320.97,-214.59 176.5,-199 162.18,-197.46 146.38,-195.63 132.84,-194.03"/>
<polygon fill="midnightblue" stroke="midnightblue" points="576.63,-242.41 586.91,-239.86 577.28,-235.44 576.63,-242.41"/>
</g>
<!-- Node4 -->
<g id="node4" class="node">
<title>Node4</title>
<g id="a_node4"><a xlink:href="cmp__icu_8c.html" target="_top" xlink:title="software compression library">
<polygon fill="white" stroke="black" points="97,-123.5 97,-142.5 162,-142.5 162,-123.5 97,-123.5"/>
<text text-anchor="middle" x="129.5" y="-130.5" font-family="Helvetica,sans-Serif" font-size="10.00">cmp_icu.c</text>
</a>
</g>
</g>
<!-- Node2&#45;&gt;Node4 -->
<g id="edge35" class="edge">
<title>Node2&#45;&gt;Node4</title>
<path fill="none" stroke="midnightblue" d="M576.68,-241.75C478.99,-237.13 279.01,-224.78 214.5,-199 182.07,-186.04 151.43,-157.06 137.44,-142.58"/>
<polygon fill="midnightblue" stroke="midnightblue" points="576.79,-245.25 586.94,-242.22 577.11,-238.26 576.79,-245.25"/>
</g>
<!-- Node8 -->
<g id="node8" class="node">
<title>Node8</title>
<g id="a_node8"><a xlink:href="cmp__data__types_8h.html" target="_top" xlink:title="definition of the different compression data types">
<polygon fill="white" stroke="black" points="578.5,-179.5 578.5,-198.5 684.5,-198.5 684.5,-179.5 578.5,-179.5"/>
<text text-anchor="middle" x="631.5" y="-186.5" font-family="Helvetica,sans-Serif" font-size="10.00">cmp_data_types.h</text>
</a>
</g>
</g>
<!-- Node2&#45;&gt;Node8 -->
<g id="edge8" class="edge">
<title>Node2&#45;&gt;Node8</title>
<path fill="none" stroke="midnightblue" d="M631.5,-224.8C631.5,-215.91 631.5,-205.78 631.5,-198.75"/>
<polygon fill="midnightblue" stroke="midnightblue" points="628,-225.08 631.5,-235.08 635,-225.08 628,-225.08"/>
</g>
<!-- Node9 -->
<g id="node9" class="node">
<title>Node9</title>
<g id="a_node9"><a xlink:href="cmp__data__types_8c.html" target="_top" xlink:title="collection of functions to handle the different compression data types">
<polygon fill="white" stroke="black" points="1038,-123.5 1038,-142.5 1143,-142.5 1143,-123.5 1038,-123.5"/>
<text text-anchor="middle" x="1090.5" y="-130.5" font-family="Helvetica,sans-Serif" font-size="10.00">cmp_data_types.c</text>
</a>
</g>
</g>
<!-- Node2&#45;&gt;Node9 -->
<g id="edge21" class="edge">
<title>Node2&#45;&gt;Node9</title>
<path fill="none" stroke="midnightblue" d="M676.92,-233.12C768.23,-211.23 972.38,-162.31 1054.89,-142.53"/>
<polygon fill="midnightblue" stroke="midnightblue" points="676.04,-229.73 667.14,-235.46 677.68,-236.53 676.04,-229.73"/>
</g>
<!-- Node11 -->
<g id="node11" class="node">
<title>Node11</title>
<g id="a_node11"><a xlink:href="cmp__entity_8c.html" target="_top" xlink:title="functions and definition to handle a compression entity">
<polygon fill="white" stroke="black" points="410.5,-123.5 410.5,-142.5 488.5,-142.5 488.5,-123.5 410.5,-123.5"/>
<text text-anchor="middle" x="449.5" y="-130.5" font-family="Helvetica,sans-Serif" font-size="10.00">cmp_entity.c</text>
</a>
</g>
</g>
<!-- Node2&#45;&gt;Node11 -->
<g id="edge31" class="edge">
<title>Node2&#45;&gt;Node11</title>
<path fill="none" stroke="midnightblue" d="M608.35,-230.01C570.15,-206.92 495.02,-161.51 463.71,-142.59"/>
<polygon fill="midnightblue" stroke="midnightblue" points="606.85,-233.19 617.22,-235.37 610.47,-227.2 606.85,-233.19"/>
</g>
<!-- Node13 -->
<g id="node13" class="node">
<title>Node13</title>
<g id="a_node13"><a xlink:href="decmp_8c.html" target="_top" xlink:title="software decompression library">
<polygon fill="white" stroke="black" points="344.5,-62 344.5,-81 402.5,-81 402.5,-62 344.5,-62"/>
<text text-anchor="middle" x="373.5" y="-69" font-family="Helvetica,sans-Serif" font-size="10.00">decmp.c</text>
</a>
</g>
</g>
<!-- Node2&#45;&gt;Node13 -->
<g id="edge42" class="edge">
<title>Node2&#45;&gt;Node13</title>
<path fill="none" stroke="midnightblue" d="M576.61,-241.39C477.38,-236.11 276.44,-222.6 255.5,-199 236.61,-177.72 263.66,-142.96 282.5,-123 301.23,-103.16 329.53,-89.16 349.58,-81.01"/>
<polygon fill="midnightblue" stroke="midnightblue" points="576.58,-244.89 586.75,-241.92 576.95,-237.9 576.58,-244.89"/>
</g>
<!-- Node17 -->
<g id="node17" class="node">
<title>Node17</title>
<g id="a_node17"><a xlink:href="cmp__rdcu_8h.html" target="_top" xlink:title="hardware compressor control library">
<polygon fill="white" stroke="black" points="1161,-123.5 1161,-142.5 1234,-142.5 1234,-123.5 1161,-123.5"/>
<text text-anchor="middle" x="1197.5" y="-130.5" font-family="Helvetica,sans-Serif" font-size="10.00">cmp_rdcu.h</text>
</a>
</g>
</g>
<!-- Node2&#45;&gt;Node17 -->
<g id="edge20" class="edge">
<title>Node2&#45;&gt;Node17</title>
<path fill="none" stroke="midnightblue" d="M685.92,-234.23C735.4,-225.29 810.41,-211.57 875.5,-199 979.09,-178.99 1101.12,-153.96 1160.84,-141.61"/>
<polygon fill="midnightblue" stroke="midnightblue" points="685.29,-230.79 676.07,-236.01 686.53,-237.68 685.29,-230.79"/>
</g>
<!-- Node18 -->
<g id="node18" class="node">
<title>Node18</title>
<g id="a_node18"><a xlink:href="cmp__entity_8h.html" target="_top" xlink:title="functions and definition to handle a compression entity">
<polygon fill="white" stroke="black" points="265,-179.5 265,-198.5 344,-198.5 344,-179.5 265,-179.5"/>
<text text-anchor="middle" x="304.5" y="-186.5" font-family="Helvetica,sans-Serif" font-size="10.00">cmp_entity.h</text>
</a>
</g>
</g>
<!-- Node2&#45;&gt;Node18 -->
<g id="edge22" class="edge">
<title>Node2&#45;&gt;Node18</title>
<path fill="none" stroke="midnightblue" d="M576.54,-234.92C510.77,-224.06 402.25,-206.14 344.14,-196.55"/>
<polygon fill="midnightblue" stroke="midnightblue" points="576.28,-238.43 586.72,-236.6 577.42,-231.52 576.28,-238.43"/>
</g>
<!-- Node19 -->
<g id="node19" class="node">
<title>Node19</title>
<g id="a_node19"><a xlink:href="decmp_8h.html" target="_top" xlink:title="software decompression library">
<polygon fill="white" stroke="black" points="333,-123.5 333,-142.5 392,-142.5 392,-123.5 333,-123.5"/>
<text text-anchor="middle" x="362.5" y="-130.5" font-family="Helvetica,sans-Serif" font-size="10.00">decmp.h</text>
</a>
</g>
</g>
<!-- Node2&#45;&gt;Node19 -->
<g id="edge33" class="edge">
<title>Node2&#45;&gt;Node19</title>
<path fill="none" stroke="midnightblue" d="M600.91,-231.65C578.61,-222.63 547.67,-210.09 520.5,-199 471.21,-178.87 413.36,-155.01 383.19,-142.55"/>
<polygon fill="midnightblue" stroke="midnightblue" points="599.62,-234.9 610.21,-235.41 602.25,-228.41 599.62,-234.9"/>
</g>
<!-- Node20 -->
<g id="node20" class="node">
<title>Node20</title>
<g id="a_node20"><a xlink:href="cmp__support_8c.html" target="_top" xlink:title="compressor support library">
<polygon fill="white" stroke="black" points="1345.5,-179.5 1345.5,-198.5 1433.5,-198.5 1433.5,-179.5 1345.5,-179.5"/>
<text text-anchor="middle" x="1389.5" y="-186.5" font-family="Helvetica,sans-Serif" font-size="10.00">cmp_support.c</text>
</a>
</g>
</g>
<!-- Node2&#45;&gt;Node20 -->
<g id="edge32" class="edge">
<title>Node2&#45;&gt;Node20</title>
<path fill="none" stroke="midnightblue" d="M686.5,-242.14C804.78,-237.78 1092.08,-225.22 1331.5,-199 1335.96,-198.51 1340.6,-197.93 1345.22,-197.29"/>
<polygon fill="midnightblue" stroke="midnightblue" points="686.12,-238.66 676.25,-242.52 686.37,-245.65 686.12,-238.66"/>
</g>
<!-- Node21 -->
<g id="node21" class="node">
<title>Node21</title>
<g id="a_node21"><a xlink:href="cmp__rdcu_8c.html" target="_top" xlink:title="hardware compressor control library">
<polygon fill="white" stroke="black" points="1252.5,-123.5 1252.5,-142.5 1324.5,-142.5 1324.5,-123.5 1252.5,-123.5"/>
<text text-anchor="middle" x="1288.5" y="-130.5" font-family="Helvetica,sans-Serif" font-size="10.00">cmp_rdcu.c</text>
</a>
</g>
</g>
<!-- Node2&#45;&gt;Node21 -->
<g id="edge34" class="edge">
<title>Node2&#45;&gt;Node21</title>
<path fill="none" stroke="midnightblue" d="M686.31,-236.57C747.79,-228.1 850.45,-213.53 938.5,-199 1074.48,-176.56 1108.15,-168.96 1243.5,-143 1246.32,-142.46 1249.23,-141.89 1252.16,-141.32"/>
<polygon fill="midnightblue" stroke="midnightblue" points="685.49,-233.15 676.06,-237.98 686.45,-240.09 685.49,-233.15"/>
</g>
<!-- Node22 -->
<g id="node22" class="node">
<title>Node22</title>
<g id="a_node22"><a xlink:href="cmp__rdcu__cfg_8h.html" target="_top" xlink:title="hardware compressor configuration library">
<polygon fill="white" stroke="black" points="1196,-179.5 1196,-198.5 1289,-198.5 1289,-179.5 1196,-179.5"/>
<text text-anchor="middle" x="1242.5" y="-186.5" font-family="Helvetica,sans-Serif" font-size="10.00">cmp_rdcu_cfg.h</text>
</a>
</g>
</g>
<!-- Node2&#45;&gt;Node22 -->
<g id="edge36" class="edge">
<title>Node2&#45;&gt;Node22</title>
<path fill="none" stroke="midnightblue" d="M686.41,-239.15C805.31,-228.64 1084.8,-203.94 1195.84,-194.12"/>
<polygon fill="midnightblue" stroke="midnightblue" points="686.08,-235.66 676.43,-240.03 686.7,-242.64 686.08,-235.66"/>
</g>
<!-- Node23 -->
<g id="node23" class="node">
<title>Node23</title>
<g id="a_node23"><a xlink:href="cmp__rdcu__cfg_8c.html" target="_top" xlink:title="hardware compressor configuration library">
<polygon fill="white" stroke="black" points="1476.5,-123.5 1476.5,-142.5 1568.5,-142.5 1568.5,-123.5 1476.5,-123.5"/>
<text text-anchor="middle" x="1522.5" y="-130.5" font-family="Helvetica,sans-Serif" font-size="10.00">cmp_rdcu_cfg.c</text>
</a>
</g>
</g>
<!-- Node2&#45;&gt;Node23 -->
<g id="edge41" class="edge">
<title>Node2&#45;&gt;Node23</title>
<path fill="none" stroke="midnightblue" d="M686.43,-243.22C824.64,-240.78 1183.95,-231.43 1298.5,-199 1316.86,-193.8 1318.64,-185.74 1336.5,-179 1382.81,-161.52 1438.22,-149.14 1476.45,-141.85"/>
<polygon fill="midnightblue" stroke="midnightblue" points="686.02,-239.72 676.08,-243.39 686.14,-246.72 686.02,-239.72"/>
</g>
<!-- Node3&#45;&gt;Node4 -->
<g id="edge3" class="edge">
<title>Node3&#45;&gt;Node4</title>
<path fill="none" stroke="midnightblue" d="M109.35,-170.27C114.47,-161.05 120.52,-150.17 124.64,-142.75"/>
<polygon fill="midnightblue" stroke="midnightblue" points="106.25,-168.64 104.45,-179.08 112.37,-172.04 106.25,-168.64"/>
</g>
<!-- Node5 -->
<g id="node5" class="node">
<title>Node5</title>
<g id="a_node5"><a xlink:href="test__cmp__icu_8c.html" target="_top" xlink:title="software compression tests">
<polygon fill="white" stroke="black" points="0,-62 0,-81 89,-81 89,-62 0,-62"/>
<text text-anchor="middle" x="44.5" y="-69" font-family="Helvetica,sans-Serif" font-size="10.00">test_cmp_icu.c</text>
</a>
</g>
</g>
<!-- Node3&#45;&gt;Node5 -->
<g id="edge7" class="edge">
<title>Node3&#45;&gt;Node5</title>
<path fill="none" stroke="midnightblue" d="M79.07,-172.71C70.07,-164.85 60.24,-154.5 54.5,-143 44.34,-122.65 43.62,-95.13 44.02,-81.26"/>
<polygon fill="midnightblue" stroke="midnightblue" points="77.02,-175.55 86.97,-179.19 81.46,-170.14 77.02,-175.55"/>
</g>
<!-- Node7 -->
<g id="node7" class="node">
<title>Node7</title>
<g id="a_node7"><a xlink:href="test__cmp__decmp_8c.html" target="_top" xlink:title="random compression decompression tests">
<polygon fill="white" stroke="black" points="218.5,-62 218.5,-81 326.5,-81 326.5,-62 218.5,-62"/>
<text text-anchor="middle" x="272.5" y="-69" font-family="Helvetica,sans-Serif" font-size="10.00">test_cmp_decmp.c</text>
</a>
</g>
</g>
<!-- Node3&#45;&gt;Node7 -->
<g id="edge6" class="edge">
<title>Node3&#45;&gt;Node7</title>
<path fill="none" stroke="midnightblue" d="M89.4,-170.28C82.82,-156.13 77.19,-136.5 87.5,-123 103.41,-102.16 169.77,-87.85 218.48,-79.92"/>
<polygon fill="midnightblue" stroke="midnightblue" points="86.44,-172.18 94.15,-179.45 92.66,-168.96 86.44,-172.18"/>
</g>
<!-- Node4&#45;&gt;Node5 -->
<g id="edge4" class="edge">
<title>Node4&#45;&gt;Node5</title>
<path fill="none" stroke="midnightblue" d="M108.95,-117.61C92.6,-106.17 70.28,-90.55 56.66,-81.01"/>
<polygon fill="midnightblue" stroke="midnightblue" points="107.12,-120.61 117.32,-123.48 111.14,-114.87 107.12,-120.61"/>
</g>
<!-- Node6 -->
<g id="node6" class="node">
<title>Node6</title>
<g id="a_node6"><a xlink:href="test__decmp_8c.html" target="_top" xlink:title="decompression tests">
<polygon fill="white" stroke="black" points="149.5,-0.5 149.5,-19.5 231.5,-19.5 231.5,-0.5 149.5,-0.5"/>
<text text-anchor="middle" x="190.5" y="-7.5" font-family="Helvetica,sans-Serif" font-size="10.00">test_decmp.c</text>
</a>
</g>
</g>
<!-- Node4&#45;&gt;Node6 -->
<g id="edge5" class="edge">
<title>Node4&#45;&gt;Node6</title>
<path fill="none" stroke="midnightblue" d="M138.55,-114.05C151.87,-87.62 176.26,-39.26 186.15,-19.62"/>
<polygon fill="midnightblue" stroke="midnightblue" points="135.26,-112.79 133.89,-123.3 141.51,-115.94 135.26,-112.79"/>
</g>
<!-- Node8&#45;&gt;Node4 -->
<g id="edge16" class="edge">
<title>Node8&#45;&gt;Node4</title>
<path fill="none" stroke="midnightblue" d="M568.15,-181.19C460.23,-169.58 244.42,-146.36 162.27,-137.53"/>
<polygon fill="midnightblue" stroke="midnightblue" points="567.94,-184.68 578.25,-182.27 568.68,-177.72 567.94,-184.68"/>
</g>
<!-- Node8&#45;&gt;Node7 -->
<g id="edge18" class="edge">
<title>Node8&#45;&gt;Node7</title>
<path fill="none" stroke="midnightblue" d="M603.5,-175.29C584.26,-166.45 558.2,-154.29 535.5,-143 518.41,-134.5 515.42,-129.57 497.5,-123 428.26,-97.6 407.44,-103.27 335.5,-87 327.07,-85.09 318.01,-83.02 309.47,-81.06"/>
<polygon fill="midnightblue" stroke="midnightblue" points="602.06,-178.48 612.61,-179.46 604.98,-172.12 602.06,-178.48"/>
</g>
<!-- Node8&#45;&gt;Node9 -->
<g id="edge9" class="edge">
<title>Node8&#45;&gt;Node9</title>
<path fill="none" stroke="midnightblue" d="M694.74,-181.45C773.14,-173.18 910.82,-158.21 1028.5,-143 1031.52,-142.61 1034.62,-142.2 1037.75,-141.77"/>
<polygon fill="midnightblue" stroke="midnightblue" points="694.12,-177.99 684.54,-182.52 694.85,-184.96 694.12,-177.99"/>
</g>
<!-- Node10 -->
<g id="node10" class="node">
<title>Node10</title>
<g id="a_node10"><a xlink:href="cmp__max__used__bits_8c.html" target="_top" xlink:title="definition and consents of the cmp_max_used_bits structure">
<polygon fill="white" stroke="black" points="895,-123.5 895,-142.5 1020,-142.5 1020,-123.5 895,-123.5"/>
<text text-anchor="middle" x="957.5" y="-130.5" font-family="Helvetica,sans-Serif" font-size="10.00">cmp_max_used_bits.c</text>
</a>
</g>
</g>
<!-- Node8&#45;&gt;Node10 -->
<g id="edge10" class="edge">
<title>Node8&#45;&gt;Node10</title>
<path fill="none" stroke="midnightblue" d="M693.13,-177.79C754.73,-167.59 848.36,-152.08 906.09,-142.52"/>
<polygon fill="midnightblue" stroke="midnightblue" points="692.45,-174.36 683.16,-179.44 693.59,-181.26 692.45,-174.36"/>
</g>
<!-- Node8&#45;&gt;Node11 -->
<g id="edge11" class="edge">
<title>Node8&#45;&gt;Node11</title>
<path fill="none" stroke="midnightblue" d="M592.97,-176.57C558.64,-166.38 509.17,-151.7 478.2,-142.52"/>
<polygon fill="midnightblue" stroke="midnightblue" points="592.08,-179.95 602.66,-179.44 594.07,-173.24 592.08,-179.95"/>
</g>
<!-- Node12 -->
<g id="node12" class="node">
<title>Node12</title>
<g id="a_node12"><a xlink:href="cmp__max__used__bits__list_8h.html" target="_top" xlink:title="Implement a list that can hold an arbitrary number of different cmp_max_used_bits structs.">
<polygon fill="white" stroke="black" points="730.5,-123.5 730.5,-142.5 876.5,-142.5 876.5,-123.5 730.5,-123.5"/>
<text text-anchor="middle" x="803.5" y="-130.5" font-family="Helvetica,sans-Serif" font-size="10.00">cmp_max_used_bits_list.h</text>
</a>
</g>
</g>
<!-- Node8&#45;&gt;Node12 -->
<g id="edge12" class="edge">
<title>Node8&#45;&gt;Node12</title>
<path fill="none" stroke="midnightblue" d="M668.33,-176.44C700.76,-166.26 747.24,-151.66 776.37,-142.52"/>
<polygon fill="midnightblue" stroke="midnightblue" points="667.25,-173.11 658.75,-179.44 669.34,-179.79 667.25,-173.11"/>
</g>
<!-- Node15 -->
<g id="node15" class="node">
<title>Node15</title>
<g id="a_node15"><a xlink:href="test__cmp__data__types_8c.html" target="_top" xlink:title="compression data types tests">
<polygon fill="white" stroke="black" points="545,-123.5 545,-142.5 674,-142.5 674,-123.5 545,-123.5"/>
<text text-anchor="middle" x="609.5" y="-130.5" font-family="Helvetica,sans-Serif" font-size="10.00">test_cmp_data_types.c</text>
</a>
</g>
</g>
<!-- Node8&#45;&gt;Node15 -->
<g id="edge17" class="edge">
<title>Node8&#45;&gt;Node15</title>
<path fill="none" stroke="midnightblue" d="M624.04,-169.69C620.33,-160.59 616.02,-150.01 613.07,-142.75"/>
<polygon fill="midnightblue" stroke="midnightblue" points="620.85,-171.14 627.87,-179.08 627.34,-168.5 620.85,-171.14"/>
</g>
<!-- Node16 -->
<g id="node16" class="node">
<title>Node16</title>
<g id="a_node16"><a xlink:href="test__cmp__entity_8c.html" target="_top" xlink:title="compression entity tests">
<polygon fill="white" stroke="black" points="420.5,-62 420.5,-81 522.5,-81 522.5,-62 420.5,-62"/>
<text text-anchor="middle" x="471.5" y="-69" font-family="Helvetica,sans-Serif" font-size="10.00">test_cmp_entity.c</text>
</a>
</g>
</g>
<!-- Node8&#45;&gt;Node16 -->
<g id="edge19" class="edge">
<title>Node8&#45;&gt;Node16</title>
<path fill="none" stroke="midnightblue" d="M655.4,-173.84C674.61,-160.66 696.29,-140.48 682.5,-123 662.96,-98.23 578.66,-84.26 522.71,-77.55"/>
<polygon fill="midnightblue" stroke="midnightblue" points="653.36,-170.99 646.88,-179.37 657.18,-176.86 653.36,-170.99"/>
</g>
<!-- Node12&#45;&gt;Node13 -->
<g id="edge13" class="edge">
<title>Node12&#45;&gt;Node13</title>
<path fill="none" stroke="midnightblue" d="M720.05,-124.89C622.78,-116.16 468.14,-100.83 411.5,-87 405.46,-85.53 399.09,-83.35 393.32,-81.13"/>
<polygon fill="midnightblue" stroke="midnightblue" points="719.88,-128.39 730.15,-125.79 720.5,-121.41 719.88,-128.39"/>
</g>
<!-- Node14 -->
<g id="node14" class="node">
<title>Node14</title>
<g id="a_node14"><a xlink:href="test__cmp__max__used__bits__list_8c.html" target="_top" xlink:title="max_used_bits list tests">
<polygon fill="white" stroke="black" points="733.5,-56.5 733.5,-86.5 873.5,-86.5 873.5,-56.5 733.5,-56.5"/>
<text text-anchor="start" x="741.5" y="-74.5" font-family="Helvetica,sans-Serif" font-size="10.00">test_cmp_max_used_bits</text>
<text text-anchor="middle" x="803.5" y="-63.5" font-family="Helvetica,sans-Serif" font-size="10.00">_list.c</text>
</a>
</g>
</g>
<!-- Node12&#45;&gt;Node14 -->
<g id="edge15" class="edge">
<title>Node12&#45;&gt;Node14</title>
<path fill="none" stroke="midnightblue" d="M803.5,-113.23C803.5,-104.59 803.5,-94.5 803.5,-86.52"/>
<polygon fill="midnightblue" stroke="midnightblue" points="800,-113.48 803.5,-123.48 807,-113.48 800,-113.48"/>
</g>
<!-- Node13&#45;&gt;Node6 -->
<g id="edge14" class="edge">
<title>Node13&#45;&gt;Node6</title>
<path fill="none" stroke="midnightblue" d="M342.4,-58.45C340.07,-57.6 337.75,-56.78 335.5,-56 295.76,-42.27 249.26,-28.18 219.84,-19.51"/>
<polygon fill="midnightblue" stroke="midnightblue" points="341.29,-61.77 351.88,-61.98 343.73,-55.21 341.29,-61.77"/>
</g>
<!-- Node18&#45;&gt;Node4 -->
<g id="edge27" class="edge">
<title>Node18&#45;&gt;Node4</title>
<path fill="none" stroke="midnightblue" d="M267.03,-176.44C234.03,-166.26 186.74,-151.66 157.1,-142.52"/>
<polygon fill="midnightblue" stroke="midnightblue" points="266.18,-179.84 276.77,-179.44 268.25,-173.15 266.18,-179.84"/>
</g>
<!-- Node18&#45;&gt;Node6 -->
<g id="edge30" class="edge">
<title>Node18&#45;&gt;Node6</title>
<path fill="none" stroke="midnightblue" d="M285.31,-172.9C263.63,-154.8 228.85,-122.44 209.5,-87 197.37,-64.8 192.84,-34.74 191.27,-19.96"/>
<polygon fill="midnightblue" stroke="midnightblue" points="283.22,-175.71 293.18,-179.33 287.65,-170.29 283.22,-175.71"/>
</g>
<!-- Node18&#45;&gt;Node11 -->
<g id="edge23" class="edge">
<title>Node18&#45;&gt;Node11</title>
<path fill="none" stroke="midnightblue" d="M336.98,-175.91C364.24,-165.75 402.49,-151.51 426.63,-142.52"/>
<polygon fill="midnightblue" stroke="midnightblue" points="335.63,-172.67 327.48,-179.44 338.07,-179.23 335.63,-172.67"/>
</g>
<!-- Node18&#45;&gt;Node13 -->
<g id="edge28" class="edge">
<title>Node18&#45;&gt;Node13</title>
<path fill="none" stroke="midnightblue" d="M294.45,-170.58C287.99,-156.89 282.22,-137.74 290.5,-123 297.61,-110.35 332.63,-91.91 354.85,-81.16"/>
<polygon fill="midnightblue" stroke="midnightblue" points="291.35,-172.2 299.09,-179.44 297.55,-168.95 291.35,-172.2"/>
</g>
<!-- Node18&#45;&gt;Node16 -->
<g id="edge29" class="edge">
<title>Node18&#45;&gt;Node16</title>
<path fill="none" stroke="midnightblue" d="M305.47,-168.94C307.17,-154.59 311.7,-135.34 323.5,-123 331.9,-114.22 400.91,-93.03 441.67,-81.07"/>
<polygon fill="midnightblue" stroke="midnightblue" points="301.96,-168.92 304.61,-179.18 308.93,-169.5 301.96,-168.92"/>
</g>
<!-- Node18&#45;&gt;Node19 -->
<g id="edge24" class="edge">
<title>Node18&#45;&gt;Node19</title>
<path fill="none" stroke="midnightblue" d="M321.41,-172.25C331.7,-162.67 344.47,-150.79 353.01,-142.83"/>
<polygon fill="midnightblue" stroke="midnightblue" points="318.75,-169.95 313.82,-179.32 323.52,-175.07 318.75,-169.95"/>
</g>
<!-- Node19&#45;&gt;Node7 -->
<g id="edge25" class="edge">
<title>Node19&#45;&gt;Node7</title>
<path fill="none" stroke="midnightblue" d="M341.22,-117.93C323.87,-106.46 299.93,-90.63 285.37,-81.01"/>
<polygon fill="midnightblue" stroke="midnightblue" points="339.33,-120.88 349.61,-123.48 343.19,-115.04 339.33,-120.88"/>
</g>
<!-- Node19&#45;&gt;Node16 -->
<g id="edge26" class="edge">
<title>Node19&#45;&gt;Node16</title>
<path fill="none" stroke="midnightblue" d="M387.13,-118.56C408.22,-107.04 437.96,-90.81 455.91,-81.01"/>
<polygon fill="midnightblue" stroke="midnightblue" points="385.22,-115.61 378.12,-123.48 388.57,-121.76 385.22,-115.61"/>
</g>
<!-- Node22&#45;&gt;Node17 -->
<g id="edge37" class="edge">
<title>Node22&#45;&gt;Node17</title>
<path fill="none" stroke="midnightblue" d="M1228.45,-171.14C1220.61,-161.74 1211.17,-150.4 1204.79,-142.75"/>
<polygon fill="midnightblue" stroke="midnightblue" points="1225.98,-173.64 1235.07,-179.08 1231.36,-169.16 1225.98,-173.64"/>
</g>
<!-- Node22&#45;&gt;Node21 -->
<g id="edge38" class="edge">
<title>Node22&#45;&gt;Node21</title>
<path fill="none" stroke="midnightblue" d="M1256.61,-171.43C1264.68,-161.97 1274.46,-150.48 1281.05,-142.75"/>
<polygon fill="midnightblue" stroke="midnightblue" points="1253.92,-169.2 1250.1,-179.08 1259.25,-173.74 1253.92,-169.2"/>
</g>
<!-- Node22&#45;&gt;Node23 -->
<g id="edge39" class="edge">
<title>Node22&#45;&gt;Node23</title>
<path fill="none" stroke="midnightblue" d="M1296.75,-177.54C1349.67,-167.33 1429.17,-152 1478.34,-142.52"/>
<polygon fill="midnightblue" stroke="midnightblue" points="1296.02,-174.11 1286.87,-179.44 1297.35,-180.99 1296.02,-174.11"/>
</g>
<!-- Node24 -->
<g id="node24" class="node">
<title>Node24</title>
<g id="a_node24"><a xlink:href="test__cmp__rdcu__cfg_8c.html" target="_top" xlink:title="hardware compressor configuration tests">
<polygon fill="white" stroke="black" points="1342.5,-123.5 1342.5,-142.5 1458.5,-142.5 1458.5,-123.5 1342.5,-123.5"/>
<text text-anchor="middle" x="1400.5" y="-130.5" font-family="Helvetica,sans-Serif" font-size="10.00">test_cmp_rdcu_cfg.c</text>
</a>
</g>
</g>
<!-- Node22&#45;&gt;Node24 -->
<g id="edge40" class="edge">
<title>Node22&#45;&gt;Node24</title>
<path fill="none" stroke="midnightblue" d="M1277.11,-176.17C1306.86,-166 1349.05,-151.59 1375.58,-142.52"/>
<polygon fill="midnightblue" stroke="midnightblue" points="1275.87,-172.9 1267.54,-179.44 1278.13,-179.52 1275.87,-172.9"/>
</g>
</g>
</svg>
