<?xml version="1.0" encoding="UTF-8" standalone="no"?>
<!DOCTYPE svg PUBLIC "-//W3C//DTD SVG 1.1//EN"
 "http://www.w3.org/Graphics/SVG/1.1/DTD/svg11.dtd">
<!-- Generated by graphviz version 2.43.0 (0)
 -->
<!-- Title: compress_f_fx_efx_ncob_ecob Pages: 1 -->
<svg width="853pt" height="349pt"
 viewBox="0.00 0.00 853.00 349.00" xmlns="http://www.w3.org/2000/svg" xmlns:xlink="http://www.w3.org/1999/xlink">
<g id="graph0" class="graph" transform="scale(1 1) rotate(0) translate(4 345)">
<title>compress_f_fx_efx_ncob_ecob</title>
<polygon fill="white" stroke="transparent" points="-4,4 -4,-345 849,-345 849,4 -4,4"/>
<!-- Node1 -->
<g id="node1" class="node">
<title>Node1</title>
<g id="a_node1"><a xlink:title="compress F_FX_EFX_NCOB_ECOB data">
<polygon fill="#bfbfbf" stroke="black" points="0,-114.5 0,-133.5 166,-133.5 166,-114.5 0,-114.5"/>
<text text-anchor="middle" x="83" y="-121.5" font-family="Helvetica,sans-Serif" font-size="10.00">compress_f_fx_efx_ncob_ecob</text>
</a>
</g>
</g>
<!-- Node2 -->
<g id="node2" class="node">
<title>Node2</title>
<g id="a_node2"><a xlink:href="cmp__icu_8c_a68e2952d3ee5108ed25d85c0fe15cad9.html#a68e2952d3ee5108ed25d85c0fe15cad9" target="_top" xlink:title="compress the multi&#45;entry packet header structure and sets the data, model and up_model pointers to th...">
<polygon fill="white" stroke="black" points="202,-171.5 202,-190.5 348,-190.5 348,-171.5 202,-171.5"/>
<text text-anchor="middle" x="275" y="-178.5" font-family="Helvetica,sans-Serif" font-size="10.00">compress_multi_entry_hdr</text>
</a>
</g>
</g>
<!-- Node1&#45;&gt;Node2 -->
<g id="edge1" class="edge">
<title>Node1&#45;&gt;Node2</title>
<path fill="none" stroke="midnightblue" d="M112.48,-133.64C136.3,-141.6 171.22,-152.99 202,-162 209.85,-164.3 218.22,-166.62 226.37,-168.82"/>
<polygon fill="midnightblue" stroke="midnightblue" points="225.59,-172.23 236.15,-171.42 227.39,-165.47 225.59,-172.23"/>
</g>
<!-- Node3 -->
<g id="node3" class="node">
<title>Node3</title>
<g id="a_node3"><a xlink:href="cmp__icu_8c_a5434cde7ebe64a734bcd3029e0755d39.html#a5434cde7ebe64a734bcd3029e0755d39" target="_top" xlink:title="configure an encoder setup structure to have a setup to encode a vale">
<polygon fill="white" stroke="black" points="206,-133.5 206,-152.5 344,-152.5 344,-133.5 206,-133.5"/>
<text text-anchor="middle" x="275" y="-140.5" font-family="Helvetica,sans-Serif" font-size="10.00">configure_encoder_setup</text>
</a>
</g>
</g>
<!-- Node1&#45;&gt;Node3 -->
<g id="edge2" class="edge">
<title>Node1&#45;&gt;Node3</title>
<path fill="none" stroke="midnightblue" d="M166.23,-132.22C176.06,-133.21 186.07,-134.21 195.83,-135.18"/>
<polygon fill="midnightblue" stroke="midnightblue" points="195.61,-138.68 205.9,-136.19 196.3,-131.71 195.61,-138.68"/>
</g>
<!-- Node18 -->
<g id="node18" class="node">
<title>Node18</title>
<g id="a_node18"><a xlink:href="cmp__icu_8c_a5268c6512d945edcdc898cd1b2ca5396.html#a5268c6512d945edcdc898cd1b2ca5396" target="_top" xlink:title="encodes the data with the model and the given setup and put it into the bitstream">
<polygon fill="white" stroke="black" points="233,-95.5 233,-114.5 317,-114.5 317,-95.5 233,-95.5"/>
<text text-anchor="middle" x="275" y="-102.5" font-family="Helvetica,sans-Serif" font-size="10.00">encode_value</text>
</a>
</g>
</g>
<!-- Node1&#45;&gt;Node18 -->
<g id="edge22" class="edge">
<title>Node1&#45;&gt;Node18</title>
<path fill="none" stroke="midnightblue" d="M166.23,-115.78C185.51,-113.85 205.51,-111.85 222.97,-110.1"/>
<polygon fill="midnightblue" stroke="midnightblue" points="223.33,-113.58 232.93,-109.11 222.63,-106.62 223.33,-113.58"/>
</g>
<!-- Node19 -->
<g id="node19" class="node">
<title>Node19</title>
<g id="a_node19"><a xlink:href="cmp__support_8c_afba7806c424cfb8c7678c1b4cebdfcbb.html#afba7806c424cfb8c7678c1b4cebdfcbb" target="_top" xlink:title="check if a model mode is selected">
<polygon fill="white" stroke="black" points="214,-57.5 214,-76.5 336,-76.5 336,-57.5 214,-57.5"/>
<text text-anchor="middle" x="275" y="-64.5" font-family="Helvetica,sans-Serif" font-size="10.00">model_mode_is_used</text>
</a>
</g>
</g>
<!-- Node1&#45;&gt;Node19 -->
<g id="edge23" class="edge">
<title>Node1&#45;&gt;Node19</title>
<path fill="none" stroke="midnightblue" d="M112.48,-114.36C136.3,-106.4 171.22,-95.01 202,-86 209.85,-83.7 218.22,-81.38 226.37,-79.18"/>
<polygon fill="midnightblue" stroke="midnightblue" points="227.39,-82.53 236.15,-76.58 225.59,-75.77 227.39,-82.53"/>
</g>
<!-- Node4 -->
<g id="node4" class="node">
<title>Node4</title>
<g id="a_node4"><a xlink:href="cmp__icu_8c_a24f7f725d312368abff72e12ba0380c7.html#a24f7f725d312368abff72e12ba0380c7" target="_top" xlink:title="calculate the maximum length of the bitstream/icu_output_buf in bits">
<polygon fill="white" stroke="black" points="384,-294.5 384,-313.5 530,-313.5 530,-294.5 384,-294.5"/>
<text text-anchor="middle" x="457" y="-301.5" font-family="Helvetica,sans-Serif" font-size="10.00">cmp_buffer_length_to_bits</text>
</a>
</g>
</g>
<!-- Node3&#45;&gt;Node4 -->
<g id="edge3" class="edge">
<title>Node3&#45;&gt;Node4</title>
<path fill="none" stroke="midnightblue" d="M334.18,-152.66C339.23,-155.13 343.95,-158.19 348,-162 385.16,-196.96 349.98,-232.98 384,-271 391.44,-279.32 401.4,-285.68 411.53,-290.48"/>
<polygon fill="midnightblue" stroke="midnightblue" points="410.25,-293.74 420.82,-294.47 413.02,-287.31 410.25,-293.74"/>
</g>
<!-- Node8 -->
<g id="node8" class="node">
<title>Node8</title>
<g id="a_node8"><a xlink:href="cmp__icu_8c_aaea9e8cb11d380bb6a6c11020a7c77f9.html#aaea9e8cb11d380bb6a6c11020a7c77f9" target="_top" xlink:title="subtract the model from the data, encode the result and put it into bitstream, for encoding outlier u...">
<polygon fill="white" stroke="black" points="399.5,-152.5 399.5,-171.5 514.5,-171.5 514.5,-152.5 399.5,-152.5"/>
<text text-anchor="middle" x="457" y="-159.5" font-family="Helvetica,sans-Serif" font-size="10.00">encode_value_multi</text>
</a>
</g>
</g>
<!-- Node3&#45;&gt;Node8 -->
<g id="edge7" class="edge">
<title>Node3&#45;&gt;Node8</title>
<path fill="none" stroke="midnightblue" d="M344.05,-150.18C358.85,-151.75 374.5,-153.4 389.25,-154.95"/>
<polygon fill="midnightblue" stroke="midnightblue" points="388.99,-158.45 399.3,-156.01 389.72,-151.48 388.99,-158.45"/>
</g>
<!-- Node12 -->
<g id="node12" class="node">
<title>Node12</title>
<g id="a_node12"><a xlink:href="cmp__icu_8c_aa3eee2af4deb902d63df587a6a15af13.html#aa3eee2af4deb902d63df587a6a15af13" target="_top" xlink:title="put the value unencoded with setup&#45;&gt;cmp_par_1 bits without any changes in the bitstream">
<polygon fill="white" stroke="black" points="571.5,-261.5 571.5,-280.5 684.5,-280.5 684.5,-261.5 571.5,-261.5"/>
<text text-anchor="middle" x="628" y="-268.5" font-family="Helvetica,sans-Serif" font-size="10.00">encode_value_none</text>
</a>
</g>
</g>
<!-- Node3&#45;&gt;Node12 -->
<g id="edge12" class="edge">
<title>Node3&#45;&gt;Node12</title>
<path fill="none" stroke="midnightblue" d="M330.34,-152.54C336.63,-155 342.68,-158.1 348,-162 372.16,-179.72 359.43,-201.86 384,-219 436.16,-255.39 508.83,-267.11 561.09,-270.51"/>
<polygon fill="midnightblue" stroke="midnightblue" points="561.08,-274.02 571.26,-271.08 561.47,-267.03 561.08,-274.02"/>
</g>
<!-- Node13 -->
<g id="node13" class="node">
<title>Node13</title>
<g id="a_node13"><a xlink:href="cmp__icu_8c_a441be2f84e386657cc72dc61b7769ff1.html#a441be2f84e386657cc72dc61b7769ff1" target="_top" xlink:title="subtract the model from the data, encode the result and put it into bitstream, for encoding outlier u...">
<polygon fill="white" stroke="black" points="402,-190.5 402,-209.5 512,-209.5 512,-190.5 402,-190.5"/>
<text text-anchor="middle" x="457" y="-197.5" font-family="Helvetica,sans-Serif" font-size="10.00">encode_value_zero</text>
</a>
</g>
</g>
<!-- Node3&#45;&gt;Node13 -->
<g id="edge14" class="edge">
<title>Node3&#45;&gt;Node13</title>
<path fill="none" stroke="midnightblue" d="M318.77,-152.57C328.52,-155.22 338.73,-158.38 348,-162 364.86,-168.57 367.14,-174.43 384,-181 390.23,-183.43 396.88,-185.65 403.53,-187.66"/>
<polygon fill="midnightblue" stroke="midnightblue" points="402.65,-191.04 413.23,-190.43 404.57,-184.31 402.65,-191.04"/>
</g>
<!-- Node14 -->
<g id="node14" class="node">
<title>Node14</title>
<g id="a_node14"><a xlink:href="cmp__icu_8c_ad1becd97051927d20474767867ce34a7.html#ad1becd97051927d20474767867ce34a7" target="_top" xlink:title="forms a codeword according to the Golomb code">
<polygon fill="white" stroke="black" points="408,-114.5 408,-133.5 506,-133.5 506,-114.5 408,-114.5"/>
<text text-anchor="middle" x="457" y="-121.5" font-family="Helvetica,sans-Serif" font-size="10.00">golomb_encoder</text>
</a>
</g>
</g>
<!-- Node3&#45;&gt;Node14 -->
<g id="edge18" class="edge">
<title>Node3&#45;&gt;Node14</title>
<path fill="none" stroke="midnightblue" d="M344.05,-135.82C361.61,-133.96 380.36,-131.98 397.39,-130.19"/>
<polygon fill="midnightblue" stroke="midnightblue" points="398.17,-133.62 407.75,-129.09 397.44,-126.66 398.17,-133.62"/>
</g>
<!-- Node15 -->
<g id="node15" class="node">
<title>Node15</title>
<g id="a_node15"><a xlink:href="cmp__support_8c_a67b0e38ca0e68c282c89552daa61ffdf.html#a67b0e38ca0e68c282c89552daa61ffdf" target="_top" xlink:title="implementation of the logarithm base of floor(log2(x)) for integers">
<polygon fill="white" stroke="black" points="434,-76.5 434,-95.5 480,-95.5 480,-76.5 434,-76.5"/>
<text text-anchor="middle" x="457" y="-83.5" font-family="Helvetica,sans-Serif" font-size="10.00">ilog_2</text>
</a>
</g>
</g>
<!-- Node3&#45;&gt;Node15 -->
<g id="edge19" class="edge">
<title>Node3&#45;&gt;Node15</title>
<path fill="none" stroke="midnightblue" d="M318.77,-133.43C328.52,-130.78 338.73,-127.62 348,-124 364.86,-117.43 367.14,-111.57 384,-105 396.7,-100.05 411.16,-95.95 423.77,-92.84"/>
<polygon fill="midnightblue" stroke="midnightblue" points="424.92,-96.17 433.85,-90.47 423.31,-89.36 424.92,-96.17"/>
</g>
<!-- Node16 -->
<g id="node16" class="node">
<title>Node16</title>
<g id="a_node16"><a xlink:href="cmp__support_8c_a7831f21f8303058bcac76d42a4aa1c06.html#a7831f21f8303058bcac76d42a4aa1c06" target="_top" xlink:title="determining if an integer is a power of 2">
<polygon fill="white" stroke="black" points="413,-38.5 413,-57.5 501,-57.5 501,-38.5 413,-38.5"/>
<text text-anchor="middle" x="457" y="-45.5" font-family="Helvetica,sans-Serif" font-size="10.00">is_a_pow_of_2</text>
</a>
</g>
</g>
<!-- Node3&#45;&gt;Node16 -->
<g id="edge20" class="edge">
<title>Node3&#45;&gt;Node16</title>
<path fill="none" stroke="midnightblue" d="M330.34,-133.46C336.63,-131 342.68,-127.9 348,-124 372.16,-106.28 359.84,-84.72 384,-67 389.67,-62.84 396.19,-59.59 402.93,-57.05"/>
<polygon fill="midnightblue" stroke="midnightblue" points="404.47,-60.23 412.9,-53.82 402.31,-53.57 404.47,-60.23"/>
</g>
<!-- Node17 -->
<g id="node17" class="node">
<title>Node17</title>
<g id="a_node17"><a xlink:href="cmp__icu_8c_ad3bc9d18c24f7caeef7da35b9e389c19.html#ad3bc9d18c24f7caeef7da35b9e389c19" target="_top" xlink:title="forms the codeword according to the Rice code">
<polygon fill="white" stroke="black" points="417.5,-0.5 417.5,-19.5 496.5,-19.5 496.5,-0.5 417.5,-0.5"/>
<text text-anchor="middle" x="457" y="-7.5" font-family="Helvetica,sans-Serif" font-size="10.00">rice_encoder</text>
</a>
</g>
</g>
<!-- Node3&#45;&gt;Node17 -->
<g id="edge21" class="edge">
<title>Node3&#45;&gt;Node17</title>
<path fill="none" stroke="midnightblue" d="M333.3,-133.49C338.65,-131.01 343.68,-127.89 348,-124 381.55,-93.78 350.45,-59.22 384,-29 390.63,-23.03 398.92,-18.89 407.49,-16.04"/>
<polygon fill="midnightblue" stroke="midnightblue" points="408.52,-19.39 417.21,-13.34 406.64,-12.65 408.52,-19.39"/>
</g>
<!-- Node5 -->
<g id="node5" class="node">
<title>Node5</title>
<g id="a_node5"><a xlink:href="cmp__data__types_8c_aafa65f72ed4d0fb99beb11c37f11ce52.html#aafa65f72ed4d0fb99beb11c37f11ce52" target="_top" xlink:title="calculate the need bytes for the data">
<polygon fill="white" stroke="black" points="566,-299.5 566,-318.5 690,-318.5 690,-299.5 566,-299.5"/>
<text text-anchor="middle" x="628" y="-306.5" font-family="Helvetica,sans-Serif" font-size="10.00">cmp_cal_size_of_data</text>
</a>
</g>
</g>
<!-- Node4&#45;&gt;Node5 -->
<g id="edge4" class="edge">
<title>Node4&#45;&gt;Node5</title>
<path fill="none" stroke="midnightblue" d="M530.16,-306.13C538.64,-306.39 547.3,-306.64 555.77,-306.89"/>
<polygon fill="midnightblue" stroke="midnightblue" points="555.89,-310.4 565.98,-307.19 556.09,-303.4 555.89,-310.4"/>
</g>
<!-- Node6 -->
<g id="node6" class="node">
<title>Node6</title>
<g id="a_node6"><a xlink:href="cmp__support_8c_a9197caa657b3d84615c0d323dc96c502.html#a9197caa657b3d84615c0d323dc96c502" target="_top" xlink:title="check if the data product data type is supported by the RDCU compressor">
<polygon fill="white" stroke="black" points="726,-272 726,-302 845,-302 845,-272 726,-272"/>
<text text-anchor="start" x="734" y="-290" font-family="Helvetica,sans-Serif" font-size="10.00">rdcu_supported_data</text>
<text text-anchor="middle" x="785.5" y="-279" font-family="Helvetica,sans-Serif" font-size="10.00">_type_is_used</text>
</a>
</g>
</g>
<!-- Node5&#45;&gt;Node6 -->
<g id="edge5" class="edge">
<title>Node5&#45;&gt;Node6</title>
<path fill="none" stroke="midnightblue" d="M690.01,-300.37C698.51,-299.17 707.29,-297.92 715.92,-296.7"/>
<polygon fill="midnightblue" stroke="midnightblue" points="716.54,-300.15 725.95,-295.28 715.56,-293.22 716.54,-300.15"/>
</g>
<!-- Node7 -->
<g id="node7" class="node">
<title>Node7</title>
<g id="a_node7"><a xlink:href="cmp__data__types_8c_a0be8705b1dcc45f605abd8400dd5230b.html#a0be8705b1dcc45f605abd8400dd5230b" target="_top" xlink:title="calculate the size of a sample for the different compression data type">
<polygon fill="white" stroke="black" points="733.5,-321.5 733.5,-340.5 837.5,-340.5 837.5,-321.5 733.5,-321.5"/>
<text text-anchor="middle" x="785.5" y="-328.5" font-family="Helvetica,sans-Serif" font-size="10.00">size_of_a_sample</text>
</a>
</g>
</g>
<!-- Node5&#45;&gt;Node7 -->
<g id="edge6" class="edge">
<title>Node5&#45;&gt;Node7</title>
<path fill="none" stroke="midnightblue" d="M690.01,-317.63C700.84,-319.16 712.13,-320.76 722.98,-322.3"/>
<polygon fill="midnightblue" stroke="midnightblue" points="722.82,-325.81 733.21,-323.74 723.8,-318.88 722.82,-325.81"/>
</g>
<!-- Node9 -->
<g id="node9" class="node">
<title>Node9</title>
<g id="a_node9"><a xlink:href="cmp__icu_8c_a71aaf149c528b68d0c0ffc159acc0f98.html#a71aaf149c528b68d0c0ffc159acc0f98" target="_top" xlink:title="generate a code word without an outlier mechanism and put in the bitstream">
<polygon fill="white" stroke="black" points="582,-147.5 582,-166.5 674,-166.5 674,-147.5 582,-147.5"/>
<text text-anchor="middle" x="628" y="-154.5" font-family="Helvetica,sans-Serif" font-size="10.00">encode_normal</text>
</a>
</g>
</g>
<!-- Node8&#45;&gt;Node9 -->
<g id="edge8" class="edge">
<title>Node8&#45;&gt;Node9</title>
<path fill="none" stroke="midnightblue" d="M514.74,-160.32C533.11,-159.78 553.43,-159.18 571.69,-158.64"/>
<polygon fill="midnightblue" stroke="midnightblue" points="571.99,-162.13 581.88,-158.33 571.78,-155.13 571.99,-162.13"/>
</g>
<!-- Node10 -->
<g id="node10" class="node">
<title>Node10</title>
<g id="a_node10"><a xlink:href="cmp__icu_8c_afd32ccddf2e0986e9ff136ae55a11d35.html#afd32ccddf2e0986e9ff136ae55a11d35" target="_top" xlink:title="put the value of up to 32 bits into a big endian bitstream">
<polygon fill="white" stroke="black" points="746,-201.5 746,-220.5 825,-220.5 825,-201.5 746,-201.5"/>
<text text-anchor="middle" x="785.5" y="-208.5" font-family="Helvetica,sans-Serif" font-size="10.00">put_n_bits32</text>
</a>
</g>
</g>
<!-- Node8&#45;&gt;Node10 -->
<g id="edge11" class="edge">
<title>Node8&#45;&gt;Node10</title>
<path fill="none" stroke="midnightblue" d="M492.21,-152.39C513.29,-146.97 540.99,-140.75 566,-138 620.78,-131.99 637.84,-120.2 690,-138 722.33,-149.03 752.19,-176.1 769.37,-194"/>
<polygon fill="midnightblue" stroke="midnightblue" points="766.95,-196.54 776.33,-201.48 772.08,-191.78 766.95,-196.54"/>
</g>
<!-- Node11 -->
<g id="node11" class="node">
<title>Node11</title>
<g id="a_node11"><a xlink:href="cmp__icu_8c_a208c98e6a4b7423d5003ea0d1c3a4fe3.html#a208c98e6a4b7423d5003ea0d1c3a4fe3" target="_top" xlink:title="map a signed value into a positive value range">
<polygon fill="white" stroke="black" points="590,-185.5 590,-204.5 666,-204.5 666,-185.5 590,-185.5"/>
<text text-anchor="middle" x="628" y="-192.5" font-family="Helvetica,sans-Serif" font-size="10.00">map_to_pos</text>
</a>
</g>
</g>
<!-- Node8&#45;&gt;Node11 -->
<g id="edge10" class="edge">
<title>Node8&#45;&gt;Node11</title>
<path fill="none" stroke="midnightblue" d="M506.88,-171.54C529.79,-176.02 556.98,-181.33 579.69,-185.76"/>
<polygon fill="midnightblue" stroke="midnightblue" points="579.29,-189.25 589.77,-187.73 580.63,-182.38 579.29,-189.25"/>
</g>
<!-- Node9&#45;&gt;Node10 -->
<g id="edge9" class="edge">
<title>Node9&#45;&gt;Node10</title>
<path fill="none" stroke="midnightblue" d="M660.76,-166.55C670.21,-169.48 680.55,-172.78 690,-176 710.12,-182.85 732.43,-191.09 750.32,-197.84"/>
<polygon fill="midnightblue" stroke="midnightblue" points="749.17,-201.15 759.76,-201.43 751.65,-194.61 749.17,-201.15"/>
</g>
<!-- Node12&#45;&gt;Node10 -->
<g id="edge13" class="edge">
<title>Node12&#45;&gt;Node10</title>
<path fill="none" stroke="midnightblue" d="M653.64,-261.49C679.72,-251.43 721.08,-235.47 750.31,-224.19"/>
<polygon fill="midnightblue" stroke="midnightblue" points="751.65,-227.43 759.72,-220.56 749.13,-220.9 751.65,-227.43"/>
</g>
<!-- Node13&#45;&gt;Node9 -->
<g id="edge15" class="edge">
<title>Node13&#45;&gt;Node9</title>
<path fill="none" stroke="midnightblue" d="M495.51,-190.46C520.34,-184.14 553.11,-175.8 579.73,-169.03"/>
<polygon fill="midnightblue" stroke="midnightblue" points="580.77,-172.37 589.6,-166.52 579.04,-165.59 580.77,-172.37"/>
</g>
<!-- Node13&#45;&gt;Node10 -->
<g id="edge17" class="edge">
<title>Node13&#45;&gt;Node10</title>
<path fill="none" stroke="midnightblue" d="M512.26,-208.42C529.4,-210.71 548.45,-212.87 566,-214 621,-217.55 634.9,-214.87 690,-214 704.79,-213.77 720.88,-213.32 735.52,-212.85"/>
<polygon fill="midnightblue" stroke="midnightblue" points="736.01,-216.34 745.89,-212.5 735.77,-209.34 736.01,-216.34"/>
</g>
<!-- Node13&#45;&gt;Node11 -->
<g id="edge16" class="edge">
<title>Node13&#45;&gt;Node11</title>
<path fill="none" stroke="midnightblue" d="M512.4,-198.39C534.03,-197.75 558.68,-197.02 579.57,-196.4"/>
<polygon fill="midnightblue" stroke="midnightblue" points="579.91,-199.89 589.8,-196.1 579.7,-192.9 579.91,-199.89"/>
</g>
</g>
</svg>
