<?xml version="1.0" encoding="UTF-8" standalone="no"?>
<!DOCTYPE svg PUBLIC "-//W3C//DTD SVG 1.1//EN"
 "http://www.w3.org/Graphics/SVG/1.1/DTD/svg11.dtd">
<!-- Generated by graphviz version 2.43.0 (0)
 -->
<!-- Title: cmp_cfg_icu_is_invalid Pages: 1 -->
<!--zoomable 1309 -->
<svg id="main" version="1.1" xmlns="http://www.w3.org/2000/svg" xmlns:xlink="http://www.w3.org/1999/xlink" xml:space="preserve" onload="init(evt)">
<style type="text/css"><![CDATA[
.edge:hover path { stroke: red; }
.edge:hover polygon { stroke: red; fill: red; }
]]></style>
<script type="text/javascript"><![CDATA[
var edges = document.getElementsByTagName('g');
if (edges && edges.length) {
  for (var i=0;i<edges.length;i++) {
    if (edges[i].id.substr(0,4)=='edge') {
      edges[i].setAttribute('class','edge');
    }
  }
}
]]></script>
        <defs>
                <circle id="rim" cx="0" cy="0" r="7"/>
                <circle id="rim2" cx="0" cy="0" r="3.5"/>
                <g id="zoomPlus">
                        <use xlink:href="#rim" fill="#404040">
                                <set attributeName="fill" to="#808080" begin="zoomplus.mouseover" end="zoomplus.mouseout"/>
                        </use>
                        <path d="M-4,0h8M0,-4v8" fill="none" stroke="white" stroke-width="1.5" pointer-events="none"/>
                </g>
                <g id="zoomMin">
                        <use xlink:href="#rim" fill="#404040">
                                <set attributeName="fill" to="#808080" begin="zoomminus.mouseover" end="zoomminus.mouseout"/>
                        </use>
                        <path d="M-4,0h8" fill="none" stroke="white" stroke-width="1.5" pointer-events="none"/>
                </g>
                <g id="dirArrow">
                        <path fill="none" stroke="white" stroke-width="1.5" d="M0,-3.0v7 M-2.5,-0.5L0,-3.0L2.5,-0.5"/>
                </g>
               <g id="resetDef">
                       <use xlink:href="#rim2" fill="#404040">
                               <set attributeName="fill" to="#808080" begin="reset.mouseover" end="reset.mouseout"/>
                       </use>
               </g>
        </defs>

<script type="text/javascript">
var viewWidth = 697;
var viewHeight = 1309;
var sectionId = 'dynsection-1';
</script>
<script xlink:href="svgpan.js"/>
<svg id="graph" class="graph">
<g id="viewport">
<title>cmp_cfg_icu_is_invalid</title>
<polygon fill="white" stroke="transparent" points="-4,4 -4,-1305 693,-1305 693,4 -4,4"/>
<!-- Node1 -->
<g id="node1" class="node">
<title>Node1</title>
<g id="a_node1"><a xlink:title="check if a compression configuration is invalid for a ICU compression">
<polygon fill="#bfbfbf" stroke="black" points="560,-635 560,-654 689,-654 689,-635 560,-635"/>
<text text-anchor="middle" x="624.5" y="-642" font-family="Helvetica,sans-Serif" font-size="10.00">cmp_cfg_icu_is_invalid</text>
</a>
</g>
</g>
<!-- Node2 -->
<g id="node2" class="node">
<title>Node2</title>
<g id="a_node2"><a xlink:href="cmp__icu_8h_a08bf8ccacb449aba08db5e51d532d834.html#a08bf8ccacb449aba08db5e51d532d834" target="_top" xlink:title="compress data on the ICU in software">
<polygon fill="white" stroke="black" points="408,-657 408,-676 518,-676 518,-657 408,-657"/>
<text text-anchor="middle" x="463" y="-664" font-family="Helvetica,sans-Serif" font-size="10.00">icu_compress_data</text>
</a>
</g>
</g>
<!-- Node1&#45;&gt;Node2 -->
<g id="edge1" class="edge">
<title>Node1&#45;&gt;Node2</title>
<path fill="none" stroke="midnightblue" d="M549.51,-654.71C538.97,-656.16 528.29,-657.63 518.23,-659.02"/>
<polygon fill="midnightblue" stroke="midnightblue" points="550.12,-658.16 559.54,-653.32 549.16,-651.22 550.12,-658.16"/>
</g>
<!-- Node33 -->
<g id="node33" class="node">
<title>Node33</title>
<g id="a_node33"><a xlink:href="test__cmp__icu_8c_aaa89e321d2d9f70cb59536438f4b6dff.html#aaa89e321d2d9f70cb59536438f4b6dff" target="_top" xlink:title=" ">
<polygon fill="white" stroke="black" points="402,-607.5 402,-637.5 524,-637.5 524,-607.5 402,-607.5"/>
<text text-anchor="start" x="410" y="-625.5" font-family="Helvetica,sans-Serif" font-size="10.00">test_support_function</text>
<text text-anchor="middle" x="463" y="-614.5" font-family="Helvetica,sans-Serif" font-size="10.00">_call_NULL</text>
</a>
</g>
</g>
<!-- Node1&#45;&gt;Node33 -->
<g id="edge32" class="edge">
<title>Node1&#45;&gt;Node33</title>
<path fill="none" stroke="midnightblue" d="M549.58,-634.3C541.04,-633.13 532.41,-631.94 524.09,-630.79"/>
<polygon fill="midnightblue" stroke="midnightblue" points="549.16,-637.78 559.54,-635.68 550.12,-630.84 549.16,-637.78"/>
</g>
<!-- Node3 -->
<g id="node3" class="node">
<title>Node3</title>
<g id="a_node3"><a xlink:href="test__cmp__decmp_8c_a50ba26014079160ca77b7d7fa76ce0f4.html#a50ba26014079160ca77b7d7fa76ce0f4" target="_top" xlink:title="compress the given configuration and decompress it afterwards; finally compare the results">
<polygon fill="white" stroke="black" points="195,-1275 195,-1294 353,-1294 353,-1275 195,-1275"/>
<text text-anchor="middle" x="274" y="-1282" font-family="Helvetica,sans-Serif" font-size="10.00">compression_decompression</text>
</a>
</g>
</g>
<!-- Node2&#45;&gt;Node3 -->
<g id="edge2" class="edge">
<title>Node2&#45;&gt;Node3</title>
<path fill="none" stroke="midnightblue" d="M461.66,-686.06C459.62,-779.07 446.29,-1175.73 366,-1262.5 361.25,-1267.63 355.53,-1271.66 349.3,-1274.81"/>
<polygon fill="midnightblue" stroke="midnightblue" points="465.16,-686.12 461.86,-676.05 458.16,-685.98 465.16,-686.12"/>
</g>
<!-- Node5 -->
<g id="node5" class="node">
<title>Node5</title>
<g id="a_node5"><a xlink:href="test__decmp_8c_a2d642d4d482b9ec7eca4568a95f5bdd4.html#a2d642d4d482b9ec7eca4568a95f5bdd4" target="_top" xlink:title=" ">
<polygon fill="white" stroke="black" points="202,-1234 202,-1253 346,-1253 346,-1234 202,-1234"/>
<text text-anchor="middle" x="274" y="-1241" font-family="Helvetica,sans-Serif" font-size="10.00">icu_compress_data_entity</text>
</a>
</g>
</g>
<!-- Node2&#45;&gt;Node5 -->
<g id="edge4" class="edge">
<title>Node2&#45;&gt;Node5</title>
<path fill="none" stroke="midnightblue" d="M461.47,-686.55C458.64,-776.91 442.52,-1145.22 366,-1224.5 360.4,-1230.31 353.51,-1234.57 346.06,-1237.67"/>
<polygon fill="midnightblue" stroke="midnightblue" points="464.97,-686.42 461.76,-676.32 457.97,-686.21 464.97,-686.42"/>
</g>
<!-- Node7 -->
<g id="node7" class="node">
<title>Node7</title>
<g id="a_node7"><a xlink:href="test__decmp_8c_a6e7a5e150e2c829836db3c42cdec2eec.html#a6e7a5e150e2c829836db3c42cdec2eec" target="_top" xlink:title=" ">
<polygon fill="white" stroke="black" points="182,-1196 182,-1215 366,-1215 366,-1196 182,-1196"/>
<text text-anchor="middle" x="274" y="-1203" font-family="Helvetica,sans-Serif" font-size="10.00">test_cmp_decmp_n_imagette_raw</text>
</a>
</g>
</g>
<!-- Node2&#45;&gt;Node7 -->
<g id="edge6" class="edge">
<title>Node2&#45;&gt;Node7</title>
<path fill="none" stroke="midnightblue" d="M461.18,-686.21C457.2,-772.02 437.1,-1111.98 366,-1185.5 361.95,-1189.69 357.24,-1193.09 352.14,-1195.85"/>
<polygon fill="midnightblue" stroke="midnightblue" points="464.68,-686.19 461.63,-676.04 457.69,-685.88 464.68,-686.19"/>
</g>
<!-- Node8 -->
<g id="node8" class="node">
<title>Node8</title>
<g id="a_node8"><a xlink:href="test__cmp__icu_8c_aca32c7d039600004c9cc5c6fe19b8ec5.html#aca32c7d039600004c9cc5c6fe19b8ec5" target="_top" xlink:title=" ">
<polygon fill="white" stroke="black" points="199,-1146.5 199,-1176.5 349,-1176.5 349,-1146.5 199,-1146.5"/>
<text text-anchor="start" x="207" y="-1164.5" font-family="Helvetica,sans-Serif" font-size="10.00">test_compress_background</text>
<text text-anchor="middle" x="274" y="-1153.5" font-family="Helvetica,sans-Serif" font-size="10.00">_error_cases</text>
</a>
</g>
</g>
<!-- Node2&#45;&gt;Node8 -->
<g id="edge7" class="edge">
<title>Node2&#45;&gt;Node8</title>
<path fill="none" stroke="midnightblue" d="M460.64,-686.55C454.76,-767.51 428.9,-1069.26 366,-1136.5 361.19,-1141.64 355.42,-1145.77 349.16,-1149.06"/>
<polygon fill="midnightblue" stroke="midnightblue" points="464.16,-686.48 461.37,-676.26 457.17,-685.99 464.16,-686.48"/>
</g>
<!-- Node9 -->
<g id="node9" class="node">
<title>Node9</title>
<g id="a_node9"><a xlink:href="test__cmp__icu_8c_a64b46c032fdef8789190209bd9c3c49b.html#a64b46c032fdef8789190209bd9c3c49b" target="_top" xlink:title=" ">
<polygon fill="white" stroke="black" points="218,-1097.5 218,-1127.5 330,-1127.5 330,-1097.5 218,-1097.5"/>
<text text-anchor="start" x="226" y="-1115.5" font-family="Helvetica,sans-Serif" font-size="10.00">test_compress_f_fx</text>
<text text-anchor="middle" x="274" y="-1104.5" font-family="Helvetica,sans-Serif" font-size="10.00">_efx_error_cases</text>
</a>
</g>
</g>
<!-- Node2&#45;&gt;Node9 -->
<g id="edge8" class="edge">
<title>Node2&#45;&gt;Node9</title>
<path fill="none" stroke="midnightblue" d="M460.15,-686.37C452.73,-761.66 422.82,-1028.13 366,-1087.5 356.48,-1097.44 343.42,-1103.55 330.15,-1107.27"/>
<polygon fill="midnightblue" stroke="midnightblue" points="463.64,-686.63 461.11,-676.34 456.67,-685.96 463.64,-686.63"/>
</g>
<!-- Node10 -->
<g id="node10" class="node">
<title>Node10</title>
<g id="a_node10"><a xlink:href="test__cmp__icu_8c_acd4ce1f38ffbf0d6258b81668836d96b.html#acd4ce1f38ffbf0d6258b81668836d96b" target="_top" xlink:title=" ">
<polygon fill="white" stroke="black" points="218,-1048.5 218,-1078.5 330,-1078.5 330,-1048.5 218,-1048.5"/>
<text text-anchor="start" x="226" y="-1066.5" font-family="Helvetica,sans-Serif" font-size="10.00">test_compress_f_fx</text>
<text text-anchor="middle" x="274" y="-1055.5" font-family="Helvetica,sans-Serif" font-size="10.00">_efx_ncob_ecob</text>
</a>
</g>
</g>
<!-- Node2&#45;&gt;Node10 -->
<g id="edge9" class="edge">
<title>Node2&#45;&gt;Node10</title>
<path fill="none" stroke="midnightblue" d="M459.52,-686.25C450.42,-755.66 416.75,-986.95 366,-1038.5 356.46,-1048.19 343.54,-1054.22 330.43,-1057.96"/>
<polygon fill="midnightblue" stroke="midnightblue" points="463.01,-686.59 460.81,-676.23 456.06,-685.7 463.01,-686.59"/>
</g>
<!-- Node11 -->
<g id="node11" class="node">
<title>Node11</title>
<g id="a_node11"><a xlink:href="test__cmp__icu_8c_a5fdfb76e3f52d4283fdcbf5e05ac7dd9.html#a5fdfb76e3f52d4283fdcbf5e05ac7dd9" target="_top" xlink:title=" ">
<polygon fill="white" stroke="black" points="218,-999.5 218,-1029.5 330,-1029.5 330,-999.5 218,-999.5"/>
<text text-anchor="start" x="226" y="-1017.5" font-family="Helvetica,sans-Serif" font-size="10.00">test_compress_f_fx</text>
<text text-anchor="middle" x="274" y="-1006.5" font-family="Helvetica,sans-Serif" font-size="10.00">_error_cases</text>
</a>
</g>
</g>
<!-- Node2&#45;&gt;Node11 -->
<g id="edge10" class="edge">
<title>Node2&#45;&gt;Node11</title>
<path fill="none" stroke="midnightblue" d="M462.31,-686.41C462.07,-742.61 453.4,-903.9 366,-989.5 356.28,-999.02 343.3,-1004.99 330.2,-1008.72"/>
<polygon fill="midnightblue" stroke="midnightblue" points="465.81,-686.06 462.26,-676.08 458.81,-686.1 465.81,-686.06"/>
</g>
<!-- Node12 -->
<g id="node12" class="node">
<title>Node12</title>
<g id="a_node12"><a xlink:href="test__cmp__icu_8c_ad6a880fe71de66a8a98a3f97d9e736da.html#ad6a880fe71de66a8a98a3f97d9e736da" target="_top" xlink:title=" ">
<polygon fill="white" stroke="black" points="218,-950.5 218,-980.5 330,-980.5 330,-950.5 218,-950.5"/>
<text text-anchor="start" x="226" y="-968.5" font-family="Helvetica,sans-Serif" font-size="10.00">test_compress_f_fx</text>
<text text-anchor="middle" x="274" y="-957.5" font-family="Helvetica,sans-Serif" font-size="10.00">_ncob_error_cases</text>
</a>
</g>
</g>
<!-- Node2&#45;&gt;Node12 -->
<g id="edge11" class="edge">
<title>Node2&#45;&gt;Node12</title>
<path fill="none" stroke="midnightblue" d="M461.08,-686.37C457.66,-736.67 441.55,-869.98 366,-940.5 356.18,-949.67 343.31,-955.53 330.36,-959.26"/>
<polygon fill="midnightblue" stroke="midnightblue" points="464.59,-686.39 461.67,-676.2 457.6,-685.98 464.59,-686.39"/>
</g>
<!-- Node13 -->
<g id="node13" class="node">
<title>Node13</title>
<g id="a_node13"><a xlink:href="test__cmp__icu_8c_a99545cc4ea3f1aa22be006d201e43f6d.html#a99545cc4ea3f1aa22be006d201e43f6d" target="_top" xlink:title=" ">
<polygon fill="white" stroke="black" points="195,-912 195,-931 353,-931 353,-912 195,-912"/>
<text text-anchor="middle" x="274" y="-919" font-family="Helvetica,sans-Serif" font-size="10.00">test_compress_imagette_diff</text>
</a>
</g>
</g>
<!-- Node2&#45;&gt;Node13 -->
<g id="edge12" class="edge">
<title>Node2&#45;&gt;Node13</title>
<path fill="none" stroke="midnightblue" d="M459.99,-686.5C454.3,-732.15 433.76,-844.46 366,-901.5 360.93,-905.77 355.14,-909.19 349.01,-911.91"/>
<polygon fill="midnightblue" stroke="midnightblue" points="463.49,-686.74 461.14,-676.41 456.53,-685.95 463.49,-686.74"/>
</g>
<!-- Node14 -->
<g id="node14" class="node">
<title>Node14</title>
<g id="a_node14"><a xlink:href="test__cmp__icu_8c_a960bb1de38c5e353aa1d1d2fb25435e8.html#a960bb1de38c5e353aa1d1d2fb25435e8" target="_top" xlink:title=" ">
<polygon fill="white" stroke="black" points="205.5,-862.5 205.5,-892.5 342.5,-892.5 342.5,-862.5 205.5,-862.5"/>
<text text-anchor="start" x="213.5" y="-880.5" font-family="Helvetica,sans-Serif" font-size="10.00">test_compress_imagette</text>
<text text-anchor="middle" x="274" y="-869.5" font-family="Helvetica,sans-Serif" font-size="10.00">_error_cases</text>
</a>
</g>
</g>
<!-- Node2&#45;&gt;Node14 -->
<g id="edge13" class="edge">
<title>Node2&#45;&gt;Node14</title>
<path fill="none" stroke="midnightblue" d="M457.45,-686.21C447.62,-724.3 420.72,-808.14 366,-852.5 359.13,-858.07 351.11,-862.4 342.72,-865.77"/>
<polygon fill="midnightblue" stroke="midnightblue" points="460.89,-686.9 459.87,-676.35 454.09,-685.23 460.89,-686.9"/>
</g>
<!-- Node15 -->
<g id="node15" class="node">
<title>Node15</title>
<g id="a_node15"><a xlink:href="test__cmp__icu_8c_a7c1162f048c55a098b4e6c1d9a0a884e.html#a7c1162f048c55a098b4e6c1d9a0a884e" target="_top" xlink:title=" ">
<polygon fill="white" stroke="black" points="205.5,-813.5 205.5,-843.5 342.5,-843.5 342.5,-813.5 205.5,-813.5"/>
<text text-anchor="start" x="213.5" y="-831.5" font-family="Helvetica,sans-Serif" font-size="10.00">test_compress_imagette</text>
<text text-anchor="middle" x="274" y="-820.5" font-family="Helvetica,sans-Serif" font-size="10.00">_model</text>
</a>
</g>
</g>
<!-- Node2&#45;&gt;Node15 -->
<g id="edge14" class="edge">
<title>Node2&#45;&gt;Node15</title>
<path fill="none" stroke="midnightblue" d="M453.92,-685.48C440.26,-715.24 409.75,-772.67 366,-803.5 358.9,-808.5 350.84,-812.5 342.52,-815.71"/>
<polygon fill="midnightblue" stroke="midnightblue" points="457.18,-686.75 458.04,-676.19 450.78,-683.91 457.18,-686.75"/>
</g>
<!-- Node16 -->
<g id="node16" class="node">
<title>Node16</title>
<g id="a_node16"><a xlink:href="test__cmp__icu_8c_a390abe2bb7591a75050558bdd4476593.html#a390abe2bb7591a75050558bdd4476593" target="_top" xlink:title=" ">
<polygon fill="white" stroke="black" points="193.5,-775 193.5,-794 354.5,-794 354.5,-775 193.5,-775"/>
<text text-anchor="middle" x="274" y="-782" font-family="Helvetica,sans-Serif" font-size="10.00">test_compress_imagette_raw</text>
</a>
</g>
</g>
<!-- Node2&#45;&gt;Node16 -->
<g id="edge15" class="edge">
<title>Node2&#45;&gt;Node16</title>
<path fill="none" stroke="midnightblue" d="M449.68,-684.37C433.26,-706.73 402.07,-744.51 366,-764.5 358.08,-768.89 349.27,-772.32 340.33,-774.99"/>
<polygon fill="midnightblue" stroke="midnightblue" points="452.63,-686.26 455.59,-676.09 446.93,-682.19 452.63,-686.26"/>
</g>
<!-- Node17 -->
<g id="node17" class="node">
<title>Node17</title>
<g id="a_node17"><a xlink:href="test__cmp__icu_8c_a3c859fa9247c65ae7a43e2bd682448e2.html#a3c859fa9247c65ae7a43e2bd682448e2" target="_top" xlink:title=" ">
<polygon fill="white" stroke="black" points="205.5,-725.5 205.5,-755.5 342.5,-755.5 342.5,-725.5 205.5,-725.5"/>
<text text-anchor="start" x="213.5" y="-743.5" font-family="Helvetica,sans-Serif" font-size="10.00">test_compress_imagette</text>
<text text-anchor="middle" x="274" y="-732.5" font-family="Helvetica,sans-Serif" font-size="10.00">_stuff</text>
</a>
</g>
</g>
<!-- Node2&#45;&gt;Node17 -->
<g id="edge16" class="edge">
<title>Node2&#45;&gt;Node17</title>
<path fill="none" stroke="midnightblue" d="M436.93,-681.09C417.93,-691.69 390.92,-705.83 366,-715.5 356.68,-719.11 346.64,-722.43 336.74,-725.37"/>
<polygon fill="midnightblue" stroke="midnightblue" points="438.84,-684.02 445.82,-676.05 435.4,-677.93 438.84,-684.02"/>
</g>
<!-- Node18 -->
<g id="node18" class="node">
<title>Node18</title>
<g id="a_node18"><a xlink:href="test__cmp__icu_8c_a4d05bd6cb0b420d45886997161470259.html#a4d05bd6cb0b420d45886997161470259" target="_top" xlink:title=" ">
<polygon fill="white" stroke="black" points="218.5,-676.5 218.5,-706.5 329.5,-706.5 329.5,-676.5 218.5,-676.5"/>
<text text-anchor="start" x="226.5" y="-694.5" font-family="Helvetica,sans-Serif" font-size="10.00">test_compress_l_fx</text>
<text text-anchor="middle" x="274" y="-683.5" font-family="Helvetica,sans-Serif" font-size="10.00">_efx_error_cases</text>
</a>
</g>
</g>
<!-- Node2&#45;&gt;Node18 -->
<g id="edge17" class="edge">
<title>Node2&#45;&gt;Node18</title>
<path fill="none" stroke="midnightblue" d="M397.9,-675.07C375.68,-678.04 351,-681.34 329.61,-684.2"/>
<polygon fill="midnightblue" stroke="midnightblue" points="398.46,-678.53 407.91,-673.73 397.54,-671.59 398.46,-678.53"/>
</g>
<!-- Node19 -->
<g id="node19" class="node">
<title>Node19</title>
<g id="a_node19"><a xlink:href="test__cmp__icu_8c_a0d3532f9e6f2e6e0c4392049e06c627f.html#a0d3532f9e6f2e6e0c4392049e06c627f" target="_top" xlink:title=" ">
<polygon fill="white" stroke="black" points="196,-627.5 196,-657.5 352,-657.5 352,-627.5 196,-627.5"/>
<text text-anchor="start" x="204" y="-645.5" font-family="Helvetica,sans-Serif" font-size="10.00">test_compress_l_fx</text>
<text text-anchor="middle" x="274" y="-634.5" font-family="Helvetica,sans-Serif" font-size="10.00">_efx_ncob_ecob_error_cases</text>
</a>
</g>
</g>
<!-- Node2&#45;&gt;Node19 -->
<g id="edge18" class="edge">
<title>Node2&#45;&gt;Node19</title>
<path fill="none" stroke="midnightblue" d="M397.93,-658.28C383.23,-656.39 367.45,-654.37 352.26,-652.42"/>
<polygon fill="midnightblue" stroke="midnightblue" points="397.55,-661.76 407.91,-659.56 398.44,-654.81 397.55,-661.76"/>
</g>
<!-- Node20 -->
<g id="node20" class="node">
<title>Node20</title>
<g id="a_node20"><a xlink:href="test__cmp__icu_8c_a13a2a26bd2eac1bd622925c6dcfbfb2d.html#a13a2a26bd2eac1bd622925c6dcfbfb2d" target="_top" xlink:title=" ">
<polygon fill="white" stroke="black" points="218.5,-578.5 218.5,-608.5 329.5,-608.5 329.5,-578.5 218.5,-578.5"/>
<text text-anchor="start" x="226.5" y="-596.5" font-family="Helvetica,sans-Serif" font-size="10.00">test_compress_l_fx</text>
<text text-anchor="middle" x="274" y="-585.5" font-family="Helvetica,sans-Serif" font-size="10.00">_error_cases</text>
</a>
</g>
</g>
<!-- Node2&#45;&gt;Node20 -->
<g id="edge19" class="edge">
<title>Node2&#45;&gt;Node20</title>
<path fill="none" stroke="midnightblue" d="M416.55,-653.29C411.53,-651.26 406.58,-649 402,-646.5 383.97,-636.65 384.34,-626.77 366,-617.5 354.77,-611.82 342.07,-607.39 329.79,-603.97"/>
<polygon fill="midnightblue" stroke="midnightblue" points="415.62,-656.68 426.22,-656.89 418.07,-650.12 415.62,-656.68"/>
</g>
<!-- Node21 -->
<g id="node21" class="node">
<title>Node21</title>
<g id="a_node21"><a xlink:href="test__cmp__icu_8c_ab725960063dc032566560118d582b79e.html#ab725960063dc032566560118d582b79e" target="_top" xlink:title=" ">
<polygon fill="white" stroke="black" points="218.5,-529.5 218.5,-559.5 329.5,-559.5 329.5,-529.5 218.5,-529.5"/>
<text text-anchor="start" x="226.5" y="-547.5" font-family="Helvetica,sans-Serif" font-size="10.00">test_compress_l_fx</text>
<text text-anchor="middle" x="274" y="-536.5" font-family="Helvetica,sans-Serif" font-size="10.00">_ncob_error_cases</text>
</a>
</g>
</g>
<!-- Node2&#45;&gt;Node21 -->
<g id="edge20" class="edge">
<title>Node2&#45;&gt;Node21</title>
<path fill="none" stroke="midnightblue" d="M409.61,-652.15C406.9,-650.47 404.34,-648.59 402,-646.5 373.55,-621.04 395.25,-593.04 366,-568.5 355.74,-559.89 342.71,-554.33 329.75,-550.75"/>
<polygon fill="midnightblue" stroke="midnightblue" points="408.18,-655.35 418.67,-656.87 411.42,-649.14 408.18,-655.35"/>
</g>
<!-- Node22 -->
<g id="node22" class="node">
<title>Node22</title>
<g id="a_node22"><a xlink:href="test__cmp__icu_8c_a13bf5ba0481601697942a0a485f7631c.html#a13bf5ba0481601697942a0a485f7631c" target="_top" xlink:title=" ">
<polygon fill="white" stroke="black" points="213.5,-480.5 213.5,-510.5 334.5,-510.5 334.5,-480.5 213.5,-480.5"/>
<text text-anchor="start" x="221.5" y="-498.5" font-family="Helvetica,sans-Serif" font-size="10.00">test_compress_offset</text>
<text text-anchor="middle" x="274" y="-487.5" font-family="Helvetica,sans-Serif" font-size="10.00">_error_cases</text>
</a>
</g>
</g>
<!-- Node2&#45;&gt;Node22 -->
<g id="edge21" class="edge">
<title>Node2&#45;&gt;Node22</title>
<path fill="none" stroke="midnightblue" d="M407.99,-651.7C405.84,-650.14 403.83,-648.41 402,-646.5 361.47,-604.08 407.86,-560.6 366,-519.5 357.37,-511.03 346.13,-505.45 334.5,-501.8"/>
<polygon fill="midnightblue" stroke="midnightblue" points="406.45,-654.86 416.83,-656.95 410.02,-648.84 406.45,-654.86"/>
</g>
<!-- Node23 -->
<g id="node23" class="node">
<title>Node23</title>
<g id="a_node23"><a xlink:href="test__cmp__icu_8c_a28f0f3239f94a5d75189300dd3ed35fc.html#a28f0f3239f94a5d75189300dd3ed35fc" target="_top" xlink:title=" ">
<polygon fill="white" stroke="black" points="217.5,-431.5 217.5,-461.5 330.5,-461.5 330.5,-431.5 217.5,-431.5"/>
<text text-anchor="start" x="225.5" y="-449.5" font-family="Helvetica,sans-Serif" font-size="10.00">test_compress_s_fx</text>
<text text-anchor="middle" x="274" y="-438.5" font-family="Helvetica,sans-Serif" font-size="10.00">_efx_error_cases</text>
</a>
</g>
</g>
<!-- Node2&#45;&gt;Node23 -->
<g id="edge22" class="edge">
<title>Node2&#45;&gt;Node23</title>
<path fill="none" stroke="midnightblue" d="M407.15,-651.35C405.3,-649.88 403.57,-648.27 402,-646.5 349.03,-586.76 420.85,-528.52 366,-470.5 356.68,-460.65 343.84,-454.66 330.74,-451.07"/>
<polygon fill="midnightblue" stroke="midnightblue" points="405.62,-654.52 415.93,-656.93 409.37,-648.62 405.62,-654.52"/>
</g>
<!-- Node24 -->
<g id="node24" class="node">
<title>Node24</title>
<g id="a_node24"><a xlink:href="test__cmp__icu_8c_a90fd6057131bbf0c9b398c9c99bea3f2.html#a90fd6057131bbf0c9b398c9c99bea3f2" target="_top" xlink:title=" ">
<polygon fill="white" stroke="black" points="196,-382.5 196,-412.5 352,-412.5 352,-382.5 196,-382.5"/>
<text text-anchor="start" x="204" y="-400.5" font-family="Helvetica,sans-Serif" font-size="10.00">test_compress_s_fx</text>
<text text-anchor="middle" x="274" y="-389.5" font-family="Helvetica,sans-Serif" font-size="10.00">_efx_ncob_ecob_error_cases</text>
</a>
</g>
</g>
<!-- Node2&#45;&gt;Node24 -->
<g id="edge23" class="edge">
<title>Node2&#45;&gt;Node24</title>
<path fill="none" stroke="midnightblue" d="M406.95,-651.35C405.16,-649.88 403.5,-648.27 402,-646.5 336.46,-569.29 433.97,-496.57 366,-421.5 362.05,-417.14 357.42,-413.53 352.36,-410.55"/>
<polygon fill="midnightblue" stroke="midnightblue" points="405.18,-654.38 415.46,-656.93 409.02,-648.52 405.18,-654.38"/>
</g>
<!-- Node25 -->
<g id="node25" class="node">
<title>Node25</title>
<g id="a_node25"><a xlink:href="test__cmp__icu_8c_aa29971f14aa8c01058cf5884ccfb0b46.html#aa29971f14aa8c01058cf5884ccfb0b46" target="_top" xlink:title=" ">
<polygon fill="white" stroke="black" points="217.5,-333.5 217.5,-363.5 330.5,-363.5 330.5,-333.5 217.5,-333.5"/>
<text text-anchor="start" x="225.5" y="-351.5" font-family="Helvetica,sans-Serif" font-size="10.00">test_compress_s_fx</text>
<text text-anchor="middle" x="274" y="-340.5" font-family="Helvetica,sans-Serif" font-size="10.00">_error_cases</text>
</a>
</g>
</g>
<!-- Node2&#45;&gt;Node25 -->
<g id="edge24" class="edge">
<title>Node2&#45;&gt;Node25</title>
<path fill="none" stroke="midnightblue" d="M406.39,-650.98C404.81,-649.61 403.34,-648.12 402,-646.5 323.83,-551.76 447.15,-464.7 366,-372.5 356.93,-362.2 344.02,-356.07 330.76,-352.49"/>
<polygon fill="midnightblue" stroke="midnightblue" points="404.81,-654.14 415.05,-656.87 408.75,-648.35 404.81,-654.14"/>
</g>
<!-- Node26 -->
<g id="node26" class="node">
<title>Node26</title>
<g id="a_node26"><a xlink:href="test__cmp__icu_8c_afa54c8348f46913b7c39517424f7e547.html#afa54c8348f46913b7c39517424f7e547" target="_top" xlink:title=" ">
<polygon fill="white" stroke="black" points="217.5,-284.5 217.5,-314.5 330.5,-314.5 330.5,-284.5 217.5,-284.5"/>
<text text-anchor="start" x="225.5" y="-302.5" font-family="Helvetica,sans-Serif" font-size="10.00">test_compress_s_fx</text>
<text text-anchor="middle" x="274" y="-291.5" font-family="Helvetica,sans-Serif" font-size="10.00">_model_multi</text>
</a>
</g>
</g>
<!-- Node2&#45;&gt;Node26 -->
<g id="edge25" class="edge">
<title>Node2&#45;&gt;Node26</title>
<path fill="none" stroke="midnightblue" d="M406.35,-651.01C404.78,-649.63 403.32,-648.13 402,-646.5 311.17,-534.19 460.37,-432.86 366,-323.5 357.03,-313.11 344.15,-306.95 330.89,-303.37"/>
<polygon fill="midnightblue" stroke="midnightblue" points="404.75,-654.16 414.97,-656.94 408.71,-648.39 404.75,-654.16"/>
</g>
<!-- Node27 -->
<g id="node27" class="node">
<title>Node27</title>
<g id="a_node27"><a xlink:href="test__cmp__icu_8c_a70a6d23f621dd0ce0ffb110b9c77116f.html#a70a6d23f621dd0ce0ffb110b9c77116f" target="_top" xlink:title=" ">
<polygon fill="white" stroke="black" points="217.5,-235.5 217.5,-265.5 330.5,-265.5 330.5,-235.5 217.5,-235.5"/>
<text text-anchor="start" x="225.5" y="-253.5" font-family="Helvetica,sans-Serif" font-size="10.00">test_compress_s_fx</text>
<text text-anchor="middle" x="274" y="-242.5" font-family="Helvetica,sans-Serif" font-size="10.00">_ncob_error_cases</text>
</a>
</g>
</g>
<!-- Node2&#45;&gt;Node27 -->
<g id="edge26" class="edge">
<title>Node2&#45;&gt;Node27</title>
<path fill="none" stroke="midnightblue" d="M406.32,-651.04C404.76,-649.65 403.31,-648.14 402,-646.5 350.25,-581.54 419.8,-337.77 366,-274.5 357,-263.92 343.95,-257.72 330.52,-254.16"/>
<polygon fill="midnightblue" stroke="midnightblue" points="404.7,-654.17 414.91,-656.99 408.68,-648.42 404.7,-654.17"/>
</g>
<!-- Node28 -->
<g id="node28" class="node">
<title>Node28</title>
<g id="a_node28"><a xlink:href="test__cmp__icu_8c_ab9f5f00613d43e2b46aa130d472674cb.html#ab9f5f00613d43e2b46aa130d472674cb" target="_top" xlink:title=" ">
<polygon fill="white" stroke="black" points="205.5,-197 205.5,-216 342.5,-216 342.5,-197 205.5,-197"/>
<text text-anchor="middle" x="274" y="-204" font-family="Helvetica,sans-Serif" font-size="10.00">test_compress_s_fx_raw</text>
</a>
</g>
</g>
<!-- Node2&#45;&gt;Node28 -->
<g id="edge27" class="edge">
<title>Node2&#45;&gt;Node28</title>
<path fill="none" stroke="midnightblue" d="M406.2,-650.97C404.68,-649.61 403.27,-648.12 402,-646.5 343.9,-572.74 428.28,-295.77 366,-225.5 359.68,-218.37 351.45,-213.52 342.51,-210.28"/>
<polygon fill="midnightblue" stroke="midnightblue" points="404.38,-653.97 414.57,-656.87 408.41,-648.25 404.38,-653.97"/>
</g>
<!-- Node29 -->
<g id="node29" class="node">
<title>Node29</title>
<g id="a_node29"><a xlink:href="test__cmp__icu_8c_ad8cefbf7c0531178a3c5d00ed71cfe61.html#ad8cefbf7c0531178a3c5d00ed71cfe61" target="_top" xlink:title=" ">
<polygon fill="white" stroke="black" points="217.5,-147.5 217.5,-177.5 330.5,-177.5 330.5,-147.5 217.5,-147.5"/>
<text text-anchor="start" x="225.5" y="-165.5" font-family="Helvetica,sans-Serif" font-size="10.00">test_compress_s_fx</text>
<text text-anchor="middle" x="274" y="-154.5" font-family="Helvetica,sans-Serif" font-size="10.00">_staff</text>
</a>
</g>
</g>
<!-- Node2&#45;&gt;Node29 -->
<g id="edge28" class="edge">
<title>Node2&#45;&gt;Node29</title>
<path fill="none" stroke="midnightblue" d="M406.19,-650.98C404.67,-649.61 403.27,-648.12 402,-646.5 338.97,-565.9 431.16,-266.38 366,-187.5 357.13,-176.76 344.12,-170.4 330.69,-166.69"/>
<polygon fill="midnightblue" stroke="midnightblue" points="404.36,-653.98 414.54,-656.89 408.4,-648.26 404.36,-653.98"/>
</g>
<!-- Node30 -->
<g id="node30" class="node">
<title>Node30</title>
<g id="a_node30"><a xlink:href="test__cmp__icu_8c_aee4858f3ea226c6da9e4a9ed54475b1d.html#aee4858f3ea226c6da9e4a9ed54475b1d" target="_top" xlink:title=" ">
<polygon fill="white" stroke="black" points="204.5,-98.5 204.5,-128.5 343.5,-128.5 343.5,-98.5 204.5,-98.5"/>
<text text-anchor="start" x="212.5" y="-116.5" font-family="Helvetica,sans-Serif" font-size="10.00">test_compress_smearing</text>
<text text-anchor="middle" x="274" y="-105.5" font-family="Helvetica,sans-Serif" font-size="10.00">_error_cases</text>
</a>
</g>
</g>
<!-- Node2&#45;&gt;Node30 -->
<g id="edge29" class="edge">
<title>Node2&#45;&gt;Node30</title>
<path fill="none" stroke="midnightblue" d="M406.17,-651C404.66,-649.62 403.26,-648.13 402,-646.5 332.49,-556.91 438.33,-224.83 366,-137.5 360.06,-130.33 352.25,-125.16 343.71,-121.46"/>
<polygon fill="midnightblue" stroke="midnightblue" points="404.33,-653.98 414.51,-656.92 408.38,-648.27 404.33,-653.98"/>
</g>
<!-- Node31 -->
<g id="node31" class="node">
<title>Node31</title>
<g id="a_node31"><a xlink:href="test__cmp__icu_8c_a8db99614e8a5d384edb82fe466e15042.html#a8db99614e8a5d384edb82fe466e15042" target="_top" xlink:title=" ">
<polygon fill="white" stroke="black" points="207,-49.5 207,-79.5 341,-79.5 341,-49.5 207,-49.5"/>
<text text-anchor="start" x="215" y="-67.5" font-family="Helvetica,sans-Serif" font-size="10.00">test_icu_compress_data</text>
<text text-anchor="middle" x="274" y="-56.5" font-family="Helvetica,sans-Serif" font-size="10.00">_error_cases</text>
</a>
</g>
</g>
<!-- Node2&#45;&gt;Node31 -->
<g id="edge30" class="edge">
<title>Node2&#45;&gt;Node31</title>
<path fill="none" stroke="midnightblue" d="M406.16,-651.01C404.65,-649.63 403.26,-648.13 402,-646.5 326.14,-548.09 444.97,-184.44 366,-88.5 359.46,-80.55 350.63,-75.06 341.02,-71.3"/>
<polygon fill="midnightblue" stroke="midnightblue" points="404.31,-653.99 414.48,-656.94 408.37,-648.29 404.31,-653.99"/>
</g>
<!-- Node32 -->
<g id="node32" class="node">
<title>Node32</title>
<g id="a_node32"><a xlink:href="test__cmp__decmp_8c_abb20ed18a3c6ba0fc67ecef2d629dec0.html#abb20ed18a3c6ba0fc67ecef2d629dec0" target="_top" xlink:title=" ">
<polygon fill="white" stroke="black" points="201,-0.5 201,-30.5 347,-30.5 347,-0.5 201,-0.5"/>
<text text-anchor="start" x="209" y="-18.5" font-family="Helvetica,sans-Serif" font-size="10.00">test_random_compression</text>
<text text-anchor="middle" x="274" y="-7.5" font-family="Helvetica,sans-Serif" font-size="10.00">_decompression2</text>
</a>
</g>
</g>
<!-- Node2&#45;&gt;Node32 -->
<g id="edge31" class="edge">
<title>Node2&#45;&gt;Node32</title>
<path fill="none" stroke="midnightblue" d="M406.15,-651.02C404.64,-649.64 403.25,-648.13 402,-646.5 319.78,-539.27 451.6,-144.05 366,-39.5 360.93,-33.31 354.46,-28.6 347.33,-25.05"/>
<polygon fill="midnightblue" stroke="midnightblue" points="404.29,-653.99 414.46,-656.95 408.36,-648.29 404.29,-653.99"/>
</g>
<!-- Node4 -->
<g id="node4" class="node">
<title>Node4</title>
<g id="a_node4"><a xlink:href="test__cmp__decmp_8c_af3c162694b40683e0aa25c61a49cdafc.html#af3c162694b40683e0aa25c61a49cdafc" target="_top" xlink:title="random compression decompression test">
<polygon fill="white" stroke="black" points="0,-1270.5 0,-1300.5 146,-1300.5 146,-1270.5 0,-1270.5"/>
<text text-anchor="start" x="8" y="-1288.5" font-family="Helvetica,sans-Serif" font-size="10.00">test_random_compression</text>
<text text-anchor="middle" x="73" y="-1277.5" font-family="Helvetica,sans-Serif" font-size="10.00">_decompression</text>
</a>
</g>
</g>
<!-- Node3&#45;&gt;Node4 -->
<g id="edge3" class="edge">
<title>Node3&#45;&gt;Node4</title>
<path fill="none" stroke="midnightblue" d="M184.63,-1284.94C171.72,-1285.01 158.55,-1285.08 146.01,-1285.14"/>
<polygon fill="midnightblue" stroke="midnightblue" points="184.94,-1288.44 194.92,-1284.89 184.9,-1281.44 184.94,-1288.44"/>
</g>
<!-- Node6 -->
<g id="node6" class="node">
<title>Node6</title>
<g id="a_node6"><a xlink:href="test__decmp_8c_a1a33e2fcbf484c79dfe661b280386f6b.html#a1a33e2fcbf484c79dfe661b280386f6b" target="_top" xlink:title=" ">
<polygon fill="white" stroke="black" points="0,-1232 0,-1251 146,-1251 146,-1232 0,-1232"/>
<text text-anchor="middle" x="73" y="-1239" font-family="Helvetica,sans-Serif" font-size="10.00">test_cmp_decmp_s_fx_diff</text>
</a>
</g>
</g>
<!-- Node5&#45;&gt;Node6 -->
<g id="edge5" class="edge">
<title>Node5&#45;&gt;Node6</title>
<path fill="none" stroke="midnightblue" d="M191.7,-1242.68C176.67,-1242.53 161.06,-1242.37 146.32,-1242.23"/>
<polygon fill="midnightblue" stroke="midnightblue" points="191.96,-1246.19 202,-1242.79 192.03,-1239.19 191.96,-1246.19"/>
</g>
</g>
</svg>
        <g id="navigator" transform="translate(0 0)" fill="#404254">
                <rect fill="#f2f5e9" fill-opacity="0.5" stroke="#606060" stroke-width=".5" x="0" y="0" width="60" height="60"/>
                <use id="zoomplus" xlink:href="#zoomPlus" x="17" y="9" onmousedown="handleZoom(evt,'in')"/>
                <use id="zoomminus" xlink:href="#zoomMin" x="42" y="9" onmousedown="handleZoom(evt,'out')"/>
                <use id="reset" xlink:href="#resetDef" x="30" y="36" onmousedown="handleReset()"/>
                <g id="arrowUp" xlink:href="#dirArrow" transform="translate(30 24)" onmousedown="handlePan(0,-1)">
                  <use xlink:href="#rim" fill="#404040">
                        <set attributeName="fill" to="#808080" begin="arrowUp.mouseover" end="arrowUp.mouseout"/>
                  </use>
                  <path fill="none" stroke="white" stroke-width="1.5" d="M0,-3.0v7 M-2.5,-0.5L0,-3.0L2.5,-0.5"/>
                </g>
                <g id="arrowRight" xlink:href="#dirArrow" transform="rotate(90) translate(36 -43)" onmousedown="handlePan(1,0)">
                  <use xlink:href="#rim" fill="#404040">
                        <set attributeName="fill" to="#808080" begin="arrowRight.mouseover" end="arrowRight.mouseout"/>
                  </use>
                  <path fill="none" stroke="white" stroke-width="1.5" d="M0,-3.0v7 M-2.5,-0.5L0,-3.0L2.5,-0.5"/>
                </g>
                <g id="arrowDown" xlink:href="#dirArrow" transform="rotate(180) translate(-30 -48)" onmousedown="handlePan(0,1)">
                  <use xlink:href="#rim" fill="#404040">
                        <set attributeName="fill" to="#808080" begin="arrowDown.mouseover" end="arrowDown.mouseout"/>
                  </use>
                  <path fill="none" stroke="white" stroke-width="1.5" d="M0,-3.0v7 M-2.5,-0.5L0,-3.0L2.5,-0.5"/>
                </g>
                <g id="arrowLeft" xlink:href="#dirArrow" transform="rotate(270) translate(-36 17)" onmousedown="handlePan(-1,0)">
                  <use xlink:href="#rim" fill="#404040">
                        <set attributeName="fill" to="#808080" begin="arrowLeft.mouseover" end="arrowLeft.mouseout"/>
                  </use>
                  <path fill="none" stroke="white" stroke-width="1.5" d="M0,-3.0v7 M-2.5,-0.5L0,-3.0L2.5,-0.5"/>
                </g>
        </g>
        <svg viewBox="0 0 15 15" width="100%" height="30px" preserveAspectRatio="xMaxYMin meet">
         <g id="arrow_out" transform="scale(0.3 0.3)">
          <a xlink:href="cmp__support_8h_ac899115007a8c1aa9d82c1872b873655_ac899115007a8c1aa9d82c1872b873655_icgraph_org.svg" target="_base">
           <rect id="button" ry="5" rx="5" y="6" x="6" height="38" width="38"
                fill="#f2f5e9" fill-opacity="0.5" stroke="#606060" stroke-width="1.0"/>
           <path id="arrow"
             d="M 11.500037,31.436501 C 11.940474,20.09759 22.043105,11.32322 32.158766,21.979434 L 37.068811,17.246167 C 37.068811,17.246167 37.088388,32 37.088388,32 L 22.160133,31.978069 C 22.160133,31.978069 26.997745,27.140456 26.997745,27.140456 C 18.528582,18.264221 13.291696,25.230495 11.500037,31.436501 z"
             style="fill:#404040;"/>
          </a>
         </g>
        </svg>
</svg>
