<?xml version="1.0" encoding="UTF-8" standalone="no"?>
<!DOCTYPE svg PUBLIC "-//W3C//DTD SVG 1.1//EN"
 "http://www.w3.org/Graphics/SVG/1.1/DTD/svg11.dtd">
<!-- Generated by graphviz version 2.43.0 (0)
 -->
<!-- Title: cmp_ent_parese_adaptive_imagette_header Pages: 1 -->
<svg width="356pt" height="263pt"
 viewBox="0.00 0.00 356.00 262.50" xmlns="http://www.w3.org/2000/svg" xmlns:xlink="http://www.w3.org/1999/xlink">
<g id="graph0" class="graph" transform="scale(1 1) rotate(0) translate(4 258.5)">
<title>cmp_ent_parese_adaptive_imagette_header</title>
<polygon fill="white" stroke="transparent" points="-4,4 -4,-258.5 352,-258.5 352,4 -4,4"/>
<!-- Node1 -->
<g id="node1" class="node">
<title>Node1</title>
<g id="a_node1"><a xlink:title="parse the adaptive imagette specific compressed entity header">
<polygon fill="#bfbfbf" stroke="black" points="0,-101 0,-131 145,-131 145,-101 0,-101"/>
<text text-anchor="start" x="8" y="-119" font-family="Helvetica,sans-Serif" font-size="10.00">cmp_ent_parese_adaptive</text>
<text text-anchor="middle" x="72.5" y="-108" font-family="Helvetica,sans-Serif" font-size="10.00">_imagette_header</text>
</a>
</g>
</g>
<!-- Node2 -->
<g id="node2" class="node">
<title>Node2</title>
<g id="a_node2"><a xlink:href="cmp__entity_8c_aa6064dd377742b3a23f4aa1e9d29ca1d.html#aa6064dd377742b3a23f4aa1e9d29ca1d" target="_top" xlink:title="get the used adaptive 1 Golomb parameter from adaptive imagette specific compression entity header">
<polygon fill="white" stroke="black" points="201,-224 201,-254 328,-254 328,-224 201,-224"/>
<text text-anchor="start" x="209" y="-242" font-family="Helvetica,sans-Serif" font-size="10.00">cmp_ent_get_ima_ap1</text>
<text text-anchor="middle" x="264.5" y="-231" font-family="Helvetica,sans-Serif" font-size="10.00">_golomb_par</text>
</a>
</g>
</g>
<!-- Node1&#45;&gt;Node2 -->
<g id="edge1" class="edge">
<title>Node1&#45;&gt;Node2</title>
<path fill="none" stroke="midnightblue" d="M85.78,-131.06C104.24,-152.73 141.22,-192.56 181,-215 184.41,-216.92 187.99,-218.71 191.66,-220.35"/>
<polygon fill="midnightblue" stroke="midnightblue" points="190.38,-223.61 200.96,-224.18 193.05,-217.14 190.38,-223.61"/>
</g>
<!-- Node3 -->
<g id="node3" class="node">
<title>Node3</title>
<g id="a_node3"><a xlink:href="cmp__entity_8c_a2cc8ea3ff464c3bd20a08370f5fe88ad.html#a2cc8ea3ff464c3bd20a08370f5fe88ad" target="_top" xlink:title="get the used adaptive 1 spillover threshold parameter from the adaptive imagette specific compression...">
<polygon fill="white" stroke="black" points="201,-175 201,-205 328,-205 328,-175 201,-175"/>
<text text-anchor="start" x="209" y="-193" font-family="Helvetica,sans-Serif" font-size="10.00">cmp_ent_get_ima_ap1</text>
<text text-anchor="middle" x="264.5" y="-182" font-family="Helvetica,sans-Serif" font-size="10.00">_spill</text>
</a>
</g>
</g>
<!-- Node1&#45;&gt;Node3 -->
<g id="edge2" class="edge">
<title>Node1&#45;&gt;Node3</title>
<path fill="none" stroke="midnightblue" d="M102.64,-131.03C123.98,-141.67 153.83,-155.8 181,-166 186.37,-168.02 191.98,-169.97 197.65,-171.83"/>
<polygon fill="midnightblue" stroke="midnightblue" points="196.62,-175.17 207.21,-174.87 198.74,-168.5 196.62,-175.17"/>
</g>
<!-- Node4 -->
<g id="node4" class="node">
<title>Node4</title>
<g id="a_node4"><a xlink:href="cmp__entity_8c_aba889dd69b3ae248265c79d975d377e9.html#aba889dd69b3ae248265c79d975d377e9" target="_top" xlink:title="get the used adaptive 2 spillover threshold parameter from the adaptive imagette specific compression...">
<polygon fill="white" stroke="black" points="201,-126 201,-156 328,-156 328,-126 201,-126"/>
<text text-anchor="start" x="209" y="-144" font-family="Helvetica,sans-Serif" font-size="10.00">cmp_ent_get_ima_ap2</text>
<text text-anchor="middle" x="264.5" y="-133" font-family="Helvetica,sans-Serif" font-size="10.00">_golomb_par</text>
</a>
</g>
</g>
<!-- Node1&#45;&gt;Node4 -->
<g id="edge3" class="edge">
<title>Node1&#45;&gt;Node4</title>
<path fill="none" stroke="midnightblue" d="M145.06,-125.42C159.93,-127.37 175.62,-129.44 190.54,-131.4"/>
<polygon fill="midnightblue" stroke="midnightblue" points="190.36,-134.91 200.73,-132.74 191.27,-127.97 190.36,-134.91"/>
</g>
<!-- Node5 -->
<g id="node5" class="node">
<title>Node5</title>
<g id="a_node5"><a xlink:href="cmp__entity_8c_a701c7c0bd296b17280619127a7ab4e89.html#a701c7c0bd296b17280619127a7ab4e89" target="_top" xlink:title="get the used adaptive 2 spillover threshold parameter from the adaptive imagette specific compression...">
<polygon fill="white" stroke="black" points="201,-77 201,-107 328,-107 328,-77 201,-77"/>
<text text-anchor="start" x="209" y="-95" font-family="Helvetica,sans-Serif" font-size="10.00">cmp_ent_get_ima_ap2</text>
<text text-anchor="middle" x="264.5" y="-84" font-family="Helvetica,sans-Serif" font-size="10.00">_spill</text>
</a>
</g>
</g>
<!-- Node1&#45;&gt;Node5 -->
<g id="edge4" class="edge">
<title>Node1&#45;&gt;Node5</title>
<path fill="none" stroke="midnightblue" d="M145.06,-106.96C159.93,-105.08 175.62,-103.1 190.54,-101.22"/>
<polygon fill="midnightblue" stroke="midnightblue" points="191.25,-104.65 200.73,-99.93 190.37,-97.71 191.25,-104.65"/>
</g>
<!-- Node6 -->
<g id="node6" class="node">
<title>Node6</title>
<g id="a_node6"><a xlink:href="cmp__entity_8c_a4e4c9b1046c031cc9bbce7dff640e393.html#a4e4c9b1046c031cc9bbce7dff640e393" target="_top" xlink:title="get the used Golomb parameter from the (adaptive) imagette specific compression entity header">
<polygon fill="white" stroke="black" points="181,-38.5 181,-57.5 348,-57.5 348,-38.5 181,-38.5"/>
<text text-anchor="middle" x="264.5" y="-45.5" font-family="Helvetica,sans-Serif" font-size="10.00">cmp_ent_get_ima_golomb_par</text>
</a>
</g>
</g>
<!-- Node1&#45;&gt;Node6 -->
<g id="edge5" class="edge">
<title>Node1&#45;&gt;Node6</title>
<path fill="none" stroke="midnightblue" d="M103.49,-100.84C124.73,-90.54 154.11,-77.18 181,-68 189.6,-65.06 198.85,-62.38 207.93,-60"/>
<polygon fill="midnightblue" stroke="midnightblue" points="208.85,-63.38 217.68,-57.54 207.13,-56.59 208.85,-63.38"/>
</g>
<!-- Node7 -->
<g id="node7" class="node">
<title>Node7</title>
<g id="a_node7"><a xlink:href="cmp__entity_8c_a58239f749d3abbbc019231ce70c60e19.html#a58239f749d3abbbc019231ce70c60e19" target="_top" xlink:title="get the used spillover threshold parameter from the (adaptive) imagette specific compression entity h...">
<polygon fill="white" stroke="black" points="200,-0.5 200,-19.5 329,-19.5 329,-0.5 200,-0.5"/>
<text text-anchor="middle" x="264.5" y="-7.5" font-family="Helvetica,sans-Serif" font-size="10.00">cmp_ent_get_ima_spill</text>
</a>
</g>
</g>
<!-- Node1&#45;&gt;Node7 -->
<g id="edge6" class="edge">
<title>Node1&#45;&gt;Node7</title>
<path fill="none" stroke="midnightblue" d="M87.63,-100.91C106.86,-81.3 143.23,-47.4 181,-29 185.95,-26.59 191.23,-24.47 196.62,-22.62"/>
<polygon fill="midnightblue" stroke="midnightblue" points="197.91,-25.89 206.41,-19.57 195.82,-19.2 197.91,-25.89"/>
</g>
</g>
</svg>
