<?xml version="1.0" encoding="UTF-8" standalone="no"?>
<!DOCTYPE svg PUBLIC "-//W3C//DTD SVG 1.1//EN"
 "http://www.w3.org/Graphics/SVG/1.1/DTD/svg11.dtd">
<!-- Generated by graphviz version 2.43.0 (0)
 -->
<!-- Title: cmp_cfg_fx_cob_is_invalid Pages: 1 -->
<svg width="652pt" height="176pt"
 viewBox="0.00 0.00 652.00 176.00" xmlns="http://www.w3.org/2000/svg" xmlns:xlink="http://www.w3.org/1999/xlink">
<g id="graph0" class="graph" transform="scale(1 1) rotate(0) translate(4 172)">
<title>cmp_cfg_fx_cob_is_invalid</title>
<polygon fill="white" stroke="transparent" points="-4,4 -4,-172 648,-172 648,4 -4,4"/>
<!-- Node1 -->
<g id="node1" class="node">
<title>Node1</title>
<g id="a_node1"><a xlink:title="check if the flux/center of brightness specific compression parameters are invalid">
<polygon fill="#bfbfbf" stroke="black" points="0,-94 0,-113 147,-113 147,-94 0,-94"/>
<text text-anchor="middle" x="73.5" y="-101" font-family="Helvetica,sans-Serif" font-size="10.00">cmp_cfg_fx_cob_is_invalid</text>
</a>
</g>
</g>
<!-- Node2 -->
<g id="node2" class="node">
<title>Node2</title>
<g id="a_node2"><a xlink:href="cmp__support_8c_a3e5913a05465353d3ae640cd2359f8d7.html#a3e5913a05465353d3ae640cd2359f8d7" target="_top" xlink:title="get needed compression parameter pairs for a flux/center of brightness data type">
<polygon fill="white" stroke="black" points="189.5,-137.5 189.5,-167.5 305.5,-167.5 305.5,-137.5 189.5,-137.5"/>
<text text-anchor="start" x="197.5" y="-155.5" font-family="Helvetica,sans-Serif" font-size="10.00">cmp_cfg_fx_cob_get</text>
<text text-anchor="middle" x="247.5" y="-144.5" font-family="Helvetica,sans-Serif" font-size="10.00">_need_pars</text>
</a>
</g>
</g>
<!-- Node1&#45;&gt;Node2 -->
<g id="edge1" class="edge">
<title>Node1&#45;&gt;Node2</title>
<path fill="none" stroke="midnightblue" d="M108.07,-113.06C129.66,-119.21 158.37,-127.39 184.05,-134.71"/>
<polygon fill="midnightblue" stroke="midnightblue" points="183.14,-138.09 193.72,-137.46 185.06,-131.36 183.14,-138.09"/>
</g>
<!-- Node3 -->
<g id="node3" class="node">
<title>Node3</title>
<g id="a_node3"><a xlink:href="cmp__support_8c_a3af135761eadd1f28a5f58a35903d381.html#a3af135761eadd1f28a5f58a35903d381" target="_top" xlink:title="check if a flux/center of brightness compression data type is used">
<polygon fill="white" stroke="black" points="183,-88.5 183,-118.5 312,-118.5 312,-88.5 183,-88.5"/>
<text text-anchor="start" x="191" y="-106.5" font-family="Helvetica,sans-Serif" font-size="10.00">cmp_fx_cob_data_type</text>
<text text-anchor="middle" x="247.5" y="-95.5" font-family="Helvetica,sans-Serif" font-size="10.00">_is_used</text>
</a>
</g>
</g>
<!-- Node1&#45;&gt;Node3 -->
<g id="edge2" class="edge">
<title>Node1&#45;&gt;Node3</title>
<path fill="none" stroke="midnightblue" d="M147.44,-103.5C155.84,-103.5 164.41,-103.5 172.81,-103.5"/>
<polygon fill="midnightblue" stroke="midnightblue" points="172.97,-107 182.97,-103.5 172.97,-100 172.97,-107"/>
</g>
<!-- Node4 -->
<g id="node4" class="node">
<title>Node4</title>
<g id="a_node4"><a xlink:href="cmp__support_8c_adbae174c7bd594fd05723ddc667f5b54.html#adbae174c7bd594fd05723ddc667f5b54" target="_top" xlink:title="check if the combination of the different compression parameters is invalid">
<polygon fill="white" stroke="black" points="186,-50 186,-69 309,-69 309,-50 186,-50"/>
<text text-anchor="middle" x="247.5" y="-57" font-family="Helvetica,sans-Serif" font-size="10.00">cmp_pars_are_invalid</text>
</a>
</g>
</g>
<!-- Node1&#45;&gt;Node4 -->
<g id="edge3" class="edge">
<title>Node1&#45;&gt;Node4</title>
<path fill="none" stroke="midnightblue" d="M111.82,-93.95C137.52,-87.38 171.86,-78.6 199.43,-71.54"/>
<polygon fill="midnightblue" stroke="midnightblue" points="200.43,-74.9 209.25,-69.03 198.7,-68.12 200.43,-74.9"/>
</g>
<!-- Node5 -->
<g id="node5" class="node">
<title>Node5</title>
<g id="a_node5"><a xlink:href="cmp__support_8c_aefdc949ff52e4920859d0bd82f5aa5aa.html#aefdc949ff52e4920859d0bd82f5aa5aa" target="_top" xlink:title="get the maximum valid spill threshold value for a non&#45;imagette compression in diff or model mode">
<polygon fill="white" stroke="black" points="363.5,-88 363.5,-107 473.5,-107 473.5,-88 363.5,-88"/>
<text text-anchor="middle" x="418.5" y="-95" font-family="Helvetica,sans-Serif" font-size="10.00">cmp_icu_max_spill</text>
</a>
</g>
</g>
<!-- Node4&#45;&gt;Node5 -->
<g id="edge4" class="edge">
<title>Node4&#45;&gt;Node5</title>
<path fill="none" stroke="midnightblue" d="M291.15,-69.09C313.65,-74.15 341.45,-80.4 365.24,-85.75"/>
<polygon fill="midnightblue" stroke="midnightblue" points="364.64,-89.2 375.16,-87.98 366.17,-82.37 364.64,-89.2"/>
</g>
<!-- Node7 -->
<g id="node7" class="node">
<title>Node7</title>
<g id="a_node7"><a xlink:href="cmp__support_8c_a743a6fcf9ff9d9c86e5dcd2521694472.html#a743a6fcf9ff9d9c86e5dcd2521694472" target="_top" xlink:title="get the maximum valid spill threshold value for a imagette compression in diff or model mode">
<polygon fill="white" stroke="black" points="361.5,-50 361.5,-69 475.5,-69 475.5,-50 361.5,-50"/>
<text text-anchor="middle" x="418.5" y="-57" font-family="Helvetica,sans-Serif" font-size="10.00">cmp_ima_max_spill</text>
</a>
</g>
</g>
<!-- Node4&#45;&gt;Node7 -->
<g id="edge6" class="edge">
<title>Node4&#45;&gt;Node7</title>
<path fill="none" stroke="midnightblue" d="M309.04,-59.5C322.75,-59.5 337.39,-59.5 351.33,-59.5"/>
<polygon fill="midnightblue" stroke="midnightblue" points="351.33,-63 361.33,-59.5 351.33,-56 351.33,-63"/>
</g>
<!-- Node8 -->
<g id="node8" class="node">
<title>Node8</title>
<g id="a_node8"><a xlink:href="cmp__support_8c_a01181fec3ef69e316b4d77de4df9865f.html#a01181fec3ef69e316b4d77de4df9865f" target="_top" xlink:title="check if an imagette compression data type is used">
<polygon fill="white" stroke="black" points="348,-0.5 348,-30.5 489,-30.5 489,-0.5 348,-0.5"/>
<text text-anchor="start" x="356" y="-18.5" font-family="Helvetica,sans-Serif" font-size="10.00">cmp_imagette_data_type</text>
<text text-anchor="middle" x="418.5" y="-7.5" font-family="Helvetica,sans-Serif" font-size="10.00">_is_used</text>
</a>
</g>
</g>
<!-- Node4&#45;&gt;Node8 -->
<g id="edge7" class="edge">
<title>Node4&#45;&gt;Node8</title>
<path fill="none" stroke="midnightblue" d="M285.17,-49.95C304.11,-45.02 327.84,-38.84 349.95,-33.09"/>
<polygon fill="midnightblue" stroke="midnightblue" points="350.84,-36.47 359.64,-30.57 349.08,-29.7 350.84,-36.47"/>
</g>
<!-- Node6 -->
<g id="node6" class="node">
<title>Node6</title>
<g id="a_node6"><a xlink:href="cmp__support_8c_a67b0e38ca0e68c282c89552daa61ffdf.html#a67b0e38ca0e68c282c89552daa61ffdf" target="_top" xlink:title="implementation of the logarithm base of floor(log2(x)) for integers">
<polygon fill="white" stroke="black" points="561.5,-88 561.5,-107 607.5,-107 607.5,-88 561.5,-88"/>
<text text-anchor="middle" x="584.5" y="-95" font-family="Helvetica,sans-Serif" font-size="10.00">ilog_2</text>
</a>
</g>
</g>
<!-- Node5&#45;&gt;Node6 -->
<g id="edge5" class="edge">
<title>Node5&#45;&gt;Node6</title>
<path fill="none" stroke="midnightblue" d="M473.65,-97.5C499.31,-97.5 529.1,-97.5 551.17,-97.5"/>
<polygon fill="midnightblue" stroke="midnightblue" points="551.34,-101 561.34,-97.5 551.34,-94 551.34,-101"/>
</g>
<!-- Node9 -->
<g id="node9" class="node">
<title>Node9</title>
<g id="a_node9"><a xlink:href="cmp__support_8c_a9197caa657b3d84615c0d323dc96c502.html#a9197caa657b3d84615c0d323dc96c502" target="_top" xlink:title="check if the data product data type is supported by the RDCU compressor">
<polygon fill="white" stroke="black" points="525,-0.5 525,-30.5 644,-30.5 644,-0.5 525,-0.5"/>
<text text-anchor="start" x="533" y="-18.5" font-family="Helvetica,sans-Serif" font-size="10.00">rdcu_supported_data</text>
<text text-anchor="middle" x="584.5" y="-7.5" font-family="Helvetica,sans-Serif" font-size="10.00">_type_is_used</text>
</a>
</g>
</g>
<!-- Node8&#45;&gt;Node9 -->
<g id="edge8" class="edge">
<title>Node8&#45;&gt;Node9</title>
<path fill="none" stroke="midnightblue" d="M489.05,-15.5C497.55,-15.5 506.24,-15.5 514.73,-15.5"/>
<polygon fill="midnightblue" stroke="midnightblue" points="514.97,-19 524.97,-15.5 514.97,-12 514.97,-19"/>
</g>
</g>
</svg>
