<?xml version="1.0" encoding="UTF-8" standalone="no"?>
<!DOCTYPE svg PUBLIC "-//W3C//DTD SVG 1.1//EN"
 "http://www.w3.org/Graphics/SVG/1.1/DTD/svg11.dtd">
<!-- Generated by graphviz version 2.43.0 (0)
 -->
<!-- Title: cmp_mode_is_supported Pages: 1 -->
<!--zoomable 1424 -->
<svg id="main" version="1.1" xmlns="http://www.w3.org/2000/svg" xmlns:xlink="http://www.w3.org/1999/xlink" xml:space="preserve" onload="init(evt)">
<style type="text/css"><![CDATA[
.edge:hover path { stroke: red; }
.edge:hover polygon { stroke: red; fill: red; }
]]></style>
<script type="text/javascript"><![CDATA[
var edges = document.getElementsByTagName('g');
if (edges && edges.length) {
  for (var i=0;i<edges.length;i++) {
    if (edges[i].id.substr(0,4)=='edge') {
      edges[i].setAttribute('class','edge');
    }
  }
}
]]></script>
        <defs>
                <circle id="rim" cx="0" cy="0" r="7"/>
                <circle id="rim2" cx="0" cy="0" r="3.5"/>
                <g id="zoomPlus">
                        <use xlink:href="#rim" fill="#404040">
                                <set attributeName="fill" to="#808080" begin="zoomplus.mouseover" end="zoomplus.mouseout"/>
                        </use>
                        <path d="M-4,0h8M0,-4v8" fill="none" stroke="white" stroke-width="1.5" pointer-events="none"/>
                </g>
                <g id="zoomMin">
                        <use xlink:href="#rim" fill="#404040">
                                <set attributeName="fill" to="#808080" begin="zoomminus.mouseover" end="zoomminus.mouseout"/>
                        </use>
                        <path d="M-4,0h8" fill="none" stroke="white" stroke-width="1.5" pointer-events="none"/>
                </g>
                <g id="dirArrow">
                        <path fill="none" stroke="white" stroke-width="1.5" d="M0,-3.0v7 M-2.5,-0.5L0,-3.0L2.5,-0.5"/>
                </g>
               <g id="resetDef">
                       <use xlink:href="#rim2" fill="#404040">
                               <set attributeName="fill" to="#808080" begin="reset.mouseover" end="reset.mouseout"/>
                       </use>
               </g>
        </defs>

<script type="text/javascript">
var viewWidth = 1039;
var viewHeight = 1424;
var sectionId = 'dynsection-0';
</script>
<script xlink:href="svgpan.js"/>
<svg id="graph" class="graph">
<g id="viewport">
<title>cmp_mode_is_supported</title>
<polygon fill="white" stroke="transparent" points="-4,4 -4,-1419.5 1035,-1419.5 1035,4 -4,4"/>
<!-- Node1 -->
<g id="node1" class="node">
<title>Node1</title>
<g id="a_node1"><a xlink:title="check if the compression mode is supported for an ICU compression">
<polygon fill="#bfbfbf" stroke="black" points="893,-451.5 893,-470.5 1031,-470.5 1031,-451.5 893,-451.5"/>
<text text-anchor="middle" x="962" y="-458.5" font-family="Helvetica,sans-Serif" font-size="10.00">cmp_mode_is_supported</text>
</a>
</g>
</g>
<!-- Node2 -->
<g id="node2" class="node">
<title>Node2</title>
<g id="a_node2"><a xlink:href="cmp__support_8c_ab626f2778774ee7f0e79f4d50e79917c.html#ab626f2778774ee7f0e79f4d50e79917c" target="_top" xlink:title="check if the compression data type, compression mode, model value and the lossy rounding parameters a...">
<polygon fill="white" stroke="black" points="741,-446 741,-476 857,-476 857,-446 741,-446"/>
<text text-anchor="start" x="749" y="-464" font-family="Helvetica,sans-Serif" font-size="10.00">cmp_cfg_gen_par_is</text>
<text text-anchor="middle" x="799" y="-453" font-family="Helvetica,sans-Serif" font-size="10.00">_invalid</text>
</a>
</g>
</g>
<!-- Node1&#45;&gt;Node2 -->
<g id="edge1" class="edge">
<title>Node1&#45;&gt;Node2</title>
<path fill="none" stroke="midnightblue" d="M882.68,-461C874.09,-461 865.47,-461 857.21,-461"/>
<polygon fill="midnightblue" stroke="midnightblue" points="882.72,-464.5 892.72,-461 882.72,-457.5 882.72,-464.5"/>
</g>
<!-- Node3 -->
<g id="node3" class="node">
<title>Node3</title>
<g id="a_node3"><a xlink:href="cmp__support_8c_ac899115007a8c1aa9d82c1872b873655.html#ac899115007a8c1aa9d82c1872b873655" target="_top" xlink:title="check if a compression configuration is invalid for a ICU compression">
<polygon fill="white" stroke="black" points="572.5,-541.5 572.5,-560.5 701.5,-560.5 701.5,-541.5 572.5,-541.5"/>
<text text-anchor="middle" x="637" y="-548.5" font-family="Helvetica,sans-Serif" font-size="10.00">cmp_cfg_icu_is_invalid</text>
</a>
</g>
</g>
<!-- Node2&#45;&gt;Node3 -->
<g id="edge2" class="edge">
<title>Node2&#45;&gt;Node3</title>
<path fill="none" stroke="midnightblue" d="M762.23,-481.12C728.82,-499.91 680.41,-527.15 655.01,-541.43"/>
<polygon fill="midnightblue" stroke="midnightblue" points="764.22,-484.02 771.22,-476.06 760.79,-477.92 764.22,-484.02"/>
</g>
<!-- Node35 -->
<g id="node35" class="node">
<title>Node35</title>
<g id="a_node35"><a xlink:href="test__cmp__icu_8c_aaa89e321d2d9f70cb59536438f4b6dff.html#aaa89e321d2d9f70cb59536438f4b6dff" target="_top" xlink:title=" ">
<polygon fill="white" stroke="black" points="406.5,-536 406.5,-566 528.5,-566 528.5,-536 406.5,-536"/>
<text text-anchor="start" x="414.5" y="-554" font-family="Helvetica,sans-Serif" font-size="10.00">test_support_function</text>
<text text-anchor="middle" x="467.5" y="-543" font-family="Helvetica,sans-Serif" font-size="10.00">_call_NULL</text>
</a>
</g>
</g>
<!-- Node2&#45;&gt;Node35 -->
<g id="edge49" class="edge">
<title>Node2&#45;&gt;Node35</title>
<path fill="none" stroke="midnightblue" d="M732.92,-478.78C671.75,-495.48 581.22,-520.21 523.56,-535.96"/>
<polygon fill="midnightblue" stroke="midnightblue" points="734.12,-482.08 742.85,-476.06 732.28,-475.32 734.12,-482.08"/>
</g>
<!-- Node36 -->
<g id="node36" class="node">
<title>Node36</title>
<g id="a_node36"><a xlink:href="cmp__rdcu__cfg_8c_a67c328156978a58fd22ed3cc510e4f8b.html#a67c328156978a58fd22ed3cc510e4f8b" target="_top" xlink:title="create an RDCU compression configuration">
<polygon fill="white" stroke="black" points="590,-399.5 590,-418.5 684,-418.5 684,-399.5 590,-399.5"/>
<text text-anchor="middle" x="637" y="-406.5" font-family="Helvetica,sans-Serif" font-size="10.00">rdcu_cfg_create</text>
</a>
</g>
</g>
<!-- Node2&#45;&gt;Node36 -->
<g id="edge35" class="edge">
<title>Node2&#45;&gt;Node36</title>
<path fill="none" stroke="midnightblue" d="M741.95,-442.78C716.88,-434.64 688.35,-425.37 667.54,-418.6"/>
<polygon fill="midnightblue" stroke="midnightblue" points="741.13,-446.2 751.72,-445.96 743.29,-439.54 741.13,-446.2"/>
</g>
<!-- Node43 -->
<g id="node43" class="node">
<title>Node43</title>
<g id="a_node43"><a xlink:href="cmp__rdcu__cfg_8c_abe8a949f8c993e8f052d6925b055b731.html#abe8a949f8c993e8f052d6925b055b731" target="_top" xlink:title="check if the compressor configuration is invalid for an RDCU compression, see the user manual for mor...">
<polygon fill="white" stroke="black" points="569,-268.5 569,-287.5 705,-287.5 705,-268.5 569,-268.5"/>
<text text-anchor="middle" x="637" y="-275.5" font-family="Helvetica,sans-Serif" font-size="10.00">rdcu_cmp_cfg_is_invalid</text>
</a>
</g>
</g>
<!-- Node2&#45;&gt;Node43 -->
<g id="edge42" class="edge">
<title>Node2&#45;&gt;Node43</title>
<path fill="none" stroke="midnightblue" d="M777.87,-437.98C742.52,-397.54 670.69,-315.39 646.31,-287.51"/>
<polygon fill="midnightblue" stroke="midnightblue" points="775.42,-440.49 784.63,-445.71 780.69,-435.88 775.42,-440.49"/>
</g>
<!-- Node4 -->
<g id="node4" class="node">
<title>Node4</title>
<g id="a_node4"><a xlink:href="cmp__icu_8h_a08bf8ccacb449aba08db5e51d532d834.html#a08bf8ccacb449aba08db5e51d532d834" target="_top" xlink:title="compress data on the ICU in software">
<polygon fill="white" stroke="black" points="412.5,-747.5 412.5,-766.5 522.5,-766.5 522.5,-747.5 412.5,-747.5"/>
<text text-anchor="middle" x="467.5" y="-754.5" font-family="Helvetica,sans-Serif" font-size="10.00">icu_compress_data</text>
</a>
</g>
</g>
<!-- Node3&#45;&gt;Node4 -->
<g id="edge3" class="edge">
<title>Node3&#45;&gt;Node4</title>
<path fill="none" stroke="midnightblue" d="M621.7,-568.58C587.73,-610.37 503,-714.57 476.53,-747.12"/>
<polygon fill="midnightblue" stroke="midnightblue" points="624.55,-570.63 628.15,-560.66 619.12,-566.21 624.55,-570.63"/>
</g>
<!-- Node3&#45;&gt;Node35 -->
<g id="edge34" class="edge">
<title>Node3&#45;&gt;Node35</title>
<path fill="none" stroke="midnightblue" d="M562.01,-551C550.82,-551 539.39,-551 528.54,-551"/>
<polygon fill="midnightblue" stroke="midnightblue" points="562.2,-554.5 572.2,-551 562.2,-547.5 562.2,-554.5"/>
</g>
<!-- Node5 -->
<g id="node5" class="node">
<title>Node5</title>
<g id="a_node5"><a xlink:href="test__cmp__decmp_8c_a50ba26014079160ca77b7d7fa76ce0f4.html#a50ba26014079160ca77b7d7fa76ce0f4" target="_top" xlink:title="compress the given configuration and decompress it afterwards; finally compare the results">
<polygon fill="white" stroke="black" points="195,-1389.5 195,-1408.5 353,-1408.5 353,-1389.5 195,-1389.5"/>
<text text-anchor="middle" x="274" y="-1396.5" font-family="Helvetica,sans-Serif" font-size="10.00">compression_decompression</text>
</a>
</g>
</g>
<!-- Node4&#45;&gt;Node5 -->
<g id="edge4" class="edge">
<title>Node4&#45;&gt;Node5</title>
<path fill="none" stroke="midnightblue" d="M466.13,-777.05C463.93,-873.27 449.67,-1286.67 366,-1377 361.25,-1382.13 355.53,-1386.15 349.3,-1389.3"/>
<polygon fill="midnightblue" stroke="midnightblue" points="469.63,-777.01 466.34,-766.93 462.63,-776.86 469.63,-777.01"/>
</g>
<!-- Node7 -->
<g id="node7" class="node">
<title>Node7</title>
<g id="a_node7"><a xlink:href="test__decmp_8c_a2d642d4d482b9ec7eca4568a95f5bdd4.html#a2d642d4d482b9ec7eca4568a95f5bdd4" target="_top" xlink:title=" ">
<polygon fill="white" stroke="black" points="202,-1348.5 202,-1367.5 346,-1367.5 346,-1348.5 202,-1348.5"/>
<text text-anchor="middle" x="274" y="-1355.5" font-family="Helvetica,sans-Serif" font-size="10.00">icu_compress_data_entity</text>
</a>
</g>
</g>
<!-- Node4&#45;&gt;Node7 -->
<g id="edge6" class="edge">
<title>Node4&#45;&gt;Node7</title>
<path fill="none" stroke="midnightblue" d="M465.96,-777.03C463.02,-869.73 446.09,-1256.07 366,-1339 360.39,-1344.8 353.51,-1349.07 346.05,-1352.17"/>
<polygon fill="midnightblue" stroke="midnightblue" points="469.46,-776.9 466.26,-766.8 462.46,-776.69 469.46,-776.9"/>
</g>
<!-- Node9 -->
<g id="node9" class="node">
<title>Node9</title>
<g id="a_node9"><a xlink:href="test__decmp_8c_a6e7a5e150e2c829836db3c42cdec2eec.html#a6e7a5e150e2c829836db3c42cdec2eec" target="_top" xlink:title=" ">
<polygon fill="white" stroke="black" points="182,-1310.5 182,-1329.5 366,-1329.5 366,-1310.5 182,-1310.5"/>
<text text-anchor="middle" x="274" y="-1317.5" font-family="Helvetica,sans-Serif" font-size="10.00">test_cmp_decmp_n_imagette_raw</text>
</a>
</g>
</g>
<!-- Node4&#45;&gt;Node9 -->
<g id="edge8" class="edge">
<title>Node4&#45;&gt;Node9</title>
<path fill="none" stroke="midnightblue" d="M465.7,-776.83C461.73,-865.44 441.16,-1224.08 366,-1301 362.39,-1304.69 358.26,-1307.76 353.8,-1310.3"/>
<polygon fill="midnightblue" stroke="midnightblue" points="469.21,-776.72 466.14,-766.58 462.22,-776.42 469.21,-776.72"/>
</g>
<!-- Node10 -->
<g id="node10" class="node">
<title>Node10</title>
<g id="a_node10"><a xlink:href="test__cmp__icu_8c_aca32c7d039600004c9cc5c6fe19b8ec5.html#aca32c7d039600004c9cc5c6fe19b8ec5" target="_top" xlink:title=" ">
<polygon fill="white" stroke="black" points="199,-1261 199,-1291 349,-1291 349,-1261 199,-1261"/>
<text text-anchor="start" x="207" y="-1279" font-family="Helvetica,sans-Serif" font-size="10.00">test_compress_background</text>
<text text-anchor="middle" x="274" y="-1268" font-family="Helvetica,sans-Serif" font-size="10.00">_error_cases</text>
</a>
</g>
</g>
<!-- Node4&#45;&gt;Node10 -->
<g id="edge9" class="edge">
<title>Node4&#45;&gt;Node10</title>
<path fill="none" stroke="midnightblue" d="M465.19,-777.07C459.34,-860.79 432.84,-1181.2 366,-1252 361.18,-1257.11 355.41,-1261.18 349.14,-1264.41"/>
<polygon fill="midnightblue" stroke="midnightblue" points="468.7,-777.09 465.88,-766.87 461.72,-776.61 468.7,-777.09"/>
</g>
<!-- Node11 -->
<g id="node11" class="node">
<title>Node11</title>
<g id="a_node11"><a xlink:href="test__cmp__icu_8c_a64b46c032fdef8789190209bd9c3c49b.html#a64b46c032fdef8789190209bd9c3c49b" target="_top" xlink:title=" ">
<polygon fill="white" stroke="black" points="218,-1212 218,-1242 330,-1242 330,-1212 218,-1212"/>
<text text-anchor="start" x="226" y="-1230" font-family="Helvetica,sans-Serif" font-size="10.00">test_compress_f_fx</text>
<text text-anchor="middle" x="274" y="-1219" font-family="Helvetica,sans-Serif" font-size="10.00">_efx_error_cases</text>
</a>
</g>
</g>
<!-- Node4&#45;&gt;Node11 -->
<g id="edge10" class="edge">
<title>Node4&#45;&gt;Node11</title>
<path fill="none" stroke="midnightblue" d="M464.71,-777.04C457.32,-855.44 426.66,-1140.1 366,-1203 356.47,-1212.88 343.4,-1218.86 330.13,-1222.43"/>
<polygon fill="midnightblue" stroke="midnightblue" points="468.24,-776.93 465.67,-766.66 461.27,-776.29 468.24,-776.93"/>
</g>
<!-- Node12 -->
<g id="node12" class="node">
<title>Node12</title>
<g id="a_node12"><a xlink:href="test__cmp__icu_8c_acd4ce1f38ffbf0d6258b81668836d96b.html#acd4ce1f38ffbf0d6258b81668836d96b" target="_top" xlink:title=" ">
<polygon fill="white" stroke="black" points="218,-1163 218,-1193 330,-1193 330,-1163 218,-1163"/>
<text text-anchor="start" x="226" y="-1181" font-family="Helvetica,sans-Serif" font-size="10.00">test_compress_f_fx</text>
<text text-anchor="middle" x="274" y="-1170" font-family="Helvetica,sans-Serif" font-size="10.00">_efx_ncob_ecob</text>
</a>
</g>
</g>
<!-- Node4&#45;&gt;Node12 -->
<g id="edge11" class="edge">
<title>Node4&#45;&gt;Node12</title>
<path fill="none" stroke="midnightblue" d="M464.16,-776.69C455.17,-849.03 420.61,-1098.85 366,-1154 356.46,-1163.64 343.54,-1169.55 330.43,-1173.14"/>
<polygon fill="midnightblue" stroke="midnightblue" points="467.65,-777.01 465.38,-766.66 460.7,-776.16 467.65,-777.01"/>
</g>
<!-- Node13 -->
<g id="node13" class="node">
<title>Node13</title>
<g id="a_node13"><a xlink:href="test__cmp__icu_8c_a5fdfb76e3f52d4283fdcbf5e05ac7dd9.html#a5fdfb76e3f52d4283fdcbf5e05ac7dd9" target="_top" xlink:title=" ">
<polygon fill="white" stroke="black" points="218,-1114 218,-1144 330,-1144 330,-1114 218,-1114"/>
<text text-anchor="start" x="226" y="-1132" font-family="Helvetica,sans-Serif" font-size="10.00">test_compress_f_fx</text>
<text text-anchor="middle" x="274" y="-1121" font-family="Helvetica,sans-Serif" font-size="10.00">_error_cases</text>
</a>
</g>
</g>
<!-- Node4&#45;&gt;Node13 -->
<g id="edge12" class="edge">
<title>Node4&#45;&gt;Node13</title>
<path fill="none" stroke="midnightblue" d="M467.07,-776.94C467.64,-836.1 460.88,-1012.3 366,-1105 356.3,-1114.48 343.32,-1120.33 330.22,-1123.92"/>
<polygon fill="midnightblue" stroke="midnightblue" points="470.57,-776.66 466.89,-766.72 463.57,-776.79 470.57,-776.66"/>
</g>
<!-- Node14 -->
<g id="node14" class="node">
<title>Node14</title>
<g id="a_node14"><a xlink:href="test__cmp__icu_8c_ad6a880fe71de66a8a98a3f97d9e736da.html#ad6a880fe71de66a8a98a3f97d9e736da" target="_top" xlink:title=" ">
<polygon fill="white" stroke="black" points="218,-1065 218,-1095 330,-1095 330,-1065 218,-1065"/>
<text text-anchor="start" x="226" y="-1083" font-family="Helvetica,sans-Serif" font-size="10.00">test_compress_f_fx</text>
<text text-anchor="middle" x="274" y="-1072" font-family="Helvetica,sans-Serif" font-size="10.00">_ncob_error_cases</text>
</a>
</g>
</g>
<!-- Node4&#45;&gt;Node14 -->
<g id="edge13" class="edge">
<title>Node4&#45;&gt;Node14</title>
<path fill="none" stroke="midnightblue" d="M465.91,-776.82C463.21,-830.04 448.28,-977.29 366,-1055 356.23,-1064.22 343.39,-1070.1 330.43,-1073.84"/>
<polygon fill="midnightblue" stroke="midnightblue" points="469.41,-776.82 466.32,-766.69 462.41,-776.54 469.41,-776.82"/>
</g>
<!-- Node15 -->
<g id="node15" class="node">
<title>Node15</title>
<g id="a_node15"><a xlink:href="test__cmp__icu_8c_a99545cc4ea3f1aa22be006d201e43f6d.html#a99545cc4ea3f1aa22be006d201e43f6d" target="_top" xlink:title=" ">
<polygon fill="white" stroke="black" points="195,-1026.5 195,-1045.5 353,-1045.5 353,-1026.5 195,-1026.5"/>
<text text-anchor="middle" x="274" y="-1033.5" font-family="Helvetica,sans-Serif" font-size="10.00">test_compress_imagette_diff</text>
</a>
</g>
</g>
<!-- Node4&#45;&gt;Node15 -->
<g id="edge14" class="edge">
<title>Node4&#45;&gt;Node15</title>
<path fill="none" stroke="midnightblue" d="M465.07,-776.82C460.42,-825.77 441.31,-953.07 366,-1017 361.57,-1020.76 356.59,-1023.84 351.29,-1026.35"/>
<polygon fill="midnightblue" stroke="midnightblue" points="468.58,-776.89 465.93,-766.63 461.6,-776.3 468.58,-776.89"/>
</g>
<!-- Node16 -->
<g id="node16" class="node">
<title>Node16</title>
<g id="a_node16"><a xlink:href="test__cmp__icu_8c_a960bb1de38c5e353aa1d1d2fb25435e8.html#a960bb1de38c5e353aa1d1d2fb25435e8" target="_top" xlink:title=" ">
<polygon fill="white" stroke="black" points="205.5,-977 205.5,-1007 342.5,-1007 342.5,-977 205.5,-977"/>
<text text-anchor="start" x="213.5" y="-995" font-family="Helvetica,sans-Serif" font-size="10.00">test_compress_imagette</text>
<text text-anchor="middle" x="274" y="-984" font-family="Helvetica,sans-Serif" font-size="10.00">_error_cases</text>
</a>
</g>
</g>
<!-- Node4&#45;&gt;Node16 -->
<g id="edge15" class="edge">
<title>Node4&#45;&gt;Node16</title>
<path fill="none" stroke="midnightblue" d="M462.87,-776.78C454.11,-818.69 427.81,-916.77 366,-968 359.21,-973.63 351.23,-977.95 342.87,-981.27"/>
<polygon fill="midnightblue" stroke="midnightblue" points="466.34,-777.24 464.85,-766.75 459.48,-775.88 466.34,-777.24"/>
</g>
<!-- Node17 -->
<g id="node17" class="node">
<title>Node17</title>
<g id="a_node17"><a xlink:href="test__cmp__icu_8c_a7c1162f048c55a098b4e6c1d9a0a884e.html#a7c1162f048c55a098b4e6c1d9a0a884e" target="_top" xlink:title=" ">
<polygon fill="white" stroke="black" points="205.5,-928 205.5,-958 342.5,-958 342.5,-928 205.5,-928"/>
<text text-anchor="start" x="213.5" y="-946" font-family="Helvetica,sans-Serif" font-size="10.00">test_compress_imagette</text>
<text text-anchor="middle" x="274" y="-935" font-family="Helvetica,sans-Serif" font-size="10.00">_model</text>
</a>
</g>
</g>
<!-- Node4&#45;&gt;Node17 -->
<g id="edge16" class="edge">
<title>Node4&#45;&gt;Node17</title>
<path fill="none" stroke="midnightblue" d="M459.81,-776.4C447.08,-810.4 416.07,-880.69 366,-918 359.04,-923.19 351.06,-927.3 342.78,-930.56"/>
<polygon fill="midnightblue" stroke="midnightblue" points="463.2,-777.32 463.31,-766.72 456.62,-774.94 463.2,-777.32"/>
</g>
<!-- Node18 -->
<g id="node18" class="node">
<title>Node18</title>
<g id="a_node18"><a xlink:href="test__cmp__icu_8c_a390abe2bb7591a75050558bdd4476593.html#a390abe2bb7591a75050558bdd4476593" target="_top" xlink:title=" ">
<polygon fill="white" stroke="black" points="193.5,-889.5 193.5,-908.5 354.5,-908.5 354.5,-889.5 193.5,-889.5"/>
<text text-anchor="middle" x="274" y="-896.5" font-family="Helvetica,sans-Serif" font-size="10.00">test_compress_imagette_raw</text>
</a>
</g>
</g>
<!-- Node4&#45;&gt;Node18 -->
<g id="edge17" class="edge">
<title>Node4&#45;&gt;Node18</title>
<path fill="none" stroke="midnightblue" d="M456.84,-775.5C441.48,-802.95 408.82,-853.99 366,-880 359.65,-883.85 352.65,-886.94 345.43,-889.4"/>
<polygon fill="midnightblue" stroke="midnightblue" points="460,-777.01 461.7,-766.55 453.85,-773.67 460,-777.01"/>
</g>
<!-- Node19 -->
<g id="node19" class="node">
<title>Node19</title>
<g id="a_node19"><a xlink:href="test__cmp__icu_8c_a3c859fa9247c65ae7a43e2bd682448e2.html#a3c859fa9247c65ae7a43e2bd682448e2" target="_top" xlink:title=" ">
<polygon fill="white" stroke="black" points="205.5,-840 205.5,-870 342.5,-870 342.5,-840 205.5,-840"/>
<text text-anchor="start" x="213.5" y="-858" font-family="Helvetica,sans-Serif" font-size="10.00">test_compress_imagette</text>
<text text-anchor="middle" x="274" y="-847" font-family="Helvetica,sans-Serif" font-size="10.00">_stuff</text>
</a>
</g>
</g>
<!-- Node4&#45;&gt;Node19 -->
<g id="edge18" class="edge">
<title>Node4&#45;&gt;Node19</title>
<path fill="none" stroke="midnightblue" d="M448.62,-773.47C429.51,-790.23 397.67,-815.85 366,-831 358.63,-834.53 350.67,-837.59 342.63,-840.24"/>
<polygon fill="midnightblue" stroke="midnightblue" points="451.1,-775.95 456.22,-766.67 446.43,-770.73 451.1,-775.95"/>
</g>
<!-- Node20 -->
<g id="node20" class="node">
<title>Node20</title>
<g id="a_node20"><a xlink:href="test__cmp__icu_8c_a4d05bd6cb0b420d45886997161470259.html#a4d05bd6cb0b420d45886997161470259" target="_top" xlink:title=" ">
<polygon fill="white" stroke="black" points="218.5,-791 218.5,-821 329.5,-821 329.5,-791 218.5,-791"/>
<text text-anchor="start" x="226.5" y="-809" font-family="Helvetica,sans-Serif" font-size="10.00">test_compress_l_fx</text>
<text text-anchor="middle" x="274" y="-798" font-family="Helvetica,sans-Serif" font-size="10.00">_efx_error_cases</text>
</a>
</g>
</g>
<!-- Node4&#45;&gt;Node20 -->
<g id="edge19" class="edge">
<title>Node4&#45;&gt;Node20</title>
<path fill="none" stroke="midnightblue" d="M419.11,-769.13C392.01,-776.06 357.91,-784.78 329.69,-792.01"/>
<polygon fill="midnightblue" stroke="midnightblue" points="420.3,-772.43 429.12,-766.56 418.57,-765.65 420.3,-772.43"/>
</g>
<!-- Node21 -->
<g id="node21" class="node">
<title>Node21</title>
<g id="a_node21"><a xlink:href="test__cmp__icu_8c_a0d3532f9e6f2e6e0c4392049e06c627f.html#a0d3532f9e6f2e6e0c4392049e06c627f" target="_top" xlink:title=" ">
<polygon fill="white" stroke="black" points="196,-742 196,-772 352,-772 352,-742 196,-742"/>
<text text-anchor="start" x="204" y="-760" font-family="Helvetica,sans-Serif" font-size="10.00">test_compress_l_fx</text>
<text text-anchor="middle" x="274" y="-749" font-family="Helvetica,sans-Serif" font-size="10.00">_efx_ncob_ecob_error_cases</text>
</a>
</g>
</g>
<!-- Node4&#45;&gt;Node21 -->
<g id="edge20" class="edge">
<title>Node4&#45;&gt;Node21</title>
<path fill="none" stroke="midnightblue" d="M402.08,-757C386.07,-757 368.75,-757 352.2,-757"/>
<polygon fill="midnightblue" stroke="midnightblue" points="402.39,-760.5 412.39,-757 402.39,-753.5 402.39,-760.5"/>
</g>
<!-- Node22 -->
<g id="node22" class="node">
<title>Node22</title>
<g id="a_node22"><a xlink:href="test__cmp__icu_8c_a13a2a26bd2eac1bd622925c6dcfbfb2d.html#a13a2a26bd2eac1bd622925c6dcfbfb2d" target="_top" xlink:title=" ">
<polygon fill="white" stroke="black" points="218.5,-693 218.5,-723 329.5,-723 329.5,-693 218.5,-693"/>
<text text-anchor="start" x="226.5" y="-711" font-family="Helvetica,sans-Serif" font-size="10.00">test_compress_l_fx</text>
<text text-anchor="middle" x="274" y="-700" font-family="Helvetica,sans-Serif" font-size="10.00">_error_cases</text>
</a>
</g>
</g>
<!-- Node4&#45;&gt;Node22 -->
<g id="edge21" class="edge">
<title>Node4&#45;&gt;Node22</title>
<path fill="none" stroke="midnightblue" d="M419.11,-744.87C392.01,-737.94 357.91,-729.22 329.69,-721.99"/>
<polygon fill="midnightblue" stroke="midnightblue" points="418.57,-748.35 429.12,-747.44 420.3,-741.57 418.57,-748.35"/>
</g>
<!-- Node23 -->
<g id="node23" class="node">
<title>Node23</title>
<g id="a_node23"><a xlink:href="test__cmp__icu_8c_ab725960063dc032566560118d582b79e.html#ab725960063dc032566560118d582b79e" target="_top" xlink:title=" ">
<polygon fill="white" stroke="black" points="218.5,-644 218.5,-674 329.5,-674 329.5,-644 218.5,-644"/>
<text text-anchor="start" x="226.5" y="-662" font-family="Helvetica,sans-Serif" font-size="10.00">test_compress_l_fx</text>
<text text-anchor="middle" x="274" y="-651" font-family="Helvetica,sans-Serif" font-size="10.00">_ncob_error_cases</text>
</a>
</g>
</g>
<!-- Node4&#45;&gt;Node23 -->
<g id="edge22" class="edge">
<title>Node4&#45;&gt;Node23</title>
<path fill="none" stroke="midnightblue" d="M448.23,-740.56C429.03,-724.09 397.32,-699.06 366,-684 354.63,-678.53 341.87,-674.09 329.58,-670.56"/>
<polygon fill="midnightblue" stroke="midnightblue" points="446.06,-743.31 455.89,-747.26 450.67,-738.04 446.06,-743.31"/>
</g>
<!-- Node24 -->
<g id="node24" class="node">
<title>Node24</title>
<g id="a_node24"><a xlink:href="test__cmp__icu_8c_a13bf5ba0481601697942a0a485f7631c.html#a13bf5ba0481601697942a0a485f7631c" target="_top" xlink:title=" ">
<polygon fill="white" stroke="black" points="213.5,-595 213.5,-625 334.5,-625 334.5,-595 213.5,-595"/>
<text text-anchor="start" x="221.5" y="-613" font-family="Helvetica,sans-Serif" font-size="10.00">test_compress_offset</text>
<text text-anchor="middle" x="274" y="-602" font-family="Helvetica,sans-Serif" font-size="10.00">_error_cases</text>
</a>
</g>
</g>
<!-- Node4&#45;&gt;Node24 -->
<g id="edge23" class="edge">
<title>Node4&#45;&gt;Node24</title>
<path fill="none" stroke="midnightblue" d="M456.36,-738.59C440.59,-711.7 407.64,-661.98 366,-635 356.51,-628.85 345.53,-624.2 334.54,-620.69"/>
<polygon fill="midnightblue" stroke="midnightblue" points="453.38,-740.42 461.37,-747.37 459.45,-736.95 453.38,-740.42"/>
</g>
<!-- Node25 -->
<g id="node25" class="node">
<title>Node25</title>
<g id="a_node25"><a xlink:href="test__cmp__icu_8c_a28f0f3239f94a5d75189300dd3ed35fc.html#a28f0f3239f94a5d75189300dd3ed35fc" target="_top" xlink:title=" ">
<polygon fill="white" stroke="black" points="217.5,-546 217.5,-576 330.5,-576 330.5,-546 217.5,-546"/>
<text text-anchor="start" x="225.5" y="-564" font-family="Helvetica,sans-Serif" font-size="10.00">test_compress_s_fx</text>
<text text-anchor="middle" x="274" y="-553" font-family="Helvetica,sans-Serif" font-size="10.00">_efx_error_cases</text>
</a>
</g>
</g>
<!-- Node4&#45;&gt;Node25 -->
<g id="edge24" class="edge">
<title>Node4&#45;&gt;Node25</title>
<path fill="none" stroke="midnightblue" d="M460.49,-737.39C448.53,-701.67 418.27,-626.05 366,-586 355.73,-578.13 343.13,-572.73 330.62,-569.04"/>
<polygon fill="midnightblue" stroke="midnightblue" points="457.22,-738.66 463.62,-747.1 463.89,-736.51 457.22,-738.66"/>
</g>
<!-- Node26 -->
<g id="node26" class="node">
<title>Node26</title>
<g id="a_node26"><a xlink:href="test__cmp__icu_8c_a90fd6057131bbf0c9b398c9c99bea3f2.html#a90fd6057131bbf0c9b398c9c99bea3f2" target="_top" xlink:title=" ">
<polygon fill="white" stroke="black" points="196,-497 196,-527 352,-527 352,-497 196,-497"/>
<text text-anchor="start" x="204" y="-515" font-family="Helvetica,sans-Serif" font-size="10.00">test_compress_s_fx</text>
<text text-anchor="middle" x="274" y="-504" font-family="Helvetica,sans-Serif" font-size="10.00">_efx_ncob_ecob_error_cases</text>
</a>
</g>
</g>
<!-- Node4&#45;&gt;Node26 -->
<g id="edge25" class="edge">
<title>Node4&#45;&gt;Node26</title>
<path fill="none" stroke="midnightblue" d="M463.26,-737.32C455.12,-694.26 429.69,-591.22 366,-537 361.51,-533.18 356.48,-529.93 351.16,-527.19"/>
<polygon fill="midnightblue" stroke="midnightblue" points="459.85,-738.12 465.04,-747.35 466.74,-736.89 459.85,-738.12"/>
</g>
<!-- Node27 -->
<g id="node27" class="node">
<title>Node27</title>
<g id="a_node27"><a xlink:href="test__cmp__icu_8c_aa29971f14aa8c01058cf5884ccfb0b46.html#aa29971f14aa8c01058cf5884ccfb0b46" target="_top" xlink:title=" ">
<polygon fill="white" stroke="black" points="217.5,-448 217.5,-478 330.5,-478 330.5,-448 217.5,-448"/>
<text text-anchor="start" x="225.5" y="-466" font-family="Helvetica,sans-Serif" font-size="10.00">test_compress_s_fx</text>
<text text-anchor="middle" x="274" y="-455" font-family="Helvetica,sans-Serif" font-size="10.00">_error_cases</text>
</a>
</g>
</g>
<!-- Node4&#45;&gt;Node27 -->
<g id="edge26" class="edge">
<title>Node4&#45;&gt;Node27</title>
<path fill="none" stroke="midnightblue" d="M459.57,-737.74C437.64,-676.88 370.91,-492.49 366,-488 356.21,-479.04 343.5,-473.25 330.7,-469.52"/>
<polygon fill="midnightblue" stroke="midnightblue" points="456.33,-739.07 463.01,-747.3 462.92,-736.7 456.33,-739.07"/>
</g>
<!-- Node28 -->
<g id="node28" class="node">
<title>Node28</title>
<g id="a_node28"><a xlink:href="test__cmp__icu_8c_afa54c8348f46913b7c39517424f7e547.html#afa54c8348f46913b7c39517424f7e547" target="_top" xlink:title=" ">
<polygon fill="white" stroke="black" points="217.5,-399 217.5,-429 330.5,-429 330.5,-399 217.5,-399"/>
<text text-anchor="start" x="225.5" y="-417" font-family="Helvetica,sans-Serif" font-size="10.00">test_compress_s_fx</text>
<text text-anchor="middle" x="274" y="-406" font-family="Helvetica,sans-Serif" font-size="10.00">_model_multi</text>
</a>
</g>
</g>
<!-- Node4&#45;&gt;Node28 -->
<g id="edge27" class="edge">
<title>Node4&#45;&gt;Node28</title>
<path fill="none" stroke="midnightblue" d="M458.96,-737.56C446.31,-704.62 420.4,-635.56 402,-576 383.42,-515.85 410.27,-483.76 366,-439 356.55,-429.45 343.82,-423.45 330.88,-419.71"/>
<polygon fill="midnightblue" stroke="midnightblue" points="455.84,-739.22 462.71,-747.29 462.37,-736.7 455.84,-739.22"/>
</g>
<!-- Node29 -->
<g id="node29" class="node">
<title>Node29</title>
<g id="a_node29"><a xlink:href="test__cmp__icu_8c_a70a6d23f621dd0ce0ffb110b9c77116f.html#a70a6d23f621dd0ce0ffb110b9c77116f" target="_top" xlink:title=" ">
<polygon fill="white" stroke="black" points="217.5,-350 217.5,-380 330.5,-380 330.5,-350 217.5,-350"/>
<text text-anchor="start" x="225.5" y="-368" font-family="Helvetica,sans-Serif" font-size="10.00">test_compress_s_fx</text>
<text text-anchor="middle" x="274" y="-357" font-family="Helvetica,sans-Serif" font-size="10.00">_ncob_error_cases</text>
</a>
</g>
</g>
<!-- Node4&#45;&gt;Node29 -->
<g id="edge28" class="edge">
<title>Node4&#45;&gt;Node29</title>
<path fill="none" stroke="midnightblue" d="M458.53,-737.69C445.24,-704.93 418.43,-636.14 402,-576 379.8,-494.78 423.21,-451.78 366,-390 356.76,-380.02 343.95,-373.89 330.85,-370.15"/>
<polygon fill="midnightblue" stroke="midnightblue" points="455.45,-739.42 462.48,-747.36 461.93,-736.77 455.45,-739.42"/>
</g>
<!-- Node30 -->
<g id="node30" class="node">
<title>Node30</title>
<g id="a_node30"><a xlink:href="test__cmp__icu_8c_ab9f5f00613d43e2b46aa130d472674cb.html#ab9f5f00613d43e2b46aa130d472674cb" target="_top" xlink:title=" ">
<polygon fill="white" stroke="black" points="205.5,-311.5 205.5,-330.5 342.5,-330.5 342.5,-311.5 205.5,-311.5"/>
<text text-anchor="middle" x="274" y="-318.5" font-family="Helvetica,sans-Serif" font-size="10.00">test_compress_s_fx_raw</text>
</a>
</g>
</g>
<!-- Node4&#45;&gt;Node30 -->
<g id="edge29" class="edge">
<title>Node4&#45;&gt;Node30</title>
<path fill="none" stroke="midnightblue" d="M458.27,-737.76C444.61,-705.09 417.25,-636.45 402,-576 389.07,-524.77 402.14,-379.54 366,-341 359.58,-334.16 351.4,-329.39 342.59,-326.1"/>
<polygon fill="midnightblue" stroke="midnightblue" points="455.22,-739.54 462.34,-747.39 461.67,-736.82 455.22,-739.54"/>
</g>
<!-- Node31 -->
<g id="node31" class="node">
<title>Node31</title>
<g id="a_node31"><a xlink:href="test__cmp__icu_8c_ad8cefbf7c0531178a3c5d00ed71cfe61.html#ad8cefbf7c0531178a3c5d00ed71cfe61" target="_top" xlink:title=" ">
<polygon fill="white" stroke="black" points="217.5,-262 217.5,-292 330.5,-292 330.5,-262 217.5,-262"/>
<text text-anchor="start" x="225.5" y="-280" font-family="Helvetica,sans-Serif" font-size="10.00">test_compress_s_fx</text>
<text text-anchor="middle" x="274" y="-269" font-family="Helvetica,sans-Serif" font-size="10.00">_staff</text>
</a>
</g>
</g>
<!-- Node4&#45;&gt;Node31 -->
<g id="edge30" class="edge">
<title>Node4&#45;&gt;Node31</title>
<path fill="none" stroke="midnightblue" d="M458.31,-738.22C444.5,-705.78 416.67,-636.87 402,-576 387.61,-516.3 406.34,-348.3 366,-302 356.96,-291.62 344.05,-285.36 330.79,-281.64"/>
<polygon fill="midnightblue" stroke="midnightblue" points="455.09,-739.61 462.26,-747.41 461.53,-736.84 455.09,-739.61"/>
</g>
<!-- Node32 -->
<g id="node32" class="node">
<title>Node32</title>
<g id="a_node32"><a xlink:href="test__cmp__icu_8c_aee4858f3ea226c6da9e4a9ed54475b1d.html#aee4858f3ea226c6da9e4a9ed54475b1d" target="_top" xlink:title=" ">
<polygon fill="white" stroke="black" points="204.5,-213 204.5,-243 343.5,-243 343.5,-213 204.5,-213"/>
<text text-anchor="start" x="212.5" y="-231" font-family="Helvetica,sans-Serif" font-size="10.00">test_compress_smearing</text>
<text text-anchor="middle" x="274" y="-220" font-family="Helvetica,sans-Serif" font-size="10.00">_error_cases</text>
</a>
</g>
</g>
<!-- Node4&#45;&gt;Node32 -->
<g id="edge31" class="edge">
<title>Node4&#45;&gt;Node32</title>
<path fill="none" stroke="midnightblue" d="M458.18,-738.25C444.18,-705.85 416.07,-637.01 402,-576 385.77,-505.63 412.9,-307.92 366,-253 360.04,-246.02 352.34,-240.9 343.93,-237.16"/>
<polygon fill="midnightblue" stroke="midnightblue" points="454.98,-739.67 462.19,-747.43 461.39,-736.86 454.98,-739.67"/>
</g>
<!-- Node33 -->
<g id="node33" class="node">
<title>Node33</title>
<g id="a_node33"><a xlink:href="test__cmp__icu_8c_a8db99614e8a5d384edb82fe466e15042.html#a8db99614e8a5d384edb82fe466e15042" target="_top" xlink:title=" ">
<polygon fill="white" stroke="black" points="207,-164 207,-194 341,-194 341,-164 207,-164"/>
<text text-anchor="start" x="215" y="-182" font-family="Helvetica,sans-Serif" font-size="10.00">test_icu_compress_data</text>
<text text-anchor="middle" x="274" y="-171" font-family="Helvetica,sans-Serif" font-size="10.00">_error_cases</text>
</a>
</g>
</g>
<!-- Node4&#45;&gt;Node33 -->
<g id="edge32" class="edge">
<title>Node4&#45;&gt;Node33</title>
<path fill="none" stroke="midnightblue" d="M458.08,-738.27C443.94,-705.9 415.63,-637.11 402,-576 383.92,-494.94 419.48,-267.54 366,-204 359.46,-196.23 350.75,-190.75 341.3,-186.92"/>
<polygon fill="midnightblue" stroke="midnightblue" points="454.89,-739.71 462.14,-747.44 461.3,-736.88 454.89,-739.71"/>
</g>
<!-- Node34 -->
<g id="node34" class="node">
<title>Node34</title>
<g id="a_node34"><a xlink:href="test__cmp__decmp_8c_abb20ed18a3c6ba0fc67ecef2d629dec0.html#abb20ed18a3c6ba0fc67ecef2d629dec0" target="_top" xlink:title=" ">
<polygon fill="white" stroke="black" points="201,-115 201,-145 347,-145 347,-115 201,-115"/>
<text text-anchor="start" x="209" y="-133" font-family="Helvetica,sans-Serif" font-size="10.00">test_random_compression</text>
<text text-anchor="middle" x="274" y="-122" font-family="Helvetica,sans-Serif" font-size="10.00">_decompression2</text>
</a>
</g>
</g>
<!-- Node4&#45;&gt;Node34 -->
<g id="edge33" class="edge">
<title>Node4&#45;&gt;Node34</title>
<path fill="none" stroke="midnightblue" d="M458.01,-738.28C443.76,-705.94 415.29,-637.19 402,-576 382.08,-484.24 426.06,-227.18 366,-155 360.87,-148.83 354.36,-144.1 347.2,-140.5"/>
<polygon fill="midnightblue" stroke="midnightblue" points="454.83,-739.74 462.1,-747.45 461.22,-736.89 454.83,-739.74"/>
</g>
<!-- Node6 -->
<g id="node6" class="node">
<title>Node6</title>
<g id="a_node6"><a xlink:href="test__cmp__decmp_8c_af3c162694b40683e0aa25c61a49cdafc.html#af3c162694b40683e0aa25c61a49cdafc" target="_top" xlink:title="random compression decompression test">
<polygon fill="white" stroke="black" points="0,-1385 0,-1415 146,-1415 146,-1385 0,-1385"/>
<text text-anchor="start" x="8" y="-1403" font-family="Helvetica,sans-Serif" font-size="10.00">test_random_compression</text>
<text text-anchor="middle" x="73" y="-1392" font-family="Helvetica,sans-Serif" font-size="10.00">_decompression</text>
</a>
</g>
</g>
<!-- Node5&#45;&gt;Node6 -->
<g id="edge5" class="edge">
<title>Node5&#45;&gt;Node6</title>
<path fill="none" stroke="midnightblue" d="M184.63,-1399.44C171.72,-1399.51 158.55,-1399.58 146.01,-1399.64"/>
<polygon fill="midnightblue" stroke="midnightblue" points="184.94,-1402.94 194.92,-1399.39 184.9,-1395.94 184.94,-1402.94"/>
</g>
<!-- Node8 -->
<g id="node8" class="node">
<title>Node8</title>
<g id="a_node8"><a xlink:href="test__decmp_8c_a1a33e2fcbf484c79dfe661b280386f6b.html#a1a33e2fcbf484c79dfe661b280386f6b" target="_top" xlink:title=" ">
<polygon fill="white" stroke="black" points="0,-1346.5 0,-1365.5 146,-1365.5 146,-1346.5 0,-1346.5"/>
<text text-anchor="middle" x="73" y="-1353.5" font-family="Helvetica,sans-Serif" font-size="10.00">test_cmp_decmp_s_fx_diff</text>
</a>
</g>
</g>
<!-- Node7&#45;&gt;Node8 -->
<g id="edge7" class="edge">
<title>Node7&#45;&gt;Node8</title>
<path fill="none" stroke="midnightblue" d="M191.7,-1357.18C176.67,-1357.03 161.06,-1356.87 146.32,-1356.73"/>
<polygon fill="midnightblue" stroke="midnightblue" points="191.96,-1360.69 202,-1357.29 192.03,-1353.69 191.96,-1360.69"/>
</g>
<!-- Node37 -->
<g id="node37" class="node">
<title>Node37</title>
<g id="a_node37"><a xlink:href="test__cmp__rdcu__cfg_8c_a732e9931c6386e694ef773a06918dec5.html#a732e9931c6386e694ef773a06918dec5" target="_top" xlink:title=" ">
<polygon fill="white" stroke="black" points="407,-487 407,-517 528,-517 528,-487 407,-487"/>
<text text-anchor="start" x="415" y="-505" font-family="Helvetica,sans-Serif" font-size="10.00">test_rdcu_cfg_buffers</text>
<text text-anchor="middle" x="467.5" y="-494" font-family="Helvetica,sans-Serif" font-size="10.00">_model</text>
</a>
</g>
</g>
<!-- Node36&#45;&gt;Node37 -->
<g id="edge36" class="edge">
<title>Node36&#45;&gt;Node37</title>
<path fill="none" stroke="midnightblue" d="M615.45,-424.87C595.28,-439.95 563.21,-462.53 533,-478 526.73,-481.21 519.92,-484.22 513.15,-486.94"/>
<polygon fill="midnightblue" stroke="midnightblue" points="617.72,-427.55 623.59,-418.72 613.5,-421.96 617.72,-427.55"/>
</g>
<!-- Node38 -->
<g id="node38" class="node">
<title>Node38</title>
<g id="a_node38"><a xlink:href="test__cmp__rdcu__cfg_8c_a61454153a1f806bb3d720d2aea96e830.html#a61454153a1f806bb3d720d2aea96e830" target="_top" xlink:title=" ">
<polygon fill="white" stroke="black" points="407,-438 407,-468 528,-468 528,-438 407,-438"/>
<text text-anchor="start" x="415" y="-456" font-family="Helvetica,sans-Serif" font-size="10.00">test_rdcu_cfg_buffers</text>
<text text-anchor="middle" x="467.5" y="-445" font-family="Helvetica,sans-Serif" font-size="10.00">_raw_diff</text>
</a>
</g>
</g>
<!-- Node36&#45;&gt;Node38 -->
<g id="edge37" class="edge">
<title>Node36&#45;&gt;Node38</title>
<path fill="none" stroke="midnightblue" d="M589.95,-421.1C570.14,-426.3 546.77,-432.44 525.85,-437.93"/>
<polygon fill="midnightblue" stroke="midnightblue" points="590.87,-424.47 599.65,-418.55 589.09,-417.7 590.87,-424.47"/>
</g>
<!-- Node39 -->
<g id="node39" class="node">
<title>Node39</title>
<g id="a_node39"><a xlink:href="test__cmp__rdcu__cfg_8c_ab766d304411b056b071b8e63ca0f4107.html#ab766d304411b056b071b8e63ca0f4107" target="_top" xlink:title=" ">
<polygon fill="white" stroke="black" points="408.5,-399.5 408.5,-418.5 526.5,-418.5 526.5,-399.5 408.5,-399.5"/>
<text text-anchor="middle" x="467.5" y="-406.5" font-family="Helvetica,sans-Serif" font-size="10.00">test_rdcu_cfg_create</text>
</a>
</g>
</g>
<!-- Node36&#45;&gt;Node39 -->
<g id="edge38" class="edge">
<title>Node36&#45;&gt;Node39</title>
<path fill="none" stroke="midnightblue" d="M579.42,-409C562.39,-409 543.67,-409 526.53,-409"/>
<polygon fill="midnightblue" stroke="midnightblue" points="579.79,-412.5 589.79,-409 579.79,-405.5 579.79,-412.5"/>
</g>
<!-- Node40 -->
<g id="node40" class="node">
<title>Node40</title>
<g id="a_node40"><a xlink:href="test__cmp__rdcu__cfg_8c_ae2027cf76bad86910d26fba813c409f4.html#ae2027cf76bad86910d26fba813c409f4" target="_top" xlink:title=" ">
<polygon fill="white" stroke="black" points="402,-361.5 402,-380.5 533,-380.5 533,-361.5 402,-361.5"/>
<text text-anchor="middle" x="467.5" y="-368.5" font-family="Helvetica,sans-Serif" font-size="10.00">test_rdcu_cfg_imagette</text>
</a>
</g>
</g>
<!-- Node36&#45;&gt;Node40 -->
<g id="edge39" class="edge">
<title>Node36&#45;&gt;Node40</title>
<path fill="none" stroke="midnightblue" d="M583.88,-397.18C560.27,-391.82 532.72,-385.57 510.46,-380.52"/>
<polygon fill="midnightblue" stroke="midnightblue" points="583.21,-400.61 593.73,-399.41 584.75,-393.79 583.21,-400.61"/>
</g>
<!-- Node41 -->
<g id="node41" class="node">
<title>Node41</title>
<g id="a_node41"><a xlink:href="test__cmp__rdcu__cfg_8c_a297e230b1b9302e79c4301a53e35e0ba.html#a297e230b1b9302e79c4301a53e35e0ba" target="_top" xlink:title=" ">
<polygon fill="white" stroke="black" points="402,-312 402,-342 533,-342 533,-312 402,-312"/>
<text text-anchor="start" x="410" y="-330" font-family="Helvetica,sans-Serif" font-size="10.00">test_rdcu_cfg_imagette</text>
<text text-anchor="middle" x="467.5" y="-319" font-family="Helvetica,sans-Serif" font-size="10.00">_default</text>
</a>
</g>
</g>
<!-- Node36&#45;&gt;Node41 -->
<g id="edge40" class="edge">
<title>Node36&#45;&gt;Node41</title>
<path fill="none" stroke="midnightblue" d="M611.58,-394.25C591.01,-382.13 560.61,-364.92 533,-352 525.6,-348.54 517.58,-345.15 509.8,-342.05"/>
<polygon fill="midnightblue" stroke="midnightblue" points="609.91,-397.33 620.29,-399.43 613.48,-391.31 609.91,-397.33"/>
</g>
<!-- Node42 -->
<g id="node42" class="node">
<title>Node42</title>
<g id="a_node42"><a xlink:href="test__cmp__rdcu__cfg_8c_a5b00301d60061900aa1c1976e587aa30.html#a5b00301d60061900aa1c1976e587aa30" target="_top" xlink:title=" ">
<polygon fill="white" stroke="black" points="406.5,-263 406.5,-293 528.5,-293 528.5,-263 406.5,-263"/>
<text text-anchor="start" x="414.5" y="-281" font-family="Helvetica,sans-Serif" font-size="10.00">test_rdcu_cmp_cfg_is</text>
<text text-anchor="middle" x="467.5" y="-270" font-family="Helvetica,sans-Serif" font-size="10.00">_invalid</text>
</a>
</g>
</g>
<!-- Node36&#45;&gt;Node42 -->
<g id="edge41" class="edge">
<title>Node36&#45;&gt;Node42</title>
<path fill="none" stroke="midnightblue" d="M622.77,-391.24C604.75,-368.13 570.4,-327.76 533,-303 527.39,-299.29 521.15,-296 514.82,-293.14"/>
<polygon fill="midnightblue" stroke="midnightblue" points="620.2,-393.64 629.06,-399.46 625.76,-389.39 620.2,-393.64"/>
</g>
<!-- Node43&#45;&gt;Node42 -->
<g id="edge48" class="edge">
<title>Node43&#45;&gt;Node42</title>
<path fill="none" stroke="midnightblue" d="M558.78,-278C548.67,-278 538.42,-278 528.64,-278"/>
<polygon fill="midnightblue" stroke="midnightblue" points="558.84,-281.5 568.84,-278 558.84,-274.5 558.84,-281.5"/>
</g>
<!-- Node44 -->
<g id="node44" class="node">
<title>Node44</title>
<g id="a_node44"><a xlink:href="cmp__rdcu_8c_a1b450ab652a1da5f914786ce577458f9.html#a1b450ab652a1da5f914786ce577458f9" target="_top" xlink:title="set up RDCU compression register">
<polygon fill="white" stroke="black" points="405,-52 405,-82 530,-82 530,-52 405,-52"/>
<text text-anchor="start" x="413" y="-70" font-family="Helvetica,sans-Serif" font-size="10.00">rdcu_set_compression</text>
<text text-anchor="middle" x="467.5" y="-59" font-family="Helvetica,sans-Serif" font-size="10.00">_register</text>
</a>
</g>
</g>
<!-- Node43&#45;&gt;Node44 -->
<g id="edge43" class="edge">
<title>Node43&#45;&gt;Node44</title>
<path fill="none" stroke="midnightblue" d="M622.07,-260.46C589.85,-219.87 510.63,-120.07 480.45,-82.05"/>
<polygon fill="midnightblue" stroke="midnightblue" points="619.41,-262.73 628.37,-268.39 624.89,-258.38 619.41,-262.73"/>
</g>
<!-- Node45 -->
<g id="node45" class="node">
<title>Node45</title>
<g id="a_node45"><a xlink:href="cmp__rdcu_8h_a85aeb890a333d637dd7ffba03729e93a.html#a85aeb890a333d637dd7ffba03729e93a" target="_top" xlink:title="compressing data with the help of the RDCU hardware compressor">
<polygon fill="white" stroke="black" points="215.5,-76.5 215.5,-95.5 332.5,-95.5 332.5,-76.5 215.5,-76.5"/>
<text text-anchor="middle" x="274" y="-83.5" font-family="Helvetica,sans-Serif" font-size="10.00">rdcu_compress_data</text>
</a>
</g>
</g>
<!-- Node44&#45;&gt;Node45 -->
<g id="edge44" class="edge">
<title>Node44&#45;&gt;Node45</title>
<path fill="none" stroke="midnightblue" d="M394.63,-74.13C374.16,-76.16 352.13,-78.35 332.63,-80.28"/>
<polygon fill="midnightblue" stroke="midnightblue" points="395.25,-77.59 404.85,-73.12 394.56,-70.62 395.25,-77.59"/>
</g>
<!-- Node46 -->
<g id="node46" class="node">
<title>Node46</title>
<g id="a_node46"><a xlink:href="cmp__rdcu_8c_ab69cf44ac326e0cebdef002e8f2ea2cb.html#ab69cf44ac326e0cebdef002e8f2ea2cb" target="_top" xlink:title="compressing data with the help of the RDCU hardware compressor; read data from the last compression b...">
<polygon fill="white" stroke="black" points="14.5,-52 14.5,-82 131.5,-82 131.5,-52 14.5,-52"/>
<text text-anchor="start" x="22.5" y="-70" font-family="Helvetica,sans-Serif" font-size="10.00">rdcu_compress_data</text>
<text text-anchor="middle" x="73" y="-59" font-family="Helvetica,sans-Serif" font-size="10.00">_parallel</text>
</a>
</g>
</g>
<!-- Node44&#45;&gt;Node46 -->
<g id="edge46" class="edge">
<title>Node44&#45;&gt;Node46</title>
<path fill="none" stroke="midnightblue" d="M394.35,-67C318.68,-67 201.26,-67 131.57,-67"/>
<polygon fill="midnightblue" stroke="midnightblue" points="394.74,-70.5 404.74,-67 394.74,-63.5 394.74,-70.5"/>
</g>
<!-- Node47 -->
<g id="node47" class="node">
<title>Node47</title>
<g id="a_node47"><a xlink:href="cmp__rdcu_8c_af59f75c76a057d49a54b54800dc59556.html#af59f75c76a057d49a54b54800dc59556" target="_top" xlink:title="inject a SRAM edac multi bit error into the RDCU SRAM">
<polygon fill="white" stroke="black" points="210.5,-0.5 210.5,-19.5 337.5,-19.5 337.5,-0.5 210.5,-0.5"/>
<text text-anchor="middle" x="274" y="-7.5" font-family="Helvetica,sans-Serif" font-size="10.00">rdcu_inject_edac_error</text>
</a>
</g>
</g>
<!-- Node44&#45;&gt;Node47 -->
<g id="edge47" class="edge">
<title>Node44&#45;&gt;Node47</title>
<path fill="none" stroke="midnightblue" d="M412.94,-48.76C397.82,-43.79 381.31,-38.53 366,-34 348.77,-28.9 329.54,-23.75 313.22,-19.54"/>
<polygon fill="midnightblue" stroke="midnightblue" points="412.06,-52.15 422.65,-51.97 414.26,-45.51 412.06,-52.15"/>
</g>
<!-- Node45&#45;&gt;Node46 -->
<g id="edge45" class="edge">
<title>Node45&#45;&gt;Node46</title>
<path fill="none" stroke="midnightblue" d="M205.38,-79.54C181.46,-77.26 154.8,-74.71 131.77,-72.52"/>
<polygon fill="midnightblue" stroke="midnightblue" points="205.15,-83.04 215.44,-80.5 205.82,-76.07 205.15,-83.04"/>
</g>
</g>
</svg>
        <g id="navigator" transform="translate(0 0)" fill="#404254">
                <rect fill="#f2f5e9" fill-opacity="0.5" stroke="#606060" stroke-width=".5" x="0" y="0" width="60" height="60"/>
                <use id="zoomplus" xlink:href="#zoomPlus" x="17" y="9" onmousedown="handleZoom(evt,'in')"/>
                <use id="zoomminus" xlink:href="#zoomMin" x="42" y="9" onmousedown="handleZoom(evt,'out')"/>
                <use id="reset" xlink:href="#resetDef" x="30" y="36" onmousedown="handleReset()"/>
                <g id="arrowUp" xlink:href="#dirArrow" transform="translate(30 24)" onmousedown="handlePan(0,-1)">
                  <use xlink:href="#rim" fill="#404040">
                        <set attributeName="fill" to="#808080" begin="arrowUp.mouseover" end="arrowUp.mouseout"/>
                  </use>
                  <path fill="none" stroke="white" stroke-width="1.5" d="M0,-3.0v7 M-2.5,-0.5L0,-3.0L2.5,-0.5"/>
                </g>
                <g id="arrowRight" xlink:href="#dirArrow" transform="rotate(90) translate(36 -43)" onmousedown="handlePan(1,0)">
                  <use xlink:href="#rim" fill="#404040">
                        <set attributeName="fill" to="#808080" begin="arrowRight.mouseover" end="arrowRight.mouseout"/>
                  </use>
                  <path fill="none" stroke="white" stroke-width="1.5" d="M0,-3.0v7 M-2.5,-0.5L0,-3.0L2.5,-0.5"/>
                </g>
                <g id="arrowDown" xlink:href="#dirArrow" transform="rotate(180) translate(-30 -48)" onmousedown="handlePan(0,1)">
                  <use xlink:href="#rim" fill="#404040">
                        <set attributeName="fill" to="#808080" begin="arrowDown.mouseover" end="arrowDown.mouseout"/>
                  </use>
                  <path fill="none" stroke="white" stroke-width="1.5" d="M0,-3.0v7 M-2.5,-0.5L0,-3.0L2.5,-0.5"/>
                </g>
                <g id="arrowLeft" xlink:href="#dirArrow" transform="rotate(270) translate(-36 17)" onmousedown="handlePan(-1,0)">
                  <use xlink:href="#rim" fill="#404040">
                        <set attributeName="fill" to="#808080" begin="arrowLeft.mouseover" end="arrowLeft.mouseout"/>
                  </use>
                  <path fill="none" stroke="white" stroke-width="1.5" d="M0,-3.0v7 M-2.5,-0.5L0,-3.0L2.5,-0.5"/>
                </g>
        </g>
        <svg viewBox="0 0 15 15" width="100%" height="30px" preserveAspectRatio="xMaxYMin meet">
         <g id="arrow_out" transform="scale(0.3 0.3)">
          <a xlink:href="cmp__support_8c_ad4e56eab7fecee45319e02049a9a4c6d_ad4e56eab7fecee45319e02049a9a4c6d_icgraph_org.svg" target="_base">
           <rect id="button" ry="5" rx="5" y="6" x="6" height="38" width="38"
                fill="#f2f5e9" fill-opacity="0.5" stroke="#606060" stroke-width="1.0"/>
           <path id="arrow"
             d="M 11.500037,31.436501 C 11.940474,20.09759 22.043105,11.32322 32.158766,21.979434 L 37.068811,17.246167 C 37.068811,17.246167 37.088388,32 37.088388,32 L 22.160133,31.978069 C 22.160133,31.978069 26.997745,27.140456 26.997745,27.140456 C 18.528582,18.264221 13.291696,25.230495 11.500037,31.436501 z"
             style="fill:#404040;"/>
          </a>
         </g>
        </svg>
</svg>
