<?xml version="1.0" encoding="UTF-8" standalone="no"?>
<!DOCTYPE svg PUBLIC "-//W3C//DTD SVG 1.1//EN"
 "http://www.w3.org/Graphics/SVG/1.1/DTD/svg11.dtd">
<!-- Generated by graphviz version 2.43.0 (0)
 -->
<!-- Title: encode_value_multi Pages: 1 -->
<svg width="366pt" height="104pt"
 viewBox="0.00 0.00 366.00 104.00" xmlns="http://www.w3.org/2000/svg" xmlns:xlink="http://www.w3.org/1999/xlink">
<g id="graph0" class="graph" transform="scale(1 1) rotate(0) translate(4 100)">
<title>encode_value_multi</title>
<polygon fill="white" stroke="transparent" points="-4,4 -4,-100 362,-100 362,4 -4,4"/>
<!-- Node1 -->
<g id="node1" class="node">
<title>Node1</title>
<g id="a_node1"><a xlink:title="subtract the model from the data, encode the result and put it into bitstream, for encoding outlier u...">
<polygon fill="#bfbfbf" stroke="black" points="0,-38.5 0,-57.5 115,-57.5 115,-38.5 0,-38.5"/>
<text text-anchor="middle" x="57.5" y="-45.5" font-family="Helvetica,sans-Serif" font-size="10.00">encode_value_multi</text>
</a>
</g>
</g>
<!-- Node2 -->
<g id="node2" class="node">
<title>Node2</title>
<g id="a_node2"><a xlink:href="cmp__icu_8c_a71aaf149c528b68d0c0ffc159acc0f98.html#a71aaf149c528b68d0c0ffc159acc0f98" target="_top" xlink:title="generate a code word without an outlier mechanism and put in the bitstream">
<polygon fill="white" stroke="black" points="151,-76.5 151,-95.5 243,-95.5 243,-76.5 151,-76.5"/>
<text text-anchor="middle" x="197" y="-83.5" font-family="Helvetica,sans-Serif" font-size="10.00">encode_normal</text>
</a>
</g>
</g>
<!-- Node1&#45;&gt;Node2 -->
<g id="edge1" class="edge">
<title>Node1&#45;&gt;Node2</title>
<path fill="none" stroke="midnightblue" d="M93.2,-57.59C110.87,-62.47 132.55,-68.46 151.44,-73.68"/>
<polygon fill="midnightblue" stroke="midnightblue" points="150.74,-77.12 161.31,-76.41 152.61,-70.38 150.74,-77.12"/>
</g>
<!-- Node3 -->
<g id="node3" class="node">
<title>Node3</title>
<g id="a_node3"><a xlink:href="cmp__icu_8c_afd32ccddf2e0986e9ff136ae55a11d35.html#afd32ccddf2e0986e9ff136ae55a11d35" target="_top" xlink:title="put the value of up to 32 bits into a big endian bitstream">
<polygon fill="white" stroke="black" points="279,-57.5 279,-76.5 358,-76.5 358,-57.5 279,-57.5"/>
<text text-anchor="middle" x="318.5" y="-64.5" font-family="Helvetica,sans-Serif" font-size="10.00">put_n_bits32</text>
</a>
</g>
</g>
<!-- Node1&#45;&gt;Node3 -->
<g id="edge4" class="edge">
<title>Node1&#45;&gt;Node3</title>
<path fill="none" stroke="midnightblue" d="M115.02,-52.15C160.9,-55.51 224.94,-60.21 268.64,-63.42"/>
<polygon fill="midnightblue" stroke="midnightblue" points="268.5,-66.92 278.73,-64.16 269.02,-59.93 268.5,-66.92"/>
</g>
<!-- Node4 -->
<g id="node4" class="node">
<title>Node4</title>
<g id="a_node4"><a xlink:href="cmp__icu_8c_a208c98e6a4b7423d5003ea0d1c3a4fe3.html#a208c98e6a4b7423d5003ea0d1c3a4fe3" target="_top" xlink:title="map a signed value into a positive value range">
<polygon fill="white" stroke="black" points="159,-0.5 159,-19.5 235,-19.5 235,-0.5 159,-0.5"/>
<text text-anchor="middle" x="197" y="-7.5" font-family="Helvetica,sans-Serif" font-size="10.00">map_to_pos</text>
</a>
</g>
</g>
<!-- Node1&#45;&gt;Node4 -->
<g id="edge3" class="edge">
<title>Node1&#45;&gt;Node4</title>
<path fill="none" stroke="midnightblue" d="M93.2,-38.41C110.87,-33.53 132.55,-27.54 151.44,-22.32"/>
<polygon fill="midnightblue" stroke="midnightblue" points="152.61,-25.62 161.31,-19.59 150.74,-18.88 152.61,-25.62"/>
</g>
<!-- Node2&#45;&gt;Node3 -->
<g id="edge2" class="edge">
<title>Node2&#45;&gt;Node3</title>
<path fill="none" stroke="midnightblue" d="M243.18,-78.82C251.54,-77.49 260.31,-76.09 268.78,-74.75"/>
<polygon fill="midnightblue" stroke="midnightblue" points="269.57,-78.16 278.9,-73.14 268.47,-71.25 269.57,-78.16"/>
</g>
</g>
</svg>
