<?xml version="1.0" encoding="UTF-8" standalone="no"?>
<!DOCTYPE svg PUBLIC "-//W3C//DTD SVG 1.1//EN"
 "http://www.w3.org/Graphics/SVG/1.1/DTD/svg11.dtd">
<!-- Generated by graphviz version 2.43.0 (0)
 -->
<!-- Title: cmp_max_used_bits_list.h Pages: 1 -->
<svg width="478pt" height="263pt"
 viewBox="0.00 0.00 477.50 263.00" xmlns="http://www.w3.org/2000/svg" xmlns:xlink="http://www.w3.org/1999/xlink">
<g id="graph0" class="graph" transform="scale(1 1) rotate(0) translate(4 259)">
<title>cmp_max_used_bits_list.h</title>
<polygon fill="white" stroke="transparent" points="-4,4 -4,-259 473.5,-259 473.5,4 -4,4"/>
<!-- Node1 -->
<g id="node1" class="node">
<title>Node1</title>
<g id="a_node1"><a xlink:title="Implement a list that can hold an arbitrary number of different cmp_max_used_bits structs.">
<polygon fill="#bfbfbf" stroke="black" points="0,-235.5 0,-254.5 146,-254.5 146,-235.5 0,-235.5"/>
<text text-anchor="middle" x="73" y="-242.5" font-family="Helvetica,sans-Serif" font-size="10.00">cmp_max_used_bits_list.h</text>
</a>
</g>
</g>
<!-- Node2 -->
<g id="node2" class="node">
<title>Node2</title>
<g id="a_node2"><a xlink:title=" ">
<polygon fill="white" stroke="#bfbfbf" points="78.5,-0.5 78.5,-19.5 131.5,-19.5 131.5,-0.5 78.5,-0.5"/>
<text text-anchor="middle" x="105" y="-7.5" font-family="Helvetica,sans-Serif" font-size="10.00">stdint.h</text>
</a>
</g>
</g>
<!-- Node1&#45;&gt;Node2 -->
<g id="edge1" class="edge">
<title>Node1&#45;&gt;Node2</title>
<path fill="none" stroke="midnightblue" d="M68.12,-235.37C63.44,-226.55 56.69,-212.3 54,-199 51.27,-185.5 52.37,-181.68 54,-168 60.04,-117.15 62.81,-103.86 81,-56 84.58,-46.59 89.72,-36.65 94.32,-28.52"/>
<polygon fill="midnightblue" stroke="midnightblue" points="97.48,-30.05 99.53,-19.65 91.45,-26.5 97.48,-30.05"/>
</g>
<!-- Node3 -->
<g id="node3" class="node">
<title>Node3</title>
<g id="a_node3"><a xlink:href="cmp__data__types_8h.html" target="_top" xlink:title="definition of the different compression data types">
<polygon fill="white" stroke="black" points="63.5,-168.5 63.5,-198.5 182.5,-198.5 182.5,-168.5 63.5,-168.5"/>
<text text-anchor="start" x="71.5" y="-186.5" font-family="Helvetica,sans-Serif" font-size="10.00">../common/cmp_data</text>
<text text-anchor="middle" x="123" y="-175.5" font-family="Helvetica,sans-Serif" font-size="10.00">_types.h</text>
</a>
</g>
</g>
<!-- Node1&#45;&gt;Node3 -->
<g id="edge2" class="edge">
<title>Node1&#45;&gt;Node3</title>
<path fill="none" stroke="midnightblue" d="M80.16,-235.48C86.56,-227.87 96.19,-216.4 104.71,-206.26"/>
<polygon fill="midnightblue" stroke="midnightblue" points="107.46,-208.43 111.22,-198.52 102.1,-203.93 107.46,-208.43"/>
</g>
<!-- Node3&#45;&gt;Node2 -->
<g id="edge3" class="edge">
<title>Node3&#45;&gt;Node2</title>
<path fill="none" stroke="midnightblue" d="M108.89,-168.46C100.45,-159.03 90.53,-145.84 86,-132 74.42,-96.61 87.57,-53.03 97.04,-29.02"/>
<polygon fill="midnightblue" stroke="midnightblue" points="100.29,-30.31 100.91,-19.73 93.83,-27.62 100.29,-30.31"/>
</g>
<!-- Node4 -->
<g id="node4" class="node">
<title>Node4</title>
<g id="a_node4"><a xlink:href="compiler_8h.html" target="_top" xlink:title="a collection of preprocessor macros">
<polygon fill="white" stroke="black" points="95,-112.5 95,-131.5 163,-131.5 163,-112.5 95,-112.5"/>
<text text-anchor="middle" x="129" y="-119.5" font-family="Helvetica,sans-Serif" font-size="10.00">compiler.h</text>
</a>
</g>
</g>
<!-- Node3&#45;&gt;Node4 -->
<g id="edge4" class="edge">
<title>Node3&#45;&gt;Node4</title>
<path fill="none" stroke="midnightblue" d="M124.42,-168.4C125.22,-160.47 126.23,-150.46 127.1,-141.86"/>
<polygon fill="midnightblue" stroke="midnightblue" points="130.61,-141.96 128.13,-131.66 123.64,-141.26 130.61,-141.96"/>
</g>
<!-- Node5 -->
<g id="node5" class="node">
<title>Node5</title>
<g id="a_node5"><a xlink:href="cmp__support_8h.html" target="_top" xlink:title="compression/decompression helper functions">
<polygon fill="white" stroke="black" points="181.5,-112.5 181.5,-131.5 324.5,-131.5 324.5,-112.5 181.5,-112.5"/>
<text text-anchor="middle" x="253" y="-119.5" font-family="Helvetica,sans-Serif" font-size="10.00">../common/cmp_support.h</text>
</a>
</g>
</g>
<!-- Node3&#45;&gt;Node5 -->
<g id="edge5" class="edge">
<title>Node3&#45;&gt;Node5</title>
<path fill="none" stroke="midnightblue" d="M153.81,-168.4C175.33,-158.55 203.84,-145.5 224.77,-135.92"/>
<polygon fill="midnightblue" stroke="midnightblue" points="226.45,-139 234.08,-131.66 223.53,-132.64 226.45,-139"/>
</g>
<!-- Node5&#45;&gt;Node2 -->
<g id="edge6" class="edge">
<title>Node5&#45;&gt;Node2</title>
<path fill="none" stroke="midnightblue" d="M193.18,-112.42C168.79,-106.08 142.13,-95.09 124,-76 112.24,-63.62 107.71,-44.38 105.99,-30.04"/>
<polygon fill="midnightblue" stroke="midnightblue" points="109.46,-29.48 105.13,-19.81 102.48,-30.07 109.46,-29.48"/>
</g>
<!-- Node6 -->
<g id="node6" class="node">
<title>Node6</title>
<g id="a_node6"><a xlink:title=" ">
<polygon fill="white" stroke="#bfbfbf" points="133,-56.5 133,-75.5 189,-75.5 189,-56.5 133,-56.5"/>
<text text-anchor="middle" x="161" y="-63.5" font-family="Helvetica,sans-Serif" font-size="10.00">stddef.h</text>
</a>
</g>
</g>
<!-- Node5&#45;&gt;Node6 -->
<g id="edge7" class="edge">
<title>Node5&#45;&gt;Node6</title>
<path fill="none" stroke="midnightblue" d="M238.22,-112.32C223.73,-103.82 201.43,-90.73 184.51,-80.8"/>
<polygon fill="midnightblue" stroke="midnightblue" points="186.14,-77.7 175.74,-75.65 182.6,-83.74 186.14,-77.7"/>
</g>
<!-- Node7 -->
<g id="node7" class="node">
<title>Node7</title>
<g id="a_node7"><a xlink:href="cmp__max__used__bits_8h.html" target="_top" xlink:title="definition and consents of the cmp_max_used_bits structure">
<polygon fill="white" stroke="black" points="207.5,-56.5 207.5,-75.5 332.5,-75.5 332.5,-56.5 207.5,-56.5"/>
<text text-anchor="middle" x="270" y="-63.5" font-family="Helvetica,sans-Serif" font-size="10.00">cmp_max_used_bits.h</text>
</a>
</g>
</g>
<!-- Node5&#45;&gt;Node7 -->
<g id="edge8" class="edge">
<title>Node5&#45;&gt;Node7</title>
<path fill="none" stroke="midnightblue" d="M255.81,-112.08C258.08,-104.85 261.37,-94.41 264.21,-85.4"/>
<polygon fill="midnightblue" stroke="midnightblue" points="267.58,-86.34 267.25,-75.75 260.9,-84.24 267.58,-86.34"/>
</g>
<!-- Node8 -->
<g id="node8" class="node">
<title>Node8</title>
<g id="a_node8"><a xlink:href="cmp__cal__up__model_8h.html" target="_top" xlink:title="functions to calculate the update (new) model">
<polygon fill="white" stroke="black" points="350.5,-56.5 350.5,-75.5 469.5,-75.5 469.5,-56.5 350.5,-56.5"/>
<text text-anchor="middle" x="410" y="-63.5" font-family="Helvetica,sans-Serif" font-size="10.00">cmp_cal_up_model.h</text>
</a>
</g>
</g>
<!-- Node5&#45;&gt;Node8 -->
<g id="edge10" class="edge">
<title>Node5&#45;&gt;Node8</title>
<path fill="none" stroke="midnightblue" d="M277.88,-112.44C304.29,-103.36 346.22,-88.94 375.74,-78.78"/>
<polygon fill="midnightblue" stroke="midnightblue" points="376.92,-82.08 385.24,-75.52 374.64,-75.46 376.92,-82.08"/>
</g>
<!-- Node7&#45;&gt;Node2 -->
<g id="edge9" class="edge">
<title>Node7&#45;&gt;Node2</title>
<path fill="none" stroke="midnightblue" d="M243.86,-56.44C215.98,-47.32 171.65,-32.81 140.6,-22.65"/>
<polygon fill="midnightblue" stroke="midnightblue" points="141.62,-19.3 131.02,-19.52 139.44,-25.95 141.62,-19.3"/>
</g>
<!-- Node8&#45;&gt;Node2 -->
<g id="edge11" class="edge">
<title>Node8&#45;&gt;Node2</title>
<path fill="none" stroke="midnightblue" d="M361.67,-56.44C300.6,-45.63 196.84,-27.26 141.81,-17.52"/>
<polygon fill="midnightblue" stroke="midnightblue" points="142.26,-14.04 131.8,-15.75 141.04,-20.94 142.26,-14.04"/>
</g>
</g>
</svg>
