<?xml version="1.0" encoding="UTF-8" standalone="no"?>
<!DOCTYPE svg PUBLIC "-//W3C//DTD SVG 1.1//EN"
 "http://www.w3.org/Graphics/SVG/1.1/DTD/svg11.dtd">
<!-- Generated by graphviz version 2.43.0 (0)
 -->
<!-- Title: cmp_cfg_aux Pages: 1 -->
<svg width="783pt" height="116pt"
 viewBox="0.00 0.00 783.00 115.50" xmlns="http://www.w3.org/2000/svg" xmlns:xlink="http://www.w3.org/1999/xlink">
<g id="graph0" class="graph" transform="scale(1 1) rotate(0) translate(4 111.5)">
<title>cmp_cfg_aux</title>
<polygon fill="white" stroke="transparent" points="-4,4 -4,-111.5 779,-111.5 779,4 -4,4"/>
<!-- Node1 -->
<g id="node1" class="node">
<title>Node1</title>
<g id="a_node1"><a xlink:title="set up the configuration parameters for an auxiliary science data compression">
<polygon fill="#bfbfbf" stroke="black" points="0,-69 0,-88 81,-88 81,-69 0,-69"/>
<text text-anchor="middle" x="40.5" y="-76" font-family="Helvetica,sans-Serif" font-size="10.00">cmp_cfg_aux</text>
</a>
</g>
</g>
<!-- Node2 -->
<g id="node2" class="node">
<title>Node2</title>
<g id="a_node2"><a xlink:href="cmp__support_8c_aa74762a714e9924a221e698601c5d0dc.html#aa74762a714e9924a221e698601c5d0dc" target="_top" xlink:title="check if the auxiliary science specific compression parameters are invalid">
<polygon fill="white" stroke="black" points="117,-69 117,-88 250,-88 250,-69 117,-69"/>
<text text-anchor="middle" x="183.5" y="-76" font-family="Helvetica,sans-Serif" font-size="10.00">cmp_cfg_aux_is_invalid</text>
</a>
</g>
</g>
<!-- Node1&#45;&gt;Node2 -->
<g id="edge1" class="edge">
<title>Node1&#45;&gt;Node2</title>
<path fill="none" stroke="midnightblue" d="M81.15,-78.5C89.26,-78.5 98.05,-78.5 106.94,-78.5"/>
<polygon fill="midnightblue" stroke="midnightblue" points="107,-82 117,-78.5 107,-75 107,-82"/>
</g>
<!-- Node3 -->
<g id="node3" class="node">
<title>Node3</title>
<g id="a_node3"><a xlink:href="cmp__support_8c_ab7bfe528432579ce1b410441e03fd846.html#ab7bfe528432579ce1b410441e03fd846" target="_top" xlink:title="check if an auxiliary science compression data type is used">
<polygon fill="white" stroke="black" points="286,-88 286,-107 443,-107 443,-88 286,-88"/>
<text text-anchor="middle" x="364.5" y="-95" font-family="Helvetica,sans-Serif" font-size="10.00">cmp_aux_data_type_is_used</text>
</a>
</g>
</g>
<!-- Node2&#45;&gt;Node3 -->
<g id="edge2" class="edge">
<title>Node2&#45;&gt;Node3</title>
<path fill="none" stroke="midnightblue" d="M250.14,-85.47C258.46,-86.35 267.07,-87.26 275.67,-88.18"/>
<polygon fill="midnightblue" stroke="midnightblue" points="275.41,-91.67 285.73,-89.24 276.15,-84.71 275.41,-91.67"/>
</g>
<!-- Node4 -->
<g id="node4" class="node">
<title>Node4</title>
<g id="a_node4"><a xlink:href="cmp__support_8c_adbae174c7bd594fd05723ddc667f5b54.html#adbae174c7bd594fd05723ddc667f5b54" target="_top" xlink:title="check if the combination of the different compression parameters is invalid">
<polygon fill="white" stroke="black" points="303,-50 303,-69 426,-69 426,-50 303,-50"/>
<text text-anchor="middle" x="364.5" y="-57" font-family="Helvetica,sans-Serif" font-size="10.00">cmp_pars_are_invalid</text>
</a>
</g>
</g>
<!-- Node2&#45;&gt;Node4 -->
<g id="edge3" class="edge">
<title>Node2&#45;&gt;Node4</title>
<path fill="none" stroke="midnightblue" d="M250.14,-71.53C264.03,-70.06 278.74,-68.5 292.81,-67"/>
<polygon fill="midnightblue" stroke="midnightblue" points="293.35,-70.47 302.92,-65.93 292.61,-63.51 293.35,-70.47"/>
</g>
<!-- Node5 -->
<g id="node5" class="node">
<title>Node5</title>
<g id="a_node5"><a xlink:href="cmp__support_8c_aefdc949ff52e4920859d0bd82f5aa5aa.html#aefdc949ff52e4920859d0bd82f5aa5aa" target="_top" xlink:title="get the maximum valid spill threshold value for a non&#45;imagette compression in diff or model mode">
<polygon fill="white" stroke="black" points="494.5,-88 494.5,-107 604.5,-107 604.5,-88 494.5,-88"/>
<text text-anchor="middle" x="549.5" y="-95" font-family="Helvetica,sans-Serif" font-size="10.00">cmp_icu_max_spill</text>
</a>
</g>
</g>
<!-- Node4&#45;&gt;Node5 -->
<g id="edge4" class="edge">
<title>Node4&#45;&gt;Node5</title>
<path fill="none" stroke="midnightblue" d="M411.68,-69.09C436.26,-74.19 466.69,-80.51 492.6,-85.89"/>
<polygon fill="midnightblue" stroke="midnightblue" points="492.15,-89.37 502.65,-87.98 493.57,-82.52 492.15,-89.37"/>
</g>
<!-- Node7 -->
<g id="node7" class="node">
<title>Node7</title>
<g id="a_node7"><a xlink:href="cmp__support_8c_a743a6fcf9ff9d9c86e5dcd2521694472.html#a743a6fcf9ff9d9c86e5dcd2521694472" target="_top" xlink:title="get the maximum valid spill threshold value for a imagette compression in diff or model mode">
<polygon fill="white" stroke="black" points="492.5,-50 492.5,-69 606.5,-69 606.5,-50 492.5,-50"/>
<text text-anchor="middle" x="549.5" y="-57" font-family="Helvetica,sans-Serif" font-size="10.00">cmp_ima_max_spill</text>
</a>
</g>
</g>
<!-- Node4&#45;&gt;Node7 -->
<g id="edge6" class="edge">
<title>Node4&#45;&gt;Node7</title>
<path fill="none" stroke="midnightblue" d="M426.18,-59.5C444.18,-59.5 463.98,-59.5 482.3,-59.5"/>
<polygon fill="midnightblue" stroke="midnightblue" points="482.31,-63 492.31,-59.5 482.31,-56 482.31,-63"/>
</g>
<!-- Node8 -->
<g id="node8" class="node">
<title>Node8</title>
<g id="a_node8"><a xlink:href="cmp__support_8c_a01181fec3ef69e316b4d77de4df9865f.html#a01181fec3ef69e316b4d77de4df9865f" target="_top" xlink:title="check if an imagette compression data type is used">
<polygon fill="white" stroke="black" points="479,-0.5 479,-30.5 620,-30.5 620,-0.5 479,-0.5"/>
<text text-anchor="start" x="487" y="-18.5" font-family="Helvetica,sans-Serif" font-size="10.00">cmp_imagette_data_type</text>
<text text-anchor="middle" x="549.5" y="-7.5" font-family="Helvetica,sans-Serif" font-size="10.00">_is_used</text>
</a>
</g>
</g>
<!-- Node4&#45;&gt;Node8 -->
<g id="edge7" class="edge">
<title>Node4&#45;&gt;Node8</title>
<path fill="none" stroke="midnightblue" d="M405.21,-49.95C425.9,-44.98 451.87,-38.73 475.99,-32.93"/>
<polygon fill="midnightblue" stroke="midnightblue" points="476.94,-36.31 485.84,-30.57 475.3,-29.5 476.94,-36.31"/>
</g>
<!-- Node6 -->
<g id="node6" class="node">
<title>Node6</title>
<g id="a_node6"><a xlink:href="cmp__support_8c_a67b0e38ca0e68c282c89552daa61ffdf.html#a67b0e38ca0e68c282c89552daa61ffdf" target="_top" xlink:title="implementation of the logarithm base of floor(log2(x)) for integers">
<polygon fill="white" stroke="black" points="692.5,-88 692.5,-107 738.5,-107 738.5,-88 692.5,-88"/>
<text text-anchor="middle" x="715.5" y="-95" font-family="Helvetica,sans-Serif" font-size="10.00">ilog_2</text>
</a>
</g>
</g>
<!-- Node5&#45;&gt;Node6 -->
<g id="edge5" class="edge">
<title>Node5&#45;&gt;Node6</title>
<path fill="none" stroke="midnightblue" d="M604.65,-97.5C630.31,-97.5 660.1,-97.5 682.17,-97.5"/>
<polygon fill="midnightblue" stroke="midnightblue" points="682.34,-101 692.34,-97.5 682.34,-94 682.34,-101"/>
</g>
<!-- Node9 -->
<g id="node9" class="node">
<title>Node9</title>
<g id="a_node9"><a xlink:href="cmp__support_8c_a9197caa657b3d84615c0d323dc96c502.html#a9197caa657b3d84615c0d323dc96c502" target="_top" xlink:title="check if the data product data type is supported by the RDCU compressor">
<polygon fill="white" stroke="black" points="656,-0.5 656,-30.5 775,-30.5 775,-0.5 656,-0.5"/>
<text text-anchor="start" x="664" y="-18.5" font-family="Helvetica,sans-Serif" font-size="10.00">rdcu_supported_data</text>
<text text-anchor="middle" x="715.5" y="-7.5" font-family="Helvetica,sans-Serif" font-size="10.00">_type_is_used</text>
</a>
</g>
</g>
<!-- Node8&#45;&gt;Node9 -->
<g id="edge8" class="edge">
<title>Node8&#45;&gt;Node9</title>
<path fill="none" stroke="midnightblue" d="M620.05,-15.5C628.55,-15.5 637.24,-15.5 645.73,-15.5"/>
<polygon fill="midnightblue" stroke="midnightblue" points="645.97,-19 655.97,-15.5 645.97,-12 645.97,-19"/>
</g>
</g>
</svg>
