<?xml version="1.0" encoding="UTF-8" standalone="no"?>
<!DOCTYPE svg PUBLIC "-//W3C//DTD SVG 1.1//EN"
 "http://www.w3.org/Graphics/SVG/1.1/DTD/svg11.dtd">
<!-- Generated by graphviz version 2.43.0 (0)
 -->
<!-- Title: cmp_cfg_icu_buffers Pages: 1 -->
<svg width="463pt" height="192pt"
 viewBox="0.00 0.00 463.00 191.50" xmlns="http://www.w3.org/2000/svg" xmlns:xlink="http://www.w3.org/1999/xlink">
<g id="graph0" class="graph" transform="scale(1 1) rotate(0) translate(4 187.5)">
<title>cmp_cfg_icu_buffers</title>
<polygon fill="white" stroke="transparent" points="-4,4 -4,-187.5 459,-187.5 459,4 -4,4"/>
<!-- Node1 -->
<g id="node1" class="node">
<title>Node1</title>
<g id="a_node1"><a xlink:title="set up the different data buffers for an ICU compression">
<polygon fill="#bfbfbf" stroke="black" points="0,-64.5 0,-83.5 116,-83.5 116,-64.5 0,-64.5"/>
<text text-anchor="middle" x="58" y="-71.5" font-family="Helvetica,sans-Serif" font-size="10.00">cmp_cfg_icu_buffers</text>
</a>
</g>
</g>
<!-- Node2 -->
<g id="node2" class="node">
<title>Node2</title>
<g id="a_node2"><a xlink:href="cmp__data__types_8c_aafa65f72ed4d0fb99beb11c37f11ce52.html#aafa65f72ed4d0fb99beb11c37f11ce52" target="_top" xlink:title="calculate the need bytes for the data">
<polygon fill="white" stroke="black" points="152,-114.5 152,-133.5 276,-133.5 276,-114.5 152,-114.5"/>
<text text-anchor="middle" x="214" y="-121.5" font-family="Helvetica,sans-Serif" font-size="10.00">cmp_cal_size_of_data</text>
</a>
</g>
</g>
<!-- Node1&#45;&gt;Node2 -->
<g id="edge1" class="edge">
<title>Node1&#45;&gt;Node2</title>
<path fill="none" stroke="midnightblue" d="M88.33,-83.52C112.55,-91.39 147.15,-102.62 173.75,-111.26"/>
<polygon fill="midnightblue" stroke="midnightblue" points="172.93,-114.67 183.52,-114.43 175.09,-108.01 172.93,-114.67"/>
</g>
<!-- Node5 -->
<g id="node5" class="node">
<title>Node5</title>
<g id="a_node5"><a xlink:href="cmp__support_8c_a9ec155537cbf27999a57812e720182de.html#a9ec155537cbf27999a57812e720182de" target="_top" xlink:title="check if the ICU buffer parameters are invalid">
<polygon fill="white" stroke="black" points="156,-59 156,-89 272,-89 272,-59 156,-59"/>
<text text-anchor="start" x="164" y="-77" font-family="Helvetica,sans-Serif" font-size="10.00">cmp_cfg_icu_buffers</text>
<text text-anchor="middle" x="214" y="-66" font-family="Helvetica,sans-Serif" font-size="10.00">_is_invalid</text>
</a>
</g>
</g>
<!-- Node1&#45;&gt;Node5 -->
<g id="edge4" class="edge">
<title>Node1&#45;&gt;Node5</title>
<path fill="none" stroke="midnightblue" d="M116.34,-74C125.93,-74 135.95,-74 145.75,-74"/>
<polygon fill="midnightblue" stroke="midnightblue" points="145.86,-77.5 155.86,-74 145.86,-70.5 145.86,-77.5"/>
</g>
<!-- Node8 -->
<g id="node8" class="node">
<title>Node8</title>
<g id="a_node8"><a xlink:href="cmp__entity_8c_ac4f3e5eb03e7dc0f1a646dd150543af5.html#ac4f3e5eb03e7dc0f1a646dd150543af5" target="_top" xlink:title="calculate the size of the compression entity header based on a compression data product type">
<polygon fill="white" stroke="black" points="152,-7.5 152,-26.5 276,-26.5 276,-7.5 152,-7.5"/>
<text text-anchor="middle" x="214" y="-14.5" font-family="Helvetica,sans-Serif" font-size="10.00">cmp_ent_cal_hdr_size</text>
</a>
</g>
</g>
<!-- Node1&#45;&gt;Node8 -->
<g id="edge7" class="edge">
<title>Node1&#45;&gt;Node8</title>
<path fill="none" stroke="midnightblue" d="M84.78,-64.46C110.21,-55.05 149.28,-40.59 177.61,-30.1"/>
<polygon fill="midnightblue" stroke="midnightblue" points="178.98,-33.33 187.14,-26.57 176.55,-26.76 178.98,-33.33"/>
</g>
<!-- Node3 -->
<g id="node3" class="node">
<title>Node3</title>
<g id="a_node3"><a xlink:href="cmp__support_8c_a9197caa657b3d84615c0d323dc96c502.html#a9197caa657b3d84615c0d323dc96c502" target="_top" xlink:title="check if the data product data type is supported by the RDCU compressor">
<polygon fill="white" stroke="black" points="324,-153 324,-183 443,-183 443,-153 324,-153"/>
<text text-anchor="start" x="332" y="-171" font-family="Helvetica,sans-Serif" font-size="10.00">rdcu_supported_data</text>
<text text-anchor="middle" x="383.5" y="-160" font-family="Helvetica,sans-Serif" font-size="10.00">_type_is_used</text>
</a>
</g>
</g>
<!-- Node2&#45;&gt;Node3 -->
<g id="edge2" class="edge">
<title>Node2&#45;&gt;Node3</title>
<path fill="none" stroke="midnightblue" d="M251.35,-133.55C270.04,-138.46 293.42,-144.6 315.25,-150.33"/>
<polygon fill="midnightblue" stroke="midnightblue" points="314.59,-153.78 325.15,-152.93 316.37,-147.01 314.59,-153.78"/>
</g>
<!-- Node4 -->
<g id="node4" class="node">
<title>Node4</title>
<g id="a_node4"><a xlink:href="cmp__data__types_8c_a0be8705b1dcc45f605abd8400dd5230b.html#a0be8705b1dcc45f605abd8400dd5230b" target="_top" xlink:title="calculate the size of a sample for the different compression data type">
<polygon fill="white" stroke="black" points="331.5,-114.5 331.5,-133.5 435.5,-133.5 435.5,-114.5 331.5,-114.5"/>
<text text-anchor="middle" x="383.5" y="-121.5" font-family="Helvetica,sans-Serif" font-size="10.00">size_of_a_sample</text>
</a>
</g>
</g>
<!-- Node2&#45;&gt;Node4 -->
<g id="edge3" class="edge">
<title>Node2&#45;&gt;Node4</title>
<path fill="none" stroke="midnightblue" d="M276.42,-124C290.92,-124 306.38,-124 320.89,-124"/>
<polygon fill="midnightblue" stroke="midnightblue" points="321.26,-127.5 331.26,-124 321.26,-120.5 321.26,-127.5"/>
</g>
<!-- Node6 -->
<g id="node6" class="node">
<title>Node6</title>
<g id="a_node6"><a xlink:href="cmp__support_8c_afba7806c424cfb8c7678c1b4cebdfcbb.html#afba7806c424cfb8c7678c1b4cebdfcbb" target="_top" xlink:title="check if a model mode is selected">
<polygon fill="white" stroke="black" points="322.5,-76.5 322.5,-95.5 444.5,-95.5 444.5,-76.5 322.5,-76.5"/>
<text text-anchor="middle" x="383.5" y="-83.5" font-family="Helvetica,sans-Serif" font-size="10.00">model_mode_is_used</text>
</a>
</g>
</g>
<!-- Node5&#45;&gt;Node6 -->
<g id="edge5" class="edge">
<title>Node5&#45;&gt;Node6</title>
<path fill="none" stroke="midnightblue" d="M272.18,-78.1C285.09,-79.02 298.94,-80.01 312.32,-80.97"/>
<polygon fill="midnightblue" stroke="midnightblue" points="312.22,-84.47 322.44,-81.7 312.72,-77.49 312.22,-84.47"/>
</g>
<!-- Node7 -->
<g id="node7" class="node">
<title>Node7</title>
<g id="a_node7"><a xlink:href="cmp__support_8c_afa39b2f9cf3ed38c0d0277791e4b9aca.html#afa39b2f9cf3ed38c0d0277791e4b9aca" target="_top" xlink:title="check if the raw mode is selected">
<polygon fill="white" stroke="black" points="328.5,-38.5 328.5,-57.5 438.5,-57.5 438.5,-38.5 328.5,-38.5"/>
<text text-anchor="middle" x="383.5" y="-45.5" font-family="Helvetica,sans-Serif" font-size="10.00">raw_mode_is_used</text>
</a>
</g>
</g>
<!-- Node5&#45;&gt;Node7 -->
<g id="edge6" class="edge">
<title>Node5&#45;&gt;Node7</title>
<path fill="none" stroke="midnightblue" d="M272.18,-65.12C286.96,-62.83 302.98,-60.34 318.1,-58"/>
<polygon fill="midnightblue" stroke="midnightblue" points="319.06,-61.39 328.41,-56.4 317.99,-54.47 319.06,-61.39"/>
</g>
<!-- Node9 -->
<g id="node9" class="node">
<title>Node9</title>
<g id="a_node9"><a xlink:href="cmp__support_8c_af2129b98a4b5c7f856e97776962d7881.html#af2129b98a4b5c7f856e97776962d7881" target="_top" xlink:title="check if the compression entity data product type is supported">
<polygon fill="white" stroke="black" points="312,-0.5 312,-19.5 455,-19.5 455,-0.5 312,-0.5"/>
<text text-anchor="middle" x="383.5" y="-7.5" font-family="Helvetica,sans-Serif" font-size="10.00">cmp_data_type_is_invalid</text>
</a>
</g>
</g>
<!-- Node8&#45;&gt;Node9 -->
<g id="edge8" class="edge">
<title>Node8&#45;&gt;Node9</title>
<path fill="none" stroke="midnightblue" d="M276.42,-14.43C284.58,-14.09 293.05,-13.74 301.49,-13.39"/>
<polygon fill="midnightblue" stroke="midnightblue" points="301.89,-16.87 311.73,-12.96 301.59,-9.88 301.89,-16.87"/>
</g>
</g>
</svg>
