<?xml version="1.0" encoding="UTF-8" standalone="no"?>
<!DOCTYPE svg PUBLIC "-//W3C//DTD SVG 1.1//EN"
 "http://www.w3.org/Graphics/SVG/1.1/DTD/svg11.dtd">
<!-- Generated by graphviz version 2.43.0 (0)
 -->
<!-- Title: cmp_max_used_bits_list_add Pages: 1 -->
<svg width="365pt" height="78pt"
 viewBox="0.00 0.00 365.00 77.50" xmlns="http://www.w3.org/2000/svg" xmlns:xlink="http://www.w3.org/1999/xlink">
<g id="graph0" class="graph" transform="scale(1 1) rotate(0) translate(4 73.5)">
<title>cmp_max_used_bits_list_add</title>
<polygon fill="white" stroke="transparent" points="-4,4 -4,-73.5 361,-73.5 361,4 -4,4"/>
<!-- Node1 -->
<g id="node1" class="node">
<title>Node1</title>
<g id="a_node1"><a xlink:title="add a max_used_bits item to the list">
<polygon fill="#bfbfbf" stroke="black" points="197,-22.5 197,-41.5 357,-41.5 357,-22.5 197,-22.5"/>
<text text-anchor="middle" x="277" y="-29.5" font-family="Helvetica,sans-Serif" font-size="10.00">cmp_max_used_bits_list_add</text>
</a>
</g>
</g>
<!-- Node2 -->
<g id="node2" class="node">
<title>Node2</title>
<g id="a_node2"><a xlink:href="test__decmp_8c_a27e5a2b67e3e81da1be024826485b2e3.html#a27e5a2b67e3e81da1be024826485b2e3" target="_top" xlink:title=" ">
<polygon fill="white" stroke="black" points="24,-39 24,-69 137,-69 137,-39 24,-39"/>
<text text-anchor="start" x="32" y="-57" font-family="Helvetica,sans-Serif" font-size="10.00">test_cmp_ent_write</text>
<text text-anchor="middle" x="80.5" y="-46" font-family="Helvetica,sans-Serif" font-size="10.00">_cmp_pars</text>
</a>
</g>
</g>
<!-- Node1&#45;&gt;Node2 -->
<g id="edge1" class="edge">
<title>Node1&#45;&gt;Node2</title>
<path fill="none" stroke="midnightblue" d="M186.93,-42.07C169.93,-44 152.59,-45.96 137.01,-47.72"/>
<polygon fill="midnightblue" stroke="midnightblue" points="187.35,-45.55 196.89,-40.95 186.56,-38.59 187.35,-45.55"/>
</g>
<!-- Node3 -->
<g id="node3" class="node">
<title>Node3</title>
<g id="a_node3"><a xlink:href="test__cmp__max__used__bits__list_8c_acd1ebf1cab2751d1420a94e2c50ba6ce.html#acd1ebf1cab2751d1420a94e2c50ba6ce" target="_top" xlink:title=" ">
<polygon fill="white" stroke="black" points="0,-0.5 0,-19.5 161,-19.5 161,-0.5 0,-0.5"/>
<text text-anchor="middle" x="80.5" y="-7.5" font-family="Helvetica,sans-Serif" font-size="10.00">test_cmp_max_used_bits_list</text>
</a>
</g>
</g>
<!-- Node1&#45;&gt;Node3 -->
<g id="edge2" class="edge">
<title>Node1&#45;&gt;Node3</title>
<path fill="none" stroke="midnightblue" d="M186.88,-21.92C178.31,-20.95 169.65,-19.97 161.17,-19.01"/>
<polygon fill="midnightblue" stroke="midnightblue" points="186.56,-25.41 196.89,-23.05 187.35,-18.45 186.56,-25.41"/>
</g>
</g>
</svg>
