<?xml version="1.0" encoding="UTF-8" standalone="no"?>
<!DOCTYPE svg PUBLIC "-//W3C//DTD SVG 1.1//EN"
 "http://www.w3.org/Graphics/SVG/1.1/DTD/svg11.dtd">
<!-- Generated by graphviz version 2.43.0 (0)
 -->
<!-- Title: zero_escape_mech_is_used Pages: 1 -->
<!--zoomable 792 -->
<svg id="main" version="1.1" xmlns="http://www.w3.org/2000/svg" xmlns:xlink="http://www.w3.org/1999/xlink" xml:space="preserve" onload="init(evt)">
<style type="text/css"><![CDATA[
.edge:hover path { stroke: red; }
.edge:hover polygon { stroke: red; fill: red; }
]]></style>
<script type="text/javascript"><![CDATA[
var edges = document.getElementsByTagName('g');
if (edges && edges.length) {
  for (var i=0;i<edges.length;i++) {
    if (edges[i].id.substr(0,4)=='edge') {
      edges[i].setAttribute('class','edge');
    }
  }
}
]]></script>
        <defs>
                <circle id="rim" cx="0" cy="0" r="7"/>
                <circle id="rim2" cx="0" cy="0" r="3.5"/>
                <g id="zoomPlus">
                        <use xlink:href="#rim" fill="#404040">
                                <set attributeName="fill" to="#808080" begin="zoomplus.mouseover" end="zoomplus.mouseout"/>
                        </use>
                        <path d="M-4,0h8M0,-4v8" fill="none" stroke="white" stroke-width="1.5" pointer-events="none"/>
                </g>
                <g id="zoomMin">
                        <use xlink:href="#rim" fill="#404040">
                                <set attributeName="fill" to="#808080" begin="zoomminus.mouseover" end="zoomminus.mouseout"/>
                        </use>
                        <path d="M-4,0h8" fill="none" stroke="white" stroke-width="1.5" pointer-events="none"/>
                </g>
                <g id="dirArrow">
                        <path fill="none" stroke="white" stroke-width="1.5" d="M0,-3.0v7 M-2.5,-0.5L0,-3.0L2.5,-0.5"/>
                </g>
               <g id="resetDef">
                       <use xlink:href="#rim2" fill="#404040">
                               <set attributeName="fill" to="#808080" begin="reset.mouseover" end="reset.mouseout"/>
                       </use>
               </g>
        </defs>

<script type="text/javascript">
var viewWidth = 1272;
var viewHeight = 792;
var sectionId = 'dynsection-0';
</script>
<script xlink:href="svgpan.js"/>
<svg id="graph" class="graph">
<g id="viewport">
<title>zero_escape_mech_is_used</title>
<polygon fill="white" stroke="transparent" points="-4,4 -4,-787.5 1268,-787.5 1268,4 -4,4"/>
<!-- Node1 -->
<g id="node1" class="node">
<title>Node1</title>
<g id="a_node1"><a xlink:title="check if zero escape symbol mechanism mode is used">
<polygon fill="#bfbfbf" stroke="black" points="1112,-351.5 1112,-370.5 1264,-370.5 1264,-351.5 1112,-351.5"/>
<text text-anchor="middle" x="1188" y="-358.5" font-family="Helvetica,sans-Serif" font-size="10.00">zero_escape_mech_is_used</text>
</a>
</g>
</g>
<!-- Node2 -->
<g id="node2" class="node">
<title>Node2</title>
<g id="a_node2"><a xlink:href="decmp_8c_ac9a6281c5fcfbf077cc63e0494274f20.html#ac9a6281c5fcfbf077cc63e0494274f20" target="_top" xlink:title="configure a decoder setup structure to have a setup to decode a vale">
<polygon fill="white" stroke="black" points="938,-373.5 938,-392.5 1076,-392.5 1076,-373.5 938,-373.5"/>
<text text-anchor="middle" x="1007" y="-380.5" font-family="Helvetica,sans-Serif" font-size="10.00">configure_decoder_setup</text>
</a>
</g>
</g>
<!-- Node1&#45;&gt;Node2 -->
<g id="edge1" class="edge">
<title>Node1&#45;&gt;Node2</title>
<path fill="none" stroke="midnightblue" d="M1101.79,-371.47C1093.18,-372.53 1084.5,-373.6 1076.1,-374.63"/>
<polygon fill="midnightblue" stroke="midnightblue" points="1102.37,-374.93 1111.87,-370.23 1101.51,-367.98 1102.37,-374.93"/>
</g>
<!-- Node34 -->
<g id="node34" class="node">
<title>Node34</title>
<g id="a_node34"><a xlink:href="test__cmp__icu_8c_a1908ec140a445cc08c35b7690e5ea785.html#a1908ec140a445cc08c35b7690e5ea785" target="_top" xlink:title=" ">
<polygon fill="white" stroke="black" points="940,-324 940,-354 1074,-354 1074,-324 940,-324"/>
<text text-anchor="start" x="948" y="-342" font-family="Helvetica,sans-Serif" font-size="10.00">test_zero_escape_mech</text>
<text text-anchor="middle" x="1007" y="-331" font-family="Helvetica,sans-Serif" font-size="10.00">_is_used</text>
</a>
</g>
</g>
<!-- Node1&#45;&gt;Node34 -->
<g id="edge48" class="edge">
<title>Node1&#45;&gt;Node34</title>
<path fill="none" stroke="midnightblue" d="M1101.82,-350.53C1092.51,-349.39 1083.15,-348.24 1074.13,-347.13"/>
<polygon fill="midnightblue" stroke="midnightblue" points="1101.51,-354.02 1111.87,-351.77 1102.37,-347.07 1101.51,-354.02"/>
</g>
<!-- Node3 -->
<g id="node3" class="node">
<title>Node3</title>
<g id="a_node3"><a xlink:href="decmp_8c_ae8bbe9e530e670af67db5d739f15f120.html#ae8bbe9e530e670af67db5d739f15f120" target="_top" xlink:title="decompress N&#45;CAM background data">
<polygon fill="white" stroke="black" points="764,-720.5 764,-739.5 902,-739.5 902,-720.5 764,-720.5"/>
<text text-anchor="middle" x="833" y="-727.5" font-family="Helvetica,sans-Serif" font-size="10.00">decompress_background</text>
</a>
</g>
</g>
<!-- Node2&#45;&gt;Node3 -->
<g id="edge2" class="edge">
<title>Node2&#45;&gt;Node3</title>
<path fill="none" stroke="midnightblue" d="M1005.86,-402.88C1004.36,-459.65 992.04,-624.02 902,-711 898.03,-714.83 893.36,-717.9 888.35,-720.37"/>
<polygon fill="midnightblue" stroke="midnightblue" points="1009.37,-402.8 1006.04,-392.74 1002.37,-402.67 1009.37,-402.8"/>
</g>
<!-- Node14 -->
<g id="node14" class="node">
<title>Node14</title>
<g id="a_node14"><a xlink:href="decmp_8c_ac44d884cb830d9b0dbbca34c6db2de7d.html#ac44d884cb830d9b0dbbca34c6db2de7d" target="_top" xlink:title="decompress fast normal light flux (F_FX) data">
<polygon fill="white" stroke="black" points="783,-682.5 783,-701.5 883,-701.5 883,-682.5 783,-682.5"/>
<text text-anchor="middle" x="833" y="-689.5" font-family="Helvetica,sans-Serif" font-size="10.00">decompress_f_fx</text>
</a>
</g>
</g>
<!-- Node2&#45;&gt;Node14 -->
<g id="edge13" class="edge">
<title>Node2&#45;&gt;Node14</title>
<path fill="none" stroke="midnightblue" d="M1004.9,-402.98C1000.92,-455.36 982.81,-597.8 902,-673 896.62,-678.01 890.02,-681.72 883.08,-684.45"/>
<polygon fill="midnightblue" stroke="midnightblue" points="1008.41,-402.92 1005.58,-392.71 1001.43,-402.45 1008.41,-402.92"/>
</g>
<!-- Node15 -->
<g id="node15" class="node">
<title>Node15</title>
<g id="a_node15"><a xlink:href="decmp_8c_a84e912fefa1f49f27885af0d855a4989.html#a84e912fefa1f49f27885af0d855a4989" target="_top" xlink:title="decompress F_FX_EFX data">
<polygon fill="white" stroke="black" points="772.5,-644.5 772.5,-663.5 893.5,-663.5 893.5,-644.5 772.5,-644.5"/>
<text text-anchor="middle" x="833" y="-651.5" font-family="Helvetica,sans-Serif" font-size="10.00">decompress_f_fx_efx</text>
</a>
</g>
</g>
<!-- Node2&#45;&gt;Node15 -->
<g id="edge15" class="edge">
<title>Node2&#45;&gt;Node15</title>
<path fill="none" stroke="midnightblue" d="M1003.69,-402.88C997.1,-450.4 973.78,-571.29 902,-635 897.6,-638.91 892.46,-642.01 887.01,-644.49"/>
<polygon fill="midnightblue" stroke="midnightblue" points="1007.2,-403.07 1005,-392.7 1000.25,-402.17 1007.2,-403.07"/>
</g>
<!-- Node16 -->
<g id="node16" class="node">
<title>Node16</title>
<g id="a_node16"><a xlink:href="decmp_8c_aac2934ca104c49490be71c4966d2b173.html#aac2934ca104c49490be71c4966d2b173" target="_top" xlink:title="decompress short F_FX_NCOB_ECOB data">
<polygon fill="white" stroke="black" points="772.5,-595 772.5,-625 893.5,-625 893.5,-595 772.5,-595"/>
<text text-anchor="start" x="780.5" y="-613" font-family="Helvetica,sans-Serif" font-size="10.00">decompress_f_fx_efx</text>
<text text-anchor="middle" x="833" y="-602" font-family="Helvetica,sans-Serif" font-size="10.00">_ncob_ecob</text>
</a>
</g>
</g>
<!-- Node2&#45;&gt;Node16 -->
<g id="edge17" class="edge">
<title>Node2&#45;&gt;Node16</title>
<path fill="none" stroke="midnightblue" d="M1001.17,-402.33C990.28,-442.1 960.08,-533.66 902,-585 897.66,-588.83 892.69,-592.09 887.45,-594.87"/>
<polygon fill="midnightblue" stroke="midnightblue" points="1004.58,-403.12 1003.74,-392.56 997.81,-401.34 1004.58,-403.12"/>
</g>
<!-- Node17 -->
<g id="node17" class="node">
<title>Node17</title>
<g id="a_node17"><a xlink:href="decmp_8c_a8310f64826697fb15c590854c08b3ad9.html#a8310f64826697fb15c590854c08b3ad9" target="_top" xlink:title="decompress short F_FX_NCOB data">
<polygon fill="white" stroke="black" points="769,-556.5 769,-575.5 897,-575.5 897,-556.5 769,-556.5"/>
<text text-anchor="middle" x="833" y="-563.5" font-family="Helvetica,sans-Serif" font-size="10.00">decompress_f_fx_ncob</text>
</a>
</g>
</g>
<!-- Node2&#45;&gt;Node17 -->
<g id="edge19" class="edge">
<title>Node2&#45;&gt;Node17</title>
<path fill="none" stroke="midnightblue" d="M999.14,-402.29C985.91,-436.73 953.5,-508.73 902,-547 896.79,-550.87 890.82,-553.96 884.63,-556.42"/>
<polygon fill="midnightblue" stroke="midnightblue" points="1002.44,-403.49 1002.64,-392.89 995.87,-401.05 1002.44,-403.49"/>
</g>
<!-- Node18 -->
<g id="node18" class="node">
<title>Node18</title>
<g id="a_node18"><a xlink:href="decmp_8c_a62e230570f1d23f56fbe10fb238dbf1d.html#a62e230570f1d23f56fbe10fb238dbf1d" target="_top" xlink:title="decompress imagette data">
<polygon fill="white" stroke="black" points="770.5,-758.5 770.5,-777.5 895.5,-777.5 895.5,-758.5 770.5,-758.5"/>
<text text-anchor="middle" x="833" y="-765.5" font-family="Helvetica,sans-Serif" font-size="10.00">decompress_imagette</text>
</a>
</g>
</g>
<!-- Node2&#45;&gt;Node18 -->
<g id="edge21" class="edge">
<title>Node2&#45;&gt;Node18</title>
<path fill="none" stroke="midnightblue" d="M1006.63,-402.69C1007.45,-463.48 1001.39,-650.05 902,-749 898.09,-752.89 893.46,-756 888.47,-758.49"/>
<polygon fill="midnightblue" stroke="midnightblue" points="1010.13,-402.48 1006.41,-392.56 1003.13,-402.64 1010.13,-402.48"/>
</g>
<!-- Node20 -->
<g id="node20" class="node">
<title>Node20</title>
<g id="a_node20"><a xlink:href="decmp_8c_a75f3c5c08234bce92e84d07a93e9a77d.html#a75f3c5c08234bce92e84d07a93e9a77d" target="_top" xlink:title="decompress long normal light flux (L_FX) data">
<polygon fill="white" stroke="black" points="783.5,-518.5 783.5,-537.5 882.5,-537.5 882.5,-518.5 783.5,-518.5"/>
<text text-anchor="middle" x="833" y="-525.5" font-family="Helvetica,sans-Serif" font-size="10.00">decompress_l_fx</text>
</a>
</g>
</g>
<!-- Node2&#45;&gt;Node20 -->
<g id="edge24" class="edge">
<title>Node2&#45;&gt;Node20</title>
<path fill="none" stroke="midnightblue" d="M995.72,-401.59C979.47,-429.22 945.2,-480.9 902,-509 896.04,-512.88 889.29,-515.97 882.41,-518.44"/>
<polygon fill="midnightblue" stroke="midnightblue" points="998.94,-403 1000.87,-392.58 992.87,-399.52 998.94,-403"/>
</g>
<!-- Node21 -->
<g id="node21" class="node">
<title>Node21</title>
<g id="a_node21"><a xlink:href="decmp_8c_aa06fff345fa7fd62fb4fd7a619c118fe.html#aa06fff345fa7fd62fb4fd7a619c118fe" target="_top" xlink:title="decompress L_FX_EFX data">
<polygon fill="white" stroke="black" points="773,-480.5 773,-499.5 893,-499.5 893,-480.5 773,-480.5"/>
<text text-anchor="middle" x="833" y="-487.5" font-family="Helvetica,sans-Serif" font-size="10.00">decompress_l_fx_efx</text>
</a>
</g>
</g>
<!-- Node2&#45;&gt;Node21 -->
<g id="edge26" class="edge">
<title>Node2&#45;&gt;Node21</title>
<path fill="none" stroke="midnightblue" d="M990.28,-400.18C971.23,-420.02 937.27,-452.31 902,-471 894.85,-474.79 886.87,-477.89 878.96,-480.4"/>
<polygon fill="midnightblue" stroke="midnightblue" points="992.96,-402.44 997.27,-392.76 987.87,-397.64 992.96,-402.44"/>
</g>
<!-- Node22 -->
<g id="node22" class="node">
<title>Node22</title>
<g id="a_node22"><a xlink:href="decmp_8c_a36a5692cbd5d1e46805ba3f1dac23f60.html#a36a5692cbd5d1e46805ba3f1dac23f60" target="_top" xlink:title="decompress L_FX_EFX_NCOB_ECOB data">
<polygon fill="white" stroke="black" points="773,-431 773,-461 893,-461 893,-431 773,-431"/>
<text text-anchor="start" x="781" y="-449" font-family="Helvetica,sans-Serif" font-size="10.00">decompress_l_fx_efx</text>
<text text-anchor="middle" x="833" y="-438" font-family="Helvetica,sans-Serif" font-size="10.00">_ncob_ecob</text>
</a>
</g>
</g>
<!-- Node2&#45;&gt;Node22 -->
<g id="edge28" class="edge">
<title>Node2&#45;&gt;Node22</title>
<path fill="none" stroke="midnightblue" d="M970.19,-396.12C942.49,-406.26 904.09,-420.33 875.13,-430.93"/>
<polygon fill="midnightblue" stroke="midnightblue" points="971.69,-399.29 979.88,-392.57 969.28,-392.72 971.69,-399.29"/>
</g>
<!-- Node23 -->
<g id="node23" class="node">
<title>Node23</title>
<g id="a_node23"><a xlink:href="decmp_8c_a5883c910a0e8e829e60844e78da88e96.html#a5883c910a0e8e829e60844e78da88e96" target="_top" xlink:title="decompress L_FX_NCOB data">
<polygon fill="white" stroke="black" points="769,-392.5 769,-411.5 897,-411.5 897,-392.5 769,-392.5"/>
<text text-anchor="middle" x="833" y="-399.5" font-family="Helvetica,sans-Serif" font-size="10.00">decompress_l_fx_ncob</text>
</a>
</g>
</g>
<!-- Node2&#45;&gt;Node23 -->
<g id="edge30" class="edge">
<title>Node2&#45;&gt;Node23</title>
<path fill="none" stroke="midnightblue" d="M927.46,-391.68C917.33,-392.8 907.06,-393.93 897.21,-395.02"/>
<polygon fill="midnightblue" stroke="midnightblue" points="927.97,-395.14 937.53,-390.56 927.2,-388.18 927.97,-395.14"/>
</g>
<!-- Node24 -->
<g id="node24" class="node">
<title>Node24</title>
<g id="a_node24"><a xlink:href="decmp_8c_a47d0a8b2f718f7d4659a34a6b516c79d.html#a47d0a8b2f718f7d4659a34a6b516c79d" target="_top" xlink:title="decompress N&#45;CAM and F&#45;CAM offset data">
<polygon fill="white" stroke="black" points="778.5,-354.5 778.5,-373.5 887.5,-373.5 887.5,-354.5 778.5,-354.5"/>
<text text-anchor="middle" x="833" y="-361.5" font-family="Helvetica,sans-Serif" font-size="10.00">decompress_offset</text>
</a>
</g>
</g>
<!-- Node2&#45;&gt;Node24 -->
<g id="edge32" class="edge">
<title>Node2&#45;&gt;Node24</title>
<path fill="none" stroke="midnightblue" d="M927.33,-374.31C913.91,-372.83 900.25,-371.32 887.67,-369.93"/>
<polygon fill="midnightblue" stroke="midnightblue" points="927.2,-377.82 937.53,-375.44 927.97,-370.86 927.2,-377.82"/>
</g>
<!-- Node25 -->
<g id="node25" class="node">
<title>Node25</title>
<g id="a_node25"><a xlink:href="decmp_8c_ad57c4f63787216adcca82dca5a2c99ae.html#ad57c4f63787216adcca82dca5a2c99ae" target="_top" xlink:title="decompress short normal light flux (S_FX) data">
<polygon fill="white" stroke="black" points="782.5,-316.5 782.5,-335.5 883.5,-335.5 883.5,-316.5 782.5,-316.5"/>
<text text-anchor="middle" x="833" y="-323.5" font-family="Helvetica,sans-Serif" font-size="10.00">decompress_s_fx</text>
</a>
</g>
</g>
<!-- Node2&#45;&gt;Node25 -->
<g id="edge34" class="edge">
<title>Node2&#45;&gt;Node25</title>
<path fill="none" stroke="midnightblue" d="M956.5,-370.51C950.21,-368.53 943.9,-366.35 938,-364 921.19,-357.31 918.81,-351.69 902,-345 893,-341.42 883.08,-338.24 873.67,-335.55"/>
<polygon fill="midnightblue" stroke="midnightblue" points="955.75,-373.94 966.33,-373.45 957.76,-367.23 955.75,-373.94"/>
</g>
<!-- Node26 -->
<g id="node26" class="node">
<title>Node26</title>
<g id="a_node26"><a xlink:href="decmp_8c_ae950fe1a6eeb3224f3491439a7149a1f.html#ae950fe1a6eeb3224f3491439a7149a1f" target="_top" xlink:title="decompress S_FX_EFX data">
<polygon fill="white" stroke="black" points="772,-278.5 772,-297.5 894,-297.5 894,-278.5 772,-278.5"/>
<text text-anchor="middle" x="833" y="-285.5" font-family="Helvetica,sans-Serif" font-size="10.00">decompress_s_fx_efx</text>
</a>
</g>
</g>
<!-- Node2&#45;&gt;Node26 -->
<g id="edge36" class="edge">
<title>Node2&#45;&gt;Node26</title>
<path fill="none" stroke="midnightblue" d="M946.04,-369.1C943.23,-367.57 940.52,-365.88 938,-364 913.97,-346.11 926.03,-324.89 902,-307 896.79,-303.12 890.82,-300.03 884.63,-297.58"/>
<polygon fill="midnightblue" stroke="midnightblue" points="944.82,-372.39 955.37,-373.42 947.77,-366.04 944.82,-372.39"/>
</g>
<!-- Node27 -->
<g id="node27" class="node">
<title>Node27</title>
<g id="a_node27"><a xlink:href="decmp_8c_aee9e79676f49da2b257ad810955e4f09.html#aee9e79676f49da2b257ad810955e4f09" target="_top" xlink:title="decompress short S_FX_NCOB_ECOB data">
<polygon fill="white" stroke="black" points="772,-229 772,-259 894,-259 894,-229 772,-229"/>
<text text-anchor="start" x="780" y="-247" font-family="Helvetica,sans-Serif" font-size="10.00">decompress_s_fx_efx</text>
<text text-anchor="middle" x="833" y="-236" font-family="Helvetica,sans-Serif" font-size="10.00">_ncob_ecob</text>
</a>
</g>
</g>
<!-- Node2&#45;&gt;Node27 -->
<g id="edge38" class="edge">
<title>Node2&#45;&gt;Node27</title>
<path fill="none" stroke="midnightblue" d="M943.52,-368.36C941.58,-367.03 939.73,-365.58 938,-364 904.67,-333.54 934.09,-300.77 902,-269 898.07,-265.11 893.48,-261.81 888.57,-259.03"/>
<polygon fill="midnightblue" stroke="midnightblue" points="942.11,-371.58 952.54,-373.46 945.55,-365.49 942.11,-371.58"/>
</g>
<!-- Node28 -->
<g id="node28" class="node">
<title>Node28</title>
<g id="a_node28"><a xlink:href="decmp_8c_a5075a002558af814210bd1c186a244f0.html#a5075a002558af814210bd1c186a244f0" target="_top" xlink:title="decompress short S_FX_NCOB data">
<polygon fill="white" stroke="black" points="768,-190.5 768,-209.5 898,-209.5 898,-190.5 768,-190.5"/>
<text text-anchor="middle" x="833" y="-197.5" font-family="Helvetica,sans-Serif" font-size="10.00">decompress_s_fx_ncob</text>
</a>
</g>
</g>
<!-- Node2&#45;&gt;Node28 -->
<g id="edge40" class="edge">
<title>Node2&#45;&gt;Node28</title>
<path fill="none" stroke="midnightblue" d="M942.51,-368.03C940.92,-366.79 939.41,-365.45 938,-364 892,-316.72 947.68,-267.6 902,-220 897.82,-215.65 892.76,-212.23 887.29,-209.55"/>
<polygon fill="midnightblue" stroke="midnightblue" points="940.75,-371.06 951.07,-373.44 944.49,-365.14 940.75,-371.06"/>
</g>
<!-- Node29 -->
<g id="node29" class="node">
<title>Node29</title>
<g id="a_node29"><a xlink:href="decmp_8c_ab043a8a939e8818cf2875aecec205bb9.html#ab043a8a939e8818cf2875aecec205bb9" target="_top" xlink:title="decompress N&#45;CAM smearing data">
<polygon fill="white" stroke="black" points="769.5,-152.5 769.5,-171.5 896.5,-171.5 896.5,-152.5 769.5,-152.5"/>
<text text-anchor="middle" x="833" y="-159.5" font-family="Helvetica,sans-Serif" font-size="10.00">decompress_smearing</text>
</a>
</g>
</g>
<!-- Node2&#45;&gt;Node29 -->
<g id="edge42" class="edge">
<title>Node2&#45;&gt;Node29</title>
<path fill="none" stroke="midnightblue" d="M941.93,-367.73C940.54,-366.57 939.23,-365.33 938,-364 881.72,-303.14 958.28,-241.86 902,-181 898.42,-177.13 894.13,-174.02 889.46,-171.53"/>
<polygon fill="midnightblue" stroke="midnightblue" points="940.28,-370.83 950.54,-373.47 944.16,-365.01 940.28,-370.83"/>
</g>
<!-- Node30 -->
<g id="node30" class="node">
<title>Node30</title>
<g id="a_node30"><a xlink:href="test__decmp_8c_a2cf11f635ba073b682cac0e4ef9dfdbc.html#a2cf11f635ba073b682cac0e4ef9dfdbc" target="_top" xlink:title=" ">
<polygon fill="white" stroke="black" points="779.5,-114.5 779.5,-133.5 886.5,-133.5 886.5,-114.5 779.5,-114.5"/>
<text text-anchor="middle" x="833" y="-121.5" font-family="Helvetica,sans-Serif" font-size="10.00">test_decode_multi</text>
</a>
</g>
</g>
<!-- Node2&#45;&gt;Node30 -->
<g id="edge44" class="edge">
<title>Node2&#45;&gt;Node30</title>
<path fill="none" stroke="midnightblue" d="M941.78,-367.7C940.44,-366.55 939.18,-365.32 938,-364 871.64,-289.84 968.36,-217.16 902,-143 897.75,-138.25 892.42,-134.65 886.63,-131.92"/>
<polygon fill="midnightblue" stroke="midnightblue" points="939.86,-370.63 950.09,-373.41 943.83,-364.86 939.86,-370.63"/>
</g>
<!-- Node31 -->
<g id="node31" class="node">
<title>Node31</title>
<g id="a_node31"><a xlink:href="test__decmp_8c_a7ada560b6c0070a378eeff45b9dae044.html#a7ada560b6c0070a378eeff45b9dae044" target="_top" xlink:title=" ">
<polygon fill="white" stroke="black" points="782,-76.5 782,-95.5 884,-95.5 884,-76.5 782,-76.5"/>
<text text-anchor="middle" x="833" y="-83.5" font-family="Helvetica,sans-Serif" font-size="10.00">test_decode_zero</text>
</a>
</g>
</g>
<!-- Node2&#45;&gt;Node31 -->
<g id="edge45" class="edge">
<title>Node2&#45;&gt;Node31</title>
<path fill="none" stroke="midnightblue" d="M941.74,-367.73C940.41,-366.58 939.16,-365.33 938,-364 861.52,-276.49 978.48,-192.51 902,-105 897.16,-99.46 890.85,-95.48 884.03,-92.62"/>
<polygon fill="midnightblue" stroke="midnightblue" points="939.79,-370.64 949.99,-373.49 943.79,-364.9 939.79,-370.64"/>
</g>
<!-- Node32 -->
<g id="node32" class="node">
<title>Node32</title>
<g id="a_node32"><a xlink:href="test__decmp_8c_a29cac1eb3ce172274827f3bb9481294c.html#a29cac1eb3ce172274827f3bb9481294c" target="_top" xlink:title=" ">
<polygon fill="white" stroke="black" points="766,-38.5 766,-57.5 900,-57.5 900,-38.5 766,-38.5"/>
<text text-anchor="middle" x="833" y="-45.5" font-family="Helvetica,sans-Serif" font-size="10.00">test_multi_refill_needed</text>
</a>
</g>
</g>
<!-- Node2&#45;&gt;Node32 -->
<g id="edge46" class="edge">
<title>Node2&#45;&gt;Node32</title>
<path fill="none" stroke="midnightblue" d="M941.26,-367.36C940.11,-366.31 939.02,-365.19 938,-364 851.38,-263.12 988.62,-167.88 902,-67 898.73,-63.19 894.76,-60.11 890.4,-57.63"/>
<polygon fill="midnightblue" stroke="midnightblue" points="939.44,-370.37 949.6,-373.37 943.54,-364.69 939.44,-370.37"/>
</g>
<!-- Node33 -->
<g id="node33" class="node">
<title>Node33</title>
<g id="a_node33"><a xlink:href="test__decmp_8c_a58e183d189a8362c6690c0a6205b6dcc.html#a58e183d189a8362c6690c0a6205b6dcc" target="_top" xlink:title=" ">
<polygon fill="white" stroke="black" points="768,-0.5 768,-19.5 898,-19.5 898,-0.5 768,-0.5"/>
<text text-anchor="middle" x="833" y="-7.5" font-family="Helvetica,sans-Serif" font-size="10.00">test_zero_refill_needed</text>
</a>
</g>
</g>
<!-- Node2&#45;&gt;Node33 -->
<g id="edge47" class="edge">
<title>Node2&#45;&gt;Node33</title>
<path fill="none" stroke="midnightblue" d="M941.24,-367.38C940.1,-366.32 939.01,-365.2 938,-364 841.22,-249.73 998.78,-143.27 902,-29 898.75,-25.16 894.8,-22.07 890.45,-19.58"/>
<polygon fill="midnightblue" stroke="midnightblue" points="939.4,-370.37 949.55,-373.42 943.52,-364.71 939.4,-370.37"/>
</g>
<!-- Node4 -->
<g id="node4" class="node">
<title>Node4</title>
<g id="a_node4"><a xlink:href="decmp_8c_a74c8bbd7b2130f44b6672e960475f4be.html#a74c8bbd7b2130f44b6672e960475f4be" target="_top" xlink:title="decompress the data based on a compression configuration">
<polygon fill="white" stroke="black" points="570,-458.5 570,-477.5 728,-477.5 728,-458.5 570,-458.5"/>
<text text-anchor="middle" x="649" y="-465.5" font-family="Helvetica,sans-Serif" font-size="10.00">decompressed_data_internal</text>
</a>
</g>
</g>
<!-- Node3&#45;&gt;Node4 -->
<g id="edge3" class="edge">
<title>Node3&#45;&gt;Node4</title>
<path fill="none" stroke="midnightblue" d="M770.4,-715.65C768.15,-714.24 766.01,-712.7 764,-711 686.1,-645.08 658.05,-514.11 651.57,-477.63"/>
<polygon fill="midnightblue" stroke="midnightblue" points="769.03,-718.89 779.51,-720.43 772.28,-712.69 769.03,-718.89"/>
</g>
<!-- Node5 -->
<g id="node5" class="node">
<title>Node5</title>
<g id="a_node5"><a xlink:href="decmp_8h_aefe0fa39fdc295432f5e2e0f91f0b87f.html#aefe0fa39fdc295432f5e2e0f91f0b87f" target="_top" xlink:title="decompress a compression entity">
<polygon fill="white" stroke="black" points="402,-499.5 402,-518.5 534,-518.5 534,-499.5 402,-499.5"/>
<text text-anchor="middle" x="468" y="-506.5" font-family="Helvetica,sans-Serif" font-size="10.00">decompress_cmp_entiy</text>
</a>
</g>
</g>
<!-- Node4&#45;&gt;Node5 -->
<g id="edge4" class="edge">
<title>Node4&#45;&gt;Node5</title>
<path fill="none" stroke="midnightblue" d="M596.72,-479.75C569.42,-486 536.28,-493.59 510.6,-499.47"/>
<polygon fill="midnightblue" stroke="midnightblue" points="597.52,-483.15 606.48,-477.51 595.95,-476.33 597.52,-483.15"/>
</g>
<!-- Node12 -->
<g id="node12" class="node">
<title>Node12</title>
<g id="a_node12"><a xlink:href="decmp_8h_aa89132cfd22be6ede8bc4344e9c3336a.html#aa89132cfd22be6ede8bc4344e9c3336a" target="_top" xlink:title="decompress RDCU compressed data without a compression entity header">
<polygon fill="white" stroke="black" points="403.5,-439.5 403.5,-458.5 532.5,-458.5 532.5,-439.5 403.5,-439.5"/>
<text text-anchor="middle" x="468" y="-446.5" font-family="Helvetica,sans-Serif" font-size="10.00">decompress_rdcu_data</text>
</a>
</g>
</g>
<!-- Node4&#45;&gt;Node12 -->
<g id="edge11" class="edge">
<title>Node4&#45;&gt;Node12</title>
<path fill="none" stroke="midnightblue" d="M559.52,-458.61C550.43,-457.64 541.33,-456.68 532.59,-455.75"/>
<polygon fill="midnightblue" stroke="midnightblue" points="559.43,-462.12 569.75,-459.69 560.17,-455.16 559.43,-462.12"/>
</g>
<!-- Node6 -->
<g id="node6" class="node">
<title>Node6</title>
<g id="a_node6"><a xlink:href="test__cmp__decmp_8c_a50ba26014079160ca77b7d7fa76ce0f4.html#a50ba26014079160ca77b7d7fa76ce0f4" target="_top" xlink:title="compress the given configuration and decompress it afterwards; finally compare the results">
<polygon fill="white" stroke="black" points="195,-594.5 195,-613.5 353,-613.5 353,-594.5 195,-594.5"/>
<text text-anchor="middle" x="274" y="-601.5" font-family="Helvetica,sans-Serif" font-size="10.00">compression_decompression</text>
</a>
</g>
</g>
<!-- Node5&#45;&gt;Node6 -->
<g id="edge5" class="edge">
<title>Node5&#45;&gt;Node6</title>
<path fill="none" stroke="midnightblue" d="M449.86,-525.71C430.92,-543.21 398.73,-570.17 366,-585 357.47,-588.86 348.14,-591.95 338.8,-594.42"/>
<polygon fill="midnightblue" stroke="midnightblue" points="452.49,-528.04 457.36,-518.63 447.69,-522.95 452.49,-528.04"/>
</g>
<!-- Node8 -->
<g id="node8" class="node">
<title>Node8</title>
<g id="a_node8"><a xlink:href="test__decmp_8c_a6e7a5e150e2c829836db3c42cdec2eec.html#a6e7a5e150e2c829836db3c42cdec2eec" target="_top" xlink:title=" ">
<polygon fill="white" stroke="black" points="182,-556.5 182,-575.5 366,-575.5 366,-556.5 182,-556.5"/>
<text text-anchor="middle" x="274" y="-563.5" font-family="Helvetica,sans-Serif" font-size="10.00">test_cmp_decmp_n_imagette_raw</text>
</a>
</g>
</g>
<!-- Node5&#45;&gt;Node8 -->
<g id="edge7" class="edge">
<title>Node5&#45;&gt;Node8</title>
<path fill="none" stroke="midnightblue" d="M435.08,-522.45C415.42,-530.38 389.55,-540.16 366,-547 353.76,-550.56 340.4,-553.73 327.79,-556.41"/>
<polygon fill="midnightblue" stroke="midnightblue" points="436.54,-525.64 444.47,-518.62 433.89,-519.16 436.54,-525.64"/>
</g>
<!-- Node9 -->
<g id="node9" class="node">
<title>Node9</title>
<g id="a_node9"><a xlink:href="test__decmp_8c_a1a33e2fcbf484c79dfe661b280386f6b.html#a1a33e2fcbf484c79dfe661b280386f6b" target="_top" xlink:title=" ">
<polygon fill="white" stroke="black" points="201,-518.5 201,-537.5 347,-537.5 347,-518.5 201,-518.5"/>
<text text-anchor="middle" x="274" y="-525.5" font-family="Helvetica,sans-Serif" font-size="10.00">test_cmp_decmp_s_fx_diff</text>
</a>
</g>
</g>
<!-- Node5&#45;&gt;Node9 -->
<g id="edge8" class="edge">
<title>Node5&#45;&gt;Node9</title>
<path fill="none" stroke="midnightblue" d="M391.94,-516.43C377.22,-517.88 361.81,-519.41 347.19,-520.86"/>
<polygon fill="midnightblue" stroke="midnightblue" points="392.39,-519.9 402,-515.43 391.7,-512.93 392.39,-519.9"/>
</g>
<!-- Node10 -->
<g id="node10" class="node">
<title>Node10</title>
<g id="a_node10"><a xlink:href="test__decmp_8c_acfebf2fa7515f5449e0cfa594457b66b.html#acfebf2fa7515f5449e0cfa594457b66b" target="_top" xlink:title=" ">
<polygon fill="white" stroke="black" points="233,-480.5 233,-499.5 315,-499.5 315,-480.5 233,-480.5"/>
<text text-anchor="middle" x="274" y="-487.5" font-family="Helvetica,sans-Serif" font-size="10.00">test_s_fx_diff</text>
</a>
</g>
</g>
<!-- Node5&#45;&gt;Node10 -->
<g id="edge9" class="edge">
<title>Node5&#45;&gt;Node10</title>
<path fill="none" stroke="midnightblue" d="M391.71,-501.55C365.54,-498.96 337.21,-496.16 315.02,-493.96"/>
<polygon fill="midnightblue" stroke="midnightblue" points="391.7,-505.07 402,-502.57 392.39,-498.1 391.7,-505.07"/>
</g>
<!-- Node11 -->
<g id="node11" class="node">
<title>Node11</title>
<g id="a_node11"><a xlink:href="test__decmp_8c_a953eeaad914985c0816dde26d47ffef0.html#a953eeaad914985c0816dde26d47ffef0" target="_top" xlink:title=" ">
<polygon fill="white" stroke="black" points="225.5,-442.5 225.5,-461.5 322.5,-461.5 322.5,-442.5 225.5,-442.5"/>
<text text-anchor="middle" x="274" y="-449.5" font-family="Helvetica,sans-Serif" font-size="10.00">test_s_fx_model</text>
</a>
</g>
</g>
<!-- Node5&#45;&gt;Node11 -->
<g id="edge10" class="edge">
<title>Node5&#45;&gt;Node11</title>
<path fill="none" stroke="midnightblue" d="M435.08,-495.55C415.42,-487.62 389.55,-477.84 366,-471 352.05,-466.95 336.66,-463.39 322.57,-460.49"/>
<polygon fill="midnightblue" stroke="midnightblue" points="433.89,-498.84 444.47,-499.38 436.54,-492.36 433.89,-498.84"/>
</g>
<!-- Node7 -->
<g id="node7" class="node">
<title>Node7</title>
<g id="a_node7"><a xlink:href="test__cmp__decmp_8c_af3c162694b40683e0aa25c61a49cdafc.html#af3c162694b40683e0aa25c61a49cdafc" target="_top" xlink:title="random compression decompression test">
<polygon fill="white" stroke="black" points="0,-589 0,-619 146,-619 146,-589 0,-589"/>
<text text-anchor="start" x="8" y="-607" font-family="Helvetica,sans-Serif" font-size="10.00">test_random_compression</text>
<text text-anchor="middle" x="73" y="-596" font-family="Helvetica,sans-Serif" font-size="10.00">_decompression</text>
</a>
</g>
</g>
<!-- Node6&#45;&gt;Node7 -->
<g id="edge6" class="edge">
<title>Node6&#45;&gt;Node7</title>
<path fill="none" stroke="midnightblue" d="M184.63,-604C171.72,-604 158.55,-604 146.01,-604"/>
<polygon fill="midnightblue" stroke="midnightblue" points="184.92,-607.5 194.92,-604 184.92,-600.5 184.92,-607.5"/>
</g>
<!-- Node13 -->
<g id="node13" class="node">
<title>Node13</title>
<g id="a_node13"><a xlink:href="test__cmp__decmp_8c_abb20ed18a3c6ba0fc67ecef2d629dec0.html#abb20ed18a3c6ba0fc67ecef2d629dec0" target="_top" xlink:title=" ">
<polygon fill="white" stroke="black" points="201,-393 201,-423 347,-423 347,-393 201,-393"/>
<text text-anchor="start" x="209" y="-411" font-family="Helvetica,sans-Serif" font-size="10.00">test_random_compression</text>
<text text-anchor="middle" x="274" y="-400" font-family="Helvetica,sans-Serif" font-size="10.00">_decompression2</text>
</a>
</g>
</g>
<!-- Node12&#45;&gt;Node13 -->
<g id="edge12" class="edge">
<title>Node12&#45;&gt;Node13</title>
<path fill="none" stroke="midnightblue" d="M412.54,-437.37C391.73,-432.93 367.7,-427.8 345.61,-423.08"/>
<polygon fill="midnightblue" stroke="midnightblue" points="411.96,-440.83 422.47,-439.49 413.42,-433.98 411.96,-440.83"/>
</g>
<!-- Node14&#45;&gt;Node4 -->
<g id="edge14" class="edge">
<title>Node14&#45;&gt;Node4</title>
<path fill="none" stroke="midnightblue" d="M773.6,-679.19C770.2,-677.39 766.97,-675.34 764,-673 695.26,-618.78 661.57,-511.04 652.55,-477.92"/>
<polygon fill="midnightblue" stroke="midnightblue" points="772.35,-682.47 782.91,-683.39 775.23,-676.08 772.35,-682.47"/>
</g>
<!-- Node15&#45;&gt;Node4 -->
<g id="edge16" class="edge">
<title>Node15&#45;&gt;Node4</title>
<path fill="none" stroke="midnightblue" d="M772.57,-640.22C769.57,-638.66 766.69,-636.93 764,-635 703.81,-591.83 665.39,-506.38 653.75,-477.66"/>
<polygon fill="midnightblue" stroke="midnightblue" points="771.29,-643.48 781.85,-644.38 774.16,-637.1 771.29,-643.48"/>
</g>
<!-- Node16&#45;&gt;Node4 -->
<g id="edge18" class="edge">
<title>Node16&#45;&gt;Node4</title>
<path fill="none" stroke="midnightblue" d="M773.71,-590.61C770.35,-588.87 767.08,-587 764,-585 716.17,-553.98 673.17,-499.55 656.9,-477.59"/>
<polygon fill="midnightblue" stroke="midnightblue" points="772.27,-593.8 782.8,-594.93 775.27,-587.48 772.27,-593.8"/>
</g>
<!-- Node17&#45;&gt;Node4 -->
<g id="edge20" class="edge">
<title>Node17&#45;&gt;Node4</title>
<path fill="none" stroke="midnightblue" d="M779.74,-553.34C774.33,-551.45 768.99,-549.35 764,-547 723.03,-527.75 680.75,-494.17 661.18,-477.69"/>
<polygon fill="midnightblue" stroke="midnightblue" points="778.9,-556.74 789.49,-556.48 781.05,-550.08 778.9,-556.74"/>
</g>
<!-- Node18&#45;&gt;Node4 -->
<g id="edge22" class="edge">
<title>Node18&#45;&gt;Node4</title>
<path fill="none" stroke="midnightblue" d="M769.56,-753.31C767.61,-751.99 765.75,-750.56 764,-749 677.02,-671.33 655.21,-517.7 650.91,-477.7"/>
<polygon fill="midnightblue" stroke="midnightblue" points="768.19,-756.55 778.63,-758.36 771.6,-750.43 768.19,-756.55"/>
</g>
<!-- Node19 -->
<g id="node19" class="node">
<title>Node19</title>
<g id="a_node19"><a xlink:href="test__decmp_8c_a86f0175a42bc3897a2544ead6d1e3d5a.html#a86f0175a42bc3897a2544ead6d1e3d5a" target="_top" xlink:title=" ">
<polygon fill="white" stroke="black" points="574.5,-753 574.5,-783 723.5,-783 723.5,-753 574.5,-753"/>
<text text-anchor="start" x="582.5" y="-771" font-family="Helvetica,sans-Serif" font-size="10.00">test_decompress_imagette</text>
<text text-anchor="middle" x="649" y="-760" font-family="Helvetica,sans-Serif" font-size="10.00">_model</text>
</a>
</g>
</g>
<!-- Node18&#45;&gt;Node19 -->
<g id="edge23" class="edge">
<title>Node18&#45;&gt;Node19</title>
<path fill="none" stroke="midnightblue" d="M760.35,-768C748.25,-768 735.67,-768 723.52,-768"/>
<polygon fill="midnightblue" stroke="midnightblue" points="760.38,-771.5 770.38,-768 760.38,-764.5 760.38,-771.5"/>
</g>
<!-- Node20&#45;&gt;Node4 -->
<g id="edge25" class="edge">
<title>Node20&#45;&gt;Node4</title>
<path fill="none" stroke="midnightblue" d="M786.21,-515.7C778.76,-513.56 771.15,-511.28 764,-509 733.14,-499.15 698.16,-486.32 675.18,-477.65"/>
<polygon fill="midnightblue" stroke="midnightblue" points="785.28,-519.07 795.86,-518.43 787.19,-512.34 785.28,-519.07"/>
</g>
<!-- Node21&#45;&gt;Node4 -->
<g id="edge27" class="edge">
<title>Node21&#45;&gt;Node4</title>
<path fill="none" stroke="midnightblue" d="M762.66,-481.62C751.33,-480.25 739.53,-478.82 728.01,-477.43"/>
<polygon fill="midnightblue" stroke="midnightblue" points="762.56,-485.13 772.91,-482.86 763.4,-478.18 762.56,-485.13"/>
</g>
<!-- Node22&#45;&gt;Node4 -->
<g id="edge29" class="edge">
<title>Node22&#45;&gt;Node4</title>
<path fill="none" stroke="midnightblue" d="M762.66,-454.38C751.33,-455.75 739.53,-457.18 728.01,-458.57"/>
<polygon fill="midnightblue" stroke="midnightblue" points="763.4,-457.82 772.91,-453.14 762.56,-450.87 763.4,-457.82"/>
</g>
<!-- Node23&#45;&gt;Node4 -->
<g id="edge31" class="edge">
<title>Node23&#45;&gt;Node4</title>
<path fill="none" stroke="midnightblue" d="M787.43,-414.43C779.58,-416.81 771.52,-419.38 764,-422 731.55,-433.29 694.82,-448.57 672.04,-458.36"/>
<polygon fill="midnightblue" stroke="midnightblue" points="788.61,-417.73 797.2,-411.53 786.62,-411.02 788.61,-417.73"/>
</g>
<!-- Node24&#45;&gt;Node4 -->
<g id="edge33" class="edge">
<title>Node24&#45;&gt;Node4</title>
<path fill="none" stroke="midnightblue" d="M778.81,-376.79C773.71,-378.63 768.69,-380.69 764,-383 721.68,-403.79 679.05,-440.87 660.13,-458.36"/>
<polygon fill="midnightblue" stroke="midnightblue" points="780.28,-379.99 788.67,-373.52 778.08,-373.35 780.28,-379.99"/>
</g>
<!-- Node25&#45;&gt;Node4 -->
<g id="edge35" class="edge">
<title>Node25&#45;&gt;Node4</title>
<path fill="none" stroke="midnightblue" d="M774.89,-339.37C771.1,-341.03 767.43,-342.9 764,-345 713.55,-375.79 671.43,-435.09 656.15,-458.33"/>
<polygon fill="midnightblue" stroke="midnightblue" points="776.45,-342.52 784.5,-335.62 773.91,-335.99 776.45,-342.52"/>
</g>
<!-- Node26&#45;&gt;Node4 -->
<g id="edge37" class="edge">
<title>Node26&#45;&gt;Node4</title>
<path fill="none" stroke="midnightblue" d="M773.06,-301.6C769.89,-303.21 766.84,-305 764,-307 705.2,-348.41 666.16,-430.22 654.02,-458.28"/>
<polygon fill="midnightblue" stroke="midnightblue" points="774.51,-304.79 782.26,-297.57 771.7,-298.38 774.51,-304.79"/>
</g>
<!-- Node27&#45;&gt;Node4 -->
<g id="edge39" class="edge">
<title>Node27&#45;&gt;Node4</title>
<path fill="none" stroke="midnightblue" d="M770.26,-264.31C768.07,-265.77 765.98,-267.33 764,-269 698.91,-323.99 662.98,-426.1 652.94,-458.13"/>
<polygon fill="midnightblue" stroke="midnightblue" points="772.2,-267.23 779.06,-259.15 768.67,-261.18 772.2,-267.23"/>
</g>
<!-- Node28&#45;&gt;Node4 -->
<g id="edge41" class="edge">
<title>Node28&#45;&gt;Node4</title>
<path fill="none" stroke="midnightblue" d="M772.14,-214.16C769.25,-215.89 766.51,-217.83 764,-220 685.32,-288.03 657.76,-421.72 651.49,-458.46"/>
<polygon fill="midnightblue" stroke="midnightblue" points="773.85,-217.22 781.19,-209.59 770.69,-210.98 773.85,-217.22"/>
</g>
<!-- Node29&#45;&gt;Node4 -->
<g id="edge43" class="edge">
<title>Node29&#45;&gt;Node4</title>
<path fill="none" stroke="midnightblue" d="M769.55,-176.68C767.6,-178 765.74,-179.43 764,-181 675.51,-260.6 654.77,-417.97 650.82,-458.37"/>
<polygon fill="midnightblue" stroke="midnightblue" points="771.58,-179.55 778.6,-171.61 768.16,-173.44 771.58,-179.55"/>
</g>
</g>
</svg>
        <g id="navigator" transform="translate(0 0)" fill="#404254">
                <rect fill="#f2f5e9" fill-opacity="0.5" stroke="#606060" stroke-width=".5" x="0" y="0" width="60" height="60"/>
                <use id="zoomplus" xlink:href="#zoomPlus" x="17" y="9" onmousedown="handleZoom(evt,'in')"/>
                <use id="zoomminus" xlink:href="#zoomMin" x="42" y="9" onmousedown="handleZoom(evt,'out')"/>
                <use id="reset" xlink:href="#resetDef" x="30" y="36" onmousedown="handleReset()"/>
                <g id="arrowUp" xlink:href="#dirArrow" transform="translate(30 24)" onmousedown="handlePan(0,-1)">
                  <use xlink:href="#rim" fill="#404040">
                        <set attributeName="fill" to="#808080" begin="arrowUp.mouseover" end="arrowUp.mouseout"/>
                  </use>
                  <path fill="none" stroke="white" stroke-width="1.5" d="M0,-3.0v7 M-2.5,-0.5L0,-3.0L2.5,-0.5"/>
                </g>
                <g id="arrowRight" xlink:href="#dirArrow" transform="rotate(90) translate(36 -43)" onmousedown="handlePan(1,0)">
                  <use xlink:href="#rim" fill="#404040">
                        <set attributeName="fill" to="#808080" begin="arrowRight.mouseover" end="arrowRight.mouseout"/>
                  </use>
                  <path fill="none" stroke="white" stroke-width="1.5" d="M0,-3.0v7 M-2.5,-0.5L0,-3.0L2.5,-0.5"/>
                </g>
                <g id="arrowDown" xlink:href="#dirArrow" transform="rotate(180) translate(-30 -48)" onmousedown="handlePan(0,1)">
                  <use xlink:href="#rim" fill="#404040">
                        <set attributeName="fill" to="#808080" begin="arrowDown.mouseover" end="arrowDown.mouseout"/>
                  </use>
                  <path fill="none" stroke="white" stroke-width="1.5" d="M0,-3.0v7 M-2.5,-0.5L0,-3.0L2.5,-0.5"/>
                </g>
                <g id="arrowLeft" xlink:href="#dirArrow" transform="rotate(270) translate(-36 17)" onmousedown="handlePan(-1,0)">
                  <use xlink:href="#rim" fill="#404040">
                        <set attributeName="fill" to="#808080" begin="arrowLeft.mouseover" end="arrowLeft.mouseout"/>
                  </use>
                  <path fill="none" stroke="white" stroke-width="1.5" d="M0,-3.0v7 M-2.5,-0.5L0,-3.0L2.5,-0.5"/>
                </g>
        </g>
        <svg viewBox="0 0 15 15" width="100%" height="30px" preserveAspectRatio="xMaxYMin meet">
         <g id="arrow_out" transform="scale(0.3 0.3)">
          <a xlink:href="cmp__support_8c_a82a852e0723978f5d5f4f5dbb756fa8f_a82a852e0723978f5d5f4f5dbb756fa8f_icgraph_org.svg" target="_base">
           <rect id="button" ry="5" rx="5" y="6" x="6" height="38" width="38"
                fill="#f2f5e9" fill-opacity="0.5" stroke="#606060" stroke-width="1.0"/>
           <path id="arrow"
             d="M 11.500037,31.436501 C 11.940474,20.09759 22.043105,11.32322 32.158766,21.979434 L 37.068811,17.246167 C 37.068811,17.246167 37.088388,32 37.088388,32 L 22.160133,31.978069 C 22.160133,31.978069 26.997745,27.140456 26.997745,27.140456 C 18.528582,18.264221 13.291696,25.230495 11.500037,31.436501 z"
             style="fill:#404040;"/>
          </a>
         </g>
        </svg>
</svg>
