<?xml version="1.0" encoding="UTF-8" standalone="no"?>
<!DOCTYPE svg PUBLIC "-//W3C//DTD SVG 1.1//EN"
 "http://www.w3.org/Graphics/SVG/1.1/DTD/svg11.dtd">
<!-- Generated by graphviz version 2.43.0 (0)
 -->
<!-- Title: cmp_data_types.h Pages: 1 -->
<svg width="402pt" height="196pt"
 viewBox="0.00 0.00 401.50 196.00" xmlns="http://www.w3.org/2000/svg" xmlns:xlink="http://www.w3.org/1999/xlink">
<g id="graph0" class="graph" transform="scale(1 1) rotate(0) translate(4 192)">
<title>cmp_data_types.h</title>
<polygon fill="white" stroke="transparent" points="-4,4 -4,-192 397.5,-192 397.5,4 -4,4"/>
<!-- Node1 -->
<g id="node1" class="node">
<title>Node1</title>
<g id="a_node1"><a xlink:title="definition of the different compression data types">
<polygon fill="#bfbfbf" stroke="black" points="0,-168.5 0,-187.5 106,-187.5 106,-168.5 0,-168.5"/>
<text text-anchor="middle" x="53" y="-175.5" font-family="Helvetica,sans-Serif" font-size="10.00">cmp_data_types.h</text>
</a>
</g>
</g>
<!-- Node2 -->
<g id="node2" class="node">
<title>Node2</title>
<g id="a_node2"><a xlink:title=" ">
<polygon fill="white" stroke="#bfbfbf" points="84.5,-0.5 84.5,-19.5 137.5,-19.5 137.5,-0.5 84.5,-0.5"/>
<text text-anchor="middle" x="111" y="-7.5" font-family="Helvetica,sans-Serif" font-size="10.00">stdint.h</text>
</a>
</g>
</g>
<!-- Node1&#45;&gt;Node2 -->
<g id="edge1" class="edge">
<title>Node1&#45;&gt;Node2</title>
<path fill="none" stroke="midnightblue" d="M40.5,-168.3C30.13,-160.25 16.11,-147.24 10,-132 6.69,-123.75 7.78,-120.61 10,-112 17.12,-84.46 21.56,-76.77 41,-56 53.03,-43.15 69.48,-32.33 83.4,-24.53"/>
<polygon fill="midnightblue" stroke="midnightblue" points="85.39,-27.43 92.55,-19.62 82.09,-21.26 85.39,-27.43"/>
</g>
<!-- Node3 -->
<g id="node3" class="node">
<title>Node3</title>
<g id="a_node3"><a xlink:href="compiler_8h.html" target="_top" xlink:title="a collection of preprocessor macros">
<polygon fill="white" stroke="black" points="19,-112.5 19,-131.5 87,-131.5 87,-112.5 19,-112.5"/>
<text text-anchor="middle" x="53" y="-119.5" font-family="Helvetica,sans-Serif" font-size="10.00">compiler.h</text>
</a>
</g>
</g>
<!-- Node1&#45;&gt;Node3 -->
<g id="edge2" class="edge">
<title>Node1&#45;&gt;Node3</title>
<path fill="none" stroke="midnightblue" d="M53,-168.08C53,-161.01 53,-150.86 53,-141.99"/>
<polygon fill="midnightblue" stroke="midnightblue" points="56.5,-141.75 53,-131.75 49.5,-141.75 56.5,-141.75"/>
</g>
<!-- Node4 -->
<g id="node4" class="node">
<title>Node4</title>
<g id="a_node4"><a xlink:href="cmp__support_8h.html" target="_top" xlink:title="compression/decompression helper functions">
<polygon fill="white" stroke="black" points="105.5,-112.5 105.5,-131.5 248.5,-131.5 248.5,-112.5 105.5,-112.5"/>
<text text-anchor="middle" x="177" y="-119.5" font-family="Helvetica,sans-Serif" font-size="10.00">../common/cmp_support.h</text>
</a>
</g>
</g>
<!-- Node1&#45;&gt;Node4 -->
<g id="edge3" class="edge">
<title>Node1&#45;&gt;Node4</title>
<path fill="none" stroke="midnightblue" d="M72.65,-168.44C92.96,-159.6 124.9,-145.69 148.1,-135.59"/>
<polygon fill="midnightblue" stroke="midnightblue" points="149.67,-138.72 157.44,-131.52 146.88,-132.3 149.67,-138.72"/>
</g>
<!-- Node4&#45;&gt;Node2 -->
<g id="edge4" class="edge">
<title>Node4&#45;&gt;Node2</title>
<path fill="none" stroke="midnightblue" d="M105.96,-112.49C83.74,-106.1 61.53,-95.05 48,-76 34,-56.29 59.57,-36.8 82.21,-24.38"/>
<polygon fill="midnightblue" stroke="midnightblue" points="84.02,-27.38 91.29,-19.67 80.8,-21.17 84.02,-27.38"/>
</g>
<!-- Node5 -->
<g id="node5" class="node">
<title>Node5</title>
<g id="a_node5"><a xlink:title=" ">
<polygon fill="white" stroke="#bfbfbf" points="57,-56.5 57,-75.5 113,-75.5 113,-56.5 57,-56.5"/>
<text text-anchor="middle" x="85" y="-63.5" font-family="Helvetica,sans-Serif" font-size="10.00">stddef.h</text>
</a>
</g>
</g>
<!-- Node4&#45;&gt;Node5 -->
<g id="edge5" class="edge">
<title>Node4&#45;&gt;Node5</title>
<path fill="none" stroke="midnightblue" d="M162.22,-112.32C147.73,-103.82 125.43,-90.73 108.51,-80.8"/>
<polygon fill="midnightblue" stroke="midnightblue" points="110.14,-77.7 99.74,-75.65 106.6,-83.74 110.14,-77.7"/>
</g>
<!-- Node6 -->
<g id="node6" class="node">
<title>Node6</title>
<g id="a_node6"><a xlink:href="cmp__max__used__bits_8h.html" target="_top" xlink:title="definition and consents of the cmp_max_used_bits structure">
<polygon fill="white" stroke="black" points="131.5,-56.5 131.5,-75.5 256.5,-75.5 256.5,-56.5 131.5,-56.5"/>
<text text-anchor="middle" x="194" y="-63.5" font-family="Helvetica,sans-Serif" font-size="10.00">cmp_max_used_bits.h</text>
</a>
</g>
</g>
<!-- Node4&#45;&gt;Node6 -->
<g id="edge6" class="edge">
<title>Node4&#45;&gt;Node6</title>
<path fill="none" stroke="midnightblue" d="M179.81,-112.08C182.08,-104.85 185.37,-94.41 188.21,-85.4"/>
<polygon fill="midnightblue" stroke="midnightblue" points="191.58,-86.34 191.25,-75.75 184.9,-84.24 191.58,-86.34"/>
</g>
<!-- Node7 -->
<g id="node7" class="node">
<title>Node7</title>
<g id="a_node7"><a xlink:href="cmp__cal__up__model_8h.html" target="_top" xlink:title="functions to calculate the update (new) model">
<polygon fill="white" stroke="black" points="274.5,-56.5 274.5,-75.5 393.5,-75.5 393.5,-56.5 274.5,-56.5"/>
<text text-anchor="middle" x="334" y="-63.5" font-family="Helvetica,sans-Serif" font-size="10.00">cmp_cal_up_model.h</text>
</a>
</g>
</g>
<!-- Node4&#45;&gt;Node7 -->
<g id="edge8" class="edge">
<title>Node4&#45;&gt;Node7</title>
<path fill="none" stroke="midnightblue" d="M201.88,-112.44C228.29,-103.36 270.22,-88.94 299.74,-78.78"/>
<polygon fill="midnightblue" stroke="midnightblue" points="300.92,-82.08 309.24,-75.52 298.64,-75.46 300.92,-82.08"/>
</g>
<!-- Node6&#45;&gt;Node2 -->
<g id="edge7" class="edge">
<title>Node6&#45;&gt;Node2</title>
<path fill="none" stroke="midnightblue" d="M180.66,-56.32C167.84,-47.98 148.22,-35.21 133.06,-25.35"/>
<polygon fill="midnightblue" stroke="midnightblue" points="134.59,-22.17 124.3,-19.65 130.78,-28.04 134.59,-22.17"/>
</g>
<!-- Node7&#45;&gt;Node2 -->
<g id="edge9" class="edge">
<title>Node7&#45;&gt;Node2</title>
<path fill="none" stroke="midnightblue" d="M298.66,-56.44C257.37,-46.44 189.36,-29.98 147.55,-19.85"/>
<polygon fill="midnightblue" stroke="midnightblue" points="148.31,-16.43 137.77,-17.48 146.67,-23.24 148.31,-16.43"/>
</g>
</g>
</svg>
