<?xml version="1.0" encoding="UTF-8" standalone="no"?>
<!DOCTYPE svg PUBLIC "-//W3C//DTD SVG 1.1//EN"
 "http://www.w3.org/Graphics/SVG/1.1/DTD/svg11.dtd">
<!-- Generated by graphviz version 2.43.0 (0)
 -->
<!-- Title: cmp_aux_data_type_is_used Pages: 1 -->
<!--zoomable 1453 -->
<svg id="main" version="1.1" xmlns="http://www.w3.org/2000/svg" xmlns:xlink="http://www.w3.org/1999/xlink" xml:space="preserve" onload="init(evt)">
<style type="text/css"><![CDATA[
.edge:hover path { stroke: red; }
.edge:hover polygon { stroke: red; fill: red; }
]]></style>
<script type="text/javascript"><![CDATA[
var edges = document.getElementsByTagName('g');
if (edges && edges.length) {
  for (var i=0;i<edges.length;i++) {
    if (edges[i].id.substr(0,4)=='edge') {
      edges[i].setAttribute('class','edge');
    }
  }
}
]]></script>
        <defs>
                <circle id="rim" cx="0" cy="0" r="7"/>
                <circle id="rim2" cx="0" cy="0" r="3.5"/>
                <g id="zoomPlus">
                        <use xlink:href="#rim" fill="#404040">
                                <set attributeName="fill" to="#808080" begin="zoomplus.mouseover" end="zoomplus.mouseout"/>
                        </use>
                        <path d="M-4,0h8M0,-4v8" fill="none" stroke="white" stroke-width="1.5" pointer-events="none"/>
                </g>
                <g id="zoomMin">
                        <use xlink:href="#rim" fill="#404040">
                                <set attributeName="fill" to="#808080" begin="zoomminus.mouseover" end="zoomminus.mouseout"/>
                        </use>
                        <path d="M-4,0h8" fill="none" stroke="white" stroke-width="1.5" pointer-events="none"/>
                </g>
                <g id="dirArrow">
                        <path fill="none" stroke="white" stroke-width="1.5" d="M0,-3.0v7 M-2.5,-0.5L0,-3.0L2.5,-0.5"/>
                </g>
               <g id="resetDef">
                       <use xlink:href="#rim2" fill="#404040">
                               <set attributeName="fill" to="#808080" begin="reset.mouseover" end="reset.mouseout"/>
                       </use>
               </g>
        </defs>

<script type="text/javascript">
var viewWidth = 1098;
var viewHeight = 1453;
var sectionId = 'dynsection-0';
</script>
<script xlink:href="svgpan.js"/>
<svg id="graph" class="graph">
<g id="viewport">
<title>cmp_aux_data_type_is_used</title>
<polygon fill="white" stroke="transparent" points="-4,4 -4,-1448.5 1094,-1448.5 1094,4 -4,4"/>
<!-- Node1 -->
<g id="node1" class="node">
<title>Node1</title>
<g id="a_node1"><a xlink:title="check if an auxiliary science compression data type is used">
<polygon fill="#bfbfbf" stroke="black" points="933,-1133 933,-1152 1090,-1152 1090,-1133 933,-1133"/>
<text text-anchor="middle" x="1011.5" y="-1140" font-family="Helvetica,sans-Serif" font-size="10.00">cmp_aux_data_type_is_used</text>
</a>
</g>
</g>
<!-- Node2 -->
<g id="node2" class="node">
<title>Node2</title>
<g id="a_node2"><a xlink:href="cmp__support_8c_aa74762a714e9924a221e698601c5d0dc.html#aa74762a714e9924a221e698601c5d0dc" target="_top" xlink:title="check if the auxiliary science specific compression parameters are invalid">
<polygon fill="white" stroke="black" points="764,-1133 764,-1152 897,-1152 897,-1133 764,-1133"/>
<text text-anchor="middle" x="830.5" y="-1140" font-family="Helvetica,sans-Serif" font-size="10.00">cmp_cfg_aux_is_invalid</text>
</a>
</g>
</g>
<!-- Node1&#45;&gt;Node2 -->
<g id="edge1" class="edge">
<title>Node1&#45;&gt;Node2</title>
<path fill="none" stroke="midnightblue" d="M922.69,-1142.5C914.08,-1142.5 905.45,-1142.5 897.12,-1142.5"/>
<polygon fill="midnightblue" stroke="midnightblue" points="922.77,-1146 932.77,-1142.5 922.77,-1139 922.77,-1146"/>
</g>
<!-- Node8 -->
<g id="node8" class="node">
<title>Node8</title>
<g id="a_node8"><a xlink:href="cmp__support_8c_ac899115007a8c1aa9d82c1872b873655.html#ac899115007a8c1aa9d82c1872b873655" target="_top" xlink:title="check if a compression configuration is invalid for a ICU compression">
<polygon fill="white" stroke="black" points="584.5,-1067 584.5,-1086 713.5,-1086 713.5,-1067 584.5,-1067"/>
<text text-anchor="middle" x="649" y="-1074" font-family="Helvetica,sans-Serif" font-size="10.00">cmp_cfg_icu_is_invalid</text>
</a>
</g>
</g>
<!-- Node1&#45;&gt;Node8 -->
<g id="edge50" class="edge">
<title>Node1&#45;&gt;Node8</title>
<path fill="none" stroke="midnightblue" d="M948.51,-1131.15C878.93,-1118.41 767.24,-1097.96 702.02,-1086.02"/>
<polygon fill="midnightblue" stroke="midnightblue" points="948,-1134.62 958.47,-1132.97 949.26,-1127.73 948,-1134.62"/>
</g>
<!-- Node38 -->
<g id="node38" class="node">
<title>Node38</title>
<g id="a_node38"><a xlink:href="decmp_8c_a74c8bbd7b2130f44b6672e960475f4be.html#a74c8bbd7b2130f44b6672e960475f4be" target="_top" xlink:title="decompress the data based on a compression configuration">
<polygon fill="white" stroke="black" points="570,-1184 570,-1203 728,-1203 728,-1184 570,-1184"/>
<text text-anchor="middle" x="649" y="-1191" font-family="Helvetica,sans-Serif" font-size="10.00">decompressed_data_internal</text>
</a>
</g>
</g>
<!-- Node1&#45;&gt;Node38 -->
<g id="edge51" class="edge">
<title>Node1&#45;&gt;Node38</title>
<path fill="none" stroke="midnightblue" d="M945.73,-1153.77C929.81,-1156.42 912.81,-1159.15 897,-1161.5 840.65,-1169.86 776.88,-1178.09 728.25,-1184.11"/>
<polygon fill="midnightblue" stroke="midnightblue" points="946.73,-1157.15 956.01,-1152.04 945.57,-1150.25 946.73,-1157.15"/>
</g>
<!-- Node3 -->
<g id="node3" class="node">
<title>Node3</title>
<g id="a_node3"><a xlink:href="cmp__icu_8h_ae5690b295fb1aef36d656288fdee8304.html#ae5690b295fb1aef36d656288fdee8304" target="_top" xlink:title="set up the configuration parameters for an auxiliary science data compression">
<polygon fill="white" stroke="black" points="427.5,-1142 427.5,-1161 508.5,-1161 508.5,-1142 427.5,-1142"/>
<text text-anchor="middle" x="468" y="-1149" font-family="Helvetica,sans-Serif" font-size="10.00">cmp_cfg_aux</text>
</a>
</g>
</g>
<!-- Node2&#45;&gt;Node3 -->
<g id="edge2" class="edge">
<title>Node2&#45;&gt;Node3</title>
<path fill="none" stroke="midnightblue" d="M753.49,-1144.4C678.68,-1146.27 567.35,-1149.04 508.61,-1150.51"/>
<polygon fill="midnightblue" stroke="midnightblue" points="753.89,-1147.89 763.8,-1144.14 753.71,-1140.89 753.89,-1147.89"/>
</g>
<!-- Node2&#45;&gt;Node8 -->
<g id="edge7" class="edge">
<title>Node2&#45;&gt;Node8</title>
<path fill="none" stroke="midnightblue" d="M798.73,-1128.88C778.75,-1120.26 752.06,-1109.16 728,-1100.5 713.6,-1095.32 697.47,-1090.24 683.63,-1086.09"/>
<polygon fill="midnightblue" stroke="midnightblue" points="797.38,-1132.12 807.95,-1132.89 800.17,-1125.7 797.38,-1132.12"/>
</g>
<!-- Node37 -->
<g id="node37" class="node">
<title>Node37</title>
<g id="a_node37"><a xlink:href="test__cmp__icu_8c_aaa89e321d2d9f70cb59536438f4b6dff.html#aaa89e321d2d9f70cb59536438f4b6dff" target="_top" xlink:title=" ">
<polygon fill="white" stroke="black" points="407,-1076.5 407,-1106.5 529,-1106.5 529,-1076.5 407,-1076.5"/>
<text text-anchor="start" x="415" y="-1094.5" font-family="Helvetica,sans-Serif" font-size="10.00">test_support_function</text>
<text text-anchor="middle" x="468" y="-1083.5" font-family="Helvetica,sans-Serif" font-size="10.00">_call_NULL</text>
</a>
</g>
</g>
<!-- Node2&#45;&gt;Node37 -->
<g id="edge49" class="edge">
<title>Node2&#45;&gt;Node37</title>
<path fill="none" stroke="midnightblue" d="M753.75,-1131.78C686.92,-1122.33 590.83,-1108.74 529.16,-1100.01"/>
<polygon fill="midnightblue" stroke="midnightblue" points="753.41,-1135.27 763.8,-1133.21 754.39,-1128.34 753.41,-1135.27"/>
</g>
<!-- Node2&#45;&gt;Node38 -->
<g id="edge40" class="edge">
<title>Node2&#45;&gt;Node38</title>
<path fill="none" stroke="midnightblue" d="M785.91,-1154.88C754.42,-1163.83 712.52,-1175.74 683.61,-1183.95"/>
<polygon fill="midnightblue" stroke="midnightblue" points="787.07,-1158.19 795.74,-1152.09 785.16,-1151.46 787.07,-1158.19"/>
</g>
<!-- Node4 -->
<g id="node4" class="node">
<title>Node4</title>
<g id="a_node4"><a xlink:href="test__cmp__icu_8c_aed9881c4fba85b79a035d585f4f47774.html#aed9881c4fba85b79a035d585f4f47774" target="_top" xlink:title=" ">
<polygon fill="white" stroke="black" points="221.5,-1311 221.5,-1330 326.5,-1330 326.5,-1311 221.5,-1311"/>
<text text-anchor="middle" x="274" y="-1318" font-family="Helvetica,sans-Serif" font-size="10.00">test_cmp_cfg_aux</text>
</a>
</g>
</g>
<!-- Node3&#45;&gt;Node4 -->
<g id="edge3" class="edge">
<title>Node3&#45;&gt;Node4</title>
<path fill="none" stroke="midnightblue" d="M417.85,-1164.56C411.95,-1167.73 406.45,-1171.65 402,-1176.5 362.93,-1219.11 408.38,-1262.17 366,-1301.5 355.35,-1311.38 340.95,-1316.66 326.74,-1319.36"/>
<polygon fill="midnightblue" stroke="midnightblue" points="419.74,-1167.55 427.36,-1160.19 416.81,-1161.19 419.74,-1167.55"/>
</g>
<!-- Node5 -->
<g id="node5" class="node">
<title>Node5</title>
<g id="a_node5"><a xlink:href="test__cmp__icu_8c_aca32c7d039600004c9cc5c6fe19b8ec5.html#aca32c7d039600004c9cc5c6fe19b8ec5" target="_top" xlink:title=" ">
<polygon fill="white" stroke="black" points="199,-1136.5 199,-1166.5 349,-1166.5 349,-1136.5 199,-1136.5"/>
<text text-anchor="start" x="207" y="-1154.5" font-family="Helvetica,sans-Serif" font-size="10.00">test_compress_background</text>
<text text-anchor="middle" x="274" y="-1143.5" font-family="Helvetica,sans-Serif" font-size="10.00">_error_cases</text>
</a>
</g>
</g>
<!-- Node3&#45;&gt;Node5 -->
<g id="edge4" class="edge">
<title>Node3&#45;&gt;Node5</title>
<path fill="none" stroke="midnightblue" d="M417.08,-1151.5C396.4,-1151.5 371.98,-1151.5 349.26,-1151.5"/>
<polygon fill="midnightblue" stroke="midnightblue" points="417.22,-1155 427.22,-1151.5 417.22,-1148 417.22,-1155"/>
</g>
<!-- Node6 -->
<g id="node6" class="node">
<title>Node6</title>
<g id="a_node6"><a xlink:href="test__cmp__icu_8c_a13bf5ba0481601697942a0a485f7631c.html#a13bf5ba0481601697942a0a485f7631c" target="_top" xlink:title=" ">
<polygon fill="white" stroke="black" points="213.5,-1087.5 213.5,-1117.5 334.5,-1117.5 334.5,-1087.5 213.5,-1087.5"/>
<text text-anchor="start" x="221.5" y="-1105.5" font-family="Helvetica,sans-Serif" font-size="10.00">test_compress_offset</text>
<text text-anchor="middle" x="274" y="-1094.5" font-family="Helvetica,sans-Serif" font-size="10.00">_error_cases</text>
</a>
</g>
</g>
<!-- Node3&#45;&gt;Node6 -->
<g id="edge5" class="edge">
<title>Node3&#45;&gt;Node6</title>
<path fill="none" stroke="midnightblue" d="M419.58,-1139.4C393.7,-1132.79 361.41,-1124.55 333.92,-1117.54"/>
<polygon fill="midnightblue" stroke="midnightblue" points="418.97,-1142.85 429.52,-1141.94 420.7,-1136.07 418.97,-1142.85"/>
</g>
<!-- Node7 -->
<g id="node7" class="node">
<title>Node7</title>
<g id="a_node7"><a xlink:href="test__cmp__icu_8c_aee4858f3ea226c6da9e4a9ed54475b1d.html#aee4858f3ea226c6da9e4a9ed54475b1d" target="_top" xlink:title=" ">
<polygon fill="white" stroke="black" points="204.5,-1038.5 204.5,-1068.5 343.5,-1068.5 343.5,-1038.5 204.5,-1038.5"/>
<text text-anchor="start" x="212.5" y="-1056.5" font-family="Helvetica,sans-Serif" font-size="10.00">test_compress_smearing</text>
<text text-anchor="middle" x="274" y="-1045.5" font-family="Helvetica,sans-Serif" font-size="10.00">_error_cases</text>
</a>
</g>
</g>
<!-- Node3&#45;&gt;Node7 -->
<g id="edge6" class="edge">
<title>Node3&#45;&gt;Node7</title>
<path fill="none" stroke="midnightblue" d="M436.91,-1137.3C425.49,-1131.3 412.68,-1123.77 402,-1115.5 383.61,-1101.25 386.01,-1089.36 366,-1077.5 359.11,-1073.42 351.53,-1070.02 343.77,-1067.19"/>
<polygon fill="midnightblue" stroke="midnightblue" points="435.59,-1140.56 446.09,-1141.98 438.77,-1134.32 435.59,-1140.56"/>
</g>
<!-- Node9 -->
<g id="node9" class="node">
<title>Node9</title>
<g id="a_node9"><a xlink:href="cmp__icu_8h_a08bf8ccacb449aba08db5e51d532d834.html#a08bf8ccacb449aba08db5e51d532d834" target="_top" xlink:title="compress data on the ICU in software">
<polygon fill="white" stroke="black" points="413,-667 413,-686 523,-686 523,-667 413,-667"/>
<text text-anchor="middle" x="468" y="-674" font-family="Helvetica,sans-Serif" font-size="10.00">icu_compress_data</text>
</a>
</g>
</g>
<!-- Node8&#45;&gt;Node9 -->
<g id="edge8" class="edge">
<title>Node8&#45;&gt;Node9</title>
<path fill="none" stroke="midnightblue" d="M639.48,-1057.45C607.66,-986.36 496.49,-737.92 473.27,-686.04"/>
<polygon fill="midnightblue" stroke="midnightblue" points="636.3,-1058.91 643.58,-1066.61 642.69,-1056.05 636.3,-1058.91"/>
</g>
<!-- Node8&#45;&gt;Node37 -->
<g id="edge39" class="edge">
<title>Node8&#45;&gt;Node37</title>
<path fill="none" stroke="midnightblue" d="M574.13,-1082.69C559.14,-1083.95 543.55,-1085.25 529.11,-1086.46"/>
<polygon fill="midnightblue" stroke="midnightblue" points="574.71,-1086.15 584.39,-1081.83 574.13,-1079.18 574.71,-1086.15"/>
</g>
<!-- Node9&#45;&gt;Node5 -->
<g id="edge14" class="edge">
<title>Node9&#45;&gt;Node5</title>
<path fill="none" stroke="midnightblue" d="M465.24,-696.22C457.87,-774.55 426.97,-1062.58 366,-1126.5 361.14,-1131.6 355.34,-1135.69 349.06,-1138.97"/>
<polygon fill="midnightblue" stroke="midnightblue" points="468.73,-696.51 466.16,-686.23 461.76,-695.87 468.73,-696.51"/>
</g>
<!-- Node9&#45;&gt;Node6 -->
<g id="edge28" class="edge">
<title>Node9&#45;&gt;Node6</title>
<path fill="none" stroke="midnightblue" d="M464.64,-696.36C455.59,-769.37 420.82,-1021.5 366,-1077.5 357.52,-1086.16 346.34,-1091.91 334.73,-1095.7"/>
<polygon fill="midnightblue" stroke="midnightblue" points="468.14,-696.59 465.87,-686.24 461.19,-695.75 468.14,-696.59"/>
</g>
<!-- Node9&#45;&gt;Node7 -->
<g id="edge36" class="edge">
<title>Node9&#45;&gt;Node7</title>
<path fill="none" stroke="midnightblue" d="M467.57,-696.22C468.17,-755.53 461.58,-934 366,-1028.5 359.71,-1034.72 352.02,-1039.43 343.81,-1042.99"/>
<polygon fill="midnightblue" stroke="midnightblue" points="471.07,-695.94 467.38,-686.01 464.07,-696.07 471.07,-695.94"/>
</g>
<!-- Node10 -->
<g id="node10" class="node">
<title>Node10</title>
<g id="a_node10"><a xlink:href="test__cmp__decmp_8c_a50ba26014079160ca77b7d7fa76ce0f4.html#a50ba26014079160ca77b7d7fa76ce0f4" target="_top" xlink:title="compress the given configuration and decompress it afterwards; finally compare the results">
<polygon fill="white" stroke="black" points="195,-1235 195,-1254 353,-1254 353,-1235 195,-1235"/>
<text text-anchor="middle" x="274" y="-1242" font-family="Helvetica,sans-Serif" font-size="10.00">compression_decompression</text>
</a>
</g>
</g>
<!-- Node9&#45;&gt;Node10 -->
<g id="edge9" class="edge">
<title>Node9&#45;&gt;Node10</title>
<path fill="none" stroke="midnightblue" d="M463.67,-696.26C447.29,-793.36 375.59,-1215.68 366,-1225.5 362.28,-1229.31 358.01,-1232.45 353.38,-1235.04"/>
<polygon fill="midnightblue" stroke="midnightblue" points="467.14,-696.74 465.35,-686.3 460.24,-695.58 467.14,-696.74"/>
</g>
<!-- Node12 -->
<g id="node12" class="node">
<title>Node12</title>
<g id="a_node12"><a xlink:href="test__decmp_8c_a2d642d4d482b9ec7eca4568a95f5bdd4.html#a2d642d4d482b9ec7eca4568a95f5bdd4" target="_top" xlink:title=" ">
<polygon fill="white" stroke="black" points="202,-1000 202,-1019 346,-1019 346,-1000 202,-1000"/>
<text text-anchor="middle" x="274" y="-1007" font-family="Helvetica,sans-Serif" font-size="10.00">icu_compress_data_entity</text>
</a>
</g>
</g>
<!-- Node9&#45;&gt;Node12 -->
<g id="edge11" class="edge">
<title>Node9&#45;&gt;Node12</title>
<path fill="none" stroke="midnightblue" d="M466.96,-696.43C465.71,-751.93 454.18,-909.38 366,-989.5 360.25,-994.72 353.46,-998.69 346.22,-1001.69"/>
<polygon fill="midnightblue" stroke="midnightblue" points="470.47,-696.25 467.1,-686.2 463.47,-696.16 470.47,-696.25"/>
</g>
<!-- Node14 -->
<g id="node14" class="node">
<title>Node14</title>
<g id="a_node14"><a xlink:href="test__decmp_8c_a6e7a5e150e2c829836db3c42cdec2eec.html#a6e7a5e150e2c829836db3c42cdec2eec" target="_top" xlink:title=" ">
<polygon fill="white" stroke="black" points="182,-1273 182,-1292 366,-1292 366,-1273 182,-1273"/>
<text text-anchor="middle" x="274" y="-1280" font-family="Helvetica,sans-Serif" font-size="10.00">test_cmp_decmp_n_imagette_raw</text>
</a>
</g>
</g>
<!-- Node9&#45;&gt;Node14 -->
<g id="edge13" class="edge">
<title>Node9&#45;&gt;Node14</title>
<path fill="none" stroke="midnightblue" d="M463.76,-696.21C447.05,-797.84 371.11,-1258.21 366,-1263.5 362.41,-1267.22 358.3,-1270.3 353.85,-1272.85"/>
<polygon fill="midnightblue" stroke="midnightblue" points="467.26,-696.54 465.42,-686.1 460.35,-695.4 467.26,-696.54"/>
</g>
<!-- Node15 -->
<g id="node15" class="node">
<title>Node15</title>
<g id="a_node15"><a xlink:href="test__cmp__icu_8c_a64b46c032fdef8789190209bd9c3c49b.html#a64b46c032fdef8789190209bd9c3c49b" target="_top" xlink:title=" ">
<polygon fill="white" stroke="black" points="218,-519.5 218,-549.5 330,-549.5 330,-519.5 218,-519.5"/>
<text text-anchor="start" x="226" y="-537.5" font-family="Helvetica,sans-Serif" font-size="10.00">test_compress_f_fx</text>
<text text-anchor="middle" x="274" y="-526.5" font-family="Helvetica,sans-Serif" font-size="10.00">_efx_error_cases</text>
</a>
</g>
</g>
<!-- Node9&#45;&gt;Node15 -->
<g id="edge15" class="edge">
<title>Node9&#45;&gt;Node15</title>
<path fill="none" stroke="midnightblue" d="M456.21,-657.91C440.02,-631.69 406.91,-584.17 366,-558.5 355.2,-551.73 342.54,-546.85 330.15,-543.35"/>
<polygon fill="midnightblue" stroke="midnightblue" points="453.42,-660.06 461.57,-666.83 459.42,-656.45 453.42,-660.06"/>
</g>
<!-- Node16 -->
<g id="node16" class="node">
<title>Node16</title>
<g id="a_node16"><a xlink:href="test__cmp__icu_8c_acd4ce1f38ffbf0d6258b81668836d96b.html#acd4ce1f38ffbf0d6258b81668836d96b" target="_top" xlink:title=" ">
<polygon fill="white" stroke="black" points="218,-470.5 218,-500.5 330,-500.5 330,-470.5 218,-470.5"/>
<text text-anchor="start" x="226" y="-488.5" font-family="Helvetica,sans-Serif" font-size="10.00">test_compress_f_fx</text>
<text text-anchor="middle" x="274" y="-477.5" font-family="Helvetica,sans-Serif" font-size="10.00">_efx_ncob_ecob</text>
</a>
</g>
</g>
<!-- Node9&#45;&gt;Node16 -->
<g id="edge16" class="edge">
<title>Node9&#45;&gt;Node16</title>
<path fill="none" stroke="midnightblue" d="M460.84,-657.29C448.61,-622.32 417.88,-548.32 366,-509.5 355.53,-501.67 342.72,-496.39 330.05,-492.83"/>
<polygon fill="midnightblue" stroke="midnightblue" points="457.53,-658.44 464.04,-666.8 464.17,-656.21 457.53,-658.44"/>
</g>
<!-- Node17 -->
<g id="node17" class="node">
<title>Node17</title>
<g id="a_node17"><a xlink:href="test__cmp__icu_8c_a5fdfb76e3f52d4283fdcbf5e05ac7dd9.html#a5fdfb76e3f52d4283fdcbf5e05ac7dd9" target="_top" xlink:title=" ">
<polygon fill="white" stroke="black" points="218,-421.5 218,-451.5 330,-451.5 330,-421.5 218,-421.5"/>
<text text-anchor="start" x="226" y="-439.5" font-family="Helvetica,sans-Serif" font-size="10.00">test_compress_f_fx</text>
<text text-anchor="middle" x="274" y="-428.5" font-family="Helvetica,sans-Serif" font-size="10.00">_error_cases</text>
</a>
</g>
</g>
<!-- Node9&#45;&gt;Node17 -->
<g id="edge17" class="edge">
<title>Node9&#45;&gt;Node17</title>
<path fill="none" stroke="midnightblue" d="M463.64,-657.12C455.24,-614.73 429.3,-513.35 366,-460.5 355.84,-452.02 343,-446.5 330.19,-442.92"/>
<polygon fill="midnightblue" stroke="midnightblue" points="460.21,-657.81 465.48,-667 467.09,-656.52 460.21,-657.81"/>
</g>
<!-- Node18 -->
<g id="node18" class="node">
<title>Node18</title>
<g id="a_node18"><a xlink:href="test__cmp__icu_8c_ad6a880fe71de66a8a98a3f97d9e736da.html#ad6a880fe71de66a8a98a3f97d9e736da" target="_top" xlink:title=" ">
<polygon fill="white" stroke="black" points="218,-372.5 218,-402.5 330,-402.5 330,-372.5 218,-372.5"/>
<text text-anchor="start" x="226" y="-390.5" font-family="Helvetica,sans-Serif" font-size="10.00">test_compress_f_fx</text>
<text text-anchor="middle" x="274" y="-379.5" font-family="Helvetica,sans-Serif" font-size="10.00">_ncob_error_cases</text>
</a>
</g>
</g>
<!-- Node9&#45;&gt;Node18 -->
<g id="edge18" class="edge">
<title>Node9&#45;&gt;Node18</title>
<path fill="none" stroke="midnightblue" d="M465.45,-656.55C460.51,-607.23 440.74,-478.69 366,-411.5 356.04,-402.54 343.12,-396.86 330.16,-393.28"/>
<polygon fill="midnightblue" stroke="midnightblue" points="461.99,-657.17 466.37,-666.81 468.96,-656.54 461.99,-657.17"/>
</g>
<!-- Node19 -->
<g id="node19" class="node">
<title>Node19</title>
<g id="a_node19"><a xlink:href="test__cmp__icu_8c_a99545cc4ea3f1aa22be006d201e43f6d.html#a99545cc4ea3f1aa22be006d201e43f6d" target="_top" xlink:title=" ">
<polygon fill="white" stroke="black" points="195,-334 195,-353 353,-353 353,-334 195,-334"/>
<text text-anchor="middle" x="274" y="-341" font-family="Helvetica,sans-Serif" font-size="10.00">test_compress_imagette_diff</text>
</a>
</g>
</g>
<!-- Node9&#45;&gt;Node19 -->
<g id="edge19" class="edge">
<title>Node9&#45;&gt;Node19</title>
<path fill="none" stroke="midnightblue" d="M467.03,-656.46C465.95,-600.66 454.82,-442.42 366,-362.5 361.8,-358.72 357.05,-355.62 351.97,-353.08"/>
<polygon fill="midnightblue" stroke="midnightblue" points="463.53,-656.78 467.13,-666.74 470.53,-656.71 463.53,-656.78"/>
</g>
<!-- Node20 -->
<g id="node20" class="node">
<title>Node20</title>
<g id="a_node20"><a xlink:href="test__cmp__icu_8c_a960bb1de38c5e353aa1d1d2fb25435e8.html#a960bb1de38c5e353aa1d1d2fb25435e8" target="_top" xlink:title=" ">
<polygon fill="white" stroke="black" points="205.5,-284.5 205.5,-314.5 342.5,-314.5 342.5,-284.5 205.5,-284.5"/>
<text text-anchor="start" x="213.5" y="-302.5" font-family="Helvetica,sans-Serif" font-size="10.00">test_compress_imagette</text>
<text text-anchor="middle" x="274" y="-291.5" font-family="Helvetica,sans-Serif" font-size="10.00">_error_cases</text>
</a>
</g>
</g>
<!-- Node9&#45;&gt;Node20 -->
<g id="edge20" class="edge">
<title>Node9&#45;&gt;Node20</title>
<path fill="none" stroke="midnightblue" d="M467.57,-656.78C468.17,-597.47 461.58,-419 366,-324.5 359.48,-318.05 351.45,-313.22 342.9,-309.62"/>
<polygon fill="midnightblue" stroke="midnightblue" points="464.07,-656.93 467.38,-666.99 471.07,-657.06 464.07,-656.93"/>
</g>
<!-- Node21 -->
<g id="node21" class="node">
<title>Node21</title>
<g id="a_node21"><a xlink:href="test__cmp__icu_8c_a7c1162f048c55a098b4e6c1d9a0a884e.html#a7c1162f048c55a098b4e6c1d9a0a884e" target="_top" xlink:title=" ">
<polygon fill="white" stroke="black" points="205.5,-235.5 205.5,-265.5 342.5,-265.5 342.5,-235.5 205.5,-235.5"/>
<text text-anchor="start" x="213.5" y="-253.5" font-family="Helvetica,sans-Serif" font-size="10.00">test_compress_imagette</text>
<text text-anchor="middle" x="274" y="-242.5" font-family="Helvetica,sans-Serif" font-size="10.00">_model</text>
</a>
</g>
</g>
<!-- Node9&#45;&gt;Node21 -->
<g id="edge21" class="edge">
<title>Node9&#45;&gt;Node21</title>
<path fill="none" stroke="midnightblue" d="M464.67,-656.57C455.71,-583.32 421.22,-330.37 366,-274.5 359.45,-267.88 351.31,-263.01 342.61,-259.45"/>
<polygon fill="midnightblue" stroke="midnightblue" points="461.22,-657.21 465.89,-666.72 468.17,-656.38 461.22,-657.21"/>
</g>
<!-- Node22 -->
<g id="node22" class="node">
<title>Node22</title>
<g id="a_node22"><a xlink:href="test__cmp__icu_8c_a390abe2bb7591a75050558bdd4476593.html#a390abe2bb7591a75050558bdd4476593" target="_top" xlink:title=" ">
<polygon fill="white" stroke="black" points="193.5,-197 193.5,-216 354.5,-216 354.5,-197 193.5,-197"/>
<text text-anchor="middle" x="274" y="-204" font-family="Helvetica,sans-Serif" font-size="10.00">test_compress_imagette_raw</text>
</a>
</g>
</g>
<!-- Node9&#45;&gt;Node22 -->
<g id="edge22" class="edge">
<title>Node9&#45;&gt;Node22</title>
<path fill="none" stroke="midnightblue" d="M465.36,-656.63C458.44,-577.7 429.05,-287.64 366,-225.5 362.21,-221.76 357.88,-218.67 353.22,-216.12"/>
<polygon fill="midnightblue" stroke="midnightblue" points="461.88,-657.02 466.22,-666.69 468.86,-656.43 461.88,-657.02"/>
</g>
<!-- Node23 -->
<g id="node23" class="node">
<title>Node23</title>
<g id="a_node23"><a xlink:href="test__cmp__icu_8c_a3c859fa9247c65ae7a43e2bd682448e2.html#a3c859fa9247c65ae7a43e2bd682448e2" target="_top" xlink:title=" ">
<polygon fill="white" stroke="black" points="205.5,-147.5 205.5,-177.5 342.5,-177.5 342.5,-147.5 205.5,-147.5"/>
<text text-anchor="start" x="213.5" y="-165.5" font-family="Helvetica,sans-Serif" font-size="10.00">test_compress_imagette</text>
<text text-anchor="middle" x="274" y="-154.5" font-family="Helvetica,sans-Serif" font-size="10.00">_stuff</text>
</a>
</g>
</g>
<!-- Node9&#45;&gt;Node23 -->
<g id="edge23" class="edge">
<title>Node9&#45;&gt;Node23</title>
<path fill="none" stroke="midnightblue" d="M465.62,-656.69C459.45,-574.04 431.83,-257.71 366,-187.5 359.61,-180.69 351.56,-175.67 342.9,-171.98"/>
<polygon fill="midnightblue" stroke="midnightblue" points="462.13,-657.03 466.35,-666.75 469.11,-656.53 462.13,-657.03"/>
</g>
<!-- Node24 -->
<g id="node24" class="node">
<title>Node24</title>
<g id="a_node24"><a xlink:href="test__cmp__icu_8c_a4d05bd6cb0b420d45886997161470259.html#a4d05bd6cb0b420d45886997161470259" target="_top" xlink:title=" ">
<polygon fill="white" stroke="black" points="218.5,-98.5 218.5,-128.5 329.5,-128.5 329.5,-98.5 218.5,-98.5"/>
<text text-anchor="start" x="226.5" y="-116.5" font-family="Helvetica,sans-Serif" font-size="10.00">test_compress_l_fx</text>
<text text-anchor="middle" x="274" y="-105.5" font-family="Helvetica,sans-Serif" font-size="10.00">_efx_error_cases</text>
</a>
</g>
</g>
<!-- Node9&#45;&gt;Node24 -->
<g id="edge24" class="edge">
<title>Node9&#45;&gt;Node24</title>
<path fill="none" stroke="midnightblue" d="M466.03,-656.37C461.37,-568.01 438.44,-215.4 366,-137.5 356.54,-127.33 343.33,-121.27 329.91,-117.71"/>
<polygon fill="midnightblue" stroke="midnightblue" points="462.55,-656.82 466.55,-666.63 469.54,-656.46 462.55,-656.82"/>
</g>
<!-- Node25 -->
<g id="node25" class="node">
<title>Node25</title>
<g id="a_node25"><a xlink:href="test__cmp__icu_8c_a0d3532f9e6f2e6e0c4392049e06c627f.html#a0d3532f9e6f2e6e0c4392049e06c627f" target="_top" xlink:title=" ">
<polygon fill="white" stroke="black" points="196,-49.5 196,-79.5 352,-79.5 352,-49.5 196,-49.5"/>
<text text-anchor="start" x="204" y="-67.5" font-family="Helvetica,sans-Serif" font-size="10.00">test_compress_l_fx</text>
<text text-anchor="middle" x="274" y="-56.5" font-family="Helvetica,sans-Serif" font-size="10.00">_efx_ncob_ecob_error_cases</text>
</a>
</g>
</g>
<!-- Node9&#45;&gt;Node25 -->
<g id="edge25" class="edge">
<title>Node9&#45;&gt;Node25</title>
<path fill="none" stroke="midnightblue" d="M466.38,-656.64C463.1,-563.91 444.74,-174.47 366,-88.5 362.03,-84.16 357.37,-80.57 352.31,-77.6"/>
<polygon fill="midnightblue" stroke="midnightblue" points="462.89,-656.77 466.72,-666.65 469.88,-656.54 462.89,-656.77"/>
</g>
<!-- Node26 -->
<g id="node26" class="node">
<title>Node26</title>
<g id="a_node26"><a xlink:href="test__cmp__icu_8c_a13a2a26bd2eac1bd622925c6dcfbfb2d.html#a13a2a26bd2eac1bd622925c6dcfbfb2d" target="_top" xlink:title=" ">
<polygon fill="white" stroke="black" points="218.5,-0.5 218.5,-30.5 329.5,-30.5 329.5,-0.5 218.5,-0.5"/>
<text text-anchor="start" x="226.5" y="-18.5" font-family="Helvetica,sans-Serif" font-size="10.00">test_compress_l_fx</text>
<text text-anchor="middle" x="274" y="-7.5" font-family="Helvetica,sans-Serif" font-size="10.00">_error_cases</text>
</a>
</g>
</g>
<!-- Node9&#45;&gt;Node26 -->
<g id="edge26" class="edge">
<title>Node9&#45;&gt;Node26</title>
<path fill="none" stroke="midnightblue" d="M466.67,-656.56C464.64,-559.08 450.97,-133.48 366,-39.5 356.58,-29.08 343.21,-22.95 329.62,-19.41"/>
<polygon fill="midnightblue" stroke="midnightblue" points="463.17,-656.85 466.86,-666.78 470.17,-656.72 463.17,-656.85"/>
</g>
<!-- Node27 -->
<g id="node27" class="node">
<title>Node27</title>
<g id="a_node27"><a xlink:href="test__cmp__icu_8c_ab725960063dc032566560118d582b79e.html#ab725960063dc032566560118d582b79e" target="_top" xlink:title=" ">
<polygon fill="white" stroke="black" points="218.5,-950.5 218.5,-980.5 329.5,-980.5 329.5,-950.5 218.5,-950.5"/>
<text text-anchor="start" x="226.5" y="-968.5" font-family="Helvetica,sans-Serif" font-size="10.00">test_compress_l_fx</text>
<text text-anchor="middle" x="274" y="-957.5" font-family="Helvetica,sans-Serif" font-size="10.00">_ncob_error_cases</text>
</a>
</g>
</g>
<!-- Node9&#45;&gt;Node27 -->
<g id="edge27" class="edge">
<title>Node9&#45;&gt;Node27</title>
<path fill="none" stroke="midnightblue" d="M465.38,-696.33C460.28,-745.36 440.19,-873.19 366,-940.5 355.93,-949.64 342.82,-955.48 329.71,-959.2"/>
<polygon fill="midnightblue" stroke="midnightblue" points="468.89,-696.41 466.34,-686.13 461.92,-695.76 468.89,-696.41"/>
</g>
<!-- Node28 -->
<g id="node28" class="node">
<title>Node28</title>
<g id="a_node28"><a xlink:href="test__cmp__icu_8c_a28f0f3239f94a5d75189300dd3ed35fc.html#a28f0f3239f94a5d75189300dd3ed35fc" target="_top" xlink:title=" ">
<polygon fill="white" stroke="black" points="217.5,-901.5 217.5,-931.5 330.5,-931.5 330.5,-901.5 217.5,-901.5"/>
<text text-anchor="start" x="225.5" y="-919.5" font-family="Helvetica,sans-Serif" font-size="10.00">test_compress_s_fx</text>
<text text-anchor="middle" x="274" y="-908.5" font-family="Helvetica,sans-Serif" font-size="10.00">_efx_error_cases</text>
</a>
</g>
</g>
<!-- Node9&#45;&gt;Node28 -->
<g id="edge29" class="edge">
<title>Node9&#45;&gt;Node28</title>
<path fill="none" stroke="midnightblue" d="M463.45,-696.33C454.8,-738.77 428.55,-838.83 366,-891.5 355.97,-899.94 343.33,-905.55 330.68,-909.27"/>
<polygon fill="midnightblue" stroke="midnightblue" points="466.91,-696.89 465.36,-686.4 460.03,-695.56 466.91,-696.89"/>
</g>
<!-- Node29 -->
<g id="node29" class="node">
<title>Node29</title>
<g id="a_node29"><a xlink:href="test__cmp__icu_8c_a90fd6057131bbf0c9b398c9c99bea3f2.html#a90fd6057131bbf0c9b398c9c99bea3f2" target="_top" xlink:title=" ">
<polygon fill="white" stroke="black" points="196,-852.5 196,-882.5 352,-882.5 352,-852.5 196,-852.5"/>
<text text-anchor="start" x="204" y="-870.5" font-family="Helvetica,sans-Serif" font-size="10.00">test_compress_s_fx</text>
<text text-anchor="middle" x="274" y="-859.5" font-family="Helvetica,sans-Serif" font-size="10.00">_efx_ncob_ecob_error_cases</text>
</a>
</g>
</g>
<!-- Node9&#45;&gt;Node29 -->
<g id="edge30" class="edge">
<title>Node9&#45;&gt;Node29</title>
<path fill="none" stroke="midnightblue" d="M460.6,-696C448.15,-730.86 417.28,-803.83 366,-842.5 360.9,-846.35 355.24,-849.6 349.31,-852.36"/>
<polygon fill="midnightblue" stroke="midnightblue" points="464.06,-696.71 464,-686.11 457.44,-694.43 464.06,-696.71"/>
</g>
<!-- Node30 -->
<g id="node30" class="node">
<title>Node30</title>
<g id="a_node30"><a xlink:href="test__cmp__icu_8c_aa29971f14aa8c01058cf5884ccfb0b46.html#aa29971f14aa8c01058cf5884ccfb0b46" target="_top" xlink:title=" ">
<polygon fill="white" stroke="black" points="217.5,-803.5 217.5,-833.5 330.5,-833.5 330.5,-803.5 217.5,-803.5"/>
<text text-anchor="start" x="225.5" y="-821.5" font-family="Helvetica,sans-Serif" font-size="10.00">test_compress_s_fx</text>
<text text-anchor="middle" x="274" y="-810.5" font-family="Helvetica,sans-Serif" font-size="10.00">_error_cases</text>
</a>
</g>
</g>
<!-- Node9&#45;&gt;Node30 -->
<g id="edge31" class="edge">
<title>Node9&#45;&gt;Node30</title>
<path fill="none" stroke="midnightblue" d="M456.14,-694.87C439.85,-720.81 406.64,-767.83 366,-793.5 355.33,-800.24 342.85,-805.18 330.61,-808.81"/>
<polygon fill="midnightblue" stroke="midnightblue" points="459.3,-696.41 461.53,-686.06 453.33,-692.76 459.3,-696.41"/>
</g>
<!-- Node31 -->
<g id="node31" class="node">
<title>Node31</title>
<g id="a_node31"><a xlink:href="test__cmp__icu_8c_afa54c8348f46913b7c39517424f7e547.html#afa54c8348f46913b7c39517424f7e547" target="_top" xlink:title=" ">
<polygon fill="white" stroke="black" points="217.5,-754.5 217.5,-784.5 330.5,-784.5 330.5,-754.5 217.5,-754.5"/>
<text text-anchor="start" x="225.5" y="-772.5" font-family="Helvetica,sans-Serif" font-size="10.00">test_compress_s_fx</text>
<text text-anchor="middle" x="274" y="-761.5" font-family="Helvetica,sans-Serif" font-size="10.00">_model_multi</text>
</a>
</g>
</g>
<!-- Node9&#45;&gt;Node31 -->
<g id="edge32" class="edge">
<title>Node9&#45;&gt;Node31</title>
<path fill="none" stroke="midnightblue" d="M447.47,-692.48C427.93,-707.78 396.46,-730.52 366,-744.5 354.98,-749.56 342.73,-753.78 330.88,-757.23"/>
<polygon fill="midnightblue" stroke="midnightblue" points="449.68,-695.2 455.33,-686.24 445.32,-689.72 449.68,-695.2"/>
</g>
<!-- Node32 -->
<g id="node32" class="node">
<title>Node32</title>
<g id="a_node32"><a xlink:href="test__cmp__icu_8c_a70a6d23f621dd0ce0ffb110b9c77116f.html#a70a6d23f621dd0ce0ffb110b9c77116f" target="_top" xlink:title=" ">
<polygon fill="white" stroke="black" points="217.5,-705.5 217.5,-735.5 330.5,-735.5 330.5,-705.5 217.5,-705.5"/>
<text text-anchor="start" x="225.5" y="-723.5" font-family="Helvetica,sans-Serif" font-size="10.00">test_compress_s_fx</text>
<text text-anchor="middle" x="274" y="-712.5" font-family="Helvetica,sans-Serif" font-size="10.00">_ncob_error_cases</text>
</a>
</g>
</g>
<!-- Node9&#45;&gt;Node32 -->
<g id="edge33" class="edge">
<title>Node9&#45;&gt;Node32</title>
<path fill="none" stroke="midnightblue" d="M415.26,-688.36C389.15,-694.34 357.45,-701.61 330.79,-707.71"/>
<polygon fill="midnightblue" stroke="midnightblue" points="416.37,-691.69 425.34,-686.05 414.81,-684.87 416.37,-691.69"/>
</g>
<!-- Node33 -->
<g id="node33" class="node">
<title>Node33</title>
<g id="a_node33"><a xlink:href="test__cmp__icu_8c_ab9f5f00613d43e2b46aa130d472674cb.html#ab9f5f00613d43e2b46aa130d472674cb" target="_top" xlink:title=" ">
<polygon fill="white" stroke="black" points="205.5,-667 205.5,-686 342.5,-686 342.5,-667 205.5,-667"/>
<text text-anchor="middle" x="274" y="-674" font-family="Helvetica,sans-Serif" font-size="10.00">test_compress_s_fx_raw</text>
</a>
</g>
</g>
<!-- Node9&#45;&gt;Node33 -->
<g id="edge34" class="edge">
<title>Node9&#45;&gt;Node33</title>
<path fill="none" stroke="midnightblue" d="M402.59,-676.5C383.37,-676.5 362.24,-676.5 342.81,-676.5"/>
<polygon fill="midnightblue" stroke="midnightblue" points="402.75,-680 412.75,-676.5 402.75,-673 402.75,-680"/>
</g>
<!-- Node34 -->
<g id="node34" class="node">
<title>Node34</title>
<g id="a_node34"><a xlink:href="test__cmp__icu_8c_ad8cefbf7c0531178a3c5d00ed71cfe61.html#ad8cefbf7c0531178a3c5d00ed71cfe61" target="_top" xlink:title=" ">
<polygon fill="white" stroke="black" points="217.5,-617.5 217.5,-647.5 330.5,-647.5 330.5,-617.5 217.5,-617.5"/>
<text text-anchor="start" x="225.5" y="-635.5" font-family="Helvetica,sans-Serif" font-size="10.00">test_compress_s_fx</text>
<text text-anchor="middle" x="274" y="-624.5" font-family="Helvetica,sans-Serif" font-size="10.00">_staff</text>
</a>
</g>
</g>
<!-- Node9&#45;&gt;Node34 -->
<g id="edge35" class="edge">
<title>Node9&#45;&gt;Node34</title>
<path fill="none" stroke="midnightblue" d="M415.26,-664.64C389.15,-658.66 357.45,-651.39 330.79,-645.29"/>
<polygon fill="midnightblue" stroke="midnightblue" points="414.81,-668.13 425.34,-666.95 416.37,-661.31 414.81,-668.13"/>
</g>
<!-- Node35 -->
<g id="node35" class="node">
<title>Node35</title>
<g id="a_node35"><a xlink:href="test__cmp__icu_8c_a8db99614e8a5d384edb82fe466e15042.html#a8db99614e8a5d384edb82fe466e15042" target="_top" xlink:title=" ">
<polygon fill="white" stroke="black" points="207,-568.5 207,-598.5 341,-598.5 341,-568.5 207,-568.5"/>
<text text-anchor="start" x="215" y="-586.5" font-family="Helvetica,sans-Serif" font-size="10.00">test_icu_compress_data</text>
<text text-anchor="middle" x="274" y="-575.5" font-family="Helvetica,sans-Serif" font-size="10.00">_error_cases</text>
</a>
</g>
</g>
<!-- Node9&#45;&gt;Node35 -->
<g id="edge37" class="edge">
<title>Node9&#45;&gt;Node35</title>
<path fill="none" stroke="midnightblue" d="M447.87,-660.45C428.4,-644.87 396.79,-621.57 366,-607.5 358.12,-603.9 349.61,-600.76 341.06,-598.05"/>
<polygon fill="midnightblue" stroke="midnightblue" points="445.7,-663.21 455.67,-666.81 450.12,-657.78 445.7,-663.21"/>
</g>
<!-- Node36 -->
<g id="node36" class="node">
<title>Node36</title>
<g id="a_node36"><a xlink:href="test__cmp__decmp_8c_abb20ed18a3c6ba0fc67ecef2d629dec0.html#abb20ed18a3c6ba0fc67ecef2d629dec0" target="_top" xlink:title=" ">
<polygon fill="white" stroke="black" points="201,-1185.5 201,-1215.5 347,-1215.5 347,-1185.5 201,-1185.5"/>
<text text-anchor="start" x="209" y="-1203.5" font-family="Helvetica,sans-Serif" font-size="10.00">test_random_compression</text>
<text text-anchor="middle" x="274" y="-1192.5" font-family="Helvetica,sans-Serif" font-size="10.00">_decompression2</text>
</a>
</g>
</g>
<!-- Node9&#45;&gt;Node36 -->
<g id="edge38" class="edge">
<title>Node9&#45;&gt;Node36</title>
<path fill="none" stroke="midnightblue" d="M464.28,-696.09C451.92,-784.12 400.05,-1140.39 366,-1176.5 360.73,-1182.09 354.33,-1186.43 347.39,-1189.8"/>
<polygon fill="midnightblue" stroke="midnightblue" points="467.76,-696.5 465.68,-686.11 460.83,-695.53 467.76,-696.5"/>
</g>
<!-- Node11 -->
<g id="node11" class="node">
<title>Node11</title>
<g id="a_node11"><a xlink:href="test__cmp__decmp_8c_af3c162694b40683e0aa25c61a49cdafc.html#af3c162694b40683e0aa25c61a49cdafc" target="_top" xlink:title="random compression decompression test">
<polygon fill="white" stroke="black" points="0,-1229.5 0,-1259.5 146,-1259.5 146,-1229.5 0,-1229.5"/>
<text text-anchor="start" x="8" y="-1247.5" font-family="Helvetica,sans-Serif" font-size="10.00">test_random_compression</text>
<text text-anchor="middle" x="73" y="-1236.5" font-family="Helvetica,sans-Serif" font-size="10.00">_decompression</text>
</a>
</g>
</g>
<!-- Node10&#45;&gt;Node11 -->
<g id="edge10" class="edge">
<title>Node10&#45;&gt;Node11</title>
<path fill="none" stroke="midnightblue" d="M184.63,-1244.5C171.72,-1244.5 158.55,-1244.5 146.01,-1244.5"/>
<polygon fill="midnightblue" stroke="midnightblue" points="184.92,-1248 194.92,-1244.5 184.92,-1241 184.92,-1248"/>
</g>
<!-- Node13 -->
<g id="node13" class="node">
<title>Node13</title>
<g id="a_node13"><a xlink:href="test__decmp_8c_a1a33e2fcbf484c79dfe661b280386f6b.html#a1a33e2fcbf484c79dfe661b280386f6b" target="_top" xlink:title=" ">
<polygon fill="white" stroke="black" points="0,-1314 0,-1333 146,-1333 146,-1314 0,-1314"/>
<text text-anchor="middle" x="73" y="-1321" font-family="Helvetica,sans-Serif" font-size="10.00">test_cmp_decmp_s_fx_diff</text>
</a>
</g>
</g>
<!-- Node12&#45;&gt;Node13 -->
<g id="edge12" class="edge">
<title>Node12&#45;&gt;Node13</title>
<path fill="none" stroke="midnightblue" d="M192.78,-1019.82C188.84,-1022.24 185.2,-1025.11 182,-1028.5 107.66,-1107.25 201.48,-1176.49 146,-1269.5 133.91,-1289.76 111.04,-1304.91 94.3,-1313.93"/>
<polygon fill="midnightblue" stroke="midnightblue" points="194.5,-1022.87 201.82,-1015.21 191.32,-1016.63 194.5,-1022.87"/>
</g>
<!-- Node39 -->
<g id="node39" class="node">
<title>Node39</title>
<g id="a_node39"><a xlink:href="decmp_8h_aefe0fa39fdc295432f5e2e0f91f0b87f.html#aefe0fa39fdc295432f5e2e0f91f0b87f" target="_top" xlink:title="decompress a compression entity">
<polygon fill="white" stroke="black" points="402,-1311 402,-1330 534,-1330 534,-1311 402,-1311"/>
<text text-anchor="middle" x="468" y="-1318" font-family="Helvetica,sans-Serif" font-size="10.00">decompress_cmp_entiy</text>
</a>
</g>
</g>
<!-- Node38&#45;&gt;Node39 -->
<g id="edge41" class="edge">
<title>Node38&#45;&gt;Node39</title>
<path fill="none" stroke="midnightblue" d="M626.34,-1208.87C588.98,-1235.37 513.47,-1288.95 482.61,-1310.84"/>
<polygon fill="midnightblue" stroke="midnightblue" points="628.42,-1211.69 634.55,-1203.05 624.36,-1205.98 628.42,-1211.69"/>
</g>
<!-- Node42 -->
<g id="node42" class="node">
<title>Node42</title>
<g id="a_node42"><a xlink:href="decmp_8h_aa89132cfd22be6ede8bc4344e9c3336a.html#aa89132cfd22be6ede8bc4344e9c3336a" target="_top" xlink:title="decompress RDCU compressed data without a compression entity header">
<polygon fill="white" stroke="black" points="403.5,-1186 403.5,-1205 532.5,-1205 532.5,-1186 403.5,-1186"/>
<text text-anchor="middle" x="468" y="-1193" font-family="Helvetica,sans-Serif" font-size="10.00">decompress_rdcu_data</text>
</a>
</g>
</g>
<!-- Node38&#45;&gt;Node42 -->
<g id="edge47" class="edge">
<title>Node38&#45;&gt;Node42</title>
<path fill="none" stroke="midnightblue" d="M559.52,-1194.49C550.43,-1194.59 541.33,-1194.69 532.59,-1194.79"/>
<polygon fill="midnightblue" stroke="midnightblue" points="559.79,-1197.99 569.75,-1194.37 559.71,-1190.99 559.79,-1197.99"/>
</g>
<!-- Node39&#45;&gt;Node10 -->
<g id="edge42" class="edge">
<title>Node39&#45;&gt;Node10</title>
<path fill="none" stroke="midnightblue" d="M444.69,-1305.24C424.86,-1292.34 394.63,-1274.27 366,-1263.5 355.88,-1259.69 344.82,-1256.58 334.01,-1254.05"/>
<polygon fill="midnightblue" stroke="midnightblue" points="443.02,-1308.33 453.29,-1310.94 446.89,-1302.5 443.02,-1308.33"/>
</g>
<!-- Node39&#45;&gt;Node13 -->
<g id="edge44" class="edge">
<title>Node39&#45;&gt;Node13</title>
<path fill="none" stroke="midnightblue" d="M415.82,-1332.04C399.94,-1335.1 382.32,-1337.98 366,-1339.5 284.58,-1347.09 263.56,-1345.51 182,-1339.5 164.23,-1338.19 144.95,-1335.69 127.66,-1333.04"/>
<polygon fill="midnightblue" stroke="midnightblue" points="416.85,-1335.4 425.97,-1330.01 415.48,-1328.54 416.85,-1335.4"/>
</g>
<!-- Node39&#45;&gt;Node14 -->
<g id="edge43" class="edge">
<title>Node39&#45;&gt;Node14</title>
<path fill="none" stroke="midnightblue" d="M408.7,-1308.96C381.32,-1303.54 349.07,-1297.16 323.1,-1292.02"/>
<polygon fill="midnightblue" stroke="midnightblue" points="408.06,-1312.4 418.55,-1310.91 409.42,-1305.54 408.06,-1312.4"/>
</g>
<!-- Node40 -->
<g id="node40" class="node">
<title>Node40</title>
<g id="a_node40"><a xlink:href="test__decmp_8c_acfebf2fa7515f5449e0cfa594457b66b.html#acfebf2fa7515f5449e0cfa594457b66b" target="_top" xlink:title=" ">
<polygon fill="white" stroke="black" points="233,-1425 233,-1444 315,-1444 315,-1425 233,-1425"/>
<text text-anchor="middle" x="274" y="-1432" font-family="Helvetica,sans-Serif" font-size="10.00">test_s_fx_diff</text>
</a>
</g>
</g>
<!-- Node39&#45;&gt;Node40 -->
<g id="edge45" class="edge">
<title>Node39&#45;&gt;Node40</title>
<path fill="none" stroke="midnightblue" d="M453.46,-1338.19C435.79,-1359.95 402.78,-1396.34 366,-1415.5 350.4,-1423.63 331.59,-1428.28 315.12,-1430.94"/>
<polygon fill="midnightblue" stroke="midnightblue" points="456.39,-1340.13 459.85,-1330.12 450.9,-1335.78 456.39,-1340.13"/>
</g>
<!-- Node41 -->
<g id="node41" class="node">
<title>Node41</title>
<g id="a_node41"><a xlink:href="test__decmp_8c_a953eeaad914985c0816dde26d47ffef0.html#a953eeaad914985c0816dde26d47ffef0" target="_top" xlink:title=" ">
<polygon fill="white" stroke="black" points="225.5,-1387 225.5,-1406 322.5,-1406 322.5,-1387 225.5,-1387"/>
<text text-anchor="middle" x="274" y="-1394" font-family="Helvetica,sans-Serif" font-size="10.00">test_s_fx_model</text>
</a>
</g>
</g>
<!-- Node39&#45;&gt;Node41 -->
<g id="edge46" class="edge">
<title>Node39&#45;&gt;Node41</title>
<path fill="none" stroke="midnightblue" d="M442.28,-1335.16C422.25,-1346.55 393.02,-1362.12 366,-1372.5 351.05,-1378.24 334.21,-1383.1 319.12,-1386.92"/>
<polygon fill="midnightblue" stroke="midnightblue" points="444.15,-1338.12 451.06,-1330.09 440.65,-1332.06 444.15,-1338.12"/>
</g>
<!-- Node42&#45;&gt;Node36 -->
<g id="edge48" class="edge">
<title>Node42&#45;&gt;Node36</title>
<path fill="none" stroke="midnightblue" d="M393.04,-1197.43C377.97,-1197.82 362.13,-1198.23 347.12,-1198.62"/>
<polygon fill="midnightblue" stroke="midnightblue" points="393.43,-1200.92 403.33,-1197.16 393.25,-1193.92 393.43,-1200.92"/>
</g>
</g>
</svg>
        <g id="navigator" transform="translate(0 0)" fill="#404254">
                <rect fill="#f2f5e9" fill-opacity="0.5" stroke="#606060" stroke-width=".5" x="0" y="0" width="60" height="60"/>
                <use id="zoomplus" xlink:href="#zoomPlus" x="17" y="9" onmousedown="handleZoom(evt,'in')"/>
                <use id="zoomminus" xlink:href="#zoomMin" x="42" y="9" onmousedown="handleZoom(evt,'out')"/>
                <use id="reset" xlink:href="#resetDef" x="30" y="36" onmousedown="handleReset()"/>
                <g id="arrowUp" xlink:href="#dirArrow" transform="translate(30 24)" onmousedown="handlePan(0,-1)">
                  <use xlink:href="#rim" fill="#404040">
                        <set attributeName="fill" to="#808080" begin="arrowUp.mouseover" end="arrowUp.mouseout"/>
                  </use>
                  <path fill="none" stroke="white" stroke-width="1.5" d="M0,-3.0v7 M-2.5,-0.5L0,-3.0L2.5,-0.5"/>
                </g>
                <g id="arrowRight" xlink:href="#dirArrow" transform="rotate(90) translate(36 -43)" onmousedown="handlePan(1,0)">
                  <use xlink:href="#rim" fill="#404040">
                        <set attributeName="fill" to="#808080" begin="arrowRight.mouseover" end="arrowRight.mouseout"/>
                  </use>
                  <path fill="none" stroke="white" stroke-width="1.5" d="M0,-3.0v7 M-2.5,-0.5L0,-3.0L2.5,-0.5"/>
                </g>
                <g id="arrowDown" xlink:href="#dirArrow" transform="rotate(180) translate(-30 -48)" onmousedown="handlePan(0,1)">
                  <use xlink:href="#rim" fill="#404040">
                        <set attributeName="fill" to="#808080" begin="arrowDown.mouseover" end="arrowDown.mouseout"/>
                  </use>
                  <path fill="none" stroke="white" stroke-width="1.5" d="M0,-3.0v7 M-2.5,-0.5L0,-3.0L2.5,-0.5"/>
                </g>
                <g id="arrowLeft" xlink:href="#dirArrow" transform="rotate(270) translate(-36 17)" onmousedown="handlePan(-1,0)">
                  <use xlink:href="#rim" fill="#404040">
                        <set attributeName="fill" to="#808080" begin="arrowLeft.mouseover" end="arrowLeft.mouseout"/>
                  </use>
                  <path fill="none" stroke="white" stroke-width="1.5" d="M0,-3.0v7 M-2.5,-0.5L0,-3.0L2.5,-0.5"/>
                </g>
        </g>
        <svg viewBox="0 0 15 15" width="100%" height="30px" preserveAspectRatio="xMaxYMin meet">
         <g id="arrow_out" transform="scale(0.3 0.3)">
          <a xlink:href="cmp__support_8h_ab7bfe528432579ce1b410441e03fd846_ab7bfe528432579ce1b410441e03fd846_icgraph_org.svg" target="_base">
           <rect id="button" ry="5" rx="5" y="6" x="6" height="38" width="38"
                fill="#f2f5e9" fill-opacity="0.5" stroke="#606060" stroke-width="1.0"/>
           <path id="arrow"
             d="M 11.500037,31.436501 C 11.940474,20.09759 22.043105,11.32322 32.158766,21.979434 L 37.068811,17.246167 C 37.068811,17.246167 37.088388,32 37.088388,32 L 22.160133,31.978069 C 22.160133,31.978069 26.997745,27.140456 26.997745,27.140456 C 18.528582,18.264221 13.291696,25.230495 11.500037,31.436501 z"
             style="fill:#404040;"/>
          </a>
         </g>
        </svg>
</svg>
