<?xml version="1.0" encoding="UTF-8" standalone="no"?>
<!DOCTYPE svg PUBLIC "-//W3C//DTD SVG 1.1//EN"
 "http://www.w3.org/Graphics/SVG/1.1/DTD/svg11.dtd">
<!-- Generated by graphviz version 2.43.0 (0)
 -->
<!-- Title: cmp_max_used_bits_list_empty Pages: 1 -->
<svg width="342pt" height="78pt"
 viewBox="0.00 0.00 342.00 77.50" xmlns="http://www.w3.org/2000/svg" xmlns:xlink="http://www.w3.org/1999/xlink">
<g id="graph0" class="graph" transform="scale(1 1) rotate(0) translate(4 73.5)">
<title>cmp_max_used_bits_list_empty</title>
<polygon fill="white" stroke="transparent" points="-4,4 -4,-73.5 338,-73.5 338,4 -4,4"/>
<!-- Node1 -->
<g id="node1" class="node">
<title>Node1</title>
<g id="a_node1"><a xlink:title="delete all max_used_bits item from the list">
<polygon fill="#bfbfbf" stroke="black" points="197,-17 197,-47 334,-47 334,-17 197,-17"/>
<text text-anchor="start" x="205" y="-35" font-family="Helvetica,sans-Serif" font-size="10.00">cmp_max_used_bits_list</text>
<text text-anchor="middle" x="265.5" y="-24" font-family="Helvetica,sans-Serif" font-size="10.00">_empty</text>
</a>
</g>
</g>
<!-- Node2 -->
<g id="node2" class="node">
<title>Node2</title>
<g id="a_node2"><a xlink:href="test__decmp_8c_a27e5a2b67e3e81da1be024826485b2e3.html#a27e5a2b67e3e81da1be024826485b2e3" target="_top" xlink:title=" ">
<polygon fill="white" stroke="black" points="24,-39 24,-69 137,-69 137,-39 24,-39"/>
<text text-anchor="start" x="32" y="-57" font-family="Helvetica,sans-Serif" font-size="10.00">test_cmp_ent_write</text>
<text text-anchor="middle" x="80.5" y="-46" font-family="Helvetica,sans-Serif" font-size="10.00">_cmp_pars</text>
</a>
</g>
</g>
<!-- Node1&#45;&gt;Node2 -->
<g id="edge1" class="edge">
<title>Node1&#45;&gt;Node2</title>
<path fill="none" stroke="midnightblue" d="M186.63,-41.36C170,-43.36 152.76,-45.43 137.17,-47.31"/>
<polygon fill="midnightblue" stroke="midnightblue" points="187.37,-44.8 196.88,-40.13 186.53,-37.85 187.37,-44.8"/>
</g>
<!-- Node3 -->
<g id="node3" class="node">
<title>Node3</title>
<g id="a_node3"><a xlink:href="test__cmp__max__used__bits__list_8c_acd1ebf1cab2751d1420a94e2c50ba6ce.html#acd1ebf1cab2751d1420a94e2c50ba6ce" target="_top" xlink:title=" ">
<polygon fill="white" stroke="black" points="0,-0.5 0,-19.5 161,-19.5 161,-0.5 0,-0.5"/>
<text text-anchor="middle" x="80.5" y="-7.5" font-family="Helvetica,sans-Serif" font-size="10.00">test_cmp_max_used_bits_list</text>
</a>
</g>
</g>
<!-- Node1&#45;&gt;Node3 -->
<g id="edge2" class="edge">
<title>Node1&#45;&gt;Node3</title>
<path fill="none" stroke="midnightblue" d="M186.8,-22.66C178.13,-21.62 169.29,-20.55 160.6,-19.51"/>
<polygon fill="midnightblue" stroke="midnightblue" points="186.53,-26.15 196.88,-23.87 187.37,-19.2 186.53,-26.15"/>
</g>
</g>
</svg>
