<?xml version="1.0" encoding="UTF-8" standalone="no"?>
<!DOCTYPE svg PUBLIC "-//W3C//DTD SVG 1.1//EN"
 "http://www.w3.org/Graphics/SVG/1.1/DTD/svg11.dtd">
<!-- Generated by graphviz version 2.43.0 (0)
 -->
<!-- Title: cmp_ent_get_non_ima_cmp_par3 Pages: 1 -->
<svg width="915pt" height="238pt"
 viewBox="0.00 0.00 915.00 237.50" xmlns="http://www.w3.org/2000/svg" xmlns:xlink="http://www.w3.org/1999/xlink">
<g id="graph0" class="graph" transform="scale(1 1) rotate(0) translate(4 233.5)">
<title>cmp_ent_get_non_ima_cmp_par3</title>
<polygon fill="white" stroke="transparent" points="-4,4 -4,-233.5 911,-233.5 911,4 -4,4"/>
<!-- Node1 -->
<g id="node1" class="node">
<title>Node1</title>
<g id="a_node1"><a xlink:title="get the used compression parameter 3 from the non&#45;imagette specific compression entity header">
<polygon fill="#bfbfbf" stroke="black" points="780,-33 780,-63 907,-63 907,-33 780,-33"/>
<text text-anchor="start" x="788" y="-51" font-family="Helvetica,sans-Serif" font-size="10.00">cmp_ent_get_non_ima</text>
<text text-anchor="middle" x="843.5" y="-40" font-family="Helvetica,sans-Serif" font-size="10.00">_cmp_par3</text>
</a>
</g>
</g>
<!-- Node2 -->
<g id="node2" class="node">
<title>Node2</title>
<g id="a_node2"><a xlink:href="decmp_8c_a74bca2e933b64c4e4738700db181be76.html#a74bca2e933b64c4e4738700db181be76" target="_top" xlink:title="read in an imagette compression entity header to a compression configuration">
<polygon fill="white" stroke="black" points="603,-81.5 603,-100.5 728,-100.5 728,-81.5 603,-81.5"/>
<text text-anchor="middle" x="665.5" y="-88.5" font-family="Helvetica,sans-Serif" font-size="10.00">cmp_ent_read_header</text>
</a>
</g>
</g>
<!-- Node1&#45;&gt;Node2 -->
<g id="edge1" class="edge">
<title>Node1&#45;&gt;Node2</title>
<path fill="none" stroke="midnightblue" d="M771.11,-65.44C748.69,-70.92 724.77,-76.76 705.47,-81.48"/>
<polygon fill="midnightblue" stroke="midnightblue" points="772.06,-68.81 780.94,-63.04 770.4,-62.01 772.06,-68.81"/>
</g>
<!-- Node11 -->
<g id="node11" class="node">
<title>Node11</title>
<g id="a_node11"><a xlink:href="test__decmp_8c_a27e5a2b67e3e81da1be024826485b2e3.html#a27e5a2b67e3e81da1be024826485b2e3" target="_top" xlink:title=" ">
<polygon fill="white" stroke="black" points="420,-30 420,-60 533,-60 533,-30 420,-30"/>
<text text-anchor="start" x="428" y="-48" font-family="Helvetica,sans-Serif" font-size="10.00">test_cmp_ent_write</text>
<text text-anchor="middle" x="476.5" y="-37" font-family="Helvetica,sans-Serif" font-size="10.00">_cmp_pars</text>
</a>
</g>
</g>
<!-- Node1&#45;&gt;Node11 -->
<g id="edge11" class="edge">
<title>Node1&#45;&gt;Node11</title>
<path fill="none" stroke="midnightblue" d="M769.73,-47.4C700.06,-46.83 596.47,-45.98 533.16,-45.46"/>
<polygon fill="midnightblue" stroke="midnightblue" points="769.73,-50.9 779.75,-47.48 769.78,-43.9 769.73,-50.9"/>
</g>
<!-- Node12 -->
<g id="node12" class="node">
<title>Node12</title>
<g id="a_node12"><a xlink:href="test__cmp__entity_8c_a4a052c2b907fc12066fb35fa9346d93a.html#a4a052c2b907fc12066fb35fa9346d93a" target="_top" xlink:title=" ">
<polygon fill="white" stroke="black" points="587,-0.5 587,-19.5 744,-19.5 744,-0.5 587,-0.5"/>
<text text-anchor="middle" x="665.5" y="-7.5" font-family="Helvetica,sans-Serif" font-size="10.00">test_ent_non_ima_cmp_par3</text>
</a>
</g>
</g>
<!-- Node1&#45;&gt;Node12 -->
<g id="edge12" class="edge">
<title>Node1&#45;&gt;Node12</title>
<path fill="none" stroke="midnightblue" d="M770.15,-32.38C749.96,-28.02 728.64,-23.42 710.61,-19.52"/>
<polygon fill="midnightblue" stroke="midnightblue" points="769.44,-35.81 779.95,-34.5 770.92,-28.96 769.44,-35.81"/>
</g>
<!-- Node3 -->
<g id="node3" class="node">
<title>Node3</title>
<g id="a_node3"><a xlink:href="decmp_8h_aefe0fa39fdc295432f5e2e0f91f0b87f.html#aefe0fa39fdc295432f5e2e0f91f0b87f" target="_top" xlink:title="decompress a compression entity">
<polygon fill="white" stroke="black" points="410.5,-128.5 410.5,-147.5 542.5,-147.5 542.5,-128.5 410.5,-128.5"/>
<text text-anchor="middle" x="476.5" y="-135.5" font-family="Helvetica,sans-Serif" font-size="10.00">decompress_cmp_entiy</text>
</a>
</g>
</g>
<!-- Node2&#45;&gt;Node3 -->
<g id="edge2" class="edge">
<title>Node2&#45;&gt;Node3</title>
<path fill="none" stroke="midnightblue" d="M616.81,-102.99C585.41,-110.88 544.85,-121.07 515.61,-128.42"/>
<polygon fill="midnightblue" stroke="midnightblue" points="617.81,-106.34 626.66,-100.51 616.11,-99.55 617.81,-106.34"/>
</g>
<!-- Node10 -->
<g id="node10" class="node">
<title>Node10</title>
<g id="a_node10"><a xlink:href="test__decmp_8c_a83b6283115165bfb92bf9008dcbdc41d.html#a83b6283115165bfb92bf9008dcbdc41d" target="_top" xlink:title=" ">
<polygon fill="white" stroke="black" points="402,-79 402,-109 551,-109 551,-79 402,-79"/>
<text text-anchor="start" x="410" y="-97" font-family="Helvetica,sans-Serif" font-size="10.00">test_cmp_ent_read_header</text>
<text text-anchor="middle" x="476.5" y="-86" font-family="Helvetica,sans-Serif" font-size="10.00">_error_cases</text>
</a>
</g>
</g>
<!-- Node2&#45;&gt;Node10 -->
<g id="edge9" class="edge">
<title>Node2&#45;&gt;Node10</title>
<path fill="none" stroke="midnightblue" d="M592.54,-92.15C578.99,-92.37 564.81,-92.6 551.21,-92.82"/>
<polygon fill="midnightblue" stroke="midnightblue" points="592.81,-95.65 602.75,-91.99 592.7,-88.65 592.81,-95.65"/>
</g>
<!-- Node2&#45;&gt;Node11 -->
<g id="edge10" class="edge">
<title>Node2&#45;&gt;Node11</title>
<path fill="none" stroke="midnightblue" d="M616,-79.07C590.66,-72.84 559.54,-65.18 533.22,-58.71"/>
<polygon fill="midnightblue" stroke="midnightblue" points="615.21,-82.48 625.75,-81.47 616.88,-75.68 615.21,-82.48"/>
</g>
<!-- Node4 -->
<g id="node4" class="node">
<title>Node4</title>
<g id="a_node4"><a xlink:href="test__cmp__decmp_8c_a50ba26014079160ca77b7d7fa76ce0f4.html#a50ba26014079160ca77b7d7fa76ce0f4" target="_top" xlink:title="compress the given configuration and decompress it afterwards; finally compare the results">
<polygon fill="white" stroke="black" points="195,-204.5 195,-223.5 353,-223.5 353,-204.5 195,-204.5"/>
<text text-anchor="middle" x="274" y="-211.5" font-family="Helvetica,sans-Serif" font-size="10.00">compression_decompression</text>
</a>
</g>
</g>
<!-- Node3&#45;&gt;Node4 -->
<g id="edge3" class="edge">
<title>Node3&#45;&gt;Node4</title>
<path fill="none" stroke="midnightblue" d="M451.72,-152.82C430.1,-165.69 396.94,-183.95 366,-195 355.51,-198.74 344.07,-201.85 332.94,-204.39"/>
<polygon fill="midnightblue" stroke="midnightblue" points="453.77,-155.67 460.51,-147.5 450.14,-149.68 453.77,-155.67"/>
</g>
<!-- Node6 -->
<g id="node6" class="node">
<title>Node6</title>
<g id="a_node6"><a xlink:href="test__decmp_8c_a6e7a5e150e2c829836db3c42cdec2eec.html#a6e7a5e150e2c829836db3c42cdec2eec" target="_top" xlink:title=" ">
<polygon fill="white" stroke="black" points="182,-166.5 182,-185.5 366,-185.5 366,-166.5 182,-166.5"/>
<text text-anchor="middle" x="274" y="-173.5" font-family="Helvetica,sans-Serif" font-size="10.00">test_cmp_decmp_n_imagette_raw</text>
</a>
</g>
</g>
<!-- Node3&#45;&gt;Node6 -->
<g id="edge5" class="edge">
<title>Node3&#45;&gt;Node6</title>
<path fill="none" stroke="midnightblue" d="M415.25,-149.42C386.57,-154.86 352.65,-161.28 325.36,-166.46"/>
<polygon fill="midnightblue" stroke="midnightblue" points="415.99,-152.84 425.16,-147.54 414.69,-145.96 415.99,-152.84"/>
</g>
<!-- Node7 -->
<g id="node7" class="node">
<title>Node7</title>
<g id="a_node7"><a xlink:href="test__decmp_8c_a1a33e2fcbf484c79dfe661b280386f6b.html#a1a33e2fcbf484c79dfe661b280386f6b" target="_top" xlink:title=" ">
<polygon fill="white" stroke="black" points="201,-128.5 201,-147.5 347,-147.5 347,-128.5 201,-128.5"/>
<text text-anchor="middle" x="274" y="-135.5" font-family="Helvetica,sans-Serif" font-size="10.00">test_cmp_decmp_s_fx_diff</text>
</a>
</g>
</g>
<!-- Node3&#45;&gt;Node7 -->
<g id="edge6" class="edge">
<title>Node3&#45;&gt;Node7</title>
<path fill="none" stroke="midnightblue" d="M400.28,-138C382.85,-138 364.34,-138 347.05,-138"/>
<polygon fill="midnightblue" stroke="midnightblue" points="400.4,-141.5 410.4,-138 400.4,-134.5 400.4,-141.5"/>
</g>
<!-- Node8 -->
<g id="node8" class="node">
<title>Node8</title>
<g id="a_node8"><a xlink:href="test__decmp_8c_acfebf2fa7515f5449e0cfa594457b66b.html#acfebf2fa7515f5449e0cfa594457b66b" target="_top" xlink:title=" ">
<polygon fill="white" stroke="black" points="233,-90.5 233,-109.5 315,-109.5 315,-90.5 233,-90.5"/>
<text text-anchor="middle" x="274" y="-97.5" font-family="Helvetica,sans-Serif" font-size="10.00">test_s_fx_diff</text>
</a>
</g>
</g>
<!-- Node3&#45;&gt;Node8 -->
<g id="edge7" class="edge">
<title>Node3&#45;&gt;Node8</title>
<path fill="none" stroke="midnightblue" d="M414.93,-126.52C382.65,-120.4 343.82,-113.04 315.26,-107.63"/>
<polygon fill="midnightblue" stroke="midnightblue" points="414.69,-130.04 425.16,-128.46 415.99,-123.16 414.69,-130.04"/>
</g>
<!-- Node9 -->
<g id="node9" class="node">
<title>Node9</title>
<g id="a_node9"><a xlink:href="test__decmp_8c_a953eeaad914985c0816dde26d47ffef0.html#a953eeaad914985c0816dde26d47ffef0" target="_top" xlink:title=" ">
<polygon fill="white" stroke="black" points="225.5,-52.5 225.5,-71.5 322.5,-71.5 322.5,-52.5 225.5,-52.5"/>
<text text-anchor="middle" x="274" y="-59.5" font-family="Helvetica,sans-Serif" font-size="10.00">test_s_fx_model</text>
</a>
</g>
</g>
<!-- Node3&#45;&gt;Node9 -->
<g id="edge8" class="edge">
<title>Node3&#45;&gt;Node9</title>
<path fill="none" stroke="midnightblue" d="M416.41,-124.99C411.39,-122.97 406.51,-120.66 402,-118 382.23,-106.35 386.11,-92.05 366,-81 352.85,-73.77 337.24,-69.29 322.7,-66.51"/>
<polygon fill="midnightblue" stroke="midnightblue" points="415.58,-128.41 426.18,-128.5 417.95,-121.82 415.58,-128.41"/>
</g>
<!-- Node5 -->
<g id="node5" class="node">
<title>Node5</title>
<g id="a_node5"><a xlink:href="test__cmp__decmp_8c_af3c162694b40683e0aa25c61a49cdafc.html#af3c162694b40683e0aa25c61a49cdafc" target="_top" xlink:title="random compression decompression test">
<polygon fill="white" stroke="black" points="0,-199 0,-229 146,-229 146,-199 0,-199"/>
<text text-anchor="start" x="8" y="-217" font-family="Helvetica,sans-Serif" font-size="10.00">test_random_compression</text>
<text text-anchor="middle" x="73" y="-206" font-family="Helvetica,sans-Serif" font-size="10.00">_decompression</text>
</a>
</g>
</g>
<!-- Node4&#45;&gt;Node5 -->
<g id="edge4" class="edge">
<title>Node4&#45;&gt;Node5</title>
<path fill="none" stroke="midnightblue" d="M184.63,-214C171.72,-214 158.55,-214 146.01,-214"/>
<polygon fill="midnightblue" stroke="midnightblue" points="184.92,-217.5 194.92,-214 184.92,-210.5 184.92,-217.5"/>
</g>
</g>
</svg>
