<?xml version="1.0" encoding="UTF-8" standalone="no"?>
<!DOCTYPE svg PUBLIC "-//W3C//DTD SVG 1.1//EN"
 "http://www.w3.org/Graphics/SVG/1.1/DTD/svg11.dtd">
<!-- Generated by graphviz version 2.43.0 (0)
 -->
<!-- Title: compress_f_fx Pages: 1 -->
<svg width="775pt" height="349pt"
 viewBox="0.00 0.00 775.00 349.00" xmlns="http://www.w3.org/2000/svg" xmlns:xlink="http://www.w3.org/1999/xlink">
<g id="graph0" class="graph" transform="scale(1 1) rotate(0) translate(4 345)">
<title>compress_f_fx</title>
<polygon fill="white" stroke="transparent" points="-4,4 -4,-345 771,-345 771,4 -4,4"/>
<!-- Node1 -->
<g id="node1" class="node">
<title>Node1</title>
<g id="a_node1"><a xlink:title="compress F_FX data">
<polygon fill="#bfbfbf" stroke="black" points="0,-114.5 0,-133.5 88,-133.5 88,-114.5 0,-114.5"/>
<text text-anchor="middle" x="44" y="-121.5" font-family="Helvetica,sans-Serif" font-size="10.00">compress_f_fx</text>
</a>
</g>
</g>
<!-- Node2 -->
<g id="node2" class="node">
<title>Node2</title>
<g id="a_node2"><a xlink:href="cmp__icu_8c_a68e2952d3ee5108ed25d85c0fe15cad9.html#a68e2952d3ee5108ed25d85c0fe15cad9" target="_top" xlink:title="compress the multi&#45;entry packet header structure and sets the data, model and up_model pointers to th...">
<polygon fill="white" stroke="black" points="124,-171.5 124,-190.5 270,-190.5 270,-171.5 124,-171.5"/>
<text text-anchor="middle" x="197" y="-178.5" font-family="Helvetica,sans-Serif" font-size="10.00">compress_multi_entry_hdr</text>
</a>
</g>
</g>
<!-- Node1&#45;&gt;Node2 -->
<g id="edge1" class="edge">
<title>Node1&#45;&gt;Node2</title>
<path fill="none" stroke="midnightblue" d="M62.46,-133.59C78.2,-141.95 102.15,-153.95 124,-162 130.52,-164.4 137.48,-166.64 144.4,-168.66"/>
<polygon fill="midnightblue" stroke="midnightblue" points="143.89,-172.15 154.46,-171.48 145.77,-165.41 143.89,-172.15"/>
</g>
<!-- Node3 -->
<g id="node3" class="node">
<title>Node3</title>
<g id="a_node3"><a xlink:href="cmp__icu_8c_a5434cde7ebe64a734bcd3029e0755d39.html#a5434cde7ebe64a734bcd3029e0755d39" target="_top" xlink:title="configure an encoder setup structure to have a setup to encode a vale">
<polygon fill="white" stroke="black" points="128,-133.5 128,-152.5 266,-152.5 266,-133.5 128,-133.5"/>
<text text-anchor="middle" x="197" y="-140.5" font-family="Helvetica,sans-Serif" font-size="10.00">configure_encoder_setup</text>
</a>
</g>
</g>
<!-- Node1&#45;&gt;Node3 -->
<g id="edge2" class="edge">
<title>Node1&#45;&gt;Node3</title>
<path fill="none" stroke="midnightblue" d="M88.27,-129.44C97.55,-130.61 107.63,-131.88 117.78,-133.16"/>
<polygon fill="midnightblue" stroke="midnightblue" points="117.56,-136.66 127.92,-134.43 118.44,-129.71 117.56,-136.66"/>
</g>
<!-- Node18 -->
<g id="node18" class="node">
<title>Node18</title>
<g id="a_node18"><a xlink:href="cmp__icu_8c_a5268c6512d945edcdc898cd1b2ca5396.html#a5268c6512d945edcdc898cd1b2ca5396" target="_top" xlink:title="encodes the data with the model and the given setup and put it into the bitstream">
<polygon fill="white" stroke="black" points="155,-95.5 155,-114.5 239,-114.5 239,-95.5 155,-95.5"/>
<text text-anchor="middle" x="197" y="-102.5" font-family="Helvetica,sans-Serif" font-size="10.00">encode_value</text>
</a>
</g>
</g>
<!-- Node1&#45;&gt;Node18 -->
<g id="edge22" class="edge">
<title>Node1&#45;&gt;Node18</title>
<path fill="none" stroke="midnightblue" d="M88.27,-118.56C105.92,-116.33 126.46,-113.75 144.84,-111.44"/>
<polygon fill="midnightblue" stroke="midnightblue" points="145.32,-114.91 154.8,-110.18 144.44,-107.96 145.32,-114.91"/>
</g>
<!-- Node19 -->
<g id="node19" class="node">
<title>Node19</title>
<g id="a_node19"><a xlink:href="cmp__support_8c_afba7806c424cfb8c7678c1b4cebdfcbb.html#afba7806c424cfb8c7678c1b4cebdfcbb" target="_top" xlink:title="check if a model mode is selected">
<polygon fill="white" stroke="black" points="136,-57.5 136,-76.5 258,-76.5 258,-57.5 136,-57.5"/>
<text text-anchor="middle" x="197" y="-64.5" font-family="Helvetica,sans-Serif" font-size="10.00">model_mode_is_used</text>
</a>
</g>
</g>
<!-- Node1&#45;&gt;Node19 -->
<g id="edge23" class="edge">
<title>Node1&#45;&gt;Node19</title>
<path fill="none" stroke="midnightblue" d="M62.46,-114.41C78.2,-106.05 102.15,-94.05 124,-86 130.52,-83.6 137.48,-81.36 144.4,-79.34"/>
<polygon fill="midnightblue" stroke="midnightblue" points="145.77,-82.59 154.46,-76.52 143.89,-75.85 145.77,-82.59"/>
</g>
<!-- Node4 -->
<g id="node4" class="node">
<title>Node4</title>
<g id="a_node4"><a xlink:href="cmp__icu_8c_a24f7f725d312368abff72e12ba0380c7.html#a24f7f725d312368abff72e12ba0380c7" target="_top" xlink:title="calculate the maximum length of the bitstream/icu_output_buf in bits">
<polygon fill="white" stroke="black" points="306,-294.5 306,-313.5 452,-313.5 452,-294.5 306,-294.5"/>
<text text-anchor="middle" x="379" y="-301.5" font-family="Helvetica,sans-Serif" font-size="10.00">cmp_buffer_length_to_bits</text>
</a>
</g>
</g>
<!-- Node3&#45;&gt;Node4 -->
<g id="edge3" class="edge">
<title>Node3&#45;&gt;Node4</title>
<path fill="none" stroke="midnightblue" d="M256.18,-152.66C261.23,-155.13 265.95,-158.19 270,-162 307.16,-196.96 271.98,-232.98 306,-271 313.44,-279.32 323.4,-285.68 333.53,-290.48"/>
<polygon fill="midnightblue" stroke="midnightblue" points="332.25,-293.74 342.82,-294.47 335.02,-287.31 332.25,-293.74"/>
</g>
<!-- Node8 -->
<g id="node8" class="node">
<title>Node8</title>
<g id="a_node8"><a xlink:href="cmp__icu_8c_aaea9e8cb11d380bb6a6c11020a7c77f9.html#aaea9e8cb11d380bb6a6c11020a7c77f9" target="_top" xlink:title="subtract the model from the data, encode the result and put it into bitstream, for encoding outlier u...">
<polygon fill="white" stroke="black" points="321.5,-152.5 321.5,-171.5 436.5,-171.5 436.5,-152.5 321.5,-152.5"/>
<text text-anchor="middle" x="379" y="-159.5" font-family="Helvetica,sans-Serif" font-size="10.00">encode_value_multi</text>
</a>
</g>
</g>
<!-- Node3&#45;&gt;Node8 -->
<g id="edge7" class="edge">
<title>Node3&#45;&gt;Node8</title>
<path fill="none" stroke="midnightblue" d="M266.05,-150.18C280.85,-151.75 296.5,-153.4 311.25,-154.95"/>
<polygon fill="midnightblue" stroke="midnightblue" points="310.99,-158.45 321.3,-156.01 311.72,-151.48 310.99,-158.45"/>
</g>
<!-- Node12 -->
<g id="node12" class="node">
<title>Node12</title>
<g id="a_node12"><a xlink:href="cmp__icu_8c_aa3eee2af4deb902d63df587a6a15af13.html#aa3eee2af4deb902d63df587a6a15af13" target="_top" xlink:title="put the value unencoded with setup&#45;&gt;cmp_par_1 bits without any changes in the bitstream">
<polygon fill="white" stroke="black" points="493.5,-261.5 493.5,-280.5 606.5,-280.5 606.5,-261.5 493.5,-261.5"/>
<text text-anchor="middle" x="550" y="-268.5" font-family="Helvetica,sans-Serif" font-size="10.00">encode_value_none</text>
</a>
</g>
</g>
<!-- Node3&#45;&gt;Node12 -->
<g id="edge12" class="edge">
<title>Node3&#45;&gt;Node12</title>
<path fill="none" stroke="midnightblue" d="M252.34,-152.54C258.63,-155 264.68,-158.1 270,-162 294.16,-179.72 281.43,-201.86 306,-219 358.16,-255.39 430.83,-267.11 483.09,-270.51"/>
<polygon fill="midnightblue" stroke="midnightblue" points="483.08,-274.02 493.26,-271.08 483.47,-267.03 483.08,-274.02"/>
</g>
<!-- Node13 -->
<g id="node13" class="node">
<title>Node13</title>
<g id="a_node13"><a xlink:href="cmp__icu_8c_a441be2f84e386657cc72dc61b7769ff1.html#a441be2f84e386657cc72dc61b7769ff1" target="_top" xlink:title="subtract the model from the data, encode the result and put it into bitstream, for encoding outlier u...">
<polygon fill="white" stroke="black" points="324,-190.5 324,-209.5 434,-209.5 434,-190.5 324,-190.5"/>
<text text-anchor="middle" x="379" y="-197.5" font-family="Helvetica,sans-Serif" font-size="10.00">encode_value_zero</text>
</a>
</g>
</g>
<!-- Node3&#45;&gt;Node13 -->
<g id="edge14" class="edge">
<title>Node3&#45;&gt;Node13</title>
<path fill="none" stroke="midnightblue" d="M240.77,-152.57C250.52,-155.22 260.73,-158.38 270,-162 286.86,-168.57 289.14,-174.43 306,-181 312.23,-183.43 318.88,-185.65 325.53,-187.66"/>
<polygon fill="midnightblue" stroke="midnightblue" points="324.65,-191.04 335.23,-190.43 326.57,-184.31 324.65,-191.04"/>
</g>
<!-- Node14 -->
<g id="node14" class="node">
<title>Node14</title>
<g id="a_node14"><a xlink:href="cmp__icu_8c_ad1becd97051927d20474767867ce34a7.html#ad1becd97051927d20474767867ce34a7" target="_top" xlink:title="forms a codeword according to the Golomb code">
<polygon fill="white" stroke="black" points="330,-114.5 330,-133.5 428,-133.5 428,-114.5 330,-114.5"/>
<text text-anchor="middle" x="379" y="-121.5" font-family="Helvetica,sans-Serif" font-size="10.00">golomb_encoder</text>
</a>
</g>
</g>
<!-- Node3&#45;&gt;Node14 -->
<g id="edge18" class="edge">
<title>Node3&#45;&gt;Node14</title>
<path fill="none" stroke="midnightblue" d="M266.05,-135.82C283.61,-133.96 302.36,-131.98 319.39,-130.19"/>
<polygon fill="midnightblue" stroke="midnightblue" points="320.17,-133.62 329.75,-129.09 319.44,-126.66 320.17,-133.62"/>
</g>
<!-- Node15 -->
<g id="node15" class="node">
<title>Node15</title>
<g id="a_node15"><a xlink:href="cmp__support_8c_a67b0e38ca0e68c282c89552daa61ffdf.html#a67b0e38ca0e68c282c89552daa61ffdf" target="_top" xlink:title="implementation of the logarithm base of floor(log2(x)) for integers">
<polygon fill="white" stroke="black" points="356,-76.5 356,-95.5 402,-95.5 402,-76.5 356,-76.5"/>
<text text-anchor="middle" x="379" y="-83.5" font-family="Helvetica,sans-Serif" font-size="10.00">ilog_2</text>
</a>
</g>
</g>
<!-- Node3&#45;&gt;Node15 -->
<g id="edge19" class="edge">
<title>Node3&#45;&gt;Node15</title>
<path fill="none" stroke="midnightblue" d="M240.77,-133.43C250.52,-130.78 260.73,-127.62 270,-124 286.86,-117.43 289.14,-111.57 306,-105 318.7,-100.05 333.16,-95.95 345.77,-92.84"/>
<polygon fill="midnightblue" stroke="midnightblue" points="346.92,-96.17 355.85,-90.47 345.31,-89.36 346.92,-96.17"/>
</g>
<!-- Node16 -->
<g id="node16" class="node">
<title>Node16</title>
<g id="a_node16"><a xlink:href="cmp__support_8c_a7831f21f8303058bcac76d42a4aa1c06.html#a7831f21f8303058bcac76d42a4aa1c06" target="_top" xlink:title="determining if an integer is a power of 2">
<polygon fill="white" stroke="black" points="335,-38.5 335,-57.5 423,-57.5 423,-38.5 335,-38.5"/>
<text text-anchor="middle" x="379" y="-45.5" font-family="Helvetica,sans-Serif" font-size="10.00">is_a_pow_of_2</text>
</a>
</g>
</g>
<!-- Node3&#45;&gt;Node16 -->
<g id="edge20" class="edge">
<title>Node3&#45;&gt;Node16</title>
<path fill="none" stroke="midnightblue" d="M252.34,-133.46C258.63,-131 264.68,-127.9 270,-124 294.16,-106.28 281.84,-84.72 306,-67 311.67,-62.84 318.19,-59.59 324.93,-57.05"/>
<polygon fill="midnightblue" stroke="midnightblue" points="326.47,-60.23 334.9,-53.82 324.31,-53.57 326.47,-60.23"/>
</g>
<!-- Node17 -->
<g id="node17" class="node">
<title>Node17</title>
<g id="a_node17"><a xlink:href="cmp__icu_8c_ad3bc9d18c24f7caeef7da35b9e389c19.html#ad3bc9d18c24f7caeef7da35b9e389c19" target="_top" xlink:title="forms the codeword according to the Rice code">
<polygon fill="white" stroke="black" points="339.5,-0.5 339.5,-19.5 418.5,-19.5 418.5,-0.5 339.5,-0.5"/>
<text text-anchor="middle" x="379" y="-7.5" font-family="Helvetica,sans-Serif" font-size="10.00">rice_encoder</text>
</a>
</g>
</g>
<!-- Node3&#45;&gt;Node17 -->
<g id="edge21" class="edge">
<title>Node3&#45;&gt;Node17</title>
<path fill="none" stroke="midnightblue" d="M255.3,-133.49C260.65,-131.01 265.68,-127.89 270,-124 303.55,-93.78 272.45,-59.22 306,-29 312.63,-23.03 320.92,-18.89 329.49,-16.04"/>
<polygon fill="midnightblue" stroke="midnightblue" points="330.52,-19.39 339.21,-13.34 328.64,-12.65 330.52,-19.39"/>
</g>
<!-- Node5 -->
<g id="node5" class="node">
<title>Node5</title>
<g id="a_node5"><a xlink:href="cmp__data__types_8c_aafa65f72ed4d0fb99beb11c37f11ce52.html#aafa65f72ed4d0fb99beb11c37f11ce52" target="_top" xlink:title="calculate the need bytes for the data">
<polygon fill="white" stroke="black" points="488,-299.5 488,-318.5 612,-318.5 612,-299.5 488,-299.5"/>
<text text-anchor="middle" x="550" y="-306.5" font-family="Helvetica,sans-Serif" font-size="10.00">cmp_cal_size_of_data</text>
</a>
</g>
</g>
<!-- Node4&#45;&gt;Node5 -->
<g id="edge4" class="edge">
<title>Node4&#45;&gt;Node5</title>
<path fill="none" stroke="midnightblue" d="M452.16,-306.13C460.64,-306.39 469.3,-306.64 477.77,-306.89"/>
<polygon fill="midnightblue" stroke="midnightblue" points="477.89,-310.4 487.98,-307.19 478.09,-303.4 477.89,-310.4"/>
</g>
<!-- Node6 -->
<g id="node6" class="node">
<title>Node6</title>
<g id="a_node6"><a xlink:href="cmp__support_8c_a9197caa657b3d84615c0d323dc96c502.html#a9197caa657b3d84615c0d323dc96c502" target="_top" xlink:title="check if the data product data type is supported by the RDCU compressor">
<polygon fill="white" stroke="black" points="648,-272 648,-302 767,-302 767,-272 648,-272"/>
<text text-anchor="start" x="656" y="-290" font-family="Helvetica,sans-Serif" font-size="10.00">rdcu_supported_data</text>
<text text-anchor="middle" x="707.5" y="-279" font-family="Helvetica,sans-Serif" font-size="10.00">_type_is_used</text>
</a>
</g>
</g>
<!-- Node5&#45;&gt;Node6 -->
<g id="edge5" class="edge">
<title>Node5&#45;&gt;Node6</title>
<path fill="none" stroke="midnightblue" d="M612.01,-300.37C620.51,-299.17 629.29,-297.92 637.92,-296.7"/>
<polygon fill="midnightblue" stroke="midnightblue" points="638.54,-300.15 647.95,-295.28 637.56,-293.22 638.54,-300.15"/>
</g>
<!-- Node7 -->
<g id="node7" class="node">
<title>Node7</title>
<g id="a_node7"><a xlink:href="cmp__data__types_8c_a0be8705b1dcc45f605abd8400dd5230b.html#a0be8705b1dcc45f605abd8400dd5230b" target="_top" xlink:title="calculate the size of a sample for the different compression data type">
<polygon fill="white" stroke="black" points="655.5,-321.5 655.5,-340.5 759.5,-340.5 759.5,-321.5 655.5,-321.5"/>
<text text-anchor="middle" x="707.5" y="-328.5" font-family="Helvetica,sans-Serif" font-size="10.00">size_of_a_sample</text>
</a>
</g>
</g>
<!-- Node5&#45;&gt;Node7 -->
<g id="edge6" class="edge">
<title>Node5&#45;&gt;Node7</title>
<path fill="none" stroke="midnightblue" d="M612.01,-317.63C622.84,-319.16 634.13,-320.76 644.98,-322.3"/>
<polygon fill="midnightblue" stroke="midnightblue" points="644.82,-325.81 655.21,-323.74 645.8,-318.88 644.82,-325.81"/>
</g>
<!-- Node9 -->
<g id="node9" class="node">
<title>Node9</title>
<g id="a_node9"><a xlink:href="cmp__icu_8c_a71aaf149c528b68d0c0ffc159acc0f98.html#a71aaf149c528b68d0c0ffc159acc0f98" target="_top" xlink:title="generate a code word without an outlier mechanism and put in the bitstream">
<polygon fill="white" stroke="black" points="504,-147.5 504,-166.5 596,-166.5 596,-147.5 504,-147.5"/>
<text text-anchor="middle" x="550" y="-154.5" font-family="Helvetica,sans-Serif" font-size="10.00">encode_normal</text>
</a>
</g>
</g>
<!-- Node8&#45;&gt;Node9 -->
<g id="edge8" class="edge">
<title>Node8&#45;&gt;Node9</title>
<path fill="none" stroke="midnightblue" d="M436.74,-160.32C455.11,-159.78 475.43,-159.18 493.69,-158.64"/>
<polygon fill="midnightblue" stroke="midnightblue" points="493.99,-162.13 503.88,-158.33 493.78,-155.13 493.99,-162.13"/>
</g>
<!-- Node10 -->
<g id="node10" class="node">
<title>Node10</title>
<g id="a_node10"><a xlink:href="cmp__icu_8c_afd32ccddf2e0986e9ff136ae55a11d35.html#afd32ccddf2e0986e9ff136ae55a11d35" target="_top" xlink:title="put the value of up to 32 bits into a big endian bitstream">
<polygon fill="white" stroke="black" points="668,-201.5 668,-220.5 747,-220.5 747,-201.5 668,-201.5"/>
<text text-anchor="middle" x="707.5" y="-208.5" font-family="Helvetica,sans-Serif" font-size="10.00">put_n_bits32</text>
</a>
</g>
</g>
<!-- Node8&#45;&gt;Node10 -->
<g id="edge11" class="edge">
<title>Node8&#45;&gt;Node10</title>
<path fill="none" stroke="midnightblue" d="M414.21,-152.39C435.29,-146.97 462.99,-140.75 488,-138 542.78,-131.99 559.84,-120.2 612,-138 644.33,-149.03 674.19,-176.1 691.37,-194"/>
<polygon fill="midnightblue" stroke="midnightblue" points="688.95,-196.54 698.33,-201.48 694.08,-191.78 688.95,-196.54"/>
</g>
<!-- Node11 -->
<g id="node11" class="node">
<title>Node11</title>
<g id="a_node11"><a xlink:href="cmp__icu_8c_a208c98e6a4b7423d5003ea0d1c3a4fe3.html#a208c98e6a4b7423d5003ea0d1c3a4fe3" target="_top" xlink:title="map a signed value into a positive value range">
<polygon fill="white" stroke="black" points="512,-185.5 512,-204.5 588,-204.5 588,-185.5 512,-185.5"/>
<text text-anchor="middle" x="550" y="-192.5" font-family="Helvetica,sans-Serif" font-size="10.00">map_to_pos</text>
</a>
</g>
</g>
<!-- Node8&#45;&gt;Node11 -->
<g id="edge10" class="edge">
<title>Node8&#45;&gt;Node11</title>
<path fill="none" stroke="midnightblue" d="M428.88,-171.54C451.79,-176.02 478.98,-181.33 501.69,-185.76"/>
<polygon fill="midnightblue" stroke="midnightblue" points="501.29,-189.25 511.77,-187.73 502.63,-182.38 501.29,-189.25"/>
</g>
<!-- Node9&#45;&gt;Node10 -->
<g id="edge9" class="edge">
<title>Node9&#45;&gt;Node10</title>
<path fill="none" stroke="midnightblue" d="M582.76,-166.55C592.21,-169.48 602.55,-172.78 612,-176 632.12,-182.85 654.43,-191.09 672.32,-197.84"/>
<polygon fill="midnightblue" stroke="midnightblue" points="671.17,-201.15 681.76,-201.43 673.65,-194.61 671.17,-201.15"/>
</g>
<!-- Node12&#45;&gt;Node10 -->
<g id="edge13" class="edge">
<title>Node12&#45;&gt;Node10</title>
<path fill="none" stroke="midnightblue" d="M575.64,-261.49C601.72,-251.43 643.08,-235.47 672.31,-224.19"/>
<polygon fill="midnightblue" stroke="midnightblue" points="673.65,-227.43 681.72,-220.56 671.13,-220.9 673.65,-227.43"/>
</g>
<!-- Node13&#45;&gt;Node9 -->
<g id="edge15" class="edge">
<title>Node13&#45;&gt;Node9</title>
<path fill="none" stroke="midnightblue" d="M417.51,-190.46C442.34,-184.14 475.11,-175.8 501.73,-169.03"/>
<polygon fill="midnightblue" stroke="midnightblue" points="502.77,-172.37 511.6,-166.52 501.04,-165.59 502.77,-172.37"/>
</g>
<!-- Node13&#45;&gt;Node10 -->
<g id="edge17" class="edge">
<title>Node13&#45;&gt;Node10</title>
<path fill="none" stroke="midnightblue" d="M434.26,-208.42C451.4,-210.71 470.45,-212.87 488,-214 543,-217.55 556.9,-214.87 612,-214 626.79,-213.77 642.88,-213.32 657.52,-212.85"/>
<polygon fill="midnightblue" stroke="midnightblue" points="658.01,-216.34 667.89,-212.5 657.77,-209.34 658.01,-216.34"/>
</g>
<!-- Node13&#45;&gt;Node11 -->
<g id="edge16" class="edge">
<title>Node13&#45;&gt;Node11</title>
<path fill="none" stroke="midnightblue" d="M434.4,-198.39C456.03,-197.75 480.68,-197.02 501.57,-196.4"/>
<polygon fill="midnightblue" stroke="midnightblue" points="501.91,-199.89 511.8,-196.1 501.7,-192.9 501.91,-199.89"/>
</g>
</g>
</svg>
