<?xml version="1.0" encoding="UTF-8" standalone="no"?>
<!DOCTYPE svg PUBLIC "-//W3C//DTD SVG 1.1//EN"
 "http://www.w3.org/Graphics/SVG/1.1/DTD/svg11.dtd">
<!-- Generated by graphviz version 2.43.0 (0)
 -->
<!-- Title: cmp_ent_set_original_size Pages: 1 -->
<svg width="921pt" height="369pt"
 viewBox="0.00 0.00 921.00 368.50" xmlns="http://www.w3.org/2000/svg" xmlns:xlink="http://www.w3.org/1999/xlink">
<g id="graph0" class="graph" transform="scale(1 1) rotate(0) translate(4 364.5)">
<title>cmp_ent_set_original_size</title>
<polygon fill="white" stroke="transparent" points="-4,4 -4,-364.5 917,-364.5 917,4 -4,4"/>
<!-- Node1 -->
<g id="node1" class="node">
<title>Node1</title>
<g id="a_node1"><a xlink:title="set the original size of the compressed data in the entity header">
<polygon fill="#bfbfbf" stroke="black" points="767,-68.5 767,-87.5 913,-87.5 913,-68.5 767,-68.5"/>
<text text-anchor="middle" x="840" y="-75.5" font-family="Helvetica,sans-Serif" font-size="10.00">cmp_ent_set_original_size</text>
</a>
</g>
</g>
<!-- Node2 -->
<g id="node2" class="node">
<title>Node2</title>
<g id="a_node2"><a xlink:href="cmp__entity_8c_a553b4a765f1cfcd37f82a818db2cf2b9.html#a553b4a765f1cfcd37f82a818db2cf2b9" target="_top" xlink:title="write the compression parameters from a compression configuration into the compression entity header">
<polygon fill="white" stroke="black" points="586,-139.5 586,-158.5 727,-158.5 727,-139.5 586,-139.5"/>
<text text-anchor="middle" x="656.5" y="-146.5" font-family="Helvetica,sans-Serif" font-size="10.00">cmp_ent_write_cmp_pars</text>
</a>
</g>
</g>
<!-- Node1&#45;&gt;Node2 -->
<g id="edge1" class="edge">
<title>Node1&#45;&gt;Node2</title>
<path fill="none" stroke="midnightblue" d="M810.6,-92.16C789.08,-102.58 758.59,-116.67 731,-127 718.78,-131.58 705.14,-135.88 692.96,-139.44"/>
<polygon fill="midnightblue" stroke="midnightblue" points="812.37,-95.19 819.82,-87.66 809.3,-88.9 812.37,-95.19"/>
</g>
<!-- Node14 -->
<g id="node14" class="node">
<title>Node14</title>
<g id="a_node14"><a xlink:href="cmp__entity_8c_aac25fce5ba205dafed1781d24250c7b3.html#aac25fce5ba205dafed1781d24250c7b3" target="_top" xlink:title="write the parameters from the RDCU decompression information structure in the compression entity head...">
<polygon fill="white" stroke="black" points="599,-88 599,-118 714,-118 714,-88 599,-88"/>
<text text-anchor="start" x="607" y="-106" font-family="Helvetica,sans-Serif" font-size="10.00">cmp_ent_write_rdcu</text>
<text text-anchor="middle" x="656.5" y="-95" font-family="Helvetica,sans-Serif" font-size="10.00">_cmp_pars</text>
</a>
</g>
</g>
<!-- Node1&#45;&gt;Node14 -->
<g id="edge13" class="edge">
<title>Node1&#45;&gt;Node14</title>
<path fill="none" stroke="midnightblue" d="M759.83,-88.91C744.42,-91.03 728.56,-93.21 714.06,-95.21"/>
<polygon fill="midnightblue" stroke="midnightblue" points="760.44,-92.35 769.86,-87.52 759.48,-85.42 760.44,-92.35"/>
</g>
<!-- Node15 -->
<g id="node15" class="node">
<title>Node15</title>
<g id="a_node15"><a xlink:href="test__decmp_8c_a83b6283115165bfb92bf9008dcbdc41d.html#a83b6283115165bfb92bf9008dcbdc41d" target="_top" xlink:title=" ">
<polygon fill="white" stroke="black" points="582,-39 582,-69 731,-69 731,-39 582,-39"/>
<text text-anchor="start" x="590" y="-57" font-family="Helvetica,sans-Serif" font-size="10.00">test_cmp_ent_read_header</text>
<text text-anchor="middle" x="656.5" y="-46" font-family="Helvetica,sans-Serif" font-size="10.00">_error_cases</text>
</a>
</g>
</g>
<!-- Node1&#45;&gt;Node15 -->
<g id="edge15" class="edge">
<title>Node1&#45;&gt;Node15</title>
<path fill="none" stroke="midnightblue" d="M756.98,-67.15C748.39,-66.02 739.69,-64.87 731.19,-63.74"/>
<polygon fill="midnightblue" stroke="midnightblue" points="756.63,-70.64 767.01,-68.48 757.55,-63.7 756.63,-70.64"/>
</g>
<!-- Node16 -->
<g id="node16" class="node">
<title>Node16</title>
<g id="a_node16"><a xlink:href="test__cmp__entity_8c_a7fe3464b992bb3200413cf15cb40f332.html#a7fe3464b992bb3200413cf15cb40f332" target="_top" xlink:title=" ">
<polygon fill="white" stroke="black" points="595,-0.5 595,-19.5 718,-19.5 718,-0.5 595,-0.5"/>
<text text-anchor="middle" x="656.5" y="-7.5" font-family="Helvetica,sans-Serif" font-size="10.00">test_ent_original_size</text>
</a>
</g>
</g>
<!-- Node1&#45;&gt;Node16 -->
<g id="edge16" class="edge">
<title>Node1&#45;&gt;Node16</title>
<path fill="none" stroke="midnightblue" d="M811.1,-63.73C789.61,-53.13 758.95,-38.87 731,-29 720.93,-25.45 709.88,-22.24 699.47,-19.51"/>
<polygon fill="midnightblue" stroke="midnightblue" points="809.78,-66.98 820.29,-68.31 812.9,-60.71 809.78,-66.98"/>
</g>
<!-- Node3 -->
<g id="node3" class="node">
<title>Node3</title>
<g id="a_node3"><a xlink:href="cmp__entity_8c_ac68e6942c21572a9513a9a7577126458.html#ac68e6942c21572a9513a9a7577126458" target="_top" xlink:title="create a compression entity and set the header fields">
<polygon fill="white" stroke="black" points="430,-240.5 430,-259.5 518,-259.5 518,-240.5 430,-240.5"/>
<text text-anchor="middle" x="474" y="-247.5" font-family="Helvetica,sans-Serif" font-size="10.00">cmp_ent_build</text>
</a>
</g>
</g>
<!-- Node2&#45;&gt;Node3 -->
<g id="edge2" class="edge">
<title>Node2&#45;&gt;Node3</title>
<path fill="none" stroke="midnightblue" d="M630.51,-163.67C608.39,-176.58 575.2,-195.79 546,-212 528.15,-221.91 507.57,-232.87 493.18,-240.47"/>
<polygon fill="midnightblue" stroke="midnightblue" points="632.4,-166.62 639.26,-158.55 628.86,-160.58 632.4,-166.62"/>
</g>
<!-- Node10 -->
<g id="node10" class="node">
<title>Node10</title>
<g id="a_node10"><a xlink:href="test__decmp_8c_a2d642d4d482b9ec7eca4568a95f5bdd4.html#a2d642d4d482b9ec7eca4568a95f5bdd4" target="_top" xlink:title=" ">
<polygon fill="white" stroke="black" points="402,-183.5 402,-202.5 546,-202.5 546,-183.5 402,-183.5"/>
<text text-anchor="middle" x="474" y="-190.5" font-family="Helvetica,sans-Serif" font-size="10.00">icu_compress_data_entity</text>
</a>
</g>
</g>
<!-- Node2&#45;&gt;Node10 -->
<g id="edge9" class="edge">
<title>Node2&#45;&gt;Node10</title>
<path fill="none" stroke="midnightblue" d="M606.4,-160.97C577.39,-168.04 541.15,-176.87 514.09,-183.47"/>
<polygon fill="midnightblue" stroke="midnightblue" points="607.45,-164.32 616.33,-158.55 605.79,-157.52 607.45,-164.32"/>
</g>
<!-- Node12 -->
<g id="node12" class="node">
<title>Node12</title>
<g id="a_node12"><a xlink:href="test__decmp_8c_a27e5a2b67e3e81da1be024826485b2e3.html#a27e5a2b67e3e81da1be024826485b2e3" target="_top" xlink:title=" ">
<polygon fill="white" stroke="black" points="417.5,-134 417.5,-164 530.5,-164 530.5,-134 417.5,-134"/>
<text text-anchor="start" x="425.5" y="-152" font-family="Helvetica,sans-Serif" font-size="10.00">test_cmp_ent_write</text>
<text text-anchor="middle" x="474" y="-141" font-family="Helvetica,sans-Serif" font-size="10.00">_cmp_pars</text>
</a>
</g>
</g>
<!-- Node2&#45;&gt;Node12 -->
<g id="edge11" class="edge">
<title>Node2&#45;&gt;Node12</title>
<path fill="none" stroke="midnightblue" d="M575.59,-149C560.47,-149 544.96,-149 530.78,-149"/>
<polygon fill="midnightblue" stroke="midnightblue" points="575.97,-152.5 585.97,-149 575.97,-145.5 575.97,-152.5"/>
</g>
<!-- Node13 -->
<g id="node13" class="node">
<title>Node13</title>
<g id="a_node13"><a xlink:href="test__cmp__entity_8c_a8f7fd6d8b939382555507ecf2e74ec79.html#a8f7fd6d8b939382555507ecf2e74ec79" target="_top" xlink:title=" ">
<polygon fill="white" stroke="black" points="417.5,-85 417.5,-115 530.5,-115 530.5,-85 417.5,-85"/>
<text text-anchor="start" x="425.5" y="-103" font-family="Helvetica,sans-Serif" font-size="10.00">test_cmp_ent_write</text>
<text text-anchor="middle" x="474" y="-92" font-family="Helvetica,sans-Serif" font-size="10.00">_rdcu_cmp_pars</text>
</a>
</g>
</g>
<!-- Node2&#45;&gt;Node13 -->
<g id="edge12" class="edge">
<title>Node2&#45;&gt;Node13</title>
<path fill="none" stroke="midnightblue" d="M610.6,-136.81C586.32,-130.22 556.12,-122.02 530.39,-115.04"/>
<polygon fill="midnightblue" stroke="midnightblue" points="609.7,-140.19 620.27,-139.44 611.54,-133.44 609.7,-140.19"/>
</g>
<!-- Node4 -->
<g id="node4" class="node">
<title>Node4</title>
<g id="a_node4"><a xlink:href="test__cmp__decmp_8c_a50ba26014079160ca77b7d7fa76ce0f4.html#a50ba26014079160ca77b7d7fa76ce0f4" target="_top" xlink:title="compress the given configuration and decompress it afterwards; finally compare the results">
<polygon fill="white" stroke="black" points="195,-335.5 195,-354.5 353,-354.5 353,-335.5 195,-335.5"/>
<text text-anchor="middle" x="274" y="-342.5" font-family="Helvetica,sans-Serif" font-size="10.00">compression_decompression</text>
</a>
</g>
</g>
<!-- Node3&#45;&gt;Node4 -->
<g id="edge3" class="edge">
<title>Node3&#45;&gt;Node4</title>
<path fill="none" stroke="midnightblue" d="M454.93,-266.44C434.74,-283.9 400.35,-311 366,-326 357.13,-329.88 347.41,-332.98 337.74,-335.46"/>
<polygon fill="midnightblue" stroke="midnightblue" points="457.49,-268.85 462.67,-259.61 452.86,-263.6 457.49,-268.85"/>
</g>
<!-- Node6 -->
<g id="node6" class="node">
<title>Node6</title>
<g id="a_node6"><a xlink:href="test__decmp_8c_a6e7a5e150e2c829836db3c42cdec2eec.html#a6e7a5e150e2c829836db3c42cdec2eec" target="_top" xlink:title=" ">
<polygon fill="white" stroke="black" points="182,-297.5 182,-316.5 366,-316.5 366,-297.5 182,-297.5"/>
<text text-anchor="middle" x="274" y="-304.5" font-family="Helvetica,sans-Serif" font-size="10.00">test_cmp_decmp_n_imagette_raw</text>
</a>
</g>
</g>
<!-- Node3&#45;&gt;Node6 -->
<g id="edge5" class="edge">
<title>Node3&#45;&gt;Node6</title>
<path fill="none" stroke="midnightblue" d="M439.68,-263.15C418.75,-271.07 391.07,-280.97 366,-288 353.41,-291.53 339.68,-294.73 326.79,-297.45"/>
<polygon fill="midnightblue" stroke="midnightblue" points="440.99,-266.39 449.08,-259.55 438.49,-259.86 440.99,-266.39"/>
</g>
<!-- Node7 -->
<g id="node7" class="node">
<title>Node7</title>
<g id="a_node7"><a xlink:href="test__cmp__entity_8c_a13c81359af8798146608574ab0e113fb.html#a13c81359af8798146608574ab0e113fb" target="_top" xlink:title=" ">
<polygon fill="white" stroke="black" points="218,-259.5 218,-278.5 330,-278.5 330,-259.5 218,-259.5"/>
<text text-anchor="middle" x="274" y="-266.5" font-family="Helvetica,sans-Serif" font-size="10.00">test_cmp_ent_build</text>
</a>
</g>
</g>
<!-- Node3&#45;&gt;Node7 -->
<g id="edge6" class="edge">
<title>Node3&#45;&gt;Node7</title>
<path fill="none" stroke="midnightblue" d="M419.26,-255.16C391.59,-257.81 357.91,-261.04 330.05,-263.72"/>
<polygon fill="midnightblue" stroke="midnightblue" points="419.93,-258.61 429.55,-254.17 419.26,-251.64 419.93,-258.61"/>
</g>
<!-- Node8 -->
<g id="node8" class="node">
<title>Node8</title>
<g id="a_node8"><a xlink:href="test__cmp__entity_8c_a893444224bcd50fbb99e42e85989b4a6.html#a893444224bcd50fbb99e42e85989b4a6" target="_top" xlink:title=" ">
<polygon fill="white" stroke="black" points="216.5,-221.5 216.5,-240.5 331.5,-240.5 331.5,-221.5 216.5,-221.5"/>
<text text-anchor="middle" x="274" y="-228.5" font-family="Helvetica,sans-Serif" font-size="10.00">test_cmp_ent_parse</text>
</a>
</g>
</g>
<!-- Node3&#45;&gt;Node8 -->
<g id="edge7" class="edge">
<title>Node3&#45;&gt;Node8</title>
<path fill="none" stroke="midnightblue" d="M419.43,-244.86C392.21,-242.25 359.14,-239.07 331.52,-236.42"/>
<polygon fill="midnightblue" stroke="midnightblue" points="419.26,-248.36 429.55,-245.83 419.93,-241.39 419.26,-248.36"/>
</g>
<!-- Node9 -->
<g id="node9" class="node">
<title>Node9</title>
<g id="a_node9"><a xlink:href="test__cmp__entity_8c_a28c5d64d3c7c61100798fa39100d0f30.html#a28c5d64d3c7c61100798fa39100d0f30" target="_top" xlink:title=" ">
<polygon fill="white" stroke="black" points="219,-183.5 219,-202.5 329,-202.5 329,-183.5 219,-183.5"/>
<text text-anchor="middle" x="274" y="-190.5" font-family="Helvetica,sans-Serif" font-size="10.00">test_cmp_ent_print</text>
</a>
</g>
</g>
<!-- Node3&#45;&gt;Node9 -->
<g id="edge8" class="edge">
<title>Node3&#45;&gt;Node9</title>
<path fill="none" stroke="midnightblue" d="M439.68,-236.85C418.75,-228.93 391.07,-219.03 366,-212 353.41,-208.47 339.68,-205.27 326.79,-202.55"/>
<polygon fill="midnightblue" stroke="midnightblue" points="438.49,-240.14 449.08,-240.45 440.99,-233.61 438.49,-240.14"/>
</g>
<!-- Node5 -->
<g id="node5" class="node">
<title>Node5</title>
<g id="a_node5"><a xlink:href="test__cmp__decmp_8c_af3c162694b40683e0aa25c61a49cdafc.html#af3c162694b40683e0aa25c61a49cdafc" target="_top" xlink:title="random compression decompression test">
<polygon fill="white" stroke="black" points="0,-330 0,-360 146,-360 146,-330 0,-330"/>
<text text-anchor="start" x="8" y="-348" font-family="Helvetica,sans-Serif" font-size="10.00">test_random_compression</text>
<text text-anchor="middle" x="73" y="-337" font-family="Helvetica,sans-Serif" font-size="10.00">_decompression</text>
</a>
</g>
</g>
<!-- Node4&#45;&gt;Node5 -->
<g id="edge4" class="edge">
<title>Node4&#45;&gt;Node5</title>
<path fill="none" stroke="midnightblue" d="M184.63,-345C171.72,-345 158.55,-345 146.01,-345"/>
<polygon fill="midnightblue" stroke="midnightblue" points="184.92,-348.5 194.92,-345 184.92,-341.5 184.92,-348.5"/>
</g>
<!-- Node11 -->
<g id="node11" class="node">
<title>Node11</title>
<g id="a_node11"><a xlink:href="test__decmp_8c_a1a33e2fcbf484c79dfe661b280386f6b.html#a1a33e2fcbf484c79dfe661b280386f6b" target="_top" xlink:title=" ">
<polygon fill="white" stroke="black" points="201,-145.5 201,-164.5 347,-164.5 347,-145.5 201,-145.5"/>
<text text-anchor="middle" x="274" y="-152.5" font-family="Helvetica,sans-Serif" font-size="10.00">test_cmp_decmp_s_fx_diff</text>
</a>
</g>
</g>
<!-- Node10&#45;&gt;Node11 -->
<g id="edge10" class="edge">
<title>Node10&#45;&gt;Node11</title>
<path fill="none" stroke="midnightblue" d="M413.13,-181.51C384.88,-176.09 351.56,-169.69 324.73,-164.54"/>
<polygon fill="midnightblue" stroke="midnightblue" points="412.81,-185.01 423.29,-183.46 414.13,-178.14 412.81,-185.01"/>
</g>
<!-- Node14&#45;&gt;Node13 -->
<g id="edge14" class="edge">
<title>Node14&#45;&gt;Node13</title>
<path fill="none" stroke="midnightblue" d="M588.77,-101.89C569.71,-101.57 549.13,-101.23 530.8,-100.93"/>
<polygon fill="midnightblue" stroke="midnightblue" points="588.83,-105.39 598.88,-102.06 588.94,-98.39 588.83,-105.39"/>
</g>
</g>
</svg>
