<?xml version="1.0" encoding="UTF-8" standalone="no"?>
<!DOCTYPE svg PUBLIC "-//W3C//DTD SVG 1.1//EN"
 "http://www.w3.org/Graphics/SVG/1.1/DTD/svg11.dtd">
<!-- Generated by graphviz version 2.43.0 (0)
 -->
<!-- Title: cmp_ent_get_ima_ap2_golomb_par Pages: 1 -->
<!--zoomable 335 -->
<svg id="main" version="1.1" xmlns="http://www.w3.org/2000/svg" xmlns:xlink="http://www.w3.org/1999/xlink" xml:space="preserve" onload="init(evt)">
<style type="text/css"><![CDATA[
.edge:hover path { stroke: red; }
.edge:hover polygon { stroke: red; fill: red; }
]]></style>
<script type="text/javascript"><![CDATA[
var edges = document.getElementsByTagName('g');
if (edges && edges.length) {
  for (var i=0;i<edges.length;i++) {
    if (edges[i].id.substr(0,4)=='edge') {
      edges[i].setAttribute('class','edge');
    }
  }
}
]]></script>
        <defs>
                <circle id="rim" cx="0" cy="0" r="7"/>
                <circle id="rim2" cx="0" cy="0" r="3.5"/>
                <g id="zoomPlus">
                        <use xlink:href="#rim" fill="#404040">
                                <set attributeName="fill" to="#808080" begin="zoomplus.mouseover" end="zoomplus.mouseout"/>
                        </use>
                        <path d="M-4,0h8M0,-4v8" fill="none" stroke="white" stroke-width="1.5" pointer-events="none"/>
                </g>
                <g id="zoomMin">
                        <use xlink:href="#rim" fill="#404040">
                                <set attributeName="fill" to="#808080" begin="zoomminus.mouseover" end="zoomminus.mouseout"/>
                        </use>
                        <path d="M-4,0h8" fill="none" stroke="white" stroke-width="1.5" pointer-events="none"/>
                </g>
                <g id="dirArrow">
                        <path fill="none" stroke="white" stroke-width="1.5" d="M0,-3.0v7 M-2.5,-0.5L0,-3.0L2.5,-0.5"/>
                </g>
               <g id="resetDef">
                       <use xlink:href="#rim2" fill="#404040">
                               <set attributeName="fill" to="#808080" begin="reset.mouseover" end="reset.mouseout"/>
                       </use>
               </g>
        </defs>

<script type="text/javascript">
var viewWidth = 925;
var viewHeight = 335;
var sectionId = 'dynsection-0';
</script>
<script xlink:href="svgpan.js"/>
<svg id="graph" class="graph">
<g id="viewport">
<title>cmp_ent_get_ima_ap2_golomb_par</title>
<polygon fill="white" stroke="transparent" points="-4,4 -4,-331 921,-331 921,4 -4,4"/>
<!-- Node1 -->
<g id="node1" class="node">
<title>Node1</title>
<g id="a_node1"><a xlink:title="get the used adaptive 2 spillover threshold parameter from the adaptive imagette specific compression...">
<polygon fill="#bfbfbf" stroke="black" points="790,-102 790,-132 917,-132 917,-102 790,-102"/>
<text text-anchor="start" x="798" y="-120" font-family="Helvetica,sans-Serif" font-size="10.00">cmp_ent_get_ima_ap2</text>
<text text-anchor="middle" x="853.5" y="-109" font-family="Helvetica,sans-Serif" font-size="10.00">_golomb_par</text>
</a>
</g>
</g>
<!-- Node2 -->
<g id="node2" class="node">
<title>Node2</title>
<g id="a_node2"><a xlink:href="cmp__entity_8c_a61045ef2115730b0239b706dd5343123.html#a61045ef2115730b0239b706dd5343123" target="_top" xlink:title="parse the adaptive imagette specific compressed entity header">
<polygon fill="white" stroke="black" points="598,-242 598,-272 743,-272 743,-242 598,-242"/>
<text text-anchor="start" x="606" y="-260" font-family="Helvetica,sans-Serif" font-size="10.00">cmp_ent_parese_adaptive</text>
<text text-anchor="middle" x="670.5" y="-249" font-family="Helvetica,sans-Serif" font-size="10.00">_imagette_header</text>
</a>
</g>
</g>
<!-- Node1&#45;&gt;Node2 -->
<g id="edge1" class="edge">
<title>Node1&#45;&gt;Node2</title>
<path fill="none" stroke="midnightblue" d="M824.43,-138.71C787.36,-167.39 723.04,-217.14 690.92,-241.98"/>
<polygon fill="midnightblue" stroke="midnightblue" points="827.02,-141.14 832.79,-132.25 822.73,-135.6 827.02,-141.14"/>
</g>
<!-- Node6 -->
<g id="node6" class="node">
<title>Node6</title>
<g id="a_node6"><a xlink:href="decmp_8c_a74bca2e933b64c4e4738700db181be76.html#a74bca2e933b64c4e4738700db181be76" target="_top" xlink:title="read in an imagette compression entity header to a compression configuration">
<polygon fill="white" stroke="black" points="608,-164.5 608,-183.5 733,-183.5 733,-164.5 608,-164.5"/>
<text text-anchor="middle" x="670.5" y="-171.5" font-family="Helvetica,sans-Serif" font-size="10.00">cmp_ent_read_header</text>
</a>
</g>
</g>
<!-- Node1&#45;&gt;Node6 -->
<g id="edge5" class="edge">
<title>Node1&#45;&gt;Node6</title>
<path fill="none" stroke="midnightblue" d="M798.69,-135.46C784.22,-140.31 768.54,-145.45 754,-150 738.06,-154.99 720.27,-160.21 705.31,-164.5"/>
<polygon fill="midnightblue" stroke="midnightblue" points="800.13,-138.67 808.49,-132.16 797.9,-132.04 800.13,-138.67"/>
</g>
<!-- Node15 -->
<g id="node15" class="node">
<title>Node15</title>
<g id="a_node15"><a xlink:href="test__decmp_8c_a27e5a2b67e3e81da1be024826485b2e3.html#a27e5a2b67e3e81da1be024826485b2e3" target="_top" xlink:title=" ">
<polygon fill="white" stroke="black" points="420,-110 420,-140 533,-140 533,-110 420,-110"/>
<text text-anchor="start" x="428" y="-128" font-family="Helvetica,sans-Serif" font-size="10.00">test_cmp_ent_write</text>
<text text-anchor="middle" x="476.5" y="-117" font-family="Helvetica,sans-Serif" font-size="10.00">_cmp_pars</text>
</a>
</g>
</g>
<!-- Node1&#45;&gt;Node15 -->
<g id="edge16" class="edge">
<title>Node1&#45;&gt;Node15</title>
<path fill="none" stroke="midnightblue" d="M779.36,-118.56C707.21,-120.1 598.5,-122.42 533.12,-123.81"/>
<polygon fill="midnightblue" stroke="midnightblue" points="779.81,-122.05 789.73,-118.34 779.66,-115.05 779.81,-122.05"/>
</g>
<!-- Node16 -->
<g id="node16" class="node">
<title>Node16</title>
<g id="a_node16"><a xlink:href="test__cmp__entity_8c_a13c81359af8798146608574ab0e113fb.html#a13c81359af8798146608574ab0e113fb" target="_top" xlink:title=" ">
<polygon fill="white" stroke="black" points="614.5,-88.5 614.5,-107.5 726.5,-107.5 726.5,-88.5 614.5,-88.5"/>
<text text-anchor="middle" x="670.5" y="-95.5" font-family="Helvetica,sans-Serif" font-size="10.00">test_cmp_ent_build</text>
</a>
</g>
</g>
<!-- Node1&#45;&gt;Node16 -->
<g id="edge15" class="edge">
<title>Node1&#45;&gt;Node16</title>
<path fill="none" stroke="midnightblue" d="M779.7,-109.36C762.05,-107.51 743.47,-105.56 726.79,-103.8"/>
<polygon fill="midnightblue" stroke="midnightblue" points="779.65,-112.87 789.96,-110.43 780.38,-105.91 779.65,-112.87"/>
</g>
<!-- Node17 -->
<g id="node17" class="node">
<title>Node17</title>
<g id="a_node17"><a xlink:href="test__cmp__entity_8c_a8f7fd6d8b939382555507ecf2e74ec79.html#a8f7fd6d8b939382555507ecf2e74ec79" target="_top" xlink:title=" ">
<polygon fill="white" stroke="black" points="614,-39 614,-69 727,-69 727,-39 614,-39"/>
<text text-anchor="start" x="622" y="-57" font-family="Helvetica,sans-Serif" font-size="10.00">test_cmp_ent_write</text>
<text text-anchor="middle" x="670.5" y="-46" font-family="Helvetica,sans-Serif" font-size="10.00">_rdcu_cmp_pars</text>
</a>
</g>
</g>
<!-- Node1&#45;&gt;Node17 -->
<g id="edge17" class="edge">
<title>Node1&#45;&gt;Node17</title>
<path fill="none" stroke="midnightblue" d="M805.98,-98.24C789.64,-91.87 771.1,-84.88 754,-79 744.09,-75.59 733.44,-72.18 723.18,-69.02"/>
<polygon fill="midnightblue" stroke="midnightblue" points="804.73,-101.51 815.32,-101.91 807.29,-95 804.73,-101.51"/>
</g>
<!-- Node18 -->
<g id="node18" class="node">
<title>Node18</title>
<g id="a_node18"><a xlink:href="test__cmp__entity_8c_a9e783ac4adf71dcf4db3cbb6e1230d7f.html#a9e783ac4adf71dcf4db3cbb6e1230d7f" target="_top" xlink:title=" ">
<polygon fill="white" stroke="black" points="587,-0.5 587,-19.5 754,-19.5 754,-0.5 587,-0.5"/>
<text text-anchor="middle" x="670.5" y="-7.5" font-family="Helvetica,sans-Serif" font-size="10.00">test_ent_ima_ap2_golomb_par</text>
</a>
</g>
</g>
<!-- Node1&#45;&gt;Node18 -->
<g id="edge18" class="edge">
<title>Node1&#45;&gt;Node18</title>
<path fill="none" stroke="midnightblue" d="M833.16,-94.15C814.82,-73.97 785.46,-45.29 754,-29 746.56,-25.15 738.34,-22.07 730.06,-19.61"/>
<polygon fill="midnightblue" stroke="midnightblue" points="830.6,-96.54 839.86,-101.69 835.83,-91.89 830.6,-96.54"/>
</g>
<!-- Node3 -->
<g id="node3" class="node">
<title>Node3</title>
<g id="a_node3"><a xlink:href="cmp__entity_8c_ada578f9cc10464104076bc466b962b78.html#ada578f9cc10464104076bc466b962b78" target="_top" xlink:title="parse the specific compressed entity header">
<polygon fill="white" stroke="black" points="407,-282 407,-312 546,-312 546,-282 407,-282"/>
<text text-anchor="start" x="415" y="-300" font-family="Helvetica,sans-Serif" font-size="10.00">cmp_ent_parese_specific</text>
<text text-anchor="middle" x="476.5" y="-289" font-family="Helvetica,sans-Serif" font-size="10.00">_header</text>
</a>
</g>
</g>
<!-- Node2&#45;&gt;Node3 -->
<g id="edge2" class="edge">
<title>Node2&#45;&gt;Node3</title>
<path fill="none" stroke="midnightblue" d="M587.77,-274.03C573.96,-276.9 559.75,-279.86 546.32,-282.66"/>
<polygon fill="midnightblue" stroke="midnightblue" points="588.66,-277.42 597.73,-271.95 587.23,-270.56 588.66,-277.42"/>
</g>
<!-- Node4 -->
<g id="node4" class="node">
<title>Node4</title>
<g id="a_node4"><a xlink:href="cmp__entity_8c_a1f4478c4d9938fa6f5631e88298ed816.html#a1f4478c4d9938fa6f5631e88298ed816" target="_top" xlink:title="parse the compressed entity header">
<polygon fill="white" stroke="black" points="228.5,-306.5 228.5,-325.5 319.5,-325.5 319.5,-306.5 228.5,-306.5"/>
<text text-anchor="middle" x="274" y="-313.5" font-family="Helvetica,sans-Serif" font-size="10.00">cmp_ent_parse</text>
</a>
</g>
</g>
<!-- Node3&#45;&gt;Node4 -->
<g id="edge3" class="edge">
<title>Node3&#45;&gt;Node4</title>
<path fill="none" stroke="midnightblue" d="M396.52,-304.48C370.43,-306.96 342.33,-309.62 319.73,-311.76"/>
<polygon fill="midnightblue" stroke="midnightblue" points="397.15,-307.94 406.78,-303.51 396.49,-300.97 397.15,-307.94"/>
</g>
<!-- Node5 -->
<g id="node5" class="node">
<title>Node5</title>
<g id="a_node5"><a xlink:href="test__cmp__entity_8c_a893444224bcd50fbb99e42e85989b4a6.html#a893444224bcd50fbb99e42e85989b4a6" target="_top" xlink:title=" ">
<polygon fill="white" stroke="black" points="15.5,-307.5 15.5,-326.5 130.5,-326.5 130.5,-307.5 15.5,-307.5"/>
<text text-anchor="middle" x="73" y="-314.5" font-family="Helvetica,sans-Serif" font-size="10.00">test_cmp_ent_parse</text>
</a>
</g>
</g>
<!-- Node4&#45;&gt;Node5 -->
<g id="edge4" class="edge">
<title>Node4&#45;&gt;Node5</title>
<path fill="none" stroke="midnightblue" d="M218.2,-316.28C190.98,-316.41 158.11,-316.58 130.64,-316.72"/>
<polygon fill="midnightblue" stroke="midnightblue" points="218.36,-319.77 228.34,-316.22 218.32,-312.77 218.36,-319.77"/>
</g>
<!-- Node7 -->
<g id="node7" class="node">
<title>Node7</title>
<g id="a_node7"><a xlink:href="decmp_8h_aefe0fa39fdc295432f5e2e0f91f0b87f.html#aefe0fa39fdc295432f5e2e0f91f0b87f" target="_top" xlink:title="decompress a compression entity">
<polygon fill="white" stroke="black" points="410.5,-208.5 410.5,-227.5 542.5,-227.5 542.5,-208.5 410.5,-208.5"/>
<text text-anchor="middle" x="476.5" y="-215.5" font-family="Helvetica,sans-Serif" font-size="10.00">decompress_cmp_entiy</text>
</a>
</g>
</g>
<!-- Node6&#45;&gt;Node7 -->
<g id="edge6" class="edge">
<title>Node6&#45;&gt;Node7</title>
<path fill="none" stroke="midnightblue" d="M618.08,-185.78C587.08,-192.89 548.12,-201.82 519.08,-208.47"/>
<polygon fill="midnightblue" stroke="midnightblue" points="618.87,-189.19 627.84,-183.55 617.31,-182.37 618.87,-189.19"/>
</g>
<!-- Node14 -->
<g id="node14" class="node">
<title>Node14</title>
<g id="a_node14"><a xlink:href="test__decmp_8c_a83b6283115165bfb92bf9008dcbdc41d.html#a83b6283115165bfb92bf9008dcbdc41d" target="_top" xlink:title=" ">
<polygon fill="white" stroke="black" points="402,-159 402,-189 551,-189 551,-159 402,-159"/>
<text text-anchor="start" x="410" y="-177" font-family="Helvetica,sans-Serif" font-size="10.00">test_cmp_ent_read_header</text>
<text text-anchor="middle" x="476.5" y="-166" font-family="Helvetica,sans-Serif" font-size="10.00">_error_cases</text>
</a>
</g>
</g>
<!-- Node6&#45;&gt;Node14 -->
<g id="edge13" class="edge">
<title>Node6&#45;&gt;Node14</title>
<path fill="none" stroke="midnightblue" d="M597.6,-174C582.41,-174 566.36,-174 551.11,-174"/>
<polygon fill="midnightblue" stroke="midnightblue" points="597.96,-177.5 607.96,-174 597.96,-170.5 597.96,-177.5"/>
</g>
<!-- Node6&#45;&gt;Node15 -->
<g id="edge14" class="edge">
<title>Node6&#45;&gt;Node15</title>
<path fill="none" stroke="midnightblue" d="M622.06,-161.89C595.12,-155.02 561.25,-146.37 533.07,-139.18"/>
<polygon fill="midnightblue" stroke="midnightblue" points="621.47,-165.35 632.02,-164.44 623.2,-158.57 621.47,-165.35"/>
</g>
<!-- Node8 -->
<g id="node8" class="node">
<title>Node8</title>
<g id="a_node8"><a xlink:href="test__cmp__decmp_8c_a50ba26014079160ca77b7d7fa76ce0f4.html#a50ba26014079160ca77b7d7fa76ce0f4" target="_top" xlink:title="compress the given configuration and decompress it afterwards; finally compare the results">
<polygon fill="white" stroke="black" points="195,-265.5 195,-284.5 353,-284.5 353,-265.5 195,-265.5"/>
<text text-anchor="middle" x="274" y="-272.5" font-family="Helvetica,sans-Serif" font-size="10.00">compression_decompression</text>
</a>
</g>
</g>
<!-- Node7&#45;&gt;Node8 -->
<g id="edge7" class="edge">
<title>Node7&#45;&gt;Node8</title>
<path fill="none" stroke="midnightblue" d="M441.37,-231.11C419.95,-239.02 391.62,-248.91 366,-256 353.24,-259.53 339.32,-262.75 326.29,-265.49"/>
<polygon fill="midnightblue" stroke="midnightblue" points="442.85,-234.29 451,-227.52 440.4,-227.74 442.85,-234.29"/>
</g>
<!-- Node10 -->
<g id="node10" class="node">
<title>Node10</title>
<g id="a_node10"><a xlink:href="test__decmp_8c_a6e7a5e150e2c829836db3c42cdec2eec.html#a6e7a5e150e2c829836db3c42cdec2eec" target="_top" xlink:title=" ">
<polygon fill="white" stroke="black" points="182,-227.5 182,-246.5 366,-246.5 366,-227.5 182,-227.5"/>
<text text-anchor="middle" x="274" y="-234.5" font-family="Helvetica,sans-Serif" font-size="10.00">test_cmp_decmp_n_imagette_raw</text>
</a>
</g>
</g>
<!-- Node7&#45;&gt;Node10 -->
<g id="edge9" class="edge">
<title>Node7&#45;&gt;Node10</title>
<path fill="none" stroke="midnightblue" d="M400.36,-225.12C389.27,-226.17 377.74,-227.26 366.36,-228.34"/>
<polygon fill="midnightblue" stroke="midnightblue" points="400.78,-228.6 410.4,-224.17 400.12,-221.63 400.78,-228.6"/>
</g>
<!-- Node11 -->
<g id="node11" class="node">
<title>Node11</title>
<g id="a_node11"><a xlink:href="test__decmp_8c_a1a33e2fcbf484c79dfe661b280386f6b.html#a1a33e2fcbf484c79dfe661b280386f6b" target="_top" xlink:title=" ">
<polygon fill="white" stroke="black" points="201,-189.5 201,-208.5 347,-208.5 347,-189.5 201,-189.5"/>
<text text-anchor="middle" x="274" y="-196.5" font-family="Helvetica,sans-Serif" font-size="10.00">test_cmp_decmp_s_fx_diff</text>
</a>
</g>
</g>
<!-- Node7&#45;&gt;Node11 -->
<g id="edge10" class="edge">
<title>Node7&#45;&gt;Node11</title>
<path fill="none" stroke="midnightblue" d="M400.28,-210.87C382.85,-209.22 364.34,-207.47 347.05,-205.83"/>
<polygon fill="midnightblue" stroke="midnightblue" points="400.12,-214.37 410.4,-211.83 400.78,-207.4 400.12,-214.37"/>
</g>
<!-- Node12 -->
<g id="node12" class="node">
<title>Node12</title>
<g id="a_node12"><a xlink:href="test__decmp_8c_acfebf2fa7515f5449e0cfa594457b66b.html#acfebf2fa7515f5449e0cfa594457b66b" target="_top" xlink:title=" ">
<polygon fill="white" stroke="black" points="233,-151.5 233,-170.5 315,-170.5 315,-151.5 233,-151.5"/>
<text text-anchor="middle" x="274" y="-158.5" font-family="Helvetica,sans-Serif" font-size="10.00">test_s_fx_diff</text>
</a>
</g>
</g>
<!-- Node7&#45;&gt;Node12 -->
<g id="edge11" class="edge">
<title>Node7&#45;&gt;Node12</title>
<path fill="none" stroke="midnightblue" d="M424.89,-205.65C417.14,-203.35 409.3,-200.79 402,-198 385.29,-191.62 382.9,-185.88 366,-180 349.69,-174.33 331.12,-170.08 315.02,-167.05"/>
<polygon fill="midnightblue" stroke="midnightblue" points="424.03,-209.04 434.6,-208.41 425.94,-202.31 424.03,-209.04"/>
</g>
<!-- Node13 -->
<g id="node13" class="node">
<title>Node13</title>
<g id="a_node13"><a xlink:href="test__decmp_8c_a953eeaad914985c0816dde26d47ffef0.html#a953eeaad914985c0816dde26d47ffef0" target="_top" xlink:title=" ">
<polygon fill="white" stroke="black" points="225.5,-113.5 225.5,-132.5 322.5,-132.5 322.5,-113.5 225.5,-113.5"/>
<text text-anchor="middle" x="274" y="-120.5" font-family="Helvetica,sans-Serif" font-size="10.00">test_s_fx_model</text>
</a>
</g>
</g>
<!-- Node7&#45;&gt;Node13 -->
<g id="edge12" class="edge">
<title>Node7&#45;&gt;Node13</title>
<path fill="none" stroke="midnightblue" d="M412.5,-204.36C408.8,-202.5 405.27,-200.39 402,-198 378.14,-180.51 390.38,-158.77 366,-142 353.37,-133.31 337.58,-128.45 322.72,-125.78"/>
<polygon fill="midnightblue" stroke="midnightblue" points="411.38,-207.69 421.95,-208.47 414.18,-201.27 411.38,-207.69"/>
</g>
<!-- Node9 -->
<g id="node9" class="node">
<title>Node9</title>
<g id="a_node9"><a xlink:href="test__cmp__decmp_8c_af3c162694b40683e0aa25c61a49cdafc.html#af3c162694b40683e0aa25c61a49cdafc" target="_top" xlink:title="random compression decompression test">
<polygon fill="white" stroke="black" points="0,-258 0,-288 146,-288 146,-258 0,-258"/>
<text text-anchor="start" x="8" y="-276" font-family="Helvetica,sans-Serif" font-size="10.00">test_random_compression</text>
<text text-anchor="middle" x="73" y="-265" font-family="Helvetica,sans-Serif" font-size="10.00">_decompression</text>
</a>
</g>
</g>
<!-- Node8&#45;&gt;Node9 -->
<g id="edge8" class="edge">
<title>Node8&#45;&gt;Node9</title>
<path fill="none" stroke="midnightblue" d="M184.63,-274.11C171.72,-273.98 158.55,-273.85 146.01,-273.72"/>
<polygon fill="midnightblue" stroke="midnightblue" points="184.89,-277.61 194.92,-274.22 184.96,-270.61 184.89,-277.61"/>
</g>
</g>
</svg>
        <g id="navigator" transform="translate(0 0)" fill="#404254">
                <rect fill="#f2f5e9" fill-opacity="0.5" stroke="#606060" stroke-width=".5" x="0" y="0" width="60" height="60"/>
                <use id="zoomplus" xlink:href="#zoomPlus" x="17" y="9" onmousedown="handleZoom(evt,'in')"/>
                <use id="zoomminus" xlink:href="#zoomMin" x="42" y="9" onmousedown="handleZoom(evt,'out')"/>
                <use id="reset" xlink:href="#resetDef" x="30" y="36" onmousedown="handleReset()"/>
                <g id="arrowUp" xlink:href="#dirArrow" transform="translate(30 24)" onmousedown="handlePan(0,-1)">
                  <use xlink:href="#rim" fill="#404040">
                        <set attributeName="fill" to="#808080" begin="arrowUp.mouseover" end="arrowUp.mouseout"/>
                  </use>
                  <path fill="none" stroke="white" stroke-width="1.5" d="M0,-3.0v7 M-2.5,-0.5L0,-3.0L2.5,-0.5"/>
                </g>
                <g id="arrowRight" xlink:href="#dirArrow" transform="rotate(90) translate(36 -43)" onmousedown="handlePan(1,0)">
                  <use xlink:href="#rim" fill="#404040">
                        <set attributeName="fill" to="#808080" begin="arrowRight.mouseover" end="arrowRight.mouseout"/>
                  </use>
                  <path fill="none" stroke="white" stroke-width="1.5" d="M0,-3.0v7 M-2.5,-0.5L0,-3.0L2.5,-0.5"/>
                </g>
                <g id="arrowDown" xlink:href="#dirArrow" transform="rotate(180) translate(-30 -48)" onmousedown="handlePan(0,1)">
                  <use xlink:href="#rim" fill="#404040">
                        <set attributeName="fill" to="#808080" begin="arrowDown.mouseover" end="arrowDown.mouseout"/>
                  </use>
                  <path fill="none" stroke="white" stroke-width="1.5" d="M0,-3.0v7 M-2.5,-0.5L0,-3.0L2.5,-0.5"/>
                </g>
                <g id="arrowLeft" xlink:href="#dirArrow" transform="rotate(270) translate(-36 17)" onmousedown="handlePan(-1,0)">
                  <use xlink:href="#rim" fill="#404040">
                        <set attributeName="fill" to="#808080" begin="arrowLeft.mouseover" end="arrowLeft.mouseout"/>
                  </use>
                  <path fill="none" stroke="white" stroke-width="1.5" d="M0,-3.0v7 M-2.5,-0.5L0,-3.0L2.5,-0.5"/>
                </g>
        </g>
        <svg viewBox="0 0 15 15" width="100%" height="30px" preserveAspectRatio="xMaxYMin meet">
         <g id="arrow_out" transform="scale(0.3 0.3)">
          <a xlink:href="cmp__entity_8c_aba889dd69b3ae248265c79d975d377e9_aba889dd69b3ae248265c79d975d377e9_icgraph_org.svg" target="_base">
           <rect id="button" ry="5" rx="5" y="6" x="6" height="38" width="38"
                fill="#f2f5e9" fill-opacity="0.5" stroke="#606060" stroke-width="1.0"/>
           <path id="arrow"
             d="M 11.500037,31.436501 C 11.940474,20.09759 22.043105,11.32322 32.158766,21.979434 L 37.068811,17.246167 C 37.068811,17.246167 37.088388,32 37.088388,32 L 22.160133,31.978069 C 22.160133,31.978069 26.997745,27.140456 26.997745,27.140456 C 18.528582,18.264221 13.291696,25.230495 11.500037,31.436501 z"
             style="fill:#404040;"/>
          </a>
         </g>
        </svg>
</svg>
