<?xml version="1.0" encoding="UTF-8" standalone="no"?>
<!DOCTYPE svg PUBLIC "-//W3C//DTD SVG 1.1//EN"
 "http://www.w3.org/Graphics/SVG/1.1/DTD/svg11.dtd">
<!-- Generated by graphviz version 2.43.0 (0)
 -->
<!-- Title: rdcu_cfg_imagette Pages: 1 -->
<svg width="771pt" height="158pt"
 viewBox="0.00 0.00 771.00 157.50" xmlns="http://www.w3.org/2000/svg" xmlns:xlink="http://www.w3.org/1999/xlink">
<g id="graph0" class="graph" transform="scale(1 1) rotate(0) translate(4 153.5)">
<title>rdcu_cfg_imagette</title>
<polygon fill="white" stroke="transparent" points="-4,4 -4,-153.5 767,-153.5 767,4 -4,4"/>
<!-- Node1 -->
<g id="node1" class="node">
<title>Node1</title>
<g id="a_node1"><a xlink:title="set up the configuration parameters for an RDCU imagette compression">
<polygon fill="#bfbfbf" stroke="black" points="0,-80.5 0,-99.5 107,-99.5 107,-80.5 0,-80.5"/>
<text text-anchor="middle" x="53.5" y="-87.5" font-family="Helvetica,sans-Serif" font-size="10.00">rdcu_cfg_imagette</text>
</a>
</g>
</g>
<!-- Node2 -->
<g id="node2" class="node">
<title>Node2</title>
<g id="a_node2"><a xlink:href="cmp__support_8c_a6f2fb8760a0168031bcd7bc9cda97d1e.html#a6f2fb8760a0168031bcd7bc9cda97d1e" target="_top" xlink:title="check if the imagette specific compression parameters are invalid">
<polygon fill="white" stroke="black" points="143,-75 143,-105 264,-105 264,-75 143,-75"/>
<text text-anchor="start" x="151" y="-93" font-family="Helvetica,sans-Serif" font-size="10.00">cmp_cfg_imagette_is</text>
<text text-anchor="middle" x="203.5" y="-82" font-family="Helvetica,sans-Serif" font-size="10.00">_invalid</text>
</a>
</g>
</g>
<!-- Node1&#45;&gt;Node2 -->
<g id="edge1" class="edge">
<title>Node1&#45;&gt;Node2</title>
<path fill="none" stroke="midnightblue" d="M107.1,-90C115.4,-90 124.09,-90 132.71,-90"/>
<polygon fill="midnightblue" stroke="midnightblue" points="132.76,-93.5 142.76,-90 132.76,-86.5 132.76,-93.5"/>
</g>
<!-- Node3 -->
<g id="node3" class="node">
<title>Node3</title>
<g id="a_node3"><a xlink:href="cmp__support_8c_a1eff9dab3c3ab66953c329fa1bf38bb5.html#a1eff9dab3c3ab66953c329fa1bf38bb5" target="_top" xlink:title="check if an adaptive imagette compression data type is used">
<polygon fill="white" stroke="black" points="300,-119 300,-149 431,-149 431,-119 300,-119"/>
<text text-anchor="start" x="308" y="-137" font-family="Helvetica,sans-Serif" font-size="10.00">cmp_ap_imagette_data</text>
<text text-anchor="middle" x="365.5" y="-126" font-family="Helvetica,sans-Serif" font-size="10.00">_type_is_used</text>
</a>
</g>
</g>
<!-- Node2&#45;&gt;Node3 -->
<g id="edge2" class="edge">
<title>Node2&#45;&gt;Node3</title>
<path fill="none" stroke="midnightblue" d="M259.12,-105.02C272.3,-108.65 286.51,-112.55 300.1,-116.29"/>
<polygon fill="midnightblue" stroke="midnightblue" points="299.29,-119.7 309.86,-118.97 301.15,-112.95 299.29,-119.7"/>
</g>
<!-- Node4 -->
<g id="node4" class="node">
<title>Node4</title>
<g id="a_node4"><a xlink:href="cmp__support_8c_a01181fec3ef69e316b4d77de4df9865f.html#a01181fec3ef69e316b4d77de4df9865f" target="_top" xlink:title="check if an imagette compression data type is used">
<polygon fill="white" stroke="black" points="467,-77 467,-107 608,-107 608,-77 467,-77"/>
<text text-anchor="start" x="475" y="-95" font-family="Helvetica,sans-Serif" font-size="10.00">cmp_imagette_data_type</text>
<text text-anchor="middle" x="537.5" y="-84" font-family="Helvetica,sans-Serif" font-size="10.00">_is_used</text>
</a>
</g>
</g>
<!-- Node2&#45;&gt;Node4 -->
<g id="edge3" class="edge">
<title>Node2&#45;&gt;Node4</title>
<path fill="none" stroke="midnightblue" d="M264.24,-90.36C318.06,-90.68 397.61,-91.16 456.83,-91.52"/>
<polygon fill="midnightblue" stroke="midnightblue" points="456.88,-95.02 466.9,-91.58 456.92,-88.02 456.88,-95.02"/>
</g>
<!-- Node6 -->
<g id="node6" class="node">
<title>Node6</title>
<g id="a_node6"><a xlink:href="cmp__support_8c_adbae174c7bd594fd05723ddc667f5b54.html#adbae174c7bd594fd05723ddc667f5b54" target="_top" xlink:title="check if the combination of the different compression parameters is invalid">
<polygon fill="white" stroke="black" points="304,-41.5 304,-60.5 427,-60.5 427,-41.5 304,-41.5"/>
<text text-anchor="middle" x="365.5" y="-48.5" font-family="Helvetica,sans-Serif" font-size="10.00">cmp_pars_are_invalid</text>
</a>
</g>
</g>
<!-- Node2&#45;&gt;Node6 -->
<g id="edge5" class="edge">
<title>Node2&#45;&gt;Node6</title>
<path fill="none" stroke="midnightblue" d="M264.08,-75.48C281,-71.35 299.23,-66.91 315.45,-62.96"/>
<polygon fill="midnightblue" stroke="midnightblue" points="316.38,-66.33 325.26,-60.56 314.72,-59.53 316.38,-66.33"/>
</g>
<!-- Node5 -->
<g id="node5" class="node">
<title>Node5</title>
<g id="a_node5"><a xlink:href="cmp__support_8c_a9197caa657b3d84615c0d323dc96c502.html#a9197caa657b3d84615c0d323dc96c502" target="_top" xlink:title="check if the data product data type is supported by the RDCU compressor">
<polygon fill="white" stroke="black" points="644,-77 644,-107 763,-107 763,-77 644,-77"/>
<text text-anchor="start" x="652" y="-95" font-family="Helvetica,sans-Serif" font-size="10.00">rdcu_supported_data</text>
<text text-anchor="middle" x="703.5" y="-84" font-family="Helvetica,sans-Serif" font-size="10.00">_type_is_used</text>
</a>
</g>
</g>
<!-- Node4&#45;&gt;Node5 -->
<g id="edge4" class="edge">
<title>Node4&#45;&gt;Node5</title>
<path fill="none" stroke="midnightblue" d="M608.05,-92C616.55,-92 625.24,-92 633.73,-92"/>
<polygon fill="midnightblue" stroke="midnightblue" points="633.97,-95.5 643.97,-92 633.97,-88.5 633.97,-95.5"/>
</g>
<!-- Node6&#45;&gt;Node4 -->
<g id="edge9" class="edge">
<title>Node6&#45;&gt;Node4</title>
<path fill="none" stroke="midnightblue" d="M405.93,-60.51C423.29,-64.7 444.26,-69.75 464.26,-74.58"/>
<polygon fill="midnightblue" stroke="midnightblue" points="463.44,-77.98 473.98,-76.92 465.08,-71.18 463.44,-77.98"/>
</g>
<!-- Node7 -->
<g id="node7" class="node">
<title>Node7</title>
<g id="a_node7"><a xlink:href="cmp__support_8c_aefdc949ff52e4920859d0bd82f5aa5aa.html#aefdc949ff52e4920859d0bd82f5aa5aa" target="_top" xlink:title="get the maximum valid spill threshold value for a non&#45;imagette compression in diff or model mode">
<polygon fill="white" stroke="black" points="482.5,-38.5 482.5,-57.5 592.5,-57.5 592.5,-38.5 482.5,-38.5"/>
<text text-anchor="middle" x="537.5" y="-45.5" font-family="Helvetica,sans-Serif" font-size="10.00">cmp_icu_max_spill</text>
</a>
</g>
</g>
<!-- Node6&#45;&gt;Node7 -->
<g id="edge6" class="edge">
<title>Node6&#45;&gt;Node7</title>
<path fill="none" stroke="midnightblue" d="M427.39,-49.93C441.95,-49.67 457.53,-49.39 472.23,-49.13"/>
<polygon fill="midnightblue" stroke="midnightblue" points="472.3,-52.63 482.24,-48.96 472.18,-45.63 472.3,-52.63"/>
</g>
<!-- Node9 -->
<g id="node9" class="node">
<title>Node9</title>
<g id="a_node9"><a xlink:href="cmp__support_8c_a743a6fcf9ff9d9c86e5dcd2521694472.html#a743a6fcf9ff9d9c86e5dcd2521694472" target="_top" xlink:title="get the maximum valid spill threshold value for a imagette compression in diff or model mode">
<polygon fill="white" stroke="black" points="480.5,-0.5 480.5,-19.5 594.5,-19.5 594.5,-0.5 480.5,-0.5"/>
<text text-anchor="middle" x="537.5" y="-7.5" font-family="Helvetica,sans-Serif" font-size="10.00">cmp_ima_max_spill</text>
</a>
</g>
</g>
<!-- Node6&#45;&gt;Node9 -->
<g id="edge8" class="edge">
<title>Node6&#45;&gt;Node9</title>
<path fill="none" stroke="midnightblue" d="M405.93,-41.49C430.09,-35.66 461.22,-28.16 487.02,-21.93"/>
<polygon fill="midnightblue" stroke="midnightblue" points="488.09,-25.28 496.99,-19.53 486.45,-18.47 488.09,-25.28"/>
</g>
<!-- Node8 -->
<g id="node8" class="node">
<title>Node8</title>
<g id="a_node8"><a xlink:href="cmp__support_8c_a67b0e38ca0e68c282c89552daa61ffdf.html#a67b0e38ca0e68c282c89552daa61ffdf" target="_top" xlink:title="implementation of the logarithm base of floor(log2(x)) for integers">
<polygon fill="white" stroke="black" points="680.5,-38.5 680.5,-57.5 726.5,-57.5 726.5,-38.5 680.5,-38.5"/>
<text text-anchor="middle" x="703.5" y="-45.5" font-family="Helvetica,sans-Serif" font-size="10.00">ilog_2</text>
</a>
</g>
</g>
<!-- Node7&#45;&gt;Node8 -->
<g id="edge7" class="edge">
<title>Node7&#45;&gt;Node8</title>
<path fill="none" stroke="midnightblue" d="M592.65,-48C618.31,-48 648.1,-48 670.17,-48"/>
<polygon fill="midnightblue" stroke="midnightblue" points="670.34,-51.5 680.34,-48 670.34,-44.5 670.34,-51.5"/>
</g>
</g>
</svg>
