<?xml version="1.0" encoding="UTF-8" standalone="no"?>
<!DOCTYPE svg PUBLIC "-//W3C//DTD SVG 1.1//EN"
 "http://www.w3.org/Graphics/SVG/1.1/DTD/svg11.dtd">
<!-- Generated by graphviz version 2.43.0 (0)
 -->
<!-- Title: cmp_ent_print_data Pages: 1 -->
<svg width="828pt" height="116pt"
 viewBox="0.00 0.00 828.00 116.00" xmlns="http://www.w3.org/2000/svg" xmlns:xlink="http://www.w3.org/1999/xlink">
<g id="graph0" class="graph" transform="scale(1 1) rotate(0) translate(4 112)">
<title>cmp_ent_print_data</title>
<polygon fill="white" stroke="transparent" points="-4,4 -4,-112 824,-112 824,4 -4,4"/>
<!-- Node1 -->
<g id="node1" class="node">
<title>Node1</title>
<g id="a_node1"><a xlink:title="print the compressed data of the entity">
<polygon fill="#bfbfbf" stroke="black" points="0,-25.5 0,-44.5 113,-44.5 113,-25.5 0,-25.5"/>
<text text-anchor="middle" x="56.5" y="-32.5" font-family="Helvetica,sans-Serif" font-size="10.00">cmp_ent_print_data</text>
</a>
</g>
</g>
<!-- Node2 -->
<g id="node2" class="node">
<title>Node2</title>
<g id="a_node2"><a xlink:href="cmp__entity_8c_a6fc83a1c918c2d0c565f8f828fce62b7.html#a6fc83a1c918c2d0c565f8f828fce62b7" target="_top" xlink:title="get the size of the compressed data based on the set data product type and compressed entity size in ...">
<polygon fill="white" stroke="black" points="149,-44.5 149,-63.5 307,-63.5 307,-44.5 149,-44.5"/>
<text text-anchor="middle" x="228" y="-51.5" font-family="Helvetica,sans-Serif" font-size="10.00">cmp_ent_get_cmp_data_size</text>
</a>
</g>
</g>
<!-- Node1&#45;&gt;Node2 -->
<g id="edge1" class="edge">
<title>Node1&#45;&gt;Node2</title>
<path fill="none" stroke="midnightblue" d="M113,-41.22C121.35,-42.16 130.13,-43.14 138.95,-44.13"/>
<polygon fill="midnightblue" stroke="midnightblue" points="138.59,-47.61 148.92,-45.25 139.37,-40.66 138.59,-47.61"/>
</g>
<!-- Node9 -->
<g id="node9" class="node">
<title>Node9</title>
<g id="a_node9"><a xlink:href="cmp__entity_8c_a00cca03217aff11fc4afdc43ca23c417.html#a00cca03217aff11fc4afdc43ca23c417" target="_top" xlink:title="get the start address of the compressed data in the compression entity">
<polygon fill="white" stroke="black" points="343,-6.5 343,-25.5 471,-25.5 471,-6.5 343,-6.5"/>
<text text-anchor="middle" x="407" y="-13.5" font-family="Helvetica,sans-Serif" font-size="10.00">cmp_ent_get_data_buf</text>
</a>
</g>
</g>
<!-- Node1&#45;&gt;Node9 -->
<g id="edge8" class="edge">
<title>Node1&#45;&gt;Node9</title>
<path fill="none" stroke="midnightblue" d="M113.11,-31.97C172.57,-28.73 267.15,-23.57 332.67,-20"/>
<polygon fill="midnightblue" stroke="midnightblue" points="333.13,-23.48 342.93,-19.44 332.75,-16.49 333.13,-23.48"/>
</g>
<!-- Node3 -->
<g id="node3" class="node">
<title>Node3</title>
<g id="a_node3"><a xlink:href="cmp__entity_8c_a802778418cfd52cf107c7af6d0405e8a.html#a802778418cfd52cf107c7af6d0405e8a" target="_top" xlink:title="get the size of the compression entity header based on the set data product type in compression entit...">
<polygon fill="white" stroke="black" points="344.5,-44.5 344.5,-63.5 469.5,-63.5 469.5,-44.5 344.5,-44.5"/>
<text text-anchor="middle" x="407" y="-51.5" font-family="Helvetica,sans-Serif" font-size="10.00">cmp_ent_get_hdr_size</text>
</a>
</g>
</g>
<!-- Node2&#45;&gt;Node3 -->
<g id="edge2" class="edge">
<title>Node2&#45;&gt;Node3</title>
<path fill="none" stroke="midnightblue" d="M307.15,-54C316.23,-54 325.46,-54 334.45,-54"/>
<polygon fill="midnightblue" stroke="midnightblue" points="334.48,-57.5 344.48,-54 334.48,-50.5 334.48,-57.5"/>
</g>
<!-- Node8 -->
<g id="node8" class="node">
<title>Node8</title>
<g id="a_node8"><a xlink:href="cmp__entity_8c_a5046b9ebae291aeeba89b4f9eaf43673.html#a5046b9ebae291aeeba89b4f9eaf43673" target="_top" xlink:title="get the size of the compression entity from the compression entity header">
<polygon fill="white" stroke="black" points="355,-82.5 355,-101.5 459,-101.5 459,-82.5 355,-82.5"/>
<text text-anchor="middle" x="407" y="-89.5" font-family="Helvetica,sans-Serif" font-size="10.00">cmp_ent_get_size</text>
</a>
</g>
</g>
<!-- Node2&#45;&gt;Node8 -->
<g id="edge7" class="edge">
<title>Node2&#45;&gt;Node8</title>
<path fill="none" stroke="midnightblue" d="M273.66,-63.59C297.34,-68.67 326.61,-74.96 351.6,-80.32"/>
<polygon fill="midnightblue" stroke="midnightblue" points="351.14,-83.8 361.66,-82.48 352.61,-76.96 351.14,-83.8"/>
</g>
<!-- Node4 -->
<g id="node4" class="node">
<title>Node4</title>
<g id="a_node4"><a xlink:href="cmp__entity_8c_ac4f3e5eb03e7dc0f1a646dd150543af5.html#ac4f3e5eb03e7dc0f1a646dd150543af5" target="_top" xlink:title="calculate the size of the compression entity header based on a compression data product type">
<polygon fill="white" stroke="black" points="512,-88.5 512,-107.5 636,-107.5 636,-88.5 512,-88.5"/>
<text text-anchor="middle" x="574" y="-95.5" font-family="Helvetica,sans-Serif" font-size="10.00">cmp_ent_cal_hdr_size</text>
</a>
</g>
</g>
<!-- Node3&#45;&gt;Node4 -->
<g id="edge3" class="edge">
<title>Node3&#45;&gt;Node4</title>
<path fill="none" stroke="midnightblue" d="M443.8,-63.55C468.34,-70.09 501.1,-78.83 527.5,-85.87"/>
<polygon fill="midnightblue" stroke="midnightblue" points="526.7,-89.28 537.27,-88.47 528.51,-82.51 526.7,-89.28"/>
</g>
<!-- Node6 -->
<g id="node6" class="node">
<title>Node6</title>
<g id="a_node6"><a xlink:href="cmp__entity_8c_a2f2b18a1db94847afbfc30a8e7f142cf.html#a2f2b18a1db94847afbfc30a8e7f142cf" target="_top" xlink:title="get data_type from the compression entity header">
<polygon fill="white" stroke="black" points="507,-0.5 507,-19.5 641,-19.5 641,-0.5 507,-0.5"/>
<text text-anchor="middle" x="574" y="-7.5" font-family="Helvetica,sans-Serif" font-size="10.00">cmp_ent_get_data_type</text>
</a>
</g>
</g>
<!-- Node3&#45;&gt;Node6 -->
<g id="edge5" class="edge">
<title>Node3&#45;&gt;Node6</title>
<path fill="none" stroke="midnightblue" d="M443.8,-44.45C468.34,-37.91 501.1,-29.17 527.5,-22.13"/>
<polygon fill="midnightblue" stroke="midnightblue" points="528.51,-25.49 537.27,-19.53 526.7,-18.72 528.51,-25.49"/>
</g>
<!-- Node7 -->
<g id="node7" class="node">
<title>Node7</title>
<g id="a_node7"><a xlink:href="cmp__entity_8c_a8edb7fa093195536f03038be2a5341a4.html#a8edb7fa093195536f03038be2a5341a4" target="_top" xlink:title="get the raw bit from the data_type field of the compression entity header">
<polygon fill="white" stroke="black" points="507,-39 507,-69 641,-69 641,-39 507,-39"/>
<text text-anchor="start" x="515" y="-57" font-family="Helvetica,sans-Serif" font-size="10.00">cmp_ent_get_data_type</text>
<text text-anchor="middle" x="574" y="-46" font-family="Helvetica,sans-Serif" font-size="10.00">_raw_bit</text>
</a>
</g>
</g>
<!-- Node3&#45;&gt;Node7 -->
<g id="edge6" class="edge">
<title>Node3&#45;&gt;Node7</title>
<path fill="none" stroke="midnightblue" d="M469.91,-54C478.68,-54 487.78,-54 496.78,-54"/>
<polygon fill="midnightblue" stroke="midnightblue" points="496.88,-57.5 506.88,-54 496.88,-50.5 496.88,-57.5"/>
</g>
<!-- Node5 -->
<g id="node5" class="node">
<title>Node5</title>
<g id="a_node5"><a xlink:href="cmp__support_8c_af2129b98a4b5c7f856e97776962d7881.html#af2129b98a4b5c7f856e97776962d7881" target="_top" xlink:title="check if the compression entity data product type is supported">
<polygon fill="white" stroke="black" points="677,-88.5 677,-107.5 820,-107.5 820,-88.5 677,-88.5"/>
<text text-anchor="middle" x="748.5" y="-95.5" font-family="Helvetica,sans-Serif" font-size="10.00">cmp_data_type_is_invalid</text>
</a>
</g>
</g>
<!-- Node4&#45;&gt;Node5 -->
<g id="edge4" class="edge">
<title>Node4&#45;&gt;Node5</title>
<path fill="none" stroke="midnightblue" d="M636.3,-98C646.18,-98 656.54,-98 666.79,-98"/>
<polygon fill="midnightblue" stroke="midnightblue" points="666.98,-101.5 676.98,-98 666.98,-94.5 666.98,-101.5"/>
</g>
<!-- Node9&#45;&gt;Node6 -->
<g id="edge9" class="edge">
<title>Node9&#45;&gt;Node6</title>
<path fill="none" stroke="midnightblue" d="M471.32,-13.7C479.59,-13.4 488.13,-13.09 496.59,-12.78"/>
<polygon fill="midnightblue" stroke="midnightblue" points="496.97,-16.27 506.84,-12.41 496.72,-9.27 496.97,-16.27"/>
</g>
<!-- Node9&#45;&gt;Node7 -->
<g id="edge10" class="edge">
<title>Node9&#45;&gt;Node7</title>
<path fill="none" stroke="midnightblue" d="M449.64,-25.59C464.18,-28.94 481,-32.81 497.44,-36.6"/>
<polygon fill="midnightblue" stroke="midnightblue" points="497.08,-40.11 507.61,-38.94 498.65,-33.29 497.08,-40.11"/>
</g>
</g>
</svg>
