<?xml version="1.0" encoding="UTF-8" standalone="no"?>
<!DOCTYPE svg PUBLIC "-//W3C//DTD SVG 1.1//EN"
 "http://www.w3.org/Graphics/SVG/1.1/DTD/svg11.dtd">
<!-- Generated by graphviz version 2.43.0 (0)
 -->
<!-- Title: cmp_max_used_bits_list.h Pages: 1 -->
<svg width="236pt" height="151pt"
 viewBox="0.00 0.00 236.00 151.00" xmlns="http://www.w3.org/2000/svg" xmlns:xlink="http://www.w3.org/1999/xlink">
<g id="graph0" class="graph" transform="scale(1 1) rotate(0) translate(4 147)">
<title>cmp_max_used_bits_list.h</title>
<polygon fill="white" stroke="transparent" points="-4,4 -4,-147 232,-147 232,4 -4,4"/>
<!-- Node1 -->
<g id="node1" class="node">
<title>Node1</title>
<g id="a_node1"><a xlink:title="Implement a list that can hold an arbitrary number of different cmp_max_used_bits structs.">
<polygon fill="#bfbfbf" stroke="black" points="26,-123.5 26,-142.5 172,-142.5 172,-123.5 26,-123.5"/>
<text text-anchor="middle" x="99" y="-130.5" font-family="Helvetica,sans-Serif" font-size="10.00">cmp_max_used_bits_list.h</text>
</a>
</g>
</g>
<!-- Node2 -->
<g id="node2" class="node">
<title>Node2</title>
<g id="a_node2"><a xlink:href="decmp_8c.html" target="_top" xlink:title="software decompression library">
<polygon fill="white" stroke="black" points="12,-62 12,-81 70,-81 70,-62 12,-62"/>
<text text-anchor="middle" x="41" y="-69" font-family="Helvetica,sans-Serif" font-size="10.00">decmp.c</text>
</a>
</g>
</g>
<!-- Node1&#45;&gt;Node2 -->
<g id="edge1" class="edge">
<title>Node1&#45;&gt;Node2</title>
<path fill="none" stroke="midnightblue" d="M83.4,-116C72.42,-104.74 58.16,-90.1 49.29,-81.01"/>
<polygon fill="midnightblue" stroke="midnightblue" points="81.2,-118.76 90.69,-123.48 86.22,-113.87 81.2,-118.76"/>
</g>
<!-- Node4 -->
<g id="node4" class="node">
<title>Node4</title>
<g id="a_node4"><a xlink:href="test__cmp__max__used__bits__list_8c.html" target="_top" xlink:title="max_used_bits list tests">
<polygon fill="white" stroke="black" points="88,-56.5 88,-86.5 228,-86.5 228,-56.5 88,-56.5"/>
<text text-anchor="start" x="96" y="-74.5" font-family="Helvetica,sans-Serif" font-size="10.00">test_cmp_max_used_bits</text>
<text text-anchor="middle" x="158" y="-63.5" font-family="Helvetica,sans-Serif" font-size="10.00">_list.c</text>
</a>
</g>
</g>
<!-- Node1&#45;&gt;Node4 -->
<g id="edge3" class="edge">
<title>Node1&#45;&gt;Node4</title>
<path fill="none" stroke="midnightblue" d="M114.5,-116.37C123.68,-107.11 135.21,-95.48 144.09,-86.52"/>
<polygon fill="midnightblue" stroke="midnightblue" points="112.01,-113.91 107.45,-123.48 116.98,-118.84 112.01,-113.91"/>
</g>
<!-- Node3 -->
<g id="node3" class="node">
<title>Node3</title>
<g id="a_node3"><a xlink:href="test__decmp_8c.html" target="_top" xlink:title="decompression tests">
<polygon fill="white" stroke="black" points="0,-0.5 0,-19.5 82,-19.5 82,-0.5 0,-0.5"/>
<text text-anchor="middle" x="41" y="-7.5" font-family="Helvetica,sans-Serif" font-size="10.00">test_decmp.c</text>
</a>
</g>
</g>
<!-- Node2&#45;&gt;Node3 -->
<g id="edge2" class="edge">
<title>Node2&#45;&gt;Node3</title>
<path fill="none" stroke="midnightblue" d="M41,-51.82C41,-41 41,-27.9 41,-19.51"/>
<polygon fill="midnightblue" stroke="midnightblue" points="37.5,-51.98 41,-61.98 44.5,-51.98 37.5,-51.98"/>
</g>
</g>
</svg>
