<?xml version="1.0" encoding="UTF-8" standalone="no"?>
<!DOCTYPE svg PUBLIC "-//W3C//DTD SVG 1.1//EN"
 "http://www.w3.org/Graphics/SVG/1.1/DTD/svg11.dtd">
<!-- Generated by graphviz version 2.43.0 (0)
 -->
<!-- Title: cmp_pars_are_invalid Pages: 1 -->
<svg width="463pt" height="116pt"
 viewBox="0.00 0.00 463.00 115.50" xmlns="http://www.w3.org/2000/svg" xmlns:xlink="http://www.w3.org/1999/xlink">
<g id="graph0" class="graph" transform="scale(1 1) rotate(0) translate(4 111.5)">
<title>cmp_pars_are_invalid</title>
<polygon fill="white" stroke="transparent" points="-4,4 -4,-111.5 459,-111.5 459,4 -4,4"/>
<!-- Node1 -->
<g id="node1" class="node">
<title>Node1</title>
<g id="a_node1"><a xlink:title="check if the combination of the different compression parameters is invalid">
<polygon fill="#bfbfbf" stroke="black" points="0,-50 0,-69 123,-69 123,-50 0,-50"/>
<text text-anchor="middle" x="61.5" y="-57" font-family="Helvetica,sans-Serif" font-size="10.00">cmp_pars_are_invalid</text>
</a>
</g>
</g>
<!-- Node2 -->
<g id="node2" class="node">
<title>Node2</title>
<g id="a_node2"><a xlink:href="cmp__support_8c_aefdc949ff52e4920859d0bd82f5aa5aa.html#aefdc949ff52e4920859d0bd82f5aa5aa" target="_top" xlink:title="get the maximum valid spill threshold value for a non&#45;imagette compression in diff or model mode">
<polygon fill="white" stroke="black" points="174.5,-88 174.5,-107 284.5,-107 284.5,-88 174.5,-88"/>
<text text-anchor="middle" x="229.5" y="-95" font-family="Helvetica,sans-Serif" font-size="10.00">cmp_icu_max_spill</text>
</a>
</g>
</g>
<!-- Node1&#45;&gt;Node2 -->
<g id="edge1" class="edge">
<title>Node1&#45;&gt;Node2</title>
<path fill="none" stroke="midnightblue" d="M104.39,-69.09C126.39,-74.13 153.55,-80.34 176.85,-85.68"/>
<polygon fill="midnightblue" stroke="midnightblue" points="176.38,-89.16 186.91,-87.98 177.95,-82.34 176.38,-89.16"/>
</g>
<!-- Node4 -->
<g id="node4" class="node">
<title>Node4</title>
<g id="a_node4"><a xlink:href="cmp__support_8c_a743a6fcf9ff9d9c86e5dcd2521694472.html#a743a6fcf9ff9d9c86e5dcd2521694472" target="_top" xlink:title="get the maximum valid spill threshold value for a imagette compression in diff or model mode">
<polygon fill="white" stroke="black" points="172.5,-50 172.5,-69 286.5,-69 286.5,-50 172.5,-50"/>
<text text-anchor="middle" x="229.5" y="-57" font-family="Helvetica,sans-Serif" font-size="10.00">cmp_ima_max_spill</text>
</a>
</g>
</g>
<!-- Node1&#45;&gt;Node4 -->
<g id="edge3" class="edge">
<title>Node1&#45;&gt;Node4</title>
<path fill="none" stroke="midnightblue" d="M123.37,-59.5C136,-59.5 149.37,-59.5 162.19,-59.5"/>
<polygon fill="midnightblue" stroke="midnightblue" points="162.32,-63 172.32,-59.5 162.32,-56 162.32,-63"/>
</g>
<!-- Node5 -->
<g id="node5" class="node">
<title>Node5</title>
<g id="a_node5"><a xlink:href="cmp__support_8c_a01181fec3ef69e316b4d77de4df9865f.html#a01181fec3ef69e316b4d77de4df9865f" target="_top" xlink:title="check if an imagette compression data type is used">
<polygon fill="white" stroke="black" points="159,-0.5 159,-30.5 300,-30.5 300,-0.5 159,-0.5"/>
<text text-anchor="start" x="167" y="-18.5" font-family="Helvetica,sans-Serif" font-size="10.00">cmp_imagette_data_type</text>
<text text-anchor="middle" x="229.5" y="-7.5" font-family="Helvetica,sans-Serif" font-size="10.00">_is_used</text>
</a>
</g>
</g>
<!-- Node1&#45;&gt;Node5 -->
<g id="edge4" class="edge">
<title>Node1&#45;&gt;Node5</title>
<path fill="none" stroke="midnightblue" d="M98.52,-49.95C117.04,-45.04 140.22,-38.9 161.85,-33.17"/>
<polygon fill="midnightblue" stroke="midnightblue" points="162.89,-36.51 171.66,-30.57 161.1,-29.74 162.89,-36.51"/>
</g>
<!-- Node3 -->
<g id="node3" class="node">
<title>Node3</title>
<g id="a_node3"><a xlink:href="cmp__support_8c_a67b0e38ca0e68c282c89552daa61ffdf.html#a67b0e38ca0e68c282c89552daa61ffdf" target="_top" xlink:title="implementation of the logarithm base of floor(log2(x)) for integers">
<polygon fill="white" stroke="black" points="372.5,-88 372.5,-107 418.5,-107 418.5,-88 372.5,-88"/>
<text text-anchor="middle" x="395.5" y="-95" font-family="Helvetica,sans-Serif" font-size="10.00">ilog_2</text>
</a>
</g>
</g>
<!-- Node2&#45;&gt;Node3 -->
<g id="edge2" class="edge">
<title>Node2&#45;&gt;Node3</title>
<path fill="none" stroke="midnightblue" d="M284.65,-97.5C310.31,-97.5 340.1,-97.5 362.17,-97.5"/>
<polygon fill="midnightblue" stroke="midnightblue" points="362.34,-101 372.34,-97.5 362.34,-94 362.34,-101"/>
</g>
<!-- Node6 -->
<g id="node6" class="node">
<title>Node6</title>
<g id="a_node6"><a xlink:href="cmp__support_8c_a9197caa657b3d84615c0d323dc96c502.html#a9197caa657b3d84615c0d323dc96c502" target="_top" xlink:title="check if the data product data type is supported by the RDCU compressor">
<polygon fill="white" stroke="black" points="336,-0.5 336,-30.5 455,-30.5 455,-0.5 336,-0.5"/>
<text text-anchor="start" x="344" y="-18.5" font-family="Helvetica,sans-Serif" font-size="10.00">rdcu_supported_data</text>
<text text-anchor="middle" x="395.5" y="-7.5" font-family="Helvetica,sans-Serif" font-size="10.00">_type_is_used</text>
</a>
</g>
</g>
<!-- Node5&#45;&gt;Node6 -->
<g id="edge5" class="edge">
<title>Node5&#45;&gt;Node6</title>
<path fill="none" stroke="midnightblue" d="M300.05,-15.5C308.55,-15.5 317.24,-15.5 325.73,-15.5"/>
<polygon fill="midnightblue" stroke="midnightblue" points="325.97,-19 335.97,-15.5 325.97,-12 325.97,-19"/>
</g>
</g>
</svg>
