<?xml version="1.0" encoding="UTF-8" standalone="no"?>
<!DOCTYPE svg PUBLIC "-//W3C//DTD SVG 1.1//EN"
 "http://www.w3.org/Graphics/SVG/1.1/DTD/svg11.dtd">
<!-- Generated by graphviz version 2.43.0 (0)
 -->
<!-- Title: cmp_ent_get_model_value Pages: 1 -->
<!--zoomable 369 -->
<svg id="main" version="1.1" xmlns="http://www.w3.org/2000/svg" xmlns:xlink="http://www.w3.org/1999/xlink" xml:space="preserve" onload="init(evt)">
<style type="text/css"><![CDATA[
.edge:hover path { stroke: red; }
.edge:hover polygon { stroke: red; fill: red; }
]]></style>
<script type="text/javascript"><![CDATA[
var edges = document.getElementsByTagName('g');
if (edges && edges.length) {
  for (var i=0;i<edges.length;i++) {
    if (edges[i].id.substr(0,4)=='edge') {
      edges[i].setAttribute('class','edge');
    }
  }
}
]]></script>
        <defs>
                <circle id="rim" cx="0" cy="0" r="7"/>
                <circle id="rim2" cx="0" cy="0" r="3.5"/>
                <g id="zoomPlus">
                        <use xlink:href="#rim" fill="#404040">
                                <set attributeName="fill" to="#808080" begin="zoomplus.mouseover" end="zoomplus.mouseout"/>
                        </use>
                        <path d="M-4,0h8M0,-4v8" fill="none" stroke="white" stroke-width="1.5" pointer-events="none"/>
                </g>
                <g id="zoomMin">
                        <use xlink:href="#rim" fill="#404040">
                                <set attributeName="fill" to="#808080" begin="zoomminus.mouseover" end="zoomminus.mouseout"/>
                        </use>
                        <path d="M-4,0h8" fill="none" stroke="white" stroke-width="1.5" pointer-events="none"/>
                </g>
                <g id="dirArrow">
                        <path fill="none" stroke="white" stroke-width="1.5" d="M0,-3.0v7 M-2.5,-0.5L0,-3.0L2.5,-0.5"/>
                </g>
               <g id="resetDef">
                       <use xlink:href="#rim2" fill="#404040">
                               <set attributeName="fill" to="#808080" begin="reset.mouseover" end="reset.mouseout"/>
                       </use>
               </g>
        </defs>

<script type="text/javascript">
var viewWidth = 911;
var viewHeight = 369;
var sectionId = 'dynsection-0';
</script>
<script xlink:href="svgpan.js"/>
<svg id="graph" class="graph">
<g id="viewport">
<title>cmp_ent_get_model_value</title>
<polygon fill="white" stroke="transparent" points="-4,4 -4,-365 907,-365 907,4 -4,4"/>
<!-- Node1 -->
<g id="node1" class="node">
<title>Node1</title>
<g id="a_node1"><a xlink:title="get used model value from the compression entity header">
<polygon fill="#bfbfbf" stroke="black" points="755,-126.5 755,-145.5 903,-145.5 903,-126.5 755,-126.5"/>
<text text-anchor="middle" x="829" y="-133.5" font-family="Helvetica,sans-Serif" font-size="10.00">cmp_ent_get_model_value</text>
</a>
</g>
</g>
<!-- Node2 -->
<g id="node2" class="node">
<title>Node2</title>
<g id="a_node2"><a xlink:href="cmp__entity_8c_a2437ba690b73b4c212cd7962819b24ce.html#a2437ba690b73b4c212cd7962819b24ce" target="_top" xlink:title="parses the generic compressed entity header">
<polygon fill="white" stroke="black" points="587,-279 587,-309 719,-309 719,-279 587,-279"/>
<text text-anchor="start" x="595" y="-297" font-family="Helvetica,sans-Serif" font-size="10.00">cmp_ent_parse_generic</text>
<text text-anchor="middle" x="653" y="-286" font-family="Helvetica,sans-Serif" font-size="10.00">_header</text>
</a>
</g>
</g>
<!-- Node1&#45;&gt;Node2 -->
<g id="edge1" class="edge">
<title>Node1&#45;&gt;Node2</title>
<path fill="none" stroke="midnightblue" d="M809.59,-152.71C775.54,-183.63 703.23,-249.3 670.59,-278.93"/>
<polygon fill="midnightblue" stroke="midnightblue" points="812.33,-154.96 817.38,-145.65 807.62,-149.78 812.33,-154.96"/>
</g>
<!-- Node5 -->
<g id="node5" class="node">
<title>Node5</title>
<g id="a_node5"><a xlink:href="decmp_8c_a74bca2e933b64c4e4738700db181be76.html#a74bca2e933b64c4e4738700db181be76" target="_top" xlink:title="read in an imagette compression entity header to a compression configuration">
<polygon fill="white" stroke="black" points="590.5,-202.5 590.5,-221.5 715.5,-221.5 715.5,-202.5 590.5,-202.5"/>
<text text-anchor="middle" x="653" y="-209.5" font-family="Helvetica,sans-Serif" font-size="10.00">cmp_ent_read_header</text>
</a>
</g>
</g>
<!-- Node1&#45;&gt;Node5 -->
<g id="edge4" class="edge">
<title>Node1&#45;&gt;Node5</title>
<path fill="none" stroke="midnightblue" d="M800.3,-150.08C778.46,-160.97 747.1,-176.14 719,-188 706.92,-193.1 693.34,-198.21 681.73,-202.39"/>
<polygon fill="midnightblue" stroke="midnightblue" points="801.96,-153.16 809.33,-145.55 798.83,-146.9 801.96,-153.16"/>
</g>
<!-- Node14 -->
<g id="node14" class="node">
<title>Node14</title>
<g id="a_node14"><a xlink:href="test__decmp_8c_a27e5a2b67e3e81da1be024826485b2e3.html#a27e5a2b67e3e81da1be024826485b2e3" target="_top" xlink:title=" ">
<polygon fill="white" stroke="black" points="420,-148 420,-178 533,-178 533,-148 420,-148"/>
<text text-anchor="start" x="428" y="-166" font-family="Helvetica,sans-Serif" font-size="10.00">test_cmp_ent_write</text>
<text text-anchor="middle" x="476.5" y="-155" font-family="Helvetica,sans-Serif" font-size="10.00">_cmp_pars</text>
</a>
</g>
</g>
<!-- Node1&#45;&gt;Node14 -->
<g id="edge16" class="edge">
<title>Node1&#45;&gt;Node14</title>
<path fill="none" stroke="midnightblue" d="M771.55,-147.38C754.71,-150.36 736.17,-153.23 719,-155 655.57,-161.55 582.33,-163.14 533.28,-163.35"/>
<polygon fill="midnightblue" stroke="midnightblue" points="772.58,-150.75 781.79,-145.52 771.32,-143.87 772.58,-150.75"/>
</g>
<!-- Node15 -->
<g id="node15" class="node">
<title>Node15</title>
<g id="a_node15"><a xlink:href="test__cmp__entity_8c_a13c81359af8798146608574ab0e113fb.html#a13c81359af8798146608574ab0e113fb" target="_top" xlink:title=" ">
<polygon fill="white" stroke="black" points="597,-126.5 597,-145.5 709,-145.5 709,-126.5 597,-126.5"/>
<text text-anchor="middle" x="653" y="-133.5" font-family="Helvetica,sans-Serif" font-size="10.00">test_cmp_ent_build</text>
</a>
</g>
</g>
<!-- Node1&#45;&gt;Node15 -->
<g id="edge14" class="edge">
<title>Node1&#45;&gt;Node15</title>
<path fill="none" stroke="midnightblue" d="M744.83,-136C732.71,-136 720.49,-136 709.12,-136"/>
<polygon fill="midnightblue" stroke="midnightblue" points="744.96,-139.5 754.96,-136 744.96,-132.5 744.96,-139.5"/>
</g>
<!-- Node16 -->
<g id="node16" class="node">
<title>Node16</title>
<g id="a_node16"><a xlink:href="test__cmp__entity_8c_a991729c77482729377539ccc0c96f4b7.html#a991729c77482729377539ccc0c96f4b7" target="_top" xlink:title=" ">
<polygon fill="white" stroke="black" points="593.5,-88.5 593.5,-107.5 712.5,-107.5 712.5,-88.5 593.5,-88.5"/>
<text text-anchor="middle" x="653" y="-95.5" font-family="Helvetica,sans-Serif" font-size="10.00">test_cmp_ent_create</text>
</a>
</g>
</g>
<!-- Node1&#45;&gt;Node16 -->
<g id="edge15" class="edge">
<title>Node1&#45;&gt;Node16</title>
<path fill="none" stroke="midnightblue" d="M774.19,-124.25C749.58,-118.87 720.81,-112.59 697.59,-107.52"/>
<polygon fill="midnightblue" stroke="midnightblue" points="773.58,-127.7 784.09,-126.41 775.07,-120.86 773.58,-127.7"/>
</g>
<!-- Node17 -->
<g id="node17" class="node">
<title>Node17</title>
<g id="a_node17"><a xlink:href="test__cmp__entity_8c_a8f7fd6d8b939382555507ecf2e74ec79.html#a8f7fd6d8b939382555507ecf2e74ec79" target="_top" xlink:title=" ">
<polygon fill="white" stroke="black" points="596.5,-39 596.5,-69 709.5,-69 709.5,-39 596.5,-39"/>
<text text-anchor="start" x="604.5" y="-57" font-family="Helvetica,sans-Serif" font-size="10.00">test_cmp_ent_write</text>
<text text-anchor="middle" x="653" y="-46" font-family="Helvetica,sans-Serif" font-size="10.00">_rdcu_cmp_pars</text>
</a>
</g>
</g>
<!-- Node1&#45;&gt;Node17 -->
<g id="edge17" class="edge">
<title>Node1&#45;&gt;Node17</title>
<path fill="none" stroke="midnightblue" d="M801.97,-121.31C780.14,-109.25 747.99,-92.1 719,-79 711.4,-75.56 703.17,-72.16 695.21,-69.03"/>
<polygon fill="midnightblue" stroke="midnightblue" points="800.49,-124.49 810.94,-126.3 803.9,-118.38 800.49,-124.49"/>
</g>
<!-- Node18 -->
<g id="node18" class="node">
<title>Node18</title>
<g id="a_node18"><a xlink:href="test__cmp__entity_8c_a3940e70948636c9a054e0056a6cd9af0.html#a3940e70948636c9a054e0056a6cd9af0" target="_top" xlink:title=" ">
<polygon fill="white" stroke="black" points="590.5,-0.5 590.5,-19.5 715.5,-19.5 715.5,-0.5 590.5,-0.5"/>
<text text-anchor="middle" x="653" y="-7.5" font-family="Helvetica,sans-Serif" font-size="10.00">test_ent_model_value</text>
</a>
</g>
</g>
<!-- Node1&#45;&gt;Node18 -->
<g id="edge18" class="edge">
<title>Node1&#45;&gt;Node18</title>
<path fill="none" stroke="midnightblue" d="M814.66,-118.28C795.87,-94.54 759.37,-52.67 719,-29 712.51,-25.19 705.2,-22.1 697.89,-19.61"/>
<polygon fill="midnightblue" stroke="midnightblue" points="812.07,-120.66 820.97,-126.42 817.61,-116.37 812.07,-120.66"/>
</g>
<!-- Node3 -->
<g id="node3" class="node">
<title>Node3</title>
<g id="a_node3"><a xlink:href="cmp__entity_8c_a1f4478c4d9938fa6f5631e88298ed816.html#a1f4478c4d9938fa6f5631e88298ed816" target="_top" xlink:title="parse the compressed entity header">
<polygon fill="white" stroke="black" points="431,-322.5 431,-341.5 522,-341.5 522,-322.5 431,-322.5"/>
<text text-anchor="middle" x="476.5" y="-329.5" font-family="Helvetica,sans-Serif" font-size="10.00">cmp_ent_parse</text>
</a>
</g>
</g>
<!-- Node2&#45;&gt;Node3 -->
<g id="edge2" class="edge">
<title>Node2&#45;&gt;Node3</title>
<path fill="none" stroke="midnightblue" d="M576.73,-310.39C557.82,-314.51 538.15,-318.79 521.36,-322.45"/>
<polygon fill="midnightblue" stroke="midnightblue" points="577.5,-313.81 586.53,-308.26 576.01,-306.97 577.5,-313.81"/>
</g>
<!-- Node4 -->
<g id="node4" class="node">
<title>Node4</title>
<g id="a_node4"><a xlink:href="test__cmp__entity_8c_a893444224bcd50fbb99e42e85989b4a6.html#a893444224bcd50fbb99e42e85989b4a6" target="_top" xlink:title=" ">
<polygon fill="white" stroke="black" points="216.5,-341.5 216.5,-360.5 331.5,-360.5 331.5,-341.5 216.5,-341.5"/>
<text text-anchor="middle" x="274" y="-348.5" font-family="Helvetica,sans-Serif" font-size="10.00">test_cmp_ent_parse</text>
</a>
</g>
</g>
<!-- Node3&#45;&gt;Node4 -->
<g id="edge3" class="edge">
<title>Node3&#45;&gt;Node4</title>
<path fill="none" stroke="midnightblue" d="M420.5,-337.21C392.95,-339.82 359.63,-342.98 331.83,-345.61"/>
<polygon fill="midnightblue" stroke="midnightblue" points="421.13,-340.67 430.75,-336.24 420.47,-333.7 421.13,-340.67"/>
</g>
<!-- Node6 -->
<g id="node6" class="node">
<title>Node6</title>
<g id="a_node6"><a xlink:href="decmp_8h_aefe0fa39fdc295432f5e2e0f91f0b87f.html#aefe0fa39fdc295432f5e2e0f91f0b87f" target="_top" xlink:title="decompress a compression entity">
<polygon fill="white" stroke="black" points="410.5,-246.5 410.5,-265.5 542.5,-265.5 542.5,-246.5 410.5,-246.5"/>
<text text-anchor="middle" x="476.5" y="-253.5" font-family="Helvetica,sans-Serif" font-size="10.00">decompress_cmp_entiy</text>
</a>
</g>
</g>
<!-- Node5&#45;&gt;Node6 -->
<g id="edge5" class="edge">
<title>Node5&#45;&gt;Node6</title>
<path fill="none" stroke="midnightblue" d="M604.16,-224.06C576.18,-231.12 541.34,-239.9 515.29,-246.47"/>
<polygon fill="midnightblue" stroke="midnightblue" points="605.3,-227.39 614.14,-221.55 603.58,-220.6 605.3,-227.39"/>
</g>
<!-- Node13 -->
<g id="node13" class="node">
<title>Node13</title>
<g id="a_node13"><a xlink:href="test__decmp_8c_a83b6283115165bfb92bf9008dcbdc41d.html#a83b6283115165bfb92bf9008dcbdc41d" target="_top" xlink:title=" ">
<polygon fill="white" stroke="black" points="402,-197 402,-227 551,-227 551,-197 402,-197"/>
<text text-anchor="start" x="410" y="-215" font-family="Helvetica,sans-Serif" font-size="10.00">test_cmp_ent_read_header</text>
<text text-anchor="middle" x="476.5" y="-204" font-family="Helvetica,sans-Serif" font-size="10.00">_error_cases</text>
</a>
</g>
</g>
<!-- Node5&#45;&gt;Node13 -->
<g id="edge12" class="edge">
<title>Node5&#45;&gt;Node13</title>
<path fill="none" stroke="midnightblue" d="M580.47,-212C570.76,-212 560.77,-212 551.02,-212"/>
<polygon fill="midnightblue" stroke="midnightblue" points="580.48,-215.5 590.48,-212 580.48,-208.5 580.48,-215.5"/>
</g>
<!-- Node5&#45;&gt;Node14 -->
<g id="edge13" class="edge">
<title>Node5&#45;&gt;Node14</title>
<path fill="none" stroke="midnightblue" d="M608.28,-199.72C584.86,-193.15 555.81,-184.99 531.05,-178.04"/>
<polygon fill="midnightblue" stroke="midnightblue" points="607.37,-203.1 617.94,-202.44 609.26,-196.36 607.37,-203.1"/>
</g>
<!-- Node7 -->
<g id="node7" class="node">
<title>Node7</title>
<g id="a_node7"><a xlink:href="test__cmp__decmp_8c_a50ba26014079160ca77b7d7fa76ce0f4.html#a50ba26014079160ca77b7d7fa76ce0f4" target="_top" xlink:title="compress the given configuration and decompress it afterwards; finally compare the results">
<polygon fill="white" stroke="black" points="195,-303.5 195,-322.5 353,-322.5 353,-303.5 195,-303.5"/>
<text text-anchor="middle" x="274" y="-310.5" font-family="Helvetica,sans-Serif" font-size="10.00">compression_decompression</text>
</a>
</g>
</g>
<!-- Node6&#45;&gt;Node7 -->
<g id="edge6" class="edge">
<title>Node6&#45;&gt;Node7</title>
<path fill="none" stroke="midnightblue" d="M441.37,-269.11C419.95,-277.02 391.62,-286.91 366,-294 353.24,-297.53 339.32,-300.75 326.29,-303.49"/>
<polygon fill="midnightblue" stroke="midnightblue" points="442.85,-272.29 451,-265.52 440.4,-265.74 442.85,-272.29"/>
</g>
<!-- Node9 -->
<g id="node9" class="node">
<title>Node9</title>
<g id="a_node9"><a xlink:href="test__decmp_8c_a6e7a5e150e2c829836db3c42cdec2eec.html#a6e7a5e150e2c829836db3c42cdec2eec" target="_top" xlink:title=" ">
<polygon fill="white" stroke="black" points="182,-265.5 182,-284.5 366,-284.5 366,-265.5 182,-265.5"/>
<text text-anchor="middle" x="274" y="-272.5" font-family="Helvetica,sans-Serif" font-size="10.00">test_cmp_decmp_n_imagette_raw</text>
</a>
</g>
</g>
<!-- Node6&#45;&gt;Node9 -->
<g id="edge8" class="edge">
<title>Node6&#45;&gt;Node9</title>
<path fill="none" stroke="midnightblue" d="M400.36,-263.12C389.27,-264.17 377.74,-265.26 366.36,-266.34"/>
<polygon fill="midnightblue" stroke="midnightblue" points="400.78,-266.6 410.4,-262.17 400.12,-259.63 400.78,-266.6"/>
</g>
<!-- Node10 -->
<g id="node10" class="node">
<title>Node10</title>
<g id="a_node10"><a xlink:href="test__decmp_8c_a1a33e2fcbf484c79dfe661b280386f6b.html#a1a33e2fcbf484c79dfe661b280386f6b" target="_top" xlink:title=" ">
<polygon fill="white" stroke="black" points="201,-227.5 201,-246.5 347,-246.5 347,-227.5 201,-227.5"/>
<text text-anchor="middle" x="274" y="-234.5" font-family="Helvetica,sans-Serif" font-size="10.00">test_cmp_decmp_s_fx_diff</text>
</a>
</g>
</g>
<!-- Node6&#45;&gt;Node10 -->
<g id="edge9" class="edge">
<title>Node6&#45;&gt;Node10</title>
<path fill="none" stroke="midnightblue" d="M400.28,-248.87C382.85,-247.22 364.34,-245.47 347.05,-243.83"/>
<polygon fill="midnightblue" stroke="midnightblue" points="400.12,-252.37 410.4,-249.83 400.78,-245.4 400.12,-252.37"/>
</g>
<!-- Node11 -->
<g id="node11" class="node">
<title>Node11</title>
<g id="a_node11"><a xlink:href="test__decmp_8c_acfebf2fa7515f5449e0cfa594457b66b.html#acfebf2fa7515f5449e0cfa594457b66b" target="_top" xlink:title=" ">
<polygon fill="white" stroke="black" points="233,-189.5 233,-208.5 315,-208.5 315,-189.5 233,-189.5"/>
<text text-anchor="middle" x="274" y="-196.5" font-family="Helvetica,sans-Serif" font-size="10.00">test_s_fx_diff</text>
</a>
</g>
</g>
<!-- Node6&#45;&gt;Node11 -->
<g id="edge10" class="edge">
<title>Node6&#45;&gt;Node11</title>
<path fill="none" stroke="midnightblue" d="M424.89,-243.65C417.14,-241.35 409.3,-238.79 402,-236 385.29,-229.62 382.9,-223.88 366,-218 349.69,-212.33 331.12,-208.08 315.02,-205.05"/>
<polygon fill="midnightblue" stroke="midnightblue" points="424.03,-247.04 434.6,-246.41 425.94,-240.31 424.03,-247.04"/>
</g>
<!-- Node12 -->
<g id="node12" class="node">
<title>Node12</title>
<g id="a_node12"><a xlink:href="test__decmp_8c_a953eeaad914985c0816dde26d47ffef0.html#a953eeaad914985c0816dde26d47ffef0" target="_top" xlink:title=" ">
<polygon fill="white" stroke="black" points="225.5,-151.5 225.5,-170.5 322.5,-170.5 322.5,-151.5 225.5,-151.5"/>
<text text-anchor="middle" x="274" y="-158.5" font-family="Helvetica,sans-Serif" font-size="10.00">test_s_fx_model</text>
</a>
</g>
</g>
<!-- Node6&#45;&gt;Node12 -->
<g id="edge11" class="edge">
<title>Node6&#45;&gt;Node12</title>
<path fill="none" stroke="midnightblue" d="M412.5,-242.36C408.8,-240.5 405.27,-238.39 402,-236 378.14,-218.51 390.38,-196.77 366,-180 353.37,-171.31 337.58,-166.45 322.72,-163.78"/>
<polygon fill="midnightblue" stroke="midnightblue" points="411.38,-245.69 421.95,-246.47 414.18,-239.27 411.38,-245.69"/>
</g>
<!-- Node8 -->
<g id="node8" class="node">
<title>Node8</title>
<g id="a_node8"><a xlink:href="test__cmp__decmp_8c_af3c162694b40683e0aa25c61a49cdafc.html#af3c162694b40683e0aa25c61a49cdafc" target="_top" xlink:title="random compression decompression test">
<polygon fill="white" stroke="black" points="0,-298 0,-328 146,-328 146,-298 0,-298"/>
<text text-anchor="start" x="8" y="-316" font-family="Helvetica,sans-Serif" font-size="10.00">test_random_compression</text>
<text text-anchor="middle" x="73" y="-305" font-family="Helvetica,sans-Serif" font-size="10.00">_decompression</text>
</a>
</g>
</g>
<!-- Node7&#45;&gt;Node8 -->
<g id="edge7" class="edge">
<title>Node7&#45;&gt;Node8</title>
<path fill="none" stroke="midnightblue" d="M184.63,-313C171.72,-313 158.55,-313 146.01,-313"/>
<polygon fill="midnightblue" stroke="midnightblue" points="184.92,-316.5 194.92,-313 184.92,-309.5 184.92,-316.5"/>
</g>
</g>
</svg>
        <g id="navigator" transform="translate(0 0)" fill="#404254">
                <rect fill="#f2f5e9" fill-opacity="0.5" stroke="#606060" stroke-width=".5" x="0" y="0" width="60" height="60"/>
                <use id="zoomplus" xlink:href="#zoomPlus" x="17" y="9" onmousedown="handleZoom(evt,'in')"/>
                <use id="zoomminus" xlink:href="#zoomMin" x="42" y="9" onmousedown="handleZoom(evt,'out')"/>
                <use id="reset" xlink:href="#resetDef" x="30" y="36" onmousedown="handleReset()"/>
                <g id="arrowUp" xlink:href="#dirArrow" transform="translate(30 24)" onmousedown="handlePan(0,-1)">
                  <use xlink:href="#rim" fill="#404040">
                        <set attributeName="fill" to="#808080" begin="arrowUp.mouseover" end="arrowUp.mouseout"/>
                  </use>
                  <path fill="none" stroke="white" stroke-width="1.5" d="M0,-3.0v7 M-2.5,-0.5L0,-3.0L2.5,-0.5"/>
                </g>
                <g id="arrowRight" xlink:href="#dirArrow" transform="rotate(90) translate(36 -43)" onmousedown="handlePan(1,0)">
                  <use xlink:href="#rim" fill="#404040">
                        <set attributeName="fill" to="#808080" begin="arrowRight.mouseover" end="arrowRight.mouseout"/>
                  </use>
                  <path fill="none" stroke="white" stroke-width="1.5" d="M0,-3.0v7 M-2.5,-0.5L0,-3.0L2.5,-0.5"/>
                </g>
                <g id="arrowDown" xlink:href="#dirArrow" transform="rotate(180) translate(-30 -48)" onmousedown="handlePan(0,1)">
                  <use xlink:href="#rim" fill="#404040">
                        <set attributeName="fill" to="#808080" begin="arrowDown.mouseover" end="arrowDown.mouseout"/>
                  </use>
                  <path fill="none" stroke="white" stroke-width="1.5" d="M0,-3.0v7 M-2.5,-0.5L0,-3.0L2.5,-0.5"/>
                </g>
                <g id="arrowLeft" xlink:href="#dirArrow" transform="rotate(270) translate(-36 17)" onmousedown="handlePan(-1,0)">
                  <use xlink:href="#rim" fill="#404040">
                        <set attributeName="fill" to="#808080" begin="arrowLeft.mouseover" end="arrowLeft.mouseout"/>
                  </use>
                  <path fill="none" stroke="white" stroke-width="1.5" d="M0,-3.0v7 M-2.5,-0.5L0,-3.0L2.5,-0.5"/>
                </g>
        </g>
        <svg viewBox="0 0 15 15" width="100%" height="30px" preserveAspectRatio="xMaxYMin meet">
         <g id="arrow_out" transform="scale(0.3 0.3)">
          <a xlink:href="cmp__entity_8h_a5e86a8dd71cf95ae9c3e5d80ccb17db0_a5e86a8dd71cf95ae9c3e5d80ccb17db0_icgraph_org.svg" target="_base">
           <rect id="button" ry="5" rx="5" y="6" x="6" height="38" width="38"
                fill="#f2f5e9" fill-opacity="0.5" stroke="#606060" stroke-width="1.0"/>
           <path id="arrow"
             d="M 11.500037,31.436501 C 11.940474,20.09759 22.043105,11.32322 32.158766,21.979434 L 37.068811,17.246167 C 37.068811,17.246167 37.088388,32 37.088388,32 L 22.160133,31.978069 C 22.160133,31.978069 26.997745,27.140456 26.997745,27.140456 C 18.528582,18.264221 13.291696,25.230495 11.500037,31.436501 z"
             style="fill:#404040;"/>
          </a>
         </g>
        </svg>
</svg>
