<?xml version="1.0" encoding="UTF-8" standalone="no"?>
<!DOCTYPE svg PUBLIC "-//W3C//DTD SVG 1.1//EN"
 "http://www.w3.org/Graphics/SVG/1.1/DTD/svg11.dtd">
<!-- Generated by graphviz version 2.43.0 (0)
 -->
<!-- Title: cmp_data_types.c Pages: 1 -->
<!--zoomable 252 -->
<svg id="main" version="1.1" xmlns="http://www.w3.org/2000/svg" xmlns:xlink="http://www.w3.org/1999/xlink" xml:space="preserve" onload="init(evt)">
<style type="text/css"><![CDATA[
.edge:hover path { stroke: red; }
.edge:hover polygon { stroke: red; fill: red; }
]]></style>
<script type="text/javascript"><![CDATA[
var edges = document.getElementsByTagName('g');
if (edges && edges.length) {
  for (var i=0;i<edges.length;i++) {
    if (edges[i].id.substr(0,4)=='edge') {
      edges[i].setAttribute('class','edge');
    }
  }
}
]]></script>
        <defs>
                <circle id="rim" cx="0" cy="0" r="7"/>
                <circle id="rim2" cx="0" cy="0" r="3.5"/>
                <g id="zoomPlus">
                        <use xlink:href="#rim" fill="#404040">
                                <set attributeName="fill" to="#808080" begin="zoomplus.mouseover" end="zoomplus.mouseout"/>
                        </use>
                        <path d="M-4,0h8M0,-4v8" fill="none" stroke="white" stroke-width="1.5" pointer-events="none"/>
                </g>
                <g id="zoomMin">
                        <use xlink:href="#rim" fill="#404040">
                                <set attributeName="fill" to="#808080" begin="zoomminus.mouseover" end="zoomminus.mouseout"/>
                        </use>
                        <path d="M-4,0h8" fill="none" stroke="white" stroke-width="1.5" pointer-events="none"/>
                </g>
                <g id="dirArrow">
                        <path fill="none" stroke="white" stroke-width="1.5" d="M0,-3.0v7 M-2.5,-0.5L0,-3.0L2.5,-0.5"/>
                </g>
               <g id="resetDef">
                       <use xlink:href="#rim2" fill="#404040">
                               <set attributeName="fill" to="#808080" begin="reset.mouseover" end="reset.mouseout"/>
                       </use>
               </g>
        </defs>

<script type="text/javascript">
var viewWidth = 560;
var viewHeight = 252;
var sectionId = 'dynsection-0';
</script>
<script xlink:href="svgpan.js"/>
<svg id="graph" class="graph">
<g id="viewport">
<title>cmp_data_types.c</title>
<polygon fill="white" stroke="transparent" points="-4,4 -4,-248 555.92,-248 555.92,4 -4,4"/>
<!-- Node1 -->
<g id="node1" class="node">
<title>Node1</title>
<g id="a_node1"><a xlink:title="collection of functions to handle the different compression data types">
<polygon fill="#bfbfbf" stroke="black" points="75.42,-224.5 75.42,-243.5 180.42,-243.5 180.42,-224.5 75.42,-224.5"/>
<text text-anchor="middle" x="127.92" y="-231.5" font-family="Helvetica,sans-Serif" font-size="10.00">cmp_data_types.c</text>
</a>
</g>
</g>
<!-- Node2 -->
<g id="node2" class="node">
<title>Node2</title>
<g id="a_node2"><a xlink:title=" ">
<polygon fill="white" stroke="#bfbfbf" points="118.42,-0.5 118.42,-19.5 171.42,-19.5 171.42,-0.5 118.42,-0.5"/>
<text text-anchor="middle" x="144.92" y="-7.5" font-family="Helvetica,sans-Serif" font-size="10.00">stdint.h</text>
</a>
</g>
</g>
<!-- Node1&#45;&gt;Node2 -->
<g id="edge1" class="edge">
<title>Node1&#45;&gt;Node2</title>
<path fill="none" stroke="midnightblue" d="M75.29,-228.04C48.96,-222.6 19.3,-211.3 2.92,-188 -2.19,-180.73 1.47,-176.77 2.92,-168 11.48,-116.14 5.29,-94.65 40.92,-56 58.73,-36.68 86.26,-25.27 108.52,-18.78"/>
<polygon fill="midnightblue" stroke="midnightblue" points="109.58,-22.12 118.32,-16.13 107.76,-15.36 109.58,-22.12"/>
</g>
<!-- Node3 -->
<g id="node3" class="node">
<title>Node3</title>
<g id="a_node3"><a xlink:title=" ">
<polygon fill="white" stroke="#bfbfbf" points="12.42,-168.5 12.42,-187.5 65.42,-187.5 65.42,-168.5 12.42,-168.5"/>
<text text-anchor="middle" x="38.92" y="-175.5" font-family="Helvetica,sans-Serif" font-size="10.00">limits.h</text>
</a>
</g>
</g>
<!-- Node1&#45;&gt;Node3 -->
<g id="edge2" class="edge">
<title>Node1&#45;&gt;Node3</title>
<path fill="none" stroke="midnightblue" d="M113.62,-224.32C99.73,-215.9 78.43,-202.97 62.11,-193.07"/>
<polygon fill="midnightblue" stroke="midnightblue" points="63.55,-189.85 53.18,-187.65 59.92,-195.83 63.55,-189.85"/>
</g>
<!-- Node4 -->
<g id="node4" class="node">
<title>Node4</title>
<g id="a_node4"><a xlink:href="byteorder_8h.html" target="_top" xlink:title="This is a set of macros for consistent endianness conversion. They work for both little and big endia...">
<polygon fill="white" stroke="black" points="34.92,-112.5 34.92,-131.5 106.92,-131.5 106.92,-112.5 34.92,-112.5"/>
<text text-anchor="middle" x="70.92" y="-119.5" font-family="Helvetica,sans-Serif" font-size="10.00">byteorder.h</text>
</a>
</g>
</g>
<!-- Node1&#45;&gt;Node4 -->
<g id="edge3" class="edge">
<title>Node1&#45;&gt;Node4</title>
<path fill="none" stroke="midnightblue" d="M123.44,-224.37C114.12,-206.38 92.45,-164.55 80.05,-140.63"/>
<polygon fill="midnightblue" stroke="midnightblue" points="83.08,-138.86 75.37,-131.59 76.86,-142.08 83.08,-138.86"/>
</g>
<!-- Node5 -->
<g id="node5" class="node">
<title>Node5</title>
<g id="a_node5"><a xlink:href="cmp__debug_8h.html" target="_top" xlink:title="compression/decompression debugging defines">
<polygon fill="white" stroke="black" points="121.92,-168.5 121.92,-187.5 203.92,-187.5 203.92,-168.5 121.92,-168.5"/>
<text text-anchor="middle" x="162.92" y="-175.5" font-family="Helvetica,sans-Serif" font-size="10.00">cmp_debug.h</text>
</a>
</g>
</g>
<!-- Node1&#45;&gt;Node5 -->
<g id="edge5" class="edge">
<title>Node1&#45;&gt;Node5</title>
<path fill="none" stroke="midnightblue" d="M133.7,-224.08C138.59,-216.53 145.74,-205.49 151.75,-196.23"/>
<polygon fill="midnightblue" stroke="midnightblue" points="154.74,-198.05 157.25,-187.75 148.87,-194.24 154.74,-198.05"/>
</g>
<!-- Node6 -->
<g id="node6" class="node">
<title>Node6</title>
<g id="a_node6"><a xlink:href="cmp__support_8h.html" target="_top" xlink:title="compression/decompression helper functions">
<polygon fill="white" stroke="black" points="185.42,-112.5 185.42,-131.5 274.42,-131.5 274.42,-112.5 185.42,-112.5"/>
<text text-anchor="middle" x="229.92" y="-119.5" font-family="Helvetica,sans-Serif" font-size="10.00">cmp_support.h</text>
</a>
</g>
</g>
<!-- Node1&#45;&gt;Node6 -->
<g id="edge6" class="edge">
<title>Node1&#45;&gt;Node6</title>
<path fill="none" stroke="midnightblue" d="M156.74,-224.49C175.37,-217.56 198.71,-205.93 212.92,-188 223.43,-174.72 227.49,-155.6 229.03,-141.53"/>
<polygon fill="midnightblue" stroke="midnightblue" points="232.52,-141.78 229.8,-131.54 225.54,-141.24 232.52,-141.78"/>
</g>
<!-- Node10 -->
<g id="node10" class="node">
<title>Node10</title>
<g id="a_node10"><a xlink:href="cmp__data__types_8h.html" target="_top" xlink:title="definition of the different compression data types">
<polygon fill="white" stroke="black" points="331.92,-168.5 331.92,-187.5 437.92,-187.5 437.92,-168.5 331.92,-168.5"/>
<text text-anchor="middle" x="384.92" y="-175.5" font-family="Helvetica,sans-Serif" font-size="10.00">cmp_data_types.h</text>
</a>
</g>
</g>
<!-- Node1&#45;&gt;Node10 -->
<g id="edge13" class="edge">
<title>Node1&#45;&gt;Node10</title>
<path fill="none" stroke="midnightblue" d="M168.64,-224.44C213.57,-215 285.92,-199.8 334.42,-189.61"/>
<polygon fill="midnightblue" stroke="midnightblue" points="335.32,-193 344.39,-187.52 333.88,-186.15 335.32,-193"/>
</g>
<!-- Node4&#45;&gt;Node2 -->
<g id="edge4" class="edge">
<title>Node4&#45;&gt;Node2</title>
<path fill="none" stroke="midnightblue" d="M63.55,-112.43C53.31,-99.43 37.29,-74.3 48.92,-56 61.96,-35.48 87.1,-24.16 108.38,-18"/>
<polygon fill="midnightblue" stroke="midnightblue" points="109.35,-21.37 118.14,-15.45 107.58,-14.59 109.35,-21.37"/>
</g>
<!-- Node6&#45;&gt;Node2 -->
<g id="edge7" class="edge">
<title>Node6&#45;&gt;Node2</title>
<path fill="none" stroke="midnightblue" d="M185.41,-120.75C151.04,-117.92 105.5,-107.82 81.92,-76 67.44,-56.47 93.46,-36.81 116.32,-24.31"/>
<polygon fill="midnightblue" stroke="midnightblue" points="118.21,-27.27 125.48,-19.57 114.99,-21.06 118.21,-27.27"/>
</g>
<!-- Node7 -->
<g id="node7" class="node">
<title>Node7</title>
<g id="a_node7"><a xlink:title=" ">
<polygon fill="white" stroke="#bfbfbf" points="90.92,-56.5 90.92,-75.5 146.92,-75.5 146.92,-56.5 90.92,-56.5"/>
<text text-anchor="middle" x="118.92" y="-63.5" font-family="Helvetica,sans-Serif" font-size="10.00">stddef.h</text>
</a>
</g>
</g>
<!-- Node6&#45;&gt;Node7 -->
<g id="edge8" class="edge">
<title>Node6&#45;&gt;Node7</title>
<path fill="none" stroke="midnightblue" d="M212.08,-112.32C194.2,-103.62 166.44,-90.12 145.87,-80.11"/>
<polygon fill="midnightblue" stroke="midnightblue" points="147.23,-76.88 136.71,-75.65 144.17,-83.18 147.23,-76.88"/>
</g>
<!-- Node8 -->
<g id="node8" class="node">
<title>Node8</title>
<g id="a_node8"><a xlink:href="cmp__max__used__bits_8h.html" target="_top" xlink:title="definition and consents of the cmp_max_used_bits structure">
<polygon fill="white" stroke="black" points="165.42,-56.5 165.42,-75.5 290.42,-75.5 290.42,-56.5 165.42,-56.5"/>
<text text-anchor="middle" x="227.92" y="-63.5" font-family="Helvetica,sans-Serif" font-size="10.00">cmp_max_used_bits.h</text>
</a>
</g>
</g>
<!-- Node6&#45;&gt;Node8 -->
<g id="edge9" class="edge">
<title>Node6&#45;&gt;Node8</title>
<path fill="none" stroke="midnightblue" d="M229.59,-112.08C229.33,-105.01 228.95,-94.86 228.62,-85.99"/>
<polygon fill="midnightblue" stroke="midnightblue" points="232.11,-85.61 228.24,-75.75 225.11,-85.87 232.11,-85.61"/>
</g>
<!-- Node9 -->
<g id="node9" class="node">
<title>Node9</title>
<g id="a_node9"><a xlink:href="cmp__cal__up__model_8h.html" target="_top" xlink:title="functions to calculate the update (new) model">
<polygon fill="white" stroke="black" points="308.42,-56.5 308.42,-75.5 427.42,-75.5 427.42,-56.5 308.42,-56.5"/>
<text text-anchor="middle" x="367.92" y="-63.5" font-family="Helvetica,sans-Serif" font-size="10.00">cmp_cal_up_model.h</text>
</a>
</g>
</g>
<!-- Node6&#45;&gt;Node9 -->
<g id="edge11" class="edge">
<title>Node6&#45;&gt;Node9</title>
<path fill="none" stroke="midnightblue" d="M251.78,-112.44C274.7,-103.48 310.89,-89.31 336.78,-79.18"/>
<polygon fill="midnightblue" stroke="midnightblue" points="338.12,-82.42 346.15,-75.52 335.57,-75.9 338.12,-82.42"/>
</g>
<!-- Node8&#45;&gt;Node2 -->
<g id="edge10" class="edge">
<title>Node8&#45;&gt;Node2</title>
<path fill="none" stroke="midnightblue" d="M214.58,-56.32C201.76,-47.98 182.13,-35.21 166.98,-25.35"/>
<polygon fill="midnightblue" stroke="midnightblue" points="168.51,-22.17 158.22,-19.65 164.69,-28.04 168.51,-22.17"/>
</g>
<!-- Node9&#45;&gt;Node2 -->
<g id="edge12" class="edge">
<title>Node9&#45;&gt;Node2</title>
<path fill="none" stroke="midnightblue" d="M332.58,-56.44C291.28,-46.44 223.28,-29.98 181.47,-19.85"/>
<polygon fill="midnightblue" stroke="midnightblue" points="182.23,-16.43 171.69,-17.48 180.58,-23.24 182.23,-16.43"/>
</g>
<!-- Node10&#45;&gt;Node2 -->
<g id="edge14" class="edge">
<title>Node10&#45;&gt;Node2</title>
<path fill="none" stroke="midnightblue" d="M394.24,-168.43C416.23,-147.22 467.28,-91.41 436.92,-56 404.44,-18.13 252.74,-11.83 181.74,-10.99"/>
<polygon fill="midnightblue" stroke="midnightblue" points="181.5,-7.49 171.47,-10.9 181.44,-14.49 181.5,-7.49"/>
</g>
<!-- Node10&#45;&gt;Node6 -->
<g id="edge16" class="edge">
<title>Node10&#45;&gt;Node6</title>
<path fill="none" stroke="midnightblue" d="M360.36,-168.44C334.39,-159.4 293.25,-145.06 264.12,-134.92"/>
<polygon fill="midnightblue" stroke="midnightblue" points="264.96,-131.5 254.36,-131.52 262.65,-138.11 264.96,-131.5"/>
</g>
<!-- Node11 -->
<g id="node11" class="node">
<title>Node11</title>
<g id="a_node11"><a xlink:href="compiler_8h.html" target="_top" xlink:title="a collection of preprocessor macros">
<polygon fill="white" stroke="black" points="483.92,-112.5 483.92,-131.5 551.92,-131.5 551.92,-112.5 483.92,-112.5"/>
<text text-anchor="middle" x="517.92" y="-119.5" font-family="Helvetica,sans-Serif" font-size="10.00">compiler.h</text>
</a>
</g>
</g>
<!-- Node10&#45;&gt;Node11 -->
<g id="edge15" class="edge">
<title>Node10&#45;&gt;Node11</title>
<path fill="none" stroke="midnightblue" d="M405.99,-168.44C427.98,-159.52 462.65,-145.44 487.58,-135.32"/>
<polygon fill="midnightblue" stroke="midnightblue" points="488.99,-138.52 496.94,-131.52 486.36,-132.04 488.99,-138.52"/>
</g>
</g>
</svg>
        <g id="navigator" transform="translate(0 0)" fill="#404254">
                <rect fill="#f2f5e9" fill-opacity="0.5" stroke="#606060" stroke-width=".5" x="0" y="0" width="60" height="60"/>
                <use id="zoomplus" xlink:href="#zoomPlus" x="17" y="9" onmousedown="handleZoom(evt,'in')"/>
                <use id="zoomminus" xlink:href="#zoomMin" x="42" y="9" onmousedown="handleZoom(evt,'out')"/>
                <use id="reset" xlink:href="#resetDef" x="30" y="36" onmousedown="handleReset()"/>
                <g id="arrowUp" xlink:href="#dirArrow" transform="translate(30 24)" onmousedown="handlePan(0,-1)">
                  <use xlink:href="#rim" fill="#404040">
                        <set attributeName="fill" to="#808080" begin="arrowUp.mouseover" end="arrowUp.mouseout"/>
                  </use>
                  <path fill="none" stroke="white" stroke-width="1.5" d="M0,-3.0v7 M-2.5,-0.5L0,-3.0L2.5,-0.5"/>
                </g>
                <g id="arrowRight" xlink:href="#dirArrow" transform="rotate(90) translate(36 -43)" onmousedown="handlePan(1,0)">
                  <use xlink:href="#rim" fill="#404040">
                        <set attributeName="fill" to="#808080" begin="arrowRight.mouseover" end="arrowRight.mouseout"/>
                  </use>
                  <path fill="none" stroke="white" stroke-width="1.5" d="M0,-3.0v7 M-2.5,-0.5L0,-3.0L2.5,-0.5"/>
                </g>
                <g id="arrowDown" xlink:href="#dirArrow" transform="rotate(180) translate(-30 -48)" onmousedown="handlePan(0,1)">
                  <use xlink:href="#rim" fill="#404040">
                        <set attributeName="fill" to="#808080" begin="arrowDown.mouseover" end="arrowDown.mouseout"/>
                  </use>
                  <path fill="none" stroke="white" stroke-width="1.5" d="M0,-3.0v7 M-2.5,-0.5L0,-3.0L2.5,-0.5"/>
                </g>
                <g id="arrowLeft" xlink:href="#dirArrow" transform="rotate(270) translate(-36 17)" onmousedown="handlePan(-1,0)">
                  <use xlink:href="#rim" fill="#404040">
                        <set attributeName="fill" to="#808080" begin="arrowLeft.mouseover" end="arrowLeft.mouseout"/>
                  </use>
                  <path fill="none" stroke="white" stroke-width="1.5" d="M0,-3.0v7 M-2.5,-0.5L0,-3.0L2.5,-0.5"/>
                </g>
        </g>
        <svg viewBox="0 0 15 15" width="100%" height="30px" preserveAspectRatio="xMaxYMin meet">
         <g id="arrow_out" transform="scale(0.3 0.3)">
          <a xlink:href="cmp__data__types_8c__incl_org.svg" target="_base">
           <rect id="button" ry="5" rx="5" y="6" x="6" height="38" width="38"
                fill="#f2f5e9" fill-opacity="0.5" stroke="#606060" stroke-width="1.0"/>
           <path id="arrow"
             d="M 11.500037,31.436501 C 11.940474,20.09759 22.043105,11.32322 32.158766,21.979434 L 37.068811,17.246167 C 37.068811,17.246167 37.088388,32 37.088388,32 L 22.160133,31.978069 C 22.160133,31.978069 26.997745,27.140456 26.997745,27.140456 C 18.528582,18.264221 13.291696,25.230495 11.500037,31.436501 z"
             style="fill:#404040;"/>
          </a>
         </g>
        </svg>
</svg>
