<?xml version="1.0" encoding="UTF-8" standalone="no"?>
<!DOCTYPE svg PUBLIC "-//W3C//DTD SVG 1.1//EN"
 "http://www.w3.org/Graphics/SVG/1.1/DTD/svg11.dtd">
<!-- Generated by graphviz version 2.43.0 (0)
 -->
<!-- Title: rdcu_transfer_sram Pages: 1 -->
<!--zoomable 750 -->
<svg id="main" version="1.1" xmlns="http://www.w3.org/2000/svg" xmlns:xlink="http://www.w3.org/1999/xlink" xml:space="preserve" onload="init(evt)">
<style type="text/css"><![CDATA[
.edge:hover path { stroke: red; }
.edge:hover polygon { stroke: red; fill: red; }
]]></style>
<script type="text/javascript"><![CDATA[
var edges = document.getElementsByTagName('g');
if (edges && edges.length) {
  for (var i=0;i<edges.length;i++) {
    if (edges[i].id.substr(0,4)=='edge') {
      edges[i].setAttribute('class','edge');
    }
  }
}
]]></script>
        <defs>
                <circle id="rim" cx="0" cy="0" r="7"/>
                <circle id="rim2" cx="0" cy="0" r="3.5"/>
                <g id="zoomPlus">
                        <use xlink:href="#rim" fill="#404040">
                                <set attributeName="fill" to="#808080" begin="zoomplus.mouseover" end="zoomplus.mouseout"/>
                        </use>
                        <path d="M-4,0h8M0,-4v8" fill="none" stroke="white" stroke-width="1.5" pointer-events="none"/>
                </g>
                <g id="zoomMin">
                        <use xlink:href="#rim" fill="#404040">
                                <set attributeName="fill" to="#808080" begin="zoomminus.mouseover" end="zoomminus.mouseout"/>
                        </use>
                        <path d="M-4,0h8" fill="none" stroke="white" stroke-width="1.5" pointer-events="none"/>
                </g>
                <g id="dirArrow">
                        <path fill="none" stroke="white" stroke-width="1.5" d="M0,-3.0v7 M-2.5,-0.5L0,-3.0L2.5,-0.5"/>
                </g>
               <g id="resetDef">
                       <use xlink:href="#rim2" fill="#404040">
                               <set attributeName="fill" to="#808080" begin="reset.mouseover" end="reset.mouseout"/>
                       </use>
               </g>
        </defs>

<script type="text/javascript">
var viewWidth = 1274;
var viewHeight = 750;
var sectionId = 'dynsection-0';
</script>
<script xlink:href="svgpan.js"/>
<svg id="graph" class="graph">
<g id="viewport">
<title>rdcu_transfer_sram</title>
<polygon fill="white" stroke="transparent" points="-4,4 -4,-746 1270,-746 1270,4 -4,4"/>
<!-- Node1 -->
<g id="node1" class="node">
<title>Node1</title>
<g id="a_node1"><a xlink:title="set up RDCU SRAM for compression">
<polygon fill="#bfbfbf" stroke="black" points="0,-579.5 0,-598.5 111,-598.5 111,-579.5 0,-579.5"/>
<text text-anchor="middle" x="55.5" y="-586.5" font-family="Helvetica,sans-Serif" font-size="10.00">rdcu_transfer_sram</text>
</a>
</g>
</g>
<!-- Node2 -->
<g id="node2" class="node">
<title>Node2</title>
<g id="a_node2"><a xlink:href="cmp__support_8c_afba7806c424cfb8c7678c1b4cebdfcbb.html#afba7806c424cfb8c7678c1b4cebdfcbb" target="_top" xlink:title="check if a model mode is selected">
<polygon fill="white" stroke="black" points="159,-655.5 159,-674.5 281,-674.5 281,-655.5 159,-655.5"/>
<text text-anchor="middle" x="220" y="-662.5" font-family="Helvetica,sans-Serif" font-size="10.00">model_mode_is_used</text>
</a>
</g>
</g>
<!-- Node1&#45;&gt;Node2 -->
<g id="edge1" class="edge">
<title>Node1&#45;&gt;Node2</title>
<path fill="none" stroke="midnightblue" d="M69,-598.62C85.85,-611.17 117.2,-633.05 147,-646 152.47,-648.38 158.3,-650.51 164.2,-652.42"/>
<polygon fill="midnightblue" stroke="midnightblue" points="163.53,-655.88 174.11,-655.41 165.55,-649.17 163.53,-655.88"/>
</g>
<!-- Node3 -->
<g id="node3" class="node">
<title>Node3</title>
<g id="a_node3"><a xlink:href="rdcu__rmap_8c_a75b7464f649df6eda5387fe5132e9525.html#a75b7464f649df6eda5387fe5132e9525" target="_top" xlink:title="get the configured data MTU">
<polygon fill="white" stroke="black" points="165,-617.5 165,-636.5 275,-636.5 275,-617.5 165,-617.5"/>
<text text-anchor="middle" x="220" y="-624.5" font-family="Helvetica,sans-Serif" font-size="10.00">rdcu_get_data_mtu</text>
</a>
</g>
</g>
<!-- Node1&#45;&gt;Node3 -->
<g id="edge2" class="edge">
<title>Node1&#45;&gt;Node3</title>
<path fill="none" stroke="midnightblue" d="M97.51,-598.59C119.05,-603.63 145.63,-609.84 168.44,-615.18"/>
<polygon fill="midnightblue" stroke="midnightblue" points="167.75,-618.61 178.29,-617.48 169.35,-611.79 167.75,-618.61"/>
</g>
<!-- Node4 -->
<g id="node4" class="node">
<title>Node4</title>
<g id="a_node4"><a xlink:href="rdcu__ctrl_8c_ad5c3a06d535b0f8aa6d5bcaadfdca1f3.html#ad5c3a06d535b0f8aa6d5bcaadfdca1f3" target="_top" xlink:title="sync a range of 32 bit words of the local mirror to the remote SRAM">
<polygon fill="white" stroke="black" points="147,-541.5 147,-560.5 293,-560.5 293,-541.5 147,-541.5"/>
<text text-anchor="middle" x="220" y="-548.5" font-family="Helvetica,sans-Serif" font-size="10.00">rdcu_sync_mirror_to_sram</text>
</a>
</g>
</g>
<!-- Node1&#45;&gt;Node4 -->
<g id="edge3" class="edge">
<title>Node1&#45;&gt;Node4</title>
<path fill="none" stroke="midnightblue" d="M97.51,-579.41C119.05,-574.37 145.63,-568.16 168.44,-562.82"/>
<polygon fill="midnightblue" stroke="midnightblue" points="169.35,-566.21 178.29,-560.52 167.75,-559.39 169.35,-566.21"/>
</g>
<!-- Node36 -->
<g id="node36" class="node">
<title>Node36</title>
<g id="a_node36"><a xlink:href="cmp__rdcu_8c_a308f44d7c916a3a601dd4f007dd8873c.html#a308f44d7c916a3a601dd4f007dd8873c" target="_top" xlink:title="save repeating 3 lines of code...">
<polygon fill="white" stroke="black" points="180,-579.5 180,-598.5 260,-598.5 260,-579.5 180,-579.5"/>
<text text-anchor="middle" x="220" y="-586.5" font-family="Helvetica,sans-Serif" font-size="10.00">rdcu_syncing</text>
</a>
</g>
</g>
<!-- Node1&#45;&gt;Node36 -->
<g id="edge43" class="edge">
<title>Node1&#45;&gt;Node36</title>
<path fill="none" stroke="midnightblue" d="M111.06,-589C130.12,-589 151.39,-589 169.97,-589"/>
<polygon fill="midnightblue" stroke="midnightblue" points="169.98,-592.5 179.98,-589 169.98,-585.5 169.98,-592.5"/>
</g>
<!-- Node38 -->
<g id="node38" class="node">
<title>Node38</title>
<g id="a_node38"><a xlink:href="rdcu__ctrl_8c_ad28ee26aa15994bf9d5105568df7f73d.html#ad28ee26aa15994bf9d5105568df7f73d" target="_top" xlink:title="write uint16_t formatted data to the local SRAM mirror. This function is endian&#45;safe.">
<polygon fill="white" stroke="black" points="162.5,-494.5 162.5,-513.5 277.5,-513.5 277.5,-494.5 162.5,-494.5"/>
<text text-anchor="middle" x="220" y="-501.5" font-family="Helvetica,sans-Serif" font-size="10.00">rdcu_write_sram_16</text>
</a>
</g>
</g>
<!-- Node1&#45;&gt;Node38 -->
<g id="edge46" class="edge">
<title>Node1&#45;&gt;Node38</title>
<path fill="none" stroke="midnightblue" d="M69.82,-579.47C87.07,-567.4 118.31,-546.45 147,-532 157.84,-526.54 170.01,-521.44 181.22,-517.13"/>
<polygon fill="midnightblue" stroke="midnightblue" points="182.63,-520.34 190.77,-513.56 180.17,-513.79 182.63,-520.34"/>
</g>
<!-- Node5 -->
<g id="node5" class="node">
<title>Node5</title>
<g id="a_node5"><a xlink:href="rdcu__rmap_8c_a9494bec87a3b44e5a6bb06a76193806e.html#a9494bec87a3b44e5a6bb06a76193806e" target="_top" xlink:title="submit a data sync command">
<polygon fill="white" stroke="black" points="343.5,-551.5 343.5,-570.5 435.5,-570.5 435.5,-551.5 343.5,-551.5"/>
<text text-anchor="middle" x="389.5" y="-558.5" font-family="Helvetica,sans-Serif" font-size="10.00">rdcu_sync_data</text>
</a>
</g>
</g>
<!-- Node4&#45;&gt;Node5 -->
<g id="edge4" class="edge">
<title>Node4&#45;&gt;Node5</title>
<path fill="none" stroke="midnightblue" d="M293.01,-555.3C306.44,-556.1 320.28,-556.93 333.12,-557.69"/>
<polygon fill="midnightblue" stroke="midnightblue" points="332.98,-561.19 343.17,-558.29 333.4,-554.2 332.98,-561.19"/>
</g>
<!-- Node22 -->
<g id="node22" class="node">
<title>Node22</title>
<g id="a_node22"><a xlink:href="rdcu__cmd_8c_a8a2bdc35e60b4f50569ea96395254e08.html#a8a2bdc35e60b4f50569ea96395254e08" target="_top" xlink:title="create a command to write arbitrary data to the RDCU">
<polygon fill="white" stroke="black" points="329,-513.5 329,-532.5 450,-532.5 450,-513.5 329,-513.5"/>
<text text-anchor="middle" x="389.5" y="-520.5" font-family="Helvetica,sans-Serif" font-size="10.00">rdcu_write_cmd_data</text>
</a>
</g>
</g>
<!-- Node4&#45;&gt;Node22 -->
<g id="edge24" class="edge">
<title>Node4&#45;&gt;Node22</title>
<path fill="none" stroke="midnightblue" d="M278.18,-541.44C292.06,-539.12 307.02,-536.62 321.32,-534.23"/>
<polygon fill="midnightblue" stroke="midnightblue" points="322.3,-537.62 331.58,-532.51 321.14,-530.71 322.3,-537.62"/>
</g>
<!-- Node6 -->
<g id="node6" class="node">
<title>Node6</title>
<g id="a_node6"><a xlink:href="test__cmp__max__used__bits__list_8c_a7ac38fce3243a7dcf448301ee9ffd392.html#a7ac38fce3243a7dcf448301ee9ffd392" target="_top" xlink:title=" ">
<polygon fill="white" stroke="black" points="992,-418.5 992,-437.5 1042,-437.5 1042,-418.5 992,-418.5"/>
<text text-anchor="middle" x="1017" y="-425.5" font-family="Helvetica,sans-Serif" font-size="10.00">malloc</text>
</a>
</g>
</g>
<!-- Node5&#45;&gt;Node6 -->
<g id="edge5" class="edge">
<title>Node5&#45;&gt;Node6</title>
<path fill="none" stroke="midnightblue" d="M423.92,-551.47C432.53,-548.7 441.7,-545.48 450,-542 466.68,-535 468.65,-528.13 486,-523 667.43,-469.35 728.78,-539.35 910,-485 941.03,-475.69 973.36,-456.75 994.03,-443.26"/>
<polygon fill="midnightblue" stroke="midnightblue" points="996.02,-446.14 1002.4,-437.67 992.14,-440.31 996.02,-446.14"/>
</g>
<!-- Node7 -->
<g id="node7" class="node">
<title>Node7</title>
<g id="a_node7"><a xlink:href="rdcu__rmap_8c_a1a064554031c2fa2dcb65541e0765c0f.html#a1a064554031c2fa2dcb65541e0765c0f" target="_top" xlink:title="n rmap command transaction">
<polygon fill="white" stroke="black" points="653,-570.5 653,-589.5 748,-589.5 748,-570.5 653,-570.5"/>
<text text-anchor="middle" x="700.5" y="-577.5" font-family="Helvetica,sans-Serif" font-size="10.00">rdcu_process_rx</text>
</a>
</g>
</g>
<!-- Node5&#45;&gt;Node7 -->
<g id="edge6" class="edge">
<title>Node5&#45;&gt;Node7</title>
<path fill="none" stroke="midnightblue" d="M435.76,-563.78C490.67,-567.16 583.27,-572.85 642.85,-576.52"/>
<polygon fill="midnightblue" stroke="midnightblue" points="642.66,-580.01 652.85,-577.13 643.09,-573.02 642.66,-580.01"/>
</g>
<!-- Node20 -->
<g id="node20" class="node">
<title>Node20</title>
<g id="a_node20"><a xlink:href="rdcu__rmap_8c_a95fad3cd9b6bbe562e1a73e3f1c108a8.html#a95fad3cd9b6bbe562e1a73e3f1c108a8" target="_top" xlink:title="submit an rmap command transaction">
<polygon fill="white" stroke="black" points="505.5,-532.5 505.5,-551.5 597.5,-551.5 597.5,-532.5 505.5,-532.5"/>
<text text-anchor="middle" x="551.5" y="-539.5" font-family="Helvetica,sans-Serif" font-size="10.00">rdcu_submit_tx</text>
</a>
</g>
</g>
<!-- Node5&#45;&gt;Node20 -->
<g id="edge21" class="edge">
<title>Node5&#45;&gt;Node20</title>
<path fill="none" stroke="midnightblue" d="M435.92,-555.61C454.33,-553.42 475.75,-550.88 495.06,-548.58"/>
<polygon fill="midnightblue" stroke="midnightblue" points="495.72,-552.03 505.24,-547.37 494.9,-545.08 495.72,-552.03"/>
</g>
<!-- Node21 -->
<g id="node21" class="node">
<title>Node21</title>
<g id="a_node21"><a xlink:href="rdcu__rmap_8c_a36f44335aa66dd49fb4903f7269bc5b1.html#a36f44335aa66dd49fb4903f7269bc5b1" target="_top" xlink:title="grab a slot in the transaction log">
<polygon fill="white" stroke="black" points="495.5,-608.5 495.5,-627.5 607.5,-627.5 607.5,-608.5 495.5,-608.5"/>
<text text-anchor="middle" x="551.5" y="-615.5" font-family="Helvetica,sans-Serif" font-size="10.00">trans_log_grab_slot</text>
</a>
</g>
</g>
<!-- Node5&#45;&gt;Node21 -->
<g id="edge23" class="edge">
<title>Node5&#45;&gt;Node21</title>
<path fill="none" stroke="midnightblue" d="M417.28,-570.54C443.82,-579.99 484.65,-594.54 514.11,-605.04"/>
<polygon fill="midnightblue" stroke="midnightblue" points="513.04,-608.37 523.63,-608.43 515.39,-601.78 513.04,-608.37"/>
</g>
<!-- Node7&#45;&gt;Node6 -->
<g id="edge7" class="edge">
<title>Node7&#45;&gt;Node6</title>
<path fill="none" stroke="midnightblue" d="M711.09,-589.62C725.45,-603.28 754.08,-627.67 784,-637 837.46,-653.67 862.28,-666.3 910,-637 979.21,-594.5 1004.94,-491.2 1012.91,-447.76"/>
<polygon fill="midnightblue" stroke="midnightblue" points="1016.37,-448.3 1014.61,-437.86 1009.47,-447.12 1016.37,-448.3"/>
</g>
<!-- Node8 -->
<g id="node8" class="node">
<title>Node8</title>
<g id="a_node8"><a xlink:href="rmap_8c_abf1868ec6873f9f189050cadc7e64a3b.html#abf1868ec6873f9f189050cadc7e64a3b" target="_top" xlink:title="calculate the CRC8 of a given buffer">
<polygon fill="white" stroke="black" points="813,-570.5 813,-589.5 881,-589.5 881,-570.5 813,-570.5"/>
<text text-anchor="middle" x="847" y="-577.5" font-family="Helvetica,sans-Serif" font-size="10.00">rmap_crc8</text>
</a>
</g>
</g>
<!-- Node7&#45;&gt;Node8 -->
<g id="edge8" class="edge">
<title>Node7&#45;&gt;Node8</title>
<path fill="none" stroke="midnightblue" d="M748.02,-580C765.51,-580 785.31,-580 802.52,-580"/>
<polygon fill="midnightblue" stroke="midnightblue" points="802.85,-583.5 812.85,-580 802.85,-576.5 802.85,-583.5"/>
</g>
<!-- Node9 -->
<g id="node9" class="node">
<title>Node9</title>
<g id="a_node9"><a xlink:href="rmap_8c_a1def9af549819e7fdbda12af8bdc9c0e.html#a1def9af549819e7fdbda12af8bdc9c0e" target="_top" xlink:title="completely destroys an RMAP packet">
<polygon fill="white" stroke="black" points="791,-456.5 791,-475.5 903,-475.5 903,-456.5 791,-456.5"/>
<text text-anchor="middle" x="847" y="-463.5" font-family="Helvetica,sans-Serif" font-size="10.00">rmap_erase_packet</text>
</a>
</g>
</g>
<!-- Node7&#45;&gt;Node9 -->
<g id="edge9" class="edge">
<title>Node7&#45;&gt;Node9</title>
<path fill="none" stroke="midnightblue" d="M713.82,-570.28C738.67,-550.68 795.01,-506.23 825.49,-482.18"/>
<polygon fill="midnightblue" stroke="midnightblue" points="828.03,-484.64 833.71,-475.69 823.69,-479.14 828.03,-484.64"/>
</g>
<!-- Node10 -->
<g id="node10" class="node">
<title>Node10</title>
<g id="a_node10"><a xlink:href="rmap_8c_a5e88a29337404518eceedf9b4af285bf.html#a5e88a29337404518eceedf9b4af285bf" target="_top" xlink:title=" ">
<polygon fill="white" stroke="black" points="799.5,-684.5 799.5,-703.5 894.5,-703.5 894.5,-684.5 799.5,-684.5"/>
<text text-anchor="middle" x="847" y="-691.5" font-family="Helvetica,sans-Serif" font-size="10.00">rmap_parse_pkt</text>
</a>
</g>
</g>
<!-- Node7&#45;&gt;Node10 -->
<g id="edge10" class="edge">
<title>Node7&#45;&gt;Node10</title>
<path fill="none" stroke="midnightblue" d="M708.09,-589.76C720.79,-607.9 750.39,-647.05 784,-670 790.03,-674.12 796.86,-677.66 803.74,-680.67"/>
<polygon fill="midnightblue" stroke="midnightblue" points="802.48,-683.94 813.06,-684.44 805.1,-677.45 802.48,-683.94"/>
</g>
<!-- Node15 -->
<g id="node15" class="node">
<title>Node15</title>
<g id="a_node15"><a xlink:href="rmap_8c_a46d3271304c12df042b57dbebaba67e1.html#a46d3271304c12df042b57dbebaba67e1" target="_top" xlink:title="create an rmap packet from a buffer">
<polygon fill="white" stroke="black" points="784.5,-342.5 784.5,-361.5 909.5,-361.5 909.5,-342.5 784.5,-342.5"/>
<text text-anchor="middle" x="847" y="-349.5" font-family="Helvetica,sans-Serif" font-size="10.00">rmap_pkt_from_buffer</text>
</a>
</g>
</g>
<!-- Node7&#45;&gt;Node15 -->
<g id="edge15" class="edge">
<title>Node7&#45;&gt;Node15</title>
<path fill="none" stroke="midnightblue" d="M702.38,-570.48C705.93,-537.66 722.12,-428.19 784,-371 785.71,-369.42 787.55,-367.97 789.49,-366.63"/>
<polygon fill="midnightblue" stroke="midnightblue" points="791.53,-369.51 798.51,-361.54 788.08,-363.41 791.53,-369.51"/>
</g>
<!-- Node18 -->
<g id="node18" class="node">
<title>Node18</title>
<g id="a_node18"><a xlink:href="rdcu__rmap_8c_acf9b176d8d9b24e9d07711f56aebccc0.html#acf9b176d8d9b24e9d07711f56aebccc0" target="_top" xlink:title="get the local address for a slot">
<polygon fill="white" stroke="black" points="792,-532.5 792,-551.5 902,-551.5 902,-532.5 792,-532.5"/>
<text text-anchor="middle" x="847" y="-539.5" font-family="Helvetica,sans-Serif" font-size="10.00">trans_log_get_addr</text>
</a>
</g>
</g>
<!-- Node7&#45;&gt;Node18 -->
<g id="edge19" class="edge">
<title>Node7&#45;&gt;Node18</title>
<path fill="none" stroke="midnightblue" d="M737.96,-570.41C756.77,-565.46 779.91,-559.38 799.95,-554.11"/>
<polygon fill="midnightblue" stroke="midnightblue" points="801.02,-557.45 809.8,-551.52 799.24,-550.68 801.02,-557.45"/>
</g>
<!-- Node19 -->
<g id="node19" class="node">
<title>Node19</title>
<g id="a_node19"><a xlink:href="rdcu__rmap_8c_a7012f58a1862cf07b00e299d24c199c2.html#a7012f58a1862cf07b00e299d24c199c2" target="_top" xlink:title="release a slot in the transaction log">
<polygon fill="white" stroke="black" points="784,-608.5 784,-627.5 910,-627.5 910,-608.5 784,-608.5"/>
<text text-anchor="middle" x="847" y="-615.5" font-family="Helvetica,sans-Serif" font-size="10.00">trans_log_release_slot</text>
</a>
</g>
</g>
<!-- Node7&#45;&gt;Node19 -->
<g id="edge20" class="edge">
<title>Node7&#45;&gt;Node19</title>
<path fill="none" stroke="midnightblue" d="M737.96,-589.59C756.77,-594.54 779.91,-600.62 799.95,-605.89"/>
<polygon fill="midnightblue" stroke="midnightblue" points="799.24,-609.32 809.8,-608.48 801.02,-602.55 799.24,-609.32"/>
</g>
<!-- Node11 -->
<g id="node11" class="node">
<title>Node11</title>
<g id="a_node11"><a xlink:href="rmap_8c_abb4e19c17c7223212c3904bc4c0189d2.html#abb4e19c17c7223212c3904bc4c0189d2" target="_top" xlink:title=" ">
<polygon fill="white" stroke="black" points="961.5,-722.5 961.5,-741.5 1072.5,-741.5 1072.5,-722.5 961.5,-722.5"/>
<text text-anchor="middle" x="1017" y="-729.5" font-family="Helvetica,sans-Serif" font-size="10.00">rmap_check_status</text>
</a>
</g>
</g>
<!-- Node10&#45;&gt;Node11 -->
<g id="edge11" class="edge">
<title>Node10&#45;&gt;Node11</title>
<path fill="none" stroke="midnightblue" d="M890.39,-703.59C912.76,-708.65 940.4,-714.9 964.05,-720.25"/>
<polygon fill="midnightblue" stroke="midnightblue" points="963.39,-723.69 973.91,-722.48 964.93,-716.86 963.39,-723.69"/>
</g>
<!-- Node12 -->
<g id="node12" class="node">
<title>Node12</title>
<g id="a_node12"><a xlink:href="rmap_8c_a20aa8b91dfb1bbad819759f97b853054.html#a20aa8b91dfb1bbad819759f97b853054" target="_top" xlink:title=" ">
<polygon fill="white" stroke="black" points="956,-684.5 956,-703.5 1078,-703.5 1078,-684.5 956,-684.5"/>
<text text-anchor="middle" x="1017" y="-691.5" font-family="Helvetica,sans-Serif" font-size="10.00">rmap_parse_cmd_pkt</text>
</a>
</g>
</g>
<!-- Node10&#45;&gt;Node12 -->
<g id="edge12" class="edge">
<title>Node10&#45;&gt;Node12</title>
<path fill="none" stroke="midnightblue" d="M894.8,-694C910.62,-694 928.66,-694 945.89,-694"/>
<polygon fill="midnightblue" stroke="midnightblue" points="945.92,-697.5 955.92,-694 945.92,-690.5 945.92,-697.5"/>
</g>
<!-- Node13 -->
<g id="node13" class="node">
<title>Node13</title>
<g id="a_node13"><a xlink:href="rmap_8c_adef42426b46ee5ad5176ee76cff35c22.html#adef42426b46ee5ad5176ee76cff35c22" target="_top" xlink:title=" ">
<polygon fill="white" stroke="black" points="954.5,-646.5 954.5,-665.5 1079.5,-665.5 1079.5,-646.5 954.5,-646.5"/>
<text text-anchor="middle" x="1017" y="-653.5" font-family="Helvetica,sans-Serif" font-size="10.00">rmap_parse_reply_pkt</text>
</a>
</g>
</g>
<!-- Node10&#45;&gt;Node13 -->
<g id="edge13" class="edge">
<title>Node10&#45;&gt;Node13</title>
<path fill="none" stroke="midnightblue" d="M890.39,-684.41C912.76,-679.35 940.4,-673.1 964.05,-667.75"/>
<polygon fill="midnightblue" stroke="midnightblue" points="964.93,-671.14 973.91,-665.52 963.39,-664.31 964.93,-671.14"/>
</g>
<!-- Node14 -->
<g id="node14" class="node">
<title>Node14</title>
<g id="a_node14"><a xlink:href="rmap_8c_a2ff278a5e094a9f585865d4d838e0e0e.html#a2ff278a5e094a9f585865d4d838e0e0e" target="_top" xlink:title=" ">
<polygon fill="white" stroke="black" points="1124,-646.5 1124,-665.5 1266,-665.5 1266,-646.5 1124,-646.5"/>
<text text-anchor="middle" x="1195" y="-653.5" font-family="Helvetica,sans-Serif" font-size="10.00">rmap_process_read_reply</text>
</a>
</g>
</g>
<!-- Node13&#45;&gt;Node14 -->
<g id="edge14" class="edge">
<title>Node13&#45;&gt;Node14</title>
<path fill="none" stroke="midnightblue" d="M1079.56,-656C1090.6,-656 1102.25,-656 1113.73,-656"/>
<polygon fill="midnightblue" stroke="midnightblue" points="1113.74,-659.5 1123.74,-656 1113.74,-652.5 1113.74,-659.5"/>
</g>
<!-- Node15&#45;&gt;Node6 -->
<g id="edge16" class="edge">
<title>Node15&#45;&gt;Node6</title>
<path fill="none" stroke="midnightblue" d="M883.51,-361.57C892.29,-364.3 901.58,-367.49 910,-371 939.06,-383.13 970.64,-400.73 991.7,-413.16"/>
<polygon fill="midnightblue" stroke="midnightblue" points="989.94,-416.18 1000.32,-418.3 993.52,-410.17 989.94,-416.18"/>
</g>
<!-- Node16 -->
<g id="node16" class="node">
<title>Node16</title>
<g id="a_node16"><a xlink:href="rmap_8c_aba944cf978de0b264ea5bb3a784bce0f.html#aba944cf978de0b264ea5bb3a784bce0f" target="_top" xlink:title="create an RMAP packet and set defaults">
<polygon fill="white" stroke="black" points="959,-266.5 959,-285.5 1075,-285.5 1075,-266.5 959,-266.5"/>
<text text-anchor="middle" x="1017" y="-273.5" font-family="Helvetica,sans-Serif" font-size="10.00">rmap_create_packet</text>
</a>
</g>
</g>
<!-- Node15&#45;&gt;Node16 -->
<g id="edge17" class="edge">
<title>Node15&#45;&gt;Node16</title>
<path fill="none" stroke="midnightblue" d="M883.51,-342.43C892.29,-339.7 901.58,-336.51 910,-333 939.06,-320.87 970.64,-303.27 991.7,-290.84"/>
<polygon fill="midnightblue" stroke="midnightblue" points="993.52,-293.83 1000.32,-285.7 989.94,-287.82 993.52,-293.83"/>
</g>
<!-- Node17 -->
<g id="node17" class="node">
<title>Node17</title>
<g id="a_node17"><a xlink:href="rmap_8c_a0ec3c28e83818f02e00d4c79d82d938a.html#a0ec3c28e83818f02e00d4c79d82d938a" target="_top" xlink:title="get the minimum header size given the RMAP instruction">
<polygon fill="white" stroke="black" points="950.5,-190.5 950.5,-209.5 1083.5,-209.5 1083.5,-190.5 950.5,-190.5"/>
<text text-anchor="middle" x="1017" y="-197.5" font-family="Helvetica,sans-Serif" font-size="10.00">rmap_get_min_hdr_size</text>
</a>
</g>
</g>
<!-- Node15&#45;&gt;Node17 -->
<g id="edge18" class="edge">
<title>Node15&#45;&gt;Node17</title>
<path fill="none" stroke="midnightblue" d="M894.61,-342.47C900.18,-340 905.49,-336.9 910,-333 938.27,-308.56 922.94,-286.41 946,-257 958.89,-240.56 977.34,-225.78 992.06,-215.39"/>
<polygon fill="midnightblue" stroke="midnightblue" points="994.38,-218.05 1000.67,-209.52 990.43,-212.27 994.38,-218.05"/>
</g>
<!-- Node20&#45;&gt;Node7 -->
<g id="edge22" class="edge">
<title>Node20&#45;&gt;Node7</title>
<path fill="none" stroke="midnightblue" d="M589.59,-551.59C608.82,-556.56 632.49,-562.68 652.93,-567.96"/>
<polygon fill="midnightblue" stroke="midnightblue" points="652.11,-571.37 662.67,-570.48 653.87,-564.59 652.11,-571.37"/>
</g>
<!-- Node23 -->
<g id="node23" class="node">
<title>Node23</title>
<g id="a_node23"><a xlink:href="rdcu__cmd_8c_acf34d113aa558e87f377436d69083f4f.html#acf34d113aa558e87f377436d69083f4f" target="_top" xlink:title="create a command to write arbitrary data to the RDCU (internal)">
<polygon fill="white" stroke="black" points="491,-334 491,-364 612,-364 612,-334 491,-334"/>
<text text-anchor="start" x="499" y="-352" font-family="Helvetica,sans-Serif" font-size="10.00">rdcu_write_cmd_data</text>
<text text-anchor="middle" x="551.5" y="-341" font-family="Helvetica,sans-Serif" font-size="10.00">_internal</text>
</a>
</g>
</g>
<!-- Node22&#45;&gt;Node23 -->
<g id="edge25" class="edge">
<title>Node22&#45;&gt;Node23</title>
<path fill="none" stroke="midnightblue" d="M432.94,-513.46C439.01,-510.99 444.92,-507.88 450,-504 495.46,-469.27 526.37,-407.68 540.93,-373.52"/>
<polygon fill="midnightblue" stroke="midnightblue" points="544.17,-374.84 544.76,-364.26 537.7,-372.17 544.17,-374.84"/>
</g>
<!-- Node24 -->
<g id="node24" class="node">
<title>Node24</title>
<g id="a_node24"><a xlink:href="rdcu__rmap_8c_ab224927e85a7cec5b6f90292c7de36c4.html#ab224927e85a7cec5b6f90292c7de36c4" target="_top" xlink:title="generate an rmap command packet">
<polygon fill="white" stroke="black" points="657,-228.5 657,-247.5 744,-247.5 744,-228.5 657,-228.5"/>
<text text-anchor="middle" x="700.5" y="-235.5" font-family="Helvetica,sans-Serif" font-size="10.00">rdcu_gen_cmd</text>
</a>
</g>
</g>
<!-- Node23&#45;&gt;Node24 -->
<g id="edge26" class="edge">
<title>Node23&#45;&gt;Node24</title>
<path fill="none" stroke="midnightblue" d="M572.63,-333.8C600.42,-312.81 650.3,-275.15 678.53,-253.83"/>
<polygon fill="midnightblue" stroke="midnightblue" points="680.68,-256.6 686.55,-247.78 676.46,-251.01 680.68,-256.6"/>
</g>
<!-- Node24&#45;&gt;Node9 -->
<g id="edge30" class="edge">
<title>Node24&#45;&gt;Node9</title>
<path fill="none" stroke="midnightblue" d="M702.38,-247.52C705.93,-280.34 722.12,-389.81 784,-447 785.71,-448.58 787.55,-450.03 789.49,-451.37"/>
<polygon fill="midnightblue" stroke="midnightblue" points="788.08,-454.59 798.51,-456.46 791.53,-448.49 788.08,-454.59"/>
</g>
<!-- Node24&#45;&gt;Node16 -->
<g id="edge29" class="edge">
<title>Node24&#45;&gt;Node16</title>
<path fill="none" stroke="midnightblue" d="M733.81,-228.46C775.24,-217.72 849.02,-203.64 910,-219 941.77,-227 974.39,-246.58 994.9,-260.56"/>
<polygon fill="midnightblue" stroke="midnightblue" points="992.96,-263.48 1003.16,-266.34 996.97,-257.74 992.96,-263.48"/>
</g>
<!-- Node25 -->
<g id="node25" class="node">
<title>Node25</title>
<g id="a_node25"><a xlink:href="rmap_8c_aa17375d153cc3473cbbe4dfe1056c527.html#aa17375d153cc3473cbbe4dfe1056c527" target="_top" xlink:title="build an rmap header">
<polygon fill="white" stroke="black" points="801,-152.5 801,-171.5 893,-171.5 893,-152.5 801,-152.5"/>
<text text-anchor="middle" x="847" y="-159.5" font-family="Helvetica,sans-Serif" font-size="10.00">rmap_build_hdr</text>
</a>
</g>
</g>
<!-- Node24&#45;&gt;Node25 -->
<g id="edge27" class="edge">
<title>Node24&#45;&gt;Node25</title>
<path fill="none" stroke="midnightblue" d="M715.04,-228.32C731,-217.18 758.59,-198.78 784,-186 791.78,-182.09 800.36,-178.4 808.6,-175.13"/>
<polygon fill="midnightblue" stroke="midnightblue" points="809.95,-178.36 818.04,-171.52 807.45,-171.83 809.95,-178.36"/>
</g>
<!-- Node26 -->
<g id="node26" class="node">
<title>Node26</title>
<g id="a_node26"><a xlink:href="rmap_8c_aab7e23f061291d39568ad2df700bc777.html#aab7e23f061291d39568ad2df700bc777" target="_top" xlink:title="set an RMAP command">
<polygon fill="white" stroke="black" points="802.5,-38.5 802.5,-57.5 891.5,-57.5 891.5,-38.5 802.5,-38.5"/>
<text text-anchor="middle" x="847" y="-45.5" font-family="Helvetica,sans-Serif" font-size="10.00">rmap_set_cmd</text>
</a>
</g>
</g>
<!-- Node24&#45;&gt;Node26 -->
<g id="edge31" class="edge">
<title>Node24&#45;&gt;Node26</title>
<path fill="none" stroke="midnightblue" d="M703.36,-228.21C709.4,-199.09 731.23,-112.3 784,-67 786.81,-64.58 789.93,-62.48 793.22,-60.64"/>
<polygon fill="midnightblue" stroke="midnightblue" points="794.72,-63.8 802.27,-56.36 791.74,-57.47 794.72,-63.8"/>
</g>
<!-- Node28 -->
<g id="node28" class="node">
<title>Node28</title>
<g id="a_node28"><a xlink:href="rmap_8c_acf641aae92829ae864b6c3d8f94d86e2.html#acf641aae92829ae864b6c3d8f94d86e2" target="_top" xlink:title="set a data address">
<polygon fill="white" stroke="black" points="789,-304.5 789,-323.5 905,-323.5 905,-304.5 789,-304.5"/>
<text text-anchor="middle" x="847" y="-311.5" font-family="Helvetica,sans-Serif" font-size="10.00">rmap_set_data_addr</text>
</a>
</g>
</g>
<!-- Node24&#45;&gt;Node28 -->
<g id="edge33" class="edge">
<title>Node24&#45;&gt;Node28</title>
<path fill="none" stroke="midnightblue" d="M712.82,-247.52C728.1,-259.96 756.58,-281.72 784,-295 788.63,-297.24 793.58,-299.29 798.6,-301.14"/>
<polygon fill="midnightblue" stroke="midnightblue" points="797.65,-304.52 808.24,-304.46 799.92,-297.9 797.65,-304.52"/>
</g>
<!-- Node29 -->
<g id="node29" class="node">
<title>Node29</title>
<g id="a_node29"><a xlink:href="rmap_8c_a6833f065640f652aa1a929309e592f7a.html#a6833f065640f652aa1a929309e592f7a" target="_top" xlink:title="set an RMAP command">
<polygon fill="white" stroke="black" points="792,-266.5 792,-285.5 902,-285.5 902,-266.5 792,-266.5"/>
<text text-anchor="middle" x="847" y="-273.5" font-family="Helvetica,sans-Serif" font-size="10.00">rmap_set_data_len</text>
</a>
</g>
</g>
<!-- Node24&#45;&gt;Node29 -->
<g id="edge34" class="edge">
<title>Node24&#45;&gt;Node29</title>
<path fill="none" stroke="midnightblue" d="M737.96,-247.59C756.77,-252.54 779.91,-258.62 799.95,-263.89"/>
<polygon fill="midnightblue" stroke="midnightblue" points="799.24,-267.32 809.8,-266.48 801.02,-260.55 799.24,-267.32"/>
</g>
<!-- Node30 -->
<g id="node30" class="node">
<title>Node30</title>
<g id="a_node30"><a xlink:href="rmap_8c_a5f0081b9928da5e50fc8b231b57f3a80.html#a5f0081b9928da5e50fc8b231b57f3a80" target="_top" xlink:title="set the destination address path">
<polygon fill="white" stroke="black" points="789,-380.5 789,-399.5 905,-399.5 905,-380.5 789,-380.5"/>
<text text-anchor="middle" x="847" y="-387.5" font-family="Helvetica,sans-Serif" font-size="10.00">rmap_set_dest_path</text>
</a>
</g>
</g>
<!-- Node24&#45;&gt;Node30 -->
<g id="edge35" class="edge">
<title>Node24&#45;&gt;Node30</title>
<path fill="none" stroke="midnightblue" d="M704.76,-247.68C713.52,-272.17 739.88,-337 784,-371 786.34,-372.8 788.85,-374.44 791.48,-375.92"/>
<polygon fill="midnightblue" stroke="midnightblue" points="790.22,-379.19 800.75,-380.38 793.25,-372.89 790.22,-379.19"/>
</g>
<!-- Node31 -->
<g id="node31" class="node">
<title>Node31</title>
<g id="a_node31"><a xlink:href="rmap_8c_a2da8e7b48411d382b54848795f85795d.html#a2da8e7b48411d382b54848795f85795d" target="_top" xlink:title="set the destination (target) logical address">
<polygon fill="white" stroke="black" points="805.5,-228.5 805.5,-247.5 888.5,-247.5 888.5,-228.5 805.5,-228.5"/>
<text text-anchor="middle" x="847" y="-235.5" font-family="Helvetica,sans-Serif" font-size="10.00">rmap_set_dst</text>
</a>
</g>
</g>
<!-- Node24&#45;&gt;Node31 -->
<g id="edge37" class="edge">
<title>Node24&#45;&gt;Node31</title>
<path fill="none" stroke="midnightblue" d="M744.07,-238C760.07,-238 778.41,-238 795.09,-238"/>
<polygon fill="midnightblue" stroke="midnightblue" points="795.22,-241.5 805.22,-238 795.22,-234.5 795.22,-241.5"/>
</g>
<!-- Node32 -->
<g id="node32" class="node">
<title>Node32</title>
<g id="a_node32"><a xlink:href="rmap_8c_a15021c9dfccddc44786dfd37834bcd7e.html#a15021c9dfccddc44786dfd37834bcd7e" target="_top" xlink:title="set the command authorisation key">
<polygon fill="white" stroke="black" points="804.5,-114.5 804.5,-133.5 889.5,-133.5 889.5,-114.5 804.5,-114.5"/>
<text text-anchor="middle" x="847" y="-121.5" font-family="Helvetica,sans-Serif" font-size="10.00">rmap_set_key</text>
</a>
</g>
</g>
<!-- Node24&#45;&gt;Node32 -->
<g id="edge38" class="edge">
<title>Node24&#45;&gt;Node32</title>
<path fill="none" stroke="midnightblue" d="M707.24,-228.34C719.11,-209.19 748.29,-166.22 784,-143 787.35,-140.82 790.97,-138.88 794.72,-137.15"/>
<polygon fill="midnightblue" stroke="midnightblue" points="796.26,-140.3 804.21,-133.29 793.62,-133.82 796.26,-140.3"/>
</g>
<!-- Node33 -->
<g id="node33" class="node">
<title>Node33</title>
<g id="a_node33"><a xlink:href="rmap_8c_a56c47830e67d01e469231e5e7e1d3a34.html#a56c47830e67d01e469231e5e7e1d3a34" target="_top" xlink:title="set the reply address path">
<polygon fill="white" stroke="black" points="787.5,-418.5 787.5,-437.5 906.5,-437.5 906.5,-418.5 787.5,-418.5"/>
<text text-anchor="middle" x="847" y="-425.5" font-family="Helvetica,sans-Serif" font-size="10.00">rmap_set_reply_path</text>
</a>
</g>
</g>
<!-- Node24&#45;&gt;Node33 -->
<g id="edge39" class="edge">
<title>Node24&#45;&gt;Node33</title>
<path fill="none" stroke="midnightblue" d="M703.36,-247.79C709.4,-276.91 731.23,-363.7 784,-409 785.98,-410.7 788.11,-412.25 790.35,-413.66"/>
<polygon fill="midnightblue" stroke="midnightblue" points="788.93,-416.87 799.41,-418.44 792.2,-410.68 788.93,-416.87"/>
</g>
<!-- Node34 -->
<g id="node34" class="node">
<title>Node34</title>
<g id="a_node34"><a xlink:href="rmap_8c_adae0030440ca4e7ad34622e505acbb2c.html#adae0030440ca4e7ad34622e505acbb2c" target="_top" xlink:title="set the source (initiator) logical address">
<polygon fill="white" stroke="black" points="806,-76.5 806,-95.5 888,-95.5 888,-76.5 806,-76.5"/>
<text text-anchor="middle" x="847" y="-83.5" font-family="Helvetica,sans-Serif" font-size="10.00">rmap_set_src</text>
</a>
</g>
</g>
<!-- Node24&#45;&gt;Node34 -->
<g id="edge41" class="edge">
<title>Node24&#45;&gt;Node34</title>
<path fill="none" stroke="midnightblue" d="M704.76,-228.32C713.52,-203.83 739.88,-139 784,-105 787.81,-102.06 792.08,-99.58 796.55,-97.47"/>
<polygon fill="midnightblue" stroke="midnightblue" points="797.96,-100.68 805.91,-93.67 795.32,-94.19 797.96,-100.68"/>
</g>
<!-- Node35 -->
<g id="node35" class="node">
<title>Node35</title>
<g id="a_node35"><a xlink:href="rmap_8c_a7b4c31714493ce6cc19d4aa825ab50aa.html#a7b4c31714493ce6cc19d4aa825ab50aa" target="_top" xlink:title="set an RMAP transaction identifier">
<polygon fill="white" stroke="black" points="802.5,-0.5 802.5,-19.5 891.5,-19.5 891.5,-0.5 802.5,-0.5"/>
<text text-anchor="middle" x="847" y="-7.5" font-family="Helvetica,sans-Serif" font-size="10.00">rmap_set_tr_id</text>
</a>
</g>
</g>
<!-- Node24&#45;&gt;Node35 -->
<g id="edge42" class="edge">
<title>Node24&#45;&gt;Node35</title>
<path fill="none" stroke="midnightblue" d="M702.38,-228.48C705.93,-195.66 722.12,-86.19 784,-29 786.77,-26.44 789.87,-24.23 793.17,-22.31"/>
<polygon fill="midnightblue" stroke="midnightblue" points="794.82,-25.41 802.3,-17.91 791.77,-19.1 794.82,-25.41"/>
</g>
<!-- Node25&#45;&gt;Node17 -->
<g id="edge28" class="edge">
<title>Node25&#45;&gt;Node17</title>
<path fill="none" stroke="midnightblue" d="M890.39,-171.59C912.76,-176.65 940.4,-182.9 964.05,-188.25"/>
<polygon fill="midnightblue" stroke="midnightblue" points="963.39,-191.69 973.91,-190.48 964.93,-184.86 963.39,-191.69"/>
</g>
<!-- Node27 -->
<g id="node27" class="node">
<title>Node27</title>
<g id="a_node27"><a xlink:href="rmap_8c_a667ce871110961f2a611d0244791e20f.html#a667ce871110961f2a611d0244791e20f" target="_top" xlink:title="valiidates a command code">
<polygon fill="white" stroke="black" points="946,-38.5 946,-57.5 1088,-57.5 1088,-38.5 946,-38.5"/>
<text text-anchor="middle" x="1017" y="-45.5" font-family="Helvetica,sans-Serif" font-size="10.00">rmap_validate_cmd_code</text>
</a>
</g>
</g>
<!-- Node26&#45;&gt;Node27 -->
<g id="edge32" class="edge">
<title>Node26&#45;&gt;Node27</title>
<path fill="none" stroke="midnightblue" d="M891.7,-48C905.13,-48 920.36,-48 935.44,-48"/>
<polygon fill="midnightblue" stroke="midnightblue" points="935.83,-51.5 945.83,-48 935.83,-44.5 935.83,-51.5"/>
</g>
<!-- Node30&#45;&gt;Node6 -->
<g id="edge36" class="edge">
<title>Node30&#45;&gt;Node6</title>
<path fill="none" stroke="midnightblue" d="M890.39,-399.59C918.71,-405.99 955.47,-414.31 981.9,-420.29"/>
<polygon fill="midnightblue" stroke="midnightblue" points="981.3,-423.74 991.83,-422.53 982.85,-416.91 981.3,-423.74"/>
</g>
<!-- Node33&#45;&gt;Node6 -->
<g id="edge40" class="edge">
<title>Node33&#45;&gt;Node6</title>
<path fill="none" stroke="midnightblue" d="M906.76,-428C931.69,-428 959.89,-428 981.39,-428"/>
<polygon fill="midnightblue" stroke="midnightblue" points="981.67,-431.5 991.67,-428 981.67,-424.5 981.67,-431.5"/>
</g>
<!-- Node37 -->
<g id="node37" class="node">
<title>Node37</title>
<g id="a_node37"><a xlink:href="rdcu__rmap_8c_a2650ed06998d198567938a9e933e1761.html#a2650ed06998d198567938a9e933e1761" target="_top" xlink:title="get the RDCU &lt;&#45;&gt; ICU mirror RMAP synchronisation status">
<polygon fill="white" stroke="black" points="486,-646.5 486,-665.5 617,-665.5 617,-646.5 486,-646.5"/>
<text text-anchor="middle" x="551.5" y="-653.5" font-family="Helvetica,sans-Serif" font-size="10.00">rdcu_rmap_sync_status</text>
</a>
</g>
</g>
<!-- Node36&#45;&gt;Node37 -->
<g id="edge44" class="edge">
<title>Node36&#45;&gt;Node37</title>
<path fill="none" stroke="midnightblue" d="M260.09,-596.95C318.06,-608.74 427.13,-630.91 493.85,-644.48"/>
<polygon fill="midnightblue" stroke="midnightblue" points="493.28,-647.94 503.78,-646.5 494.67,-641.08 493.28,-647.94"/>
</g>
<!-- Node37&#45;&gt;Node7 -->
<g id="edge45" class="edge">
<title>Node37&#45;&gt;Node7</title>
<path fill="none" stroke="midnightblue" d="M592.13,-646.49C600.53,-643.88 609.2,-640.72 617,-637 640.2,-625.92 664.08,-608.66 680.14,-596.03"/>
<polygon fill="midnightblue" stroke="midnightblue" points="682.6,-598.55 688.21,-589.57 678.22,-593.09 682.6,-598.55"/>
</g>
<!-- Node39 -->
<g id="node39" class="node">
<title>Node39</title>
<g id="a_node39"><a xlink:href="rdcu__ctrl_8c_aa5bc9bbf2fedf10ed824cd734a0855b6.html#aa5bc9bbf2fedf10ed824cd734a0855b6" target="_top" xlink:title="write arbitrary big&#45;endian data to the local SRAM mirror">
<polygon fill="white" stroke="black" points="340.5,-475.5 340.5,-494.5 438.5,-494.5 438.5,-475.5 340.5,-475.5"/>
<text text-anchor="middle" x="389.5" y="-482.5" font-family="Helvetica,sans-Serif" font-size="10.00">rdcu_write_sram</text>
</a>
</g>
</g>
<!-- Node38&#45;&gt;Node39 -->
<g id="edge47" class="edge">
<title>Node38&#45;&gt;Node39</title>
<path fill="none" stroke="midnightblue" d="M277.71,-497.57C294.53,-495.66 312.98,-493.57 329.91,-491.65"/>
<polygon fill="midnightblue" stroke="midnightblue" points="330.69,-495.08 340.23,-490.47 329.9,-488.12 330.69,-495.08"/>
</g>
</g>
</svg>
        <g id="navigator" transform="translate(0 0)" fill="#404254">
                <rect fill="#f2f5e9" fill-opacity="0.5" stroke="#606060" stroke-width=".5" x="0" y="0" width="60" height="60"/>
                <use id="zoomplus" xlink:href="#zoomPlus" x="17" y="9" onmousedown="handleZoom(evt,'in')"/>
                <use id="zoomminus" xlink:href="#zoomMin" x="42" y="9" onmousedown="handleZoom(evt,'out')"/>
                <use id="reset" xlink:href="#resetDef" x="30" y="36" onmousedown="handleReset()"/>
                <g id="arrowUp" xlink:href="#dirArrow" transform="translate(30 24)" onmousedown="handlePan(0,-1)">
                  <use xlink:href="#rim" fill="#404040">
                        <set attributeName="fill" to="#808080" begin="arrowUp.mouseover" end="arrowUp.mouseout"/>
                  </use>
                  <path fill="none" stroke="white" stroke-width="1.5" d="M0,-3.0v7 M-2.5,-0.5L0,-3.0L2.5,-0.5"/>
                </g>
                <g id="arrowRight" xlink:href="#dirArrow" transform="rotate(90) translate(36 -43)" onmousedown="handlePan(1,0)">
                  <use xlink:href="#rim" fill="#404040">
                        <set attributeName="fill" to="#808080" begin="arrowRight.mouseover" end="arrowRight.mouseout"/>
                  </use>
                  <path fill="none" stroke="white" stroke-width="1.5" d="M0,-3.0v7 M-2.5,-0.5L0,-3.0L2.5,-0.5"/>
                </g>
                <g id="arrowDown" xlink:href="#dirArrow" transform="rotate(180) translate(-30 -48)" onmousedown="handlePan(0,1)">
                  <use xlink:href="#rim" fill="#404040">
                        <set attributeName="fill" to="#808080" begin="arrowDown.mouseover" end="arrowDown.mouseout"/>
                  </use>
                  <path fill="none" stroke="white" stroke-width="1.5" d="M0,-3.0v7 M-2.5,-0.5L0,-3.0L2.5,-0.5"/>
                </g>
                <g id="arrowLeft" xlink:href="#dirArrow" transform="rotate(270) translate(-36 17)" onmousedown="handlePan(-1,0)">
                  <use xlink:href="#rim" fill="#404040">
                        <set attributeName="fill" to="#808080" begin="arrowLeft.mouseover" end="arrowLeft.mouseout"/>
                  </use>
                  <path fill="none" stroke="white" stroke-width="1.5" d="M0,-3.0v7 M-2.5,-0.5L0,-3.0L2.5,-0.5"/>
                </g>
        </g>
        <svg viewBox="0 0 15 15" width="100%" height="30px" preserveAspectRatio="xMaxYMin meet">
         <g id="arrow_out" transform="scale(0.3 0.3)">
          <a xlink:href="cmp__rdcu_8c_aa257971c693045ef23e6c79879b32473_aa257971c693045ef23e6c79879b32473_cgraph_org.svg" target="_base">
           <rect id="button" ry="5" rx="5" y="6" x="6" height="38" width="38"
                fill="#f2f5e9" fill-opacity="0.5" stroke="#606060" stroke-width="1.0"/>
           <path id="arrow"
             d="M 11.500037,31.436501 C 11.940474,20.09759 22.043105,11.32322 32.158766,21.979434 L 37.068811,17.246167 C 37.068811,17.246167 37.088388,32 37.088388,32 L 22.160133,31.978069 C 22.160133,31.978069 26.997745,27.140456 26.997745,27.140456 C 18.528582,18.264221 13.291696,25.230495 11.500037,31.436501 z"
             style="fill:#404040;"/>
          </a>
         </g>
        </svg>
</svg>
