<?xml version="1.0" encoding="UTF-8" standalone="no"?>
<!DOCTYPE svg PUBLIC "-//W3C//DTD SVG 1.1//EN"
 "http://www.w3.org/Graphics/SVG/1.1/DTD/svg11.dtd">
<!-- Generated by graphviz version 2.43.0 (0)
 -->
<!-- Title: compress_l_fx_ncob Pages: 1 -->
<svg width="803pt" height="349pt"
 viewBox="0.00 0.00 803.00 349.00" xmlns="http://www.w3.org/2000/svg" xmlns:xlink="http://www.w3.org/1999/xlink">
<g id="graph0" class="graph" transform="scale(1 1) rotate(0) translate(4 345)">
<title>compress_l_fx_ncob</title>
<polygon fill="white" stroke="transparent" points="-4,4 -4,-345 799,-345 799,4 -4,4"/>
<!-- Node1 -->
<g id="node1" class="node">
<title>Node1</title>
<g id="a_node1"><a xlink:title="compress L_FX_NCOB data">
<polygon fill="#bfbfbf" stroke="black" points="0,-133.5 0,-152.5 116,-152.5 116,-133.5 0,-133.5"/>
<text text-anchor="middle" x="58" y="-140.5" font-family="Helvetica,sans-Serif" font-size="10.00">compress_l_fx_ncob</text>
</a>
</g>
</g>
<!-- Node2 -->
<g id="node2" class="node">
<title>Node2</title>
<g id="a_node2"><a xlink:href="cmp__cal__up__model_8h_ae94523fd5901d49d08ea8f98ee319356.html#ae94523fd5901d49d08ea8f98ee319356" target="_top" xlink:title=" ">
<polygon fill="white" stroke="black" points="173.5,-209.5 173.5,-228.5 276.5,-228.5 276.5,-209.5 173.5,-209.5"/>
<text text-anchor="middle" x="225" y="-216.5" font-family="Helvetica,sans-Serif" font-size="10.00">cmp_up_model32</text>
</a>
</g>
</g>
<!-- Node1&#45;&gt;Node2 -->
<g id="edge1" class="edge">
<title>Node1&#45;&gt;Node2</title>
<path fill="none" stroke="midnightblue" d="M71.89,-152.6C89.26,-165.12 121.53,-186.97 152,-200 157.69,-202.43 163.78,-204.62 169.91,-206.57"/>
<polygon fill="midnightblue" stroke="midnightblue" points="168.94,-209.94 179.53,-209.44 170.94,-203.23 168.94,-209.94"/>
</g>
<!-- Node3 -->
<g id="node3" class="node">
<title>Node3</title>
<g id="a_node3"><a xlink:href="cmp__icu_8c_a68e2952d3ee5108ed25d85c0fe15cad9.html#a68e2952d3ee5108ed25d85c0fe15cad9" target="_top" xlink:title="compress the multi&#45;entry packet header structure and sets the data, model and up_model pointers to th...">
<polygon fill="white" stroke="black" points="152,-171.5 152,-190.5 298,-190.5 298,-171.5 152,-171.5"/>
<text text-anchor="middle" x="225" y="-178.5" font-family="Helvetica,sans-Serif" font-size="10.00">compress_multi_entry_hdr</text>
</a>
</g>
</g>
<!-- Node1&#45;&gt;Node3 -->
<g id="edge2" class="edge">
<title>Node1&#45;&gt;Node3</title>
<path fill="none" stroke="midnightblue" d="M100.64,-152.59C122.51,-157.63 149.51,-163.84 172.66,-169.18"/>
<polygon fill="midnightblue" stroke="midnightblue" points="172.13,-172.65 182.66,-171.48 173.7,-165.82 172.13,-172.65"/>
</g>
<!-- Node4 -->
<g id="node4" class="node">
<title>Node4</title>
<g id="a_node4"><a xlink:href="cmp__icu_8c_a5434cde7ebe64a734bcd3029e0755d39.html#a5434cde7ebe64a734bcd3029e0755d39" target="_top" xlink:title="configure an encoder setup structure to have a setup to encode a vale">
<polygon fill="white" stroke="black" points="156,-133.5 156,-152.5 294,-152.5 294,-133.5 156,-133.5"/>
<text text-anchor="middle" x="225" y="-140.5" font-family="Helvetica,sans-Serif" font-size="10.00">configure_encoder_setup</text>
</a>
</g>
</g>
<!-- Node1&#45;&gt;Node4 -->
<g id="edge3" class="edge">
<title>Node1&#45;&gt;Node4</title>
<path fill="none" stroke="midnightblue" d="M116.25,-143C125.71,-143 135.66,-143 145.54,-143"/>
<polygon fill="midnightblue" stroke="midnightblue" points="145.78,-146.5 155.78,-143 145.78,-139.5 145.78,-146.5"/>
</g>
<!-- Node19 -->
<g id="node19" class="node">
<title>Node19</title>
<g id="a_node19"><a xlink:href="cmp__icu_8c_a5268c6512d945edcdc898cd1b2ca5396.html#a5268c6512d945edcdc898cd1b2ca5396" target="_top" xlink:title="encodes the data with the model and the given setup and put it into the bitstream">
<polygon fill="white" stroke="black" points="183,-95.5 183,-114.5 267,-114.5 267,-95.5 183,-95.5"/>
<text text-anchor="middle" x="225" y="-102.5" font-family="Helvetica,sans-Serif" font-size="10.00">encode_value</text>
</a>
</g>
</g>
<!-- Node1&#45;&gt;Node19 -->
<g id="edge23" class="edge">
<title>Node1&#45;&gt;Node19</title>
<path fill="none" stroke="midnightblue" d="M100.64,-133.41C122.59,-128.35 149.71,-122.11 172.93,-116.76"/>
<polygon fill="midnightblue" stroke="midnightblue" points="173.99,-120.11 182.95,-114.45 172.42,-113.29 173.99,-120.11"/>
</g>
<!-- Node20 -->
<g id="node20" class="node">
<title>Node20</title>
<g id="a_node20"><a xlink:href="cmp__support_8c_afba7806c424cfb8c7678c1b4cebdfcbb.html#afba7806c424cfb8c7678c1b4cebdfcbb" target="_top" xlink:title="check if a model mode is selected">
<polygon fill="white" stroke="black" points="164,-57.5 164,-76.5 286,-76.5 286,-57.5 164,-57.5"/>
<text text-anchor="middle" x="225" y="-64.5" font-family="Helvetica,sans-Serif" font-size="10.00">model_mode_is_used</text>
</a>
</g>
</g>
<!-- Node1&#45;&gt;Node20 -->
<g id="edge24" class="edge">
<title>Node1&#45;&gt;Node20</title>
<path fill="none" stroke="midnightblue" d="M71.89,-133.4C89.26,-120.88 121.53,-99.03 152,-86 157.69,-83.57 163.78,-81.38 169.91,-79.43"/>
<polygon fill="midnightblue" stroke="midnightblue" points="170.94,-82.77 179.53,-76.56 168.94,-76.06 170.94,-82.77"/>
</g>
<!-- Node5 -->
<g id="node5" class="node">
<title>Node5</title>
<g id="a_node5"><a xlink:href="cmp__icu_8c_a24f7f725d312368abff72e12ba0380c7.html#a24f7f725d312368abff72e12ba0380c7" target="_top" xlink:title="calculate the maximum length of the bitstream/icu_output_buf in bits">
<polygon fill="white" stroke="black" points="334,-294.5 334,-313.5 480,-313.5 480,-294.5 334,-294.5"/>
<text text-anchor="middle" x="407" y="-301.5" font-family="Helvetica,sans-Serif" font-size="10.00">cmp_buffer_length_to_bits</text>
</a>
</g>
</g>
<!-- Node4&#45;&gt;Node5 -->
<g id="edge4" class="edge">
<title>Node4&#45;&gt;Node5</title>
<path fill="none" stroke="midnightblue" d="M284.18,-152.66C289.23,-155.13 293.95,-158.19 298,-162 335.16,-196.96 299.98,-232.98 334,-271 341.44,-279.32 351.4,-285.68 361.53,-290.48"/>
<polygon fill="midnightblue" stroke="midnightblue" points="360.25,-293.74 370.82,-294.47 363.02,-287.31 360.25,-293.74"/>
</g>
<!-- Node9 -->
<g id="node9" class="node">
<title>Node9</title>
<g id="a_node9"><a xlink:href="cmp__icu_8c_aaea9e8cb11d380bb6a6c11020a7c77f9.html#aaea9e8cb11d380bb6a6c11020a7c77f9" target="_top" xlink:title="subtract the model from the data, encode the result and put it into bitstream, for encoding outlier u...">
<polygon fill="white" stroke="black" points="349.5,-152.5 349.5,-171.5 464.5,-171.5 464.5,-152.5 349.5,-152.5"/>
<text text-anchor="middle" x="407" y="-159.5" font-family="Helvetica,sans-Serif" font-size="10.00">encode_value_multi</text>
</a>
</g>
</g>
<!-- Node4&#45;&gt;Node9 -->
<g id="edge8" class="edge">
<title>Node4&#45;&gt;Node9</title>
<path fill="none" stroke="midnightblue" d="M294.05,-150.18C308.85,-151.75 324.5,-153.4 339.25,-154.95"/>
<polygon fill="midnightblue" stroke="midnightblue" points="338.99,-158.45 349.3,-156.01 339.72,-151.48 338.99,-158.45"/>
</g>
<!-- Node13 -->
<g id="node13" class="node">
<title>Node13</title>
<g id="a_node13"><a xlink:href="cmp__icu_8c_aa3eee2af4deb902d63df587a6a15af13.html#aa3eee2af4deb902d63df587a6a15af13" target="_top" xlink:title="put the value unencoded with setup&#45;&gt;cmp_par_1 bits without any changes in the bitstream">
<polygon fill="white" stroke="black" points="521.5,-261.5 521.5,-280.5 634.5,-280.5 634.5,-261.5 521.5,-261.5"/>
<text text-anchor="middle" x="578" y="-268.5" font-family="Helvetica,sans-Serif" font-size="10.00">encode_value_none</text>
</a>
</g>
</g>
<!-- Node4&#45;&gt;Node13 -->
<g id="edge13" class="edge">
<title>Node4&#45;&gt;Node13</title>
<path fill="none" stroke="midnightblue" d="M280.34,-152.54C286.63,-155 292.68,-158.1 298,-162 322.16,-179.72 309.43,-201.86 334,-219 386.16,-255.39 458.83,-267.11 511.09,-270.51"/>
<polygon fill="midnightblue" stroke="midnightblue" points="511.08,-274.02 521.26,-271.08 511.47,-267.03 511.08,-274.02"/>
</g>
<!-- Node14 -->
<g id="node14" class="node">
<title>Node14</title>
<g id="a_node14"><a xlink:href="cmp__icu_8c_a441be2f84e386657cc72dc61b7769ff1.html#a441be2f84e386657cc72dc61b7769ff1" target="_top" xlink:title="subtract the model from the data, encode the result and put it into bitstream, for encoding outlier u...">
<polygon fill="white" stroke="black" points="352,-190.5 352,-209.5 462,-209.5 462,-190.5 352,-190.5"/>
<text text-anchor="middle" x="407" y="-197.5" font-family="Helvetica,sans-Serif" font-size="10.00">encode_value_zero</text>
</a>
</g>
</g>
<!-- Node4&#45;&gt;Node14 -->
<g id="edge15" class="edge">
<title>Node4&#45;&gt;Node14</title>
<path fill="none" stroke="midnightblue" d="M268.77,-152.57C278.52,-155.22 288.73,-158.38 298,-162 314.86,-168.57 317.14,-174.43 334,-181 340.23,-183.43 346.88,-185.65 353.53,-187.66"/>
<polygon fill="midnightblue" stroke="midnightblue" points="352.65,-191.04 363.23,-190.43 354.57,-184.31 352.65,-191.04"/>
</g>
<!-- Node15 -->
<g id="node15" class="node">
<title>Node15</title>
<g id="a_node15"><a xlink:href="cmp__icu_8c_ad1becd97051927d20474767867ce34a7.html#ad1becd97051927d20474767867ce34a7" target="_top" xlink:title="forms a codeword according to the Golomb code">
<polygon fill="white" stroke="black" points="358,-114.5 358,-133.5 456,-133.5 456,-114.5 358,-114.5"/>
<text text-anchor="middle" x="407" y="-121.5" font-family="Helvetica,sans-Serif" font-size="10.00">golomb_encoder</text>
</a>
</g>
</g>
<!-- Node4&#45;&gt;Node15 -->
<g id="edge19" class="edge">
<title>Node4&#45;&gt;Node15</title>
<path fill="none" stroke="midnightblue" d="M294.05,-135.82C311.61,-133.96 330.36,-131.98 347.39,-130.19"/>
<polygon fill="midnightblue" stroke="midnightblue" points="348.17,-133.62 357.75,-129.09 347.44,-126.66 348.17,-133.62"/>
</g>
<!-- Node16 -->
<g id="node16" class="node">
<title>Node16</title>
<g id="a_node16"><a xlink:href="cmp__support_8c_a67b0e38ca0e68c282c89552daa61ffdf.html#a67b0e38ca0e68c282c89552daa61ffdf" target="_top" xlink:title="implementation of the logarithm base of floor(log2(x)) for integers">
<polygon fill="white" stroke="black" points="384,-76.5 384,-95.5 430,-95.5 430,-76.5 384,-76.5"/>
<text text-anchor="middle" x="407" y="-83.5" font-family="Helvetica,sans-Serif" font-size="10.00">ilog_2</text>
</a>
</g>
</g>
<!-- Node4&#45;&gt;Node16 -->
<g id="edge20" class="edge">
<title>Node4&#45;&gt;Node16</title>
<path fill="none" stroke="midnightblue" d="M268.77,-133.43C278.52,-130.78 288.73,-127.62 298,-124 314.86,-117.43 317.14,-111.57 334,-105 346.7,-100.05 361.16,-95.95 373.77,-92.84"/>
<polygon fill="midnightblue" stroke="midnightblue" points="374.92,-96.17 383.85,-90.47 373.31,-89.36 374.92,-96.17"/>
</g>
<!-- Node17 -->
<g id="node17" class="node">
<title>Node17</title>
<g id="a_node17"><a xlink:href="cmp__support_8c_a7831f21f8303058bcac76d42a4aa1c06.html#a7831f21f8303058bcac76d42a4aa1c06" target="_top" xlink:title="determining if an integer is a power of 2">
<polygon fill="white" stroke="black" points="363,-38.5 363,-57.5 451,-57.5 451,-38.5 363,-38.5"/>
<text text-anchor="middle" x="407" y="-45.5" font-family="Helvetica,sans-Serif" font-size="10.00">is_a_pow_of_2</text>
</a>
</g>
</g>
<!-- Node4&#45;&gt;Node17 -->
<g id="edge21" class="edge">
<title>Node4&#45;&gt;Node17</title>
<path fill="none" stroke="midnightblue" d="M280.34,-133.46C286.63,-131 292.68,-127.9 298,-124 322.16,-106.28 309.84,-84.72 334,-67 339.67,-62.84 346.19,-59.59 352.93,-57.05"/>
<polygon fill="midnightblue" stroke="midnightblue" points="354.47,-60.23 362.9,-53.82 352.31,-53.57 354.47,-60.23"/>
</g>
<!-- Node18 -->
<g id="node18" class="node">
<title>Node18</title>
<g id="a_node18"><a xlink:href="cmp__icu_8c_ad3bc9d18c24f7caeef7da35b9e389c19.html#ad3bc9d18c24f7caeef7da35b9e389c19" target="_top" xlink:title="forms the codeword according to the Rice code">
<polygon fill="white" stroke="black" points="367.5,-0.5 367.5,-19.5 446.5,-19.5 446.5,-0.5 367.5,-0.5"/>
<text text-anchor="middle" x="407" y="-7.5" font-family="Helvetica,sans-Serif" font-size="10.00">rice_encoder</text>
</a>
</g>
</g>
<!-- Node4&#45;&gt;Node18 -->
<g id="edge22" class="edge">
<title>Node4&#45;&gt;Node18</title>
<path fill="none" stroke="midnightblue" d="M283.3,-133.49C288.65,-131.01 293.68,-127.89 298,-124 331.55,-93.78 300.45,-59.22 334,-29 340.63,-23.03 348.92,-18.89 357.49,-16.04"/>
<polygon fill="midnightblue" stroke="midnightblue" points="358.52,-19.39 367.21,-13.34 356.64,-12.65 358.52,-19.39"/>
</g>
<!-- Node6 -->
<g id="node6" class="node">
<title>Node6</title>
<g id="a_node6"><a xlink:href="cmp__data__types_8c_aafa65f72ed4d0fb99beb11c37f11ce52.html#aafa65f72ed4d0fb99beb11c37f11ce52" target="_top" xlink:title="calculate the need bytes for the data">
<polygon fill="white" stroke="black" points="516,-299.5 516,-318.5 640,-318.5 640,-299.5 516,-299.5"/>
<text text-anchor="middle" x="578" y="-306.5" font-family="Helvetica,sans-Serif" font-size="10.00">cmp_cal_size_of_data</text>
</a>
</g>
</g>
<!-- Node5&#45;&gt;Node6 -->
<g id="edge5" class="edge">
<title>Node5&#45;&gt;Node6</title>
<path fill="none" stroke="midnightblue" d="M480.16,-306.13C488.64,-306.39 497.3,-306.64 505.77,-306.89"/>
<polygon fill="midnightblue" stroke="midnightblue" points="505.89,-310.4 515.98,-307.19 506.09,-303.4 505.89,-310.4"/>
</g>
<!-- Node7 -->
<g id="node7" class="node">
<title>Node7</title>
<g id="a_node7"><a xlink:href="cmp__support_8c_a9197caa657b3d84615c0d323dc96c502.html#a9197caa657b3d84615c0d323dc96c502" target="_top" xlink:title="check if the data product data type is supported by the RDCU compressor">
<polygon fill="white" stroke="black" points="676,-272 676,-302 795,-302 795,-272 676,-272"/>
<text text-anchor="start" x="684" y="-290" font-family="Helvetica,sans-Serif" font-size="10.00">rdcu_supported_data</text>
<text text-anchor="middle" x="735.5" y="-279" font-family="Helvetica,sans-Serif" font-size="10.00">_type_is_used</text>
</a>
</g>
</g>
<!-- Node6&#45;&gt;Node7 -->
<g id="edge6" class="edge">
<title>Node6&#45;&gt;Node7</title>
<path fill="none" stroke="midnightblue" d="M640.01,-300.37C648.51,-299.17 657.29,-297.92 665.92,-296.7"/>
<polygon fill="midnightblue" stroke="midnightblue" points="666.54,-300.15 675.95,-295.28 665.56,-293.22 666.54,-300.15"/>
</g>
<!-- Node8 -->
<g id="node8" class="node">
<title>Node8</title>
<g id="a_node8"><a xlink:href="cmp__data__types_8c_a0be8705b1dcc45f605abd8400dd5230b.html#a0be8705b1dcc45f605abd8400dd5230b" target="_top" xlink:title="calculate the size of a sample for the different compression data type">
<polygon fill="white" stroke="black" points="683.5,-321.5 683.5,-340.5 787.5,-340.5 787.5,-321.5 683.5,-321.5"/>
<text text-anchor="middle" x="735.5" y="-328.5" font-family="Helvetica,sans-Serif" font-size="10.00">size_of_a_sample</text>
</a>
</g>
</g>
<!-- Node6&#45;&gt;Node8 -->
<g id="edge7" class="edge">
<title>Node6&#45;&gt;Node8</title>
<path fill="none" stroke="midnightblue" d="M640.01,-317.63C650.84,-319.16 662.13,-320.76 672.98,-322.3"/>
<polygon fill="midnightblue" stroke="midnightblue" points="672.82,-325.81 683.21,-323.74 673.8,-318.88 672.82,-325.81"/>
</g>
<!-- Node10 -->
<g id="node10" class="node">
<title>Node10</title>
<g id="a_node10"><a xlink:href="cmp__icu_8c_a71aaf149c528b68d0c0ffc159acc0f98.html#a71aaf149c528b68d0c0ffc159acc0f98" target="_top" xlink:title="generate a code word without an outlier mechanism and put in the bitstream">
<polygon fill="white" stroke="black" points="532,-147.5 532,-166.5 624,-166.5 624,-147.5 532,-147.5"/>
<text text-anchor="middle" x="578" y="-154.5" font-family="Helvetica,sans-Serif" font-size="10.00">encode_normal</text>
</a>
</g>
</g>
<!-- Node9&#45;&gt;Node10 -->
<g id="edge9" class="edge">
<title>Node9&#45;&gt;Node10</title>
<path fill="none" stroke="midnightblue" d="M464.74,-160.32C483.11,-159.78 503.43,-159.18 521.69,-158.64"/>
<polygon fill="midnightblue" stroke="midnightblue" points="521.99,-162.13 531.88,-158.33 521.78,-155.13 521.99,-162.13"/>
</g>
<!-- Node11 -->
<g id="node11" class="node">
<title>Node11</title>
<g id="a_node11"><a xlink:href="cmp__icu_8c_afd32ccddf2e0986e9ff136ae55a11d35.html#afd32ccddf2e0986e9ff136ae55a11d35" target="_top" xlink:title="put the value of up to 32 bits into a big endian bitstream">
<polygon fill="white" stroke="black" points="696,-201.5 696,-220.5 775,-220.5 775,-201.5 696,-201.5"/>
<text text-anchor="middle" x="735.5" y="-208.5" font-family="Helvetica,sans-Serif" font-size="10.00">put_n_bits32</text>
</a>
</g>
</g>
<!-- Node9&#45;&gt;Node11 -->
<g id="edge12" class="edge">
<title>Node9&#45;&gt;Node11</title>
<path fill="none" stroke="midnightblue" d="M442.21,-152.39C463.29,-146.97 490.99,-140.75 516,-138 570.78,-131.99 587.84,-120.2 640,-138 672.33,-149.03 702.19,-176.1 719.37,-194"/>
<polygon fill="midnightblue" stroke="midnightblue" points="716.95,-196.54 726.33,-201.48 722.08,-191.78 716.95,-196.54"/>
</g>
<!-- Node12 -->
<g id="node12" class="node">
<title>Node12</title>
<g id="a_node12"><a xlink:href="cmp__icu_8c_a208c98e6a4b7423d5003ea0d1c3a4fe3.html#a208c98e6a4b7423d5003ea0d1c3a4fe3" target="_top" xlink:title="map a signed value into a positive value range">
<polygon fill="white" stroke="black" points="540,-185.5 540,-204.5 616,-204.5 616,-185.5 540,-185.5"/>
<text text-anchor="middle" x="578" y="-192.5" font-family="Helvetica,sans-Serif" font-size="10.00">map_to_pos</text>
</a>
</g>
</g>
<!-- Node9&#45;&gt;Node12 -->
<g id="edge11" class="edge">
<title>Node9&#45;&gt;Node12</title>
<path fill="none" stroke="midnightblue" d="M456.88,-171.54C479.79,-176.02 506.98,-181.33 529.69,-185.76"/>
<polygon fill="midnightblue" stroke="midnightblue" points="529.29,-189.25 539.77,-187.73 530.63,-182.38 529.29,-189.25"/>
</g>
<!-- Node10&#45;&gt;Node11 -->
<g id="edge10" class="edge">
<title>Node10&#45;&gt;Node11</title>
<path fill="none" stroke="midnightblue" d="M610.76,-166.55C620.21,-169.48 630.55,-172.78 640,-176 660.12,-182.85 682.43,-191.09 700.32,-197.84"/>
<polygon fill="midnightblue" stroke="midnightblue" points="699.17,-201.15 709.76,-201.43 701.65,-194.61 699.17,-201.15"/>
</g>
<!-- Node13&#45;&gt;Node11 -->
<g id="edge14" class="edge">
<title>Node13&#45;&gt;Node11</title>
<path fill="none" stroke="midnightblue" d="M603.64,-261.49C629.72,-251.43 671.08,-235.47 700.31,-224.19"/>
<polygon fill="midnightblue" stroke="midnightblue" points="701.65,-227.43 709.72,-220.56 699.13,-220.9 701.65,-227.43"/>
</g>
<!-- Node14&#45;&gt;Node10 -->
<g id="edge16" class="edge">
<title>Node14&#45;&gt;Node10</title>
<path fill="none" stroke="midnightblue" d="M445.51,-190.46C470.34,-184.14 503.11,-175.8 529.73,-169.03"/>
<polygon fill="midnightblue" stroke="midnightblue" points="530.77,-172.37 539.6,-166.52 529.04,-165.59 530.77,-172.37"/>
</g>
<!-- Node14&#45;&gt;Node11 -->
<g id="edge18" class="edge">
<title>Node14&#45;&gt;Node11</title>
<path fill="none" stroke="midnightblue" d="M462.26,-208.42C479.4,-210.71 498.45,-212.87 516,-214 571,-217.55 584.9,-214.87 640,-214 654.79,-213.77 670.88,-213.32 685.52,-212.85"/>
<polygon fill="midnightblue" stroke="midnightblue" points="686.01,-216.34 695.89,-212.5 685.77,-209.34 686.01,-216.34"/>
</g>
<!-- Node14&#45;&gt;Node12 -->
<g id="edge17" class="edge">
<title>Node14&#45;&gt;Node12</title>
<path fill="none" stroke="midnightblue" d="M462.4,-198.39C484.03,-197.75 508.68,-197.02 529.57,-196.4"/>
<polygon fill="midnightblue" stroke="midnightblue" points="529.91,-199.89 539.8,-196.1 529.7,-192.9 529.91,-199.89"/>
</g>
</g>
</svg>
