<?xml version="1.0" encoding="UTF-8" standalone="no"?>
<!DOCTYPE svg PUBLIC "-//W3C//DTD SVG 1.1//EN"
 "http://www.w3.org/Graphics/SVG/1.1/DTD/svg11.dtd">
<!-- Generated by graphviz version 2.43.0 (0)
 -->
<!-- Title: cmp_ent_set_non_ima_spill1 Pages: 1 -->
<svg width="893pt" height="284pt"
 viewBox="0.00 0.00 893.00 284.00" xmlns="http://www.w3.org/2000/svg" xmlns:xlink="http://www.w3.org/1999/xlink">
<g id="graph0" class="graph" transform="scale(1 1) rotate(0) translate(4 280)">
<title>cmp_ent_set_non_ima_spill1</title>
<polygon fill="white" stroke="transparent" points="-4,4 -4,-280 889,-280 889,4 -4,4"/>
<!-- Node1 -->
<g id="node1" class="node">
<title>Node1</title>
<g id="a_node1"><a xlink:title=" ">
<polygon fill="#bfbfbf" stroke="black" points="759,-52.5 759,-82.5 885,-82.5 885,-52.5 759,-52.5"/>
<text text-anchor="start" x="767" y="-70.5" font-family="Helvetica,sans-Serif" font-size="10.00">cmp_ent_set_non_ima</text>
<text text-anchor="middle" x="822" y="-59.5" font-family="Helvetica,sans-Serif" font-size="10.00">_spill1</text>
</a>
</g>
</g>
<!-- Node2 -->
<g id="node2" class="node">
<title>Node2</title>
<g id="a_node2"><a xlink:href="cmp__entity_8c_a553b4a765f1cfcd37f82a818db2cf2b9.html#a553b4a765f1cfcd37f82a818db2cf2b9" target="_top" xlink:title="write the compression parameters from a compression configuration into the compression entity header">
<polygon fill="white" stroke="black" points="582,-77 582,-96 723,-96 723,-77 582,-77"/>
<text text-anchor="middle" x="652.5" y="-84" font-family="Helvetica,sans-Serif" font-size="10.00">cmp_ent_write_cmp_pars</text>
</a>
</g>
</g>
<!-- Node1&#45;&gt;Node2 -->
<g id="edge1" class="edge">
<title>Node1&#45;&gt;Node2</title>
<path fill="none" stroke="midnightblue" d="M748.51,-75.72C740.12,-76.67 731.59,-77.64 723.25,-78.59"/>
<polygon fill="midnightblue" stroke="midnightblue" points="749.09,-79.18 758.63,-74.57 748.3,-72.22 749.09,-79.18"/>
</g>
<!-- Node14 -->
<g id="node14" class="node">
<title>Node14</title>
<g id="a_node14"><a xlink:href="test__cmp__entity_8c_af7e922d8a0691fe67e402a41faf59934.html#af7e922d8a0691fe67e402a41faf59934" target="_top" xlink:title=" ">
<polygon fill="white" stroke="black" points="585,-39 585,-58 720,-58 720,-39 585,-39"/>
<text text-anchor="middle" x="652.5" y="-46" font-family="Helvetica,sans-Serif" font-size="10.00">test_ent_non_ima_spill1</text>
</a>
</g>
</g>
<!-- Node1&#45;&gt;Node14 -->
<g id="edge13" class="edge">
<title>Node1&#45;&gt;Node14</title>
<path fill="none" stroke="midnightblue" d="M748.5,-59.28C739.08,-58.21 729.46,-57.12 720.13,-56.06"/>
<polygon fill="midnightblue" stroke="midnightblue" points="748.3,-62.78 758.63,-60.43 749.09,-55.82 748.3,-62.78"/>
</g>
<!-- Node3 -->
<g id="node3" class="node">
<title>Node3</title>
<g id="a_node3"><a xlink:href="cmp__entity_8c_ac68e6942c21572a9513a9a7577126458.html#ac68e6942c21572a9513a9a7577126458" target="_top" xlink:title="create a compression entity and set the header fields">
<polygon fill="white" stroke="black" points="430,-156 430,-175 518,-175 518,-156 430,-156"/>
<text text-anchor="middle" x="474" y="-163" font-family="Helvetica,sans-Serif" font-size="10.00">cmp_ent_build</text>
</a>
</g>
</g>
<!-- Node2&#45;&gt;Node3 -->
<g id="edge2" class="edge">
<title>Node2&#45;&gt;Node3</title>
<path fill="none" stroke="midnightblue" d="M620.8,-100.24C585.19,-116.18 527.42,-142.04 496.37,-155.94"/>
<polygon fill="midnightblue" stroke="midnightblue" points="622.51,-103.31 630.21,-96.03 619.65,-96.92 622.51,-103.31"/>
</g>
<!-- Node10 -->
<g id="node10" class="node">
<title>Node10</title>
<g id="a_node10"><a xlink:href="test__decmp_8c_a2d642d4d482b9ec7eca4568a95f5bdd4.html#a2d642d4d482b9ec7eca4568a95f5bdd4" target="_top" xlink:title=" ">
<polygon fill="white" stroke="black" points="402,-99 402,-118 546,-118 546,-99 402,-99"/>
<text text-anchor="middle" x="474" y="-106" font-family="Helvetica,sans-Serif" font-size="10.00">icu_compress_data_entity</text>
</a>
</g>
</g>
<!-- Node2&#45;&gt;Node10 -->
<g id="edge9" class="edge">
<title>Node2&#45;&gt;Node10</title>
<path fill="none" stroke="midnightblue" d="M571.97,-96.41C563.38,-97.48 554.67,-98.57 546.18,-99.63"/>
<polygon fill="midnightblue" stroke="midnightblue" points="572.51,-99.87 582,-95.16 571.64,-92.93 572.51,-99.87"/>
</g>
<!-- Node12 -->
<g id="node12" class="node">
<title>Node12</title>
<g id="a_node12"><a xlink:href="test__decmp_8c_a27e5a2b67e3e81da1be024826485b2e3.html#a27e5a2b67e3e81da1be024826485b2e3" target="_top" xlink:title=" ">
<polygon fill="white" stroke="black" points="417.5,-49.5 417.5,-79.5 530.5,-79.5 530.5,-49.5 417.5,-49.5"/>
<text text-anchor="start" x="425.5" y="-67.5" font-family="Helvetica,sans-Serif" font-size="10.00">test_cmp_ent_write</text>
<text text-anchor="middle" x="474" y="-56.5" font-family="Helvetica,sans-Serif" font-size="10.00">_cmp_pars</text>
</a>
</g>
</g>
<!-- Node2&#45;&gt;Node12 -->
<g id="edge11" class="edge">
<title>Node2&#45;&gt;Node12</title>
<path fill="none" stroke="midnightblue" d="M571.9,-76.58C557.93,-74.84 543.68,-73.06 530.55,-71.42"/>
<polygon fill="midnightblue" stroke="midnightblue" points="571.64,-80.07 582,-77.84 572.51,-73.13 571.64,-80.07"/>
</g>
<!-- Node13 -->
<g id="node13" class="node">
<title>Node13</title>
<g id="a_node13"><a xlink:href="test__cmp__entity_8c_a8f7fd6d8b939382555507ecf2e74ec79.html#a8f7fd6d8b939382555507ecf2e74ec79" target="_top" xlink:title=" ">
<polygon fill="white" stroke="black" points="417.5,-0.5 417.5,-30.5 530.5,-30.5 530.5,-0.5 417.5,-0.5"/>
<text text-anchor="start" x="425.5" y="-18.5" font-family="Helvetica,sans-Serif" font-size="10.00">test_cmp_ent_write</text>
<text text-anchor="middle" x="474" y="-7.5" font-family="Helvetica,sans-Serif" font-size="10.00">_rdcu_cmp_pars</text>
</a>
</g>
</g>
<!-- Node2&#45;&gt;Node13 -->
<g id="edge12" class="edge">
<title>Node2&#45;&gt;Node13</title>
<path fill="none" stroke="midnightblue" d="M596.64,-73.72C591.59,-71.89 586.64,-69.82 582,-67.5 563.87,-58.43 563.85,-49.1 546,-39.5 539.81,-36.17 533.08,-33.18 526.3,-30.53"/>
<polygon fill="midnightblue" stroke="midnightblue" points="595.82,-77.14 606.41,-76.97 598.03,-70.49 595.82,-77.14"/>
</g>
<!-- Node4 -->
<g id="node4" class="node">
<title>Node4</title>
<g id="a_node4"><a xlink:href="test__cmp__decmp_8c_a50ba26014079160ca77b7d7fa76ce0f4.html#a50ba26014079160ca77b7d7fa76ce0f4" target="_top" xlink:title="compress the given configuration and decompress it afterwards; finally compare the results">
<polygon fill="white" stroke="black" points="195,-251 195,-270 353,-270 353,-251 195,-251"/>
<text text-anchor="middle" x="274" y="-258" font-family="Helvetica,sans-Serif" font-size="10.00">compression_decompression</text>
</a>
</g>
</g>
<!-- Node3&#45;&gt;Node4 -->
<g id="edge3" class="edge">
<title>Node3&#45;&gt;Node4</title>
<path fill="none" stroke="midnightblue" d="M454.93,-181.94C434.74,-199.4 400.35,-226.5 366,-241.5 357.13,-245.38 347.41,-248.48 337.74,-250.96"/>
<polygon fill="midnightblue" stroke="midnightblue" points="457.49,-184.35 462.67,-175.11 452.86,-179.1 457.49,-184.35"/>
</g>
<!-- Node6 -->
<g id="node6" class="node">
<title>Node6</title>
<g id="a_node6"><a xlink:href="test__decmp_8c_a6e7a5e150e2c829836db3c42cdec2eec.html#a6e7a5e150e2c829836db3c42cdec2eec" target="_top" xlink:title=" ">
<polygon fill="white" stroke="black" points="182,-213 182,-232 366,-232 366,-213 182,-213"/>
<text text-anchor="middle" x="274" y="-220" font-family="Helvetica,sans-Serif" font-size="10.00">test_cmp_decmp_n_imagette_raw</text>
</a>
</g>
</g>
<!-- Node3&#45;&gt;Node6 -->
<g id="edge5" class="edge">
<title>Node3&#45;&gt;Node6</title>
<path fill="none" stroke="midnightblue" d="M439.68,-178.65C418.75,-186.57 391.07,-196.47 366,-203.5 353.41,-207.03 339.68,-210.23 326.79,-212.95"/>
<polygon fill="midnightblue" stroke="midnightblue" points="440.99,-181.89 449.08,-175.05 438.49,-175.36 440.99,-181.89"/>
</g>
<!-- Node7 -->
<g id="node7" class="node">
<title>Node7</title>
<g id="a_node7"><a xlink:href="test__cmp__entity_8c_a13c81359af8798146608574ab0e113fb.html#a13c81359af8798146608574ab0e113fb" target="_top" xlink:title=" ">
<polygon fill="white" stroke="black" points="218,-175 218,-194 330,-194 330,-175 218,-175"/>
<text text-anchor="middle" x="274" y="-182" font-family="Helvetica,sans-Serif" font-size="10.00">test_cmp_ent_build</text>
</a>
</g>
</g>
<!-- Node3&#45;&gt;Node7 -->
<g id="edge6" class="edge">
<title>Node3&#45;&gt;Node7</title>
<path fill="none" stroke="midnightblue" d="M419.26,-170.66C391.59,-173.31 357.91,-176.54 330.05,-179.22"/>
<polygon fill="midnightblue" stroke="midnightblue" points="419.93,-174.11 429.55,-169.67 419.26,-167.14 419.93,-174.11"/>
</g>
<!-- Node8 -->
<g id="node8" class="node">
<title>Node8</title>
<g id="a_node8"><a xlink:href="test__cmp__entity_8c_a893444224bcd50fbb99e42e85989b4a6.html#a893444224bcd50fbb99e42e85989b4a6" target="_top" xlink:title=" ">
<polygon fill="white" stroke="black" points="216.5,-137 216.5,-156 331.5,-156 331.5,-137 216.5,-137"/>
<text text-anchor="middle" x="274" y="-144" font-family="Helvetica,sans-Serif" font-size="10.00">test_cmp_ent_parse</text>
</a>
</g>
</g>
<!-- Node3&#45;&gt;Node8 -->
<g id="edge7" class="edge">
<title>Node3&#45;&gt;Node8</title>
<path fill="none" stroke="midnightblue" d="M419.43,-160.36C392.21,-157.75 359.14,-154.57 331.52,-151.92"/>
<polygon fill="midnightblue" stroke="midnightblue" points="419.26,-163.86 429.55,-161.33 419.93,-156.89 419.26,-163.86"/>
</g>
<!-- Node9 -->
<g id="node9" class="node">
<title>Node9</title>
<g id="a_node9"><a xlink:href="test__cmp__entity_8c_a28c5d64d3c7c61100798fa39100d0f30.html#a28c5d64d3c7c61100798fa39100d0f30" target="_top" xlink:title=" ">
<polygon fill="white" stroke="black" points="219,-99 219,-118 329,-118 329,-99 219,-99"/>
<text text-anchor="middle" x="274" y="-106" font-family="Helvetica,sans-Serif" font-size="10.00">test_cmp_ent_print</text>
</a>
</g>
</g>
<!-- Node3&#45;&gt;Node9 -->
<g id="edge8" class="edge">
<title>Node3&#45;&gt;Node9</title>
<path fill="none" stroke="midnightblue" d="M439.68,-152.35C418.75,-144.43 391.07,-134.53 366,-127.5 353.41,-123.97 339.68,-120.77 326.79,-118.05"/>
<polygon fill="midnightblue" stroke="midnightblue" points="438.49,-155.64 449.08,-155.95 440.99,-149.11 438.49,-155.64"/>
</g>
<!-- Node5 -->
<g id="node5" class="node">
<title>Node5</title>
<g id="a_node5"><a xlink:href="test__cmp__decmp_8c_af3c162694b40683e0aa25c61a49cdafc.html#af3c162694b40683e0aa25c61a49cdafc" target="_top" xlink:title="random compression decompression test">
<polygon fill="white" stroke="black" points="0,-245.5 0,-275.5 146,-275.5 146,-245.5 0,-245.5"/>
<text text-anchor="start" x="8" y="-263.5" font-family="Helvetica,sans-Serif" font-size="10.00">test_random_compression</text>
<text text-anchor="middle" x="73" y="-252.5" font-family="Helvetica,sans-Serif" font-size="10.00">_decompression</text>
</a>
</g>
</g>
<!-- Node4&#45;&gt;Node5 -->
<g id="edge4" class="edge">
<title>Node4&#45;&gt;Node5</title>
<path fill="none" stroke="midnightblue" d="M184.63,-260.5C171.72,-260.5 158.55,-260.5 146.01,-260.5"/>
<polygon fill="midnightblue" stroke="midnightblue" points="184.92,-264 194.92,-260.5 184.92,-257 184.92,-264"/>
</g>
<!-- Node11 -->
<g id="node11" class="node">
<title>Node11</title>
<g id="a_node11"><a xlink:href="test__decmp_8c_a1a33e2fcbf484c79dfe661b280386f6b.html#a1a33e2fcbf484c79dfe661b280386f6b" target="_top" xlink:title=" ">
<polygon fill="white" stroke="black" points="201,-61 201,-80 347,-80 347,-61 201,-61"/>
<text text-anchor="middle" x="274" y="-68" font-family="Helvetica,sans-Serif" font-size="10.00">test_cmp_decmp_s_fx_diff</text>
</a>
</g>
</g>
<!-- Node10&#45;&gt;Node11 -->
<g id="edge10" class="edge">
<title>Node10&#45;&gt;Node11</title>
<path fill="none" stroke="midnightblue" d="M413.13,-97.01C384.88,-91.59 351.56,-85.19 324.73,-80.04"/>
<polygon fill="midnightblue" stroke="midnightblue" points="412.81,-100.51 423.29,-98.96 414.13,-93.64 412.81,-100.51"/>
</g>
</g>
</svg>
