<?xml version="1.0" encoding="UTF-8" standalone="no"?>
<!DOCTYPE svg PUBLIC "-//W3C//DTD SVG 1.1//EN"
 "http://www.w3.org/Graphics/SVG/1.1/DTD/svg11.dtd">
<!-- Generated by graphviz version 2.43.0 (0)
 -->
<!-- Title: rdcu_cmp_cfg_is_invalid Pages: 1 -->
<svg width="812pt" height="413pt"
 viewBox="0.00 0.00 812.00 413.00" xmlns="http://www.w3.org/2000/svg" xmlns:xlink="http://www.w3.org/1999/xlink">
<g id="graph0" class="graph" transform="scale(1 1) rotate(0) translate(4 409)">
<title>rdcu_cmp_cfg_is_invalid</title>
<polygon fill="white" stroke="transparent" points="-4,4 -4,-409 808,-409 808,4 -4,4"/>
<!-- Node1 -->
<g id="node1" class="node">
<title>Node1</title>
<g id="a_node1"><a xlink:title="check if the compressor configuration is invalid for an RDCU compression, see the user manual for mor...">
<polygon fill="#bfbfbf" stroke="black" points="0,-116.5 0,-135.5 136,-135.5 136,-116.5 0,-116.5"/>
<text text-anchor="middle" x="68" y="-123.5" font-family="Helvetica,sans-Serif" font-size="10.00">rdcu_cmp_cfg_is_invalid</text>
</a>
</g>
</g>
<!-- Node2 -->
<g id="node2" class="node">
<title>Node2</title>
<g id="a_node2"><a xlink:href="cmp__support_8c_ab626f2778774ee7f0e79f4d50e79917c.html#ab626f2778774ee7f0e79f4d50e79917c" target="_top" xlink:title="check if the compression data type, compression mode, model value and the lossy rounding parameters a...">
<polygon fill="white" stroke="black" points="174.5,-137 174.5,-167 290.5,-167 290.5,-137 174.5,-137"/>
<text text-anchor="start" x="182.5" y="-155" font-family="Helvetica,sans-Serif" font-size="10.00">cmp_cfg_gen_par_is</text>
<text text-anchor="middle" x="232.5" y="-144" font-family="Helvetica,sans-Serif" font-size="10.00">_invalid</text>
</a>
</g>
</g>
<!-- Node1&#45;&gt;Node2 -->
<g id="edge1" class="edge">
<title>Node1&#45;&gt;Node2</title>
<path fill="none" stroke="midnightblue" d="M128.59,-135.53C140.15,-137.38 152.34,-139.33 164.13,-141.22"/>
<polygon fill="midnightblue" stroke="midnightblue" points="163.93,-144.73 174.36,-142.86 165.04,-137.82 163.93,-144.73"/>
</g>
<!-- Node7 -->
<g id="node7" class="node">
<title>Node7</title>
<g id="a_node7"><a xlink:href="cmp__support_8c_afba7806c424cfb8c7678c1b4cebdfcbb.html#afba7806c424cfb8c7678c1b4cebdfcbb" target="_top" xlink:title="check if a model mode is selected">
<polygon fill="white" stroke="black" points="339.5,-76.5 339.5,-95.5 461.5,-95.5 461.5,-76.5 339.5,-76.5"/>
<text text-anchor="middle" x="400.5" y="-83.5" font-family="Helvetica,sans-Serif" font-size="10.00">model_mode_is_used</text>
</a>
</g>
</g>
<!-- Node1&#45;&gt;Node7 -->
<g id="edge16" class="edge">
<title>Node1&#45;&gt;Node7</title>
<path fill="none" stroke="midnightblue" d="M136.28,-117.86C192.45,-111.06 272.27,-101.4 329.25,-94.5"/>
<polygon fill="midnightblue" stroke="midnightblue" points="329.75,-97.97 339.26,-93.29 328.91,-91.02 329.75,-97.97"/>
</g>
<!-- Node9 -->
<g id="node9" class="node">
<title>Node9</title>
<g id="a_node9"><a xlink:href="cmp__support_8c_a6f2fb8760a0168031bcd7bc9cda97d1e.html#a6f2fb8760a0168031bcd7bc9cda97d1e" target="_top" xlink:title="check if the imagette specific compression parameters are invalid">
<polygon fill="white" stroke="black" points="172,-295 172,-325 293,-325 293,-295 172,-295"/>
<text text-anchor="start" x="180" y="-313" font-family="Helvetica,sans-Serif" font-size="10.00">cmp_cfg_imagette_is</text>
<text text-anchor="middle" x="232.5" y="-302" font-family="Helvetica,sans-Serif" font-size="10.00">_invalid</text>
</a>
</g>
</g>
<!-- Node1&#45;&gt;Node9 -->
<g id="edge8" class="edge">
<title>Node1&#45;&gt;Node9</title>
<path fill="none" stroke="midnightblue" d="M77.51,-135.63C102.43,-163.85 175.73,-246.85 211.46,-287.31"/>
<polygon fill="midnightblue" stroke="midnightblue" points="208.84,-289.63 218.08,-294.8 214.08,-284.99 208.84,-289.63"/>
</g>
<!-- Node15 -->
<g id="node15" class="node">
<title>Node15</title>
<g id="a_node15"><a xlink:href="cmp__rdcu__cfg_8c_ac1e86a9fa0666daed0aa76b5853a80c5.html#ac1e86a9fa0666daed0aa76b5853a80c5" target="_top" xlink:title="check if RDCU buffer settings are invalid">
<polygon fill="white" stroke="black" points="177.5,-37 177.5,-67 287.5,-67 287.5,-37 177.5,-37"/>
<text text-anchor="start" x="185.5" y="-55" font-family="Helvetica,sans-Serif" font-size="10.00">rdcu_cfg_buffers_is</text>
<text text-anchor="middle" x="232.5" y="-44" font-family="Helvetica,sans-Serif" font-size="10.00">_invalid</text>
</a>
</g>
</g>
<!-- Node1&#45;&gt;Node15 -->
<g id="edge17" class="edge">
<title>Node1&#45;&gt;Node15</title>
<path fill="none" stroke="midnightblue" d="M89.91,-116.48C114.88,-105.11 157.26,-85.81 189.16,-71.28"/>
<polygon fill="midnightblue" stroke="midnightblue" points="190.62,-74.46 198.27,-67.13 187.72,-68.09 190.62,-74.46"/>
</g>
<!-- Node3 -->
<g id="node3" class="node">
<title>Node3</title>
<g id="a_node3"><a xlink:href="cmp__support_8c_af2129b98a4b5c7f856e97776962d7881.html#af2129b98a4b5c7f856e97776962d7881" target="_top" xlink:title="check if the compression entity data product type is supported">
<polygon fill="white" stroke="black" points="329,-114.5 329,-133.5 472,-133.5 472,-114.5 329,-114.5"/>
<text text-anchor="middle" x="400.5" y="-121.5" font-family="Helvetica,sans-Serif" font-size="10.00">cmp_data_type_is_invalid</text>
</a>
</g>
</g>
<!-- Node2&#45;&gt;Node3 -->
<g id="edge2" class="edge">
<title>Node2&#45;&gt;Node3</title>
<path fill="none" stroke="midnightblue" d="M290.63,-142.36C304.29,-140.06 318.99,-137.58 333.03,-135.21"/>
<polygon fill="midnightblue" stroke="midnightblue" points="333.83,-138.63 343.11,-133.51 332.67,-131.72 333.83,-138.63"/>
</g>
<!-- Node4 -->
<g id="node4" class="node">
<title>Node4</title>
<g id="a_node4"><a xlink:href="cmp__support_8c_a01181fec3ef69e316b4d77de4df9865f.html#a01181fec3ef69e316b4d77de4df9865f" target="_top" xlink:title="check if an imagette compression data type is used">
<polygon fill="white" stroke="black" points="508,-273 508,-303 649,-303 649,-273 508,-273"/>
<text text-anchor="start" x="516" y="-291" font-family="Helvetica,sans-Serif" font-size="10.00">cmp_imagette_data_type</text>
<text text-anchor="middle" x="578.5" y="-280" font-family="Helvetica,sans-Serif" font-size="10.00">_is_used</text>
</a>
</g>
</g>
<!-- Node2&#45;&gt;Node4 -->
<g id="edge3" class="edge">
<title>Node2&#45;&gt;Node4</title>
<path fill="none" stroke="midnightblue" d="M265.31,-167.04C283.67,-175.37 307.34,-185.52 329,-193 391.16,-214.47 410.87,-206.76 472,-231 497.34,-241.05 524.36,-255.73 544.71,-267.68"/>
<polygon fill="midnightblue" stroke="midnightblue" points="543.18,-270.84 553.56,-272.95 546.76,-264.82 543.18,-270.84"/>
</g>
<!-- Node6 -->
<g id="node6" class="node">
<title>Node6</title>
<g id="a_node6"><a xlink:href="cmp__support_8c_ad4e56eab7fecee45319e02049a9a4c6d.html#ad4e56eab7fecee45319e02049a9a4c6d" target="_top" xlink:title="check if the compression mode is supported for an ICU compression">
<polygon fill="white" stroke="black" points="331.5,-240.5 331.5,-259.5 469.5,-259.5 469.5,-240.5 331.5,-240.5"/>
<text text-anchor="middle" x="400.5" y="-247.5" font-family="Helvetica,sans-Serif" font-size="10.00">cmp_mode_is_supported</text>
</a>
</g>
</g>
<!-- Node2&#45;&gt;Node6 -->
<g id="edge5" class="edge">
<title>Node2&#45;&gt;Node6</title>
<path fill="none" stroke="midnightblue" d="M249.57,-167.19C267.66,-183.6 298.52,-209.6 329,-226 336.94,-230.27 345.79,-234 354.46,-237.16"/>
<polygon fill="midnightblue" stroke="midnightblue" points="353.52,-240.54 364.12,-240.49 355.8,-233.92 353.52,-240.54"/>
</g>
<!-- Node2&#45;&gt;Node7 -->
<g id="edge6" class="edge">
<title>Node2&#45;&gt;Node7</title>
<path fill="none" stroke="midnightblue" d="M260.46,-136.98C279.25,-126.95 305.14,-113.99 329,-105 335.38,-102.6 342.18,-100.37 348.96,-98.34"/>
<polygon fill="midnightblue" stroke="midnightblue" points="350.16,-101.64 358.81,-95.52 348.23,-94.91 350.16,-101.64"/>
</g>
<!-- Node8 -->
<g id="node8" class="node">
<title>Node8</title>
<g id="a_node8"><a xlink:href="cmp__support_8c_a3cc1e5c26a34a931e37f7d9ddba2ebd3.html#a3cc1e5c26a34a931e37f7d9ddba2ebd3" target="_top" xlink:title="check if the compression mode is supported by the RDCU compressor">
<polygon fill="white" stroke="black" points="341.5,-153 341.5,-183 459.5,-183 459.5,-153 341.5,-153"/>
<text text-anchor="start" x="349.5" y="-171" font-family="Helvetica,sans-Serif" font-size="10.00">rdcu_supported_cmp</text>
<text text-anchor="middle" x="400.5" y="-160" font-family="Helvetica,sans-Serif" font-size="10.00">_mode_is_used</text>
</a>
</g>
</g>
<!-- Node2&#45;&gt;Node8 -->
<g id="edge7" class="edge">
<title>Node2&#45;&gt;Node8</title>
<path fill="none" stroke="midnightblue" d="M290.63,-157.51C303.71,-158.77 317.74,-160.12 331.23,-161.42"/>
<polygon fill="midnightblue" stroke="midnightblue" points="331.13,-164.93 341.42,-162.4 331.8,-157.96 331.13,-164.93"/>
</g>
<!-- Node5 -->
<g id="node5" class="node">
<title>Node5</title>
<g id="a_node5"><a xlink:href="cmp__support_8c_a9197caa657b3d84615c0d323dc96c502.html#a9197caa657b3d84615c0d323dc96c502" target="_top" xlink:title="check if the data product data type is supported by the RDCU compressor">
<polygon fill="white" stroke="black" points="685,-273 685,-303 804,-303 804,-273 685,-273"/>
<text text-anchor="start" x="693" y="-291" font-family="Helvetica,sans-Serif" font-size="10.00">rdcu_supported_data</text>
<text text-anchor="middle" x="744.5" y="-280" font-family="Helvetica,sans-Serif" font-size="10.00">_type_is_used</text>
</a>
</g>
</g>
<!-- Node4&#45;&gt;Node5 -->
<g id="edge4" class="edge">
<title>Node4&#45;&gt;Node5</title>
<path fill="none" stroke="midnightblue" d="M649.05,-288C657.55,-288 666.24,-288 674.73,-288"/>
<polygon fill="midnightblue" stroke="midnightblue" points="674.97,-291.5 684.97,-288 674.97,-284.5 674.97,-291.5"/>
</g>
<!-- Node9&#45;&gt;Node4 -->
<g id="edge10" class="edge">
<title>Node9&#45;&gt;Node4</title>
<path fill="none" stroke="midnightblue" d="M293.03,-306.19C349.59,-302.58 435.04,-297.11 497.53,-293.11"/>
<polygon fill="midnightblue" stroke="midnightblue" points="497.99,-296.59 507.74,-292.46 497.54,-289.61 497.99,-296.59"/>
</g>
<!-- Node10 -->
<g id="node10" class="node">
<title>Node10</title>
<g id="a_node10"><a xlink:href="cmp__support_8c_a1eff9dab3c3ab66953c329fa1bf38bb5.html#a1eff9dab3c3ab66953c329fa1bf38bb5" target="_top" xlink:title="check if an adaptive imagette compression data type is used">
<polygon fill="white" stroke="black" points="335,-317 335,-347 466,-347 466,-317 335,-317"/>
<text text-anchor="start" x="343" y="-335" font-family="Helvetica,sans-Serif" font-size="10.00">cmp_ap_imagette_data</text>
<text text-anchor="middle" x="400.5" y="-324" font-family="Helvetica,sans-Serif" font-size="10.00">_type_is_used</text>
</a>
</g>
</g>
<!-- Node9&#45;&gt;Node10 -->
<g id="edge9" class="edge">
<title>Node9&#45;&gt;Node10</title>
<path fill="none" stroke="midnightblue" d="M293.43,-317.94C303.63,-319.29 314.34,-320.71 324.87,-322.11"/>
<polygon fill="midnightblue" stroke="midnightblue" points="324.52,-325.59 334.89,-323.44 325.44,-318.65 324.52,-325.59"/>
</g>
<!-- Node11 -->
<g id="node11" class="node">
<title>Node11</title>
<g id="a_node11"><a xlink:href="cmp__support_8c_adbae174c7bd594fd05723ddc667f5b54.html#adbae174c7bd594fd05723ddc667f5b54" target="_top" xlink:title="check if the combination of the different compression parameters is invalid">
<polygon fill="white" stroke="black" points="339,-366.5 339,-385.5 462,-385.5 462,-366.5 339,-366.5"/>
<text text-anchor="middle" x="400.5" y="-373.5" font-family="Helvetica,sans-Serif" font-size="10.00">cmp_pars_are_invalid</text>
</a>
</g>
</g>
<!-- Node9&#45;&gt;Node11 -->
<g id="edge11" class="edge">
<title>Node9&#45;&gt;Node11</title>
<path fill="none" stroke="midnightblue" d="M260.46,-325.02C279.25,-335.05 305.14,-348.01 329,-357 335.38,-359.4 342.18,-361.63 348.96,-363.66"/>
<polygon fill="midnightblue" stroke="midnightblue" points="348.23,-367.09 358.81,-366.48 350.16,-360.36 348.23,-367.09"/>
</g>
<!-- Node11&#45;&gt;Node4 -->
<g id="edge15" class="edge">
<title>Node11&#45;&gt;Node4</title>
<path fill="none" stroke="midnightblue" d="M445.5,-366.45C454.45,-363.87 463.67,-360.73 472,-357 500.31,-344.32 529.62,-324.52 550.13,-309.38"/>
<polygon fill="midnightblue" stroke="midnightblue" points="552.46,-312.01 558.36,-303.21 548.26,-306.41 552.46,-312.01"/>
</g>
<!-- Node12 -->
<g id="node12" class="node">
<title>Node12</title>
<g id="a_node12"><a xlink:href="cmp__support_8c_aefdc949ff52e4920859d0bd82f5aa5aa.html#aefdc949ff52e4920859d0bd82f5aa5aa" target="_top" xlink:title="get the maximum valid spill threshold value for a non&#45;imagette compression in diff or model mode">
<polygon fill="white" stroke="black" points="523.5,-347.5 523.5,-366.5 633.5,-366.5 633.5,-347.5 523.5,-347.5"/>
<text text-anchor="middle" x="578.5" y="-354.5" font-family="Helvetica,sans-Serif" font-size="10.00">cmp_icu_max_spill</text>
</a>
</g>
</g>
<!-- Node11&#45;&gt;Node12 -->
<g id="edge12" class="edge">
<title>Node11&#45;&gt;Node12</title>
<path fill="none" stroke="midnightblue" d="M462.07,-369.46C478.54,-367.68 496.43,-365.75 513.1,-363.95"/>
<polygon fill="midnightblue" stroke="midnightblue" points="513.74,-367.4 523.3,-362.85 512.99,-360.44 513.74,-367.4"/>
</g>
<!-- Node14 -->
<g id="node14" class="node">
<title>Node14</title>
<g id="a_node14"><a xlink:href="cmp__support_8c_a743a6fcf9ff9d9c86e5dcd2521694472.html#a743a6fcf9ff9d9c86e5dcd2521694472" target="_top" xlink:title="get the maximum valid spill threshold value for a imagette compression in diff or model mode">
<polygon fill="white" stroke="black" points="521.5,-385.5 521.5,-404.5 635.5,-404.5 635.5,-385.5 521.5,-385.5"/>
<text text-anchor="middle" x="578.5" y="-392.5" font-family="Helvetica,sans-Serif" font-size="10.00">cmp_ima_max_spill</text>
</a>
</g>
</g>
<!-- Node11&#45;&gt;Node14 -->
<g id="edge14" class="edge">
<title>Node11&#45;&gt;Node14</title>
<path fill="none" stroke="midnightblue" d="M462.07,-382.54C477.81,-384.24 494.86,-386.08 510.89,-387.81"/>
<polygon fill="midnightblue" stroke="midnightblue" points="510.94,-391.33 521.26,-388.93 511.69,-384.38 510.94,-391.33"/>
</g>
<!-- Node13 -->
<g id="node13" class="node">
<title>Node13</title>
<g id="a_node13"><a xlink:href="cmp__support_8c_a67b0e38ca0e68c282c89552daa61ffdf.html#a67b0e38ca0e68c282c89552daa61ffdf" target="_top" xlink:title="implementation of the logarithm base of floor(log2(x)) for integers">
<polygon fill="white" stroke="black" points="721.5,-347.5 721.5,-366.5 767.5,-366.5 767.5,-347.5 721.5,-347.5"/>
<text text-anchor="middle" x="744.5" y="-354.5" font-family="Helvetica,sans-Serif" font-size="10.00">ilog_2</text>
</a>
</g>
</g>
<!-- Node12&#45;&gt;Node13 -->
<g id="edge13" class="edge">
<title>Node12&#45;&gt;Node13</title>
<path fill="none" stroke="midnightblue" d="M633.65,-357C659.31,-357 689.1,-357 711.17,-357"/>
<polygon fill="midnightblue" stroke="midnightblue" points="711.34,-360.5 721.34,-357 711.34,-353.5 711.34,-360.5"/>
</g>
<!-- Node15&#45;&gt;Node7 -->
<g id="edge19" class="edge">
<title>Node15&#45;&gt;Node7</title>
<path fill="none" stroke="midnightblue" d="M287.85,-63.13C305.48,-66.74 325.07,-70.76 342.86,-74.4"/>
<polygon fill="midnightblue" stroke="midnightblue" points="342.6,-77.92 353.1,-76.5 344,-71.06 342.6,-77.92"/>
</g>
<!-- Node16 -->
<g id="node16" class="node">
<title>Node16</title>
<g id="a_node16"><a xlink:href="cmp__rdcu__cfg_8c_a44623195b1df75bdf1134277861f2e3b.html#a44623195b1df75bdf1134277861f2e3b" target="_top" xlink:title="check if two buffers are overlapping">
<polygon fill="white" stroke="black" points="354.5,-38.5 354.5,-57.5 446.5,-57.5 446.5,-38.5 354.5,-38.5"/>
<text text-anchor="middle" x="400.5" y="-45.5" font-family="Helvetica,sans-Serif" font-size="10.00">buffers_overlap</text>
</a>
</g>
</g>
<!-- Node15&#45;&gt;Node16 -->
<g id="edge18" class="edge">
<title>Node15&#45;&gt;Node16</title>
<path fill="none" stroke="midnightblue" d="M287.85,-50.69C305.96,-50.25 326.14,-49.77 344.31,-49.33"/>
<polygon fill="midnightblue" stroke="midnightblue" points="344.54,-52.83 354.45,-49.09 344.37,-45.83 344.54,-52.83"/>
</g>
<!-- Node17 -->
<g id="node17" class="node">
<title>Node17</title>
<g id="a_node17"><a xlink:href="cmp__rdcu__cfg_8c_aaa2275f0756d097ec8b94139ab116be4.html#aaa2275f0756d097ec8b94139ab116be4" target="_top" xlink:title="check if a buffer is in outside the RDCU SRAM">
<polygon fill="white" stroke="black" points="342.5,-0.5 342.5,-19.5 458.5,-19.5 458.5,-0.5 342.5,-0.5"/>
<text text-anchor="middle" x="400.5" y="-7.5" font-family="Helvetica,sans-Serif" font-size="10.00">outside_sram_range</text>
</a>
</g>
</g>
<!-- Node15&#45;&gt;Node17 -->
<g id="edge20" class="edge">
<title>Node15&#45;&gt;Node17</title>
<path fill="none" stroke="midnightblue" d="M287.85,-38.25C308.56,-33.01 331.98,-27.08 352,-22.02"/>
<polygon fill="midnightblue" stroke="midnightblue" points="353,-25.38 361.83,-19.53 351.28,-18.59 353,-25.38"/>
</g>
</g>
</svg>
