<?xml version="1.0" encoding="UTF-8" standalone="no"?>
<!DOCTYPE svg PUBLIC "-//W3C//DTD SVG 1.1//EN"
 "http://www.w3.org/Graphics/SVG/1.1/DTD/svg11.dtd">
<!-- Generated by graphviz version 2.43.0 (0)
 -->
<!-- Title: cmp_ent_parse_generic_header Pages: 1 -->
<!--zoomable 607 -->
<svg id="main" version="1.1" xmlns="http://www.w3.org/2000/svg" xmlns:xlink="http://www.w3.org/1999/xlink" xml:space="preserve" onload="init(evt)">
<style type="text/css"><![CDATA[
.edge:hover path { stroke: red; }
.edge:hover polygon { stroke: red; fill: red; }
]]></style>
<script type="text/javascript"><![CDATA[
var edges = document.getElementsByTagName('g');
if (edges && edges.length) {
  for (var i=0;i<edges.length;i++) {
    if (edges[i].id.substr(0,4)=='edge') {
      edges[i].setAttribute('class','edge');
    }
  }
}
]]></script>
        <defs>
                <circle id="rim" cx="0" cy="0" r="7"/>
                <circle id="rim2" cx="0" cy="0" r="3.5"/>
                <g id="zoomPlus">
                        <use xlink:href="#rim" fill="#404040">
                                <set attributeName="fill" to="#808080" begin="zoomplus.mouseover" end="zoomplus.mouseout"/>
                        </use>
                        <path d="M-4,0h8M0,-4v8" fill="none" stroke="white" stroke-width="1.5" pointer-events="none"/>
                </g>
                <g id="zoomMin">
                        <use xlink:href="#rim" fill="#404040">
                                <set attributeName="fill" to="#808080" begin="zoomminus.mouseover" end="zoomminus.mouseout"/>
                        </use>
                        <path d="M-4,0h8" fill="none" stroke="white" stroke-width="1.5" pointer-events="none"/>
                </g>
                <g id="dirArrow">
                        <path fill="none" stroke="white" stroke-width="1.5" d="M0,-3.0v7 M-2.5,-0.5L0,-3.0L2.5,-0.5"/>
                </g>
               <g id="resetDef">
                       <use xlink:href="#rim2" fill="#404040">
                               <set attributeName="fill" to="#808080" begin="reset.mouseover" end="reset.mouseout"/>
                       </use>
               </g>
        </defs>

<script type="text/javascript">
var viewWidth = 334;
var viewHeight = 607;
var sectionId = 'dynsection-0';
</script>
<script xlink:href="svgpan.js"/>
<svg id="graph" class="graph">
<g id="viewport">
<title>cmp_ent_parse_generic_header</title>
<polygon fill="white" stroke="transparent" points="-4,4 -4,-603 330,-603 330,4 -4,4"/>
<!-- Node1 -->
<g id="node1" class="node">
<title>Node1</title>
<g id="a_node1"><a xlink:title="parses the generic compressed entity header">
<polygon fill="#bfbfbf" stroke="black" points="0,-273 0,-303 132,-303 132,-273 0,-273"/>
<text text-anchor="start" x="8" y="-291" font-family="Helvetica,sans-Serif" font-size="10.00">cmp_ent_parse_generic</text>
<text text-anchor="middle" x="66" y="-280" font-family="Helvetica,sans-Serif" font-size="10.00">_header</text>
</a>
</g>
</g>
<!-- Node2 -->
<g id="node2" class="node">
<title>Node2</title>
<g id="a_node2"><a xlink:href="cmp__entity_8c_aaf02d50957a9ff04726f0f98035c0572.html#aaf02d50957a9ff04726f0f98035c0572" target="_top" xlink:title="get the used compression mode parameter from the compression entity header">
<polygon fill="white" stroke="black" points="177.5,-579.5 177.5,-598.5 316.5,-598.5 316.5,-579.5 177.5,-579.5"/>
<text text-anchor="middle" x="247" y="-586.5" font-family="Helvetica,sans-Serif" font-size="10.00">cmp_ent_get_cmp_mode</text>
</a>
</g>
</g>
<!-- Node1&#45;&gt;Node2 -->
<g id="edge1" class="edge">
<title>Node1&#45;&gt;Node2</title>
<path fill="none" stroke="midnightblue" d="M67.64,-303.26C70.5,-350.57 85.87,-496.07 168,-570 169.73,-571.55 171.56,-572.98 173.47,-574.3"/>
<polygon fill="midnightblue" stroke="midnightblue" points="171.93,-577.46 182.35,-579.4 175.42,-571.38 171.93,-577.46"/>
</g>
<!-- Node3 -->
<g id="node3" class="node">
<title>Node3</title>
<g id="a_node3"><a xlink:href="cmp__entity_8c_abbfa699c2382206b8340fd4e0758e15b.html#abbfa699c2382206b8340fd4e0758e15b" target="_top" xlink:title="get the coarse time from the compression end timestamp in the compression entity header">
<polygon fill="white" stroke="black" points="188.5,-530 188.5,-560 305.5,-560 305.5,-530 188.5,-530"/>
<text text-anchor="start" x="196.5" y="-548" font-family="Helvetica,sans-Serif" font-size="10.00">cmp_ent_get_coarse</text>
<text text-anchor="middle" x="247" y="-537" font-family="Helvetica,sans-Serif" font-size="10.00">_end_time</text>
</a>
</g>
</g>
<!-- Node1&#45;&gt;Node3 -->
<g id="edge2" class="edge">
<title>Node1&#45;&gt;Node3</title>
<path fill="none" stroke="midnightblue" d="M69.11,-303.05C75.7,-344.25 99.67,-459.84 168,-521 171.42,-524.06 175.22,-526.73 179.25,-529.06"/>
<polygon fill="midnightblue" stroke="midnightblue" points="177.88,-532.29 188.39,-533.63 181.01,-526.03 177.88,-532.29"/>
</g>
<!-- Node4 -->
<g id="node4" class="node">
<title>Node4</title>
<g id="a_node4"><a xlink:href="cmp__entity_8c_aa6faf3787c8963e7fcb3e25114a61a89.html#aa6faf3787c8963e7fcb3e25114a61a89" target="_top" xlink:title="get the coarse time from the compression start timestamp in the compression entity header">
<polygon fill="white" stroke="black" points="188.5,-481 188.5,-511 305.5,-511 305.5,-481 188.5,-481"/>
<text text-anchor="start" x="196.5" y="-499" font-family="Helvetica,sans-Serif" font-size="10.00">cmp_ent_get_coarse</text>
<text text-anchor="middle" x="247" y="-488" font-family="Helvetica,sans-Serif" font-size="10.00">_start_time</text>
</a>
</g>
</g>
<!-- Node1&#45;&gt;Node4 -->
<g id="edge3" class="edge">
<title>Node1&#45;&gt;Node4</title>
<path fill="none" stroke="midnightblue" d="M71.11,-303.03C81.38,-337.85 111.53,-424.55 168,-471 171.49,-473.87 175.32,-476.42 179.35,-478.67"/>
<polygon fill="midnightblue" stroke="midnightblue" points="177.91,-481.86 188.42,-483.15 181.01,-475.59 177.91,-481.86"/>
</g>
<!-- Node5 -->
<g id="node5" class="node">
<title>Node5</title>
<g id="a_node5"><a xlink:href="cmp__entity_8c_a2f2b18a1db94847afbfc30a8e7f142cf.html#a2f2b18a1db94847afbfc30a8e7f142cf" target="_top" xlink:title="get data_type from the compression entity header">
<polygon fill="white" stroke="black" points="180,-442.5 180,-461.5 314,-461.5 314,-442.5 180,-442.5"/>
<text text-anchor="middle" x="247" y="-449.5" font-family="Helvetica,sans-Serif" font-size="10.00">cmp_ent_get_data_type</text>
</a>
</g>
</g>
<!-- Node1&#45;&gt;Node5 -->
<g id="edge4" class="edge">
<title>Node1&#45;&gt;Node5</title>
<path fill="none" stroke="midnightblue" d="M73.06,-303.02C85.88,-332.76 118.65,-399.19 168,-433 170.91,-434.99 174,-436.77 177.21,-438.37"/>
<polygon fill="midnightblue" stroke="midnightblue" points="175.96,-441.64 186.53,-442.39 178.74,-435.22 175.96,-441.64"/>
</g>
<!-- Node6 -->
<g id="node6" class="node">
<title>Node6</title>
<g id="a_node6"><a xlink:href="cmp__entity_8c_a8edb7fa093195536f03038be2a5341a4.html#a8edb7fa093195536f03038be2a5341a4" target="_top" xlink:title="get the raw bit from the data_type field of the compression entity header">
<polygon fill="white" stroke="black" points="180,-393 180,-423 314,-423 314,-393 180,-393"/>
<text text-anchor="start" x="188" y="-411" font-family="Helvetica,sans-Serif" font-size="10.00">cmp_ent_get_data_type</text>
<text text-anchor="middle" x="247" y="-400" font-family="Helvetica,sans-Serif" font-size="10.00">_raw_bit</text>
</a>
</g>
</g>
<!-- Node1&#45;&gt;Node6 -->
<g id="edge5" class="edge">
<title>Node1&#45;&gt;Node6</title>
<path fill="none" stroke="midnightblue" d="M79.13,-303.03C96.67,-323.82 131.08,-361.25 168,-383 171.65,-385.15 175.51,-387.14 179.48,-388.98"/>
<polygon fill="midnightblue" stroke="midnightblue" points="178.32,-392.29 188.89,-392.99 181.07,-385.85 178.32,-392.29"/>
</g>
<!-- Node7 -->
<g id="node7" class="node">
<title>Node7</title>
<g id="a_node7"><a xlink:href="cmp__entity_8c_acfb5783d0f6a44fe647597ded8df55f1.html#acfb5783d0f6a44fe647597ded8df55f1" target="_top" xlink:title="get the fine time from the compression end timestamp in the compression entity header">
<polygon fill="white" stroke="black" points="170,-354.5 170,-373.5 324,-373.5 324,-354.5 170,-354.5"/>
<text text-anchor="middle" x="247" y="-361.5" font-family="Helvetica,sans-Serif" font-size="10.00">cmp_ent_get_fine_end_time</text>
</a>
</g>
</g>
<!-- Node1&#45;&gt;Node7 -->
<g id="edge6" class="edge">
<title>Node1&#45;&gt;Node7</title>
<path fill="none" stroke="midnightblue" d="M89.37,-303.01C109.27,-315.77 139.54,-333.75 168,-345 174.36,-347.51 181.14,-349.76 187.96,-351.75"/>
<polygon fill="midnightblue" stroke="midnightblue" points="187.35,-355.21 197.92,-354.49 189.2,-348.46 187.35,-355.21"/>
</g>
<!-- Node8 -->
<g id="node8" class="node">
<title>Node8</title>
<g id="a_node8"><a xlink:href="cmp__entity_8c_ad9380d40fe23e0cae3dc0717f3ed1f98.html#ad9380d40fe23e0cae3dc0717f3ed1f98" target="_top" xlink:title="get the fine time from the compression start timestamp in the compression entity header">
<polygon fill="white" stroke="black" points="168,-316.5 168,-335.5 326,-335.5 326,-316.5 168,-316.5"/>
<text text-anchor="middle" x="247" y="-323.5" font-family="Helvetica,sans-Serif" font-size="10.00">cmp_ent_get_fine_start_time</text>
</a>
</g>
</g>
<!-- Node1&#45;&gt;Node8 -->
<g id="edge7" class="edge">
<title>Node1&#45;&gt;Node8</title>
<path fill="none" stroke="midnightblue" d="M132.13,-301.83C151.53,-305.95 172.59,-310.42 191.26,-314.38"/>
<polygon fill="midnightblue" stroke="midnightblue" points="190.56,-317.81 201.07,-316.46 192.02,-310.96 190.56,-317.81"/>
</g>
<!-- Node9 -->
<g id="node9" class="node">
<title>Node9</title>
<g id="a_node9"><a xlink:href="cmp__entity_8c_ab31cd21b349cdafee02ca3e63be57f5a.html#ab31cd21b349cdafee02ca3e63be57f5a" target="_top" xlink:title="get the used lossy compression parameter from the compression entity header">
<polygon fill="white" stroke="black" points="168,-278.5 168,-297.5 326,-297.5 326,-278.5 168,-278.5"/>
<text text-anchor="middle" x="247" y="-285.5" font-family="Helvetica,sans-Serif" font-size="10.00">cmp_ent_get_lossy_cmp_par</text>
</a>
</g>
</g>
<!-- Node1&#45;&gt;Node9 -->
<g id="edge8" class="edge">
<title>Node1&#45;&gt;Node9</title>
<path fill="none" stroke="midnightblue" d="M132.13,-288C140.46,-288 149.1,-288 157.73,-288"/>
<polygon fill="midnightblue" stroke="midnightblue" points="157.83,-291.5 167.83,-288 157.83,-284.5 157.83,-291.5"/>
</g>
<!-- Node10 -->
<g id="node10" class="node">
<title>Node10</title>
<g id="a_node10"><a xlink:href="cmp__entity_8c_a6cc350bd5767000f1a0b858e008e4c18.html#a6cc350bd5767000f1a0b858e008e4c18" target="_top" xlink:title="get the version identifier for the maximum used bits registry from the compression entity header">
<polygon fill="white" stroke="black" points="179.5,-229 179.5,-259 314.5,-259 314.5,-229 179.5,-229"/>
<text text-anchor="start" x="187.5" y="-247" font-family="Helvetica,sans-Serif" font-size="10.00">cmp_ent_get_max_used</text>
<text text-anchor="middle" x="247" y="-236" font-family="Helvetica,sans-Serif" font-size="10.00">_bits_version</text>
</a>
</g>
</g>
<!-- Node1&#45;&gt;Node10 -->
<g id="edge9" class="edge">
<title>Node1&#45;&gt;Node10</title>
<path fill="none" stroke="midnightblue" d="M128.1,-272.98C143.14,-269.28 159.37,-265.29 174.84,-261.49"/>
<polygon fill="midnightblue" stroke="midnightblue" points="176,-264.81 184.87,-259.03 174.32,-258.01 176,-264.81"/>
</g>
<!-- Node11 -->
<g id="node11" class="node">
<title>Node11</title>
<g id="a_node11"><a xlink:href="cmp__entity_8c_a70e0538a468bc488cd3be673c64bef6f.html#a70e0538a468bc488cd3be673c64bef6f" target="_top" xlink:title="get the model counter from the compression entity header">
<polygon fill="white" stroke="black" points="168,-190.5 168,-209.5 326,-209.5 326,-190.5 168,-190.5"/>
<text text-anchor="middle" x="247" y="-197.5" font-family="Helvetica,sans-Serif" font-size="10.00">cmp_ent_get_model_counter</text>
</a>
</g>
</g>
<!-- Node1&#45;&gt;Node11 -->
<g id="edge10" class="edge">
<title>Node1&#45;&gt;Node11</title>
<path fill="none" stroke="midnightblue" d="M85.21,-272.9C104.61,-257.53 136.76,-234.02 168,-220 174.34,-217.15 181.16,-214.66 188.04,-212.49"/>
<polygon fill="midnightblue" stroke="midnightblue" points="189.49,-215.71 198.1,-209.53 187.51,-208.99 189.49,-215.71"/>
</g>
<!-- Node12 -->
<g id="node12" class="node">
<title>Node12</title>
<g id="a_node12"><a xlink:href="cmp__entity_8c_a811b2009dd4b83eda822d26460c07b74.html#a811b2009dd4b83eda822d26460c07b74" target="_top" xlink:title="get model id from the compression entity header">
<polygon fill="white" stroke="black" points="182,-152.5 182,-171.5 312,-171.5 312,-152.5 182,-152.5"/>
<text text-anchor="middle" x="247" y="-159.5" font-family="Helvetica,sans-Serif" font-size="10.00">cmp_ent_get_model_id</text>
</a>
</g>
</g>
<!-- Node1&#45;&gt;Node12 -->
<g id="edge11" class="edge">
<title>Node1&#45;&gt;Node12</title>
<path fill="none" stroke="midnightblue" d="M76.83,-272.98C92.97,-249.56 127.36,-204.62 168,-181 171.73,-178.83 175.69,-176.91 179.79,-175.21"/>
<polygon fill="midnightblue" stroke="midnightblue" points="181.34,-178.37 189.51,-171.62 178.92,-171.8 181.34,-178.37"/>
</g>
<!-- Node13 -->
<g id="node13" class="node">
<title>Node13</title>
<g id="a_node13"><a xlink:href="cmp__entity_8c_a5e86a8dd71cf95ae9c3e5d80ccb17db0.html#a5e86a8dd71cf95ae9c3e5d80ccb17db0" target="_top" xlink:title="get used model value from the compression entity header">
<polygon fill="white" stroke="black" points="173,-114.5 173,-133.5 321,-133.5 321,-114.5 173,-114.5"/>
<text text-anchor="middle" x="247" y="-121.5" font-family="Helvetica,sans-Serif" font-size="10.00">cmp_ent_get_model_value</text>
</a>
</g>
</g>
<!-- Node1&#45;&gt;Node13 -->
<g id="edge12" class="edge">
<title>Node1&#45;&gt;Node13</title>
<path fill="none" stroke="midnightblue" d="M73.06,-272.98C85.88,-243.24 118.65,-176.81 168,-143 170.91,-141.01 174,-139.23 177.21,-137.63"/>
<polygon fill="midnightblue" stroke="midnightblue" points="178.74,-140.78 186.53,-133.61 175.96,-134.36 178.74,-140.78"/>
</g>
<!-- Node14 -->
<g id="node14" class="node">
<title>Node14</title>
<g id="a_node14"><a xlink:href="cmp__entity_8c_a40bf7e43aff5f4986069a1ee3bf4568f.html#a40bf7e43aff5f4986069a1ee3bf4568f" target="_top" xlink:title="get the original data size from the compression entity header">
<polygon fill="white" stroke="black" points="174,-76.5 174,-95.5 320,-95.5 320,-76.5 174,-76.5"/>
<text text-anchor="middle" x="247" y="-83.5" font-family="Helvetica,sans-Serif" font-size="10.00">cmp_ent_get_original_size</text>
</a>
</g>
</g>
<!-- Node1&#45;&gt;Node14 -->
<g id="edge13" class="edge">
<title>Node1&#45;&gt;Node14</title>
<path fill="none" stroke="midnightblue" d="M70.81,-272.95C80.55,-237.72 109.77,-149.52 168,-105 170.47,-103.11 173.1,-101.41 175.84,-99.88"/>
<polygon fill="midnightblue" stroke="midnightblue" points="177.43,-103 184.93,-95.52 174.4,-96.68 177.43,-103"/>
</g>
<!-- Node15 -->
<g id="node15" class="node">
<title>Node15</title>
<g id="a_node15"><a xlink:href="cmp__entity_8c_a5046b9ebae291aeeba89b4f9eaf43673.html#a5046b9ebae291aeeba89b4f9eaf43673" target="_top" xlink:title="get the size of the compression entity from the compression entity header">
<polygon fill="white" stroke="black" points="195,-38.5 195,-57.5 299,-57.5 299,-38.5 195,-38.5"/>
<text text-anchor="middle" x="247" y="-45.5" font-family="Helvetica,sans-Serif" font-size="10.00">cmp_ent_get_size</text>
</a>
</g>
</g>
<!-- Node1&#45;&gt;Node15 -->
<g id="edge14" class="edge">
<title>Node1&#45;&gt;Node15</title>
<path fill="none" stroke="midnightblue" d="M69.29,-272.92C76.19,-232.79 100.68,-122.62 168,-67 173.01,-62.86 178.77,-59.6 184.86,-57.04"/>
<polygon fill="midnightblue" stroke="midnightblue" points="186.38,-60.21 194.62,-53.55 184.03,-53.62 186.38,-60.21"/>
</g>
<!-- Node16 -->
<g id="node16" class="node">
<title>Node16</title>
<g id="a_node16"><a xlink:href="cmp__entity_8c_a79f4db0e43ce48de20e24e727619dd64.html#a79f4db0e43ce48de20e24e727619dd64" target="_top" xlink:title="get the ASW version identifier from the compression entity header">
<polygon fill="white" stroke="black" points="179.5,-0.5 179.5,-19.5 314.5,-19.5 314.5,-0.5 179.5,-0.5"/>
<text text-anchor="middle" x="247" y="-7.5" font-family="Helvetica,sans-Serif" font-size="10.00">cmp_ent_get_version_id</text>
</a>
</g>
</g>
<!-- Node1&#45;&gt;Node16 -->
<g id="edge15" class="edge">
<title>Node1&#45;&gt;Node16</title>
<path fill="none" stroke="midnightblue" d="M68.19,-272.7C72.54,-227.9 91.55,-95.91 168,-29 169.79,-27.43 171.69,-25.99 173.67,-24.66"/>
<polygon fill="midnightblue" stroke="midnightblue" points="175.81,-27.48 182.84,-19.55 172.41,-21.36 175.81,-27.48"/>
</g>
</g>
</svg>
        <g id="navigator" transform="translate(0 0)" fill="#404254">
                <rect fill="#f2f5e9" fill-opacity="0.5" stroke="#606060" stroke-width=".5" x="0" y="0" width="60" height="60"/>
                <use id="zoomplus" xlink:href="#zoomPlus" x="17" y="9" onmousedown="handleZoom(evt,'in')"/>
                <use id="zoomminus" xlink:href="#zoomMin" x="42" y="9" onmousedown="handleZoom(evt,'out')"/>
                <use id="reset" xlink:href="#resetDef" x="30" y="36" onmousedown="handleReset()"/>
                <g id="arrowUp" xlink:href="#dirArrow" transform="translate(30 24)" onmousedown="handlePan(0,-1)">
                  <use xlink:href="#rim" fill="#404040">
                        <set attributeName="fill" to="#808080" begin="arrowUp.mouseover" end="arrowUp.mouseout"/>
                  </use>
                  <path fill="none" stroke="white" stroke-width="1.5" d="M0,-3.0v7 M-2.5,-0.5L0,-3.0L2.5,-0.5"/>
                </g>
                <g id="arrowRight" xlink:href="#dirArrow" transform="rotate(90) translate(36 -43)" onmousedown="handlePan(1,0)">
                  <use xlink:href="#rim" fill="#404040">
                        <set attributeName="fill" to="#808080" begin="arrowRight.mouseover" end="arrowRight.mouseout"/>
                  </use>
                  <path fill="none" stroke="white" stroke-width="1.5" d="M0,-3.0v7 M-2.5,-0.5L0,-3.0L2.5,-0.5"/>
                </g>
                <g id="arrowDown" xlink:href="#dirArrow" transform="rotate(180) translate(-30 -48)" onmousedown="handlePan(0,1)">
                  <use xlink:href="#rim" fill="#404040">
                        <set attributeName="fill" to="#808080" begin="arrowDown.mouseover" end="arrowDown.mouseout"/>
                  </use>
                  <path fill="none" stroke="white" stroke-width="1.5" d="M0,-3.0v7 M-2.5,-0.5L0,-3.0L2.5,-0.5"/>
                </g>
                <g id="arrowLeft" xlink:href="#dirArrow" transform="rotate(270) translate(-36 17)" onmousedown="handlePan(-1,0)">
                  <use xlink:href="#rim" fill="#404040">
                        <set attributeName="fill" to="#808080" begin="arrowLeft.mouseover" end="arrowLeft.mouseout"/>
                  </use>
                  <path fill="none" stroke="white" stroke-width="1.5" d="M0,-3.0v7 M-2.5,-0.5L0,-3.0L2.5,-0.5"/>
                </g>
        </g>
        <svg viewBox="0 0 15 15" width="100%" height="30px" preserveAspectRatio="xMaxYMin meet">
         <g id="arrow_out" transform="scale(0.3 0.3)">
          <a xlink:href="cmp__entity_8c_a2437ba690b73b4c212cd7962819b24ce_a2437ba690b73b4c212cd7962819b24ce_cgraph_org.svg" target="_base">
           <rect id="button" ry="5" rx="5" y="6" x="6" height="38" width="38"
                fill="#f2f5e9" fill-opacity="0.5" stroke="#606060" stroke-width="1.0"/>
           <path id="arrow"
             d="M 11.500037,31.436501 C 11.940474,20.09759 22.043105,11.32322 32.158766,21.979434 L 37.068811,17.246167 C 37.068811,17.246167 37.088388,32 37.088388,32 L 22.160133,31.978069 C 22.160133,31.978069 26.997745,27.140456 26.997745,27.140456 C 18.528582,18.264221 13.291696,25.230495 11.500037,31.436501 z"
             style="fill:#404040;"/>
          </a>
         </g>
        </svg>
</svg>
