<?xml version="1.0" encoding="UTF-8" standalone="no"?>
<!DOCTYPE svg PUBLIC "-//W3C//DTD SVG 1.1//EN"
 "http://www.w3.org/Graphics/SVG/1.1/DTD/svg11.dtd">
<!-- Generated by graphviz version 2.43.0 (0)
 -->
<!-- Title: cmp_rdcu.c Pages: 1 -->
<!--zoomable 252 -->
<svg id="main" version="1.1" xmlns="http://www.w3.org/2000/svg" xmlns:xlink="http://www.w3.org/1999/xlink" xml:space="preserve" onload="init(evt)">
<style type="text/css"><![CDATA[
.edge:hover path { stroke: red; }
.edge:hover polygon { stroke: red; fill: red; }
]]></style>
<script type="text/javascript"><![CDATA[
var edges = document.getElementsByTagName('g');
if (edges && edges.length) {
  for (var i=0;i<edges.length;i++) {
    if (edges[i].id.substr(0,4)=='edge') {
      edges[i].setAttribute('class','edge');
    }
  }
}
]]></script>
        <defs>
                <circle id="rim" cx="0" cy="0" r="7"/>
                <circle id="rim2" cx="0" cy="0" r="3.5"/>
                <g id="zoomPlus">
                        <use xlink:href="#rim" fill="#404040">
                                <set attributeName="fill" to="#808080" begin="zoomplus.mouseover" end="zoomplus.mouseout"/>
                        </use>
                        <path d="M-4,0h8M0,-4v8" fill="none" stroke="white" stroke-width="1.5" pointer-events="none"/>
                </g>
                <g id="zoomMin">
                        <use xlink:href="#rim" fill="#404040">
                                <set attributeName="fill" to="#808080" begin="zoomminus.mouseover" end="zoomminus.mouseout"/>
                        </use>
                        <path d="M-4,0h8" fill="none" stroke="white" stroke-width="1.5" pointer-events="none"/>
                </g>
                <g id="dirArrow">
                        <path fill="none" stroke="white" stroke-width="1.5" d="M0,-3.0v7 M-2.5,-0.5L0,-3.0L2.5,-0.5"/>
                </g>
               <g id="resetDef">
                       <use xlink:href="#rim2" fill="#404040">
                               <set attributeName="fill" to="#808080" begin="reset.mouseover" end="reset.mouseout"/>
                       </use>
               </g>
        </defs>

<script type="text/javascript">
var viewWidth = 534;
var viewHeight = 252;
var sectionId = 'dynsection-0';
</script>
<script xlink:href="svgpan.js"/>
<svg id="graph" class="graph">
<g id="viewport">
<title>cmp_rdcu.c</title>
<polygon fill="white" stroke="transparent" points="-4,4 -4,-248 529.89,-248 529.89,4 -4,4"/>
<!-- Node1 -->
<g id="node1" class="node">
<title>Node1</title>
<g id="a_node1"><a xlink:title="hardware compressor control library">
<polygon fill="#bfbfbf" stroke="black" points="210.39,-224.5 210.39,-243.5 282.39,-243.5 282.39,-224.5 210.39,-224.5"/>
<text text-anchor="middle" x="246.39" y="-231.5" font-family="Helvetica,sans-Serif" font-size="10.00">cmp_rdcu.c</text>
</a>
</g>
</g>
<!-- Node2 -->
<g id="node2" class="node">
<title>Node2</title>
<g id="a_node2"><a xlink:title=" ">
<polygon fill="white" stroke="#bfbfbf" points="264.89,-0.5 264.89,-19.5 317.89,-19.5 317.89,-0.5 264.89,-0.5"/>
<text text-anchor="middle" x="291.39" y="-7.5" font-family="Helvetica,sans-Serif" font-size="10.00">stdint.h</text>
</a>
</g>
</g>
<!-- Node1&#45;&gt;Node2 -->
<g id="edge1" class="edge">
<title>Node1&#45;&gt;Node2</title>
<path fill="none" stroke="midnightblue" d="M210.01,-231.75C148.78,-228.79 29.25,-219.09 3.39,-188 -2.29,-181.17 1.2,-176.61 3.39,-168 17.38,-113.07 18.72,-89.57 64.39,-56 94.12,-34.15 198.03,-20.49 254.38,-14.51"/>
<polygon fill="midnightblue" stroke="midnightblue" points="255.06,-17.96 264.65,-13.45 254.34,-11 255.06,-17.96"/>
</g>
<!-- Node3 -->
<g id="node3" class="node">
<title>Node3</title>
<g id="a_node3"><a xlink:title=" ">
<polygon fill="white" stroke="#bfbfbf" points="12.39,-168.5 12.39,-187.5 62.39,-187.5 62.39,-168.5 12.39,-168.5"/>
<text text-anchor="middle" x="37.39" y="-175.5" font-family="Helvetica,sans-Serif" font-size="10.00">stdio.h</text>
</a>
</g>
</g>
<!-- Node1&#45;&gt;Node3 -->
<g id="edge2" class="edge">
<title>Node1&#45;&gt;Node3</title>
<path fill="none" stroke="midnightblue" d="M212.82,-224.44C179.58,-215.95 126.95,-202.47 72.47,-188.27"/>
<polygon fill="midnightblue" stroke="midnightblue" points="73.2,-184.84 62.64,-185.7 71.43,-191.61 73.2,-184.84"/>
</g>
<!-- Node4 -->
<g id="node4" class="node">
<title>Node4</title>
<g id="a_node4"><a xlink:href="cmp__debug_8h.html" target="_top" xlink:title="compression/decompression debugging defines">
<polygon fill="white" stroke="black" points="80.89,-168.5 80.89,-187.5 217.89,-187.5 217.89,-168.5 80.89,-168.5"/>
<text text-anchor="middle" x="149.39" y="-175.5" font-family="Helvetica,sans-Serif" font-size="10.00">../common/cmp_debug.h</text>
</a>
</g>
</g>
<!-- Node1&#45;&gt;Node4 -->
<g id="edge3" class="edge">
<title>Node1&#45;&gt;Node4</title>
<path fill="none" stroke="midnightblue" d="M230.81,-224.32C215.39,-215.74 191.58,-202.49 173.68,-192.52"/>
<polygon fill="midnightblue" stroke="midnightblue" points="175.38,-189.46 164.94,-187.65 171.97,-195.58 175.38,-189.46"/>
</g>
<!-- Node5 -->
<g id="node5" class="node">
<title>Node5</title>
<g id="a_node5"><a xlink:href="cmp__support_8h.html" target="_top" xlink:title="compression/decompression helper functions">
<polygon fill="white" stroke="black" points="161.89,-112.5 161.89,-131.5 304.89,-131.5 304.89,-112.5 161.89,-112.5"/>
<text text-anchor="middle" x="233.39" y="-119.5" font-family="Helvetica,sans-Serif" font-size="10.00">../common/cmp_support.h</text>
</a>
</g>
</g>
<!-- Node1&#45;&gt;Node5 -->
<g id="edge4" class="edge">
<title>Node1&#45;&gt;Node5</title>
<path fill="none" stroke="midnightblue" d="M245.37,-224.37C243.27,-206.62 238.43,-165.67 235.59,-141.6"/>
<polygon fill="midnightblue" stroke="midnightblue" points="239.06,-141.11 234.41,-131.59 232.1,-141.93 239.06,-141.11"/>
</g>
<!-- Node9 -->
<g id="node9" class="node">
<title>Node9</title>
<g id="a_node9"><a xlink:href="cmp__rdcu__cfg_8h.html" target="_top" xlink:title="hardware compressor configuration library">
<polygon fill="white" stroke="black" points="274.89,-168.5 274.89,-187.5 367.89,-187.5 367.89,-168.5 274.89,-168.5"/>
<text text-anchor="middle" x="321.39" y="-175.5" font-family="Helvetica,sans-Serif" font-size="10.00">cmp_rdcu_cfg.h</text>
</a>
</g>
</g>
<!-- Node1&#45;&gt;Node9 -->
<g id="edge11" class="edge">
<title>Node1&#45;&gt;Node9</title>
<path fill="none" stroke="midnightblue" d="M258.44,-224.32C269.85,-216.11 287.22,-203.6 300.83,-193.81"/>
<polygon fill="midnightblue" stroke="midnightblue" points="303.05,-196.52 309.12,-187.83 298.96,-190.84 303.05,-196.52"/>
</g>
<!-- Node10 -->
<g id="node10" class="node">
<title>Node10</title>
<g id="a_node10"><a xlink:href="rdcu__ctrl_8h.html" target="_top" xlink:title="RMAP RDCU control library header file.">
<polygon fill="white" stroke="black" points="362.39,-112.5 362.39,-131.5 430.39,-131.5 430.39,-112.5 362.39,-112.5"/>
<text text-anchor="middle" x="396.39" y="-119.5" font-family="Helvetica,sans-Serif" font-size="10.00">rdcu_ctrl.h</text>
</a>
</g>
</g>
<!-- Node1&#45;&gt;Node10 -->
<g id="edge13" class="edge">
<title>Node1&#45;&gt;Node10</title>
<path fill="none" stroke="midnightblue" d="M282.58,-229.4C311.69,-224.64 351.67,-213.6 376.39,-188 388.3,-175.67 393.13,-156.42 395.09,-142.06"/>
<polygon fill="midnightblue" stroke="midnightblue" points="398.6,-142.12 396.12,-131.82 391.63,-141.42 398.6,-142.12"/>
</g>
<!-- Node11 -->
<g id="node11" class="node">
<title>Node11</title>
<g id="a_node11"><a xlink:href="rdcu__rmap_8h.html" target="_top" xlink:title="RMAP RDCU link interface header file.">
<polygon fill="white" stroke="black" points="448.89,-112.5 448.89,-131.5 525.89,-131.5 525.89,-112.5 448.89,-112.5"/>
<text text-anchor="middle" x="487.39" y="-119.5" font-family="Helvetica,sans-Serif" font-size="10.00">rdcu_rmap.h</text>
</a>
</g>
</g>
<!-- Node1&#45;&gt;Node11 -->
<g id="edge15" class="edge">
<title>Node1&#45;&gt;Node11</title>
<path fill="none" stroke="midnightblue" d="M282.48,-225.69C313.66,-218.56 359.41,-206.13 396.39,-188 424.11,-174.41 452.49,-152.63 470.03,-138.08"/>
<polygon fill="midnightblue" stroke="midnightblue" points="472.34,-140.71 477.72,-131.58 467.82,-135.36 472.34,-140.71"/>
</g>
<!-- Node5&#45;&gt;Node2 -->
<g id="edge5" class="edge">
<title>Node5&#45;&gt;Node2</title>
<path fill="none" stroke="midnightblue" d="M161.73,-114.78C107.58,-107.23 47.04,-90.87 75.39,-56 97.58,-28.71 199.11,-17.41 254.71,-13.21"/>
<polygon fill="midnightblue" stroke="midnightblue" points="255.13,-16.69 264.86,-12.48 254.63,-9.71 255.13,-16.69"/>
</g>
<!-- Node6 -->
<g id="node6" class="node">
<title>Node6</title>
<g id="a_node6"><a xlink:title=" ">
<polygon fill="white" stroke="#bfbfbf" points="84.39,-56.5 84.39,-75.5 140.39,-75.5 140.39,-56.5 84.39,-56.5"/>
<text text-anchor="middle" x="112.39" y="-63.5" font-family="Helvetica,sans-Serif" font-size="10.00">stddef.h</text>
</a>
</g>
</g>
<!-- Node5&#45;&gt;Node6 -->
<g id="edge6" class="edge">
<title>Node5&#45;&gt;Node6</title>
<path fill="none" stroke="midnightblue" d="M214.22,-112.44C194.48,-103.64 163.51,-89.81 140.9,-79.72"/>
<polygon fill="midnightblue" stroke="midnightblue" points="142.03,-76.4 131.47,-75.52 139.18,-82.79 142.03,-76.4"/>
</g>
<!-- Node7 -->
<g id="node7" class="node">
<title>Node7</title>
<g id="a_node7"><a xlink:href="cmp__max__used__bits_8h.html" target="_top" xlink:title="definition and consents of the cmp_max_used_bits structure">
<polygon fill="white" stroke="black" points="158.89,-56.5 158.89,-75.5 283.89,-75.5 283.89,-56.5 158.89,-56.5"/>
<text text-anchor="middle" x="221.39" y="-63.5" font-family="Helvetica,sans-Serif" font-size="10.00">cmp_max_used_bits.h</text>
</a>
</g>
</g>
<!-- Node5&#45;&gt;Node7 -->
<g id="edge7" class="edge">
<title>Node5&#45;&gt;Node7</title>
<path fill="none" stroke="midnightblue" d="M231.41,-112.08C229.82,-104.93 227.53,-94.64 225.54,-85.69"/>
<polygon fill="midnightblue" stroke="midnightblue" points="228.92,-84.75 223.34,-75.75 222.09,-86.27 228.92,-84.75"/>
</g>
<!-- Node8 -->
<g id="node8" class="node">
<title>Node8</title>
<g id="a_node8"><a xlink:href="cmp__cal__up__model_8h.html" target="_top" xlink:title="functions to calculate the update (new) model">
<polygon fill="white" stroke="black" points="301.89,-56.5 301.89,-75.5 420.89,-75.5 420.89,-56.5 301.89,-56.5"/>
<text text-anchor="middle" x="361.39" y="-63.5" font-family="Helvetica,sans-Serif" font-size="10.00">cmp_cal_up_model.h</text>
</a>
</g>
</g>
<!-- Node5&#45;&gt;Node8 -->
<g id="edge9" class="edge">
<title>Node5&#45;&gt;Node8</title>
<path fill="none" stroke="midnightblue" d="M253.67,-112.44C274.74,-103.56 307.91,-89.56 331.88,-79.45"/>
<polygon fill="midnightblue" stroke="midnightblue" points="333.35,-82.63 341.2,-75.52 330.63,-76.18 333.35,-82.63"/>
</g>
<!-- Node7&#45;&gt;Node2 -->
<g id="edge8" class="edge">
<title>Node7&#45;&gt;Node2</title>
<path fill="none" stroke="midnightblue" d="M232.64,-56.32C243.19,-48.18 259.19,-35.84 271.83,-26.09"/>
<polygon fill="midnightblue" stroke="midnightblue" points="274.16,-28.71 279.94,-19.83 269.88,-23.17 274.16,-28.71"/>
</g>
<!-- Node8&#45;&gt;Node2 -->
<g id="edge10" class="edge">
<title>Node8&#45;&gt;Node2</title>
<path fill="none" stroke="midnightblue" d="M350.14,-56.32C339.59,-48.18 323.59,-35.84 310.95,-26.09"/>
<polygon fill="midnightblue" stroke="midnightblue" points="312.9,-23.17 302.84,-19.83 308.62,-28.71 312.9,-23.17"/>
</g>
<!-- Node9&#45;&gt;Node5 -->
<g id="edge12" class="edge">
<title>Node9&#45;&gt;Node5</title>
<path fill="none" stroke="midnightblue" d="M307.25,-168.32C293.52,-159.9 272.45,-146.97 256.33,-137.07"/>
<polygon fill="midnightblue" stroke="midnightblue" points="257.85,-133.9 247.49,-131.65 254.19,-139.87 257.85,-133.9"/>
</g>
<!-- Node10&#45;&gt;Node2 -->
<g id="edge14" class="edge">
<title>Node10&#45;&gt;Node2</title>
<path fill="none" stroke="midnightblue" d="M406.93,-112.09C421.02,-99.08 442.77,-74.44 429.39,-56 406.42,-24.35 360.58,-14.53 328.04,-11.71"/>
<polygon fill="midnightblue" stroke="midnightblue" points="328.21,-8.22 317.99,-11.02 327.73,-15.2 328.21,-8.22"/>
</g>
<!-- Node11&#45;&gt;Node2 -->
<g id="edge16" class="edge">
<title>Node11&#45;&gt;Node2</title>
<path fill="none" stroke="midnightblue" d="M484.32,-112.43C478.88,-98.48 466.22,-70.93 446.39,-56 411.65,-29.84 362.06,-18.86 328.4,-14.27"/>
<polygon fill="midnightblue" stroke="midnightblue" points="328.42,-10.75 318.07,-12.99 327.56,-17.69 328.42,-10.75"/>
</g>
</g>
</svg>
        <g id="navigator" transform="translate(0 0)" fill="#404254">
                <rect fill="#f2f5e9" fill-opacity="0.5" stroke="#606060" stroke-width=".5" x="0" y="0" width="60" height="60"/>
                <use id="zoomplus" xlink:href="#zoomPlus" x="17" y="9" onmousedown="handleZoom(evt,'in')"/>
                <use id="zoomminus" xlink:href="#zoomMin" x="42" y="9" onmousedown="handleZoom(evt,'out')"/>
                <use id="reset" xlink:href="#resetDef" x="30" y="36" onmousedown="handleReset()"/>
                <g id="arrowUp" xlink:href="#dirArrow" transform="translate(30 24)" onmousedown="handlePan(0,-1)">
                  <use xlink:href="#rim" fill="#404040">
                        <set attributeName="fill" to="#808080" begin="arrowUp.mouseover" end="arrowUp.mouseout"/>
                  </use>
                  <path fill="none" stroke="white" stroke-width="1.5" d="M0,-3.0v7 M-2.5,-0.5L0,-3.0L2.5,-0.5"/>
                </g>
                <g id="arrowRight" xlink:href="#dirArrow" transform="rotate(90) translate(36 -43)" onmousedown="handlePan(1,0)">
                  <use xlink:href="#rim" fill="#404040">
                        <set attributeName="fill" to="#808080" begin="arrowRight.mouseover" end="arrowRight.mouseout"/>
                  </use>
                  <path fill="none" stroke="white" stroke-width="1.5" d="M0,-3.0v7 M-2.5,-0.5L0,-3.0L2.5,-0.5"/>
                </g>
                <g id="arrowDown" xlink:href="#dirArrow" transform="rotate(180) translate(-30 -48)" onmousedown="handlePan(0,1)">
                  <use xlink:href="#rim" fill="#404040">
                        <set attributeName="fill" to="#808080" begin="arrowDown.mouseover" end="arrowDown.mouseout"/>
                  </use>
                  <path fill="none" stroke="white" stroke-width="1.5" d="M0,-3.0v7 M-2.5,-0.5L0,-3.0L2.5,-0.5"/>
                </g>
                <g id="arrowLeft" xlink:href="#dirArrow" transform="rotate(270) translate(-36 17)" onmousedown="handlePan(-1,0)">
                  <use xlink:href="#rim" fill="#404040">
                        <set attributeName="fill" to="#808080" begin="arrowLeft.mouseover" end="arrowLeft.mouseout"/>
                  </use>
                  <path fill="none" stroke="white" stroke-width="1.5" d="M0,-3.0v7 M-2.5,-0.5L0,-3.0L2.5,-0.5"/>
                </g>
        </g>
        <svg viewBox="0 0 15 15" width="100%" height="30px" preserveAspectRatio="xMaxYMin meet">
         <g id="arrow_out" transform="scale(0.3 0.3)">
          <a xlink:href="cmp__rdcu_8c__incl_org.svg" target="_base">
           <rect id="button" ry="5" rx="5" y="6" x="6" height="38" width="38"
                fill="#f2f5e9" fill-opacity="0.5" stroke="#606060" stroke-width="1.0"/>
           <path id="arrow"
             d="M 11.500037,31.436501 C 11.940474,20.09759 22.043105,11.32322 32.158766,21.979434 L 37.068811,17.246167 C 37.068811,17.246167 37.088388,32 37.088388,32 L 22.160133,31.978069 C 22.160133,31.978069 26.997745,27.140456 26.997745,27.140456 C 18.528582,18.264221 13.291696,25.230495 11.500037,31.436501 z"
             style="fill:#404040;"/>
          </a>
         </g>
        </svg>
</svg>
