<?xml version="1.0" encoding="UTF-8" standalone="no"?>
<!DOCTYPE svg PUBLIC "-//W3C//DTD SVG 1.1//EN"
 "http://www.w3.org/Graphics/SVG/1.1/DTD/svg11.dtd">
<!-- Generated by graphviz version 2.43.0 (0)
 -->
<!-- Title: cmp_ent_parese_specific_header Pages: 1 -->
<!--zoomable 263 -->
<svg id="main" version="1.1" xmlns="http://www.w3.org/2000/svg" xmlns:xlink="http://www.w3.org/1999/xlink" xml:space="preserve" onload="init(evt)">
<style type="text/css"><![CDATA[
.edge:hover path { stroke: red; }
.edge:hover polygon { stroke: red; fill: red; }
]]></style>
<script type="text/javascript"><![CDATA[
var edges = document.getElementsByTagName('g');
if (edges && edges.length) {
  for (var i=0;i<edges.length;i++) {
    if (edges[i].id.substr(0,4)=='edge') {
      edges[i].setAttribute('class','edge');
    }
  }
}
]]></script>
        <defs>
                <circle id="rim" cx="0" cy="0" r="7"/>
                <circle id="rim2" cx="0" cy="0" r="3.5"/>
                <g id="zoomPlus">
                        <use xlink:href="#rim" fill="#404040">
                                <set attributeName="fill" to="#808080" begin="zoomplus.mouseover" end="zoomplus.mouseout"/>
                        </use>
                        <path d="M-4,0h8M0,-4v8" fill="none" stroke="white" stroke-width="1.5" pointer-events="none"/>
                </g>
                <g id="zoomMin">
                        <use xlink:href="#rim" fill="#404040">
                                <set attributeName="fill" to="#808080" begin="zoomminus.mouseover" end="zoomminus.mouseout"/>
                        </use>
                        <path d="M-4,0h8" fill="none" stroke="white" stroke-width="1.5" pointer-events="none"/>
                </g>
                <g id="dirArrow">
                        <path fill="none" stroke="white" stroke-width="1.5" d="M0,-3.0v7 M-2.5,-0.5L0,-3.0L2.5,-0.5"/>
                </g>
               <g id="resetDef">
                       <use xlink:href="#rim2" fill="#404040">
                               <set attributeName="fill" to="#808080" begin="reset.mouseover" end="reset.mouseout"/>
                       </use>
               </g>
        </defs>

<script type="text/javascript">
var viewWidth = 532;
var viewHeight = 263;
var sectionId = 'dynsection-0';
</script>
<script xlink:href="svgpan.js"/>
<svg id="graph" class="graph">
<g id="viewport">
<title>cmp_ent_parese_specific_header</title>
<polygon fill="white" stroke="transparent" points="-4,4 -4,-258.5 528,-258.5 528,4 -4,4"/>
<!-- Node1 -->
<g id="node1" class="node">
<title>Node1</title>
<g id="a_node1"><a xlink:title="parse the specific compressed entity header">
<polygon fill="#bfbfbf" stroke="black" points="0,-103 0,-133 139,-133 139,-103 0,-103"/>
<text text-anchor="start" x="8" y="-121" font-family="Helvetica,sans-Serif" font-size="10.00">cmp_ent_parese_specific</text>
<text text-anchor="middle" x="69.5" y="-110" font-family="Helvetica,sans-Serif" font-size="10.00">_header</text>
</a>
</g>
</g>
<!-- Node2 -->
<g id="node2" class="node">
<title>Node2</title>
<g id="a_node2"><a xlink:href="cmp__entity_8c_a2f2b18a1db94847afbfc30a8e7f142cf.html#a2f2b18a1db94847afbfc30a8e7f142cf" target="_top" xlink:title="get data_type from the compression entity header">
<polygon fill="white" stroke="black" points="181,-177.5 181,-196.5 315,-196.5 315,-177.5 181,-177.5"/>
<text text-anchor="middle" x="248" y="-184.5" font-family="Helvetica,sans-Serif" font-size="10.00">cmp_ent_get_data_type</text>
</a>
</g>
</g>
<!-- Node1&#45;&gt;Node2 -->
<g id="edge1" class="edge">
<title>Node1&#45;&gt;Node2</title>
<path fill="none" stroke="midnightblue" d="M98.26,-133.05C118.97,-143.84 148.19,-158.15 175,-168 181.52,-170.4 188.48,-172.62 195.4,-174.65"/>
<polygon fill="midnightblue" stroke="midnightblue" points="194.89,-178.14 205.46,-177.46 196.78,-171.4 194.89,-178.14"/>
</g>
<!-- Node3 -->
<g id="node3" class="node">
<title>Node3</title>
<g id="a_node3"><a xlink:href="cmp__entity_8c_a8edb7fa093195536f03038be2a5341a4.html#a8edb7fa093195536f03038be2a5341a4" target="_top" xlink:title="get the raw bit from the data_type field of the compression entity header">
<polygon fill="white" stroke="black" points="181,-128 181,-158 315,-158 315,-128 181,-128"/>
<text text-anchor="start" x="189" y="-146" font-family="Helvetica,sans-Serif" font-size="10.00">cmp_ent_get_data_type</text>
<text text-anchor="middle" x="248" y="-135" font-family="Helvetica,sans-Serif" font-size="10.00">_raw_bit</text>
</a>
</g>
</g>
<!-- Node1&#45;&gt;Node3 -->
<g id="edge2" class="edge">
<title>Node1&#45;&gt;Node3</title>
<path fill="none" stroke="midnightblue" d="M139.24,-127.74C149.59,-129.2 160.31,-130.72 170.79,-132.21"/>
<polygon fill="midnightblue" stroke="midnightblue" points="170.37,-135.68 180.76,-133.62 171.35,-128.75 170.37,-135.68"/>
</g>
<!-- Node4 -->
<g id="node4" class="node">
<title>Node4</title>
<g id="a_node4"><a xlink:href="cmp__entity_8c_a61045ef2115730b0239b706dd5343123.html#a61045ef2115730b0239b706dd5343123" target="_top" xlink:title="parse the adaptive imagette specific compressed entity header">
<polygon fill="white" stroke="black" points="175.5,-79 175.5,-109 320.5,-109 320.5,-79 175.5,-79"/>
<text text-anchor="start" x="183.5" y="-97" font-family="Helvetica,sans-Serif" font-size="10.00">cmp_ent_parese_adaptive</text>
<text text-anchor="middle" x="248" y="-86" font-family="Helvetica,sans-Serif" font-size="10.00">_imagette_header</text>
</a>
</g>
</g>
<!-- Node1&#45;&gt;Node4 -->
<g id="edge3" class="edge">
<title>Node1&#45;&gt;Node4</title>
<path fill="none" stroke="midnightblue" d="M139.24,-108.65C147.73,-107.5 156.47,-106.31 165.13,-105.13"/>
<polygon fill="midnightblue" stroke="midnightblue" points="165.8,-108.57 175.24,-103.76 164.86,-101.64 165.8,-108.57"/>
</g>
<!-- Node11 -->
<g id="node11" class="node">
<title>Node11</title>
<g id="a_node11"><a xlink:href="cmp__entity_8c_aaede38985258a040864878e893c97620.html#aaede38985258a040864878e893c97620" target="_top" xlink:title="parse the imagette specific compressed entity header">
<polygon fill="white" stroke="black" points="175,-30 175,-60 321,-60 321,-30 175,-30"/>
<text text-anchor="start" x="183" y="-48" font-family="Helvetica,sans-Serif" font-size="10.00">cmp_ent_parese_imagette</text>
<text text-anchor="middle" x="248" y="-37" font-family="Helvetica,sans-Serif" font-size="10.00">_header</text>
</a>
</g>
</g>
<!-- Node1&#45;&gt;Node11 -->
<g id="edge10" class="edge">
<title>Node1&#45;&gt;Node11</title>
<path fill="none" stroke="midnightblue" d="M101.25,-102.93C121.89,-93.05 149.81,-80.13 175,-70 180.43,-67.82 186.13,-65.64 191.84,-63.54"/>
<polygon fill="midnightblue" stroke="midnightblue" points="193.21,-66.77 201.43,-60.08 190.84,-60.18 193.21,-66.77"/>
</g>
<!-- Node5 -->
<g id="node5" class="node">
<title>Node5</title>
<g id="a_node5"><a xlink:href="cmp__entity_8c_aa6064dd377742b3a23f4aa1e9d29ca1d.html#aa6064dd377742b3a23f4aa1e9d29ca1d" target="_top" xlink:title="get the used adaptive 1 Golomb parameter from adaptive imagette specific compression entity header">
<polygon fill="white" stroke="black" points="377,-126 377,-156 504,-156 504,-126 377,-126"/>
<text text-anchor="start" x="385" y="-144" font-family="Helvetica,sans-Serif" font-size="10.00">cmp_ent_get_ima_ap1</text>
<text text-anchor="middle" x="440.5" y="-133" font-family="Helvetica,sans-Serif" font-size="10.00">_golomb_par</text>
</a>
</g>
</g>
<!-- Node4&#45;&gt;Node5 -->
<g id="edge4" class="edge">
<title>Node4&#45;&gt;Node5</title>
<path fill="none" stroke="midnightblue" d="M309.8,-109C328.53,-113.62 349.31,-118.75 368.66,-123.52"/>
<polygon fill="midnightblue" stroke="midnightblue" points="368.08,-126.98 378.63,-125.98 369.75,-120.19 368.08,-126.98"/>
</g>
<!-- Node6 -->
<g id="node6" class="node">
<title>Node6</title>
<g id="a_node6"><a xlink:href="cmp__entity_8c_a2cc8ea3ff464c3bd20a08370f5fe88ad.html#a2cc8ea3ff464c3bd20a08370f5fe88ad" target="_top" xlink:title="get the used adaptive 1 spillover threshold parameter from the adaptive imagette specific compression...">
<polygon fill="white" stroke="black" points="377,-77 377,-107 504,-107 504,-77 377,-77"/>
<text text-anchor="start" x="385" y="-95" font-family="Helvetica,sans-Serif" font-size="10.00">cmp_ent_get_ima_ap1</text>
<text text-anchor="middle" x="440.5" y="-84" font-family="Helvetica,sans-Serif" font-size="10.00">_spill</text>
</a>
</g>
</g>
<!-- Node4&#45;&gt;Node6 -->
<g id="edge5" class="edge">
<title>Node4&#45;&gt;Node6</title>
<path fill="none" stroke="midnightblue" d="M320.75,-93.25C335.75,-93.09 351.57,-92.92 366.61,-92.77"/>
<polygon fill="midnightblue" stroke="midnightblue" points="366.91,-96.26 376.87,-92.66 366.84,-89.26 366.91,-96.26"/>
</g>
<!-- Node7 -->
<g id="node7" class="node">
<title>Node7</title>
<g id="a_node7"><a xlink:href="cmp__entity_8c_aba889dd69b3ae248265c79d975d377e9.html#aba889dd69b3ae248265c79d975d377e9" target="_top" xlink:title="get the used adaptive 2 spillover threshold parameter from the adaptive imagette specific compression...">
<polygon fill="white" stroke="black" points="377,-224 377,-254 504,-254 504,-224 377,-224"/>
<text text-anchor="start" x="385" y="-242" font-family="Helvetica,sans-Serif" font-size="10.00">cmp_ent_get_ima_ap2</text>
<text text-anchor="middle" x="440.5" y="-231" font-family="Helvetica,sans-Serif" font-size="10.00">_golomb_par</text>
</a>
</g>
</g>
<!-- Node4&#45;&gt;Node7 -->
<g id="edge6" class="edge">
<title>Node4&#45;&gt;Node7</title>
<path fill="none" stroke="midnightblue" d="M307.48,-109.07C312.41,-111.84 317.02,-115.12 321,-119 353.61,-150.82 323.58,-184.02 357,-215 360.2,-217.97 363.75,-220.57 367.52,-222.85"/>
<polygon fill="midnightblue" stroke="midnightblue" points="366.18,-226.1 376.67,-227.61 369.41,-219.89 366.18,-226.1"/>
</g>
<!-- Node8 -->
<g id="node8" class="node">
<title>Node8</title>
<g id="a_node8"><a xlink:href="cmp__entity_8c_a701c7c0bd296b17280619127a7ab4e89.html#a701c7c0bd296b17280619127a7ab4e89" target="_top" xlink:title="get the used adaptive 2 spillover threshold parameter from the adaptive imagette specific compression...">
<polygon fill="white" stroke="black" points="377,-175 377,-205 504,-205 504,-175 377,-175"/>
<text text-anchor="start" x="385" y="-193" font-family="Helvetica,sans-Serif" font-size="10.00">cmp_ent_get_ima_ap2</text>
<text text-anchor="middle" x="440.5" y="-182" font-family="Helvetica,sans-Serif" font-size="10.00">_spill</text>
</a>
</g>
</g>
<!-- Node4&#45;&gt;Node8 -->
<g id="edge7" class="edge">
<title>Node4&#45;&gt;Node8</title>
<path fill="none" stroke="midnightblue" d="M303.79,-109.15C309.86,-111.94 315.74,-115.2 321,-119 342.33,-134.41 335.29,-151.14 357,-166 360.3,-168.26 363.81,-170.31 367.46,-172.16"/>
<polygon fill="midnightblue" stroke="midnightblue" points="366.19,-175.43 376.74,-176.4 369.1,-169.06 366.19,-175.43"/>
</g>
<!-- Node9 -->
<g id="node9" class="node">
<title>Node9</title>
<g id="a_node9"><a xlink:href="cmp__entity_8c_a4e4c9b1046c031cc9bbce7dff640e393.html#a4e4c9b1046c031cc9bbce7dff640e393" target="_top" xlink:title="get the used Golomb parameter from the (adaptive) imagette specific compression entity header">
<polygon fill="white" stroke="black" points="357,-38.5 357,-57.5 524,-57.5 524,-38.5 357,-38.5"/>
<text text-anchor="middle" x="440.5" y="-45.5" font-family="Helvetica,sans-Serif" font-size="10.00">cmp_ent_get_ima_golomb_par</text>
</a>
</g>
</g>
<!-- Node4&#45;&gt;Node9 -->
<g id="edge8" class="edge">
<title>Node4&#45;&gt;Node9</title>
<path fill="none" stroke="midnightblue" d="M311.38,-78.94C336.92,-72.77 366.05,-65.74 390.08,-59.93"/>
<polygon fill="midnightblue" stroke="midnightblue" points="391.14,-63.28 400.04,-57.53 389.5,-56.47 391.14,-63.28"/>
</g>
<!-- Node10 -->
<g id="node10" class="node">
<title>Node10</title>
<g id="a_node10"><a xlink:href="cmp__entity_8c_a58239f749d3abbbc019231ce70c60e19.html#a58239f749d3abbbc019231ce70c60e19" target="_top" xlink:title="get the used spillover threshold parameter from the (adaptive) imagette specific compression entity h...">
<polygon fill="white" stroke="black" points="376,-0.5 376,-19.5 505,-19.5 505,-0.5 376,-0.5"/>
<text text-anchor="middle" x="440.5" y="-7.5" font-family="Helvetica,sans-Serif" font-size="10.00">cmp_ent_get_ima_spill</text>
</a>
</g>
</g>
<!-- Node4&#45;&gt;Node10 -->
<g id="edge9" class="edge">
<title>Node4&#45;&gt;Node10</title>
<path fill="none" stroke="midnightblue" d="M304.29,-78.98C310.15,-76.4 315.84,-73.42 321,-70 341.2,-56.59 336.18,-41.43 357,-29 360.69,-26.8 364.62,-24.85 368.67,-23.13"/>
<polygon fill="midnightblue" stroke="midnightblue" points="370.2,-26.29 378.33,-19.5 367.74,-19.74 370.2,-26.29"/>
</g>
<!-- Node11&#45;&gt;Node9 -->
<g id="edge11" class="edge">
<title>Node11&#45;&gt;Node9</title>
<path fill="none" stroke="midnightblue" d="M321.02,-46.13C329.43,-46.27 338.09,-46.4 346.73,-46.54"/>
<polygon fill="midnightblue" stroke="midnightblue" points="346.78,-50.04 356.83,-46.7 346.89,-43.04 346.78,-50.04"/>
</g>
<!-- Node11&#45;&gt;Node10 -->
<g id="edge12" class="edge">
<title>Node11&#45;&gt;Node10</title>
<path fill="none" stroke="midnightblue" d="M321.02,-31.77C339.69,-28.34 359.63,-24.67 377.72,-21.35"/>
<polygon fill="midnightblue" stroke="midnightblue" points="378.36,-24.79 387.56,-19.54 377.09,-17.91 378.36,-24.79"/>
</g>
</g>
</svg>
        <g id="navigator" transform="translate(0 0)" fill="#404254">
                <rect fill="#f2f5e9" fill-opacity="0.5" stroke="#606060" stroke-width=".5" x="0" y="0" width="60" height="60"/>
                <use id="zoomplus" xlink:href="#zoomPlus" x="17" y="9" onmousedown="handleZoom(evt,'in')"/>
                <use id="zoomminus" xlink:href="#zoomMin" x="42" y="9" onmousedown="handleZoom(evt,'out')"/>
                <use id="reset" xlink:href="#resetDef" x="30" y="36" onmousedown="handleReset()"/>
                <g id="arrowUp" xlink:href="#dirArrow" transform="translate(30 24)" onmousedown="handlePan(0,-1)">
                  <use xlink:href="#rim" fill="#404040">
                        <set attributeName="fill" to="#808080" begin="arrowUp.mouseover" end="arrowUp.mouseout"/>
                  </use>
                  <path fill="none" stroke="white" stroke-width="1.5" d="M0,-3.0v7 M-2.5,-0.5L0,-3.0L2.5,-0.5"/>
                </g>
                <g id="arrowRight" xlink:href="#dirArrow" transform="rotate(90) translate(36 -43)" onmousedown="handlePan(1,0)">
                  <use xlink:href="#rim" fill="#404040">
                        <set attributeName="fill" to="#808080" begin="arrowRight.mouseover" end="arrowRight.mouseout"/>
                  </use>
                  <path fill="none" stroke="white" stroke-width="1.5" d="M0,-3.0v7 M-2.5,-0.5L0,-3.0L2.5,-0.5"/>
                </g>
                <g id="arrowDown" xlink:href="#dirArrow" transform="rotate(180) translate(-30 -48)" onmousedown="handlePan(0,1)">
                  <use xlink:href="#rim" fill="#404040">
                        <set attributeName="fill" to="#808080" begin="arrowDown.mouseover" end="arrowDown.mouseout"/>
                  </use>
                  <path fill="none" stroke="white" stroke-width="1.5" d="M0,-3.0v7 M-2.5,-0.5L0,-3.0L2.5,-0.5"/>
                </g>
                <g id="arrowLeft" xlink:href="#dirArrow" transform="rotate(270) translate(-36 17)" onmousedown="handlePan(-1,0)">
                  <use xlink:href="#rim" fill="#404040">
                        <set attributeName="fill" to="#808080" begin="arrowLeft.mouseover" end="arrowLeft.mouseout"/>
                  </use>
                  <path fill="none" stroke="white" stroke-width="1.5" d="M0,-3.0v7 M-2.5,-0.5L0,-3.0L2.5,-0.5"/>
                </g>
        </g>
        <svg viewBox="0 0 15 15" width="100%" height="30px" preserveAspectRatio="xMaxYMin meet">
         <g id="arrow_out" transform="scale(0.3 0.3)">
          <a xlink:href="cmp__entity_8c_ada578f9cc10464104076bc466b962b78_ada578f9cc10464104076bc466b962b78_cgraph_org.svg" target="_base">
           <rect id="button" ry="5" rx="5" y="6" x="6" height="38" width="38"
                fill="#f2f5e9" fill-opacity="0.5" stroke="#606060" stroke-width="1.0"/>
           <path id="arrow"
             d="M 11.500037,31.436501 C 11.940474,20.09759 22.043105,11.32322 32.158766,21.979434 L 37.068811,17.246167 C 37.068811,17.246167 37.088388,32 37.088388,32 L 22.160133,31.978069 C 22.160133,31.978069 26.997745,27.140456 26.997745,27.140456 C 18.528582,18.264221 13.291696,25.230495 11.500037,31.436501 z"
             style="fill:#404040;"/>
          </a>
         </g>
        </svg>
</svg>
