<?xml version="1.0" encoding="UTF-8" standalone="no"?>
<!DOCTYPE svg PUBLIC "-//W3C//DTD SVG 1.1//EN"
 "http://www.w3.org/Graphics/SVG/1.1/DTD/svg11.dtd">
<!-- Generated by graphviz version 2.43.0 (0)
 -->
<!-- Title: rdcu_cmp_cfg_is_invalid Pages: 1 -->
<svg width="621pt" height="121pt"
 viewBox="0.00 0.00 621.00 120.50" xmlns="http://www.w3.org/2000/svg" xmlns:xlink="http://www.w3.org/1999/xlink">
<g id="graph0" class="graph" transform="scale(1 1) rotate(0) translate(4 116.5)">
<title>rdcu_cmp_cfg_is_invalid</title>
<polygon fill="white" stroke="transparent" points="-4,4 -4,-116.5 617,-116.5 617,4 -4,4"/>
<!-- Node1 -->
<g id="node1" class="node">
<title>Node1</title>
<g id="a_node1"><a xlink:title="check if the compressor configuration is invalid for an RDCU compression, see the user manual for mor...">
<polygon fill="#bfbfbf" stroke="black" points="477,-30 477,-49 613,-49 613,-30 477,-30"/>
<text text-anchor="middle" x="545" y="-37" font-family="Helvetica,sans-Serif" font-size="10.00">rdcu_cmp_cfg_is_invalid</text>
</a>
</g>
</g>
<!-- Node2 -->
<g id="node2" class="node">
<title>Node2</title>
<g id="a_node2"><a xlink:href="cmp__rdcu_8c_a1b450ab652a1da5f914786ce577458f9.html#a1b450ab652a1da5f914786ce577458f9" target="_top" xlink:title="set up RDCU compression register">
<polygon fill="white" stroke="black" points="316,-49.5 316,-79.5 441,-79.5 441,-49.5 316,-49.5"/>
<text text-anchor="start" x="324" y="-67.5" font-family="Helvetica,sans-Serif" font-size="10.00">rdcu_set_compression</text>
<text text-anchor="middle" x="378.5" y="-56.5" font-family="Helvetica,sans-Serif" font-size="10.00">_register</text>
</a>
</g>
</g>
<!-- Node1&#45;&gt;Node2 -->
<g id="edge1" class="edge">
<title>Node1&#45;&gt;Node2</title>
<path fill="none" stroke="midnightblue" d="M471.36,-50.54C461.28,-52.07 451.02,-53.63 441.17,-55.13"/>
<polygon fill="midnightblue" stroke="midnightblue" points="471.98,-53.99 481.34,-49.02 470.93,-47.07 471.98,-53.99"/>
</g>
<!-- Node6 -->
<g id="node6" class="node">
<title>Node6</title>
<g id="a_node6"><a xlink:href="test__cmp__rdcu__cfg_8c_a5b00301d60061900aa1c1976e587aa30.html#a5b00301d60061900aa1c1976e587aa30" target="_top" xlink:title=" ">
<polygon fill="white" stroke="black" points="317.5,-0.5 317.5,-30.5 439.5,-30.5 439.5,-0.5 317.5,-0.5"/>
<text text-anchor="start" x="325.5" y="-18.5" font-family="Helvetica,sans-Serif" font-size="10.00">test_rdcu_cmp_cfg_is</text>
<text text-anchor="middle" x="378.5" y="-7.5" font-family="Helvetica,sans-Serif" font-size="10.00">_invalid</text>
</a>
</g>
</g>
<!-- Node1&#45;&gt;Node6 -->
<g id="edge6" class="edge">
<title>Node1&#45;&gt;Node6</title>
<path fill="none" stroke="midnightblue" d="M468.51,-28.49C458.85,-27.08 449.06,-25.65 439.69,-24.28"/>
<polygon fill="midnightblue" stroke="midnightblue" points="468.11,-31.97 478.51,-29.95 469.12,-25.04 468.11,-31.97"/>
</g>
<!-- Node3 -->
<g id="node3" class="node">
<title>Node3</title>
<g id="a_node3"><a xlink:href="cmp__rdcu_8h_a85aeb890a333d637dd7ffba03729e93a.html#a85aeb890a333d637dd7ffba03729e93a" target="_top" xlink:title="compressing data with the help of the RDCU hardware compressor">
<polygon fill="white" stroke="black" points="158,-93 158,-112 275,-112 275,-93 158,-93"/>
<text text-anchor="middle" x="216.5" y="-100" font-family="Helvetica,sans-Serif" font-size="10.00">rdcu_compress_data</text>
</a>
</g>
</g>
<!-- Node2&#45;&gt;Node3 -->
<g id="edge2" class="edge">
<title>Node2&#45;&gt;Node3</title>
<path fill="none" stroke="midnightblue" d="M305.56,-81.59C289.23,-85.46 272.45,-89.45 257.97,-92.89"/>
<polygon fill="midnightblue" stroke="midnightblue" points="306.72,-84.91 315.64,-79.19 305.1,-78.1 306.72,-84.91"/>
</g>
<!-- Node4 -->
<g id="node4" class="node">
<title>Node4</title>
<g id="a_node4"><a xlink:href="cmp__rdcu_8c_ab69cf44ac326e0cebdef002e8f2ea2cb.html#ab69cf44ac326e0cebdef002e8f2ea2cb" target="_top" xlink:title="compressing data with the help of the RDCU hardware compressor; read data from the last compression b...">
<polygon fill="white" stroke="black" points="0,-68.5 0,-98.5 117,-98.5 117,-68.5 0,-68.5"/>
<text text-anchor="start" x="8" y="-86.5" font-family="Helvetica,sans-Serif" font-size="10.00">rdcu_compress_data</text>
<text text-anchor="middle" x="58.5" y="-75.5" font-family="Helvetica,sans-Serif" font-size="10.00">_parallel</text>
</a>
</g>
</g>
<!-- Node2&#45;&gt;Node4 -->
<g id="edge4" class="edge">
<title>Node2&#45;&gt;Node4</title>
<path fill="none" stroke="midnightblue" d="M305.78,-68.79C248.73,-72.19 169.96,-76.9 117.01,-80.06"/>
<polygon fill="midnightblue" stroke="midnightblue" points="306.04,-72.28 315.81,-68.19 305.62,-65.29 306.04,-72.28"/>
</g>
<!-- Node5 -->
<g id="node5" class="node">
<title>Node5</title>
<g id="a_node5"><a xlink:href="cmp__rdcu_8c_af59f75c76a057d49a54b54800dc59556.html#af59f75c76a057d49a54b54800dc59556" target="_top" xlink:title="inject a SRAM edac multi bit error into the RDCU SRAM">
<polygon fill="white" stroke="black" points="153,-17 153,-36 280,-36 280,-17 153,-17"/>
<text text-anchor="middle" x="216.5" y="-24" font-family="Helvetica,sans-Serif" font-size="10.00">rdcu_inject_edac_error</text>
</a>
</g>
</g>
<!-- Node2&#45;&gt;Node5 -->
<g id="edge5" class="edge">
<title>Node2&#45;&gt;Node5</title>
<path fill="none" stroke="midnightblue" d="M305.56,-47.41C289.23,-43.54 272.45,-39.55 257.97,-36.11"/>
<polygon fill="midnightblue" stroke="midnightblue" points="305.1,-50.9 315.64,-49.81 306.72,-44.09 305.1,-50.9"/>
</g>
<!-- Node3&#45;&gt;Node4 -->
<g id="edge3" class="edge">
<title>Node3&#45;&gt;Node4</title>
<path fill="none" stroke="midnightblue" d="M147.76,-94.25C137.57,-93.01 127.13,-91.74 117.17,-90.52"/>
<polygon fill="midnightblue" stroke="midnightblue" points="147.5,-97.74 157.85,-95.48 148.35,-90.8 147.5,-97.74"/>
</g>
</g>
</svg>
