<?xml version="1.0" encoding="UTF-8" standalone="no"?>
<!DOCTYPE svg PUBLIC "-//W3C//DTD SVG 1.1//EN"
 "http://www.w3.org/Graphics/SVG/1.1/DTD/svg11.dtd">
<!-- Generated by graphviz version 2.43.0 (0)
 -->
<!-- Title: pad_bitstream Pages: 1 -->
<!--zoomable 1309 -->
<svg id="main" version="1.1" xmlns="http://www.w3.org/2000/svg" xmlns:xlink="http://www.w3.org/1999/xlink" xml:space="preserve" onload="init(evt)">
<style type="text/css"><![CDATA[
.edge:hover path { stroke: red; }
.edge:hover polygon { stroke: red; fill: red; }
]]></style>
<script type="text/javascript"><![CDATA[
var edges = document.getElementsByTagName('g');
if (edges && edges.length) {
  for (var i=0;i<edges.length;i++) {
    if (edges[i].id.substr(0,4)=='edge') {
      edges[i].setAttribute('class','edge');
    }
  }
}
]]></script>
        <defs>
                <circle id="rim" cx="0" cy="0" r="7"/>
                <circle id="rim2" cx="0" cy="0" r="3.5"/>
                <g id="zoomPlus">
                        <use xlink:href="#rim" fill="#404040">
                                <set attributeName="fill" to="#808080" begin="zoomplus.mouseover" end="zoomplus.mouseout"/>
                        </use>
                        <path d="M-4,0h8M0,-4v8" fill="none" stroke="white" stroke-width="1.5" pointer-events="none"/>
                </g>
                <g id="zoomMin">
                        <use xlink:href="#rim" fill="#404040">
                                <set attributeName="fill" to="#808080" begin="zoomminus.mouseover" end="zoomminus.mouseout"/>
                        </use>
                        <path d="M-4,0h8" fill="none" stroke="white" stroke-width="1.5" pointer-events="none"/>
                </g>
                <g id="dirArrow">
                        <path fill="none" stroke="white" stroke-width="1.5" d="M0,-3.0v7 M-2.5,-0.5L0,-3.0L2.5,-0.5"/>
                </g>
               <g id="resetDef">
                       <use xlink:href="#rim2" fill="#404040">
                               <set attributeName="fill" to="#808080" begin="reset.mouseover" end="reset.mouseout"/>
                       </use>
               </g>
        </defs>

<script type="text/javascript">
var viewWidth = 644;
var viewHeight = 1309;
var sectionId = 'dynsection-1';
</script>
<script xlink:href="svgpan.js"/>
<svg id="graph" class="graph">
<g id="viewport">
<title>pad_bitstream</title>
<polygon fill="white" stroke="transparent" points="-4,4 -4,-1305 640,-1305 640,4 -4,4"/>
<!-- Node1 -->
<g id="node1" class="node">
<title>Node1</title>
<g id="a_node1"><a xlink:title="fill the last part of the bitstream with zeros">
<polygon fill="#bfbfbf" stroke="black" points="549,-638 549,-657 636,-657 636,-638 549,-638"/>
<text text-anchor="middle" x="592.5" y="-645" font-family="Helvetica,sans-Serif" font-size="10.00">pad_bitstream</text>
</a>
</g>
</g>
<!-- Node2 -->
<g id="node2" class="node">
<title>Node2</title>
<g id="a_node2"><a xlink:href="cmp__icu_8h_a08bf8ccacb449aba08db5e51d532d834.html#a08bf8ccacb449aba08db5e51d532d834" target="_top" xlink:title="compress data on the ICU in software">
<polygon fill="white" stroke="black" points="402.5,-657 402.5,-676 512.5,-676 512.5,-657 402.5,-657"/>
<text text-anchor="middle" x="457.5" y="-664" font-family="Helvetica,sans-Serif" font-size="10.00">icu_compress_data</text>
</a>
</g>
</g>
<!-- Node1&#45;&gt;Node2 -->
<g id="edge1" class="edge">
<title>Node1&#45;&gt;Node2</title>
<path fill="none" stroke="midnightblue" d="M538.58,-655.06C530.14,-656.27 521.39,-657.52 512.92,-658.73"/>
<polygon fill="midnightblue" stroke="midnightblue" points="539.28,-658.5 548.69,-653.62 538.29,-651.57 539.28,-658.5"/>
</g>
<!-- Node33 -->
<g id="node33" class="node">
<title>Node33</title>
<g id="a_node33"><a xlink:href="test__cmp__icu_8c_af431e1dbc20fecc55a057071298b491c.html#af431e1dbc20fecc55a057071298b491c" target="_top" xlink:title=" ">
<polygon fill="white" stroke="black" points="402,-619 402,-638 513,-638 513,-619 402,-619"/>
<text text-anchor="middle" x="457.5" y="-626" font-family="Helvetica,sans-Serif" font-size="10.00">test_pad_bitstream</text>
</a>
</g>
</g>
<!-- Node1&#45;&gt;Node33 -->
<g id="edge32" class="edge">
<title>Node1&#45;&gt;Node33</title>
<path fill="none" stroke="midnightblue" d="M538.72,-639.96C530.39,-638.77 521.77,-637.54 513.39,-636.34"/>
<polygon fill="midnightblue" stroke="midnightblue" points="538.29,-643.43 548.69,-641.38 539.28,-636.5 538.29,-643.43"/>
</g>
<!-- Node3 -->
<g id="node3" class="node">
<title>Node3</title>
<g id="a_node3"><a xlink:href="test__cmp__decmp_8c_a50ba26014079160ca77b7d7fa76ce0f4.html#a50ba26014079160ca77b7d7fa76ce0f4" target="_top" xlink:title="compress the given configuration and decompress it afterwards; finally compare the results">
<polygon fill="white" stroke="black" points="195,-1275 195,-1294 353,-1294 353,-1275 195,-1275"/>
<text text-anchor="middle" x="274" y="-1282" font-family="Helvetica,sans-Serif" font-size="10.00">compression_decompression</text>
</a>
</g>
</g>
<!-- Node2&#45;&gt;Node3 -->
<g id="edge2" class="edge">
<title>Node2&#45;&gt;Node3</title>
<path fill="none" stroke="midnightblue" d="M456.35,-686.05C455.23,-779.01 445.79,-1175.49 366,-1262.5 361.28,-1267.65 355.57,-1271.69 349.35,-1274.85"/>
<polygon fill="midnightblue" stroke="midnightblue" points="459.85,-686.08 456.45,-676.04 452.85,-686.01 459.85,-686.08"/>
</g>
<!-- Node5 -->
<g id="node5" class="node">
<title>Node5</title>
<g id="a_node5"><a xlink:href="test__decmp_8c_a2d642d4d482b9ec7eca4568a95f5bdd4.html#a2d642d4d482b9ec7eca4568a95f5bdd4" target="_top" xlink:title=" ">
<polygon fill="white" stroke="black" points="202,-1234 202,-1253 346,-1253 346,-1234 202,-1234"/>
<text text-anchor="middle" x="274" y="-1241" font-family="Helvetica,sans-Serif" font-size="10.00">icu_compress_data_entity</text>
</a>
</g>
</g>
<!-- Node2&#45;&gt;Node5 -->
<g id="edge4" class="edge">
<title>Node2&#45;&gt;Node5</title>
<path fill="none" stroke="midnightblue" d="M456.18,-686.54C454.3,-776.85 442.01,-1144.98 366,-1224.5 360.42,-1230.33 353.55,-1234.61 346.11,-1237.72"/>
<polygon fill="midnightblue" stroke="midnightblue" points="459.68,-686.38 456.37,-676.32 452.68,-686.25 459.68,-686.38"/>
</g>
<!-- Node7 -->
<g id="node7" class="node">
<title>Node7</title>
<g id="a_node7"><a xlink:href="test__decmp_8c_a6e7a5e150e2c829836db3c42cdec2eec.html#a6e7a5e150e2c829836db3c42cdec2eec" target="_top" xlink:title=" ">
<polygon fill="white" stroke="black" points="182,-1196 182,-1215 366,-1215 366,-1196 182,-1196"/>
<text text-anchor="middle" x="274" y="-1203" font-family="Helvetica,sans-Serif" font-size="10.00">test_cmp_decmp_n_imagette_raw</text>
</a>
</g>
</g>
<!-- Node2&#45;&gt;Node7 -->
<g id="edge6" class="edge">
<title>Node2&#45;&gt;Node7</title>
<path fill="none" stroke="midnightblue" d="M455.9,-686.2C452.89,-771.96 436.59,-1111.75 366,-1185.5 361.97,-1189.71 357.28,-1193.13 352.19,-1195.9"/>
<polygon fill="midnightblue" stroke="midnightblue" points="459.41,-686.15 456.24,-676.04 452.41,-685.91 459.41,-686.15"/>
</g>
<!-- Node8 -->
<g id="node8" class="node">
<title>Node8</title>
<g id="a_node8"><a xlink:href="test__cmp__icu_8c_aca32c7d039600004c9cc5c6fe19b8ec5.html#aca32c7d039600004c9cc5c6fe19b8ec5" target="_top" xlink:title=" ">
<polygon fill="white" stroke="black" points="199,-1146.5 199,-1176.5 349,-1176.5 349,-1146.5 199,-1146.5"/>
<text text-anchor="start" x="207" y="-1164.5" font-family="Helvetica,sans-Serif" font-size="10.00">test_compress_background</text>
<text text-anchor="middle" x="274" y="-1153.5" font-family="Helvetica,sans-Serif" font-size="10.00">_error_cases</text>
</a>
</g>
</g>
<!-- Node2&#45;&gt;Node8 -->
<g id="edge7" class="edge">
<title>Node2&#45;&gt;Node8</title>
<path fill="none" stroke="midnightblue" d="M455.39,-686.54C450.52,-767.46 428.39,-1069.06 366,-1136.5 361.22,-1141.67 355.47,-1145.81 349.22,-1149.12"/>
<polygon fill="midnightblue" stroke="midnightblue" points="458.9,-686.44 455.99,-676.25 451.92,-686.03 458.9,-686.44"/>
</g>
<!-- Node9 -->
<g id="node9" class="node">
<title>Node9</title>
<g id="a_node9"><a xlink:href="test__cmp__icu_8c_a64b46c032fdef8789190209bd9c3c49b.html#a64b46c032fdef8789190209bd9c3c49b" target="_top" xlink:title=" ">
<polygon fill="white" stroke="black" points="218,-1097.5 218,-1127.5 330,-1127.5 330,-1097.5 218,-1097.5"/>
<text text-anchor="start" x="226" y="-1115.5" font-family="Helvetica,sans-Serif" font-size="10.00">test_compress_f_fx</text>
<text text-anchor="middle" x="274" y="-1104.5" font-family="Helvetica,sans-Serif" font-size="10.00">_efx_error_cases</text>
</a>
</g>
</g>
<!-- Node2&#45;&gt;Node9 -->
<g id="edge8" class="edge">
<title>Node2&#45;&gt;Node9</title>
<path fill="none" stroke="midnightblue" d="M454.92,-686.36C448.54,-761.61 422.29,-1027.94 366,-1087.5 356.55,-1097.5 343.5,-1103.63 330.23,-1107.35"/>
<polygon fill="midnightblue" stroke="midnightblue" points="458.41,-686.59 455.75,-676.34 451.44,-686.01 458.41,-686.59"/>
</g>
<!-- Node10 -->
<g id="node10" class="node">
<title>Node10</title>
<g id="a_node10"><a xlink:href="test__cmp__icu_8c_acd4ce1f38ffbf0d6258b81668836d96b.html#acd4ce1f38ffbf0d6258b81668836d96b" target="_top" xlink:title=" ">
<polygon fill="white" stroke="black" points="218,-1048.5 218,-1078.5 330,-1078.5 330,-1048.5 218,-1048.5"/>
<text text-anchor="start" x="226" y="-1066.5" font-family="Helvetica,sans-Serif" font-size="10.00">test_compress_f_fx</text>
<text text-anchor="middle" x="274" y="-1055.5" font-family="Helvetica,sans-Serif" font-size="10.00">_efx_ncob_ecob</text>
</a>
</g>
</g>
<!-- Node2&#45;&gt;Node10 -->
<g id="edge9" class="edge">
<title>Node2&#45;&gt;Node10</title>
<path fill="none" stroke="midnightblue" d="M454.33,-686.24C446.31,-755.61 416.22,-986.78 366,-1038.5 356.41,-1048.37 343.32,-1054.46 330.05,-1058.18"/>
<polygon fill="midnightblue" stroke="midnightblue" points="457.82,-686.55 455.46,-676.22 450.86,-685.76 457.82,-686.55"/>
</g>
<!-- Node11 -->
<g id="node11" class="node">
<title>Node11</title>
<g id="a_node11"><a xlink:href="test__cmp__icu_8c_a5fdfb76e3f52d4283fdcbf5e05ac7dd9.html#a5fdfb76e3f52d4283fdcbf5e05ac7dd9" target="_top" xlink:title=" ">
<polygon fill="white" stroke="black" points="218,-999.5 218,-1029.5 330,-1029.5 330,-999.5 218,-999.5"/>
<text text-anchor="start" x="226" y="-1017.5" font-family="Helvetica,sans-Serif" font-size="10.00">test_compress_f_fx</text>
<text text-anchor="middle" x="274" y="-1006.5" font-family="Helvetica,sans-Serif" font-size="10.00">_error_cases</text>
</a>
</g>
</g>
<!-- Node2&#45;&gt;Node11 -->
<g id="edge10" class="edge">
<title>Node2&#45;&gt;Node11</title>
<path fill="none" stroke="midnightblue" d="M457.19,-686.38C458.01,-742.5 452.33,-903.6 366,-989.5 356.36,-999.09 343.41,-1005.09 330.3,-1008.82"/>
<polygon fill="midnightblue" stroke="midnightblue" points="460.68,-685.98 456.95,-676.07 453.69,-686.15 460.68,-685.98"/>
</g>
<!-- Node12 -->
<g id="node12" class="node">
<title>Node12</title>
<g id="a_node12"><a xlink:href="test__cmp__icu_8c_ad6a880fe71de66a8a98a3f97d9e736da.html#ad6a880fe71de66a8a98a3f97d9e736da" target="_top" xlink:title=" ">
<polygon fill="white" stroke="black" points="218,-950.5 218,-980.5 330,-980.5 330,-950.5 218,-950.5"/>
<text text-anchor="start" x="226" y="-968.5" font-family="Helvetica,sans-Serif" font-size="10.00">test_compress_f_fx</text>
<text text-anchor="middle" x="274" y="-957.5" font-family="Helvetica,sans-Serif" font-size="10.00">_ncob_error_cases</text>
</a>
</g>
</g>
<!-- Node2&#45;&gt;Node12 -->
<g id="edge11" class="edge">
<title>Node2&#45;&gt;Node12</title>
<path fill="none" stroke="midnightblue" d="M456.02,-686.35C453.7,-736.57 440.45,-869.74 366,-940.5 356.14,-949.87 343.11,-955.79 330,-959.51"/>
<polygon fill="midnightblue" stroke="midnightblue" points="459.52,-686.31 456.39,-676.19 452.53,-686.05 459.52,-686.31"/>
</g>
<!-- Node13 -->
<g id="node13" class="node">
<title>Node13</title>
<g id="a_node13"><a xlink:href="test__cmp__icu_8c_a99545cc4ea3f1aa22be006d201e43f6d.html#a99545cc4ea3f1aa22be006d201e43f6d" target="_top" xlink:title=" ">
<polygon fill="white" stroke="black" points="195,-912 195,-931 353,-931 353,-912 195,-912"/>
<text text-anchor="middle" x="274" y="-919" font-family="Helvetica,sans-Serif" font-size="10.00">test_compress_imagette_diff</text>
</a>
</g>
</g>
<!-- Node2&#45;&gt;Node13 -->
<g id="edge12" class="edge">
<title>Node2&#45;&gt;Node13</title>
<path fill="none" stroke="midnightblue" d="M454.99,-686.47C450.43,-732.06 432.64,-844.24 366,-901.5 361.09,-905.72 355.5,-909.1 349.55,-911.82"/>
<polygon fill="midnightblue" stroke="midnightblue" points="458.49,-686.66 455.89,-676.39 451.52,-686.04 458.49,-686.66"/>
</g>
<!-- Node14 -->
<g id="node14" class="node">
<title>Node14</title>
<g id="a_node14"><a xlink:href="test__cmp__icu_8c_a960bb1de38c5e353aa1d1d2fb25435e8.html#a960bb1de38c5e353aa1d1d2fb25435e8" target="_top" xlink:title=" ">
<polygon fill="white" stroke="black" points="205.5,-862.5 205.5,-892.5 342.5,-892.5 342.5,-862.5 205.5,-862.5"/>
<text text-anchor="start" x="213.5" y="-880.5" font-family="Helvetica,sans-Serif" font-size="10.00">test_compress_imagette</text>
<text text-anchor="middle" x="274" y="-869.5" font-family="Helvetica,sans-Serif" font-size="10.00">_error_cases</text>
</a>
</g>
</g>
<!-- Node2&#45;&gt;Node14 -->
<g id="edge13" class="edge">
<title>Node2&#45;&gt;Node14</title>
<path fill="none" stroke="midnightblue" d="M452.56,-686.19C443.9,-724.24 419.56,-808.02 366,-852.5 359.19,-858.15 351.21,-862.53 342.85,-865.93"/>
<polygon fill="midnightblue" stroke="midnightblue" points="456,-686.86 454.68,-676.34 449.15,-685.38 456,-686.86"/>
</g>
<!-- Node15 -->
<g id="node15" class="node">
<title>Node15</title>
<g id="a_node15"><a xlink:href="test__cmp__icu_8c_a7c1162f048c55a098b4e6c1d9a0a884e.html#a7c1162f048c55a098b4e6c1d9a0a884e" target="_top" xlink:title=" ">
<polygon fill="white" stroke="black" points="205.5,-813.5 205.5,-843.5 342.5,-843.5 342.5,-813.5 205.5,-813.5"/>
<text text-anchor="start" x="213.5" y="-831.5" font-family="Helvetica,sans-Serif" font-size="10.00">test_compress_imagette</text>
<text text-anchor="middle" x="274" y="-820.5" font-family="Helvetica,sans-Serif" font-size="10.00">_model</text>
</a>
</g>
</g>
<!-- Node2&#45;&gt;Node15 -->
<g id="edge14" class="edge">
<title>Node2&#45;&gt;Node15</title>
<path fill="none" stroke="midnightblue" d="M449.18,-685.47C436.72,-715.23 408.52,-772.66 366,-803.5 358.97,-808.6 350.95,-812.66 342.65,-815.89"/>
<polygon fill="midnightblue" stroke="midnightblue" points="452.43,-686.77 452.93,-676.19 445.94,-684.15 452.43,-686.77"/>
</g>
<!-- Node16 -->
<g id="node16" class="node">
<title>Node16</title>
<g id="a_node16"><a xlink:href="test__cmp__icu_8c_a390abe2bb7591a75050558bdd4476593.html#a390abe2bb7591a75050558bdd4476593" target="_top" xlink:title=" ">
<polygon fill="white" stroke="black" points="193.5,-775 193.5,-794 354.5,-794 354.5,-775 193.5,-775"/>
<text text-anchor="middle" x="274" y="-782" font-family="Helvetica,sans-Serif" font-size="10.00">test_compress_imagette_raw</text>
</a>
</g>
</g>
<!-- Node2&#45;&gt;Node16 -->
<g id="edge15" class="edge">
<title>Node2&#45;&gt;Node16</title>
<path fill="none" stroke="midnightblue" d="M444.92,-684.68C429.65,-707.09 400.63,-744.64 366,-764.5 358.42,-768.85 349.99,-772.25 341.41,-774.91"/>
<polygon fill="midnightblue" stroke="midnightblue" points="448,-686.37 450.6,-676.1 442.16,-682.51 448,-686.37"/>
</g>
<!-- Node17 -->
<g id="node17" class="node">
<title>Node17</title>
<g id="a_node17"><a xlink:href="test__cmp__icu_8c_a3c859fa9247c65ae7a43e2bd682448e2.html#a3c859fa9247c65ae7a43e2bd682448e2" target="_top" xlink:title=" ">
<polygon fill="white" stroke="black" points="205.5,-725.5 205.5,-755.5 342.5,-755.5 342.5,-725.5 205.5,-725.5"/>
<text text-anchor="start" x="213.5" y="-743.5" font-family="Helvetica,sans-Serif" font-size="10.00">test_compress_imagette</text>
<text text-anchor="middle" x="274" y="-732.5" font-family="Helvetica,sans-Serif" font-size="10.00">_stuff</text>
</a>
</g>
</g>
<!-- Node2&#45;&gt;Node17 -->
<g id="edge16" class="edge">
<title>Node2&#45;&gt;Node17</title>
<path fill="none" stroke="midnightblue" d="M432.73,-681.32C414.89,-691.95 389.58,-706.02 366,-715.5 356.88,-719.17 347.03,-722.49 337.31,-725.42"/>
<polygon fill="midnightblue" stroke="midnightblue" points="434.59,-684.29 441.33,-676.11 430.96,-678.3 434.59,-684.29"/>
</g>
<!-- Node18 -->
<g id="node18" class="node">
<title>Node18</title>
<g id="a_node18"><a xlink:href="test__cmp__icu_8c_a4d05bd6cb0b420d45886997161470259.html#a4d05bd6cb0b420d45886997161470259" target="_top" xlink:title=" ">
<polygon fill="white" stroke="black" points="218.5,-676.5 218.5,-706.5 329.5,-706.5 329.5,-676.5 218.5,-676.5"/>
<text text-anchor="start" x="226.5" y="-694.5" font-family="Helvetica,sans-Serif" font-size="10.00">test_compress_l_fx</text>
<text text-anchor="middle" x="274" y="-683.5" font-family="Helvetica,sans-Serif" font-size="10.00">_efx_error_cases</text>
</a>
</g>
</g>
<!-- Node2&#45;&gt;Node18 -->
<g id="edge17" class="edge">
<title>Node2&#45;&gt;Node18</title>
<path fill="none" stroke="midnightblue" d="M391.92,-675.4C371.58,-678.2 349.32,-681.26 329.73,-683.96"/>
<polygon fill="midnightblue" stroke="midnightblue" points="392.62,-678.83 402.04,-674 391.66,-671.9 392.62,-678.83"/>
</g>
<!-- Node19 -->
<g id="node19" class="node">
<title>Node19</title>
<g id="a_node19"><a xlink:href="test__cmp__icu_8c_a0d3532f9e6f2e6e0c4392049e06c627f.html#a0d3532f9e6f2e6e0c4392049e06c627f" target="_top" xlink:title=" ">
<polygon fill="white" stroke="black" points="196,-627.5 196,-657.5 352,-657.5 352,-627.5 196,-627.5"/>
<text text-anchor="start" x="204" y="-645.5" font-family="Helvetica,sans-Serif" font-size="10.00">test_compress_l_fx</text>
<text text-anchor="middle" x="274" y="-634.5" font-family="Helvetica,sans-Serif" font-size="10.00">_efx_ncob_ecob_error_cases</text>
</a>
</g>
</g>
<!-- Node2&#45;&gt;Node19 -->
<g id="edge18" class="edge">
<title>Node2&#45;&gt;Node19</title>
<path fill="none" stroke="midnightblue" d="M391.92,-657.96C379.07,-656.26 365.46,-654.46 352.23,-652.71"/>
<polygon fill="midnightblue" stroke="midnightblue" points="391.67,-661.46 402.04,-659.3 392.59,-654.52 391.67,-661.46"/>
</g>
<!-- Node20 -->
<g id="node20" class="node">
<title>Node20</title>
<g id="a_node20"><a xlink:href="test__cmp__icu_8c_a13a2a26bd2eac1bd622925c6dcfbfb2d.html#a13a2a26bd2eac1bd622925c6dcfbfb2d" target="_top" xlink:title=" ">
<polygon fill="white" stroke="black" points="218.5,-578.5 218.5,-608.5 329.5,-608.5 329.5,-578.5 218.5,-578.5"/>
<text text-anchor="start" x="226.5" y="-596.5" font-family="Helvetica,sans-Serif" font-size="10.00">test_compress_l_fx</text>
<text text-anchor="middle" x="274" y="-585.5" font-family="Helvetica,sans-Serif" font-size="10.00">_error_cases</text>
</a>
</g>
</g>
<!-- Node2&#45;&gt;Node20 -->
<g id="edge19" class="edge">
<title>Node2&#45;&gt;Node20</title>
<path fill="none" stroke="midnightblue" d="M413.65,-653.24C409.63,-651.49 405.68,-649.58 402,-647.5 383.88,-637.24 384.51,-627.05 366,-617.5 354.82,-611.73 342.13,-607.26 329.86,-603.83"/>
<polygon fill="midnightblue" stroke="midnightblue" points="412.51,-656.55 423.1,-656.99 415.1,-650.04 412.51,-656.55"/>
</g>
<!-- Node21 -->
<g id="node21" class="node">
<title>Node21</title>
<g id="a_node21"><a xlink:href="test__cmp__icu_8c_ab725960063dc032566560118d582b79e.html#ab725960063dc032566560118d582b79e" target="_top" xlink:title=" ">
<polygon fill="white" stroke="black" points="218.5,-529.5 218.5,-559.5 329.5,-559.5 329.5,-529.5 218.5,-529.5"/>
<text text-anchor="start" x="226.5" y="-547.5" font-family="Helvetica,sans-Serif" font-size="10.00">test_compress_l_fx</text>
<text text-anchor="middle" x="274" y="-536.5" font-family="Helvetica,sans-Serif" font-size="10.00">_ncob_error_cases</text>
</a>
</g>
</g>
<!-- Node2&#45;&gt;Node21 -->
<g id="edge20" class="edge">
<title>Node2&#45;&gt;Node21</title>
<path fill="none" stroke="midnightblue" d="M407.51,-651.82C405.56,-650.5 403.71,-649.06 402,-647.5 373.49,-621.5 395.5,-593.37 366,-568.5 355.76,-559.86 342.74,-554.3 329.78,-550.72"/>
<polygon fill="midnightblue" stroke="midnightblue" points="406.12,-655.05 416.55,-656.88 409.54,-648.94 406.12,-655.05"/>
</g>
<!-- Node22 -->
<g id="node22" class="node">
<title>Node22</title>
<g id="a_node22"><a xlink:href="test__cmp__icu_8c_a13bf5ba0481601697942a0a485f7631c.html#a13bf5ba0481601697942a0a485f7631c" target="_top" xlink:title=" ">
<polygon fill="white" stroke="black" points="213.5,-480.5 213.5,-510.5 334.5,-510.5 334.5,-480.5 213.5,-480.5"/>
<text text-anchor="start" x="221.5" y="-498.5" font-family="Helvetica,sans-Serif" font-size="10.00">test_compress_offset</text>
<text text-anchor="middle" x="274" y="-487.5" font-family="Helvetica,sans-Serif" font-size="10.00">_error_cases</text>
</a>
</g>
</g>
<!-- Node2&#45;&gt;Node22 -->
<g id="edge21" class="edge">
<title>Node2&#45;&gt;Node22</title>
<path fill="none" stroke="midnightblue" d="M406.42,-651.53C404.85,-650.29 403.36,-648.95 402,-647.5 361.51,-604.45 408.13,-560.95 366,-519.5 357.38,-511.02 346.14,-505.44 334.52,-501.79"/>
<polygon fill="midnightblue" stroke="midnightblue" points="404.58,-654.51 414.9,-656.9 408.33,-648.6 404.58,-654.51"/>
</g>
<!-- Node23 -->
<g id="node23" class="node">
<title>Node23</title>
<g id="a_node23"><a xlink:href="test__cmp__icu_8c_a28f0f3239f94a5d75189300dd3ed35fc.html#a28f0f3239f94a5d75189300dd3ed35fc" target="_top" xlink:title=" ">
<polygon fill="white" stroke="black" points="217.5,-431.5 217.5,-461.5 330.5,-461.5 330.5,-431.5 217.5,-431.5"/>
<text text-anchor="start" x="225.5" y="-449.5" font-family="Helvetica,sans-Serif" font-size="10.00">test_compress_s_fx</text>
<text text-anchor="middle" x="274" y="-438.5" font-family="Helvetica,sans-Serif" font-size="10.00">_efx_error_cases</text>
</a>
</g>
</g>
<!-- Node2&#45;&gt;Node23 -->
<g id="edge22" class="edge">
<title>Node2&#45;&gt;Node23</title>
<path fill="none" stroke="midnightblue" d="M405.74,-651.2C404.41,-650.05 403.16,-648.82 402,-647.5 349.19,-587.04 421.12,-528.86 366,-470.5 356.69,-460.64 343.85,-454.65 330.75,-451.06"/>
<polygon fill="midnightblue" stroke="midnightblue" points="403.85,-654.15 414.09,-656.87 407.78,-648.36 403.85,-654.15"/>
</g>
<!-- Node24 -->
<g id="node24" class="node">
<title>Node24</title>
<g id="a_node24"><a xlink:href="test__cmp__icu_8c_a90fd6057131bbf0c9b398c9c99bea3f2.html#a90fd6057131bbf0c9b398c9c99bea3f2" target="_top" xlink:title=" ">
<polygon fill="white" stroke="black" points="196,-382.5 196,-412.5 352,-412.5 352,-382.5 196,-382.5"/>
<text text-anchor="start" x="204" y="-400.5" font-family="Helvetica,sans-Serif" font-size="10.00">test_compress_s_fx</text>
<text text-anchor="middle" x="274" y="-389.5" font-family="Helvetica,sans-Serif" font-size="10.00">_efx_ncob_ecob_error_cases</text>
</a>
</g>
</g>
<!-- Node2&#45;&gt;Node24 -->
<g id="edge23" class="edge">
<title>Node2&#45;&gt;Node24</title>
<path fill="none" stroke="midnightblue" d="M405.24,-650.88C404.09,-649.83 403,-648.7 402,-647.5 336.74,-569.49 434.24,-496.92 366,-421.5 362.05,-417.14 357.42,-413.53 352.36,-410.55"/>
<polygon fill="midnightblue" stroke="midnightblue" points="403.49,-653.93 413.67,-656.86 407.54,-648.22 403.49,-653.93"/>
</g>
<!-- Node25 -->
<g id="node25" class="node">
<title>Node25</title>
<g id="a_node25"><a xlink:href="test__cmp__icu_8c_aa29971f14aa8c01058cf5884ccfb0b46.html#aa29971f14aa8c01058cf5884ccfb0b46" target="_top" xlink:title=" ">
<polygon fill="white" stroke="black" points="217.5,-333.5 217.5,-363.5 330.5,-363.5 330.5,-333.5 217.5,-333.5"/>
<text text-anchor="start" x="225.5" y="-351.5" font-family="Helvetica,sans-Serif" font-size="10.00">test_compress_s_fx</text>
<text text-anchor="middle" x="274" y="-340.5" font-family="Helvetica,sans-Serif" font-size="10.00">_error_cases</text>
</a>
</g>
</g>
<!-- Node2&#45;&gt;Node25 -->
<g id="edge24" class="edge">
<title>Node2&#45;&gt;Node25</title>
<path fill="none" stroke="midnightblue" d="M405.2,-650.92C404.06,-649.85 402.99,-648.71 402,-647.5 324.23,-551.87 447.42,-465.05 366,-372.5 356.93,-362.2 344.02,-356.07 330.76,-352.49"/>
<polygon fill="midnightblue" stroke="midnightblue" points="403.41,-653.94 413.57,-656.94 407.5,-648.26 403.41,-653.94"/>
</g>
<!-- Node26 -->
<g id="node26" class="node">
<title>Node26</title>
<g id="a_node26"><a xlink:href="test__cmp__icu_8c_afa54c8348f46913b7c39517424f7e547.html#afa54c8348f46913b7c39517424f7e547" target="_top" xlink:title=" ">
<polygon fill="white" stroke="black" points="217.5,-284.5 217.5,-314.5 330.5,-314.5 330.5,-284.5 217.5,-284.5"/>
<text text-anchor="start" x="225.5" y="-302.5" font-family="Helvetica,sans-Serif" font-size="10.00">test_compress_s_fx</text>
<text text-anchor="middle" x="274" y="-291.5" font-family="Helvetica,sans-Serif" font-size="10.00">_model_multi</text>
</a>
</g>
</g>
<!-- Node2&#45;&gt;Node26 -->
<g id="edge25" class="edge">
<title>Node2&#45;&gt;Node26</title>
<path fill="none" stroke="midnightblue" d="M405.1,-650.88C403.99,-649.82 402.96,-648.7 402,-647.5 311.69,-534.21 460.64,-433.21 366,-323.5 357.04,-313.11 344.16,-306.95 330.9,-303.37"/>
<polygon fill="midnightblue" stroke="midnightblue" points="403.1,-653.75 413.23,-656.85 407.24,-648.11 403.1,-653.75"/>
</g>
<!-- Node27 -->
<g id="node27" class="node">
<title>Node27</title>
<g id="a_node27"><a xlink:href="test__cmp__icu_8c_a70a6d23f621dd0ce0ffb110b9c77116f.html#a70a6d23f621dd0ce0ffb110b9c77116f" target="_top" xlink:title=" ">
<polygon fill="white" stroke="black" points="217.5,-235.5 217.5,-265.5 330.5,-265.5 330.5,-235.5 217.5,-235.5"/>
<text text-anchor="start" x="225.5" y="-253.5" font-family="Helvetica,sans-Serif" font-size="10.00">test_compress_s_fx</text>
<text text-anchor="middle" x="274" y="-242.5" font-family="Helvetica,sans-Serif" font-size="10.00">_ncob_error_cases</text>
</a>
</g>
</g>
<!-- Node2&#45;&gt;Node27 -->
<g id="edge26" class="edge">
<title>Node2&#45;&gt;Node27</title>
<path fill="none" stroke="midnightblue" d="M405.07,-650.9C403.98,-649.84 402.95,-648.71 402,-647.5 350.56,-582.01 419.94,-337.95 366,-274.5 357,-263.92 343.95,-257.72 330.52,-254.16"/>
<polygon fill="midnightblue" stroke="midnightblue" points="403.06,-653.76 413.17,-656.9 407.22,-648.13 403.06,-653.76"/>
</g>
<!-- Node28 -->
<g id="node28" class="node">
<title>Node28</title>
<g id="a_node28"><a xlink:href="test__cmp__icu_8c_ab9f5f00613d43e2b46aa130d472674cb.html#ab9f5f00613d43e2b46aa130d472674cb" target="_top" xlink:title=" ">
<polygon fill="white" stroke="black" points="205.5,-197 205.5,-216 342.5,-216 342.5,-197 205.5,-197"/>
<text text-anchor="middle" x="274" y="-204" font-family="Helvetica,sans-Serif" font-size="10.00">test_compress_s_fx_raw</text>
</a>
</g>
</g>
<!-- Node2&#45;&gt;Node28 -->
<g id="edge27" class="edge">
<title>Node2&#45;&gt;Node28</title>
<path fill="none" stroke="midnightblue" d="M405.06,-650.91C403.96,-649.85 402.94,-648.71 402,-647.5 344.28,-573.16 428.42,-295.95 366,-225.5 359.69,-218.37 351.45,-213.52 342.51,-210.28"/>
<polygon fill="midnightblue" stroke="midnightblue" points="403.02,-653.76 413.13,-656.93 407.21,-648.15 403.02,-653.76"/>
</g>
<!-- Node29 -->
<g id="node29" class="node">
<title>Node29</title>
<g id="a_node29"><a xlink:href="test__cmp__icu_8c_ad8cefbf7c0531178a3c5d00ed71cfe61.html#ad8cefbf7c0531178a3c5d00ed71cfe61" target="_top" xlink:title=" ">
<polygon fill="white" stroke="black" points="217.5,-147.5 217.5,-177.5 330.5,-177.5 330.5,-147.5 217.5,-147.5"/>
<text text-anchor="start" x="225.5" y="-165.5" font-family="Helvetica,sans-Serif" font-size="10.00">test_compress_s_fx</text>
<text text-anchor="middle" x="274" y="-154.5" font-family="Helvetica,sans-Serif" font-size="10.00">_staff</text>
</a>
</g>
</g>
<!-- Node2&#45;&gt;Node29 -->
<g id="edge28" class="edge">
<title>Node2&#45;&gt;Node29</title>
<path fill="none" stroke="midnightblue" d="M405.05,-650.92C403.96,-649.85 402.94,-648.72 402,-647.5 339.4,-566.29 431.3,-266.55 366,-187.5 357.13,-176.76 344.12,-170.4 330.69,-166.69"/>
<polygon fill="midnightblue" stroke="midnightblue" points="403,-653.76 413.11,-656.95 407.2,-648.16 403,-653.76"/>
</g>
<!-- Node30 -->
<g id="node30" class="node">
<title>Node30</title>
<g id="a_node30"><a xlink:href="test__cmp__icu_8c_aee4858f3ea226c6da9e4a9ed54475b1d.html#aee4858f3ea226c6da9e4a9ed54475b1d" target="_top" xlink:title=" ">
<polygon fill="white" stroke="black" points="204.5,-98.5 204.5,-128.5 343.5,-128.5 343.5,-98.5 204.5,-98.5"/>
<text text-anchor="start" x="212.5" y="-116.5" font-family="Helvetica,sans-Serif" font-size="10.00">test_compress_smearing</text>
<text text-anchor="middle" x="274" y="-105.5" font-family="Helvetica,sans-Serif" font-size="10.00">_error_cases</text>
</a>
</g>
</g>
<!-- Node2&#45;&gt;Node30 -->
<g id="edge29" class="edge">
<title>Node2&#45;&gt;Node30</title>
<path fill="none" stroke="midnightblue" d="M405.03,-650.93C403.95,-649.86 402.93,-648.72 402,-647.5 332.98,-557.25 438.47,-225 366,-137.5 360.06,-130.33 352.25,-125.16 343.71,-121.46"/>
<polygon fill="midnightblue" stroke="midnightblue" points="402.98,-653.76 413.08,-656.97 407.18,-648.17 402.98,-653.76"/>
</g>
<!-- Node31 -->
<g id="node31" class="node">
<title>Node31</title>
<g id="a_node31"><a xlink:href="test__cmp__icu_8c_a8db99614e8a5d384edb82fe466e15042.html#a8db99614e8a5d384edb82fe466e15042" target="_top" xlink:title=" ">
<polygon fill="white" stroke="black" points="207,-49.5 207,-79.5 341,-79.5 341,-49.5 207,-49.5"/>
<text text-anchor="start" x="215" y="-67.5" font-family="Helvetica,sans-Serif" font-size="10.00">test_icu_compress_data</text>
<text text-anchor="middle" x="274" y="-56.5" font-family="Helvetica,sans-Serif" font-size="10.00">_error_cases</text>
</a>
</g>
</g>
<!-- Node2&#45;&gt;Node31 -->
<g id="edge30" class="edge">
<title>Node2&#45;&gt;Node31</title>
<path fill="none" stroke="midnightblue" d="M405.02,-650.94C403.94,-649.87 402.93,-648.72 402,-647.5 326.68,-548.39 445.1,-184.61 366,-88.5 359.46,-80.55 350.63,-75.06 341.03,-71.3"/>
<polygon fill="midnightblue" stroke="midnightblue" points="402.96,-653.76 413.05,-656.99 407.18,-648.17 402.96,-653.76"/>
</g>
<!-- Node32 -->
<g id="node32" class="node">
<title>Node32</title>
<g id="a_node32"><a xlink:href="test__cmp__decmp_8c_abb20ed18a3c6ba0fc67ecef2d629dec0.html#abb20ed18a3c6ba0fc67ecef2d629dec0" target="_top" xlink:title=" ">
<polygon fill="white" stroke="black" points="201,-0.5 201,-30.5 347,-30.5 347,-0.5 201,-0.5"/>
<text text-anchor="start" x="209" y="-18.5" font-family="Helvetica,sans-Serif" font-size="10.00">test_random_compression</text>
<text text-anchor="middle" x="274" y="-7.5" font-family="Helvetica,sans-Serif" font-size="10.00">_decompression2</text>
</a>
</g>
</g>
<!-- Node2&#45;&gt;Node32 -->
<g id="edge31" class="edge">
<title>Node2&#45;&gt;Node32</title>
<path fill="none" stroke="midnightblue" d="M404.63,-650.56C403.7,-649.6 402.82,-648.58 402,-647.5 320.39,-539.53 451.74,-144.23 366,-39.5 360.93,-33.31 354.46,-28.6 347.33,-25.05"/>
<polygon fill="midnightblue" stroke="midnightblue" points="402.72,-653.5 412.77,-656.85 407,-647.97 402.72,-653.5"/>
</g>
<!-- Node4 -->
<g id="node4" class="node">
<title>Node4</title>
<g id="a_node4"><a xlink:href="test__cmp__decmp_8c_af3c162694b40683e0aa25c61a49cdafc.html#af3c162694b40683e0aa25c61a49cdafc" target="_top" xlink:title="random compression decompression test">
<polygon fill="white" stroke="black" points="0,-1270.5 0,-1300.5 146,-1300.5 146,-1270.5 0,-1270.5"/>
<text text-anchor="start" x="8" y="-1288.5" font-family="Helvetica,sans-Serif" font-size="10.00">test_random_compression</text>
<text text-anchor="middle" x="73" y="-1277.5" font-family="Helvetica,sans-Serif" font-size="10.00">_decompression</text>
</a>
</g>
</g>
<!-- Node3&#45;&gt;Node4 -->
<g id="edge3" class="edge">
<title>Node3&#45;&gt;Node4</title>
<path fill="none" stroke="midnightblue" d="M184.63,-1284.94C171.72,-1285.01 158.55,-1285.08 146.01,-1285.14"/>
<polygon fill="midnightblue" stroke="midnightblue" points="184.94,-1288.44 194.92,-1284.89 184.9,-1281.44 184.94,-1288.44"/>
</g>
<!-- Node6 -->
<g id="node6" class="node">
<title>Node6</title>
<g id="a_node6"><a xlink:href="test__decmp_8c_a1a33e2fcbf484c79dfe661b280386f6b.html#a1a33e2fcbf484c79dfe661b280386f6b" target="_top" xlink:title=" ">
<polygon fill="white" stroke="black" points="0,-1232 0,-1251 146,-1251 146,-1232 0,-1232"/>
<text text-anchor="middle" x="73" y="-1239" font-family="Helvetica,sans-Serif" font-size="10.00">test_cmp_decmp_s_fx_diff</text>
</a>
</g>
</g>
<!-- Node5&#45;&gt;Node6 -->
<g id="edge5" class="edge">
<title>Node5&#45;&gt;Node6</title>
<path fill="none" stroke="midnightblue" d="M191.7,-1242.68C176.67,-1242.53 161.06,-1242.37 146.32,-1242.23"/>
<polygon fill="midnightblue" stroke="midnightblue" points="191.96,-1246.19 202,-1242.79 192.03,-1239.19 191.96,-1246.19"/>
</g>
</g>
</svg>
        <g id="navigator" transform="translate(0 0)" fill="#404254">
                <rect fill="#f2f5e9" fill-opacity="0.5" stroke="#606060" stroke-width=".5" x="0" y="0" width="60" height="60"/>
                <use id="zoomplus" xlink:href="#zoomPlus" x="17" y="9" onmousedown="handleZoom(evt,'in')"/>
                <use id="zoomminus" xlink:href="#zoomMin" x="42" y="9" onmousedown="handleZoom(evt,'out')"/>
                <use id="reset" xlink:href="#resetDef" x="30" y="36" onmousedown="handleReset()"/>
                <g id="arrowUp" xlink:href="#dirArrow" transform="translate(30 24)" onmousedown="handlePan(0,-1)">
                  <use xlink:href="#rim" fill="#404040">
                        <set attributeName="fill" to="#808080" begin="arrowUp.mouseover" end="arrowUp.mouseout"/>
                  </use>
                  <path fill="none" stroke="white" stroke-width="1.5" d="M0,-3.0v7 M-2.5,-0.5L0,-3.0L2.5,-0.5"/>
                </g>
                <g id="arrowRight" xlink:href="#dirArrow" transform="rotate(90) translate(36 -43)" onmousedown="handlePan(1,0)">
                  <use xlink:href="#rim" fill="#404040">
                        <set attributeName="fill" to="#808080" begin="arrowRight.mouseover" end="arrowRight.mouseout"/>
                  </use>
                  <path fill="none" stroke="white" stroke-width="1.5" d="M0,-3.0v7 M-2.5,-0.5L0,-3.0L2.5,-0.5"/>
                </g>
                <g id="arrowDown" xlink:href="#dirArrow" transform="rotate(180) translate(-30 -48)" onmousedown="handlePan(0,1)">
                  <use xlink:href="#rim" fill="#404040">
                        <set attributeName="fill" to="#808080" begin="arrowDown.mouseover" end="arrowDown.mouseout"/>
                  </use>
                  <path fill="none" stroke="white" stroke-width="1.5" d="M0,-3.0v7 M-2.5,-0.5L0,-3.0L2.5,-0.5"/>
                </g>
                <g id="arrowLeft" xlink:href="#dirArrow" transform="rotate(270) translate(-36 17)" onmousedown="handlePan(-1,0)">
                  <use xlink:href="#rim" fill="#404040">
                        <set attributeName="fill" to="#808080" begin="arrowLeft.mouseover" end="arrowLeft.mouseout"/>
                  </use>
                  <path fill="none" stroke="white" stroke-width="1.5" d="M0,-3.0v7 M-2.5,-0.5L0,-3.0L2.5,-0.5"/>
                </g>
        </g>
        <svg viewBox="0 0 15 15" width="100%" height="30px" preserveAspectRatio="xMaxYMin meet">
         <g id="arrow_out" transform="scale(0.3 0.3)">
          <a xlink:href="cmp__icu_8c_a4bb1524d3e1c659eef6d81fd0bade559_a4bb1524d3e1c659eef6d81fd0bade559_icgraph_org.svg" target="_base">
           <rect id="button" ry="5" rx="5" y="6" x="6" height="38" width="38"
                fill="#f2f5e9" fill-opacity="0.5" stroke="#606060" stroke-width="1.0"/>
           <path id="arrow"
             d="M 11.500037,31.436501 C 11.940474,20.09759 22.043105,11.32322 32.158766,21.979434 L 37.068811,17.246167 C 37.068811,17.246167 37.088388,32 37.088388,32 L 22.160133,31.978069 C 22.160133,31.978069 26.997745,27.140456 26.997745,27.140456 C 18.528582,18.264221 13.291696,25.230495 11.500037,31.436501 z"
             style="fill:#404040;"/>
          </a>
         </g>
        </svg>
</svg>
