<?xml version="1.0" encoding="UTF-8" standalone="no"?>
<!DOCTYPE svg PUBLIC "-//W3C//DTD SVG 1.1//EN"
 "http://www.w3.org/Graphics/SVG/1.1/DTD/svg11.dtd">
<!-- Generated by graphviz version 2.43.0 (0)
 -->
<!-- Title: cmp_ent_get_cmp_data_size Pages: 1 -->
<!--zoomable 116 -->
<svg id="main" version="1.1" xmlns="http://www.w3.org/2000/svg" xmlns:xlink="http://www.w3.org/1999/xlink" xml:space="preserve" onload="init(evt)">
<style type="text/css"><![CDATA[
.edge:hover path { stroke: red; }
.edge:hover polygon { stroke: red; fill: red; }
]]></style>
<script type="text/javascript"><![CDATA[
var edges = document.getElementsByTagName('g');
if (edges && edges.length) {
  for (var i=0;i<edges.length;i++) {
    if (edges[i].id.substr(0,4)=='edge') {
      edges[i].setAttribute('class','edge');
    }
  }
}
]]></script>
        <defs>
                <circle id="rim" cx="0" cy="0" r="7"/>
                <circle id="rim2" cx="0" cy="0" r="3.5"/>
                <g id="zoomPlus">
                        <use xlink:href="#rim" fill="#404040">
                                <set attributeName="fill" to="#808080" begin="zoomplus.mouseover" end="zoomplus.mouseout"/>
                        </use>
                        <path d="M-4,0h8M0,-4v8" fill="none" stroke="white" stroke-width="1.5" pointer-events="none"/>
                </g>
                <g id="zoomMin">
                        <use xlink:href="#rim" fill="#404040">
                                <set attributeName="fill" to="#808080" begin="zoomminus.mouseover" end="zoomminus.mouseout"/>
                        </use>
                        <path d="M-4,0h8" fill="none" stroke="white" stroke-width="1.5" pointer-events="none"/>
                </g>
                <g id="dirArrow">
                        <path fill="none" stroke="white" stroke-width="1.5" d="M0,-3.0v7 M-2.5,-0.5L0,-3.0L2.5,-0.5"/>
                </g>
               <g id="resetDef">
                       <use xlink:href="#rim2" fill="#404040">
                               <set attributeName="fill" to="#808080" begin="reset.mouseover" end="reset.mouseout"/>
                       </use>
               </g>
        </defs>

<script type="text/javascript">
var viewWidth = 676;
var viewHeight = 116;
var sectionId = 'dynsection-0';
</script>
<script xlink:href="svgpan.js"/>
<svg id="graph" class="graph">
<g id="viewport">
<title>cmp_ent_get_cmp_data_size</title>
<polygon fill="white" stroke="transparent" points="-4,4 -4,-111.5 672,-111.5 672,4 -4,4"/>
<!-- Node1 -->
<g id="node1" class="node">
<title>Node1</title>
<g id="a_node1"><a xlink:title="get the size of the compressed data based on the set data product type and compressed entity size in ...">
<polygon fill="#bfbfbf" stroke="black" points="0,-31 0,-50 158,-50 158,-31 0,-31"/>
<text text-anchor="middle" x="79" y="-38" font-family="Helvetica,sans-Serif" font-size="10.00">cmp_ent_get_cmp_data_size</text>
</a>
</g>
</g>
<!-- Node2 -->
<g id="node2" class="node">
<title>Node2</title>
<g id="a_node2"><a xlink:href="cmp__entity_8c_a802778418cfd52cf107c7af6d0405e8a.html#a802778418cfd52cf107c7af6d0405e8a" target="_top" xlink:title="get the size of the compression entity header based on the set data product type in compression entit...">
<polygon fill="white" stroke="black" points="194,-50 194,-69 319,-69 319,-50 194,-50"/>
<text text-anchor="middle" x="256.5" y="-57" font-family="Helvetica,sans-Serif" font-size="10.00">cmp_ent_get_hdr_size</text>
</a>
</g>
</g>
<!-- Node1&#45;&gt;Node2 -->
<g id="edge1" class="edge">
<title>Node1&#45;&gt;Node2</title>
<path fill="none" stroke="midnightblue" d="M158.25,-48.97C166.77,-49.89 175.4,-50.83 183.83,-51.74"/>
<polygon fill="midnightblue" stroke="midnightblue" points="183.67,-55.24 193.99,-52.84 184.42,-48.28 183.67,-55.24"/>
</g>
<!-- Node7 -->
<g id="node7" class="node">
<title>Node7</title>
<g id="a_node7"><a xlink:href="cmp__entity_8c_a5046b9ebae291aeeba89b4f9eaf43673.html#a5046b9ebae291aeeba89b4f9eaf43673" target="_top" xlink:title="get the size of the compression entity from the compression entity header">
<polygon fill="white" stroke="black" points="204.5,-12 204.5,-31 308.5,-31 308.5,-12 204.5,-12"/>
<text text-anchor="middle" x="256.5" y="-19" font-family="Helvetica,sans-Serif" font-size="10.00">cmp_ent_get_size</text>
</a>
</g>
</g>
<!-- Node1&#45;&gt;Node7 -->
<g id="edge6" class="edge">
<title>Node1&#45;&gt;Node7</title>
<path fill="none" stroke="midnightblue" d="M158.25,-32.03C170.34,-30.72 182.68,-29.38 194.32,-28.12"/>
<polygon fill="midnightblue" stroke="midnightblue" points="194.79,-31.59 204.35,-27.04 194.03,-24.63 194.79,-31.59"/>
</g>
<!-- Node3 -->
<g id="node3" class="node">
<title>Node3</title>
<g id="a_node3"><a xlink:href="cmp__entity_8c_ac4f3e5eb03e7dc0f1a646dd150543af5.html#ac4f3e5eb03e7dc0f1a646dd150543af5" target="_top" xlink:title="calculate the size of the compression entity header based on a compression data product type">
<polygon fill="white" stroke="black" points="360,-88 360,-107 484,-107 484,-88 360,-88"/>
<text text-anchor="middle" x="422" y="-95" font-family="Helvetica,sans-Serif" font-size="10.00">cmp_ent_cal_hdr_size</text>
</a>
</g>
</g>
<!-- Node2&#45;&gt;Node3 -->
<g id="edge2" class="edge">
<title>Node2&#45;&gt;Node3</title>
<path fill="none" stroke="midnightblue" d="M298.76,-69.09C320.43,-74.13 347.18,-80.34 370.13,-85.68"/>
<polygon fill="midnightblue" stroke="midnightblue" points="369.51,-89.13 380.04,-87.98 371.09,-82.31 369.51,-89.13"/>
</g>
<!-- Node5 -->
<g id="node5" class="node">
<title>Node5</title>
<g id="a_node5"><a xlink:href="cmp__entity_8c_a2f2b18a1db94847afbfc30a8e7f142cf.html#a2f2b18a1db94847afbfc30a8e7f142cf" target="_top" xlink:title="get data_type from the compression entity header">
<polygon fill="white" stroke="black" points="355,-50 355,-69 489,-69 489,-50 355,-50"/>
<text text-anchor="middle" x="422" y="-57" font-family="Helvetica,sans-Serif" font-size="10.00">cmp_ent_get_data_type</text>
</a>
</g>
</g>
<!-- Node2&#45;&gt;Node5 -->
<g id="edge4" class="edge">
<title>Node2&#45;&gt;Node5</title>
<path fill="none" stroke="midnightblue" d="M319.31,-59.5C327.54,-59.5 336.06,-59.5 344.5,-59.5"/>
<polygon fill="midnightblue" stroke="midnightblue" points="344.73,-63 354.73,-59.5 344.73,-56 344.73,-63"/>
</g>
<!-- Node6 -->
<g id="node6" class="node">
<title>Node6</title>
<g id="a_node6"><a xlink:href="cmp__entity_8c_a8edb7fa093195536f03038be2a5341a4.html#a8edb7fa093195536f03038be2a5341a4" target="_top" xlink:title="get the raw bit from the data_type field of the compression entity header">
<polygon fill="white" stroke="black" points="355,-0.5 355,-30.5 489,-30.5 489,-0.5 355,-0.5"/>
<text text-anchor="start" x="363" y="-18.5" font-family="Helvetica,sans-Serif" font-size="10.00">cmp_ent_get_data_type</text>
<text text-anchor="middle" x="422" y="-7.5" font-family="Helvetica,sans-Serif" font-size="10.00">_raw_bit</text>
</a>
</g>
</g>
<!-- Node2&#45;&gt;Node6 -->
<g id="edge5" class="edge">
<title>Node2&#45;&gt;Node6</title>
<path fill="none" stroke="midnightblue" d="M292.98,-49.95C311.22,-45.04 334.05,-38.9 355.36,-33.17"/>
<polygon fill="midnightblue" stroke="midnightblue" points="356.27,-36.54 365.02,-30.57 354.45,-29.78 356.27,-36.54"/>
</g>
<!-- Node4 -->
<g id="node4" class="node">
<title>Node4</title>
<g id="a_node4"><a xlink:href="cmp__support_8c_af2129b98a4b5c7f856e97776962d7881.html#af2129b98a4b5c7f856e97776962d7881" target="_top" xlink:title="check if the compression entity data product type is supported">
<polygon fill="white" stroke="black" points="525,-88 525,-107 668,-107 668,-88 525,-88"/>
<text text-anchor="middle" x="596.5" y="-95" font-family="Helvetica,sans-Serif" font-size="10.00">cmp_data_type_is_invalid</text>
</a>
</g>
</g>
<!-- Node3&#45;&gt;Node4 -->
<g id="edge3" class="edge">
<title>Node3&#45;&gt;Node4</title>
<path fill="none" stroke="midnightblue" d="M484.3,-97.5C494.18,-97.5 504.54,-97.5 514.79,-97.5"/>
<polygon fill="midnightblue" stroke="midnightblue" points="514.98,-101 524.98,-97.5 514.98,-94 514.98,-101"/>
</g>
</g>
</svg>
        <g id="navigator" transform="translate(0 0)" fill="#404254">
                <rect fill="#f2f5e9" fill-opacity="0.5" stroke="#606060" stroke-width=".5" x="0" y="0" width="60" height="60"/>
                <use id="zoomplus" xlink:href="#zoomPlus" x="17" y="9" onmousedown="handleZoom(evt,'in')"/>
                <use id="zoomminus" xlink:href="#zoomMin" x="42" y="9" onmousedown="handleZoom(evt,'out')"/>
                <use id="reset" xlink:href="#resetDef" x="30" y="36" onmousedown="handleReset()"/>
                <g id="arrowUp" xlink:href="#dirArrow" transform="translate(30 24)" onmousedown="handlePan(0,-1)">
                  <use xlink:href="#rim" fill="#404040">
                        <set attributeName="fill" to="#808080" begin="arrowUp.mouseover" end="arrowUp.mouseout"/>
                  </use>
                  <path fill="none" stroke="white" stroke-width="1.5" d="M0,-3.0v7 M-2.5,-0.5L0,-3.0L2.5,-0.5"/>
                </g>
                <g id="arrowRight" xlink:href="#dirArrow" transform="rotate(90) translate(36 -43)" onmousedown="handlePan(1,0)">
                  <use xlink:href="#rim" fill="#404040">
                        <set attributeName="fill" to="#808080" begin="arrowRight.mouseover" end="arrowRight.mouseout"/>
                  </use>
                  <path fill="none" stroke="white" stroke-width="1.5" d="M0,-3.0v7 M-2.5,-0.5L0,-3.0L2.5,-0.5"/>
                </g>
                <g id="arrowDown" xlink:href="#dirArrow" transform="rotate(180) translate(-30 -48)" onmousedown="handlePan(0,1)">
                  <use xlink:href="#rim" fill="#404040">
                        <set attributeName="fill" to="#808080" begin="arrowDown.mouseover" end="arrowDown.mouseout"/>
                  </use>
                  <path fill="none" stroke="white" stroke-width="1.5" d="M0,-3.0v7 M-2.5,-0.5L0,-3.0L2.5,-0.5"/>
                </g>
                <g id="arrowLeft" xlink:href="#dirArrow" transform="rotate(270) translate(-36 17)" onmousedown="handlePan(-1,0)">
                  <use xlink:href="#rim" fill="#404040">
                        <set attributeName="fill" to="#808080" begin="arrowLeft.mouseover" end="arrowLeft.mouseout"/>
                  </use>
                  <path fill="none" stroke="white" stroke-width="1.5" d="M0,-3.0v7 M-2.5,-0.5L0,-3.0L2.5,-0.5"/>
                </g>
        </g>
        <svg viewBox="0 0 15 15" width="100%" height="30px" preserveAspectRatio="xMaxYMin meet">
         <g id="arrow_out" transform="scale(0.3 0.3)">
          <a xlink:href="cmp__entity_8c_a6fc83a1c918c2d0c565f8f828fce62b7_a6fc83a1c918c2d0c565f8f828fce62b7_cgraph_org.svg" target="_base">
           <rect id="button" ry="5" rx="5" y="6" x="6" height="38" width="38"
                fill="#f2f5e9" fill-opacity="0.5" stroke="#606060" stroke-width="1.0"/>
           <path id="arrow"
             d="M 11.500037,31.436501 C 11.940474,20.09759 22.043105,11.32322 32.158766,21.979434 L 37.068811,17.246167 C 37.068811,17.246167 37.088388,32 37.088388,32 L 22.160133,31.978069 C 22.160133,31.978069 26.997745,27.140456 26.997745,27.140456 C 18.528582,18.264221 13.291696,25.230495 11.500037,31.436501 z"
             style="fill:#404040;"/>
          </a>
         </g>
        </svg>
</svg>
