<?xml version="1.0" encoding="UTF-8" standalone="no"?>
<!DOCTYPE svg PUBLIC "-//W3C//DTD SVG 1.1//EN"
 "http://www.w3.org/Graphics/SVG/1.1/DTD/svg11.dtd">
<!-- Generated by graphviz version 2.43.0 (0)
 -->
<!-- Title: cmp_ent_set_ima_golomb_par Pages: 1 -->
<svg width="935pt" height="340pt"
 viewBox="0.00 0.00 935.00 339.50" xmlns="http://www.w3.org/2000/svg" xmlns:xlink="http://www.w3.org/1999/xlink">
<g id="graph0" class="graph" transform="scale(1 1) rotate(0) translate(4 335.5)">
<title>cmp_ent_set_ima_golomb_par</title>
<polygon fill="white" stroke="transparent" points="-4,4 -4,-335.5 931,-335.5 931,4 -4,4"/>
<!-- Node1 -->
<g id="node1" class="node">
<title>Node1</title>
<g id="a_node1"><a xlink:title="set used Golomb parameter in the (adaptive) imagette specific compression entity header">
<polygon fill="#bfbfbf" stroke="black" points="761,-44.5 761,-63.5 927,-63.5 927,-44.5 761,-44.5"/>
<text text-anchor="middle" x="844" y="-51.5" font-family="Helvetica,sans-Serif" font-size="10.00">cmp_ent_set_ima_golomb_par</text>
</a>
</g>
</g>
<!-- Node2 -->
<g id="node2" class="node">
<title>Node2</title>
<g id="a_node2"><a xlink:href="cmp__entity_8c_a553b4a765f1cfcd37f82a818db2cf2b9.html#a553b4a765f1cfcd37f82a818db2cf2b9" target="_top" xlink:title="write the compression parameters from a compression configuration into the compression entity header">
<polygon fill="white" stroke="black" points="583,-91.5 583,-110.5 724,-110.5 724,-91.5 583,-91.5"/>
<text text-anchor="middle" x="653.5" y="-98.5" font-family="Helvetica,sans-Serif" font-size="10.00">cmp_ent_write_cmp_pars</text>
</a>
</g>
</g>
<!-- Node1&#45;&gt;Node2 -->
<g id="edge1" class="edge">
<title>Node1&#45;&gt;Node2</title>
<path fill="none" stroke="midnightblue" d="M794.93,-65.99C763.28,-73.88 722.39,-84.07 692.91,-91.42"/>
<polygon fill="midnightblue" stroke="midnightblue" points="796,-69.33 804.85,-63.51 794.3,-62.53 796,-69.33"/>
</g>
<!-- Node14 -->
<g id="node14" class="node">
<title>Node14</title>
<g id="a_node14"><a xlink:href="cmp__entity_8c_aac25fce5ba205dafed1781d24250c7b3.html#aac25fce5ba205dafed1781d24250c7b3" target="_top" xlink:title="write the parameters from the RDCU decompression information structure in the compression entity head...">
<polygon fill="white" stroke="black" points="596,-39 596,-69 711,-69 711,-39 596,-39"/>
<text text-anchor="start" x="604" y="-57" font-family="Helvetica,sans-Serif" font-size="10.00">cmp_ent_write_rdcu</text>
<text text-anchor="middle" x="653.5" y="-46" font-family="Helvetica,sans-Serif" font-size="10.00">_cmp_pars</text>
</a>
</g>
</g>
<!-- Node1&#45;&gt;Node14 -->
<g id="edge13" class="edge">
<title>Node1&#45;&gt;Node14</title>
<path fill="none" stroke="midnightblue" d="M750.61,-54C737.15,-54 723.64,-54 711.18,-54"/>
<polygon fill="midnightblue" stroke="midnightblue" points="750.87,-57.5 760.87,-54 750.87,-50.5 750.87,-57.5"/>
</g>
<!-- Node15 -->
<g id="node15" class="node">
<title>Node15</title>
<g id="a_node15"><a xlink:href="test__cmp__entity_8c_a1702ff43ab0860a1d5f98ef3f97f4723.html#a1702ff43ab0860a1d5f98ef3f97f4723" target="_top" xlink:title=" ">
<polygon fill="white" stroke="black" points="582,-0.5 582,-19.5 725,-19.5 725,-0.5 582,-0.5"/>
<text text-anchor="middle" x="653.5" y="-7.5" font-family="Helvetica,sans-Serif" font-size="10.00">test_ent_ima_golomb_par</text>
</a>
</g>
</g>
<!-- Node1&#45;&gt;Node15 -->
<g id="edge15" class="edge">
<title>Node1&#45;&gt;Node15</title>
<path fill="none" stroke="midnightblue" d="M792.12,-42.12C761.76,-35.04 723.71,-26.16 695.32,-19.53"/>
<polygon fill="midnightblue" stroke="midnightblue" points="791.56,-45.59 802.1,-44.45 793.16,-38.77 791.56,-45.59"/>
</g>
<!-- Node3 -->
<g id="node3" class="node">
<title>Node3</title>
<g id="a_node3"><a xlink:href="cmp__entity_8c_ac68e6942c21572a9513a9a7577126458.html#ac68e6942c21572a9513a9a7577126458" target="_top" xlink:title="create a compression entity and set the header fields">
<polygon fill="white" stroke="black" points="430,-211.5 430,-230.5 518,-230.5 518,-211.5 430,-211.5"/>
<text text-anchor="middle" x="474" y="-218.5" font-family="Helvetica,sans-Serif" font-size="10.00">cmp_ent_build</text>
</a>
</g>
</g>
<!-- Node2&#45;&gt;Node3 -->
<g id="edge2" class="edge">
<title>Node2&#45;&gt;Node3</title>
<path fill="none" stroke="midnightblue" d="M629.63,-116.46C592.46,-141.59 519.99,-190.58 489.29,-211.34"/>
<polygon fill="midnightblue" stroke="midnightblue" points="631.95,-119.12 638.27,-110.62 628.03,-113.32 631.95,-119.12"/>
</g>
<!-- Node10 -->
<g id="node10" class="node">
<title>Node10</title>
<g id="a_node10"><a xlink:href="test__decmp_8c_a2d642d4d482b9ec7eca4568a95f5bdd4.html#a2d642d4d482b9ec7eca4568a95f5bdd4" target="_top" xlink:title=" ">
<polygon fill="white" stroke="black" points="402,-135.5 402,-154.5 546,-154.5 546,-135.5 402,-135.5"/>
<text text-anchor="middle" x="474" y="-142.5" font-family="Helvetica,sans-Serif" font-size="10.00">icu_compress_data_entity</text>
</a>
</g>
</g>
<!-- Node2&#45;&gt;Node10 -->
<g id="edge9" class="edge">
<title>Node2&#45;&gt;Node10</title>
<path fill="none" stroke="midnightblue" d="M604.22,-112.97C575.69,-120.04 540.06,-128.87 513.44,-135.47"/>
<polygon fill="midnightblue" stroke="midnightblue" points="605.12,-116.35 613.99,-110.55 603.44,-109.56 605.12,-116.35"/>
</g>
<!-- Node12 -->
<g id="node12" class="node">
<title>Node12</title>
<g id="a_node12"><a xlink:href="test__decmp_8c_a27e5a2b67e3e81da1be024826485b2e3.html#a27e5a2b67e3e81da1be024826485b2e3" target="_top" xlink:title=" ">
<polygon fill="white" stroke="black" points="417.5,-86 417.5,-116 530.5,-116 530.5,-86 417.5,-86"/>
<text text-anchor="start" x="425.5" y="-104" font-family="Helvetica,sans-Serif" font-size="10.00">test_cmp_ent_write</text>
<text text-anchor="middle" x="474" y="-93" font-family="Helvetica,sans-Serif" font-size="10.00">_cmp_pars</text>
</a>
</g>
</g>
<!-- Node2&#45;&gt;Node12 -->
<g id="edge11" class="edge">
<title>Node2&#45;&gt;Node12</title>
<path fill="none" stroke="midnightblue" d="M572.63,-101C558.49,-101 544.04,-101 530.74,-101"/>
<polygon fill="midnightblue" stroke="midnightblue" points="572.86,-104.5 582.86,-101 572.86,-97.5 572.86,-104.5"/>
</g>
<!-- Node13 -->
<g id="node13" class="node">
<title>Node13</title>
<g id="a_node13"><a xlink:href="test__cmp__entity_8c_a8f7fd6d8b939382555507ecf2e74ec79.html#a8f7fd6d8b939382555507ecf2e74ec79" target="_top" xlink:title=" ">
<polygon fill="white" stroke="black" points="417.5,-37 417.5,-67 530.5,-67 530.5,-37 417.5,-37"/>
<text text-anchor="start" x="425.5" y="-55" font-family="Helvetica,sans-Serif" font-size="10.00">test_cmp_ent_write</text>
<text text-anchor="middle" x="474" y="-44" font-family="Helvetica,sans-Serif" font-size="10.00">_rdcu_cmp_pars</text>
</a>
</g>
</g>
<!-- Node2&#45;&gt;Node13 -->
<g id="edge12" class="edge">
<title>Node2&#45;&gt;Node13</title>
<path fill="none" stroke="midnightblue" d="M608.03,-88.72C584.2,-82.15 554.66,-73.99 529.47,-67.04"/>
<polygon fill="midnightblue" stroke="midnightblue" points="607.28,-92.15 617.85,-91.44 609.15,-85.4 607.28,-92.15"/>
</g>
<!-- Node4 -->
<g id="node4" class="node">
<title>Node4</title>
<g id="a_node4"><a xlink:href="test__cmp__decmp_8c_a50ba26014079160ca77b7d7fa76ce0f4.html#a50ba26014079160ca77b7d7fa76ce0f4" target="_top" xlink:title="compress the given configuration and decompress it afterwards; finally compare the results">
<polygon fill="white" stroke="black" points="195,-306.5 195,-325.5 353,-325.5 353,-306.5 195,-306.5"/>
<text text-anchor="middle" x="274" y="-313.5" font-family="Helvetica,sans-Serif" font-size="10.00">compression_decompression</text>
</a>
</g>
</g>
<!-- Node3&#45;&gt;Node4 -->
<g id="edge3" class="edge">
<title>Node3&#45;&gt;Node4</title>
<path fill="none" stroke="midnightblue" d="M454.93,-237.44C434.74,-254.9 400.35,-282 366,-297 357.13,-300.88 347.41,-303.98 337.74,-306.46"/>
<polygon fill="midnightblue" stroke="midnightblue" points="457.49,-239.85 462.67,-230.61 452.86,-234.6 457.49,-239.85"/>
</g>
<!-- Node6 -->
<g id="node6" class="node">
<title>Node6</title>
<g id="a_node6"><a xlink:href="test__decmp_8c_a6e7a5e150e2c829836db3c42cdec2eec.html#a6e7a5e150e2c829836db3c42cdec2eec" target="_top" xlink:title=" ">
<polygon fill="white" stroke="black" points="182,-268.5 182,-287.5 366,-287.5 366,-268.5 182,-268.5"/>
<text text-anchor="middle" x="274" y="-275.5" font-family="Helvetica,sans-Serif" font-size="10.00">test_cmp_decmp_n_imagette_raw</text>
</a>
</g>
</g>
<!-- Node3&#45;&gt;Node6 -->
<g id="edge5" class="edge">
<title>Node3&#45;&gt;Node6</title>
<path fill="none" stroke="midnightblue" d="M439.68,-234.15C418.75,-242.07 391.07,-251.97 366,-259 353.41,-262.53 339.68,-265.73 326.79,-268.45"/>
<polygon fill="midnightblue" stroke="midnightblue" points="440.99,-237.39 449.08,-230.55 438.49,-230.86 440.99,-237.39"/>
</g>
<!-- Node7 -->
<g id="node7" class="node">
<title>Node7</title>
<g id="a_node7"><a xlink:href="test__cmp__entity_8c_a13c81359af8798146608574ab0e113fb.html#a13c81359af8798146608574ab0e113fb" target="_top" xlink:title=" ">
<polygon fill="white" stroke="black" points="218,-230.5 218,-249.5 330,-249.5 330,-230.5 218,-230.5"/>
<text text-anchor="middle" x="274" y="-237.5" font-family="Helvetica,sans-Serif" font-size="10.00">test_cmp_ent_build</text>
</a>
</g>
</g>
<!-- Node3&#45;&gt;Node7 -->
<g id="edge6" class="edge">
<title>Node3&#45;&gt;Node7</title>
<path fill="none" stroke="midnightblue" d="M419.26,-226.16C391.59,-228.81 357.91,-232.04 330.05,-234.72"/>
<polygon fill="midnightblue" stroke="midnightblue" points="419.93,-229.61 429.55,-225.17 419.26,-222.64 419.93,-229.61"/>
</g>
<!-- Node8 -->
<g id="node8" class="node">
<title>Node8</title>
<g id="a_node8"><a xlink:href="test__cmp__entity_8c_a893444224bcd50fbb99e42e85989b4a6.html#a893444224bcd50fbb99e42e85989b4a6" target="_top" xlink:title=" ">
<polygon fill="white" stroke="black" points="216.5,-192.5 216.5,-211.5 331.5,-211.5 331.5,-192.5 216.5,-192.5"/>
<text text-anchor="middle" x="274" y="-199.5" font-family="Helvetica,sans-Serif" font-size="10.00">test_cmp_ent_parse</text>
</a>
</g>
</g>
<!-- Node3&#45;&gt;Node8 -->
<g id="edge7" class="edge">
<title>Node3&#45;&gt;Node8</title>
<path fill="none" stroke="midnightblue" d="M419.43,-215.86C392.21,-213.25 359.14,-210.07 331.52,-207.42"/>
<polygon fill="midnightblue" stroke="midnightblue" points="419.26,-219.36 429.55,-216.83 419.93,-212.39 419.26,-219.36"/>
</g>
<!-- Node9 -->
<g id="node9" class="node">
<title>Node9</title>
<g id="a_node9"><a xlink:href="test__cmp__entity_8c_a28c5d64d3c7c61100798fa39100d0f30.html#a28c5d64d3c7c61100798fa39100d0f30" target="_top" xlink:title=" ">
<polygon fill="white" stroke="black" points="219,-154.5 219,-173.5 329,-173.5 329,-154.5 219,-154.5"/>
<text text-anchor="middle" x="274" y="-161.5" font-family="Helvetica,sans-Serif" font-size="10.00">test_cmp_ent_print</text>
</a>
</g>
</g>
<!-- Node3&#45;&gt;Node9 -->
<g id="edge8" class="edge">
<title>Node3&#45;&gt;Node9</title>
<path fill="none" stroke="midnightblue" d="M439.68,-207.85C418.75,-199.93 391.07,-190.03 366,-183 353.41,-179.47 339.68,-176.27 326.79,-173.55"/>
<polygon fill="midnightblue" stroke="midnightblue" points="438.49,-211.14 449.08,-211.45 440.99,-204.61 438.49,-211.14"/>
</g>
<!-- Node5 -->
<g id="node5" class="node">
<title>Node5</title>
<g id="a_node5"><a xlink:href="test__cmp__decmp_8c_af3c162694b40683e0aa25c61a49cdafc.html#af3c162694b40683e0aa25c61a49cdafc" target="_top" xlink:title="random compression decompression test">
<polygon fill="white" stroke="black" points="0,-301 0,-331 146,-331 146,-301 0,-301"/>
<text text-anchor="start" x="8" y="-319" font-family="Helvetica,sans-Serif" font-size="10.00">test_random_compression</text>
<text text-anchor="middle" x="73" y="-308" font-family="Helvetica,sans-Serif" font-size="10.00">_decompression</text>
</a>
</g>
</g>
<!-- Node4&#45;&gt;Node5 -->
<g id="edge4" class="edge">
<title>Node4&#45;&gt;Node5</title>
<path fill="none" stroke="midnightblue" d="M184.63,-316C171.72,-316 158.55,-316 146.01,-316"/>
<polygon fill="midnightblue" stroke="midnightblue" points="184.92,-319.5 194.92,-316 184.92,-312.5 184.92,-319.5"/>
</g>
<!-- Node11 -->
<g id="node11" class="node">
<title>Node11</title>
<g id="a_node11"><a xlink:href="test__decmp_8c_a1a33e2fcbf484c79dfe661b280386f6b.html#a1a33e2fcbf484c79dfe661b280386f6b" target="_top" xlink:title=" ">
<polygon fill="white" stroke="black" points="201,-116.5 201,-135.5 347,-135.5 347,-116.5 201,-116.5"/>
<text text-anchor="middle" x="274" y="-123.5" font-family="Helvetica,sans-Serif" font-size="10.00">test_cmp_decmp_s_fx_diff</text>
</a>
</g>
</g>
<!-- Node10&#45;&gt;Node11 -->
<g id="edge10" class="edge">
<title>Node10&#45;&gt;Node11</title>
<path fill="none" stroke="midnightblue" d="M391.7,-137.2C376.96,-135.78 361.69,-134.32 347.24,-132.93"/>
<polygon fill="midnightblue" stroke="midnightblue" points="391.51,-140.7 401.8,-138.17 392.18,-133.73 391.51,-140.7"/>
</g>
<!-- Node14&#45;&gt;Node13 -->
<g id="edge14" class="edge">
<title>Node14&#45;&gt;Node13</title>
<path fill="none" stroke="midnightblue" d="M585.62,-53.25C567.45,-53.04 547.97,-52.82 530.51,-52.63"/>
<polygon fill="midnightblue" stroke="midnightblue" points="585.81,-56.75 595.85,-53.36 585.89,-49.75 585.81,-56.75"/>
</g>
</g>
</svg>
