<?xml version="1.0" encoding="UTF-8" standalone="no"?>
<!DOCTYPE svg PUBLIC "-//W3C//DTD SVG 1.1//EN"
 "http://www.w3.org/Graphics/SVG/1.1/DTD/svg11.dtd">
<!-- Generated by graphviz version 2.43.0 (0)
 -->
<!-- Title: cmp_ent_get_data_type Pages: 1 -->
<!--zoomable 923 -->
<svg id="main" version="1.1" xmlns="http://www.w3.org/2000/svg" xmlns:xlink="http://www.w3.org/1999/xlink" xml:space="preserve" onload="init(evt)">
<style type="text/css"><![CDATA[
.edge:hover path { stroke: red; }
.edge:hover polygon { stroke: red; fill: red; }
]]></style>
<script type="text/javascript"><![CDATA[
var edges = document.getElementsByTagName('g');
if (edges && edges.length) {
  for (var i=0;i<edges.length;i++) {
    if (edges[i].id.substr(0,4)=='edge') {
      edges[i].setAttribute('class','edge');
    }
  }
}
]]></script>
        <defs>
                <circle id="rim" cx="0" cy="0" r="7"/>
                <circle id="rim2" cx="0" cy="0" r="3.5"/>
                <g id="zoomPlus">
                        <use xlink:href="#rim" fill="#404040">
                                <set attributeName="fill" to="#808080" begin="zoomplus.mouseover" end="zoomplus.mouseout"/>
                        </use>
                        <path d="M-4,0h8M0,-4v8" fill="none" stroke="white" stroke-width="1.5" pointer-events="none"/>
                </g>
                <g id="zoomMin">
                        <use xlink:href="#rim" fill="#404040">
                                <set attributeName="fill" to="#808080" begin="zoomminus.mouseover" end="zoomminus.mouseout"/>
                        </use>
                        <path d="M-4,0h8" fill="none" stroke="white" stroke-width="1.5" pointer-events="none"/>
                </g>
                <g id="dirArrow">
                        <path fill="none" stroke="white" stroke-width="1.5" d="M0,-3.0v7 M-2.5,-0.5L0,-3.0L2.5,-0.5"/>
                </g>
               <g id="resetDef">
                       <use xlink:href="#rim2" fill="#404040">
                               <set attributeName="fill" to="#808080" begin="reset.mouseover" end="reset.mouseout"/>
                       </use>
               </g>
        </defs>

<script type="text/javascript">
var viewWidth = 1294;
var viewHeight = 923;
var sectionId = 'dynsection-0';
</script>
<script xlink:href="svgpan.js"/>
<svg id="graph" class="graph">
<g id="viewport">
<title>cmp_ent_get_data_type</title>
<polygon fill="white" stroke="transparent" points="-4,4 -4,-919 1290,-919 1290,4 -4,4"/>
<!-- Node1 -->
<g id="node1" class="node">
<title>Node1</title>
<g id="a_node1"><a xlink:title="get data_type from the compression entity header">
<polygon fill="#bfbfbf" stroke="black" points="1152,-236.5 1152,-255.5 1286,-255.5 1286,-236.5 1152,-236.5"/>
<text text-anchor="middle" x="1219" y="-243.5" font-family="Helvetica,sans-Serif" font-size="10.00">cmp_ent_get_data_type</text>
</a>
</g>
</g>
<!-- Node2 -->
<g id="node2" class="node">
<title>Node2</title>
<g id="a_node2"><a xlink:href="cmp__entity_8c_a00cca03217aff11fc4afdc43ca23c417.html#a00cca03217aff11fc4afdc43ca23c417" target="_top" xlink:title="get the start address of the compressed data in the compression entity">
<polygon fill="white" stroke="black" points="798,-712.5 798,-731.5 926,-731.5 926,-712.5 798,-712.5"/>
<text text-anchor="middle" x="862" y="-719.5" font-family="Helvetica,sans-Serif" font-size="10.00">cmp_ent_get_data_buf</text>
</a>
</g>
</g>
<!-- Node1&#45;&gt;Node2 -->
<g id="edge1" class="edge">
<title>Node1&#45;&gt;Node2</title>
<path fill="none" stroke="midnightblue" d="M1215.47,-265.5C1205.81,-337.17 1169.09,-584.79 1116,-641 1066.6,-693.31 983.46,-711.94 926.04,-718.52"/>
<polygon fill="midnightblue" stroke="midnightblue" points="1218.94,-265.94 1216.79,-255.56 1212,-265.02 1218.94,-265.94"/>
</g>
<!-- Node8 -->
<g id="node8" class="node">
<title>Node8</title>
<g id="a_node8"><a xlink:href="decmp_8c_a74bca2e933b64c4e4738700db181be76.html#a74bca2e933b64c4e4738700db181be76" target="_top" xlink:title="read in an imagette compression entity header to a compression configuration">
<polygon fill="white" stroke="black" points="608.5,-769.5 608.5,-788.5 733.5,-788.5 733.5,-769.5 608.5,-769.5"/>
<text text-anchor="middle" x="671" y="-776.5" font-family="Helvetica,sans-Serif" font-size="10.00">cmp_ent_read_header</text>
</a>
</g>
</g>
<!-- Node1&#45;&gt;Node8 -->
<g id="edge53" class="edge">
<title>Node1&#45;&gt;Node8</title>
<path fill="none" stroke="midnightblue" d="M1216.06,-265.86C1208.1,-343.53 1175.49,-625.67 1116,-689 1016.78,-794.62 830.39,-794.83 733.7,-786.64"/>
<polygon fill="midnightblue" stroke="midnightblue" points="1219.58,-265.87 1217.09,-255.57 1212.61,-265.17 1219.58,-265.87"/>
</g>
<!-- Node17 -->
<g id="node17" class="node">
<title>Node17</title>
<g id="a_node17"><a xlink:href="test__decmp_8c_a27e5a2b67e3e81da1be024826485b2e3.html#a27e5a2b67e3e81da1be024826485b2e3" target="_top" xlink:title=" ">
<polygon fill="white" stroke="black" points="424,-615 424,-645 537,-645 537,-615 424,-615"/>
<text text-anchor="start" x="432" y="-633" font-family="Helvetica,sans-Serif" font-size="10.00">test_cmp_ent_write</text>
<text text-anchor="middle" x="480.5" y="-622" font-family="Helvetica,sans-Serif" font-size="10.00">_cmp_pars</text>
</a>
</g>
</g>
<!-- Node1&#45;&gt;Node17 -->
<g id="edge59" class="edge">
<title>Node1&#45;&gt;Node17</title>
<path fill="none" stroke="midnightblue" d="M1211.32,-265.16C1198.22,-300.17 1166.02,-374.91 1116,-419 943.35,-571.18 657.58,-614.2 537.44,-625.86"/>
<polygon fill="midnightblue" stroke="midnightblue" points="1214.65,-266.24 1214.77,-255.65 1208.07,-263.86 1214.65,-266.24"/>
</g>
<!-- Node20 -->
<g id="node20" class="node">
<title>Node20</title>
<g id="a_node20"><a xlink:href="cmp__entity_8c_a802778418cfd52cf107c7af6d0405e8a.html#a802778418cfd52cf107c7af6d0405e8a" target="_top" xlink:title="get the size of the compression entity header based on the set data product type in compression entit...">
<polygon fill="white" stroke="black" points="984,-339.5 984,-358.5 1109,-358.5 1109,-339.5 984,-339.5"/>
<text text-anchor="middle" x="1046.5" y="-346.5" font-family="Helvetica,sans-Serif" font-size="10.00">cmp_ent_get_hdr_size</text>
</a>
</g>
</g>
<!-- Node1&#45;&gt;Node20 -->
<g id="edge24" class="edge">
<title>Node1&#45;&gt;Node20</title>
<path fill="none" stroke="midnightblue" d="M1193.53,-260.79C1158.16,-282.15 1093.71,-321.08 1063.69,-339.22"/>
<polygon fill="midnightblue" stroke="midnightblue" points="1195.52,-263.67 1202.27,-255.51 1191.9,-257.68 1195.52,-263.67"/>
</g>
<!-- Node22 -->
<g id="node22" class="node">
<title>Node22</title>
<g id="a_node22"><a xlink:href="cmp__entity_8c_a553b4a765f1cfcd37f82a818db2cf2b9.html#a553b4a765f1cfcd37f82a818db2cf2b9" target="_top" xlink:title="write the compression parameters from a compression configuration into the compression entity header">
<polygon fill="white" stroke="black" points="600.5,-503.5 600.5,-522.5 741.5,-522.5 741.5,-503.5 600.5,-503.5"/>
<text text-anchor="middle" x="671" y="-510.5" font-family="Helvetica,sans-Serif" font-size="10.00">cmp_ent_write_cmp_pars</text>
</a>
</g>
</g>
<!-- Node1&#45;&gt;Node22 -->
<g id="edge54" class="edge">
<title>Node1&#45;&gt;Node22</title>
<path fill="none" stroke="midnightblue" d="M1206.5,-264.28C1189.43,-290.2 1155.15,-337.84 1116,-368 1002.93,-455.09 835.47,-490.96 741.85,-504.88"/>
<polygon fill="midnightblue" stroke="midnightblue" points="1209.5,-266.08 1211.99,-255.79 1203.62,-262.29 1209.5,-266.08"/>
</g>
<!-- Node24 -->
<g id="node24" class="node">
<title>Node24</title>
<g id="a_node24"><a xlink:href="test__cmp__entity_8c_a13c81359af8798146608574ab0e113fb.html#a13c81359af8798146608574ab0e113fb" target="_top" xlink:title=" ">
<polygon fill="white" stroke="black" points="218,-377.5 218,-396.5 330,-396.5 330,-377.5 218,-377.5"/>
<text text-anchor="middle" x="274" y="-384.5" font-family="Helvetica,sans-Serif" font-size="10.00">test_cmp_ent_build</text>
</a>
</g>
</g>
<!-- Node1&#45;&gt;Node24 -->
<g id="edge56" class="edge">
<title>Node1&#45;&gt;Node24</title>
<path fill="none" stroke="midnightblue" d="M1197.75,-230.29C1178.02,-215.84 1146.6,-195.02 1116,-184 1009.08,-145.49 976.64,-147 863,-147 863,-147 863,-147 670,-147 489.45,-147 321.15,-332.39 283.03,-377.29"/>
<polygon fill="midnightblue" stroke="midnightblue" points="1195.85,-233.24 1205.95,-236.43 1200.04,-227.63 1195.85,-233.24"/>
</g>
<!-- Node26 -->
<g id="node26" class="node">
<title>Node26</title>
<g id="a_node26"><a xlink:href="test__cmp__entity_8c_a8f7fd6d8b939382555507ecf2e74ec79.html#a8f7fd6d8b939382555507ecf2e74ec79" target="_top" xlink:title=" ">
<polygon fill="white" stroke="black" points="424,-274 424,-304 537,-304 537,-274 424,-274"/>
<text text-anchor="start" x="432" y="-292" font-family="Helvetica,sans-Serif" font-size="10.00">test_cmp_ent_write</text>
<text text-anchor="middle" x="480.5" y="-281" font-family="Helvetica,sans-Serif" font-size="10.00">_rdcu_cmp_pars</text>
</a>
</g>
</g>
<!-- Node1&#45;&gt;Node26 -->
<g id="edge60" class="edge">
<title>Node1&#45;&gt;Node26</title>
<path fill="none" stroke="midnightblue" d="M1179.43,-233.5C1079.69,-203.26 806.31,-133.65 595,-204 553.42,-217.84 514.79,-253.53 495.11,-273.99"/>
<polygon fill="midnightblue" stroke="midnightblue" points="1178.49,-236.88 1189.08,-236.47 1180.55,-230.19 1178.49,-236.88"/>
</g>
<!-- Node27 -->
<g id="node27" class="node">
<title>Node27</title>
<g id="a_node27"><a xlink:href="cmp__entity_8c_aac25fce5ba205dafed1781d24250c7b3.html#aac25fce5ba205dafed1781d24250c7b3" target="_top" xlink:title="write the parameters from the RDCU decompression information structure in the compression entity head...">
<polygon fill="white" stroke="black" points="613.5,-252 613.5,-282 728.5,-282 728.5,-252 613.5,-252"/>
<text text-anchor="start" x="621.5" y="-270" font-family="Helvetica,sans-Serif" font-size="10.00">cmp_ent_write_rdcu</text>
<text text-anchor="middle" x="671" y="-259" font-family="Helvetica,sans-Serif" font-size="10.00">_cmp_pars</text>
</a>
</g>
</g>
<!-- Node1&#45;&gt;Node27 -->
<g id="edge55" class="edge">
<title>Node1&#45;&gt;Node27</title>
<path fill="none" stroke="midnightblue" d="M1141.75,-248.93C1030.74,-253.2 827.15,-261.03 728.52,-264.83"/>
<polygon fill="midnightblue" stroke="midnightblue" points="1142.01,-252.43 1151.87,-248.54 1141.74,-245.43 1142.01,-252.43"/>
</g>
<!-- Node28 -->
<g id="node28" class="node">
<title>Node28</title>
<g id="a_node28"><a xlink:href="test__cmp__entity_8c_a991729c77482729377539ccc0c96f4b7.html#a991729c77482729377539ccc0c96f4b7" target="_top" xlink:title=" ">
<polygon fill="white" stroke="black" points="611.5,-213.5 611.5,-232.5 730.5,-232.5 730.5,-213.5 611.5,-213.5"/>
<text text-anchor="middle" x="671" y="-220.5" font-family="Helvetica,sans-Serif" font-size="10.00">test_cmp_ent_create</text>
</a>
</g>
</g>
<!-- Node1&#45;&gt;Node28 -->
<g id="edge57" class="edge">
<title>Node1&#45;&gt;Node28</title>
<path fill="none" stroke="midnightblue" d="M1141.82,-242.79C1031.57,-238.15 829.92,-229.65 730.54,-225.47"/>
<polygon fill="midnightblue" stroke="midnightblue" points="1141.73,-246.29 1151.87,-243.21 1142.02,-239.3 1141.73,-246.29"/>
</g>
<!-- Node31 -->
<g id="node31" class="node">
<title>Node31</title>
<g id="a_node31"><a xlink:href="cmp__entity_8c_ada578f9cc10464104076bc466b962b78.html#ada578f9cc10464104076bc466b962b78" target="_top" xlink:title="parse the specific compressed entity header">
<polygon fill="white" stroke="black" points="977,-39 977,-69 1116,-69 1116,-39 977,-39"/>
<text text-anchor="start" x="985" y="-57" font-family="Helvetica,sans-Serif" font-size="10.00">cmp_ent_parese_specific</text>
<text text-anchor="middle" x="1046.5" y="-46" font-family="Helvetica,sans-Serif" font-size="10.00">_header</text>
</a>
</g>
</g>
<!-- Node1&#45;&gt;Node31 -->
<g id="edge48" class="edge">
<title>Node1&#45;&gt;Node31</title>
<path fill="none" stroke="midnightblue" d="M1211.28,-226.61C1198.29,-191.89 1166.47,-118.9 1116,-78 1111.79,-74.59 1107.06,-71.65 1102.11,-69.11"/>
<polygon fill="midnightblue" stroke="midnightblue" points="1208.15,-228.24 1214.84,-236.45 1214.73,-225.86 1208.15,-228.24"/>
</g>
<!-- Node33 -->
<g id="node33" class="node">
<title>Node33</title>
<g id="a_node33"><a xlink:href="cmp__entity_8c_a2437ba690b73b4c212cd7962819b24ce.html#a2437ba690b73b4c212cd7962819b24ce" target="_top" xlink:title="parses the generic compressed entity header">
<polygon fill="white" stroke="black" points="980.5,-88 980.5,-118 1112.5,-118 1112.5,-88 980.5,-88"/>
<text text-anchor="start" x="988.5" y="-106" font-family="Helvetica,sans-Serif" font-size="10.00">cmp_ent_parse_generic</text>
<text text-anchor="middle" x="1046.5" y="-95" font-family="Helvetica,sans-Serif" font-size="10.00">_header</text>
</a>
</g>
</g>
<!-- Node1&#45;&gt;Node33 -->
<g id="edge51" class="edge">
<title>Node1&#45;&gt;Node33</title>
<path fill="none" stroke="midnightblue" d="M1205.53,-227.95C1187.97,-203.64 1153.83,-160.27 1116,-133 1108,-127.23 1098.71,-122.24 1089.6,-118.08"/>
<polygon fill="midnightblue" stroke="midnightblue" points="1202.79,-230.13 1211.43,-236.26 1208.5,-226.08 1202.79,-230.13"/>
</g>
<!-- Node34 -->
<g id="node34" class="node">
<title>Node34</title>
<g id="a_node34"><a xlink:href="test__cmp__entity_8c_a19d7fc6db5dff9dfc3fec51696d302b1.html#a19d7fc6db5dff9dfc3fec51696d302b1" target="_top" xlink:title=" ">
<polygon fill="white" stroke="black" points="978,-0.5 978,-19.5 1115,-19.5 1115,-0.5 978,-0.5"/>
<text text-anchor="middle" x="1046.5" y="-7.5" font-family="Helvetica,sans-Serif" font-size="10.00">test_cmp_ent_data_type</text>
</a>
</g>
</g>
<!-- Node1&#45;&gt;Node34 -->
<g id="edge58" class="edge">
<title>Node1&#45;&gt;Node34</title>
<path fill="none" stroke="midnightblue" d="M1214.52,-226.59C1205.88,-184.12 1179.37,-82.48 1116,-29 1111.38,-25.1 1106.02,-22 1100.37,-19.53"/>
<polygon fill="midnightblue" stroke="midnightblue" points="1211.1,-227.32 1216.43,-236.48 1217.97,-226 1211.1,-227.32"/>
</g>
<!-- Node3 -->
<g id="node3" class="node">
<title>Node3</title>
<g id="a_node3"><a xlink:href="cmp__entity_8c_a53d1033e924a4177448fa5518a86f5b8.html#a53d1033e924a4177448fa5518a86f5b8" target="_top" xlink:title="copy the data from a compression entity to a buffer">
<polygon fill="white" stroke="black" points="604.5,-693.5 604.5,-712.5 737.5,-712.5 737.5,-693.5 604.5,-693.5"/>
<text text-anchor="middle" x="671" y="-700.5" font-family="Helvetica,sans-Serif" font-size="10.00">cmp_ent_get_cmp_data</text>
</a>
</g>
</g>
<!-- Node2&#45;&gt;Node3 -->
<g id="edge2" class="edge">
<title>Node2&#45;&gt;Node3</title>
<path fill="none" stroke="midnightblue" d="M787.69,-714.63C771.22,-712.97 753.86,-711.23 737.72,-709.61"/>
<polygon fill="midnightblue" stroke="midnightblue" points="787.5,-718.13 797.8,-715.65 788.2,-711.16 787.5,-718.13"/>
</g>
<!-- Node4 -->
<g id="node4" class="node">
<title>Node4</title>
<g id="a_node4"><a xlink:href="test__cmp__entity_8c_a9ff6c40a6acfa4a24a448db1471c524a.html#a9ff6c40a6acfa4a24a448db1471c524a" target="_top" xlink:title=" ">
<polygon fill="white" stroke="black" points="402,-693.5 402,-712.5 559,-712.5 559,-693.5 402,-693.5"/>
<text text-anchor="middle" x="480.5" y="-700.5" font-family="Helvetica,sans-Serif" font-size="10.00">test_cmp_ent_get_cmp_data</text>
</a>
</g>
</g>
<!-- Node2&#45;&gt;Node4 -->
<g id="edge21" class="edge">
<title>Node2&#45;&gt;Node4</title>
<path fill="none" stroke="midnightblue" d="M787.92,-725.25C734.4,-726.84 660.07,-727.41 595,-722 572.7,-720.15 548.19,-716.28 527.67,-712.51"/>
<polygon fill="midnightblue" stroke="midnightblue" points="788.11,-728.75 798,-724.93 787.89,-721.75 788.11,-728.75"/>
</g>
<!-- Node5 -->
<g id="node5" class="node">
<title>Node5</title>
<g id="a_node5"><a xlink:href="cmp__entity_8c_ae1e22f1d5652d49b51dd6e3bce93c7a6.html#ae1e22f1d5652d49b51dd6e3bce93c7a6" target="_top" xlink:title="print the compressed data of the entity">
<polygon fill="white" stroke="black" points="614.5,-465.5 614.5,-484.5 727.5,-484.5 727.5,-465.5 614.5,-465.5"/>
<text text-anchor="middle" x="671" y="-472.5" font-family="Helvetica,sans-Serif" font-size="10.00">cmp_ent_print_data</text>
</a>
</g>
</g>
<!-- Node2&#45;&gt;Node5 -->
<g id="edge4" class="edge">
<title>Node2&#45;&gt;Node5</title>
<path fill="none" stroke="midnightblue" d="M857,-702.37C846.91,-658.02 816.14,-549.64 747,-494 741.35,-489.45 734.75,-485.98 727.84,-483.33"/>
<polygon fill="midnightblue" stroke="midnightblue" points="853.64,-703.39 859.18,-712.42 860.48,-701.9 853.64,-703.39"/>
</g>
<!-- Node2&#45;&gt;Node8 -->
<g id="edge7" class="edge">
<title>Node2&#45;&gt;Node8</title>
<path fill="none" stroke="midnightblue" d="M819.49,-734.52C784.62,-745.04 735.53,-759.84 703.74,-769.43"/>
<polygon fill="midnightblue" stroke="midnightblue" points="820.8,-737.78 829.37,-731.54 818.78,-731.08 820.8,-737.78"/>
</g>
<!-- Node10 -->
<g id="node10" class="node">
<title>Node10</title>
<g id="a_node10"><a xlink:href="test__cmp__decmp_8c_a50ba26014079160ca77b7d7fa76ce0f4.html#a50ba26014079160ca77b7d7fa76ce0f4" target="_top" xlink:title="compress the given configuration and decompress it afterwards; finally compare the results">
<polygon fill="white" stroke="black" points="195,-800.5 195,-819.5 353,-819.5 353,-800.5 195,-800.5"/>
<text text-anchor="middle" x="274" y="-807.5" font-family="Helvetica,sans-Serif" font-size="10.00">compression_decompression</text>
</a>
</g>
</g>
<!-- Node2&#45;&gt;Node10 -->
<g id="edge17" class="edge">
<title>Node2&#45;&gt;Node10</title>
<path fill="none" stroke="midnightblue" d="M845.83,-739.12C825.58,-760.76 787.54,-797.45 747,-816 606.97,-880.06 551.47,-885.02 402,-848 384.44,-843.65 383.02,-835.13 366,-829 355.52,-825.23 344.08,-822.11 332.96,-819.56"/>
<polygon fill="midnightblue" stroke="midnightblue" points="848.51,-741.36 852.68,-731.62 843.35,-736.64 848.51,-741.36"/>
</g>
<!-- Node12 -->
<g id="node12" class="node">
<title>Node12</title>
<g id="a_node12"><a xlink:href="test__decmp_8c_a6e7a5e150e2c829836db3c42cdec2eec.html#a6e7a5e150e2c829836db3c42cdec2eec" target="_top" xlink:title=" ">
<polygon fill="white" stroke="black" points="182,-724.5 182,-743.5 366,-743.5 366,-724.5 182,-724.5"/>
<text text-anchor="middle" x="274" y="-731.5" font-family="Helvetica,sans-Serif" font-size="10.00">test_cmp_decmp_n_imagette_raw</text>
</a>
</g>
</g>
<!-- Node2&#45;&gt;Node12 -->
<g id="edge20" class="edge">
<title>Node2&#45;&gt;Node12</title>
<path fill="none" stroke="midnightblue" d="M843.64,-738.46C822.66,-757.09 785.39,-786.38 747,-798 673.41,-820.28 475.22,-795.44 402,-772 384.77,-766.49 383.02,-759.13 366,-753 355.52,-749.23 344.08,-746.11 332.96,-743.56"/>
<polygon fill="midnightblue" stroke="midnightblue" points="846.06,-740.99 851.09,-731.66 841.34,-735.81 846.06,-740.99"/>
</g>
<!-- Node2&#45;&gt;Node17 -->
<g id="edge23" class="edge">
<title>Node2&#45;&gt;Node17</title>
<path fill="none" stroke="midnightblue" d="M826.04,-709.12C803.65,-701.18 773.86,-691.18 747,-684 675.32,-664.84 591.16,-648.79 537.13,-639.29"/>
<polygon fill="midnightblue" stroke="midnightblue" points="824.87,-712.42 835.46,-712.5 827.23,-705.83 824.87,-712.42"/>
</g>
<!-- Node18 -->
<g id="node18" class="node">
<title>Node18</title>
<g id="a_node18"><a xlink:href="test__decmp_8c_a2d642d4d482b9ec7eca4568a95f5bdd4.html#a2d642d4d482b9ec7eca4568a95f5bdd4" target="_top" xlink:title=" ">
<polygon fill="white" stroke="black" points="408.5,-576.5 408.5,-595.5 552.5,-595.5 552.5,-576.5 408.5,-576.5"/>
<text text-anchor="middle" x="480.5" y="-583.5" font-family="Helvetica,sans-Serif" font-size="10.00">icu_compress_data_entity</text>
</a>
</g>
</g>
<!-- Node2&#45;&gt;Node18 -->
<g id="edge18" class="edge">
<title>Node2&#45;&gt;Node18</title>
<path fill="none" stroke="midnightblue" d="M842.08,-706.19C820.44,-688.89 783.28,-661.56 747,-646 684.13,-619.04 607.48,-603.39 552.72,-594.87"/>
<polygon fill="midnightblue" stroke="midnightblue" points="839.87,-708.9 849.84,-712.49 844.29,-703.47 839.87,-708.9"/>
</g>
<!-- Node19 -->
<g id="node19" class="node">
<title>Node19</title>
<g id="a_node19"><a xlink:href="test__cmp__entity_8c_a92dfee949fe5c27ffd4895f16b4a423f.html#a92dfee949fe5c27ffd4895f16b4a423f" target="_top" xlink:title=" ">
<polygon fill="white" stroke="black" points="595,-895.5 595,-914.5 747,-914.5 747,-895.5 595,-895.5"/>
<text text-anchor="middle" x="671" y="-902.5" font-family="Helvetica,sans-Serif" font-size="10.00">test_cmp_ent_get_data_buf</text>
</a>
</g>
</g>
<!-- Node2&#45;&gt;Node19 -->
<g id="edge22" class="edge">
<title>Node2&#45;&gt;Node19</title>
<path fill="none" stroke="midnightblue" d="M852.43,-740.99C836.46,-774.26 799.01,-843.14 747,-881 738.38,-887.28 728.05,-891.96 717.85,-895.43"/>
<polygon fill="midnightblue" stroke="midnightblue" points="855.62,-742.43 856.69,-731.89 849.28,-739.46 855.62,-742.43"/>
</g>
<!-- Node3&#45;&gt;Node4 -->
<g id="edge3" class="edge">
<title>Node3&#45;&gt;Node4</title>
<path fill="none" stroke="midnightblue" d="M594.31,-703C582.76,-703 570.82,-703 559.23,-703"/>
<polygon fill="midnightblue" stroke="midnightblue" points="594.34,-706.5 604.34,-703 594.34,-699.5 594.34,-706.5"/>
</g>
<!-- Node6 -->
<g id="node6" class="node">
<title>Node6</title>
<g id="a_node6"><a xlink:href="cmp__entity_8c_acb86c5ed513a665da74d6cfbc5db3874.html#acb86c5ed513a665da74d6cfbc5db3874" target="_top" xlink:title="print the entire compressed entity header plus data">
<polygon fill="white" stroke="black" points="437.5,-465.5 437.5,-484.5 523.5,-484.5 523.5,-465.5 437.5,-465.5"/>
<text text-anchor="middle" x="480.5" y="-472.5" font-family="Helvetica,sans-Serif" font-size="10.00">cmp_ent_print</text>
</a>
</g>
</g>
<!-- Node5&#45;&gt;Node6 -->
<g id="edge5" class="edge">
<title>Node5&#45;&gt;Node6</title>
<path fill="none" stroke="midnightblue" d="M604.4,-475C577.66,-475 547.52,-475 523.78,-475"/>
<polygon fill="midnightblue" stroke="midnightblue" points="604.46,-478.5 614.46,-475 604.46,-471.5 604.46,-478.5"/>
</g>
<!-- Node7 -->
<g id="node7" class="node">
<title>Node7</title>
<g id="a_node7"><a xlink:href="test__cmp__entity_8c_a28c5d64d3c7c61100798fa39100d0f30.html#a28c5d64d3c7c61100798fa39100d0f30" target="_top" xlink:title=" ">
<polygon fill="white" stroke="black" points="219,-484.5 219,-503.5 329,-503.5 329,-484.5 219,-484.5"/>
<text text-anchor="middle" x="274" y="-491.5" font-family="Helvetica,sans-Serif" font-size="10.00">test_cmp_ent_print</text>
</a>
</g>
</g>
<!-- Node6&#45;&gt;Node7 -->
<g id="edge6" class="edge">
<title>Node6&#45;&gt;Node7</title>
<path fill="none" stroke="midnightblue" d="M426.84,-479.89C396.82,-482.68 359.26,-486.17 329.01,-488.98"/>
<polygon fill="midnightblue" stroke="midnightblue" points="427.49,-483.35 437.13,-478.94 426.85,-476.38 427.49,-483.35"/>
</g>
<!-- Node9 -->
<g id="node9" class="node">
<title>Node9</title>
<g id="a_node9"><a xlink:href="decmp_8h_aefe0fa39fdc295432f5e2e0f91f0b87f.html#aefe0fa39fdc295432f5e2e0f91f0b87f" target="_top" xlink:title="decompress a compression entity">
<polygon fill="white" stroke="black" points="414.5,-819.5 414.5,-838.5 546.5,-838.5 546.5,-819.5 414.5,-819.5"/>
<text text-anchor="middle" x="480.5" y="-826.5" font-family="Helvetica,sans-Serif" font-size="10.00">decompress_cmp_entiy</text>
</a>
</g>
</g>
<!-- Node8&#45;&gt;Node9 -->
<g id="edge8" class="edge">
<title>Node8&#45;&gt;Node9</title>
<path fill="none" stroke="midnightblue" d="M624.3,-791.12C591.51,-799.82 547.94,-811.38 517.59,-819.43"/>
<polygon fill="midnightblue" stroke="midnightblue" points="625.33,-794.47 634.1,-788.52 623.54,-787.7 625.33,-794.47"/>
</g>
<!-- Node16 -->
<g id="node16" class="node">
<title>Node16</title>
<g id="a_node16"><a xlink:href="test__decmp_8c_a83b6283115165bfb92bf9008dcbdc41d.html#a83b6283115165bfb92bf9008dcbdc41d" target="_top" xlink:title=" ">
<polygon fill="white" stroke="black" points="406,-732 406,-762 555,-762 555,-732 406,-732"/>
<text text-anchor="start" x="414" y="-750" font-family="Helvetica,sans-Serif" font-size="10.00">test_cmp_ent_read_header</text>
<text text-anchor="middle" x="480.5" y="-739" font-family="Helvetica,sans-Serif" font-size="10.00">_error_cases</text>
</a>
</g>
</g>
<!-- Node8&#45;&gt;Node16 -->
<g id="edge15" class="edge">
<title>Node8&#45;&gt;Node16</title>
<path fill="none" stroke="midnightblue" d="M603.8,-767.76C588.07,-765.09 571.19,-762.23 555.15,-759.5"/>
<polygon fill="midnightblue" stroke="midnightblue" points="603.51,-771.26 613.95,-769.49 604.68,-764.36 603.51,-771.26"/>
</g>
<!-- Node8&#45;&gt;Node17 -->
<g id="edge16" class="edge">
<title>Node8&#45;&gt;Node17</title>
<path fill="none" stroke="midnightblue" d="M647.57,-763.42C632.26,-752.44 611.79,-737.06 595,-722 577.68,-706.47 576.64,-699.17 559,-684 542.22,-669.56 521.58,-655.33 505.83,-645.11"/>
<polygon fill="midnightblue" stroke="midnightblue" points="645.74,-766.41 655.92,-769.34 649.79,-760.7 645.74,-766.41"/>
</g>
<!-- Node9&#45;&gt;Node10 -->
<g id="edge9" class="edge">
<title>Node9&#45;&gt;Node10</title>
<path fill="none" stroke="midnightblue" d="M404.06,-821.99C387.49,-820.45 369.91,-818.82 353.23,-817.27"/>
<polygon fill="midnightblue" stroke="midnightblue" points="403.95,-825.5 414.23,-822.94 404.6,-818.53 403.95,-825.5"/>
</g>
<!-- Node9&#45;&gt;Node12 -->
<g id="edge11" class="edge">
<title>Node9&#45;&gt;Node12</title>
<path fill="none" stroke="midnightblue" d="M421.65,-815.86C414.68,-812.93 407.93,-809.35 402,-805 379.33,-788.38 389.43,-768.53 366,-753 360.22,-749.16 353.81,-746.08 347.15,-743.61"/>
<polygon fill="midnightblue" stroke="midnightblue" points="420.65,-819.23 431.24,-819.48 423.12,-812.68 420.65,-819.23"/>
</g>
<!-- Node13 -->
<g id="node13" class="node">
<title>Node13</title>
<g id="a_node13"><a xlink:href="test__decmp_8c_a1a33e2fcbf484c79dfe661b280386f6b.html#a1a33e2fcbf484c79dfe661b280386f6b" target="_top" xlink:title=" ">
<polygon fill="white" stroke="black" points="201,-762.5 201,-781.5 347,-781.5 347,-762.5 201,-762.5"/>
<text text-anchor="middle" x="274" y="-769.5" font-family="Helvetica,sans-Serif" font-size="10.00">test_cmp_decmp_s_fx_diff</text>
</a>
</g>
</g>
<!-- Node9&#45;&gt;Node13 -->
<g id="edge12" class="edge">
<title>Node9&#45;&gt;Node13</title>
<path fill="none" stroke="midnightblue" d="M437.12,-816.47C425.67,-812.92 413.31,-808.95 402,-805 385.79,-799.35 382.46,-795.88 366,-791 353.93,-787.42 340.77,-784.26 328.3,-781.59"/>
<polygon fill="midnightblue" stroke="midnightblue" points="436.32,-819.88 446.9,-819.46 438.37,-813.19 436.32,-819.88"/>
</g>
<!-- Node14 -->
<g id="node14" class="node">
<title>Node14</title>
<g id="a_node14"><a xlink:href="test__decmp_8c_acfebf2fa7515f5449e0cfa594457b66b.html#acfebf2fa7515f5449e0cfa594457b66b" target="_top" xlink:title=" ">
<polygon fill="white" stroke="black" points="233,-876.5 233,-895.5 315,-895.5 315,-876.5 233,-876.5"/>
<text text-anchor="middle" x="274" y="-883.5" font-family="Helvetica,sans-Serif" font-size="10.00">test_s_fx_diff</text>
</a>
</g>
</g>
<!-- Node9&#45;&gt;Node14 -->
<g id="edge13" class="edge">
<title>Node9&#45;&gt;Node14</title>
<path fill="none" stroke="midnightblue" d="M443.95,-842.1C421.74,-849.98 392.44,-859.84 366,-867 349.49,-871.47 331.05,-875.5 315.11,-878.68"/>
<polygon fill="midnightblue" stroke="midnightblue" points="445.39,-845.3 453.62,-838.63 443.02,-838.71 445.39,-845.3"/>
</g>
<!-- Node15 -->
<g id="node15" class="node">
<title>Node15</title>
<g id="a_node15"><a xlink:href="test__decmp_8c_a953eeaad914985c0816dde26d47ffef0.html#a953eeaad914985c0816dde26d47ffef0" target="_top" xlink:title=" ">
<polygon fill="white" stroke="black" points="225.5,-838.5 225.5,-857.5 322.5,-857.5 322.5,-838.5 225.5,-838.5"/>
<text text-anchor="middle" x="274" y="-845.5" font-family="Helvetica,sans-Serif" font-size="10.00">test_s_fx_model</text>
</a>
</g>
</g>
<!-- Node9&#45;&gt;Node15 -->
<g id="edge14" class="edge">
<title>Node9&#45;&gt;Node15</title>
<path fill="none" stroke="midnightblue" d="M403.98,-836.02C376.82,-838.54 346.96,-841.31 322.82,-843.56"/>
<polygon fill="midnightblue" stroke="midnightblue" points="404.6,-839.47 414.23,-835.06 403.95,-832.5 404.6,-839.47"/>
</g>
<!-- Node11 -->
<g id="node11" class="node">
<title>Node11</title>
<g id="a_node11"><a xlink:href="test__cmp__decmp_8c_af3c162694b40683e0aa25c61a49cdafc.html#af3c162694b40683e0aa25c61a49cdafc" target="_top" xlink:title="random compression decompression test">
<polygon fill="white" stroke="black" points="0,-795 0,-825 146,-825 146,-795 0,-795"/>
<text text-anchor="start" x="8" y="-813" font-family="Helvetica,sans-Serif" font-size="10.00">test_random_compression</text>
<text text-anchor="middle" x="73" y="-802" font-family="Helvetica,sans-Serif" font-size="10.00">_decompression</text>
</a>
</g>
</g>
<!-- Node10&#45;&gt;Node11 -->
<g id="edge10" class="edge">
<title>Node10&#45;&gt;Node11</title>
<path fill="none" stroke="midnightblue" d="M184.63,-810C171.72,-810 158.55,-810 146.01,-810"/>
<polygon fill="midnightblue" stroke="midnightblue" points="184.92,-813.5 194.92,-810 184.92,-806.5 184.92,-813.5"/>
</g>
<!-- Node18&#45;&gt;Node13 -->
<g id="edge19" class="edge">
<title>Node18&#45;&gt;Node13</title>
<path fill="none" stroke="midnightblue" d="M407.92,-600.9C405.82,-602.45 403.84,-604.14 402,-606 354.73,-653.86 414.37,-706.26 366,-753 360.54,-758.27 354.03,-762.25 347.02,-765.23"/>
<polygon fill="midnightblue" stroke="midnightblue" points="409.81,-603.85 416.55,-595.67 406.18,-597.87 409.81,-603.85"/>
</g>
<!-- Node21 -->
<g id="node21" class="node">
<title>Node21</title>
<g id="a_node21"><a xlink:href="cmp__entity_8c_a6fc83a1c918c2d0c565f8f828fce62b7.html#a6fc83a1c918c2d0c565f8f828fce62b7" target="_top" xlink:title="get the size of the compressed data based on the set data product type and compressed entity size in ...">
<polygon fill="white" stroke="black" points="783,-421.5 783,-440.5 941,-440.5 941,-421.5 783,-421.5"/>
<text text-anchor="middle" x="862" y="-428.5" font-family="Helvetica,sans-Serif" font-size="10.00">cmp_ent_get_cmp_data_size</text>
</a>
</g>
</g>
<!-- Node20&#45;&gt;Node21 -->
<g id="edge25" class="edge">
<title>Node20&#45;&gt;Node21</title>
<path fill="none" stroke="midnightblue" d="M1014.89,-362.75C977.82,-379.41 916.36,-407.03 884.16,-421.49"/>
<polygon fill="midnightblue" stroke="midnightblue" points="1016.52,-365.86 1024.21,-358.57 1013.65,-359.47 1016.52,-365.86"/>
</g>
<!-- Node30 -->
<g id="node30" class="node">
<title>Node30</title>
<g id="a_node30"><a xlink:href="cmp__entity_8c_a68231b2e9bea9310df96a475d248979b.html#a68231b2e9bea9310df96a475d248979b" target="_top" xlink:title="print the content of the compression entity header">
<polygon fill="white" stroke="black" points="799.5,-339.5 799.5,-358.5 924.5,-358.5 924.5,-339.5 799.5,-339.5"/>
<text text-anchor="middle" x="862" y="-346.5" font-family="Helvetica,sans-Serif" font-size="10.00">cmp_ent_print_header</text>
</a>
</g>
</g>
<!-- Node20&#45;&gt;Node30 -->
<g id="edge46" class="edge">
<title>Node20&#45;&gt;Node30</title>
<path fill="none" stroke="midnightblue" d="M973.94,-349C957.63,-349 940.43,-349 924.57,-349"/>
<polygon fill="midnightblue" stroke="midnightblue" points="973.97,-352.5 983.97,-349 973.97,-345.5 973.97,-352.5"/>
</g>
<!-- Node21&#45;&gt;Node3 -->
<g id="edge26" class="edge">
<title>Node21&#45;&gt;Node3</title>
<path fill="none" stroke="midnightblue" d="M848.47,-449.04C811.91,-501.65 706.22,-653.75 678.65,-693.44"/>
<polygon fill="midnightblue" stroke="midnightblue" points="851.44,-450.89 854.27,-440.68 845.69,-446.9 851.44,-450.89"/>
</g>
<!-- Node21&#45;&gt;Node5 -->
<g id="edge27" class="edge">
<title>Node21&#45;&gt;Node5</title>
<path fill="none" stroke="midnightblue" d="M809.99,-442.88C779.54,-449.96 741.39,-458.84 712.93,-465.47"/>
<polygon fill="midnightblue" stroke="midnightblue" points="811.04,-446.22 819.99,-440.55 809.46,-439.41 811.04,-446.22"/>
</g>
<!-- Node21&#45;&gt;Node8 -->
<g id="edge28" class="edge">
<title>Node21&#45;&gt;Node8</title>
<path fill="none" stroke="midnightblue" d="M857.15,-450.8C846.68,-500.6 813.92,-633.45 747,-722 731.42,-742.62 706.5,-759.5 689.71,-769.4"/>
<polygon fill="midnightblue" stroke="midnightblue" points="860.63,-451.23 859.19,-440.73 853.77,-449.83 860.63,-451.23"/>
</g>
<!-- Node21&#45;&gt;Node17 -->
<g id="edge44" class="edge">
<title>Node21&#45;&gt;Node17</title>
<path fill="none" stroke="midnightblue" d="M845.42,-448.15C824.74,-470.08 786.23,-508.07 747,-532 679.89,-572.94 592.95,-600.98 537.19,-616.26"/>
<polygon fill="midnightblue" stroke="midnightblue" points="848.2,-450.31 852.44,-440.6 843.07,-445.54 848.2,-450.31"/>
</g>
<!-- Node21&#45;&gt;Node22 -->
<g id="edge29" class="edge">
<title>Node21&#45;&gt;Node22</title>
<path fill="none" stroke="midnightblue" d="M836.11,-445.74C808.24,-462.06 764.67,-487.02 747,-494 737.63,-497.7 727.31,-500.87 717.41,-503.49"/>
<polygon fill="midnightblue" stroke="midnightblue" points="838.06,-448.65 844.9,-440.57 834.51,-442.62 838.06,-448.65"/>
</g>
<!-- Node21&#45;&gt;Node24 -->
<g id="edge41" class="edge">
<title>Node21&#45;&gt;Node24</title>
<path fill="none" stroke="midnightblue" d="M813.56,-419.18C793.2,-414.59 769.06,-409.77 747,-407 597.06,-388.17 418.45,-386.09 330.11,-386.4"/>
<polygon fill="midnightblue" stroke="midnightblue" points="812.99,-422.64 823.52,-421.48 814.57,-415.82 812.99,-422.64"/>
</g>
<!-- Node21&#45;&gt;Node26 -->
<g id="edge45" class="edge">
<title>Node21&#45;&gt;Node26</title>
<path fill="none" stroke="midnightblue" d="M835.42,-416.45C812.68,-403.9 778.29,-385.81 747,-373 676.2,-344.02 591.47,-318.77 537.1,-303.71"/>
<polygon fill="midnightblue" stroke="midnightblue" points="833.97,-419.65 844.41,-421.47 837.38,-413.54 833.97,-419.65"/>
</g>
<!-- Node21&#45;&gt;Node27 -->
<g id="edge39" class="edge">
<title>Node21&#45;&gt;Node27</title>
<path fill="none" stroke="midnightblue" d="M836.93,-415.6C820.24,-404.03 798.34,-386.95 783,-368 760.74,-340.5 773.1,-320.88 747,-297 740.38,-290.94 732.38,-286.04 724.11,-282.09"/>
<polygon fill="midnightblue" stroke="midnightblue" points="835.35,-418.75 845.6,-421.44 839.26,-412.95 835.35,-418.75"/>
</g>
<!-- Node21&#45;&gt;Node28 -->
<g id="edge42" class="edge">
<title>Node21&#45;&gt;Node28</title>
<path fill="none" stroke="midnightblue" d="M835.33,-416.14C818.16,-404.95 796.36,-388.13 783,-368 751.03,-319.83 788.28,-283.47 747,-243 742.28,-238.38 736.63,-234.79 730.56,-232.02"/>
<polygon fill="midnightblue" stroke="midnightblue" points="833.48,-419.11 843.81,-421.46 837.2,-413.18 833.48,-419.11"/>
</g>
<!-- Node29 -->
<g id="node29" class="node">
<title>Node29</title>
<g id="a_node29"><a xlink:href="test__cmp__entity_8c_a41cc3aa5c0bcd8ac649017d31689e8ba.html#a41cc3aa5c0bcd8ac649017d31689e8ba" target="_top" xlink:title=" ">
<polygon fill="white" stroke="black" points="606,-416 606,-446 736,-446 736,-416 606,-416"/>
<text text-anchor="start" x="614" y="-434" font-family="Helvetica,sans-Serif" font-size="10.00">test_cmp_ent_get_cmp</text>
<text text-anchor="middle" x="671" y="-423" font-family="Helvetica,sans-Serif" font-size="10.00">_data_size</text>
</a>
</g>
</g>
<!-- Node21&#45;&gt;Node29 -->
<g id="edge43" class="edge">
<title>Node21&#45;&gt;Node29</title>
<path fill="none" stroke="midnightblue" d="M772.5,-431C760.22,-431 747.8,-431 736.08,-431"/>
<polygon fill="midnightblue" stroke="midnightblue" points="772.76,-434.5 782.76,-431 772.76,-427.5 772.76,-434.5"/>
</g>
<!-- Node22&#45;&gt;Node17 -->
<g id="edge37" class="edge">
<title>Node22&#45;&gt;Node17</title>
<path fill="none" stroke="midnightblue" d="M611.6,-526.58C605.63,-529.42 599.95,-532.85 595,-537 568.77,-558.95 585.2,-583.02 559,-605 552.61,-610.36 545.05,-614.58 537.19,-617.89"/>
<polygon fill="midnightblue" stroke="midnightblue" points="613.29,-529.67 621.16,-522.58 610.58,-523.21 613.29,-529.67"/>
</g>
<!-- Node22&#45;&gt;Node18 -->
<g id="edge36" class="edge">
<title>Node22&#45;&gt;Node18</title>
<path fill="none" stroke="midnightblue" d="M627.97,-525.65C617.16,-529.12 605.59,-533.03 595,-537 562.04,-549.35 524.73,-565.99 502.17,-576.35"/>
<polygon fill="midnightblue" stroke="midnightblue" points="629.17,-528.94 637.65,-522.59 627.06,-522.27 629.17,-528.94"/>
</g>
<!-- Node23 -->
<g id="node23" class="node">
<title>Node23</title>
<g id="a_node23"><a xlink:href="cmp__entity_8c_ac68e6942c21572a9513a9a7577126458.html#ac68e6942c21572a9513a9a7577126458" target="_top" xlink:title="create a compression entity and set the header fields">
<polygon fill="white" stroke="black" points="436.5,-503.5 436.5,-522.5 524.5,-522.5 524.5,-503.5 436.5,-503.5"/>
<text text-anchor="middle" x="480.5" y="-510.5" font-family="Helvetica,sans-Serif" font-size="10.00">cmp_ent_build</text>
</a>
</g>
</g>
<!-- Node22&#45;&gt;Node23 -->
<g id="edge30" class="edge">
<title>Node22&#45;&gt;Node23</title>
<path fill="none" stroke="midnightblue" d="M590.12,-513C567.64,-513 544.05,-513 524.62,-513"/>
<polygon fill="midnightblue" stroke="midnightblue" points="590.35,-516.5 600.35,-513 590.35,-509.5 590.35,-516.5"/>
</g>
<!-- Node22&#45;&gt;Node26 -->
<g id="edge38" class="edge">
<title>Node22&#45;&gt;Node26</title>
<path fill="none" stroke="midnightblue" d="M602.44,-498.92C599.84,-497.44 597.34,-495.81 595,-494 561.25,-467.99 506.73,-347.26 488.03,-304.26"/>
<polygon fill="midnightblue" stroke="midnightblue" points="601.13,-502.18 611.65,-503.39 604.18,-495.88 601.13,-502.18"/>
</g>
<!-- Node23&#45;&gt;Node7 -->
<g id="edge35" class="edge">
<title>Node23&#45;&gt;Node7</title>
<path fill="none" stroke="midnightblue" d="M425.92,-508.02C396.13,-505.25 359.15,-501.82 329.25,-499.04"/>
<polygon fill="midnightblue" stroke="midnightblue" points="425.85,-511.53 436.13,-508.97 426.5,-504.56 425.85,-511.53"/>
</g>
<!-- Node23&#45;&gt;Node10 -->
<g id="edge31" class="edge">
<title>Node23&#45;&gt;Node10</title>
<path fill="none" stroke="midnightblue" d="M447.78,-527.41C431.5,-536.45 412.86,-549.7 402,-567 348.37,-652.39 435.62,-718.06 366,-791 362.21,-794.97 357.82,-798.22 353.06,-800.87"/>
<polygon fill="midnightblue" stroke="midnightblue" points="449.78,-530.31 457.01,-522.57 446.53,-524.11 449.78,-530.31"/>
</g>
<!-- Node23&#45;&gt;Node12 -->
<g id="edge32" class="edge">
<title>Node23&#45;&gt;Node12</title>
<path fill="none" stroke="midnightblue" d="M453.89,-527.98C438.02,-537.93 417.73,-551.91 402,-567 347.32,-619.45 297.66,-696.91 280.95,-724.12"/>
<polygon fill="midnightblue" stroke="midnightblue" points="455.96,-530.82 462.66,-522.61 452.3,-524.85 455.96,-530.82"/>
</g>
<!-- Node23&#45;&gt;Node24 -->
<g id="edge33" class="edge">
<title>Node23&#45;&gt;Node24</title>
<path fill="none" stroke="midnightblue" d="M426.55,-503.49C418.1,-500.99 409.63,-497.88 402,-494 350.85,-468 302.48,-417.77 283.48,-396.69"/>
<polygon fill="midnightblue" stroke="midnightblue" points="425.85,-506.92 436.41,-506.13 427.66,-500.16 425.85,-506.92"/>
</g>
<!-- Node25 -->
<g id="node25" class="node">
<title>Node25</title>
<g id="a_node25"><a xlink:href="test__cmp__entity_8c_a893444224bcd50fbb99e42e85989b4a6.html#a893444224bcd50fbb99e42e85989b4a6" target="_top" xlink:title=" ">
<polygon fill="white" stroke="black" points="216.5,-219.5 216.5,-238.5 331.5,-238.5 331.5,-219.5 216.5,-219.5"/>
<text text-anchor="middle" x="274" y="-226.5" font-family="Helvetica,sans-Serif" font-size="10.00">test_cmp_ent_parse</text>
</a>
</g>
</g>
<!-- Node23&#45;&gt;Node25 -->
<g id="edge34" class="edge">
<title>Node23&#45;&gt;Node25</title>
<path fill="none" stroke="midnightblue" d="M426.3,-507.82C417.32,-504.88 408.74,-500.49 402,-494 360.04,-453.6 390.22,-420.96 366,-368 342.01,-315.54 299.96,-260.21 282.71,-238.51"/>
<polygon fill="midnightblue" stroke="midnightblue" points="425.57,-511.25 436.14,-510.48 427.4,-504.49 425.57,-511.25"/>
</g>
<!-- Node27&#45;&gt;Node26 -->
<g id="edge40" class="edge">
<title>Node27&#45;&gt;Node26</title>
<path fill="none" stroke="midnightblue" d="M603.32,-274.78C581.64,-277.31 557.82,-280.09 537.04,-282.52"/>
<polygon fill="midnightblue" stroke="midnightblue" points="603.92,-278.24 613.44,-273.6 603.11,-271.28 603.92,-278.24"/>
</g>
<!-- Node30&#45;&gt;Node6 -->
<g id="edge47" class="edge">
<title>Node30&#45;&gt;Node6</title>
<path fill="none" stroke="midnightblue" d="M789.45,-358.15C734.82,-366.65 658.4,-381.88 595,-407 555.92,-422.48 514.71,-450.58 494.39,-465.34"/>
<polygon fill="midnightblue" stroke="midnightblue" points="790.03,-361.6 799.39,-356.64 788.98,-354.68 790.03,-361.6"/>
</g>
<!-- Node32 -->
<g id="node32" class="node">
<title>Node32</title>
<g id="a_node32"><a xlink:href="cmp__entity_8c_a1f4478c4d9938fa6f5631e88298ed816.html#a1f4478c4d9938fa6f5631e88298ed816" target="_top" xlink:title="parse the compressed entity header">
<polygon fill="white" stroke="black" points="816.5,-93.5 816.5,-112.5 907.5,-112.5 907.5,-93.5 816.5,-93.5"/>
<text text-anchor="middle" x="862" y="-100.5" font-family="Helvetica,sans-Serif" font-size="10.00">cmp_ent_parse</text>
</a>
</g>
</g>
<!-- Node31&#45;&gt;Node32 -->
<g id="edge49" class="edge">
<title>Node31&#45;&gt;Node32</title>
<path fill="none" stroke="midnightblue" d="M979.34,-71.76C951.98,-79.11 921.35,-87.33 898.39,-93.5"/>
<polygon fill="midnightblue" stroke="midnightblue" points="980.5,-75.07 989.25,-69.1 978.69,-68.31 980.5,-75.07"/>
</g>
<!-- Node32&#45;&gt;Node25 -->
<g id="edge50" class="edge">
<title>Node32&#45;&gt;Node25</title>
<path fill="none" stroke="midnightblue" d="M806.17,-96.71C717.9,-88.73 540.23,-81.56 402,-133 350.71,-152.09 302.79,-199.08 283.7,-219.39"/>
<polygon fill="midnightblue" stroke="midnightblue" points="805.94,-100.21 816.22,-97.66 806.6,-93.24 805.94,-100.21"/>
</g>
<!-- Node33&#45;&gt;Node32 -->
<g id="edge52" class="edge">
<title>Node33&#45;&gt;Node32</title>
<path fill="none" stroke="midnightblue" d="M970.1,-103C948.92,-103 926.55,-103 907.78,-103"/>
<polygon fill="midnightblue" stroke="midnightblue" points="970.39,-106.5 980.39,-103 970.39,-99.5 970.39,-106.5"/>
</g>
</g>
</svg>
        <g id="navigator" transform="translate(0 0)" fill="#404254">
                <rect fill="#f2f5e9" fill-opacity="0.5" stroke="#606060" stroke-width=".5" x="0" y="0" width="60" height="60"/>
                <use id="zoomplus" xlink:href="#zoomPlus" x="17" y="9" onmousedown="handleZoom(evt,'in')"/>
                <use id="zoomminus" xlink:href="#zoomMin" x="42" y="9" onmousedown="handleZoom(evt,'out')"/>
                <use id="reset" xlink:href="#resetDef" x="30" y="36" onmousedown="handleReset()"/>
                <g id="arrowUp" xlink:href="#dirArrow" transform="translate(30 24)" onmousedown="handlePan(0,-1)">
                  <use xlink:href="#rim" fill="#404040">
                        <set attributeName="fill" to="#808080" begin="arrowUp.mouseover" end="arrowUp.mouseout"/>
                  </use>
                  <path fill="none" stroke="white" stroke-width="1.5" d="M0,-3.0v7 M-2.5,-0.5L0,-3.0L2.5,-0.5"/>
                </g>
                <g id="arrowRight" xlink:href="#dirArrow" transform="rotate(90) translate(36 -43)" onmousedown="handlePan(1,0)">
                  <use xlink:href="#rim" fill="#404040">
                        <set attributeName="fill" to="#808080" begin="arrowRight.mouseover" end="arrowRight.mouseout"/>
                  </use>
                  <path fill="none" stroke="white" stroke-width="1.5" d="M0,-3.0v7 M-2.5,-0.5L0,-3.0L2.5,-0.5"/>
                </g>
                <g id="arrowDown" xlink:href="#dirArrow" transform="rotate(180) translate(-30 -48)" onmousedown="handlePan(0,1)">
                  <use xlink:href="#rim" fill="#404040">
                        <set attributeName="fill" to="#808080" begin="arrowDown.mouseover" end="arrowDown.mouseout"/>
                  </use>
                  <path fill="none" stroke="white" stroke-width="1.5" d="M0,-3.0v7 M-2.5,-0.5L0,-3.0L2.5,-0.5"/>
                </g>
                <g id="arrowLeft" xlink:href="#dirArrow" transform="rotate(270) translate(-36 17)" onmousedown="handlePan(-1,0)">
                  <use xlink:href="#rim" fill="#404040">
                        <set attributeName="fill" to="#808080" begin="arrowLeft.mouseover" end="arrowLeft.mouseout"/>
                  </use>
                  <path fill="none" stroke="white" stroke-width="1.5" d="M0,-3.0v7 M-2.5,-0.5L0,-3.0L2.5,-0.5"/>
                </g>
        </g>
        <svg viewBox="0 0 15 15" width="100%" height="30px" preserveAspectRatio="xMaxYMin meet">
         <g id="arrow_out" transform="scale(0.3 0.3)">
          <a xlink:href="cmp__entity_8h_a2f2b18a1db94847afbfc30a8e7f142cf_a2f2b18a1db94847afbfc30a8e7f142cf_icgraph_org.svg" target="_base">
           <rect id="button" ry="5" rx="5" y="6" x="6" height="38" width="38"
                fill="#f2f5e9" fill-opacity="0.5" stroke="#606060" stroke-width="1.0"/>
           <path id="arrow"
             d="M 11.500037,31.436501 C 11.940474,20.09759 22.043105,11.32322 32.158766,21.979434 L 37.068811,17.246167 C 37.068811,17.246167 37.088388,32 37.088388,32 L 22.160133,31.978069 C 22.160133,31.978069 26.997745,27.140456 26.997745,27.140456 C 18.528582,18.264221 13.291696,25.230495 11.500037,31.436501 z"
             style="fill:#404040;"/>
          </a>
         </g>
        </svg>
</svg>
