<?xml version="1.0" encoding="UTF-8" standalone="no"?>
<!DOCTYPE svg PUBLIC "-//W3C//DTD SVG 1.1//EN"
 "http://www.w3.org/Graphics/SVG/1.1/DTD/svg11.dtd">
<!-- Generated by graphviz version 2.43.0 (0)
 -->
<!-- Title: cmp_ent_write_cmp_pars Pages: 1 -->
<svg width="861pt" height="1294pt"
 viewBox="0.00 0.00 861.00 1293.50" xmlns="http://www.w3.org/2000/svg" xmlns:xlink="http://www.w3.org/1999/xlink">
<g id="graph0" class="graph" transform="scale(1 1) rotate(0) translate(4 1289.5)">
<title>cmp_ent_write_cmp_pars</title>
<polygon fill="white" stroke="transparent" points="-4,4 -4,-1289.5 857,-1289.5 857,4 -4,4"/>
<!-- Node1 -->
<g id="node1" class="node">
<title>Node1</title>
<g id="a_node1"><a xlink:title="write the compression parameters from a compression configuration into the compression entity header">
<polygon fill="#bfbfbf" stroke="black" points="0,-649.5 0,-668.5 141,-668.5 141,-649.5 0,-649.5"/>
<text text-anchor="middle" x="70.5" y="-656.5" font-family="Helvetica,sans-Serif" font-size="10.00">cmp_ent_write_cmp_pars</text>
</a>
</g>
</g>
<!-- Node2 -->
<g id="node2" class="node">
<title>Node2</title>
<g id="a_node2"><a xlink:href="cmp__support_8c_a9b2702244ffc1d51b81f38b909ce84b4.html#a9b2702244ffc1d51b81f38b909ce84b4" target="_top" xlink:title="calculate the need bytes to hold a bitstream">
<polygon fill="white" stroke="black" points="211,-1235.5 211,-1254.5 309,-1254.5 309,-1235.5 211,-1235.5"/>
<text text-anchor="middle" x="260" y="-1242.5" font-family="Helvetica,sans-Serif" font-size="10.00">cmp_bit_to_byte</text>
</a>
</g>
</g>
<!-- Node1&#45;&gt;Node2 -->
<g id="edge1" class="edge">
<title>Node1&#45;&gt;Node2</title>
<path fill="none" stroke="midnightblue" d="M71.89,-668.53C74.84,-735.99 95.82,-1141.19 177,-1226 183.53,-1232.82 191.99,-1237.41 200.99,-1240.46"/>
<polygon fill="midnightblue" stroke="midnightblue" points="200.32,-1243.91 210.9,-1243.19 202.19,-1237.16 200.32,-1243.91"/>
</g>
<!-- Node3 -->
<g id="node3" class="node">
<title>Node3</title>
<g id="a_node3"><a xlink:href="cmp__data__types_8c_aafa65f72ed4d0fb99beb11c37f11ce52.html#aafa65f72ed4d0fb99beb11c37f11ce52" target="_top" xlink:title="calculate the need bytes for the data">
<polygon fill="white" stroke="black" points="198,-1197.5 198,-1216.5 322,-1216.5 322,-1197.5 198,-1197.5"/>
<text text-anchor="middle" x="260" y="-1204.5" font-family="Helvetica,sans-Serif" font-size="10.00">cmp_cal_size_of_data</text>
</a>
</g>
</g>
<!-- Node1&#45;&gt;Node3 -->
<g id="edge2" class="edge">
<title>Node1&#45;&gt;Node3</title>
<path fill="none" stroke="midnightblue" d="M72.32,-668.61C77.85,-731.69 111.55,-1086.46 177,-1169 185.62,-1179.87 198.08,-1187.77 210.68,-1193.45"/>
<polygon fill="midnightblue" stroke="midnightblue" points="209.71,-1196.83 220.29,-1197.37 212.36,-1190.35 209.71,-1196.83"/>
</g>
<!-- Node6 -->
<g id="node6" class="node">
<title>Node6</title>
<g id="a_node6"><a xlink:href="cmp__entity_8c_a6fc83a1c918c2d0c565f8f828fce62b7.html#a6fc83a1c918c2d0c565f8f828fce62b7" target="_top" xlink:title="get the size of the compressed data based on the set data product type and compressed entity size in ...">
<polygon fill="white" stroke="black" points="181,-1140.5 181,-1159.5 339,-1159.5 339,-1140.5 181,-1140.5"/>
<text text-anchor="middle" x="260" y="-1147.5" font-family="Helvetica,sans-Serif" font-size="10.00">cmp_ent_get_cmp_data_size</text>
</a>
</g>
</g>
<!-- Node1&#45;&gt;Node6 -->
<g id="edge5" class="edge">
<title>Node1&#45;&gt;Node6</title>
<path fill="none" stroke="midnightblue" d="M72.37,-668.69C77.98,-729.28 110.99,-1055.72 177,-1126 180.59,-1129.82 184.75,-1133.04 189.26,-1135.76"/>
<polygon fill="midnightblue" stroke="midnightblue" points="187.8,-1138.95 198.29,-1140.39 190.99,-1132.72 187.8,-1138.95"/>
</g>
<!-- Node10 -->
<g id="node10" class="node">
<title>Node10</title>
<g id="a_node10"><a xlink:href="cmp__entity_8c_a2f2b18a1db94847afbfc30a8e7f142cf.html#a2f2b18a1db94847afbfc30a8e7f142cf" target="_top" xlink:title="get data_type from the compression entity header">
<polygon fill="white" stroke="black" points="540,-1132.5 540,-1151.5 674,-1151.5 674,-1132.5 540,-1132.5"/>
<text text-anchor="middle" x="607" y="-1139.5" font-family="Helvetica,sans-Serif" font-size="10.00">cmp_ent_get_data_type</text>
</a>
</g>
</g>
<!-- Node1&#45;&gt;Node10 -->
<g id="edge12" class="edge">
<title>Node1&#45;&gt;Node10</title>
<path fill="none" stroke="midnightblue" d="M72.43,-668.76C78.22,-727.02 111.03,-1028.17 177,-1087 183.53,-1092.83 408.25,-1119.36 529.77,-1133.33"/>
<polygon fill="midnightblue" stroke="midnightblue" points="529.43,-1136.81 539.77,-1134.48 530.23,-1129.86 529.43,-1136.81"/>
</g>
<!-- Node11 -->
<g id="node11" class="node">
<title>Node11</title>
<g id="a_node11"><a xlink:href="cmp__entity_8c_a8edb7fa093195536f03038be2a5341a4.html#a8edb7fa093195536f03038be2a5341a4" target="_top" xlink:title="get the raw bit from the data_type field of the compression entity header">
<polygon fill="white" stroke="black" points="540,-1067 540,-1097 674,-1097 674,-1067 540,-1067"/>
<text text-anchor="start" x="548" y="-1085" font-family="Helvetica,sans-Serif" font-size="10.00">cmp_ent_get_data_type</text>
<text text-anchor="middle" x="607" y="-1074" font-family="Helvetica,sans-Serif" font-size="10.00">_raw_bit</text>
</a>
</g>
</g>
<!-- Node1&#45;&gt;Node11 -->
<g id="edge13" class="edge">
<title>Node1&#45;&gt;Node11</title>
<path fill="none" stroke="midnightblue" d="M72.59,-668.82C78.99,-724.82 113.72,-1003.13 177,-1055 229.07,-1097.68 420.84,-1093.61 529.53,-1087.49"/>
<polygon fill="midnightblue" stroke="midnightblue" points="530,-1090.97 539.78,-1086.89 529.6,-1083.98 530,-1090.97"/>
</g>
<!-- Node13 -->
<g id="node13" class="node">
<title>Node13</title>
<g id="a_node13"><a xlink:href="cmp__entity_8c_ad021295d7f4a0337c722d2231b1194b0.html#ad021295d7f4a0337c722d2231b1194b0" target="_top" xlink:title="set the used compression mode in the compression entity header">
<polygon fill="white" stroke="black" points="191,-1026.5 191,-1045.5 329,-1045.5 329,-1026.5 191,-1026.5"/>
<text text-anchor="middle" x="260" y="-1033.5" font-family="Helvetica,sans-Serif" font-size="10.00">cmp_ent_set_cmp_mode</text>
</a>
</g>
</g>
<!-- Node1&#45;&gt;Node13 -->
<g id="edge14" class="edge">
<title>Node1&#45;&gt;Node13</title>
<path fill="none" stroke="midnightblue" d="M71.14,-668.71C70,-715.04 71.5,-915.46 177,-1016 178.95,-1017.86 181.04,-1019.55 183.24,-1021.1"/>
<polygon fill="midnightblue" stroke="midnightblue" points="181.84,-1024.33 192.24,-1026.34 185.36,-1018.28 181.84,-1024.33"/>
</g>
<!-- Node14 -->
<g id="node14" class="node">
<title>Node14</title>
<g id="a_node14"><a xlink:href="cmp__entity_8c_a8b5ffc6bbde573699f7ea678d580d27d.html#a8b5ffc6bbde573699f7ea678d580d27d" target="_top" xlink:title="set adaptive 1 Golomb parameter in the adaptive imagette specific compression entity header">
<polygon fill="white" stroke="black" points="197,-977 197,-1007 323,-1007 323,-977 197,-977"/>
<text text-anchor="start" x="205" y="-995" font-family="Helvetica,sans-Serif" font-size="10.00">cmp_ent_set_ima_ap1</text>
<text text-anchor="middle" x="260" y="-984" font-family="Helvetica,sans-Serif" font-size="10.00">_golomb_par</text>
</a>
</g>
</g>
<!-- Node1&#45;&gt;Node14 -->
<g id="edge15" class="edge">
<title>Node1&#45;&gt;Node14</title>
<path fill="none" stroke="midnightblue" d="M71.79,-668.67C73.58,-710.71 86.37,-879.4 177,-967 180.28,-970.17 183.95,-972.94 187.87,-975.36"/>
<polygon fill="midnightblue" stroke="midnightblue" points="186.32,-978.5 196.79,-980.11 189.61,-972.32 186.32,-978.5"/>
</g>
<!-- Node15 -->
<g id="node15" class="node">
<title>Node15</title>
<g id="a_node15"><a xlink:href="cmp__entity_8c_a0193596a3fc1047e67384991d303dae5.html#a0193596a3fc1047e67384991d303dae5" target="_top" xlink:title=" ">
<polygon fill="white" stroke="black" points="197,-928 197,-958 323,-958 323,-928 197,-928"/>
<text text-anchor="start" x="205" y="-946" font-family="Helvetica,sans-Serif" font-size="10.00">cmp_ent_set_ima_ap1</text>
<text text-anchor="middle" x="260" y="-935" font-family="Helvetica,sans-Serif" font-size="10.00">_spill</text>
</a>
</g>
</g>
<!-- Node1&#45;&gt;Node15 -->
<g id="edge16" class="edge">
<title>Node1&#45;&gt;Node15</title>
<path fill="none" stroke="midnightblue" d="M72.49,-668.65C76.9,-706.47 98.12,-845.98 177,-918 180.21,-920.94 183.77,-923.53 187.53,-925.81"/>
<polygon fill="midnightblue" stroke="midnightblue" points="186.18,-929.06 196.66,-930.62 189.44,-922.86 186.18,-929.06"/>
</g>
<!-- Node16 -->
<g id="node16" class="node">
<title>Node16</title>
<g id="a_node16"><a xlink:href="cmp__entity_8c_a4dc8c50598ca23dae683cd37618e0000.html#a4dc8c50598ca23dae683cd37618e0000" target="_top" xlink:title="set adaptive 2 Golomb parameter in the adaptive imagette specific compression entity header">
<polygon fill="white" stroke="black" points="197,-879 197,-909 323,-909 323,-879 197,-879"/>
<text text-anchor="start" x="205" y="-897" font-family="Helvetica,sans-Serif" font-size="10.00">cmp_ent_set_ima_ap2</text>
<text text-anchor="middle" x="260" y="-886" font-family="Helvetica,sans-Serif" font-size="10.00">_golomb_par</text>
</a>
</g>
</g>
<!-- Node1&#45;&gt;Node16 -->
<g id="edge17" class="edge">
<title>Node1&#45;&gt;Node16</title>
<path fill="none" stroke="midnightblue" d="M73.49,-668.62C80.84,-701.74 109.63,-812.19 177,-869 180.26,-871.75 183.83,-874.2 187.58,-876.38"/>
<polygon fill="midnightblue" stroke="midnightblue" points="186.13,-879.57 196.63,-880.99 189.31,-873.34 186.13,-879.57"/>
</g>
<!-- Node17 -->
<g id="node17" class="node">
<title>Node17</title>
<g id="a_node17"><a xlink:href="cmp__entity_8c_a4696ca79f327709dba461878ca481d54.html#a4696ca79f327709dba461878ca481d54" target="_top" xlink:title=" ">
<polygon fill="white" stroke="black" points="197,-830 197,-860 323,-860 323,-830 197,-830"/>
<text text-anchor="start" x="205" y="-848" font-family="Helvetica,sans-Serif" font-size="10.00">cmp_ent_set_ima_ap2</text>
<text text-anchor="middle" x="260" y="-837" font-family="Helvetica,sans-Serif" font-size="10.00">_spill</text>
</a>
</g>
</g>
<!-- Node1&#45;&gt;Node17 -->
<g id="edge18" class="edge">
<title>Node1&#45;&gt;Node17</title>
<path fill="none" stroke="midnightblue" d="M75.06,-668.65C85.83,-696.53 120.85,-777.9 177,-820 180.35,-822.51 183.95,-824.77 187.71,-826.81"/>
<polygon fill="midnightblue" stroke="midnightblue" points="186.2,-829.96 196.73,-831.16 189.24,-823.66 186.2,-829.96"/>
</g>
<!-- Node18 -->
<g id="node18" class="node">
<title>Node18</title>
<g id="a_node18"><a xlink:href="cmp__entity_8c_ae8a6e666a0ecf3bde65cefa3ae38dd21.html#ae8a6e666a0ecf3bde65cefa3ae38dd21" target="_top" xlink:title="set used Golomb parameter in the (adaptive) imagette specific compression entity header">
<polygon fill="white" stroke="black" points="177,-791.5 177,-810.5 343,-810.5 343,-791.5 177,-791.5"/>
<text text-anchor="middle" x="260" y="-798.5" font-family="Helvetica,sans-Serif" font-size="10.00">cmp_ent_set_ima_golomb_par</text>
</a>
</g>
</g>
<!-- Node1&#45;&gt;Node18 -->
<g id="edge19" class="edge">
<title>Node1&#45;&gt;Node18</title>
<path fill="none" stroke="midnightblue" d="M76.91,-668.83C90.44,-692.4 128.16,-752.4 177,-782 180.59,-784.17 184.4,-786.1 188.34,-787.8"/>
<polygon fill="midnightblue" stroke="midnightblue" points="187.14,-791.09 197.73,-791.39 189.64,-784.55 187.14,-791.09"/>
</g>
<!-- Node19 -->
<g id="node19" class="node">
<title>Node19</title>
<g id="a_node19"><a xlink:href="cmp__entity_8c_aaf2a65e24eb510577c6521f3929d9a63.html#aaf2a65e24eb510577c6521f3929d9a63" target="_top" xlink:title="set the used spillover threshold parameter in the (adaptive) imagette specific compression entity hea...">
<polygon fill="white" stroke="black" points="196,-753.5 196,-772.5 324,-772.5 324,-753.5 196,-753.5"/>
<text text-anchor="middle" x="260" y="-760.5" font-family="Helvetica,sans-Serif" font-size="10.00">cmp_ent_set_ima_spill</text>
</a>
</g>
</g>
<!-- Node1&#45;&gt;Node19 -->
<g id="edge20" class="edge">
<title>Node1&#45;&gt;Node19</title>
<path fill="none" stroke="midnightblue" d="M80.37,-668.58C97.35,-686.31 136.39,-724.24 177,-744 181.93,-746.4 187.17,-748.5 192.53,-750.34"/>
<polygon fill="midnightblue" stroke="midnightblue" points="191.68,-753.74 202.27,-753.39 193.77,-747.06 191.68,-753.74"/>
</g>
<!-- Node20 -->
<g id="node20" class="node">
<title>Node20</title>
<g id="a_node20"><a xlink:href="cmp__entity_8c_a9a96fdc3bd0053e965c962eb99e2dc2e.html#a9a96fdc3bd0053e965c962eb99e2dc2e" target="_top" xlink:title="set the used lossy compression parameter in the compression entity header">
<polygon fill="white" stroke="black" points="181.5,-715.5 181.5,-734.5 338.5,-734.5 338.5,-715.5 181.5,-715.5"/>
<text text-anchor="middle" x="260" y="-722.5" font-family="Helvetica,sans-Serif" font-size="10.00">cmp_ent_set_lossy_cmp_par</text>
</a>
</g>
</g>
<!-- Node1&#45;&gt;Node20 -->
<g id="edge21" class="edge">
<title>Node1&#45;&gt;Node20</title>
<path fill="none" stroke="midnightblue" d="M90.93,-668.68C111.81,-678.79 146.14,-694.59 177,-705 185.67,-707.92 194.98,-710.61 204.12,-713"/>
<polygon fill="midnightblue" stroke="midnightblue" points="203.36,-716.42 213.92,-715.48 205.08,-709.63 203.36,-716.42"/>
</g>
<!-- Node21 -->
<g id="node21" class="node">
<title>Node21</title>
<g id="a_node21"><a xlink:href="cmp__entity_8c_aaf83e1291af78fdd1d6d3ce5b8e2e9da.html#aaf83e1291af78fdd1d6d3ce5b8e2e9da" target="_top" xlink:title="set version identifier for the maximum used bits registry in the compression entity header">
<polygon fill="white" stroke="black" points="193,-666 193,-696 327,-696 327,-666 193,-666"/>
<text text-anchor="start" x="201" y="-684" font-family="Helvetica,sans-Serif" font-size="10.00">cmp_ent_set_max_used</text>
<text text-anchor="middle" x="260" y="-673" font-family="Helvetica,sans-Serif" font-size="10.00">_bits_version</text>
</a>
</g>
</g>
<!-- Node1&#45;&gt;Node21 -->
<g id="edge22" class="edge">
<title>Node1&#45;&gt;Node21</title>
<path fill="none" stroke="midnightblue" d="M141.05,-667.16C154.72,-668.76 169.13,-670.46 183,-672.08"/>
<polygon fill="midnightblue" stroke="midnightblue" points="182.64,-675.56 192.98,-673.25 183.46,-668.61 182.64,-675.56"/>
</g>
<!-- Node22 -->
<g id="node22" class="node">
<title>Node22</title>
<g id="a_node22"><a xlink:href="cmp__entity_8c_a62ce924b62513abc25d2c3a9f79890ac.html#a62ce924b62513abc25d2c3a9f79890ac" target="_top" xlink:title="set the used model weighing value in the compression entity header">
<polygon fill="white" stroke="black" points="186.5,-627.5 186.5,-646.5 333.5,-646.5 333.5,-627.5 186.5,-627.5"/>
<text text-anchor="middle" x="260" y="-634.5" font-family="Helvetica,sans-Serif" font-size="10.00">cmp_ent_set_model_value</text>
</a>
</g>
</g>
<!-- Node1&#45;&gt;Node22 -->
<g id="edge23" class="edge">
<title>Node1&#45;&gt;Node22</title>
<path fill="none" stroke="midnightblue" d="M141.05,-650.84C152.5,-649.5 164.46,-648.09 176.19,-646.72"/>
<polygon fill="midnightblue" stroke="midnightblue" points="176.9,-650.16 186.42,-645.52 176.08,-643.21 176.9,-650.16"/>
</g>
<!-- Node23 -->
<g id="node23" class="node">
<title>Node23</title>
<g id="a_node23"><a xlink:href="cmp__entity_8c_aed5298f52ddca4254e863dc9eb9bbcb3.html#aed5298f52ddca4254e863dc9eb9bbcb3" target="_top" xlink:title="set used compression parameter 1 in the non&#45;imagette specific compression entity header">
<polygon fill="white" stroke="black" points="197,-578 197,-608 323,-608 323,-578 197,-578"/>
<text text-anchor="start" x="205" y="-596" font-family="Helvetica,sans-Serif" font-size="10.00">cmp_ent_set_non_ima</text>
<text text-anchor="middle" x="260" y="-585" font-family="Helvetica,sans-Serif" font-size="10.00">_cmp_par1</text>
</a>
</g>
</g>
<!-- Node1&#45;&gt;Node23 -->
<g id="edge24" class="edge">
<title>Node1&#45;&gt;Node23</title>
<path fill="none" stroke="midnightblue" d="M94.78,-649.38C116.03,-640.73 148.4,-627.9 177,-618 183.77,-615.66 190.89,-613.31 197.99,-611.05"/>
<polygon fill="midnightblue" stroke="midnightblue" points="199.14,-614.35 207.63,-608.02 197.04,-607.68 199.14,-614.35"/>
</g>
<!-- Node24 -->
<g id="node24" class="node">
<title>Node24</title>
<g id="a_node24"><a xlink:href="cmp__entity_8c_a163d27566f8219d33e276c1bccc61605.html#a163d27566f8219d33e276c1bccc61605" target="_top" xlink:title="set used compression parameter 2 in the non&#45;imagette specific compression entity header">
<polygon fill="white" stroke="black" points="197,-529 197,-559 323,-559 323,-529 197,-529"/>
<text text-anchor="start" x="205" y="-547" font-family="Helvetica,sans-Serif" font-size="10.00">cmp_ent_set_non_ima</text>
<text text-anchor="middle" x="260" y="-536" font-family="Helvetica,sans-Serif" font-size="10.00">_cmp_par2</text>
</a>
</g>
</g>
<!-- Node1&#45;&gt;Node24 -->
<g id="edge25" class="edge">
<title>Node1&#45;&gt;Node24</title>
<path fill="none" stroke="midnightblue" d="M80.07,-649.23C96.85,-630.7 135.99,-590.31 177,-568 180.42,-566.14 184,-564.41 187.67,-562.8"/>
<polygon fill="midnightblue" stroke="midnightblue" points="189,-566.04 196.95,-559.05 186.37,-559.55 189,-566.04"/>
</g>
<!-- Node25 -->
<g id="node25" class="node">
<title>Node25</title>
<g id="a_node25"><a xlink:href="cmp__entity_8c_af36df22b3611828aa65508b3837d32f8.html#af36df22b3611828aa65508b3837d32f8" target="_top" xlink:title="set used compression parameter 3 in the non&#45;imagette specific compression entity header">
<polygon fill="white" stroke="black" points="197,-480 197,-510 323,-510 323,-480 197,-480"/>
<text text-anchor="start" x="205" y="-498" font-family="Helvetica,sans-Serif" font-size="10.00">cmp_ent_set_non_ima</text>
<text text-anchor="middle" x="260" y="-487" font-family="Helvetica,sans-Serif" font-size="10.00">_cmp_par3</text>
</a>
</g>
</g>
<!-- Node1&#45;&gt;Node25 -->
<g id="edge26" class="edge">
<title>Node1&#45;&gt;Node25</title>
<path fill="none" stroke="midnightblue" d="M76.1,-649.14C88.54,-623.58 125.43,-554.65 177,-519 180.27,-516.74 183.75,-514.69 187.37,-512.83"/>
<polygon fill="midnightblue" stroke="midnightblue" points="188.97,-515.95 196.59,-508.59 186.04,-509.59 188.97,-515.95"/>
</g>
<!-- Node26 -->
<g id="node26" class="node">
<title>Node26</title>
<g id="a_node26"><a xlink:href="cmp__entity_8c_aee11ab5bb119a37fbd63e7e7134acd7a.html#aee11ab5bb119a37fbd63e7e7134acd7a" target="_top" xlink:title="set used compression parameter 4 in the non&#45;imagette specific compression entity header">
<polygon fill="white" stroke="black" points="197,-431 197,-461 323,-461 323,-431 197,-431"/>
<text text-anchor="start" x="205" y="-449" font-family="Helvetica,sans-Serif" font-size="10.00">cmp_ent_set_non_ima</text>
<text text-anchor="middle" x="260" y="-438" font-family="Helvetica,sans-Serif" font-size="10.00">_cmp_par4</text>
</a>
</g>
</g>
<!-- Node1&#45;&gt;Node26 -->
<g id="edge27" class="edge">
<title>Node1&#45;&gt;Node26</title>
<path fill="none" stroke="midnightblue" d="M74.01,-649.46C82.65,-618.52 114.13,-520.14 177,-470 180.33,-467.35 183.94,-464.99 187.73,-462.89"/>
<polygon fill="midnightblue" stroke="midnightblue" points="189.39,-465.97 196.84,-458.45 186.32,-459.68 189.39,-465.97"/>
</g>
<!-- Node27 -->
<g id="node27" class="node">
<title>Node27</title>
<g id="a_node27"><a xlink:href="cmp__entity_8c_a08efcd54258bfa5c209deec92ea8819d.html#a08efcd54258bfa5c209deec92ea8819d" target="_top" xlink:title="set used compression parameter 5 in the non&#45;imagette specific compression entity header">
<polygon fill="white" stroke="black" points="197,-382 197,-412 323,-412 323,-382 197,-382"/>
<text text-anchor="start" x="205" y="-400" font-family="Helvetica,sans-Serif" font-size="10.00">cmp_ent_set_non_ima</text>
<text text-anchor="middle" x="260" y="-389" font-family="Helvetica,sans-Serif" font-size="10.00">_cmp_par5</text>
</a>
</g>
</g>
<!-- Node1&#45;&gt;Node27 -->
<g id="edge28" class="edge">
<title>Node1&#45;&gt;Node27</title>
<path fill="none" stroke="midnightblue" d="M72.88,-649.12C78.49,-612.86 102.87,-485.91 177,-421 180.26,-418.14 183.85,-415.62 187.65,-413.4"/>
<polygon fill="midnightblue" stroke="midnightblue" points="189.49,-416.39 196.83,-408.75 186.33,-410.15 189.49,-416.39"/>
</g>
<!-- Node28 -->
<g id="node28" class="node">
<title>Node28</title>
<g id="a_node28"><a xlink:href="cmp__entity_8c_a2bbb2d5043bf11053702cbf429b7127c.html#a2bbb2d5043bf11053702cbf429b7127c" target="_top" xlink:title="set used compression parameter 6 in the non&#45;imagette specific compression entity header">
<polygon fill="white" stroke="black" points="197,-333 197,-363 323,-363 323,-333 197,-333"/>
<text text-anchor="start" x="205" y="-351" font-family="Helvetica,sans-Serif" font-size="10.00">cmp_ent_set_non_ima</text>
<text text-anchor="middle" x="260" y="-340" font-family="Helvetica,sans-Serif" font-size="10.00">_cmp_par6</text>
</a>
</g>
</g>
<!-- Node1&#45;&gt;Node28 -->
<g id="edge29" class="edge">
<title>Node1&#45;&gt;Node28</title>
<path fill="none" stroke="midnightblue" d="M72.03,-649.42C74.79,-609.2 90.9,-452.47 177,-372 180.32,-368.9 184.02,-366.19 187.96,-363.84"/>
<polygon fill="midnightblue" stroke="midnightblue" points="189.64,-366.91 196.92,-359.21 186.43,-360.69 189.64,-366.91"/>
</g>
<!-- Node29 -->
<g id="node29" class="node">
<title>Node29</title>
<g id="a_node29"><a xlink:href="cmp__entity_8c_a7e5b486dfbccd42d6f99635c40d5b7a6.html#a7e5b486dfbccd42d6f99635c40d5b7a6" target="_top" xlink:title=" ">
<polygon fill="white" stroke="black" points="197,-284 197,-314 323,-314 323,-284 197,-284"/>
<text text-anchor="start" x="205" y="-302" font-family="Helvetica,sans-Serif" font-size="10.00">cmp_ent_set_non_ima</text>
<text text-anchor="middle" x="260" y="-291" font-family="Helvetica,sans-Serif" font-size="10.00">_spill1</text>
</a>
</g>
</g>
<!-- Node1&#45;&gt;Node29 -->
<g id="edge30" class="edge">
<title>Node1&#45;&gt;Node29</title>
<path fill="none" stroke="midnightblue" d="M71.45,-649.36C71.75,-605.05 79,-419.11 177,-323 180.25,-319.82 183.89,-317.05 187.79,-314.65"/>
<polygon fill="midnightblue" stroke="midnightblue" points="189.47,-317.72 196.68,-309.96 186.2,-311.53 189.47,-317.72"/>
</g>
<!-- Node30 -->
<g id="node30" class="node">
<title>Node30</title>
<g id="a_node30"><a xlink:href="cmp__entity_8c_ac30c374a89e60b3d7aa53f757e93671e.html#ac30c374a89e60b3d7aa53f757e93671e" target="_top" xlink:title=" ">
<polygon fill="white" stroke="black" points="197,-235 197,-265 323,-265 323,-235 197,-235"/>
<text text-anchor="start" x="205" y="-253" font-family="Helvetica,sans-Serif" font-size="10.00">cmp_ent_set_non_ima</text>
<text text-anchor="middle" x="260" y="-242" font-family="Helvetica,sans-Serif" font-size="10.00">_spill2</text>
</a>
</g>
</g>
<!-- Node1&#45;&gt;Node30 -->
<g id="edge31" class="edge">
<title>Node1&#45;&gt;Node30</title>
<path fill="none" stroke="midnightblue" d="M72.87,-649.3C80.67,-595.16 121.25,-330.72 177,-274 180.25,-270.7 183.92,-267.84 187.87,-265.38"/>
<polygon fill="midnightblue" stroke="midnightblue" points="189.71,-268.36 196.89,-260.58 186.42,-262.18 189.71,-268.36"/>
</g>
<!-- Node31 -->
<g id="node31" class="node">
<title>Node31</title>
<g id="a_node31"><a xlink:href="cmp__entity_8c_a7a5be3ef337c142b58868be71f60d08c.html#a7a5be3ef337c142b58868be71f60d08c" target="_top" xlink:title=" ">
<polygon fill="white" stroke="black" points="197,-186 197,-216 323,-216 323,-186 197,-186"/>
<text text-anchor="start" x="205" y="-204" font-family="Helvetica,sans-Serif" font-size="10.00">cmp_ent_set_non_ima</text>
<text text-anchor="middle" x="260" y="-193" font-family="Helvetica,sans-Serif" font-size="10.00">_spill3</text>
</a>
</g>
</g>
<!-- Node1&#45;&gt;Node31 -->
<g id="edge32" class="edge">
<title>Node1&#45;&gt;Node31</title>
<path fill="none" stroke="midnightblue" d="M72.55,-649.24C79.02,-591.03 115.15,-289.78 177,-225 180.2,-221.65 183.84,-218.76 187.76,-216.27"/>
<polygon fill="midnightblue" stroke="midnightblue" points="189.6,-219.25 196.74,-211.43 186.28,-213.09 189.6,-219.25"/>
</g>
<!-- Node32 -->
<g id="node32" class="node">
<title>Node32</title>
<g id="a_node32"><a xlink:href="cmp__entity_8c_a7a02b262488e3de0afb8590d076e4e23.html#a7a02b262488e3de0afb8590d076e4e23" target="_top" xlink:title=" ">
<polygon fill="white" stroke="black" points="197,-137 197,-167 323,-167 323,-137 197,-137"/>
<text text-anchor="start" x="205" y="-155" font-family="Helvetica,sans-Serif" font-size="10.00">cmp_ent_set_non_ima</text>
<text text-anchor="middle" x="260" y="-144" font-family="Helvetica,sans-Serif" font-size="10.00">_spill4</text>
</a>
</g>
</g>
<!-- Node1&#45;&gt;Node32 -->
<g id="edge33" class="edge">
<title>Node1&#45;&gt;Node32</title>
<path fill="none" stroke="midnightblue" d="M72.28,-649.38C77.49,-587.79 108.95,-248.97 177,-176 180.16,-172.61 183.77,-169.7 187.67,-167.18"/>
<polygon fill="midnightblue" stroke="midnightblue" points="189.51,-170.17 196.61,-162.31 186.16,-164.02 189.51,-170.17"/>
</g>
<!-- Node33 -->
<g id="node33" class="node">
<title>Node33</title>
<g id="a_node33"><a xlink:href="cmp__entity_8c_a03e489d7c29dd85023e7b974c68462a7.html#a03e489d7c29dd85023e7b974c68462a7" target="_top" xlink:title=" ">
<polygon fill="white" stroke="black" points="197,-88 197,-118 323,-118 323,-88 197,-88"/>
<text text-anchor="start" x="205" y="-106" font-family="Helvetica,sans-Serif" font-size="10.00">cmp_ent_set_non_ima</text>
<text text-anchor="middle" x="260" y="-95" font-family="Helvetica,sans-Serif" font-size="10.00">_spill5</text>
</a>
</g>
</g>
<!-- Node1&#45;&gt;Node33 -->
<g id="edge34" class="edge">
<title>Node1&#45;&gt;Node33</title>
<path fill="none" stroke="midnightblue" d="M72.08,-649.27C76.19,-583.85 102.8,-208.11 177,-127 180.18,-123.52 183.84,-120.53 187.81,-117.97"/>
<polygon fill="midnightblue" stroke="midnightblue" points="189.8,-120.87 196.91,-113.02 186.46,-114.72 189.8,-120.87"/>
</g>
<!-- Node34 -->
<g id="node34" class="node">
<title>Node34</title>
<g id="a_node34"><a xlink:href="cmp__entity_8c_a7542cacb7d07f590c41a98eed8289687.html#a7542cacb7d07f590c41a98eed8289687" target="_top" xlink:title=" ">
<polygon fill="white" stroke="black" points="197,-39 197,-69 323,-69 323,-39 197,-39"/>
<text text-anchor="start" x="205" y="-57" font-family="Helvetica,sans-Serif" font-size="10.00">cmp_ent_set_non_ima</text>
<text text-anchor="middle" x="260" y="-46" font-family="Helvetica,sans-Serif" font-size="10.00">_spill6</text>
</a>
</g>
</g>
<!-- Node1&#45;&gt;Node34 -->
<g id="edge35" class="edge">
<title>Node1&#45;&gt;Node34</title>
<path fill="none" stroke="midnightblue" d="M71.91,-649.28C74.97,-580.51 96.59,-167.34 177,-78 180.16,-74.49 183.79,-71.49 187.74,-68.91"/>
<polygon fill="midnightblue" stroke="midnightblue" points="189.73,-71.81 196.82,-63.94 186.37,-65.67 189.73,-71.81"/>
</g>
<!-- Node35 -->
<g id="node35" class="node">
<title>Node35</title>
<g id="a_node35"><a xlink:href="cmp__entity_8c_a11adb9fb51386d64d43236fdfe3302df.html#a11adb9fb51386d64d43236fdfe3302df" target="_top" xlink:title="set the original size of the compressed data in the entity header">
<polygon fill="white" stroke="black" points="187,-0.5 187,-19.5 333,-19.5 333,-0.5 187,-0.5"/>
<text text-anchor="middle" x="260" y="-7.5" font-family="Helvetica,sans-Serif" font-size="10.00">cmp_ent_set_original_size</text>
</a>
</g>
</g>
<!-- Node1&#45;&gt;Node35 -->
<g id="edge36" class="edge">
<title>Node1&#45;&gt;Node35</title>
<path fill="none" stroke="midnightblue" d="M71.7,-649.36C73.4,-577.38 87.56,-124.14 177,-29 178.09,-27.84 179.25,-26.74 180.45,-25.7"/>
<polygon fill="midnightblue" stroke="midnightblue" points="182.83,-28.3 189.01,-19.7 178.81,-22.57 182.83,-28.3"/>
</g>
<!-- Node4 -->
<g id="node4" class="node">
<title>Node4</title>
<g id="a_node4"><a xlink:href="cmp__support_8c_a9197caa657b3d84615c0d323dc96c502.html#a9197caa657b3d84615c0d323dc96c502" target="_top" xlink:title="check if the data product data type is supported by the RDCU compressor">
<polygon fill="white" stroke="black" points="382,-1255 382,-1285 501,-1285 501,-1255 382,-1255"/>
<text text-anchor="start" x="390" y="-1273" font-family="Helvetica,sans-Serif" font-size="10.00">rdcu_supported_data</text>
<text text-anchor="middle" x="441.5" y="-1262" font-family="Helvetica,sans-Serif" font-size="10.00">_type_is_used</text>
</a>
</g>
</g>
<!-- Node3&#45;&gt;Node4 -->
<g id="edge3" class="edge">
<title>Node3&#45;&gt;Node4</title>
<path fill="none" stroke="midnightblue" d="M311.47,-1216.54C322.04,-1219.13 333,-1222.28 343,-1226 359.95,-1232.32 362.6,-1237.36 379,-1245 383.34,-1247.02 387.9,-1249.05 392.48,-1251.02"/>
<polygon fill="midnightblue" stroke="midnightblue" points="391.29,-1254.32 401.86,-1254.98 394.01,-1247.87 391.29,-1254.32"/>
</g>
<!-- Node5 -->
<g id="node5" class="node">
<title>Node5</title>
<g id="a_node5"><a xlink:href="cmp__data__types_8c_a0be8705b1dcc45f605abd8400dd5230b.html#a0be8705b1dcc45f605abd8400dd5230b" target="_top" xlink:title="calculate the size of a sample for the different compression data type">
<polygon fill="white" stroke="black" points="389.5,-1216.5 389.5,-1235.5 493.5,-1235.5 493.5,-1216.5 389.5,-1216.5"/>
<text text-anchor="middle" x="441.5" y="-1223.5" font-family="Helvetica,sans-Serif" font-size="10.00">size_of_a_sample</text>
</a>
</g>
</g>
<!-- Node3&#45;&gt;Node5 -->
<g id="edge4" class="edge">
<title>Node3&#45;&gt;Node5</title>
<path fill="none" stroke="midnightblue" d="M322.02,-1213.46C340.46,-1215.41 360.7,-1217.55 379.16,-1219.51"/>
<polygon fill="midnightblue" stroke="midnightblue" points="378.9,-1223 389.21,-1220.57 379.63,-1216.04 378.9,-1223"/>
</g>
<!-- Node7 -->
<g id="node7" class="node">
<title>Node7</title>
<g id="a_node7"><a xlink:href="cmp__entity_8c_a802778418cfd52cf107c7af6d0405e8a.html#a802778418cfd52cf107c7af6d0405e8a" target="_top" xlink:title="get the size of the compression entity header based on the set data product type in compression entit...">
<polygon fill="white" stroke="black" points="379,-1178.5 379,-1197.5 504,-1197.5 504,-1178.5 379,-1178.5"/>
<text text-anchor="middle" x="441.5" y="-1185.5" font-family="Helvetica,sans-Serif" font-size="10.00">cmp_ent_get_hdr_size</text>
</a>
</g>
</g>
<!-- Node6&#45;&gt;Node7 -->
<g id="edge6" class="edge">
<title>Node6&#45;&gt;Node7</title>
<path fill="none" stroke="midnightblue" d="M306.3,-1159.59C330.41,-1164.69 360.25,-1171.01 385.67,-1176.39"/>
<polygon fill="midnightblue" stroke="midnightblue" points="385.02,-1179.83 395.53,-1178.48 386.47,-1172.98 385.02,-1179.83"/>
</g>
<!-- Node12 -->
<g id="node12" class="node">
<title>Node12</title>
<g id="a_node12"><a xlink:href="cmp__entity_8c_a5046b9ebae291aeeba89b4f9eaf43673.html#a5046b9ebae291aeeba89b4f9eaf43673" target="_top" xlink:title="get the size of the compression entity from the compression entity header">
<polygon fill="white" stroke="black" points="389.5,-1140.5 389.5,-1159.5 493.5,-1159.5 493.5,-1140.5 389.5,-1140.5"/>
<text text-anchor="middle" x="441.5" y="-1147.5" font-family="Helvetica,sans-Serif" font-size="10.00">cmp_ent_get_size</text>
</a>
</g>
</g>
<!-- Node6&#45;&gt;Node12 -->
<g id="edge11" class="edge">
<title>Node6&#45;&gt;Node12</title>
<path fill="none" stroke="midnightblue" d="M339.21,-1150C352.63,-1150 366.4,-1150 379.29,-1150"/>
<polygon fill="midnightblue" stroke="midnightblue" points="379.42,-1153.5 389.42,-1150 379.42,-1146.5 379.42,-1153.5"/>
</g>
<!-- Node8 -->
<g id="node8" class="node">
<title>Node8</title>
<g id="a_node8"><a xlink:href="cmp__entity_8c_ac4f3e5eb03e7dc0f1a646dd150543af5.html#ac4f3e5eb03e7dc0f1a646dd150543af5" target="_top" xlink:title="calculate the size of the compression entity header based on a compression data product type">
<polygon fill="white" stroke="black" points="545,-1178.5 545,-1197.5 669,-1197.5 669,-1178.5 545,-1178.5"/>
<text text-anchor="middle" x="607" y="-1185.5" font-family="Helvetica,sans-Serif" font-size="10.00">cmp_ent_cal_hdr_size</text>
</a>
</g>
</g>
<!-- Node7&#45;&gt;Node8 -->
<g id="edge7" class="edge">
<title>Node7&#45;&gt;Node8</title>
<path fill="none" stroke="midnightblue" d="M504.31,-1188C514.28,-1188 524.67,-1188 534.84,-1188"/>
<polygon fill="midnightblue" stroke="midnightblue" points="534.91,-1191.5 544.91,-1188 534.91,-1184.5 534.91,-1191.5"/>
</g>
<!-- Node7&#45;&gt;Node10 -->
<g id="edge9" class="edge">
<title>Node7&#45;&gt;Node10</title>
<path fill="none" stroke="midnightblue" d="M476.38,-1178.47C501.26,-1171.47 535.28,-1161.9 562.22,-1154.32"/>
<polygon fill="midnightblue" stroke="midnightblue" points="563.49,-1157.6 572.17,-1151.52 561.59,-1150.86 563.49,-1157.6"/>
</g>
<!-- Node7&#45;&gt;Node11 -->
<g id="edge10" class="edge">
<title>Node7&#45;&gt;Node11</title>
<path fill="none" stroke="midnightblue" d="M485.42,-1178.45C491.96,-1175.97 498.39,-1172.87 504,-1169 525.38,-1154.27 520.68,-1140.34 540,-1123 548.46,-1115.41 558.49,-1108.38 568.15,-1102.36"/>
<polygon fill="midnightblue" stroke="midnightblue" points="570.09,-1105.28 576.86,-1097.13 566.49,-1099.28 570.09,-1105.28"/>
</g>
<!-- Node9 -->
<g id="node9" class="node">
<title>Node9</title>
<g id="a_node9"><a xlink:href="cmp__support_8c_af2129b98a4b5c7f856e97776962d7881.html#af2129b98a4b5c7f856e97776962d7881" target="_top" xlink:title="check if the compression entity data product type is supported">
<polygon fill="white" stroke="black" points="710,-1178.5 710,-1197.5 853,-1197.5 853,-1178.5 710,-1178.5"/>
<text text-anchor="middle" x="781.5" y="-1185.5" font-family="Helvetica,sans-Serif" font-size="10.00">cmp_data_type_is_invalid</text>
</a>
</g>
</g>
<!-- Node8&#45;&gt;Node9 -->
<g id="edge8" class="edge">
<title>Node8&#45;&gt;Node9</title>
<path fill="none" stroke="midnightblue" d="M669.3,-1188C679.18,-1188 689.54,-1188 699.79,-1188"/>
<polygon fill="midnightblue" stroke="midnightblue" points="699.98,-1191.5 709.98,-1188 699.98,-1184.5 699.98,-1191.5"/>
</g>
</g>
</svg>
