<?xml version="1.0" encoding="UTF-8" standalone="no"?>
<!DOCTYPE svg PUBLIC "-//W3C//DTD SVG 1.1//EN"
 "http://www.w3.org/Graphics/SVG/1.1/DTD/svg11.dtd">
<!-- Generated by graphviz version 2.43.0 (0)
 -->
<!-- Title: is_a_pow_of_2 Pages: 1 -->
<svg width="867pt" height="1090pt"
 viewBox="0.00 0.00 867.00 1090.00" xmlns="http://www.w3.org/2000/svg" xmlns:xlink="http://www.w3.org/1999/xlink">
<g id="graph0" class="graph" transform="scale(1 1) rotate(0) translate(4 1086)">
<title>is_a_pow_of_2</title>
<polygon fill="white" stroke="transparent" points="-4,4 -4,-1086 863,-1086 863,4 -4,4"/>
<!-- Node1 -->
<g id="node1" class="node">
<title>Node1</title>
<g id="a_node1"><a xlink:title="determining if an integer is a power of 2">
<polygon fill="#bfbfbf" stroke="black" points="771,-575.5 771,-594.5 859,-594.5 859,-575.5 771,-575.5"/>
<text text-anchor="middle" x="815" y="-582.5" font-family="Helvetica,sans-Serif" font-size="10.00">is_a_pow_of_2</text>
</a>
</g>
</g>
<!-- Node2 -->
<g id="node2" class="node">
<title>Node2</title>
<g id="a_node2"><a xlink:href="cmp__icu_8c_a5434cde7ebe64a734bcd3029e0755d39.html#a5434cde7ebe64a734bcd3029e0755d39" target="_top" xlink:title="configure an encoder setup structure to have a setup to encode a vale">
<polygon fill="white" stroke="black" points="597,-758.5 597,-777.5 735,-777.5 735,-758.5 597,-758.5"/>
<text text-anchor="middle" x="666" y="-765.5" font-family="Helvetica,sans-Serif" font-size="10.00">configure_encoder_setup</text>
</a>
</g>
</g>
<!-- Node1&#45;&gt;Node2 -->
<g id="edge1" class="edge">
<title>Node1&#45;&gt;Node2</title>
<path fill="none" stroke="midnightblue" d="M799.81,-602.67C769.39,-640.53 698.76,-728.47 674.98,-758.07"/>
<polygon fill="midnightblue" stroke="midnightblue" points="802.77,-604.57 806.3,-594.58 797.31,-600.19 802.77,-604.57"/>
</g>
<!-- Node50 -->
<g id="node28" class="node">
<title>Node50</title>
<g id="a_node28"><a xlink:href="decmp_8c_ac57439dd4b34cf8fb663756f2b7b2549.html#ac57439dd4b34cf8fb663756f2b7b2549" target="_top" xlink:title="select the decoder based on the used Golomb parameter">
<polygon fill="white" stroke="black" points="621,-392.5 621,-411.5 711,-411.5 711,-392.5 621,-392.5"/>
<text text-anchor="middle" x="666" y="-399.5" font-family="Helvetica,sans-Serif" font-size="10.00">select_decoder</text>
</a>
</g>
</g>
<!-- Node1&#45;&gt;Node50 -->
<g id="edge42" class="edge">
<title>Node1&#45;&gt;Node50</title>
<path fill="none" stroke="midnightblue" d="M799.81,-567.33C769.39,-529.47 698.76,-441.53 674.98,-411.93"/>
<polygon fill="midnightblue" stroke="midnightblue" points="797.31,-569.81 806.3,-575.42 802.77,-565.43 797.31,-569.81"/>
</g>
<!-- Node3 -->
<g id="node3" class="node">
<title>Node3</title>
<g id="a_node3"><a xlink:href="cmp__icu_8c_adcd70e1df20dbd835f12f1518e0e5913.html#adcd70e1df20dbd835f12f1518e0e5913" target="_top" xlink:title="compress background data from the normal and fast cameras">
<polygon fill="white" stroke="black" points="414.5,-1062.5 414.5,-1081.5 540.5,-1081.5 540.5,-1062.5 414.5,-1062.5"/>
<text text-anchor="middle" x="477.5" y="-1069.5" font-family="Helvetica,sans-Serif" font-size="10.00">compress_background</text>
</a>
</g>
</g>
<!-- Node2&#45;&gt;Node3 -->
<g id="edge2" class="edge">
<title>Node2&#45;&gt;Node3</title>
<path fill="none" stroke="midnightblue" d="M663.98,-787.85C660.17,-839.86 642.47,-981.02 561,-1053 555.16,-1058.16 548.21,-1061.99 540.84,-1064.84"/>
<polygon fill="midnightblue" stroke="midnightblue" points="667.48,-787.85 664.62,-777.65 660.5,-787.41 667.48,-787.85"/>
</g>
<!-- Node35 -->
<g id="node13" class="node">
<title>Node35</title>
<g id="a_node13"><a xlink:href="cmp__icu_8c_a6579c62abdb392078ff769daed82e3de.html#a6579c62abdb392078ff769daed82e3de" target="_top" xlink:title="compress F_FX data">
<polygon fill="white" stroke="black" points="433.5,-1024.5 433.5,-1043.5 521.5,-1043.5 521.5,-1024.5 433.5,-1024.5"/>
<text text-anchor="middle" x="477.5" y="-1031.5" font-family="Helvetica,sans-Serif" font-size="10.00">compress_f_fx</text>
</a>
</g>
</g>
<!-- Node2&#45;&gt;Node35 -->
<g id="edge12" class="edge">
<title>Node2&#45;&gt;Node35</title>
<path fill="none" stroke="midnightblue" d="M662.75,-787.71C656.27,-834.77 633.2,-954.27 561,-1015 550.09,-1024.18 535.6,-1029.13 521.82,-1031.74"/>
<polygon fill="midnightblue" stroke="midnightblue" points="666.24,-787.98 664.03,-777.62 659.3,-787.1 666.24,-787.98"/>
</g>
<!-- Node36 -->
<g id="node14" class="node">
<title>Node36</title>
<g id="a_node14"><a xlink:href="cmp__icu_8c_a62fbfd95fc2341952d7bea6e3254524e.html#a62fbfd95fc2341952d7bea6e3254524e" target="_top" xlink:title="compress F_FX_EFX data">
<polygon fill="white" stroke="black" points="423,-986.5 423,-1005.5 532,-1005.5 532,-986.5 423,-986.5"/>
<text text-anchor="middle" x="477.5" y="-993.5" font-family="Helvetica,sans-Serif" font-size="10.00">compress_f_fx_efx</text>
</a>
</g>
</g>
<!-- Node2&#45;&gt;Node36 -->
<g id="edge14" class="edge">
<title>Node2&#45;&gt;Node36</title>
<path fill="none" stroke="midnightblue" d="M661.09,-787.76C651.73,-829.6 623.97,-927.35 561,-977 552.69,-983.55 542.53,-987.92 532.21,-990.82"/>
<polygon fill="midnightblue" stroke="midnightblue" points="664.56,-788.25 663.21,-777.74 657.71,-786.8 664.56,-788.25"/>
</g>
<!-- Node37 -->
<g id="node15" class="node">
<title>Node37</title>
<g id="a_node15"><a xlink:href="cmp__icu_8c_a3df4e4d9132cd8f7b230390c2e652b98.html#a3df4e4d9132cd8f7b230390c2e652b98" target="_top" xlink:title="compress F_FX_EFX_NCOB_ECOB data">
<polygon fill="white" stroke="black" points="394.5,-948.5 394.5,-967.5 560.5,-967.5 560.5,-948.5 394.5,-948.5"/>
<text text-anchor="middle" x="477.5" y="-955.5" font-family="Helvetica,sans-Serif" font-size="10.00">compress_f_fx_efx_ncob_ecob</text>
</a>
</g>
</g>
<!-- Node2&#45;&gt;Node37 -->
<g id="edge16" class="edge">
<title>Node2&#45;&gt;Node37</title>
<path fill="none" stroke="midnightblue" d="M658.92,-787.33C646.59,-823.19 615.12,-899.92 561,-939 555.64,-942.87 549.61,-945.97 543.32,-948.45"/>
<polygon fill="midnightblue" stroke="midnightblue" points="662.32,-788.19 662.13,-777.6 655.67,-785.99 662.32,-788.19"/>
</g>
<!-- Node38 -->
<g id="node16" class="node">
<title>Node38</title>
<g id="a_node16"><a xlink:href="cmp__icu_8c_a4012970a57d0030a74668735dea00172.html#a4012970a57d0030a74668735dea00172" target="_top" xlink:title="compress F_FX_NCOB data">
<polygon fill="white" stroke="black" points="419.5,-910.5 419.5,-929.5 535.5,-929.5 535.5,-910.5 419.5,-910.5"/>
<text text-anchor="middle" x="477.5" y="-917.5" font-family="Helvetica,sans-Serif" font-size="10.00">compress_f_fx_ncob</text>
</a>
</g>
</g>
<!-- Node2&#45;&gt;Node38 -->
<g id="edge18" class="edge">
<title>Node2&#45;&gt;Node38</title>
<path fill="none" stroke="midnightblue" d="M655.81,-786.64C640.42,-815.84 606.57,-872 561,-901 553.31,-905.89 544.51,-909.53 535.58,-912.23"/>
<polygon fill="midnightblue" stroke="midnightblue" points="659.04,-788.03 660.48,-777.53 652.81,-784.84 659.04,-788.03"/>
</g>
<!-- Node39 -->
<g id="node17" class="node">
<title>Node39</title>
<g id="a_node17"><a xlink:href="cmp__icu_8c_a0c612434a54dd796d5abc627c29c9421.html#a0c612434a54dd796d5abc627c29c9421" target="_top" xlink:title="compress imagette data">
<polygon fill="white" stroke="black" points="421,-872.5 421,-891.5 534,-891.5 534,-872.5 421,-872.5"/>
<text text-anchor="middle" x="477.5" y="-879.5" font-family="Helvetica,sans-Serif" font-size="10.00">compress_imagette</text>
</a>
</g>
</g>
<!-- Node2&#45;&gt;Node39 -->
<g id="edge20" class="edge">
<title>Node2&#45;&gt;Node39</title>
<path fill="none" stroke="midnightblue" d="M651.12,-785.27C632.8,-806.85 598.47,-843.34 561,-863 552.67,-867.37 543.35,-870.74 534.05,-873.35"/>
<polygon fill="midnightblue" stroke="midnightblue" points="653.84,-787.47 657.53,-777.54 648.45,-783 653.84,-787.47"/>
</g>
<!-- Node40 -->
<g id="node18" class="node">
<title>Node40</title>
<g id="a_node18"><a xlink:href="cmp__icu_8c_a7b02a8c025e95748452f82c4f49a6711.html#a7b02a8c025e95748452f82c4f49a6711" target="_top" xlink:title="compress L_FX data">
<polygon fill="white" stroke="black" points="434,-834.5 434,-853.5 521,-853.5 521,-834.5 434,-834.5"/>
<text text-anchor="middle" x="477.5" y="-841.5" font-family="Helvetica,sans-Serif" font-size="10.00">compress_l_fx</text>
</a>
</g>
</g>
<!-- Node2&#45;&gt;Node40 -->
<g id="edge22" class="edge">
<title>Node2&#45;&gt;Node40</title>
<path fill="none" stroke="midnightblue" d="M641.84,-783.12C621.33,-795.91 590.2,-813.88 561,-825 548.36,-829.81 534.15,-833.62 521.14,-836.52"/>
<polygon fill="midnightblue" stroke="midnightblue" points="643.89,-785.97 650.47,-777.66 640.15,-780.05 643.89,-785.97"/>
</g>
<!-- Node41 -->
<g id="node19" class="node">
<title>Node41</title>
<g id="a_node19"><a xlink:href="cmp__icu_8c_af7a379568d317e90a948422d1c82c2e7.html#af7a379568d317e90a948422d1c82c2e7" target="_top" xlink:title="compress L_FX_EFX data">
<polygon fill="white" stroke="black" points="423.5,-796.5 423.5,-815.5 531.5,-815.5 531.5,-796.5 423.5,-796.5"/>
<text text-anchor="middle" x="477.5" y="-803.5" font-family="Helvetica,sans-Serif" font-size="10.00">compress_l_fx_efx</text>
</a>
</g>
</g>
<!-- Node2&#45;&gt;Node41 -->
<g id="edge24" class="edge">
<title>Node2&#45;&gt;Node41</title>
<path fill="none" stroke="midnightblue" d="M608.02,-779.61C581.5,-785.01 550.33,-791.36 525.22,-796.48"/>
<polygon fill="midnightblue" stroke="midnightblue" points="608.84,-783.02 617.94,-777.59 607.44,-776.16 608.84,-783.02"/>
</g>
<!-- Node42 -->
<g id="node20" class="node">
<title>Node42</title>
<g id="a_node20"><a xlink:href="cmp__icu_8c_a90da3140eac89a1fe4522b65fb1eecee.html#a90da3140eac89a1fe4522b65fb1eecee" target="_top" xlink:title="compress L_FX_EFX_NCOB_ECOB data">
<polygon fill="white" stroke="black" points="395,-758.5 395,-777.5 560,-777.5 560,-758.5 395,-758.5"/>
<text text-anchor="middle" x="477.5" y="-765.5" font-family="Helvetica,sans-Serif" font-size="10.00">compress_l_fx_efx_ncob_ecob</text>
</a>
</g>
</g>
<!-- Node2&#45;&gt;Node42 -->
<g id="edge26" class="edge">
<title>Node2&#45;&gt;Node42</title>
<path fill="none" stroke="midnightblue" d="M586.66,-768C577.87,-768 568.89,-768 560.06,-768"/>
<polygon fill="midnightblue" stroke="midnightblue" points="586.88,-771.5 596.88,-768 586.88,-764.5 586.88,-771.5"/>
</g>
<!-- Node43 -->
<g id="node21" class="node">
<title>Node43</title>
<g id="a_node21"><a xlink:href="cmp__icu_8c_a6b4967380e8feb9f200bb1c003ae7634.html#a6b4967380e8feb9f200bb1c003ae7634" target="_top" xlink:title="compress L_FX_NCOB data">
<polygon fill="white" stroke="black" points="419.5,-720.5 419.5,-739.5 535.5,-739.5 535.5,-720.5 419.5,-720.5"/>
<text text-anchor="middle" x="477.5" y="-727.5" font-family="Helvetica,sans-Serif" font-size="10.00">compress_l_fx_ncob</text>
</a>
</g>
</g>
<!-- Node2&#45;&gt;Node43 -->
<g id="edge28" class="edge">
<title>Node2&#45;&gt;Node43</title>
<path fill="none" stroke="midnightblue" d="M608.02,-756.39C581.5,-750.99 550.33,-744.64 525.22,-739.52"/>
<polygon fill="midnightblue" stroke="midnightblue" points="607.44,-759.84 617.94,-758.41 608.84,-752.98 607.44,-759.84"/>
</g>
<!-- Node44 -->
<g id="node22" class="node">
<title>Node44</title>
<g id="a_node22"><a xlink:href="cmp__icu_8c_af3e5138bea93ccc58461e13005e2ce87.html#af3e5138bea93ccc58461e13005e2ce87" target="_top" xlink:title="compress offset data from the normal and fast cameras">
<polygon fill="white" stroke="black" points="429,-682.5 429,-701.5 526,-701.5 526,-682.5 429,-682.5"/>
<text text-anchor="middle" x="477.5" y="-689.5" font-family="Helvetica,sans-Serif" font-size="10.00">compress_offset</text>
</a>
</g>
</g>
<!-- Node2&#45;&gt;Node44 -->
<g id="edge30" class="edge">
<title>Node2&#45;&gt;Node44</title>
<path fill="none" stroke="midnightblue" d="M641.84,-752.88C621.33,-740.09 590.2,-722.12 561,-711 550.01,-706.82 537.83,-703.39 526.28,-700.66"/>
<polygon fill="midnightblue" stroke="midnightblue" points="640.15,-755.95 650.47,-758.34 643.89,-750.03 640.15,-755.95"/>
</g>
<!-- Node45 -->
<g id="node23" class="node">
<title>Node45</title>
<g id="a_node23"><a xlink:href="cmp__icu_8c_ac63c050c284112dacbe08e7da30fffad.html#ac63c050c284112dacbe08e7da30fffad" target="_top" xlink:title="compress short normal light flux (S_FX) data">
<polygon fill="white" stroke="black" points="433,-644.5 433,-663.5 522,-663.5 522,-644.5 433,-644.5"/>
<text text-anchor="middle" x="477.5" y="-651.5" font-family="Helvetica,sans-Serif" font-size="10.00">compress_s_fx</text>
</a>
</g>
</g>
<!-- Node2&#45;&gt;Node45 -->
<g id="edge32" class="edge">
<title>Node2&#45;&gt;Node45</title>
<path fill="none" stroke="midnightblue" d="M651.12,-750.73C632.8,-729.15 598.47,-692.66 561,-673 549.16,-666.78 535.31,-662.59 522.38,-659.76"/>
<polygon fill="midnightblue" stroke="midnightblue" points="648.45,-753 657.53,-758.46 653.84,-748.53 648.45,-753"/>
</g>
<!-- Node46 -->
<g id="node24" class="node">
<title>Node46</title>
<g id="a_node24"><a xlink:href="cmp__icu_8c_a3f02fb050979064fad15ac11a9fa5791.html#a3f02fb050979064fad15ac11a9fa5791" target="_top" xlink:title="compress S_FX_EFX data">
<polygon fill="white" stroke="black" points="422.5,-606.5 422.5,-625.5 532.5,-625.5 532.5,-606.5 422.5,-606.5"/>
<text text-anchor="middle" x="477.5" y="-613.5" font-family="Helvetica,sans-Serif" font-size="10.00">compress_s_fx_efx</text>
</a>
</g>
</g>
<!-- Node2&#45;&gt;Node46 -->
<g id="edge34" class="edge">
<title>Node2&#45;&gt;Node46</title>
<path fill="none" stroke="midnightblue" d="M655.81,-749.36C640.42,-720.16 606.57,-664 561,-635 552.44,-629.56 542.51,-625.66 532.55,-622.89"/>
<polygon fill="midnightblue" stroke="midnightblue" points="652.81,-751.16 660.48,-758.47 659.04,-747.97 652.81,-751.16"/>
</g>
<!-- Node47 -->
<g id="node25" class="node">
<title>Node47</title>
<g id="a_node25"><a xlink:href="cmp__icu_8c_a0bca92c3e03d7205757caa6c343115ef.html#a0bca92c3e03d7205757caa6c343115ef" target="_top" xlink:title="compress S_FX_EFX_NCOB_ECOB data">
<polygon fill="white" stroke="black" points="394,-568.5 394,-587.5 561,-587.5 561,-568.5 394,-568.5"/>
<text text-anchor="middle" x="477.5" y="-575.5" font-family="Helvetica,sans-Serif" font-size="10.00">compress_s_fx_efx_ncob_ecob</text>
</a>
</g>
</g>
<!-- Node2&#45;&gt;Node47 -->
<g id="edge36" class="edge">
<title>Node2&#45;&gt;Node47</title>
<path fill="none" stroke="midnightblue" d="M658.92,-748.67C646.59,-712.81 615.12,-636.08 561,-597 555.64,-593.13 549.61,-590.03 543.32,-587.55"/>
<polygon fill="midnightblue" stroke="midnightblue" points="655.67,-750.01 662.13,-758.4 662.32,-747.81 655.67,-750.01"/>
</g>
<!-- Node48 -->
<g id="node26" class="node">
<title>Node48</title>
<g id="a_node26"><a xlink:href="cmp__icu_8c_a83109917c7706135b6138872f59efb27.html#a83109917c7706135b6138872f59efb27" target="_top" xlink:title="compress S_FX_NCOB data">
<polygon fill="white" stroke="black" points="418.5,-530.5 418.5,-549.5 536.5,-549.5 536.5,-530.5 418.5,-530.5"/>
<text text-anchor="middle" x="477.5" y="-537.5" font-family="Helvetica,sans-Serif" font-size="10.00">compress_s_fx_ncob</text>
</a>
</g>
</g>
<!-- Node2&#45;&gt;Node48 -->
<g id="edge38" class="edge">
<title>Node2&#45;&gt;Node48</title>
<path fill="none" stroke="midnightblue" d="M661.09,-748.24C651.73,-706.4 623.97,-608.65 561,-559 553.96,-553.45 545.59,-549.46 536.93,-546.61"/>
<polygon fill="midnightblue" stroke="midnightblue" points="657.71,-749.2 663.21,-758.26 664.56,-747.75 657.71,-749.2"/>
</g>
<!-- Node49 -->
<g id="node27" class="node">
<title>Node49</title>
<g id="a_node27"><a xlink:href="cmp__icu_8c_a64f1fb77431a3aebac4dd5be4872805b.html#a64f1fb77431a3aebac4dd5be4872805b" target="_top" xlink:title="compress smearing data from the normal cameras">
<polygon fill="white" stroke="black" points="420,-492.5 420,-511.5 535,-511.5 535,-492.5 420,-492.5"/>
<text text-anchor="middle" x="477.5" y="-499.5" font-family="Helvetica,sans-Serif" font-size="10.00">compress_smearing</text>
</a>
</g>
</g>
<!-- Node2&#45;&gt;Node49 -->
<g id="edge40" class="edge">
<title>Node2&#45;&gt;Node49</title>
<path fill="none" stroke="midnightblue" d="M662.75,-748.29C656.27,-701.23 633.2,-581.73 561,-521 553.58,-514.76 544.5,-510.47 535.11,-507.54"/>
<polygon fill="midnightblue" stroke="midnightblue" points="659.3,-748.9 664.03,-758.38 666.24,-748.02 659.3,-748.9"/>
</g>
<!-- Node4 -->
<g id="node4" class="node">
<title>Node4</title>
<g id="a_node4"><a xlink:href="cmp__icu_8h_a08bf8ccacb449aba08db5e51d532d834.html#a08bf8ccacb449aba08db5e51d532d834" target="_top" xlink:title="compress data on the ICU in software">
<polygon fill="white" stroke="red" points="234,-796.5 234,-815.5 344,-815.5 344,-796.5 234,-796.5"/>
<text text-anchor="middle" x="289" y="-803.5" font-family="Helvetica,sans-Serif" font-size="10.00">icu_compress_data</text>
</a>
</g>
</g>
<!-- Node3&#45;&gt;Node4 -->
<g id="edge3" class="edge">
<title>Node3&#45;&gt;Node4</title>
<path fill="none" stroke="midnightblue" d="M404.95,-1060.32C401.04,-1058.24 397.35,-1055.82 394,-1053 315.84,-987.26 295.25,-852.67 290.97,-815.62"/>
<polygon fill="midnightblue" stroke="midnightblue" points="403.83,-1063.65 414.39,-1064.56 406.71,-1057.27 403.83,-1063.65"/>
</g>
<!-- Node5 -->
<g id="node5" class="node">
<title>Node5</title>
<g id="a_node5"><a xlink:href="test__cmp__decmp_8c_a50ba26014079160ca77b7d7fa76ce0f4.html#a50ba26014079160ca77b7d7fa76ce0f4" target="_top" xlink:title="compress the given configuration and decompress it afterwards; finally compare the results">
<polygon fill="white" stroke="red" points="13,-940.5 13,-959.5 171,-959.5 171,-940.5 13,-940.5"/>
<text text-anchor="middle" x="92" y="-947.5" font-family="Helvetica,sans-Serif" font-size="10.00">compression_decompression</text>
</a>
</g>
</g>
<!-- Node4&#45;&gt;Node5 -->
<g id="edge4" class="edge">
<title>Node4&#45;&gt;Node5</title>
<path fill="none" stroke="midnightblue" d="M277.91,-824.8C261.9,-852.69 227.96,-904.57 184,-931 177.64,-934.83 170.62,-937.89 163.4,-940.34"/>
<polygon fill="midnightblue" stroke="midnightblue" points="281.17,-826.14 282.98,-815.7 275.05,-822.74 281.17,-826.14"/>
</g>
<!-- Node7 -->
<g id="node6" class="node">
<title>Node7</title>
<g id="a_node6"><a xlink:href="test__decmp_8c_a2d642d4d482b9ec7eca4568a95f5bdd4.html#a2d642d4d482b9ec7eca4568a95f5bdd4" target="_top" xlink:title=" ">
<polygon fill="white" stroke="red" points="20,-902.5 20,-921.5 164,-921.5 164,-902.5 20,-902.5"/>
<text text-anchor="middle" x="92" y="-909.5" font-family="Helvetica,sans-Serif" font-size="10.00">icu_compress_data_entity</text>
</a>
</g>
</g>
<!-- Node4&#45;&gt;Node7 -->
<g id="edge5" class="edge">
<title>Node4&#45;&gt;Node7</title>
<path fill="none" stroke="midnightblue" d="M272.74,-823.08C253.91,-843.05 219.93,-875.59 184,-893 176.01,-896.87 167.26,-899.96 158.43,-902.41"/>
<polygon fill="midnightblue" stroke="midnightblue" points="275.42,-825.34 279.63,-815.61 270.28,-820.59 275.42,-825.34"/>
</g>
<!-- Node9 -->
<g id="node7" class="node">
<title>Node9</title>
<g id="a_node7"><a xlink:href="test__decmp_8c_a6e7a5e150e2c829836db3c42cdec2eec.html#a6e7a5e150e2c829836db3c42cdec2eec" target="_top" xlink:title=" ">
<polygon fill="white" stroke="black" points="0,-864.5 0,-883.5 184,-883.5 184,-864.5 0,-864.5"/>
<text text-anchor="middle" x="92" y="-871.5" font-family="Helvetica,sans-Serif" font-size="10.00">test_cmp_decmp_n_imagette_raw</text>
</a>
</g>
</g>
<!-- Node4&#45;&gt;Node9 -->
<g id="edge6" class="edge">
<title>Node4&#45;&gt;Node9</title>
<path fill="none" stroke="midnightblue" d="M261.79,-820.46C241.18,-831.31 211.45,-845.81 184,-855 172.83,-858.74 160.63,-861.89 148.89,-864.49"/>
<polygon fill="midnightblue" stroke="midnightblue" points="263.68,-823.42 270.85,-815.62 260.38,-817.24 263.68,-823.42"/>
</g>
<!-- Node10 -->
<g id="node8" class="node">
<title>Node10</title>
<g id="a_node8"><a xlink:href="test__cmp__icu_8c_aca32c7d039600004c9cc5c6fe19b8ec5.html#aca32c7d039600004c9cc5c6fe19b8ec5" target="_top" xlink:title=" ">
<polygon fill="white" stroke="black" points="17,-815 17,-845 167,-845 167,-815 17,-815"/>
<text text-anchor="start" x="25" y="-833" font-family="Helvetica,sans-Serif" font-size="10.00">test_compress_background</text>
<text text-anchor="middle" x="92" y="-822" font-family="Helvetica,sans-Serif" font-size="10.00">_error_cases</text>
</a>
</g>
</g>
<!-- Node4&#45;&gt;Node10 -->
<g id="edge7" class="edge">
<title>Node4&#45;&gt;Node10</title>
<path fill="none" stroke="midnightblue" d="M223.8,-813.9C205.71,-816.13 185.87,-818.57 167.25,-820.86"/>
<polygon fill="midnightblue" stroke="midnightblue" points="224.44,-817.35 233.94,-812.65 223.59,-810.4 224.44,-817.35"/>
</g>
<!-- Node11 -->
<g id="node9" class="node">
<title>Node11</title>
<g id="a_node9"><a xlink:href="test__cmp__icu_8c_a64b46c032fdef8789190209bd9c3c49b.html#a64b46c032fdef8789190209bd9c3c49b" target="_top" xlink:title=" ">
<polygon fill="white" stroke="black" points="36,-766 36,-796 148,-796 148,-766 36,-766"/>
<text text-anchor="start" x="44" y="-784" font-family="Helvetica,sans-Serif" font-size="10.00">test_compress_f_fx</text>
<text text-anchor="middle" x="92" y="-773" font-family="Helvetica,sans-Serif" font-size="10.00">_efx_error_cases</text>
</a>
</g>
</g>
<!-- Node4&#45;&gt;Node11 -->
<g id="edge8" class="edge">
<title>Node4&#45;&gt;Node11</title>
<path fill="none" stroke="midnightblue" d="M224.01,-797.8C199.51,-794.66 171.79,-791.1 148.18,-788.07"/>
<polygon fill="midnightblue" stroke="midnightblue" points="223.58,-801.27 233.94,-799.07 224.47,-794.33 223.58,-801.27"/>
</g>
<!-- Node12 -->
<g id="node10" class="node">
<title>Node12</title>
<g id="a_node10"><a xlink:href="test__cmp__icu_8c_acd4ce1f38ffbf0d6258b81668836d96b.html#acd4ce1f38ffbf0d6258b81668836d96b" target="_top" xlink:title=" ">
<polygon fill="white" stroke="black" points="36,-717 36,-747 148,-747 148,-717 36,-717"/>
<text text-anchor="start" x="44" y="-735" font-family="Helvetica,sans-Serif" font-size="10.00">test_compress_f_fx</text>
<text text-anchor="middle" x="92" y="-724" font-family="Helvetica,sans-Serif" font-size="10.00">_efx_ncob_ecob</text>
</a>
</g>
</g>
<!-- Node4&#45;&gt;Node12 -->
<g id="edge9" class="edge">
<title>Node4&#45;&gt;Node12</title>
<path fill="none" stroke="midnightblue" d="M233.65,-793.09C228.93,-791.29 224.32,-789.27 220,-787 201.56,-777.32 202.46,-766.64 184,-757 172.96,-751.23 160.46,-746.69 148.33,-743.15"/>
<polygon fill="midnightblue" stroke="midnightblue" points="232.83,-796.5 243.42,-796.47 235.12,-789.89 232.83,-796.5"/>
</g>
<!-- Node13 -->
<g id="node11" class="node">
<title>Node13</title>
<g id="a_node11"><a xlink:href="test__cmp__icu_8c_a5fdfb76e3f52d4283fdcbf5e05ac7dd9.html#a5fdfb76e3f52d4283fdcbf5e05ac7dd9" target="_top" xlink:title=" ">
<polygon fill="white" stroke="black" points="36,-668 36,-698 148,-698 148,-668 36,-668"/>
<text text-anchor="start" x="44" y="-686" font-family="Helvetica,sans-Serif" font-size="10.00">test_compress_f_fx</text>
<text text-anchor="middle" x="92" y="-675" font-family="Helvetica,sans-Serif" font-size="10.00">_error_cases</text>
</a>
</g>
</g>
<!-- Node4&#45;&gt;Node13 -->
<g id="edge10" class="edge">
<title>Node4&#45;&gt;Node13</title>
<path fill="none" stroke="midnightblue" d="M226.38,-791.68C224.14,-790.26 222,-788.71 220,-787 190.68,-761.91 213.37,-733.02 184,-708 173.9,-699.39 161.08,-693.73 148.27,-690.01"/>
<polygon fill="midnightblue" stroke="midnightblue" points="224.99,-794.91 235.47,-796.48 228.26,-788.72 224.99,-794.91"/>
</g>
<!-- Node14 -->
<g id="node12" class="node">
<title>Node14</title>
<g id="a_node12"><a xlink:href="test__cmp__icu_8c_ad6a880fe71de66a8a98a3f97d9e736da.html#ad6a880fe71de66a8a98a3f97d9e736da" target="_top" xlink:title=" ">
<polygon fill="white" stroke="black" points="36,-619 36,-649 148,-649 148,-619 36,-619"/>
<text text-anchor="start" x="44" y="-637" font-family="Helvetica,sans-Serif" font-size="10.00">test_compress_f_fx</text>
<text text-anchor="middle" x="92" y="-626" font-family="Helvetica,sans-Serif" font-size="10.00">_ncob_error_cases</text>
</a>
</g>
</g>
<!-- Node4&#45;&gt;Node14 -->
<g id="edge11" class="edge">
<title>Node4&#45;&gt;Node14</title>
<path fill="none" stroke="midnightblue" d="M225.21,-791.46C223.37,-790.1 221.62,-788.62 220,-787 178.18,-745.25 225.91,-700.66 184,-659 174.36,-649.41 161.4,-643.42 148.29,-639.69"/>
<polygon fill="midnightblue" stroke="midnightblue" points="223.48,-794.5 233.85,-796.66 227.09,-788.51 223.48,-794.5"/>
</g>
<!-- Node35&#45;&gt;Node4 -->
<g id="edge13" class="edge">
<title>Node35&#45;&gt;Node4</title>
<path fill="none" stroke="midnightblue" d="M423.11,-1028.91C412.68,-1026.01 402.4,-1021.62 394,-1015 325.26,-960.79 298.48,-849.27 291.79,-815.74"/>
<polygon fill="midnightblue" stroke="midnightblue" points="422.55,-1032.37 433.09,-1031.25 424.15,-1025.56 422.55,-1032.37"/>
</g>
<!-- Node36&#45;&gt;Node4 -->
<g id="edge15" class="edge">
<title>Node36&#45;&gt;Node4</title>
<path fill="none" stroke="midnightblue" d="M412.82,-986.89C406.11,-984.34 399.68,-981.1 394,-977 334.28,-933.88 302.15,-844.91 292.87,-815.6"/>
<polygon fill="midnightblue" stroke="midnightblue" points="412.18,-990.36 422.77,-990.14 414.36,-983.71 412.18,-990.36"/>
</g>
<!-- Node37&#45;&gt;Node4 -->
<g id="edge17" class="edge">
<title>Node37&#45;&gt;Node4</title>
<path fill="none" stroke="midnightblue" d="M404.51,-944.67C400.85,-942.99 397.32,-941.11 394,-939 343.06,-906.58 306.76,-840.22 294.52,-815.53"/>
<polygon fill="midnightblue" stroke="midnightblue" points="403.24,-947.93 413.83,-948.41 405.85,-941.43 403.24,-947.93"/>
</g>
<!-- Node38&#45;&gt;Node4 -->
<g id="edge19" class="edge">
<title>Node38&#45;&gt;Node4</title>
<path fill="none" stroke="midnightblue" d="M409.46,-907.7C404.1,-905.78 398.88,-903.56 394,-901 351.56,-878.73 313.14,-834.87 297.47,-815.54"/>
<polygon fill="midnightblue" stroke="midnightblue" points="408.61,-911.11 419.2,-910.85 410.76,-904.44 408.61,-911.11"/>
</g>
<!-- Node39&#45;&gt;Node4 -->
<g id="edge21" class="edge">
<title>Node39&#45;&gt;Node4</title>
<path fill="none" stroke="midnightblue" d="M415.03,-869.83C407.85,-867.82 400.7,-865.55 394,-863 360.33,-850.18 324.09,-828.25 304.53,-815.66"/>
<polygon fill="midnightblue" stroke="midnightblue" points="414.24,-873.24 424.8,-872.39 416.01,-866.47 414.24,-873.24"/>
</g>
<!-- Node40&#45;&gt;Node4 -->
<g id="edge23" class="edge">
<title>Node40&#45;&gt;Node4</title>
<path fill="none" stroke="midnightblue" d="M423.91,-833.28C396.53,-827.71 363.33,-820.94 336.84,-815.54"/>
<polygon fill="midnightblue" stroke="midnightblue" points="423.22,-836.71 433.71,-835.28 424.61,-829.86 423.22,-836.71"/>
</g>
<!-- Node41&#45;&gt;Node4 -->
<g id="edge25" class="edge">
<title>Node41&#45;&gt;Node4</title>
<path fill="none" stroke="midnightblue" d="M413.21,-806C390.81,-806 365.82,-806 344.24,-806"/>
<polygon fill="midnightblue" stroke="midnightblue" points="413.31,-809.5 423.31,-806 413.31,-802.5 413.31,-809.5"/>
</g>
<!-- Node42&#45;&gt;Node4 -->
<g id="edge27" class="edge">
<title>Node42&#45;&gt;Node4</title>
<path fill="none" stroke="midnightblue" d="M419.52,-779.61C393,-785.01 361.83,-791.36 336.72,-796.48"/>
<polygon fill="midnightblue" stroke="midnightblue" points="420.34,-783.02 429.44,-777.59 418.94,-776.16 420.34,-783.02"/>
</g>
<!-- Node43&#45;&gt;Node4 -->
<g id="edge29" class="edge">
<title>Node43&#45;&gt;Node4</title>
<path fill="none" stroke="midnightblue" d="M409.51,-741.82C404.11,-743.84 398.86,-746.22 394,-749 373.8,-760.55 377.92,-774.99 358,-787 351.6,-790.86 344.38,-793.96 337.11,-796.44"/>
<polygon fill="midnightblue" stroke="midnightblue" points="410.99,-745.02 419.37,-738.53 408.77,-738.38 410.99,-745.02"/>
</g>
<!-- Node44&#45;&gt;Node4 -->
<g id="edge31" class="edge">
<title>Node44&#45;&gt;Node4</title>
<path fill="none" stroke="midnightblue" d="M418.9,-698.2C409.92,-701.08 401.23,-705.18 394,-711 364.88,-734.43 386.58,-762.91 358,-787 353.41,-790.87 348.08,-793.96 342.47,-796.42"/>
<polygon fill="midnightblue" stroke="midnightblue" points="419.98,-701.53 428.71,-695.53 418.14,-694.78 419.98,-701.53"/>
</g>
<!-- Node45&#45;&gt;Node4 -->
<g id="edge33" class="edge">
<title>Node45&#45;&gt;Node4</title>
<path fill="none" stroke="midnightblue" d="M422.92,-657.93C412.33,-660.89 402.02,-665.59 394,-673 354.97,-709.05 396.19,-750.06 358,-787 353.95,-790.92 349.15,-794.04 344.02,-796.53"/>
<polygon fill="midnightblue" stroke="midnightblue" points="423.72,-661.34 432.68,-655.69 422.15,-654.52 423.72,-661.34"/>
</g>
<!-- Node46&#45;&gt;Node4 -->
<g id="edge35" class="edge">
<title>Node46&#45;&gt;Node4</title>
<path fill="none" stroke="midnightblue" d="M412.7,-622.89C405.76,-625.8 399.3,-629.73 394,-635 344.76,-683.94 406.1,-736.94 358,-787 354.09,-791.07 349.39,-794.28 344.32,-796.83"/>
<polygon fill="midnightblue" stroke="midnightblue" points="414.09,-626.11 422.39,-619.53 411.8,-619.5 414.09,-626.11"/>
</g>
<!-- Node47&#45;&gt;Node4 -->
<g id="edge37" class="edge">
<title>Node47&#45;&gt;Node4</title>
<path fill="none" stroke="midnightblue" d="M397.99,-593.31C396.59,-594.46 395.26,-595.69 394,-597 334.43,-658.95 416.13,-723.69 358,-787 354.1,-791.24 349.35,-794.57 344.17,-797.17"/>
<polygon fill="midnightblue" stroke="midnightblue" points="400.23,-596.02 406.56,-587.53 396.31,-590.22 400.23,-596.02"/>
</g>
<!-- Node48&#45;&gt;Node4 -->
<g id="edge39" class="edge">
<title>Node48&#45;&gt;Node4</title>
<path fill="none" stroke="midnightblue" d="M408.62,-548.24C403.17,-551 398.17,-554.52 394,-559 324.03,-634.03 426.22,-710.38 358,-787 354.17,-791.3 349.45,-794.67 344.31,-797.29"/>
<polygon fill="midnightblue" stroke="midnightblue" points="410.25,-551.35 418.14,-544.28 407.56,-544.89 410.25,-551.35"/>
</g>
<!-- Node49&#45;&gt;Node4 -->
<g id="edge41" class="edge">
<title>Node49&#45;&gt;Node4</title>
<path fill="none" stroke="midnightblue" d="M409.95,-509.43C403.96,-512.31 398.49,-516.08 394,-521 313.6,-609.14 436.34,-697.03 358,-787 354.14,-791.44 349.33,-794.88 344.07,-797.54"/>
<polygon fill="midnightblue" stroke="midnightblue" points="411.66,-512.52 419.69,-505.61 409.1,-506 411.66,-512.52"/>
</g>
<!-- Node51 -->
<g id="node29" class="node">
<title>Node51</title>
<g id="a_node29"><a xlink:href="decmp_8c_ac9a6281c5fcfbf077cc63e0494274f20.html#ac9a6281c5fcfbf077cc63e0494274f20" target="_top" xlink:title="configure a decoder setup structure to have a setup to decode a vale">
<polygon fill="white" stroke="black" points="408.5,-392.5 408.5,-411.5 546.5,-411.5 546.5,-392.5 408.5,-392.5"/>
<text text-anchor="middle" x="477.5" y="-399.5" font-family="Helvetica,sans-Serif" font-size="10.00">configure_decoder_setup</text>
</a>
</g>
</g>
<!-- Node50&#45;&gt;Node51 -->
<g id="edge43" class="edge">
<title>Node50&#45;&gt;Node51</title>
<path fill="none" stroke="midnightblue" d="M610.65,-402C590.7,-402 567.84,-402 546.81,-402"/>
<polygon fill="midnightblue" stroke="midnightblue" points="610.8,-405.5 620.8,-402 610.8,-398.5 610.8,-405.5"/>
</g>
<!-- Node78 -->
<g id="node50" class="node">
<title>Node78</title>
<g id="a_node50"><a xlink:href="test__decmp_8c_a478c7a73858ab89879bbf135b15af825.html#a478c7a73858ab89879bbf135b15af825" target="_top" xlink:title=" ">
<polygon fill="white" stroke="black" points="420.5,-354.5 420.5,-373.5 534.5,-373.5 534.5,-354.5 420.5,-354.5"/>
<text text-anchor="middle" x="477.5" y="-361.5" font-family="Helvetica,sans-Serif" font-size="10.00">test_select_decoder</text>
</a>
</g>
</g>
<!-- Node50&#45;&gt;Node78 -->
<g id="edge64" class="edge">
<title>Node50&#45;&gt;Node78</title>
<path fill="none" stroke="midnightblue" d="M610.72,-390.94C583.66,-385.43 551.26,-378.83 525.31,-373.54"/>
<polygon fill="midnightblue" stroke="midnightblue" points="610.3,-394.43 620.8,-392.99 611.7,-387.57 610.3,-394.43"/>
</g>
<!-- Node52 -->
<g id="node30" class="node">
<title>Node52</title>
<g id="a_node30"><a xlink:href="decmp_8c_ae8bbe9e530e670af67db5d739f15f120.html#ae8bbe9e530e670af67db5d739f15f120" target="_top" xlink:title="decompress N&#45;CAM background data">
<polygon fill="white" stroke="red" points="220,-758.5 220,-777.5 358,-777.5 358,-758.5 220,-758.5"/>
<text text-anchor="middle" x="289" y="-765.5" font-family="Helvetica,sans-Serif" font-size="10.00">decompress_background</text>
</a>
</g>
</g>
<!-- Node51&#45;&gt;Node52 -->
<g id="edge44" class="edge">
<title>Node51&#45;&gt;Node52</title>
<path fill="none" stroke="midnightblue" d="M453.72,-417.56C434.41,-432.09 407.73,-455.61 394,-483 340.55,-589.66 436.34,-659.03 358,-749 354.7,-752.79 350.71,-755.85 346.34,-758.33"/>
<polygon fill="midnightblue" stroke="midnightblue" points="455.98,-420.25 462,-411.53 451.86,-414.59 455.98,-420.25"/>
</g>
<!-- Node58 -->
<g id="node31" class="node">
<title>Node58</title>
<g id="a_node31"><a xlink:href="decmp_8c_ac44d884cb830d9b0dbbca34c6db2de7d.html#ac44d884cb830d9b0dbbca34c6db2de7d" target="_top" xlink:title="decompress fast normal light flux (F_FX) data">
<polygon fill="white" stroke="red" points="239,-720.5 239,-739.5 339,-739.5 339,-720.5 239,-720.5"/>
<text text-anchor="middle" x="289" y="-727.5" font-family="Helvetica,sans-Serif" font-size="10.00">decompress_f_fx</text>
</a>
</g>
</g>
<!-- Node51&#45;&gt;Node58 -->
<g id="edge45" class="edge">
<title>Node51&#45;&gt;Node58</title>
<path fill="none" stroke="midnightblue" d="M453.87,-417.63C434.65,-432.21 408.03,-455.76 394,-483 347.03,-574.2 426.22,-634.38 358,-711 352.95,-716.68 346.35,-720.72 339.26,-723.58"/>
<polygon fill="midnightblue" stroke="midnightblue" points="456.12,-420.33 462.1,-411.59 451.97,-414.68 456.12,-420.33"/>
</g>
<!-- Node59 -->
<g id="node32" class="node">
<title>Node59</title>
<g id="a_node32"><a xlink:href="decmp_8c_a84e912fefa1f49f27885af0d855a4989.html#a84e912fefa1f49f27885af0d855a4989" target="_top" xlink:title="decompress F_FX_EFX data">
<polygon fill="white" stroke="red" points="228.5,-682.5 228.5,-701.5 349.5,-701.5 349.5,-682.5 228.5,-682.5"/>
<text text-anchor="middle" x="289" y="-689.5" font-family="Helvetica,sans-Serif" font-size="10.00">decompress_f_fx_efx</text>
</a>
</g>
</g>
<!-- Node51&#45;&gt;Node59 -->
<g id="edge46" class="edge">
<title>Node51&#45;&gt;Node59</title>
<path fill="none" stroke="midnightblue" d="M454.07,-417.74C434.99,-432.39 408.44,-455.98 394,-483 353.48,-558.8 416.13,-609.69 358,-673 354.44,-676.88 350.15,-680 345.49,-682.49"/>
<polygon fill="midnightblue" stroke="midnightblue" points="456.31,-420.44 462.24,-411.66 452.13,-414.82 456.31,-420.44"/>
</g>
<!-- Node60 -->
<g id="node33" class="node">
<title>Node60</title>
<g id="a_node33"><a xlink:href="decmp_8c_aac2934ca104c49490be71c4966d2b173.html#aac2934ca104c49490be71c4966d2b173" target="_top" xlink:title="decompress short F_FX_NCOB_ECOB data">
<polygon fill="white" stroke="red" points="228.5,-633 228.5,-663 349.5,-663 349.5,-633 228.5,-633"/>
<text text-anchor="start" x="236.5" y="-651" font-family="Helvetica,sans-Serif" font-size="10.00">decompress_f_fx_efx</text>
<text text-anchor="middle" x="289" y="-640" font-family="Helvetica,sans-Serif" font-size="10.00">_ncob_ecob</text>
</a>
</g>
</g>
<!-- Node51&#45;&gt;Node60 -->
<g id="edge47" class="edge">
<title>Node51&#45;&gt;Node60</title>
<path fill="none" stroke="midnightblue" d="M454.81,-417.72C435.99,-432.51 409.39,-456.31 394,-483 361.9,-538.65 401.09,-575.34 358,-623 354.54,-626.83 350.45,-630.07 346.01,-632.81"/>
<polygon fill="midnightblue" stroke="midnightblue" points="457.03,-420.44 462.85,-411.59 452.78,-414.87 457.03,-420.44"/>
</g>
<!-- Node61 -->
<g id="node34" class="node">
<title>Node61</title>
<g id="a_node34"><a xlink:href="decmp_8c_a8310f64826697fb15c590854c08b3ad9.html#a8310f64826697fb15c590854c08b3ad9" target="_top" xlink:title="decompress short F_FX_NCOB data">
<polygon fill="white" stroke="red" points="225,-594.5 225,-613.5 353,-613.5 353,-594.5 225,-594.5"/>
<text text-anchor="middle" x="289" y="-601.5" font-family="Helvetica,sans-Serif" font-size="10.00">decompress_f_fx_ncob</text>
</a>
</g>
</g>
<!-- Node51&#45;&gt;Node61 -->
<g id="edge48" class="edge">
<title>Node51&#45;&gt;Node61</title>
<path fill="none" stroke="midnightblue" d="M455.68,-417.81C437.21,-432.8 410.64,-456.86 394,-483 368.18,-523.55 393.11,-552.16 358,-585 353.88,-588.85 349.05,-591.93 343.89,-594.4"/>
<polygon fill="midnightblue" stroke="midnightblue" points="457.87,-420.54 463.53,-411.58 453.52,-415.05 457.87,-420.54"/>
</g>
<!-- Node62 -->
<g id="node35" class="node">
<title>Node62</title>
<g id="a_node35"><a xlink:href="decmp_8c_a62e230570f1d23f56fbe10fb238dbf1d.html#a62e230570f1d23f56fbe10fb238dbf1d" target="_top" xlink:title="decompress imagette data">
<polygon fill="white" stroke="red" points="226.5,-556.5 226.5,-575.5 351.5,-575.5 351.5,-556.5 226.5,-556.5"/>
<text text-anchor="middle" x="289" y="-563.5" font-family="Helvetica,sans-Serif" font-size="10.00">decompress_imagette</text>
</a>
</g>
</g>
<!-- Node51&#45;&gt;Node62 -->
<g id="edge49" class="edge">
<title>Node51&#45;&gt;Node62</title>
<path fill="none" stroke="midnightblue" d="M456.83,-418.43C439.06,-433.91 412.88,-458.35 394,-483 374.16,-508.91 383.67,-526.85 358,-547 353.08,-550.86 347.43,-553.94 341.52,-556.39"/>
<polygon fill="midnightblue" stroke="midnightblue" points="459.5,-420.76 464.81,-411.59 454.94,-415.45 459.5,-420.76"/>
</g>
<!-- Node64 -->
<g id="node36" class="node">
<title>Node64</title>
<g id="a_node36"><a xlink:href="decmp_8c_a75f3c5c08234bce92e84d07a93e9a77d.html#a75f3c5c08234bce92e84d07a93e9a77d" target="_top" xlink:title="decompress long normal light flux (L_FX) data">
<polygon fill="white" stroke="red" points="239.5,-518.5 239.5,-537.5 338.5,-537.5 338.5,-518.5 239.5,-518.5"/>
<text text-anchor="middle" x="289" y="-525.5" font-family="Helvetica,sans-Serif" font-size="10.00">decompress_l_fx</text>
</a>
</g>
</g>
<!-- Node51&#45;&gt;Node64 -->
<g id="edge50" class="edge">
<title>Node51&#45;&gt;Node64</title>
<path fill="none" stroke="midnightblue" d="M459.69,-418.98C432.72,-445.89 380.54,-496.59 358,-509 351.02,-512.84 343.2,-515.96 335.42,-518.47"/>
<polygon fill="midnightblue" stroke="midnightblue" points="462.3,-421.31 466.88,-411.76 457.34,-416.37 462.3,-421.31"/>
</g>
<!-- Node65 -->
<g id="node37" class="node">
<title>Node65</title>
<g id="a_node37"><a xlink:href="decmp_8c_aa06fff345fa7fd62fb4fd7a619c118fe.html#aa06fff345fa7fd62fb4fd7a619c118fe" target="_top" xlink:title="decompress L_FX_EFX data">
<polygon fill="white" stroke="red" points="229,-480.5 229,-499.5 349,-499.5 349,-480.5 229,-480.5"/>
<text text-anchor="middle" x="289" y="-487.5" font-family="Helvetica,sans-Serif" font-size="10.00">decompress_l_fx_efx</text>
</a>
</g>
</g>
<!-- Node51&#45;&gt;Node65 -->
<g id="edge51" class="edge">
<title>Node51&#45;&gt;Node65</title>
<path fill="none" stroke="midnightblue" d="M454.1,-417.38C430.92,-432.73 393.23,-456.11 358,-471 349.42,-474.63 339.94,-477.77 330.85,-480.41"/>
<polygon fill="midnightblue" stroke="midnightblue" points="456.17,-420.21 462.52,-411.73 452.27,-414.4 456.17,-420.21"/>
</g>
<!-- Node66 -->
<g id="node38" class="node">
<title>Node66</title>
<g id="a_node38"><a xlink:href="decmp_8c_a36a5692cbd5d1e46805ba3f1dac23f60.html#a36a5692cbd5d1e46805ba3f1dac23f60" target="_top" xlink:title="decompress L_FX_EFX_NCOB_ECOB data">
<polygon fill="white" stroke="red" points="229,-431 229,-461 349,-461 349,-431 229,-431"/>
<text text-anchor="start" x="237" y="-449" font-family="Helvetica,sans-Serif" font-size="10.00">decompress_l_fx_efx</text>
<text text-anchor="middle" x="289" y="-438" font-family="Helvetica,sans-Serif" font-size="10.00">_ncob_ecob</text>
</a>
</g>
</g>
<!-- Node51&#45;&gt;Node66 -->
<g id="edge52" class="edge">
<title>Node51&#45;&gt;Node66</title>
<path fill="none" stroke="midnightblue" d="M426.17,-413.87C402.42,-419.48 373.93,-426.2 349.16,-432.04"/>
<polygon fill="midnightblue" stroke="midnightblue" points="427.1,-417.25 436.03,-411.55 425.5,-410.44 427.1,-417.25"/>
</g>
<!-- Node67 -->
<g id="node39" class="node">
<title>Node67</title>
<g id="a_node39"><a xlink:href="decmp_8c_a5883c910a0e8e829e60844e78da88e96.html#a5883c910a0e8e829e60844e78da88e96" target="_top" xlink:title="decompress L_FX_NCOB data">
<polygon fill="white" stroke="red" points="225,-392.5 225,-411.5 353,-411.5 353,-392.5 225,-392.5"/>
<text text-anchor="middle" x="289" y="-399.5" font-family="Helvetica,sans-Serif" font-size="10.00">decompress_l_fx_ncob</text>
</a>
</g>
</g>
<!-- Node51&#45;&gt;Node67 -->
<g id="edge53" class="edge">
<title>Node51&#45;&gt;Node67</title>
<path fill="none" stroke="midnightblue" d="M398.13,-402C383.18,-402 367.7,-402 353.29,-402"/>
<polygon fill="midnightblue" stroke="midnightblue" points="398.38,-405.5 408.38,-402 398.38,-398.5 398.38,-405.5"/>
</g>
<!-- Node68 -->
<g id="node40" class="node">
<title>Node68</title>
<g id="a_node40"><a xlink:href="decmp_8c_a47d0a8b2f718f7d4659a34a6b516c79d.html#a47d0a8b2f718f7d4659a34a6b516c79d" target="_top" xlink:title="decompress N&#45;CAM and F&#45;CAM offset data">
<polygon fill="white" stroke="red" points="234.5,-354.5 234.5,-373.5 343.5,-373.5 343.5,-354.5 234.5,-354.5"/>
<text text-anchor="middle" x="289" y="-361.5" font-family="Helvetica,sans-Serif" font-size="10.00">decompress_offset</text>
</a>
</g>
</g>
<!-- Node51&#45;&gt;Node68 -->
<g id="edge54" class="edge">
<title>Node51&#45;&gt;Node68</title>
<path fill="none" stroke="midnightblue" d="M419.52,-390.39C393,-384.99 361.83,-378.64 336.72,-373.52"/>
<polygon fill="midnightblue" stroke="midnightblue" points="418.94,-393.84 429.44,-392.41 420.34,-386.98 418.94,-393.84"/>
</g>
<!-- Node69 -->
<g id="node41" class="node">
<title>Node69</title>
<g id="a_node41"><a xlink:href="decmp_8c_ad57c4f63787216adcca82dca5a2c99ae.html#ad57c4f63787216adcca82dca5a2c99ae" target="_top" xlink:title="decompress short normal light flux (S_FX) data">
<polygon fill="white" stroke="red" points="238.5,-316.5 238.5,-335.5 339.5,-335.5 339.5,-316.5 238.5,-316.5"/>
<text text-anchor="middle" x="289" y="-323.5" font-family="Helvetica,sans-Serif" font-size="10.00">decompress_s_fx</text>
</a>
</g>
</g>
<!-- Node51&#45;&gt;Node69 -->
<g id="edge55" class="edge">
<title>Node51&#45;&gt;Node69</title>
<path fill="none" stroke="midnightblue" d="M406.35,-388.95C402.07,-387.21 397.91,-385.24 394,-383 373.8,-371.45 377.92,-357.01 358,-345 351.6,-341.14 344.38,-338.04 337.11,-335.56"/>
<polygon fill="midnightblue" stroke="midnightblue" points="405.31,-392.29 415.9,-392.4 407.69,-385.71 405.31,-392.29"/>
</g>
<!-- Node70 -->
<g id="node42" class="node">
<title>Node70</title>
<g id="a_node42"><a xlink:href="decmp_8c_ae950fe1a6eeb3224f3491439a7149a1f.html#ae950fe1a6eeb3224f3491439a7149a1f" target="_top" xlink:title="decompress S_FX_EFX data">
<polygon fill="white" stroke="red" points="228,-278.5 228,-297.5 350,-297.5 350,-278.5 228,-278.5"/>
<text text-anchor="middle" x="289" y="-285.5" font-family="Helvetica,sans-Serif" font-size="10.00">decompress_s_fx_efx</text>
</a>
</g>
</g>
<!-- Node51&#45;&gt;Node70 -->
<g id="edge56" class="edge">
<title>Node51&#45;&gt;Node70</title>
<path fill="none" stroke="midnightblue" d="M400.65,-387.65C398.33,-386.24 396.1,-384.69 394,-383 364.88,-359.57 386.58,-331.09 358,-307 353.41,-303.13 348.08,-300.04 342.47,-297.58"/>
<polygon fill="midnightblue" stroke="midnightblue" points="399.52,-391.01 410.02,-392.48 402.73,-384.79 399.52,-391.01"/>
</g>
<!-- Node71 -->
<g id="node43" class="node">
<title>Node71</title>
<g id="a_node43"><a xlink:href="decmp_8c_aee9e79676f49da2b257ad810955e4f09.html#aee9e79676f49da2b257ad810955e4f09" target="_top" xlink:title="decompress short S_FX_NCOB_ECOB data">
<polygon fill="white" stroke="red" points="228,-229 228,-259 350,-259 350,-229 228,-229"/>
<text text-anchor="start" x="236" y="-247" font-family="Helvetica,sans-Serif" font-size="10.00">decompress_s_fx_efx</text>
<text text-anchor="middle" x="289" y="-236" font-family="Helvetica,sans-Serif" font-size="10.00">_ncob_ecob</text>
</a>
</g>
</g>
<!-- Node51&#45;&gt;Node71 -->
<g id="edge57" class="edge">
<title>Node51&#45;&gt;Node71</title>
<path fill="none" stroke="midnightblue" d="M399.43,-387.38C397.53,-386.04 395.71,-384.58 394,-383 354.97,-346.95 394.69,-307.43 358,-269 354.35,-265.18 350.07,-261.94 345.46,-259.19"/>
<polygon fill="midnightblue" stroke="midnightblue" points="397.85,-390.51 408.24,-392.57 401.4,-384.48 397.85,-390.51"/>
</g>
<!-- Node72 -->
<g id="node44" class="node">
<title>Node72</title>
<g id="a_node44"><a xlink:href="decmp_8c_a5075a002558af814210bd1c186a244f0.html#a5075a002558af814210bd1c186a244f0" target="_top" xlink:title="decompress short S_FX_NCOB data">
<polygon fill="white" stroke="red" points="224,-190.5 224,-209.5 354,-209.5 354,-190.5 224,-190.5"/>
<text text-anchor="middle" x="289" y="-197.5" font-family="Helvetica,sans-Serif" font-size="10.00">decompress_s_fx_ncob</text>
</a>
</g>
</g>
<!-- Node51&#45;&gt;Node72 -->
<g id="edge58" class="edge">
<title>Node51&#45;&gt;Node72</title>
<path fill="none" stroke="midnightblue" d="M399.38,-387.68C397.48,-386.25 395.68,-384.7 394,-383 341.78,-330.3 408.63,-274.23 358,-220 353.97,-215.68 349.06,-212.28 343.74,-209.6"/>
<polygon fill="midnightblue" stroke="midnightblue" points="397.9,-390.89 408.25,-393.17 401.58,-384.93 397.9,-390.89"/>
</g>
<!-- Node73 -->
<g id="node45" class="node">
<title>Node73</title>
<g id="a_node45"><a xlink:href="decmp_8c_ab043a8a939e8818cf2875aecec205bb9.html#ab043a8a939e8818cf2875aecec205bb9" target="_top" xlink:title="decompress N&#45;CAM smearing data">
<polygon fill="white" stroke="red" points="225.5,-152.5 225.5,-171.5 352.5,-171.5 352.5,-152.5 225.5,-152.5"/>
<text text-anchor="middle" x="289" y="-159.5" font-family="Helvetica,sans-Serif" font-size="10.00">decompress_smearing</text>
</a>
</g>
</g>
<!-- Node51&#45;&gt;Node73 -->
<g id="edge59" class="edge">
<title>Node51&#45;&gt;Node73</title>
<path fill="none" stroke="midnightblue" d="M399.87,-388.22C397.78,-386.65 395.82,-384.91 394,-383 331.15,-316.93 419.31,-248.51 358,-181 354.54,-177.19 350.38,-174.12 345.85,-171.64"/>
<polygon fill="midnightblue" stroke="midnightblue" points="398.12,-391.25 408.46,-393.55 401.8,-385.3 398.12,-391.25"/>
</g>
<!-- Node74 -->
<g id="node46" class="node">
<title>Node74</title>
<g id="a_node46"><a xlink:href="test__decmp_8c_a2cf11f635ba073b682cac0e4ef9dfdbc.html#a2cf11f635ba073b682cac0e4ef9dfdbc" target="_top" xlink:title=" ">
<polygon fill="white" stroke="black" points="235.5,-114.5 235.5,-133.5 342.5,-133.5 342.5,-114.5 235.5,-114.5"/>
<text text-anchor="middle" x="289" y="-121.5" font-family="Helvetica,sans-Serif" font-size="10.00">test_decode_multi</text>
</a>
</g>
</g>
<!-- Node51&#45;&gt;Node74 -->
<g id="edge60" class="edge">
<title>Node51&#45;&gt;Node74</title>
<path fill="none" stroke="midnightblue" d="M399.8,-388.29C397.74,-386.69 395.79,-384.94 394,-383 320.74,-303.84 429.41,-223.83 358,-143 353.78,-138.22 348.47,-134.6 342.68,-131.87"/>
<polygon fill="midnightblue" stroke="midnightblue" points="398.01,-391.29 408.33,-393.66 401.74,-385.37 398.01,-391.29"/>
</g>
<!-- Node75 -->
<g id="node47" class="node">
<title>Node75</title>
<g id="a_node47"><a xlink:href="test__decmp_8c_a7ada560b6c0070a378eeff45b9dae044.html#a7ada560b6c0070a378eeff45b9dae044" target="_top" xlink:title=" ">
<polygon fill="white" stroke="black" points="238,-76.5 238,-95.5 340,-95.5 340,-76.5 238,-76.5"/>
<text text-anchor="middle" x="289" y="-83.5" font-family="Helvetica,sans-Serif" font-size="10.00">test_decode_zero</text>
</a>
</g>
</g>
<!-- Node51&#45;&gt;Node75 -->
<g id="edge61" class="edge">
<title>Node51&#45;&gt;Node75</title>
<path fill="none" stroke="midnightblue" d="M399.75,-388.33C397.7,-386.73 395.77,-384.95 394,-383 310.3,-290.71 439.55,-199.19 358,-105 353.19,-99.44 346.89,-95.44 340.08,-92.58"/>
<polygon fill="midnightblue" stroke="midnightblue" points="397.92,-391.32 408.24,-393.75 401.69,-385.42 397.92,-391.32"/>
</g>
<!-- Node76 -->
<g id="node48" class="node">
<title>Node76</title>
<g id="a_node48"><a xlink:href="test__decmp_8c_a29cac1eb3ce172274827f3bb9481294c.html#a29cac1eb3ce172274827f3bb9481294c" target="_top" xlink:title=" ">
<polygon fill="white" stroke="black" points="222,-38.5 222,-57.5 356,-57.5 356,-38.5 222,-38.5"/>
<text text-anchor="middle" x="289" y="-45.5" font-family="Helvetica,sans-Serif" font-size="10.00">test_multi_refill_needed</text>
</a>
</g>
</g>
<!-- Node51&#45;&gt;Node76 -->
<g id="edge62" class="edge">
<title>Node51&#45;&gt;Node76</title>
<path fill="none" stroke="midnightblue" d="M399.71,-388.37C397.67,-386.75 395.76,-384.97 394,-383 299.85,-277.57 449.7,-174.57 358,-67 354.74,-63.18 350.78,-60.09 346.43,-57.6"/>
<polygon fill="midnightblue" stroke="midnightblue" points="397.86,-391.34 408.16,-393.82 401.66,-385.46 397.86,-391.34"/>
</g>
<!-- Node77 -->
<g id="node49" class="node">
<title>Node77</title>
<g id="a_node49"><a xlink:href="test__decmp_8c_a58e183d189a8362c6690c0a6205b6dcc.html#a58e183d189a8362c6690c0a6205b6dcc" target="_top" xlink:title=" ">
<polygon fill="white" stroke="black" points="224,-0.5 224,-19.5 354,-19.5 354,-0.5 224,-0.5"/>
<text text-anchor="middle" x="289" y="-7.5" font-family="Helvetica,sans-Serif" font-size="10.00">test_zero_refill_needed</text>
</a>
</g>
</g>
<!-- Node51&#45;&gt;Node77 -->
<g id="edge63" class="edge">
<title>Node51&#45;&gt;Node77</title>
<path fill="none" stroke="midnightblue" d="M399.83,-388.51C397.74,-386.86 395.79,-385.03 394,-383 289.38,-264.41 459.86,-149.97 358,-29 354.76,-25.16 350.82,-22.06 346.48,-19.56"/>
<polygon fill="midnightblue" stroke="midnightblue" points="398.19,-391.62 408.49,-394.07 401.97,-385.73 398.19,-391.62"/>
</g>
</g>
</svg>
