<?xml version="1.0" encoding="UTF-8" standalone="no"?>
<!DOCTYPE svg PUBLIC "-//W3C//DTD SVG 1.1//EN"
 "http://www.w3.org/Graphics/SVG/1.1/DTD/svg11.dtd">
<!-- Generated by graphviz version 2.43.0 (0)
 -->
<!-- Title: compress_f_fx_efx_ncob_ecob Pages: 1 -->
<svg width="722pt" height="1309pt"
 viewBox="0.00 0.00 722.00 1309.00" xmlns="http://www.w3.org/2000/svg" xmlns:xlink="http://www.w3.org/1999/xlink">
<g id="graph0" class="graph" transform="scale(1 1) rotate(0) translate(4 1305)">
<title>compress_f_fx_efx_ncob_ecob</title>
<polygon fill="white" stroke="transparent" points="-4,4 -4,-1305 718,-1305 718,4 -4,4"/>
<!-- Node1 -->
<g id="node1" class="node">
<title>Node1</title>
<g id="a_node1"><a xlink:title="compress F_FX_EFX_NCOB_ECOB data">
<polygon fill="#bfbfbf" stroke="black" points="548,-657 548,-676 714,-676 714,-657 548,-657"/>
<text text-anchor="middle" x="631" y="-664" font-family="Helvetica,sans-Serif" font-size="10.00">compress_f_fx_efx_ncob_ecob</text>
</a>
</g>
</g>
<!-- Node2 -->
<g id="node2" class="node">
<title>Node2</title>
<g id="a_node2"><a xlink:href="cmp__icu_8h_a08bf8ccacb449aba08db5e51d532d834.html#a08bf8ccacb449aba08db5e51d532d834" target="_top" xlink:title="compress data on the ICU in software">
<polygon fill="white" stroke="black" points="402,-657 402,-676 512,-676 512,-657 402,-657"/>
<text text-anchor="middle" x="457" y="-664" font-family="Helvetica,sans-Serif" font-size="10.00">icu_compress_data</text>
</a>
</g>
</g>
<!-- Node1&#45;&gt;Node2 -->
<g id="edge1" class="edge">
<title>Node1&#45;&gt;Node2</title>
<path fill="none" stroke="midnightblue" d="M537.57,-666.5C528.9,-666.5 520.31,-666.5 512.16,-666.5"/>
<polygon fill="midnightblue" stroke="midnightblue" points="537.78,-670 547.78,-666.5 537.78,-663 537.78,-670"/>
</g>
<!-- Node3 -->
<g id="node3" class="node">
<title>Node3</title>
<g id="a_node3"><a xlink:href="test__cmp__decmp_8c_a50ba26014079160ca77b7d7fa76ce0f4.html#a50ba26014079160ca77b7d7fa76ce0f4" target="_top" xlink:title="compress the given configuration and decompress it afterwards; finally compare the results">
<polygon fill="white" stroke="black" points="195,-1275 195,-1294 353,-1294 353,-1275 195,-1275"/>
<text text-anchor="middle" x="274" y="-1282" font-family="Helvetica,sans-Serif" font-size="10.00">compression_decompression</text>
</a>
</g>
</g>
<!-- Node2&#45;&gt;Node3 -->
<g id="edge2" class="edge">
<title>Node2&#45;&gt;Node3</title>
<path fill="none" stroke="midnightblue" d="M455.87,-686.05C454.83,-779.01 445.74,-1175.47 366,-1262.5 361.28,-1267.65 355.58,-1271.7 349.35,-1274.86"/>
<polygon fill="midnightblue" stroke="midnightblue" points="459.37,-686.08 455.96,-676.04 452.37,-686.01 459.37,-686.08"/>
</g>
<!-- Node5 -->
<g id="node5" class="node">
<title>Node5</title>
<g id="a_node5"><a xlink:href="test__decmp_8c_a2d642d4d482b9ec7eca4568a95f5bdd4.html#a2d642d4d482b9ec7eca4568a95f5bdd4" target="_top" xlink:title=" ">
<polygon fill="white" stroke="black" points="202,-1234 202,-1253 346,-1253 346,-1234 202,-1234"/>
<text text-anchor="middle" x="274" y="-1241" font-family="Helvetica,sans-Serif" font-size="10.00">icu_compress_data_entity</text>
</a>
</g>
</g>
<!-- Node2&#45;&gt;Node5 -->
<g id="edge4" class="edge">
<title>Node2&#45;&gt;Node5</title>
<path fill="none" stroke="midnightblue" d="M455.7,-686.54C453.9,-776.84 441.97,-1144.96 366,-1224.5 360.43,-1230.34 353.56,-1234.62 346.11,-1237.73"/>
<polygon fill="midnightblue" stroke="midnightblue" points="459.2,-686.38 455.88,-676.32 452.2,-686.25 459.2,-686.38"/>
</g>
<!-- Node7 -->
<g id="node7" class="node">
<title>Node7</title>
<g id="a_node7"><a xlink:href="test__decmp_8c_a6e7a5e150e2c829836db3c42cdec2eec.html#a6e7a5e150e2c829836db3c42cdec2eec" target="_top" xlink:title=" ">
<polygon fill="white" stroke="black" points="182,-1196 182,-1215 366,-1215 366,-1196 182,-1196"/>
<text text-anchor="middle" x="274" y="-1203" font-family="Helvetica,sans-Serif" font-size="10.00">test_cmp_decmp_n_imagette_raw</text>
</a>
</g>
</g>
<!-- Node2&#45;&gt;Node7 -->
<g id="edge6" class="edge">
<title>Node2&#45;&gt;Node7</title>
<path fill="none" stroke="midnightblue" d="M455.42,-686.2C452.5,-771.96 436.55,-1111.73 366,-1185.5 361.98,-1189.71 357.28,-1193.13 352.19,-1195.9"/>
<polygon fill="midnightblue" stroke="midnightblue" points="458.93,-686.14 455.75,-676.03 451.93,-685.92 458.93,-686.14"/>
</g>
<!-- Node8 -->
<g id="node8" class="node">
<title>Node8</title>
<g id="a_node8"><a xlink:href="test__cmp__icu_8c_aca32c7d039600004c9cc5c6fe19b8ec5.html#aca32c7d039600004c9cc5c6fe19b8ec5" target="_top" xlink:title=" ">
<polygon fill="white" stroke="black" points="199,-1146.5 199,-1176.5 349,-1176.5 349,-1146.5 199,-1146.5"/>
<text text-anchor="start" x="207" y="-1164.5" font-family="Helvetica,sans-Serif" font-size="10.00">test_compress_background</text>
<text text-anchor="middle" x="274" y="-1153.5" font-family="Helvetica,sans-Serif" font-size="10.00">_error_cases</text>
</a>
</g>
</g>
<!-- Node2&#45;&gt;Node8 -->
<g id="edge7" class="edge">
<title>Node2&#45;&gt;Node8</title>
<path fill="none" stroke="midnightblue" d="M454.92,-686.54C450.13,-767.45 428.34,-1069.04 366,-1136.5 361.22,-1141.67 355.48,-1145.82 349.23,-1149.13"/>
<polygon fill="midnightblue" stroke="midnightblue" points="458.43,-686.43 455.5,-676.25 451.44,-686.04 458.43,-686.43"/>
</g>
<!-- Node9 -->
<g id="node9" class="node">
<title>Node9</title>
<g id="a_node9"><a xlink:href="test__cmp__icu_8c_a64b46c032fdef8789190209bd9c3c49b.html#a64b46c032fdef8789190209bd9c3c49b" target="_top" xlink:title=" ">
<polygon fill="white" stroke="black" points="218,-1097.5 218,-1127.5 330,-1127.5 330,-1097.5 218,-1097.5"/>
<text text-anchor="start" x="226" y="-1115.5" font-family="Helvetica,sans-Serif" font-size="10.00">test_compress_f_fx</text>
<text text-anchor="middle" x="274" y="-1104.5" font-family="Helvetica,sans-Serif" font-size="10.00">_efx_error_cases</text>
</a>
</g>
</g>
<!-- Node2&#45;&gt;Node9 -->
<g id="edge8" class="edge">
<title>Node2&#45;&gt;Node9</title>
<path fill="none" stroke="midnightblue" d="M454.45,-686.36C448.16,-761.6 422.25,-1027.92 366,-1087.5 356.55,-1097.51 343.51,-1103.64 330.24,-1107.36"/>
<polygon fill="midnightblue" stroke="midnightblue" points="457.94,-686.59 455.26,-676.33 450.96,-686.02 457.94,-686.59"/>
</g>
<!-- Node10 -->
<g id="node10" class="node">
<title>Node10</title>
<g id="a_node10"><a xlink:href="test__cmp__icu_8c_acd4ce1f38ffbf0d6258b81668836d96b.html#acd4ce1f38ffbf0d6258b81668836d96b" target="_top" xlink:title=" ">
<polygon fill="white" stroke="black" points="218,-1048.5 218,-1078.5 330,-1078.5 330,-1048.5 218,-1048.5"/>
<text text-anchor="start" x="226" y="-1066.5" font-family="Helvetica,sans-Serif" font-size="10.00">test_compress_f_fx</text>
<text text-anchor="middle" x="274" y="-1055.5" font-family="Helvetica,sans-Serif" font-size="10.00">_efx_ncob_ecob</text>
</a>
</g>
</g>
<!-- Node2&#45;&gt;Node10 -->
<g id="edge9" class="edge">
<title>Node2&#45;&gt;Node10</title>
<path fill="none" stroke="midnightblue" d="M453.86,-686.24C445.94,-755.6 416.17,-986.76 366,-1038.5 356.42,-1048.38 343.33,-1054.47 330.06,-1058.19"/>
<polygon fill="midnightblue" stroke="midnightblue" points="457.34,-686.55 454.98,-676.22 450.39,-685.77 457.34,-686.55"/>
</g>
<!-- Node11 -->
<g id="node11" class="node">
<title>Node11</title>
<g id="a_node11"><a xlink:href="test__cmp__icu_8c_a5fdfb76e3f52d4283fdcbf5e05ac7dd9.html#a5fdfb76e3f52d4283fdcbf5e05ac7dd9" target="_top" xlink:title=" ">
<polygon fill="white" stroke="black" points="218,-999.5 218,-1029.5 330,-1029.5 330,-999.5 218,-999.5"/>
<text text-anchor="start" x="226" y="-1017.5" font-family="Helvetica,sans-Serif" font-size="10.00">test_compress_f_fx</text>
<text text-anchor="middle" x="274" y="-1006.5" font-family="Helvetica,sans-Serif" font-size="10.00">_error_cases</text>
</a>
</g>
</g>
<!-- Node2&#45;&gt;Node11 -->
<g id="edge10" class="edge">
<title>Node2&#45;&gt;Node11</title>
<path fill="none" stroke="midnightblue" d="M456.73,-686.38C457.64,-742.49 452.24,-903.58 366,-989.5 356.37,-999.1 343.41,-1005.1 330.31,-1008.83"/>
<polygon fill="midnightblue" stroke="midnightblue" points="460.22,-685.97 456.46,-676.06 453.22,-686.15 460.22,-685.97"/>
</g>
<!-- Node12 -->
<g id="node12" class="node">
<title>Node12</title>
<g id="a_node12"><a xlink:href="test__cmp__icu_8c_ad6a880fe71de66a8a98a3f97d9e736da.html#ad6a880fe71de66a8a98a3f97d9e736da" target="_top" xlink:title=" ">
<polygon fill="white" stroke="black" points="218,-950.5 218,-980.5 330,-980.5 330,-950.5 218,-950.5"/>
<text text-anchor="start" x="226" y="-968.5" font-family="Helvetica,sans-Serif" font-size="10.00">test_compress_f_fx</text>
<text text-anchor="middle" x="274" y="-957.5" font-family="Helvetica,sans-Serif" font-size="10.00">_ncob_error_cases</text>
</a>
</g>
</g>
<!-- Node2&#45;&gt;Node12 -->
<g id="edge11" class="edge">
<title>Node2&#45;&gt;Node12</title>
<path fill="none" stroke="midnightblue" d="M455.56,-686.34C453.34,-736.56 440.36,-869.72 366,-940.5 356.15,-949.88 343.12,-955.8 330.01,-959.53"/>
<polygon fill="midnightblue" stroke="midnightblue" points="459.06,-686.3 455.91,-676.19 452.07,-686.06 459.06,-686.3"/>
</g>
<!-- Node13 -->
<g id="node13" class="node">
<title>Node13</title>
<g id="a_node13"><a xlink:href="test__cmp__icu_8c_a99545cc4ea3f1aa22be006d201e43f6d.html#a99545cc4ea3f1aa22be006d201e43f6d" target="_top" xlink:title=" ">
<polygon fill="white" stroke="black" points="195,-912 195,-931 353,-931 353,-912 195,-912"/>
<text text-anchor="middle" x="274" y="-919" font-family="Helvetica,sans-Serif" font-size="10.00">test_compress_imagette_diff</text>
</a>
</g>
</g>
<!-- Node2&#45;&gt;Node13 -->
<g id="edge12" class="edge">
<title>Node2&#45;&gt;Node13</title>
<path fill="none" stroke="midnightblue" d="M454.54,-686.47C450.07,-732.05 432.54,-844.22 366,-901.5 361.1,-905.72 355.5,-909.11 349.56,-911.83"/>
<polygon fill="midnightblue" stroke="midnightblue" points="458.03,-686.65 455.41,-676.39 451.06,-686.05 458.03,-686.65"/>
</g>
<!-- Node14 -->
<g id="node14" class="node">
<title>Node14</title>
<g id="a_node14"><a xlink:href="test__cmp__icu_8c_a960bb1de38c5e353aa1d1d2fb25435e8.html#a960bb1de38c5e353aa1d1d2fb25435e8" target="_top" xlink:title=" ">
<polygon fill="white" stroke="black" points="205.5,-862.5 205.5,-892.5 342.5,-892.5 342.5,-862.5 205.5,-862.5"/>
<text text-anchor="start" x="213.5" y="-880.5" font-family="Helvetica,sans-Serif" font-size="10.00">test_compress_imagette</text>
<text text-anchor="middle" x="274" y="-869.5" font-family="Helvetica,sans-Serif" font-size="10.00">_error_cases</text>
</a>
</g>
</g>
<!-- Node2&#45;&gt;Node14 -->
<g id="edge13" class="edge">
<title>Node2&#45;&gt;Node14</title>
<path fill="none" stroke="midnightblue" d="M452.11,-686.19C443.56,-724.24 419.45,-808.01 366,-852.5 359.2,-858.16 351.22,-862.54 342.86,-865.94"/>
<polygon fill="midnightblue" stroke="midnightblue" points="455.55,-686.85 454.21,-676.34 448.71,-685.4 455.55,-686.85"/>
</g>
<!-- Node15 -->
<g id="node15" class="node">
<title>Node15</title>
<g id="a_node15"><a xlink:href="test__cmp__icu_8c_a7c1162f048c55a098b4e6c1d9a0a884e.html#a7c1162f048c55a098b4e6c1d9a0a884e" target="_top" xlink:title=" ">
<polygon fill="white" stroke="black" points="205.5,-813.5 205.5,-843.5 342.5,-843.5 342.5,-813.5 205.5,-813.5"/>
<text text-anchor="start" x="213.5" y="-831.5" font-family="Helvetica,sans-Serif" font-size="10.00">test_compress_imagette</text>
<text text-anchor="middle" x="274" y="-820.5" font-family="Helvetica,sans-Serif" font-size="10.00">_model</text>
</a>
</g>
</g>
<!-- Node2&#45;&gt;Node15 -->
<g id="edge14" class="edge">
<title>Node2&#45;&gt;Node15</title>
<path fill="none" stroke="midnightblue" d="M448.59,-685.86C436.15,-715.73 408.22,-772.79 366,-803.5 358.98,-808.61 350.96,-812.67 342.67,-815.91"/>
<polygon fill="midnightblue" stroke="midnightblue" points="451.99,-686.78 452.47,-676.19 445.5,-684.17 451.99,-686.78"/>
</g>
<!-- Node16 -->
<g id="node16" class="node">
<title>Node16</title>
<g id="a_node16"><a xlink:href="test__cmp__icu_8c_a390abe2bb7591a75050558bdd4476593.html#a390abe2bb7591a75050558bdd4476593" target="_top" xlink:title=" ">
<polygon fill="white" stroke="black" points="193.5,-775 193.5,-794 354.5,-794 354.5,-775 193.5,-775"/>
<text text-anchor="middle" x="274" y="-782" font-family="Helvetica,sans-Serif" font-size="10.00">test_compress_imagette_raw</text>
</a>
</g>
</g>
<!-- Node2&#45;&gt;Node16 -->
<g id="edge15" class="edge">
<title>Node2&#45;&gt;Node16</title>
<path fill="none" stroke="midnightblue" d="M444.51,-684.68C429.35,-707.09 400.51,-744.64 366,-764.5 358.43,-768.86 350,-772.26 341.42,-774.93"/>
<polygon fill="midnightblue" stroke="midnightblue" points="447.58,-686.38 450.15,-676.1 441.73,-682.54 447.58,-686.38"/>
</g>
<!-- Node17 -->
<g id="node17" class="node">
<title>Node17</title>
<g id="a_node17"><a xlink:href="test__cmp__icu_8c_a3c859fa9247c65ae7a43e2bd682448e2.html#a3c859fa9247c65ae7a43e2bd682448e2" target="_top" xlink:title=" ">
<polygon fill="white" stroke="black" points="205.5,-725.5 205.5,-755.5 342.5,-755.5 342.5,-725.5 205.5,-725.5"/>
<text text-anchor="start" x="213.5" y="-743.5" font-family="Helvetica,sans-Serif" font-size="10.00">test_compress_imagette</text>
<text text-anchor="middle" x="274" y="-732.5" font-family="Helvetica,sans-Serif" font-size="10.00">_stuff</text>
</a>
</g>
</g>
<!-- Node2&#45;&gt;Node17 -->
<g id="edge16" class="edge">
<title>Node2&#45;&gt;Node17</title>
<path fill="none" stroke="midnightblue" d="M432.37,-681.33C414.63,-691.97 389.46,-706.04 366,-715.5 356.88,-719.18 347.04,-722.5 337.31,-725.44"/>
<polygon fill="midnightblue" stroke="midnightblue" points="434.2,-684.31 440.92,-676.12 430.56,-678.33 434.2,-684.31"/>
</g>
<!-- Node18 -->
<g id="node18" class="node">
<title>Node18</title>
<g id="a_node18"><a xlink:href="test__cmp__icu_8c_a4d05bd6cb0b420d45886997161470259.html#a4d05bd6cb0b420d45886997161470259" target="_top" xlink:title=" ">
<polygon fill="white" stroke="black" points="218.5,-676.5 218.5,-706.5 329.5,-706.5 329.5,-676.5 218.5,-676.5"/>
<text text-anchor="start" x="226.5" y="-694.5" font-family="Helvetica,sans-Serif" font-size="10.00">test_compress_l_fx</text>
<text text-anchor="middle" x="274" y="-683.5" font-family="Helvetica,sans-Serif" font-size="10.00">_efx_error_cases</text>
</a>
</g>
</g>
<!-- Node2&#45;&gt;Node18 -->
<g id="edge17" class="edge">
<title>Node2&#45;&gt;Node18</title>
<path fill="none" stroke="midnightblue" d="M391.6,-675.4C371.31,-678.2 349.11,-681.26 329.58,-683.96"/>
<polygon fill="midnightblue" stroke="midnightblue" points="392.27,-678.84 401.69,-674 391.31,-671.9 392.27,-678.84"/>
</g>
<!-- Node19 -->
<g id="node19" class="node">
<title>Node19</title>
<g id="a_node19"><a xlink:href="test__cmp__icu_8c_a0d3532f9e6f2e6e0c4392049e06c627f.html#a0d3532f9e6f2e6e0c4392049e06c627f" target="_top" xlink:title=" ">
<polygon fill="white" stroke="black" points="196,-627.5 196,-657.5 352,-657.5 352,-627.5 196,-627.5"/>
<text text-anchor="start" x="204" y="-645.5" font-family="Helvetica,sans-Serif" font-size="10.00">test_compress_l_fx</text>
<text text-anchor="middle" x="274" y="-634.5" font-family="Helvetica,sans-Serif" font-size="10.00">_efx_ncob_ecob_error_cases</text>
</a>
</g>
</g>
<!-- Node2&#45;&gt;Node19 -->
<g id="edge18" class="edge">
<title>Node2&#45;&gt;Node19</title>
<path fill="none" stroke="midnightblue" d="M391.6,-657.96C378.79,-656.26 365.21,-654.46 352.02,-652.71"/>
<polygon fill="midnightblue" stroke="midnightblue" points="391.32,-661.45 401.69,-659.3 392.24,-654.52 391.32,-661.45"/>
</g>
<!-- Node20 -->
<g id="node20" class="node">
<title>Node20</title>
<g id="a_node20"><a xlink:href="test__cmp__icu_8c_a13a2a26bd2eac1bd622925c6dcfbfb2d.html#a13a2a26bd2eac1bd622925c6dcfbfb2d" target="_top" xlink:title=" ">
<polygon fill="white" stroke="black" points="218.5,-578.5 218.5,-608.5 329.5,-608.5 329.5,-578.5 218.5,-578.5"/>
<text text-anchor="start" x="226.5" y="-596.5" font-family="Helvetica,sans-Serif" font-size="10.00">test_compress_l_fx</text>
<text text-anchor="middle" x="274" y="-585.5" font-family="Helvetica,sans-Serif" font-size="10.00">_error_cases</text>
</a>
</g>
</g>
<!-- Node2&#45;&gt;Node20 -->
<g id="edge19" class="edge">
<title>Node2&#45;&gt;Node20</title>
<path fill="none" stroke="midnightblue" d="M432.4,-651.6C414.68,-640.93 389.51,-626.84 366,-617.5 354.46,-612.91 341.75,-608.94 329.59,-605.61"/>
<polygon fill="midnightblue" stroke="midnightblue" points="430.59,-654.59 440.94,-656.83 434.24,-648.62 430.59,-654.59"/>
</g>
<!-- Node21 -->
<g id="node21" class="node">
<title>Node21</title>
<g id="a_node21"><a xlink:href="test__cmp__icu_8c_ab725960063dc032566560118d582b79e.html#ab725960063dc032566560118d582b79e" target="_top" xlink:title=" ">
<polygon fill="white" stroke="black" points="218.5,-529.5 218.5,-559.5 329.5,-559.5 329.5,-529.5 218.5,-529.5"/>
<text text-anchor="start" x="226.5" y="-547.5" font-family="Helvetica,sans-Serif" font-size="10.00">test_compress_l_fx</text>
<text text-anchor="middle" x="274" y="-536.5" font-family="Helvetica,sans-Serif" font-size="10.00">_ncob_error_cases</text>
</a>
</g>
</g>
<!-- Node2&#45;&gt;Node21 -->
<g id="edge20" class="edge">
<title>Node2&#45;&gt;Node21</title>
<path fill="none" stroke="midnightblue" d="M444.14,-648.21C428.78,-625.99 399.92,-588.97 366,-568.5 354.95,-561.83 342.05,-556.99 329.5,-553.49"/>
<polygon fill="midnightblue" stroke="midnightblue" points="441.39,-650.38 449.87,-656.73 447.2,-646.48 441.39,-650.38"/>
</g>
<!-- Node22 -->
<g id="node22" class="node">
<title>Node22</title>
<g id="a_node22"><a xlink:href="test__cmp__icu_8c_a13bf5ba0481601697942a0a485f7631c.html#a13bf5ba0481601697942a0a485f7631c" target="_top" xlink:title=" ">
<polygon fill="white" stroke="black" points="213.5,-480.5 213.5,-510.5 334.5,-510.5 334.5,-480.5 213.5,-480.5"/>
<text text-anchor="start" x="221.5" y="-498.5" font-family="Helvetica,sans-Serif" font-size="10.00">test_compress_offset</text>
<text text-anchor="middle" x="274" y="-487.5" font-family="Helvetica,sans-Serif" font-size="10.00">_error_cases</text>
</a>
</g>
</g>
<!-- Node2&#45;&gt;Node22 -->
<g id="edge21" class="edge">
<title>Node2&#45;&gt;Node22</title>
<path fill="none" stroke="midnightblue" d="M449.52,-647.02C437.95,-615.31 410.67,-552.73 366,-519.5 356.82,-512.67 345.86,-507.79 334.78,-504.29"/>
<polygon fill="midnightblue" stroke="midnightblue" points="446.35,-648.57 452.96,-656.85 452.96,-646.26 446.35,-648.57"/>
</g>
<!-- Node23 -->
<g id="node23" class="node">
<title>Node23</title>
<g id="a_node23"><a xlink:href="test__cmp__icu_8c_a28f0f3239f94a5d75189300dd3ed35fc.html#a28f0f3239f94a5d75189300dd3ed35fc" target="_top" xlink:title=" ">
<polygon fill="white" stroke="black" points="217.5,-431.5 217.5,-461.5 330.5,-461.5 330.5,-431.5 217.5,-431.5"/>
<text text-anchor="start" x="225.5" y="-449.5" font-family="Helvetica,sans-Serif" font-size="10.00">test_compress_s_fx</text>
<text text-anchor="middle" x="274" y="-438.5" font-family="Helvetica,sans-Serif" font-size="10.00">_efx_error_cases</text>
</a>
</g>
</g>
<!-- Node2&#45;&gt;Node23 -->
<g id="edge22" class="edge">
<title>Node2&#45;&gt;Node23</title>
<path fill="none" stroke="midnightblue" d="M452.65,-646.54C444.9,-606.79 421.94,-517.53 366,-470.5 356,-462.09 343.36,-456.59 330.71,-453.01"/>
<polygon fill="midnightblue" stroke="midnightblue" points="449.24,-647.36 454.48,-656.57 456.13,-646.1 449.24,-647.36"/>
</g>
<!-- Node24 -->
<g id="node24" class="node">
<title>Node24</title>
<g id="a_node24"><a xlink:href="test__cmp__icu_8c_a90fd6057131bbf0c9b398c9c99bea3f2.html#a90fd6057131bbf0c9b398c9c99bea3f2" target="_top" xlink:title=" ">
<polygon fill="white" stroke="black" points="196,-382.5 196,-412.5 352,-412.5 352,-382.5 196,-382.5"/>
<text text-anchor="start" x="204" y="-400.5" font-family="Helvetica,sans-Serif" font-size="10.00">test_compress_s_fx</text>
<text text-anchor="middle" x="274" y="-389.5" font-family="Helvetica,sans-Serif" font-size="10.00">_efx_ncob_ecob_error_cases</text>
</a>
</g>
</g>
<!-- Node2&#45;&gt;Node24 -->
<g id="edge23" class="edge">
<title>Node2&#45;&gt;Node24</title>
<path fill="none" stroke="midnightblue" d="M454.73,-646.84C450.65,-600.4 433.81,-483.2 366,-421.5 361.89,-417.76 357.27,-414.59 352.34,-411.91"/>
<polygon fill="midnightblue" stroke="midnightblue" points="451.24,-647.11 455.5,-656.81 458.22,-646.57 451.24,-647.11"/>
</g>
<!-- Node25 -->
<g id="node25" class="node">
<title>Node25</title>
<g id="a_node25"><a xlink:href="test__cmp__icu_8c_aa29971f14aa8c01058cf5884ccfb0b46.html#aa29971f14aa8c01058cf5884ccfb0b46" target="_top" xlink:title=" ">
<polygon fill="white" stroke="black" points="217.5,-333.5 217.5,-363.5 330.5,-363.5 330.5,-333.5 217.5,-333.5"/>
<text text-anchor="start" x="225.5" y="-351.5" font-family="Helvetica,sans-Serif" font-size="10.00">test_compress_s_fx</text>
<text text-anchor="middle" x="274" y="-340.5" font-family="Helvetica,sans-Serif" font-size="10.00">_error_cases</text>
</a>
</g>
</g>
<!-- Node2&#45;&gt;Node25 -->
<g id="edge24" class="edge">
<title>Node2&#45;&gt;Node25</title>
<path fill="none" stroke="midnightblue" d="M456.12,-646.62C455.32,-593.84 445.59,-449.03 366,-372.5 356.34,-363.21 343.54,-357.41 330.59,-353.82"/>
<polygon fill="midnightblue" stroke="midnightblue" points="452.62,-646.96 456.18,-656.94 459.62,-646.92 452.62,-646.96"/>
</g>
<!-- Node26 -->
<g id="node26" class="node">
<title>Node26</title>
<g id="a_node26"><a xlink:href="test__cmp__icu_8c_afa54c8348f46913b7c39517424f7e547.html#afa54c8348f46913b7c39517424f7e547" target="_top" xlink:title=" ">
<polygon fill="white" stroke="black" points="217.5,-284.5 217.5,-314.5 330.5,-314.5 330.5,-284.5 217.5,-284.5"/>
<text text-anchor="start" x="225.5" y="-302.5" font-family="Helvetica,sans-Serif" font-size="10.00">test_compress_s_fx</text>
<text text-anchor="middle" x="274" y="-291.5" font-family="Helvetica,sans-Serif" font-size="10.00">_model_multi</text>
</a>
</g>
</g>
<!-- Node2&#45;&gt;Node26 -->
<g id="edge25" class="edge">
<title>Node2&#45;&gt;Node26</title>
<path fill="none" stroke="midnightblue" d="M453.42,-646.61C444.49,-580.6 412.79,-370.35 366,-323.5 356.53,-314.02 343.79,-308.15 330.85,-304.55"/>
<polygon fill="midnightblue" stroke="midnightblue" points="450,-647.42 454.79,-656.87 456.94,-646.5 450,-647.42"/>
</g>
<!-- Node27 -->
<g id="node27" class="node">
<title>Node27</title>
<g id="a_node27"><a xlink:href="test__cmp__icu_8c_a70a6d23f621dd0ce0ffb110b9c77116f.html#a70a6d23f621dd0ce0ffb110b9c77116f" target="_top" xlink:title=" ">
<polygon fill="white" stroke="black" points="217.5,-235.5 217.5,-265.5 330.5,-265.5 330.5,-235.5 217.5,-235.5"/>
<text text-anchor="start" x="225.5" y="-253.5" font-family="Helvetica,sans-Serif" font-size="10.00">test_compress_s_fx</text>
<text text-anchor="middle" x="274" y="-242.5" font-family="Helvetica,sans-Serif" font-size="10.00">_ncob_error_cases</text>
</a>
</g>
</g>
<!-- Node2&#45;&gt;Node27 -->
<g id="edge26" class="edge">
<title>Node2&#45;&gt;Node27</title>
<path fill="none" stroke="midnightblue" d="M454.13,-646.64C446.95,-574.7 418.91,-329.15 366,-274.5 356.57,-264.76 343.68,-258.81 330.58,-255.22"/>
<polygon fill="midnightblue" stroke="midnightblue" points="450.68,-647.36 455.13,-656.98 457.65,-646.68 450.68,-647.36"/>
</g>
<!-- Node28 -->
<g id="node28" class="node">
<title>Node28</title>
<g id="a_node28"><a xlink:href="test__cmp__icu_8c_ab9f5f00613d43e2b46aa130d472674cb.html#ab9f5f00613d43e2b46aa130d472674cb" target="_top" xlink:title=" ">
<polygon fill="white" stroke="black" points="205.5,-197 205.5,-216 342.5,-216 342.5,-197 205.5,-197"/>
<text text-anchor="middle" x="274" y="-204" font-family="Helvetica,sans-Serif" font-size="10.00">test_compress_s_fx_raw</text>
</a>
</g>
</g>
<!-- Node2&#45;&gt;Node28 -->
<g id="edge27" class="edge">
<title>Node2&#45;&gt;Node28</title>
<path fill="none" stroke="midnightblue" d="M454.77,-646.61C449.56,-568.83 426.7,-286.47 366,-225.5 359.51,-218.98 351.4,-214.42 342.71,-211.27"/>
<polygon fill="midnightblue" stroke="midnightblue" points="451.3,-647.16 455.44,-656.92 458.29,-646.71 451.3,-647.16"/>
</g>
<!-- Node29 -->
<g id="node29" class="node">
<title>Node29</title>
<g id="a_node29"><a xlink:href="test__cmp__icu_8c_ad8cefbf7c0531178a3c5d00ed71cfe61.html#ad8cefbf7c0531178a3c5d00ed71cfe61" target="_top" xlink:title=" ">
<polygon fill="white" stroke="black" points="217.5,-147.5 217.5,-177.5 330.5,-177.5 330.5,-147.5 217.5,-147.5"/>
<text text-anchor="start" x="225.5" y="-165.5" font-family="Helvetica,sans-Serif" font-size="10.00">test_compress_s_fx</text>
<text text-anchor="middle" x="274" y="-154.5" font-family="Helvetica,sans-Serif" font-size="10.00">_staff</text>
</a>
</g>
</g>
<!-- Node2&#45;&gt;Node29 -->
<g id="edge28" class="edge">
<title>Node2&#45;&gt;Node29</title>
<path fill="none" stroke="midnightblue" d="M455,-646.61C450.51,-564.96 429.51,-256.47 366,-187.5 356.79,-177.5 343.98,-171.35 330.89,-167.61"/>
<polygon fill="midnightblue" stroke="midnightblue" points="451.53,-647.16 455.55,-656.96 458.52,-646.79 451.53,-647.16"/>
</g>
<!-- Node30 -->
<g id="node30" class="node">
<title>Node30</title>
<g id="a_node30"><a xlink:href="test__cmp__icu_8c_aee4858f3ea226c6da9e4a9ed54475b1d.html#aee4858f3ea226c6da9e4a9ed54475b1d" target="_top" xlink:title=" ">
<polygon fill="white" stroke="black" points="204.5,-98.5 204.5,-128.5 343.5,-128.5 343.5,-98.5 204.5,-98.5"/>
<text text-anchor="start" x="212.5" y="-116.5" font-family="Helvetica,sans-Serif" font-size="10.00">test_compress_smearing</text>
<text text-anchor="middle" x="274" y="-105.5" font-family="Helvetica,sans-Serif" font-size="10.00">_error_cases</text>
</a>
</g>
</g>
<!-- Node2&#45;&gt;Node30 -->
<g id="edge29" class="edge">
<title>Node2&#45;&gt;Node30</title>
<path fill="none" stroke="midnightblue" d="M455.41,-646.76C452.43,-560.11 436.24,-214.32 366,-137.5 359.83,-130.75 352,-125.8 343.54,-122.19"/>
<polygon fill="midnightblue" stroke="midnightblue" points="451.92,-646.94 455.74,-656.82 458.91,-646.71 451.92,-646.94"/>
</g>
<!-- Node31 -->
<g id="node31" class="node">
<title>Node31</title>
<g id="a_node31"><a xlink:href="test__cmp__icu_8c_a8db99614e8a5d384edb82fe466e15042.html#a8db99614e8a5d384edb82fe466e15042" target="_top" xlink:title=" ">
<polygon fill="white" stroke="black" points="207,-49.5 207,-79.5 341,-79.5 341,-49.5 207,-49.5"/>
<text text-anchor="start" x="215" y="-67.5" font-family="Helvetica,sans-Serif" font-size="10.00">test_icu_compress_data</text>
<text text-anchor="middle" x="274" y="-56.5" font-family="Helvetica,sans-Serif" font-size="10.00">_error_cases</text>
</a>
</g>
</g>
<!-- Node2&#45;&gt;Node31 -->
<g id="edge30" class="edge">
<title>Node2&#45;&gt;Node31</title>
<path fill="none" stroke="midnightblue" d="M455.72,-646.71C454.04,-555.14 442.46,-173.31 366,-88.5 359.33,-81.1 350.67,-75.86 341.34,-72.18"/>
<polygon fill="midnightblue" stroke="midnightblue" points="452.23,-646.88 455.89,-656.83 459.22,-646.77 452.23,-646.88"/>
</g>
<!-- Node32 -->
<g id="node32" class="node">
<title>Node32</title>
<g id="a_node32"><a xlink:href="test__cmp__decmp_8c_abb20ed18a3c6ba0fc67ecef2d629dec0.html#abb20ed18a3c6ba0fc67ecef2d629dec0" target="_top" xlink:title=" ">
<polygon fill="white" stroke="black" points="201,-0.5 201,-30.5 347,-30.5 347,-0.5 201,-0.5"/>
<text text-anchor="start" x="209" y="-18.5" font-family="Helvetica,sans-Serif" font-size="10.00">test_random_compression</text>
<text text-anchor="middle" x="274" y="-7.5" font-family="Helvetica,sans-Serif" font-size="10.00">_decompression2</text>
</a>
</g>
</g>
<!-- Node2&#45;&gt;Node32 -->
<g id="edge31" class="edge">
<title>Node2&#45;&gt;Node32</title>
<path fill="none" stroke="midnightblue" d="M455.99,-646.89C455.53,-551.02 448.77,-132.41 366,-39.5 360.78,-33.64 354.32,-29.14 347.27,-25.69"/>
<polygon fill="midnightblue" stroke="midnightblue" points="452.49,-646.95 456.02,-656.94 459.49,-646.93 452.49,-646.95"/>
</g>
<!-- Node4 -->
<g id="node4" class="node">
<title>Node4</title>
<g id="a_node4"><a xlink:href="test__cmp__decmp_8c_af3c162694b40683e0aa25c61a49cdafc.html#af3c162694b40683e0aa25c61a49cdafc" target="_top" xlink:title="random compression decompression test">
<polygon fill="white" stroke="black" points="0,-1270.5 0,-1300.5 146,-1300.5 146,-1270.5 0,-1270.5"/>
<text text-anchor="start" x="8" y="-1288.5" font-family="Helvetica,sans-Serif" font-size="10.00">test_random_compression</text>
<text text-anchor="middle" x="73" y="-1277.5" font-family="Helvetica,sans-Serif" font-size="10.00">_decompression</text>
</a>
</g>
</g>
<!-- Node3&#45;&gt;Node4 -->
<g id="edge3" class="edge">
<title>Node3&#45;&gt;Node4</title>
<path fill="none" stroke="midnightblue" d="M184.63,-1284.94C171.72,-1285.01 158.55,-1285.08 146.01,-1285.14"/>
<polygon fill="midnightblue" stroke="midnightblue" points="184.94,-1288.44 194.92,-1284.89 184.9,-1281.44 184.94,-1288.44"/>
</g>
<!-- Node6 -->
<g id="node6" class="node">
<title>Node6</title>
<g id="a_node6"><a xlink:href="test__decmp_8c_a1a33e2fcbf484c79dfe661b280386f6b.html#a1a33e2fcbf484c79dfe661b280386f6b" target="_top" xlink:title=" ">
<polygon fill="white" stroke="black" points="0,-1232 0,-1251 146,-1251 146,-1232 0,-1232"/>
<text text-anchor="middle" x="73" y="-1239" font-family="Helvetica,sans-Serif" font-size="10.00">test_cmp_decmp_s_fx_diff</text>
</a>
</g>
</g>
<!-- Node5&#45;&gt;Node6 -->
<g id="edge5" class="edge">
<title>Node5&#45;&gt;Node6</title>
<path fill="none" stroke="midnightblue" d="M191.7,-1242.68C176.67,-1242.53 161.06,-1242.37 146.32,-1242.23"/>
<polygon fill="midnightblue" stroke="midnightblue" points="191.96,-1246.19 202,-1242.79 192.03,-1239.19 191.96,-1246.19"/>
</g>
</g>
</svg>
