<?xml version="1.0" encoding="UTF-8" standalone="no"?>
<!DOCTYPE svg PUBLIC "-//W3C//DTD SVG 1.1//EN"
 "http://www.w3.org/Graphics/SVG/1.1/DTD/svg11.dtd">
<!-- Generated by graphviz version 2.43.0 (0)
 -->
<!-- Title: cmp_ent_get_lossy_cmp_par Pages: 1 -->
<svg width="923pt" height="369pt"
 viewBox="0.00 0.00 923.00 369.00" xmlns="http://www.w3.org/2000/svg" xmlns:xlink="http://www.w3.org/1999/xlink">
<g id="graph0" class="graph" transform="scale(1 1) rotate(0) translate(4 365)">
<title>cmp_ent_get_lossy_cmp_par</title>
<polygon fill="white" stroke="transparent" points="-4,4 -4,-365 919,-365 919,4 -4,4"/>
<!-- Node1 -->
<g id="node1" class="node">
<title>Node1</title>
<g id="a_node1"><a xlink:title="get the used lossy compression parameter from the compression entity header">
<polygon fill="#bfbfbf" stroke="black" points="757,-126.5 757,-145.5 915,-145.5 915,-126.5 757,-126.5"/>
<text text-anchor="middle" x="836" y="-133.5" font-family="Helvetica,sans-Serif" font-size="10.00">cmp_ent_get_lossy_cmp_par</text>
</a>
</g>
</g>
<!-- Node2 -->
<g id="node2" class="node">
<title>Node2</title>
<g id="a_node2"><a xlink:href="cmp__entity_8c_a2437ba690b73b4c212cd7962819b24ce.html#a2437ba690b73b4c212cd7962819b24ce" target="_top" xlink:title="parses the generic compressed entity header">
<polygon fill="white" stroke="black" points="588,-279 588,-309 720,-309 720,-279 588,-279"/>
<text text-anchor="start" x="596" y="-297" font-family="Helvetica,sans-Serif" font-size="10.00">cmp_ent_parse_generic</text>
<text text-anchor="middle" x="654" y="-286" font-family="Helvetica,sans-Serif" font-size="10.00">_header</text>
</a>
</g>
</g>
<!-- Node1&#45;&gt;Node2 -->
<g id="edge1" class="edge">
<title>Node1&#45;&gt;Node2</title>
<path fill="none" stroke="midnightblue" d="M816.4,-152.32C781.37,-183.08 706.07,-249.18 672.16,-278.93"/>
<polygon fill="midnightblue" stroke="midnightblue" points="818.8,-154.87 824.01,-145.65 814.19,-149.61 818.8,-154.87"/>
</g>
<!-- Node5 -->
<g id="node5" class="node">
<title>Node5</title>
<g id="a_node5"><a xlink:href="decmp_8c_a74bca2e933b64c4e4738700db181be76.html#a74bca2e933b64c4e4738700db181be76" target="_top" xlink:title="read in an imagette compression entity header to a compression configuration">
<polygon fill="white" stroke="black" points="591.5,-202.5 591.5,-221.5 716.5,-221.5 716.5,-202.5 591.5,-202.5"/>
<text text-anchor="middle" x="654" y="-209.5" font-family="Helvetica,sans-Serif" font-size="10.00">cmp_ent_read_header</text>
</a>
</g>
</g>
<!-- Node1&#45;&gt;Node5 -->
<g id="edge4" class="edge">
<title>Node1&#45;&gt;Node5</title>
<path fill="none" stroke="midnightblue" d="M805.87,-150.06C783,-160.91 750.24,-176.04 721,-188 708.59,-193.08 694.66,-198.22 682.8,-202.44"/>
<polygon fill="midnightblue" stroke="midnightblue" points="807.51,-153.16 815.03,-145.69 804.5,-146.84 807.51,-153.16"/>
</g>
<!-- Node14 -->
<g id="node14" class="node">
<title>Node14</title>
<g id="a_node14"><a xlink:href="test__decmp_8c_a27e5a2b67e3e81da1be024826485b2e3.html#a27e5a2b67e3e81da1be024826485b2e3" target="_top" xlink:title=" ">
<polygon fill="white" stroke="black" points="420,-148 420,-178 533,-178 533,-148 420,-148"/>
<text text-anchor="start" x="428" y="-166" font-family="Helvetica,sans-Serif" font-size="10.00">test_cmp_ent_write</text>
<text text-anchor="middle" x="476.5" y="-155" font-family="Helvetica,sans-Serif" font-size="10.00">_cmp_pars</text>
</a>
</g>
</g>
<!-- Node1&#45;&gt;Node14 -->
<g id="edge16" class="edge">
<title>Node1&#45;&gt;Node14</title>
<path fill="none" stroke="midnightblue" d="M776.44,-147.29C758.7,-150.29 739.11,-153.2 721,-155 656.81,-161.38 582.69,-162.99 533.25,-163.26"/>
<polygon fill="midnightblue" stroke="midnightblue" points="777.4,-150.67 786.65,-145.51 776.2,-143.77 777.4,-150.67"/>
</g>
<!-- Node15 -->
<g id="node15" class="node">
<title>Node15</title>
<g id="a_node15"><a xlink:href="test__cmp__entity_8c_a13c81359af8798146608574ab0e113fb.html#a13c81359af8798146608574ab0e113fb" target="_top" xlink:title=" ">
<polygon fill="white" stroke="black" points="598,-126.5 598,-145.5 710,-145.5 710,-126.5 598,-126.5"/>
<text text-anchor="middle" x="654" y="-133.5" font-family="Helvetica,sans-Serif" font-size="10.00">test_cmp_ent_build</text>
</a>
</g>
</g>
<!-- Node1&#45;&gt;Node15 -->
<g id="edge14" class="edge">
<title>Node1&#45;&gt;Node15</title>
<path fill="none" stroke="midnightblue" d="M746.82,-136C734.3,-136 721.73,-136 710.08,-136"/>
<polygon fill="midnightblue" stroke="midnightblue" points="746.83,-139.5 756.83,-136 746.83,-132.5 746.83,-139.5"/>
</g>
<!-- Node16 -->
<g id="node16" class="node">
<title>Node16</title>
<g id="a_node16"><a xlink:href="test__cmp__entity_8c_a991729c77482729377539ccc0c96f4b7.html#a991729c77482729377539ccc0c96f4b7" target="_top" xlink:title=" ">
<polygon fill="white" stroke="black" points="594.5,-88.5 594.5,-107.5 713.5,-107.5 713.5,-88.5 594.5,-88.5"/>
<text text-anchor="middle" x="654" y="-95.5" font-family="Helvetica,sans-Serif" font-size="10.00">test_cmp_ent_create</text>
</a>
</g>
</g>
<!-- Node1&#45;&gt;Node16 -->
<g id="edge15" class="edge">
<title>Node1&#45;&gt;Node16</title>
<path fill="none" stroke="midnightblue" d="M779.67,-124.32C754.14,-118.93 724.22,-112.61 700.09,-107.52"/>
<polygon fill="midnightblue" stroke="midnightblue" points="779.07,-127.77 789.58,-126.41 780.52,-120.92 779.07,-127.77"/>
</g>
<!-- Node17 -->
<g id="node17" class="node">
<title>Node17</title>
<g id="a_node17"><a xlink:href="test__cmp__entity_8c_a8f7fd6d8b939382555507ecf2e74ec79.html#a8f7fd6d8b939382555507ecf2e74ec79" target="_top" xlink:title=" ">
<polygon fill="white" stroke="black" points="597.5,-39 597.5,-69 710.5,-69 710.5,-39 597.5,-39"/>
<text text-anchor="start" x="605.5" y="-57" font-family="Helvetica,sans-Serif" font-size="10.00">test_cmp_ent_write</text>
<text text-anchor="middle" x="654" y="-46" font-family="Helvetica,sans-Serif" font-size="10.00">_rdcu_cmp_pars</text>
</a>
</g>
</g>
<!-- Node1&#45;&gt;Node17 -->
<g id="edge17" class="edge">
<title>Node1&#45;&gt;Node17</title>
<path fill="none" stroke="midnightblue" d="M808.02,-121.53C785.15,-109.51 751.33,-92.28 721,-79 713.26,-75.61 704.89,-72.23 696.8,-69.1"/>
<polygon fill="midnightblue" stroke="midnightblue" points="806.63,-124.76 817.11,-126.34 809.9,-118.57 806.63,-124.76"/>
</g>
<!-- Node18 -->
<g id="node18" class="node">
<title>Node18</title>
<g id="a_node18"><a xlink:href="test__cmp__entity_8c_af52be407c32f85883cdd039fd77580d2.html#af52be407c32f85883cdd039fd77580d2" target="_top" xlink:title=" ">
<polygon fill="white" stroke="black" points="587,-0.5 587,-19.5 721,-19.5 721,-0.5 587,-0.5"/>
<text text-anchor="middle" x="654" y="-7.5" font-family="Helvetica,sans-Serif" font-size="10.00">test_ent_lossy_cmp_par</text>
</a>
</g>
</g>
<!-- Node1&#45;&gt;Node18 -->
<g id="edge18" class="edge">
<title>Node1&#45;&gt;Node18</title>
<path fill="none" stroke="midnightblue" d="M821.14,-118.6C801.38,-94.92 762.82,-52.78 721,-29 714.26,-25.17 706.69,-22.06 699.14,-19.55"/>
<polygon fill="midnightblue" stroke="midnightblue" points="818.5,-120.9 827.55,-126.42 823.92,-116.46 818.5,-120.9"/>
</g>
<!-- Node3 -->
<g id="node3" class="node">
<title>Node3</title>
<g id="a_node3"><a xlink:href="cmp__entity_8c_a1f4478c4d9938fa6f5631e88298ed816.html#a1f4478c4d9938fa6f5631e88298ed816" target="_top" xlink:title="parse the compressed entity header">
<polygon fill="white" stroke="black" points="431,-322.5 431,-341.5 522,-341.5 522,-322.5 431,-322.5"/>
<text text-anchor="middle" x="476.5" y="-329.5" font-family="Helvetica,sans-Serif" font-size="10.00">cmp_ent_parse</text>
</a>
</g>
</g>
<!-- Node2&#45;&gt;Node3 -->
<g id="edge2" class="edge">
<title>Node2&#45;&gt;Node3</title>
<path fill="none" stroke="midnightblue" d="M577.73,-310.3C558.58,-314.44 538.62,-318.77 521.59,-322.45"/>
<polygon fill="midnightblue" stroke="midnightblue" points="578.62,-313.69 587.65,-308.15 577.14,-306.85 578.62,-313.69"/>
</g>
<!-- Node4 -->
<g id="node4" class="node">
<title>Node4</title>
<g id="a_node4"><a xlink:href="test__cmp__entity_8c_a893444224bcd50fbb99e42e85989b4a6.html#a893444224bcd50fbb99e42e85989b4a6" target="_top" xlink:title=" ">
<polygon fill="white" stroke="black" points="216.5,-341.5 216.5,-360.5 331.5,-360.5 331.5,-341.5 216.5,-341.5"/>
<text text-anchor="middle" x="274" y="-348.5" font-family="Helvetica,sans-Serif" font-size="10.00">test_cmp_ent_parse</text>
</a>
</g>
</g>
<!-- Node3&#45;&gt;Node4 -->
<g id="edge3" class="edge">
<title>Node3&#45;&gt;Node4</title>
<path fill="none" stroke="midnightblue" d="M420.5,-337.21C392.95,-339.82 359.63,-342.98 331.83,-345.61"/>
<polygon fill="midnightblue" stroke="midnightblue" points="421.13,-340.67 430.75,-336.24 420.47,-333.7 421.13,-340.67"/>
</g>
<!-- Node6 -->
<g id="node6" class="node">
<title>Node6</title>
<g id="a_node6"><a xlink:href="decmp_8h_aefe0fa39fdc295432f5e2e0f91f0b87f.html#aefe0fa39fdc295432f5e2e0f91f0b87f" target="_top" xlink:title="decompress a compression entity">
<polygon fill="white" stroke="black" points="410.5,-246.5 410.5,-265.5 542.5,-265.5 542.5,-246.5 410.5,-246.5"/>
<text text-anchor="middle" x="476.5" y="-253.5" font-family="Helvetica,sans-Serif" font-size="10.00">decompress_cmp_entiy</text>
</a>
</g>
</g>
<!-- Node5&#45;&gt;Node6 -->
<g id="edge5" class="edge">
<title>Node5&#45;&gt;Node6</title>
<path fill="none" stroke="midnightblue" d="M604.89,-224.06C576.74,-231.12 541.71,-239.9 515.51,-246.47"/>
<polygon fill="midnightblue" stroke="midnightblue" points="606.07,-227.37 614.92,-221.55 604.37,-220.58 606.07,-227.37"/>
</g>
<!-- Node13 -->
<g id="node13" class="node">
<title>Node13</title>
<g id="a_node13"><a xlink:href="test__decmp_8c_a83b6283115165bfb92bf9008dcbdc41d.html#a83b6283115165bfb92bf9008dcbdc41d" target="_top" xlink:title=" ">
<polygon fill="white" stroke="black" points="402,-197 402,-227 551,-227 551,-197 402,-197"/>
<text text-anchor="start" x="410" y="-215" font-family="Helvetica,sans-Serif" font-size="10.00">test_cmp_ent_read_header</text>
<text text-anchor="middle" x="476.5" y="-204" font-family="Helvetica,sans-Serif" font-size="10.00">_error_cases</text>
</a>
</g>
</g>
<!-- Node5&#45;&gt;Node13 -->
<g id="edge12" class="edge">
<title>Node5&#45;&gt;Node13</title>
<path fill="none" stroke="midnightblue" d="M580.98,-212C571.14,-212 561.02,-212 551.14,-212"/>
<polygon fill="midnightblue" stroke="midnightblue" points="581.13,-215.5 591.13,-212 581.13,-208.5 581.13,-215.5"/>
</g>
<!-- Node5&#45;&gt;Node14 -->
<g id="edge13" class="edge">
<title>Node5&#45;&gt;Node14</title>
<path fill="none" stroke="midnightblue" d="M609.03,-199.72C585.47,-193.15 556.26,-184.99 531.36,-178.04"/>
<polygon fill="midnightblue" stroke="midnightblue" points="608.17,-203.12 618.75,-202.44 610.05,-196.38 608.17,-203.12"/>
</g>
<!-- Node7 -->
<g id="node7" class="node">
<title>Node7</title>
<g id="a_node7"><a xlink:href="test__cmp__decmp_8c_a50ba26014079160ca77b7d7fa76ce0f4.html#a50ba26014079160ca77b7d7fa76ce0f4" target="_top" xlink:title="compress the given configuration and decompress it afterwards; finally compare the results">
<polygon fill="white" stroke="black" points="195,-303.5 195,-322.5 353,-322.5 353,-303.5 195,-303.5"/>
<text text-anchor="middle" x="274" y="-310.5" font-family="Helvetica,sans-Serif" font-size="10.00">compression_decompression</text>
</a>
</g>
</g>
<!-- Node6&#45;&gt;Node7 -->
<g id="edge6" class="edge">
<title>Node6&#45;&gt;Node7</title>
<path fill="none" stroke="midnightblue" d="M441.37,-269.11C419.95,-277.02 391.62,-286.91 366,-294 353.24,-297.53 339.32,-300.75 326.29,-303.49"/>
<polygon fill="midnightblue" stroke="midnightblue" points="442.85,-272.29 451,-265.52 440.4,-265.74 442.85,-272.29"/>
</g>
<!-- Node9 -->
<g id="node9" class="node">
<title>Node9</title>
<g id="a_node9"><a xlink:href="test__decmp_8c_a6e7a5e150e2c829836db3c42cdec2eec.html#a6e7a5e150e2c829836db3c42cdec2eec" target="_top" xlink:title=" ">
<polygon fill="white" stroke="black" points="182,-265.5 182,-284.5 366,-284.5 366,-265.5 182,-265.5"/>
<text text-anchor="middle" x="274" y="-272.5" font-family="Helvetica,sans-Serif" font-size="10.00">test_cmp_decmp_n_imagette_raw</text>
</a>
</g>
</g>
<!-- Node6&#45;&gt;Node9 -->
<g id="edge8" class="edge">
<title>Node6&#45;&gt;Node9</title>
<path fill="none" stroke="midnightblue" d="M400.36,-263.12C389.27,-264.17 377.74,-265.26 366.36,-266.34"/>
<polygon fill="midnightblue" stroke="midnightblue" points="400.78,-266.6 410.4,-262.17 400.12,-259.63 400.78,-266.6"/>
</g>
<!-- Node10 -->
<g id="node10" class="node">
<title>Node10</title>
<g id="a_node10"><a xlink:href="test__decmp_8c_a1a33e2fcbf484c79dfe661b280386f6b.html#a1a33e2fcbf484c79dfe661b280386f6b" target="_top" xlink:title=" ">
<polygon fill="white" stroke="black" points="201,-227.5 201,-246.5 347,-246.5 347,-227.5 201,-227.5"/>
<text text-anchor="middle" x="274" y="-234.5" font-family="Helvetica,sans-Serif" font-size="10.00">test_cmp_decmp_s_fx_diff</text>
</a>
</g>
</g>
<!-- Node6&#45;&gt;Node10 -->
<g id="edge9" class="edge">
<title>Node6&#45;&gt;Node10</title>
<path fill="none" stroke="midnightblue" d="M400.28,-248.87C382.85,-247.22 364.34,-245.47 347.05,-243.83"/>
<polygon fill="midnightblue" stroke="midnightblue" points="400.12,-252.37 410.4,-249.83 400.78,-245.4 400.12,-252.37"/>
</g>
<!-- Node11 -->
<g id="node11" class="node">
<title>Node11</title>
<g id="a_node11"><a xlink:href="test__decmp_8c_acfebf2fa7515f5449e0cfa594457b66b.html#acfebf2fa7515f5449e0cfa594457b66b" target="_top" xlink:title=" ">
<polygon fill="white" stroke="black" points="233,-189.5 233,-208.5 315,-208.5 315,-189.5 233,-189.5"/>
<text text-anchor="middle" x="274" y="-196.5" font-family="Helvetica,sans-Serif" font-size="10.00">test_s_fx_diff</text>
</a>
</g>
</g>
<!-- Node6&#45;&gt;Node11 -->
<g id="edge10" class="edge">
<title>Node6&#45;&gt;Node11</title>
<path fill="none" stroke="midnightblue" d="M424.89,-243.65C417.14,-241.35 409.3,-238.79 402,-236 385.29,-229.62 382.9,-223.88 366,-218 349.69,-212.33 331.12,-208.08 315.02,-205.05"/>
<polygon fill="midnightblue" stroke="midnightblue" points="424.03,-247.04 434.6,-246.41 425.94,-240.31 424.03,-247.04"/>
</g>
<!-- Node12 -->
<g id="node12" class="node">
<title>Node12</title>
<g id="a_node12"><a xlink:href="test__decmp_8c_a953eeaad914985c0816dde26d47ffef0.html#a953eeaad914985c0816dde26d47ffef0" target="_top" xlink:title=" ">
<polygon fill="white" stroke="black" points="225.5,-151.5 225.5,-170.5 322.5,-170.5 322.5,-151.5 225.5,-151.5"/>
<text text-anchor="middle" x="274" y="-158.5" font-family="Helvetica,sans-Serif" font-size="10.00">test_s_fx_model</text>
</a>
</g>
</g>
<!-- Node6&#45;&gt;Node12 -->
<g id="edge11" class="edge">
<title>Node6&#45;&gt;Node12</title>
<path fill="none" stroke="midnightblue" d="M412.5,-242.36C408.8,-240.5 405.27,-238.39 402,-236 378.14,-218.51 390.38,-196.77 366,-180 353.37,-171.31 337.58,-166.45 322.72,-163.78"/>
<polygon fill="midnightblue" stroke="midnightblue" points="411.38,-245.69 421.95,-246.47 414.18,-239.27 411.38,-245.69"/>
</g>
<!-- Node8 -->
<g id="node8" class="node">
<title>Node8</title>
<g id="a_node8"><a xlink:href="test__cmp__decmp_8c_af3c162694b40683e0aa25c61a49cdafc.html#af3c162694b40683e0aa25c61a49cdafc" target="_top" xlink:title="random compression decompression test">
<polygon fill="white" stroke="black" points="0,-298 0,-328 146,-328 146,-298 0,-298"/>
<text text-anchor="start" x="8" y="-316" font-family="Helvetica,sans-Serif" font-size="10.00">test_random_compression</text>
<text text-anchor="middle" x="73" y="-305" font-family="Helvetica,sans-Serif" font-size="10.00">_decompression</text>
</a>
</g>
</g>
<!-- Node7&#45;&gt;Node8 -->
<g id="edge7" class="edge">
<title>Node7&#45;&gt;Node8</title>
<path fill="none" stroke="midnightblue" d="M184.63,-313C171.72,-313 158.55,-313 146.01,-313"/>
<polygon fill="midnightblue" stroke="midnightblue" points="184.92,-316.5 194.92,-313 184.92,-309.5 184.92,-316.5"/>
</g>
</g>
</svg>
