<?xml version="1.0" encoding="UTF-8" standalone="no"?>
<!DOCTYPE svg PUBLIC "-//W3C//DTD SVG 1.1//EN"
 "http://www.w3.org/Graphics/SVG/1.1/DTD/svg11.dtd">
<!-- Generated by graphviz version 2.43.0 (0)
 -->
<!-- Title: cmp_ent_get_size Pages: 1 -->
<svg width="1078pt" height="432pt"
 viewBox="0.00 0.00 1078.00 432.00" xmlns="http://www.w3.org/2000/svg" xmlns:xlink="http://www.w3.org/1999/xlink">
<g id="graph0" class="graph" transform="scale(1 1) rotate(0) translate(4 428)">
<title>cmp_ent_get_size</title>
<polygon fill="white" stroke="transparent" points="-4,4 -4,-428 1074,-428 1074,4 -4,4"/>
<!-- Node1 -->
<g id="node1" class="node">
<title>Node1</title>
<g id="a_node1"><a xlink:title="get the size of the compression entity from the compression entity header">
<polygon fill="#bfbfbf" stroke="black" points="966,-79.5 966,-98.5 1070,-98.5 1070,-79.5 966,-79.5"/>
<text text-anchor="middle" x="1018" y="-86.5" font-family="Helvetica,sans-Serif" font-size="10.00">cmp_ent_get_size</text>
</a>
</g>
</g>
<!-- Node2 -->
<g id="node2" class="node">
<title>Node2</title>
<g id="a_node2"><a xlink:href="cmp__entity_8c_a6fc83a1c918c2d0c565f8f828fce62b7.html#a6fc83a1c918c2d0c565f8f828fce62b7" target="_top" xlink:title="get the size of the compressed data based on the set data product type and compressed entity size in ...">
<polygon fill="white" stroke="black" points="772,-202.5 772,-221.5 930,-221.5 930,-202.5 772,-202.5"/>
<text text-anchor="middle" x="851" y="-209.5" font-family="Helvetica,sans-Serif" font-size="10.00">cmp_ent_get_cmp_data_size</text>
</a>
</g>
</g>
<!-- Node1&#45;&gt;Node2 -->
<g id="edge1" class="edge">
<title>Node1&#45;&gt;Node2</title>
<path fill="none" stroke="midnightblue" d="M996.01,-104.64C961.38,-130.46 893.27,-181.24 864.89,-202.39"/>
<polygon fill="midnightblue" stroke="midnightblue" points="998.13,-107.43 1004.05,-98.65 993.94,-101.82 998.13,-107.43"/>
</g>
<!-- Node27 -->
<g id="node27" class="node">
<title>Node27</title>
<g id="a_node27"><a xlink:href="cmp__entity_8c_a2437ba690b73b4c212cd7962819b24ce.html#a2437ba690b73b4c212cd7962819b24ce" target="_top" xlink:title="parses the generic compressed entity header">
<polygon fill="white" stroke="black" points="785,-74 785,-104 917,-104 917,-74 785,-74"/>
<text text-anchor="start" x="793" y="-92" font-family="Helvetica,sans-Serif" font-size="10.00">cmp_ent_parse_generic</text>
<text text-anchor="middle" x="851" y="-81" font-family="Helvetica,sans-Serif" font-size="10.00">_header</text>
</a>
</g>
</g>
<!-- Node1&#45;&gt;Node27 -->
<g id="edge35" class="edge">
<title>Node1&#45;&gt;Node27</title>
<path fill="none" stroke="midnightblue" d="M955.43,-89C942.97,-89 929.84,-89 917.27,-89"/>
<polygon fill="midnightblue" stroke="midnightblue" points="955.7,-92.5 965.7,-89 955.7,-85.5 955.7,-92.5"/>
</g>
<!-- Node29 -->
<g id="node29" class="node">
<title>Node29</title>
<g id="a_node29"><a xlink:href="test__cmp__entity_8c_afbf5b0fa7fbe05851a2c3610fe9ced93.html#afbf5b0fa7fbe05851a2c3610fe9ced93" target="_top" xlink:title=" ">
<polygon fill="white" stroke="black" points="810.5,-35.5 810.5,-54.5 891.5,-54.5 891.5,-35.5 810.5,-35.5"/>
<text text-anchor="middle" x="851" y="-42.5" font-family="Helvetica,sans-Serif" font-size="10.00">test_ent_size</text>
</a>
</g>
</g>
<!-- Node1&#45;&gt;Node29 -->
<g id="edge38" class="edge">
<title>Node1&#45;&gt;Node29</title>
<path fill="none" stroke="midnightblue" d="M973.02,-76.7C959.26,-72.9 944.01,-68.73 930,-65 916.9,-61.51 902.52,-57.8 889.73,-54.53"/>
<polygon fill="midnightblue" stroke="midnightblue" points="972.17,-80.1 982.74,-79.4 974.04,-73.35 972.17,-80.1"/>
</g>
<!-- Node3 -->
<g id="node3" class="node">
<title>Node3</title>
<g id="a_node3"><a xlink:href="cmp__entity_8c_a53d1033e924a4177448fa5518a86f5b8.html#a53d1033e924a4177448fa5518a86f5b8" target="_top" xlink:title="copy the data from a compression entity to a buffer">
<polygon fill="white" stroke="black" points="599,-316.5 599,-335.5 732,-335.5 732,-316.5 599,-316.5"/>
<text text-anchor="middle" x="665.5" y="-323.5" font-family="Helvetica,sans-Serif" font-size="10.00">cmp_ent_get_cmp_data</text>
</a>
</g>
</g>
<!-- Node2&#45;&gt;Node3 -->
<g id="edge2" class="edge">
<title>Node2&#45;&gt;Node3</title>
<path fill="none" stroke="midnightblue" d="M834.25,-229.02C813.65,-250.29 775.5,-286.4 736,-307 728.68,-310.82 720.52,-313.93 712.43,-316.45"/>
<polygon fill="midnightblue" stroke="midnightblue" points="836.9,-231.31 841.25,-221.65 831.83,-226.49 836.9,-231.31"/>
</g>
<!-- Node5 -->
<g id="node5" class="node">
<title>Node5</title>
<g id="a_node5"><a xlink:href="cmp__entity_8c_ae1e22f1d5652d49b51dd6e3bce93c7a6.html#ae1e22f1d5652d49b51dd6e3bce93c7a6" target="_top" xlink:title="print the compressed data of the entity">
<polygon fill="white" stroke="black" points="609,-278.5 609,-297.5 722,-297.5 722,-278.5 609,-278.5"/>
<text text-anchor="middle" x="665.5" y="-285.5" font-family="Helvetica,sans-Serif" font-size="10.00">cmp_ent_print_data</text>
</a>
</g>
</g>
<!-- Node2&#45;&gt;Node5 -->
<g id="edge4" class="edge">
<title>Node2&#45;&gt;Node5</title>
<path fill="none" stroke="midnightblue" d="M824.51,-226.57C801.83,-239.09 767.47,-256.97 736,-269 726.65,-272.57 716.36,-275.77 706.63,-278.48"/>
<polygon fill="midnightblue" stroke="midnightblue" points="826.45,-229.5 833.47,-221.57 823.04,-223.38 826.45,-229.5"/>
</g>
<!-- Node8 -->
<g id="node8" class="node">
<title>Node8</title>
<g id="a_node8"><a xlink:href="decmp_8c_a74bca2e933b64c4e4738700db181be76.html#a74bca2e933b64c4e4738700db181be76" target="_top" xlink:title="read in an imagette compression entity header to a compression configuration">
<polygon fill="white" stroke="black" points="603,-240.5 603,-259.5 728,-259.5 728,-240.5 603,-240.5"/>
<text text-anchor="middle" x="665.5" y="-247.5" font-family="Helvetica,sans-Serif" font-size="10.00">cmp_ent_read_header</text>
</a>
</g>
</g>
<!-- Node2&#45;&gt;Node8 -->
<g id="edge7" class="edge">
<title>Node2&#45;&gt;Node8</title>
<path fill="none" stroke="midnightblue" d="M793.59,-223.68C767.57,-229.07 737.07,-235.39 712.47,-240.48"/>
<polygon fill="midnightblue" stroke="midnightblue" points="794.61,-227.04 803.7,-221.59 793.19,-220.19 794.61,-227.04"/>
</g>
<!-- Node17 -->
<g id="node17" class="node">
<title>Node17</title>
<g id="a_node17"><a xlink:href="test__decmp_8c_a27e5a2b67e3e81da1be024826485b2e3.html#a27e5a2b67e3e81da1be024826485b2e3" target="_top" xlink:title=" ">
<polygon fill="white" stroke="black" points="424,-203 424,-233 537,-233 537,-203 424,-203"/>
<text text-anchor="start" x="432" y="-221" font-family="Helvetica,sans-Serif" font-size="10.00">test_cmp_ent_write</text>
<text text-anchor="middle" x="480.5" y="-210" font-family="Helvetica,sans-Serif" font-size="10.00">_cmp_pars</text>
</a>
</g>
</g>
<!-- Node2&#45;&gt;Node17 -->
<g id="edge33" class="edge">
<title>Node2&#45;&gt;Node17</title>
<path fill="none" stroke="midnightblue" d="M761.74,-213.44C691.93,-214.57 596.6,-216.13 537.07,-217.1"/>
<polygon fill="midnightblue" stroke="midnightblue" points="761.91,-216.93 771.85,-213.27 761.79,-209.94 761.91,-216.93"/>
</g>
<!-- Node18 -->
<g id="node18" class="node">
<title>Node18</title>
<g id="a_node18"><a xlink:href="cmp__entity_8c_a553b4a765f1cfcd37f82a818db2cf2b9.html#a553b4a765f1cfcd37f82a818db2cf2b9" target="_top" xlink:title="write the compression parameters from a compression configuration into the compression entity header">
<polygon fill="white" stroke="black" points="595,-164.5 595,-183.5 736,-183.5 736,-164.5 595,-164.5"/>
<text text-anchor="middle" x="665.5" y="-171.5" font-family="Helvetica,sans-Serif" font-size="10.00">cmp_ent_write_cmp_pars</text>
</a>
</g>
</g>
<!-- Node2&#45;&gt;Node18 -->
<g id="edge17" class="edge">
<title>Node2&#45;&gt;Node18</title>
<path fill="none" stroke="midnightblue" d="M793.59,-200.32C767.57,-194.93 737.07,-188.61 712.47,-183.52"/>
<polygon fill="midnightblue" stroke="midnightblue" points="793.19,-203.81 803.7,-202.41 794.61,-196.96 793.19,-203.81"/>
</g>
<!-- Node20 -->
<g id="node20" class="node">
<title>Node20</title>
<g id="a_node20"><a xlink:href="test__cmp__entity_8c_a13c81359af8798146608574ab0e113fb.html#a13c81359af8798146608574ab0e113fb" target="_top" xlink:title=" ">
<polygon fill="white" stroke="black" points="218,-80.5 218,-99.5 330,-99.5 330,-80.5 218,-80.5"/>
<text text-anchor="middle" x="274" y="-87.5" font-family="Helvetica,sans-Serif" font-size="10.00">test_cmp_ent_build</text>
</a>
</g>
</g>
<!-- Node2&#45;&gt;Node20 -->
<g id="edge30" class="edge">
<title>Node2&#45;&gt;Node20</title>
<path fill="none" stroke="midnightblue" d="M835.8,-194.25C820.13,-174.64 794.2,-142.12 772,-114 755.92,-93.62 759.34,-79.37 736,-68 585.82,5.17 374.47,-55.44 301.21,-80.45"/>
<polygon fill="midnightblue" stroke="midnightblue" points="833.25,-196.66 842.22,-202.28 838.71,-192.29 833.25,-196.66"/>
</g>
<!-- Node23 -->
<g id="node23" class="node">
<title>Node23</title>
<g id="a_node23"><a xlink:href="test__cmp__entity_8c_a8f7fd6d8b939382555507ecf2e74ec79.html#a8f7fd6d8b939382555507ecf2e74ec79" target="_top" xlink:title=" ">
<polygon fill="white" stroke="black" points="424,-77 424,-107 537,-107 537,-77 424,-77"/>
<text text-anchor="start" x="432" y="-95" font-family="Helvetica,sans-Serif" font-size="10.00">test_cmp_ent_write</text>
<text text-anchor="middle" x="480.5" y="-84" font-family="Helvetica,sans-Serif" font-size="10.00">_rdcu_cmp_pars</text>
</a>
</g>
</g>
<!-- Node2&#45;&gt;Node23 -->
<g id="edge34" class="edge">
<title>Node2&#45;&gt;Node23</title>
<path fill="none" stroke="midnightblue" d="M824.58,-197.24C801.94,-184.61 767.61,-166.65 736,-155 699.91,-141.7 600.56,-118.5 537.2,-104.27"/>
<polygon fill="midnightblue" stroke="midnightblue" points="823.1,-200.43 833.52,-202.3 826.54,-194.33 823.1,-200.43"/>
</g>
<!-- Node24 -->
<g id="node24" class="node">
<title>Node24</title>
<g id="a_node24"><a xlink:href="cmp__entity_8c_aac25fce5ba205dafed1781d24250c7b3.html#aac25fce5ba205dafed1781d24250c7b3" target="_top" xlink:title="write the parameters from the RDCU decompression information structure in the compression entity head...">
<polygon fill="white" stroke="black" points="608,-77 608,-107 723,-107 723,-77 608,-77"/>
<text text-anchor="start" x="616" y="-95" font-family="Helvetica,sans-Serif" font-size="10.00">cmp_ent_write_rdcu</text>
<text text-anchor="middle" x="665.5" y="-84" font-family="Helvetica,sans-Serif" font-size="10.00">_cmp_pars</text>
</a>
</g>
</g>
<!-- Node2&#45;&gt;Node24 -->
<g id="edge28" class="edge">
<title>Node2&#45;&gt;Node24</title>
<path fill="none" stroke="midnightblue" d="M832.27,-195.57C810.72,-176.2 772.68,-143.88 736,-122 726.75,-116.48 716.29,-111.42 706.35,-107.09"/>
<polygon fill="midnightblue" stroke="midnightblue" points="829.93,-198.17 839.68,-202.31 834.64,-193 829.93,-198.17"/>
</g>
<!-- Node25 -->
<g id="node25" class="node">
<title>Node25</title>
<g id="a_node25"><a xlink:href="test__cmp__entity_8c_a991729c77482729377539ccc0c96f4b7.html#a991729c77482729377539ccc0c96f4b7" target="_top" xlink:title=" ">
<polygon fill="white" stroke="black" points="606,-404.5 606,-423.5 725,-423.5 725,-404.5 606,-404.5"/>
<text text-anchor="middle" x="665.5" y="-411.5" font-family="Helvetica,sans-Serif" font-size="10.00">test_cmp_ent_create</text>
</a>
</g>
</g>
<!-- Node2&#45;&gt;Node25 -->
<g id="edge31" class="edge">
<title>Node2&#45;&gt;Node25</title>
<path fill="none" stroke="midnightblue" d="M843.4,-231.45C829.62,-269.01 794.19,-351.65 736,-395 730.78,-398.89 724.82,-401.98 718.63,-404.44"/>
<polygon fill="midnightblue" stroke="midnightblue" points="846.8,-232.32 846.84,-221.72 840.2,-229.98 846.8,-232.32"/>
</g>
<!-- Node26 -->
<g id="node26" class="node">
<title>Node26</title>
<g id="a_node26"><a xlink:href="test__cmp__entity_8c_a41cc3aa5c0bcd8ac649017d31689e8ba.html#a41cc3aa5c0bcd8ac649017d31689e8ba" target="_top" xlink:title=" ">
<polygon fill="white" stroke="black" points="600.5,-355 600.5,-385 730.5,-385 730.5,-355 600.5,-355"/>
<text text-anchor="start" x="608.5" y="-373" font-family="Helvetica,sans-Serif" font-size="10.00">test_cmp_ent_get_cmp</text>
<text text-anchor="middle" x="665.5" y="-362" font-family="Helvetica,sans-Serif" font-size="10.00">_data_size</text>
</a>
</g>
</g>
<!-- Node2&#45;&gt;Node26 -->
<g id="edge32" class="edge">
<title>Node2&#45;&gt;Node26</title>
<path fill="none" stroke="midnightblue" d="M839,-230.02C820.88,-258.32 782.11,-313.2 736,-345 730.51,-348.79 724.38,-352.06 718.11,-354.89"/>
<polygon fill="midnightblue" stroke="midnightblue" points="841.99,-231.85 844.34,-221.52 836.06,-228.13 841.99,-231.85"/>
</g>
<!-- Node4 -->
<g id="node4" class="node">
<title>Node4</title>
<g id="a_node4"><a xlink:href="test__cmp__entity_8c_a9ff6c40a6acfa4a24a448db1471c524a.html#a9ff6c40a6acfa4a24a448db1471c524a" target="_top" xlink:title=" ">
<polygon fill="white" stroke="black" points="402,-377.5 402,-396.5 559,-396.5 559,-377.5 402,-377.5"/>
<text text-anchor="middle" x="480.5" y="-384.5" font-family="Helvetica,sans-Serif" font-size="10.00">test_cmp_ent_get_cmp_data</text>
</a>
</g>
</g>
<!-- Node3&#45;&gt;Node4 -->
<g id="edge3" class="edge">
<title>Node3&#45;&gt;Node4</title>
<path fill="none" stroke="midnightblue" d="M614.72,-338.56C607.99,-340.76 601.25,-343.25 595,-346 577.84,-353.55 576.31,-360.79 559,-368 549.92,-371.78 539.91,-374.93 530.2,-377.5"/>
<polygon fill="midnightblue" stroke="midnightblue" points="616,-341.82 624.52,-335.52 613.93,-335.14 616,-341.82"/>
</g>
<!-- Node6 -->
<g id="node6" class="node">
<title>Node6</title>
<g id="a_node6"><a xlink:href="cmp__entity_8c_acb86c5ed513a665da74d6cfbc5db3874.html#acb86c5ed513a665da74d6cfbc5db3874" target="_top" xlink:title="print the entire compressed entity header plus data">
<polygon fill="white" stroke="black" points="437.5,-339.5 437.5,-358.5 523.5,-358.5 523.5,-339.5 437.5,-339.5"/>
<text text-anchor="middle" x="480.5" y="-346.5" font-family="Helvetica,sans-Serif" font-size="10.00">cmp_ent_print</text>
</a>
</g>
</g>
<!-- Node5&#45;&gt;Node6 -->
<g id="edge5" class="edge">
<title>Node5&#45;&gt;Node6</title>
<path fill="none" stroke="midnightblue" d="M611.83,-300.57C606.06,-302.49 600.35,-304.63 595,-307 577.65,-314.7 576.45,-322.53 559,-330 547.92,-334.74 535.42,-338.46 523.75,-341.29"/>
<polygon fill="midnightblue" stroke="midnightblue" points="613.01,-303.87 621.53,-297.57 610.94,-297.18 613.01,-303.87"/>
</g>
<!-- Node7 -->
<g id="node7" class="node">
<title>Node7</title>
<g id="a_node7"><a xlink:href="test__cmp__entity_8c_a28c5d64d3c7c61100798fa39100d0f30.html#a28c5d64d3c7c61100798fa39100d0f30" target="_top" xlink:title=" ">
<polygon fill="white" stroke="black" points="219,-331.5 219,-350.5 329,-350.5 329,-331.5 219,-331.5"/>
<text text-anchor="middle" x="274" y="-338.5" font-family="Helvetica,sans-Serif" font-size="10.00">test_cmp_ent_print</text>
</a>
</g>
</g>
<!-- Node6&#45;&gt;Node7 -->
<g id="edge6" class="edge">
<title>Node6&#45;&gt;Node7</title>
<path fill="none" stroke="midnightblue" d="M426.84,-346.94C396.82,-345.77 359.26,-344.3 329.01,-343.11"/>
<polygon fill="midnightblue" stroke="midnightblue" points="427,-350.45 437.13,-347.34 427.27,-343.45 427,-350.45"/>
</g>
<!-- Node9 -->
<g id="node9" class="node">
<title>Node9</title>
<g id="a_node9"><a xlink:href="decmp_8h_aefe0fa39fdc295432f5e2e0f91f0b87f.html#aefe0fa39fdc295432f5e2e0f91f0b87f" target="_top" xlink:title="decompress a compression entity">
<polygon fill="white" stroke="black" points="414.5,-301.5 414.5,-320.5 546.5,-320.5 546.5,-301.5 414.5,-301.5"/>
<text text-anchor="middle" x="480.5" y="-308.5" font-family="Helvetica,sans-Serif" font-size="10.00">decompress_cmp_entiy</text>
</a>
</g>
</g>
<!-- Node8&#45;&gt;Node9 -->
<g id="edge8" class="edge">
<title>Node8&#45;&gt;Node9</title>
<path fill="none" stroke="midnightblue" d="M611.83,-262.57C606.06,-264.49 600.35,-266.63 595,-269 577.65,-276.7 576.45,-284.53 559,-292 550.21,-295.76 540.53,-298.88 531.08,-301.42"/>
<polygon fill="midnightblue" stroke="midnightblue" points="613.01,-265.87 621.53,-259.57 610.94,-259.18 613.01,-265.87"/>
</g>
<!-- Node16 -->
<g id="node16" class="node">
<title>Node16</title>
<g id="a_node16"><a xlink:href="test__decmp_8c_a83b6283115165bfb92bf9008dcbdc41d.html#a83b6283115165bfb92bf9008dcbdc41d" target="_top" xlink:title=" ">
<polygon fill="white" stroke="black" points="406,-252 406,-282 555,-282 555,-252 406,-252"/>
<text text-anchor="start" x="414" y="-270" font-family="Helvetica,sans-Serif" font-size="10.00">test_cmp_ent_read_header</text>
<text text-anchor="middle" x="480.5" y="-259" font-family="Helvetica,sans-Serif" font-size="10.00">_error_cases</text>
</a>
</g>
</g>
<!-- Node8&#45;&gt;Node16 -->
<g id="edge15" class="edge">
<title>Node8&#45;&gt;Node16</title>
<path fill="none" stroke="midnightblue" d="M592.63,-256.68C580.37,-257.82 567.6,-259 555.29,-260.15"/>
<polygon fill="midnightblue" stroke="midnightblue" points="593.17,-260.14 602.8,-255.73 592.52,-253.17 593.17,-260.14"/>
</g>
<!-- Node8&#45;&gt;Node17 -->
<g id="edge16" class="edge">
<title>Node8&#45;&gt;Node17</title>
<path fill="none" stroke="midnightblue" d="M600.2,-238.76C579.68,-235.17 557.15,-231.23 537.29,-227.75"/>
<polygon fill="midnightblue" stroke="midnightblue" points="599.64,-242.21 610.09,-240.49 600.84,-235.32 599.64,-242.21"/>
</g>
<!-- Node10 -->
<g id="node10" class="node">
<title>Node10</title>
<g id="a_node10"><a xlink:href="test__cmp__decmp_8c_a50ba26014079160ca77b7d7fa76ce0f4.html#a50ba26014079160ca77b7d7fa76ce0f4" target="_top" xlink:title="compress the given configuration and decompress it afterwards; finally compare the results">
<polygon fill="white" stroke="black" points="195,-240.5 195,-259.5 353,-259.5 353,-240.5 195,-240.5"/>
<text text-anchor="middle" x="274" y="-247.5" font-family="Helvetica,sans-Serif" font-size="10.00">compression_decompression</text>
</a>
</g>
</g>
<!-- Node9&#45;&gt;Node10 -->
<g id="edge9" class="edge">
<title>Node9&#45;&gt;Node10</title>
<path fill="none" stroke="midnightblue" d="M428.16,-299.02C419.4,-296.8 410.42,-294.42 402,-292 367.18,-281.99 327.64,-268.58 302.06,-259.64"/>
<polygon fill="midnightblue" stroke="midnightblue" points="427.36,-302.43 437.91,-301.44 429.05,-295.63 427.36,-302.43"/>
</g>
<!-- Node12 -->
<g id="node12" class="node">
<title>Node12</title>
<g id="a_node12"><a xlink:href="test__decmp_8c_a6e7a5e150e2c829836db3c42cdec2eec.html#a6e7a5e150e2c829836db3c42cdec2eec" target="_top" xlink:title=" ">
<polygon fill="white" stroke="black" points="182,-172.5 182,-191.5 366,-191.5 366,-172.5 182,-172.5"/>
<text text-anchor="middle" x="274" y="-179.5" font-family="Helvetica,sans-Serif" font-size="10.00">test_cmp_decmp_n_imagette_raw</text>
</a>
</g>
</g>
<!-- Node9&#45;&gt;Node12 -->
<g id="edge11" class="edge">
<title>Node9&#45;&gt;Node12</title>
<path fill="none" stroke="midnightblue" d="M410.03,-297.11C407.23,-295.58 404.53,-293.88 402,-292 376.73,-273.22 388.69,-252.82 366,-231 347.37,-213.09 320.91,-199.83 301.32,-191.65"/>
<polygon fill="midnightblue" stroke="midnightblue" points="408.79,-300.39 419.33,-301.45 411.75,-294.05 408.79,-300.39"/>
</g>
<!-- Node13 -->
<g id="node13" class="node">
<title>Node13</title>
<g id="a_node13"><a xlink:href="test__decmp_8c_a1a33e2fcbf484c79dfe661b280386f6b.html#a1a33e2fcbf484c79dfe661b280386f6b" target="_top" xlink:title=" ">
<polygon fill="white" stroke="black" points="201,-130.5 201,-149.5 347,-149.5 347,-130.5 201,-130.5"/>
<text text-anchor="middle" x="274" y="-137.5" font-family="Helvetica,sans-Serif" font-size="10.00">test_cmp_decmp_s_fx_diff</text>
</a>
</g>
</g>
<!-- Node9&#45;&gt;Node13 -->
<g id="edge12" class="edge">
<title>Node9&#45;&gt;Node13</title>
<path fill="none" stroke="midnightblue" d="M406.74,-296.03C405.08,-294.79 403.49,-293.45 402,-292 359.25,-250.58 408.6,-204.57 366,-163 360.17,-157.31 353.14,-152.97 345.61,-149.66"/>
<polygon fill="midnightblue" stroke="midnightblue" points="405.23,-299.22 415.59,-301.48 408.9,-293.26 405.23,-299.22"/>
</g>
<!-- Node14 -->
<g id="node14" class="node">
<title>Node14</title>
<g id="a_node14"><a xlink:href="test__decmp_8c_acfebf2fa7515f5449e0cfa594457b66b.html#acfebf2fa7515f5449e0cfa594457b66b" target="_top" xlink:title=" ">
<polygon fill="white" stroke="black" points="233,-369.5 233,-388.5 315,-388.5 315,-369.5 233,-369.5"/>
<text text-anchor="middle" x="274" y="-376.5" font-family="Helvetica,sans-Serif" font-size="10.00">test_s_fx_diff</text>
</a>
</g>
</g>
<!-- Node9&#45;&gt;Node14 -->
<g id="edge13" class="edge">
<title>Node9&#45;&gt;Node14</title>
<path fill="none" stroke="midnightblue" d="M416.75,-323.74C411.65,-325.56 406.67,-327.64 402,-330 383.41,-339.39 384.75,-350.94 366,-360 350.31,-367.59 331.66,-372.15 315.34,-374.9"/>
<polygon fill="midnightblue" stroke="midnightblue" points="418.21,-326.94 426.64,-320.53 416.05,-320.29 418.21,-326.94"/>
</g>
<!-- Node15 -->
<g id="node15" class="node">
<title>Node15</title>
<g id="a_node15"><a xlink:href="test__decmp_8c_a953eeaad914985c0816dde26d47ffef0.html#a953eeaad914985c0816dde26d47ffef0" target="_top" xlink:title=" ">
<polygon fill="white" stroke="black" points="225.5,-293.5 225.5,-312.5 322.5,-312.5 322.5,-293.5 225.5,-293.5"/>
<text text-anchor="middle" x="274" y="-300.5" font-family="Helvetica,sans-Serif" font-size="10.00">test_s_fx_model</text>
</a>
</g>
</g>
<!-- Node9&#45;&gt;Node15 -->
<g id="edge14" class="edge">
<title>Node9&#45;&gt;Node15</title>
<path fill="none" stroke="midnightblue" d="M403.98,-308.05C376.82,-306.98 346.96,-305.82 322.82,-304.87"/>
<polygon fill="midnightblue" stroke="midnightblue" points="404.1,-311.55 414.23,-308.45 404.38,-304.56 404.1,-311.55"/>
</g>
<!-- Node11 -->
<g id="node11" class="node">
<title>Node11</title>
<g id="a_node11"><a xlink:href="test__cmp__decmp_8c_af3c162694b40683e0aa25c61a49cdafc.html#af3c162694b40683e0aa25c61a49cdafc" target="_top" xlink:title="random compression decompression test">
<polygon fill="white" stroke="black" points="0,-235 0,-265 146,-265 146,-235 0,-235"/>
<text text-anchor="start" x="8" y="-253" font-family="Helvetica,sans-Serif" font-size="10.00">test_random_compression</text>
<text text-anchor="middle" x="73" y="-242" font-family="Helvetica,sans-Serif" font-size="10.00">_decompression</text>
</a>
</g>
</g>
<!-- Node10&#45;&gt;Node11 -->
<g id="edge10" class="edge">
<title>Node10&#45;&gt;Node11</title>
<path fill="none" stroke="midnightblue" d="M184.63,-250C171.72,-250 158.55,-250 146.01,-250"/>
<polygon fill="midnightblue" stroke="midnightblue" points="184.92,-253.5 194.92,-250 184.92,-246.5 184.92,-253.5"/>
</g>
<!-- Node18&#45;&gt;Node17 -->
<g id="edge26" class="edge">
<title>Node18&#45;&gt;Node17</title>
<path fill="none" stroke="midnightblue" d="M614.82,-185.94C590.79,-191.72 561.86,-198.68 537.1,-204.63"/>
<polygon fill="midnightblue" stroke="midnightblue" points="615.89,-189.29 624.79,-183.55 614.25,-182.48 615.89,-189.29"/>
</g>
<!-- Node19 -->
<g id="node19" class="node">
<title>Node19</title>
<g id="a_node19"><a xlink:href="cmp__entity_8c_ac68e6942c21572a9513a9a7577126458.html#ac68e6942c21572a9513a9a7577126458" target="_top" xlink:title="create a compression entity and set the header fields">
<polygon fill="white" stroke="black" points="436.5,-164.5 436.5,-183.5 524.5,-183.5 524.5,-164.5 436.5,-164.5"/>
<text text-anchor="middle" x="480.5" y="-171.5" font-family="Helvetica,sans-Serif" font-size="10.00">cmp_ent_build</text>
</a>
</g>
</g>
<!-- Node18&#45;&gt;Node19 -->
<g id="edge18" class="edge">
<title>Node18&#45;&gt;Node19</title>
<path fill="none" stroke="midnightblue" d="M584.72,-174C564.03,-174 542.52,-174 524.53,-174"/>
<polygon fill="midnightblue" stroke="midnightblue" points="584.79,-177.5 594.79,-174 584.79,-170.5 584.79,-177.5"/>
</g>
<!-- Node22 -->
<g id="node22" class="node">
<title>Node22</title>
<g id="a_node22"><a xlink:href="test__decmp_8c_a2d642d4d482b9ec7eca4568a95f5bdd4.html#a2d642d4d482b9ec7eca4568a95f5bdd4" target="_top" xlink:title=" ">
<polygon fill="white" stroke="black" points="408.5,-126.5 408.5,-145.5 552.5,-145.5 552.5,-126.5 408.5,-126.5"/>
<text text-anchor="middle" x="480.5" y="-133.5" font-family="Helvetica,sans-Serif" font-size="10.00">icu_compress_data_entity</text>
</a>
</g>
</g>
<!-- Node18&#45;&gt;Node22 -->
<g id="edge24" class="edge">
<title>Node18&#45;&gt;Node22</title>
<path fill="none" stroke="midnightblue" d="M608.25,-162.32C582.29,-156.93 551.88,-150.61 527.35,-145.52"/>
<polygon fill="midnightblue" stroke="midnightblue" points="607.82,-165.8 618.32,-164.41 609.24,-158.95 607.82,-165.8"/>
</g>
<!-- Node18&#45;&gt;Node23 -->
<g id="edge27" class="edge">
<title>Node18&#45;&gt;Node23</title>
<path fill="none" stroke="midnightblue" d="M618.22,-161C610.22,-157.93 602.17,-154.27 595,-150 576.35,-138.89 577.76,-127.92 559,-117 552.28,-113.09 544.87,-109.71 537.38,-106.8"/>
<polygon fill="midnightblue" stroke="midnightblue" points="617.3,-164.39 627.9,-164.47 619.66,-157.8 617.3,-164.39"/>
</g>
<!-- Node19&#45;&gt;Node7 -->
<g id="edge23" class="edge">
<title>Node19&#45;&gt;Node7</title>
<path fill="none" stroke="midnightblue" d="M426.83,-179.69C417.65,-182.75 408.85,-187.29 402,-194 359.76,-235.33 409.19,-281.66 366,-322 355.97,-331.36 342.57,-336.6 329.14,-339.43"/>
<polygon fill="midnightblue" stroke="midnightblue" points="427.79,-183.05 436.49,-177.01 425.91,-176.31 427.79,-183.05"/>
</g>
<!-- Node19&#45;&gt;Node10 -->
<g id="edge19" class="edge">
<title>Node19&#45;&gt;Node10</title>
<path fill="none" stroke="midnightblue" d="M427.38,-186.21C418.83,-188.56 410.11,-191.18 402,-194 362.61,-207.66 318.46,-228.43 293.97,-240.47"/>
<polygon fill="midnightblue" stroke="midnightblue" points="428.54,-189.52 437.3,-183.56 426.73,-182.76 428.54,-189.52"/>
</g>
<!-- Node19&#45;&gt;Node12 -->
<g id="edge20" class="edge">
<title>Node19&#45;&gt;Node12</title>
<path fill="none" stroke="midnightblue" d="M425.99,-176.09C407.7,-176.81 386.69,-177.63 366.28,-178.43"/>
<polygon fill="midnightblue" stroke="midnightblue" points="426.28,-179.58 436.13,-175.7 426,-172.59 426.28,-179.58"/>
</g>
<!-- Node19&#45;&gt;Node20 -->
<g id="edge21" class="edge">
<title>Node19&#45;&gt;Node20</title>
<path fill="none" stroke="midnightblue" d="M426.35,-164.86C417.93,-162.32 409.52,-159.1 402,-155 382.67,-144.48 384.85,-132.36 366,-121 350.42,-111.61 331.61,-104.59 315.15,-99.63"/>
<polygon fill="midnightblue" stroke="midnightblue" points="425.64,-168.29 436.2,-167.53 427.47,-161.53 425.64,-168.29"/>
</g>
<!-- Node21 -->
<g id="node21" class="node">
<title>Node21</title>
<g id="a_node21"><a xlink:href="test__cmp__entity_8c_a893444224bcd50fbb99e42e85989b4a6.html#a893444224bcd50fbb99e42e85989b4a6" target="_top" xlink:title=" ">
<polygon fill="white" stroke="black" points="216.5,-17.5 216.5,-36.5 331.5,-36.5 331.5,-17.5 216.5,-17.5"/>
<text text-anchor="middle" x="274" y="-24.5" font-family="Helvetica,sans-Serif" font-size="10.00">test_cmp_ent_parse</text>
</a>
</g>
</g>
<!-- Node19&#45;&gt;Node21 -->
<g id="edge22" class="edge">
<title>Node19&#45;&gt;Node21</title>
<path fill="none" stroke="midnightblue" d="M426.66,-168.02C417.72,-165.14 409.06,-160.99 402,-155 371.02,-128.74 394.06,-100.37 366,-71 350.36,-54.63 327.38,-43.59 308.42,-36.66"/>
<polygon fill="midnightblue" stroke="midnightblue" points="425.83,-171.42 436.4,-170.65 427.66,-164.66 425.83,-171.42"/>
</g>
<!-- Node22&#45;&gt;Node13 -->
<g id="edge25" class="edge">
<title>Node22&#45;&gt;Node13</title>
<path fill="none" stroke="midnightblue" d="M397.9,-137.6C381.08,-137.93 363.48,-138.27 347.02,-138.59"/>
<polygon fill="midnightblue" stroke="midnightblue" points="398.33,-141.09 408.26,-137.39 398.2,-134.09 398.33,-141.09"/>
</g>
<!-- Node24&#45;&gt;Node23 -->
<g id="edge29" class="edge">
<title>Node24&#45;&gt;Node23</title>
<path fill="none" stroke="midnightblue" d="M597.41,-92C577.59,-92 556.12,-92 537.11,-92"/>
<polygon fill="midnightblue" stroke="midnightblue" points="597.6,-95.5 607.6,-92 597.6,-88.5 597.6,-95.5"/>
</g>
<!-- Node28 -->
<g id="node28" class="node">
<title>Node28</title>
<g id="a_node28"><a xlink:href="cmp__entity_8c_a1f4478c4d9938fa6f5631e88298ed816.html#a1f4478c4d9938fa6f5631e88298ed816" target="_top" xlink:title="parse the compressed entity header">
<polygon fill="white" stroke="black" points="620,-0.5 620,-19.5 711,-19.5 711,-0.5 620,-0.5"/>
<text text-anchor="middle" x="665.5" y="-7.5" font-family="Helvetica,sans-Serif" font-size="10.00">cmp_ent_parse</text>
</a>
</g>
</g>
<!-- Node27&#45;&gt;Node28 -->
<g id="edge36" class="edge">
<title>Node27&#45;&gt;Node28</title>
<path fill="none" stroke="midnightblue" d="M784.43,-70.07C780.14,-68.2 775.96,-66.18 772,-64 753.75,-53.97 754.14,-44.23 736,-34 725.55,-28.1 713.4,-23.3 702.21,-19.59"/>
<polygon fill="midnightblue" stroke="midnightblue" points="783.35,-73.41 793.93,-73.93 785.98,-66.93 783.35,-73.41"/>
</g>
<!-- Node28&#45;&gt;Node21 -->
<g id="edge37" class="edge">
<title>Node28&#45;&gt;Node21</title>
<path fill="none" stroke="midnightblue" d="M609.38,-12.41C535.79,-15.62 406.11,-21.28 331.71,-24.52"/>
<polygon fill="midnightblue" stroke="midnightblue" points="609.98,-15.88 619.82,-11.95 609.68,-8.89 609.98,-15.88"/>
</g>
</g>
</svg>
