<?xml version="1.0" encoding="UTF-8" standalone="no"?>
<!DOCTYPE svg PUBLIC "-//W3C//DTD SVG 1.1//EN"
 "http://www.w3.org/Graphics/SVG/1.1/DTD/svg11.dtd">
<!-- Generated by graphviz version 2.43.0 (0)
 -->
<!-- Title: cmp_data_to_big_endian Pages: 1 -->
<svg width="652pt" height="786pt"
 viewBox="0.00 0.00 652.00 786.00" xmlns="http://www.w3.org/2000/svg" xmlns:xlink="http://www.w3.org/1999/xlink">
<g id="graph0" class="graph" transform="scale(1 1) rotate(0) translate(4 782)">
<title>cmp_data_to_big_endian</title>
<polygon fill="white" stroke="transparent" points="-4,4 -4,-782 648,-782 648,4 -4,4"/>
<!-- Node1 -->
<g id="node1" class="node">
<title>Node1</title>
<g id="a_node1"><a xlink:title="change the endianness of the compressed data to big&#45;endian">
<polygon fill="#bfbfbf" stroke="black" points="0,-720.5 0,-739.5 138,-739.5 138,-720.5 0,-720.5"/>
<text text-anchor="middle" x="69" y="-727.5" font-family="Helvetica,sans-Serif" font-size="10.00">cmp_data_to_big_endian</text>
</a>
</g>
</g>
<!-- Node2 -->
<g id="node2" class="node">
<title>Node2</title>
<g id="a_node2"><a xlink:href="cmp__support_8c_afc5d12506a22e9f39f05fdea4fc8cc58.html#afc5d12506a22e9f39f05fdea4fc8cc58" target="_top" xlink:title="calculate the need bytes to hold a bitstream">
<polygon fill="white" stroke="black" points="184.5,-758.5 184.5,-777.5 288.5,-777.5 288.5,-758.5 184.5,-758.5"/>
<text text-anchor="middle" x="236.5" y="-765.5" font-family="Helvetica,sans-Serif" font-size="10.00">cmp_bit_to_4byte</text>
</a>
</g>
</g>
<!-- Node1&#45;&gt;Node2 -->
<g id="edge1" class="edge">
<title>Node1&#45;&gt;Node2</title>
<path fill="none" stroke="midnightblue" d="M111.76,-739.59C133.7,-744.63 160.78,-750.84 184.01,-756.18"/>
<polygon fill="midnightblue" stroke="midnightblue" points="183.51,-759.65 194.04,-758.48 185.07,-752.83 183.51,-759.65"/>
</g>
<!-- Node4 -->
<g id="node4" class="node">
<title>Node4</title>
<g id="a_node4"><a xlink:href="cmp__data__types_8c_ad3eb578679bedba931eb2efd5741a1f9.html#ad3eb578679bedba931eb2efd5741a1f9" target="_top" xlink:title="swap the endianness of uncompressed data form big endian to the cpu endianness (or the other way arou...">
<polygon fill="white" stroke="black" points="174,-361 174,-391 299,-391 299,-361 174,-361"/>
<text text-anchor="start" x="182" y="-379" font-family="Helvetica,sans-Serif" font-size="10.00">cmp_input_big_to_cpu</text>
<text text-anchor="middle" x="236.5" y="-368" font-family="Helvetica,sans-Serif" font-size="10.00">_endianness</text>
</a>
</g>
</g>
<!-- Node1&#45;&gt;Node4 -->
<g id="edge3" class="edge">
<title>Node1&#45;&gt;Node4</title>
<path fill="none" stroke="midnightblue" d="M74.6,-720.16C96.54,-673.23 190.9,-471.4 223.98,-400.63"/>
<polygon fill="midnightblue" stroke="midnightblue" points="227.34,-401.72 228.4,-391.18 221,-398.75 227.34,-401.72"/>
</g>
<!-- Node23 -->
<g id="node23" class="node">
<title>Node23</title>
<g id="a_node23"><a xlink:href="cmp__support_8c_a9197caa657b3d84615c0d323dc96c502.html#a9197caa657b3d84615c0d323dc96c502" target="_top" xlink:title="check if the data product data type is supported by the RDCU compressor">
<polygon fill="white" stroke="black" points="525,-696 525,-726 644,-726 644,-696 525,-696"/>
<text text-anchor="start" x="533" y="-714" font-family="Helvetica,sans-Serif" font-size="10.00">rdcu_supported_data</text>
<text text-anchor="middle" x="584.5" y="-703" font-family="Helvetica,sans-Serif" font-size="10.00">_type_is_used</text>
</a>
</g>
</g>
<!-- Node1&#45;&gt;Node23 -->
<g id="edge28" class="edge">
<title>Node1&#45;&gt;Node23</title>
<path fill="none" stroke="midnightblue" d="M138.19,-727.48C236.34,-723.85 416.43,-717.18 514.84,-713.54"/>
<polygon fill="midnightblue" stroke="midnightblue" points="515.11,-717.03 524.97,-713.17 514.85,-710.04 515.11,-717.03"/>
</g>
<!-- Node3 -->
<g id="node3" class="node">
<title>Node3</title>
<g id="a_node3"><a xlink:href="cmp__support_8c_a9b2702244ffc1d51b81f38b909ce84b4.html#a9b2702244ffc1d51b81f38b909ce84b4" target="_top" xlink:title="calculate the need bytes to hold a bitstream">
<polygon fill="white" stroke="black" points="363,-758.5 363,-777.5 461,-777.5 461,-758.5 363,-758.5"/>
<text text-anchor="middle" x="412" y="-765.5" font-family="Helvetica,sans-Serif" font-size="10.00">cmp_bit_to_byte</text>
</a>
</g>
</g>
<!-- Node2&#45;&gt;Node3 -->
<g id="edge2" class="edge">
<title>Node2&#45;&gt;Node3</title>
<path fill="none" stroke="midnightblue" d="M288.62,-768C308.71,-768 331.89,-768 352.64,-768"/>
<polygon fill="midnightblue" stroke="midnightblue" points="352.92,-771.5 362.92,-768 352.92,-764.5 352.92,-771.5"/>
</g>
<!-- Node5 -->
<g id="node5" class="node">
<title>Node5</title>
<g id="a_node5"><a xlink:href="cmp__data__types_8c_a3cace4e9842b36891df0b0ad489a5475.html#a3cace4e9842b36891df0b0ad489a5475" target="_top" xlink:title=" ">
<polygon fill="white" stroke="black" points="367.5,-442.5 367.5,-461.5 456.5,-461.5 456.5,-442.5 367.5,-442.5"/>
<text text-anchor="middle" x="412" y="-449.5" font-family="Helvetica,sans-Serif" font-size="10.00">be_to_cpus_16</text>
</a>
</g>
</g>
<!-- Node4&#45;&gt;Node5 -->
<g id="edge4" class="edge">
<title>Node4&#45;&gt;Node5</title>
<path fill="none" stroke="midnightblue" d="M259.03,-391.01C278.2,-403.77 307.4,-421.75 335,-433 342.17,-435.92 349.92,-438.49 357.62,-440.7"/>
<polygon fill="midnightblue" stroke="midnightblue" points="356.75,-444.09 367.31,-443.33 358.58,-437.34 356.75,-444.09"/>
</g>
<!-- Node6 -->
<g id="node6" class="node">
<title>Node6</title>
<g id="a_node6"><a xlink:href="cmp__data__types_8c_a4bb5dbbff3bf89cd00d45ecd69edae93.html#a4bb5dbbff3bf89cd00d45ecd69edae93" target="_top" xlink:title=" ">
<polygon fill="white" stroke="black" points="345,-404.5 345,-423.5 479,-423.5 479,-404.5 345,-404.5"/>
<text text-anchor="middle" x="412" y="-411.5" font-family="Helvetica,sans-Serif" font-size="10.00">be_to_cpus_background</text>
</a>
</g>
</g>
<!-- Node4&#45;&gt;Node6 -->
<g id="edge5" class="edge">
<title>Node4&#45;&gt;Node6</title>
<path fill="none" stroke="midnightblue" d="M299.16,-389.5C318.22,-393.68 339.06,-398.24 357.52,-402.29"/>
<polygon fill="midnightblue" stroke="midnightblue" points="357,-405.75 367.51,-404.48 358.49,-398.92 357,-405.75"/>
</g>
<!-- Node7 -->
<g id="node7" class="node">
<title>Node7</title>
<g id="a_node7"><a xlink:href="cmp__data__types_8c_a481b3b5c195ed6a0bd27658afb68e199.html#a481b3b5c195ed6a0bd27658afb68e199" target="_top" xlink:title=" ">
<polygon fill="white" stroke="black" points="364.5,-366.5 364.5,-385.5 459.5,-385.5 459.5,-366.5 364.5,-366.5"/>
<text text-anchor="middle" x="412" y="-373.5" font-family="Helvetica,sans-Serif" font-size="10.00">be_to_cpus_f_fx</text>
</a>
</g>
</g>
<!-- Node4&#45;&gt;Node7 -->
<g id="edge6" class="edge">
<title>Node4&#45;&gt;Node7</title>
<path fill="none" stroke="midnightblue" d="M299.16,-376C317.07,-376 336.54,-376 354.15,-376"/>
<polygon fill="midnightblue" stroke="midnightblue" points="354.27,-379.5 364.27,-376 354.27,-372.5 354.27,-379.5"/>
</g>
<!-- Node8 -->
<g id="node8" class="node">
<title>Node8</title>
<g id="a_node8"><a xlink:href="cmp__data__types_8c_a6c9c6b78c008567749e667d4ef517af6.html#a6c9c6b78c008567749e667d4ef517af6" target="_top" xlink:title=" ">
<polygon fill="white" stroke="black" points="354,-328.5 354,-347.5 470,-347.5 470,-328.5 354,-328.5"/>
<text text-anchor="middle" x="412" y="-335.5" font-family="Helvetica,sans-Serif" font-size="10.00">be_to_cpus_f_fx_efx</text>
</a>
</g>
</g>
<!-- Node4&#45;&gt;Node8 -->
<g id="edge7" class="edge">
<title>Node4&#45;&gt;Node8</title>
<path fill="none" stroke="midnightblue" d="M299.16,-362.5C318.22,-358.32 339.06,-353.76 357.52,-349.71"/>
<polygon fill="midnightblue" stroke="midnightblue" points="358.49,-353.08 367.51,-347.52 357,-346.25 358.49,-353.08"/>
</g>
<!-- Node9 -->
<g id="node9" class="node">
<title>Node9</title>
<g id="a_node9"><a xlink:href="cmp__data__types_8c_a9d11d34d069e6ba9ba8236b89402d428.html#a9d11d34d069e6ba9ba8236b89402d428" target="_top" xlink:title=" ">
<polygon fill="white" stroke="black" points="354,-279 354,-309 470,-309 470,-279 354,-279"/>
<text text-anchor="start" x="362" y="-297" font-family="Helvetica,sans-Serif" font-size="10.00">be_to_cpus_f_fx_efx</text>
<text text-anchor="middle" x="412" y="-286" font-family="Helvetica,sans-Serif" font-size="10.00">_ncob_ecob</text>
</a>
</g>
</g>
<!-- Node4&#45;&gt;Node9 -->
<g id="edge8" class="edge">
<title>Node4&#45;&gt;Node9</title>
<path fill="none" stroke="midnightblue" d="M260.01,-360.99C279.32,-348.58 308.19,-331.08 335,-319 339.99,-316.75 345.24,-314.61 350.55,-312.58"/>
<polygon fill="midnightblue" stroke="midnightblue" points="351.96,-315.79 360.15,-309.07 349.55,-309.22 351.96,-315.79"/>
</g>
<!-- Node10 -->
<g id="node10" class="node">
<title>Node10</title>
<g id="a_node10"><a xlink:href="cmp__data__types_8c_a4f82d8b8427f788ad604c14cadf18ca8.html#a4f82d8b8427f788ad604c14cadf18ca8" target="_top" xlink:title=" ">
<polygon fill="white" stroke="black" points="350,-240.5 350,-259.5 474,-259.5 474,-240.5 350,-240.5"/>
<text text-anchor="middle" x="412" y="-247.5" font-family="Helvetica,sans-Serif" font-size="10.00">be_to_cpus_f_fx_ncob</text>
</a>
</g>
</g>
<!-- Node4&#45;&gt;Node10 -->
<g id="edge9" class="edge">
<title>Node4&#45;&gt;Node10</title>
<path fill="none" stroke="midnightblue" d="M246.88,-361C262.3,-337.61 295.3,-292.71 335,-269 338.68,-266.8 342.6,-264.86 346.65,-263.14"/>
<polygon fill="midnightblue" stroke="midnightblue" points="348.16,-266.31 356.29,-259.52 345.7,-259.76 348.16,-266.31"/>
</g>
<!-- Node11 -->
<g id="node11" class="node">
<title>Node11</title>
<g id="a_node11"><a xlink:href="cmp__data__types_8c_ae9302203cd6ebebbf199e488d8e42039.html#ae9302203cd6ebebbf199e488d8e42039" target="_top" xlink:title=" ">
<polygon fill="white" stroke="black" points="364.5,-480.5 364.5,-499.5 459.5,-499.5 459.5,-480.5 364.5,-480.5"/>
<text text-anchor="middle" x="412" y="-487.5" font-family="Helvetica,sans-Serif" font-size="10.00">be_to_cpus_l_fx</text>
</a>
</g>
</g>
<!-- Node4&#45;&gt;Node11 -->
<g id="edge10" class="edge">
<title>Node4&#45;&gt;Node11</title>
<path fill="none" stroke="midnightblue" d="M248.63,-391.02C265.11,-412.16 298.05,-450.4 335,-471 340.99,-474.34 347.56,-477.1 354.26,-479.38"/>
<polygon fill="midnightblue" stroke="midnightblue" points="353.52,-482.81 364.11,-482.39 355.57,-476.12 353.52,-482.81"/>
</g>
<!-- Node13 -->
<g id="node13" class="node">
<title>Node13</title>
<g id="a_node13"><a xlink:href="cmp__data__types_8c_a400efed1c7b48988fba6974f6d2fc332.html#a400efed1c7b48988fba6974f6d2fc332" target="_top" xlink:title=" ">
<polygon fill="white" stroke="black" points="354,-202.5 354,-221.5 470,-221.5 470,-202.5 354,-202.5"/>
<text text-anchor="middle" x="412" y="-209.5" font-family="Helvetica,sans-Serif" font-size="10.00">be_to_cpus_l_fx_efx</text>
</a>
</g>
</g>
<!-- Node4&#45;&gt;Node13 -->
<g id="edge12" class="edge">
<title>Node4&#45;&gt;Node13</title>
<path fill="none" stroke="midnightblue" d="M243.41,-360.55C255.67,-330.65 286.83,-264.81 335,-231 337.93,-228.95 341.06,-227.11 344.31,-225.48"/>
<polygon fill="midnightblue" stroke="midnightblue" points="345.99,-228.57 353.77,-221.37 343.2,-222.14 345.99,-228.57"/>
</g>
<!-- Node14 -->
<g id="node14" class="node">
<title>Node14</title>
<g id="a_node14"><a xlink:href="cmp__data__types_8c_a20b4c948454832556538ff6335904ef5.html#a20b4c948454832556538ff6335904ef5" target="_top" xlink:title=" ">
<polygon fill="white" stroke="black" points="354,-153 354,-183 470,-183 470,-153 354,-153"/>
<text text-anchor="start" x="362" y="-171" font-family="Helvetica,sans-Serif" font-size="10.00">be_to_cpus_l_fx_efx</text>
<text text-anchor="middle" x="412" y="-160" font-family="Helvetica,sans-Serif" font-size="10.00">_ncob_ecob</text>
</a>
</g>
</g>
<!-- Node4&#45;&gt;Node14 -->
<g id="edge14" class="edge">
<title>Node4&#45;&gt;Node14</title>
<path fill="none" stroke="midnightblue" d="M241.33,-361C250.96,-326.26 279.5,-239.7 335,-193 338.02,-190.46 341.31,-188.17 344.77,-186.11"/>
<polygon fill="midnightblue" stroke="midnightblue" points="346.42,-189.2 353.66,-181.47 343.18,-183 346.42,-189.2"/>
</g>
<!-- Node15 -->
<g id="node15" class="node">
<title>Node15</title>
<g id="a_node15"><a xlink:href="cmp__data__types_8c_a0e82f77b5e2ff7dc6d88f30feaa3048c.html#a0e82f77b5e2ff7dc6d88f30feaa3048c" target="_top" xlink:title=" ">
<polygon fill="white" stroke="black" points="350.5,-114.5 350.5,-133.5 473.5,-133.5 473.5,-114.5 350.5,-114.5"/>
<text text-anchor="middle" x="412" y="-121.5" font-family="Helvetica,sans-Serif" font-size="10.00">be_to_cpus_l_fx_ncob</text>
</a>
</g>
</g>
<!-- Node4&#45;&gt;Node15 -->
<g id="edge16" class="edge">
<title>Node4&#45;&gt;Node15</title>
<path fill="none" stroke="midnightblue" d="M239.2,-360.77C244.69,-319.1 265.81,-202.43 335,-143 336.99,-141.29 339.1,-139.74 341.32,-138.32"/>
<polygon fill="midnightblue" stroke="midnightblue" points="343.15,-141.31 350.3,-133.49 339.84,-135.14 343.15,-141.31"/>
</g>
<!-- Node16 -->
<g id="node16" class="node">
<title>Node16</title>
<g id="a_node16"><a xlink:href="cmp__data__types_8c_a18d9e97ef0ef8d9dc4f66cb6e90d42b4.html#a18d9e97ef0ef8d9dc4f66cb6e90d42b4" target="_top" xlink:title=" ">
<polygon fill="white" stroke="black" points="360,-76.5 360,-95.5 464,-95.5 464,-76.5 360,-76.5"/>
<text text-anchor="middle" x="412" y="-83.5" font-family="Helvetica,sans-Serif" font-size="10.00">be_to_cpus_offset</text>
</a>
</g>
</g>
<!-- Node4&#45;&gt;Node16 -->
<g id="edge18" class="edge">
<title>Node4&#45;&gt;Node16</title>
<path fill="none" stroke="midnightblue" d="M238.2,-360.71C241.18,-314.63 256.56,-175.93 335,-105 339.46,-100.97 344.64,-97.76 350.17,-95.22"/>
<polygon fill="midnightblue" stroke="midnightblue" points="351.66,-98.39 359.73,-91.53 349.14,-91.86 351.66,-98.39"/>
</g>
<!-- Node17 -->
<g id="node17" class="node">
<title>Node17</title>
<g id="a_node17"><a xlink:href="cmp__data__types_8c_acb62fce2d42d1aea4985b6ef8102eeff.html#acb62fce2d42d1aea4985b6ef8102eeff" target="_top" xlink:title=" ">
<polygon fill="white" stroke="black" points="363.5,-38.5 363.5,-57.5 460.5,-57.5 460.5,-38.5 363.5,-38.5"/>
<text text-anchor="middle" x="412" y="-45.5" font-family="Helvetica,sans-Serif" font-size="10.00">be_to_cpus_s_fx</text>
</a>
</g>
</g>
<!-- Node4&#45;&gt;Node17 -->
<g id="edge19" class="edge">
<title>Node4&#45;&gt;Node17</title>
<path fill="none" stroke="midnightblue" d="M237.43,-360.79C238.06,-310.75 247.13,-149.69 335,-67 340.38,-61.94 346.9,-58.17 353.83,-55.37"/>
<polygon fill="midnightblue" stroke="midnightblue" points="355.1,-58.63 363.47,-52.13 352.87,-52 355.1,-58.63"/>
</g>
<!-- Node18 -->
<g id="node18" class="node">
<title>Node18</title>
<g id="a_node18"><a xlink:href="cmp__data__types_8c_a1165a849fe375d4960616f9fc137f518.html#a1165a849fe375d4960616f9fc137f518" target="_top" xlink:title=" ">
<polygon fill="white" stroke="black" points="353,-0.5 353,-19.5 471,-19.5 471,-0.5 353,-0.5"/>
<text text-anchor="middle" x="412" y="-7.5" font-family="Helvetica,sans-Serif" font-size="10.00">be_to_cpus_s_fx_efx</text>
</a>
</g>
</g>
<!-- Node4&#45;&gt;Node18 -->
<g id="edge20" class="edge">
<title>Node4&#45;&gt;Node18</title>
<path fill="none" stroke="midnightblue" d="M236.82,-360.88C235.27,-307.16 237.6,-123.62 335,-29 337.62,-26.46 340.52,-24.24 343.62,-22.31"/>
<polygon fill="midnightblue" stroke="midnightblue" points="345.51,-25.27 352.8,-17.58 342.3,-19.05 345.51,-25.27"/>
</g>
<!-- Node19 -->
<g id="node19" class="node">
<title>Node19</title>
<g id="a_node19"><a xlink:href="cmp__data__types_8c_ac3c2a554642922567918b638bad3407d.html#ac3c2a554642922567918b638bad3407d" target="_top" xlink:title=" ">
<polygon fill="white" stroke="black" points="353,-633 353,-663 471,-663 471,-633 353,-633"/>
<text text-anchor="start" x="361" y="-651" font-family="Helvetica,sans-Serif" font-size="10.00">be_to_cpus_s_fx_efx</text>
<text text-anchor="middle" x="412" y="-640" font-family="Helvetica,sans-Serif" font-size="10.00">_ncob_ecob</text>
</a>
</g>
</g>
<!-- Node4&#45;&gt;Node19 -->
<g id="edge21" class="edge">
<title>Node4&#45;&gt;Node19</title>
<path fill="none" stroke="midnightblue" d="M239.07,-391.23C244.28,-434.09 264.92,-556.88 335,-623 337.74,-625.58 340.75,-627.9 343.94,-629.98"/>
<polygon fill="midnightblue" stroke="midnightblue" points="342.33,-633.08 352.76,-634.93 345.76,-626.98 342.33,-633.08"/>
</g>
<!-- Node20 -->
<g id="node20" class="node">
<title>Node20</title>
<g id="a_node20"><a xlink:href="cmp__data__types_8c_ab3ea383ccffc6bde1cb89bf8a67d9680.html#ab3ea383ccffc6bde1cb89bf8a67d9680" target="_top" xlink:title=" ">
<polygon fill="white" stroke="black" points="349.5,-594.5 349.5,-613.5 474.5,-613.5 474.5,-594.5 349.5,-594.5"/>
<text text-anchor="middle" x="412" y="-601.5" font-family="Helvetica,sans-Serif" font-size="10.00">be_to_cpus_s_fx_ncob</text>
</a>
</g>
</g>
<!-- Node4&#45;&gt;Node20 -->
<g id="edge22" class="edge">
<title>Node4&#45;&gt;Node20</title>
<path fill="none" stroke="midnightblue" d="M240.39,-391.05C248.4,-428.64 274.41,-527.35 335,-580 339.8,-584.17 345.32,-587.62 351.15,-590.46"/>
<polygon fill="midnightblue" stroke="midnightblue" points="349.95,-593.75 360.52,-594.46 352.7,-587.32 349.95,-593.75"/>
</g>
<!-- Node21 -->
<g id="node21" class="node">
<title>Node21</title>
<g id="a_node21"><a xlink:href="cmp__data__types_8c_aea8cc68320de3ef12cafa62c01322aee.html#aea8cc68320de3ef12cafa62c01322aee" target="_top" xlink:title=" ">
<polygon fill="white" stroke="black" points="351,-518.5 351,-537.5 473,-537.5 473,-518.5 351,-518.5"/>
<text text-anchor="middle" x="412" y="-525.5" font-family="Helvetica,sans-Serif" font-size="10.00">be_to_cpus_smearing</text>
</a>
</g>
</g>
<!-- Node4&#45;&gt;Node21 -->
<g id="edge23" class="edge">
<title>Node4&#45;&gt;Node21</title>
<path fill="none" stroke="midnightblue" d="M244.18,-391.03C257.34,-418.86 289.37,-478.34 335,-509 337.97,-510.99 341.13,-512.78 344.41,-514.38"/>
<polygon fill="midnightblue" stroke="midnightblue" points="343.35,-517.73 353.92,-518.4 346.08,-511.28 343.35,-517.73"/>
</g>
<!-- Node22 -->
<g id="node22" class="node">
<title>Node22</title>
<g id="a_node22"><a xlink:href="cmp__data__types_8c_a8302ce6ba8de68ad01b50c592c5a2178.html#a8302ce6ba8de68ad01b50c592c5a2178" target="_top" xlink:title="calculates the number of samples for a given data size for the different compression modes">
<polygon fill="white" stroke="black" points="335,-682.5 335,-701.5 489,-701.5 489,-682.5 335,-682.5"/>
<text text-anchor="middle" x="412" y="-689.5" font-family="Helvetica,sans-Serif" font-size="10.00">cmp_input_size_to_samples</text>
</a>
</g>
</g>
<!-- Node4&#45;&gt;Node22 -->
<g id="edge24" class="edge">
<title>Node4&#45;&gt;Node22</title>
<path fill="none" stroke="midnightblue" d="M237.66,-391.31C239.02,-440.22 250.17,-594.08 335,-673 336.53,-674.42 338.15,-675.75 339.85,-676.97"/>
<polygon fill="midnightblue" stroke="midnightblue" points="338.48,-680.23 348.86,-682.34 342.06,-674.22 338.48,-680.23"/>
</g>
<!-- Node4&#45;&gt;Node23 -->
<g id="edge27" class="edge">
<title>Node4&#45;&gt;Node23</title>
<path fill="none" stroke="midnightblue" d="M241.63,-391.05C251.64,-424.6 280.48,-505.79 335,-547 391.24,-589.51 436.71,-537.72 489,-585 524.35,-616.96 492.35,-651.28 525,-686 526.36,-687.45 527.82,-688.82 529.36,-690.11"/>
<polygon fill="midnightblue" stroke="midnightblue" points="527.41,-693.02 537.59,-695.96 531.46,-687.31 527.41,-693.02"/>
</g>
<!-- Node12 -->
<g id="node12" class="node">
<title>Node12</title>
<g id="a_node12"><a xlink:href="cmp__data__types_8c_a5416891baf024a201286ed2d6644ac8c.html#a5416891baf024a201286ed2d6644ac8c" target="_top" xlink:title=" ">
<polygon fill="white" stroke="black" points="545.5,-180.5 545.5,-199.5 623.5,-199.5 623.5,-180.5 545.5,-180.5"/>
<text text-anchor="middle" x="584.5" y="-187.5" font-family="Helvetica,sans-Serif" font-size="10.00">be24_to_cpu</text>
</a>
</g>
</g>
<!-- Node11&#45;&gt;Node12 -->
<g id="edge11" class="edge">
<title>Node11&#45;&gt;Node12</title>
<path fill="none" stroke="midnightblue" d="M459.64,-485.98C470.33,-483.12 480.91,-478.47 489,-471 566.86,-399.09 580.61,-261.05 583,-209.79"/>
<polygon fill="midnightblue" stroke="midnightblue" points="586.51,-209.84 583.38,-199.72 579.51,-209.58 586.51,-209.84"/>
</g>
<!-- Node13&#45;&gt;Node12 -->
<g id="edge13" class="edge">
<title>Node13&#45;&gt;Node12</title>
<path fill="none" stroke="midnightblue" d="M470.25,-204.61C491.43,-201.88 515.22,-198.81 535.5,-196.19"/>
<polygon fill="midnightblue" stroke="midnightblue" points="535.98,-199.66 545.45,-194.91 535.08,-192.72 535.98,-199.66"/>
</g>
<!-- Node14&#45;&gt;Node12 -->
<g id="edge15" class="edge">
<title>Node14&#45;&gt;Node12</title>
<path fill="none" stroke="midnightblue" d="M470.25,-175.39C491.43,-178.12 515.22,-181.19 535.5,-183.81"/>
<polygon fill="midnightblue" stroke="midnightblue" points="535.08,-187.28 545.45,-185.09 535.98,-180.34 535.08,-187.28"/>
</g>
<!-- Node15&#45;&gt;Node12 -->
<g id="edge17" class="edge">
<title>Node15&#45;&gt;Node12</title>
<path fill="none" stroke="midnightblue" d="M458.1,-133.56C468.38,-136.21 479.17,-139.38 489,-143 513.27,-151.95 539.5,-165.32 558.16,-175.51"/>
<polygon fill="midnightblue" stroke="midnightblue" points="556.48,-178.58 566.92,-180.37 559.87,-172.46 556.48,-178.58"/>
</g>
<!-- Node22&#45;&gt;Node23 -->
<g id="edge25" class="edge">
<title>Node22&#45;&gt;Node23</title>
<path fill="none" stroke="midnightblue" d="M489.27,-700.5C497.78,-701.45 506.41,-702.41 514.82,-703.35"/>
<polygon fill="midnightblue" stroke="midnightblue" points="514.61,-706.85 524.94,-704.47 515.39,-699.89 514.61,-706.85"/>
</g>
<!-- Node24 -->
<g id="node24" class="node">
<title>Node24</title>
<g id="a_node24"><a xlink:href="cmp__data__types_8c_a0be8705b1dcc45f605abd8400dd5230b.html#a0be8705b1dcc45f605abd8400dd5230b" target="_top" xlink:title="calculate the size of a sample for the different compression data type">
<polygon fill="white" stroke="black" points="532.5,-657.5 532.5,-676.5 636.5,-676.5 636.5,-657.5 532.5,-657.5"/>
<text text-anchor="middle" x="584.5" y="-664.5" font-family="Helvetica,sans-Serif" font-size="10.00">size_of_a_sample</text>
</a>
</g>
</g>
<!-- Node22&#45;&gt;Node24 -->
<g id="edge26" class="edge">
<title>Node22&#45;&gt;Node24</title>
<path fill="none" stroke="midnightblue" d="M477.95,-682.48C492.41,-680.36 507.7,-678.11 522.02,-676.01"/>
<polygon fill="midnightblue" stroke="midnightblue" points="522.86,-679.43 532.25,-674.51 521.85,-672.5 522.86,-679.43"/>
</g>
</g>
</svg>
