<?xml version="1.0" encoding="UTF-8" standalone="no"?>
<!DOCTYPE svg PUBLIC "-//W3C//DTD SVG 1.1//EN"
 "http://www.w3.org/Graphics/SVG/1.1/DTD/svg11.dtd">
<!-- Generated by graphviz version 2.43.0 (0)
 -->
<!-- Title: rdcu_syncing Pages: 1 -->
<svg width="761pt" height="389pt"
 viewBox="0.00 0.00 761.00 388.69" xmlns="http://www.w3.org/2000/svg" xmlns:xlink="http://www.w3.org/1999/xlink">
<g id="graph0" class="graph" transform="scale(1 1) rotate(0) translate(4 384.69)">
<title>rdcu_syncing</title>
<polygon fill="white" stroke="transparent" points="-4,4 -4,-384.69 757,-384.69 757,4 -4,4"/>
<!-- Node1 -->
<g id="node1" class="node">
<title>Node1</title>
<g id="a_node1"><a xlink:title="save repeating 3 lines of code...">
<polygon fill="#bfbfbf" stroke="black" points="673,-171.5 673,-190.5 753,-190.5 753,-171.5 673,-171.5"/>
<text text-anchor="middle" x="713" y="-178.5" font-family="Helvetica,sans-Serif" font-size="10.00">rdcu_syncing</text>
</a>
</g>
</g>
<!-- Node2 -->
<g id="node2" class="node">
<title>Node2</title>
<g id="a_node2"><a xlink:href="cmp__rdcu_8c_ab69cf44ac326e0cebdef002e8f2ea2cb.html#ab69cf44ac326e0cebdef002e8f2ea2cb" target="_top" xlink:title="compressing data with the help of the RDCU hardware compressor; read data from the last compression b...">
<polygon fill="white" stroke="black" points="0,-261 0,-291 117,-291 117,-261 0,-261"/>
<text text-anchor="start" x="8" y="-279" font-family="Helvetica,sans-Serif" font-size="10.00">rdcu_compress_data</text>
<text text-anchor="middle" x="58.5" y="-268" font-family="Helvetica,sans-Serif" font-size="10.00">_parallel</text>
</a>
</g>
</g>
<!-- Node1&#45;&gt;Node2 -->
<g id="edge1" class="edge">
<title>Node1&#45;&gt;Node2</title>
<path fill="none" stroke="midnightblue" d="M702.76,-199.71C690.84,-221.61 667.91,-257.05 637,-274 464.26,-368.74 216.46,-319.22 110.59,-291.08"/>
<polygon fill="midnightblue" stroke="midnightblue" points="705.93,-201.19 707.45,-190.71 699.72,-197.96 705.93,-201.19"/>
</g>
<!-- Node3 -->
<g id="node3" class="node">
<title>Node3</title>
<g id="a_node3"><a xlink:href="cmp__rdcu_8c_af59f75c76a057d49a54b54800dc59556.html#af59f75c76a057d49a54b54800dc59556" target="_top" xlink:title="inject a SRAM edac multi bit error into the RDCU SRAM">
<polygon fill="white" stroke="black" points="153,-76.5 153,-95.5 280,-95.5 280,-76.5 153,-76.5"/>
<text text-anchor="middle" x="216.5" y="-83.5" font-family="Helvetica,sans-Serif" font-size="10.00">rdcu_inject_edac_error</text>
</a>
</g>
</g>
<!-- Node1&#45;&gt;Node3 -->
<g id="edge2" class="edge">
<title>Node1&#45;&gt;Node3</title>
<path fill="none" stroke="midnightblue" d="M700.32,-162.91C687.33,-144.58 664.53,-117.25 637,-105 574.97,-77.4 381.15,-79.9 280.14,-83.32"/>
<polygon fill="midnightblue" stroke="midnightblue" points="697.51,-165.01 706.03,-171.31 703.3,-161.07 697.51,-165.01"/>
</g>
<!-- Node4 -->
<g id="node4" class="node">
<title>Node4</title>
<g id="a_node4"><a xlink:href="cmp__rdcu_8h_a0ef52214c3b0da6e9fbc56d7fa05c971.html#a0ef52214c3b0da6e9fbc56d7fa05c971" target="_top" xlink:title="interrupt a data compression">
<polygon fill="white" stroke="black" points="485,-0.5 485,-19.5 637,-19.5 637,-0.5 485,-0.5"/>
<text text-anchor="middle" x="561" y="-7.5" font-family="Helvetica,sans-Serif" font-size="10.00">rdcu_interrupt_compression</text>
</a>
</g>
</g>
<!-- Node1&#45;&gt;Node4 -->
<g id="edge3" class="edge">
<title>Node1&#45;&gt;Node4</title>
<path fill="none" stroke="midnightblue" d="M707.24,-161.36C698.61,-129.92 677.43,-68.35 637,-34 629.6,-27.71 620.54,-23.07 611.3,-19.64"/>
<polygon fill="midnightblue" stroke="midnightblue" points="703.87,-162.33 709.78,-171.13 710.65,-160.57 703.87,-162.33"/>
</g>
<!-- Node5 -->
<g id="node5" class="node">
<title>Node5</title>
<g id="a_node5"><a xlink:href="cmp__rdcu_8c_a1b450ab652a1da5f914786ce577458f9.html#a1b450ab652a1da5f914786ce577458f9" target="_top" xlink:title="set up RDCU compression register">
<polygon fill="white" stroke="black" points="320,-27 320,-57 445,-57 445,-27 320,-27"/>
<text text-anchor="start" x="328" y="-45" font-family="Helvetica,sans-Serif" font-size="10.00">rdcu_set_compression</text>
<text text-anchor="middle" x="382.5" y="-34" font-family="Helvetica,sans-Serif" font-size="10.00">_register</text>
</a>
</g>
</g>
<!-- Node1&#45;&gt;Node5 -->
<g id="edge14" class="edge">
<title>Node1&#45;&gt;Node5</title>
<path fill="none" stroke="midnightblue" d="M704.72,-161.78C694.05,-136.51 671.59,-92.87 637,-72 578.85,-36.91 499.48,-33.08 445.13,-35.66"/>
<polygon fill="midnightblue" stroke="midnightblue" points="701.6,-163.4 708.58,-171.37 708.09,-160.79 701.6,-163.4"/>
</g>
<!-- Node7 -->
<g id="node7" class="node">
<title>Node7</title>
<g id="a_node7"><a xlink:href="cmp__rdcu_8h_a468b8082ee6e0134519743425b2194c4.html#a468b8082ee6e0134519743425b2194c4" target="_top" xlink:title="read the compressed bitstream from the RDCU SRAM">
<polygon fill="white" stroke="black" points="489.5,-190.5 489.5,-209.5 632.5,-209.5 632.5,-190.5 489.5,-190.5"/>
<text text-anchor="middle" x="561" y="-197.5" font-family="Helvetica,sans-Serif" font-size="10.00">rdcu_read_cmp_bitstream</text>
</a>
</g>
</g>
<!-- Node1&#45;&gt;Node7 -->
<g id="edge9" class="edge">
<title>Node1&#45;&gt;Node7</title>
<path fill="none" stroke="midnightblue" d="M662.76,-187.24C653.07,-188.46 642.73,-189.77 632.5,-191.07"/>
<polygon fill="midnightblue" stroke="midnightblue" points="663.5,-190.67 672.98,-185.94 662.62,-183.73 663.5,-190.67"/>
</g>
<!-- Node8 -->
<g id="node8" class="node">
<title>Node8</title>
<g id="a_node8"><a xlink:href="cmp__rdcu_8h_afb2e10f8b9d9e433d1b4a6a96f930097.html#afb2e10f8b9d9e433d1b4a6a96f930097" target="_top" xlink:title="read out the metadata of an RDCU compression">
<polygon fill="white" stroke="black" points="503.5,-152.5 503.5,-171.5 618.5,-171.5 618.5,-152.5 503.5,-152.5"/>
<text text-anchor="middle" x="561" y="-159.5" font-family="Helvetica,sans-Serif" font-size="10.00">rdcu_read_cmp_info</text>
</a>
</g>
</g>
<!-- Node1&#45;&gt;Node8 -->
<g id="edge10" class="edge">
<title>Node1&#45;&gt;Node8</title>
<path fill="none" stroke="midnightblue" d="M662.95,-174.79C648.78,-172.99 633.21,-171.02 618.62,-169.17"/>
<polygon fill="midnightblue" stroke="midnightblue" points="662.62,-178.27 672.98,-176.06 663.5,-171.33 662.62,-178.27"/>
</g>
<!-- Node9 -->
<g id="node9" class="node">
<title>Node9</title>
<g id="a_node9"><a xlink:href="cmp__rdcu_8h_ab9573ccdf850671c2f0c6f90d39677e3.html#ab9573ccdf850671c2f0c6f90d39677e3" target="_top" xlink:title="read out the status register of the RDCU compressor">
<polygon fill="white" stroke="black" points="498,-114.5 498,-133.5 624,-133.5 624,-114.5 498,-114.5"/>
<text text-anchor="middle" x="561" y="-121.5" font-family="Helvetica,sans-Serif" font-size="10.00">rdcu_read_cmp_status</text>
</a>
</g>
</g>
<!-- Node1&#45;&gt;Node9 -->
<g id="edge11" class="edge">
<title>Node1&#45;&gt;Node9</title>
<path fill="none" stroke="midnightblue" d="M686.65,-166.39C672.4,-158.63 654.1,-149.41 637,-143 627.31,-139.37 616.67,-136.21 606.52,-133.55"/>
<polygon fill="midnightblue" stroke="midnightblue" points="685.35,-169.67 695.79,-171.47 688.75,-163.55 685.35,-169.67"/>
</g>
<!-- Node10 -->
<g id="node10" class="node">
<title>Node10</title>
<g id="a_node10"><a xlink:href="cmp__rdcu_8h_ae37779561352f0c47d0c51fcc9789cc9.html#ae37779561352f0c47d0c51fcc9789cc9" target="_top" xlink:title="read the updated model from the RDCU SRAM">
<polygon fill="white" stroke="black" points="166,-342.5 166,-361.5 267,-361.5 267,-342.5 166,-342.5"/>
<text text-anchor="middle" x="216.5" y="-349.5" font-family="Helvetica,sans-Serif" font-size="10.00">rdcu_read_model</text>
</a>
</g>
</g>
<!-- Node1&#45;&gt;Node10 -->
<g id="edge12" class="edge">
<title>Node1&#45;&gt;Node10</title>
<path fill="none" stroke="midnightblue" d="M708.37,-200.92C701.2,-233.81 681.86,-298.73 637,-328 517.25,-406.13 334.97,-378.69 256.1,-361.54"/>
<polygon fill="midnightblue" stroke="midnightblue" points="711.87,-201.23 710.42,-190.74 705.01,-199.85 711.87,-201.23"/>
</g>
<!-- Node11 -->
<g id="node11" class="node">
<title>Node11</title>
<g id="a_node11"><a xlink:href="cmp__rdcu_8c_a2816c91a0cc8b4c6c06d9f3531840f28.html#a2816c91a0cc8b4c6c06d9f3531840f28" target="_top" xlink:title="start the RDCU data compressor">
<polygon fill="white" stroke="black" points="316,-266.5 316,-285.5 449,-285.5 449,-266.5 316,-266.5"/>
<text text-anchor="middle" x="382.5" y="-273.5" font-family="Helvetica,sans-Serif" font-size="10.00">rdcu_start_compression</text>
</a>
</g>
</g>
<!-- Node1&#45;&gt;Node11 -->
<g id="edge15" class="edge">
<title>Node1&#45;&gt;Node11</title>
<path fill="none" stroke="midnightblue" d="M697.08,-198.16C683.14,-212.96 660.93,-233.54 637,-244 577.05,-270.21 502.03,-276.84 449.2,-277.75"/>
<polygon fill="midnightblue" stroke="midnightblue" points="699.78,-200.39 703.93,-190.64 694.61,-195.68 699.78,-200.39"/>
</g>
<!-- Node12 -->
<g id="node12" class="node">
<title>Node12</title>
<g id="a_node12"><a xlink:href="cmp__rdcu_8c_aa257971c693045ef23e6c79879b32473.html#aa257971c693045ef23e6c79879b32473" target="_top" xlink:title="set up RDCU SRAM for compression">
<polygon fill="white" stroke="black" points="327,-228.5 327,-247.5 438,-247.5 438,-228.5 327,-228.5"/>
<text text-anchor="middle" x="382.5" y="-235.5" font-family="Helvetica,sans-Serif" font-size="10.00">rdcu_transfer_sram</text>
</a>
</g>
</g>
<!-- Node1&#45;&gt;Node12 -->
<g id="edge18" class="edge">
<title>Node1&#45;&gt;Node12</title>
<path fill="none" stroke="midnightblue" d="M688.8,-195.77C674.46,-204.12 655.34,-213.89 637,-219 570.47,-237.55 490.54,-240.52 438.46,-240.03"/>
<polygon fill="midnightblue" stroke="midnightblue" points="690.72,-198.7 697.49,-190.55 687.11,-192.7 690.72,-198.7"/>
</g>
<!-- Node4&#45;&gt;Node5 -->
<g id="edge4" class="edge">
<title>Node4&#45;&gt;Node5</title>
<path fill="none" stroke="midnightblue" d="M497.66,-21.3C480.6,-24.4 462.12,-27.75 445.1,-30.83"/>
<polygon fill="midnightblue" stroke="midnightblue" points="498.31,-24.74 507.52,-19.51 497.06,-17.85 498.31,-24.74"/>
</g>
<!-- Node5&#45;&gt;Node2 -->
<g id="edge7" class="edge">
<title>Node5&#45;&gt;Node2</title>
<path fill="none" stroke="midnightblue" d="M309.66,-32.41C261.02,-29.8 197.72,-34.42 153,-67 86.81,-115.21 66.6,-221.17 61.23,-260.71"/>
<polygon fill="midnightblue" stroke="midnightblue" points="309.6,-35.91 319.8,-33.06 310.05,-28.92 309.6,-35.91"/>
</g>
<!-- Node5&#45;&gt;Node3 -->
<g id="edge8" class="edge">
<title>Node5&#45;&gt;Node3</title>
<path fill="none" stroke="midnightblue" d="M315.83,-59.62C294.45,-65.35 271.53,-71.5 253.2,-76.42"/>
<polygon fill="midnightblue" stroke="midnightblue" points="316.77,-62.99 325.52,-57.02 314.95,-56.23 316.77,-62.99"/>
</g>
<!-- Node6 -->
<g id="node6" class="node">
<title>Node6</title>
<g id="a_node6"><a xlink:href="cmp__rdcu_8h_a85aeb890a333d637dd7ffba03729e93a.html#a85aeb890a333d637dd7ffba03729e93a" target="_top" xlink:title="compressing data with the help of the RDCU hardware compressor">
<polygon fill="white" stroke="black" points="158,-228.5 158,-247.5 275,-247.5 275,-228.5 158,-228.5"/>
<text text-anchor="middle" x="216.5" y="-235.5" font-family="Helvetica,sans-Serif" font-size="10.00">rdcu_compress_data</text>
</a>
</g>
</g>
<!-- Node5&#45;&gt;Node6 -->
<g id="edge5" class="edge">
<title>Node5&#45;&gt;Node6</title>
<path fill="none" stroke="midnightblue" d="M362.3,-64.95C326.5,-107.74 250.9,-198.09 225.8,-228.08"/>
<polygon fill="midnightblue" stroke="midnightblue" points="365.17,-66.97 368.9,-57.05 359.8,-62.48 365.17,-66.97"/>
</g>
<!-- Node6&#45;&gt;Node2 -->
<g id="edge6" class="edge">
<title>Node6&#45;&gt;Node2</title>
<path fill="none" stroke="midnightblue" d="M166.18,-250.01C150.6,-253.81 133.24,-258.04 117.13,-261.96"/>
<polygon fill="midnightblue" stroke="midnightblue" points="167.25,-253.36 176.13,-247.59 165.59,-246.56 167.25,-253.36"/>
</g>
<!-- Node10&#45;&gt;Node2 -->
<g id="edge13" class="edge">
<title>Node10&#45;&gt;Node2</title>
<path fill="none" stroke="midnightblue" d="M178.7,-338.86C170.16,-335.54 161.19,-331.83 153,-328 129.1,-316.84 102.95,-302.06 84.39,-291.11"/>
<polygon fill="midnightblue" stroke="midnightblue" points="177.49,-342.14 188.08,-342.42 179.97,-335.6 177.49,-342.14"/>
</g>
<!-- Node11&#45;&gt;Node2 -->
<g id="edge17" class="edge">
<title>Node11&#45;&gt;Node2</title>
<path fill="none" stroke="midnightblue" d="M305.79,-276C248.08,-276 169.81,-276 117.13,-276"/>
<polygon fill="midnightblue" stroke="midnightblue" points="305.95,-279.5 315.95,-276 305.95,-272.5 305.95,-279.5"/>
</g>
<!-- Node11&#45;&gt;Node6 -->
<g id="edge16" class="edge">
<title>Node11&#45;&gt;Node6</title>
<path fill="none" stroke="midnightblue" d="M330.16,-264.1C307.11,-258.76 280.28,-252.55 258.59,-247.52"/>
<polygon fill="midnightblue" stroke="midnightblue" points="329.58,-267.56 340.12,-266.41 331.16,-260.74 329.58,-267.56"/>
</g>
<!-- Node12&#45;&gt;Node3 -->
<g id="edge20" class="edge">
<title>Node12&#45;&gt;Node3</title>
<path fill="none" stroke="midnightblue" d="M363.82,-221.61C329.54,-189.84 255.02,-120.77 227.76,-95.5"/>
<polygon fill="midnightblue" stroke="midnightblue" points="361.53,-224.26 371.24,-228.49 366.29,-219.13 361.53,-224.26"/>
</g>
<!-- Node12&#45;&gt;Node6 -->
<g id="edge19" class="edge">
<title>Node12&#45;&gt;Node6</title>
<path fill="none" stroke="midnightblue" d="M316.6,-238C302.94,-238 288.62,-238 275.24,-238"/>
<polygon fill="midnightblue" stroke="midnightblue" points="316.89,-241.5 326.89,-238 316.89,-234.5 316.89,-241.5"/>
</g>
</g>
</svg>
