<?xml version="1.0" encoding="UTF-8" standalone="no"?>
<!DOCTYPE svg PUBLIC "-//W3C//DTD SVG 1.1//EN"
 "http://www.w3.org/Graphics/SVG/1.1/DTD/svg11.dtd">
<!-- Generated by graphviz version 2.43.0 (0)
 -->
<!-- Title: rdcu_start_compression Pages: 1 -->
<svg width="1326pt" height="750pt"
 viewBox="0.00 0.00 1326.00 750.00" xmlns="http://www.w3.org/2000/svg" xmlns:xlink="http://www.w3.org/1999/xlink">
<g id="graph0" class="graph" transform="scale(1 1) rotate(0) translate(4 746)">
<title>rdcu_start_compression</title>
<polygon fill="white" stroke="transparent" points="-4,4 -4,-746 1322,-746 1322,4 -4,4"/>
<!-- Node1 -->
<g id="node1" class="node">
<title>Node1</title>
<g id="a_node1"><a xlink:title="start the RDCU data compressor">
<polygon fill="#bfbfbf" stroke="black" points="0,-288.5 0,-307.5 133,-307.5 133,-288.5 0,-288.5"/>
<text text-anchor="middle" x="66.5" y="-295.5" font-family="Helvetica,sans-Serif" font-size="10.00">rdcu_start_compression</text>
</a>
</g>
</g>
<!-- Node2 -->
<g id="node2" class="node">
<title>Node2</title>
<g id="a_node2"><a xlink:href="rdcu__ctrl_8c_a819a487b2520d0d3bd0ea0299ba0fcce.html#a819a487b2520d0d3bd0ea0299ba0fcce" target="_top" xlink:title="clear data compressor start bit">
<polygon fill="white" stroke="black" points="174,-393 174,-423 304,-423 304,-393 174,-393"/>
<text text-anchor="start" x="182" y="-411" font-family="Helvetica,sans-Serif" font-size="10.00">rdcu_clear_data_compr</text>
<text text-anchor="middle" x="239" y="-400" font-family="Helvetica,sans-Serif" font-size="10.00">_start</text>
</a>
</g>
</g>
<!-- Node1&#45;&gt;Node2 -->
<g id="edge1" class="edge">
<title>Node1&#45;&gt;Node2</title>
<path fill="none" stroke="midnightblue" d="M76.71,-307.69C93.58,-324.94 131.15,-361.21 169,-383 172.6,-385.07 176.41,-387.03 180.3,-388.85"/>
<polygon fill="midnightblue" stroke="midnightblue" points="178.95,-392.08 189.51,-392.89 181.76,-385.67 178.95,-392.08"/>
</g>
<!-- Node3 -->
<g id="node3" class="node">
<title>Node3</title>
<g id="a_node3"><a xlink:href="rdcu__ctrl_8c_a20fd87eecf8a2847e97c4cc1007a7d79.html#a20fd87eecf8a2847e97c4cc1007a7d79" target="_top" xlink:title="disable RDCU interrupt signal to the ICU">
<polygon fill="white" stroke="black" points="169,-354.5 169,-373.5 309,-373.5 309,-354.5 169,-354.5"/>
<text text-anchor="middle" x="239" y="-361.5" font-family="Helvetica,sans-Serif" font-size="10.00">rdcu_clear_rdcu_interrupt</text>
</a>
</g>
</g>
<!-- Node1&#45;&gt;Node3 -->
<g id="edge2" class="edge">
<title>Node1&#45;&gt;Node3</title>
<path fill="none" stroke="midnightblue" d="M85.82,-307.6C105.85,-317.84 139.1,-334.04 169,-345 175.43,-347.35 182.28,-349.58 189.09,-351.61"/>
<polygon fill="midnightblue" stroke="midnightblue" points="188.38,-355.05 198.96,-354.46 190.32,-348.33 188.38,-355.05"/>
</g>
<!-- Node4 -->
<g id="node4" class="node">
<title>Node4</title>
<g id="a_node4"><a xlink:href="rdcu__ctrl_8c_ac08224cf1d0790d5f6c5069c2b17fc9e.html#ac08224cf1d0790d5f6c5069c2b17fc9e" target="_top" xlink:title="set data compressor start bit">
<polygon fill="white" stroke="black" points="178.5,-305 178.5,-335 299.5,-335 299.5,-305 178.5,-305"/>
<text text-anchor="start" x="186.5" y="-323" font-family="Helvetica,sans-Serif" font-size="10.00">rdcu_set_data_compr</text>
<text text-anchor="middle" x="239" y="-312" font-family="Helvetica,sans-Serif" font-size="10.00">_start</text>
</a>
</g>
</g>
<!-- Node1&#45;&gt;Node4 -->
<g id="edge3" class="edge">
<title>Node1&#45;&gt;Node4</title>
<path fill="none" stroke="midnightblue" d="M133.42,-306.51C144.87,-307.98 156.81,-309.52 168.36,-311.01"/>
<polygon fill="midnightblue" stroke="midnightblue" points="168.02,-314.5 178.38,-312.31 168.91,-307.56 168.02,-314.5"/>
</g>
<!-- Node5 -->
<g id="node5" class="node">
<title>Node5</title>
<g id="a_node5"><a xlink:href="rdcu__ctrl_8c_a295d53ec431d5d61de8daffdf9efde7e.html#a295d53ec431d5d61de8daffdf9efde7e" target="_top" xlink:title="enable RDCU interrupt signal to the ICU">
<polygon fill="white" stroke="black" points="173.5,-266.5 173.5,-285.5 304.5,-285.5 304.5,-266.5 173.5,-266.5"/>
<text text-anchor="middle" x="239" y="-273.5" font-family="Helvetica,sans-Serif" font-size="10.00">rdcu_set_rdcu_interrupt</text>
</a>
</g>
</g>
<!-- Node1&#45;&gt;Node5 -->
<g id="edge4" class="edge">
<title>Node1&#45;&gt;Node5</title>
<path fill="none" stroke="midnightblue" d="M133.42,-289.49C143.16,-288.24 153.25,-286.94 163.15,-285.66"/>
<polygon fill="midnightblue" stroke="midnightblue" points="163.91,-289.09 173.38,-284.34 163.01,-282.15 163.91,-289.09"/>
</g>
<!-- Node6 -->
<g id="node6" class="node">
<title>Node6</title>
<g id="a_node6"><a xlink:href="rdcu__ctrl_8c_a40aa43367024873e61200a4e3e28cd9a.html#a40aa43367024873e61200a4e3e28cd9a" target="_top" xlink:title="sync the Compressor Control register (write only)">
<polygon fill="white" stroke="black" points="178,-228.5 178,-247.5 300,-247.5 300,-228.5 178,-228.5"/>
<text text-anchor="middle" x="239" y="-235.5" font-family="Helvetica,sans-Serif" font-size="10.00">rdcu_sync_compr_ctrl</text>
</a>
</g>
</g>
<!-- Node1&#45;&gt;Node6 -->
<g id="edge5" class="edge">
<title>Node1&#45;&gt;Node6</title>
<path fill="none" stroke="midnightblue" d="M89.01,-288.47C109.37,-279.65 140.92,-266.5 169,-257 175.88,-254.67 183.21,-252.42 190.43,-250.32"/>
<polygon fill="midnightblue" stroke="midnightblue" points="191.49,-253.66 200.16,-247.58 189.59,-246.93 191.49,-253.66"/>
</g>
<!-- Node38 -->
<g id="node38" class="node">
<title>Node38</title>
<g id="a_node38"><a xlink:href="cmp__rdcu_8c_a308f44d7c916a3a601dd4f007dd8873c.html#a308f44d7c916a3a601dd4f007dd8873c" target="_top" xlink:title="save repeating 3 lines of code...">
<polygon fill="white" stroke="black" points="199,-190.5 199,-209.5 279,-209.5 279,-190.5 199,-190.5"/>
<text text-anchor="middle" x="239" y="-197.5" font-family="Helvetica,sans-Serif" font-size="10.00">rdcu_syncing</text>
</a>
</g>
</g>
<!-- Node1&#45;&gt;Node38 -->
<g id="edge44" class="edge">
<title>Node1&#45;&gt;Node38</title>
<path fill="none" stroke="midnightblue" d="M76.97,-288.49C93.93,-271.97 131.28,-237.93 169,-219 175.19,-215.89 181.96,-213.24 188.76,-210.98"/>
<polygon fill="midnightblue" stroke="midnightblue" points="190.14,-214.23 198.68,-207.97 188.1,-207.53 190.14,-214.23"/>
</g>
<!-- Node7 -->
<g id="node7" class="node">
<title>Node7</title>
<g id="a_node7"><a xlink:href="rdcu__rmap_8c_a533d1eb248d83ba3d406cefe7f3c9eb9.html#a533d1eb248d83ba3d406cefe7f3c9eb9" target="_top" xlink:title="submit a sync command">
<polygon fill="white" stroke="black" points="388,-228.5 388,-247.5 453,-247.5 453,-228.5 388,-228.5"/>
<text text-anchor="middle" x="420.5" y="-235.5" font-family="Helvetica,sans-Serif" font-size="10.00">rdcu_sync</text>
</a>
</g>
</g>
<!-- Node6&#45;&gt;Node7 -->
<g id="edge6" class="edge">
<title>Node6&#45;&gt;Node7</title>
<path fill="none" stroke="midnightblue" d="M300.27,-238C325.71,-238 354.7,-238 377.72,-238"/>
<polygon fill="midnightblue" stroke="midnightblue" points="377.85,-241.5 387.85,-238 377.85,-234.5 377.85,-241.5"/>
</g>
<!-- Node24 -->
<g id="node24" class="node">
<title>Node24</title>
<g id="a_node24"><a xlink:href="rdcu__cmd_8c_a90d3bc193d20e828f4fc91fa0bca84b6.html#a90d3bc193d20e828f4fc91fa0bca84b6" target="_top" xlink:title="create a command to write the RDCU compressor control register">
<polygon fill="white" stroke="black" points="345,-380.5 345,-399.5 496,-399.5 496,-380.5 345,-380.5"/>
<text text-anchor="middle" x="420.5" y="-387.5" font-family="Helvetica,sans-Serif" font-size="10.00">rdcu_write_cmd_compr_ctrl</text>
</a>
</g>
</g>
<!-- Node6&#45;&gt;Node24 -->
<g id="edge25" class="edge">
<title>Node6&#45;&gt;Node24</title>
<path fill="none" stroke="midnightblue" d="M289.11,-247.5C296.09,-249.98 302.94,-253.09 309,-257 355.46,-286.98 392.26,-342.66 409.26,-371.55"/>
<polygon fill="midnightblue" stroke="midnightblue" points="406.23,-373.31 414.25,-380.24 412.3,-369.83 406.23,-373.31"/>
</g>
<!-- Node8 -->
<g id="node8" class="node">
<title>Node8</title>
<g id="a_node8"><a xlink:href="test__cmp__max__used__bits__list_8c_a7ac38fce3243a7dcf448301ee9ffd392.html#a7ac38fce3243a7dcf448301ee9ffd392" target="_top" xlink:title=" ">
<polygon fill="white" stroke="black" points="1044,-304.5 1044,-323.5 1094,-323.5 1094,-304.5 1044,-304.5"/>
<text text-anchor="middle" x="1069" y="-311.5" font-family="Helvetica,sans-Serif" font-size="10.00">malloc</text>
</a>
</g>
</g>
<!-- Node7&#45;&gt;Node8 -->
<g id="edge7" class="edge">
<title>Node7&#45;&gt;Node8</title>
<path fill="none" stroke="midnightblue" d="M453.31,-244.18C475.33,-248.29 505.36,-253.54 532,-257 722.26,-281.72 771.83,-269.61 962,-295 986.1,-298.22 1013.06,-303.07 1033.77,-307.06"/>
<polygon fill="midnightblue" stroke="midnightblue" points="1033.19,-310.52 1043.68,-309 1034.54,-303.65 1033.19,-310.52"/>
</g>
<!-- Node9 -->
<g id="node9" class="node">
<title>Node9</title>
<g id="a_node9"><a xlink:href="rdcu__rmap_8c_a95fad3cd9b6bbe562e1a73e3f1c108a8.html#a95fad3cd9b6bbe562e1a73e3f1c108a8" target="_top" xlink:title="submit an rmap command transaction">
<polygon fill="white" stroke="black" points="554.5,-228.5 554.5,-247.5 646.5,-247.5 646.5,-228.5 554.5,-228.5"/>
<text text-anchor="middle" x="600.5" y="-235.5" font-family="Helvetica,sans-Serif" font-size="10.00">rdcu_submit_tx</text>
</a>
</g>
</g>
<!-- Node7&#45;&gt;Node9 -->
<g id="edge8" class="edge">
<title>Node7&#45;&gt;Node9</title>
<path fill="none" stroke="midnightblue" d="M453.32,-238C478.46,-238 514.15,-238 543.97,-238"/>
<polygon fill="midnightblue" stroke="midnightblue" points="544.24,-241.5 554.24,-238 544.24,-234.5 544.24,-241.5"/>
</g>
<!-- Node23 -->
<g id="node23" class="node">
<title>Node23</title>
<g id="a_node23"><a xlink:href="rdcu__rmap_8c_a36f44335aa66dd49fb4903f7269bc5b1.html#a36f44335aa66dd49fb4903f7269bc5b1" target="_top" xlink:title="grab a slot in the transaction log">
<polygon fill="white" stroke="black" points="544.5,-190.5 544.5,-209.5 656.5,-209.5 656.5,-190.5 544.5,-190.5"/>
<text text-anchor="middle" x="600.5" y="-197.5" font-family="Helvetica,sans-Serif" font-size="10.00">trans_log_grab_slot</text>
</a>
</g>
</g>
<!-- Node7&#45;&gt;Node23 -->
<g id="edge24" class="edge">
<title>Node7&#45;&gt;Node23</title>
<path fill="none" stroke="midnightblue" d="M453.32,-231.21C478.75,-225.78 514.97,-218.05 544.99,-211.64"/>
<polygon fill="midnightblue" stroke="midnightblue" points="545.87,-215.03 554.92,-209.52 544.4,-208.18 545.87,-215.03"/>
</g>
<!-- Node10 -->
<g id="node10" class="node">
<title>Node10</title>
<g id="a_node10"><a xlink:href="rdcu__rmap_8c_a1a064554031c2fa2dcb65541e0765c0f.html#a1a064554031c2fa2dcb65541e0765c0f" target="_top" xlink:title="n rmap command transaction">
<polygon fill="white" stroke="black" points="705,-152.5 705,-171.5 800,-171.5 800,-152.5 705,-152.5"/>
<text text-anchor="middle" x="752.5" y="-159.5" font-family="Helvetica,sans-Serif" font-size="10.00">rdcu_process_rx</text>
</a>
</g>
</g>
<!-- Node9&#45;&gt;Node10 -->
<g id="edge9" class="edge">
<title>Node9&#45;&gt;Node10</title>
<path fill="none" stroke="midnightblue" d="M643.69,-228.44C652.26,-225.86 661.07,-222.73 669,-219 692.26,-208.06 716.14,-190.78 732.18,-178.11"/>
<polygon fill="midnightblue" stroke="midnightblue" points="734.64,-180.62 740.23,-171.62 730.25,-175.17 734.64,-180.62"/>
</g>
<!-- Node10&#45;&gt;Node8 -->
<g id="edge10" class="edge">
<title>Node10&#45;&gt;Node8</title>
<path fill="none" stroke="midnightblue" d="M792.4,-171.6C848.49,-185.61 947.05,-210.85 962,-219 999.36,-239.35 1034.41,-275.29 1053.36,-296.65"/>
<polygon fill="midnightblue" stroke="midnightblue" points="1050.82,-299.06 1060.02,-304.32 1056.1,-294.47 1050.82,-299.06"/>
</g>
<!-- Node11 -->
<g id="node11" class="node">
<title>Node11</title>
<g id="a_node11"><a xlink:href="rmap_8c_abf1868ec6873f9f189050cadc7e64a3b.html#abf1868ec6873f9f189050cadc7e64a3b" target="_top" xlink:title="calculate the CRC8 of a given buffer">
<polygon fill="white" stroke="black" points="865,-76.5 865,-95.5 933,-95.5 933,-76.5 865,-76.5"/>
<text text-anchor="middle" x="899" y="-83.5" font-family="Helvetica,sans-Serif" font-size="10.00">rmap_crc8</text>
</a>
</g>
</g>
<!-- Node10&#45;&gt;Node11 -->
<g id="edge11" class="edge">
<title>Node10&#45;&gt;Node11</title>
<path fill="none" stroke="midnightblue" d="M764.82,-152.48C780.1,-140.04 808.58,-118.28 836,-105 842.06,-102.07 848.67,-99.47 855.24,-97.2"/>
<polygon fill="midnightblue" stroke="midnightblue" points="856.34,-100.53 864.78,-94.13 854.19,-93.87 856.34,-100.53"/>
</g>
<!-- Node12 -->
<g id="node12" class="node">
<title>Node12</title>
<g id="a_node12"><a xlink:href="rmap_8c_a1def9af549819e7fdbda12af8bdc9c0e.html#a1def9af549819e7fdbda12af8bdc9c0e" target="_top" xlink:title="completely destroys an RMAP packet">
<polygon fill="white" stroke="black" points="843,-228.5 843,-247.5 955,-247.5 955,-228.5 843,-228.5"/>
<text text-anchor="middle" x="899" y="-235.5" font-family="Helvetica,sans-Serif" font-size="10.00">rmap_erase_packet</text>
</a>
</g>
</g>
<!-- Node10&#45;&gt;Node12 -->
<g id="edge12" class="edge">
<title>Node10&#45;&gt;Node12</title>
<path fill="none" stroke="midnightblue" d="M767.04,-171.68C783,-182.82 810.59,-201.22 836,-214 843.78,-217.91 852.36,-221.6 860.6,-224.87"/>
<polygon fill="midnightblue" stroke="midnightblue" points="859.45,-228.17 870.04,-228.48 861.95,-221.64 859.45,-228.17"/>
</g>
<!-- Node13 -->
<g id="node13" class="node">
<title>Node13</title>
<g id="a_node13"><a xlink:href="rmap_8c_a5e88a29337404518eceedf9b4af285bf.html#a5e88a29337404518eceedf9b4af285bf" target="_top" xlink:title=" ">
<polygon fill="white" stroke="black" points="851.5,-38.5 851.5,-57.5 946.5,-57.5 946.5,-38.5 851.5,-38.5"/>
<text text-anchor="middle" x="899" y="-45.5" font-family="Helvetica,sans-Serif" font-size="10.00">rmap_parse_pkt</text>
</a>
</g>
</g>
<!-- Node10&#45;&gt;Node13 -->
<g id="edge13" class="edge">
<title>Node10&#45;&gt;Node13</title>
<path fill="none" stroke="midnightblue" d="M759.24,-152.34C771.11,-133.19 800.29,-90.22 836,-67 839.16,-64.95 842.55,-63.1 846.06,-61.45"/>
<polygon fill="midnightblue" stroke="midnightblue" points="847.66,-64.58 855.56,-57.52 844.98,-58.12 847.66,-64.58"/>
</g>
<!-- Node18 -->
<g id="node18" class="node">
<title>Node18</title>
<g id="a_node18"><a xlink:href="rmap_8c_a46d3271304c12df042b57dbebaba67e1.html#a46d3271304c12df042b57dbebaba67e1" target="_top" xlink:title="create an rmap packet from a buffer">
<polygon fill="white" stroke="black" points="836.5,-380.5 836.5,-399.5 961.5,-399.5 961.5,-380.5 836.5,-380.5"/>
<text text-anchor="middle" x="899" y="-387.5" font-family="Helvetica,sans-Serif" font-size="10.00">rmap_pkt_from_buffer</text>
</a>
</g>
</g>
<!-- Node10&#45;&gt;Node18 -->
<g id="edge18" class="edge">
<title>Node10&#45;&gt;Node18</title>
<path fill="none" stroke="midnightblue" d="M754.38,-171.52C757.93,-204.34 774.12,-313.81 836,-371 837.71,-372.58 839.55,-374.03 841.49,-375.37"/>
<polygon fill="midnightblue" stroke="midnightblue" points="840.08,-378.59 850.51,-380.46 843.53,-372.49 840.08,-378.59"/>
</g>
<!-- Node21 -->
<g id="node21" class="node">
<title>Node21</title>
<g id="a_node21"><a xlink:href="rdcu__rmap_8c_acf9b176d8d9b24e9d07711f56aebccc0.html#acf9b176d8d9b24e9d07711f56aebccc0" target="_top" xlink:title="get the local address for a slot">
<polygon fill="white" stroke="black" points="844,-152.5 844,-171.5 954,-171.5 954,-152.5 844,-152.5"/>
<text text-anchor="middle" x="899" y="-159.5" font-family="Helvetica,sans-Serif" font-size="10.00">trans_log_get_addr</text>
</a>
</g>
</g>
<!-- Node10&#45;&gt;Node21 -->
<g id="edge22" class="edge">
<title>Node10&#45;&gt;Node21</title>
<path fill="none" stroke="midnightblue" d="M800.02,-162C810.69,-162 822.23,-162 833.51,-162"/>
<polygon fill="midnightblue" stroke="midnightblue" points="833.77,-165.5 843.77,-162 833.77,-158.5 833.77,-165.5"/>
</g>
<!-- Node22 -->
<g id="node22" class="node">
<title>Node22</title>
<g id="a_node22"><a xlink:href="rdcu__rmap_8c_a7012f58a1862cf07b00e299d24c199c2.html#a7012f58a1862cf07b00e299d24c199c2" target="_top" xlink:title="release a slot in the transaction log">
<polygon fill="white" stroke="black" points="836,-114.5 836,-133.5 962,-133.5 962,-114.5 836,-114.5"/>
<text text-anchor="middle" x="899" y="-121.5" font-family="Helvetica,sans-Serif" font-size="10.00">trans_log_release_slot</text>
</a>
</g>
</g>
<!-- Node10&#45;&gt;Node22 -->
<g id="edge23" class="edge">
<title>Node10&#45;&gt;Node22</title>
<path fill="none" stroke="midnightblue" d="M789.96,-152.41C808.77,-147.46 831.91,-141.38 851.95,-136.11"/>
<polygon fill="midnightblue" stroke="midnightblue" points="853.02,-139.45 861.8,-133.52 851.24,-132.68 853.02,-139.45"/>
</g>
<!-- Node14 -->
<g id="node14" class="node">
<title>Node14</title>
<g id="a_node14"><a xlink:href="rmap_8c_abb4e19c17c7223212c3904bc4c0189d2.html#abb4e19c17c7223212c3904bc4c0189d2" target="_top" xlink:title=" ">
<polygon fill="white" stroke="black" points="1013.5,-38.5 1013.5,-57.5 1124.5,-57.5 1124.5,-38.5 1013.5,-38.5"/>
<text text-anchor="middle" x="1069" y="-45.5" font-family="Helvetica,sans-Serif" font-size="10.00">rmap_check_status</text>
</a>
</g>
</g>
<!-- Node13&#45;&gt;Node14 -->
<g id="edge14" class="edge">
<title>Node13&#45;&gt;Node14</title>
<path fill="none" stroke="midnightblue" d="M946.8,-48C964.33,-48 984.57,-48 1003.42,-48"/>
<polygon fill="midnightblue" stroke="midnightblue" points="1003.43,-51.5 1013.43,-48 1003.43,-44.5 1003.43,-51.5"/>
</g>
<!-- Node15 -->
<g id="node15" class="node">
<title>Node15</title>
<g id="a_node15"><a xlink:href="rmap_8c_a20aa8b91dfb1bbad819759f97b853054.html#a20aa8b91dfb1bbad819759f97b853054" target="_top" xlink:title=" ">
<polygon fill="white" stroke="black" points="1008,-0.5 1008,-19.5 1130,-19.5 1130,-0.5 1008,-0.5"/>
<text text-anchor="middle" x="1069" y="-7.5" font-family="Helvetica,sans-Serif" font-size="10.00">rmap_parse_cmd_pkt</text>
</a>
</g>
</g>
<!-- Node13&#45;&gt;Node15 -->
<g id="edge15" class="edge">
<title>Node13&#45;&gt;Node15</title>
<path fill="none" stroke="midnightblue" d="M942.39,-38.41C964.76,-33.35 992.4,-27.1 1016.05,-21.75"/>
<polygon fill="midnightblue" stroke="midnightblue" points="1016.93,-25.14 1025.91,-19.52 1015.39,-18.31 1016.93,-25.14"/>
</g>
<!-- Node16 -->
<g id="node16" class="node">
<title>Node16</title>
<g id="a_node16"><a xlink:href="rmap_8c_adef42426b46ee5ad5176ee76cff35c22.html#adef42426b46ee5ad5176ee76cff35c22" target="_top" xlink:title=" ">
<polygon fill="white" stroke="black" points="1006.5,-76.5 1006.5,-95.5 1131.5,-95.5 1131.5,-76.5 1006.5,-76.5"/>
<text text-anchor="middle" x="1069" y="-83.5" font-family="Helvetica,sans-Serif" font-size="10.00">rmap_parse_reply_pkt</text>
</a>
</g>
</g>
<!-- Node13&#45;&gt;Node16 -->
<g id="edge16" class="edge">
<title>Node13&#45;&gt;Node16</title>
<path fill="none" stroke="midnightblue" d="M942.39,-57.59C964.76,-62.65 992.4,-68.9 1016.05,-74.25"/>
<polygon fill="midnightblue" stroke="midnightblue" points="1015.39,-77.69 1025.91,-76.48 1016.93,-70.86 1015.39,-77.69"/>
</g>
<!-- Node17 -->
<g id="node17" class="node">
<title>Node17</title>
<g id="a_node17"><a xlink:href="rmap_8c_a2ff278a5e094a9f585865d4d838e0e0e.html#a2ff278a5e094a9f585865d4d838e0e0e" target="_top" xlink:title=" ">
<polygon fill="white" stroke="black" points="1176,-76.5 1176,-95.5 1318,-95.5 1318,-76.5 1176,-76.5"/>
<text text-anchor="middle" x="1247" y="-83.5" font-family="Helvetica,sans-Serif" font-size="10.00">rmap_process_read_reply</text>
</a>
</g>
</g>
<!-- Node16&#45;&gt;Node17 -->
<g id="edge17" class="edge">
<title>Node16&#45;&gt;Node17</title>
<path fill="none" stroke="midnightblue" d="M1131.56,-86C1142.6,-86 1154.25,-86 1165.73,-86"/>
<polygon fill="midnightblue" stroke="midnightblue" points="1165.74,-89.5 1175.74,-86 1165.74,-82.5 1165.74,-89.5"/>
</g>
<!-- Node18&#45;&gt;Node8 -->
<g id="edge19" class="edge">
<title>Node18&#45;&gt;Node8</title>
<path fill="none" stroke="midnightblue" d="M935.51,-380.43C944.29,-377.7 953.58,-374.51 962,-371 991.06,-358.87 1022.64,-341.27 1043.7,-328.84"/>
<polygon fill="midnightblue" stroke="midnightblue" points="1045.52,-331.83 1052.32,-323.7 1041.94,-325.82 1045.52,-331.83"/>
</g>
<!-- Node19 -->
<g id="node19" class="node">
<title>Node19</title>
<g id="a_node19"><a xlink:href="rmap_8c_aba944cf978de0b264ea5bb3a784bce0f.html#aba944cf978de0b264ea5bb3a784bce0f" target="_top" xlink:title="create an RMAP packet and set defaults">
<polygon fill="white" stroke="black" points="1011,-399.5 1011,-418.5 1127,-418.5 1127,-399.5 1011,-399.5"/>
<text text-anchor="middle" x="1069" y="-406.5" font-family="Helvetica,sans-Serif" font-size="10.00">rmap_create_packet</text>
</a>
</g>
</g>
<!-- Node18&#45;&gt;Node19 -->
<g id="edge20" class="edge">
<title>Node18&#45;&gt;Node19</title>
<path fill="none" stroke="midnightblue" d="M961.6,-396.97C974.31,-398.4 987.76,-399.93 1000.66,-401.38"/>
<polygon fill="midnightblue" stroke="midnightblue" points="1000.54,-404.89 1010.87,-402.54 1001.32,-397.94 1000.54,-404.89"/>
</g>
<!-- Node20 -->
<g id="node20" class="node">
<title>Node20</title>
<g id="a_node20"><a xlink:href="rmap_8c_a0ec3c28e83818f02e00d4c79d82d938a.html#a0ec3c28e83818f02e00d4c79d82d938a" target="_top" xlink:title="get the minimum header size given the RMAP instruction">
<polygon fill="white" stroke="black" points="1002.5,-456.5 1002.5,-475.5 1135.5,-475.5 1135.5,-456.5 1002.5,-456.5"/>
<text text-anchor="middle" x="1069" y="-463.5" font-family="Helvetica,sans-Serif" font-size="10.00">rmap_get_min_hdr_size</text>
</a>
</g>
</g>
<!-- Node18&#45;&gt;Node20 -->
<g id="edge21" class="edge">
<title>Node18&#45;&gt;Node20</title>
<path fill="none" stroke="midnightblue" d="M935.51,-399.57C944.29,-402.3 953.58,-405.49 962,-409 966.09,-410.71 1011.31,-435.18 1041.35,-451.5"/>
<polygon fill="midnightblue" stroke="midnightblue" points="1040.04,-454.77 1050.5,-456.47 1043.38,-448.62 1040.04,-454.77"/>
</g>
<!-- Node25 -->
<g id="node25" class="node">
<title>Node25</title>
<g id="a_node25"><a xlink:href="rdcu__cmd_8c_a690d79ff983a96fdd40db6396e9c70e9.html#a690d79ff983a96fdd40db6396e9c70e9" target="_top" xlink:title="generate a write command for an arbitrary register (internal)">
<polygon fill="white" stroke="black" points="532,-432 532,-462 669,-462 669,-432 532,-432"/>
<text text-anchor="start" x="540" y="-450" font-family="Helvetica,sans-Serif" font-size="10.00">rdcu_write_cmd_register</text>
<text text-anchor="middle" x="600.5" y="-439" font-family="Helvetica,sans-Serif" font-size="10.00">_internal</text>
</a>
</g>
</g>
<!-- Node24&#45;&gt;Node25 -->
<g id="edge26" class="edge">
<title>Node24&#45;&gt;Node25</title>
<path fill="none" stroke="midnightblue" d="M451.29,-399.54C476.21,-407.52 512.46,-419.13 542.87,-428.86"/>
<polygon fill="midnightblue" stroke="midnightblue" points="541.92,-432.24 552.51,-431.95 544.06,-425.57 541.92,-432.24"/>
</g>
<!-- Node26 -->
<g id="node26" class="node">
<title>Node26</title>
<g id="a_node26"><a xlink:href="rdcu__rmap_8c_ab224927e85a7cec5b6f90292c7de36c4.html#ab224927e85a7cec5b6f90292c7de36c4" target="_top" xlink:title="generate an rmap command packet">
<polygon fill="white" stroke="black" points="709,-494.5 709,-513.5 796,-513.5 796,-494.5 709,-494.5"/>
<text text-anchor="middle" x="752.5" y="-501.5" font-family="Helvetica,sans-Serif" font-size="10.00">rdcu_gen_cmd</text>
</a>
</g>
</g>
<!-- Node25&#45;&gt;Node26 -->
<g id="edge27" class="edge">
<title>Node25&#45;&gt;Node26</title>
<path fill="none" stroke="midnightblue" d="M641.3,-462.13C664.74,-471.03 694.11,-482.19 716.63,-490.75"/>
<polygon fill="midnightblue" stroke="midnightblue" points="715.55,-494.08 726.14,-494.36 718.04,-487.54 715.55,-494.08"/>
</g>
<!-- Node26&#45;&gt;Node12 -->
<g id="edge31" class="edge">
<title>Node26&#45;&gt;Node12</title>
<path fill="none" stroke="midnightblue" d="M755.72,-494.09C763.09,-462.7 788.97,-363.5 836,-295 847,-278.98 863.29,-264.23 876.41,-253.75"/>
<polygon fill="midnightblue" stroke="midnightblue" points="878.71,-256.4 884.48,-247.51 874.43,-250.86 878.71,-256.4"/>
</g>
<!-- Node26&#45;&gt;Node19 -->
<g id="edge30" class="edge">
<title>Node26&#45;&gt;Node19</title>
<path fill="none" stroke="midnightblue" d="M791.8,-494.48C833.83,-483.81 903.13,-465.57 962,-447 986.03,-439.42 1012.74,-429.84 1033.33,-422.19"/>
<polygon fill="midnightblue" stroke="midnightblue" points="1034.77,-425.39 1042.91,-418.61 1032.32,-418.84 1034.77,-425.39"/>
</g>
<!-- Node27 -->
<g id="node27" class="node">
<title>Node27</title>
<g id="a_node27"><a xlink:href="rmap_8c_aa17375d153cc3473cbbe4dfe1056c527.html#aa17375d153cc3473cbbe4dfe1056c527" target="_top" xlink:title="build an rmap header">
<polygon fill="white" stroke="black" points="853,-494.5 853,-513.5 945,-513.5 945,-494.5 853,-494.5"/>
<text text-anchor="middle" x="899" y="-501.5" font-family="Helvetica,sans-Serif" font-size="10.00">rmap_build_hdr</text>
</a>
</g>
</g>
<!-- Node26&#45;&gt;Node27 -->
<g id="edge28" class="edge">
<title>Node26&#45;&gt;Node27</title>
<path fill="none" stroke="midnightblue" d="M796.07,-504C810.76,-504 827.42,-504 842.95,-504"/>
<polygon fill="midnightblue" stroke="midnightblue" points="842.97,-507.5 852.97,-504 842.97,-500.5 842.97,-507.5"/>
</g>
<!-- Node28 -->
<g id="node28" class="node">
<title>Node28</title>
<g id="a_node28"><a xlink:href="rmap_8c_aab7e23f061291d39568ad2df700bc777.html#aab7e23f061291d39568ad2df700bc777" target="_top" xlink:title="set an RMAP command">
<polygon fill="white" stroke="black" points="854.5,-532.5 854.5,-551.5 943.5,-551.5 943.5,-532.5 854.5,-532.5"/>
<text text-anchor="middle" x="899" y="-539.5" font-family="Helvetica,sans-Serif" font-size="10.00">rmap_set_cmd</text>
</a>
</g>
</g>
<!-- Node26&#45;&gt;Node28 -->
<g id="edge32" class="edge">
<title>Node26&#45;&gt;Node28</title>
<path fill="none" stroke="midnightblue" d="M789.96,-513.59C808.77,-518.54 831.91,-524.62 851.95,-529.89"/>
<polygon fill="midnightblue" stroke="midnightblue" points="851.24,-533.32 861.8,-532.48 853.02,-526.55 851.24,-533.32"/>
</g>
<!-- Node30 -->
<g id="node30" class="node">
<title>Node30</title>
<g id="a_node30"><a xlink:href="rmap_8c_acf641aae92829ae864b6c3d8f94d86e2.html#acf641aae92829ae864b6c3d8f94d86e2" target="_top" xlink:title="set a data address">
<polygon fill="white" stroke="black" points="841,-418.5 841,-437.5 957,-437.5 957,-418.5 841,-418.5"/>
<text text-anchor="middle" x="899" y="-425.5" font-family="Helvetica,sans-Serif" font-size="10.00">rmap_set_data_addr</text>
</a>
</g>
</g>
<!-- Node26&#45;&gt;Node30 -->
<g id="edge34" class="edge">
<title>Node26&#45;&gt;Node30</title>
<path fill="none" stroke="midnightblue" d="M767.04,-494.32C783,-483.18 810.59,-464.78 836,-452 843.78,-448.09 852.36,-444.4 860.6,-441.13"/>
<polygon fill="midnightblue" stroke="midnightblue" points="861.95,-444.36 870.04,-437.52 859.45,-437.83 861.95,-444.36"/>
</g>
<!-- Node31 -->
<g id="node31" class="node">
<title>Node31</title>
<g id="a_node31"><a xlink:href="rmap_8c_a6833f065640f652aa1a929309e592f7a.html#a6833f065640f652aa1a929309e592f7a" target="_top" xlink:title="set an RMAP command">
<polygon fill="white" stroke="black" points="844,-722.5 844,-741.5 954,-741.5 954,-722.5 844,-722.5"/>
<text text-anchor="middle" x="899" y="-729.5" font-family="Helvetica,sans-Serif" font-size="10.00">rmap_set_data_len</text>
</a>
</g>
</g>
<!-- Node26&#45;&gt;Node31 -->
<g id="edge35" class="edge">
<title>Node26&#45;&gt;Node31</title>
<path fill="none" stroke="midnightblue" d="M754.38,-513.52C757.93,-546.34 774.12,-655.81 836,-713 837.71,-714.58 839.55,-716.03 841.49,-717.37"/>
<polygon fill="midnightblue" stroke="midnightblue" points="840.08,-720.59 850.51,-722.46 843.53,-714.49 840.08,-720.59"/>
</g>
<!-- Node32 -->
<g id="node32" class="node">
<title>Node32</title>
<g id="a_node32"><a xlink:href="rmap_8c_a5f0081b9928da5e50fc8b231b57f3a80.html#a5f0081b9928da5e50fc8b231b57f3a80" target="_top" xlink:title="set the destination address path">
<polygon fill="white" stroke="black" points="841,-342.5 841,-361.5 957,-361.5 957,-342.5 841,-342.5"/>
<text text-anchor="middle" x="899" y="-349.5" font-family="Helvetica,sans-Serif" font-size="10.00">rmap_set_dest_path</text>
</a>
</g>
</g>
<!-- Node26&#45;&gt;Node32 -->
<g id="edge36" class="edge">
<title>Node26&#45;&gt;Node32</title>
<path fill="none" stroke="midnightblue" d="M756.76,-494.32C765.52,-469.83 791.88,-405 836,-371 838.34,-369.2 840.85,-367.56 843.48,-366.08"/>
<polygon fill="midnightblue" stroke="midnightblue" points="845.25,-369.11 852.75,-361.62 842.22,-362.81 845.25,-369.11"/>
</g>
<!-- Node33 -->
<g id="node33" class="node">
<title>Node33</title>
<g id="a_node33"><a xlink:href="rmap_8c_a2da8e7b48411d382b54848795f85795d.html#a2da8e7b48411d382b54848795f85795d" target="_top" xlink:title="set the destination (target) logical address">
<polygon fill="white" stroke="black" points="857.5,-684.5 857.5,-703.5 940.5,-703.5 940.5,-684.5 857.5,-684.5"/>
<text text-anchor="middle" x="899" y="-691.5" font-family="Helvetica,sans-Serif" font-size="10.00">rmap_set_dst</text>
</a>
</g>
</g>
<!-- Node26&#45;&gt;Node33 -->
<g id="edge38" class="edge">
<title>Node26&#45;&gt;Node33</title>
<path fill="none" stroke="midnightblue" d="M755.36,-513.79C761.4,-542.91 783.23,-629.7 836,-675 839.65,-678.13 843.81,-680.75 848.21,-682.94"/>
<polygon fill="midnightblue" stroke="midnightblue" points="846.91,-686.19 857.49,-686.85 849.63,-679.74 846.91,-686.19"/>
</g>
<!-- Node34 -->
<g id="node34" class="node">
<title>Node34</title>
<g id="a_node34"><a xlink:href="rmap_8c_a15021c9dfccddc44786dfd37834bcd7e.html#a15021c9dfccddc44786dfd37834bcd7e" target="_top" xlink:title="set the command authorisation key">
<polygon fill="white" stroke="black" points="856.5,-646.5 856.5,-665.5 941.5,-665.5 941.5,-646.5 856.5,-646.5"/>
<text text-anchor="middle" x="899" y="-653.5" font-family="Helvetica,sans-Serif" font-size="10.00">rmap_set_key</text>
</a>
</g>
</g>
<!-- Node26&#45;&gt;Node34 -->
<g id="edge39" class="edge">
<title>Node26&#45;&gt;Node34</title>
<path fill="none" stroke="midnightblue" d="M756.76,-513.68C765.52,-538.17 791.88,-603 836,-637 839.36,-639.59 843.08,-641.83 846.97,-643.76"/>
<polygon fill="midnightblue" stroke="midnightblue" points="845.72,-647.04 856.29,-647.75 848.47,-640.6 845.72,-647.04"/>
</g>
<!-- Node35 -->
<g id="node35" class="node">
<title>Node35</title>
<g id="a_node35"><a xlink:href="rmap_8c_a56c47830e67d01e469231e5e7e1d3a34.html#a56c47830e67d01e469231e5e7e1d3a34" target="_top" xlink:title="set the reply address path">
<polygon fill="white" stroke="black" points="839.5,-304.5 839.5,-323.5 958.5,-323.5 958.5,-304.5 839.5,-304.5"/>
<text text-anchor="middle" x="899" y="-311.5" font-family="Helvetica,sans-Serif" font-size="10.00">rmap_set_reply_path</text>
</a>
</g>
</g>
<!-- Node26&#45;&gt;Node35 -->
<g id="edge40" class="edge">
<title>Node26&#45;&gt;Node35</title>
<path fill="none" stroke="midnightblue" d="M755.36,-494.21C761.4,-465.09 783.23,-378.3 836,-333 837.98,-331.3 840.11,-329.75 842.35,-328.34"/>
<polygon fill="midnightblue" stroke="midnightblue" points="844.2,-331.32 851.41,-323.56 840.93,-325.13 844.2,-331.32"/>
</g>
<!-- Node36 -->
<g id="node36" class="node">
<title>Node36</title>
<g id="a_node36"><a xlink:href="rmap_8c_adae0030440ca4e7ad34622e505acbb2c.html#adae0030440ca4e7ad34622e505acbb2c" target="_top" xlink:title="set the source (initiator) logical address">
<polygon fill="white" stroke="black" points="858,-608.5 858,-627.5 940,-627.5 940,-608.5 858,-608.5"/>
<text text-anchor="middle" x="899" y="-615.5" font-family="Helvetica,sans-Serif" font-size="10.00">rmap_set_src</text>
</a>
</g>
</g>
<!-- Node26&#45;&gt;Node36 -->
<g id="edge42" class="edge">
<title>Node26&#45;&gt;Node36</title>
<path fill="none" stroke="midnightblue" d="M759.24,-513.66C771.11,-532.81 800.29,-575.78 836,-599 839.82,-601.48 843.98,-603.66 848.28,-605.56"/>
<polygon fill="midnightblue" stroke="midnightblue" points="847.25,-608.91 857.83,-609.29 849.79,-602.39 847.25,-608.91"/>
</g>
<!-- Node37 -->
<g id="node37" class="node">
<title>Node37</title>
<g id="a_node37"><a xlink:href="rmap_8c_a7b4c31714493ce6cc19d4aa825ab50aa.html#a7b4c31714493ce6cc19d4aa825ab50aa" target="_top" xlink:title="set an RMAP transaction identifier">
<polygon fill="white" stroke="black" points="854.5,-570.5 854.5,-589.5 943.5,-589.5 943.5,-570.5 854.5,-570.5"/>
<text text-anchor="middle" x="899" y="-577.5" font-family="Helvetica,sans-Serif" font-size="10.00">rmap_set_tr_id</text>
</a>
</g>
</g>
<!-- Node26&#45;&gt;Node37 -->
<g id="edge43" class="edge">
<title>Node26&#45;&gt;Node37</title>
<path fill="none" stroke="midnightblue" d="M764.82,-513.52C780.1,-525.96 808.58,-547.72 836,-561 840.63,-563.24 845.58,-565.29 850.6,-567.14"/>
<polygon fill="midnightblue" stroke="midnightblue" points="849.65,-570.52 860.24,-570.46 851.92,-563.9 849.65,-570.52"/>
</g>
<!-- Node27&#45;&gt;Node20 -->
<g id="edge29" class="edge">
<title>Node27&#45;&gt;Node20</title>
<path fill="none" stroke="midnightblue" d="M942.39,-494.41C964.76,-489.35 992.4,-483.1 1016.05,-477.75"/>
<polygon fill="midnightblue" stroke="midnightblue" points="1016.93,-481.14 1025.91,-475.52 1015.39,-474.31 1016.93,-481.14"/>
</g>
<!-- Node29 -->
<g id="node29" class="node">
<title>Node29</title>
<g id="a_node29"><a xlink:href="rmap_8c_a667ce871110961f2a611d0244791e20f.html#a667ce871110961f2a611d0244791e20f" target="_top" xlink:title="valiidates a command code">
<polygon fill="white" stroke="black" points="998,-532.5 998,-551.5 1140,-551.5 1140,-532.5 998,-532.5"/>
<text text-anchor="middle" x="1069" y="-539.5" font-family="Helvetica,sans-Serif" font-size="10.00">rmap_validate_cmd_code</text>
</a>
</g>
</g>
<!-- Node28&#45;&gt;Node29 -->
<g id="edge33" class="edge">
<title>Node28&#45;&gt;Node29</title>
<path fill="none" stroke="midnightblue" d="M943.7,-542C957.13,-542 972.36,-542 987.44,-542"/>
<polygon fill="midnightblue" stroke="midnightblue" points="987.83,-545.5 997.83,-542 987.83,-538.5 987.83,-545.5"/>
</g>
<!-- Node32&#45;&gt;Node8 -->
<g id="edge37" class="edge">
<title>Node32&#45;&gt;Node8</title>
<path fill="none" stroke="midnightblue" d="M942.39,-342.41C970.71,-336.01 1007.47,-327.69 1033.9,-321.71"/>
<polygon fill="midnightblue" stroke="midnightblue" points="1034.85,-325.09 1043.83,-319.47 1033.3,-318.26 1034.85,-325.09"/>
</g>
<!-- Node35&#45;&gt;Node8 -->
<g id="edge41" class="edge">
<title>Node35&#45;&gt;Node8</title>
<path fill="none" stroke="midnightblue" d="M958.76,-314C983.69,-314 1011.89,-314 1033.39,-314"/>
<polygon fill="midnightblue" stroke="midnightblue" points="1033.67,-317.5 1043.67,-314 1033.67,-310.5 1033.67,-317.5"/>
</g>
<!-- Node39 -->
<g id="node39" class="node">
<title>Node39</title>
<g id="a_node39"><a xlink:href="rdcu__rmap_8c_a2650ed06998d198567938a9e933e1761.html#a2650ed06998d198567938a9e933e1761" target="_top" xlink:title="get the RDCU &lt;&#45;&gt; ICU mirror RMAP synchronisation status">
<polygon fill="white" stroke="black" points="355,-171.5 355,-190.5 486,-190.5 486,-171.5 355,-171.5"/>
<text text-anchor="middle" x="420.5" y="-178.5" font-family="Helvetica,sans-Serif" font-size="10.00">rdcu_rmap_sync_status</text>
</a>
</g>
</g>
<!-- Node38&#45;&gt;Node39 -->
<g id="edge45" class="edge">
<title>Node38&#45;&gt;Node39</title>
<path fill="none" stroke="midnightblue" d="M279.39,-195.83C298.54,-193.8 322.22,-191.3 344.62,-188.93"/>
<polygon fill="midnightblue" stroke="midnightblue" points="345.23,-192.38 354.81,-187.85 344.49,-185.42 345.23,-192.38"/>
</g>
<!-- Node39&#45;&gt;Node10 -->
<g id="edge46" class="edge">
<title>Node39&#45;&gt;Node10</title>
<path fill="none" stroke="midnightblue" d="M486.3,-177.27C547.04,-173.77 636.93,-168.6 694.86,-165.26"/>
<polygon fill="midnightblue" stroke="midnightblue" points="695.16,-168.75 704.94,-164.68 694.75,-161.76 695.16,-168.75"/>
</g>
</g>
</svg>
