<?xml version="1.0" encoding="UTF-8" standalone="no"?>
<!DOCTYPE svg PUBLIC "-//W3C//DTD SVG 1.1//EN"
 "http://www.w3.org/Graphics/SVG/1.1/DTD/svg11.dtd">
<!-- Generated by graphviz version 2.43.0 (0)
 -->
<!-- Title: cmp_entity.c Pages: 1 -->
<!--zoomable 252 -->
<svg id="main" version="1.1" xmlns="http://www.w3.org/2000/svg" xmlns:xlink="http://www.w3.org/1999/xlink" xml:space="preserve" onload="init(evt)">
<style type="text/css"><![CDATA[
.edge:hover path { stroke: red; }
.edge:hover polygon { stroke: red; fill: red; }
]]></style>
<script type="text/javascript"><![CDATA[
var edges = document.getElementsByTagName('g');
if (edges && edges.length) {
  for (var i=0;i<edges.length;i++) {
    if (edges[i].id.substr(0,4)=='edge') {
      edges[i].setAttribute('class','edge');
    }
  }
}
]]></script>
        <defs>
                <circle id="rim" cx="0" cy="0" r="7"/>
                <circle id="rim2" cx="0" cy="0" r="3.5"/>
                <g id="zoomPlus">
                        <use xlink:href="#rim" fill="#404040">
                                <set attributeName="fill" to="#808080" begin="zoomplus.mouseover" end="zoomplus.mouseout"/>
                        </use>
                        <path d="M-4,0h8M0,-4v8" fill="none" stroke="white" stroke-width="1.5" pointer-events="none"/>
                </g>
                <g id="zoomMin">
                        <use xlink:href="#rim" fill="#404040">
                                <set attributeName="fill" to="#808080" begin="zoomminus.mouseover" end="zoomminus.mouseout"/>
                        </use>
                        <path d="M-4,0h8" fill="none" stroke="white" stroke-width="1.5" pointer-events="none"/>
                </g>
                <g id="dirArrow">
                        <path fill="none" stroke="white" stroke-width="1.5" d="M0,-3.0v7 M-2.5,-0.5L0,-3.0L2.5,-0.5"/>
                </g>
               <g id="resetDef">
                       <use xlink:href="#rim2" fill="#404040">
                               <set attributeName="fill" to="#808080" begin="reset.mouseover" end="reset.mouseout"/>
                       </use>
               </g>
        </defs>

<script type="text/javascript">
var viewWidth = 865;
var viewHeight = 252;
var sectionId = 'dynsection-0';
</script>
<script xlink:href="svgpan.js"/>
<svg id="graph" class="graph">
<g id="viewport">
<title>cmp_entity.c</title>
<polygon fill="white" stroke="transparent" points="-4,4 -4,-248 861.31,-248 861.31,4 -4,4"/>
<!-- Node1 -->
<g id="node1" class="node">
<title>Node1</title>
<g id="a_node1"><a xlink:title="functions and definition to handle a compression entity">
<polygon fill="#bfbfbf" stroke="black" points="458.31,-224.5 458.31,-243.5 536.31,-243.5 536.31,-224.5 458.31,-224.5"/>
<text text-anchor="middle" x="497.31" y="-231.5" font-family="Helvetica,sans-Serif" font-size="10.00">cmp_entity.c</text>
</a>
</g>
</g>
<!-- Node2 -->
<g id="node2" class="node">
<title>Node2</title>
<g id="a_node2"><a xlink:title=" ">
<polygon fill="white" stroke="#bfbfbf" points="356.81,-0.5 356.81,-19.5 409.81,-19.5 409.81,-0.5 356.81,-0.5"/>
<text text-anchor="middle" x="383.31" y="-7.5" font-family="Helvetica,sans-Serif" font-size="10.00">stdint.h</text>
</a>
</g>
</g>
<!-- Node1&#45;&gt;Node2 -->
<g id="edge1" class="edge">
<title>Node1&#45;&gt;Node2</title>
<path fill="none" stroke="midnightblue" d="M493.93,-224.24C483.63,-197.97 451.19,-117.8 415.31,-56 409.66,-46.26 402.45,-35.98 396.31,-27.71"/>
<polygon fill="midnightblue" stroke="midnightblue" points="399.02,-25.49 390.19,-19.64 393.45,-29.72 399.02,-25.49"/>
</g>
<!-- Node3 -->
<g id="node3" class="node">
<title>Node3</title>
<g id="a_node3"><a xlink:title=" ">
<polygon fill="white" stroke="#bfbfbf" points="525.81,-168.5 525.81,-187.5 578.81,-187.5 578.81,-168.5 525.81,-168.5"/>
<text text-anchor="middle" x="552.31" y="-175.5" font-family="Helvetica,sans-Serif" font-size="10.00">string.h</text>
</a>
</g>
</g>
<!-- Node1&#45;&gt;Node3 -->
<g id="edge2" class="edge">
<title>Node1&#45;&gt;Node3</title>
<path fill="none" stroke="midnightblue" d="M506.4,-224.08C514.49,-216.14 526.51,-204.34 536.23,-194.8"/>
<polygon fill="midnightblue" stroke="midnightblue" points="538.72,-197.25 543.4,-187.75 533.81,-192.26 538.72,-197.25"/>
</g>
<!-- Node4 -->
<g id="node4" class="node">
<title>Node4</title>
<g id="a_node4"><a xlink:title=" ">
<polygon fill="white" stroke="#bfbfbf" points="597.31,-168.5 597.31,-187.5 647.31,-187.5 647.31,-168.5 597.31,-168.5"/>
<text text-anchor="middle" x="622.31" y="-175.5" font-family="Helvetica,sans-Serif" font-size="10.00">stdio.h</text>
</a>
</g>
</g>
<!-- Node1&#45;&gt;Node4 -->
<g id="edge3" class="edge">
<title>Node1&#45;&gt;Node4</title>
<path fill="none" stroke="midnightblue" d="M517.12,-224.44C537.6,-215.6 569.8,-201.69 593.18,-191.59"/>
<polygon fill="midnightblue" stroke="midnightblue" points="594.81,-194.7 602.6,-187.52 592.03,-188.27 594.81,-194.7"/>
</g>
<!-- Node5 -->
<g id="node5" class="node">
<title>Node5</title>
<g id="a_node5"><a xlink:href="byteorder_8h.html" target="_top" xlink:title="This is a set of macros for consistent endianness conversion. They work for both little and big endia...">
<polygon fill="white" stroke="black" points="487.31,-112.5 487.31,-131.5 559.31,-131.5 559.31,-112.5 487.31,-112.5"/>
<text text-anchor="middle" x="523.31" y="-119.5" font-family="Helvetica,sans-Serif" font-size="10.00">byteorder.h</text>
</a>
</g>
</g>
<!-- Node1&#45;&gt;Node5 -->
<g id="edge4" class="edge">
<title>Node1&#45;&gt;Node5</title>
<path fill="none" stroke="midnightblue" d="M499.36,-224.37C503.55,-206.62 513.23,-165.67 518.92,-141.6"/>
<polygon fill="midnightblue" stroke="midnightblue" points="522.39,-142.13 521.28,-131.59 515.58,-140.52 522.39,-142.13"/>
</g>
<!-- Node6 -->
<g id="node6" class="node">
<title>Node6</title>
<g id="a_node6"><a xlink:href="cmp__debug_8h.html" target="_top" xlink:title="compression/decompression debugging defines">
<polygon fill="white" stroke="black" points="665.31,-168.5 665.31,-187.5 747.31,-187.5 747.31,-168.5 665.31,-168.5"/>
<text text-anchor="middle" x="706.31" y="-175.5" font-family="Helvetica,sans-Serif" font-size="10.00">cmp_debug.h</text>
</a>
</g>
</g>
<!-- Node1&#45;&gt;Node6 -->
<g id="edge6" class="edge">
<title>Node1&#45;&gt;Node6</title>
<path fill="none" stroke="midnightblue" d="M530.43,-224.44C566.43,-215.14 624.08,-200.25 663.5,-190.06"/>
<polygon fill="midnightblue" stroke="midnightblue" points="664.55,-193.41 673.35,-187.52 662.8,-186.63 664.55,-193.41"/>
</g>
<!-- Node7 -->
<g id="node7" class="node">
<title>Node7</title>
<g id="a_node7"><a xlink:href="cmp__support_8h.html" target="_top" xlink:title="compression/decompression helper functions">
<polygon fill="white" stroke="black" points="155.81,-112.5 155.81,-131.5 244.81,-131.5 244.81,-112.5 155.81,-112.5"/>
<text text-anchor="middle" x="200.31" y="-119.5" font-family="Helvetica,sans-Serif" font-size="10.00">cmp_support.h</text>
</a>
</g>
</g>
<!-- Node1&#45;&gt;Node7 -->
<g id="edge7" class="edge">
<title>Node1&#45;&gt;Node7</title>
<path fill="none" stroke="midnightblue" d="M458.08,-231.69C390.04,-228.62 254.08,-218.71 219.31,-188 206.25,-176.46 201.95,-156.5 200.64,-141.73"/>
<polygon fill="midnightblue" stroke="midnightblue" points="204.13,-141.48 200.12,-131.67 197.14,-141.84 204.13,-141.48"/>
</g>
<!-- Node11 -->
<g id="node11" class="node">
<title>Node11</title>
<g id="a_node11"><a xlink:href="cmp__data__types_8h.html" target="_top" xlink:title="definition of the different compression data types">
<polygon fill="white" stroke="black" points="325.31,-168.5 325.31,-187.5 431.31,-187.5 431.31,-168.5 325.31,-168.5"/>
<text text-anchor="middle" x="378.31" y="-175.5" font-family="Helvetica,sans-Serif" font-size="10.00">cmp_data_types.h</text>
</a>
</g>
</g>
<!-- Node1&#45;&gt;Node11 -->
<g id="edge14" class="edge">
<title>Node1&#45;&gt;Node11</title>
<path fill="none" stroke="midnightblue" d="M478.46,-224.44C459.05,-215.64 428.58,-201.81 406.35,-191.72"/>
<polygon fill="midnightblue" stroke="midnightblue" points="407.64,-188.46 397.08,-187.52 404.74,-194.84 407.64,-188.46"/>
</g>
<!-- Node13 -->
<g id="node13" class="node">
<title>Node13</title>
<g id="a_node13"><a xlink:href="cmp__entity_8h.html" target="_top" xlink:title="functions and definition to handle a compression entity">
<polygon fill="white" stroke="black" points="228.81,-168.5 228.81,-187.5 307.81,-187.5 307.81,-168.5 228.81,-168.5"/>
<text text-anchor="middle" x="268.31" y="-175.5" font-family="Helvetica,sans-Serif" font-size="10.00">cmp_entity.h</text>
</a>
</g>
</g>
<!-- Node1&#45;&gt;Node13 -->
<g id="edge18" class="edge">
<title>Node1&#45;&gt;Node13</title>
<path fill="none" stroke="midnightblue" d="M461.03,-224.44C421.33,-215.08 357.61,-200.06 314.4,-189.87"/>
<polygon fill="midnightblue" stroke="midnightblue" points="314.97,-186.41 304.43,-187.52 313.36,-193.22 314.97,-186.41"/>
</g>
<!-- Node14 -->
<g id="node14" class="node">
<title>Node14</title>
<g id="a_node14"><a xlink:href="leon__inttypes_8h.html" target="_top" xlink:title="This is a simple inttypes.h implementation for the sparc platform, since the sparc&#45;elf&#45;gcc toolchain ...">
<polygon fill="white" stroke="black" points="765.31,-168.5 765.31,-187.5 857.31,-187.5 857.31,-168.5 765.31,-168.5"/>
<text text-anchor="middle" x="811.31" y="-175.5" font-family="Helvetica,sans-Serif" font-size="10.00">leon_inttypes.h</text>
</a>
</g>
</g>
<!-- Node1&#45;&gt;Node14 -->
<g id="edge22" class="edge">
<title>Node1&#45;&gt;Node14</title>
<path fill="none" stroke="midnightblue" d="M536.45,-226.27C591.5,-216.8 692.11,-199.5 755.14,-188.66"/>
<polygon fill="midnightblue" stroke="midnightblue" points="756.05,-192.06 765.31,-186.91 754.86,-185.16 756.05,-192.06"/>
</g>
<!-- Node5&#45;&gt;Node2 -->
<g id="edge5" class="edge">
<title>Node5&#45;&gt;Node2</title>
<path fill="none" stroke="midnightblue" d="M518.47,-112.42C510.52,-98.95 493.53,-72.66 473.31,-56 456.6,-42.22 434.95,-31.23 417.08,-23.56"/>
<polygon fill="midnightblue" stroke="midnightblue" points="418.17,-20.22 407.59,-19.64 415.5,-26.69 418.17,-20.22"/>
</g>
<!-- Node7&#45;&gt;Node2 -->
<g id="edge8" class="edge">
<title>Node7&#45;&gt;Node2</title>
<path fill="none" stroke="midnightblue" d="M155.59,-120.01C86.5,-116.97 -33.91,-104.74 9.31,-56 31.49,-31 256.69,-17.23 346.57,-12.7"/>
<polygon fill="midnightblue" stroke="midnightblue" points="346.77,-16.19 356.59,-12.2 346.42,-9.2 346.77,-16.19"/>
</g>
<!-- Node8 -->
<g id="node8" class="node">
<title>Node8</title>
<g id="a_node8"><a xlink:title=" ">
<polygon fill="white" stroke="#bfbfbf" points="18.31,-56.5 18.31,-75.5 74.31,-75.5 74.31,-56.5 18.31,-56.5"/>
<text text-anchor="middle" x="46.31" y="-63.5" font-family="Helvetica,sans-Serif" font-size="10.00">stddef.h</text>
</a>
</g>
</g>
<!-- Node7&#45;&gt;Node8 -->
<g id="edge9" class="edge">
<title>Node7&#45;&gt;Node8</title>
<path fill="none" stroke="midnightblue" d="M175.91,-112.44C150.12,-103.4 109.24,-89.06 80.3,-78.92"/>
<polygon fill="midnightblue" stroke="midnightblue" points="81.2,-75.52 70.6,-75.52 78.88,-82.13 81.2,-75.52"/>
</g>
<!-- Node9 -->
<g id="node9" class="node">
<title>Node9</title>
<g id="a_node9"><a xlink:href="cmp__max__used__bits_8h.html" target="_top" xlink:title="definition and consents of the cmp_max_used_bits structure">
<polygon fill="white" stroke="black" points="92.81,-56.5 92.81,-75.5 217.81,-75.5 217.81,-56.5 92.81,-56.5"/>
<text text-anchor="middle" x="155.31" y="-63.5" font-family="Helvetica,sans-Serif" font-size="10.00">cmp_max_used_bits.h</text>
</a>
</g>
</g>
<!-- Node7&#45;&gt;Node9 -->
<g id="edge10" class="edge">
<title>Node7&#45;&gt;Node9</title>
<path fill="none" stroke="midnightblue" d="M192.88,-112.08C186.46,-104.38 177.01,-93.03 169.19,-83.65"/>
<polygon fill="midnightblue" stroke="midnightblue" points="171.7,-81.19 162.61,-75.75 166.32,-85.67 171.7,-81.19"/>
</g>
<!-- Node10 -->
<g id="node10" class="node">
<title>Node10</title>
<g id="a_node10"><a xlink:href="cmp__cal__up__model_8h.html" target="_top" xlink:title="functions to calculate the update (new) model">
<polygon fill="white" stroke="black" points="235.81,-56.5 235.81,-75.5 354.81,-75.5 354.81,-56.5 235.81,-56.5"/>
<text text-anchor="middle" x="295.31" y="-63.5" font-family="Helvetica,sans-Serif" font-size="10.00">cmp_cal_up_model.h</text>
</a>
</g>
</g>
<!-- Node7&#45;&gt;Node10 -->
<g id="edge12" class="edge">
<title>Node7&#45;&gt;Node10</title>
<path fill="none" stroke="midnightblue" d="M215.58,-112.32C230.54,-103.82 253.57,-90.73 271.04,-80.8"/>
<polygon fill="midnightblue" stroke="midnightblue" points="273.13,-83.64 280.09,-75.65 269.67,-77.55 273.13,-83.64"/>
</g>
<!-- Node9&#45;&gt;Node2 -->
<g id="edge11" class="edge">
<title>Node9&#45;&gt;Node2</title>
<path fill="none" stroke="midnightblue" d="M191.44,-56.44C233.9,-46.39 303.96,-29.79 346.65,-19.68"/>
<polygon fill="midnightblue" stroke="midnightblue" points="347.69,-23.03 356.62,-17.32 346.08,-16.22 347.69,-23.03"/>
</g>
<!-- Node10&#45;&gt;Node2 -->
<g id="edge13" class="edge">
<title>Node10&#45;&gt;Node2</title>
<path fill="none" stroke="midnightblue" d="M309.45,-56.32C323.18,-47.9 344.25,-34.97 360.38,-25.07"/>
<polygon fill="midnightblue" stroke="midnightblue" points="362.52,-27.87 369.21,-19.65 358.86,-21.9 362.52,-27.87"/>
</g>
<!-- Node11&#45;&gt;Node2 -->
<g id="edge15" class="edge">
<title>Node11&#45;&gt;Node2</title>
<path fill="none" stroke="midnightblue" d="M384.68,-168.23C390.58,-159.53 398.92,-145.57 402.31,-132 411.3,-96.04 399.24,-52.96 390.63,-29.12"/>
<polygon fill="midnightblue" stroke="midnightblue" points="393.84,-27.71 387,-19.61 387.3,-30.2 393.84,-27.71"/>
</g>
<!-- Node11&#45;&gt;Node7 -->
<g id="edge17" class="edge">
<title>Node11&#45;&gt;Node7</title>
<path fill="none" stroke="midnightblue" d="M350.11,-168.44C319.9,-159.28 271.8,-144.69 238.29,-134.52"/>
<polygon fill="midnightblue" stroke="midnightblue" points="238.97,-131.07 228.39,-131.52 236.94,-137.77 238.97,-131.07"/>
</g>
<!-- Node12 -->
<g id="node12" class="node">
<title>Node12</title>
<g id="a_node12"><a xlink:href="compiler_8h.html" target="_top" xlink:title="a collection of preprocessor macros">
<polygon fill="white" stroke="black" points="325.31,-112.5 325.31,-131.5 393.31,-131.5 393.31,-112.5 325.31,-112.5"/>
<text text-anchor="middle" x="359.31" y="-119.5" font-family="Helvetica,sans-Serif" font-size="10.00">compiler.h</text>
</a>
</g>
</g>
<!-- Node11&#45;&gt;Node12 -->
<g id="edge16" class="edge">
<title>Node11&#45;&gt;Node12</title>
<path fill="none" stroke="midnightblue" d="M375.18,-168.08C372.63,-160.85 368.96,-150.41 365.79,-141.4"/>
<polygon fill="midnightblue" stroke="midnightblue" points="369.01,-140.02 362.39,-131.75 362.41,-142.35 369.01,-140.02"/>
</g>
<!-- Node13&#45;&gt;Node2 -->
<g id="edge19" class="edge">
<title>Node13&#45;&gt;Node2</title>
<path fill="none" stroke="midnightblue" d="M273.54,-168.41C281.71,-155.38 298.42,-130.21 316.31,-112 334.76,-93.23 348.29,-97.6 363.31,-76 372.9,-62.22 378.01,-43.69 380.66,-29.95"/>
<polygon fill="midnightblue" stroke="midnightblue" points="384.17,-30.17 382.34,-19.73 377.26,-29.03 384.17,-30.17"/>
</g>
<!-- Node13&#45;&gt;Node7 -->
<g id="edge21" class="edge">
<title>Node13&#45;&gt;Node7</title>
<path fill="none" stroke="midnightblue" d="M257.39,-168.32C247.14,-160.18 231.59,-147.84 219.31,-138.09"/>
<polygon fill="midnightblue" stroke="midnightblue" points="221.45,-135.31 211.44,-131.83 217.09,-140.79 221.45,-135.31"/>
</g>
<!-- Node13&#45;&gt;Node12 -->
<g id="edge20" class="edge">
<title>Node13&#45;&gt;Node12</title>
<path fill="none" stroke="midnightblue" d="M282.94,-168.32C297.26,-159.82 319.33,-146.73 336.06,-136.8"/>
<polygon fill="midnightblue" stroke="midnightblue" points="337.92,-139.77 344.73,-131.65 334.34,-133.75 337.92,-139.77"/>
</g>
<!-- Node15 -->
<g id="node15" class="node">
<title>Node15</title>
<g id="a_node15"><a xlink:title=" ">
<polygon fill="white" stroke="#bfbfbf" points="778.81,-112.5 778.81,-131.5 843.81,-131.5 843.81,-112.5 778.81,-112.5"/>
<text text-anchor="middle" x="811.31" y="-119.5" font-family="Helvetica,sans-Serif" font-size="10.00">inttypes.h</text>
</a>
</g>
</g>
<!-- Node14&#45;&gt;Node15 -->
<g id="edge23" class="edge">
<title>Node14&#45;&gt;Node15</title>
<path fill="none" stroke="midnightblue" d="M811.31,-168.08C811.31,-161.01 811.31,-150.86 811.31,-141.99"/>
<polygon fill="midnightblue" stroke="midnightblue" points="814.81,-141.75 811.31,-131.75 807.81,-141.75 814.81,-141.75"/>
</g>
</g>
</svg>
        <g id="navigator" transform="translate(0 0)" fill="#404254">
                <rect fill="#f2f5e9" fill-opacity="0.5" stroke="#606060" stroke-width=".5" x="0" y="0" width="60" height="60"/>
                <use id="zoomplus" xlink:href="#zoomPlus" x="17" y="9" onmousedown="handleZoom(evt,'in')"/>
                <use id="zoomminus" xlink:href="#zoomMin" x="42" y="9" onmousedown="handleZoom(evt,'out')"/>
                <use id="reset" xlink:href="#resetDef" x="30" y="36" onmousedown="handleReset()"/>
                <g id="arrowUp" xlink:href="#dirArrow" transform="translate(30 24)" onmousedown="handlePan(0,-1)">
                  <use xlink:href="#rim" fill="#404040">
                        <set attributeName="fill" to="#808080" begin="arrowUp.mouseover" end="arrowUp.mouseout"/>
                  </use>
                  <path fill="none" stroke="white" stroke-width="1.5" d="M0,-3.0v7 M-2.5,-0.5L0,-3.0L2.5,-0.5"/>
                </g>
                <g id="arrowRight" xlink:href="#dirArrow" transform="rotate(90) translate(36 -43)" onmousedown="handlePan(1,0)">
                  <use xlink:href="#rim" fill="#404040">
                        <set attributeName="fill" to="#808080" begin="arrowRight.mouseover" end="arrowRight.mouseout"/>
                  </use>
                  <path fill="none" stroke="white" stroke-width="1.5" d="M0,-3.0v7 M-2.5,-0.5L0,-3.0L2.5,-0.5"/>
                </g>
                <g id="arrowDown" xlink:href="#dirArrow" transform="rotate(180) translate(-30 -48)" onmousedown="handlePan(0,1)">
                  <use xlink:href="#rim" fill="#404040">
                        <set attributeName="fill" to="#808080" begin="arrowDown.mouseover" end="arrowDown.mouseout"/>
                  </use>
                  <path fill="none" stroke="white" stroke-width="1.5" d="M0,-3.0v7 M-2.5,-0.5L0,-3.0L2.5,-0.5"/>
                </g>
                <g id="arrowLeft" xlink:href="#dirArrow" transform="rotate(270) translate(-36 17)" onmousedown="handlePan(-1,0)">
                  <use xlink:href="#rim" fill="#404040">
                        <set attributeName="fill" to="#808080" begin="arrowLeft.mouseover" end="arrowLeft.mouseout"/>
                  </use>
                  <path fill="none" stroke="white" stroke-width="1.5" d="M0,-3.0v7 M-2.5,-0.5L0,-3.0L2.5,-0.5"/>
                </g>
        </g>
        <svg viewBox="0 0 15 15" width="100%" height="30px" preserveAspectRatio="xMaxYMin meet">
         <g id="arrow_out" transform="scale(0.3 0.3)">
          <a xlink:href="cmp__entity_8c__incl_org.svg" target="_base">
           <rect id="button" ry="5" rx="5" y="6" x="6" height="38" width="38"
                fill="#f2f5e9" fill-opacity="0.5" stroke="#606060" stroke-width="1.0"/>
           <path id="arrow"
             d="M 11.500037,31.436501 C 11.940474,20.09759 22.043105,11.32322 32.158766,21.979434 L 37.068811,17.246167 C 37.068811,17.246167 37.088388,32 37.088388,32 L 22.160133,31.978069 C 22.160133,31.978069 26.997745,27.140456 26.997745,27.140456 C 18.528582,18.264221 13.291696,25.230495 11.500037,31.436501 z"
             style="fill:#404040;"/>
          </a>
         </g>
        </svg>
</svg>
