<?xml version="1.0" encoding="UTF-8" standalone="no"?>
<!DOCTYPE svg PUBLIC "-//W3C//DTD SVG 1.1//EN"
 "http://www.w3.org/Graphics/SVG/1.1/DTD/svg11.dtd">
<!-- Generated by graphviz version 2.43.0 (0)
 -->
<!-- Title: compress_s_fx_ncob Pages: 1 -->
<!--zoomable 349 -->
<svg id="main" version="1.1" xmlns="http://www.w3.org/2000/svg" xmlns:xlink="http://www.w3.org/1999/xlink" xml:space="preserve" onload="init(evt)">
<style type="text/css"><![CDATA[
.edge:hover path { stroke: red; }
.edge:hover polygon { stroke: red; fill: red; }
]]></style>
<script type="text/javascript"><![CDATA[
var edges = document.getElementsByTagName('g');
if (edges && edges.length) {
  for (var i=0;i<edges.length;i++) {
    if (edges[i].id.substr(0,4)=='edge') {
      edges[i].setAttribute('class','edge');
    }
  }
}
]]></script>
        <defs>
                <circle id="rim" cx="0" cy="0" r="7"/>
                <circle id="rim2" cx="0" cy="0" r="3.5"/>
                <g id="zoomPlus">
                        <use xlink:href="#rim" fill="#404040">
                                <set attributeName="fill" to="#808080" begin="zoomplus.mouseover" end="zoomplus.mouseout"/>
                        </use>
                        <path d="M-4,0h8M0,-4v8" fill="none" stroke="white" stroke-width="1.5" pointer-events="none"/>
                </g>
                <g id="zoomMin">
                        <use xlink:href="#rim" fill="#404040">
                                <set attributeName="fill" to="#808080" begin="zoomminus.mouseover" end="zoomminus.mouseout"/>
                        </use>
                        <path d="M-4,0h8" fill="none" stroke="white" stroke-width="1.5" pointer-events="none"/>
                </g>
                <g id="dirArrow">
                        <path fill="none" stroke="white" stroke-width="1.5" d="M0,-3.0v7 M-2.5,-0.5L0,-3.0L2.5,-0.5"/>
                </g>
               <g id="resetDef">
                       <use xlink:href="#rim2" fill="#404040">
                               <set attributeName="fill" to="#808080" begin="reset.mouseover" end="reset.mouseout"/>
                       </use>
               </g>
        </defs>

<script type="text/javascript">
var viewWidth = 805;
var viewHeight = 349;
var sectionId = 'dynsection-0';
</script>
<script xlink:href="svgpan.js"/>
<svg id="graph" class="graph">
<g id="viewport">
<title>compress_s_fx_ncob</title>
<polygon fill="white" stroke="transparent" points="-4,4 -4,-345 801,-345 801,4 -4,4"/>
<!-- Node1 -->
<g id="node1" class="node">
<title>Node1</title>
<g id="a_node1"><a xlink:title="compress S_FX_NCOB data">
<polygon fill="#bfbfbf" stroke="black" points="0,-114.5 0,-133.5 118,-133.5 118,-114.5 0,-114.5"/>
<text text-anchor="middle" x="59" y="-121.5" font-family="Helvetica,sans-Serif" font-size="10.00">compress_s_fx_ncob</text>
</a>
</g>
</g>
<!-- Node2 -->
<g id="node2" class="node">
<title>Node2</title>
<g id="a_node2"><a xlink:href="cmp__icu_8c_a68e2952d3ee5108ed25d85c0fe15cad9.html#a68e2952d3ee5108ed25d85c0fe15cad9" target="_top" xlink:title="compress the multi&#45;entry packet header structure and sets the data, model and up_model pointers to th...">
<polygon fill="white" stroke="black" points="154,-171.5 154,-190.5 300,-190.5 300,-171.5 154,-171.5"/>
<text text-anchor="middle" x="227" y="-178.5" font-family="Helvetica,sans-Serif" font-size="10.00">compress_multi_entry_hdr</text>
</a>
</g>
</g>
<!-- Node1&#45;&gt;Node2 -->
<g id="edge1" class="edge">
<title>Node1&#45;&gt;Node2</title>
<path fill="none" stroke="midnightblue" d="M81.37,-133.54C100.23,-141.74 128.61,-153.56 154,-162 161.16,-164.38 168.81,-166.67 176.34,-168.77"/>
<polygon fill="midnightblue" stroke="midnightblue" points="175.56,-172.19 186.12,-171.44 177.39,-165.43 175.56,-172.19"/>
</g>
<!-- Node3 -->
<g id="node3" class="node">
<title>Node3</title>
<g id="a_node3"><a xlink:href="cmp__icu_8c_a5434cde7ebe64a734bcd3029e0755d39.html#a5434cde7ebe64a734bcd3029e0755d39" target="_top" xlink:title="configure an encoder setup structure to have a setup to encode a vale">
<polygon fill="white" stroke="black" points="158,-133.5 158,-152.5 296,-152.5 296,-133.5 158,-133.5"/>
<text text-anchor="middle" x="227" y="-140.5" font-family="Helvetica,sans-Serif" font-size="10.00">configure_encoder_setup</text>
</a>
</g>
</g>
<!-- Node1&#45;&gt;Node3 -->
<g id="edge2" class="edge">
<title>Node1&#45;&gt;Node3</title>
<path fill="none" stroke="midnightblue" d="M118.06,-130.65C127.67,-131.74 137.76,-132.9 147.77,-134.05"/>
<polygon fill="midnightblue" stroke="midnightblue" points="147.39,-137.53 157.72,-135.19 148.18,-130.57 147.39,-137.53"/>
</g>
<!-- Node18 -->
<g id="node18" class="node">
<title>Node18</title>
<g id="a_node18"><a xlink:href="cmp__icu_8c_a5268c6512d945edcdc898cd1b2ca5396.html#a5268c6512d945edcdc898cd1b2ca5396" target="_top" xlink:title="encodes the data with the model and the given setup and put it into the bitstream">
<polygon fill="white" stroke="black" points="185,-95.5 185,-114.5 269,-114.5 269,-95.5 185,-95.5"/>
<text text-anchor="middle" x="227" y="-102.5" font-family="Helvetica,sans-Serif" font-size="10.00">encode_value</text>
</a>
</g>
</g>
<!-- Node1&#45;&gt;Node18 -->
<g id="edge22" class="edge">
<title>Node1&#45;&gt;Node18</title>
<path fill="none" stroke="midnightblue" d="M118.06,-117.35C136.59,-115.23 156.95,-112.9 174.94,-110.84"/>
<polygon fill="midnightblue" stroke="midnightblue" points="175.42,-114.31 184.95,-109.7 174.62,-107.36 175.42,-114.31"/>
</g>
<!-- Node19 -->
<g id="node19" class="node">
<title>Node19</title>
<g id="a_node19"><a xlink:href="cmp__support_8c_afba7806c424cfb8c7678c1b4cebdfcbb.html#afba7806c424cfb8c7678c1b4cebdfcbb" target="_top" xlink:title="check if a model mode is selected">
<polygon fill="white" stroke="black" points="166,-57.5 166,-76.5 288,-76.5 288,-57.5 166,-57.5"/>
<text text-anchor="middle" x="227" y="-64.5" font-family="Helvetica,sans-Serif" font-size="10.00">model_mode_is_used</text>
</a>
</g>
</g>
<!-- Node1&#45;&gt;Node19 -->
<g id="edge23" class="edge">
<title>Node1&#45;&gt;Node19</title>
<path fill="none" stroke="midnightblue" d="M81.37,-114.46C100.23,-106.26 128.61,-94.44 154,-86 161.16,-83.62 168.81,-81.33 176.34,-79.23"/>
<polygon fill="midnightblue" stroke="midnightblue" points="177.39,-82.57 186.12,-76.56 175.56,-75.81 177.39,-82.57"/>
</g>
<!-- Node4 -->
<g id="node4" class="node">
<title>Node4</title>
<g id="a_node4"><a xlink:href="cmp__icu_8c_a24f7f725d312368abff72e12ba0380c7.html#a24f7f725d312368abff72e12ba0380c7" target="_top" xlink:title="calculate the maximum length of the bitstream/icu_output_buf in bits">
<polygon fill="white" stroke="black" points="336,-294.5 336,-313.5 482,-313.5 482,-294.5 336,-294.5"/>
<text text-anchor="middle" x="409" y="-301.5" font-family="Helvetica,sans-Serif" font-size="10.00">cmp_buffer_length_to_bits</text>
</a>
</g>
</g>
<!-- Node3&#45;&gt;Node4 -->
<g id="edge3" class="edge">
<title>Node3&#45;&gt;Node4</title>
<path fill="none" stroke="midnightblue" d="M286.18,-152.66C291.23,-155.13 295.95,-158.19 300,-162 337.16,-196.96 301.98,-232.98 336,-271 343.44,-279.32 353.4,-285.68 363.53,-290.48"/>
<polygon fill="midnightblue" stroke="midnightblue" points="362.25,-293.74 372.82,-294.47 365.02,-287.31 362.25,-293.74"/>
</g>
<!-- Node8 -->
<g id="node8" class="node">
<title>Node8</title>
<g id="a_node8"><a xlink:href="cmp__icu_8c_aaea9e8cb11d380bb6a6c11020a7c77f9.html#aaea9e8cb11d380bb6a6c11020a7c77f9" target="_top" xlink:title="subtract the model from the data, encode the result and put it into bitstream, for encoding outlier u...">
<polygon fill="white" stroke="black" points="351.5,-152.5 351.5,-171.5 466.5,-171.5 466.5,-152.5 351.5,-152.5"/>
<text text-anchor="middle" x="409" y="-159.5" font-family="Helvetica,sans-Serif" font-size="10.00">encode_value_multi</text>
</a>
</g>
</g>
<!-- Node3&#45;&gt;Node8 -->
<g id="edge7" class="edge">
<title>Node3&#45;&gt;Node8</title>
<path fill="none" stroke="midnightblue" d="M296.05,-150.18C310.85,-151.75 326.5,-153.4 341.25,-154.95"/>
<polygon fill="midnightblue" stroke="midnightblue" points="340.99,-158.45 351.3,-156.01 341.72,-151.48 340.99,-158.45"/>
</g>
<!-- Node12 -->
<g id="node12" class="node">
<title>Node12</title>
<g id="a_node12"><a xlink:href="cmp__icu_8c_aa3eee2af4deb902d63df587a6a15af13.html#aa3eee2af4deb902d63df587a6a15af13" target="_top" xlink:title="put the value unencoded with setup&#45;&gt;cmp_par_1 bits without any changes in the bitstream">
<polygon fill="white" stroke="black" points="523.5,-261.5 523.5,-280.5 636.5,-280.5 636.5,-261.5 523.5,-261.5"/>
<text text-anchor="middle" x="580" y="-268.5" font-family="Helvetica,sans-Serif" font-size="10.00">encode_value_none</text>
</a>
</g>
</g>
<!-- Node3&#45;&gt;Node12 -->
<g id="edge12" class="edge">
<title>Node3&#45;&gt;Node12</title>
<path fill="none" stroke="midnightblue" d="M282.34,-152.54C288.63,-155 294.68,-158.1 300,-162 324.16,-179.72 311.43,-201.86 336,-219 388.16,-255.39 460.83,-267.11 513.09,-270.51"/>
<polygon fill="midnightblue" stroke="midnightblue" points="513.08,-274.02 523.26,-271.08 513.47,-267.03 513.08,-274.02"/>
</g>
<!-- Node13 -->
<g id="node13" class="node">
<title>Node13</title>
<g id="a_node13"><a xlink:href="cmp__icu_8c_a441be2f84e386657cc72dc61b7769ff1.html#a441be2f84e386657cc72dc61b7769ff1" target="_top" xlink:title="subtract the model from the data, encode the result and put it into bitstream, for encoding outlier u...">
<polygon fill="white" stroke="black" points="354,-190.5 354,-209.5 464,-209.5 464,-190.5 354,-190.5"/>
<text text-anchor="middle" x="409" y="-197.5" font-family="Helvetica,sans-Serif" font-size="10.00">encode_value_zero</text>
</a>
</g>
</g>
<!-- Node3&#45;&gt;Node13 -->
<g id="edge14" class="edge">
<title>Node3&#45;&gt;Node13</title>
<path fill="none" stroke="midnightblue" d="M270.77,-152.57C280.52,-155.22 290.73,-158.38 300,-162 316.86,-168.57 319.14,-174.43 336,-181 342.23,-183.43 348.88,-185.65 355.53,-187.66"/>
<polygon fill="midnightblue" stroke="midnightblue" points="354.65,-191.04 365.23,-190.43 356.57,-184.31 354.65,-191.04"/>
</g>
<!-- Node14 -->
<g id="node14" class="node">
<title>Node14</title>
<g id="a_node14"><a xlink:href="cmp__icu_8c_ad1becd97051927d20474767867ce34a7.html#ad1becd97051927d20474767867ce34a7" target="_top" xlink:title="forms a codeword according to the Golomb code">
<polygon fill="white" stroke="black" points="360,-114.5 360,-133.5 458,-133.5 458,-114.5 360,-114.5"/>
<text text-anchor="middle" x="409" y="-121.5" font-family="Helvetica,sans-Serif" font-size="10.00">golomb_encoder</text>
</a>
</g>
</g>
<!-- Node3&#45;&gt;Node14 -->
<g id="edge18" class="edge">
<title>Node3&#45;&gt;Node14</title>
<path fill="none" stroke="midnightblue" d="M296.05,-135.82C313.61,-133.96 332.36,-131.98 349.39,-130.19"/>
<polygon fill="midnightblue" stroke="midnightblue" points="350.17,-133.62 359.75,-129.09 349.44,-126.66 350.17,-133.62"/>
</g>
<!-- Node15 -->
<g id="node15" class="node">
<title>Node15</title>
<g id="a_node15"><a xlink:href="cmp__support_8c_a67b0e38ca0e68c282c89552daa61ffdf.html#a67b0e38ca0e68c282c89552daa61ffdf" target="_top" xlink:title="implementation of the logarithm base of floor(log2(x)) for integers">
<polygon fill="white" stroke="black" points="386,-76.5 386,-95.5 432,-95.5 432,-76.5 386,-76.5"/>
<text text-anchor="middle" x="409" y="-83.5" font-family="Helvetica,sans-Serif" font-size="10.00">ilog_2</text>
</a>
</g>
</g>
<!-- Node3&#45;&gt;Node15 -->
<g id="edge19" class="edge">
<title>Node3&#45;&gt;Node15</title>
<path fill="none" stroke="midnightblue" d="M270.77,-133.43C280.52,-130.78 290.73,-127.62 300,-124 316.86,-117.43 319.14,-111.57 336,-105 348.7,-100.05 363.16,-95.95 375.77,-92.84"/>
<polygon fill="midnightblue" stroke="midnightblue" points="376.92,-96.17 385.85,-90.47 375.31,-89.36 376.92,-96.17"/>
</g>
<!-- Node16 -->
<g id="node16" class="node">
<title>Node16</title>
<g id="a_node16"><a xlink:href="cmp__support_8c_a7831f21f8303058bcac76d42a4aa1c06.html#a7831f21f8303058bcac76d42a4aa1c06" target="_top" xlink:title="determining if an integer is a power of 2">
<polygon fill="white" stroke="black" points="365,-38.5 365,-57.5 453,-57.5 453,-38.5 365,-38.5"/>
<text text-anchor="middle" x="409" y="-45.5" font-family="Helvetica,sans-Serif" font-size="10.00">is_a_pow_of_2</text>
</a>
</g>
</g>
<!-- Node3&#45;&gt;Node16 -->
<g id="edge20" class="edge">
<title>Node3&#45;&gt;Node16</title>
<path fill="none" stroke="midnightblue" d="M282.34,-133.46C288.63,-131 294.68,-127.9 300,-124 324.16,-106.28 311.84,-84.72 336,-67 341.67,-62.84 348.19,-59.59 354.93,-57.05"/>
<polygon fill="midnightblue" stroke="midnightblue" points="356.47,-60.23 364.9,-53.82 354.31,-53.57 356.47,-60.23"/>
</g>
<!-- Node17 -->
<g id="node17" class="node">
<title>Node17</title>
<g id="a_node17"><a xlink:href="cmp__icu_8c_ad3bc9d18c24f7caeef7da35b9e389c19.html#ad3bc9d18c24f7caeef7da35b9e389c19" target="_top" xlink:title="forms the codeword according to the Rice code">
<polygon fill="white" stroke="black" points="369.5,-0.5 369.5,-19.5 448.5,-19.5 448.5,-0.5 369.5,-0.5"/>
<text text-anchor="middle" x="409" y="-7.5" font-family="Helvetica,sans-Serif" font-size="10.00">rice_encoder</text>
</a>
</g>
</g>
<!-- Node3&#45;&gt;Node17 -->
<g id="edge21" class="edge">
<title>Node3&#45;&gt;Node17</title>
<path fill="none" stroke="midnightblue" d="M285.3,-133.49C290.65,-131.01 295.68,-127.89 300,-124 333.55,-93.78 302.45,-59.22 336,-29 342.63,-23.03 350.92,-18.89 359.49,-16.04"/>
<polygon fill="midnightblue" stroke="midnightblue" points="360.52,-19.39 369.21,-13.34 358.64,-12.65 360.52,-19.39"/>
</g>
<!-- Node5 -->
<g id="node5" class="node">
<title>Node5</title>
<g id="a_node5"><a xlink:href="cmp__data__types_8c_aafa65f72ed4d0fb99beb11c37f11ce52.html#aafa65f72ed4d0fb99beb11c37f11ce52" target="_top" xlink:title="calculate the need bytes for the data">
<polygon fill="white" stroke="black" points="518,-299.5 518,-318.5 642,-318.5 642,-299.5 518,-299.5"/>
<text text-anchor="middle" x="580" y="-306.5" font-family="Helvetica,sans-Serif" font-size="10.00">cmp_cal_size_of_data</text>
</a>
</g>
</g>
<!-- Node4&#45;&gt;Node5 -->
<g id="edge4" class="edge">
<title>Node4&#45;&gt;Node5</title>
<path fill="none" stroke="midnightblue" d="M482.16,-306.13C490.64,-306.39 499.3,-306.64 507.77,-306.89"/>
<polygon fill="midnightblue" stroke="midnightblue" points="507.89,-310.4 517.98,-307.19 508.09,-303.4 507.89,-310.4"/>
</g>
<!-- Node6 -->
<g id="node6" class="node">
<title>Node6</title>
<g id="a_node6"><a xlink:href="cmp__support_8c_a9197caa657b3d84615c0d323dc96c502.html#a9197caa657b3d84615c0d323dc96c502" target="_top" xlink:title="check if the data product data type is supported by the RDCU compressor">
<polygon fill="white" stroke="black" points="678,-272 678,-302 797,-302 797,-272 678,-272"/>
<text text-anchor="start" x="686" y="-290" font-family="Helvetica,sans-Serif" font-size="10.00">rdcu_supported_data</text>
<text text-anchor="middle" x="737.5" y="-279" font-family="Helvetica,sans-Serif" font-size="10.00">_type_is_used</text>
</a>
</g>
</g>
<!-- Node5&#45;&gt;Node6 -->
<g id="edge5" class="edge">
<title>Node5&#45;&gt;Node6</title>
<path fill="none" stroke="midnightblue" d="M642.01,-300.37C650.51,-299.17 659.29,-297.92 667.92,-296.7"/>
<polygon fill="midnightblue" stroke="midnightblue" points="668.54,-300.15 677.95,-295.28 667.56,-293.22 668.54,-300.15"/>
</g>
<!-- Node7 -->
<g id="node7" class="node">
<title>Node7</title>
<g id="a_node7"><a xlink:href="cmp__data__types_8c_a0be8705b1dcc45f605abd8400dd5230b.html#a0be8705b1dcc45f605abd8400dd5230b" target="_top" xlink:title="calculate the size of a sample for the different compression data type">
<polygon fill="white" stroke="black" points="685.5,-321.5 685.5,-340.5 789.5,-340.5 789.5,-321.5 685.5,-321.5"/>
<text text-anchor="middle" x="737.5" y="-328.5" font-family="Helvetica,sans-Serif" font-size="10.00">size_of_a_sample</text>
</a>
</g>
</g>
<!-- Node5&#45;&gt;Node7 -->
<g id="edge6" class="edge">
<title>Node5&#45;&gt;Node7</title>
<path fill="none" stroke="midnightblue" d="M642.01,-317.63C652.84,-319.16 664.13,-320.76 674.98,-322.3"/>
<polygon fill="midnightblue" stroke="midnightblue" points="674.82,-325.81 685.21,-323.74 675.8,-318.88 674.82,-325.81"/>
</g>
<!-- Node9 -->
<g id="node9" class="node">
<title>Node9</title>
<g id="a_node9"><a xlink:href="cmp__icu_8c_a71aaf149c528b68d0c0ffc159acc0f98.html#a71aaf149c528b68d0c0ffc159acc0f98" target="_top" xlink:title="generate a code word without an outlier mechanism and put in the bitstream">
<polygon fill="white" stroke="black" points="534,-147.5 534,-166.5 626,-166.5 626,-147.5 534,-147.5"/>
<text text-anchor="middle" x="580" y="-154.5" font-family="Helvetica,sans-Serif" font-size="10.00">encode_normal</text>
</a>
</g>
</g>
<!-- Node8&#45;&gt;Node9 -->
<g id="edge8" class="edge">
<title>Node8&#45;&gt;Node9</title>
<path fill="none" stroke="midnightblue" d="M466.74,-160.32C485.11,-159.78 505.43,-159.18 523.69,-158.64"/>
<polygon fill="midnightblue" stroke="midnightblue" points="523.99,-162.13 533.88,-158.33 523.78,-155.13 523.99,-162.13"/>
</g>
<!-- Node10 -->
<g id="node10" class="node">
<title>Node10</title>
<g id="a_node10"><a xlink:href="cmp__icu_8c_afd32ccddf2e0986e9ff136ae55a11d35.html#afd32ccddf2e0986e9ff136ae55a11d35" target="_top" xlink:title="put the value of up to 32 bits into a big endian bitstream">
<polygon fill="white" stroke="black" points="698,-201.5 698,-220.5 777,-220.5 777,-201.5 698,-201.5"/>
<text text-anchor="middle" x="737.5" y="-208.5" font-family="Helvetica,sans-Serif" font-size="10.00">put_n_bits32</text>
</a>
</g>
</g>
<!-- Node8&#45;&gt;Node10 -->
<g id="edge11" class="edge">
<title>Node8&#45;&gt;Node10</title>
<path fill="none" stroke="midnightblue" d="M444.21,-152.39C465.29,-146.97 492.99,-140.75 518,-138 572.78,-131.99 589.84,-120.2 642,-138 674.33,-149.03 704.19,-176.1 721.37,-194"/>
<polygon fill="midnightblue" stroke="midnightblue" points="718.95,-196.54 728.33,-201.48 724.08,-191.78 718.95,-196.54"/>
</g>
<!-- Node11 -->
<g id="node11" class="node">
<title>Node11</title>
<g id="a_node11"><a xlink:href="cmp__icu_8c_a208c98e6a4b7423d5003ea0d1c3a4fe3.html#a208c98e6a4b7423d5003ea0d1c3a4fe3" target="_top" xlink:title="map a signed value into a positive value range">
<polygon fill="white" stroke="black" points="542,-185.5 542,-204.5 618,-204.5 618,-185.5 542,-185.5"/>
<text text-anchor="middle" x="580" y="-192.5" font-family="Helvetica,sans-Serif" font-size="10.00">map_to_pos</text>
</a>
</g>
</g>
<!-- Node8&#45;&gt;Node11 -->
<g id="edge10" class="edge">
<title>Node8&#45;&gt;Node11</title>
<path fill="none" stroke="midnightblue" d="M458.88,-171.54C481.79,-176.02 508.98,-181.33 531.69,-185.76"/>
<polygon fill="midnightblue" stroke="midnightblue" points="531.29,-189.25 541.77,-187.73 532.63,-182.38 531.29,-189.25"/>
</g>
<!-- Node9&#45;&gt;Node10 -->
<g id="edge9" class="edge">
<title>Node9&#45;&gt;Node10</title>
<path fill="none" stroke="midnightblue" d="M612.76,-166.55C622.21,-169.48 632.55,-172.78 642,-176 662.12,-182.85 684.43,-191.09 702.32,-197.84"/>
<polygon fill="midnightblue" stroke="midnightblue" points="701.17,-201.15 711.76,-201.43 703.65,-194.61 701.17,-201.15"/>
</g>
<!-- Node12&#45;&gt;Node10 -->
<g id="edge13" class="edge">
<title>Node12&#45;&gt;Node10</title>
<path fill="none" stroke="midnightblue" d="M605.64,-261.49C631.72,-251.43 673.08,-235.47 702.31,-224.19"/>
<polygon fill="midnightblue" stroke="midnightblue" points="703.65,-227.43 711.72,-220.56 701.13,-220.9 703.65,-227.43"/>
</g>
<!-- Node13&#45;&gt;Node9 -->
<g id="edge15" class="edge">
<title>Node13&#45;&gt;Node9</title>
<path fill="none" stroke="midnightblue" d="M447.51,-190.46C472.34,-184.14 505.11,-175.8 531.73,-169.03"/>
<polygon fill="midnightblue" stroke="midnightblue" points="532.77,-172.37 541.6,-166.52 531.04,-165.59 532.77,-172.37"/>
</g>
<!-- Node13&#45;&gt;Node10 -->
<g id="edge17" class="edge">
<title>Node13&#45;&gt;Node10</title>
<path fill="none" stroke="midnightblue" d="M464.26,-208.42C481.4,-210.71 500.45,-212.87 518,-214 573,-217.55 586.9,-214.87 642,-214 656.79,-213.77 672.88,-213.32 687.52,-212.85"/>
<polygon fill="midnightblue" stroke="midnightblue" points="688.01,-216.34 697.89,-212.5 687.77,-209.34 688.01,-216.34"/>
</g>
<!-- Node13&#45;&gt;Node11 -->
<g id="edge16" class="edge">
<title>Node13&#45;&gt;Node11</title>
<path fill="none" stroke="midnightblue" d="M464.4,-198.39C486.03,-197.75 510.68,-197.02 531.57,-196.4"/>
<polygon fill="midnightblue" stroke="midnightblue" points="531.91,-199.89 541.8,-196.1 531.7,-192.9 531.91,-199.89"/>
</g>
</g>
</svg>
        <g id="navigator" transform="translate(0 0)" fill="#404254">
                <rect fill="#f2f5e9" fill-opacity="0.5" stroke="#606060" stroke-width=".5" x="0" y="0" width="60" height="60"/>
                <use id="zoomplus" xlink:href="#zoomPlus" x="17" y="9" onmousedown="handleZoom(evt,'in')"/>
                <use id="zoomminus" xlink:href="#zoomMin" x="42" y="9" onmousedown="handleZoom(evt,'out')"/>
                <use id="reset" xlink:href="#resetDef" x="30" y="36" onmousedown="handleReset()"/>
                <g id="arrowUp" xlink:href="#dirArrow" transform="translate(30 24)" onmousedown="handlePan(0,-1)">
                  <use xlink:href="#rim" fill="#404040">
                        <set attributeName="fill" to="#808080" begin="arrowUp.mouseover" end="arrowUp.mouseout"/>
                  </use>
                  <path fill="none" stroke="white" stroke-width="1.5" d="M0,-3.0v7 M-2.5,-0.5L0,-3.0L2.5,-0.5"/>
                </g>
                <g id="arrowRight" xlink:href="#dirArrow" transform="rotate(90) translate(36 -43)" onmousedown="handlePan(1,0)">
                  <use xlink:href="#rim" fill="#404040">
                        <set attributeName="fill" to="#808080" begin="arrowRight.mouseover" end="arrowRight.mouseout"/>
                  </use>
                  <path fill="none" stroke="white" stroke-width="1.5" d="M0,-3.0v7 M-2.5,-0.5L0,-3.0L2.5,-0.5"/>
                </g>
                <g id="arrowDown" xlink:href="#dirArrow" transform="rotate(180) translate(-30 -48)" onmousedown="handlePan(0,1)">
                  <use xlink:href="#rim" fill="#404040">
                        <set attributeName="fill" to="#808080" begin="arrowDown.mouseover" end="arrowDown.mouseout"/>
                  </use>
                  <path fill="none" stroke="white" stroke-width="1.5" d="M0,-3.0v7 M-2.5,-0.5L0,-3.0L2.5,-0.5"/>
                </g>
                <g id="arrowLeft" xlink:href="#dirArrow" transform="rotate(270) translate(-36 17)" onmousedown="handlePan(-1,0)">
                  <use xlink:href="#rim" fill="#404040">
                        <set attributeName="fill" to="#808080" begin="arrowLeft.mouseover" end="arrowLeft.mouseout"/>
                  </use>
                  <path fill="none" stroke="white" stroke-width="1.5" d="M0,-3.0v7 M-2.5,-0.5L0,-3.0L2.5,-0.5"/>
                </g>
        </g>
        <svg viewBox="0 0 15 15" width="100%" height="30px" preserveAspectRatio="xMaxYMin meet">
         <g id="arrow_out" transform="scale(0.3 0.3)">
          <a xlink:href="cmp__icu_8c_a83109917c7706135b6138872f59efb27_a83109917c7706135b6138872f59efb27_cgraph_org.svg" target="_base">
           <rect id="button" ry="5" rx="5" y="6" x="6" height="38" width="38"
                fill="#f2f5e9" fill-opacity="0.5" stroke="#606060" stroke-width="1.0"/>
           <path id="arrow"
             d="M 11.500037,31.436501 C 11.940474,20.09759 22.043105,11.32322 32.158766,21.979434 L 37.068811,17.246167 C 37.068811,17.246167 37.088388,32 37.088388,32 L 22.160133,31.978069 C 22.160133,31.978069 26.997745,27.140456 26.997745,27.140456 C 18.528582,18.264221 13.291696,25.230495 11.500037,31.436501 z"
             style="fill:#404040;"/>
          </a>
         </g>
        </svg>
</svg>
