<?xml version="1.0" encoding="UTF-8" standalone="no"?>
<!DOCTYPE svg PUBLIC "-//W3C//DTD SVG 1.1//EN"
 "http://www.w3.org/Graphics/SVG/1.1/DTD/svg11.dtd">
<!-- Generated by graphviz version 2.43.0 (0)
 -->
<!-- Title: be_to_cpus_l_fx_efx_ncob_ecob Pages: 1 -->
<!--zoomable 1414 -->
<svg id="main" version="1.1" xmlns="http://www.w3.org/2000/svg" xmlns:xlink="http://www.w3.org/1999/xlink" xml:space="preserve" onload="init(evt)">
<style type="text/css"><![CDATA[
.edge:hover path { stroke: red; }
.edge:hover polygon { stroke: red; fill: red; }
]]></style>
<script type="text/javascript"><![CDATA[
var edges = document.getElementsByTagName('g');
if (edges && edges.length) {
  for (var i=0;i<edges.length;i++) {
    if (edges[i].id.substr(0,4)=='edge') {
      edges[i].setAttribute('class','edge');
    }
  }
}
]]></script>
        <defs>
                <circle id="rim" cx="0" cy="0" r="7"/>
                <circle id="rim2" cx="0" cy="0" r="3.5"/>
                <g id="zoomPlus">
                        <use xlink:href="#rim" fill="#404040">
                                <set attributeName="fill" to="#808080" begin="zoomplus.mouseover" end="zoomplus.mouseout"/>
                        </use>
                        <path d="M-4,0h8M0,-4v8" fill="none" stroke="white" stroke-width="1.5" pointer-events="none"/>
                </g>
                <g id="zoomMin">
                        <use xlink:href="#rim" fill="#404040">
                                <set attributeName="fill" to="#808080" begin="zoomminus.mouseover" end="zoomminus.mouseout"/>
                        </use>
                        <path d="M-4,0h8" fill="none" stroke="white" stroke-width="1.5" pointer-events="none"/>
                </g>
                <g id="dirArrow">
                        <path fill="none" stroke="white" stroke-width="1.5" d="M0,-3.0v7 M-2.5,-0.5L0,-3.0L2.5,-0.5"/>
                </g>
               <g id="resetDef">
                       <use xlink:href="#rim2" fill="#404040">
                               <set attributeName="fill" to="#808080" begin="reset.mouseover" end="reset.mouseout"/>
                       </use>
               </g>
        </defs>

<script type="text/javascript">
var viewWidth = 1067;
var viewHeight = 1414;
var sectionId = 'dynsection-1';
</script>
<script xlink:href="svgpan.js"/>
<svg id="graph" class="graph">
<g id="viewport">
<title>be_to_cpus_l_fx_efx_ncob_ecob</title>
<polygon fill="white" stroke="transparent" points="-4,4 -4,-1410 1063,-1410 1063,4 -4,4"/>
<!-- Node1 -->
<g id="node1" class="node">
<title>Node1</title>
<g id="a_node1"><a xlink:title=" ">
<polygon fill="#bfbfbf" stroke="black" points="943,-192 943,-222 1059,-222 1059,-192 943,-192"/>
<text text-anchor="start" x="951" y="-210" font-family="Helvetica,sans-Serif" font-size="10.00">be_to_cpus_l_fx_efx</text>
<text text-anchor="middle" x="1001" y="-199" font-family="Helvetica,sans-Serif" font-size="10.00">_ncob_ecob</text>
</a>
</g>
</g>
<!-- Node2 -->
<g id="node2" class="node">
<title>Node2</title>
<g id="a_node2"><a xlink:href="cmp__data__types_8c_ad3eb578679bedba931eb2efd5741a1f9.html#ad3eb578679bedba931eb2efd5741a1f9" target="_top" xlink:title="swap the endianness of uncompressed data form big endian to the cpu endianness (or the other way arou...">
<polygon fill="white" stroke="black" points="782,-192 782,-222 907,-222 907,-192 782,-192"/>
<text text-anchor="start" x="790" y="-210" font-family="Helvetica,sans-Serif" font-size="10.00">cmp_input_big_to_cpu</text>
<text text-anchor="middle" x="844.5" y="-199" font-family="Helvetica,sans-Serif" font-size="10.00">_endianness</text>
</a>
</g>
</g>
<!-- Node1&#45;&gt;Node2 -->
<g id="edge1" class="edge">
<title>Node1&#45;&gt;Node2</title>
<path fill="none" stroke="midnightblue" d="M932.63,-207C924.12,-207 915.44,-207 907.03,-207"/>
<polygon fill="midnightblue" stroke="midnightblue" points="932.91,-210.5 942.91,-207 932.91,-203.5 932.91,-210.5"/>
</g>
<!-- Node3 -->
<g id="node3" class="node">
<title>Node3</title>
<g id="a_node3"><a xlink:href="test__cmp__data__types_8c_a9e36ac4a6a8b853c10fa92ae05b676d8.html#a9e36ac4a6a8b853c10fa92ae05b676d8" target="_top" xlink:title=" ">
<polygon fill="white" stroke="black" points="605,-276.5 605,-295.5 711,-295.5 711,-276.5 605,-276.5"/>
<text text-anchor="middle" x="658" y="-283.5" font-family="Helvetica,sans-Serif" font-size="10.00">check_endianness</text>
</a>
</g>
</g>
<!-- Node2&#45;&gt;Node3 -->
<g id="edge2" class="edge">
<title>Node2&#45;&gt;Node3</title>
<path fill="none" stroke="midnightblue" d="M815.29,-227.91C796.51,-240.91 770.82,-256.99 746,-267 735.1,-271.39 723.01,-274.85 711.39,-277.55"/>
<polygon fill="midnightblue" stroke="midnightblue" points="817.5,-230.63 823.65,-222 813.47,-224.91 817.5,-230.63"/>
</g>
<!-- Node4 -->
<g id="node4" class="node">
<title>Node4</title>
<g id="a_node4"><a xlink:href="cmp__icu_8c_a3c348e2964c9f2727bda90514b5e28b2.html#a3c348e2964c9f2727bda90514b5e28b2" target="_top" xlink:title="change the endianness of the compressed data to big&#45;endian">
<polygon fill="white" stroke="black" points="589,-238.5 589,-257.5 727,-257.5 727,-238.5 589,-238.5"/>
<text text-anchor="middle" x="658" y="-245.5" font-family="Helvetica,sans-Serif" font-size="10.00">cmp_data_to_big_endian</text>
</a>
</g>
</g>
<!-- Node2&#45;&gt;Node4 -->
<g id="edge3" class="edge">
<title>Node2&#45;&gt;Node4</title>
<path fill="none" stroke="midnightblue" d="M771.83,-222.93C748.24,-228.17 722.76,-233.83 701.99,-238.45"/>
<polygon fill="midnightblue" stroke="midnightblue" points="772.81,-226.3 781.81,-220.71 771.29,-219.46 772.81,-226.3"/>
</g>
<!-- Node37 -->
<g id="node37" class="node">
<title>Node37</title>
<g id="a_node37"><a xlink:href="decmp_8c_a74c8bbd7b2130f44b6672e960475f4be.html#a74c8bbd7b2130f44b6672e960475f4be" target="_top" xlink:title="decompress the data based on a compression configuration">
<polygon fill="white" stroke="black" points="579,-197.5 579,-216.5 737,-216.5 737,-197.5 579,-197.5"/>
<text text-anchor="middle" x="658" y="-204.5" font-family="Helvetica,sans-Serif" font-size="10.00">decompressed_data_internal</text>
</a>
</g>
</g>
<!-- Node2&#45;&gt;Node37 -->
<g id="edge36" class="edge">
<title>Node2&#45;&gt;Node37</title>
<path fill="none" stroke="midnightblue" d="M771.55,-207C760.24,-207 748.49,-207 737.04,-207"/>
<polygon fill="midnightblue" stroke="midnightblue" points="771.81,-210.5 781.81,-207 771.81,-203.5 771.81,-210.5"/>
</g>
<!-- Node42 -->
<g id="node42" class="node">
<title>Node42</title>
<g id="a_node42"><a xlink:href="test__cmp__data__types_8c_a57b1a8435ebbafeae67c650d3af107ed.html#a57b1a8435ebbafeae67c650d3af107ed" target="_top" xlink:title=" ">
<polygon fill="white" stroke="black" points="600.5,-148 600.5,-178 715.5,-178 715.5,-148 600.5,-148"/>
<text text-anchor="start" x="608.5" y="-166" font-family="Helvetica,sans-Serif" font-size="10.00">test_cmp_input_big</text>
<text text-anchor="middle" x="658" y="-155" font-family="Helvetica,sans-Serif" font-size="10.00">_to_cpu_endianness</text>
</a>
</g>
</g>
<!-- Node2&#45;&gt;Node42 -->
<g id="edge45" class="edge">
<title>Node2&#45;&gt;Node42</title>
<path fill="none" stroke="midnightblue" d="M771.89,-189.92C753.24,-185.47 733.41,-180.75 715.66,-176.51"/>
<polygon fill="midnightblue" stroke="midnightblue" points="771.27,-193.37 781.81,-192.29 772.89,-186.56 771.27,-193.37"/>
</g>
<!-- Node43 -->
<g id="node43" class="node">
<title>Node43</title>
<g id="a_node43"><a xlink:href="test__cmp__data__types_8c_a38426f6ecabcea1beefdf4473c0810f5.html#a38426f6ecabcea1beefdf4473c0810f5" target="_top" xlink:title=" ">
<polygon fill="white" stroke="black" points="570,-99 570,-129 746,-129 746,-99 570,-99"/>
<text text-anchor="start" x="578" y="-117" font-family="Helvetica,sans-Serif" font-size="10.00">test_cmp_input_big</text>
<text text-anchor="middle" x="658" y="-106" font-family="Helvetica,sans-Serif" font-size="10.00">_to_cpu_endianness_error_cases</text>
</a>
</g>
</g>
<!-- Node2&#45;&gt;Node43 -->
<g id="edge46" class="edge">
<title>Node2&#45;&gt;Node43</title>
<path fill="none" stroke="midnightblue" d="M818.19,-185.36C799.36,-170.21 772.44,-150.53 746,-138 738.92,-134.65 731.29,-131.69 723.59,-129.09"/>
<polygon fill="midnightblue" stroke="midnightblue" points="816.04,-188.12 826,-191.74 820.47,-182.7 816.04,-188.12"/>
</g>
<!-- Node5 -->
<g id="node5" class="node">
<title>Node5</title>
<g id="a_node5"><a xlink:href="cmp__icu_8h_a08bf8ccacb449aba08db5e51d532d834.html#a08bf8ccacb449aba08db5e51d532d834" target="_top" xlink:title="compress data on the ICU in software">
<polygon fill="white" stroke="black" points="413,-715.5 413,-734.5 523,-734.5 523,-715.5 413,-715.5"/>
<text text-anchor="middle" x="468" y="-722.5" font-family="Helvetica,sans-Serif" font-size="10.00">icu_compress_data</text>
</a>
</g>
</g>
<!-- Node4&#45;&gt;Node5 -->
<g id="edge4" class="edge">
<title>Node4&#45;&gt;Node5</title>
<path fill="none" stroke="midnightblue" d="M579.71,-259.38C576.2,-261.55 572.93,-264.07 570,-267 503.14,-333.72 474.51,-655.66 469.73,-715.44"/>
<polygon fill="midnightblue" stroke="midnightblue" points="581.56,-262.36 588.86,-254.68 578.37,-256.14 581.56,-262.36"/>
</g>
<!-- Node36 -->
<g id="node36" class="node">
<title>Node36</title>
<g id="a_node36"><a xlink:href="test__cmp__icu_8c_a25ba91cfda8133f450e50ae3c84f1736.html#a25ba91cfda8133f450e50ae3c84f1736" target="_top" xlink:title=" ">
<polygon fill="white" stroke="black" points="406,-235 406,-265 530,-265 530,-235 406,-235"/>
<text text-anchor="start" x="414" y="-253" font-family="Helvetica,sans-Serif" font-size="10.00">test_cmp_data_to_big</text>
<text text-anchor="middle" x="468" y="-242" font-family="Helvetica,sans-Serif" font-size="10.00">_endian_error_cases</text>
</a>
</g>
</g>
<!-- Node4&#45;&gt;Node36 -->
<g id="edge35" class="edge">
<title>Node4&#45;&gt;Node36</title>
<path fill="none" stroke="midnightblue" d="M578.83,-248.83C562.54,-249 545.61,-249.19 530.05,-249.35"/>
<polygon fill="midnightblue" stroke="midnightblue" points="578.9,-252.33 588.86,-248.72 578.83,-245.33 578.9,-252.33"/>
</g>
<!-- Node6 -->
<g id="node6" class="node">
<title>Node6</title>
<g id="a_node6"><a xlink:href="test__cmp__decmp_8c_a50ba26014079160ca77b7d7fa76ce0f4.html#a50ba26014079160ca77b7d7fa76ce0f4" target="_top" xlink:title="compress the given configuration and decompress it afterwards; finally compare the results">
<polygon fill="white" stroke="black" points="195,-152.5 195,-171.5 353,-171.5 353,-152.5 195,-152.5"/>
<text text-anchor="middle" x="274" y="-159.5" font-family="Helvetica,sans-Serif" font-size="10.00">compression_decompression</text>
</a>
</g>
</g>
<!-- Node5&#45;&gt;Node6 -->
<g id="edge5" class="edge">
<title>Node5&#45;&gt;Node6</title>
<path fill="none" stroke="midnightblue" d="M464.66,-705.48C453.37,-612.89 403.61,-220.85 366,-182 361.95,-177.82 357.24,-174.41 352.13,-171.65"/>
<polygon fill="midnightblue" stroke="midnightblue" points="461.19,-705.95 465.86,-715.45 468.14,-705.11 461.19,-705.95"/>
</g>
<!-- Node8 -->
<g id="node8" class="node">
<title>Node8</title>
<g id="a_node8"><a xlink:href="test__decmp_8c_a2d642d4d482b9ec7eca4568a95f5bdd4.html#a2d642d4d482b9ec7eca4568a95f5bdd4" target="_top" xlink:title=" ">
<polygon fill="white" stroke="black" points="202,-240.5 202,-259.5 346,-259.5 346,-240.5 202,-240.5"/>
<text text-anchor="middle" x="274" y="-247.5" font-family="Helvetica,sans-Serif" font-size="10.00">icu_compress_data_entity</text>
</a>
</g>
</g>
<!-- Node5&#45;&gt;Node8 -->
<g id="edge7" class="edge">
<title>Node5&#45;&gt;Node8</title>
<path fill="none" stroke="midnightblue" d="M465.37,-704.97C458.48,-625.43 429.19,-333.06 366,-270 360.39,-264.4 353.59,-260.21 346.27,-257.1"/>
<polygon fill="midnightblue" stroke="midnightblue" points="461.9,-705.44 466.22,-715.11 468.87,-704.85 461.9,-705.44"/>
</g>
<!-- Node10 -->
<g id="node10" class="node">
<title>Node10</title>
<g id="a_node10"><a xlink:href="test__decmp_8c_a6e7a5e150e2c829836db3c42cdec2eec.html#a6e7a5e150e2c829836db3c42cdec2eec" target="_top" xlink:title=" ">
<polygon fill="white" stroke="black" points="182,-114.5 182,-133.5 366,-133.5 366,-114.5 182,-114.5"/>
<text text-anchor="middle" x="274" y="-121.5" font-family="Helvetica,sans-Serif" font-size="10.00">test_cmp_decmp_n_imagette_raw</text>
</a>
</g>
</g>
<!-- Node5&#45;&gt;Node10 -->
<g id="edge9" class="edge">
<title>Node5&#45;&gt;Node10</title>
<path fill="none" stroke="midnightblue" d="M464.19,-705.11C450,-605.4 386.22,-163.92 366,-143 362.41,-139.29 358.3,-136.2 353.85,-133.65"/>
<polygon fill="midnightblue" stroke="midnightblue" points="460.76,-705.89 465.63,-715.3 467.69,-704.9 460.76,-705.89"/>
</g>
<!-- Node11 -->
<g id="node11" class="node">
<title>Node11</title>
<g id="a_node11"><a xlink:href="test__cmp__icu_8c_aca32c7d039600004c9cc5c6fe19b8ec5.html#aca32c7d039600004c9cc5c6fe19b8ec5" target="_top" xlink:title=" ">
<polygon fill="white" stroke="black" points="199,-612 199,-642 349,-642 349,-612 199,-612"/>
<text text-anchor="start" x="207" y="-630" font-family="Helvetica,sans-Serif" font-size="10.00">test_compress_background</text>
<text text-anchor="middle" x="274" y="-619" font-family="Helvetica,sans-Serif" font-size="10.00">_error_cases</text>
</a>
</g>
</g>
<!-- Node5&#45;&gt;Node11 -->
<g id="edge10" class="edge">
<title>Node5&#45;&gt;Node11</title>
<path fill="none" stroke="midnightblue" d="M448.63,-708.57C429.32,-692.1 397.44,-667.07 366,-652 358.17,-648.25 349.68,-644.98 341.14,-642.15"/>
<polygon fill="midnightblue" stroke="midnightblue" points="446.49,-711.35 456.33,-715.26 451.08,-706.06 446.49,-711.35"/>
</g>
<!-- Node12 -->
<g id="node12" class="node">
<title>Node12</title>
<g id="a_node12"><a xlink:href="test__cmp__icu_8c_a64b46c032fdef8789190209bd9c3c49b.html#a64b46c032fdef8789190209bd9c3c49b" target="_top" xlink:title=" ">
<polygon fill="white" stroke="black" points="218,-563 218,-593 330,-593 330,-563 218,-563"/>
<text text-anchor="start" x="226" y="-581" font-family="Helvetica,sans-Serif" font-size="10.00">test_compress_f_fx</text>
<text text-anchor="middle" x="274" y="-570" font-family="Helvetica,sans-Serif" font-size="10.00">_efx_error_cases</text>
</a>
</g>
</g>
<!-- Node5&#45;&gt;Node12 -->
<g id="edge11" class="edge">
<title>Node5&#45;&gt;Node12</title>
<path fill="none" stroke="midnightblue" d="M456.78,-706.59C440.91,-679.7 407.75,-629.98 366,-603 355.27,-596.06 342.63,-591.03 330.24,-587.39"/>
<polygon fill="midnightblue" stroke="midnightblue" points="453.82,-708.45 461.83,-715.37 459.88,-704.96 453.82,-708.45"/>
</g>
<!-- Node13 -->
<g id="node13" class="node">
<title>Node13</title>
<g id="a_node13"><a xlink:href="test__cmp__icu_8c_acd4ce1f38ffbf0d6258b81668836d96b.html#acd4ce1f38ffbf0d6258b81668836d96b" target="_top" xlink:title=" ">
<polygon fill="white" stroke="black" points="218,-514 218,-544 330,-544 330,-514 218,-514"/>
<text text-anchor="start" x="226" y="-532" font-family="Helvetica,sans-Serif" font-size="10.00">test_compress_f_fx</text>
<text text-anchor="middle" x="274" y="-521" font-family="Helvetica,sans-Serif" font-size="10.00">_efx_ncob_ecob</text>
</a>
</g>
</g>
<!-- Node5&#45;&gt;Node13 -->
<g id="edge12" class="edge">
<title>Node5&#45;&gt;Node13</title>
<path fill="none" stroke="midnightblue" d="M460.93,-705.38C448.86,-669.67 418.38,-594.04 366,-554 355.59,-546.04 342.8,-540.61 330.13,-536.91"/>
<polygon fill="midnightblue" stroke="midnightblue" points="457.67,-706.67 464.09,-715.1 464.33,-704.51 457.67,-706.67"/>
</g>
<!-- Node14 -->
<g id="node14" class="node">
<title>Node14</title>
<g id="a_node14"><a xlink:href="test__cmp__icu_8c_a5fdfb76e3f52d4283fdcbf5e05ac7dd9.html#a5fdfb76e3f52d4283fdcbf5e05ac7dd9" target="_top" xlink:title=" ">
<polygon fill="white" stroke="black" points="218,-465 218,-495 330,-495 330,-465 218,-465"/>
<text text-anchor="start" x="226" y="-483" font-family="Helvetica,sans-Serif" font-size="10.00">test_compress_f_fx</text>
<text text-anchor="middle" x="274" y="-472" font-family="Helvetica,sans-Serif" font-size="10.00">_error_cases</text>
</a>
</g>
</g>
<!-- Node5&#45;&gt;Node14 -->
<g id="edge13" class="edge">
<title>Node5&#45;&gt;Node14</title>
<path fill="none" stroke="midnightblue" d="M463.71,-705.32C455.46,-662.26 429.8,-559.2 366,-505 355.89,-496.41 343.06,-490.75 330.26,-487.03"/>
<polygon fill="midnightblue" stroke="midnightblue" points="460.3,-706.13 465.52,-715.35 467.19,-704.89 460.3,-706.13"/>
</g>
<!-- Node15 -->
<g id="node15" class="node">
<title>Node15</title>
<g id="a_node15"><a xlink:href="test__cmp__icu_8c_ad6a880fe71de66a8a98a3f97d9e736da.html#ad6a880fe71de66a8a98a3f97d9e736da" target="_top" xlink:title=" ">
<polygon fill="white" stroke="black" points="218,-416 218,-446 330,-446 330,-416 218,-416"/>
<text text-anchor="start" x="226" y="-434" font-family="Helvetica,sans-Serif" font-size="10.00">test_compress_f_fx</text>
<text text-anchor="middle" x="274" y="-423" font-family="Helvetica,sans-Serif" font-size="10.00">_ncob_error_cases</text>
</a>
</g>
</g>
<!-- Node5&#45;&gt;Node15 -->
<g id="edge14" class="edge">
<title>Node5&#45;&gt;Node15</title>
<path fill="none" stroke="midnightblue" d="M465.57,-705.46C460.86,-656 441.54,-524.95 366,-456 356.08,-446.94 343.18,-441.12 330.22,-437.4"/>
<polygon fill="midnightblue" stroke="midnightblue" points="462.08,-705.79 466.42,-715.46 469.06,-705.2 462.08,-705.79"/>
</g>
<!-- Node16 -->
<g id="node16" class="node">
<title>Node16</title>
<g id="a_node16"><a xlink:href="test__cmp__icu_8c_a99545cc4ea3f1aa22be006d201e43f6d.html#a99545cc4ea3f1aa22be006d201e43f6d" target="_top" xlink:title=" ">
<polygon fill="white" stroke="black" points="195,-377.5 195,-396.5 353,-396.5 353,-377.5 195,-377.5"/>
<text text-anchor="middle" x="274" y="-384.5" font-family="Helvetica,sans-Serif" font-size="10.00">test_compress_imagette_diff</text>
</a>
</g>
</g>
<!-- Node5&#45;&gt;Node16 -->
<g id="edge15" class="edge">
<title>Node5&#45;&gt;Node16</title>
<path fill="none" stroke="midnightblue" d="M467.08,-705.13C466.16,-649.11 455.47,-488.66 366,-407 361.34,-402.75 355.99,-399.33 350.26,-396.58"/>
<polygon fill="midnightblue" stroke="midnightblue" points="463.58,-705.46 467.15,-715.44 470.58,-705.41 463.58,-705.46"/>
</g>
<!-- Node17 -->
<g id="node17" class="node">
<title>Node17</title>
<g id="a_node17"><a xlink:href="test__cmp__icu_8c_a960bb1de38c5e353aa1d1d2fb25435e8.html#a960bb1de38c5e353aa1d1d2fb25435e8" target="_top" xlink:title=" ">
<polygon fill="white" stroke="black" points="205.5,-328 205.5,-358 342.5,-358 342.5,-328 205.5,-328"/>
<text text-anchor="start" x="213.5" y="-346" font-family="Helvetica,sans-Serif" font-size="10.00">test_compress_imagette</text>
<text text-anchor="middle" x="274" y="-335" font-family="Helvetica,sans-Serif" font-size="10.00">_error_cases</text>
</a>
</g>
</g>
<!-- Node5&#45;&gt;Node17 -->
<g id="edge16" class="edge">
<title>Node5&#45;&gt;Node17</title>
<path fill="none" stroke="midnightblue" d="M467.67,-705.01C468.55,-644.88 462.65,-463.92 366,-368 359.49,-361.54 351.47,-356.71 342.92,-353.1"/>
<polygon fill="midnightblue" stroke="midnightblue" points="464.16,-705.28 467.43,-715.36 471.16,-705.45 464.16,-705.28"/>
</g>
<!-- Node18 -->
<g id="node18" class="node">
<title>Node18</title>
<g id="a_node18"><a xlink:href="test__cmp__icu_8c_a7c1162f048c55a098b4e6c1d9a0a884e.html#a7c1162f048c55a098b4e6c1d9a0a884e" target="_top" xlink:title=" ">
<polygon fill="white" stroke="black" points="205.5,-279 205.5,-309 342.5,-309 342.5,-279 205.5,-279"/>
<text text-anchor="start" x="213.5" y="-297" font-family="Helvetica,sans-Serif" font-size="10.00">test_compress_imagette</text>
<text text-anchor="middle" x="274" y="-286" font-family="Helvetica,sans-Serif" font-size="10.00">_model</text>
</a>
</g>
</g>
<!-- Node5&#45;&gt;Node18 -->
<g id="edge17" class="edge">
<title>Node5&#45;&gt;Node18</title>
<path fill="none" stroke="midnightblue" d="M464.68,-704.89C455.76,-630.98 421.38,-375.74 366,-319 359.48,-312.32 351.35,-307.37 342.65,-303.72"/>
<polygon fill="midnightblue" stroke="midnightblue" points="461.24,-705.62 465.89,-715.14 468.19,-704.79 461.24,-705.62"/>
</g>
<!-- Node19 -->
<g id="node19" class="node">
<title>Node19</title>
<g id="a_node19"><a xlink:href="test__cmp__icu_8c_a390abe2bb7591a75050558bdd4476593.html#a390abe2bb7591a75050558bdd4476593" target="_top" xlink:title=" ">
<polygon fill="white" stroke="black" points="193.5,-1386.5 193.5,-1405.5 354.5,-1405.5 354.5,-1386.5 193.5,-1386.5"/>
<text text-anchor="middle" x="274" y="-1393.5" font-family="Helvetica,sans-Serif" font-size="10.00">test_compress_imagette_raw</text>
</a>
</g>
</g>
<!-- Node5&#45;&gt;Node19 -->
<g id="edge18" class="edge">
<title>Node5&#45;&gt;Node19</title>
<path fill="none" stroke="midnightblue" d="M466.85,-744.56C465.69,-842.94 455.51,-1282.7 366,-1377 362.44,-1380.75 358.36,-1383.85 353.92,-1386.42"/>
<polygon fill="midnightblue" stroke="midnightblue" points="470.35,-744.56 466.95,-734.52 463.35,-744.49 470.35,-744.56"/>
</g>
<!-- Node20 -->
<g id="node20" class="node">
<title>Node20</title>
<g id="a_node20"><a xlink:href="test__cmp__icu_8c_a3c859fa9247c65ae7a43e2bd682448e2.html#a3c859fa9247c65ae7a43e2bd682448e2" target="_top" xlink:title=" ">
<polygon fill="white" stroke="black" points="205.5,-1337 205.5,-1367 342.5,-1367 342.5,-1337 205.5,-1337"/>
<text text-anchor="start" x="213.5" y="-1355" font-family="Helvetica,sans-Serif" font-size="10.00">test_compress_imagette</text>
<text text-anchor="middle" x="274" y="-1344" font-family="Helvetica,sans-Serif" font-size="10.00">_stuff</text>
</a>
</g>
</g>
<!-- Node5&#45;&gt;Node20 -->
<g id="edge19" class="edge">
<title>Node5&#45;&gt;Node20</title>
<path fill="none" stroke="midnightblue" d="M466.48,-744.76C463.6,-838.73 446.68,-1239.54 366,-1328 359.61,-1335 351.45,-1340.06 342.64,-1343.7"/>
<polygon fill="midnightblue" stroke="midnightblue" points="469.98,-744.74 466.77,-734.65 462.98,-744.54 469.98,-744.74"/>
</g>
<!-- Node21 -->
<g id="node21" class="node">
<title>Node21</title>
<g id="a_node21"><a xlink:href="test__cmp__icu_8c_a4d05bd6cb0b420d45886997161470259.html#a4d05bd6cb0b420d45886997161470259" target="_top" xlink:title=" ">
<polygon fill="white" stroke="black" points="218.5,-1288 218.5,-1318 329.5,-1318 329.5,-1288 218.5,-1288"/>
<text text-anchor="start" x="226.5" y="-1306" font-family="Helvetica,sans-Serif" font-size="10.00">test_compress_l_fx</text>
<text text-anchor="middle" x="274" y="-1295" font-family="Helvetica,sans-Serif" font-size="10.00">_efx_error_cases</text>
</a>
</g>
</g>
<!-- Node5&#45;&gt;Node21 -->
<g id="edge20" class="edge">
<title>Node5&#45;&gt;Node21</title>
<path fill="none" stroke="midnightblue" d="M466.16,-744.83C461.95,-834.19 440.43,-1198.57 366,-1279 356.57,-1289.19 343.37,-1295.26 329.94,-1298.83"/>
<polygon fill="midnightblue" stroke="midnightblue" points="469.66,-744.86 466.61,-734.71 462.67,-744.54 469.66,-744.86"/>
</g>
<!-- Node22 -->
<g id="node22" class="node">
<title>Node22</title>
<g id="a_node22"><a xlink:href="test__cmp__icu_8c_a0d3532f9e6f2e6e0c4392049e06c627f.html#a0d3532f9e6f2e6e0c4392049e06c627f" target="_top" xlink:title=" ">
<polygon fill="white" stroke="black" points="196,-1239 196,-1269 352,-1269 352,-1239 196,-1239"/>
<text text-anchor="start" x="204" y="-1257" font-family="Helvetica,sans-Serif" font-size="10.00">test_compress_l_fx</text>
<text text-anchor="middle" x="274" y="-1246" font-family="Helvetica,sans-Serif" font-size="10.00">_efx_ncob_ecob_error_cases</text>
</a>
</g>
</g>
<!-- Node5&#45;&gt;Node22 -->
<g id="edge21" class="edge">
<title>Node5&#45;&gt;Node22</title>
<path fill="none" stroke="midnightblue" d="M465.79,-744.66C460.2,-828.8 434.26,-1157.49 366,-1230 361.97,-1234.28 357.27,-1237.84 352.18,-1240.78"/>
<polygon fill="midnightblue" stroke="midnightblue" points="469.28,-744.86 466.43,-734.66 462.29,-744.41 469.28,-744.86"/>
</g>
<!-- Node23 -->
<g id="node23" class="node">
<title>Node23</title>
<g id="a_node23"><a xlink:href="test__cmp__icu_8c_a13a2a26bd2eac1bd622925c6dcfbfb2d.html#a13a2a26bd2eac1bd622925c6dcfbfb2d" target="_top" xlink:title=" ">
<polygon fill="white" stroke="black" points="218.5,-1190 218.5,-1220 329.5,-1220 329.5,-1190 218.5,-1190"/>
<text text-anchor="start" x="226.5" y="-1208" font-family="Helvetica,sans-Serif" font-size="10.00">test_compress_l_fx</text>
<text text-anchor="middle" x="274" y="-1197" font-family="Helvetica,sans-Serif" font-size="10.00">_error_cases</text>
</a>
</g>
</g>
<!-- Node5&#45;&gt;Node23 -->
<g id="edge22" class="edge">
<title>Node5&#45;&gt;Node23</title>
<path fill="none" stroke="midnightblue" d="M465.3,-745C458.15,-824.43 427.98,-1116.5 366,-1181 356.38,-1191.01 343.11,-1197.02 329.69,-1200.59"/>
<polygon fill="midnightblue" stroke="midnightblue" points="468.8,-745.14 466.19,-734.87 461.83,-744.53 468.8,-745.14"/>
</g>
<!-- Node24 -->
<g id="node24" class="node">
<title>Node24</title>
<g id="a_node24"><a xlink:href="test__cmp__icu_8c_ab725960063dc032566560118d582b79e.html#ab725960063dc032566560118d582b79e" target="_top" xlink:title=" ">
<polygon fill="white" stroke="black" points="218.5,-1141 218.5,-1171 329.5,-1171 329.5,-1141 218.5,-1141"/>
<text text-anchor="start" x="226.5" y="-1159" font-family="Helvetica,sans-Serif" font-size="10.00">test_compress_l_fx</text>
<text text-anchor="middle" x="274" y="-1148" font-family="Helvetica,sans-Serif" font-size="10.00">_ncob_error_cases</text>
</a>
</g>
</g>
<!-- Node5&#45;&gt;Node24 -->
<g id="edge23" class="edge">
<title>Node5&#45;&gt;Node24</title>
<path fill="none" stroke="midnightblue" d="M464.76,-744.7C456.03,-818.22 421.9,-1075.27 366,-1132 356.25,-1141.89 342.94,-1147.86 329.52,-1151.42"/>
<polygon fill="midnightblue" stroke="midnightblue" points="468.27,-744.87 465.95,-734.53 461.31,-744.06 468.27,-744.87"/>
</g>
<!-- Node25 -->
<g id="node25" class="node">
<title>Node25</title>
<g id="a_node25"><a xlink:href="test__cmp__icu_8c_a13bf5ba0481601697942a0a485f7631c.html#a13bf5ba0481601697942a0a485f7631c" target="_top" xlink:title=" ">
<polygon fill="white" stroke="black" points="213.5,-1092 213.5,-1122 334.5,-1122 334.5,-1092 213.5,-1092"/>
<text text-anchor="start" x="221.5" y="-1110" font-family="Helvetica,sans-Serif" font-size="10.00">test_compress_offset</text>
<text text-anchor="middle" x="274" y="-1099" font-family="Helvetica,sans-Serif" font-size="10.00">_error_cases</text>
</a>
</g>
</g>
<!-- Node5&#45;&gt;Node25 -->
<g id="edge24" class="edge">
<title>Node5&#45;&gt;Node25</title>
<path fill="none" stroke="midnightblue" d="M467.73,-744.72C468.82,-804.76 463.56,-987.09 366,-1083 357.38,-1091.48 346.14,-1097.06 334.51,-1100.71"/>
<polygon fill="midnightblue" stroke="midnightblue" points="471.23,-744.59 467.46,-734.69 464.23,-744.78 471.23,-744.59"/>
</g>
<!-- Node26 -->
<g id="node26" class="node">
<title>Node26</title>
<g id="a_node26"><a xlink:href="test__cmp__icu_8c_a28f0f3239f94a5d75189300dd3ed35fc.html#a28f0f3239f94a5d75189300dd3ed35fc" target="_top" xlink:title=" ">
<polygon fill="white" stroke="black" points="217.5,-1043 217.5,-1073 330.5,-1073 330.5,-1043 217.5,-1043"/>
<text text-anchor="start" x="225.5" y="-1061" font-family="Helvetica,sans-Serif" font-size="10.00">test_compress_s_fx</text>
<text text-anchor="middle" x="274" y="-1050" font-family="Helvetica,sans-Serif" font-size="10.00">_efx_error_cases</text>
</a>
</g>
</g>
<!-- Node5&#45;&gt;Node26 -->
<g id="edge25" class="edge">
<title>Node5&#45;&gt;Node26</title>
<path fill="none" stroke="midnightblue" d="M466.69,-744.87C464.72,-799.52 451.46,-953.36 366,-1034 356.37,-1043.08 343.73,-1048.82 330.94,-1052.42"/>
<polygon fill="midnightblue" stroke="midnightblue" points="470.19,-744.86 466.96,-734.77 463.19,-744.68 470.19,-744.86"/>
</g>
<!-- Node27 -->
<g id="node27" class="node">
<title>Node27</title>
<g id="a_node27"><a xlink:href="test__cmp__icu_8c_a90fd6057131bbf0c9b398c9c99bea3f2.html#a90fd6057131bbf0c9b398c9c99bea3f2" target="_top" xlink:title=" ">
<polygon fill="white" stroke="black" points="196,-994 196,-1024 352,-1024 352,-994 196,-994"/>
<text text-anchor="start" x="204" y="-1012" font-family="Helvetica,sans-Serif" font-size="10.00">test_compress_s_fx</text>
<text text-anchor="middle" x="274" y="-1001" font-family="Helvetica,sans-Serif" font-size="10.00">_efx_ncob_ecob_error_cases</text>
</a>
</g>
</g>
<!-- Node5&#45;&gt;Node27 -->
<g id="edge26" class="edge">
<title>Node5&#45;&gt;Node27</title>
<path fill="none" stroke="midnightblue" d="M465.32,-744.58C460.09,-793 439.72,-919.15 366,-985 361.86,-988.7 357.21,-991.84 352.26,-994.51"/>
<polygon fill="midnightblue" stroke="midnightblue" points="468.82,-744.8 466.31,-734.51 461.85,-744.12 468.82,-744.8"/>
</g>
<!-- Node28 -->
<g id="node28" class="node">
<title>Node28</title>
<g id="a_node28"><a xlink:href="test__cmp__icu_8c_aa29971f14aa8c01058cf5884ccfb0b46.html#aa29971f14aa8c01058cf5884ccfb0b46" target="_top" xlink:title=" ">
<polygon fill="white" stroke="black" points="217.5,-945 217.5,-975 330.5,-975 330.5,-945 217.5,-945"/>
<text text-anchor="start" x="225.5" y="-963" font-family="Helvetica,sans-Serif" font-size="10.00">test_compress_s_fx</text>
<text text-anchor="middle" x="274" y="-952" font-family="Helvetica,sans-Serif" font-size="10.00">_error_cases</text>
</a>
</g>
</g>
<!-- Node5&#45;&gt;Node28 -->
<g id="edge27" class="edge">
<title>Node5&#45;&gt;Node28</title>
<path fill="none" stroke="midnightblue" d="M463.32,-744.78C454.46,-786.69 427.92,-884.78 366,-936 355.93,-944.33 343.26,-949.8 330.61,-953.38"/>
<polygon fill="midnightblue" stroke="midnightblue" points="466.8,-745.24 465.32,-734.75 459.93,-743.87 466.8,-745.24"/>
</g>
<!-- Node29 -->
<g id="node29" class="node">
<title>Node29</title>
<g id="a_node29"><a xlink:href="test__cmp__icu_8c_afa54c8348f46913b7c39517424f7e547.html#afa54c8348f46913b7c39517424f7e547" target="_top" xlink:title=" ">
<polygon fill="white" stroke="black" points="217.5,-896 217.5,-926 330.5,-926 330.5,-896 217.5,-896"/>
<text text-anchor="start" x="225.5" y="-914" font-family="Helvetica,sans-Serif" font-size="10.00">test_compress_s_fx</text>
<text text-anchor="middle" x="274" y="-903" font-family="Helvetica,sans-Serif" font-size="10.00">_model_multi</text>
</a>
</g>
</g>
<!-- Node5&#45;&gt;Node29 -->
<g id="edge28" class="edge">
<title>Node5&#45;&gt;Node29</title>
<path fill="none" stroke="midnightblue" d="M460.32,-744.57C447.6,-778.87 416.54,-849.72 366,-887 355.74,-894.57 343.29,-899.75 330.93,-903.3"/>
<polygon fill="midnightblue" stroke="midnightblue" points="463.74,-745.4 463.81,-734.81 457.15,-743.05 463.74,-745.4"/>
</g>
<!-- Node30 -->
<g id="node30" class="node">
<title>Node30</title>
<g id="a_node30"><a xlink:href="test__cmp__icu_8c_a70a6d23f621dd0ce0ffb110b9c77116f.html#a70a6d23f621dd0ce0ffb110b9c77116f" target="_top" xlink:title=" ">
<polygon fill="white" stroke="black" points="217.5,-847 217.5,-877 330.5,-877 330.5,-847 217.5,-847"/>
<text text-anchor="start" x="225.5" y="-865" font-family="Helvetica,sans-Serif" font-size="10.00">test_compress_s_fx</text>
<text text-anchor="middle" x="274" y="-854" font-family="Helvetica,sans-Serif" font-size="10.00">_ncob_error_cases</text>
</a>
</g>
</g>
<!-- Node5&#45;&gt;Node30 -->
<g id="edge29" class="edge">
<title>Node5&#45;&gt;Node30</title>
<path fill="none" stroke="midnightblue" d="M455.45,-743.32C438.76,-768.27 405.52,-812.63 366,-837 355.26,-843.62 342.75,-848.52 330.5,-852.14"/>
<polygon fill="midnightblue" stroke="midnightblue" points="458.48,-745.08 461.01,-734.79 452.62,-741.25 458.48,-745.08"/>
</g>
<!-- Node31 -->
<g id="node31" class="node">
<title>Node31</title>
<g id="a_node31"><a xlink:href="test__cmp__icu_8c_ab9f5f00613d43e2b46aa130d472674cb.html#ab9f5f00613d43e2b46aa130d472674cb" target="_top" xlink:title=" ">
<polygon fill="white" stroke="black" points="205.5,-808.5 205.5,-827.5 342.5,-827.5 342.5,-808.5 205.5,-808.5"/>
<text text-anchor="middle" x="274" y="-815.5" font-family="Helvetica,sans-Serif" font-size="10.00">test_compress_s_fx_raw</text>
</a>
</g>
</g>
<!-- Node5&#45;&gt;Node31 -->
<g id="edge30" class="edge">
<title>Node5&#45;&gt;Node31</title>
<path fill="none" stroke="midnightblue" d="M449.47,-741.53C430.42,-758.56 398.35,-784.59 366,-799 357.3,-802.87 347.78,-805.97 338.27,-808.45"/>
<polygon fill="midnightblue" stroke="midnightblue" points="452.01,-743.95 457.04,-734.62 447.29,-738.78 452.01,-743.95"/>
</g>
<!-- Node32 -->
<g id="node32" class="node">
<title>Node32</title>
<g id="a_node32"><a xlink:href="test__cmp__icu_8c_ad8cefbf7c0531178a3c5d00ed71cfe61.html#ad8cefbf7c0531178a3c5d00ed71cfe61" target="_top" xlink:title=" ">
<polygon fill="white" stroke="black" points="217.5,-759 217.5,-789 330.5,-789 330.5,-759 217.5,-759"/>
<text text-anchor="start" x="225.5" y="-777" font-family="Helvetica,sans-Serif" font-size="10.00">test_compress_s_fx</text>
<text text-anchor="middle" x="274" y="-766" font-family="Helvetica,sans-Serif" font-size="10.00">_staff</text>
</a>
</g>
</g>
<!-- Node5&#45;&gt;Node32 -->
<g id="edge31" class="edge">
<title>Node5&#45;&gt;Node32</title>
<path fill="none" stroke="midnightblue" d="M419.56,-737.11C392.62,-743.98 358.75,-752.63 330.57,-759.82"/>
<polygon fill="midnightblue" stroke="midnightblue" points="420.7,-740.43 429.52,-734.56 418.97,-733.65 420.7,-740.43"/>
</g>
<!-- Node33 -->
<g id="node33" class="node">
<title>Node33</title>
<g id="a_node33"><a xlink:href="test__cmp__icu_8c_aee4858f3ea226c6da9e4a9ed54475b1d.html#aee4858f3ea226c6da9e4a9ed54475b1d" target="_top" xlink:title=" ">
<polygon fill="white" stroke="black" points="204.5,-710 204.5,-740 343.5,-740 343.5,-710 204.5,-710"/>
<text text-anchor="start" x="212.5" y="-728" font-family="Helvetica,sans-Serif" font-size="10.00">test_compress_smearing</text>
<text text-anchor="middle" x="274" y="-717" font-family="Helvetica,sans-Serif" font-size="10.00">_error_cases</text>
</a>
</g>
</g>
<!-- Node5&#45;&gt;Node33 -->
<g id="edge32" class="edge">
<title>Node5&#45;&gt;Node33</title>
<path fill="none" stroke="midnightblue" d="M402.7,-725C383.68,-725 362.79,-725 343.51,-725"/>
<polygon fill="midnightblue" stroke="midnightblue" points="402.75,-728.5 412.75,-725 402.75,-721.5 402.75,-728.5"/>
</g>
<!-- Node34 -->
<g id="node34" class="node">
<title>Node34</title>
<g id="a_node34"><a xlink:href="test__cmp__icu_8c_a8db99614e8a5d384edb82fe466e15042.html#a8db99614e8a5d384edb82fe466e15042" target="_top" xlink:title=" ">
<polygon fill="white" stroke="black" points="207,-661 207,-691 341,-691 341,-661 207,-661"/>
<text text-anchor="start" x="215" y="-679" font-family="Helvetica,sans-Serif" font-size="10.00">test_icu_compress_data</text>
<text text-anchor="middle" x="274" y="-668" font-family="Helvetica,sans-Serif" font-size="10.00">_error_cases</text>
</a>
</g>
</g>
<!-- Node5&#45;&gt;Node34 -->
<g id="edge33" class="edge">
<title>Node5&#45;&gt;Node34</title>
<path fill="none" stroke="midnightblue" d="M419.58,-712.9C393.7,-706.29 361.41,-698.05 333.92,-691.04"/>
<polygon fill="midnightblue" stroke="midnightblue" points="418.97,-716.35 429.52,-715.44 420.7,-709.57 418.97,-716.35"/>
</g>
<!-- Node35 -->
<g id="node35" class="node">
<title>Node35</title>
<g id="a_node35"><a xlink:href="test__cmp__decmp_8c_abb20ed18a3c6ba0fc67ecef2d629dec0.html#abb20ed18a3c6ba0fc67ecef2d629dec0" target="_top" xlink:title=" ">
<polygon fill="white" stroke="black" points="201,-191 201,-221 347,-221 347,-191 201,-191"/>
<text text-anchor="start" x="209" y="-209" font-family="Helvetica,sans-Serif" font-size="10.00">test_random_compression</text>
<text text-anchor="middle" x="274" y="-198" font-family="Helvetica,sans-Serif" font-size="10.00">_decompression2</text>
</a>
</g>
</g>
<!-- Node5&#45;&gt;Node35 -->
<g id="edge34" class="edge">
<title>Node5&#45;&gt;Node35</title>
<path fill="none" stroke="midnightblue" d="M465.65,-704.99C459.6,-621.5 432.4,-301.97 366,-231 360.74,-225.38 354.34,-220.98 347.4,-217.54"/>
<polygon fill="midnightblue" stroke="midnightblue" points="462.17,-705.42 466.36,-715.15 469.15,-704.93 462.17,-705.42"/>
</g>
<!-- Node7 -->
<g id="node7" class="node">
<title>Node7</title>
<g id="a_node7"><a xlink:href="test__cmp__decmp_8c_af3c162694b40683e0aa25c61a49cdafc.html#af3c162694b40683e0aa25c61a49cdafc" target="_top" xlink:title="random compression decompression test">
<polygon fill="white" stroke="black" points="0,-147 0,-177 146,-177 146,-147 0,-147"/>
<text text-anchor="start" x="8" y="-165" font-family="Helvetica,sans-Serif" font-size="10.00">test_random_compression</text>
<text text-anchor="middle" x="73" y="-154" font-family="Helvetica,sans-Serif" font-size="10.00">_decompression</text>
</a>
</g>
</g>
<!-- Node6&#45;&gt;Node7 -->
<g id="edge6" class="edge">
<title>Node6&#45;&gt;Node7</title>
<path fill="none" stroke="midnightblue" d="M184.63,-162C171.72,-162 158.55,-162 146.01,-162"/>
<polygon fill="midnightblue" stroke="midnightblue" points="184.92,-165.5 194.92,-162 184.92,-158.5 184.92,-165.5"/>
</g>
<!-- Node9 -->
<g id="node9" class="node">
<title>Node9</title>
<g id="a_node9"><a xlink:href="test__decmp_8c_a1a33e2fcbf484c79dfe661b280386f6b.html#a1a33e2fcbf484c79dfe661b280386f6b" target="_top" xlink:title=" ">
<polygon fill="white" stroke="black" points="0,-92.5 0,-111.5 146,-111.5 146,-92.5 0,-92.5"/>
<text text-anchor="middle" x="73" y="-99.5" font-family="Helvetica,sans-Serif" font-size="10.00">test_cmp_decmp_s_fx_diff</text>
</a>
</g>
</g>
<!-- Node8&#45;&gt;Node9 -->
<g id="edge8" class="edge">
<title>Node8&#45;&gt;Node9</title>
<path fill="none" stroke="midnightblue" d="M192.55,-238.24C188.8,-236.16 185.25,-233.77 182,-231 147.94,-201.99 176.23,-169.98 146,-137 135.29,-125.32 119.84,-117.1 106,-111.58"/>
<polygon fill="midnightblue" stroke="midnightblue" points="191.09,-241.42 201.62,-242.52 194.07,-235.09 191.09,-241.42"/>
</g>
<!-- Node38 -->
<g id="node38" class="node">
<title>Node38</title>
<g id="a_node38"><a xlink:href="decmp_8h_aefe0fa39fdc295432f5e2e0f91f0b87f.html#aefe0fa39fdc295432f5e2e0f91f0b87f" target="_top" xlink:title="decompress a compression entity">
<polygon fill="white" stroke="black" points="402,-95.5 402,-114.5 534,-114.5 534,-95.5 402,-95.5"/>
<text text-anchor="middle" x="468" y="-102.5" font-family="Helvetica,sans-Serif" font-size="10.00">decompress_cmp_entiy</text>
</a>
</g>
</g>
<!-- Node37&#45;&gt;Node38 -->
<g id="edge37" class="edge">
<title>Node37&#45;&gt;Node38</title>
<path fill="none" stroke="midnightblue" d="M585.6,-194.34C580.22,-192.5 574.96,-190.4 570,-188 530.99,-169.09 493.97,-132.19 477.68,-114.68"/>
<polygon fill="midnightblue" stroke="midnightblue" points="584.81,-197.76 595.39,-197.38 586.88,-191.07 584.81,-197.76"/>
</g>
<!-- Node41 -->
<g id="node41" class="node">
<title>Node41</title>
<g id="a_node41"><a xlink:href="decmp_8h_aa89132cfd22be6ede8bc4344e9c3336a.html#aa89132cfd22be6ede8bc4344e9c3336a" target="_top" xlink:title="decompress RDCU compressed data without a compression entity header">
<polygon fill="white" stroke="black" points="403.5,-196.5 403.5,-215.5 532.5,-215.5 532.5,-196.5 403.5,-196.5"/>
<text text-anchor="middle" x="468" y="-203.5" font-family="Helvetica,sans-Serif" font-size="10.00">decompress_rdcu_data</text>
</a>
</g>
</g>
<!-- Node37&#45;&gt;Node41 -->
<g id="edge43" class="edge">
<title>Node37&#45;&gt;Node41</title>
<path fill="none" stroke="midnightblue" d="M568.71,-206.53C556.51,-206.47 544.19,-206.4 532.56,-206.34"/>
<polygon fill="midnightblue" stroke="midnightblue" points="568.89,-210.03 578.9,-206.58 568.92,-203.03 568.89,-210.03"/>
</g>
<!-- Node38&#45;&gt;Node6 -->
<g id="edge38" class="edge">
<title>Node38&#45;&gt;Node6</title>
<path fill="none" stroke="midnightblue" d="M435.08,-118.45C415.42,-126.38 389.55,-136.16 366,-143 353.76,-146.56 340.4,-149.73 327.79,-152.41"/>
<polygon fill="midnightblue" stroke="midnightblue" points="436.54,-121.64 444.47,-114.62 433.89,-115.16 436.54,-121.64"/>
</g>
<!-- Node38&#45;&gt;Node9 -->
<g id="edge40" class="edge">
<title>Node38&#45;&gt;Node9</title>
<path fill="none" stroke="midnightblue" d="M391.48,-104.42C320.75,-103.88 215.79,-103.08 146.16,-102.55"/>
<polygon fill="midnightblue" stroke="midnightblue" points="391.64,-107.92 401.66,-104.5 391.69,-100.92 391.64,-107.92"/>
</g>
<!-- Node38&#45;&gt;Node10 -->
<g id="edge39" class="edge">
<title>Node38&#45;&gt;Node10</title>
<path fill="none" stroke="midnightblue" d="M391.85,-112.44C383.42,-113.27 374.77,-114.13 366.17,-114.98"/>
<polygon fill="midnightblue" stroke="midnightblue" points="392.39,-115.9 402,-111.43 391.7,-108.93 392.39,-115.9"/>
</g>
<!-- Node39 -->
<g id="node39" class="node">
<title>Node39</title>
<g id="a_node39"><a xlink:href="test__decmp_8c_acfebf2fa7515f5449e0cfa594457b66b.html#acfebf2fa7515f5449e0cfa594457b66b" target="_top" xlink:title=" ">
<polygon fill="white" stroke="black" points="233,-38.5 233,-57.5 315,-57.5 315,-38.5 233,-38.5"/>
<text text-anchor="middle" x="274" y="-45.5" font-family="Helvetica,sans-Serif" font-size="10.00">test_s_fx_diff</text>
</a>
</g>
</g>
<!-- Node38&#45;&gt;Node39 -->
<g id="edge41" class="edge">
<title>Node38&#45;&gt;Node39</title>
<path fill="none" stroke="midnightblue" d="M429.78,-92.27C410.78,-85.91 387.24,-78.27 366,-72 348.76,-66.92 329.54,-61.77 313.21,-57.55"/>
<polygon fill="midnightblue" stroke="midnightblue" points="428.68,-95.59 439.27,-95.46 430.91,-88.95 428.68,-95.59"/>
</g>
<!-- Node40 -->
<g id="node40" class="node">
<title>Node40</title>
<g id="a_node40"><a xlink:href="test__decmp_8c_a953eeaad914985c0816dde26d47ffef0.html#a953eeaad914985c0816dde26d47ffef0" target="_top" xlink:title=" ">
<polygon fill="white" stroke="black" points="225.5,-0.5 225.5,-19.5 322.5,-19.5 322.5,-0.5 225.5,-0.5"/>
<text text-anchor="middle" x="274" y="-7.5" font-family="Helvetica,sans-Serif" font-size="10.00">test_s_fx_model</text>
</a>
</g>
</g>
<!-- Node38&#45;&gt;Node40 -->
<g id="edge42" class="edge">
<title>Node38&#45;&gt;Node40</title>
<path fill="none" stroke="midnightblue" d="M449.86,-88.29C430.92,-70.79 398.73,-43.83 366,-29 352.48,-22.87 336.92,-18.69 322.54,-15.86"/>
<polygon fill="midnightblue" stroke="midnightblue" points="447.69,-91.05 457.36,-95.37 452.49,-85.96 447.69,-91.05"/>
</g>
<!-- Node41&#45;&gt;Node35 -->
<g id="edge44" class="edge">
<title>Node41&#45;&gt;Node35</title>
<path fill="none" stroke="midnightblue" d="M393.04,-206C377.97,-206 362.13,-206 347.12,-206"/>
<polygon fill="midnightblue" stroke="midnightblue" points="393.33,-209.5 403.33,-206 393.33,-202.5 393.33,-209.5"/>
</g>
</g>
</svg>
        <g id="navigator" transform="translate(0 0)" fill="#404254">
                <rect fill="#f2f5e9" fill-opacity="0.5" stroke="#606060" stroke-width=".5" x="0" y="0" width="60" height="60"/>
                <use id="zoomplus" xlink:href="#zoomPlus" x="17" y="9" onmousedown="handleZoom(evt,'in')"/>
                <use id="zoomminus" xlink:href="#zoomMin" x="42" y="9" onmousedown="handleZoom(evt,'out')"/>
                <use id="reset" xlink:href="#resetDef" x="30" y="36" onmousedown="handleReset()"/>
                <g id="arrowUp" xlink:href="#dirArrow" transform="translate(30 24)" onmousedown="handlePan(0,-1)">
                  <use xlink:href="#rim" fill="#404040">
                        <set attributeName="fill" to="#808080" begin="arrowUp.mouseover" end="arrowUp.mouseout"/>
                  </use>
                  <path fill="none" stroke="white" stroke-width="1.5" d="M0,-3.0v7 M-2.5,-0.5L0,-3.0L2.5,-0.5"/>
                </g>
                <g id="arrowRight" xlink:href="#dirArrow" transform="rotate(90) translate(36 -43)" onmousedown="handlePan(1,0)">
                  <use xlink:href="#rim" fill="#404040">
                        <set attributeName="fill" to="#808080" begin="arrowRight.mouseover" end="arrowRight.mouseout"/>
                  </use>
                  <path fill="none" stroke="white" stroke-width="1.5" d="M0,-3.0v7 M-2.5,-0.5L0,-3.0L2.5,-0.5"/>
                </g>
                <g id="arrowDown" xlink:href="#dirArrow" transform="rotate(180) translate(-30 -48)" onmousedown="handlePan(0,1)">
                  <use xlink:href="#rim" fill="#404040">
                        <set attributeName="fill" to="#808080" begin="arrowDown.mouseover" end="arrowDown.mouseout"/>
                  </use>
                  <path fill="none" stroke="white" stroke-width="1.5" d="M0,-3.0v7 M-2.5,-0.5L0,-3.0L2.5,-0.5"/>
                </g>
                <g id="arrowLeft" xlink:href="#dirArrow" transform="rotate(270) translate(-36 17)" onmousedown="handlePan(-1,0)">
                  <use xlink:href="#rim" fill="#404040">
                        <set attributeName="fill" to="#808080" begin="arrowLeft.mouseover" end="arrowLeft.mouseout"/>
                  </use>
                  <path fill="none" stroke="white" stroke-width="1.5" d="M0,-3.0v7 M-2.5,-0.5L0,-3.0L2.5,-0.5"/>
                </g>
        </g>
        <svg viewBox="0 0 15 15" width="100%" height="30px" preserveAspectRatio="xMaxYMin meet">
         <g id="arrow_out" transform="scale(0.3 0.3)">
          <a xlink:href="cmp__data__types_8c_a20b4c948454832556538ff6335904ef5_a20b4c948454832556538ff6335904ef5_icgraph_org.svg" target="_base">
           <rect id="button" ry="5" rx="5" y="6" x="6" height="38" width="38"
                fill="#f2f5e9" fill-opacity="0.5" stroke="#606060" stroke-width="1.0"/>
           <path id="arrow"
             d="M 11.500037,31.436501 C 11.940474,20.09759 22.043105,11.32322 32.158766,21.979434 L 37.068811,17.246167 C 37.068811,17.246167 37.088388,32 37.088388,32 L 22.160133,31.978069 C 22.160133,31.978069 26.997745,27.140456 26.997745,27.140456 C 18.528582,18.264221 13.291696,25.230495 11.500037,31.436501 z"
             style="fill:#404040;"/>
          </a>
         </g>
        </svg>
</svg>
