<?xml version="1.0" encoding="UTF-8" standalone="no"?>
<!DOCTYPE svg PUBLIC "-//W3C//DTD SVG 1.1//EN"
 "http://www.w3.org/Graphics/SVG/1.1/DTD/svg11.dtd">
<!-- Generated by graphviz version 2.43.0 (0)
 -->
<!-- Title: rdcu_cfg_buffers_is_invalid Pages: 1 -->
<!--zoomable 219 -->
<svg id="main" version="1.1" xmlns="http://www.w3.org/2000/svg" xmlns:xlink="http://www.w3.org/1999/xlink" xml:space="preserve" onload="init(evt)">
<style type="text/css"><![CDATA[
.edge:hover path { stroke: red; }
.edge:hover polygon { stroke: red; fill: red; }
]]></style>
<script type="text/javascript"><![CDATA[
var edges = document.getElementsByTagName('g');
if (edges && edges.length) {
  for (var i=0;i<edges.length;i++) {
    if (edges[i].id.substr(0,4)=='edge') {
      edges[i].setAttribute('class','edge');
    }
  }
}
]]></script>
        <defs>
                <circle id="rim" cx="0" cy="0" r="7"/>
                <circle id="rim2" cx="0" cy="0" r="3.5"/>
                <g id="zoomPlus">
                        <use xlink:href="#rim" fill="#404040">
                                <set attributeName="fill" to="#808080" begin="zoomplus.mouseover" end="zoomplus.mouseout"/>
                        </use>
                        <path d="M-4,0h8M0,-4v8" fill="none" stroke="white" stroke-width="1.5" pointer-events="none"/>
                </g>
                <g id="zoomMin">
                        <use xlink:href="#rim" fill="#404040">
                                <set attributeName="fill" to="#808080" begin="zoomminus.mouseover" end="zoomminus.mouseout"/>
                        </use>
                        <path d="M-4,0h8" fill="none" stroke="white" stroke-width="1.5" pointer-events="none"/>
                </g>
                <g id="dirArrow">
                        <path fill="none" stroke="white" stroke-width="1.5" d="M0,-3.0v7 M-2.5,-0.5L0,-3.0L2.5,-0.5"/>
                </g>
               <g id="resetDef">
                       <use xlink:href="#rim2" fill="#404040">
                               <set attributeName="fill" to="#808080" begin="reset.mouseover" end="reset.mouseout"/>
                       </use>
               </g>
        </defs>

<script type="text/javascript">
var viewWidth = 767;
var viewHeight = 219;
var sectionId = 'dynsection-1';
</script>
<script xlink:href="svgpan.js"/>
<svg id="graph" class="graph">
<g id="viewport">
<title>rdcu_cfg_buffers_is_invalid</title>
<polygon fill="white" stroke="transparent" points="-4,4 -4,-214.5 763,-214.5 763,4 -4,4"/>
<!-- Node1 -->
<g id="node1" class="node">
<title>Node1</title>
<g id="a_node1"><a xlink:title="check if RDCU buffer settings are invalid">
<polygon fill="#bfbfbf" stroke="black" points="649,-101 649,-131 759,-131 759,-101 649,-101"/>
<text text-anchor="start" x="657" y="-119" font-family="Helvetica,sans-Serif" font-size="10.00">rdcu_cfg_buffers_is</text>
<text text-anchor="middle" x="704" y="-108" font-family="Helvetica,sans-Serif" font-size="10.00">_invalid</text>
</a>
</g>
</g>
<!-- Node2 -->
<g id="node2" class="node">
<title>Node2</title>
<g id="a_node2"><a xlink:href="cmp__rdcu__cfg_8c_a02c709d575e0c6a1279c99af709854fd.html#a02c709d575e0c6a1279c99af709854fd" target="_top" xlink:title="setup of the different data buffers for an RDCU compression">
<polygon fill="white" stroke="black" points="496.5,-130.5 496.5,-149.5 593.5,-149.5 593.5,-130.5 496.5,-130.5"/>
<text text-anchor="middle" x="545" y="-137.5" font-family="Helvetica,sans-Serif" font-size="10.00">rdcu_cfg_buffers</text>
</a>
</g>
</g>
<!-- Node1&#45;&gt;Node2 -->
<g id="edge1" class="edge">
<title>Node1&#45;&gt;Node2</title>
<path fill="none" stroke="midnightblue" d="M638.67,-125.83C623.58,-128.14 607.77,-130.56 593.57,-132.73"/>
<polygon fill="midnightblue" stroke="midnightblue" points="639.61,-129.23 648.97,-124.26 638.56,-122.31 639.61,-129.23"/>
</g>
<!-- Node6 -->
<g id="node6" class="node">
<title>Node6</title>
<g id="a_node6"><a xlink:href="cmp__rdcu__cfg_8c_abe8a949f8c993e8f052d6925b055b731.html#abe8a949f8c993e8f052d6925b055b731" target="_top" xlink:title="check if the compressor configuration is invalid for an RDCU compression, see the user manual for mor...">
<polygon fill="white" stroke="black" points="477,-87.5 477,-106.5 613,-106.5 613,-87.5 477,-87.5"/>
<text text-anchor="middle" x="545" y="-94.5" font-family="Helvetica,sans-Serif" font-size="10.00">rdcu_cmp_cfg_is_invalid</text>
</a>
</g>
</g>
<!-- Node1&#45;&gt;Node6 -->
<g id="edge5" class="edge">
<title>Node1&#45;&gt;Node6</title>
<path fill="none" stroke="midnightblue" d="M638.8,-108.23C630.35,-107.21 621.67,-106.16 613.17,-105.13"/>
<polygon fill="midnightblue" stroke="midnightblue" points="638.62,-111.73 648.97,-109.46 639.46,-104.79 638.62,-111.73"/>
</g>
<!-- Node3 -->
<g id="node3" class="node">
<title>Node3</title>
<g id="a_node3"><a xlink:href="test__cmp__rdcu__cfg_8c_a732e9931c6386e694ef773a06918dec5.html#a732e9931c6386e694ef773a06918dec5" target="_top" xlink:title=" ">
<polygon fill="white" stroke="black" points="318,-180 318,-210 439,-210 439,-180 318,-180"/>
<text text-anchor="start" x="326" y="-198" font-family="Helvetica,sans-Serif" font-size="10.00">test_rdcu_cfg_buffers</text>
<text text-anchor="middle" x="378.5" y="-187" font-family="Helvetica,sans-Serif" font-size="10.00">_model</text>
</a>
</g>
</g>
<!-- Node2&#45;&gt;Node3 -->
<g id="edge2" class="edge">
<title>Node2&#45;&gt;Node3</title>
<path fill="none" stroke="midnightblue" d="M505.77,-152.78C481.52,-160.89 450.03,-171.42 424.56,-179.93"/>
<polygon fill="midnightblue" stroke="midnightblue" points="506.97,-156.07 515.35,-149.58 504.75,-149.43 506.97,-156.07"/>
</g>
<!-- Node4 -->
<g id="node4" class="node">
<title>Node4</title>
<g id="a_node4"><a xlink:href="test__cmp__rdcu__cfg_8c_a61454153a1f806bb3d720d2aea96e830.html#a61454153a1f806bb3d720d2aea96e830" target="_top" xlink:title=" ">
<polygon fill="white" stroke="black" points="318,-131 318,-161 439,-161 439,-131 318,-131"/>
<text text-anchor="start" x="326" y="-149" font-family="Helvetica,sans-Serif" font-size="10.00">test_rdcu_cfg_buffers</text>
<text text-anchor="middle" x="378.5" y="-138" font-family="Helvetica,sans-Serif" font-size="10.00">_raw_diff</text>
</a>
</g>
</g>
<!-- Node2&#45;&gt;Node4 -->
<g id="edge3" class="edge">
<title>Node2&#45;&gt;Node4</title>
<path fill="none" stroke="midnightblue" d="M486.13,-142.11C470.95,-142.66 454.55,-143.26 439.27,-143.82"/>
<polygon fill="midnightblue" stroke="midnightblue" points="486.55,-145.6 496.42,-141.74 486.3,-138.6 486.55,-145.6"/>
</g>
<!-- Node5 -->
<g id="node5" class="node">
<title>Node5</title>
<g id="a_node5"><a xlink:href="test__cmp__rdcu__cfg_8c_a5b00301d60061900aa1c1976e587aa30.html#a5b00301d60061900aa1c1976e587aa30" target="_top" xlink:title=" ">
<polygon fill="white" stroke="black" points="317.5,-82 317.5,-112 439.5,-112 439.5,-82 317.5,-82"/>
<text text-anchor="start" x="325.5" y="-100" font-family="Helvetica,sans-Serif" font-size="10.00">test_rdcu_cmp_cfg_is</text>
<text text-anchor="middle" x="378.5" y="-89" font-family="Helvetica,sans-Serif" font-size="10.00">_invalid</text>
</a>
</g>
</g>
<!-- Node2&#45;&gt;Node5 -->
<g id="edge4" class="edge">
<title>Node2&#45;&gt;Node5</title>
<path fill="none" stroke="midnightblue" d="M497.65,-127.88C478.78,-122.95 456.78,-117.2 436.91,-112.01"/>
<polygon fill="midnightblue" stroke="midnightblue" points="496.93,-131.31 507.49,-130.46 498.7,-124.54 496.93,-131.31"/>
</g>
<!-- Node6&#45;&gt;Node5 -->
<g id="edge11" class="edge">
<title>Node6&#45;&gt;Node5</title>
<path fill="none" stroke="midnightblue" d="M466.49,-97C457.48,-97 448.39,-97 439.65,-97"/>
<polygon fill="midnightblue" stroke="midnightblue" points="466.62,-100.5 476.62,-97 466.62,-93.5 466.62,-100.5"/>
</g>
<!-- Node7 -->
<g id="node7" class="node">
<title>Node7</title>
<g id="a_node7"><a xlink:href="cmp__rdcu_8c_a1b450ab652a1da5f914786ce577458f9.html#a1b450ab652a1da5f914786ce577458f9" target="_top" xlink:title="set up RDCU compression register">
<polygon fill="white" stroke="black" points="316,-33 316,-63 441,-63 441,-33 316,-33"/>
<text text-anchor="start" x="324" y="-51" font-family="Helvetica,sans-Serif" font-size="10.00">rdcu_set_compression</text>
<text text-anchor="middle" x="378.5" y="-40" font-family="Helvetica,sans-Serif" font-size="10.00">_register</text>
</a>
</g>
</g>
<!-- Node6&#45;&gt;Node7 -->
<g id="edge6" class="edge">
<title>Node6&#45;&gt;Node7</title>
<path fill="none" stroke="midnightblue" d="M502.19,-84.55C480.22,-78 453.12,-69.93 429.98,-63.04"/>
<polygon fill="midnightblue" stroke="midnightblue" points="501.31,-87.94 511.89,-87.44 503.31,-81.23 501.31,-87.94"/>
</g>
<!-- Node8 -->
<g id="node8" class="node">
<title>Node8</title>
<g id="a_node8"><a xlink:href="cmp__rdcu_8h_a85aeb890a333d637dd7ffba03729e93a.html#a85aeb890a333d637dd7ffba03729e93a" target="_top" xlink:title="compressing data with the help of the RDCU hardware compressor">
<polygon fill="white" stroke="black" points="158,-76.5 158,-95.5 275,-95.5 275,-76.5 158,-76.5"/>
<text text-anchor="middle" x="216.5" y="-83.5" font-family="Helvetica,sans-Serif" font-size="10.00">rdcu_compress_data</text>
</a>
</g>
</g>
<!-- Node7&#45;&gt;Node8 -->
<g id="edge7" class="edge">
<title>Node7&#45;&gt;Node8</title>
<path fill="none" stroke="midnightblue" d="M305.56,-65.09C289.23,-68.96 272.45,-72.95 257.97,-76.39"/>
<polygon fill="midnightblue" stroke="midnightblue" points="306.72,-68.41 315.64,-62.69 305.1,-61.6 306.72,-68.41"/>
</g>
<!-- Node9 -->
<g id="node9" class="node">
<title>Node9</title>
<g id="a_node9"><a xlink:href="cmp__rdcu_8c_ab69cf44ac326e0cebdef002e8f2ea2cb.html#ab69cf44ac326e0cebdef002e8f2ea2cb" target="_top" xlink:title="compressing data with the help of the RDCU hardware compressor; read data from the last compression b...">
<polygon fill="white" stroke="black" points="0,-52 0,-82 117,-82 117,-52 0,-52"/>
<text text-anchor="start" x="8" y="-70" font-family="Helvetica,sans-Serif" font-size="10.00">rdcu_compress_data</text>
<text text-anchor="middle" x="58.5" y="-59" font-family="Helvetica,sans-Serif" font-size="10.00">_parallel</text>
</a>
</g>
</g>
<!-- Node7&#45;&gt;Node9 -->
<g id="edge9" class="edge">
<title>Node7&#45;&gt;Node9</title>
<path fill="none" stroke="midnightblue" d="M305.78,-52.29C248.73,-55.69 169.96,-60.4 117.01,-63.56"/>
<polygon fill="midnightblue" stroke="midnightblue" points="306.04,-55.78 315.81,-51.69 305.62,-48.79 306.04,-55.78"/>
</g>
<!-- Node10 -->
<g id="node10" class="node">
<title>Node10</title>
<g id="a_node10"><a xlink:href="cmp__rdcu_8c_af59f75c76a057d49a54b54800dc59556.html#af59f75c76a057d49a54b54800dc59556" target="_top" xlink:title="inject a SRAM edac multi bit error into the RDCU SRAM">
<polygon fill="white" stroke="black" points="153,-0.5 153,-19.5 280,-19.5 280,-0.5 153,-0.5"/>
<text text-anchor="middle" x="216.5" y="-7.5" font-family="Helvetica,sans-Serif" font-size="10.00">rdcu_inject_edac_error</text>
</a>
</g>
</g>
<!-- Node7&#45;&gt;Node10 -->
<g id="edge10" class="edge">
<title>Node7&#45;&gt;Node10</title>
<path fill="none" stroke="midnightblue" d="M305.56,-30.91C289.23,-27.04 272.45,-23.05 257.97,-19.61"/>
<polygon fill="midnightblue" stroke="midnightblue" points="305.1,-34.4 315.64,-33.31 306.72,-27.59 305.1,-34.4"/>
</g>
<!-- Node8&#45;&gt;Node9 -->
<g id="edge8" class="edge">
<title>Node8&#45;&gt;Node9</title>
<path fill="none" stroke="midnightblue" d="M147.76,-77.75C137.57,-76.51 127.13,-75.24 117.17,-74.02"/>
<polygon fill="midnightblue" stroke="midnightblue" points="147.5,-81.24 157.85,-78.98 148.35,-74.3 147.5,-81.24"/>
</g>
</g>
</svg>
        <g id="navigator" transform="translate(0 0)" fill="#404254">
                <rect fill="#f2f5e9" fill-opacity="0.5" stroke="#606060" stroke-width=".5" x="0" y="0" width="60" height="60"/>
                <use id="zoomplus" xlink:href="#zoomPlus" x="17" y="9" onmousedown="handleZoom(evt,'in')"/>
                <use id="zoomminus" xlink:href="#zoomMin" x="42" y="9" onmousedown="handleZoom(evt,'out')"/>
                <use id="reset" xlink:href="#resetDef" x="30" y="36" onmousedown="handleReset()"/>
                <g id="arrowUp" xlink:href="#dirArrow" transform="translate(30 24)" onmousedown="handlePan(0,-1)">
                  <use xlink:href="#rim" fill="#404040">
                        <set attributeName="fill" to="#808080" begin="arrowUp.mouseover" end="arrowUp.mouseout"/>
                  </use>
                  <path fill="none" stroke="white" stroke-width="1.5" d="M0,-3.0v7 M-2.5,-0.5L0,-3.0L2.5,-0.5"/>
                </g>
                <g id="arrowRight" xlink:href="#dirArrow" transform="rotate(90) translate(36 -43)" onmousedown="handlePan(1,0)">
                  <use xlink:href="#rim" fill="#404040">
                        <set attributeName="fill" to="#808080" begin="arrowRight.mouseover" end="arrowRight.mouseout"/>
                  </use>
                  <path fill="none" stroke="white" stroke-width="1.5" d="M0,-3.0v7 M-2.5,-0.5L0,-3.0L2.5,-0.5"/>
                </g>
                <g id="arrowDown" xlink:href="#dirArrow" transform="rotate(180) translate(-30 -48)" onmousedown="handlePan(0,1)">
                  <use xlink:href="#rim" fill="#404040">
                        <set attributeName="fill" to="#808080" begin="arrowDown.mouseover" end="arrowDown.mouseout"/>
                  </use>
                  <path fill="none" stroke="white" stroke-width="1.5" d="M0,-3.0v7 M-2.5,-0.5L0,-3.0L2.5,-0.5"/>
                </g>
                <g id="arrowLeft" xlink:href="#dirArrow" transform="rotate(270) translate(-36 17)" onmousedown="handlePan(-1,0)">
                  <use xlink:href="#rim" fill="#404040">
                        <set attributeName="fill" to="#808080" begin="arrowLeft.mouseover" end="arrowLeft.mouseout"/>
                  </use>
                  <path fill="none" stroke="white" stroke-width="1.5" d="M0,-3.0v7 M-2.5,-0.5L0,-3.0L2.5,-0.5"/>
                </g>
        </g>
        <svg viewBox="0 0 15 15" width="100%" height="30px" preserveAspectRatio="xMaxYMin meet">
         <g id="arrow_out" transform="scale(0.3 0.3)">
          <a xlink:href="cmp__rdcu__cfg_8c_ac1e86a9fa0666daed0aa76b5853a80c5_ac1e86a9fa0666daed0aa76b5853a80c5_icgraph_org.svg" target="_base">
           <rect id="button" ry="5" rx="5" y="6" x="6" height="38" width="38"
                fill="#f2f5e9" fill-opacity="0.5" stroke="#606060" stroke-width="1.0"/>
           <path id="arrow"
             d="M 11.500037,31.436501 C 11.940474,20.09759 22.043105,11.32322 32.158766,21.979434 L 37.068811,17.246167 C 37.068811,17.246167 37.088388,32 37.088388,32 L 22.160133,31.978069 C 22.160133,31.978069 26.997745,27.140456 26.997745,27.140456 C 18.528582,18.264221 13.291696,25.230495 11.500037,31.436501 z"
             style="fill:#404040;"/>
          </a>
         </g>
        </svg>
</svg>
