<?xml version="1.0" encoding="UTF-8" standalone="no"?>
<!DOCTYPE svg PUBLIC "-//W3C//DTD SVG 1.1//EN"
 "http://www.w3.org/Graphics/SVG/1.1/DTD/svg11.dtd">
<!-- Generated by graphviz version 2.43.0 (0)
 -->
<!-- Title: rdcu_read_cmp_status Pages: 1 -->
<svg width="1293pt" height="750pt"
 viewBox="0.00 0.00 1293.00 750.00" xmlns="http://www.w3.org/2000/svg" xmlns:xlink="http://www.w3.org/1999/xlink">
<g id="graph0" class="graph" transform="scale(1 1) rotate(0) translate(4 746)">
<title>rdcu_read_cmp_status</title>
<polygon fill="white" stroke="transparent" points="-4,4 -4,-746 1289,-746 1289,4 -4,4"/>
<!-- Node1 -->
<g id="node1" class="node">
<title>Node1</title>
<g id="a_node1"><a xlink:title="read out the status register of the RDCU compressor">
<polygon fill="#bfbfbf" stroke="black" points="0,-283.5 0,-302.5 126,-302.5 126,-283.5 0,-283.5"/>
<text text-anchor="middle" x="63" y="-290.5" font-family="Helvetica,sans-Serif" font-size="10.00">rdcu_read_cmp_status</text>
</a>
</g>
</g>
<!-- Node2 -->
<g id="node2" class="node">
<title>Node2</title>
<g id="a_node2"><a xlink:href="rdcu__ctrl_8c_a5e4ce828617377a1c62477ff2b35094e.html#a5e4ce828617377a1c62477ff2b35094e" target="_top" xlink:title="get compressor status valid">
<polygon fill="white" stroke="black" points="165.5,-425 165.5,-455 295.5,-455 295.5,-425 165.5,-425"/>
<text text-anchor="start" x="173.5" y="-443" font-family="Helvetica,sans-Serif" font-size="10.00">rdcu_get_compr_status</text>
<text text-anchor="middle" x="230.5" y="-432" font-family="Helvetica,sans-Serif" font-size="10.00">_valid</text>
</a>
</g>
</g>
<!-- Node1&#45;&gt;Node2 -->
<g id="edge1" class="edge">
<title>Node1&#45;&gt;Node2</title>
<path fill="none" stroke="midnightblue" d="M69.3,-302.71C82.2,-325.51 117.48,-382.92 162,-415 164.64,-416.9 167.43,-418.67 170.33,-420.32"/>
<polygon fill="midnightblue" stroke="midnightblue" points="168.77,-423.46 179.27,-424.91 171.97,-417.23 168.77,-423.46"/>
</g>
<!-- Node3 -->
<g id="node3" class="node">
<title>Node3</title>
<g id="a_node3"><a xlink:href="rdcu__ctrl_8c_a6993117cd26dbbec8ebb4a221c7cbf0d.html#a6993117cd26dbbec8ebb4a221c7cbf0d" target="_top" xlink:title="get data compressor activce">
<polygon fill="white" stroke="black" points="169.5,-376 169.5,-406 291.5,-406 291.5,-376 169.5,-376"/>
<text text-anchor="start" x="177.5" y="-394" font-family="Helvetica,sans-Serif" font-size="10.00">rdcu_get_data_compr</text>
<text text-anchor="middle" x="230.5" y="-383" font-family="Helvetica,sans-Serif" font-size="10.00">_active</text>
</a>
</g>
</g>
<!-- Node1&#45;&gt;Node3 -->
<g id="edge2" class="edge">
<title>Node1&#45;&gt;Node3</title>
<path fill="none" stroke="midnightblue" d="M74.75,-302.65C92.08,-317.81 127.7,-347.37 162,-366 165.87,-368.1 169.96,-370.1 174.13,-371.98"/>
<polygon fill="midnightblue" stroke="midnightblue" points="172.76,-375.21 183.33,-375.91 175.51,-368.77 172.76,-375.21"/>
</g>
<!-- Node4 -->
<g id="node4" class="node">
<title>Node4</title>
<g id="a_node4"><a xlink:href="rdcu__ctrl_8c_a2e7e6678515fd8bdca3fbe196ad9596d.html#a2e7e6678515fd8bdca3fbe196ad9596d" target="_top" xlink:title="get data compressor interrupted">
<polygon fill="white" stroke="black" points="169.5,-327 169.5,-357 291.5,-357 291.5,-327 169.5,-327"/>
<text text-anchor="start" x="177.5" y="-345" font-family="Helvetica,sans-Serif" font-size="10.00">rdcu_get_data_compr</text>
<text text-anchor="middle" x="230.5" y="-334" font-family="Helvetica,sans-Serif" font-size="10.00">_interrupted</text>
</a>
</g>
</g>
<!-- Node1&#45;&gt;Node4 -->
<g id="edge3" class="edge">
<title>Node1&#45;&gt;Node4</title>
<path fill="none" stroke="midnightblue" d="M96.3,-302.56C116.98,-308.69 144.46,-316.82 169.08,-324.11"/>
<polygon fill="midnightblue" stroke="midnightblue" points="168.13,-327.48 178.71,-326.96 170.12,-320.77 168.13,-327.48"/>
</g>
<!-- Node5 -->
<g id="node5" class="node">
<title>Node5</title>
<g id="a_node5"><a xlink:href="rdcu__ctrl_8c_a964ad89cafb734a7f73880769312a8d2.html#a964ad89cafb734a7f73880769312a8d2" target="_top" xlink:title="get data compressor ready">
<polygon fill="white" stroke="black" points="169.5,-278 169.5,-308 291.5,-308 291.5,-278 169.5,-278"/>
<text text-anchor="start" x="177.5" y="-296" font-family="Helvetica,sans-Serif" font-size="10.00">rdcu_get_data_compr</text>
<text text-anchor="middle" x="230.5" y="-285" font-family="Helvetica,sans-Serif" font-size="10.00">_ready</text>
</a>
</g>
</g>
<!-- Node1&#45;&gt;Node5 -->
<g id="edge4" class="edge">
<title>Node1&#45;&gt;Node5</title>
<path fill="none" stroke="midnightblue" d="M126.1,-293C136.91,-293 148.23,-293 159.24,-293"/>
<polygon fill="midnightblue" stroke="midnightblue" points="159.25,-296.5 169.25,-293 159.25,-289.5 159.25,-296.5"/>
</g>
<!-- Node6 -->
<g id="node6" class="node">
<title>Node6</title>
<g id="a_node6"><a xlink:href="rdcu__ctrl_8c_a4973523b37d1d9e51fcb311ecf929b5c.html#a4973523b37d1d9e51fcb311ecf929b5c" target="_top" xlink:title="get RDCU Interrupt status">
<polygon fill="white" stroke="black" points="164.5,-229 164.5,-259 296.5,-259 296.5,-229 164.5,-229"/>
<text text-anchor="start" x="172.5" y="-247" font-family="Helvetica,sans-Serif" font-size="10.00">rdcu_get_rdcu_interrupt</text>
<text text-anchor="middle" x="230.5" y="-236" font-family="Helvetica,sans-Serif" font-size="10.00">_enabled</text>
</a>
</g>
</g>
<!-- Node1&#45;&gt;Node6 -->
<g id="edge5" class="edge">
<title>Node1&#45;&gt;Node6</title>
<path fill="none" stroke="midnightblue" d="M96.3,-283.44C116.98,-277.31 144.46,-269.18 169.08,-261.89"/>
<polygon fill="midnightblue" stroke="midnightblue" points="170.12,-265.23 178.71,-259.04 168.13,-258.52 170.12,-265.23"/>
</g>
<!-- Node7 -->
<g id="node7" class="node">
<title>Node7</title>
<g id="a_node7"><a xlink:href="rdcu__ctrl_8c_a8b6fe99cdb713589e8a57a00fc1d1160.html#a8b6fe99cdb713589e8a57a00fc1d1160" target="_top" xlink:title="sync the Compressor Status register (read only)">
<polygon fill="white" stroke="black" points="162,-190.5 162,-209.5 299,-209.5 299,-190.5 162,-190.5"/>
<text text-anchor="middle" x="230.5" y="-197.5" font-family="Helvetica,sans-Serif" font-size="10.00">rdcu_sync_compr_status</text>
</a>
</g>
</g>
<!-- Node1&#45;&gt;Node7 -->
<g id="edge6" class="edge">
<title>Node1&#45;&gt;Node7</title>
<path fill="none" stroke="midnightblue" d="M74.01,-283.38C90.84,-267.7 126.48,-236.62 162,-219 166.65,-216.69 171.63,-214.63 176.69,-212.78"/>
<polygon fill="midnightblue" stroke="midnightblue" points="178.09,-216.01 186.47,-209.52 175.88,-209.37 178.09,-216.01"/>
</g>
<!-- Node39 -->
<g id="node39" class="node">
<title>Node39</title>
<g id="a_node39"><a xlink:href="cmp__rdcu_8c_a308f44d7c916a3a601dd4f007dd8873c.html#a308f44d7c916a3a601dd4f007dd8873c" target="_top" xlink:title="save repeating 3 lines of code...">
<polygon fill="white" stroke="black" points="190.5,-152.5 190.5,-171.5 270.5,-171.5 270.5,-152.5 190.5,-152.5"/>
<text text-anchor="middle" x="230.5" y="-159.5" font-family="Helvetica,sans-Serif" font-size="10.00">rdcu_syncing</text>
</a>
</g>
</g>
<!-- Node1&#45;&gt;Node39 -->
<g id="edge45" class="edge">
<title>Node1&#45;&gt;Node39</title>
<path fill="none" stroke="midnightblue" d="M69.74,-283.23C83.07,-261.43 118.31,-208.59 162,-181 167.74,-177.38 174.18,-174.43 180.75,-172.04"/>
<polygon fill="midnightblue" stroke="midnightblue" points="181.96,-175.32 190.39,-168.91 179.8,-168.66 181.96,-175.32"/>
</g>
<!-- Node8 -->
<g id="node8" class="node">
<title>Node8</title>
<g id="a_node8"><a xlink:href="rdcu__cmd_8c_a23db174de10a78d7ffcc343f46ead4ca.html#a23db174de10a78d7ffcc343f46ead4ca" target="_top" xlink:title="create a command to read the RDCU compressor status register">
<polygon fill="white" stroke="black" points="337,-378 337,-408 464,-408 464,-378 337,-378"/>
<text text-anchor="start" x="345" y="-396" font-family="Helvetica,sans-Serif" font-size="10.00">rdcu_read_cmd_compr</text>
<text text-anchor="middle" x="400.5" y="-385" font-family="Helvetica,sans-Serif" font-size="10.00">_status</text>
</a>
</g>
</g>
<!-- Node7&#45;&gt;Node8 -->
<g id="edge7" class="edge">
<title>Node7&#45;&gt;Node8</title>
<path fill="none" stroke="midnightblue" d="M282.25,-209.57C288.25,-212.02 294,-215.12 299,-219 349.35,-258.14 379.04,-330.11 391.9,-368.06"/>
<polygon fill="midnightblue" stroke="midnightblue" points="388.65,-369.39 395.08,-377.81 395.31,-367.22 388.65,-369.39"/>
</g>
<!-- Node26 -->
<g id="node26" class="node">
<title>Node26</title>
<g id="a_node26"><a xlink:href="rdcu__rmap_8c_a533d1eb248d83ba3d406cefe7f3c9eb9.html#a533d1eb248d83ba3d406cefe7f3c9eb9" target="_top" xlink:title="submit a sync command">
<polygon fill="white" stroke="black" points="368,-190.5 368,-209.5 433,-209.5 433,-190.5 368,-190.5"/>
<text text-anchor="middle" x="400.5" y="-197.5" font-family="Helvetica,sans-Serif" font-size="10.00">rdcu_sync</text>
</a>
</g>
</g>
<!-- Node7&#45;&gt;Node26 -->
<g id="edge26" class="edge">
<title>Node7&#45;&gt;Node26</title>
<path fill="none" stroke="midnightblue" d="M299.35,-200C318.96,-200 339.78,-200 357.34,-200"/>
<polygon fill="midnightblue" stroke="midnightblue" points="357.8,-203.5 367.8,-200 357.8,-196.5 357.8,-203.5"/>
</g>
<!-- Node9 -->
<g id="node9" class="node">
<title>Node9</title>
<g id="a_node9"><a xlink:href="rdcu__cmd_8c_a3274188041d4484130e893afc5f1630f.html#a3274188041d4484130e893afc5f1630f" target="_top" xlink:title="generate a read command for an arbitrary register (internal)">
<polygon fill="white" stroke="black" points="502,-434 502,-464 636,-464 636,-434 502,-434"/>
<text text-anchor="start" x="510" y="-452" font-family="Helvetica,sans-Serif" font-size="10.00">rdcu_read_cmd_register</text>
<text text-anchor="middle" x="569" y="-441" font-family="Helvetica,sans-Serif" font-size="10.00">_internal</text>
</a>
</g>
</g>
<!-- Node8&#45;&gt;Node9 -->
<g id="edge8" class="edge">
<title>Node8&#45;&gt;Node9</title>
<path fill="none" stroke="midnightblue" d="M446.12,-408.01C466.93,-415.01 491.88,-423.4 513.76,-430.76"/>
<polygon fill="midnightblue" stroke="midnightblue" points="512.66,-434.08 523.26,-433.95 514.9,-427.45 512.66,-434.08"/>
</g>
<!-- Node10 -->
<g id="node10" class="node">
<title>Node10</title>
<g id="a_node10"><a xlink:href="rdcu__rmap_8c_ab224927e85a7cec5b6f90292c7de36c4.html#ab224927e85a7cec5b6f90292c7de36c4" target="_top" xlink:title="generate an rmap command packet">
<polygon fill="white" stroke="black" points="676,-494.5 676,-513.5 763,-513.5 763,-494.5 676,-494.5"/>
<text text-anchor="middle" x="719.5" y="-501.5" font-family="Helvetica,sans-Serif" font-size="10.00">rdcu_gen_cmd</text>
</a>
</g>
</g>
<!-- Node9&#45;&gt;Node10 -->
<g id="edge9" class="edge">
<title>Node9&#45;&gt;Node10</title>
<path fill="none" stroke="midnightblue" d="M610.58,-464.03C633.22,-472.41 661.15,-482.76 682.93,-490.83"/>
<polygon fill="midnightblue" stroke="midnightblue" points="681.87,-494.17 692.46,-494.36 684.3,-487.6 681.87,-494.17"/>
</g>
<!-- Node11 -->
<g id="node11" class="node">
<title>Node11</title>
<g id="a_node11"><a xlink:href="rmap_8c_aa17375d153cc3473cbbe4dfe1056c527.html#aa17375d153cc3473cbbe4dfe1056c527" target="_top" xlink:title="build an rmap header">
<polygon fill="white" stroke="black" points="820,-608.5 820,-627.5 912,-627.5 912,-608.5 820,-608.5"/>
<text text-anchor="middle" x="866" y="-615.5" font-family="Helvetica,sans-Serif" font-size="10.00">rmap_build_hdr</text>
</a>
</g>
</g>
<!-- Node10&#45;&gt;Node11 -->
<g id="edge10" class="edge">
<title>Node10&#45;&gt;Node11</title>
<path fill="none" stroke="midnightblue" d="M726.24,-513.66C738.11,-532.81 767.29,-575.78 803,-599 806.16,-601.05 809.55,-602.9 813.06,-604.55"/>
<polygon fill="midnightblue" stroke="midnightblue" points="811.98,-607.88 822.56,-608.48 814.66,-601.42 811.98,-607.88"/>
</g>
<!-- Node13 -->
<g id="node13" class="node">
<title>Node13</title>
<g id="a_node13"><a xlink:href="rmap_8c_aba944cf978de0b264ea5bb3a784bce0f.html#aba944cf978de0b264ea5bb3a784bce0f" target="_top" xlink:title="create an RMAP packet and set defaults">
<polygon fill="white" stroke="black" points="978,-418.5 978,-437.5 1094,-437.5 1094,-418.5 978,-418.5"/>
<text text-anchor="middle" x="1036" y="-425.5" font-family="Helvetica,sans-Serif" font-size="10.00">rmap_create_packet</text>
</a>
</g>
</g>
<!-- Node10&#45;&gt;Node13 -->
<g id="edge12" class="edge">
<title>Node10&#45;&gt;Node13</title>
<path fill="none" stroke="midnightblue" d="M760.01,-494.45C817.21,-480.63 923.04,-455.06 985.4,-439.98"/>
<polygon fill="midnightblue" stroke="midnightblue" points="986.5,-443.32 995.4,-437.57 984.86,-436.52 986.5,-443.32"/>
</g>
<!-- Node14 -->
<g id="node14" class="node">
<title>Node14</title>
<g id="a_node14"><a xlink:href="rmap_8c_a1def9af549819e7fdbda12af8bdc9c0e.html#a1def9af549819e7fdbda12af8bdc9c0e" target="_top" xlink:title="completely destroys an RMAP packet">
<polygon fill="white" stroke="black" points="810,-266.5 810,-285.5 922,-285.5 922,-266.5 810,-266.5"/>
<text text-anchor="middle" x="866" y="-273.5" font-family="Helvetica,sans-Serif" font-size="10.00">rmap_erase_packet</text>
</a>
</g>
</g>
<!-- Node10&#45;&gt;Node14 -->
<g id="edge13" class="edge">
<title>Node10&#45;&gt;Node14</title>
<path fill="none" stroke="midnightblue" d="M721.38,-494.48C724.93,-461.66 741.12,-352.19 803,-295 804.71,-293.42 806.55,-291.97 808.49,-290.63"/>
<polygon fill="midnightblue" stroke="midnightblue" points="810.53,-293.51 817.51,-285.54 807.08,-287.41 810.53,-293.51"/>
</g>
<!-- Node15 -->
<g id="node15" class="node">
<title>Node15</title>
<g id="a_node15"><a xlink:href="rmap_8c_aab7e23f061291d39568ad2df700bc777.html#aab7e23f061291d39568ad2df700bc777" target="_top" xlink:title="set an RMAP command">
<polygon fill="white" stroke="black" points="821.5,-722.5 821.5,-741.5 910.5,-741.5 910.5,-722.5 821.5,-722.5"/>
<text text-anchor="middle" x="866" y="-729.5" font-family="Helvetica,sans-Serif" font-size="10.00">rmap_set_cmd</text>
</a>
</g>
</g>
<!-- Node10&#45;&gt;Node15 -->
<g id="edge14" class="edge">
<title>Node10&#45;&gt;Node15</title>
<path fill="none" stroke="midnightblue" d="M721.38,-513.52C724.93,-546.34 741.12,-655.81 803,-713 805.77,-715.56 808.87,-717.77 812.17,-719.69"/>
<polygon fill="midnightblue" stroke="midnightblue" points="810.77,-722.9 821.3,-724.09 813.82,-716.59 810.77,-722.9"/>
</g>
<!-- Node17 -->
<g id="node17" class="node">
<title>Node17</title>
<g id="a_node17"><a xlink:href="rmap_8c_acf641aae92829ae864b6c3d8f94d86e2.html#acf641aae92829ae864b6c3d8f94d86e2" target="_top" xlink:title="set a data address">
<polygon fill="white" stroke="black" points="808,-684.5 808,-703.5 924,-703.5 924,-684.5 808,-684.5"/>
<text text-anchor="middle" x="866" y="-691.5" font-family="Helvetica,sans-Serif" font-size="10.00">rmap_set_data_addr</text>
</a>
</g>
</g>
<!-- Node10&#45;&gt;Node17 -->
<g id="edge16" class="edge">
<title>Node10&#45;&gt;Node17</title>
<path fill="none" stroke="midnightblue" d="M722.36,-513.79C728.4,-542.91 750.23,-629.7 803,-675 804.98,-676.7 807.11,-678.25 809.35,-679.66"/>
<polygon fill="midnightblue" stroke="midnightblue" points="807.93,-682.87 818.41,-684.44 811.2,-676.68 807.93,-682.87"/>
</g>
<!-- Node18 -->
<g id="node18" class="node">
<title>Node18</title>
<g id="a_node18"><a xlink:href="rmap_8c_a6833f065640f652aa1a929309e592f7a.html#a6833f065640f652aa1a929309e592f7a" target="_top" xlink:title="set an RMAP command">
<polygon fill="white" stroke="black" points="811,-646.5 811,-665.5 921,-665.5 921,-646.5 811,-646.5"/>
<text text-anchor="middle" x="866" y="-653.5" font-family="Helvetica,sans-Serif" font-size="10.00">rmap_set_data_len</text>
</a>
</g>
</g>
<!-- Node10&#45;&gt;Node18 -->
<g id="edge17" class="edge">
<title>Node10&#45;&gt;Node18</title>
<path fill="none" stroke="midnightblue" d="M723.76,-513.68C732.52,-538.17 758.88,-603 803,-637 805.34,-638.8 807.85,-640.44 810.48,-641.92"/>
<polygon fill="midnightblue" stroke="midnightblue" points="809.22,-645.19 819.75,-646.38 812.25,-638.89 809.22,-645.19"/>
</g>
<!-- Node19 -->
<g id="node19" class="node">
<title>Node19</title>
<g id="a_node19"><a xlink:href="rmap_8c_a5f0081b9928da5e50fc8b231b57f3a80.html#a5f0081b9928da5e50fc8b231b57f3a80" target="_top" xlink:title="set the destination address path">
<polygon fill="white" stroke="black" points="808,-342.5 808,-361.5 924,-361.5 924,-342.5 808,-342.5"/>
<text text-anchor="middle" x="866" y="-349.5" font-family="Helvetica,sans-Serif" font-size="10.00">rmap_set_dest_path</text>
</a>
</g>
</g>
<!-- Node10&#45;&gt;Node19 -->
<g id="edge18" class="edge">
<title>Node10&#45;&gt;Node19</title>
<path fill="none" stroke="midnightblue" d="M723.76,-494.32C732.52,-469.83 758.88,-405 803,-371 805.34,-369.2 807.85,-367.56 810.48,-366.08"/>
<polygon fill="midnightblue" stroke="midnightblue" points="812.25,-369.11 819.75,-361.62 809.22,-362.81 812.25,-369.11"/>
</g>
<!-- Node21 -->
<g id="node21" class="node">
<title>Node21</title>
<g id="a_node21"><a xlink:href="rmap_8c_a2da8e7b48411d382b54848795f85795d.html#a2da8e7b48411d382b54848795f85795d" target="_top" xlink:title="set the destination (target) logical address">
<polygon fill="white" stroke="black" points="824.5,-570.5 824.5,-589.5 907.5,-589.5 907.5,-570.5 824.5,-570.5"/>
<text text-anchor="middle" x="866" y="-577.5" font-family="Helvetica,sans-Serif" font-size="10.00">rmap_set_dst</text>
</a>
</g>
</g>
<!-- Node10&#45;&gt;Node21 -->
<g id="edge20" class="edge">
<title>Node10&#45;&gt;Node21</title>
<path fill="none" stroke="midnightblue" d="M731.82,-513.52C747.1,-525.96 775.58,-547.72 803,-561 807.63,-563.24 812.58,-565.29 817.6,-567.14"/>
<polygon fill="midnightblue" stroke="midnightblue" points="816.65,-570.52 827.24,-570.46 818.92,-563.9 816.65,-570.52"/>
</g>
<!-- Node22 -->
<g id="node22" class="node">
<title>Node22</title>
<g id="a_node22"><a xlink:href="rmap_8c_a15021c9dfccddc44786dfd37834bcd7e.html#a15021c9dfccddc44786dfd37834bcd7e" target="_top" xlink:title="set the command authorisation key">
<polygon fill="white" stroke="black" points="823.5,-532.5 823.5,-551.5 908.5,-551.5 908.5,-532.5 823.5,-532.5"/>
<text text-anchor="middle" x="866" y="-539.5" font-family="Helvetica,sans-Serif" font-size="10.00">rmap_set_key</text>
</a>
</g>
</g>
<!-- Node10&#45;&gt;Node22 -->
<g id="edge21" class="edge">
<title>Node10&#45;&gt;Node22</title>
<path fill="none" stroke="midnightblue" d="M756.96,-513.59C775.77,-518.54 798.91,-524.62 818.95,-529.89"/>
<polygon fill="midnightblue" stroke="midnightblue" points="818.24,-533.32 828.8,-532.48 820.02,-526.55 818.24,-533.32"/>
</g>
<!-- Node23 -->
<g id="node23" class="node">
<title>Node23</title>
<g id="a_node23"><a xlink:href="rmap_8c_a56c47830e67d01e469231e5e7e1d3a34.html#a56c47830e67d01e469231e5e7e1d3a34" target="_top" xlink:title="set the reply address path">
<polygon fill="white" stroke="black" points="806.5,-304.5 806.5,-323.5 925.5,-323.5 925.5,-304.5 806.5,-304.5"/>
<text text-anchor="middle" x="866" y="-311.5" font-family="Helvetica,sans-Serif" font-size="10.00">rmap_set_reply_path</text>
</a>
</g>
</g>
<!-- Node10&#45;&gt;Node23 -->
<g id="edge22" class="edge">
<title>Node10&#45;&gt;Node23</title>
<path fill="none" stroke="midnightblue" d="M722.36,-494.21C728.4,-465.09 750.23,-378.3 803,-333 804.98,-331.3 807.11,-329.75 809.35,-328.34"/>
<polygon fill="midnightblue" stroke="midnightblue" points="811.2,-331.32 818.41,-323.56 807.93,-325.13 811.2,-331.32"/>
</g>
<!-- Node24 -->
<g id="node24" class="node">
<title>Node24</title>
<g id="a_node24"><a xlink:href="rmap_8c_adae0030440ca4e7ad34622e505acbb2c.html#adae0030440ca4e7ad34622e505acbb2c" target="_top" xlink:title="set the source (initiator) logical address">
<polygon fill="white" stroke="black" points="825,-494.5 825,-513.5 907,-513.5 907,-494.5 825,-494.5"/>
<text text-anchor="middle" x="866" y="-501.5" font-family="Helvetica,sans-Serif" font-size="10.00">rmap_set_src</text>
</a>
</g>
</g>
<!-- Node10&#45;&gt;Node24 -->
<g id="edge24" class="edge">
<title>Node10&#45;&gt;Node24</title>
<path fill="none" stroke="midnightblue" d="M763.07,-504C779.21,-504 797.73,-504 814.52,-504"/>
<polygon fill="midnightblue" stroke="midnightblue" points="814.71,-507.5 824.71,-504 814.71,-500.5 814.71,-507.5"/>
</g>
<!-- Node25 -->
<g id="node25" class="node">
<title>Node25</title>
<g id="a_node25"><a xlink:href="rmap_8c_a7b4c31714493ce6cc19d4aa825ab50aa.html#a7b4c31714493ce6cc19d4aa825ab50aa" target="_top" xlink:title="set an RMAP transaction identifier">
<polygon fill="white" stroke="black" points="821.5,-418.5 821.5,-437.5 910.5,-437.5 910.5,-418.5 821.5,-418.5"/>
<text text-anchor="middle" x="866" y="-425.5" font-family="Helvetica,sans-Serif" font-size="10.00">rmap_set_tr_id</text>
</a>
</g>
</g>
<!-- Node10&#45;&gt;Node25 -->
<g id="edge25" class="edge">
<title>Node10&#45;&gt;Node25</title>
<path fill="none" stroke="midnightblue" d="M734.04,-494.32C750,-483.18 777.59,-464.78 803,-452 810.78,-448.09 819.36,-444.4 827.6,-441.13"/>
<polygon fill="midnightblue" stroke="midnightblue" points="828.95,-444.36 837.04,-437.52 826.45,-437.83 828.95,-444.36"/>
</g>
<!-- Node12 -->
<g id="node12" class="node">
<title>Node12</title>
<g id="a_node12"><a xlink:href="rmap_8c_a0ec3c28e83818f02e00d4c79d82d938a.html#a0ec3c28e83818f02e00d4c79d82d938a" target="_top" xlink:title="get the minimum header size given the RMAP instruction">
<polygon fill="white" stroke="black" points="969.5,-513.5 969.5,-532.5 1102.5,-532.5 1102.5,-513.5 969.5,-513.5"/>
<text text-anchor="middle" x="1036" y="-520.5" font-family="Helvetica,sans-Serif" font-size="10.00">rmap_get_min_hdr_size</text>
</a>
</g>
</g>
<!-- Node11&#45;&gt;Node12 -->
<g id="edge11" class="edge">
<title>Node11&#45;&gt;Node12</title>
<path fill="none" stroke="midnightblue" d="M905.13,-608.45C913.2,-605.84 921.53,-602.7 929,-599 962.03,-582.65 995.9,-556.37 1016.2,-539.4"/>
<polygon fill="midnightblue" stroke="midnightblue" points="1018.67,-541.89 1024.02,-532.75 1014.14,-536.56 1018.67,-541.89"/>
</g>
<!-- Node16 -->
<g id="node16" class="node">
<title>Node16</title>
<g id="a_node16"><a xlink:href="rmap_8c_a667ce871110961f2a611d0244791e20f.html#a667ce871110961f2a611d0244791e20f" target="_top" xlink:title="valiidates a command code">
<polygon fill="white" stroke="black" points="965,-722.5 965,-741.5 1107,-741.5 1107,-722.5 965,-722.5"/>
<text text-anchor="middle" x="1036" y="-729.5" font-family="Helvetica,sans-Serif" font-size="10.00">rmap_validate_cmd_code</text>
</a>
</g>
</g>
<!-- Node15&#45;&gt;Node16 -->
<g id="edge15" class="edge">
<title>Node15&#45;&gt;Node16</title>
<path fill="none" stroke="midnightblue" d="M910.7,-732C924.13,-732 939.36,-732 954.44,-732"/>
<polygon fill="midnightblue" stroke="midnightblue" points="954.83,-735.5 964.83,-732 954.83,-728.5 954.83,-735.5"/>
</g>
<!-- Node20 -->
<g id="node20" class="node">
<title>Node20</title>
<g id="a_node20"><a xlink:href="test__cmp__max__used__bits__list_8c_a7ac38fce3243a7dcf448301ee9ffd392.html#a7ac38fce3243a7dcf448301ee9ffd392" target="_top" xlink:title=" ">
<polygon fill="white" stroke="black" points="1011,-304.5 1011,-323.5 1061,-323.5 1061,-304.5 1011,-304.5"/>
<text text-anchor="middle" x="1036" y="-311.5" font-family="Helvetica,sans-Serif" font-size="10.00">malloc</text>
</a>
</g>
</g>
<!-- Node19&#45;&gt;Node20 -->
<g id="edge19" class="edge">
<title>Node19&#45;&gt;Node20</title>
<path fill="none" stroke="midnightblue" d="M909.39,-342.41C937.71,-336.01 974.47,-327.69 1000.9,-321.71"/>
<polygon fill="midnightblue" stroke="midnightblue" points="1001.85,-325.09 1010.83,-319.47 1000.3,-318.26 1001.85,-325.09"/>
</g>
<!-- Node23&#45;&gt;Node20 -->
<g id="edge23" class="edge">
<title>Node23&#45;&gt;Node20</title>
<path fill="none" stroke="midnightblue" d="M925.76,-314C950.69,-314 978.89,-314 1000.39,-314"/>
<polygon fill="midnightblue" stroke="midnightblue" points="1000.67,-317.5 1010.67,-314 1000.67,-310.5 1000.67,-317.5"/>
</g>
<!-- Node26&#45;&gt;Node20 -->
<g id="edge27" class="edge">
<title>Node26&#45;&gt;Node20</title>
<path fill="none" stroke="midnightblue" d="M433.08,-191.52C514.39,-169.86 729.72,-113.55 803,-105 858.62,-98.51 881.28,-75.7 929,-105 998.21,-147.5 1023.94,-250.8 1031.91,-294.24"/>
<polygon fill="midnightblue" stroke="midnightblue" points="1028.47,-294.88 1033.61,-304.14 1035.37,-293.7 1028.47,-294.88"/>
</g>
<!-- Node27 -->
<g id="node27" class="node">
<title>Node27</title>
<g id="a_node27"><a xlink:href="rdcu__rmap_8c_a95fad3cd9b6bbe562e1a73e3f1c108a8.html#a95fad3cd9b6bbe562e1a73e3f1c108a8" target="_top" xlink:title="submit an rmap command transaction">
<polygon fill="white" stroke="black" points="523,-228.5 523,-247.5 615,-247.5 615,-228.5 523,-228.5"/>
<text text-anchor="middle" x="569" y="-235.5" font-family="Helvetica,sans-Serif" font-size="10.00">rdcu_submit_tx</text>
</a>
</g>
</g>
<!-- Node26&#45;&gt;Node27 -->
<g id="edge28" class="edge">
<title>Node26&#45;&gt;Node27</title>
<path fill="none" stroke="midnightblue" d="M433.21,-207.24C456.74,-212.61 489.32,-220.04 516.56,-226.26"/>
<polygon fill="midnightblue" stroke="midnightblue" points="515.8,-229.68 526.33,-228.49 517.36,-222.85 515.8,-229.68"/>
</g>
<!-- Node38 -->
<g id="node38" class="node">
<title>Node38</title>
<g id="a_node38"><a xlink:href="rdcu__rmap_8c_a36f44335aa66dd49fb4903f7269bc5b1.html#a36f44335aa66dd49fb4903f7269bc5b1" target="_top" xlink:title="grab a slot in the transaction log">
<polygon fill="white" stroke="black" points="513,-190.5 513,-209.5 625,-209.5 625,-190.5 513,-190.5"/>
<text text-anchor="middle" x="569" y="-197.5" font-family="Helvetica,sans-Serif" font-size="10.00">trans_log_grab_slot</text>
</a>
</g>
</g>
<!-- Node26&#45;&gt;Node38 -->
<g id="edge44" class="edge">
<title>Node26&#45;&gt;Node38</title>
<path fill="none" stroke="midnightblue" d="M433.21,-200C452.86,-200 478.82,-200 502.71,-200"/>
<polygon fill="midnightblue" stroke="midnightblue" points="502.8,-203.5 512.8,-200 502.8,-196.5 502.8,-203.5"/>
</g>
<!-- Node28 -->
<g id="node28" class="node">
<title>Node28</title>
<g id="a_node28"><a xlink:href="rdcu__rmap_8c_a1a064554031c2fa2dcb65541e0765c0f.html#a1a064554031c2fa2dcb65541e0765c0f" target="_top" xlink:title="n rmap command transaction">
<polygon fill="white" stroke="black" points="672,-190.5 672,-209.5 767,-209.5 767,-190.5 672,-190.5"/>
<text text-anchor="middle" x="719.5" y="-197.5" font-family="Helvetica,sans-Serif" font-size="10.00">rdcu_process_rx</text>
</a>
</g>
</g>
<!-- Node27&#45;&gt;Node28 -->
<g id="edge29" class="edge">
<title>Node27&#45;&gt;Node28</title>
<path fill="none" stroke="midnightblue" d="M607.47,-228.41C626.89,-223.44 650.8,-217.32 671.45,-212.04"/>
<polygon fill="midnightblue" stroke="midnightblue" points="672.48,-215.39 681.3,-209.52 670.74,-208.61 672.48,-215.39"/>
</g>
<!-- Node28&#45;&gt;Node14 -->
<g id="edge32" class="edge">
<title>Node28&#45;&gt;Node14</title>
<path fill="none" stroke="midnightblue" d="M734.04,-209.68C750,-220.82 777.59,-239.22 803,-252 810.78,-255.91 819.36,-259.6 827.6,-262.87"/>
<polygon fill="midnightblue" stroke="midnightblue" points="826.45,-266.17 837.04,-266.48 828.95,-259.64 826.45,-266.17"/>
</g>
<!-- Node28&#45;&gt;Node20 -->
<g id="edge30" class="edge">
<title>Node28&#45;&gt;Node20</title>
<path fill="none" stroke="midnightblue" d="M759.44,-209.52C810.79,-222.27 898.25,-244.71 929,-257 958.41,-268.75 990.15,-286.57 1011.16,-299.15"/>
<polygon fill="midnightblue" stroke="midnightblue" points="1009.37,-302.16 1019.73,-304.35 1013,-296.17 1009.37,-302.16"/>
</g>
<!-- Node29 -->
<g id="node29" class="node">
<title>Node29</title>
<g id="a_node29"><a xlink:href="rmap_8c_abf1868ec6873f9f189050cadc7e64a3b.html#abf1868ec6873f9f189050cadc7e64a3b" target="_top" xlink:title="calculate the CRC8 of a given buffer">
<polygon fill="white" stroke="black" points="832,-152.5 832,-171.5 900,-171.5 900,-152.5 832,-152.5"/>
<text text-anchor="middle" x="866" y="-159.5" font-family="Helvetica,sans-Serif" font-size="10.00">rmap_crc8</text>
</a>
</g>
</g>
<!-- Node28&#45;&gt;Node29 -->
<g id="edge31" class="edge">
<title>Node28&#45;&gt;Node29</title>
<path fill="none" stroke="midnightblue" d="M756.96,-190.41C776.65,-185.23 801.08,-178.81 821.73,-173.38"/>
<polygon fill="midnightblue" stroke="midnightblue" points="822.74,-176.73 831.52,-170.8 820.96,-169.96 822.74,-176.73"/>
</g>
<!-- Node30 -->
<g id="node30" class="node">
<title>Node30</title>
<g id="a_node30"><a xlink:href="rmap_8c_a5e88a29337404518eceedf9b4af285bf.html#a5e88a29337404518eceedf9b4af285bf" target="_top" xlink:title=" ">
<polygon fill="white" stroke="black" points="818.5,-38.5 818.5,-57.5 913.5,-57.5 913.5,-38.5 818.5,-38.5"/>
<text text-anchor="middle" x="866" y="-45.5" font-family="Helvetica,sans-Serif" font-size="10.00">rmap_parse_pkt</text>
</a>
</g>
</g>
<!-- Node28&#45;&gt;Node30 -->
<g id="edge33" class="edge">
<title>Node28&#45;&gt;Node30</title>
<path fill="none" stroke="midnightblue" d="M728.35,-190.25C742.64,-172.68 774.07,-134.76 803,-105 816.88,-90.72 833.53,-75.51 846.09,-64.39"/>
<polygon fill="midnightblue" stroke="midnightblue" points="848.47,-66.96 853.67,-57.73 843.85,-61.7 848.47,-66.96"/>
</g>
<!-- Node35 -->
<g id="node35" class="node">
<title>Node35</title>
<g id="a_node35"><a xlink:href="rmap_8c_a46d3271304c12df042b57dbebaba67e1.html#a46d3271304c12df042b57dbebaba67e1" target="_top" xlink:title="create an rmap packet from a buffer">
<polygon fill="white" stroke="black" points="803.5,-380.5 803.5,-399.5 928.5,-399.5 928.5,-380.5 803.5,-380.5"/>
<text text-anchor="middle" x="866" y="-387.5" font-family="Helvetica,sans-Serif" font-size="10.00">rmap_pkt_from_buffer</text>
</a>
</g>
</g>
<!-- Node28&#45;&gt;Node35 -->
<g id="edge38" class="edge">
<title>Node28&#45;&gt;Node35</title>
<path fill="none" stroke="midnightblue" d="M722.36,-209.79C728.4,-238.91 750.23,-325.7 803,-371 804.98,-372.7 807.11,-374.25 809.35,-375.66"/>
<polygon fill="midnightblue" stroke="midnightblue" points="807.93,-378.87 818.41,-380.44 811.2,-372.68 807.93,-378.87"/>
</g>
<!-- Node36 -->
<g id="node36" class="node">
<title>Node36</title>
<g id="a_node36"><a xlink:href="rdcu__rmap_8c_acf9b176d8d9b24e9d07711f56aebccc0.html#acf9b176d8d9b24e9d07711f56aebccc0" target="_top" xlink:title="get the local address for a slot">
<polygon fill="white" stroke="black" points="811,-114.5 811,-133.5 921,-133.5 921,-114.5 811,-114.5"/>
<text text-anchor="middle" x="866" y="-121.5" font-family="Helvetica,sans-Serif" font-size="10.00">trans_log_get_addr</text>
</a>
</g>
</g>
<!-- Node28&#45;&gt;Node36 -->
<g id="edge42" class="edge">
<title>Node28&#45;&gt;Node36</title>
<path fill="none" stroke="midnightblue" d="M731.82,-190.48C747.1,-178.04 775.58,-156.28 803,-143 807.63,-140.76 812.58,-138.71 817.6,-136.86"/>
<polygon fill="midnightblue" stroke="midnightblue" points="818.92,-140.1 827.24,-133.54 816.65,-133.48 818.92,-140.1"/>
</g>
<!-- Node37 -->
<g id="node37" class="node">
<title>Node37</title>
<g id="a_node37"><a xlink:href="rdcu__rmap_8c_a7012f58a1862cf07b00e299d24c199c2.html#a7012f58a1862cf07b00e299d24c199c2" target="_top" xlink:title="release a slot in the transaction log">
<polygon fill="white" stroke="black" points="803,-190.5 803,-209.5 929,-209.5 929,-190.5 803,-190.5"/>
<text text-anchor="middle" x="866" y="-197.5" font-family="Helvetica,sans-Serif" font-size="10.00">trans_log_release_slot</text>
</a>
</g>
</g>
<!-- Node28&#45;&gt;Node37 -->
<g id="edge43" class="edge">
<title>Node28&#45;&gt;Node37</title>
<path fill="none" stroke="midnightblue" d="M767.02,-200C775.2,-200 783.89,-200 792.58,-200"/>
<polygon fill="midnightblue" stroke="midnightblue" points="792.76,-203.5 802.76,-200 792.76,-196.5 792.76,-203.5"/>
</g>
<!-- Node31 -->
<g id="node31" class="node">
<title>Node31</title>
<g id="a_node31"><a xlink:href="rmap_8c_abb4e19c17c7223212c3904bc4c0189d2.html#abb4e19c17c7223212c3904bc4c0189d2" target="_top" xlink:title=" ">
<polygon fill="white" stroke="black" points="980.5,-38.5 980.5,-57.5 1091.5,-57.5 1091.5,-38.5 980.5,-38.5"/>
<text text-anchor="middle" x="1036" y="-45.5" font-family="Helvetica,sans-Serif" font-size="10.00">rmap_check_status</text>
</a>
</g>
</g>
<!-- Node30&#45;&gt;Node31 -->
<g id="edge34" class="edge">
<title>Node30&#45;&gt;Node31</title>
<path fill="none" stroke="midnightblue" d="M913.8,-48C931.33,-48 951.57,-48 970.42,-48"/>
<polygon fill="midnightblue" stroke="midnightblue" points="970.43,-51.5 980.43,-48 970.43,-44.5 970.43,-51.5"/>
</g>
<!-- Node32 -->
<g id="node32" class="node">
<title>Node32</title>
<g id="a_node32"><a xlink:href="rmap_8c_a20aa8b91dfb1bbad819759f97b853054.html#a20aa8b91dfb1bbad819759f97b853054" target="_top" xlink:title=" ">
<polygon fill="white" stroke="black" points="975,-0.5 975,-19.5 1097,-19.5 1097,-0.5 975,-0.5"/>
<text text-anchor="middle" x="1036" y="-7.5" font-family="Helvetica,sans-Serif" font-size="10.00">rmap_parse_cmd_pkt</text>
</a>
</g>
</g>
<!-- Node30&#45;&gt;Node32 -->
<g id="edge35" class="edge">
<title>Node30&#45;&gt;Node32</title>
<path fill="none" stroke="midnightblue" d="M909.39,-38.41C931.76,-33.35 959.4,-27.1 983.05,-21.75"/>
<polygon fill="midnightblue" stroke="midnightblue" points="983.93,-25.14 992.91,-19.52 982.39,-18.31 983.93,-25.14"/>
</g>
<!-- Node33 -->
<g id="node33" class="node">
<title>Node33</title>
<g id="a_node33"><a xlink:href="rmap_8c_adef42426b46ee5ad5176ee76cff35c22.html#adef42426b46ee5ad5176ee76cff35c22" target="_top" xlink:title=" ">
<polygon fill="white" stroke="black" points="973.5,-76.5 973.5,-95.5 1098.5,-95.5 1098.5,-76.5 973.5,-76.5"/>
<text text-anchor="middle" x="1036" y="-83.5" font-family="Helvetica,sans-Serif" font-size="10.00">rmap_parse_reply_pkt</text>
</a>
</g>
</g>
<!-- Node30&#45;&gt;Node33 -->
<g id="edge36" class="edge">
<title>Node30&#45;&gt;Node33</title>
<path fill="none" stroke="midnightblue" d="M909.39,-57.59C931.76,-62.65 959.4,-68.9 983.05,-74.25"/>
<polygon fill="midnightblue" stroke="midnightblue" points="982.39,-77.69 992.91,-76.48 983.93,-70.86 982.39,-77.69"/>
</g>
<!-- Node34 -->
<g id="node34" class="node">
<title>Node34</title>
<g id="a_node34"><a xlink:href="rmap_8c_a2ff278a5e094a9f585865d4d838e0e0e.html#a2ff278a5e094a9f585865d4d838e0e0e" target="_top" xlink:title=" ">
<polygon fill="white" stroke="black" points="1143,-76.5 1143,-95.5 1285,-95.5 1285,-76.5 1143,-76.5"/>
<text text-anchor="middle" x="1214" y="-83.5" font-family="Helvetica,sans-Serif" font-size="10.00">rmap_process_read_reply</text>
</a>
</g>
</g>
<!-- Node33&#45;&gt;Node34 -->
<g id="edge37" class="edge">
<title>Node33&#45;&gt;Node34</title>
<path fill="none" stroke="midnightblue" d="M1098.56,-86C1109.6,-86 1121.25,-86 1132.73,-86"/>
<polygon fill="midnightblue" stroke="midnightblue" points="1132.74,-89.5 1142.74,-86 1132.74,-82.5 1132.74,-89.5"/>
</g>
<!-- Node35&#45;&gt;Node12 -->
<g id="edge41" class="edge">
<title>Node35&#45;&gt;Node12</title>
<path fill="none" stroke="midnightblue" d="M909.01,-399.58C915.97,-402.08 922.89,-405.18 929,-409 931.76,-410.73 990.47,-474.5 1019.3,-505.89"/>
<polygon fill="midnightblue" stroke="midnightblue" points="1016.91,-508.46 1026.25,-513.46 1022.07,-503.73 1016.91,-508.46"/>
</g>
<!-- Node35&#45;&gt;Node13 -->
<g id="edge40" class="edge">
<title>Node35&#45;&gt;Node13</title>
<path fill="none" stroke="midnightblue" d="M909.39,-399.59C931.76,-404.65 959.4,-410.9 983.05,-416.25"/>
<polygon fill="midnightblue" stroke="midnightblue" points="982.39,-419.69 992.91,-418.48 983.93,-412.86 982.39,-419.69"/>
</g>
<!-- Node35&#45;&gt;Node20 -->
<g id="edge39" class="edge">
<title>Node35&#45;&gt;Node20</title>
<path fill="none" stroke="midnightblue" d="M902.51,-380.43C911.29,-377.7 920.58,-374.51 929,-371 958.06,-358.87 989.64,-341.27 1010.7,-328.84"/>
<polygon fill="midnightblue" stroke="midnightblue" points="1012.52,-331.83 1019.32,-323.7 1008.94,-325.82 1012.52,-331.83"/>
</g>
<!-- Node40 -->
<g id="node40" class="node">
<title>Node40</title>
<g id="a_node40"><a xlink:href="rdcu__rmap_8c_a2650ed06998d198567938a9e933e1761.html#a2650ed06998d198567938a9e933e1761" target="_top" xlink:title="get the RDCU &lt;&#45;&gt; ICU mirror RMAP synchronisation status">
<polygon fill="white" stroke="black" points="335,-152.5 335,-171.5 466,-171.5 466,-152.5 335,-152.5"/>
<text text-anchor="middle" x="400.5" y="-159.5" font-family="Helvetica,sans-Serif" font-size="10.00">rdcu_rmap_sync_status</text>
</a>
</g>
</g>
<!-- Node39&#45;&gt;Node40 -->
<g id="edge46" class="edge">
<title>Node39&#45;&gt;Node40</title>
<path fill="none" stroke="midnightblue" d="M270.89,-162C286.93,-162 306.02,-162 324.53,-162"/>
<polygon fill="midnightblue" stroke="midnightblue" points="324.72,-165.5 334.72,-162 324.72,-158.5 324.72,-165.5"/>
</g>
<!-- Node40&#45;&gt;Node28 -->
<g id="edge47" class="edge">
<title>Node40&#45;&gt;Node28</title>
<path fill="none" stroke="midnightblue" d="M466.24,-164.71C513.5,-167.3 578.99,-172.17 636,-181 647.8,-182.83 660.41,-185.41 672.14,-188.08"/>
<polygon fill="midnightblue" stroke="midnightblue" points="671.63,-191.55 682.17,-190.43 673.23,-184.74 671.63,-191.55"/>
</g>
</g>
</svg>
