<?xml version="1.0" encoding="UTF-8" standalone="no"?>
<!DOCTYPE svg PUBLIC "-//W3C//DTD SVG 1.1//EN"
 "http://www.w3.org/Graphics/SVG/1.1/DTD/svg11.dtd">
<!-- Generated by graphviz version 2.43.0 (0)
 -->
<!-- Title: cmp_bit_to_4byte Pages: 1 -->
<!--zoomable 1309 -->
<svg id="main" version="1.1" xmlns="http://www.w3.org/2000/svg" xmlns:xlink="http://www.w3.org/1999/xlink" xml:space="preserve" onload="init(evt)">
<style type="text/css"><![CDATA[
.edge:hover path { stroke: red; }
.edge:hover polygon { stroke: red; fill: red; }
]]></style>
<script type="text/javascript"><![CDATA[
var edges = document.getElementsByTagName('g');
if (edges && edges.length) {
  for (var i=0;i<edges.length;i++) {
    if (edges[i].id.substr(0,4)=='edge') {
      edges[i].setAttribute('class','edge');
    }
  }
}
]]></script>
        <defs>
                <circle id="rim" cx="0" cy="0" r="7"/>
                <circle id="rim2" cx="0" cy="0" r="3.5"/>
                <g id="zoomPlus">
                        <use xlink:href="#rim" fill="#404040">
                                <set attributeName="fill" to="#808080" begin="zoomplus.mouseover" end="zoomplus.mouseout"/>
                        </use>
                        <path d="M-4,0h8M0,-4v8" fill="none" stroke="white" stroke-width="1.5" pointer-events="none"/>
                </g>
                <g id="zoomMin">
                        <use xlink:href="#rim" fill="#404040">
                                <set attributeName="fill" to="#808080" begin="zoomminus.mouseover" end="zoomminus.mouseout"/>
                        </use>
                        <path d="M-4,0h8" fill="none" stroke="white" stroke-width="1.5" pointer-events="none"/>
                </g>
                <g id="dirArrow">
                        <path fill="none" stroke="white" stroke-width="1.5" d="M0,-3.0v7 M-2.5,-0.5L0,-3.0L2.5,-0.5"/>
                </g>
               <g id="resetDef">
                       <use xlink:href="#rim2" fill="#404040">
                               <set attributeName="fill" to="#808080" begin="reset.mouseover" end="reset.mouseout"/>
                       </use>
               </g>
        </defs>

<script type="text/javascript">
var viewWidth = 853;
var viewHeight = 1309;
var sectionId = 'dynsection-1';
</script>
<script xlink:href="svgpan.js"/>
<svg id="graph" class="graph">
<g id="viewport">
<title>cmp_bit_to_4byte</title>
<polygon fill="white" stroke="transparent" points="-4,4 -4,-1305 849,-1305 849,4 -4,4"/>
<!-- Node1 -->
<g id="node1" class="node">
<title>Node1</title>
<g id="a_node1"><a xlink:title="calculate the need bytes to hold a bitstream">
<polygon fill="#bfbfbf" stroke="black" points="741,-591 741,-610 845,-610 845,-591 741,-591"/>
<text text-anchor="middle" x="793" y="-598" font-family="Helvetica,sans-Serif" font-size="10.00">cmp_bit_to_4byte</text>
</a>
</g>
</g>
<!-- Node2 -->
<g id="node2" class="node">
<title>Node2</title>
<g id="a_node2"><a xlink:href="cmp__icu_8c_a3c348e2964c9f2727bda90514b5e28b2.html#a3c348e2964c9f2727bda90514b5e28b2" target="_top" xlink:title="change the endianness of the compressed data to big&#45;endian">
<polygon fill="white" stroke="black" points="564.5,-635 564.5,-654 702.5,-654 702.5,-635 564.5,-635"/>
<text text-anchor="middle" x="633.5" y="-642" font-family="Helvetica,sans-Serif" font-size="10.00">cmp_data_to_big_endian</text>
</a>
</g>
</g>
<!-- Node1&#45;&gt;Node2 -->
<g id="edge1" class="edge">
<title>Node1&#45;&gt;Node2</title>
<path fill="none" stroke="midnightblue" d="M748.16,-612.75C723.01,-619.77 691.92,-628.46 668.61,-634.97"/>
<polygon fill="midnightblue" stroke="midnightblue" points="749.14,-616.11 757.82,-610.05 747.25,-609.37 749.14,-616.11"/>
</g>
<!-- Node35 -->
<g id="node35" class="node">
<title>Node35</title>
<g id="a_node35"><a xlink:href="cmp__rdcu_8c_ab69cf44ac326e0cebdef002e8f2ea2cb.html#ab69cf44ac326e0cebdef002e8f2ea2cb" target="_top" xlink:title="compressing data with the help of the RDCU hardware compressor; read data from the last compression b...">
<polygon fill="white" stroke="black" points="575,-585.5 575,-615.5 692,-615.5 692,-585.5 575,-585.5"/>
<text text-anchor="start" x="583" y="-603.5" font-family="Helvetica,sans-Serif" font-size="10.00">rdcu_compress_data</text>
<text text-anchor="middle" x="633.5" y="-592.5" font-family="Helvetica,sans-Serif" font-size="10.00">_parallel</text>
</a>
</g>
</g>
<!-- Node1&#45;&gt;Node35 -->
<g id="edge34" class="edge">
<title>Node1&#45;&gt;Node35</title>
<path fill="none" stroke="midnightblue" d="M730.84,-600.5C718.13,-600.5 704.78,-600.5 692.2,-600.5"/>
<polygon fill="midnightblue" stroke="midnightblue" points="730.86,-604 740.86,-600.5 730.86,-597 730.86,-604"/>
</g>
<!-- Node36 -->
<g id="node36" class="node">
<title>Node36</title>
<g id="a_node36"><a xlink:href="cmp__rdcu_8h_a468b8082ee6e0134519743425b2194c4.html#a468b8082ee6e0134519743425b2194c4" target="_top" xlink:title="read the compressed bitstream from the RDCU SRAM">
<polygon fill="white" stroke="black" points="562,-547 562,-566 705,-566 705,-547 562,-547"/>
<text text-anchor="middle" x="633.5" y="-554" font-family="Helvetica,sans-Serif" font-size="10.00">rdcu_read_cmp_bitstream</text>
</a>
</g>
</g>
<!-- Node1&#45;&gt;Node36 -->
<g id="edge35" class="edge">
<title>Node1&#45;&gt;Node36</title>
<path fill="none" stroke="midnightblue" d="M749.45,-588.12C735.32,-584.05 719.5,-579.54 705,-575.5 693.77,-572.37 681.5,-569.04 670.4,-566.05"/>
<polygon fill="midnightblue" stroke="midnightblue" points="748.82,-591.58 759.4,-590.99 750.76,-584.86 748.82,-591.58"/>
</g>
<!-- Node3 -->
<g id="node3" class="node">
<title>Node3</title>
<g id="a_node3"><a xlink:href="cmp__icu_8h_a08bf8ccacb449aba08db5e51d532d834.html#a08bf8ccacb449aba08db5e51d532d834" target="_top" xlink:title="compress data on the ICU in software">
<polygon fill="white" stroke="black" points="409,-657 409,-676 519,-676 519,-657 409,-657"/>
<text text-anchor="middle" x="464" y="-664" font-family="Helvetica,sans-Serif" font-size="10.00">icu_compress_data</text>
</a>
</g>
</g>
<!-- Node2&#45;&gt;Node3 -->
<g id="edge2" class="edge">
<title>Node2&#45;&gt;Node3</title>
<path fill="none" stroke="midnightblue" d="M554.43,-654.75C542.52,-656.32 530.46,-657.9 519.21,-659.38"/>
<polygon fill="midnightblue" stroke="midnightblue" points="554.91,-658.22 564.37,-653.45 554,-651.28 554.91,-658.22"/>
</g>
<!-- Node34 -->
<g id="node34" class="node">
<title>Node34</title>
<g id="a_node34"><a xlink:href="test__cmp__icu_8c_a25ba91cfda8133f450e50ae3c84f1736.html#a25ba91cfda8133f450e50ae3c84f1736" target="_top" xlink:title=" ">
<polygon fill="white" stroke="black" points="402,-607.5 402,-637.5 526,-637.5 526,-607.5 402,-607.5"/>
<text text-anchor="start" x="410" y="-625.5" font-family="Helvetica,sans-Serif" font-size="10.00">test_cmp_data_to_big</text>
<text text-anchor="middle" x="464" y="-614.5" font-family="Helvetica,sans-Serif" font-size="10.00">_endian_error_cases</text>
</a>
</g>
</g>
<!-- Node2&#45;&gt;Node34 -->
<g id="edge33" class="edge">
<title>Node2&#45;&gt;Node34</title>
<path fill="none" stroke="midnightblue" d="M554.18,-634.21C544.74,-632.97 535.21,-631.72 526.06,-630.52"/>
<polygon fill="midnightblue" stroke="midnightblue" points="554,-637.72 564.37,-635.55 554.91,-630.78 554,-637.72"/>
</g>
<!-- Node4 -->
<g id="node4" class="node">
<title>Node4</title>
<g id="a_node4"><a xlink:href="test__cmp__decmp_8c_a50ba26014079160ca77b7d7fa76ce0f4.html#a50ba26014079160ca77b7d7fa76ce0f4" target="_top" xlink:title="compress the given configuration and decompress it afterwards; finally compare the results">
<polygon fill="white" stroke="black" points="195,-1275 195,-1294 353,-1294 353,-1275 195,-1275"/>
<text text-anchor="middle" x="274" y="-1282" font-family="Helvetica,sans-Serif" font-size="10.00">compression_decompression</text>
</a>
</g>
</g>
<!-- Node3&#45;&gt;Node4 -->
<g id="edge3" class="edge">
<title>Node3&#45;&gt;Node4</title>
<path fill="none" stroke="midnightblue" d="M462.62,-686.06C460.42,-779.08 446.38,-1175.78 366,-1262.5 361.25,-1267.63 355.53,-1271.65 349.29,-1274.8"/>
<polygon fill="midnightblue" stroke="midnightblue" points="466.12,-686.12 462.84,-676.05 459.12,-685.97 466.12,-686.12"/>
</g>
<!-- Node6 -->
<g id="node6" class="node">
<title>Node6</title>
<g id="a_node6"><a xlink:href="test__decmp_8c_a2d642d4d482b9ec7eca4568a95f5bdd4.html#a2d642d4d482b9ec7eca4568a95f5bdd4" target="_top" xlink:title=" ">
<polygon fill="white" stroke="black" points="202,-1234 202,-1253 346,-1253 346,-1234 202,-1234"/>
<text text-anchor="middle" x="274" y="-1241" font-family="Helvetica,sans-Serif" font-size="10.00">icu_compress_data_entity</text>
</a>
</g>
</g>
<!-- Node3&#45;&gt;Node6 -->
<g id="edge5" class="edge">
<title>Node3&#45;&gt;Node6</title>
<path fill="none" stroke="midnightblue" d="M462.43,-686.55C459.43,-776.92 442.61,-1145.27 366,-1224.5 360.39,-1230.3 353.5,-1234.56 346.05,-1237.66"/>
<polygon fill="midnightblue" stroke="midnightblue" points="465.93,-686.43 462.75,-676.32 458.94,-686.21 465.93,-686.43"/>
</g>
<!-- Node8 -->
<g id="node8" class="node">
<title>Node8</title>
<g id="a_node8"><a xlink:href="test__decmp_8c_a6e7a5e150e2c829836db3c42cdec2eec.html#a6e7a5e150e2c829836db3c42cdec2eec" target="_top" xlink:title=" ">
<polygon fill="white" stroke="black" points="182,-1196 182,-1215 366,-1215 366,-1196 182,-1196"/>
<text text-anchor="middle" x="274" y="-1203" font-family="Helvetica,sans-Serif" font-size="10.00">test_cmp_decmp_n_imagette_raw</text>
</a>
</g>
</g>
<!-- Node3&#45;&gt;Node8 -->
<g id="edge7" class="edge">
<title>Node3&#45;&gt;Node8</title>
<path fill="none" stroke="midnightblue" d="M462.14,-686.21C457.98,-772.03 437.2,-1112.02 366,-1185.5 361.95,-1189.68 357.24,-1193.08 352.13,-1195.84"/>
<polygon fill="midnightblue" stroke="midnightblue" points="465.64,-686.19 462.61,-676.04 458.65,-685.87 465.64,-686.19"/>
</g>
<!-- Node9 -->
<g id="node9" class="node">
<title>Node9</title>
<g id="a_node9"><a xlink:href="test__cmp__icu_8c_aca32c7d039600004c9cc5c6fe19b8ec5.html#aca32c7d039600004c9cc5c6fe19b8ec5" target="_top" xlink:title=" ">
<polygon fill="white" stroke="black" points="199,-1146.5 199,-1176.5 349,-1176.5 349,-1146.5 199,-1146.5"/>
<text text-anchor="start" x="207" y="-1164.5" font-family="Helvetica,sans-Serif" font-size="10.00">test_compress_background</text>
<text text-anchor="middle" x="274" y="-1153.5" font-family="Helvetica,sans-Serif" font-size="10.00">_error_cases</text>
</a>
</g>
</g>
<!-- Node3&#45;&gt;Node9 -->
<g id="edge8" class="edge">
<title>Node3&#45;&gt;Node9</title>
<path fill="none" stroke="midnightblue" d="M461.6,-686.55C455.54,-767.52 429,-1069.29 366,-1136.5 361.18,-1141.64 355.41,-1145.76 349.15,-1149.05"/>
<polygon fill="midnightblue" stroke="midnightblue" points="465.11,-686.49 462.35,-676.26 458.13,-685.98 465.11,-686.49"/>
</g>
<!-- Node10 -->
<g id="node10" class="node">
<title>Node10</title>
<g id="a_node10"><a xlink:href="test__cmp__icu_8c_a64b46c032fdef8789190209bd9c3c49b.html#a64b46c032fdef8789190209bd9c3c49b" target="_top" xlink:title=" ">
<polygon fill="white" stroke="black" points="218,-1097.5 218,-1127.5 330,-1127.5 330,-1097.5 218,-1097.5"/>
<text text-anchor="start" x="226" y="-1115.5" font-family="Helvetica,sans-Serif" font-size="10.00">test_compress_f_fx</text>
<text text-anchor="middle" x="274" y="-1104.5" font-family="Helvetica,sans-Serif" font-size="10.00">_efx_error_cases</text>
</a>
</g>
</g>
<!-- Node3&#45;&gt;Node10 -->
<g id="edge9" class="edge">
<title>Node3&#45;&gt;Node10</title>
<path fill="none" stroke="midnightblue" d="M461.1,-686.37C453.49,-761.67 422.92,-1028.16 366,-1087.5 356.47,-1097.43 343.4,-1103.54 330.14,-1107.26"/>
<polygon fill="midnightblue" stroke="midnightblue" points="464.59,-686.64 462.09,-676.34 457.62,-685.95 464.59,-686.64"/>
</g>
<!-- Node11 -->
<g id="node11" class="node">
<title>Node11</title>
<g id="a_node11"><a xlink:href="test__cmp__icu_8c_acd4ce1f38ffbf0d6258b81668836d96b.html#acd4ce1f38ffbf0d6258b81668836d96b" target="_top" xlink:title=" ">
<polygon fill="white" stroke="black" points="218,-1048.5 218,-1078.5 330,-1078.5 330,-1048.5 218,-1048.5"/>
<text text-anchor="start" x="226" y="-1066.5" font-family="Helvetica,sans-Serif" font-size="10.00">test_compress_f_fx</text>
<text text-anchor="middle" x="274" y="-1055.5" font-family="Helvetica,sans-Serif" font-size="10.00">_efx_ncob_ecob</text>
</a>
</g>
</g>
<!-- Node3&#45;&gt;Node11 -->
<g id="edge10" class="edge">
<title>Node3&#45;&gt;Node11</title>
<path fill="none" stroke="midnightblue" d="M460.46,-686.25C451.17,-755.67 416.85,-986.98 366,-1038.5 356.45,-1048.18 343.52,-1054.21 330.42,-1057.94"/>
<polygon fill="midnightblue" stroke="midnightblue" points="463.95,-686.6 461.78,-676.23 457.01,-685.68 463.95,-686.6"/>
</g>
<!-- Node12 -->
<g id="node12" class="node">
<title>Node12</title>
<g id="a_node12"><a xlink:href="test__cmp__icu_8c_a5fdfb76e3f52d4283fdcbf5e05ac7dd9.html#a5fdfb76e3f52d4283fdcbf5e05ac7dd9" target="_top" xlink:title=" ">
<polygon fill="white" stroke="black" points="218,-999.5 218,-1029.5 330,-1029.5 330,-999.5 218,-999.5"/>
<text text-anchor="start" x="226" y="-1017.5" font-family="Helvetica,sans-Serif" font-size="10.00">test_compress_f_fx</text>
<text text-anchor="middle" x="274" y="-1006.5" font-family="Helvetica,sans-Serif" font-size="10.00">_error_cases</text>
</a>
</g>
</g>
<!-- Node3&#45;&gt;Node12 -->
<g id="edge11" class="edge">
<title>Node3&#45;&gt;Node12</title>
<path fill="none" stroke="midnightblue" d="M463.25,-686.42C462.81,-742.63 453.6,-903.95 366,-989.5 356.27,-999 343.29,-1004.97 330.18,-1008.7"/>
<polygon fill="midnightblue" stroke="midnightblue" points="466.74,-686.08 463.23,-676.08 459.74,-686.09 466.74,-686.08"/>
</g>
<!-- Node13 -->
<g id="node13" class="node">
<title>Node13</title>
<g id="a_node13"><a xlink:href="test__cmp__icu_8c_ad6a880fe71de66a8a98a3f97d9e736da.html#ad6a880fe71de66a8a98a3f97d9e736da" target="_top" xlink:title=" ">
<polygon fill="white" stroke="black" points="218,-950.5 218,-980.5 330,-980.5 330,-950.5 218,-950.5"/>
<text text-anchor="start" x="226" y="-968.5" font-family="Helvetica,sans-Serif" font-size="10.00">test_compress_f_fx</text>
<text text-anchor="middle" x="274" y="-957.5" font-family="Helvetica,sans-Serif" font-size="10.00">_ncob_error_cases</text>
</a>
</g>
</g>
<!-- Node3&#45;&gt;Node13 -->
<g id="edge12" class="edge">
<title>Node3&#45;&gt;Node13</title>
<path fill="none" stroke="midnightblue" d="M462,-686.38C458.38,-736.68 441.75,-870.03 366,-940.5 356.16,-949.65 343.29,-955.5 330.34,-959.23"/>
<polygon fill="midnightblue" stroke="midnightblue" points="465.51,-686.4 462.64,-676.2 458.52,-685.97 465.51,-686.4"/>
</g>
<!-- Node14 -->
<g id="node14" class="node">
<title>Node14</title>
<g id="a_node14"><a xlink:href="test__cmp__icu_8c_a99545cc4ea3f1aa22be006d201e43f6d.html#a99545cc4ea3f1aa22be006d201e43f6d" target="_top" xlink:title=" ">
<polygon fill="white" stroke="black" points="195,-912 195,-931 353,-931 353,-912 195,-912"/>
<text text-anchor="middle" x="274" y="-919" font-family="Helvetica,sans-Serif" font-size="10.00">test_compress_imagette_diff</text>
</a>
</g>
</g>
<!-- Node3&#45;&gt;Node14 -->
<g id="edge13" class="edge">
<title>Node3&#45;&gt;Node14</title>
<path fill="none" stroke="midnightblue" d="M460.9,-686.51C455,-732.17 433.97,-844.5 366,-901.5 360.92,-905.76 355.13,-909.17 348.99,-911.89"/>
<polygon fill="midnightblue" stroke="midnightblue" points="464.4,-686.75 462.1,-676.41 457.45,-685.93 464.4,-686.75"/>
</g>
<!-- Node15 -->
<g id="node15" class="node">
<title>Node15</title>
<g id="a_node15"><a xlink:href="test__cmp__icu_8c_a960bb1de38c5e353aa1d1d2fb25435e8.html#a960bb1de38c5e353aa1d1d2fb25435e8" target="_top" xlink:title=" ">
<polygon fill="white" stroke="black" points="205.5,-862.5 205.5,-892.5 342.5,-892.5 342.5,-862.5 205.5,-862.5"/>
<text text-anchor="start" x="213.5" y="-880.5" font-family="Helvetica,sans-Serif" font-size="10.00">test_compress_imagette</text>
<text text-anchor="middle" x="274" y="-869.5" font-family="Helvetica,sans-Serif" font-size="10.00">_error_cases</text>
</a>
</g>
</g>
<!-- Node3&#45;&gt;Node15 -->
<g id="edge14" class="edge">
<title>Node3&#45;&gt;Node15</title>
<path fill="none" stroke="midnightblue" d="M458.34,-686.22C448.3,-724.31 420.94,-808.15 366,-852.5 359.12,-858.06 351.09,-862.38 342.7,-865.75"/>
<polygon fill="midnightblue" stroke="midnightblue" points="461.78,-686.91 460.82,-676.36 454.99,-685.2 461.78,-686.91"/>
</g>
<!-- Node16 -->
<g id="node16" class="node">
<title>Node16</title>
<g id="a_node16"><a xlink:href="test__cmp__icu_8c_a7c1162f048c55a098b4e6c1d9a0a884e.html#a7c1162f048c55a098b4e6c1d9a0a884e" target="_top" xlink:title=" ">
<polygon fill="white" stroke="black" points="205.5,-813.5 205.5,-843.5 342.5,-843.5 342.5,-813.5 205.5,-813.5"/>
<text text-anchor="start" x="213.5" y="-831.5" font-family="Helvetica,sans-Serif" font-size="10.00">test_compress_imagette</text>
<text text-anchor="middle" x="274" y="-820.5" font-family="Helvetica,sans-Serif" font-size="10.00">_model</text>
</a>
</g>
</g>
<!-- Node3&#45;&gt;Node16 -->
<g id="edge15" class="edge">
<title>Node3&#45;&gt;Node16</title>
<path fill="none" stroke="midnightblue" d="M454.78,-685.48C440.9,-715.24 409.97,-772.67 366,-803.5 358.89,-808.48 350.82,-812.48 342.5,-815.67"/>
<polygon fill="midnightblue" stroke="midnightblue" points="458.05,-686.75 458.97,-676.19 451.67,-683.87 458.05,-686.75"/>
</g>
<!-- Node17 -->
<g id="node17" class="node">
<title>Node17</title>
<g id="a_node17"><a xlink:href="test__cmp__icu_8c_a390abe2bb7591a75050558bdd4476593.html#a390abe2bb7591a75050558bdd4476593" target="_top" xlink:title=" ">
<polygon fill="white" stroke="black" points="193.5,-775 193.5,-794 354.5,-794 354.5,-775 193.5,-775"/>
<text text-anchor="middle" x="274" y="-782" font-family="Helvetica,sans-Serif" font-size="10.00">test_compress_imagette_raw</text>
</a>
</g>
</g>
<!-- Node3&#45;&gt;Node17 -->
<g id="edge16" class="edge">
<title>Node3&#45;&gt;Node17</title>
<path fill="none" stroke="midnightblue" d="M450.5,-684.37C433.87,-706.73 402.31,-744.5 366,-764.5 358.07,-768.87 349.25,-772.29 340.31,-774.95"/>
<polygon fill="midnightblue" stroke="midnightblue" points="453.47,-686.24 456.5,-676.09 447.8,-682.14 453.47,-686.24"/>
</g>
<!-- Node18 -->
<g id="node18" class="node">
<title>Node18</title>
<g id="a_node18"><a xlink:href="test__cmp__icu_8c_a3c859fa9247c65ae7a43e2bd682448e2.html#a3c859fa9247c65ae7a43e2bd682448e2" target="_top" xlink:title=" ">
<polygon fill="white" stroke="black" points="205.5,-725.5 205.5,-755.5 342.5,-755.5 342.5,-725.5 205.5,-725.5"/>
<text text-anchor="start" x="213.5" y="-743.5" font-family="Helvetica,sans-Serif" font-size="10.00">test_compress_imagette</text>
<text text-anchor="middle" x="274" y="-732.5" font-family="Helvetica,sans-Serif" font-size="10.00">_stuff</text>
</a>
</g>
</g>
<!-- Node3&#45;&gt;Node18 -->
<g id="edge17" class="edge">
<title>Node3&#45;&gt;Node18</title>
<path fill="none" stroke="midnightblue" d="M437.91,-680.93C418.69,-691.54 391.26,-705.76 366,-715.5 356.52,-719.15 346.3,-722.5 336.24,-725.48"/>
<polygon fill="midnightblue" stroke="midnightblue" points="439.62,-683.98 446.64,-676.04 436.2,-677.87 439.62,-683.98"/>
</g>
<!-- Node19 -->
<g id="node19" class="node">
<title>Node19</title>
<g id="a_node19"><a xlink:href="test__cmp__icu_8c_a4d05bd6cb0b420d45886997161470259.html#a4d05bd6cb0b420d45886997161470259" target="_top" xlink:title=" ">
<polygon fill="white" stroke="black" points="218.5,-676.5 218.5,-706.5 329.5,-706.5 329.5,-676.5 218.5,-676.5"/>
<text text-anchor="start" x="226.5" y="-694.5" font-family="Helvetica,sans-Serif" font-size="10.00">test_compress_l_fx</text>
<text text-anchor="middle" x="274" y="-683.5" font-family="Helvetica,sans-Serif" font-size="10.00">_efx_error_cases</text>
</a>
</g>
</g>
<!-- Node3&#45;&gt;Node19 -->
<g id="edge18" class="edge">
<title>Node3&#45;&gt;Node19</title>
<path fill="none" stroke="midnightblue" d="M398.76,-675.04C376.3,-678.03 351.32,-681.35 329.72,-684.22"/>
<polygon fill="midnightblue" stroke="midnightblue" points="399.42,-678.49 408.87,-673.7 398.5,-671.55 399.42,-678.49"/>
</g>
<!-- Node20 -->
<g id="node20" class="node">
<title>Node20</title>
<g id="a_node20"><a xlink:href="test__cmp__icu_8c_a0d3532f9e6f2e6e0c4392049e06c627f.html#a0d3532f9e6f2e6e0c4392049e06c627f" target="_top" xlink:title=" ">
<polygon fill="white" stroke="black" points="196,-627.5 196,-657.5 352,-657.5 352,-627.5 196,-627.5"/>
<text text-anchor="start" x="204" y="-645.5" font-family="Helvetica,sans-Serif" font-size="10.00">test_compress_l_fx</text>
<text text-anchor="middle" x="274" y="-634.5" font-family="Helvetica,sans-Serif" font-size="10.00">_efx_ncob_ecob_error_cases</text>
</a>
</g>
</g>
<!-- Node3&#45;&gt;Node20 -->
<g id="edge19" class="edge">
<title>Node3&#45;&gt;Node20</title>
<path fill="none" stroke="midnightblue" d="M398.71,-658.29C383.73,-656.38 367.63,-654.33 352.16,-652.35"/>
<polygon fill="midnightblue" stroke="midnightblue" points="398.51,-661.8 408.87,-659.59 399.4,-654.85 398.51,-661.8"/>
</g>
<!-- Node21 -->
<g id="node21" class="node">
<title>Node21</title>
<g id="a_node21"><a xlink:href="test__cmp__icu_8c_a13a2a26bd2eac1bd622925c6dcfbfb2d.html#a13a2a26bd2eac1bd622925c6dcfbfb2d" target="_top" xlink:title=" ">
<polygon fill="white" stroke="black" points="218.5,-578.5 218.5,-608.5 329.5,-608.5 329.5,-578.5 218.5,-578.5"/>
<text text-anchor="start" x="226.5" y="-596.5" font-family="Helvetica,sans-Serif" font-size="10.00">test_compress_l_fx</text>
<text text-anchor="middle" x="274" y="-585.5" font-family="Helvetica,sans-Serif" font-size="10.00">_error_cases</text>
</a>
</g>
</g>
<!-- Node3&#45;&gt;Node21 -->
<g id="edge20" class="edge">
<title>Node3&#45;&gt;Node21</title>
<path fill="none" stroke="midnightblue" d="M417.18,-653.5C411.94,-651.42 406.77,-649.09 402,-646.5 383.94,-636.7 384.34,-626.77 366,-617.5 354.77,-611.82 342.07,-607.39 329.79,-603.97"/>
<polygon fill="midnightblue" stroke="midnightblue" points="416.02,-656.8 426.62,-656.96 418.43,-650.23 416.02,-656.8"/>
</g>
<!-- Node22 -->
<g id="node22" class="node">
<title>Node22</title>
<g id="a_node22"><a xlink:href="test__cmp__icu_8c_ab725960063dc032566560118d582b79e.html#ab725960063dc032566560118d582b79e" target="_top" xlink:title=" ">
<polygon fill="white" stroke="black" points="218.5,-529.5 218.5,-559.5 329.5,-559.5 329.5,-529.5 218.5,-529.5"/>
<text text-anchor="start" x="226.5" y="-547.5" font-family="Helvetica,sans-Serif" font-size="10.00">test_compress_l_fx</text>
<text text-anchor="middle" x="274" y="-536.5" font-family="Helvetica,sans-Serif" font-size="10.00">_ncob_error_cases</text>
</a>
</g>
</g>
<!-- Node3&#45;&gt;Node22 -->
<g id="edge21" class="edge">
<title>Node3&#45;&gt;Node22</title>
<path fill="none" stroke="midnightblue" d="M410.01,-652.37C407.15,-650.63 404.46,-648.69 402,-646.5 373.49,-621.11 395.25,-593.04 366,-568.5 355.74,-559.89 342.71,-554.33 329.75,-550.75"/>
<polygon fill="midnightblue" stroke="midnightblue" points="408.46,-655.51 418.95,-656.97 411.66,-649.28 408.46,-655.51"/>
</g>
<!-- Node23 -->
<g id="node23" class="node">
<title>Node23</title>
<g id="a_node23"><a xlink:href="test__cmp__icu_8c_a13bf5ba0481601697942a0a485f7631c.html#a13bf5ba0481601697942a0a485f7631c" target="_top" xlink:title=" ">
<polygon fill="white" stroke="black" points="213.5,-480.5 213.5,-510.5 334.5,-510.5 334.5,-480.5 213.5,-480.5"/>
<text text-anchor="start" x="221.5" y="-498.5" font-family="Helvetica,sans-Serif" font-size="10.00">test_compress_offset</text>
<text text-anchor="middle" x="274" y="-487.5" font-family="Helvetica,sans-Serif" font-size="10.00">_error_cases</text>
</a>
</g>
</g>
<!-- Node3&#45;&gt;Node23 -->
<g id="edge22" class="edge">
<title>Node3&#45;&gt;Node23</title>
<path fill="none" stroke="midnightblue" d="M407.97,-651.67C405.83,-650.12 403.82,-648.4 402,-646.5 361.37,-604.18 407.86,-560.6 366,-519.5 357.37,-511.03 346.13,-505.45 334.5,-501.8"/>
<polygon fill="midnightblue" stroke="midnightblue" points="406.4,-654.81 416.78,-656.9 409.97,-648.79 406.4,-654.81"/>
</g>
<!-- Node24 -->
<g id="node24" class="node">
<title>Node24</title>
<g id="a_node24"><a xlink:href="test__cmp__icu_8c_a28f0f3239f94a5d75189300dd3ed35fc.html#a28f0f3239f94a5d75189300dd3ed35fc" target="_top" xlink:title=" ">
<polygon fill="white" stroke="black" points="217.5,-431.5 217.5,-461.5 330.5,-461.5 330.5,-431.5 217.5,-431.5"/>
<text text-anchor="start" x="225.5" y="-449.5" font-family="Helvetica,sans-Serif" font-size="10.00">test_compress_s_fx</text>
<text text-anchor="middle" x="274" y="-438.5" font-family="Helvetica,sans-Serif" font-size="10.00">_efx_error_cases</text>
</a>
</g>
</g>
<!-- Node3&#45;&gt;Node24 -->
<g id="edge23" class="edge">
<title>Node3&#45;&gt;Node24</title>
<path fill="none" stroke="midnightblue" d="M407.13,-651.32C405.29,-649.86 403.57,-648.26 402,-646.5 348.88,-586.89 420.85,-528.52 366,-470.5 356.68,-460.65 343.84,-454.66 330.74,-451.07"/>
<polygon fill="midnightblue" stroke="midnightblue" points="405.56,-654.47 415.87,-656.88 409.31,-648.56 405.56,-654.47"/>
</g>
<!-- Node25 -->
<g id="node25" class="node">
<title>Node25</title>
<g id="a_node25"><a xlink:href="test__cmp__icu_8c_a90fd6057131bbf0c9b398c9c99bea3f2.html#a90fd6057131bbf0c9b398c9c99bea3f2" target="_top" xlink:title=" ">
<polygon fill="white" stroke="black" points="196,-382.5 196,-412.5 352,-412.5 352,-382.5 196,-382.5"/>
<text text-anchor="start" x="204" y="-400.5" font-family="Helvetica,sans-Serif" font-size="10.00">test_compress_s_fx</text>
<text text-anchor="middle" x="274" y="-389.5" font-family="Helvetica,sans-Serif" font-size="10.00">_efx_ncob_ecob_error_cases</text>
</a>
</g>
</g>
<!-- Node3&#45;&gt;Node25 -->
<g id="edge24" class="edge">
<title>Node3&#45;&gt;Node25</title>
<path fill="none" stroke="midnightblue" d="M406.93,-651.32C405.15,-649.86 403.5,-648.26 402,-646.5 336.27,-569.46 433.97,-496.57 366,-421.5 362.05,-417.14 357.42,-413.53 352.36,-410.55"/>
<polygon fill="midnightblue" stroke="midnightblue" points="405.12,-654.32 415.4,-656.88 408.96,-648.47 405.12,-654.32"/>
</g>
<!-- Node26 -->
<g id="node26" class="node">
<title>Node26</title>
<g id="a_node26"><a xlink:href="test__cmp__icu_8c_aa29971f14aa8c01058cf5884ccfb0b46.html#aa29971f14aa8c01058cf5884ccfb0b46" target="_top" xlink:title=" ">
<polygon fill="white" stroke="black" points="217.5,-333.5 217.5,-363.5 330.5,-363.5 330.5,-333.5 217.5,-333.5"/>
<text text-anchor="start" x="225.5" y="-351.5" font-family="Helvetica,sans-Serif" font-size="10.00">test_compress_s_fx</text>
<text text-anchor="middle" x="274" y="-340.5" font-family="Helvetica,sans-Serif" font-size="10.00">_error_cases</text>
</a>
</g>
</g>
<!-- Node3&#45;&gt;Node26 -->
<g id="edge25" class="edge">
<title>Node3&#45;&gt;Node26</title>
<path fill="none" stroke="midnightblue" d="M406.87,-651.38C405.11,-649.9 403.47,-648.28 402,-646.5 323.6,-551.95 447.15,-464.7 366,-372.5 356.93,-362.2 344.02,-356.07 330.76,-352.49"/>
<polygon fill="midnightblue" stroke="midnightblue" points="405.02,-654.35 415.28,-656.98 408.9,-648.52 405.02,-654.35"/>
</g>
<!-- Node27 -->
<g id="node27" class="node">
<title>Node27</title>
<g id="a_node27"><a xlink:href="test__cmp__icu_8c_afa54c8348f46913b7c39517424f7e547.html#afa54c8348f46913b7c39517424f7e547" target="_top" xlink:title=" ">
<polygon fill="white" stroke="black" points="217.5,-284.5 217.5,-314.5 330.5,-314.5 330.5,-284.5 217.5,-284.5"/>
<text text-anchor="start" x="225.5" y="-302.5" font-family="Helvetica,sans-Serif" font-size="10.00">test_compress_s_fx</text>
<text text-anchor="middle" x="274" y="-291.5" font-family="Helvetica,sans-Serif" font-size="10.00">_model_multi</text>
</a>
</g>
</g>
<!-- Node3&#45;&gt;Node27 -->
<g id="edge26" class="edge">
<title>Node3&#45;&gt;Node27</title>
<path fill="none" stroke="midnightblue" d="M406.33,-650.98C404.77,-649.61 403.32,-648.12 402,-646.5 310.9,-534.41 460.37,-432.86 366,-323.5 357.03,-313.11 344.15,-306.95 330.89,-303.37"/>
<polygon fill="midnightblue" stroke="midnightblue" points="404.68,-654.1 414.9,-656.89 408.65,-648.33 404.68,-654.1"/>
</g>
<!-- Node28 -->
<g id="node28" class="node">
<title>Node28</title>
<g id="a_node28"><a xlink:href="test__cmp__icu_8c_a70a6d23f621dd0ce0ffb110b9c77116f.html#a70a6d23f621dd0ce0ffb110b9c77116f" target="_top" xlink:title=" ">
<polygon fill="white" stroke="black" points="217.5,-235.5 217.5,-265.5 330.5,-265.5 330.5,-235.5 217.5,-235.5"/>
<text text-anchor="start" x="225.5" y="-253.5" font-family="Helvetica,sans-Serif" font-size="10.00">test_compress_s_fx</text>
<text text-anchor="middle" x="274" y="-242.5" font-family="Helvetica,sans-Serif" font-size="10.00">_ncob_error_cases</text>
</a>
</g>
</g>
<!-- Node3&#45;&gt;Node28 -->
<g id="edge27" class="edge">
<title>Node3&#45;&gt;Node28</title>
<path fill="none" stroke="midnightblue" d="M406.3,-651.01C404.75,-649.63 403.31,-648.13 402,-646.5 350.09,-581.67 419.8,-337.77 366,-274.5 357,-263.92 343.95,-257.72 330.52,-254.16"/>
<polygon fill="midnightblue" stroke="midnightblue" points="404.63,-654.11 414.84,-656.94 408.62,-648.36 404.63,-654.11"/>
</g>
<!-- Node29 -->
<g id="node29" class="node">
<title>Node29</title>
<g id="a_node29"><a xlink:href="test__cmp__icu_8c_ab9f5f00613d43e2b46aa130d472674cb.html#ab9f5f00613d43e2b46aa130d472674cb" target="_top" xlink:title=" ">
<polygon fill="white" stroke="black" points="205.5,-197 205.5,-216 342.5,-216 342.5,-197 205.5,-197"/>
<text text-anchor="middle" x="274" y="-204" font-family="Helvetica,sans-Serif" font-size="10.00">test_compress_s_fx_raw</text>
</a>
</g>
</g>
<!-- Node3&#45;&gt;Node29 -->
<g id="edge28" class="edge">
<title>Node3&#45;&gt;Node29</title>
<path fill="none" stroke="midnightblue" d="M406.28,-651.03C404.73,-649.64 403.3,-648.14 402,-646.5 343.72,-572.88 428.28,-295.77 366,-225.5 359.68,-218.37 351.45,-213.52 342.51,-210.28"/>
<polygon fill="midnightblue" stroke="midnightblue" points="404.59,-654.12 414.79,-656.98 408.6,-648.38 404.59,-654.12"/>
</g>
<!-- Node30 -->
<g id="node30" class="node">
<title>Node30</title>
<g id="a_node30"><a xlink:href="test__cmp__icu_8c_ad8cefbf7c0531178a3c5d00ed71cfe61.html#ad8cefbf7c0531178a3c5d00ed71cfe61" target="_top" xlink:title=" ">
<polygon fill="white" stroke="black" points="217.5,-147.5 217.5,-177.5 330.5,-177.5 330.5,-147.5 217.5,-147.5"/>
<text text-anchor="start" x="225.5" y="-165.5" font-family="Helvetica,sans-Serif" font-size="10.00">test_compress_s_fx</text>
<text text-anchor="middle" x="274" y="-154.5" font-family="Helvetica,sans-Serif" font-size="10.00">_staff</text>
</a>
</g>
</g>
<!-- Node3&#45;&gt;Node30 -->
<g id="edge29" class="edge">
<title>Node3&#45;&gt;Node30</title>
<path fill="none" stroke="midnightblue" d="M406.17,-650.96C404.66,-649.59 403.27,-648.11 402,-646.5 338.78,-566.06 431.16,-266.38 366,-187.5 357.13,-176.76 344.12,-170.4 330.69,-166.69"/>
<polygon fill="midnightblue" stroke="midnightblue" points="404.29,-653.91 414.47,-656.84 408.33,-648.2 404.29,-653.91"/>
</g>
<!-- Node31 -->
<g id="node31" class="node">
<title>Node31</title>
<g id="a_node31"><a xlink:href="test__cmp__icu_8c_aee4858f3ea226c6da9e4a9ed54475b1d.html#aee4858f3ea226c6da9e4a9ed54475b1d" target="_top" xlink:title=" ">
<polygon fill="white" stroke="black" points="204.5,-98.5 204.5,-128.5 343.5,-128.5 343.5,-98.5 204.5,-98.5"/>
<text text-anchor="start" x="212.5" y="-116.5" font-family="Helvetica,sans-Serif" font-size="10.00">test_compress_smearing</text>
<text text-anchor="middle" x="274" y="-105.5" font-family="Helvetica,sans-Serif" font-size="10.00">_error_cases</text>
</a>
</g>
</g>
<!-- Node3&#45;&gt;Node31 -->
<g id="edge30" class="edge">
<title>Node3&#45;&gt;Node31</title>
<path fill="none" stroke="midnightblue" d="M406.15,-650.97C404.65,-649.6 403.26,-648.11 402,-646.5 332.27,-557.08 438.33,-224.83 366,-137.5 360.06,-130.33 352.25,-125.16 343.71,-121.46"/>
<polygon fill="midnightblue" stroke="midnightblue" points="404.26,-653.92 414.44,-656.86 408.32,-648.21 404.26,-653.92"/>
</g>
<!-- Node32 -->
<g id="node32" class="node">
<title>Node32</title>
<g id="a_node32"><a xlink:href="test__cmp__icu_8c_a8db99614e8a5d384edb82fe466e15042.html#a8db99614e8a5d384edb82fe466e15042" target="_top" xlink:title=" ">
<polygon fill="white" stroke="black" points="207,-49.5 207,-79.5 341,-79.5 341,-49.5 207,-49.5"/>
<text text-anchor="start" x="215" y="-67.5" font-family="Helvetica,sans-Serif" font-size="10.00">test_icu_compress_data</text>
<text text-anchor="middle" x="274" y="-56.5" font-family="Helvetica,sans-Serif" font-size="10.00">_error_cases</text>
</a>
</g>
</g>
<!-- Node3&#45;&gt;Node32 -->
<g id="edge31" class="edge">
<title>Node3&#45;&gt;Node32</title>
<path fill="none" stroke="midnightblue" d="M406.14,-650.98C404.64,-649.61 403.25,-648.12 402,-646.5 325.89,-548.28 444.97,-184.44 366,-88.5 359.46,-80.55 350.63,-75.06 341.02,-71.3"/>
<polygon fill="midnightblue" stroke="midnightblue" points="404.24,-653.92 414.41,-656.89 408.31,-648.22 404.24,-653.92"/>
</g>
<!-- Node33 -->
<g id="node33" class="node">
<title>Node33</title>
<g id="a_node33"><a xlink:href="test__cmp__decmp_8c_abb20ed18a3c6ba0fc67ecef2d629dec0.html#abb20ed18a3c6ba0fc67ecef2d629dec0" target="_top" xlink:title=" ">
<polygon fill="white" stroke="black" points="201,-0.5 201,-30.5 347,-30.5 347,-0.5 201,-0.5"/>
<text text-anchor="start" x="209" y="-18.5" font-family="Helvetica,sans-Serif" font-size="10.00">test_random_compression</text>
<text text-anchor="middle" x="274" y="-7.5" font-family="Helvetica,sans-Serif" font-size="10.00">_decompression2</text>
</a>
</g>
</g>
<!-- Node3&#45;&gt;Node33 -->
<g id="edge32" class="edge">
<title>Node3&#45;&gt;Node33</title>
<path fill="none" stroke="midnightblue" d="M406.13,-650.99C404.64,-649.61 403.25,-648.12 402,-646.5 319.51,-539.47 451.6,-144.05 366,-39.5 360.93,-33.31 354.46,-28.6 347.33,-25.05"/>
<polygon fill="midnightblue" stroke="midnightblue" points="404.22,-653.92 414.39,-656.9 408.3,-648.23 404.22,-653.92"/>
</g>
<!-- Node5 -->
<g id="node5" class="node">
<title>Node5</title>
<g id="a_node5"><a xlink:href="test__cmp__decmp_8c_af3c162694b40683e0aa25c61a49cdafc.html#af3c162694b40683e0aa25c61a49cdafc" target="_top" xlink:title="random compression decompression test">
<polygon fill="white" stroke="black" points="0,-1270.5 0,-1300.5 146,-1300.5 146,-1270.5 0,-1270.5"/>
<text text-anchor="start" x="8" y="-1288.5" font-family="Helvetica,sans-Serif" font-size="10.00">test_random_compression</text>
<text text-anchor="middle" x="73" y="-1277.5" font-family="Helvetica,sans-Serif" font-size="10.00">_decompression</text>
</a>
</g>
</g>
<!-- Node4&#45;&gt;Node5 -->
<g id="edge4" class="edge">
<title>Node4&#45;&gt;Node5</title>
<path fill="none" stroke="midnightblue" d="M184.63,-1284.94C171.72,-1285.01 158.55,-1285.08 146.01,-1285.14"/>
<polygon fill="midnightblue" stroke="midnightblue" points="184.94,-1288.44 194.92,-1284.89 184.9,-1281.44 184.94,-1288.44"/>
</g>
<!-- Node7 -->
<g id="node7" class="node">
<title>Node7</title>
<g id="a_node7"><a xlink:href="test__decmp_8c_a1a33e2fcbf484c79dfe661b280386f6b.html#a1a33e2fcbf484c79dfe661b280386f6b" target="_top" xlink:title=" ">
<polygon fill="white" stroke="black" points="0,-1232 0,-1251 146,-1251 146,-1232 0,-1232"/>
<text text-anchor="middle" x="73" y="-1239" font-family="Helvetica,sans-Serif" font-size="10.00">test_cmp_decmp_s_fx_diff</text>
</a>
</g>
</g>
<!-- Node6&#45;&gt;Node7 -->
<g id="edge6" class="edge">
<title>Node6&#45;&gt;Node7</title>
<path fill="none" stroke="midnightblue" d="M191.7,-1242.68C176.67,-1242.53 161.06,-1242.37 146.32,-1242.23"/>
<polygon fill="midnightblue" stroke="midnightblue" points="191.96,-1246.19 202,-1242.79 192.03,-1239.19 191.96,-1246.19"/>
</g>
</g>
</svg>
        <g id="navigator" transform="translate(0 0)" fill="#404254">
                <rect fill="#f2f5e9" fill-opacity="0.5" stroke="#606060" stroke-width=".5" x="0" y="0" width="60" height="60"/>
                <use id="zoomplus" xlink:href="#zoomPlus" x="17" y="9" onmousedown="handleZoom(evt,'in')"/>
                <use id="zoomminus" xlink:href="#zoomMin" x="42" y="9" onmousedown="handleZoom(evt,'out')"/>
                <use id="reset" xlink:href="#resetDef" x="30" y="36" onmousedown="handleReset()"/>
                <g id="arrowUp" xlink:href="#dirArrow" transform="translate(30 24)" onmousedown="handlePan(0,-1)">
                  <use xlink:href="#rim" fill="#404040">
                        <set attributeName="fill" to="#808080" begin="arrowUp.mouseover" end="arrowUp.mouseout"/>
                  </use>
                  <path fill="none" stroke="white" stroke-width="1.5" d="M0,-3.0v7 M-2.5,-0.5L0,-3.0L2.5,-0.5"/>
                </g>
                <g id="arrowRight" xlink:href="#dirArrow" transform="rotate(90) translate(36 -43)" onmousedown="handlePan(1,0)">
                  <use xlink:href="#rim" fill="#404040">
                        <set attributeName="fill" to="#808080" begin="arrowRight.mouseover" end="arrowRight.mouseout"/>
                  </use>
                  <path fill="none" stroke="white" stroke-width="1.5" d="M0,-3.0v7 M-2.5,-0.5L0,-3.0L2.5,-0.5"/>
                </g>
                <g id="arrowDown" xlink:href="#dirArrow" transform="rotate(180) translate(-30 -48)" onmousedown="handlePan(0,1)">
                  <use xlink:href="#rim" fill="#404040">
                        <set attributeName="fill" to="#808080" begin="arrowDown.mouseover" end="arrowDown.mouseout"/>
                  </use>
                  <path fill="none" stroke="white" stroke-width="1.5" d="M0,-3.0v7 M-2.5,-0.5L0,-3.0L2.5,-0.5"/>
                </g>
                <g id="arrowLeft" xlink:href="#dirArrow" transform="rotate(270) translate(-36 17)" onmousedown="handlePan(-1,0)">
                  <use xlink:href="#rim" fill="#404040">
                        <set attributeName="fill" to="#808080" begin="arrowLeft.mouseover" end="arrowLeft.mouseout"/>
                  </use>
                  <path fill="none" stroke="white" stroke-width="1.5" d="M0,-3.0v7 M-2.5,-0.5L0,-3.0L2.5,-0.5"/>
                </g>
        </g>
        <svg viewBox="0 0 15 15" width="100%" height="30px" preserveAspectRatio="xMaxYMin meet">
         <g id="arrow_out" transform="scale(0.3 0.3)">
          <a xlink:href="cmp__support_8h_afc5d12506a22e9f39f05fdea4fc8cc58_afc5d12506a22e9f39f05fdea4fc8cc58_icgraph_org.svg" target="_base">
           <rect id="button" ry="5" rx="5" y="6" x="6" height="38" width="38"
                fill="#f2f5e9" fill-opacity="0.5" stroke="#606060" stroke-width="1.0"/>
           <path id="arrow"
             d="M 11.500037,31.436501 C 11.940474,20.09759 22.043105,11.32322 32.158766,21.979434 L 37.068811,17.246167 C 37.068811,17.246167 37.088388,32 37.088388,32 L 22.160133,31.978069 C 22.160133,31.978069 26.997745,27.140456 26.997745,27.140456 C 18.528582,18.264221 13.291696,25.230495 11.500037,31.436501 z"
             style="fill:#404040;"/>
          </a>
         </g>
        </svg>
</svg>
