<?xml version="1.0" encoding="UTF-8" standalone="no"?>
<!DOCTYPE svg PUBLIC "-//W3C//DTD SVG 1.1//EN"
 "http://www.w3.org/Graphics/SVG/1.1/DTD/svg11.dtd">
<!-- Generated by graphviz version 2.43.0 (0)
 -->
<!-- Title: cmp_bit_to_byte Pages: 1 -->
<!--zoomable 1378 -->
<svg id="main" version="1.1" xmlns="http://www.w3.org/2000/svg" xmlns:xlink="http://www.w3.org/1999/xlink" xml:space="preserve" onload="init(evt)">
<style type="text/css"><![CDATA[
.edge:hover path { stroke: red; }
.edge:hover polygon { stroke: red; fill: red; }
]]></style>
<script type="text/javascript"><![CDATA[
var edges = document.getElementsByTagName('g');
if (edges && edges.length) {
  for (var i=0;i<edges.length;i++) {
    if (edges[i].id.substr(0,4)=='edge') {
      edges[i].setAttribute('class','edge');
    }
  }
}
]]></script>
        <defs>
                <circle id="rim" cx="0" cy="0" r="7"/>
                <circle id="rim2" cx="0" cy="0" r="3.5"/>
                <g id="zoomPlus">
                        <use xlink:href="#rim" fill="#404040">
                                <set attributeName="fill" to="#808080" begin="zoomplus.mouseover" end="zoomplus.mouseout"/>
                        </use>
                        <path d="M-4,0h8M0,-4v8" fill="none" stroke="white" stroke-width="1.5" pointer-events="none"/>
                </g>
                <g id="zoomMin">
                        <use xlink:href="#rim" fill="#404040">
                                <set attributeName="fill" to="#808080" begin="zoomminus.mouseover" end="zoomminus.mouseout"/>
                        </use>
                        <path d="M-4,0h8" fill="none" stroke="white" stroke-width="1.5" pointer-events="none"/>
                </g>
                <g id="dirArrow">
                        <path fill="none" stroke="white" stroke-width="1.5" d="M0,-3.0v7 M-2.5,-0.5L0,-3.0L2.5,-0.5"/>
                </g>
               <g id="resetDef">
                       <use xlink:href="#rim2" fill="#404040">
                               <set attributeName="fill" to="#808080" begin="reset.mouseover" end="reset.mouseout"/>
                       </use>
               </g>
        </defs>

<script type="text/javascript">
var viewWidth = 1024;
var viewHeight = 1378;
var sectionId = 'dynsection-0';
</script>
<script xlink:href="svgpan.js"/>
<svg id="graph" class="graph">
<g id="viewport">
<title>cmp_bit_to_byte</title>
<polygon fill="white" stroke="transparent" points="-4,4 -4,-1374.39 1020,-1374.39 1020,4 -4,4"/>
<!-- Node1 -->
<g id="node1" class="node">
<title>Node1</title>
<g id="a_node1"><a xlink:title="calculate the need bytes to hold a bitstream">
<polygon fill="#bfbfbf" stroke="black" points="918,-155.39 918,-174.39 1016,-174.39 1016,-155.39 918,-155.39"/>
<text text-anchor="middle" x="967" y="-162.39" font-family="Helvetica,sans-Serif" font-size="10.00">cmp_bit_to_byte</text>
</a>
</g>
</g>
<!-- Node2 -->
<g id="node2" class="node">
<title>Node2</title>
<g id="a_node2"><a xlink:href="cmp__support_8c_afc5d12506a22e9f39f05fdea4fc8cc58.html#afc5d12506a22e9f39f05fdea4fc8cc58" target="_top" xlink:title="calculate the need bytes to hold a bitstream">
<polygon fill="white" stroke="black" points="759.5,-427.39 759.5,-446.39 863.5,-446.39 863.5,-427.39 759.5,-427.39"/>
<text text-anchor="middle" x="811.5" y="-434.39" font-family="Helvetica,sans-Serif" font-size="10.00">cmp_bit_to_4byte</text>
</a>
</g>
</g>
<!-- Node1&#45;&gt;Node2 -->
<g id="edge1" class="edge">
<title>Node1&#45;&gt;Node2</title>
<path fill="none" stroke="midnightblue" d="M955.45,-183.58C925.42,-236.8 840.2,-387.8 817.9,-427.32"/>
<polygon fill="midnightblue" stroke="midnightblue" points="958.67,-185 960.54,-174.57 952.57,-181.56 958.67,-185"/>
</g>
<!-- Node7 -->
<g id="node7" class="node">
<title>Node7</title>
<g id="a_node7"><a xlink:href="test__decmp_8c_a2d642d4d482b9ec7eca4568a95f5bdd4.html#a2d642d4d482b9ec7eca4568a95f5bdd4" target="_top" xlink:title=" ">
<polygon fill="white" stroke="black" points="202,-79.39 202,-98.39 346,-98.39 346,-79.39 202,-79.39"/>
<text text-anchor="middle" x="274" y="-86.39" font-family="Helvetica,sans-Serif" font-size="10.00">icu_compress_data_entity</text>
</a>
</g>
</g>
<!-- Node1&#45;&gt;Node7 -->
<g id="edge50" class="edge">
<title>Node1&#45;&gt;Node7</title>
<path fill="none" stroke="midnightblue" d="M957.82,-146.27C945.44,-120.55 919.37,-74.84 882,-52.89 683.1,63.93 381.54,-44.89 297.45,-79.28"/>
<polygon fill="midnightblue" stroke="midnightblue" points="954.64,-147.75 962.02,-155.36 961,-144.81 954.64,-147.75"/>
</g>
<!-- Node38 -->
<g id="node38" class="node">
<title>Node38</title>
<g id="a_node38"><a xlink:href="cmp__entity_8c_ac68e6942c21572a9513a9a7577126458.html#ac68e6942c21572a9513a9a7577126458" target="_top" xlink:title="create a compression entity and set the header fields">
<polygon fill="white" stroke="black" points="589.5,-174.39 589.5,-193.39 677.5,-193.39 677.5,-174.39 589.5,-174.39"/>
<text text-anchor="middle" x="633.5" y="-181.39" font-family="Helvetica,sans-Serif" font-size="10.00">cmp_ent_build</text>
</a>
</g>
</g>
<!-- Node1&#45;&gt;Node38 -->
<g id="edge37" class="edge">
<title>Node1&#45;&gt;Node38</title>
<path fill="none" stroke="midnightblue" d="M907.6,-168.23C841.84,-172 736.53,-178.04 677.75,-181.41"/>
<polygon fill="midnightblue" stroke="midnightblue" points="908.01,-171.72 917.8,-167.65 907.61,-164.73 908.01,-171.72"/>
</g>
<!-- Node39 -->
<g id="node39" class="node">
<title>Node39</title>
<g id="a_node39"><a xlink:href="test__cmp__entity_8c_a13c81359af8798146608574ab0e113fb.html#a13c81359af8798146608574ab0e113fb" target="_top" xlink:title=" ">
<polygon fill="white" stroke="black" points="408,-269.39 408,-288.39 520,-288.39 520,-269.39 408,-269.39"/>
<text text-anchor="middle" x="464" y="-276.39" font-family="Helvetica,sans-Serif" font-size="10.00">test_cmp_ent_build</text>
</a>
</g>
</g>
<!-- Node1&#45;&gt;Node39 -->
<g id="edge51" class="edge">
<title>Node1&#45;&gt;Node39</title>
<path fill="none" stroke="midnightblue" d="M921.09,-176.99C908.47,-180.3 894.72,-183.82 882,-186.89 747.77,-219.26 588.13,-253.22 511.11,-269.33"/>
<polygon fill="midnightblue" stroke="midnightblue" points="922.15,-180.33 930.93,-174.4 920.37,-173.57 922.15,-180.33"/>
</g>
<!-- Node42 -->
<g id="node42" class="node">
<title>Node42</title>
<g id="a_node42"><a xlink:href="cmp__entity_8c_a553b4a765f1cfcd37f82a818db2cf2b9.html#a553b4a765f1cfcd37f82a818db2cf2b9" target="_top" xlink:title="write the compression parameters from a compression configuration into the compression entity header">
<polygon fill="white" stroke="black" points="741,-136.39 741,-155.39 882,-155.39 882,-136.39 741,-136.39"/>
<text text-anchor="middle" x="811.5" y="-143.39" font-family="Helvetica,sans-Serif" font-size="10.00">cmp_ent_write_cmp_pars</text>
</a>
</g>
</g>
<!-- Node1&#45;&gt;Node42 -->
<g id="edge43" class="edge">
<title>Node1&#45;&gt;Node42</title>
<path fill="none" stroke="midnightblue" d="M907.8,-157.68C899.41,-156.64 890.71,-155.57 882.12,-154.5"/>
<polygon fill="midnightblue" stroke="midnightblue" points="907.5,-161.17 917.85,-158.93 908.36,-154.22 907.5,-161.17"/>
</g>
<!-- Node45 -->
<g id="node45" class="node">
<title>Node45</title>
<g id="a_node45"><a xlink:href="cmp__entity_8c_aac25fce5ba205dafed1781d24250c7b3.html#aac25fce5ba205dafed1781d24250c7b3" target="_top" xlink:title="write the parameters from the RDCU decompression information structure in the compression entity head...">
<polygon fill="white" stroke="black" points="754,-61.89 754,-91.89 869,-91.89 869,-61.89 754,-61.89"/>
<text text-anchor="start" x="762" y="-79.89" font-family="Helvetica,sans-Serif" font-size="10.00">cmp_ent_write_rdcu</text>
<text text-anchor="middle" x="811.5" y="-68.89" font-family="Helvetica,sans-Serif" font-size="10.00">_cmp_pars</text>
</a>
</g>
</g>
<!-- Node1&#45;&gt;Node45 -->
<g id="edge48" class="edge">
<title>Node1&#45;&gt;Node45</title>
<path fill="none" stroke="midnightblue" d="M940.44,-150.23C912.33,-134.12 867.39,-108.35 838.94,-92.04"/>
<polygon fill="midnightblue" stroke="midnightblue" points="938.86,-153.36 949.28,-155.3 942.35,-147.29 938.86,-153.36"/>
</g>
<!-- Node3 -->
<g id="node3" class="node">
<title>Node3</title>
<g id="a_node3"><a xlink:href="cmp__icu_8c_a3c348e2964c9f2727bda90514b5e28b2.html#a3c348e2964c9f2727bda90514b5e28b2" target="_top" xlink:title="change the endianness of the compressed data to big&#45;endian">
<polygon fill="white" stroke="black" points="564.5,-674.39 564.5,-693.39 702.5,-693.39 702.5,-674.39 564.5,-674.39"/>
<text text-anchor="middle" x="633.5" y="-681.39" font-family="Helvetica,sans-Serif" font-size="10.00">cmp_data_to_big_endian</text>
</a>
</g>
</g>
<!-- Node2&#45;&gt;Node3 -->
<g id="edge2" class="edge">
<title>Node2&#45;&gt;Node3</title>
<path fill="none" stroke="midnightblue" d="M797.66,-454.9C762.89,-503.7 667.72,-637.27 641.35,-674.27"/>
<polygon fill="midnightblue" stroke="midnightblue" points="800.65,-456.74 803.6,-446.57 794.95,-452.68 800.65,-456.74"/>
</g>
<!-- Node36 -->
<g id="node36" class="node">
<title>Node36</title>
<g id="a_node36"><a xlink:href="cmp__rdcu_8c_ab69cf44ac326e0cebdef002e8f2ea2cb.html#ab69cf44ac326e0cebdef002e8f2ea2cb" target="_top" xlink:title="compressing data with the help of the RDCU hardware compressor; read data from the last compression b...">
<polygon fill="white" stroke="black" points="575,-443.89 575,-473.89 692,-473.89 692,-443.89 575,-443.89"/>
<text text-anchor="start" x="583" y="-461.89" font-family="Helvetica,sans-Serif" font-size="10.00">rdcu_compress_data</text>
<text text-anchor="middle" x="633.5" y="-450.89" font-family="Helvetica,sans-Serif" font-size="10.00">_parallel</text>
</a>
</g>
</g>
<!-- Node2&#45;&gt;Node36 -->
<g id="edge35" class="edge">
<title>Node2&#45;&gt;Node36</title>
<path fill="none" stroke="midnightblue" d="M749.05,-444.57C730.56,-446.88 710.35,-449.4 692.12,-451.68"/>
<polygon fill="midnightblue" stroke="midnightblue" points="749.63,-448.02 759.12,-443.31 748.76,-441.08 749.63,-448.02"/>
</g>
<!-- Node37 -->
<g id="node37" class="node">
<title>Node37</title>
<g id="a_node37"><a xlink:href="cmp__rdcu_8h_a468b8082ee6e0134519743425b2194c4.html#a468b8082ee6e0134519743425b2194c4" target="_top" xlink:title="read the compressed bitstream from the RDCU SRAM">
<polygon fill="white" stroke="black" points="562,-405.39 562,-424.39 705,-424.39 705,-405.39 562,-405.39"/>
<text text-anchor="middle" x="633.5" y="-412.39" font-family="Helvetica,sans-Serif" font-size="10.00">rdcu_read_cmp_bitstream</text>
</a>
</g>
</g>
<!-- Node2&#45;&gt;Node37 -->
<g id="edge36" class="edge">
<title>Node2&#45;&gt;Node37</title>
<path fill="none" stroke="midnightblue" d="M749.03,-429.2C734.89,-427.43 719.74,-425.54 705.24,-423.73"/>
<polygon fill="midnightblue" stroke="midnightblue" points="748.76,-432.7 759.12,-430.46 749.63,-425.75 748.76,-432.7"/>
</g>
<!-- Node4 -->
<g id="node4" class="node">
<title>Node4</title>
<g id="a_node4"><a xlink:href="cmp__icu_8h_a08bf8ccacb449aba08db5e51d532d834.html#a08bf8ccacb449aba08db5e51d532d834" target="_top" xlink:title="compress data on the ICU in software">
<polygon fill="white" stroke="black" points="409,-674.39 409,-693.39 519,-693.39 519,-674.39 409,-674.39"/>
<text text-anchor="middle" x="464" y="-681.39" font-family="Helvetica,sans-Serif" font-size="10.00">icu_compress_data</text>
</a>
</g>
</g>
<!-- Node3&#45;&gt;Node4 -->
<g id="edge3" class="edge">
<title>Node3&#45;&gt;Node4</title>
<path fill="none" stroke="midnightblue" d="M554.07,-683.89C542.28,-683.89 530.34,-683.89 519.21,-683.89"/>
<polygon fill="midnightblue" stroke="midnightblue" points="554.37,-687.39 564.37,-683.89 554.37,-680.39 554.37,-687.39"/>
</g>
<!-- Node35 -->
<g id="node35" class="node">
<title>Node35</title>
<g id="a_node35"><a xlink:href="test__cmp__icu_8c_a25ba91cfda8133f450e50ae3c84f1736.html#a25ba91cfda8133f450e50ae3c84f1736" target="_top" xlink:title=" ">
<polygon fill="white" stroke="black" points="402,-712.89 402,-742.89 526,-742.89 526,-712.89 402,-712.89"/>
<text text-anchor="start" x="410" y="-730.89" font-family="Helvetica,sans-Serif" font-size="10.00">test_cmp_data_to_big</text>
<text text-anchor="middle" x="464" y="-719.89" font-family="Helvetica,sans-Serif" font-size="10.00">_endian_error_cases</text>
</a>
</g>
</g>
<!-- Node3&#45;&gt;Node35 -->
<g id="edge34" class="edge">
<title>Node3&#45;&gt;Node35</title>
<path fill="none" stroke="midnightblue" d="M586.45,-695.98C566.64,-701.19 543.27,-707.33 522.35,-712.82"/>
<polygon fill="midnightblue" stroke="midnightblue" points="587.37,-699.36 596.15,-693.43 585.59,-692.59 587.37,-699.36"/>
</g>
<!-- Node5 -->
<g id="node5" class="node">
<title>Node5</title>
<g id="a_node5"><a xlink:href="test__cmp__decmp_8c_a50ba26014079160ca77b7d7fa76ce0f4.html#a50ba26014079160ca77b7d7fa76ce0f4" target="_top" xlink:title="compress the given configuration and decompress it afterwards; finally compare the results">
<polygon fill="white" stroke="black" points="195,-155.39 195,-174.39 353,-174.39 353,-155.39 195,-155.39"/>
<text text-anchor="middle" x="274" y="-162.39" font-family="Helvetica,sans-Serif" font-size="10.00">compression_decompression</text>
</a>
</g>
</g>
<!-- Node4&#45;&gt;Node5 -->
<g id="edge4" class="edge">
<title>Node4&#45;&gt;Node5</title>
<path fill="none" stroke="midnightblue" d="M460.48,-664.31C448.97,-576.33 400.55,-220.28 366,-184.89 361.93,-180.72 357.21,-177.33 352.1,-174.58"/>
<polygon fill="midnightblue" stroke="midnightblue" points="457.01,-664.82 461.77,-674.28 463.96,-663.91 457.01,-664.82"/>
</g>
<!-- Node4&#45;&gt;Node7 -->
<g id="edge6" class="edge">
<title>Node4&#45;&gt;Node7</title>
<path fill="none" stroke="midnightblue" d="M459.79,-663.91C443.55,-562.91 370.99,-113.08 366,-107.89 360.41,-102.07 353.53,-97.8 346.08,-94.7"/>
<polygon fill="midnightblue" stroke="midnightblue" points="456.37,-664.67 461.41,-673.99 463.28,-663.56 456.37,-664.67"/>
</g>
<!-- Node9 -->
<g id="node9" class="node">
<title>Node9</title>
<g id="a_node9"><a xlink:href="test__decmp_8c_a6e7a5e150e2c829836db3c42cdec2eec.html#a6e7a5e150e2c829836db3c42cdec2eec" target="_top" xlink:title=" ">
<polygon fill="white" stroke="black" points="182,-117.39 182,-136.39 366,-136.39 366,-117.39 182,-117.39"/>
<text text-anchor="middle" x="274" y="-124.39" font-family="Helvetica,sans-Serif" font-size="10.00">test_cmp_decmp_n_imagette_raw</text>
</a>
</g>
</g>
<!-- Node4&#45;&gt;Node9 -->
<g id="edge8" class="edge">
<title>Node4&#45;&gt;Node9</title>
<path fill="none" stroke="midnightblue" d="M460.05,-664.02C445.88,-569.04 384.68,-165.09 366,-145.89 362.4,-142.18 358.28,-139.11 353.82,-136.57"/>
<polygon fill="midnightblue" stroke="midnightblue" points="456.61,-664.65 461.54,-674.02 463.53,-663.62 456.61,-664.65"/>
</g>
<!-- Node10 -->
<g id="node10" class="node">
<title>Node10</title>
<g id="a_node10"><a xlink:href="test__cmp__icu_8c_aca32c7d039600004c9cc5c6fe19b8ec5.html#aca32c7d039600004c9cc5c6fe19b8ec5" target="_top" xlink:title=" ">
<polygon fill="white" stroke="black" points="199,-908.89 199,-938.89 349,-938.89 349,-908.89 199,-908.89"/>
<text text-anchor="start" x="207" y="-926.89" font-family="Helvetica,sans-Serif" font-size="10.00">test_compress_background</text>
<text text-anchor="middle" x="274" y="-915.89" font-family="Helvetica,sans-Serif" font-size="10.00">_error_cases</text>
</a>
</g>
</g>
<!-- Node4&#45;&gt;Node10 -->
<g id="edge9" class="edge">
<title>Node4&#45;&gt;Node10</title>
<path fill="none" stroke="midnightblue" d="M407.09,-699.02C405.26,-700.5 403.55,-702.11 402,-703.89 343.75,-770.6 426.2,-834.92 366,-899.89 361.22,-905.04 355.49,-909.14 349.24,-912.39"/>
<polygon fill="midnightblue" stroke="midnightblue" points="409.27,-701.78 415.79,-693.43 405.48,-695.89 409.27,-701.78"/>
</g>
<!-- Node11 -->
<g id="node11" class="node">
<title>Node11</title>
<g id="a_node11"><a xlink:href="test__cmp__icu_8c_a64b46c032fdef8789190209bd9c3c49b.html#a64b46c032fdef8789190209bd9c3c49b" target="_top" xlink:title=" ">
<polygon fill="white" stroke="black" points="218,-859.89 218,-889.89 330,-889.89 330,-859.89 218,-859.89"/>
<text text-anchor="start" x="226" y="-877.89" font-family="Helvetica,sans-Serif" font-size="10.00">test_compress_f_fx</text>
<text text-anchor="middle" x="274" y="-866.89" font-family="Helvetica,sans-Serif" font-size="10.00">_efx_error_cases</text>
</a>
</g>
</g>
<!-- Node4&#45;&gt;Node11 -->
<g id="edge10" class="edge">
<title>Node4&#45;&gt;Node11</title>
<path fill="none" stroke="midnightblue" d="M407.77,-698.72C405.69,-700.27 403.76,-701.99 402,-703.89 356.29,-753.24 413.14,-802.9 366,-850.89 356.38,-860.68 343.28,-866.63 330.01,-870.2"/>
<polygon fill="midnightblue" stroke="midnightblue" points="409.62,-701.69 416.33,-693.49 405.97,-695.71 409.62,-701.69"/>
</g>
<!-- Node12 -->
<g id="node12" class="node">
<title>Node12</title>
<g id="a_node12"><a xlink:href="test__cmp__icu_8c_acd4ce1f38ffbf0d6258b81668836d96b.html#acd4ce1f38ffbf0d6258b81668836d96b" target="_top" xlink:title=" ">
<polygon fill="white" stroke="black" points="218,-810.89 218,-840.89 330,-840.89 330,-810.89 218,-810.89"/>
<text text-anchor="start" x="226" y="-828.89" font-family="Helvetica,sans-Serif" font-size="10.00">test_compress_f_fx</text>
<text text-anchor="middle" x="274" y="-817.89" font-family="Helvetica,sans-Serif" font-size="10.00">_efx_ncob_ecob</text>
</a>
</g>
</g>
<!-- Node4&#45;&gt;Node12 -->
<g id="edge11" class="edge">
<title>Node4&#45;&gt;Node12</title>
<path fill="none" stroke="midnightblue" d="M408.88,-698.39C406.42,-700.03 404.1,-701.85 402,-703.89 368.62,-736.11 400.32,-770.66 366,-801.89 356.09,-810.9 343.19,-816.61 330.24,-820.19"/>
<polygon fill="midnightblue" stroke="midnightblue" points="410.65,-701.41 417.7,-693.5 407.26,-695.28 410.65,-701.41"/>
</g>
<!-- Node13 -->
<g id="node13" class="node">
<title>Node13</title>
<g id="a_node13"><a xlink:href="test__cmp__icu_8c_a5fdfb76e3f52d4283fdcbf5e05ac7dd9.html#a5fdfb76e3f52d4283fdcbf5e05ac7dd9" target="_top" xlink:title=" ">
<polygon fill="white" stroke="black" points="218,-761.89 218,-791.89 330,-791.89 330,-761.89 218,-761.89"/>
<text text-anchor="start" x="226" y="-779.89" font-family="Helvetica,sans-Serif" font-size="10.00">test_compress_f_fx</text>
<text text-anchor="middle" x="274" y="-768.89" font-family="Helvetica,sans-Serif" font-size="10.00">_error_cases</text>
</a>
</g>
</g>
<!-- Node4&#45;&gt;Node13 -->
<g id="edge12" class="edge">
<title>Node4&#45;&gt;Node13</title>
<path fill="none" stroke="midnightblue" d="M412.51,-697.58C408.81,-699.43 405.26,-701.53 402,-703.89 380.12,-719.74 388.34,-737.68 366,-752.89 355.33,-760.15 342.58,-765.21 330.05,-768.75"/>
<polygon fill="midnightblue" stroke="midnightblue" points="414.17,-700.68 421.92,-693.45 411.35,-694.27 414.17,-700.68"/>
</g>
<!-- Node14 -->
<g id="node14" class="node">
<title>Node14</title>
<g id="a_node14"><a xlink:href="test__cmp__icu_8c_ad6a880fe71de66a8a98a3f97d9e736da.html#ad6a880fe71de66a8a98a3f97d9e736da" target="_top" xlink:title=" ">
<polygon fill="white" stroke="black" points="218,-712.89 218,-742.89 330,-742.89 330,-712.89 218,-712.89"/>
<text text-anchor="start" x="226" y="-730.89" font-family="Helvetica,sans-Serif" font-size="10.00">test_compress_f_fx</text>
<text text-anchor="middle" x="274" y="-719.89" font-family="Helvetica,sans-Serif" font-size="10.00">_ncob_error_cases</text>
</a>
</g>
</g>
<!-- Node4&#45;&gt;Node14 -->
<g id="edge13" class="edge">
<title>Node4&#45;&gt;Node14</title>
<path fill="none" stroke="midnightblue" d="M412.42,-695.72C387.07,-701.66 356.32,-708.85 330.34,-714.94"/>
<polygon fill="midnightblue" stroke="midnightblue" points="413.27,-699.12 422.21,-693.43 411.67,-692.3 413.27,-699.12"/>
</g>
<!-- Node15 -->
<g id="node15" class="node">
<title>Node15</title>
<g id="a_node15"><a xlink:href="test__cmp__icu_8c_a99545cc4ea3f1aa22be006d201e43f6d.html#a99545cc4ea3f1aa22be006d201e43f6d" target="_top" xlink:title=" ">
<polygon fill="white" stroke="black" points="195,-674.39 195,-693.39 353,-693.39 353,-674.39 195,-674.39"/>
<text text-anchor="middle" x="274" y="-681.39" font-family="Helvetica,sans-Serif" font-size="10.00">test_compress_imagette_diff</text>
</a>
</g>
</g>
<!-- Node4&#45;&gt;Node15 -->
<g id="edge14" class="edge">
<title>Node4&#45;&gt;Node15</title>
<path fill="none" stroke="midnightblue" d="M398.47,-683.89C383.9,-683.89 368.28,-683.89 353.21,-683.89"/>
<polygon fill="midnightblue" stroke="midnightblue" points="398.87,-687.39 408.87,-683.89 398.87,-680.39 398.87,-687.39"/>
</g>
<!-- Node16 -->
<g id="node16" class="node">
<title>Node16</title>
<g id="a_node16"><a xlink:href="test__cmp__icu_8c_a960bb1de38c5e353aa1d1d2fb25435e8.html#a960bb1de38c5e353aa1d1d2fb25435e8" target="_top" xlink:title=" ">
<polygon fill="white" stroke="black" points="205.5,-624.89 205.5,-654.89 342.5,-654.89 342.5,-624.89 205.5,-624.89"/>
<text text-anchor="start" x="213.5" y="-642.89" font-family="Helvetica,sans-Serif" font-size="10.00">test_compress_imagette</text>
<text text-anchor="middle" x="274" y="-631.89" font-family="Helvetica,sans-Serif" font-size="10.00">_error_cases</text>
</a>
</g>
</g>
<!-- Node4&#45;&gt;Node16 -->
<g id="edge15" class="edge">
<title>Node4&#45;&gt;Node16</title>
<path fill="none" stroke="midnightblue" d="M412.22,-672C389.8,-666.75 363.17,-660.52 339.37,-654.95"/>
<polygon fill="midnightblue" stroke="midnightblue" points="411.67,-675.47 422.21,-674.34 413.27,-668.65 411.67,-675.47"/>
</g>
<!-- Node17 -->
<g id="node17" class="node">
<title>Node17</title>
<g id="a_node17"><a xlink:href="test__cmp__icu_8c_a7c1162f048c55a098b4e6c1d9a0a884e.html#a7c1162f048c55a098b4e6c1d9a0a884e" target="_top" xlink:title=" ">
<polygon fill="white" stroke="black" points="205.5,-575.89 205.5,-605.89 342.5,-605.89 342.5,-575.89 205.5,-575.89"/>
<text text-anchor="start" x="213.5" y="-593.89" font-family="Helvetica,sans-Serif" font-size="10.00">test_compress_imagette</text>
<text text-anchor="middle" x="274" y="-582.89" font-family="Helvetica,sans-Serif" font-size="10.00">_model</text>
</a>
</g>
</g>
<!-- Node4&#45;&gt;Node17 -->
<g id="edge16" class="edge">
<title>Node4&#45;&gt;Node17</title>
<path fill="none" stroke="midnightblue" d="M444.41,-667.9C425.73,-652.58 395.53,-629.78 366,-615.89 357.99,-612.12 349.32,-608.83 340.61,-605.98"/>
<polygon fill="midnightblue" stroke="midnightblue" points="442.22,-670.64 452.14,-674.36 446.71,-665.26 442.22,-670.64"/>
</g>
<!-- Node18 -->
<g id="node18" class="node">
<title>Node18</title>
<g id="a_node18"><a xlink:href="test__cmp__icu_8c_a390abe2bb7591a75050558bdd4476593.html#a390abe2bb7591a75050558bdd4476593" target="_top" xlink:title=" ">
<polygon fill="white" stroke="black" points="193.5,-537.39 193.5,-556.39 354.5,-556.39 354.5,-537.39 193.5,-537.39"/>
<text text-anchor="middle" x="274" y="-544.39" font-family="Helvetica,sans-Serif" font-size="10.00">test_compress_imagette_raw</text>
</a>
</g>
</g>
<!-- Node4&#45;&gt;Node18 -->
<g id="edge17" class="edge">
<title>Node4&#45;&gt;Node18</title>
<path fill="none" stroke="midnightblue" d="M452.93,-665.22C437.72,-638.94 406.35,-591.49 366,-566.89 358.82,-562.51 350.8,-559.08 342.58,-556.4"/>
<polygon fill="midnightblue" stroke="midnightblue" points="450,-667.16 457.95,-674.17 456.11,-663.73 450,-667.16"/>
</g>
<!-- Node19 -->
<g id="node19" class="node">
<title>Node19</title>
<g id="a_node19"><a xlink:href="test__cmp__icu_8c_a3c859fa9247c65ae7a43e2bd682448e2.html#a3c859fa9247c65ae7a43e2bd682448e2" target="_top" xlink:title=" ">
<polygon fill="white" stroke="black" points="205.5,-487.89 205.5,-517.89 342.5,-517.89 342.5,-487.89 205.5,-487.89"/>
<text text-anchor="start" x="213.5" y="-505.89" font-family="Helvetica,sans-Serif" font-size="10.00">test_compress_imagette</text>
<text text-anchor="middle" x="274" y="-494.89" font-family="Helvetica,sans-Serif" font-size="10.00">_stuff</text>
</a>
</g>
</g>
<!-- Node4&#45;&gt;Node19 -->
<g id="edge18" class="edge">
<title>Node4&#45;&gt;Node19</title>
<path fill="none" stroke="midnightblue" d="M456.39,-664.62C444.02,-631.5 414.2,-563.87 366,-527.89 359.04,-522.69 351.06,-518.58 342.79,-515.32"/>
<polygon fill="midnightblue" stroke="midnightblue" points="453.11,-665.85 459.79,-674.07 459.7,-663.48 453.11,-665.85"/>
</g>
<!-- Node20 -->
<g id="node20" class="node">
<title>Node20</title>
<g id="a_node20"><a xlink:href="test__cmp__icu_8c_a4d05bd6cb0b420d45886997161470259.html#a4d05bd6cb0b420d45886997161470259" target="_top" xlink:title=" ">
<polygon fill="white" stroke="black" points="218.5,-438.89 218.5,-468.89 329.5,-468.89 329.5,-438.89 218.5,-438.89"/>
<text text-anchor="start" x="226.5" y="-456.89" font-family="Helvetica,sans-Serif" font-size="10.00">test_compress_l_fx</text>
<text text-anchor="middle" x="274" y="-445.89" font-family="Helvetica,sans-Serif" font-size="10.00">_efx_error_cases</text>
</a>
</g>
</g>
<!-- Node4&#45;&gt;Node20 -->
<g id="edge19" class="edge">
<title>Node4&#45;&gt;Node20</title>
<path fill="none" stroke="midnightblue" d="M459.38,-664.15C450.81,-623.22 425.38,-528.75 366,-478.89 355.71,-470.25 342.68,-464.58 329.71,-460.86"/>
<polygon fill="midnightblue" stroke="midnightblue" points="455.95,-664.85 461.32,-673.98 462.81,-663.5 455.95,-664.85"/>
</g>
<!-- Node21 -->
<g id="node21" class="node">
<title>Node21</title>
<g id="a_node21"><a xlink:href="test__cmp__icu_8c_a0d3532f9e6f2e6e0c4392049e06c627f.html#a0d3532f9e6f2e6e0c4392049e06c627f" target="_top" xlink:title=" ">
<polygon fill="white" stroke="black" points="196,-389.89 196,-419.89 352,-419.89 352,-389.89 196,-389.89"/>
<text text-anchor="start" x="204" y="-407.89" font-family="Helvetica,sans-Serif" font-size="10.00">test_compress_l_fx</text>
<text text-anchor="middle" x="274" y="-396.89" font-family="Helvetica,sans-Serif" font-size="10.00">_efx_ncob_ecob_error_cases</text>
</a>
</g>
</g>
<!-- Node4&#45;&gt;Node21 -->
<g id="edge20" class="edge">
<title>Node4&#45;&gt;Node21</title>
<path fill="none" stroke="midnightblue" d="M461.39,-664.19C456.42,-616.56 437.04,-494.37 366,-429.89 361.75,-426.03 356.97,-422.76 351.87,-420"/>
<polygon fill="midnightblue" stroke="midnightblue" points="457.93,-664.74 462.35,-674.37 464.9,-664.09 457.93,-664.74"/>
</g>
<!-- Node22 -->
<g id="node22" class="node">
<title>Node22</title>
<g id="a_node22"><a xlink:href="test__cmp__icu_8c_a13a2a26bd2eac1bd622925c6dcfbfb2d.html#a13a2a26bd2eac1bd622925c6dcfbfb2d" target="_top" xlink:title=" ">
<polygon fill="white" stroke="black" points="218.5,-340.89 218.5,-370.89 329.5,-370.89 329.5,-340.89 218.5,-340.89"/>
<text text-anchor="start" x="226.5" y="-358.89" font-family="Helvetica,sans-Serif" font-size="10.00">test_compress_l_fx</text>
<text text-anchor="middle" x="274" y="-347.89" font-family="Helvetica,sans-Serif" font-size="10.00">_error_cases</text>
</a>
</g>
</g>
<!-- Node4&#45;&gt;Node22 -->
<g id="edge21" class="edge">
<title>Node4&#45;&gt;Node22</title>
<path fill="none" stroke="midnightblue" d="M462.79,-664.12C461.1,-610.38 448.82,-460.32 366,-380.89 356.07,-371.36 342.86,-365.39 329.59,-361.68"/>
<polygon fill="midnightblue" stroke="midnightblue" points="459.29,-664.41 463.01,-674.33 466.29,-664.26 459.29,-664.41"/>
</g>
<!-- Node23 -->
<g id="node23" class="node">
<title>Node23</title>
<g id="a_node23"><a xlink:href="test__cmp__icu_8c_ab725960063dc032566560118d582b79e.html#ab725960063dc032566560118d582b79e" target="_top" xlink:title=" ">
<polygon fill="white" stroke="black" points="218.5,-291.89 218.5,-321.89 329.5,-321.89 329.5,-291.89 218.5,-291.89"/>
<text text-anchor="start" x="226.5" y="-309.89" font-family="Helvetica,sans-Serif" font-size="10.00">test_compress_l_fx</text>
<text text-anchor="middle" x="274" y="-298.89" font-family="Helvetica,sans-Serif" font-size="10.00">_ncob_error_cases</text>
</a>
</g>
</g>
<!-- Node4&#45;&gt;Node23 -->
<g id="edge22" class="edge">
<title>Node4&#45;&gt;Node23</title>
<path fill="none" stroke="midnightblue" d="M463.83,-663.79C465.16,-604.14 460.59,-426.4 366,-331.89 356.26,-322.16 343.12,-316.12 329.85,-312.4"/>
<polygon fill="midnightblue" stroke="midnightblue" points="460.33,-663.98 463.52,-674.09 467.32,-664.2 460.33,-663.98"/>
</g>
<!-- Node24 -->
<g id="node24" class="node">
<title>Node24</title>
<g id="a_node24"><a xlink:href="test__cmp__icu_8c_a13bf5ba0481601697942a0a485f7631c.html#a13bf5ba0481601697942a0a485f7631c" target="_top" xlink:title=" ">
<polygon fill="white" stroke="black" points="213.5,-242.89 213.5,-272.89 334.5,-272.89 334.5,-242.89 213.5,-242.89"/>
<text text-anchor="start" x="221.5" y="-260.89" font-family="Helvetica,sans-Serif" font-size="10.00">test_compress_offset</text>
<text text-anchor="middle" x="274" y="-249.89" font-family="Helvetica,sans-Serif" font-size="10.00">_error_cases</text>
</a>
</g>
</g>
<!-- Node4&#45;&gt;Node24 -->
<g id="edge23" class="edge">
<title>Node4&#45;&gt;Node24</title>
<path fill="none" stroke="midnightblue" d="M460.85,-664.03C452.57,-591.05 420.43,-339.02 366,-282.89 357.56,-274.18 346.4,-268.42 334.79,-264.63"/>
<polygon fill="midnightblue" stroke="midnightblue" points="457.39,-664.59 461.98,-674.15 464.35,-663.82 457.39,-664.59"/>
</g>
<!-- Node25 -->
<g id="node25" class="node">
<title>Node25</title>
<g id="a_node25"><a xlink:href="test__cmp__icu_8c_a28f0f3239f94a5d75189300dd3ed35fc.html#a28f0f3239f94a5d75189300dd3ed35fc" target="_top" xlink:title=" ">
<polygon fill="white" stroke="black" points="217.5,-193.89 217.5,-223.89 330.5,-223.89 330.5,-193.89 217.5,-193.89"/>
<text text-anchor="start" x="225.5" y="-211.89" font-family="Helvetica,sans-Serif" font-size="10.00">test_compress_s_fx</text>
<text text-anchor="middle" x="274" y="-200.89" font-family="Helvetica,sans-Serif" font-size="10.00">_efx_error_cases</text>
</a>
</g>
</g>
<!-- Node4&#45;&gt;Node25 -->
<g id="edge24" class="edge">
<title>Node4&#45;&gt;Node25</title>
<path fill="none" stroke="midnightblue" d="M461.43,-664.18C454.79,-585.88 426.58,-297.95 366,-233.89 356.66,-224.01 343.81,-217.9 330.7,-214.17"/>
<polygon fill="midnightblue" stroke="midnightblue" points="457.94,-664.48 462.25,-674.16 464.92,-663.9 457.94,-664.48"/>
</g>
<!-- Node26 -->
<g id="node26" class="node">
<title>Node26</title>
<g id="a_node26"><a xlink:href="test__cmp__icu_8c_a90fd6057131bbf0c9b398c9c99bea3f2.html#a90fd6057131bbf0c9b398c9c99bea3f2" target="_top" xlink:title=" ">
<polygon fill="white" stroke="black" points="196,-1339.89 196,-1369.89 352,-1369.89 352,-1339.89 196,-1339.89"/>
<text text-anchor="start" x="204" y="-1357.89" font-family="Helvetica,sans-Serif" font-size="10.00">test_compress_s_fx</text>
<text text-anchor="middle" x="274" y="-1346.89" font-family="Helvetica,sans-Serif" font-size="10.00">_efx_ncob_ecob_error_cases</text>
</a>
</g>
</g>
<!-- Node4&#45;&gt;Node26 -->
<g id="edge25" class="edge">
<title>Node4&#45;&gt;Node26</title>
<path fill="none" stroke="midnightblue" d="M406.12,-699.4C404.63,-700.77 403.25,-702.26 402,-703.89 316.91,-814.51 454.31,-1222.82 366,-1330.89 362.07,-1335.69 357.3,-1339.6 352.03,-1342.77"/>
<polygon fill="midnightblue" stroke="midnightblue" points="408.29,-702.15 414.38,-693.48 404.21,-696.46 408.29,-702.15"/>
</g>
<!-- Node27 -->
<g id="node27" class="node">
<title>Node27</title>
<g id="a_node27"><a xlink:href="test__cmp__icu_8c_aa29971f14aa8c01058cf5884ccfb0b46.html#aa29971f14aa8c01058cf5884ccfb0b46" target="_top" xlink:title=" ">
<polygon fill="white" stroke="black" points="217.5,-1290.89 217.5,-1320.89 330.5,-1320.89 330.5,-1290.89 217.5,-1290.89"/>
<text text-anchor="start" x="225.5" y="-1308.89" font-family="Helvetica,sans-Serif" font-size="10.00">test_compress_s_fx</text>
<text text-anchor="middle" x="274" y="-1297.89" font-family="Helvetica,sans-Serif" font-size="10.00">_error_cases</text>
</a>
</g>
</g>
<!-- Node4&#45;&gt;Node27 -->
<g id="edge26" class="edge">
<title>Node4&#45;&gt;Node27</title>
<path fill="none" stroke="midnightblue" d="M406.14,-699.4C404.64,-700.78 403.25,-702.27 402,-703.89 323.29,-805.7 447.68,-1182.43 366,-1281.89 357.19,-1292.62 344.19,-1298.87 330.77,-1302.43"/>
<polygon fill="midnightblue" stroke="midnightblue" points="408.3,-702.16 414.4,-693.49 404.23,-696.46 408.3,-702.16"/>
</g>
<!-- Node28 -->
<g id="node28" class="node">
<title>Node28</title>
<g id="a_node28"><a xlink:href="test__cmp__icu_8c_afa54c8348f46913b7c39517424f7e547.html#afa54c8348f46913b7c39517424f7e547" target="_top" xlink:title=" ">
<polygon fill="white" stroke="black" points="217.5,-1241.89 217.5,-1271.89 330.5,-1271.89 330.5,-1241.89 217.5,-1241.89"/>
<text text-anchor="start" x="225.5" y="-1259.89" font-family="Helvetica,sans-Serif" font-size="10.00">test_compress_s_fx</text>
<text text-anchor="middle" x="274" y="-1248.89" font-family="Helvetica,sans-Serif" font-size="10.00">_model_multi</text>
</a>
</g>
</g>
<!-- Node4&#45;&gt;Node28 -->
<g id="edge27" class="edge">
<title>Node4&#45;&gt;Node28</title>
<path fill="none" stroke="midnightblue" d="M406.15,-699.41C404.65,-700.78 403.26,-702.27 402,-703.89 329.67,-796.9 441.04,-1142.05 366,-1232.89 357.16,-1243.59 344.15,-1249.84 330.73,-1253.4"/>
<polygon fill="midnightblue" stroke="midnightblue" points="408.31,-702.17 414.42,-693.51 404.25,-696.47 408.31,-702.17"/>
</g>
<!-- Node29 -->
<g id="node29" class="node">
<title>Node29</title>
<g id="a_node29"><a xlink:href="test__cmp__icu_8c_a70a6d23f621dd0ce0ffb110b9c77116f.html#a70a6d23f621dd0ce0ffb110b9c77116f" target="_top" xlink:title=" ">
<polygon fill="white" stroke="black" points="217.5,-1192.89 217.5,-1222.89 330.5,-1222.89 330.5,-1192.89 217.5,-1192.89"/>
<text text-anchor="start" x="225.5" y="-1210.89" font-family="Helvetica,sans-Serif" font-size="10.00">test_compress_s_fx</text>
<text text-anchor="middle" x="274" y="-1199.89" font-family="Helvetica,sans-Serif" font-size="10.00">_ncob_error_cases</text>
</a>
</g>
</g>
<!-- Node4&#45;&gt;Node29 -->
<g id="edge28" class="edge">
<title>Node4&#45;&gt;Node29</title>
<path fill="none" stroke="midnightblue" d="M406.16,-699.42C404.66,-700.79 403.26,-702.27 402,-703.89 336.17,-787.92 433.85,-1100.48 366,-1182.89 357.15,-1193.64 344.14,-1200 330.72,-1203.71"/>
<polygon fill="midnightblue" stroke="midnightblue" points="408.33,-702.18 414.45,-693.54 404.27,-696.47 408.33,-702.18"/>
</g>
<!-- Node30 -->
<g id="node30" class="node">
<title>Node30</title>
<g id="a_node30"><a xlink:href="test__cmp__icu_8c_ab9f5f00613d43e2b46aa130d472674cb.html#ab9f5f00613d43e2b46aa130d472674cb" target="_top" xlink:title=" ">
<polygon fill="white" stroke="black" points="205.5,-1154.39 205.5,-1173.39 342.5,-1173.39 342.5,-1154.39 205.5,-1154.39"/>
<text text-anchor="middle" x="274" y="-1161.39" font-family="Helvetica,sans-Serif" font-size="10.00">test_compress_s_fx_raw</text>
</a>
</g>
</g>
<!-- Node4&#45;&gt;Node30 -->
<g id="edge29" class="edge">
<title>Node4&#45;&gt;Node30</title>
<path fill="none" stroke="midnightblue" d="M406.27,-699.35C404.73,-700.74 403.29,-702.25 402,-703.89 341.12,-781.1 431.07,-1071.17 366,-1144.89 359.7,-1152.02 351.47,-1156.88 342.53,-1160.13"/>
<polygon fill="midnightblue" stroke="midnightblue" points="408.59,-702 414.77,-693.4 404.58,-696.26 408.59,-702"/>
</g>
<!-- Node31 -->
<g id="node31" class="node">
<title>Node31</title>
<g id="a_node31"><a xlink:href="test__cmp__icu_8c_ad8cefbf7c0531178a3c5d00ed71cfe61.html#ad8cefbf7c0531178a3c5d00ed71cfe61" target="_top" xlink:title=" ">
<polygon fill="white" stroke="black" points="217.5,-1104.89 217.5,-1134.89 330.5,-1134.89 330.5,-1104.89 217.5,-1104.89"/>
<text text-anchor="start" x="225.5" y="-1122.89" font-family="Helvetica,sans-Serif" font-size="10.00">test_compress_s_fx</text>
<text text-anchor="middle" x="274" y="-1111.89" font-family="Helvetica,sans-Serif" font-size="10.00">_staff</text>
</a>
</g>
</g>
<!-- Node4&#45;&gt;Node31 -->
<g id="edge30" class="edge">
<title>Node4&#45;&gt;Node31</title>
<path fill="none" stroke="midnightblue" d="M406.29,-699.37C404.74,-700.75 403.3,-702.25 402,-703.89 347.49,-772.3 422.51,-1029.11 366,-1095.89 357.03,-1106.49 343.98,-1112.7 330.56,-1116.26"/>
<polygon fill="midnightblue" stroke="midnightblue" points="408.61,-702.02 414.82,-693.43 404.61,-696.27 408.61,-702.02"/>
</g>
<!-- Node32 -->
<g id="node32" class="node">
<title>Node32</title>
<g id="a_node32"><a xlink:href="test__cmp__icu_8c_aee4858f3ea226c6da9e4a9ed54475b1d.html#aee4858f3ea226c6da9e4a9ed54475b1d" target="_top" xlink:title=" ">
<polygon fill="white" stroke="black" points="204.5,-1055.89 204.5,-1085.89 343.5,-1085.89 343.5,-1055.89 204.5,-1055.89"/>
<text text-anchor="start" x="212.5" y="-1073.89" font-family="Helvetica,sans-Serif" font-size="10.00">test_compress_smearing</text>
<text text-anchor="middle" x="274" y="-1062.89" font-family="Helvetica,sans-Serif" font-size="10.00">_error_cases</text>
</a>
</g>
</g>
<!-- Node4&#45;&gt;Node32 -->
<g id="edge31" class="edge">
<title>Node4&#45;&gt;Node32</title>
<path fill="none" stroke="midnightblue" d="M406.32,-699.39C404.76,-700.77 403.31,-702.26 402,-703.89 305.7,-823.14 465.77,-930.52 366,-1046.89 360.04,-1053.83 352.34,-1058.89 343.94,-1062.55"/>
<polygon fill="midnightblue" stroke="midnightblue" points="408.64,-702.04 414.87,-693.47 404.66,-696.28 408.64,-702.04"/>
</g>
<!-- Node33 -->
<g id="node33" class="node">
<title>Node33</title>
<g id="a_node33"><a xlink:href="test__cmp__icu_8c_a8db99614e8a5d384edb82fe466e15042.html#a8db99614e8a5d384edb82fe466e15042" target="_top" xlink:title=" ">
<polygon fill="white" stroke="black" points="207,-1006.89 207,-1036.89 341,-1036.89 341,-1006.89 207,-1006.89"/>
<text text-anchor="start" x="215" y="-1024.89" font-family="Helvetica,sans-Serif" font-size="10.00">test_icu_compress_data</text>
<text text-anchor="middle" x="274" y="-1013.89" font-family="Helvetica,sans-Serif" font-size="10.00">_error_cases</text>
</a>
</g>
</g>
<!-- Node4&#45;&gt;Node33 -->
<g id="edge32" class="edge">
<title>Node4&#45;&gt;Node33</title>
<path fill="none" stroke="midnightblue" d="M406.35,-699.42C404.79,-700.79 403.33,-702.27 402,-703.89 318.42,-805.59 452.54,-898.69 366,-997.89 359.34,-1005.52 350.57,-1010.86 341.1,-1014.58"/>
<polygon fill="midnightblue" stroke="midnightblue" points="408.67,-702.07 414.94,-693.53 404.72,-696.3 408.67,-702.07"/>
</g>
<!-- Node34 -->
<g id="node34" class="node">
<title>Node34</title>
<g id="a_node34"><a xlink:href="test__cmp__decmp_8c_abb20ed18a3c6ba0fc67ecef2d629dec0.html#abb20ed18a3c6ba0fc67ecef2d629dec0" target="_top" xlink:title=" ">
<polygon fill="white" stroke="black" points="201,-957.89 201,-987.89 347,-987.89 347,-957.89 201,-957.89"/>
<text text-anchor="start" x="209" y="-975.89" font-family="Helvetica,sans-Serif" font-size="10.00">test_random_compression</text>
<text text-anchor="middle" x="274" y="-964.89" font-family="Helvetica,sans-Serif" font-size="10.00">_decompression2</text>
</a>
</g>
</g>
<!-- Node4&#45;&gt;Node34 -->
<g id="edge33" class="edge">
<title>Node4&#45;&gt;Node34</title>
<path fill="none" stroke="midnightblue" d="M406.9,-699.04C405.13,-700.51 403.49,-702.12 402,-703.89 331.1,-788.07 439.35,-866.83 366,-948.89 360.77,-954.73 354.31,-959.23 347.25,-962.68"/>
<polygon fill="midnightblue" stroke="midnightblue" points="408.93,-701.89 415.34,-693.46 405.07,-696.05 408.93,-701.89"/>
</g>
<!-- Node6 -->
<g id="node6" class="node">
<title>Node6</title>
<g id="a_node6"><a xlink:href="test__cmp__decmp_8c_af3c162694b40683e0aa25c61a49cdafc.html#af3c162694b40683e0aa25c61a49cdafc" target="_top" xlink:title="random compression decompression test">
<polygon fill="white" stroke="black" points="0,-149.89 0,-179.89 146,-179.89 146,-149.89 0,-149.89"/>
<text text-anchor="start" x="8" y="-167.89" font-family="Helvetica,sans-Serif" font-size="10.00">test_random_compression</text>
<text text-anchor="middle" x="73" y="-156.89" font-family="Helvetica,sans-Serif" font-size="10.00">_decompression</text>
</a>
</g>
</g>
<!-- Node5&#45;&gt;Node6 -->
<g id="edge5" class="edge">
<title>Node5&#45;&gt;Node6</title>
<path fill="none" stroke="midnightblue" d="M184.63,-164.89C171.72,-164.89 158.55,-164.89 146.01,-164.89"/>
<polygon fill="midnightblue" stroke="midnightblue" points="184.92,-168.39 194.92,-164.89 184.92,-161.39 184.92,-168.39"/>
</g>
<!-- Node8 -->
<g id="node8" class="node">
<title>Node8</title>
<g id="a_node8"><a xlink:href="test__decmp_8c_a1a33e2fcbf484c79dfe661b280386f6b.html#a1a33e2fcbf484c79dfe661b280386f6b" target="_top" xlink:title=" ">
<polygon fill="white" stroke="black" points="0,-79.39 0,-98.39 146,-98.39 146,-79.39 0,-79.39"/>
<text text-anchor="middle" x="73" y="-86.39" font-family="Helvetica,sans-Serif" font-size="10.00">test_cmp_decmp_s_fx_diff</text>
</a>
</g>
</g>
<!-- Node7&#45;&gt;Node8 -->
<g id="edge7" class="edge">
<title>Node7&#45;&gt;Node8</title>
<path fill="none" stroke="midnightblue" d="M191.7,-88.89C176.67,-88.89 161.06,-88.89 146.32,-88.89"/>
<polygon fill="midnightblue" stroke="midnightblue" points="192,-92.39 202,-88.89 192,-85.39 192,-92.39"/>
</g>
<!-- Node38&#45;&gt;Node5 -->
<g id="edge38" class="edge">
<title>Node38&#45;&gt;Node5</title>
<path fill="none" stroke="midnightblue" d="M579.39,-181.06C519.55,-177.88 421.73,-172.68 353.17,-169.04"/>
<polygon fill="midnightblue" stroke="midnightblue" points="579.21,-184.56 589.38,-181.59 579.58,-177.57 579.21,-184.56"/>
</g>
<!-- Node38&#45;&gt;Node9 -->
<g id="edge39" class="edge">
<title>Node38&#45;&gt;Node9</title>
<path fill="none" stroke="midnightblue" d="M579.27,-175.4C513.79,-164.96 402.93,-147.28 334.64,-136.39"/>
<polygon fill="midnightblue" stroke="midnightblue" points="578.95,-178.89 589.38,-177.01 580.05,-171.98 578.95,-178.89"/>
</g>
<!-- Node38&#45;&gt;Node39 -->
<g id="edge40" class="edge">
<title>Node38&#45;&gt;Node39</title>
<path fill="none" stroke="midnightblue" d="M605.95,-198.44C592.39,-206.27 575.87,-216.45 562,-226.89 544.65,-239.93 544.82,-249.06 526,-259.89 519.46,-263.65 512.09,-266.75 504.8,-269.28"/>
<polygon fill="midnightblue" stroke="midnightblue" points="607.83,-201.4 614.79,-193.41 604.37,-195.31 607.83,-201.4"/>
</g>
<!-- Node40 -->
<g id="node40" class="node">
<title>Node40</title>
<g id="a_node40"><a xlink:href="test__cmp__entity_8c_a893444224bcd50fbb99e42e85989b4a6.html#a893444224bcd50fbb99e42e85989b4a6" target="_top" xlink:title=" ">
<polygon fill="white" stroke="black" points="406.5,-231.39 406.5,-250.39 521.5,-250.39 521.5,-231.39 406.5,-231.39"/>
<text text-anchor="middle" x="464" y="-238.39" font-family="Helvetica,sans-Serif" font-size="10.00">test_cmp_ent_parse</text>
</a>
</g>
</g>
<!-- Node38&#45;&gt;Node40 -->
<g id="edge41" class="edge">
<title>Node38&#45;&gt;Node40</title>
<path fill="none" stroke="midnightblue" d="M597.15,-196.91C576.48,-204.42 549.84,-213.92 526,-221.89 516.43,-225.08 505.95,-228.41 496.42,-231.37"/>
<polygon fill="midnightblue" stroke="midnightblue" points="598.58,-200.11 606.78,-193.4 596.18,-193.53 598.58,-200.11"/>
</g>
<!-- Node41 -->
<g id="node41" class="node">
<title>Node41</title>
<g id="a_node41"><a xlink:href="test__cmp__entity_8c_a28c5d64d3c7c61100798fa39100d0f30.html#a28c5d64d3c7c61100798fa39100d0f30" target="_top" xlink:title=" ">
<polygon fill="white" stroke="black" points="409,-193.39 409,-212.39 519,-212.39 519,-193.39 409,-193.39"/>
<text text-anchor="middle" x="464" y="-200.39" font-family="Helvetica,sans-Serif" font-size="10.00">test_cmp_ent_print</text>
</a>
</g>
</g>
<!-- Node38&#45;&gt;Node41 -->
<g id="edge42" class="edge">
<title>Node38&#45;&gt;Node41</title>
<path fill="none" stroke="midnightblue" d="M579.28,-189.92C560.07,-192.1 538.38,-194.56 519.1,-196.75"/>
<polygon fill="midnightblue" stroke="midnightblue" points="579.82,-193.38 589.36,-188.78 579.03,-186.43 579.82,-193.38"/>
</g>
<!-- Node42&#45;&gt;Node7 -->
<g id="edge45" class="edge">
<title>Node42&#45;&gt;Node7</title>
<path fill="none" stroke="midnightblue" d="M730.61,-140.91C681.84,-137.58 618.25,-132.76 562,-126.89 485.14,-118.87 397.08,-106.77 339,-98.39"/>
<polygon fill="midnightblue" stroke="midnightblue" points="730.57,-144.41 740.78,-141.59 731.04,-137.43 730.57,-144.41"/>
</g>
<!-- Node42&#45;&gt;Node38 -->
<g id="edge44" class="edge">
<title>Node42&#45;&gt;Node38</title>
<path fill="none" stroke="midnightblue" d="M756.29,-157.59C731.03,-163.04 701.39,-169.44 677.68,-174.56"/>
<polygon fill="midnightblue" stroke="midnightblue" points="757.05,-161.01 766.09,-155.48 755.57,-154.16 757.05,-161.01"/>
</g>
<!-- Node43 -->
<g id="node43" class="node">
<title>Node43</title>
<g id="a_node43"><a xlink:href="test__decmp_8c_a27e5a2b67e3e81da1be024826485b2e3.html#a27e5a2b67e3e81da1be024826485b2e3" target="_top" xlink:title=" ">
<polygon fill="white" stroke="black" points="577,-86.89 577,-116.89 690,-116.89 690,-86.89 577,-86.89"/>
<text text-anchor="start" x="585" y="-104.89" font-family="Helvetica,sans-Serif" font-size="10.00">test_cmp_ent_write</text>
<text text-anchor="middle" x="633.5" y="-93.89" font-family="Helvetica,sans-Serif" font-size="10.00">_cmp_pars</text>
</a>
</g>
</g>
<!-- Node42&#45;&gt;Node43 -->
<g id="edge46" class="edge">
<title>Node42&#45;&gt;Node43</title>
<path fill="none" stroke="midnightblue" d="M762.4,-133.86C740.12,-128.29 713.49,-121.63 690.33,-115.84"/>
<polygon fill="midnightblue" stroke="midnightblue" points="761.76,-137.31 772.31,-136.34 763.46,-130.52 761.76,-137.31"/>
</g>
<!-- Node44 -->
<g id="node44" class="node">
<title>Node44</title>
<g id="a_node44"><a xlink:href="test__cmp__entity_8c_a8f7fd6d8b939382555507ecf2e74ec79.html#a8f7fd6d8b939382555507ecf2e74ec79" target="_top" xlink:title=" ">
<polygon fill="white" stroke="black" points="577,-37.89 577,-67.89 690,-67.89 690,-37.89 577,-37.89"/>
<text text-anchor="start" x="585" y="-55.89" font-family="Helvetica,sans-Serif" font-size="10.00">test_cmp_ent_write</text>
<text text-anchor="middle" x="633.5" y="-44.89" font-family="Helvetica,sans-Serif" font-size="10.00">_rdcu_cmp_pars</text>
</a>
</g>
</g>
<!-- Node42&#45;&gt;Node44 -->
<g id="edge47" class="edge">
<title>Node42&#45;&gt;Node44</title>
<path fill="none" stroke="midnightblue" d="M786.59,-130.94C773.14,-122.49 756.08,-111.68 741,-101.89 724.88,-91.41 722.19,-86.5 705,-77.89 697.8,-74.28 689.95,-70.95 682.2,-67.98"/>
<polygon fill="midnightblue" stroke="midnightblue" points="784.92,-134.03 795.25,-136.38 788.64,-128.1 784.92,-134.03"/>
</g>
<!-- Node45&#45;&gt;Node44 -->
<g id="edge49" class="edge">
<title>Node45&#45;&gt;Node44</title>
<path fill="none" stroke="midnightblue" d="M743.62,-67.77C725.97,-65.36 707.13,-62.79 690.15,-60.47"/>
<polygon fill="midnightblue" stroke="midnightblue" points="743.46,-71.28 753.84,-69.16 744.41,-64.34 743.46,-71.28"/>
</g>
</g>
</svg>
        <g id="navigator" transform="translate(0 0)" fill="#404254">
                <rect fill="#f2f5e9" fill-opacity="0.5" stroke="#606060" stroke-width=".5" x="0" y="0" width="60" height="60"/>
                <use id="zoomplus" xlink:href="#zoomPlus" x="17" y="9" onmousedown="handleZoom(evt,'in')"/>
                <use id="zoomminus" xlink:href="#zoomMin" x="42" y="9" onmousedown="handleZoom(evt,'out')"/>
                <use id="reset" xlink:href="#resetDef" x="30" y="36" onmousedown="handleReset()"/>
                <g id="arrowUp" xlink:href="#dirArrow" transform="translate(30 24)" onmousedown="handlePan(0,-1)">
                  <use xlink:href="#rim" fill="#404040">
                        <set attributeName="fill" to="#808080" begin="arrowUp.mouseover" end="arrowUp.mouseout"/>
                  </use>
                  <path fill="none" stroke="white" stroke-width="1.5" d="M0,-3.0v7 M-2.5,-0.5L0,-3.0L2.5,-0.5"/>
                </g>
                <g id="arrowRight" xlink:href="#dirArrow" transform="rotate(90) translate(36 -43)" onmousedown="handlePan(1,0)">
                  <use xlink:href="#rim" fill="#404040">
                        <set attributeName="fill" to="#808080" begin="arrowRight.mouseover" end="arrowRight.mouseout"/>
                  </use>
                  <path fill="none" stroke="white" stroke-width="1.5" d="M0,-3.0v7 M-2.5,-0.5L0,-3.0L2.5,-0.5"/>
                </g>
                <g id="arrowDown" xlink:href="#dirArrow" transform="rotate(180) translate(-30 -48)" onmousedown="handlePan(0,1)">
                  <use xlink:href="#rim" fill="#404040">
                        <set attributeName="fill" to="#808080" begin="arrowDown.mouseover" end="arrowDown.mouseout"/>
                  </use>
                  <path fill="none" stroke="white" stroke-width="1.5" d="M0,-3.0v7 M-2.5,-0.5L0,-3.0L2.5,-0.5"/>
                </g>
                <g id="arrowLeft" xlink:href="#dirArrow" transform="rotate(270) translate(-36 17)" onmousedown="handlePan(-1,0)">
                  <use xlink:href="#rim" fill="#404040">
                        <set attributeName="fill" to="#808080" begin="arrowLeft.mouseover" end="arrowLeft.mouseout"/>
                  </use>
                  <path fill="none" stroke="white" stroke-width="1.5" d="M0,-3.0v7 M-2.5,-0.5L0,-3.0L2.5,-0.5"/>
                </g>
        </g>
        <svg viewBox="0 0 15 15" width="100%" height="30px" preserveAspectRatio="xMaxYMin meet">
         <g id="arrow_out" transform="scale(0.3 0.3)">
          <a xlink:href="cmp__support_8c_a9b2702244ffc1d51b81f38b909ce84b4_a9b2702244ffc1d51b81f38b909ce84b4_icgraph_org.svg" target="_base">
           <rect id="button" ry="5" rx="5" y="6" x="6" height="38" width="38"
                fill="#f2f5e9" fill-opacity="0.5" stroke="#606060" stroke-width="1.0"/>
           <path id="arrow"
             d="M 11.500037,31.436501 C 11.940474,20.09759 22.043105,11.32322 32.158766,21.979434 L 37.068811,17.246167 C 37.068811,17.246167 37.088388,32 37.088388,32 L 22.160133,31.978069 C 22.160133,31.978069 26.997745,27.140456 26.997745,27.140456 C 18.528582,18.264221 13.291696,25.230495 11.500037,31.436501 z"
             style="fill:#404040;"/>
          </a>
         </g>
        </svg>
</svg>
