<?xml version="1.0" encoding="UTF-8" standalone="no"?>
<!DOCTYPE svg PUBLIC "-//W3C//DTD SVG 1.1//EN"
 "http://www.w3.org/Graphics/SVG/1.1/DTD/svg11.dtd">
<!-- Generated by graphviz version 2.43.0 (0)
 -->
<!-- Title: cmp_cfg_aux Pages: 1 -->
<svg width="275pt" height="176pt"
 viewBox="0.00 0.00 275.00 175.50" xmlns="http://www.w3.org/2000/svg" xmlns:xlink="http://www.w3.org/1999/xlink">
<g id="graph0" class="graph" transform="scale(1 1) rotate(0) translate(4 171.5)">
<title>cmp_cfg_aux</title>
<polygon fill="white" stroke="transparent" points="-4,4 -4,-171.5 271,-171.5 271,4 -4,4"/>
<!-- Node1 -->
<g id="node1" class="node">
<title>Node1</title>
<g id="a_node1"><a xlink:title="set up the configuration parameters for an auxiliary science data compression">
<polygon fill="#bfbfbf" stroke="black" points="186,-79 186,-98 267,-98 267,-79 186,-79"/>
<text text-anchor="middle" x="226.5" y="-86" font-family="Helvetica,sans-Serif" font-size="10.00">cmp_cfg_aux</text>
</a>
</g>
</g>
<!-- Node2 -->
<g id="node2" class="node">
<title>Node2</title>
<g id="a_node2"><a xlink:href="test__cmp__icu_8c_aed9881c4fba85b79a035d585f4f47774.html#aed9881c4fba85b79a035d585f4f47774" target="_top" xlink:title=" ">
<polygon fill="white" stroke="black" points="22.5,-148 22.5,-167 127.5,-167 127.5,-148 22.5,-148"/>
<text text-anchor="middle" x="75" y="-155" font-family="Helvetica,sans-Serif" font-size="10.00">test_cmp_cfg_aux</text>
</a>
</g>
</g>
<!-- Node1&#45;&gt;Node2 -->
<g id="edge1" class="edge">
<title>Node1&#45;&gt;Node2</title>
<path fill="none" stroke="midnightblue" d="M205.16,-104.7C190.55,-115.62 169.99,-129.62 150,-138.5 141.52,-142.27 132.14,-145.4 122.99,-147.96"/>
<polygon fill="midnightblue" stroke="midnightblue" points="207.62,-107.22 213.43,-98.36 203.36,-101.66 207.62,-107.22"/>
</g>
<!-- Node3 -->
<g id="node3" class="node">
<title>Node3</title>
<g id="a_node3"><a xlink:href="test__cmp__icu_8c_aca32c7d039600004c9cc5c6fe19b8ec5.html#aca32c7d039600004c9cc5c6fe19b8ec5" target="_top" xlink:title=" ">
<polygon fill="white" stroke="black" points="0,-98.5 0,-128.5 150,-128.5 150,-98.5 0,-98.5"/>
<text text-anchor="start" x="8" y="-116.5" font-family="Helvetica,sans-Serif" font-size="10.00">test_compress_background</text>
<text text-anchor="middle" x="75" y="-105.5" font-family="Helvetica,sans-Serif" font-size="10.00">_error_cases</text>
</a>
</g>
</g>
<!-- Node1&#45;&gt;Node3 -->
<g id="edge2" class="edge">
<title>Node1&#45;&gt;Node3</title>
<path fill="none" stroke="midnightblue" d="M175.73,-96.82C167.55,-98.19 158.91,-99.64 150.27,-101.08"/>
<polygon fill="midnightblue" stroke="midnightblue" points="176.54,-100.24 185.83,-95.13 175.39,-93.33 176.54,-100.24"/>
</g>
<!-- Node4 -->
<g id="node4" class="node">
<title>Node4</title>
<g id="a_node4"><a xlink:href="test__cmp__icu_8c_a13bf5ba0481601697942a0a485f7631c.html#a13bf5ba0481601697942a0a485f7631c" target="_top" xlink:title=" ">
<polygon fill="white" stroke="black" points="14.5,-49.5 14.5,-79.5 135.5,-79.5 135.5,-49.5 14.5,-49.5"/>
<text text-anchor="start" x="22.5" y="-67.5" font-family="Helvetica,sans-Serif" font-size="10.00">test_compress_offset</text>
<text text-anchor="middle" x="75" y="-56.5" font-family="Helvetica,sans-Serif" font-size="10.00">_error_cases</text>
</a>
</g>
</g>
<!-- Node1&#45;&gt;Node4 -->
<g id="edge3" class="edge">
<title>Node1&#45;&gt;Node4</title>
<path fill="none" stroke="midnightblue" d="M175.78,-80.52C162.9,-78.45 148.9,-76.2 135.58,-74.06"/>
<polygon fill="midnightblue" stroke="midnightblue" points="175.4,-84 185.83,-82.13 176.51,-77.09 175.4,-84"/>
</g>
<!-- Node5 -->
<g id="node5" class="node">
<title>Node5</title>
<g id="a_node5"><a xlink:href="test__cmp__icu_8c_aee4858f3ea226c6da9e4a9ed54475b1d.html#aee4858f3ea226c6da9e4a9ed54475b1d" target="_top" xlink:title=" ">
<polygon fill="white" stroke="black" points="5.5,-0.5 5.5,-30.5 144.5,-30.5 144.5,-0.5 5.5,-0.5"/>
<text text-anchor="start" x="13.5" y="-18.5" font-family="Helvetica,sans-Serif" font-size="10.00">test_compress_smearing</text>
<text text-anchor="middle" x="75" y="-7.5" font-family="Helvetica,sans-Serif" font-size="10.00">_error_cases</text>
</a>
</g>
</g>
<!-- Node1&#45;&gt;Node5 -->
<g id="edge4" class="edge">
<title>Node1&#45;&gt;Node5</title>
<path fill="none" stroke="midnightblue" d="M204.32,-73.08C189.61,-62.87 169.26,-49.71 150,-40.5 142.42,-36.87 134.16,-33.54 126.01,-30.56"/>
<polygon fill="midnightblue" stroke="midnightblue" points="202.5,-76.09 212.69,-79 206.54,-70.37 202.5,-76.09"/>
</g>
</g>
</svg>
