<?xml version="1.0" encoding="UTF-8" standalone="no"?>
<!DOCTYPE svg PUBLIC "-//W3C//DTD SVG 1.1//EN"
 "http://www.w3.org/Graphics/SVG/1.1/DTD/svg11.dtd">
<!-- Generated by graphviz version 2.43.0 (0)
 -->
<!-- Title: cmp_icu.h Pages: 1 -->
<svg width="358pt" height="196pt"
 viewBox="0.00 0.00 358.43 196.00" xmlns="http://www.w3.org/2000/svg" xmlns:xlink="http://www.w3.org/1999/xlink">
<g id="graph0" class="graph" transform="scale(1 1) rotate(0) translate(4 192)">
<title>cmp_icu.h</title>
<polygon fill="white" stroke="transparent" points="-4,4 -4,-192 354.43,-192 354.43,4 -4,4"/>
<!-- Node1 -->
<g id="node1" class="node">
<title>Node1</title>
<g id="a_node1"><a xlink:title="software compression library">
<polygon fill="#bfbfbf" stroke="black" points="62.93,-168.5 62.93,-187.5 128.93,-187.5 128.93,-168.5 62.93,-168.5"/>
<text text-anchor="middle" x="95.93" y="-175.5" font-family="Helvetica,sans-Serif" font-size="10.00">cmp_icu.h</text>
</a>
</g>
</g>
<!-- Node2 -->
<g id="node2" class="node">
<title>Node2</title>
<g id="a_node2"><a xlink:href="cmp__support_8h.html" target="_top" xlink:title="compression/decompression helper functions">
<polygon fill="white" stroke="black" points="28.93,-112.5 28.93,-131.5 162.93,-131.5 162.93,-112.5 28.93,-112.5"/>
<text text-anchor="middle" x="95.93" y="-119.5" font-family="Helvetica,sans-Serif" font-size="10.00">common/cmp_support.h</text>
</a>
</g>
</g>
<!-- Node1&#45;&gt;Node2 -->
<g id="edge1" class="edge">
<title>Node1&#45;&gt;Node2</title>
<path fill="none" stroke="midnightblue" d="M95.93,-168.08C95.93,-161.01 95.93,-150.86 95.93,-141.99"/>
<polygon fill="midnightblue" stroke="midnightblue" points="99.44,-141.75 95.93,-131.75 92.44,-141.75 99.44,-141.75"/>
</g>
<!-- Node3 -->
<g id="node3" class="node">
<title>Node3</title>
<g id="a_node3"><a xlink:title=" ">
<polygon fill="white" stroke="#bfbfbf" points="124.43,-0.5 124.43,-19.5 177.43,-19.5 177.43,-0.5 124.43,-0.5"/>
<text text-anchor="middle" x="150.93" y="-7.5" font-family="Helvetica,sans-Serif" font-size="10.00">stdint.h</text>
</a>
</g>
</g>
<!-- Node2&#45;&gt;Node3 -->
<g id="edge2" class="edge">
<title>Node2&#45;&gt;Node3</title>
<path fill="none" stroke="midnightblue" d="M63.9,-112.45C30.54,-101.92 -14.38,-82.16 4.93,-56 29.85,-22.25 79.69,-13.03 114.16,-10.91"/>
<polygon fill="midnightblue" stroke="midnightblue" points="114.49,-14.4 124.32,-10.46 114.18,-7.4 114.49,-14.4"/>
</g>
<!-- Node4 -->
<g id="node4" class="node">
<title>Node4</title>
<g id="a_node4"><a xlink:title=" ">
<polygon fill="white" stroke="#bfbfbf" points="13.93,-56.5 13.93,-75.5 69.93,-75.5 69.93,-56.5 13.93,-56.5"/>
<text text-anchor="middle" x="41.93" y="-63.5" font-family="Helvetica,sans-Serif" font-size="10.00">stddef.h</text>
</a>
</g>
</g>
<!-- Node2&#45;&gt;Node4 -->
<g id="edge3" class="edge">
<title>Node2&#45;&gt;Node4</title>
<path fill="none" stroke="midnightblue" d="M87.02,-112.08C79.15,-104.22 67.5,-92.57 58.02,-83.08"/>
<polygon fill="midnightblue" stroke="midnightblue" points="60.23,-80.35 50.69,-75.75 55.28,-85.3 60.23,-80.35"/>
</g>
<!-- Node5 -->
<g id="node5" class="node">
<title>Node5</title>
<g id="a_node5"><a xlink:href="cmp__max__used__bits_8h.html" target="_top" xlink:title="definition and consents of the cmp_max_used_bits structure">
<polygon fill="white" stroke="black" points="88.43,-56.5 88.43,-75.5 213.43,-75.5 213.43,-56.5 88.43,-56.5"/>
<text text-anchor="middle" x="150.93" y="-63.5" font-family="Helvetica,sans-Serif" font-size="10.00">cmp_max_used_bits.h</text>
</a>
</g>
</g>
<!-- Node2&#45;&gt;Node5 -->
<g id="edge4" class="edge">
<title>Node2&#45;&gt;Node5</title>
<path fill="none" stroke="midnightblue" d="M105.02,-112.08C113.11,-104.14 125.13,-92.34 134.85,-82.8"/>
<polygon fill="midnightblue" stroke="midnightblue" points="137.34,-85.25 142.02,-75.75 132.43,-80.26 137.34,-85.25"/>
</g>
<!-- Node6 -->
<g id="node6" class="node">
<title>Node6</title>
<g id="a_node6"><a xlink:href="cmp__cal__up__model_8h.html" target="_top" xlink:title="functions to calculate the update (new) model">
<polygon fill="white" stroke="black" points="231.43,-56.5 231.43,-75.5 350.43,-75.5 350.43,-56.5 231.43,-56.5"/>
<text text-anchor="middle" x="290.93" y="-63.5" font-family="Helvetica,sans-Serif" font-size="10.00">cmp_cal_up_model.h</text>
</a>
</g>
</g>
<!-- Node2&#45;&gt;Node6 -->
<g id="edge6" class="edge">
<title>Node2&#45;&gt;Node6</title>
<path fill="none" stroke="midnightblue" d="M126.83,-112.44C160.21,-103.2 213.53,-88.44 250.28,-78.26"/>
<polygon fill="midnightblue" stroke="midnightblue" points="251.48,-81.56 260.18,-75.52 249.61,-74.81 251.48,-81.56"/>
</g>
<!-- Node5&#45;&gt;Node3 -->
<g id="edge5" class="edge">
<title>Node5&#45;&gt;Node3</title>
<path fill="none" stroke="midnightblue" d="M150.93,-56.08C150.93,-49.01 150.93,-38.86 150.93,-29.99"/>
<polygon fill="midnightblue" stroke="midnightblue" points="154.44,-29.75 150.93,-19.75 147.44,-29.75 154.44,-29.75"/>
</g>
<!-- Node6&#45;&gt;Node3 -->
<g id="edge7" class="edge">
<title>Node6&#45;&gt;Node3</title>
<path fill="none" stroke="midnightblue" d="M268.75,-56.44C245.51,-47.48 208.79,-33.31 182.52,-23.18"/>
<polygon fill="midnightblue" stroke="midnightblue" points="183.6,-19.85 173.01,-19.52 181.08,-26.38 183.6,-19.85"/>
</g>
</g>
</svg>
