<?xml version="1.0" encoding="UTF-8" standalone="no"?>
<!DOCTYPE svg PUBLIC "-//W3C//DTD SVG 1.1//EN"
 "http://www.w3.org/Graphics/SVG/1.1/DTD/svg11.dtd">
<!-- Generated by graphviz version 2.43.0 (0)
 -->
<!-- Title: cmp_cfg_icu_buffers_is_invalid Pages: 1 -->
<svg width="849pt" height="1416pt"
 viewBox="0.00 0.00 849.00 1416.00" xmlns="http://www.w3.org/2000/svg" xmlns:xlink="http://www.w3.org/1999/xlink">
<g id="graph0" class="graph" transform="scale(1 1) rotate(0) translate(4 1412)">
<title>cmp_cfg_icu_buffers_is_invalid</title>
<polygon fill="white" stroke="transparent" points="-4,4 -4,-1412 845,-1412 845,4 -4,4"/>
<!-- Node1 -->
<g id="node1" class="node">
<title>Node1</title>
<g id="a_node1"><a xlink:title="check if the ICU buffer parameters are invalid">
<polygon fill="#bfbfbf" stroke="black" points="725,-634 725,-664 841,-664 841,-634 725,-634"/>
<text text-anchor="start" x="733" y="-652" font-family="Helvetica,sans-Serif" font-size="10.00">cmp_cfg_icu_buffers</text>
<text text-anchor="middle" x="783" y="-641" font-family="Helvetica,sans-Serif" font-size="10.00">_is_invalid</text>
</a>
</g>
</g>
<!-- Node2 -->
<g id="node2" class="node">
<title>Node2</title>
<g id="a_node2"><a xlink:href="cmp__icu_8h_a522a4086aef4920d08a232b7500635fa.html#a522a4086aef4920d08a232b7500635fa" target="_top" xlink:title="set up the different data buffers for an ICU compression">
<polygon fill="white" stroke="black" points="405,-861.5 405,-880.5 521,-880.5 521,-861.5 405,-861.5"/>
<text text-anchor="middle" x="463" y="-868.5" font-family="Helvetica,sans-Serif" font-size="10.00">cmp_cfg_icu_buffers</text>
</a>
</g>
</g>
<!-- Node1&#45;&gt;Node2 -->
<g id="edge1" class="edge">
<title>Node1&#45;&gt;Node2</title>
<path fill="none" stroke="midnightblue" d="M751.68,-670.16C684.62,-716.98 525.86,-827.81 477.94,-861.27"/>
<polygon fill="midnightblue" stroke="midnightblue" points="753.95,-672.85 760.14,-664.26 749.94,-667.11 753.95,-672.85"/>
</g>
<!-- Node26 -->
<g id="node26" class="node">
<title>Node26</title>
<g id="a_node26"><a xlink:href="cmp__support_8c_ac899115007a8c1aa9d82c1872b873655.html#ac899115007a8c1aa9d82c1872b873655" target="_top" xlink:title="check if a compression configuration is invalid for a ICU compression">
<polygon fill="white" stroke="black" points="560,-639.5 560,-658.5 689,-658.5 689,-639.5 560,-639.5"/>
<text text-anchor="middle" x="624.5" y="-646.5" font-family="Helvetica,sans-Serif" font-size="10.00">cmp_cfg_icu_is_invalid</text>
</a>
</g>
</g>
<!-- Node1&#45;&gt;Node26 -->
<g id="edge25" class="edge">
<title>Node1&#45;&gt;Node26</title>
<path fill="none" stroke="midnightblue" d="M714.49,-649C706.1,-649 697.55,-649 689.22,-649"/>
<polygon fill="midnightblue" stroke="midnightblue" points="714.61,-652.5 724.61,-649 714.61,-645.5 714.61,-652.5"/>
</g>
<!-- Node36 -->
<g id="node36" class="node">
<title>Node36</title>
<g id="a_node36"><a xlink:href="test__cmp__icu_8c_aaa89e321d2d9f70cb59536438f4b6dff.html#aaa89e321d2d9f70cb59536438f4b6dff" target="_top" xlink:title=" ">
<polygon fill="white" stroke="black" points="402,-592 402,-622 524,-622 524,-592 402,-592"/>
<text text-anchor="start" x="410" y="-610" font-family="Helvetica,sans-Serif" font-size="10.00">test_support_function</text>
<text text-anchor="middle" x="463" y="-599" font-family="Helvetica,sans-Serif" font-size="10.00">_call_NULL</text>
</a>
</g>
</g>
<!-- Node1&#45;&gt;Node36 -->
<g id="edge58" class="edge">
<title>Node1&#45;&gt;Node36</title>
<path fill="none" stroke="midnightblue" d="M714.6,-634.41C706.01,-632.79 697.31,-631.27 689,-630 633.49,-621.51 569.79,-615.33 524.37,-611.53"/>
<polygon fill="midnightblue" stroke="midnightblue" points="714.13,-637.88 724.61,-636.34 715.46,-631.01 714.13,-637.88"/>
</g>
<!-- Node3 -->
<g id="node3" class="node">
<title>Node3</title>
<g id="a_node3"><a xlink:href="test__cmp__icu_8c_a0ecdcb6ecabf5d7ee74f177cc1d3a965.html#a0ecdcb6ecabf5d7ee74f177cc1d3a965" target="_top" xlink:title=" ">
<polygon fill="white" stroke="black" points="204,-1388.5 204,-1407.5 344,-1407.5 344,-1388.5 204,-1388.5"/>
<text text-anchor="middle" x="274" y="-1395.5" font-family="Helvetica,sans-Serif" font-size="10.00">test_cmp_cfg_icu_buffers</text>
</a>
</g>
</g>
<!-- Node2&#45;&gt;Node3 -->
<g id="edge2" class="edge">
<title>Node2&#45;&gt;Node3</title>
<path fill="none" stroke="midnightblue" d="M460.97,-890.83C456.18,-975.01 433.48,-1301.67 366,-1374 359.98,-1380.45 352.45,-1385.25 344.32,-1388.8"/>
<polygon fill="midnightblue" stroke="midnightblue" points="464.47,-890.79 461.53,-880.62 457.48,-890.41 464.47,-890.79"/>
</g>
<!-- Node4 -->
<g id="node4" class="node">
<title>Node4</title>
<g id="a_node4"><a xlink:href="test__decmp_8c_a6e7a5e150e2c829836db3c42cdec2eec.html#a6e7a5e150e2c829836db3c42cdec2eec" target="_top" xlink:title=" ">
<polygon fill="white" stroke="black" points="182,-401.5 182,-420.5 366,-420.5 366,-401.5 182,-401.5"/>
<text text-anchor="middle" x="274" y="-408.5" font-family="Helvetica,sans-Serif" font-size="10.00">test_cmp_decmp_n_imagette_raw</text>
</a>
</g>
</g>
<!-- Node2&#45;&gt;Node4 -->
<g id="edge3" class="edge">
<title>Node2&#45;&gt;Node4</title>
<path fill="none" stroke="midnightblue" d="M455.16,-851.45C442.9,-815.8 417.09,-737.64 402,-670 390.26,-617.36 403.03,-469.2 366,-430 362.45,-426.25 358.37,-423.13 353.94,-420.56"/>
<polygon fill="midnightblue" stroke="midnightblue" points="451.92,-852.79 458.5,-861.09 458.53,-850.5 451.92,-852.79"/>
</g>
<!-- Node5 -->
<g id="node5" class="node">
<title>Node5</title>
<g id="a_node5"><a xlink:href="test__decmp_8c_a1a33e2fcbf484c79dfe661b280386f6b.html#a1a33e2fcbf484c79dfe661b280386f6b" target="_top" xlink:title=" ">
<polygon fill="white" stroke="black" points="0,-831.5 0,-850.5 146,-850.5 146,-831.5 0,-831.5"/>
<text text-anchor="middle" x="73" y="-838.5" font-family="Helvetica,sans-Serif" font-size="10.00">test_cmp_decmp_s_fx_diff</text>
</a>
</g>
</g>
<!-- Node2&#45;&gt;Node5 -->
<g id="edge4" class="edge">
<title>Node2&#45;&gt;Node5</title>
<path fill="none" stroke="midnightblue" d="M461.1,-890.81C456.96,-972.07 436.81,-1278.31 366,-1336 302.6,-1387.65 245.69,-1387.29 182,-1336 102.19,-1271.73 78.19,-914.4 74.53,-850.71"/>
<polygon fill="midnightblue" stroke="midnightblue" points="464.61,-890.66 461.6,-880.51 457.62,-890.32 464.61,-890.66"/>
</g>
<!-- Node6 -->
<g id="node6" class="node">
<title>Node6</title>
<g id="a_node6"><a xlink:href="test__cmp__icu_8c_aca32c7d039600004c9cc5c6fe19b8ec5.html#aca32c7d039600004c9cc5c6fe19b8ec5" target="_top" xlink:title=" ">
<polygon fill="white" stroke="black" points="199,-352 199,-382 349,-382 349,-352 199,-352"/>
<text text-anchor="start" x="207" y="-370" font-family="Helvetica,sans-Serif" font-size="10.00">test_compress_background</text>
<text text-anchor="middle" x="274" y="-359" font-family="Helvetica,sans-Serif" font-size="10.00">_error_cases</text>
</a>
</g>
</g>
<!-- Node2&#45;&gt;Node6 -->
<g id="edge5" class="edge">
<title>Node2&#45;&gt;Node6</title>
<path fill="none" stroke="midnightblue" d="M455.02,-851.48C442.55,-815.87 416.41,-737.79 402,-670 389.05,-609.07 406.88,-439.01 366,-392 361.27,-386.56 355.48,-382.25 349.13,-378.85"/>
<polygon fill="midnightblue" stroke="midnightblue" points="451.79,-852.85 458.42,-861.11 458.39,-850.51 451.79,-852.85"/>
</g>
<!-- Node7 -->
<g id="node7" class="node">
<title>Node7</title>
<g id="a_node7"><a xlink:href="test__cmp__icu_8c_a64b46c032fdef8789190209bd9c3c49b.html#a64b46c032fdef8789190209bd9c3c49b" target="_top" xlink:title=" ">
<polygon fill="white" stroke="black" points="218,-1263 218,-1293 330,-1293 330,-1263 218,-1263"/>
<text text-anchor="start" x="226" y="-1281" font-family="Helvetica,sans-Serif" font-size="10.00">test_compress_f_fx</text>
<text text-anchor="middle" x="274" y="-1270" font-family="Helvetica,sans-Serif" font-size="10.00">_efx_error_cases</text>
</a>
</g>
</g>
<!-- Node2&#45;&gt;Node7 -->
<g id="edge6" class="edge">
<title>Node2&#45;&gt;Node7</title>
<path fill="none" stroke="midnightblue" d="M459.68,-890.88C451.02,-961.81 418.36,-1200.99 366,-1254 356.47,-1263.65 343.55,-1269.56 330.45,-1273.15"/>
<polygon fill="midnightblue" stroke="midnightblue" points="463.19,-891.01 460.9,-880.66 456.24,-890.18 463.19,-891.01"/>
</g>
<!-- Node8 -->
<g id="node8" class="node">
<title>Node8</title>
<g id="a_node8"><a xlink:href="test__cmp__icu_8c_acd4ce1f38ffbf0d6258b81668836d96b.html#acd4ce1f38ffbf0d6258b81668836d96b" target="_top" xlink:title=" ">
<polygon fill="white" stroke="black" points="218,-1214 218,-1244 330,-1244 330,-1214 218,-1214"/>
<text text-anchor="start" x="226" y="-1232" font-family="Helvetica,sans-Serif" font-size="10.00">test_compress_f_fx</text>
<text text-anchor="middle" x="274" y="-1221" font-family="Helvetica,sans-Serif" font-size="10.00">_efx_ncob_ecob</text>
</a>
</g>
</g>
<!-- Node2&#45;&gt;Node8 -->
<g id="edge7" class="edge">
<title>Node2&#45;&gt;Node8</title>
<path fill="none" stroke="midnightblue" d="M462.59,-890.87C463.15,-948.36 456.58,-1116.39 366,-1205 356.31,-1214.48 343.33,-1220.34 330.22,-1223.92"/>
<polygon fill="midnightblue" stroke="midnightblue" points="466.08,-890.56 462.4,-880.62 459.08,-890.69 466.08,-890.56"/>
</g>
<!-- Node9 -->
<g id="node9" class="node">
<title>Node9</title>
<g id="a_node9"><a xlink:href="test__cmp__icu_8c_a5fdfb76e3f52d4283fdcbf5e05ac7dd9.html#a5fdfb76e3f52d4283fdcbf5e05ac7dd9" target="_top" xlink:title=" ">
<polygon fill="white" stroke="black" points="218,-1165 218,-1195 330,-1195 330,-1165 218,-1165"/>
<text text-anchor="start" x="226" y="-1183" font-family="Helvetica,sans-Serif" font-size="10.00">test_compress_f_fx</text>
<text text-anchor="middle" x="274" y="-1172" font-family="Helvetica,sans-Serif" font-size="10.00">_error_cases</text>
</a>
</g>
</g>
<!-- Node2&#45;&gt;Node9 -->
<g id="edge8" class="edge">
<title>Node2&#45;&gt;Node9</title>
<path fill="none" stroke="midnightblue" d="M461.45,-890.67C458.9,-942.23 444.71,-1082.4 366,-1156 356.21,-1165.15 343.36,-1170.9 330.41,-1174.49"/>
<polygon fill="midnightblue" stroke="midnightblue" points="464.95,-890.69 461.85,-880.56 457.96,-890.41 464.95,-890.69"/>
</g>
<!-- Node10 -->
<g id="node10" class="node">
<title>Node10</title>
<g id="a_node10"><a xlink:href="test__cmp__icu_8c_ad6a880fe71de66a8a98a3f97d9e736da.html#ad6a880fe71de66a8a98a3f97d9e736da" target="_top" xlink:title=" ">
<polygon fill="white" stroke="black" points="218,-1116 218,-1146 330,-1146 330,-1116 218,-1116"/>
<text text-anchor="start" x="226" y="-1134" font-family="Helvetica,sans-Serif" font-size="10.00">test_compress_f_fx</text>
<text text-anchor="middle" x="274" y="-1123" font-family="Helvetica,sans-Serif" font-size="10.00">_ncob_error_cases</text>
</a>
</g>
</g>
<!-- Node2&#45;&gt;Node10 -->
<g id="edge9" class="edge">
<title>Node2&#45;&gt;Node10</title>
<path fill="none" stroke="midnightblue" d="M459.78,-890.76C453.65,-935.91 432.26,-1047.23 366,-1106 355.95,-1114.91 343,-1120.68 330.04,-1124.41"/>
<polygon fill="midnightblue" stroke="midnightblue" points="463.26,-891.14 461.03,-880.78 456.32,-890.27 463.26,-891.14"/>
</g>
<!-- Node11 -->
<g id="node11" class="node">
<title>Node11</title>
<g id="a_node11"><a xlink:href="test__cmp__icu_8c_a99545cc4ea3f1aa22be006d201e43f6d.html#a99545cc4ea3f1aa22be006d201e43f6d" target="_top" xlink:title=" ">
<polygon fill="white" stroke="black" points="195,-1077.5 195,-1096.5 353,-1096.5 353,-1077.5 195,-1077.5"/>
<text text-anchor="middle" x="274" y="-1084.5" font-family="Helvetica,sans-Serif" font-size="10.00">test_compress_imagette_diff</text>
</a>
</g>
</g>
<!-- Node2&#45;&gt;Node11 -->
<g id="edge10" class="edge">
<title>Node2&#45;&gt;Node11</title>
<path fill="none" stroke="midnightblue" d="M458.42,-890.52C449.99,-930.56 424.99,-1022.06 366,-1068 361.16,-1071.77 355.75,-1074.84 350.05,-1077.33"/>
<polygon fill="midnightblue" stroke="midnightblue" points="461.86,-891.16 460.37,-880.67 454.99,-889.8 461.86,-891.16"/>
</g>
<!-- Node12 -->
<g id="node12" class="node">
<title>Node12</title>
<g id="a_node12"><a xlink:href="test__cmp__icu_8c_a7c1162f048c55a098b4e6c1d9a0a884e.html#a7c1162f048c55a098b4e6c1d9a0a884e" target="_top" xlink:title=" ">
<polygon fill="white" stroke="black" points="205.5,-1028 205.5,-1058 342.5,-1058 342.5,-1028 205.5,-1028"/>
<text text-anchor="start" x="213.5" y="-1046" font-family="Helvetica,sans-Serif" font-size="10.00">test_compress_imagette</text>
<text text-anchor="middle" x="274" y="-1035" font-family="Helvetica,sans-Serif" font-size="10.00">_model</text>
</a>
</g>
</g>
<!-- Node2&#45;&gt;Node12 -->
<g id="edge11" class="edge">
<title>Node2&#45;&gt;Node12</title>
<path fill="none" stroke="midnightblue" d="M454.92,-890.2C442.19,-922.01 412.36,-985.44 366,-1019 358.99,-1024.08 350.98,-1028.08 342.68,-1031.24"/>
<polygon fill="midnightblue" stroke="midnightblue" points="458.25,-891.31 458.58,-880.72 451.72,-888.79 458.25,-891.31"/>
</g>
<!-- Node13 -->
<g id="node13" class="node">
<title>Node13</title>
<g id="a_node13"><a xlink:href="test__cmp__icu_8c_a3c859fa9247c65ae7a43e2bd682448e2.html#a3c859fa9247c65ae7a43e2bd682448e2" target="_top" xlink:title=" ">
<polygon fill="white" stroke="black" points="205.5,-979 205.5,-1009 342.5,-1009 342.5,-979 205.5,-979"/>
<text text-anchor="start" x="213.5" y="-997" font-family="Helvetica,sans-Serif" font-size="10.00">test_compress_imagette</text>
<text text-anchor="middle" x="274" y="-986" font-family="Helvetica,sans-Serif" font-size="10.00">_stuff</text>
</a>
</g>
</g>
<!-- Node2&#45;&gt;Node13 -->
<g id="edge12" class="edge">
<title>Node2&#45;&gt;Node13</title>
<path fill="none" stroke="midnightblue" d="M449.59,-888.82C433.08,-911.16 401.78,-949.07 366,-970 358.81,-974.21 350.87,-977.69 342.77,-980.57"/>
<polygon fill="midnightblue" stroke="midnightblue" points="452.53,-890.72 455.54,-880.56 446.85,-886.62 452.53,-890.72"/>
</g>
<!-- Node14 -->
<g id="node14" class="node">
<title>Node14</title>
<g id="a_node14"><a xlink:href="test__cmp__icu_8c_a4d05bd6cb0b420d45886997161470259.html#a4d05bd6cb0b420d45886997161470259" target="_top" xlink:title=" ">
<polygon fill="white" stroke="black" points="218.5,-930 218.5,-960 329.5,-960 329.5,-930 218.5,-930"/>
<text text-anchor="start" x="226.5" y="-948" font-family="Helvetica,sans-Serif" font-size="10.00">test_compress_l_fx</text>
<text text-anchor="middle" x="274" y="-937" font-family="Helvetica,sans-Serif" font-size="10.00">_efx_error_cases</text>
</a>
</g>
</g>
<!-- Node2&#45;&gt;Node14 -->
<g id="edge13" class="edge">
<title>Node2&#45;&gt;Node14</title>
<path fill="none" stroke="midnightblue" d="M437.33,-885.8C418.35,-896.7 391.19,-911.26 366,-921 354.42,-925.48 341.69,-929.41 329.52,-932.73"/>
<polygon fill="midnightblue" stroke="midnightblue" points="439.33,-888.69 446.21,-880.63 435.8,-882.64 439.33,-888.69"/>
</g>
<!-- Node15 -->
<g id="node15" class="node">
<title>Node15</title>
<g id="a_node15"><a xlink:href="test__cmp__icu_8c_a0d3532f9e6f2e6e0c4392049e06c627f.html#a0d3532f9e6f2e6e0c4392049e06c627f" target="_top" xlink:title=" ">
<polygon fill="white" stroke="black" points="196,-881 196,-911 352,-911 352,-881 196,-881"/>
<text text-anchor="start" x="204" y="-899" font-family="Helvetica,sans-Serif" font-size="10.00">test_compress_l_fx</text>
<text text-anchor="middle" x="274" y="-888" font-family="Helvetica,sans-Serif" font-size="10.00">_efx_ncob_ecob_error_cases</text>
</a>
</g>
</g>
<!-- Node2&#45;&gt;Node15 -->
<g id="edge14" class="edge">
<title>Node2&#45;&gt;Node15</title>
<path fill="none" stroke="midnightblue" d="M394.93,-879.97C381.04,-881.82 366.31,-883.79 352.09,-885.69"/>
<polygon fill="midnightblue" stroke="midnightblue" points="395.43,-883.43 404.88,-878.64 394.5,-876.49 395.43,-883.43"/>
</g>
<!-- Node16 -->
<g id="node16" class="node">
<title>Node16</title>
<g id="a_node16"><a xlink:href="test__cmp__icu_8c_a13a2a26bd2eac1bd622925c6dcfbfb2d.html#a13a2a26bd2eac1bd622925c6dcfbfb2d" target="_top" xlink:title=" ">
<polygon fill="white" stroke="black" points="218.5,-832 218.5,-862 329.5,-862 329.5,-832 218.5,-832"/>
<text text-anchor="start" x="226.5" y="-850" font-family="Helvetica,sans-Serif" font-size="10.00">test_compress_l_fx</text>
<text text-anchor="middle" x="274" y="-839" font-family="Helvetica,sans-Serif" font-size="10.00">_error_cases</text>
</a>
</g>
</g>
<!-- Node2&#45;&gt;Node16 -->
<g id="edge15" class="edge">
<title>Node2&#45;&gt;Node16</title>
<path fill="none" stroke="midnightblue" d="M394.86,-862.38C373.42,-859.63 349.96,-856.62 329.53,-854"/>
<polygon fill="midnightblue" stroke="midnightblue" points="394.51,-865.87 404.88,-863.67 395.4,-858.92 394.51,-865.87"/>
</g>
<!-- Node17 -->
<g id="node17" class="node">
<title>Node17</title>
<g id="a_node17"><a xlink:href="test__cmp__icu_8c_ab725960063dc032566560118d582b79e.html#ab725960063dc032566560118d582b79e" target="_top" xlink:title=" ">
<polygon fill="white" stroke="black" points="218.5,-783 218.5,-813 329.5,-813 329.5,-783 218.5,-783"/>
<text text-anchor="start" x="226.5" y="-801" font-family="Helvetica,sans-Serif" font-size="10.00">test_compress_l_fx</text>
<text text-anchor="middle" x="274" y="-790" font-family="Helvetica,sans-Serif" font-size="10.00">_ncob_error_cases</text>
</a>
</g>
</g>
<!-- Node2&#45;&gt;Node17 -->
<g id="edge16" class="edge">
<title>Node2&#45;&gt;Node17</title>
<path fill="none" stroke="midnightblue" d="M436.55,-856.56C417.55,-846.2 390.71,-832.47 366,-823 354.53,-818.6 341.96,-814.64 329.94,-811.23"/>
<polygon fill="midnightblue" stroke="midnightblue" points="435.01,-859.71 445.46,-861.48 438.4,-853.58 435.01,-859.71"/>
</g>
<!-- Node18 -->
<g id="node18" class="node">
<title>Node18</title>
<g id="a_node18"><a xlink:href="test__cmp__icu_8c_a13bf5ba0481601697942a0a485f7631c.html#a13bf5ba0481601697942a0a485f7631c" target="_top" xlink:title=" ">
<polygon fill="white" stroke="black" points="213.5,-734 213.5,-764 334.5,-764 334.5,-734 213.5,-734"/>
<text text-anchor="start" x="221.5" y="-752" font-family="Helvetica,sans-Serif" font-size="10.00">test_compress_offset</text>
<text text-anchor="middle" x="274" y="-741" font-family="Helvetica,sans-Serif" font-size="10.00">_error_cases</text>
</a>
</g>
</g>
<!-- Node2&#45;&gt;Node18 -->
<g id="edge17" class="edge">
<title>Node2&#45;&gt;Node18</title>
<path fill="none" stroke="midnightblue" d="M449.21,-853.27C432.52,-831.41 401.23,-794.61 366,-774 356.38,-768.37 345.46,-763.97 334.59,-760.54"/>
<polygon fill="midnightblue" stroke="midnightblue" points="446.47,-855.45 455.26,-861.38 452.09,-851.27 446.47,-855.45"/>
</g>
<!-- Node19 -->
<g id="node19" class="node">
<title>Node19</title>
<g id="a_node19"><a xlink:href="test__cmp__icu_8c_a28f0f3239f94a5d75189300dd3ed35fc.html#a28f0f3239f94a5d75189300dd3ed35fc" target="_top" xlink:title=" ">
<polygon fill="white" stroke="black" points="217.5,-685 217.5,-715 330.5,-715 330.5,-685 217.5,-685"/>
<text text-anchor="start" x="225.5" y="-703" font-family="Helvetica,sans-Serif" font-size="10.00">test_compress_s_fx</text>
<text text-anchor="middle" x="274" y="-692" font-family="Helvetica,sans-Serif" font-size="10.00">_efx_error_cases</text>
</a>
</g>
</g>
<!-- Node2&#45;&gt;Node19 -->
<g id="edge18" class="edge">
<title>Node2&#45;&gt;Node19</title>
<path fill="none" stroke="midnightblue" d="M454.81,-852.11C441.92,-820.8 411.85,-758.34 366,-725 355.66,-717.49 343.18,-712.23 330.81,-708.55"/>
<polygon fill="midnightblue" stroke="midnightblue" points="451.58,-853.44 458.52,-861.44 458.08,-850.85 451.58,-853.44"/>
</g>
<!-- Node20 -->
<g id="node20" class="node">
<title>Node20</title>
<g id="a_node20"><a xlink:href="test__cmp__icu_8c_a90fd6057131bbf0c9b398c9c99bea3f2.html#a90fd6057131bbf0c9b398c9c99bea3f2" target="_top" xlink:title=" ">
<polygon fill="white" stroke="black" points="196,-636 196,-666 352,-666 352,-636 196,-636"/>
<text text-anchor="start" x="204" y="-654" font-family="Helvetica,sans-Serif" font-size="10.00">test_compress_s_fx</text>
<text text-anchor="middle" x="274" y="-643" font-family="Helvetica,sans-Serif" font-size="10.00">_efx_ncob_ecob_error_cases</text>
</a>
</g>
</g>
<!-- Node2&#45;&gt;Node20 -->
<g id="edge19" class="edge">
<title>Node2&#45;&gt;Node20</title>
<path fill="none" stroke="midnightblue" d="M457.93,-851.16C448.78,-811.66 422.77,-722.92 366,-676 361.33,-672.14 356.1,-668.87 350.59,-666.11"/>
<polygon fill="midnightblue" stroke="midnightblue" points="454.56,-852.11 460.12,-861.13 461.4,-850.61 454.56,-852.11"/>
</g>
<!-- Node21 -->
<g id="node21" class="node">
<title>Node21</title>
<g id="a_node21"><a xlink:href="test__cmp__icu_8c_aa29971f14aa8c01058cf5884ccfb0b46.html#aa29971f14aa8c01058cf5884ccfb0b46" target="_top" xlink:title=" ">
<polygon fill="white" stroke="black" points="217.5,-587 217.5,-617 330.5,-617 330.5,-587 217.5,-587"/>
<text text-anchor="start" x="225.5" y="-605" font-family="Helvetica,sans-Serif" font-size="10.00">test_compress_s_fx</text>
<text text-anchor="middle" x="274" y="-594" font-family="Helvetica,sans-Serif" font-size="10.00">_error_cases</text>
</a>
</g>
</g>
<!-- Node2&#45;&gt;Node21 -->
<g id="edge20" class="edge">
<title>Node2&#45;&gt;Node21</title>
<path fill="none" stroke="midnightblue" d="M456.83,-851.52C442.57,-799.21 401.43,-657.56 366,-626 356.12,-617.2 343.38,-611.56 330.58,-607.97"/>
<polygon fill="midnightblue" stroke="midnightblue" points="453.47,-852.5 459.45,-861.25 460.23,-850.68 453.47,-852.5"/>
</g>
<!-- Node22 -->
<g id="node22" class="node">
<title>Node22</title>
<g id="a_node22"><a xlink:href="test__cmp__icu_8c_a70a6d23f621dd0ce0ffb110b9c77116f.html#a70a6d23f621dd0ce0ffb110b9c77116f" target="_top" xlink:title=" ">
<polygon fill="white" stroke="black" points="217.5,-538 217.5,-568 330.5,-568 330.5,-538 217.5,-538"/>
<text text-anchor="start" x="225.5" y="-556" font-family="Helvetica,sans-Serif" font-size="10.00">test_compress_s_fx</text>
<text text-anchor="middle" x="274" y="-545" font-family="Helvetica,sans-Serif" font-size="10.00">_ncob_error_cases</text>
</a>
</g>
</g>
<!-- Node2&#45;&gt;Node22 -->
<g id="edge21" class="edge">
<title>Node2&#45;&gt;Node22</title>
<path fill="none" stroke="midnightblue" d="M456.22,-851.61C437.11,-787.65 376.5,-586.91 366,-577 356.38,-567.92 343.73,-562.18 330.94,-558.58"/>
<polygon fill="midnightblue" stroke="midnightblue" points="452.89,-852.69 459.11,-861.27 459.6,-850.69 452.89,-852.69"/>
</g>
<!-- Node23 -->
<g id="node23" class="node">
<title>Node23</title>
<g id="a_node23"><a xlink:href="test__cmp__icu_8c_aee4858f3ea226c6da9e4a9ed54475b1d.html#aee4858f3ea226c6da9e4a9ed54475b1d" target="_top" xlink:title=" ">
<polygon fill="white" stroke="black" points="204.5,-489 204.5,-519 343.5,-519 343.5,-489 204.5,-489"/>
<text text-anchor="start" x="212.5" y="-507" font-family="Helvetica,sans-Serif" font-size="10.00">test_compress_smearing</text>
<text text-anchor="middle" x="274" y="-496" font-family="Helvetica,sans-Serif" font-size="10.00">_error_cases</text>
</a>
</g>
</g>
<!-- Node2&#45;&gt;Node23 -->
<g id="edge22" class="edge">
<title>Node2&#45;&gt;Node23</title>
<path fill="none" stroke="midnightblue" d="M455.98,-851.8C444.85,-816.12 420.52,-737.13 402,-670 384.68,-607.24 411.82,-574.26 366,-528 359.68,-521.62 351.87,-516.87 343.51,-513.34"/>
<polygon fill="midnightblue" stroke="midnightblue" points="452.66,-852.92 458.98,-861.42 459.34,-850.83 452.66,-852.92"/>
</g>
<!-- Node24 -->
<g id="node24" class="node">
<title>Node24</title>
<g id="a_node24"><a xlink:href="test__cmp__decmp_8c_af3c162694b40683e0aa25c61a49cdafc.html#af3c162694b40683e0aa25c61a49cdafc" target="_top" xlink:title="random compression decompression test">
<polygon fill="white" stroke="black" points="0,-648 0,-678 146,-678 146,-648 0,-648"/>
<text text-anchor="start" x="8" y="-666" font-family="Helvetica,sans-Serif" font-size="10.00">test_random_compression</text>
<text text-anchor="middle" x="73" y="-655" font-family="Helvetica,sans-Serif" font-size="10.00">_decompression</text>
</a>
</g>
</g>
<!-- Node2&#45;&gt;Node24 -->
<g id="edge23" class="edge">
<title>Node2&#45;&gt;Node24</title>
<path fill="none" stroke="midnightblue" d="M460.76,-890.88C455.48,-968.58 431.98,-1250.07 366,-1303 334.1,-1328.59 211.97,-1330.81 182,-1303 142.71,-1266.55 159.26,-873.93 146,-822 131.76,-766.21 99,-705.65 83.05,-678.13"/>
<polygon fill="midnightblue" stroke="midnightblue" points="464.28,-890.79 461.44,-880.58 457.29,-890.33 464.28,-890.79"/>
</g>
<!-- Node25 -->
<g id="node25" class="node">
<title>Node25</title>
<g id="a_node25"><a xlink:href="test__cmp__decmp_8c_abb20ed18a3c6ba0fc67ecef2d629dec0.html#abb20ed18a3c6ba0fc67ecef2d629dec0" target="_top" xlink:title=" ">
<polygon fill="white" stroke="black" points="201,-440 201,-470 347,-470 347,-440 201,-440"/>
<text text-anchor="start" x="209" y="-458" font-family="Helvetica,sans-Serif" font-size="10.00">test_random_compression</text>
<text text-anchor="middle" x="274" y="-447" font-family="Helvetica,sans-Serif" font-size="10.00">_decompression2</text>
</a>
</g>
</g>
<!-- Node2&#45;&gt;Node25 -->
<g id="edge24" class="edge">
<title>Node2&#45;&gt;Node25</title>
<path fill="none" stroke="midnightblue" d="M455.57,-851.9C443.79,-816.39 418.43,-737.67 402,-670 381.62,-586.06 424.86,-542.23 366,-479 360.66,-473.26 354.12,-468.83 347.02,-465.42"/>
<polygon fill="midnightblue" stroke="midnightblue" points="452.28,-853.1 458.77,-861.47 458.92,-850.88 452.28,-853.1"/>
</g>
<!-- Node27 -->
<g id="node27" class="node">
<title>Node27</title>
<g id="a_node27"><a xlink:href="cmp__icu_8h_a08bf8ccacb449aba08db5e51d532d834.html#a08bf8ccacb449aba08db5e51d532d834" target="_top" xlink:title="compress data on the ICU in software">
<polygon fill="white" stroke="black" points="408,-641.5 408,-660.5 518,-660.5 518,-641.5 408,-641.5"/>
<text text-anchor="middle" x="463" y="-648.5" font-family="Helvetica,sans-Serif" font-size="10.00">icu_compress_data</text>
</a>
</g>
</g>
<!-- Node26&#45;&gt;Node27 -->
<g id="edge26" class="edge">
<title>Node26&#45;&gt;Node27</title>
<path fill="none" stroke="midnightblue" d="M549.51,-649.93C538.97,-650.06 528.29,-650.19 518.23,-650.32"/>
<polygon fill="midnightblue" stroke="midnightblue" points="549.59,-653.43 559.54,-649.8 549.5,-646.43 549.59,-653.43"/>
</g>
<!-- Node26&#45;&gt;Node36 -->
<g id="edge57" class="edge">
<title>Node26&#45;&gt;Node36</title>
<path fill="none" stroke="midnightblue" d="M577.3,-636.83C559.72,-632.2 539.48,-626.87 521.01,-622.01"/>
<polygon fill="midnightblue" stroke="midnightblue" points="576.75,-640.31 587.31,-639.47 578.53,-633.54 576.75,-640.31"/>
</g>
<!-- Node27&#45;&gt;Node4 -->
<g id="edge31" class="edge">
<title>Node27&#45;&gt;Node4</title>
<path fill="none" stroke="midnightblue" d="M406.99,-635.82C405.19,-634.36 403.52,-632.75 402,-631 342.63,-562.36 429.25,-495.08 366,-430 362.4,-426.3 358.28,-423.22 353.82,-420.68"/>
<polygon fill="midnightblue" stroke="midnightblue" points="405.24,-638.86 415.54,-641.37 409.06,-632.98 405.24,-638.86"/>
</g>
<!-- Node27&#45;&gt;Node6 -->
<g id="edge32" class="edge">
<title>Node27&#45;&gt;Node6</title>
<path fill="none" stroke="midnightblue" d="M406.93,-635.87C405.15,-634.39 403.49,-632.78 402,-631 332.86,-548.79 437.32,-472.33 366,-392 361.21,-386.61 355.38,-382.33 349.01,-378.95"/>
<polygon fill="midnightblue" stroke="midnightblue" points="405.15,-638.89 415.42,-641.46 409,-633.04 405.15,-638.89"/>
</g>
<!-- Node27&#45;&gt;Node7 -->
<g id="edge33" class="edge">
<title>Node27&#45;&gt;Node7</title>
<path fill="none" stroke="midnightblue" d="M454.76,-670.47C441.87,-705.99 415.07,-783.94 402,-852 385.09,-940.08 423.86,-1185.47 366,-1254 356.94,-1264.74 343.69,-1270.97 330.1,-1274.51"/>
<polygon fill="midnightblue" stroke="midnightblue" points="458.12,-671.46 458.28,-660.86 451.55,-669.04 458.12,-671.46"/>
</g>
<!-- Node27&#45;&gt;Node8 -->
<g id="edge34" class="edge">
<title>Node27&#45;&gt;Node8</title>
<path fill="none" stroke="midnightblue" d="M454.84,-670.48C442.08,-706.03 415.49,-784.02 402,-852 386.65,-929.34 417.24,-1145.06 366,-1205 356.87,-1215.68 343.6,-1221.89 330.01,-1225.44"/>
<polygon fill="midnightblue" stroke="midnightblue" points="458.21,-671.47 458.33,-660.87 451.63,-669.08 458.21,-671.47"/>
</g>
<!-- Node27&#45;&gt;Node9 -->
<g id="edge35" class="edge">
<title>Node27&#45;&gt;Node9</title>
<path fill="none" stroke="midnightblue" d="M454.95,-670.5C442.36,-706.09 416.04,-784.13 402,-852 388.22,-918.62 410.62,-1104.65 366,-1156 356.89,-1166.48 343.8,-1172.65 330.37,-1176.21"/>
<polygon fill="midnightblue" stroke="midnightblue" points="458.32,-671.48 458.39,-660.88 451.73,-669.12 458.32,-671.48"/>
</g>
<!-- Node27&#45;&gt;Node10 -->
<g id="edge36" class="edge">
<title>Node27&#45;&gt;Node10</title>
<path fill="none" stroke="midnightblue" d="M455.1,-670.54C442.76,-706.17 416.82,-784.3 402,-852 389.81,-907.69 403.67,-1063.21 366,-1106 356.8,-1116.45 343.68,-1122.72 330.25,-1126.43"/>
<polygon fill="midnightblue" stroke="midnightblue" points="458.48,-671.5 458.47,-660.9 451.87,-669.19 458.48,-671.5"/>
</g>
<!-- Node27&#45;&gt;Node11 -->
<g id="edge37" class="edge">
<title>Node27&#45;&gt;Node11</title>
<path fill="none" stroke="midnightblue" d="M455.44,-670.07C443.43,-705.52 417.71,-784.16 402,-852 380.04,-946.81 433.4,-997.8 366,-1068 362.2,-1071.96 357.8,-1075.2 353.04,-1077.85"/>
<polygon fill="midnightblue" stroke="midnightblue" points="458.78,-671.1 458.7,-660.51 452.16,-668.84 458.78,-671.1"/>
</g>
<!-- Node27&#45;&gt;Node12 -->
<g id="edge39" class="edge">
<title>Node27&#45;&gt;Node12</title>
<path fill="none" stroke="midnightblue" d="M455.74,-670.14C444.24,-705.72 419.31,-784.55 402,-852 383.13,-925.54 418.45,-964.1 366,-1019 359.57,-1025.73 351.49,-1030.66 342.81,-1034.25"/>
<polygon fill="midnightblue" stroke="midnightblue" points="459.1,-671.14 458.86,-660.55 452.44,-668.98 459.1,-671.14"/>
</g>
<!-- Node27&#45;&gt;Node13 -->
<g id="edge41" class="edge">
<title>Node27&#45;&gt;Node13</title>
<path fill="none" stroke="midnightblue" d="M456.16,-670.53C435.44,-739.75 366.71,-969.32 366,-970 359.42,-976.36 351.36,-981.08 342.79,-984.58"/>
<polygon fill="midnightblue" stroke="midnightblue" points="459.64,-671.11 459.15,-660.52 452.93,-669.1 459.64,-671.11"/>
</g>
<!-- Node27&#45;&gt;Node14 -->
<g id="edge42" class="edge">
<title>Node27&#45;&gt;Node14</title>
<path fill="none" stroke="midnightblue" d="M456.26,-670.37C438.65,-729.23 385.44,-903.13 366,-921 356.02,-930.18 342.94,-935.93 329.83,-939.51"/>
<polygon fill="midnightblue" stroke="midnightblue" points="459.61,-671.36 459.12,-660.78 452.91,-669.36 459.61,-671.36"/>
</g>
<!-- Node27&#45;&gt;Node15 -->
<g id="edge43" class="edge">
<title>Node27&#45;&gt;Node15</title>
<path fill="none" stroke="midnightblue" d="M459.26,-670.79C452.18,-714.1 429.22,-817.72 366,-872 361.79,-875.62 357.08,-878.7 352.1,-881.32"/>
<polygon fill="midnightblue" stroke="midnightblue" points="462.75,-671.12 460.79,-660.71 455.83,-670.07 462.75,-671.12"/>
</g>
<!-- Node27&#45;&gt;Node16 -->
<g id="edge44" class="edge">
<title>Node27&#45;&gt;Node16</title>
<path fill="none" stroke="midnightblue" d="M456.75,-670.26C445.98,-706.03 417.91,-782.73 366,-823 355.54,-831.11 342.59,-836.49 329.77,-840.06"/>
<polygon fill="midnightblue" stroke="midnightblue" points="460.14,-671.14 459.54,-660.56 453.41,-669.2 460.14,-671.14"/>
</g>
<!-- Node27&#45;&gt;Node17 -->
<g id="edge45" class="edge">
<title>Node27&#45;&gt;Node17</title>
<path fill="none" stroke="midnightblue" d="M452.6,-669.63C437.9,-696.81 406.89,-747.04 366,-774 355.22,-781.11 342.43,-786.11 329.9,-789.64"/>
<polygon fill="midnightblue" stroke="midnightblue" points="455.71,-671.22 457.26,-660.74 449.52,-667.97 455.71,-671.22"/>
</g>
<!-- Node27&#45;&gt;Node18 -->
<g id="edge46" class="edge">
<title>Node27&#45;&gt;Node18</title>
<path fill="none" stroke="midnightblue" d="M444.81,-667.74C426.64,-684.54 396.46,-710.01 366,-725 356.18,-729.83 345.26,-733.78 334.5,-736.97"/>
<polygon fill="midnightblue" stroke="midnightblue" points="447.4,-670.11 452.27,-660.7 442.59,-665.01 447.4,-670.11"/>
</g>
<!-- Node27&#45;&gt;Node19 -->
<g id="edge47" class="edge">
<title>Node27&#45;&gt;Node19</title>
<path fill="none" stroke="midnightblue" d="M415.61,-663.15C389.86,-669.9 357.66,-678.34 330.57,-685.44"/>
<polygon fill="midnightblue" stroke="midnightblue" points="416.71,-666.48 425.5,-660.56 414.94,-659.71 416.71,-666.48"/>
</g>
<!-- Node27&#45;&gt;Node20 -->
<g id="edge48" class="edge">
<title>Node27&#45;&gt;Node20</title>
<path fill="none" stroke="midnightblue" d="M397.51,-651C382.93,-651 367.31,-651 352.26,-651"/>
<polygon fill="midnightblue" stroke="midnightblue" points="397.91,-654.5 407.91,-651 397.91,-647.5 397.91,-654.5"/>
</g>
<!-- Node27&#45;&gt;Node21 -->
<g id="edge49" class="edge">
<title>Node27&#45;&gt;Node21</title>
<path fill="none" stroke="midnightblue" d="M415.61,-638.85C389.86,-632.1 357.66,-623.66 330.57,-616.56"/>
<polygon fill="midnightblue" stroke="midnightblue" points="414.94,-642.29 425.5,-641.44 416.71,-635.52 414.94,-642.29"/>
</g>
<!-- Node27&#45;&gt;Node22 -->
<g id="edge51" class="edge">
<title>Node27&#45;&gt;Node22</title>
<path fill="none" stroke="midnightblue" d="M411.75,-637.16C408.31,-635.35 405.01,-633.3 402,-631 379.08,-613.49 389.47,-593.77 366,-577 355.63,-569.59 343.13,-564.47 330.76,-560.93"/>
<polygon fill="midnightblue" stroke="midnightblue" points="410.56,-640.47 421.11,-641.45 413.48,-634.1 410.56,-640.47"/>
</g>
<!-- Node27&#45;&gt;Node23 -->
<g id="edge54" class="edge">
<title>Node27&#45;&gt;Node23</title>
<path fill="none" stroke="midnightblue" d="M408.85,-636.56C406.4,-634.91 404.09,-633.06 402,-631 367.46,-596.96 401.61,-560.92 366,-528 359.64,-522.12 352.02,-517.65 343.92,-514.25"/>
<polygon fill="midnightblue" stroke="midnightblue" points="407.24,-639.67 417.68,-641.5 410.66,-633.56 407.24,-639.67"/>
</g>
<!-- Node27&#45;&gt;Node25 -->
<g id="edge56" class="edge">
<title>Node27&#45;&gt;Node25</title>
<path fill="none" stroke="midnightblue" d="M407.77,-636.21C405.69,-634.65 403.75,-632.91 402,-631 355.15,-579.77 414.47,-528.71 366,-479 360.64,-473.5 354.18,-469.21 347.2,-465.88"/>
<polygon fill="midnightblue" stroke="midnightblue" points="406,-639.23 416.36,-641.47 409.65,-633.26 406,-639.23"/>
</g>
<!-- Node28 -->
<g id="node28" class="node">
<title>Node28</title>
<g id="a_node28"><a xlink:href="test__cmp__decmp_8c_a50ba26014079160ca77b7d7fa76ce0f4.html#a50ba26014079160ca77b7d7fa76ce0f4" target="_top" xlink:title="compress the given configuration and decompress it afterwards; finally compare the results">
<polygon fill="white" stroke="black" points="195,-0.5 195,-19.5 353,-19.5 353,-0.5 195,-0.5"/>
<text text-anchor="middle" x="274" y="-7.5" font-family="Helvetica,sans-Serif" font-size="10.00">compression_decompression</text>
</a>
</g>
</g>
<!-- Node27&#45;&gt;Node28 -->
<g id="edge27" class="edge">
<title>Node27&#45;&gt;Node28</title>
<path fill="none" stroke="midnightblue" d="M406.15,-635.52C404.64,-634.13 403.25,-632.63 402,-631 320.43,-524.67 453.59,-130.43 366,-29 362.31,-24.72 357.92,-21.26 353.11,-18.47"/>
<polygon fill="midnightblue" stroke="midnightblue" points="404.29,-638.49 414.46,-641.45 408.36,-632.79 404.29,-638.49"/>
</g>
<!-- Node29 -->
<g id="node29" class="node">
<title>Node29</title>
<g id="a_node29"><a xlink:href="test__decmp_8c_a2d642d4d482b9ec7eca4568a95f5bdd4.html#a2d642d4d482b9ec7eca4568a95f5bdd4" target="_top" xlink:title=" ">
<polygon fill="white" stroke="black" points="202,-313.5 202,-332.5 346,-332.5 346,-313.5 202,-313.5"/>
<text text-anchor="middle" x="274" y="-320.5" font-family="Helvetica,sans-Serif" font-size="10.00">icu_compress_data_entity</text>
</a>
</g>
</g>
<!-- Node27&#45;&gt;Node29 -->
<g id="edge29" class="edge">
<title>Node27&#45;&gt;Node29</title>
<path fill="none" stroke="midnightblue" d="M406.37,-635.49C404.8,-634.12 403.33,-632.62 402,-631 319.96,-530.88 453.7,-437.2 366,-342 360.53,-336.07 353.73,-331.72 346.32,-328.58"/>
<polygon fill="midnightblue" stroke="midnightblue" points="404.79,-638.65 415.02,-641.4 408.74,-632.87 404.79,-638.65"/>
</g>
<!-- Node30 -->
<g id="node30" class="node">
<title>Node30</title>
<g id="a_node30"><a xlink:href="test__cmp__icu_8c_a960bb1de38c5e353aa1d1d2fb25435e8.html#a960bb1de38c5e353aa1d1d2fb25435e8" target="_top" xlink:title=" ">
<polygon fill="white" stroke="black" points="205.5,-264 205.5,-294 342.5,-294 342.5,-264 205.5,-264"/>
<text text-anchor="start" x="213.5" y="-282" font-family="Helvetica,sans-Serif" font-size="10.00">test_compress_imagette</text>
<text text-anchor="middle" x="274" y="-271" font-family="Helvetica,sans-Serif" font-size="10.00">_error_cases</text>
</a>
</g>
</g>
<!-- Node27&#45;&gt;Node30 -->
<g id="edge38" class="edge">
<title>Node27&#45;&gt;Node30</title>
<path fill="none" stroke="midnightblue" d="M406.34,-635.51C404.78,-634.13 403.32,-632.63 402,-631 310.14,-517.25 460.88,-415.25 366,-304 359.73,-296.65 351.51,-291.35 342.58,-287.56"/>
<polygon fill="midnightblue" stroke="midnightblue" points="404.74,-638.66 414.96,-641.45 408.71,-632.89 404.74,-638.66"/>
</g>
<!-- Node31 -->
<g id="node31" class="node">
<title>Node31</title>
<g id="a_node31"><a xlink:href="test__cmp__icu_8c_a390abe2bb7591a75050558bdd4476593.html#a390abe2bb7591a75050558bdd4476593" target="_top" xlink:title=" ">
<polygon fill="white" stroke="black" points="193.5,-225.5 193.5,-244.5 354.5,-244.5 354.5,-225.5 193.5,-225.5"/>
<text text-anchor="middle" x="274" y="-232.5" font-family="Helvetica,sans-Serif" font-size="10.00">test_compress_imagette_raw</text>
</a>
</g>
</g>
<!-- Node27&#45;&gt;Node31 -->
<g id="edge40" class="edge">
<title>Node27&#45;&gt;Node31</title>
<path fill="none" stroke="midnightblue" d="M406.31,-635.54C404.75,-634.15 403.31,-632.64 402,-631 349.6,-565.15 422.13,-316.71 366,-254 362.66,-250.27 358.8,-247.17 354.59,-244.59"/>
<polygon fill="midnightblue" stroke="midnightblue" points="404.69,-638.67 414.9,-641.49 408.68,-632.92 404.69,-638.67"/>
</g>
<!-- Node32 -->
<g id="node32" class="node">
<title>Node32</title>
<g id="a_node32"><a xlink:href="test__cmp__icu_8c_afa54c8348f46913b7c39517424f7e547.html#afa54c8348f46913b7c39517424f7e547" target="_top" xlink:title=" ">
<polygon fill="white" stroke="black" points="217.5,-176 217.5,-206 330.5,-206 330.5,-176 217.5,-176"/>
<text text-anchor="start" x="225.5" y="-194" font-family="Helvetica,sans-Serif" font-size="10.00">test_compress_s_fx</text>
<text text-anchor="middle" x="274" y="-183" font-family="Helvetica,sans-Serif" font-size="10.00">_model_multi</text>
</a>
</g>
</g>
<!-- Node27&#45;&gt;Node32 -->
<g id="edge50" class="edge">
<title>Node27&#45;&gt;Node32</title>
<path fill="none" stroke="midnightblue" d="M406.2,-635.47C404.68,-634.1 403.27,-632.62 402,-631 344.68,-558.32 425.25,-287.12 366,-216 357.09,-205.3 344.06,-198.95 330.63,-195.24"/>
<polygon fill="midnightblue" stroke="midnightblue" points="404.38,-638.47 414.58,-641.36 408.41,-632.75 404.38,-638.47"/>
</g>
<!-- Node33 -->
<g id="node33" class="node">
<title>Node33</title>
<g id="a_node33"><a xlink:href="test__cmp__icu_8c_ab9f5f00613d43e2b46aa130d472674cb.html#ab9f5f00613d43e2b46aa130d472674cb" target="_top" xlink:title=" ">
<polygon fill="white" stroke="black" points="205.5,-137.5 205.5,-156.5 342.5,-156.5 342.5,-137.5 205.5,-137.5"/>
<text text-anchor="middle" x="274" y="-144.5" font-family="Helvetica,sans-Serif" font-size="10.00">test_compress_s_fx_raw</text>
</a>
</g>
</g>
<!-- Node27&#45;&gt;Node33 -->
<g id="edge52" class="edge">
<title>Node27&#45;&gt;Node33</title>
<path fill="none" stroke="midnightblue" d="M406.18,-635.49C404.67,-634.11 403.27,-632.62 402,-631 338.2,-549.32 434.43,-243.84 366,-166 359.71,-158.85 351.49,-153.98 342.56,-150.73"/>
<polygon fill="midnightblue" stroke="midnightblue" points="404.35,-638.48 414.54,-641.4 408.39,-632.76 404.35,-638.48"/>
</g>
<!-- Node34 -->
<g id="node34" class="node">
<title>Node34</title>
<g id="a_node34"><a xlink:href="test__cmp__icu_8c_ad8cefbf7c0531178a3c5d00ed71cfe61.html#ad8cefbf7c0531178a3c5d00ed71cfe61" target="_top" xlink:title=" ">
<polygon fill="white" stroke="black" points="217.5,-88 217.5,-118 330.5,-118 330.5,-88 217.5,-88"/>
<text text-anchor="start" x="225.5" y="-106" font-family="Helvetica,sans-Serif" font-size="10.00">test_compress_s_fx</text>
<text text-anchor="middle" x="274" y="-95" font-family="Helvetica,sans-Serif" font-size="10.00">_staff</text>
</a>
</g>
</g>
<!-- Node27&#45;&gt;Node34 -->
<g id="edge53" class="edge">
<title>Node27&#45;&gt;Node34</title>
<path fill="none" stroke="midnightblue" d="M406.17,-635.5C404.66,-634.12 403.26,-632.63 402,-631 333.27,-542.49 437.08,-214.64 366,-128 357.17,-117.23 344.17,-110.86 330.74,-107.15"/>
<polygon fill="midnightblue" stroke="midnightblue" points="404.33,-638.48 414.51,-641.41 408.38,-632.77 404.33,-638.48"/>
</g>
<!-- Node35 -->
<g id="node35" class="node">
<title>Node35</title>
<g id="a_node35"><a xlink:href="test__cmp__icu_8c_a8db99614e8a5d384edb82fe466e15042.html#a8db99614e8a5d384edb82fe466e15042" target="_top" xlink:title=" ">
<polygon fill="white" stroke="black" points="207,-39 207,-69 341,-69 341,-39 207,-39"/>
<text text-anchor="start" x="215" y="-57" font-family="Helvetica,sans-Serif" font-size="10.00">test_icu_compress_data</text>
<text text-anchor="middle" x="274" y="-46" font-family="Helvetica,sans-Serif" font-size="10.00">_error_cases</text>
</a>
</g>
</g>
<!-- Node27&#45;&gt;Node35 -->
<g id="edge55" class="edge">
<title>Node27&#45;&gt;Node35</title>
<path fill="none" stroke="midnightblue" d="M406.16,-635.51C404.65,-634.13 403.26,-632.63 402,-631 326.78,-533.49 444.29,-173.06 366,-78 359.46,-70.05 350.62,-64.57 341.02,-60.81"/>
<polygon fill="midnightblue" stroke="midnightblue" points="404.31,-638.49 414.49,-641.44 408.37,-632.78 404.31,-638.49"/>
</g>
<!-- Node28&#45;&gt;Node24 -->
<g id="edge28" class="edge">
<title>Node28&#45;&gt;Node24</title>
<path fill="none" stroke="midnightblue" d="M186.52,-24.85C184.94,-26.14 183.43,-27.52 182,-29 92.81,-121.56 76.69,-560.49 74.35,-647.86"/>
<polygon fill="midnightblue" stroke="midnightblue" points="188.63,-27.65 194.98,-19.17 184.73,-21.84 188.63,-27.65"/>
</g>
<!-- Node29&#45;&gt;Node5 -->
<g id="edge30" class="edge">
<title>Node29&#45;&gt;Node5</title>
<path fill="none" stroke="midnightblue" d="M192.6,-333.15C188.71,-335.61 185.13,-338.54 182,-342 130.2,-399.38 166.75,-613.53 146,-688 130,-745.41 94.1,-807.98 79.92,-831.42"/>
<polygon fill="midnightblue" stroke="midnightblue" points="194.32,-336.2 201.56,-328.47 191.08,-330 194.32,-336.2"/>
</g>
</g>
</svg>
