<?xml version="1.0" encoding="UTF-8" standalone="no"?>
<!DOCTYPE svg PUBLIC "-//W3C//DTD SVG 1.1//EN"
 "http://www.w3.org/Graphics/SVG/1.1/DTD/svg11.dtd">
<!-- Generated by graphviz version 2.43.0 (0)
 -->
<!-- Title: cmp_cfg_icu_max_used_bits Pages: 1 -->
<!--zoomable 823 -->
<svg id="main" version="1.1" xmlns="http://www.w3.org/2000/svg" xmlns:xlink="http://www.w3.org/1999/xlink" xml:space="preserve" onload="init(evt)">
<style type="text/css"><![CDATA[
.edge:hover path { stroke: red; }
.edge:hover polygon { stroke: red; fill: red; }
]]></style>
<script type="text/javascript"><![CDATA[
var edges = document.getElementsByTagName('g');
if (edges && edges.length) {
  for (var i=0;i<edges.length;i++) {
    if (edges[i].id.substr(0,4)=='edge') {
      edges[i].setAttribute('class','edge');
    }
  }
}
]]></script>
        <defs>
                <circle id="rim" cx="0" cy="0" r="7"/>
                <circle id="rim2" cx="0" cy="0" r="3.5"/>
                <g id="zoomPlus">
                        <use xlink:href="#rim" fill="#404040">
                                <set attributeName="fill" to="#808080" begin="zoomplus.mouseover" end="zoomplus.mouseout"/>
                        </use>
                        <path d="M-4,0h8M0,-4v8" fill="none" stroke="white" stroke-width="1.5" pointer-events="none"/>
                </g>
                <g id="zoomMin">
                        <use xlink:href="#rim" fill="#404040">
                                <set attributeName="fill" to="#808080" begin="zoomminus.mouseover" end="zoomminus.mouseout"/>
                        </use>
                        <path d="M-4,0h8" fill="none" stroke="white" stroke-width="1.5" pointer-events="none"/>
                </g>
                <g id="dirArrow">
                        <path fill="none" stroke="white" stroke-width="1.5" d="M0,-3.0v7 M-2.5,-0.5L0,-3.0L2.5,-0.5"/>
                </g>
               <g id="resetDef">
                       <use xlink:href="#rim2" fill="#404040">
                               <set attributeName="fill" to="#808080" begin="reset.mouseover" end="reset.mouseout"/>
                       </use>
               </g>
        </defs>

<script type="text/javascript">
var viewWidth = 356;
var viewHeight = 823;
var sectionId = 'dynsection-1';
</script>
<script xlink:href="svgpan.js"/>
<svg id="graph" class="graph">
<g id="viewport">
<title>cmp_cfg_icu_max_used_bits</title>
<polygon fill="white" stroke="transparent" points="-4,4 -4,-819 352,-819 352,4 -4,4"/>
<!-- Node1 -->
<g id="node1" class="node">
<title>Node1</title>
<g id="a_node1"><a xlink:title="set up the maximum length of the different data products types for an ICU compression">
<polygon fill="#bfbfbf" stroke="black" points="192,-398 192,-417 348,-417 348,-398 192,-398"/>
<text text-anchor="middle" x="270" y="-405" font-family="Helvetica,sans-Serif" font-size="10.00">cmp_cfg_icu_max_used_bits</text>
</a>
</g>
</g>
<!-- Node2 -->
<g id="node2" class="node">
<title>Node2</title>
<g id="a_node2"><a xlink:href="test__cmp__icu_8c_adb60eb370585c532f182e4025e9cc3e6.html#adb60eb370585c532f182e4025e9cc3e6" target="_top" xlink:title=" ">
<polygon fill="white" stroke="black" points="14,-784.5 14,-814.5 142,-814.5 142,-784.5 14,-784.5"/>
<text text-anchor="start" x="22" y="-802.5" font-family="Helvetica,sans-Serif" font-size="10.00">test_cmp_cfg_icu_max</text>
<text text-anchor="middle" x="78" y="-791.5" font-family="Helvetica,sans-Serif" font-size="10.00">_used_bits</text>
</a>
</g>
</g>
<!-- Node1&#45;&gt;Node2 -->
<g id="edge1" class="edge">
<title>Node1&#45;&gt;Node2</title>
<path fill="none" stroke="midnightblue" d="M269,-427.21C267.9,-488.06 256.12,-674.95 156,-775.5 151.95,-779.57 147.22,-782.95 142.14,-785.76"/>
<polygon fill="midnightblue" stroke="midnightblue" points="272.5,-427.1 269.1,-417.07 265.5,-427.03 272.5,-427.1"/>
</g>
<!-- Node3 -->
<g id="node3" class="node">
<title>Node3</title>
<g id="a_node3"><a xlink:href="test__cmp__icu_8c_aca32c7d039600004c9cc5c6fe19b8ec5.html#aca32c7d039600004c9cc5c6fe19b8ec5" target="_top" xlink:title=" ">
<polygon fill="white" stroke="black" points="3,-735.5 3,-765.5 153,-765.5 153,-735.5 3,-735.5"/>
<text text-anchor="start" x="11" y="-753.5" font-family="Helvetica,sans-Serif" font-size="10.00">test_compress_background</text>
<text text-anchor="middle" x="78" y="-742.5" font-family="Helvetica,sans-Serif" font-size="10.00">_error_cases</text>
</a>
</g>
</g>
<!-- Node1&#45;&gt;Node3 -->
<g id="edge2" class="edge">
<title>Node1&#45;&gt;Node3</title>
<path fill="none" stroke="midnightblue" d="M267.9,-427.47C263.74,-483.13 244.33,-641.49 156,-726.5 152.47,-729.9 148.46,-732.82 144.18,-735.32"/>
<polygon fill="midnightblue" stroke="midnightblue" points="271.41,-427.42 268.57,-417.22 264.42,-426.96 271.41,-427.42"/>
</g>
<!-- Node4 -->
<g id="node4" class="node">
<title>Node4</title>
<g id="a_node4"><a xlink:href="test__cmp__icu_8c_a64b46c032fdef8789190209bd9c3c49b.html#a64b46c032fdef8789190209bd9c3c49b" target="_top" xlink:title=" ">
<polygon fill="white" stroke="black" points="22,-686.5 22,-716.5 134,-716.5 134,-686.5 22,-686.5"/>
<text text-anchor="start" x="30" y="-704.5" font-family="Helvetica,sans-Serif" font-size="10.00">test_compress_f_fx</text>
<text text-anchor="middle" x="78" y="-693.5" font-family="Helvetica,sans-Serif" font-size="10.00">_efx_error_cases</text>
</a>
</g>
</g>
<!-- Node1&#45;&gt;Node4 -->
<g id="edge3" class="edge">
<title>Node1&#45;&gt;Node4</title>
<path fill="none" stroke="midnightblue" d="M266.51,-427.01C259.17,-476.39 233.06,-607.38 156,-677.5 149.79,-683.15 142.26,-687.48 134.37,-690.78"/>
<polygon fill="midnightblue" stroke="midnightblue" points="269.99,-427.41 267.9,-417.02 263.05,-426.44 269.99,-427.41"/>
</g>
<!-- Node5 -->
<g id="node5" class="node">
<title>Node5</title>
<g id="a_node5"><a xlink:href="test__cmp__icu_8c_acd4ce1f38ffbf0d6258b81668836d96b.html#acd4ce1f38ffbf0d6258b81668836d96b" target="_top" xlink:title=" ">
<polygon fill="white" stroke="black" points="22,-637.5 22,-667.5 134,-667.5 134,-637.5 22,-637.5"/>
<text text-anchor="start" x="30" y="-655.5" font-family="Helvetica,sans-Serif" font-size="10.00">test_compress_f_fx</text>
<text text-anchor="middle" x="78" y="-644.5" font-family="Helvetica,sans-Serif" font-size="10.00">_efx_ncob_ecob</text>
</a>
</g>
</g>
<!-- Node1&#45;&gt;Node5 -->
<g id="edge4" class="edge">
<title>Node1&#45;&gt;Node5</title>
<path fill="none" stroke="midnightblue" d="M264.54,-426.87C253.69,-469.71 221.79,-573.07 156,-628.5 149.68,-633.82 142.19,-637.97 134.39,-641.19"/>
<polygon fill="midnightblue" stroke="midnightblue" points="267.95,-427.67 266.91,-417.13 261.15,-426.02 267.95,-427.67"/>
</g>
<!-- Node6 -->
<g id="node6" class="node">
<title>Node6</title>
<g id="a_node6"><a xlink:href="test__cmp__icu_8c_a5fdfb76e3f52d4283fdcbf5e05ac7dd9.html#a5fdfb76e3f52d4283fdcbf5e05ac7dd9" target="_top" xlink:title=" ">
<polygon fill="white" stroke="black" points="22,-588.5 22,-618.5 134,-618.5 134,-588.5 22,-588.5"/>
<text text-anchor="start" x="30" y="-606.5" font-family="Helvetica,sans-Serif" font-size="10.00">test_compress_f_fx</text>
<text text-anchor="middle" x="78" y="-595.5" font-family="Helvetica,sans-Serif" font-size="10.00">_error_cases</text>
</a>
</g>
</g>
<!-- Node1&#45;&gt;Node6 -->
<g id="edge5" class="edge">
<title>Node1&#45;&gt;Node6</title>
<path fill="none" stroke="midnightblue" d="M261.44,-427.07C246.66,-462.72 210.56,-538.38 156,-579.5 149.51,-584.39 142.02,-588.29 134.29,-591.41"/>
<polygon fill="midnightblue" stroke="midnightblue" points="264.85,-427.95 265.33,-417.37 258.36,-425.34 264.85,-427.95"/>
</g>
<!-- Node7 -->
<g id="node7" class="node">
<title>Node7</title>
<g id="a_node7"><a xlink:href="test__cmp__icu_8c_ad6a880fe71de66a8a98a3f97d9e736da.html#ad6a880fe71de66a8a98a3f97d9e736da" target="_top" xlink:title=" ">
<polygon fill="white" stroke="black" points="22,-539.5 22,-569.5 134,-569.5 134,-539.5 22,-539.5"/>
<text text-anchor="start" x="30" y="-557.5" font-family="Helvetica,sans-Serif" font-size="10.00">test_compress_f_fx</text>
<text text-anchor="middle" x="78" y="-546.5" font-family="Helvetica,sans-Serif" font-size="10.00">_ncob_error_cases</text>
</a>
</g>
</g>
<!-- Node1&#45;&gt;Node7 -->
<g id="edge6" class="edge">
<title>Node1&#45;&gt;Node7</title>
<path fill="none" stroke="midnightblue" d="M257.18,-425.49C238.71,-452.22 200.47,-502.31 156,-530.5 149.26,-534.77 141.7,-538.33 134.03,-541.29"/>
<polygon fill="midnightblue" stroke="midnightblue" points="260.17,-427.32 262.87,-417.08 254.37,-423.4 260.17,-427.32"/>
</g>
<!-- Node8 -->
<g id="node8" class="node">
<title>Node8</title>
<g id="a_node8"><a xlink:href="test__cmp__icu_8c_a4d05bd6cb0b420d45886997161470259.html#a4d05bd6cb0b420d45886997161470259" target="_top" xlink:title=" ">
<polygon fill="white" stroke="black" points="22.5,-490.5 22.5,-520.5 133.5,-520.5 133.5,-490.5 22.5,-490.5"/>
<text text-anchor="start" x="30.5" y="-508.5" font-family="Helvetica,sans-Serif" font-size="10.00">test_compress_l_fx</text>
<text text-anchor="middle" x="78" y="-497.5" font-family="Helvetica,sans-Serif" font-size="10.00">_efx_error_cases</text>
</a>
</g>
</g>
<!-- Node1&#45;&gt;Node8 -->
<g id="edge7" class="edge">
<title>Node1&#45;&gt;Node8</title>
<path fill="none" stroke="midnightblue" d="M248.62,-423.36C226.75,-439.77 190.48,-465.23 156,-481.5 148.91,-484.85 141.24,-487.88 133.57,-490.57"/>
<polygon fill="midnightblue" stroke="midnightblue" points="250.96,-425.98 256.8,-417.15 246.72,-420.41 250.96,-425.98"/>
</g>
<!-- Node9 -->
<g id="node9" class="node">
<title>Node9</title>
<g id="a_node9"><a xlink:href="test__cmp__icu_8c_a0d3532f9e6f2e6e0c4392049e06c627f.html#a0d3532f9e6f2e6e0c4392049e06c627f" target="_top" xlink:title=" ">
<polygon fill="white" stroke="black" points="0,-441.5 0,-471.5 156,-471.5 156,-441.5 0,-441.5"/>
<text text-anchor="start" x="8" y="-459.5" font-family="Helvetica,sans-Serif" font-size="10.00">test_compress_l_fx</text>
<text text-anchor="middle" x="78" y="-448.5" font-family="Helvetica,sans-Serif" font-size="10.00">_efx_ncob_ecob_error_cases</text>
</a>
</g>
</g>
<!-- Node1&#45;&gt;Node9 -->
<g id="edge8" class="edge">
<title>Node1&#45;&gt;Node9</title>
<path fill="none" stroke="midnightblue" d="M222.07,-419.6C196.46,-426.21 164.51,-434.45 137.31,-441.46"/>
<polygon fill="midnightblue" stroke="midnightblue" points="223.11,-422.95 231.92,-417.06 221.36,-416.17 223.11,-422.95"/>
</g>
<!-- Node10 -->
<g id="node10" class="node">
<title>Node10</title>
<g id="a_node10"><a xlink:href="test__cmp__icu_8c_a13a2a26bd2eac1bd622925c6dcfbfb2d.html#a13a2a26bd2eac1bd622925c6dcfbfb2d" target="_top" xlink:title=" ">
<polygon fill="white" stroke="black" points="22.5,-392.5 22.5,-422.5 133.5,-422.5 133.5,-392.5 22.5,-392.5"/>
<text text-anchor="start" x="30.5" y="-410.5" font-family="Helvetica,sans-Serif" font-size="10.00">test_compress_l_fx</text>
<text text-anchor="middle" x="78" y="-399.5" font-family="Helvetica,sans-Serif" font-size="10.00">_error_cases</text>
</a>
</g>
</g>
<!-- Node1&#45;&gt;Node10 -->
<g id="edge9" class="edge">
<title>Node1&#45;&gt;Node10</title>
<path fill="none" stroke="midnightblue" d="M181.84,-407.5C165.44,-407.5 148.73,-407.5 133.67,-407.5"/>
<polygon fill="midnightblue" stroke="midnightblue" points="181.99,-411 191.99,-407.5 181.99,-404 181.99,-411"/>
</g>
<!-- Node11 -->
<g id="node11" class="node">
<title>Node11</title>
<g id="a_node11"><a xlink:href="test__cmp__icu_8c_ab725960063dc032566560118d582b79e.html#ab725960063dc032566560118d582b79e" target="_top" xlink:title=" ">
<polygon fill="white" stroke="black" points="22.5,-343.5 22.5,-373.5 133.5,-373.5 133.5,-343.5 22.5,-343.5"/>
<text text-anchor="start" x="30.5" y="-361.5" font-family="Helvetica,sans-Serif" font-size="10.00">test_compress_l_fx</text>
<text text-anchor="middle" x="78" y="-350.5" font-family="Helvetica,sans-Serif" font-size="10.00">_ncob_error_cases</text>
</a>
</g>
</g>
<!-- Node1&#45;&gt;Node11 -->
<g id="edge10" class="edge">
<title>Node1&#45;&gt;Node11</title>
<path fill="none" stroke="midnightblue" d="M222.02,-395.38C195.25,-388.48 161.57,-379.79 133.62,-372.59"/>
<polygon fill="midnightblue" stroke="midnightblue" points="221.36,-398.83 231.92,-397.94 223.11,-392.05 221.36,-398.83"/>
</g>
<!-- Node12 -->
<g id="node12" class="node">
<title>Node12</title>
<g id="a_node12"><a xlink:href="test__cmp__icu_8c_a13bf5ba0481601697942a0a485f7631c.html#a13bf5ba0481601697942a0a485f7631c" target="_top" xlink:title=" ">
<polygon fill="white" stroke="black" points="17.5,-294.5 17.5,-324.5 138.5,-324.5 138.5,-294.5 17.5,-294.5"/>
<text text-anchor="start" x="25.5" y="-312.5" font-family="Helvetica,sans-Serif" font-size="10.00">test_compress_offset</text>
<text text-anchor="middle" x="78" y="-301.5" font-family="Helvetica,sans-Serif" font-size="10.00">_error_cases</text>
</a>
</g>
</g>
<!-- Node1&#45;&gt;Node12 -->
<g id="edge11" class="edge">
<title>Node1&#45;&gt;Node12</title>
<path fill="none" stroke="midnightblue" d="M248.19,-391.69C226.22,-375.58 190.11,-350.72 156,-334.5 148.26,-330.82 139.83,-327.47 131.49,-324.51"/>
<polygon fill="midnightblue" stroke="midnightblue" points="246.31,-394.65 256.42,-397.8 250.48,-389.03 246.31,-394.65"/>
</g>
<!-- Node13 -->
<g id="node13" class="node">
<title>Node13</title>
<g id="a_node13"><a xlink:href="test__cmp__icu_8c_a28f0f3239f94a5d75189300dd3ed35fc.html#a28f0f3239f94a5d75189300dd3ed35fc" target="_top" xlink:title=" ">
<polygon fill="white" stroke="black" points="21.5,-245.5 21.5,-275.5 134.5,-275.5 134.5,-245.5 21.5,-245.5"/>
<text text-anchor="start" x="29.5" y="-263.5" font-family="Helvetica,sans-Serif" font-size="10.00">test_compress_s_fx</text>
<text text-anchor="middle" x="78" y="-252.5" font-family="Helvetica,sans-Serif" font-size="10.00">_efx_error_cases</text>
</a>
</g>
</g>
<!-- Node1&#45;&gt;Node13 -->
<g id="edge12" class="edge">
<title>Node1&#45;&gt;Node13</title>
<path fill="none" stroke="midnightblue" d="M256.83,-389.33C238.16,-362.81 199.95,-313.6 156,-285.5 149.49,-281.34 142.22,-277.81 134.82,-274.83"/>
<polygon fill="midnightblue" stroke="midnightblue" points="254.04,-391.45 262.6,-397.7 259.8,-387.48 254.04,-391.45"/>
</g>
<!-- Node14 -->
<g id="node14" class="node">
<title>Node14</title>
<g id="a_node14"><a xlink:href="test__cmp__icu_8c_a90fd6057131bbf0c9b398c9c99bea3f2.html#a90fd6057131bbf0c9b398c9c99bea3f2" target="_top" xlink:title=" ">
<polygon fill="white" stroke="black" points="0,-196.5 0,-226.5 156,-226.5 156,-196.5 0,-196.5"/>
<text text-anchor="start" x="8" y="-214.5" font-family="Helvetica,sans-Serif" font-size="10.00">test_compress_s_fx</text>
<text text-anchor="middle" x="78" y="-203.5" font-family="Helvetica,sans-Serif" font-size="10.00">_efx_ncob_ecob_error_cases</text>
</a>
</g>
</g>
<!-- Node1&#45;&gt;Node14 -->
<g id="edge13" class="edge">
<title>Node1&#45;&gt;Node14</title>
<path fill="none" stroke="midnightblue" d="M261.36,-388.11C246.45,-352.76 210.15,-277.7 156,-236.5 150.97,-232.67 145.32,-229.41 139.44,-226.65"/>
<polygon fill="midnightblue" stroke="midnightblue" points="258.26,-389.79 265.29,-397.72 264.74,-387.14 258.26,-389.79"/>
</g>
<!-- Node15 -->
<g id="node15" class="node">
<title>Node15</title>
<g id="a_node15"><a xlink:href="test__cmp__icu_8c_aa29971f14aa8c01058cf5884ccfb0b46.html#aa29971f14aa8c01058cf5884ccfb0b46" target="_top" xlink:title=" ">
<polygon fill="white" stroke="black" points="21.5,-147.5 21.5,-177.5 134.5,-177.5 134.5,-147.5 21.5,-147.5"/>
<text text-anchor="start" x="29.5" y="-165.5" font-family="Helvetica,sans-Serif" font-size="10.00">test_compress_s_fx</text>
<text text-anchor="middle" x="78" y="-154.5" font-family="Helvetica,sans-Serif" font-size="10.00">_error_cases</text>
</a>
</g>
</g>
<!-- Node1&#45;&gt;Node15 -->
<g id="edge14" class="edge">
<title>Node1&#45;&gt;Node15</title>
<path fill="none" stroke="midnightblue" d="M264.4,-388C253.32,-345.3 221.14,-242.94 156,-187.5 149.79,-182.22 142.44,-178.04 134.79,-174.75"/>
<polygon fill="midnightblue" stroke="midnightblue" points="261.06,-389.08 266.87,-397.94 267.85,-387.39 261.06,-389.08"/>
</g>
<!-- Node16 -->
<g id="node16" class="node">
<title>Node16</title>
<g id="a_node16"><a xlink:href="test__cmp__icu_8c_afa54c8348f46913b7c39517424f7e547.html#afa54c8348f46913b7c39517424f7e547" target="_top" xlink:title=" ">
<polygon fill="white" stroke="black" points="21.5,-98.5 21.5,-128.5 134.5,-128.5 134.5,-98.5 21.5,-98.5"/>
<text text-anchor="start" x="29.5" y="-116.5" font-family="Helvetica,sans-Serif" font-size="10.00">test_compress_s_fx</text>
<text text-anchor="middle" x="78" y="-105.5" font-family="Helvetica,sans-Serif" font-size="10.00">_model_multi</text>
</a>
</g>
</g>
<!-- Node1&#45;&gt;Node16 -->
<g id="edge15" class="edge">
<title>Node1&#45;&gt;Node16</title>
<path fill="none" stroke="midnightblue" d="M266.39,-387.78C258.8,-338.45 232.27,-208.64 156,-138.5 149.9,-132.89 142.52,-128.53 134.77,-125.16"/>
<polygon fill="midnightblue" stroke="midnightblue" points="262.94,-388.38 267.83,-397.78 269.86,-387.38 262.94,-388.38"/>
</g>
<!-- Node17 -->
<g id="node17" class="node">
<title>Node17</title>
<g id="a_node17"><a xlink:href="test__cmp__icu_8c_a70a6d23f621dd0ce0ffb110b9c77116f.html#a70a6d23f621dd0ce0ffb110b9c77116f" target="_top" xlink:title=" ">
<polygon fill="white" stroke="black" points="21.5,-49.5 21.5,-79.5 134.5,-79.5 134.5,-49.5 21.5,-49.5"/>
<text text-anchor="start" x="29.5" y="-67.5" font-family="Helvetica,sans-Serif" font-size="10.00">test_compress_s_fx</text>
<text text-anchor="middle" x="78" y="-56.5" font-family="Helvetica,sans-Serif" font-size="10.00">_ncob_error_cases</text>
</a>
</g>
</g>
<!-- Node1&#45;&gt;Node17 -->
<g id="edge16" class="edge">
<title>Node1&#45;&gt;Node17</title>
<path fill="none" stroke="midnightblue" d="M267.83,-387.64C263.48,-332.29 243.63,-174.75 156,-89.5 149.96,-83.62 142.51,-79.12 134.66,-75.68"/>
<polygon fill="midnightblue" stroke="midnightblue" points="264.35,-388.11 268.54,-397.84 271.33,-387.62 264.35,-388.11"/>
</g>
<!-- Node18 -->
<g id="node18" class="node">
<title>Node18</title>
<g id="a_node18"><a xlink:href="test__cmp__icu_8c_aee4858f3ea226c6da9e4a9ed54475b1d.html#aee4858f3ea226c6da9e4a9ed54475b1d" target="_top" xlink:title=" ">
<polygon fill="white" stroke="black" points="8.5,-0.5 8.5,-30.5 147.5,-30.5 147.5,-0.5 8.5,-0.5"/>
<text text-anchor="start" x="16.5" y="-18.5" font-family="Helvetica,sans-Serif" font-size="10.00">test_compress_smearing</text>
<text text-anchor="middle" x="78" y="-7.5" font-family="Helvetica,sans-Serif" font-size="10.00">_error_cases</text>
</a>
</g>
</g>
<!-- Node1&#45;&gt;Node18 -->
<g id="edge17" class="edge">
<title>Node1&#45;&gt;Node18</title>
<path fill="none" stroke="midnightblue" d="M268.93,-387.9C267.62,-327.35 255.32,-141.35 156,-40.5 152.15,-36.59 147.69,-33.3 142.89,-30.52"/>
<polygon fill="midnightblue" stroke="midnightblue" points="265.43,-388.03 269.06,-397.98 272.43,-387.94 265.43,-388.03"/>
</g>
</g>
</svg>
        <g id="navigator" transform="translate(0 0)" fill="#404254">
                <rect fill="#f2f5e9" fill-opacity="0.5" stroke="#606060" stroke-width=".5" x="0" y="0" width="60" height="60"/>
                <use id="zoomplus" xlink:href="#zoomPlus" x="17" y="9" onmousedown="handleZoom(evt,'in')"/>
                <use id="zoomminus" xlink:href="#zoomMin" x="42" y="9" onmousedown="handleZoom(evt,'out')"/>
                <use id="reset" xlink:href="#resetDef" x="30" y="36" onmousedown="handleReset()"/>
                <g id="arrowUp" xlink:href="#dirArrow" transform="translate(30 24)" onmousedown="handlePan(0,-1)">
                  <use xlink:href="#rim" fill="#404040">
                        <set attributeName="fill" to="#808080" begin="arrowUp.mouseover" end="arrowUp.mouseout"/>
                  </use>
                  <path fill="none" stroke="white" stroke-width="1.5" d="M0,-3.0v7 M-2.5,-0.5L0,-3.0L2.5,-0.5"/>
                </g>
                <g id="arrowRight" xlink:href="#dirArrow" transform="rotate(90) translate(36 -43)" onmousedown="handlePan(1,0)">
                  <use xlink:href="#rim" fill="#404040">
                        <set attributeName="fill" to="#808080" begin="arrowRight.mouseover" end="arrowRight.mouseout"/>
                  </use>
                  <path fill="none" stroke="white" stroke-width="1.5" d="M0,-3.0v7 M-2.5,-0.5L0,-3.0L2.5,-0.5"/>
                </g>
                <g id="arrowDown" xlink:href="#dirArrow" transform="rotate(180) translate(-30 -48)" onmousedown="handlePan(0,1)">
                  <use xlink:href="#rim" fill="#404040">
                        <set attributeName="fill" to="#808080" begin="arrowDown.mouseover" end="arrowDown.mouseout"/>
                  </use>
                  <path fill="none" stroke="white" stroke-width="1.5" d="M0,-3.0v7 M-2.5,-0.5L0,-3.0L2.5,-0.5"/>
                </g>
                <g id="arrowLeft" xlink:href="#dirArrow" transform="rotate(270) translate(-36 17)" onmousedown="handlePan(-1,0)">
                  <use xlink:href="#rim" fill="#404040">
                        <set attributeName="fill" to="#808080" begin="arrowLeft.mouseover" end="arrowLeft.mouseout"/>
                  </use>
                  <path fill="none" stroke="white" stroke-width="1.5" d="M0,-3.0v7 M-2.5,-0.5L0,-3.0L2.5,-0.5"/>
                </g>
        </g>
        <svg viewBox="0 0 15 15" width="100%" height="30px" preserveAspectRatio="xMaxYMin meet">
         <g id="arrow_out" transform="scale(0.3 0.3)">
          <a xlink:href="cmp__icu_8c_aa81d6c4bef3a60edf695894a22adeec7_aa81d6c4bef3a60edf695894a22adeec7_icgraph_org.svg" target="_base">
           <rect id="button" ry="5" rx="5" y="6" x="6" height="38" width="38"
                fill="#f2f5e9" fill-opacity="0.5" stroke="#606060" stroke-width="1.0"/>
           <path id="arrow"
             d="M 11.500037,31.436501 C 11.940474,20.09759 22.043105,11.32322 32.158766,21.979434 L 37.068811,17.246167 C 37.068811,17.246167 37.088388,32 37.088388,32 L 22.160133,31.978069 C 22.160133,31.978069 26.997745,27.140456 26.997745,27.140456 C 18.528582,18.264221 13.291696,25.230495 11.500037,31.436501 z"
             style="fill:#404040;"/>
          </a>
         </g>
        </svg>
</svg>
