<?xml version="1.0" encoding="UTF-8" standalone="no"?>
<!DOCTYPE svg PUBLIC "-//W3C//DTD SVG 1.1//EN"
 "http://www.w3.org/Graphics/SVG/1.1/DTD/svg11.dtd">
<!-- Generated by graphviz version 2.43.0 (0)
 -->
<!-- Title: cmp_cfg_fx_cob Pages: 1 -->
<svg width="783pt" height="176pt"
 viewBox="0.00 0.00 783.00 176.00" xmlns="http://www.w3.org/2000/svg" xmlns:xlink="http://www.w3.org/1999/xlink">
<g id="graph0" class="graph" transform="scale(1 1) rotate(0) translate(4 172)">
<title>cmp_cfg_fx_cob</title>
<polygon fill="white" stroke="transparent" points="-4,4 -4,-172 779,-172 779,4 -4,4"/>
<!-- Node1 -->
<g id="node1" class="node">
<title>Node1</title>
<g id="a_node1"><a xlink:title="set up the configuration parameters for a flux/COB compression">
<polygon fill="#bfbfbf" stroke="black" points="0,-94 0,-113 95,-113 95,-94 0,-94"/>
<text text-anchor="middle" x="47.5" y="-101" font-family="Helvetica,sans-Serif" font-size="10.00">cmp_cfg_fx_cob</text>
</a>
</g>
</g>
<!-- Node2 -->
<g id="node2" class="node">
<title>Node2</title>
<g id="a_node2"><a xlink:href="cmp__support_8c_a0ab443a00b23edf5f8de4cca89def25b.html#a0ab443a00b23edf5f8de4cca89def25b" target="_top" xlink:title="check if the flux/center of brightness specific compression parameters are invalid">
<polygon fill="white" stroke="black" points="131,-94 131,-113 278,-113 278,-94 131,-94"/>
<text text-anchor="middle" x="204.5" y="-101" font-family="Helvetica,sans-Serif" font-size="10.00">cmp_cfg_fx_cob_is_invalid</text>
</a>
</g>
</g>
<!-- Node1&#45;&gt;Node2 -->
<g id="edge1" class="edge">
<title>Node1&#45;&gt;Node2</title>
<path fill="none" stroke="midnightblue" d="M95.01,-103.5C103.23,-103.5 112.02,-103.5 120.9,-103.5"/>
<polygon fill="midnightblue" stroke="midnightblue" points="120.93,-107 130.93,-103.5 120.93,-100 120.93,-107"/>
</g>
<!-- Node3 -->
<g id="node3" class="node">
<title>Node3</title>
<g id="a_node3"><a xlink:href="cmp__support_8c_a3e5913a05465353d3ae640cd2359f8d7.html#a3e5913a05465353d3ae640cd2359f8d7" target="_top" xlink:title="get needed compression parameter pairs for a flux/center of brightness data type">
<polygon fill="white" stroke="black" points="320.5,-137.5 320.5,-167.5 436.5,-167.5 436.5,-137.5 320.5,-137.5"/>
<text text-anchor="start" x="328.5" y="-155.5" font-family="Helvetica,sans-Serif" font-size="10.00">cmp_cfg_fx_cob_get</text>
<text text-anchor="middle" x="378.5" y="-144.5" font-family="Helvetica,sans-Serif" font-size="10.00">_need_pars</text>
</a>
</g>
</g>
<!-- Node2&#45;&gt;Node3 -->
<g id="edge2" class="edge">
<title>Node2&#45;&gt;Node3</title>
<path fill="none" stroke="midnightblue" d="M239.07,-113.06C260.66,-119.21 289.37,-127.39 315.05,-134.71"/>
<polygon fill="midnightblue" stroke="midnightblue" points="314.14,-138.09 324.72,-137.46 316.06,-131.36 314.14,-138.09"/>
</g>
<!-- Node4 -->
<g id="node4" class="node">
<title>Node4</title>
<g id="a_node4"><a xlink:href="cmp__support_8c_a3af135761eadd1f28a5f58a35903d381.html#a3af135761eadd1f28a5f58a35903d381" target="_top" xlink:title="check if a flux/center of brightness compression data type is used">
<polygon fill="white" stroke="black" points="314,-88.5 314,-118.5 443,-118.5 443,-88.5 314,-88.5"/>
<text text-anchor="start" x="322" y="-106.5" font-family="Helvetica,sans-Serif" font-size="10.00">cmp_fx_cob_data_type</text>
<text text-anchor="middle" x="378.5" y="-95.5" font-family="Helvetica,sans-Serif" font-size="10.00">_is_used</text>
</a>
</g>
</g>
<!-- Node2&#45;&gt;Node4 -->
<g id="edge3" class="edge">
<title>Node2&#45;&gt;Node4</title>
<path fill="none" stroke="midnightblue" d="M278.44,-103.5C286.84,-103.5 295.41,-103.5 303.81,-103.5"/>
<polygon fill="midnightblue" stroke="midnightblue" points="303.97,-107 313.97,-103.5 303.97,-100 303.97,-107"/>
</g>
<!-- Node5 -->
<g id="node5" class="node">
<title>Node5</title>
<g id="a_node5"><a xlink:href="cmp__support_8c_adbae174c7bd594fd05723ddc667f5b54.html#adbae174c7bd594fd05723ddc667f5b54" target="_top" xlink:title="check if the combination of the different compression parameters is invalid">
<polygon fill="white" stroke="black" points="317,-50 317,-69 440,-69 440,-50 317,-50"/>
<text text-anchor="middle" x="378.5" y="-57" font-family="Helvetica,sans-Serif" font-size="10.00">cmp_pars_are_invalid</text>
</a>
</g>
</g>
<!-- Node2&#45;&gt;Node5 -->
<g id="edge4" class="edge">
<title>Node2&#45;&gt;Node5</title>
<path fill="none" stroke="midnightblue" d="M242.82,-93.95C268.52,-87.38 302.86,-78.6 330.43,-71.54"/>
<polygon fill="midnightblue" stroke="midnightblue" points="331.43,-74.9 340.25,-69.03 329.7,-68.12 331.43,-74.9"/>
</g>
<!-- Node6 -->
<g id="node6" class="node">
<title>Node6</title>
<g id="a_node6"><a xlink:href="cmp__support_8c_aefdc949ff52e4920859d0bd82f5aa5aa.html#aefdc949ff52e4920859d0bd82f5aa5aa" target="_top" xlink:title="get the maximum valid spill threshold value for a non&#45;imagette compression in diff or model mode">
<polygon fill="white" stroke="black" points="494.5,-88 494.5,-107 604.5,-107 604.5,-88 494.5,-88"/>
<text text-anchor="middle" x="549.5" y="-95" font-family="Helvetica,sans-Serif" font-size="10.00">cmp_icu_max_spill</text>
</a>
</g>
</g>
<!-- Node5&#45;&gt;Node6 -->
<g id="edge5" class="edge">
<title>Node5&#45;&gt;Node6</title>
<path fill="none" stroke="midnightblue" d="M422.15,-69.09C444.65,-74.15 472.45,-80.4 496.24,-85.75"/>
<polygon fill="midnightblue" stroke="midnightblue" points="495.64,-89.2 506.16,-87.98 497.17,-82.37 495.64,-89.2"/>
</g>
<!-- Node8 -->
<g id="node8" class="node">
<title>Node8</title>
<g id="a_node8"><a xlink:href="cmp__support_8c_a743a6fcf9ff9d9c86e5dcd2521694472.html#a743a6fcf9ff9d9c86e5dcd2521694472" target="_top" xlink:title="get the maximum valid spill threshold value for a imagette compression in diff or model mode">
<polygon fill="white" stroke="black" points="492.5,-50 492.5,-69 606.5,-69 606.5,-50 492.5,-50"/>
<text text-anchor="middle" x="549.5" y="-57" font-family="Helvetica,sans-Serif" font-size="10.00">cmp_ima_max_spill</text>
</a>
</g>
</g>
<!-- Node5&#45;&gt;Node8 -->
<g id="edge7" class="edge">
<title>Node5&#45;&gt;Node8</title>
<path fill="none" stroke="midnightblue" d="M440.04,-59.5C453.75,-59.5 468.39,-59.5 482.33,-59.5"/>
<polygon fill="midnightblue" stroke="midnightblue" points="482.33,-63 492.33,-59.5 482.33,-56 482.33,-63"/>
</g>
<!-- Node9 -->
<g id="node9" class="node">
<title>Node9</title>
<g id="a_node9"><a xlink:href="cmp__support_8c_a01181fec3ef69e316b4d77de4df9865f.html#a01181fec3ef69e316b4d77de4df9865f" target="_top" xlink:title="check if an imagette compression data type is used">
<polygon fill="white" stroke="black" points="479,-0.5 479,-30.5 620,-30.5 620,-0.5 479,-0.5"/>
<text text-anchor="start" x="487" y="-18.5" font-family="Helvetica,sans-Serif" font-size="10.00">cmp_imagette_data_type</text>
<text text-anchor="middle" x="549.5" y="-7.5" font-family="Helvetica,sans-Serif" font-size="10.00">_is_used</text>
</a>
</g>
</g>
<!-- Node5&#45;&gt;Node9 -->
<g id="edge8" class="edge">
<title>Node5&#45;&gt;Node9</title>
<path fill="none" stroke="midnightblue" d="M416.17,-49.95C435.11,-45.02 458.84,-38.84 480.95,-33.09"/>
<polygon fill="midnightblue" stroke="midnightblue" points="481.84,-36.47 490.64,-30.57 480.08,-29.7 481.84,-36.47"/>
</g>
<!-- Node7 -->
<g id="node7" class="node">
<title>Node7</title>
<g id="a_node7"><a xlink:href="cmp__support_8c_a67b0e38ca0e68c282c89552daa61ffdf.html#a67b0e38ca0e68c282c89552daa61ffdf" target="_top" xlink:title="implementation of the logarithm base of floor(log2(x)) for integers">
<polygon fill="white" stroke="black" points="692.5,-88 692.5,-107 738.5,-107 738.5,-88 692.5,-88"/>
<text text-anchor="middle" x="715.5" y="-95" font-family="Helvetica,sans-Serif" font-size="10.00">ilog_2</text>
</a>
</g>
</g>
<!-- Node6&#45;&gt;Node7 -->
<g id="edge6" class="edge">
<title>Node6&#45;&gt;Node7</title>
<path fill="none" stroke="midnightblue" d="M604.65,-97.5C630.31,-97.5 660.1,-97.5 682.17,-97.5"/>
<polygon fill="midnightblue" stroke="midnightblue" points="682.34,-101 692.34,-97.5 682.34,-94 682.34,-101"/>
</g>
<!-- Node10 -->
<g id="node10" class="node">
<title>Node10</title>
<g id="a_node10"><a xlink:href="cmp__support_8c_a9197caa657b3d84615c0d323dc96c502.html#a9197caa657b3d84615c0d323dc96c502" target="_top" xlink:title="check if the data product data type is supported by the RDCU compressor">
<polygon fill="white" stroke="black" points="656,-0.5 656,-30.5 775,-30.5 775,-0.5 656,-0.5"/>
<text text-anchor="start" x="664" y="-18.5" font-family="Helvetica,sans-Serif" font-size="10.00">rdcu_supported_data</text>
<text text-anchor="middle" x="715.5" y="-7.5" font-family="Helvetica,sans-Serif" font-size="10.00">_type_is_used</text>
</a>
</g>
</g>
<!-- Node9&#45;&gt;Node10 -->
<g id="edge9" class="edge">
<title>Node9&#45;&gt;Node10</title>
<path fill="none" stroke="midnightblue" d="M620.05,-15.5C628.55,-15.5 637.24,-15.5 645.73,-15.5"/>
<polygon fill="midnightblue" stroke="midnightblue" points="645.97,-19 655.97,-15.5 645.97,-12 645.97,-19"/>
</g>
</g>
</svg>
