<?xml version="1.0" encoding="UTF-8" standalone="no"?>
<!DOCTYPE svg PUBLIC "-//W3C//DTD SVG 1.1//EN"
 "http://www.w3.org/Graphics/SVG/1.1/DTD/svg11.dtd">
<!-- Generated by graphviz version 2.43.0 (0)
 -->
<!-- Title: cmp_input_size_to_samples Pages: 1 -->
<svg width="317pt" height="78pt"
 viewBox="0.00 0.00 317.00 77.50" xmlns="http://www.w3.org/2000/svg" xmlns:xlink="http://www.w3.org/1999/xlink">
<g id="graph0" class="graph" transform="scale(1 1) rotate(0) translate(4 73.5)">
<title>cmp_input_size_to_samples</title>
<polygon fill="white" stroke="transparent" points="-4,4 -4,-73.5 313,-73.5 313,4 -4,4"/>
<!-- Node1 -->
<g id="node1" class="node">
<title>Node1</title>
<g id="a_node1"><a xlink:title="calculates the number of samples for a given data size for the different compression modes">
<polygon fill="#bfbfbf" stroke="black" points="0,-22.5 0,-41.5 154,-41.5 154,-22.5 0,-22.5"/>
<text text-anchor="middle" x="77" y="-29.5" font-family="Helvetica,sans-Serif" font-size="10.00">cmp_input_size_to_samples</text>
</a>
</g>
</g>
<!-- Node2 -->
<g id="node2" class="node">
<title>Node2</title>
<g id="a_node2"><a xlink:href="cmp__support_8c_a9197caa657b3d84615c0d323dc96c502.html#a9197caa657b3d84615c0d323dc96c502" target="_top" xlink:title="check if the data product data type is supported by the RDCU compressor">
<polygon fill="white" stroke="black" points="190,-39 190,-69 309,-69 309,-39 190,-39"/>
<text text-anchor="start" x="198" y="-57" font-family="Helvetica,sans-Serif" font-size="10.00">rdcu_supported_data</text>
<text text-anchor="middle" x="249.5" y="-46" font-family="Helvetica,sans-Serif" font-size="10.00">_type_is_used</text>
</a>
</g>
</g>
<!-- Node1&#45;&gt;Node2 -->
<g id="edge1" class="edge">
<title>Node1&#45;&gt;Node2</title>
<path fill="none" stroke="midnightblue" d="M151.79,-41.52C161.01,-42.71 170.41,-43.92 179.56,-45.1"/>
<polygon fill="midnightblue" stroke="midnightblue" points="179.38,-48.61 189.74,-46.42 180.27,-41.67 179.38,-48.61"/>
</g>
<!-- Node3 -->
<g id="node3" class="node">
<title>Node3</title>
<g id="a_node3"><a xlink:href="cmp__data__types_8c_a0be8705b1dcc45f605abd8400dd5230b.html#a0be8705b1dcc45f605abd8400dd5230b" target="_top" xlink:title="calculate the size of a sample for the different compression data type">
<polygon fill="white" stroke="black" points="197.5,-0.5 197.5,-19.5 301.5,-19.5 301.5,-0.5 197.5,-0.5"/>
<text text-anchor="middle" x="249.5" y="-7.5" font-family="Helvetica,sans-Serif" font-size="10.00">size_of_a_sample</text>
</a>
</g>
</g>
<!-- Node1&#45;&gt;Node3 -->
<g id="edge2" class="edge">
<title>Node1&#45;&gt;Node3</title>
<path fill="none" stroke="midnightblue" d="M151.79,-22.48C163.7,-20.94 175.9,-19.37 187.46,-17.88"/>
<polygon fill="midnightblue" stroke="midnightblue" points="187.96,-21.34 197.43,-16.59 187.06,-14.4 187.96,-21.34"/>
</g>
</g>
</svg>
