<?xml version="1.0" encoding="UTF-8" standalone="no"?>
<!DOCTYPE svg PUBLIC "-//W3C//DTD SVG 1.1//EN"
 "http://www.w3.org/Graphics/SVG/1.1/DTD/svg11.dtd">
<!-- Generated by graphviz version 2.43.0 (0)
 -->
<!-- Title: cmp_cfg_icu_buffers Pages: 1 -->
<!--zoomable 1075 -->
<svg id="main" version="1.1" xmlns="http://www.w3.org/2000/svg" xmlns:xlink="http://www.w3.org/1999/xlink" xml:space="preserve" onload="init(evt)">
<style type="text/css"><![CDATA[
.edge:hover path { stroke: red; }
.edge:hover polygon { stroke: red; fill: red; }
]]></style>
<script type="text/javascript"><![CDATA[
var edges = document.getElementsByTagName('g');
if (edges && edges.length) {
  for (var i=0;i<edges.length;i++) {
    if (edges[i].id.substr(0,4)=='edge') {
      edges[i].setAttribute('class','edge');
    }
  }
}
]]></script>
        <defs>
                <circle id="rim" cx="0" cy="0" r="7"/>
                <circle id="rim2" cx="0" cy="0" r="3.5"/>
                <g id="zoomPlus">
                        <use xlink:href="#rim" fill="#404040">
                                <set attributeName="fill" to="#808080" begin="zoomplus.mouseover" end="zoomplus.mouseout"/>
                        </use>
                        <path d="M-4,0h8M0,-4v8" fill="none" stroke="white" stroke-width="1.5" pointer-events="none"/>
                </g>
                <g id="zoomMin">
                        <use xlink:href="#rim" fill="#404040">
                                <set attributeName="fill" to="#808080" begin="zoomminus.mouseover" end="zoomminus.mouseout"/>
                        </use>
                        <path d="M-4,0h8" fill="none" stroke="white" stroke-width="1.5" pointer-events="none"/>
                </g>
                <g id="dirArrow">
                        <path fill="none" stroke="white" stroke-width="1.5" d="M0,-3.0v7 M-2.5,-0.5L0,-3.0L2.5,-0.5"/>
                </g>
               <g id="resetDef">
                       <use xlink:href="#rim2" fill="#404040">
                               <set attributeName="fill" to="#808080" begin="reset.mouseover" end="reset.mouseout"/>
                       </use>
               </g>
        </defs>

<script type="text/javascript">
var viewWidth = 344;
var viewHeight = 1075;
var sectionId = 'dynsection-1';
</script>
<script xlink:href="svgpan.js"/>
<svg id="graph" class="graph">
<g id="viewport">
<title>cmp_cfg_icu_buffers</title>
<polygon fill="white" stroke="transparent" points="-4,4 -4,-1070.5 340,-1070.5 340,4 -4,4"/>
<!-- Node1 -->
<g id="node1" class="node">
<title>Node1</title>
<g id="a_node1"><a xlink:title="set up the different data buffers for an ICU compression">
<polygon fill="#bfbfbf" stroke="black" points="220,-545 220,-564 336,-564 336,-545 220,-545"/>
<text text-anchor="middle" x="278" y="-552" font-family="Helvetica,sans-Serif" font-size="10.00">cmp_cfg_icu_buffers</text>
</a>
</g>
</g>
<!-- Node2 -->
<g id="node2" class="node">
<title>Node2</title>
<g id="a_node2"><a xlink:href="test__cmp__icu_8c_a0ecdcb6ecabf5d7ee74f177cc1d3a965.html#a0ecdcb6ecabf5d7ee74f177cc1d3a965" target="_top" xlink:title=" ">
<polygon fill="white" stroke="black" points="22,-1047 22,-1066 162,-1066 162,-1047 22,-1047"/>
<text text-anchor="middle" x="92" y="-1054" font-family="Helvetica,sans-Serif" font-size="10.00">test_cmp_cfg_icu_buffers</text>
</a>
</g>
</g>
<!-- Node1&#45;&gt;Node2 -->
<g id="edge1" class="edge">
<title>Node1&#45;&gt;Node2</title>
<path fill="none" stroke="midnightblue" d="M276.02,-574.41C271.57,-656.82 250.45,-970.01 184,-1037.5 177.89,-1043.71 170.3,-1048.15 162.14,-1051.28"/>
<polygon fill="midnightblue" stroke="midnightblue" points="279.53,-574.34 276.55,-564.17 272.54,-573.98 279.53,-574.34"/>
</g>
<!-- Node3 -->
<g id="node3" class="node">
<title>Node3</title>
<g id="a_node3"><a xlink:href="test__decmp_8c_a6e7a5e150e2c829836db3c42cdec2eec.html#a6e7a5e150e2c829836db3c42cdec2eec" target="_top" xlink:title=" ">
<polygon fill="white" stroke="black" points="0,-1009 0,-1028 184,-1028 184,-1009 0,-1009"/>
<text text-anchor="middle" x="92" y="-1016" font-family="Helvetica,sans-Serif" font-size="10.00">test_cmp_decmp_n_imagette_raw</text>
</a>
</g>
</g>
<!-- Node1&#45;&gt;Node3 -->
<g id="edge2" class="edge">
<title>Node1&#45;&gt;Node3</title>
<path fill="none" stroke="midnightblue" d="M275.66,-574.57C269.99,-653.08 245.45,-938.06 184,-999.5 180.23,-1003.27 175.93,-1006.38 171.28,-1008.94"/>
<polygon fill="midnightblue" stroke="midnightblue" points="279.18,-574.39 276.38,-564.17 272.2,-573.9 279.18,-574.39"/>
</g>
<!-- Node4 -->
<g id="node4" class="node">
<title>Node4</title>
<g id="a_node4"><a xlink:href="test__decmp_8c_a1a33e2fcbf484c79dfe661b280386f6b.html#a1a33e2fcbf484c79dfe661b280386f6b" target="_top" xlink:title=" ">
<polygon fill="white" stroke="black" points="19,-971 19,-990 165,-990 165,-971 19,-971"/>
<text text-anchor="middle" x="92" y="-978" font-family="Helvetica,sans-Serif" font-size="10.00">test_cmp_decmp_s_fx_diff</text>
</a>
</g>
</g>
<!-- Node1&#45;&gt;Node4 -->
<g id="edge3" class="edge">
<title>Node1&#45;&gt;Node4</title>
<path fill="none" stroke="midnightblue" d="M275.26,-574.27C268.38,-648.06 240.59,-905.96 184,-961.5 178.59,-966.81 172.09,-970.82 165.1,-973.81"/>
<polygon fill="midnightblue" stroke="midnightblue" points="278.77,-574.34 276.19,-564.07 271.8,-573.71 278.77,-574.34"/>
</g>
<!-- Node5 -->
<g id="node5" class="node">
<title>Node5</title>
<g id="a_node5"><a xlink:href="test__cmp__icu_8c_aca32c7d039600004c9cc5c6fe19b8ec5.html#aca32c7d039600004c9cc5c6fe19b8ec5" target="_top" xlink:title=" ">
<polygon fill="white" stroke="black" points="17,-921.5 17,-951.5 167,-951.5 167,-921.5 17,-921.5"/>
<text text-anchor="start" x="25" y="-939.5" font-family="Helvetica,sans-Serif" font-size="10.00">test_compress_background</text>
<text text-anchor="middle" x="92" y="-928.5" font-family="Helvetica,sans-Serif" font-size="10.00">_error_cases</text>
</a>
</g>
</g>
<!-- Node1&#45;&gt;Node5 -->
<g id="edge4" class="edge">
<title>Node1&#45;&gt;Node5</title>
<path fill="none" stroke="midnightblue" d="M274.48,-574.39C265.51,-642.27 232.95,-863.37 184,-912.5 179.16,-917.36 173.45,-921.27 167.3,-924.42"/>
<polygon fill="midnightblue" stroke="midnightblue" points="277.99,-574.57 275.8,-564.21 271.05,-573.67 277.99,-574.57"/>
</g>
<!-- Node6 -->
<g id="node6" class="node">
<title>Node6</title>
<g id="a_node6"><a xlink:href="test__cmp__icu_8c_a64b46c032fdef8789190209bd9c3c49b.html#a64b46c032fdef8789190209bd9c3c49b" target="_top" xlink:title=" ">
<polygon fill="white" stroke="black" points="36,-872.5 36,-902.5 148,-902.5 148,-872.5 36,-872.5"/>
<text text-anchor="start" x="44" y="-890.5" font-family="Helvetica,sans-Serif" font-size="10.00">test_compress_f_fx</text>
<text text-anchor="middle" x="92" y="-879.5" font-family="Helvetica,sans-Serif" font-size="10.00">_efx_error_cases</text>
</a>
</g>
</g>
<!-- Node1&#45;&gt;Node6 -->
<g id="edge5" class="edge">
<title>Node1&#45;&gt;Node6</title>
<path fill="none" stroke="midnightblue" d="M277.26,-574.33C276.84,-628.87 267.88,-782.46 184,-863.5 174.25,-872.92 161.25,-878.76 148.14,-882.34"/>
<polygon fill="midnightblue" stroke="midnightblue" points="280.76,-574.25 277.24,-564.25 273.76,-574.26 280.76,-574.25"/>
</g>
<!-- Node7 -->
<g id="node7" class="node">
<title>Node7</title>
<g id="a_node7"><a xlink:href="test__cmp__icu_8c_acd4ce1f38ffbf0d6258b81668836d96b.html#acd4ce1f38ffbf0d6258b81668836d96b" target="_top" xlink:title=" ">
<polygon fill="white" stroke="black" points="36,-823.5 36,-853.5 148,-853.5 148,-823.5 36,-823.5"/>
<text text-anchor="start" x="44" y="-841.5" font-family="Helvetica,sans-Serif" font-size="10.00">test_compress_f_fx</text>
<text text-anchor="middle" x="92" y="-830.5" font-family="Helvetica,sans-Serif" font-size="10.00">_efx_ncob_ecob</text>
</a>
</g>
</g>
<!-- Node1&#45;&gt;Node7 -->
<g id="edge6" class="edge">
<title>Node1&#45;&gt;Node7</title>
<path fill="none" stroke="midnightblue" d="M275.95,-574.37C272.27,-622.94 255.93,-748.48 184,-814.5 174.13,-823.56 161.25,-829.28 148.29,-832.87"/>
<polygon fill="midnightblue" stroke="midnightblue" points="279.45,-574.45 276.61,-564.25 272.46,-574 279.45,-574.45"/>
</g>
<!-- Node8 -->
<g id="node8" class="node">
<title>Node8</title>
<g id="a_node8"><a xlink:href="test__cmp__icu_8c_a5fdfb76e3f52d4283fdcbf5e05ac7dd9.html#a5fdfb76e3f52d4283fdcbf5e05ac7dd9" target="_top" xlink:title=" ">
<polygon fill="white" stroke="black" points="36,-774.5 36,-804.5 148,-804.5 148,-774.5 36,-774.5"/>
<text text-anchor="start" x="44" y="-792.5" font-family="Helvetica,sans-Serif" font-size="10.00">test_compress_f_fx</text>
<text text-anchor="middle" x="92" y="-781.5" font-family="Helvetica,sans-Serif" font-size="10.00">_error_cases</text>
</a>
</g>
</g>
<!-- Node1&#45;&gt;Node8 -->
<g id="edge7" class="edge">
<title>Node1&#45;&gt;Node8</title>
<path fill="none" stroke="midnightblue" d="M274.11,-574.25C266.91,-616.09 244.24,-714.06 184,-765.5 173.94,-774.09 161.13,-779.65 148.32,-783.24"/>
<polygon fill="midnightblue" stroke="midnightblue" points="277.59,-574.66 275.71,-564.23 270.68,-573.55 277.59,-574.66"/>
</g>
<!-- Node9 -->
<g id="node9" class="node">
<title>Node9</title>
<g id="a_node9"><a xlink:href="test__cmp__icu_8c_ad6a880fe71de66a8a98a3f97d9e736da.html#ad6a880fe71de66a8a98a3f97d9e736da" target="_top" xlink:title=" ">
<polygon fill="white" stroke="black" points="36,-725.5 36,-755.5 148,-755.5 148,-725.5 36,-725.5"/>
<text text-anchor="start" x="44" y="-743.5" font-family="Helvetica,sans-Serif" font-size="10.00">test_compress_f_fx</text>
<text text-anchor="middle" x="92" y="-732.5" font-family="Helvetica,sans-Serif" font-size="10.00">_ncob_error_cases</text>
</a>
</g>
</g>
<!-- Node1&#45;&gt;Node9 -->
<g id="edge8" class="edge">
<title>Node1&#45;&gt;Node9</title>
<path fill="none" stroke="midnightblue" d="M271.23,-573.88C260.11,-607.86 232.41,-678.12 184,-715.5 173.63,-723.51 160.85,-728.96 148.18,-732.66"/>
<polygon fill="midnightblue" stroke="midnightblue" points="274.61,-574.8 274.27,-564.21 267.93,-572.71 274.61,-574.8"/>
</g>
<!-- Node10 -->
<g id="node10" class="node">
<title>Node10</title>
<g id="a_node10"><a xlink:href="test__cmp__icu_8c_a99545cc4ea3f1aa22be006d201e43f6d.html#a99545cc4ea3f1aa22be006d201e43f6d" target="_top" xlink:title=" ">
<polygon fill="white" stroke="black" points="13,-687 13,-706 171,-706 171,-687 13,-687"/>
<text text-anchor="middle" x="92" y="-694" font-family="Helvetica,sans-Serif" font-size="10.00">test_compress_imagette_diff</text>
</a>
</g>
</g>
<!-- Node1&#45;&gt;Node10 -->
<g id="edge9" class="edge">
<title>Node1&#45;&gt;Node10</title>
<path fill="none" stroke="midnightblue" d="M268.25,-573.36C254.44,-600.88 224.91,-651.59 184,-677.5 177.86,-681.39 171.07,-684.49 164.05,-686.98"/>
<polygon fill="midnightblue" stroke="midnightblue" points="271.55,-574.57 272.76,-564.05 265.25,-571.52 271.55,-574.57"/>
</g>
<!-- Node11 -->
<g id="node11" class="node">
<title>Node11</title>
<g id="a_node11"><a xlink:href="test__cmp__icu_8c_a7c1162f048c55a098b4e6c1d9a0a884e.html#a7c1162f048c55a098b4e6c1d9a0a884e" target="_top" xlink:title=" ">
<polygon fill="white" stroke="black" points="23.5,-637.5 23.5,-667.5 160.5,-667.5 160.5,-637.5 23.5,-637.5"/>
<text text-anchor="start" x="31.5" y="-655.5" font-family="Helvetica,sans-Serif" font-size="10.00">test_compress_imagette</text>
<text text-anchor="middle" x="92" y="-644.5" font-family="Helvetica,sans-Serif" font-size="10.00">_model</text>
</a>
</g>
</g>
<!-- Node1&#45;&gt;Node11 -->
<g id="edge10" class="edge">
<title>Node1&#45;&gt;Node11</title>
<path fill="none" stroke="midnightblue" d="M260.45,-571.26C242.93,-588.08 213.75,-613.58 184,-628.5 176.7,-632.16 168.78,-635.31 160.76,-638.01"/>
<polygon fill="midnightblue" stroke="midnightblue" points="262.95,-573.71 267.64,-564.21 258.05,-568.71 262.95,-573.71"/>
</g>
<!-- Node12 -->
<g id="node12" class="node">
<title>Node12</title>
<g id="a_node12"><a xlink:href="test__cmp__icu_8c_a3c859fa9247c65ae7a43e2bd682448e2.html#a3c859fa9247c65ae7a43e2bd682448e2" target="_top" xlink:title=" ">
<polygon fill="white" stroke="black" points="23.5,-588.5 23.5,-618.5 160.5,-618.5 160.5,-588.5 23.5,-588.5"/>
<text text-anchor="start" x="31.5" y="-606.5" font-family="Helvetica,sans-Serif" font-size="10.00">test_compress_imagette</text>
<text text-anchor="middle" x="92" y="-595.5" font-family="Helvetica,sans-Serif" font-size="10.00">_stuff</text>
</a>
</g>
</g>
<!-- Node1&#45;&gt;Node12 -->
<g id="edge11" class="edge">
<title>Node1&#45;&gt;Node12</title>
<path fill="none" stroke="midnightblue" d="M231.98,-566.65C216.75,-570.75 199.64,-575.34 184,-579.5 173.11,-582.4 161.47,-585.48 150.29,-588.43"/>
<polygon fill="midnightblue" stroke="midnightblue" points="232.94,-570.02 241.68,-564.04 231.12,-563.26 232.94,-570.02"/>
</g>
<!-- Node13 -->
<g id="node13" class="node">
<title>Node13</title>
<g id="a_node13"><a xlink:href="test__cmp__icu_8c_a4d05bd6cb0b420d45886997161470259.html#a4d05bd6cb0b420d45886997161470259" target="_top" xlink:title=" ">
<polygon fill="white" stroke="black" points="36.5,-539.5 36.5,-569.5 147.5,-569.5 147.5,-539.5 36.5,-539.5"/>
<text text-anchor="start" x="44.5" y="-557.5" font-family="Helvetica,sans-Serif" font-size="10.00">test_compress_l_fx</text>
<text text-anchor="middle" x="92" y="-546.5" font-family="Helvetica,sans-Serif" font-size="10.00">_efx_error_cases</text>
</a>
</g>
</g>
<!-- Node1&#45;&gt;Node13 -->
<g id="edge12" class="edge">
<title>Node1&#45;&gt;Node13</title>
<path fill="none" stroke="midnightblue" d="M209.63,-554.5C189.24,-554.5 167.11,-554.5 147.66,-554.5"/>
<polygon fill="midnightblue" stroke="midnightblue" points="209.79,-558 219.79,-554.5 209.79,-551 209.79,-558"/>
</g>
<!-- Node14 -->
<g id="node14" class="node">
<title>Node14</title>
<g id="a_node14"><a xlink:href="test__cmp__icu_8c_a0d3532f9e6f2e6e0c4392049e06c627f.html#a0d3532f9e6f2e6e0c4392049e06c627f" target="_top" xlink:title=" ">
<polygon fill="white" stroke="black" points="14,-490.5 14,-520.5 170,-520.5 170,-490.5 14,-490.5"/>
<text text-anchor="start" x="22" y="-508.5" font-family="Helvetica,sans-Serif" font-size="10.00">test_compress_l_fx</text>
<text text-anchor="middle" x="92" y="-497.5" font-family="Helvetica,sans-Serif" font-size="10.00">_efx_ncob_ecob_error_cases</text>
</a>
</g>
</g>
<!-- Node1&#45;&gt;Node14 -->
<g id="edge13" class="edge">
<title>Node1&#45;&gt;Node14</title>
<path fill="none" stroke="midnightblue" d="M231.23,-542.31C206.48,-535.72 175.69,-527.52 149.47,-520.54"/>
<polygon fill="midnightblue" stroke="midnightblue" points="230.52,-545.74 241.09,-544.94 232.32,-538.98 230.52,-545.74"/>
</g>
<!-- Node15 -->
<g id="node15" class="node">
<title>Node15</title>
<g id="a_node15"><a xlink:href="test__cmp__icu_8c_a13a2a26bd2eac1bd622925c6dcfbfb2d.html#a13a2a26bd2eac1bd622925c6dcfbfb2d" target="_top" xlink:title=" ">
<polygon fill="white" stroke="black" points="36.5,-441.5 36.5,-471.5 147.5,-471.5 147.5,-441.5 36.5,-441.5"/>
<text text-anchor="start" x="44.5" y="-459.5" font-family="Helvetica,sans-Serif" font-size="10.00">test_compress_l_fx</text>
<text text-anchor="middle" x="92" y="-448.5" font-family="Helvetica,sans-Serif" font-size="10.00">_error_cases</text>
</a>
</g>
</g>
<!-- Node1&#45;&gt;Node15 -->
<g id="edge14" class="edge">
<title>Node1&#45;&gt;Node15</title>
<path fill="none" stroke="midnightblue" d="M260.37,-538.04C242.79,-521.5 213.57,-496.4 184,-481.5 172.73,-475.82 160.01,-471.3 147.73,-467.75"/>
<polygon fill="midnightblue" stroke="midnightblue" points="257.95,-540.56 267.59,-544.96 262.8,-535.51 257.95,-540.56"/>
</g>
<!-- Node16 -->
<g id="node16" class="node">
<title>Node16</title>
<g id="a_node16"><a xlink:href="test__cmp__icu_8c_ab725960063dc032566560118d582b79e.html#ab725960063dc032566560118d582b79e" target="_top" xlink:title=" ">
<polygon fill="white" stroke="black" points="36.5,-392.5 36.5,-422.5 147.5,-422.5 147.5,-392.5 36.5,-392.5"/>
<text text-anchor="start" x="44.5" y="-410.5" font-family="Helvetica,sans-Serif" font-size="10.00">test_compress_l_fx</text>
<text text-anchor="middle" x="92" y="-399.5" font-family="Helvetica,sans-Serif" font-size="10.00">_ncob_error_cases</text>
</a>
</g>
</g>
<!-- Node1&#45;&gt;Node16 -->
<g id="edge15" class="edge">
<title>Node1&#45;&gt;Node16</title>
<path fill="none" stroke="midnightblue" d="M267.78,-535.72C253.57,-508.74 223.73,-459.32 184,-432.5 173.27,-425.26 160.5,-420.11 147.97,-416.44"/>
<polygon fill="midnightblue" stroke="midnightblue" points="264.79,-537.55 272.45,-544.87 271.02,-534.37 264.79,-537.55"/>
</g>
<!-- Node17 -->
<g id="node17" class="node">
<title>Node17</title>
<g id="a_node17"><a xlink:href="test__cmp__icu_8c_a13bf5ba0481601697942a0a485f7631c.html#a13bf5ba0481601697942a0a485f7631c" target="_top" xlink:title=" ">
<polygon fill="white" stroke="black" points="31.5,-343.5 31.5,-373.5 152.5,-373.5 152.5,-343.5 31.5,-343.5"/>
<text text-anchor="start" x="39.5" y="-361.5" font-family="Helvetica,sans-Serif" font-size="10.00">test_compress_offset</text>
<text text-anchor="middle" x="92" y="-350.5" font-family="Helvetica,sans-Serif" font-size="10.00">_error_cases</text>
</a>
</g>
</g>
<!-- Node1&#45;&gt;Node17 -->
<g id="edge16" class="edge">
<title>Node1&#45;&gt;Node17</title>
<path fill="none" stroke="midnightblue" d="M271.88,-534.9C261.51,-499.23 234.64,-423.65 184,-383.5 174.88,-376.27 163.83,-371.13 152.6,-367.47"/>
<polygon fill="midnightblue" stroke="midnightblue" points="268.52,-535.91 274.57,-544.61 275.27,-534.04 268.52,-535.91"/>
</g>
<!-- Node18 -->
<g id="node18" class="node">
<title>Node18</title>
<g id="a_node18"><a xlink:href="test__cmp__icu_8c_a28f0f3239f94a5d75189300dd3ed35fc.html#a28f0f3239f94a5d75189300dd3ed35fc" target="_top" xlink:title=" ">
<polygon fill="white" stroke="black" points="35.5,-294.5 35.5,-324.5 148.5,-324.5 148.5,-294.5 35.5,-294.5"/>
<text text-anchor="start" x="43.5" y="-312.5" font-family="Helvetica,sans-Serif" font-size="10.00">test_compress_s_fx</text>
<text text-anchor="middle" x="92" y="-301.5" font-family="Helvetica,sans-Serif" font-size="10.00">_efx_error_cases</text>
</a>
</g>
</g>
<!-- Node1&#45;&gt;Node18 -->
<g id="edge17" class="edge">
<title>Node1&#45;&gt;Node18</title>
<path fill="none" stroke="midnightblue" d="M274.47,-534.85C267.88,-491.86 246.13,-388.93 184,-334.5 174.14,-325.86 161.56,-320.18 148.91,-316.45"/>
<polygon fill="midnightblue" stroke="midnightblue" points="271.02,-535.46 275.89,-544.87 277.95,-534.47 271.02,-535.46"/>
</g>
<!-- Node19 -->
<g id="node19" class="node">
<title>Node19</title>
<g id="a_node19"><a xlink:href="test__cmp__icu_8c_a90fd6057131bbf0c9b398c9c99bea3f2.html#a90fd6057131bbf0c9b398c9c99bea3f2" target="_top" xlink:title=" ">
<polygon fill="white" stroke="black" points="14,-245.5 14,-275.5 170,-275.5 170,-245.5 14,-245.5"/>
<text text-anchor="start" x="22" y="-263.5" font-family="Helvetica,sans-Serif" font-size="10.00">test_compress_s_fx</text>
<text text-anchor="middle" x="92" y="-252.5" font-family="Helvetica,sans-Serif" font-size="10.00">_efx_ncob_ecob_error_cases</text>
</a>
</g>
</g>
<!-- Node1&#45;&gt;Node19 -->
<g id="edge18" class="edge">
<title>Node1&#45;&gt;Node19</title>
<path fill="none" stroke="midnightblue" d="M276.18,-534.68C273.02,-485.08 257.76,-354.64 184,-285.5 179.82,-281.58 175.08,-278.26 170.01,-275.46"/>
<polygon fill="midnightblue" stroke="midnightblue" points="272.7,-535.18 276.73,-544.98 279.69,-534.81 272.7,-535.18"/>
</g>
<!-- Node20 -->
<g id="node20" class="node">
<title>Node20</title>
<g id="a_node20"><a xlink:href="test__cmp__icu_8c_aa29971f14aa8c01058cf5884ccfb0b46.html#aa29971f14aa8c01058cf5884ccfb0b46" target="_top" xlink:title=" ">
<polygon fill="white" stroke="black" points="35.5,-196.5 35.5,-226.5 148.5,-226.5 148.5,-196.5 35.5,-196.5"/>
<text text-anchor="start" x="43.5" y="-214.5" font-family="Helvetica,sans-Serif" font-size="10.00">test_compress_s_fx</text>
<text text-anchor="middle" x="92" y="-203.5" font-family="Helvetica,sans-Serif" font-size="10.00">_error_cases</text>
</a>
</g>
</g>
<!-- Node1&#45;&gt;Node20 -->
<g id="edge19" class="edge">
<title>Node1&#45;&gt;Node20</title>
<path fill="none" stroke="midnightblue" d="M277.41,-534.53C277.43,-478.89 269.56,-320.67 184,-236.5 174.42,-227.08 161.64,-221.13 148.7,-217.39"/>
<polygon fill="midnightblue" stroke="midnightblue" points="273.91,-534.75 277.32,-544.78 280.91,-534.82 273.91,-534.75"/>
</g>
<!-- Node21 -->
<g id="node21" class="node">
<title>Node21</title>
<g id="a_node21"><a xlink:href="test__cmp__icu_8c_a70a6d23f621dd0ce0ffb110b9c77116f.html#a70a6d23f621dd0ce0ffb110b9c77116f" target="_top" xlink:title=" ">
<polygon fill="white" stroke="black" points="35.5,-147.5 35.5,-177.5 148.5,-177.5 148.5,-147.5 35.5,-147.5"/>
<text text-anchor="start" x="43.5" y="-165.5" font-family="Helvetica,sans-Serif" font-size="10.00">test_compress_s_fx</text>
<text text-anchor="middle" x="92" y="-154.5" font-family="Helvetica,sans-Serif" font-size="10.00">_ncob_error_cases</text>
</a>
</g>
</g>
<!-- Node1&#45;&gt;Node21 -->
<g id="edge20" class="edge">
<title>Node1&#45;&gt;Node21</title>
<path fill="none" stroke="midnightblue" d="M274.6,-534.59C265.88,-465.61 233.8,-238.31 184,-187.5 174.6,-177.91 161.88,-171.89 148.94,-168.15"/>
<polygon fill="midnightblue" stroke="midnightblue" points="271.17,-535.41 275.87,-544.91 278.12,-534.55 271.17,-535.41"/>
</g>
<!-- Node22 -->
<g id="node22" class="node">
<title>Node22</title>
<g id="a_node22"><a xlink:href="test__cmp__icu_8c_aee4858f3ea226c6da9e4a9ed54475b1d.html#aee4858f3ea226c6da9e4a9ed54475b1d" target="_top" xlink:title=" ">
<polygon fill="white" stroke="black" points="22.5,-98.5 22.5,-128.5 161.5,-128.5 161.5,-98.5 22.5,-98.5"/>
<text text-anchor="start" x="30.5" y="-116.5" font-family="Helvetica,sans-Serif" font-size="10.00">test_compress_smearing</text>
<text text-anchor="middle" x="92" y="-105.5" font-family="Helvetica,sans-Serif" font-size="10.00">_error_cases</text>
</a>
</g>
</g>
<!-- Node1&#45;&gt;Node22 -->
<g id="edge21" class="edge">
<title>Node1&#45;&gt;Node22</title>
<path fill="none" stroke="midnightblue" d="M275.22,-534.41C268.17,-459.41 239.85,-197.11 184,-138.5 177.78,-131.98 170.04,-127.1 161.71,-123.47"/>
<polygon fill="midnightblue" stroke="midnightblue" points="271.77,-535.14 276.17,-544.78 278.74,-534.5 271.77,-535.14"/>
</g>
<!-- Node23 -->
<g id="node23" class="node">
<title>Node23</title>
<g id="a_node23"><a xlink:href="test__cmp__decmp_8c_af3c162694b40683e0aa25c61a49cdafc.html#af3c162694b40683e0aa25c61a49cdafc" target="_top" xlink:title="random compression decompression test">
<polygon fill="white" stroke="black" points="19,-49.5 19,-79.5 165,-79.5 165,-49.5 19,-49.5"/>
<text text-anchor="start" x="27" y="-67.5" font-family="Helvetica,sans-Serif" font-size="10.00">test_random_compression</text>
<text text-anchor="middle" x="92" y="-56.5" font-family="Helvetica,sans-Serif" font-size="10.00">_decompression</text>
</a>
</g>
</g>
<!-- Node1&#45;&gt;Node23 -->
<g id="edge22" class="edge">
<title>Node1&#45;&gt;Node23</title>
<path fill="none" stroke="midnightblue" d="M275.75,-534.67C270.29,-454.58 246.05,-156.1 184,-89.5 178.75,-83.87 172.36,-79.46 165.43,-76.02"/>
<polygon fill="midnightblue" stroke="midnightblue" points="272.27,-535.1 276.42,-544.85 279.25,-534.64 272.27,-535.1"/>
</g>
<!-- Node24 -->
<g id="node24" class="node">
<title>Node24</title>
<g id="a_node24"><a xlink:href="test__cmp__decmp_8c_abb20ed18a3c6ba0fc67ecef2d629dec0.html#abb20ed18a3c6ba0fc67ecef2d629dec0" target="_top" xlink:title=" ">
<polygon fill="white" stroke="black" points="19,-0.5 19,-30.5 165,-30.5 165,-0.5 19,-0.5"/>
<text text-anchor="start" x="27" y="-18.5" font-family="Helvetica,sans-Serif" font-size="10.00">test_random_compression</text>
<text text-anchor="middle" x="92" y="-7.5" font-family="Helvetica,sans-Serif" font-size="10.00">_decompression2</text>
</a>
</g>
</g>
<!-- Node1&#45;&gt;Node24 -->
<g id="edge23" class="edge">
<title>Node1&#45;&gt;Node24</title>
<path fill="none" stroke="midnightblue" d="M276.15,-534.52C272.12,-449.04 252.17,-115.03 184,-40.5 178.69,-34.7 172.18,-30.19 165.09,-26.7"/>
<polygon fill="midnightblue" stroke="midnightblue" points="272.66,-534.85 276.61,-544.69 279.66,-534.54 272.66,-534.85"/>
</g>
</g>
</svg>
        <g id="navigator" transform="translate(0 0)" fill="#404254">
                <rect fill="#f2f5e9" fill-opacity="0.5" stroke="#606060" stroke-width=".5" x="0" y="0" width="60" height="60"/>
                <use id="zoomplus" xlink:href="#zoomPlus" x="17" y="9" onmousedown="handleZoom(evt,'in')"/>
                <use id="zoomminus" xlink:href="#zoomMin" x="42" y="9" onmousedown="handleZoom(evt,'out')"/>
                <use id="reset" xlink:href="#resetDef" x="30" y="36" onmousedown="handleReset()"/>
                <g id="arrowUp" xlink:href="#dirArrow" transform="translate(30 24)" onmousedown="handlePan(0,-1)">
                  <use xlink:href="#rim" fill="#404040">
                        <set attributeName="fill" to="#808080" begin="arrowUp.mouseover" end="arrowUp.mouseout"/>
                  </use>
                  <path fill="none" stroke="white" stroke-width="1.5" d="M0,-3.0v7 M-2.5,-0.5L0,-3.0L2.5,-0.5"/>
                </g>
                <g id="arrowRight" xlink:href="#dirArrow" transform="rotate(90) translate(36 -43)" onmousedown="handlePan(1,0)">
                  <use xlink:href="#rim" fill="#404040">
                        <set attributeName="fill" to="#808080" begin="arrowRight.mouseover" end="arrowRight.mouseout"/>
                  </use>
                  <path fill="none" stroke="white" stroke-width="1.5" d="M0,-3.0v7 M-2.5,-0.5L0,-3.0L2.5,-0.5"/>
                </g>
                <g id="arrowDown" xlink:href="#dirArrow" transform="rotate(180) translate(-30 -48)" onmousedown="handlePan(0,1)">
                  <use xlink:href="#rim" fill="#404040">
                        <set attributeName="fill" to="#808080" begin="arrowDown.mouseover" end="arrowDown.mouseout"/>
                  </use>
                  <path fill="none" stroke="white" stroke-width="1.5" d="M0,-3.0v7 M-2.5,-0.5L0,-3.0L2.5,-0.5"/>
                </g>
                <g id="arrowLeft" xlink:href="#dirArrow" transform="rotate(270) translate(-36 17)" onmousedown="handlePan(-1,0)">
                  <use xlink:href="#rim" fill="#404040">
                        <set attributeName="fill" to="#808080" begin="arrowLeft.mouseover" end="arrowLeft.mouseout"/>
                  </use>
                  <path fill="none" stroke="white" stroke-width="1.5" d="M0,-3.0v7 M-2.5,-0.5L0,-3.0L2.5,-0.5"/>
                </g>
        </g>
        <svg viewBox="0 0 15 15" width="100%" height="30px" preserveAspectRatio="xMaxYMin meet">
         <g id="arrow_out" transform="scale(0.3 0.3)">
          <a xlink:href="cmp__icu_8c_a522a4086aef4920d08a232b7500635fa_a522a4086aef4920d08a232b7500635fa_icgraph_org.svg" target="_base">
           <rect id="button" ry="5" rx="5" y="6" x="6" height="38" width="38"
                fill="#f2f5e9" fill-opacity="0.5" stroke="#606060" stroke-width="1.0"/>
           <path id="arrow"
             d="M 11.500037,31.436501 C 11.940474,20.09759 22.043105,11.32322 32.158766,21.979434 L 37.068811,17.246167 C 37.068811,17.246167 37.088388,32 37.088388,32 L 22.160133,31.978069 C 22.160133,31.978069 26.997745,27.140456 26.997745,27.140456 C 18.528582,18.264221 13.291696,25.230495 11.500037,31.436501 z"
             style="fill:#404040;"/>
          </a>
         </g>
        </svg>
</svg>
