<?xml version="1.0" encoding="UTF-8" standalone="no"?>
<!DOCTYPE svg PUBLIC "-//W3C//DTD SVG 1.1//EN"
 "http://www.w3.org/Graphics/SVG/1.1/DTD/svg11.dtd">
<!-- Generated by graphviz version 2.43.0 (0)
 -->
<!-- Title: cmp_ent_build Pages: 1 -->
<svg width="1009pt" height="1396pt"
 viewBox="0.00 0.00 1009.00 1395.54" xmlns="http://www.w3.org/2000/svg" xmlns:xlink="http://www.w3.org/1999/xlink">
<g id="graph0" class="graph" transform="scale(1 1) rotate(0) translate(4 1391.54)">
<title>cmp_ent_build</title>
<polygon fill="white" stroke="transparent" points="-4,4 -4,-1391.54 1005,-1391.54 1005,4 -4,4"/>
<!-- Node1 -->
<g id="node1" class="node">
<title>Node1</title>
<g id="a_node1"><a xlink:title="create a compression entity and set the header fields">
<polygon fill="#bfbfbf" stroke="black" points="0,-1149.5 0,-1168.5 88,-1168.5 88,-1149.5 0,-1149.5"/>
<text text-anchor="middle" x="44" y="-1156.5" font-family="Helvetica,sans-Serif" font-size="10.00">cmp_ent_build</text>
</a>
</g>
</g>
<!-- Node2 -->
<g id="node2" class="node">
<title>Node2</title>
<g id="a_node2"><a xlink:href="cmp__support_8c_a9b2702244ffc1d51b81f38b909ce84b4.html#a9b2702244ffc1d51b81f38b909ce84b4" target="_top" xlink:title="calculate the need bytes to hold a bitstream">
<polygon fill="white" stroke="black" points="359,-1216.5 359,-1235.5 457,-1235.5 457,-1216.5 359,-1216.5"/>
<text text-anchor="middle" x="408" y="-1223.5" font-family="Helvetica,sans-Serif" font-size="10.00">cmp_bit_to_byte</text>
</a>
</g>
</g>
<!-- Node1&#45;&gt;Node2 -->
<g id="edge1" class="edge">
<title>Node1&#45;&gt;Node2</title>
<path fill="none" stroke="midnightblue" d="M54.6,-1168.93C68.45,-1182.5 95.52,-1206.24 124,-1216 198.36,-1241.49 290.24,-1239.04 348.74,-1233.6"/>
<polygon fill="midnightblue" stroke="midnightblue" points="349.3,-1237.07 358.9,-1232.6 348.61,-1230.1 349.3,-1237.07"/>
</g>
<!-- Node3 -->
<g id="node3" class="node">
<title>Node3</title>
<g id="a_node3"><a xlink:href="cmp__entity_8c_ac4f3e5eb03e7dc0f1a646dd150543af5.html#ac4f3e5eb03e7dc0f1a646dd150543af5" target="_top" xlink:title="calculate the size of the compression entity header based on a compression data product type">
<polygon fill="white" stroke="black" points="693,-1330.5 693,-1349.5 817,-1349.5 817,-1330.5 693,-1330.5"/>
<text text-anchor="middle" x="755" y="-1337.5" font-family="Helvetica,sans-Serif" font-size="10.00">cmp_ent_cal_hdr_size</text>
</a>
</g>
</g>
<!-- Node1&#45;&gt;Node3 -->
<g id="edge2" class="edge">
<title>Node1&#45;&gt;Node3</title>
<path fill="none" stroke="midnightblue" d="M47.29,-1168.5C54.05,-1194.46 76.54,-1266.96 124,-1302 304.57,-1435.34 599.57,-1379.61 710.23,-1352.02"/>
<polygon fill="midnightblue" stroke="midnightblue" points="711.22,-1355.38 720.05,-1349.53 709.49,-1348.6 711.22,-1355.38"/>
</g>
<!-- Node5 -->
<g id="node5" class="node">
<title>Node5</title>
<g id="a_node5"><a xlink:href="cmp__entity_8c_ae5d154b04722901866cadf9bcd523e03.html#ae5d154b04722901866cadf9bcd523e03" target="_top" xlink:title="create a compression entity by setting the size of the compression entity and the data product type i...">
<polygon fill="white" stroke="black" points="159,-1273.5 159,-1292.5 254,-1292.5 254,-1273.5 159,-1273.5"/>
<text text-anchor="middle" x="206.5" y="-1280.5" font-family="Helvetica,sans-Serif" font-size="10.00">cmp_ent_create</text>
</a>
</g>
</g>
<!-- Node1&#45;&gt;Node5 -->
<g id="edge4" class="edge">
<title>Node1&#45;&gt;Node5</title>
<path fill="none" stroke="midnightblue" d="M51.26,-1168.7C63.35,-1186.73 91.58,-1225.72 124,-1249 136.02,-1257.64 150.57,-1264.59 164.03,-1269.91"/>
<polygon fill="midnightblue" stroke="midnightblue" points="162.99,-1273.26 173.59,-1273.49 165.45,-1266.71 162.99,-1273.26"/>
</g>
<!-- Node8 -->
<g id="node8" class="node">
<title>Node8</title>
<g id="a_node8"><a xlink:href="cmp__entity_8c_a10639ed9811b6bfabc6dc65bf5e8744b.html#a10639ed9811b6bfabc6dc65bf5e8744b" target="_top" xlink:title="set the compression end timestamp in the compression entity header">
<polygon fill="white" stroke="black" points="126,-1187.5 126,-1206.5 287,-1206.5 287,-1187.5 126,-1187.5"/>
<text text-anchor="middle" x="206.5" y="-1194.5" font-family="Helvetica,sans-Serif" font-size="10.00">cmp_ent_set_end_timestamp</text>
</a>
</g>
</g>
<!-- Node1&#45;&gt;Node8 -->
<g id="edge8" class="edge">
<title>Node1&#45;&gt;Node8</title>
<path fill="none" stroke="midnightblue" d="M84.37,-1168.53C97.02,-1171.57 111.1,-1174.94 124,-1178 133.86,-1180.34 144.4,-1182.81 154.51,-1185.17"/>
<polygon fill="midnightblue" stroke="midnightblue" points="153.91,-1188.62 164.44,-1187.49 155.5,-1181.81 153.91,-1188.62"/>
</g>
<!-- Node9 -->
<g id="node9" class="node">
<title>Node9</title>
<g id="a_node9"><a xlink:href="cmp__entity_8c_a586be0b1abdf6f196322d0047091c02a.html#a586be0b1abdf6f196322d0047091c02a" target="_top" xlink:title="set model counter in the compression entity header">
<polygon fill="white" stroke="black" points="128,-1149.5 128,-1168.5 285,-1168.5 285,-1149.5 128,-1149.5"/>
<text text-anchor="middle" x="206.5" y="-1156.5" font-family="Helvetica,sans-Serif" font-size="10.00">cmp_ent_set_model_counter</text>
</a>
</g>
</g>
<!-- Node1&#45;&gt;Node9 -->
<g id="edge9" class="edge">
<title>Node1&#45;&gt;Node9</title>
<path fill="none" stroke="midnightblue" d="M88.01,-1159C97.27,-1159 107.39,-1159 117.67,-1159"/>
<polygon fill="midnightblue" stroke="midnightblue" points="117.98,-1162.5 127.98,-1159 117.98,-1155.5 117.98,-1162.5"/>
</g>
<!-- Node10 -->
<g id="node10" class="node">
<title>Node10</title>
<g id="a_node10"><a xlink:href="cmp__entity_8c_a22e5532a3ed65a5a0ebf7077ea3e0276.html#a22e5532a3ed65a5a0ebf7077ea3e0276" target="_top" xlink:title="set model id in the compression entity header">
<polygon fill="white" stroke="black" points="142,-1111.5 142,-1130.5 271,-1130.5 271,-1111.5 142,-1111.5"/>
<text text-anchor="middle" x="206.5" y="-1118.5" font-family="Helvetica,sans-Serif" font-size="10.00">cmp_ent_set_model_id</text>
</a>
</g>
</g>
<!-- Node1&#45;&gt;Node10 -->
<g id="edge10" class="edge">
<title>Node1&#45;&gt;Node10</title>
<path fill="none" stroke="midnightblue" d="M84.37,-1149.47C97.02,-1146.43 111.1,-1143.06 124,-1140 133.86,-1137.66 144.4,-1135.19 154.51,-1132.83"/>
<polygon fill="midnightblue" stroke="midnightblue" points="155.5,-1136.19 164.44,-1130.51 153.91,-1129.38 155.5,-1136.19"/>
</g>
<!-- Node11 -->
<g id="node11" class="node">
<title>Node11</title>
<g id="a_node11"><a xlink:href="cmp__entity_8c_a9dacc85a69c9e1dc19cafd38fb618cd6.html#a9dacc85a69c9e1dc19cafd38fb618cd6" target="_top" xlink:title="set the compression start timestamp in the compression entity header">
<polygon fill="white" stroke="black" points="124,-1073.5 124,-1092.5 289,-1092.5 289,-1073.5 124,-1073.5"/>
<text text-anchor="middle" x="206.5" y="-1080.5" font-family="Helvetica,sans-Serif" font-size="10.00">cmp_ent_set_start_timestamp</text>
</a>
</g>
</g>
<!-- Node1&#45;&gt;Node11 -->
<g id="edge11" class="edge">
<title>Node1&#45;&gt;Node11</title>
<path fill="none" stroke="midnightblue" d="M55.39,-1149.39C69.73,-1136.65 96.91,-1114.33 124,-1102 129.42,-1099.53 135.2,-1097.37 141.07,-1095.47"/>
<polygon fill="midnightblue" stroke="midnightblue" points="142.42,-1098.73 151.02,-1092.53 140.43,-1092.01 142.42,-1098.73"/>
</g>
<!-- Node12 -->
<g id="node12" class="node">
<title>Node12</title>
<g id="a_node12"><a xlink:href="cmp__entity_8c_abaea240d281fab698cbe5966aa947ac9.html#abaea240d281fab698cbe5966aa947ac9" target="_top" xlink:title="set ICU ASW Version ID in the compression entity header">
<polygon fill="white" stroke="black" points="139.5,-1035.5 139.5,-1054.5 273.5,-1054.5 273.5,-1035.5 139.5,-1035.5"/>
<text text-anchor="middle" x="206.5" y="-1042.5" font-family="Helvetica,sans-Serif" font-size="10.00">cmp_ent_set_version_id</text>
</a>
</g>
</g>
<!-- Node1&#45;&gt;Node12 -->
<g id="edge12" class="edge">
<title>Node1&#45;&gt;Node12</title>
<path fill="none" stroke="midnightblue" d="M50.09,-1149.43C60.92,-1130.04 88.22,-1086.09 124,-1064 127.45,-1061.87 131.11,-1059.98 134.9,-1058.3"/>
<polygon fill="midnightblue" stroke="midnightblue" points="136.49,-1061.44 144.54,-1054.55 133.96,-1054.92 136.49,-1061.44"/>
</g>
<!-- Node13 -->
<g id="node13" class="node">
<title>Node13</title>
<g id="a_node13"><a xlink:href="cmp__entity_8c_a553b4a765f1cfcd37f82a818db2cf2b9.html#a553b4a765f1cfcd37f82a818db2cf2b9" target="_top" xlink:title="write the compression parameters from a compression configuration into the compression entity header">
<polygon fill="white" stroke="black" points="136,-594.5 136,-613.5 277,-613.5 277,-594.5 136,-594.5"/>
<text text-anchor="middle" x="206.5" y="-601.5" font-family="Helvetica,sans-Serif" font-size="10.00">cmp_ent_write_cmp_pars</text>
</a>
</g>
</g>
<!-- Node1&#45;&gt;Node13 -->
<g id="edge13" class="edge">
<title>Node1&#45;&gt;Node13</title>
<path fill="none" stroke="midnightblue" d="M47.79,-1149.37C66.49,-1084.7 173.8,-713.62 199.82,-623.65"/>
<polygon fill="midnightblue" stroke="midnightblue" points="203.22,-624.48 202.64,-613.9 196.5,-622.53 203.22,-624.48"/>
</g>
<!-- Node4 -->
<g id="node4" class="node">
<title>Node4</title>
<g id="a_node4"><a xlink:href="cmp__support_8c_af2129b98a4b5c7f856e97776962d7881.html#af2129b98a4b5c7f856e97776962d7881" target="_top" xlink:title="check if the compression entity data product type is supported">
<polygon fill="white" stroke="black" points="858,-1330.5 858,-1349.5 1001,-1349.5 1001,-1330.5 858,-1330.5"/>
<text text-anchor="middle" x="929.5" y="-1337.5" font-family="Helvetica,sans-Serif" font-size="10.00">cmp_data_type_is_invalid</text>
</a>
</g>
</g>
<!-- Node3&#45;&gt;Node4 -->
<g id="edge3" class="edge">
<title>Node3&#45;&gt;Node4</title>
<path fill="none" stroke="midnightblue" d="M817.3,-1340C827.18,-1340 837.54,-1340 847.79,-1340"/>
<polygon fill="midnightblue" stroke="midnightblue" points="847.98,-1343.5 857.98,-1340 847.98,-1336.5 847.98,-1343.5"/>
</g>
<!-- Node5&#45;&gt;Node3 -->
<g id="edge5" class="edge">
<title>Node5&#45;&gt;Node3</title>
<path fill="none" stroke="midnightblue" d="M230.88,-1292.63C254.25,-1301.75 291.45,-1314.95 325,-1321 449.26,-1343.42 596.87,-1344.49 682.55,-1342.65"/>
<polygon fill="midnightblue" stroke="midnightblue" points="682.77,-1346.14 692.69,-1342.41 682.61,-1339.15 682.77,-1346.14"/>
</g>
<!-- Node6 -->
<g id="node6" class="node">
<title>Node6</title>
<g id="a_node6"><a xlink:href="cmp__entity_8c_a567aa2ec3b505398d8fd9308c67a388b.html#a567aa2ec3b505398d8fd9308c67a388b" target="_top" xlink:title="set the compression data product type in the compression entity header">
<polygon fill="white" stroke="black" points="341.5,-1292.5 341.5,-1311.5 474.5,-1311.5 474.5,-1292.5 341.5,-1292.5"/>
<text text-anchor="middle" x="408" y="-1299.5" font-family="Helvetica,sans-Serif" font-size="10.00">cmp_ent_set_data_type</text>
</a>
</g>
</g>
<!-- Node5&#45;&gt;Node6 -->
<g id="edge6" class="edge">
<title>Node5&#45;&gt;Node6</title>
<path fill="none" stroke="midnightblue" d="M254.02,-1287.43C276.99,-1289.62 305.29,-1292.31 331.28,-1294.79"/>
<polygon fill="midnightblue" stroke="midnightblue" points="331.2,-1298.3 341.49,-1295.76 331.86,-1291.33 331.2,-1298.3"/>
</g>
<!-- Node7 -->
<g id="node7" class="node">
<title>Node7</title>
<g id="a_node7"><a xlink:href="cmp__entity_8c_ad51f7534273be20a0c2c36bda1fc98f5.html#ad51f7534273be20a0c2c36bda1fc98f5" target="_top" xlink:title="set the size of the compression entity in the entity header">
<polygon fill="white" stroke="black" points="356,-1254.5 356,-1273.5 460,-1273.5 460,-1254.5 356,-1254.5"/>
<text text-anchor="middle" x="408" y="-1261.5" font-family="Helvetica,sans-Serif" font-size="10.00">cmp_ent_set_size</text>
</a>
</g>
</g>
<!-- Node5&#45;&gt;Node7 -->
<g id="edge7" class="edge">
<title>Node5&#45;&gt;Node7</title>
<path fill="none" stroke="midnightblue" d="M254.02,-1278.57C281.32,-1275.97 316.13,-1272.65 345.65,-1269.84"/>
<polygon fill="midnightblue" stroke="midnightblue" points="346.22,-1273.3 355.85,-1268.87 345.56,-1266.34 346.22,-1273.3"/>
</g>
<!-- Node13&#45;&gt;Node2 -->
<g id="edge14" class="edge">
<title>Node13&#45;&gt;Node2</title>
<path fill="none" stroke="midnightblue" d="M209.42,-613.94C224.51,-692.15 323.63,-1205.58 325,-1207 331.56,-1213.79 340.03,-1218.37 349.03,-1221.41"/>
<polygon fill="midnightblue" stroke="midnightblue" points="348.38,-1224.86 358.95,-1224.15 350.24,-1218.11 348.38,-1224.86"/>
</g>
<!-- Node14 -->
<g id="node14" class="node">
<title>Node14</title>
<g id="a_node14"><a xlink:href="cmp__data__types_8c_aafa65f72ed4d0fb99beb11c37f11ce52.html#aafa65f72ed4d0fb99beb11c37f11ce52" target="_top" xlink:title="calculate the need bytes for the data">
<polygon fill="white" stroke="black" points="346,-463.5 346,-482.5 470,-482.5 470,-463.5 346,-463.5"/>
<text text-anchor="middle" x="408" y="-470.5" font-family="Helvetica,sans-Serif" font-size="10.00">cmp_cal_size_of_data</text>
</a>
</g>
</g>
<!-- Node13&#45;&gt;Node14 -->
<g id="edge15" class="edge">
<title>Node13&#45;&gt;Node14</title>
<path fill="none" stroke="midnightblue" d="M214.54,-594.44C231.14,-572.6 275.14,-518.89 325,-492 329.28,-489.69 333.83,-487.67 338.5,-485.88"/>
<polygon fill="midnightblue" stroke="midnightblue" points="339.91,-489.1 348.24,-482.56 337.65,-482.48 339.91,-489.1"/>
</g>
<!-- Node17 -->
<g id="node17" class="node">
<title>Node17</title>
<g id="a_node17"><a xlink:href="cmp__entity_8c_a6fc83a1c918c2d0c565f8f828fce62b7.html#a6fc83a1c918c2d0c565f8f828fce62b7" target="_top" xlink:title="get the size of the compressed data based on the set data product type and compressed entity size in ...">
<polygon fill="white" stroke="black" points="329,-425.5 329,-444.5 487,-444.5 487,-425.5 329,-425.5"/>
<text text-anchor="middle" x="408" y="-432.5" font-family="Helvetica,sans-Serif" font-size="10.00">cmp_ent_get_cmp_data_size</text>
</a>
</g>
</g>
<!-- Node13&#45;&gt;Node17 -->
<g id="edge18" class="edge">
<title>Node13&#45;&gt;Node17</title>
<path fill="none" stroke="midnightblue" d="M212.03,-594.44C225.27,-567.61 266.68,-491.13 325,-454 328.21,-451.96 331.61,-450.13 335.14,-448.5"/>
<polygon fill="midnightblue" stroke="midnightblue" points="336.75,-451.63 344.71,-444.63 334.13,-445.14 336.75,-451.63"/>
</g>
<!-- Node19 -->
<g id="node19" class="node">
<title>Node19</title>
<g id="a_node19"><a xlink:href="cmp__entity_8c_a2f2b18a1db94847afbfc30a8e7f142cf.html#a2f2b18a1db94847afbfc30a8e7f142cf" target="_top" xlink:title="get data_type from the compression entity header">
<polygon fill="white" stroke="black" points="688,-446.5 688,-465.5 822,-465.5 822,-446.5 688,-446.5"/>
<text text-anchor="middle" x="755" y="-453.5" font-family="Helvetica,sans-Serif" font-size="10.00">cmp_ent_get_data_type</text>
</a>
</g>
</g>
<!-- Node13&#45;&gt;Node19 -->
<g id="edge24" class="edge">
<title>Node13&#45;&gt;Node19</title>
<path fill="none" stroke="midnightblue" d="M210.01,-594.16C218.94,-561.45 252.62,-456.12 325,-416 458.1,-342.23 650.56,-410.96 724,-442.3"/>
<polygon fill="midnightblue" stroke="midnightblue" points="722.98,-445.68 733.55,-446.46 725.78,-439.26 722.98,-445.68"/>
</g>
<!-- Node20 -->
<g id="node20" class="node">
<title>Node20</title>
<g id="a_node20"><a xlink:href="cmp__entity_8c_a8edb7fa093195536f03038be2a5341a4.html#a8edb7fa093195536f03038be2a5341a4" target="_top" xlink:title="get the raw bit from the data_type field of the compression entity header">
<polygon fill="white" stroke="black" points="688,-362 688,-392 822,-392 822,-362 688,-362"/>
<text text-anchor="start" x="696" y="-380" font-family="Helvetica,sans-Serif" font-size="10.00">cmp_ent_get_data_type</text>
<text text-anchor="middle" x="755" y="-369" font-family="Helvetica,sans-Serif" font-size="10.00">_raw_bit</text>
</a>
</g>
</g>
<!-- Node13&#45;&gt;Node20 -->
<g id="edge25" class="edge">
<title>Node13&#45;&gt;Node20</title>
<path fill="none" stroke="midnightblue" d="M209.01,-594.45C215.27,-558.4 242.88,-430.05 325,-380 382.15,-345.17 570.45,-357.76 677.62,-368.36"/>
<polygon fill="midnightblue" stroke="midnightblue" points="677.43,-371.86 687.73,-369.38 678.14,-364.89 677.43,-371.86"/>
</g>
<!-- Node22 -->
<g id="node22" class="node">
<title>Node22</title>
<g id="a_node22"><a xlink:href="cmp__entity_8c_ad021295d7f4a0337c722d2231b1194b0.html#ad021295d7f4a0337c722d2231b1194b0" target="_top" xlink:title="set the used compression mode in the compression entity header">
<polygon fill="white" stroke="black" points="339,-311.5 339,-330.5 477,-330.5 477,-311.5 339,-311.5"/>
<text text-anchor="middle" x="408" y="-318.5" font-family="Helvetica,sans-Serif" font-size="10.00">cmp_ent_set_cmp_mode</text>
</a>
</g>
</g>
<!-- Node13&#45;&gt;Node22 -->
<g id="edge26" class="edge">
<title>Node13&#45;&gt;Node22</title>
<path fill="none" stroke="midnightblue" d="M208.95,-594.3C215.15,-556.3 242.96,-416.2 325,-345 329.78,-340.85 335.24,-337.42 341.03,-334.58"/>
<polygon fill="midnightblue" stroke="midnightblue" points="342.52,-337.75 350.33,-330.59 339.76,-331.32 342.52,-337.75"/>
</g>
<!-- Node23 -->
<g id="node23" class="node">
<title>Node23</title>
<g id="a_node23"><a xlink:href="cmp__entity_8c_a8b5ffc6bbde573699f7ea678d580d27d.html#a8b5ffc6bbde573699f7ea678d580d27d" target="_top" xlink:title="set adaptive 1 Golomb parameter in the adaptive imagette specific compression entity header">
<polygon fill="white" stroke="black" points="345,-262 345,-292 471,-292 471,-262 345,-262"/>
<text text-anchor="start" x="353" y="-280" font-family="Helvetica,sans-Serif" font-size="10.00">cmp_ent_set_ima_ap1</text>
<text text-anchor="middle" x="408" y="-269" font-family="Helvetica,sans-Serif" font-size="10.00">_golomb_par</text>
</a>
</g>
</g>
<!-- Node13&#45;&gt;Node23 -->
<g id="edge27" class="edge">
<title>Node13&#45;&gt;Node23</title>
<path fill="none" stroke="midnightblue" d="M208.27,-594.49C212.13,-553.15 233.02,-387.32 325,-302 328.34,-298.9 332.06,-296.18 336.02,-293.8"/>
<polygon fill="midnightblue" stroke="midnightblue" points="337.75,-296.84 345,-289.11 334.51,-290.64 337.75,-296.84"/>
</g>
<!-- Node24 -->
<g id="node24" class="node">
<title>Node24</title>
<g id="a_node24"><a xlink:href="cmp__entity_8c_a0193596a3fc1047e67384991d303dae5.html#a0193596a3fc1047e67384991d303dae5" target="_top" xlink:title=" ">
<polygon fill="white" stroke="black" points="345,-213 345,-243 471,-243 471,-213 345,-213"/>
<text text-anchor="start" x="353" y="-231" font-family="Helvetica,sans-Serif" font-size="10.00">cmp_ent_set_ima_ap1</text>
<text text-anchor="middle" x="408" y="-220" font-family="Helvetica,sans-Serif" font-size="10.00">_spill</text>
</a>
</g>
</g>
<!-- Node13&#45;&gt;Node24 -->
<g id="edge28" class="edge">
<title>Node13&#45;&gt;Node24</title>
<path fill="none" stroke="midnightblue" d="M207.65,-594.49C208.9,-549.14 220.37,-352.79 325,-252 328.27,-248.85 331.94,-246.1 335.85,-243.72"/>
<polygon fill="midnightblue" stroke="midnightblue" points="337.53,-246.79 344.77,-239.05 334.29,-240.59 337.53,-246.79"/>
</g>
<!-- Node25 -->
<g id="node25" class="node">
<title>Node25</title>
<g id="a_node25"><a xlink:href="cmp__entity_8c_a4dc8c50598ca23dae683cd37618e0000.html#a4dc8c50598ca23dae683cd37618e0000" target="_top" xlink:title="set adaptive 2 Golomb parameter in the adaptive imagette specific compression entity header">
<polygon fill="white" stroke="black" points="345,-164 345,-194 471,-194 471,-164 345,-164"/>
<text text-anchor="start" x="353" y="-182" font-family="Helvetica,sans-Serif" font-size="10.00">cmp_ent_set_ima_ap2</text>
<text text-anchor="middle" x="408" y="-171" font-family="Helvetica,sans-Serif" font-size="10.00">_golomb_par</text>
</a>
</g>
</g>
<!-- Node13&#45;&gt;Node25 -->
<g id="edge29" class="edge">
<title>Node13&#45;&gt;Node25</title>
<path fill="none" stroke="midnightblue" d="M207.2,-594.21C206.23,-544.67 208.54,-319.43 325,-203 328.27,-199.73 331.97,-196.89 335.94,-194.44"/>
<polygon fill="midnightblue" stroke="midnightblue" points="337.78,-197.43 344.99,-189.67 334.51,-191.24 337.78,-197.43"/>
</g>
<!-- Node26 -->
<g id="node26" class="node">
<title>Node26</title>
<g id="a_node26"><a xlink:href="cmp__entity_8c_a4696ca79f327709dba461878ca481d54.html#a4696ca79f327709dba461878ca481d54" target="_top" xlink:title=" ">
<polygon fill="white" stroke="black" points="345,-115 345,-145 471,-145 471,-115 345,-115"/>
<text text-anchor="start" x="353" y="-133" font-family="Helvetica,sans-Serif" font-size="10.00">cmp_ent_set_ima_ap2</text>
<text text-anchor="middle" x="408" y="-122" font-family="Helvetica,sans-Serif" font-size="10.00">_spill</text>
</a>
</g>
</g>
<!-- Node13&#45;&gt;Node26 -->
<g id="edge30" class="edge">
<title>Node13&#45;&gt;Node26</title>
<path fill="none" stroke="midnightblue" d="M208.73,-594.27C216.45,-534.82 259.89,-221.05 325,-154 328.23,-150.68 331.88,-147.81 335.82,-145.33"/>
<polygon fill="midnightblue" stroke="midnightblue" points="337.66,-148.32 344.83,-140.51 334.36,-142.15 337.66,-148.32"/>
</g>
<!-- Node27 -->
<g id="node27" class="node">
<title>Node27</title>
<g id="a_node27"><a xlink:href="cmp__entity_8c_ae8a6e666a0ecf3bde65cefa3ae38dd21.html#ae8a6e666a0ecf3bde65cefa3ae38dd21" target="_top" xlink:title="set used Golomb parameter in the (adaptive) imagette specific compression entity header">
<polygon fill="white" stroke="black" points="325,-76.5 325,-95.5 491,-95.5 491,-76.5 325,-76.5"/>
<text text-anchor="middle" x="408" y="-83.5" font-family="Helvetica,sans-Serif" font-size="10.00">cmp_ent_set_ima_golomb_par</text>
</a>
</g>
</g>
<!-- Node13&#45;&gt;Node27 -->
<g id="edge31" class="edge">
<title>Node13&#45;&gt;Node27</title>
<path fill="none" stroke="midnightblue" d="M208.4,-594.41C214.47,-531.51 251.55,-178.19 325,-105 326.44,-103.57 327.96,-102.24 329.55,-101"/>
<polygon fill="midnightblue" stroke="midnightblue" points="331.52,-103.89 338.05,-95.55 327.75,-98 331.52,-103.89"/>
</g>
<!-- Node28 -->
<g id="node28" class="node">
<title>Node28</title>
<g id="a_node28"><a xlink:href="cmp__entity_8c_aaf2a65e24eb510577c6521f3929d9a63.html#aaf2a65e24eb510577c6521f3929d9a63" target="_top" xlink:title="set the used spillover threshold parameter in the (adaptive) imagette specific compression entity hea...">
<polygon fill="white" stroke="black" points="344,-38.5 344,-57.5 472,-57.5 472,-38.5 344,-38.5"/>
<text text-anchor="middle" x="408" y="-45.5" font-family="Helvetica,sans-Serif" font-size="10.00">cmp_ent_set_ima_spill</text>
</a>
</g>
</g>
<!-- Node13&#45;&gt;Node28 -->
<g id="edge32" class="edge">
<title>Node13&#45;&gt;Node28</title>
<path fill="none" stroke="midnightblue" d="M208.25,-594.12C213.48,-527.69 246.7,-146.27 325,-67 327.92,-64.04 331.2,-61.51 334.73,-59.34"/>
<polygon fill="midnightblue" stroke="midnightblue" points="336.61,-62.31 343.95,-54.67 333.45,-56.07 336.61,-62.31"/>
</g>
<!-- Node29 -->
<g id="node29" class="node">
<title>Node29</title>
<g id="a_node29"><a xlink:href="cmp__entity_8c_a9a96fdc3bd0053e965c962eb99e2dc2e.html#a9a96fdc3bd0053e965c962eb99e2dc2e" target="_top" xlink:title="set the used lossy compression parameter in the compression entity header">
<polygon fill="white" stroke="black" points="329.5,-0.5 329.5,-19.5 486.5,-19.5 486.5,-0.5 329.5,-0.5"/>
<text text-anchor="middle" x="408" y="-7.5" font-family="Helvetica,sans-Serif" font-size="10.00">cmp_ent_set_lossy_cmp_par</text>
</a>
</g>
</g>
<!-- Node13&#45;&gt;Node29 -->
<g id="edge33" class="edge">
<title>Node13&#45;&gt;Node29</title>
<path fill="none" stroke="midnightblue" d="M208.08,-594.32C212.4,-525.85 241.64,-114.57 325,-29 326.26,-27.7 327.59,-26.49 328.98,-25.35"/>
<polygon fill="midnightblue" stroke="midnightblue" points="331.17,-28.1 337.54,-19.63 327.28,-22.28 331.17,-28.1"/>
</g>
<!-- Node30 -->
<g id="node30" class="node">
<title>Node30</title>
<g id="a_node30"><a xlink:href="cmp__entity_8c_aaf83e1291af78fdd1d6d3ce5b8e2e9da.html#aaf83e1291af78fdd1d6d3ce5b8e2e9da" target="_top" xlink:title="set version identifier for the maximum used bits registry in the compression entity header">
<polygon fill="white" stroke="black" points="341,-1167 341,-1197 475,-1197 475,-1167 341,-1167"/>
<text text-anchor="start" x="349" y="-1185" font-family="Helvetica,sans-Serif" font-size="10.00">cmp_ent_set_max_used</text>
<text text-anchor="middle" x="408" y="-1174" font-family="Helvetica,sans-Serif" font-size="10.00">_bits_version</text>
</a>
</g>
</g>
<!-- Node13&#45;&gt;Node30 -->
<g id="edge34" class="edge">
<title>Node13&#45;&gt;Node30</title>
<path fill="none" stroke="midnightblue" d="M209.26,-613.66C222.44,-685.61 305.47,-1135.7 325,-1157 327.26,-1159.47 329.76,-1161.7 332.44,-1163.71"/>
<polygon fill="midnightblue" stroke="midnightblue" points="330.62,-1166.7 340.94,-1169.11 334.37,-1160.79 330.62,-1166.7"/>
</g>
<!-- Node31 -->
<g id="node31" class="node">
<title>Node31</title>
<g id="a_node31"><a xlink:href="cmp__entity_8c_a62ce924b62513abc25d2c3a9f79890ac.html#a62ce924b62513abc25d2c3a9f79890ac" target="_top" xlink:title="set the used model weighing value in the compression entity header">
<polygon fill="white" stroke="black" points="334.5,-1128.5 334.5,-1147.5 481.5,-1147.5 481.5,-1128.5 334.5,-1128.5"/>
<text text-anchor="middle" x="408" y="-1135.5" font-family="Helvetica,sans-Serif" font-size="10.00">cmp_ent_set_model_value</text>
</a>
</g>
</g>
<!-- Node13&#45;&gt;Node31 -->
<g id="edge35" class="edge">
<title>Node13&#45;&gt;Node31</title>
<path fill="none" stroke="midnightblue" d="M209.12,-613.91C220.32,-682.18 287.13,-1081 325,-1119 326.43,-1120.44 327.95,-1121.77 329.54,-1123.02"/>
<polygon fill="midnightblue" stroke="midnightblue" points="327.72,-1126.01 338.02,-1128.48 331.51,-1120.12 327.72,-1126.01"/>
</g>
<!-- Node32 -->
<g id="node32" class="node">
<title>Node32</title>
<g id="a_node32"><a xlink:href="cmp__entity_8c_aed5298f52ddca4254e863dc9eb9bbcb3.html#aed5298f52ddca4254e863dc9eb9bbcb3" target="_top" xlink:title="set used compression parameter 1 in the non&#45;imagette specific compression entity header">
<polygon fill="white" stroke="black" points="345,-1079 345,-1109 471,-1109 471,-1079 345,-1079"/>
<text text-anchor="start" x="353" y="-1097" font-family="Helvetica,sans-Serif" font-size="10.00">cmp_ent_set_non_ima</text>
<text text-anchor="middle" x="408" y="-1086" font-family="Helvetica,sans-Serif" font-size="10.00">_cmp_par1</text>
</a>
</g>
</g>
<!-- Node13&#45;&gt;Node32 -->
<g id="edge36" class="edge">
<title>Node13&#45;&gt;Node32</title>
<path fill="none" stroke="midnightblue" d="M208.63,-613.68C215.91,-674.21 257.87,-1000.28 325,-1070 328.21,-1073.34 331.86,-1076.21 335.79,-1078.7"/>
<polygon fill="midnightblue" stroke="midnightblue" points="334.32,-1081.88 344.78,-1083.53 337.63,-1075.71 334.32,-1081.88"/>
</g>
<!-- Node33 -->
<g id="node33" class="node">
<title>Node33</title>
<g id="a_node33"><a xlink:href="cmp__entity_8c_a163d27566f8219d33e276c1bccc61605.html#a163d27566f8219d33e276c1bccc61605" target="_top" xlink:title="set used compression parameter 2 in the non&#45;imagette specific compression entity header">
<polygon fill="white" stroke="black" points="345,-1030 345,-1060 471,-1060 471,-1030 345,-1030"/>
<text text-anchor="start" x="353" y="-1048" font-family="Helvetica,sans-Serif" font-size="10.00">cmp_ent_set_non_ima</text>
<text text-anchor="middle" x="408" y="-1037" font-family="Helvetica,sans-Serif" font-size="10.00">_cmp_par2</text>
</a>
</g>
</g>
<!-- Node13&#45;&gt;Node33 -->
<g id="edge37" class="edge">
<title>Node13&#45;&gt;Node33</title>
<path fill="none" stroke="midnightblue" d="M207.08,-613.5C205.41,-663.57 204.35,-899.13 325,-1021 328.26,-1024.29 331.94,-1027.14 335.9,-1029.6"/>
<polygon fill="midnightblue" stroke="midnightblue" points="334.46,-1032.79 344.93,-1034.39 337.74,-1026.61 334.46,-1032.79"/>
</g>
<!-- Node34 -->
<g id="node34" class="node">
<title>Node34</title>
<g id="a_node34"><a xlink:href="cmp__entity_8c_af36df22b3611828aa65508b3837d32f8.html#af36df22b3611828aa65508b3837d32f8" target="_top" xlink:title="set used compression parameter 3 in the non&#45;imagette specific compression entity header">
<polygon fill="white" stroke="black" points="345,-981 345,-1011 471,-1011 471,-981 345,-981"/>
<text text-anchor="start" x="353" y="-999" font-family="Helvetica,sans-Serif" font-size="10.00">cmp_ent_set_non_ima</text>
<text text-anchor="middle" x="408" y="-988" font-family="Helvetica,sans-Serif" font-size="10.00">_cmp_par3</text>
</a>
</g>
</g>
<!-- Node13&#45;&gt;Node34 -->
<g id="edge38" class="edge">
<title>Node13&#45;&gt;Node34</title>
<path fill="none" stroke="midnightblue" d="M207.49,-613.62C208,-660.38 216.53,-866.14 325,-972 328.25,-975.17 331.9,-977.93 335.8,-980.33"/>
<polygon fill="midnightblue" stroke="midnightblue" points="334.22,-983.45 344.7,-985.02 337.49,-977.26 334.22,-983.45"/>
</g>
<!-- Node35 -->
<g id="node35" class="node">
<title>Node35</title>
<g id="a_node35"><a xlink:href="cmp__entity_8c_aee11ab5bb119a37fbd63e7e7134acd7a.html#aee11ab5bb119a37fbd63e7e7134acd7a" target="_top" xlink:title="set used compression parameter 4 in the non&#45;imagette specific compression entity header">
<polygon fill="white" stroke="black" points="345,-932 345,-962 471,-962 471,-932 345,-932"/>
<text text-anchor="start" x="353" y="-950" font-family="Helvetica,sans-Serif" font-size="10.00">cmp_ent_set_non_ima</text>
<text text-anchor="middle" x="408" y="-939" font-family="Helvetica,sans-Serif" font-size="10.00">_cmp_par4</text>
</a>
</g>
</g>
<!-- Node13&#45;&gt;Node35 -->
<g id="edge39" class="edge">
<title>Node13&#45;&gt;Node35</title>
<path fill="none" stroke="midnightblue" d="M208.04,-613.77C210.96,-656.99 228.6,-832.96 325,-923 328.32,-926.1 332.02,-928.81 335.96,-931.16"/>
<polygon fill="midnightblue" stroke="midnightblue" points="334.43,-934.31 344.93,-935.78 337.64,-928.09 334.43,-934.31"/>
</g>
<!-- Node36 -->
<g id="node36" class="node">
<title>Node36</title>
<g id="a_node36"><a xlink:href="cmp__entity_8c_a08efcd54258bfa5c209deec92ea8819d.html#a08efcd54258bfa5c209deec92ea8819d" target="_top" xlink:title="set used compression parameter 5 in the non&#45;imagette specific compression entity header">
<polygon fill="white" stroke="black" points="345,-883 345,-913 471,-913 471,-883 345,-883"/>
<text text-anchor="start" x="353" y="-901" font-family="Helvetica,sans-Serif" font-size="10.00">cmp_ent_set_non_ima</text>
<text text-anchor="middle" x="408" y="-890" font-family="Helvetica,sans-Serif" font-size="10.00">_cmp_par5</text>
</a>
</g>
</g>
<!-- Node13&#45;&gt;Node36 -->
<g id="edge40" class="edge">
<title>Node13&#45;&gt;Node36</title>
<path fill="none" stroke="midnightblue" d="M208.74,-613.57C214.26,-652.35 240.25,-799.29 325,-874 328.25,-876.87 331.84,-879.4 335.63,-881.62"/>
<polygon fill="midnightblue" stroke="midnightblue" points="334.3,-884.87 344.8,-886.29 337.47,-878.63 334.3,-884.87"/>
</g>
<!-- Node37 -->
<g id="node37" class="node">
<title>Node37</title>
<g id="a_node37"><a xlink:href="cmp__entity_8c_a2bbb2d5043bf11053702cbf429b7127c.html#a2bbb2d5043bf11053702cbf429b7127c" target="_top" xlink:title="set used compression parameter 6 in the non&#45;imagette specific compression entity header">
<polygon fill="white" stroke="black" points="345,-834 345,-864 471,-864 471,-834 345,-834"/>
<text text-anchor="start" x="353" y="-852" font-family="Helvetica,sans-Serif" font-size="10.00">cmp_ent_set_non_ima</text>
<text text-anchor="middle" x="408" y="-841" font-family="Helvetica,sans-Serif" font-size="10.00">_cmp_par6</text>
</a>
</g>
</g>
<!-- Node13&#45;&gt;Node37 -->
<g id="edge41" class="edge">
<title>Node13&#45;&gt;Node37</title>
<path fill="none" stroke="midnightblue" d="M209.76,-613.68C218.3,-648.06 251.88,-765.46 325,-825 328.3,-827.69 331.89,-830.07 335.66,-832.19"/>
<polygon fill="midnightblue" stroke="midnightblue" points="334.23,-835.39 344.75,-836.67 337.33,-829.11 334.23,-835.39"/>
</g>
<!-- Node38 -->
<g id="node38" class="node">
<title>Node38</title>
<g id="a_node38"><a xlink:href="cmp__entity_8c_a7e5b486dfbccd42d6f99635c40d5b7a6.html#a7e5b486dfbccd42d6f99635c40d5b7a6" target="_top" xlink:title=" ">
<polygon fill="white" stroke="black" points="345,-785 345,-815 471,-815 471,-785 345,-785"/>
<text text-anchor="start" x="353" y="-803" font-family="Helvetica,sans-Serif" font-size="10.00">cmp_ent_set_non_ima</text>
<text text-anchor="middle" x="408" y="-792" font-family="Helvetica,sans-Serif" font-size="10.00">_spill1</text>
</a>
</g>
</g>
<!-- Node13&#45;&gt;Node38 -->
<g id="edge42" class="edge">
<title>Node13&#45;&gt;Node38</title>
<path fill="none" stroke="midnightblue" d="M211.22,-613.5C223.1,-642.56 262.97,-730.95 325,-776 328.28,-778.38 331.8,-780.53 335.46,-782.47"/>
<polygon fill="midnightblue" stroke="midnightblue" points="334.28,-785.78 344.82,-786.85 337.25,-779.44 334.28,-785.78"/>
</g>
<!-- Node39 -->
<g id="node39" class="node">
<title>Node39</title>
<g id="a_node39"><a xlink:href="cmp__entity_8c_ac30c374a89e60b3d7aa53f757e93671e.html#ac30c374a89e60b3d7aa53f757e93671e" target="_top" xlink:title=" ">
<polygon fill="white" stroke="black" points="345,-736 345,-766 471,-766 471,-736 345,-736"/>
<text text-anchor="start" x="353" y="-754" font-family="Helvetica,sans-Serif" font-size="10.00">cmp_ent_set_non_ima</text>
<text text-anchor="middle" x="408" y="-743" font-family="Helvetica,sans-Serif" font-size="10.00">_spill2</text>
</a>
</g>
</g>
<!-- Node13&#45;&gt;Node39 -->
<g id="edge43" class="edge">
<title>Node13&#45;&gt;Node39</title>
<path fill="none" stroke="midnightblue" d="M213.94,-613.63C229.91,-636.76 273.78,-695.84 325,-727 328.23,-728.97 331.63,-730.78 335.14,-732.45"/>
<polygon fill="midnightblue" stroke="midnightblue" points="334.05,-735.79 344.61,-736.54 336.82,-729.36 334.05,-735.79"/>
</g>
<!-- Node40 -->
<g id="node40" class="node">
<title>Node40</title>
<g id="a_node40"><a xlink:href="cmp__entity_8c_a7a5be3ef337c142b58868be71f60d08c.html#a7a5be3ef337c142b58868be71f60d08c" target="_top" xlink:title=" ">
<polygon fill="white" stroke="black" points="345,-687 345,-717 471,-717 471,-687 345,-687"/>
<text text-anchor="start" x="353" y="-705" font-family="Helvetica,sans-Serif" font-size="10.00">cmp_ent_set_non_ima</text>
<text text-anchor="middle" x="408" y="-694" font-family="Helvetica,sans-Serif" font-size="10.00">_spill3</text>
</a>
</g>
</g>
<!-- Node13&#45;&gt;Node40 -->
<g id="edge44" class="edge">
<title>Node13&#45;&gt;Node40</title>
<path fill="none" stroke="midnightblue" d="M220.22,-613.69C241.08,-629.19 284.34,-659.68 325,-678 329.34,-679.95 333.87,-681.79 338.49,-683.52"/>
<polygon fill="midnightblue" stroke="midnightblue" points="337.45,-686.87 348.05,-686.9 339.79,-680.27 337.45,-686.87"/>
</g>
<!-- Node41 -->
<g id="node41" class="node">
<title>Node41</title>
<g id="a_node41"><a xlink:href="cmp__entity_8c_a7a02b262488e3de0afb8590d076e4e23.html#a7a02b262488e3de0afb8590d076e4e23" target="_top" xlink:title=" ">
<polygon fill="white" stroke="black" points="345,-638 345,-668 471,-668 471,-638 345,-638"/>
<text text-anchor="start" x="353" y="-656" font-family="Helvetica,sans-Serif" font-size="10.00">cmp_ent_set_non_ima</text>
<text text-anchor="middle" x="408" y="-645" font-family="Helvetica,sans-Serif" font-size="10.00">_spill4</text>
</a>
</g>
</g>
<!-- Node13&#45;&gt;Node41 -->
<g id="edge45" class="edge">
<title>Node13&#45;&gt;Node41</title>
<path fill="none" stroke="midnightblue" d="M246.44,-613.56C271.81,-619.79 305.66,-628.11 335.74,-635.5"/>
<polygon fill="midnightblue" stroke="midnightblue" points="335.23,-638.98 345.78,-637.96 336.9,-632.18 335.23,-638.98"/>
</g>
<!-- Node42 -->
<g id="node42" class="node">
<title>Node42</title>
<g id="a_node42"><a xlink:href="cmp__entity_8c_a03e489d7c29dd85023e7b974c68462a7.html#a03e489d7c29dd85023e7b974c68462a7" target="_top" xlink:title=" ">
<polygon fill="white" stroke="black" points="345,-589 345,-619 471,-619 471,-589 345,-589"/>
<text text-anchor="start" x="353" y="-607" font-family="Helvetica,sans-Serif" font-size="10.00">cmp_ent_set_non_ima</text>
<text text-anchor="middle" x="408" y="-596" font-family="Helvetica,sans-Serif" font-size="10.00">_spill5</text>
</a>
</g>
</g>
<!-- Node13&#45;&gt;Node42 -->
<g id="edge46" class="edge">
<title>Node13&#45;&gt;Node42</title>
<path fill="none" stroke="midnightblue" d="M277.28,-604C295.86,-604 315.97,-604 334.68,-604"/>
<polygon fill="midnightblue" stroke="midnightblue" points="334.92,-607.5 344.92,-604 334.92,-600.5 334.92,-607.5"/>
</g>
<!-- Node43 -->
<g id="node43" class="node">
<title>Node43</title>
<g id="a_node43"><a xlink:href="cmp__entity_8c_a7542cacb7d07f590c41a98eed8289687.html#a7542cacb7d07f590c41a98eed8289687" target="_top" xlink:title=" ">
<polygon fill="white" stroke="black" points="345,-540 345,-570 471,-570 471,-540 345,-540"/>
<text text-anchor="start" x="353" y="-558" font-family="Helvetica,sans-Serif" font-size="10.00">cmp_ent_set_non_ima</text>
<text text-anchor="middle" x="408" y="-547" font-family="Helvetica,sans-Serif" font-size="10.00">_spill6</text>
</a>
</g>
</g>
<!-- Node13&#45;&gt;Node43 -->
<g id="edge47" class="edge">
<title>Node13&#45;&gt;Node43</title>
<path fill="none" stroke="midnightblue" d="M246.44,-594.44C271.81,-588.21 305.66,-579.89 335.74,-572.5"/>
<polygon fill="midnightblue" stroke="midnightblue" points="336.9,-575.82 345.78,-570.04 335.23,-569.02 336.9,-575.82"/>
</g>
<!-- Node44 -->
<g id="node44" class="node">
<title>Node44</title>
<g id="a_node44"><a xlink:href="cmp__entity_8c_a11adb9fb51386d64d43236fdfe3302df.html#a11adb9fb51386d64d43236fdfe3302df" target="_top" xlink:title="set the original size of the compressed data in the entity header">
<polygon fill="white" stroke="black" points="335,-501.5 335,-520.5 481,-520.5 481,-501.5 335,-501.5"/>
<text text-anchor="middle" x="408" y="-508.5" font-family="Helvetica,sans-Serif" font-size="10.00">cmp_ent_set_original_size</text>
</a>
</g>
</g>
<!-- Node13&#45;&gt;Node44 -->
<g id="edge48" class="edge">
<title>Node13&#45;&gt;Node44</title>
<path fill="none" stroke="midnightblue" d="M219.81,-594.49C240.45,-578.99 283.81,-548.3 325,-531 331.95,-528.08 339.42,-525.53 346.92,-523.31"/>
<polygon fill="midnightblue" stroke="midnightblue" points="348.05,-526.63 356.75,-520.59 346.18,-519.88 348.05,-526.63"/>
</g>
<!-- Node15 -->
<g id="node15" class="node">
<title>Node15</title>
<g id="a_node15"><a xlink:href="cmp__support_8c_a9197caa657b3d84615c0d323dc96c502.html#a9197caa657b3d84615c0d323dc96c502" target="_top" xlink:title="check if the data product data type is supported by the RDCU compressor">
<polygon fill="white" stroke="black" points="530,-540 530,-570 649,-570 649,-540 530,-540"/>
<text text-anchor="start" x="538" y="-558" font-family="Helvetica,sans-Serif" font-size="10.00">rdcu_supported_data</text>
<text text-anchor="middle" x="589.5" y="-547" font-family="Helvetica,sans-Serif" font-size="10.00">_type_is_used</text>
</a>
</g>
</g>
<!-- Node14&#45;&gt;Node15 -->
<g id="edge16" class="edge">
<title>Node14&#45;&gt;Node15</title>
<path fill="none" stroke="midnightblue" d="M469.23,-482.63C476.83,-485.08 484.28,-488.15 491,-492 511.19,-503.56 507.79,-516.88 527,-530 529.71,-531.85 532.58,-533.6 535.54,-535.25"/>
<polygon fill="midnightblue" stroke="midnightblue" points="534.12,-538.46 544.62,-539.88 537.31,-532.22 534.12,-538.46"/>
</g>
<!-- Node16 -->
<g id="node16" class="node">
<title>Node16</title>
<g id="a_node16"><a xlink:href="cmp__data__types_8c_a0be8705b1dcc45f605abd8400dd5230b.html#a0be8705b1dcc45f605abd8400dd5230b" target="_top" xlink:title="calculate the size of a sample for the different compression data type">
<polygon fill="white" stroke="black" points="537.5,-501.5 537.5,-520.5 641.5,-520.5 641.5,-501.5 537.5,-501.5"/>
<text text-anchor="middle" x="589.5" y="-508.5" font-family="Helvetica,sans-Serif" font-size="10.00">size_of_a_sample</text>
</a>
</g>
</g>
<!-- Node14&#45;&gt;Node16 -->
<g id="edge17" class="edge">
<title>Node14&#45;&gt;Node16</title>
<path fill="none" stroke="midnightblue" d="M454.3,-482.59C478.41,-487.69 508.25,-494.01 533.67,-499.39"/>
<polygon fill="midnightblue" stroke="midnightblue" points="533.02,-502.83 543.53,-501.48 534.47,-495.98 533.02,-502.83"/>
</g>
<!-- Node18 -->
<g id="node18" class="node">
<title>Node18</title>
<g id="a_node18"><a xlink:href="cmp__entity_8c_a802778418cfd52cf107c7af6d0405e8a.html#a802778418cfd52cf107c7af6d0405e8a" target="_top" xlink:title="get the size of the compression entity header based on the set data product type in compression entit...">
<polygon fill="white" stroke="black" points="527,-463.5 527,-482.5 652,-482.5 652,-463.5 527,-463.5"/>
<text text-anchor="middle" x="589.5" y="-470.5" font-family="Helvetica,sans-Serif" font-size="10.00">cmp_ent_get_hdr_size</text>
</a>
</g>
</g>
<!-- Node17&#45;&gt;Node18 -->
<g id="edge19" class="edge">
<title>Node17&#45;&gt;Node18</title>
<path fill="none" stroke="midnightblue" d="M454.3,-444.59C478.41,-449.69 508.25,-456.01 533.67,-461.39"/>
<polygon fill="midnightblue" stroke="midnightblue" points="533.02,-464.83 543.53,-463.48 534.47,-457.98 533.02,-464.83"/>
</g>
<!-- Node21 -->
<g id="node21" class="node">
<title>Node21</title>
<g id="a_node21"><a xlink:href="cmp__entity_8c_a5046b9ebae291aeeba89b4f9eaf43673.html#a5046b9ebae291aeeba89b4f9eaf43673" target="_top" xlink:title="get the size of the compression entity from the compression entity header">
<polygon fill="white" stroke="black" points="537.5,-425.5 537.5,-444.5 641.5,-444.5 641.5,-425.5 537.5,-425.5"/>
<text text-anchor="middle" x="589.5" y="-432.5" font-family="Helvetica,sans-Serif" font-size="10.00">cmp_ent_get_size</text>
</a>
</g>
</g>
<!-- Node17&#45;&gt;Node21 -->
<g id="edge23" class="edge">
<title>Node17&#45;&gt;Node21</title>
<path fill="none" stroke="midnightblue" d="M487.21,-435C500.63,-435 514.4,-435 527.29,-435"/>
<polygon fill="midnightblue" stroke="midnightblue" points="527.42,-438.5 537.42,-435 527.42,-431.5 527.42,-438.5"/>
</g>
<!-- Node18&#45;&gt;Node3 -->
<g id="edge20" class="edge">
<title>Node18&#45;&gt;Node3</title>
<path fill="none" stroke="midnightblue" d="M640.4,-482.58C644.79,-485.05 648.78,-488.14 652,-492 707.05,-557.97 746.03,-1199.58 752.91,-1320.43"/>
<polygon fill="midnightblue" stroke="midnightblue" points="749.42,-1320.67 753.48,-1330.46 756.41,-1320.28 749.42,-1320.67"/>
</g>
<!-- Node18&#45;&gt;Node19 -->
<g id="edge21" class="edge">
<title>Node18&#45;&gt;Node19</title>
<path fill="none" stroke="midnightblue" d="M652.31,-466.57C660.63,-465.71 669.24,-464.81 677.78,-463.93"/>
<polygon fill="midnightblue" stroke="midnightblue" points="678.15,-467.41 687.73,-462.89 677.43,-460.44 678.15,-467.41"/>
</g>
<!-- Node18&#45;&gt;Node20 -->
<g id="edge22" class="edge">
<title>Node18&#45;&gt;Node20</title>
<path fill="none" stroke="midnightblue" d="M628.72,-463.45C636.62,-460.86 644.74,-457.72 652,-454 681.16,-439.07 710.62,-415.75 730.33,-398.68"/>
<polygon fill="midnightblue" stroke="midnightblue" points="732.7,-401.25 737.89,-392.02 728.07,-396 732.7,-401.25"/>
</g>
</g>
</svg>
