<?xml version="1.0" encoding="UTF-8" standalone="no"?>
<!DOCTYPE svg PUBLIC "-//W3C//DTD SVG 1.1//EN"
 "http://www.w3.org/Graphics/SVG/1.1/DTD/svg11.dtd">
<!-- Generated by graphviz version 2.43.0 (0)
 -->
<!-- Title: cmp_ent_get_ima_ap1_spill Pages: 1 -->
<svg width="903pt" height="335pt"
 viewBox="0.00 0.00 903.00 335.00" xmlns="http://www.w3.org/2000/svg" xmlns:xlink="http://www.w3.org/1999/xlink">
<g id="graph0" class="graph" transform="scale(1 1) rotate(0) translate(4 331)">
<title>cmp_ent_get_ima_ap1_spill</title>
<polygon fill="white" stroke="transparent" points="-4,4 -4,-331 899,-331 899,4 -4,4"/>
<!-- Node1 -->
<g id="node1" class="node">
<title>Node1</title>
<g id="a_node1"><a xlink:title="get the used adaptive 1 spillover threshold parameter from the adaptive imagette specific compression...">
<polygon fill="#bfbfbf" stroke="black" points="768,-102 768,-132 895,-132 895,-102 768,-102"/>
<text text-anchor="start" x="776" y="-120" font-family="Helvetica,sans-Serif" font-size="10.00">cmp_ent_get_ima_ap1</text>
<text text-anchor="middle" x="831.5" y="-109" font-family="Helvetica,sans-Serif" font-size="10.00">_spill</text>
</a>
</g>
</g>
<!-- Node2 -->
<g id="node2" class="node">
<title>Node2</title>
<g id="a_node2"><a xlink:href="cmp__entity_8c_a61045ef2115730b0239b706dd5343123.html#a61045ef2115730b0239b706dd5343123" target="_top" xlink:title="parse the adaptive imagette specific compressed entity header">
<polygon fill="white" stroke="black" points="587,-242 587,-272 732,-272 732,-242 587,-242"/>
<text text-anchor="start" x="595" y="-260" font-family="Helvetica,sans-Serif" font-size="10.00">cmp_ent_parese_adaptive</text>
<text text-anchor="middle" x="659.5" y="-249" font-family="Helvetica,sans-Serif" font-size="10.00">_imagette_header</text>
</a>
</g>
</g>
<!-- Node1&#45;&gt;Node2 -->
<g id="edge1" class="edge">
<title>Node1&#45;&gt;Node2</title>
<path fill="none" stroke="midnightblue" d="M804.13,-138.71C769.32,-167.39 708.9,-217.14 678.74,-241.98"/>
<polygon fill="midnightblue" stroke="midnightblue" points="806.49,-141.31 811.98,-132.25 802.04,-135.9 806.49,-141.31"/>
</g>
<!-- Node6 -->
<g id="node6" class="node">
<title>Node6</title>
<g id="a_node6"><a xlink:href="decmp_8c_a74bca2e933b64c4e4738700db181be76.html#a74bca2e933b64c4e4738700db181be76" target="_top" xlink:title="read in an imagette compression entity header to a compression configuration">
<polygon fill="white" stroke="black" points="597,-164.5 597,-183.5 722,-183.5 722,-164.5 597,-164.5"/>
<text text-anchor="middle" x="659.5" y="-171.5" font-family="Helvetica,sans-Serif" font-size="10.00">cmp_ent_read_header</text>
</a>
</g>
</g>
<!-- Node1&#45;&gt;Node6 -->
<g id="edge5" class="edge">
<title>Node1&#45;&gt;Node6</title>
<path fill="none" stroke="midnightblue" d="M775.82,-135.34C746.91,-145.03 712.62,-156.52 688.99,-164.45"/>
<polygon fill="midnightblue" stroke="midnightblue" points="777.02,-138.62 785.39,-132.13 774.8,-131.99 777.02,-138.62"/>
</g>
<!-- Node15 -->
<g id="node15" class="node">
<title>Node15</title>
<g id="a_node15"><a xlink:href="test__decmp_8c_a27e5a2b67e3e81da1be024826485b2e3.html#a27e5a2b67e3e81da1be024826485b2e3" target="_top" xlink:title=" ">
<polygon fill="white" stroke="black" points="420,-110 420,-140 533,-140 533,-110 420,-110"/>
<text text-anchor="start" x="428" y="-128" font-family="Helvetica,sans-Serif" font-size="10.00">test_cmp_ent_write</text>
<text text-anchor="middle" x="476.5" y="-117" font-family="Helvetica,sans-Serif" font-size="10.00">_cmp_pars</text>
</a>
</g>
</g>
<!-- Node1&#45;&gt;Node15 -->
<g id="edge16" class="edge">
<title>Node1&#45;&gt;Node15</title>
<path fill="none" stroke="midnightblue" d="M757.79,-118.65C691.15,-120.16 593.9,-122.36 533.23,-123.74"/>
<polygon fill="midnightblue" stroke="midnightblue" points="757.88,-122.15 767.8,-118.42 757.72,-115.15 757.88,-122.15"/>
</g>
<!-- Node16 -->
<g id="node16" class="node">
<title>Node16</title>
<g id="a_node16"><a xlink:href="test__cmp__entity_8c_a13c81359af8798146608574ab0e113fb.html#a13c81359af8798146608574ab0e113fb" target="_top" xlink:title=" ">
<polygon fill="white" stroke="black" points="603.5,-88.5 603.5,-107.5 715.5,-107.5 715.5,-88.5 603.5,-88.5"/>
<text text-anchor="middle" x="659.5" y="-95.5" font-family="Helvetica,sans-Serif" font-size="10.00">test_cmp_ent_build</text>
</a>
</g>
</g>
<!-- Node1&#45;&gt;Node16 -->
<g id="edge15" class="edge">
<title>Node1&#45;&gt;Node16</title>
<path fill="none" stroke="midnightblue" d="M757.53,-108.84C743.44,-107.27 728.9,-105.64 715.5,-104.15"/>
<polygon fill="midnightblue" stroke="midnightblue" points="757.35,-112.35 767.68,-109.98 758.13,-105.39 757.35,-112.35"/>
</g>
<!-- Node17 -->
<g id="node17" class="node">
<title>Node17</title>
<g id="a_node17"><a xlink:href="test__cmp__entity_8c_a8f7fd6d8b939382555507ecf2e74ec79.html#a8f7fd6d8b939382555507ecf2e74ec79" target="_top" xlink:title=" ">
<polygon fill="white" stroke="black" points="603,-39 603,-69 716,-69 716,-39 603,-39"/>
<text text-anchor="start" x="611" y="-57" font-family="Helvetica,sans-Serif" font-size="10.00">test_cmp_ent_write</text>
<text text-anchor="middle" x="659.5" y="-46" font-family="Helvetica,sans-Serif" font-size="10.00">_rdcu_cmp_pars</text>
</a>
</g>
</g>
<!-- Node1&#45;&gt;Node17 -->
<g id="edge17" class="edge">
<title>Node1&#45;&gt;Node17</title>
<path fill="none" stroke="midnightblue" d="M782.55,-98.15C766.52,-91.94 748.53,-85.08 732,-79 723.11,-75.73 713.57,-72.33 704.44,-69.12"/>
<polygon fill="midnightblue" stroke="midnightblue" points="781.66,-101.56 792.25,-101.92 784.2,-95.03 781.66,-101.56"/>
</g>
<!-- Node18 -->
<g id="node18" class="node">
<title>Node18</title>
<g id="a_node18"><a xlink:href="test__cmp__entity_8c_a27bcaef46bb963858f8b945f0f0e0b80.html#a27bcaef46bb963858f8b945f0f0e0b80" target="_top" xlink:title=" ">
<polygon fill="white" stroke="black" points="595,-0.5 595,-19.5 724,-19.5 724,-0.5 595,-0.5"/>
<text text-anchor="middle" x="659.5" y="-7.5" font-family="Helvetica,sans-Serif" font-size="10.00">test_ent_ima_ap1_spill</text>
</a>
</g>
</g>
<!-- Node1&#45;&gt;Node18 -->
<g id="edge18" class="edge">
<title>Node1&#45;&gt;Node18</title>
<path fill="none" stroke="midnightblue" d="M811.03,-94.39C792.6,-74.38 763.18,-45.81 732,-29 724.88,-25.16 716.93,-22.06 709,-19.57"/>
<polygon fill="midnightblue" stroke="midnightblue" points="808.47,-96.78 817.77,-101.86 813.67,-92.09 808.47,-96.78"/>
</g>
<!-- Node3 -->
<g id="node3" class="node">
<title>Node3</title>
<g id="a_node3"><a xlink:href="cmp__entity_8c_ada578f9cc10464104076bc466b962b78.html#ada578f9cc10464104076bc466b962b78" target="_top" xlink:title="parse the specific compressed entity header">
<polygon fill="white" stroke="black" points="407,-282 407,-312 546,-312 546,-282 407,-282"/>
<text text-anchor="start" x="415" y="-300" font-family="Helvetica,sans-Serif" font-size="10.00">cmp_ent_parese_specific</text>
<text text-anchor="middle" x="476.5" y="-289" font-family="Helvetica,sans-Serif" font-size="10.00">_header</text>
</a>
</g>
</g>
<!-- Node2&#45;&gt;Node3 -->
<g id="edge2" class="edge">
<title>Node2&#45;&gt;Node3</title>
<path fill="none" stroke="midnightblue" d="M580.81,-274.17C569.06,-276.77 557.01,-279.43 545.49,-281.97"/>
<polygon fill="midnightblue" stroke="midnightblue" points="581.58,-277.58 590.59,-272.01 580.07,-270.75 581.58,-277.58"/>
</g>
<!-- Node4 -->
<g id="node4" class="node">
<title>Node4</title>
<g id="a_node4"><a xlink:href="cmp__entity_8c_a1f4478c4d9938fa6f5631e88298ed816.html#a1f4478c4d9938fa6f5631e88298ed816" target="_top" xlink:title="parse the compressed entity header">
<polygon fill="white" stroke="black" points="228.5,-306.5 228.5,-325.5 319.5,-325.5 319.5,-306.5 228.5,-306.5"/>
<text text-anchor="middle" x="274" y="-313.5" font-family="Helvetica,sans-Serif" font-size="10.00">cmp_ent_parse</text>
</a>
</g>
</g>
<!-- Node3&#45;&gt;Node4 -->
<g id="edge3" class="edge">
<title>Node3&#45;&gt;Node4</title>
<path fill="none" stroke="midnightblue" d="M396.52,-304.48C370.43,-306.96 342.33,-309.62 319.73,-311.76"/>
<polygon fill="midnightblue" stroke="midnightblue" points="397.15,-307.94 406.78,-303.51 396.49,-300.97 397.15,-307.94"/>
</g>
<!-- Node5 -->
<g id="node5" class="node">
<title>Node5</title>
<g id="a_node5"><a xlink:href="test__cmp__entity_8c_a893444224bcd50fbb99e42e85989b4a6.html#a893444224bcd50fbb99e42e85989b4a6" target="_top" xlink:title=" ">
<polygon fill="white" stroke="black" points="15.5,-307.5 15.5,-326.5 130.5,-326.5 130.5,-307.5 15.5,-307.5"/>
<text text-anchor="middle" x="73" y="-314.5" font-family="Helvetica,sans-Serif" font-size="10.00">test_cmp_ent_parse</text>
</a>
</g>
</g>
<!-- Node4&#45;&gt;Node5 -->
<g id="edge4" class="edge">
<title>Node4&#45;&gt;Node5</title>
<path fill="none" stroke="midnightblue" d="M218.2,-316.28C190.98,-316.41 158.11,-316.58 130.64,-316.72"/>
<polygon fill="midnightblue" stroke="midnightblue" points="218.36,-319.77 228.34,-316.22 218.32,-312.77 218.36,-319.77"/>
</g>
<!-- Node7 -->
<g id="node7" class="node">
<title>Node7</title>
<g id="a_node7"><a xlink:href="decmp_8h_aefe0fa39fdc295432f5e2e0f91f0b87f.html#aefe0fa39fdc295432f5e2e0f91f0b87f" target="_top" xlink:title="decompress a compression entity">
<polygon fill="white" stroke="black" points="410.5,-208.5 410.5,-227.5 542.5,-227.5 542.5,-208.5 410.5,-208.5"/>
<text text-anchor="middle" x="476.5" y="-215.5" font-family="Helvetica,sans-Serif" font-size="10.00">decompress_cmp_entiy</text>
</a>
</g>
</g>
<!-- Node6&#45;&gt;Node7 -->
<g id="edge6" class="edge">
<title>Node6&#45;&gt;Node7</title>
<path fill="none" stroke="midnightblue" d="M609.26,-185.97C580.17,-193.04 543.84,-201.87 516.7,-208.47"/>
<polygon fill="midnightblue" stroke="midnightblue" points="610.34,-189.31 619.23,-183.55 608.68,-182.51 610.34,-189.31"/>
</g>
<!-- Node14 -->
<g id="node14" class="node">
<title>Node14</title>
<g id="a_node14"><a xlink:href="test__decmp_8c_a83b6283115165bfb92bf9008dcbdc41d.html#a83b6283115165bfb92bf9008dcbdc41d" target="_top" xlink:title=" ">
<polygon fill="white" stroke="black" points="402,-159 402,-189 551,-189 551,-159 402,-159"/>
<text text-anchor="start" x="410" y="-177" font-family="Helvetica,sans-Serif" font-size="10.00">test_cmp_ent_read_header</text>
<text text-anchor="middle" x="476.5" y="-166" font-family="Helvetica,sans-Serif" font-size="10.00">_error_cases</text>
</a>
</g>
</g>
<!-- Node6&#45;&gt;Node14 -->
<g id="edge13" class="edge">
<title>Node6&#45;&gt;Node14</title>
<path fill="none" stroke="midnightblue" d="M586.78,-174C575.04,-174 562.85,-174 551.06,-174"/>
<polygon fill="midnightblue" stroke="midnightblue" points="586.97,-177.5 596.97,-174 586.97,-170.5 586.97,-177.5"/>
</g>
<!-- Node6&#45;&gt;Node15 -->
<g id="edge14" class="edge">
<title>Node6&#45;&gt;Node15</title>
<path fill="none" stroke="midnightblue" d="M613.47,-161.81C589.13,-155.22 558.85,-147.02 533.04,-140.04"/>
<polygon fill="midnightblue" stroke="midnightblue" points="612.6,-165.2 623.17,-164.44 614.43,-158.44 612.6,-165.2"/>
</g>
<!-- Node8 -->
<g id="node8" class="node">
<title>Node8</title>
<g id="a_node8"><a xlink:href="test__cmp__decmp_8c_a50ba26014079160ca77b7d7fa76ce0f4.html#a50ba26014079160ca77b7d7fa76ce0f4" target="_top" xlink:title="compress the given configuration and decompress it afterwards; finally compare the results">
<polygon fill="white" stroke="black" points="195,-265.5 195,-284.5 353,-284.5 353,-265.5 195,-265.5"/>
<text text-anchor="middle" x="274" y="-272.5" font-family="Helvetica,sans-Serif" font-size="10.00">compression_decompression</text>
</a>
</g>
</g>
<!-- Node7&#45;&gt;Node8 -->
<g id="edge7" class="edge">
<title>Node7&#45;&gt;Node8</title>
<path fill="none" stroke="midnightblue" d="M441.37,-231.11C419.95,-239.02 391.62,-248.91 366,-256 353.24,-259.53 339.32,-262.75 326.29,-265.49"/>
<polygon fill="midnightblue" stroke="midnightblue" points="442.85,-234.29 451,-227.52 440.4,-227.74 442.85,-234.29"/>
</g>
<!-- Node10 -->
<g id="node10" class="node">
<title>Node10</title>
<g id="a_node10"><a xlink:href="test__decmp_8c_a6e7a5e150e2c829836db3c42cdec2eec.html#a6e7a5e150e2c829836db3c42cdec2eec" target="_top" xlink:title=" ">
<polygon fill="white" stroke="black" points="182,-227.5 182,-246.5 366,-246.5 366,-227.5 182,-227.5"/>
<text text-anchor="middle" x="274" y="-234.5" font-family="Helvetica,sans-Serif" font-size="10.00">test_cmp_decmp_n_imagette_raw</text>
</a>
</g>
</g>
<!-- Node7&#45;&gt;Node10 -->
<g id="edge9" class="edge">
<title>Node7&#45;&gt;Node10</title>
<path fill="none" stroke="midnightblue" d="M400.36,-225.12C389.27,-226.17 377.74,-227.26 366.36,-228.34"/>
<polygon fill="midnightblue" stroke="midnightblue" points="400.78,-228.6 410.4,-224.17 400.12,-221.63 400.78,-228.6"/>
</g>
<!-- Node11 -->
<g id="node11" class="node">
<title>Node11</title>
<g id="a_node11"><a xlink:href="test__decmp_8c_a1a33e2fcbf484c79dfe661b280386f6b.html#a1a33e2fcbf484c79dfe661b280386f6b" target="_top" xlink:title=" ">
<polygon fill="white" stroke="black" points="201,-189.5 201,-208.5 347,-208.5 347,-189.5 201,-189.5"/>
<text text-anchor="middle" x="274" y="-196.5" font-family="Helvetica,sans-Serif" font-size="10.00">test_cmp_decmp_s_fx_diff</text>
</a>
</g>
</g>
<!-- Node7&#45;&gt;Node11 -->
<g id="edge10" class="edge">
<title>Node7&#45;&gt;Node11</title>
<path fill="none" stroke="midnightblue" d="M400.28,-210.87C382.85,-209.22 364.34,-207.47 347.05,-205.83"/>
<polygon fill="midnightblue" stroke="midnightblue" points="400.12,-214.37 410.4,-211.83 400.78,-207.4 400.12,-214.37"/>
</g>
<!-- Node12 -->
<g id="node12" class="node">
<title>Node12</title>
<g id="a_node12"><a xlink:href="test__decmp_8c_acfebf2fa7515f5449e0cfa594457b66b.html#acfebf2fa7515f5449e0cfa594457b66b" target="_top" xlink:title=" ">
<polygon fill="white" stroke="black" points="233,-151.5 233,-170.5 315,-170.5 315,-151.5 233,-151.5"/>
<text text-anchor="middle" x="274" y="-158.5" font-family="Helvetica,sans-Serif" font-size="10.00">test_s_fx_diff</text>
</a>
</g>
</g>
<!-- Node7&#45;&gt;Node12 -->
<g id="edge11" class="edge">
<title>Node7&#45;&gt;Node12</title>
<path fill="none" stroke="midnightblue" d="M424.89,-205.65C417.14,-203.35 409.3,-200.79 402,-198 385.29,-191.62 382.9,-185.88 366,-180 349.69,-174.33 331.12,-170.08 315.02,-167.05"/>
<polygon fill="midnightblue" stroke="midnightblue" points="424.03,-209.04 434.6,-208.41 425.94,-202.31 424.03,-209.04"/>
</g>
<!-- Node13 -->
<g id="node13" class="node">
<title>Node13</title>
<g id="a_node13"><a xlink:href="test__decmp_8c_a953eeaad914985c0816dde26d47ffef0.html#a953eeaad914985c0816dde26d47ffef0" target="_top" xlink:title=" ">
<polygon fill="white" stroke="black" points="225.5,-113.5 225.5,-132.5 322.5,-132.5 322.5,-113.5 225.5,-113.5"/>
<text text-anchor="middle" x="274" y="-120.5" font-family="Helvetica,sans-Serif" font-size="10.00">test_s_fx_model</text>
</a>
</g>
</g>
<!-- Node7&#45;&gt;Node13 -->
<g id="edge12" class="edge">
<title>Node7&#45;&gt;Node13</title>
<path fill="none" stroke="midnightblue" d="M412.5,-204.36C408.8,-202.5 405.27,-200.39 402,-198 378.14,-180.51 390.38,-158.77 366,-142 353.37,-133.31 337.58,-128.45 322.72,-125.78"/>
<polygon fill="midnightblue" stroke="midnightblue" points="411.38,-207.69 421.95,-208.47 414.18,-201.27 411.38,-207.69"/>
</g>
<!-- Node9 -->
<g id="node9" class="node">
<title>Node9</title>
<g id="a_node9"><a xlink:href="test__cmp__decmp_8c_af3c162694b40683e0aa25c61a49cdafc.html#af3c162694b40683e0aa25c61a49cdafc" target="_top" xlink:title="random compression decompression test">
<polygon fill="white" stroke="black" points="0,-258 0,-288 146,-288 146,-258 0,-258"/>
<text text-anchor="start" x="8" y="-276" font-family="Helvetica,sans-Serif" font-size="10.00">test_random_compression</text>
<text text-anchor="middle" x="73" y="-265" font-family="Helvetica,sans-Serif" font-size="10.00">_decompression</text>
</a>
</g>
</g>
<!-- Node8&#45;&gt;Node9 -->
<g id="edge8" class="edge">
<title>Node8&#45;&gt;Node9</title>
<path fill="none" stroke="midnightblue" d="M184.63,-274.11C171.72,-273.98 158.55,-273.85 146.01,-273.72"/>
<polygon fill="midnightblue" stroke="midnightblue" points="184.89,-277.61 194.92,-274.22 184.96,-270.61 184.89,-277.61"/>
</g>
</g>
</svg>
