<?xml version="1.0" encoding="UTF-8" standalone="no"?>
<!DOCTYPE svg PUBLIC "-//W3C//DTD SVG 1.1//EN"
 "http://www.w3.org/Graphics/SVG/1.1/DTD/svg11.dtd">
<!-- Generated by graphviz version 2.43.0 (0)
 -->
<!-- Title: cmp_max_used_bits_list_add Pages: 1 -->
<svg width="360pt" height="66pt"
 viewBox="0.00 0.00 360.00 66.00" xmlns="http://www.w3.org/2000/svg" xmlns:xlink="http://www.w3.org/1999/xlink">
<g id="graph0" class="graph" transform="scale(1 1) rotate(0) translate(4 62)">
<title>cmp_max_used_bits_list_add</title>
<polygon fill="white" stroke="transparent" points="-4,4 -4,-62 356,-62 356,4 -4,4"/>
<!-- Node1 -->
<g id="node1" class="node">
<title>Node1</title>
<g id="a_node1"><a xlink:title="add a max_used_bits item to the list">
<polygon fill="#bfbfbf" stroke="black" points="0,-19.5 0,-38.5 160,-38.5 160,-19.5 0,-19.5"/>
<text text-anchor="middle" x="80" y="-26.5" font-family="Helvetica,sans-Serif" font-size="10.00">cmp_max_used_bits_list_add</text>
</a>
</g>
</g>
<!-- Node2 -->
<g id="node2" class="node">
<title>Node2</title>
<g id="a_node2"><a xlink:href="list_8h_a0373c4b3c8ce51a451a569ad978b32e1.html#a0373c4b3c8ce51a451a569ad978b32e1" target="_top" xlink:title="add a new entry">
<polygon fill="white" stroke="black" points="196,-38.5 196,-57.5 251,-57.5 251,-38.5 196,-38.5"/>
<text text-anchor="middle" x="223.5" y="-45.5" font-family="Helvetica,sans-Serif" font-size="10.00">list_add</text>
</a>
</g>
</g>
<!-- Node1&#45;&gt;Node2 -->
<g id="edge1" class="edge">
<title>Node1&#45;&gt;Node2</title>
<path fill="none" stroke="midnightblue" d="M152.16,-38.56C163.71,-40.11 175.24,-41.65 185.52,-43.03"/>
<polygon fill="midnightblue" stroke="midnightblue" points="185.36,-46.54 195.74,-44.41 186.29,-39.61 185.36,-46.54"/>
</g>
<!-- Node4 -->
<g id="node4" class="node">
<title>Node4</title>
<g id="a_node4"><a xlink:href="test__cmp__max__used__bits__list_8c_a7ac38fce3243a7dcf448301ee9ffd392.html#a7ac38fce3243a7dcf448301ee9ffd392" target="_top" xlink:title=" ">
<polygon fill="white" stroke="black" points="198.5,-0.5 198.5,-19.5 248.5,-19.5 248.5,-0.5 198.5,-0.5"/>
<text text-anchor="middle" x="223.5" y="-7.5" font-family="Helvetica,sans-Serif" font-size="10.00">malloc</text>
</a>
</g>
</g>
<!-- Node1&#45;&gt;Node4 -->
<g id="edge3" class="edge">
<title>Node1&#45;&gt;Node4</title>
<path fill="none" stroke="midnightblue" d="M152.16,-19.44C164.79,-17.75 177.39,-16.06 188.37,-14.58"/>
<polygon fill="midnightblue" stroke="midnightblue" points="188.9,-18.04 198.34,-13.24 187.97,-11.11 188.9,-18.04"/>
</g>
<!-- Node3 -->
<g id="node3" class="node">
<title>Node3</title>
<g id="a_node3"><a xlink:href="list_8h_a8a28f150a191624bf6923a48cdace7e3.html#a8a28f150a191624bf6923a48cdace7e3" target="_top" xlink:title=" ">
<polygon fill="white" stroke="black" points="287,-38.5 287,-57.5 352,-57.5 352,-38.5 287,-38.5"/>
<text text-anchor="middle" x="319.5" y="-45.5" font-family="Helvetica,sans-Serif" font-size="10.00">__list_add</text>
</a>
</g>
</g>
<!-- Node2&#45;&gt;Node3 -->
<g id="edge2" class="edge">
<title>Node2&#45;&gt;Node3</title>
<path fill="none" stroke="midnightblue" d="M251.19,-48C259.14,-48 268.06,-48 276.74,-48"/>
<polygon fill="midnightblue" stroke="midnightblue" points="276.75,-51.5 286.75,-48 276.75,-44.5 276.75,-51.5"/>
</g>
</g>
</svg>
