<?xml version="1.0" encoding="UTF-8" standalone="no"?>
<!DOCTYPE svg PUBLIC "-//W3C//DTD SVG 1.1//EN"
 "http://www.w3.org/Graphics/SVG/1.1/DTD/svg11.dtd">
<!-- Generated by graphviz version 2.43.0 (0)
 -->
<!-- Title: cmp_ent_get_cmp_data_size Pages: 1 -->
<!--zoomable 455 -->
<svg id="main" version="1.1" xmlns="http://www.w3.org/2000/svg" xmlns:xlink="http://www.w3.org/1999/xlink" xml:space="preserve" onload="init(evt)">
<style type="text/css"><![CDATA[
.edge:hover path { stroke: red; }
.edge:hover polygon { stroke: red; fill: red; }
]]></style>
<script type="text/javascript"><![CDATA[
var edges = document.getElementsByTagName('g');
if (edges && edges.length) {
  for (var i=0;i<edges.length;i++) {
    if (edges[i].id.substr(0,4)=='edge') {
      edges[i].setAttribute('class','edge');
    }
  }
}
]]></script>
        <defs>
                <circle id="rim" cx="0" cy="0" r="7"/>
                <circle id="rim2" cx="0" cy="0" r="3.5"/>
                <g id="zoomPlus">
                        <use xlink:href="#rim" fill="#404040">
                                <set attributeName="fill" to="#808080" begin="zoomplus.mouseover" end="zoomplus.mouseout"/>
                        </use>
                        <path d="M-4,0h8M0,-4v8" fill="none" stroke="white" stroke-width="1.5" pointer-events="none"/>
                </g>
                <g id="zoomMin">
                        <use xlink:href="#rim" fill="#404040">
                                <set attributeName="fill" to="#808080" begin="zoomminus.mouseover" end="zoomminus.mouseout"/>
                        </use>
                        <path d="M-4,0h8" fill="none" stroke="white" stroke-width="1.5" pointer-events="none"/>
                </g>
                <g id="dirArrow">
                        <path fill="none" stroke="white" stroke-width="1.5" d="M0,-3.0v7 M-2.5,-0.5L0,-3.0L2.5,-0.5"/>
                </g>
               <g id="resetDef">
                       <use xlink:href="#rim2" fill="#404040">
                               <set attributeName="fill" to="#808080" begin="reset.mouseover" end="reset.mouseout"/>
                       </use>
               </g>
        </defs>

<script type="text/javascript">
var viewWidth = 938;
var viewHeight = 455;
var sectionId = 'dynsection-1';
</script>
<script xlink:href="svgpan.js"/>
<svg id="graph" class="graph">
<g id="viewport">
<title>cmp_ent_get_cmp_data_size</title>
<polygon fill="white" stroke="transparent" points="-4,4 -4,-450.5 934,-450.5 934,4 -4,4"/>
<!-- Node1 -->
<g id="node1" class="node">
<title>Node1</title>
<g id="a_node1"><a xlink:title="get the size of the compressed data based on the set data product type and compressed entity size in ...">
<polygon fill="#bfbfbf" stroke="black" points="772,-195 772,-214 930,-214 930,-195 772,-195"/>
<text text-anchor="middle" x="851" y="-202" font-family="Helvetica,sans-Serif" font-size="10.00">cmp_ent_get_cmp_data_size</text>
</a>
</g>
</g>
<!-- Node2 -->
<g id="node2" class="node">
<title>Node2</title>
<g id="a_node2"><a xlink:href="cmp__entity_8c_a53d1033e924a4177448fa5518a86f5b8.html#a53d1033e924a4177448fa5518a86f5b8" target="_top" xlink:title="copy the data from a compression entity to a buffer">
<polygon fill="white" stroke="black" points="599,-401 599,-420 732,-420 732,-401 599,-401"/>
<text text-anchor="middle" x="665.5" y="-408" font-family="Helvetica,sans-Serif" font-size="10.00">cmp_ent_get_cmp_data</text>
</a>
</g>
</g>
<!-- Node1&#45;&gt;Node2 -->
<g id="edge1" class="edge">
<title>Node1&#45;&gt;Node2</title>
<path fill="none" stroke="midnightblue" d="M839.96,-223.44C822.22,-255.67 782.74,-321.99 736,-366.5 721,-380.78 700.7,-393 685.91,-400.91"/>
<polygon fill="midnightblue" stroke="midnightblue" points="843.26,-224.71 844.94,-214.25 837.1,-221.37 843.26,-224.71"/>
</g>
<!-- Node4 -->
<g id="node4" class="node">
<title>Node4</title>
<g id="a_node4"><a xlink:href="cmp__entity_8c_ae1e22f1d5652d49b51dd6e3bce93c7a6.html#ae1e22f1d5652d49b51dd6e3bce93c7a6" target="_top" xlink:title="print the compressed data of the entity">
<polygon fill="white" stroke="black" points="609,-214 609,-233 722,-233 722,-214 609,-214"/>
<text text-anchor="middle" x="665.5" y="-221" font-family="Helvetica,sans-Serif" font-size="10.00">cmp_ent_print_data</text>
</a>
</g>
</g>
<!-- Node1&#45;&gt;Node4 -->
<g id="edge3" class="edge">
<title>Node1&#45;&gt;Node4</title>
<path fill="none" stroke="midnightblue" d="M761.63,-213.65C748.14,-215.05 734.54,-216.45 722.02,-217.75"/>
<polygon fill="midnightblue" stroke="midnightblue" points="762.33,-217.1 771.91,-212.59 761.61,-210.13 762.33,-217.1"/>
</g>
<!-- Node7 -->
<g id="node7" class="node">
<title>Node7</title>
<g id="a_node7"><a xlink:href="decmp_8c_a74bca2e933b64c4e4738700db181be76.html#a74bca2e933b64c4e4738700db181be76" target="_top" xlink:title="read in an imagette compression entity header to a compression configuration">
<polygon fill="white" stroke="black" points="603,-338 603,-357 728,-357 728,-338 603,-338"/>
<text text-anchor="middle" x="665.5" y="-345" font-family="Helvetica,sans-Serif" font-size="10.00">cmp_ent_read_header</text>
</a>
</g>
</g>
<!-- Node1&#45;&gt;Node7 -->
<g id="edge6" class="edge">
<title>Node1&#45;&gt;Node7</title>
<path fill="none" stroke="midnightblue" d="M835.81,-221.92C815.65,-245.78 776.64,-288.81 736,-316.5 723.01,-325.35 707.08,-332.67 693.75,-337.97"/>
<polygon fill="midnightblue" stroke="midnightblue" points="838.64,-223.99 842.35,-214.06 833.26,-219.51 838.64,-223.99"/>
</g>
<!-- Node16 -->
<g id="node16" class="node">
<title>Node16</title>
<g id="a_node16"><a xlink:href="test__decmp_8c_a27e5a2b67e3e81da1be024826485b2e3.html#a27e5a2b67e3e81da1be024826485b2e3" target="_top" xlink:title=" ">
<polygon fill="white" stroke="black" points="424,-290.5 424,-320.5 537,-320.5 537,-290.5 424,-290.5"/>
<text text-anchor="start" x="432" y="-308.5" font-family="Helvetica,sans-Serif" font-size="10.00">test_cmp_ent_write</text>
<text text-anchor="middle" x="480.5" y="-297.5" font-family="Helvetica,sans-Serif" font-size="10.00">_cmp_pars</text>
</a>
</g>
</g>
<!-- Node1&#45;&gt;Node16 -->
<g id="edge32" class="edge">
<title>Node1&#45;&gt;Node16</title>
<path fill="none" stroke="midnightblue" d="M832.09,-220.59C810.85,-238.62 773.57,-267.08 736,-280.5 670.46,-303.9 589.77,-308.02 537.05,-307.69"/>
<polygon fill="midnightblue" stroke="midnightblue" points="834.4,-223.22 839.66,-214.02 829.82,-217.93 834.4,-223.22"/>
</g>
<!-- Node17 -->
<g id="node17" class="node">
<title>Node17</title>
<g id="a_node17"><a xlink:href="cmp__entity_8c_a553b4a765f1cfcd37f82a818db2cf2b9.html#a553b4a765f1cfcd37f82a818db2cf2b9" target="_top" xlink:title="write the compression parameters from a compression configuration into the compression entity header">
<polygon fill="white" stroke="black" points="595,-252 595,-271 736,-271 736,-252 595,-252"/>
<text text-anchor="middle" x="665.5" y="-259" font-family="Helvetica,sans-Serif" font-size="10.00">cmp_ent_write_cmp_pars</text>
</a>
</g>
</g>
<!-- Node1&#45;&gt;Node17 -->
<g id="edge16" class="edge">
<title>Node1&#45;&gt;Node17</title>
<path fill="none" stroke="midnightblue" d="M812.79,-217.48C790.6,-225.07 761.8,-234.68 736,-242.5 725.35,-245.73 713.7,-249.01 703.04,-251.92"/>
<polygon fill="midnightblue" stroke="midnightblue" points="814.17,-220.7 822.49,-214.14 811.9,-214.08 814.17,-220.7"/>
</g>
<!-- Node19 -->
<g id="node19" class="node">
<title>Node19</title>
<g id="a_node19"><a xlink:href="test__cmp__entity_8c_a13c81359af8798146608574ab0e113fb.html#a13c81359af8798146608574ab0e113fb" target="_top" xlink:title=" ">
<polygon fill="white" stroke="black" points="218,-113 218,-132 330,-132 330,-113 218,-113"/>
<text text-anchor="middle" x="274" y="-120" font-family="Helvetica,sans-Serif" font-size="10.00">test_cmp_ent_build</text>
</a>
</g>
</g>
<!-- Node1&#45;&gt;Node19 -->
<g id="edge29" class="edge">
<title>Node1&#45;&gt;Node19</title>
<path fill="none" stroke="midnightblue" d="M835.01,-187.45C814.95,-166.07 777.13,-130.53 736,-116.5 588.46,-66.18 398.61,-95.89 316.2,-112.99"/>
<polygon fill="midnightblue" stroke="midnightblue" points="832.46,-189.85 841.79,-194.87 837.63,-185.13 832.46,-189.85"/>
</g>
<!-- Node22 -->
<g id="node22" class="node">
<title>Node22</title>
<g id="a_node22"><a xlink:href="test__cmp__entity_8c_a8f7fd6d8b939382555507ecf2e74ec79.html#a8f7fd6d8b939382555507ecf2e74ec79" target="_top" xlink:title=" ">
<polygon fill="white" stroke="black" points="424,-126.5 424,-156.5 537,-156.5 537,-126.5 424,-126.5"/>
<text text-anchor="start" x="432" y="-144.5" font-family="Helvetica,sans-Serif" font-size="10.00">test_cmp_ent_write</text>
<text text-anchor="middle" x="480.5" y="-133.5" font-family="Helvetica,sans-Serif" font-size="10.00">_rdcu_cmp_pars</text>
</a>
</g>
</g>
<!-- Node1&#45;&gt;Node22 -->
<g id="edge33" class="edge">
<title>Node1&#45;&gt;Node22</title>
<path fill="none" stroke="midnightblue" d="M766.85,-193.58C716.89,-186.66 652.14,-177.04 595,-166.5 576.05,-163.01 555.44,-158.64 537.05,-154.54"/>
<polygon fill="midnightblue" stroke="midnightblue" points="766.57,-197.08 776.96,-194.98 767.53,-190.14 766.57,-197.08"/>
</g>
<!-- Node23 -->
<g id="node23" class="node">
<title>Node23</title>
<g id="a_node23"><a xlink:href="cmp__entity_8c_aac25fce5ba205dafed1781d24250c7b3.html#aac25fce5ba205dafed1781d24250c7b3" target="_top" xlink:title="write the parameters from the RDCU decompression information structure in the compression entity head...">
<polygon fill="white" stroke="black" points="608,-126.5 608,-156.5 723,-156.5 723,-126.5 608,-126.5"/>
<text text-anchor="start" x="616" y="-144.5" font-family="Helvetica,sans-Serif" font-size="10.00">cmp_ent_write_rdcu</text>
<text text-anchor="middle" x="665.5" y="-133.5" font-family="Helvetica,sans-Serif" font-size="10.00">_cmp_pars</text>
</a>
</g>
</g>
<!-- Node1&#45;&gt;Node23 -->
<g id="edge27" class="edge">
<title>Node1&#45;&gt;Node23</title>
<path fill="none" stroke="midnightblue" d="M812.57,-191.65C782.96,-181.48 741.55,-167.27 710.38,-156.57"/>
<polygon fill="midnightblue" stroke="midnightblue" points="811.54,-194.99 822.13,-194.93 813.81,-188.37 811.54,-194.99"/>
</g>
<!-- Node24 -->
<g id="node24" class="node">
<title>Node24</title>
<g id="a_node24"><a xlink:href="test__cmp__entity_8c_a991729c77482729377539ccc0c96f4b7.html#a991729c77482729377539ccc0c96f4b7" target="_top" xlink:title=" ">
<polygon fill="white" stroke="black" points="606,-50 606,-69 725,-69 725,-50 606,-50"/>
<text text-anchor="middle" x="665.5" y="-57" font-family="Helvetica,sans-Serif" font-size="10.00">test_cmp_ent_create</text>
</a>
</g>
</g>
<!-- Node1&#45;&gt;Node24 -->
<g id="edge30" class="edge">
<title>Node1&#45;&gt;Node24</title>
<path fill="none" stroke="midnightblue" d="M837.58,-186.6C818.56,-160.44 779.8,-111.81 736,-83.5 726.57,-77.4 715.41,-72.66 704.82,-69.06"/>
<polygon fill="midnightblue" stroke="midnightblue" points="834.8,-188.73 843.46,-194.84 840.5,-184.67 834.8,-188.73"/>
</g>
<!-- Node25 -->
<g id="node25" class="node">
<title>Node25</title>
<g id="a_node25"><a xlink:href="test__cmp__entity_8c_a41cc3aa5c0bcd8ac649017d31689e8ba.html#a41cc3aa5c0bcd8ac649017d31689e8ba" target="_top" xlink:title=" ">
<polygon fill="white" stroke="black" points="600.5,-0.5 600.5,-30.5 730.5,-30.5 730.5,-0.5 600.5,-0.5"/>
<text text-anchor="start" x="608.5" y="-18.5" font-family="Helvetica,sans-Serif" font-size="10.00">test_cmp_ent_get_cmp</text>
<text text-anchor="middle" x="665.5" y="-7.5" font-family="Helvetica,sans-Serif" font-size="10.00">_data_size</text>
</a>
</g>
</g>
<!-- Node1&#45;&gt;Node25 -->
<g id="edge31" class="edge">
<title>Node1&#45;&gt;Node25</title>
<path fill="none" stroke="midnightblue" d="M841.68,-185.58C825.87,-151.75 788.36,-80.66 736,-40.5 731.01,-36.68 725.39,-33.4 719.56,-30.6"/>
<polygon fill="midnightblue" stroke="midnightblue" points="838.55,-187.16 845.88,-194.81 844.92,-184.26 838.55,-187.16"/>
</g>
<!-- Node3 -->
<g id="node3" class="node">
<title>Node3</title>
<g id="a_node3"><a xlink:href="test__cmp__entity_8c_a9ff6c40a6acfa4a24a448db1471c524a.html#a9ff6c40a6acfa4a24a448db1471c524a" target="_top" xlink:title=" ">
<polygon fill="white" stroke="black" points="402,-427 402,-446 559,-446 559,-427 402,-427"/>
<text text-anchor="middle" x="480.5" y="-434" font-family="Helvetica,sans-Serif" font-size="10.00">test_cmp_ent_get_cmp_data</text>
</a>
</g>
</g>
<!-- Node2&#45;&gt;Node3 -->
<g id="edge2" class="edge">
<title>Node2&#45;&gt;Node3</title>
<path fill="none" stroke="midnightblue" d="M588.82,-421.25C575.43,-423.16 561.57,-425.12 548.44,-426.99"/>
<polygon fill="midnightblue" stroke="midnightblue" points="589.54,-424.69 598.95,-419.81 588.56,-417.75 589.54,-424.69"/>
</g>
<!-- Node5 -->
<g id="node5" class="node">
<title>Node5</title>
<g id="a_node5"><a xlink:href="cmp__entity_8c_acb86c5ed513a665da74d6cfbc5db3874.html#acb86c5ed513a665da74d6cfbc5db3874" target="_top" xlink:title="print the entire compressed entity header plus data">
<polygon fill="white" stroke="black" points="437.5,-176 437.5,-195 523.5,-195 523.5,-176 437.5,-176"/>
<text text-anchor="middle" x="480.5" y="-183" font-family="Helvetica,sans-Serif" font-size="10.00">cmp_ent_print</text>
</a>
</g>
</g>
<!-- Node4&#45;&gt;Node5 -->
<g id="edge4" class="edge">
<title>Node4&#45;&gt;Node5</title>
<path fill="none" stroke="midnightblue" d="M608.5,-211.87C581.15,-206.19 548.8,-199.47 523.59,-194.24"/>
<polygon fill="midnightblue" stroke="midnightblue" points="607.82,-215.3 618.32,-213.91 609.24,-208.45 607.82,-215.3"/>
</g>
<!-- Node6 -->
<g id="node6" class="node">
<title>Node6</title>
<g id="a_node6"><a xlink:href="test__cmp__entity_8c_a28c5d64d3c7c61100798fa39100d0f30.html#a28c5d64d3c7c61100798fa39100d0f30" target="_top" xlink:title=" ">
<polygon fill="white" stroke="black" points="219,-176 219,-195 329,-195 329,-176 219,-176"/>
<text text-anchor="middle" x="274" y="-183" font-family="Helvetica,sans-Serif" font-size="10.00">test_cmp_ent_print</text>
</a>
</g>
</g>
<!-- Node5&#45;&gt;Node6 -->
<g id="edge5" class="edge">
<title>Node5&#45;&gt;Node6</title>
<path fill="none" stroke="midnightblue" d="M426.84,-185.5C396.82,-185.5 359.26,-185.5 329.01,-185.5"/>
<polygon fill="midnightblue" stroke="midnightblue" points="427.13,-189 437.13,-185.5 427.13,-182 427.13,-189"/>
</g>
<!-- Node8 -->
<g id="node8" class="node">
<title>Node8</title>
<g id="a_node8"><a xlink:href="decmp_8h_aefe0fa39fdc295432f5e2e0f91f0b87f.html#aefe0fa39fdc295432f5e2e0f91f0b87f" target="_top" xlink:title="decompress a compression entity">
<polygon fill="white" stroke="black" points="414.5,-389 414.5,-408 546.5,-408 546.5,-389 414.5,-389"/>
<text text-anchor="middle" x="480.5" y="-396" font-family="Helvetica,sans-Serif" font-size="10.00">decompress_cmp_entiy</text>
</a>
</g>
</g>
<!-- Node7&#45;&gt;Node8 -->
<g id="edge7" class="edge">
<title>Node7&#45;&gt;Node8</title>
<path fill="none" stroke="midnightblue" d="M625.02,-360.03C605.27,-366.15 580.95,-373.49 559,-379.5 547.11,-382.76 534.12,-386.05 522.23,-388.95"/>
<polygon fill="midnightblue" stroke="midnightblue" points="626.11,-363.36 634.61,-357.04 624.02,-356.67 626.11,-363.36"/>
</g>
<!-- Node15 -->
<g id="node15" class="node">
<title>Node15</title>
<g id="a_node15"><a xlink:href="test__decmp_8c_a83b6283115165bfb92bf9008dcbdc41d.html#a83b6283115165bfb92bf9008dcbdc41d" target="_top" xlink:title=" ">
<polygon fill="white" stroke="black" points="406,-339.5 406,-369.5 555,-369.5 555,-339.5 406,-339.5"/>
<text text-anchor="start" x="414" y="-357.5" font-family="Helvetica,sans-Serif" font-size="10.00">test_cmp_ent_read_header</text>
<text text-anchor="middle" x="480.5" y="-346.5" font-family="Helvetica,sans-Serif" font-size="10.00">_error_cases</text>
</a>
</g>
</g>
<!-- Node7&#45;&gt;Node15 -->
<g id="edge14" class="edge">
<title>Node7&#45;&gt;Node15</title>
<path fill="none" stroke="midnightblue" d="M592.63,-350.25C580.37,-350.72 567.6,-351.21 555.29,-351.68"/>
<polygon fill="midnightblue" stroke="midnightblue" points="592.94,-353.74 602.8,-349.86 592.67,-346.75 592.94,-353.74"/>
</g>
<!-- Node7&#45;&gt;Node16 -->
<g id="edge15" class="edge">
<title>Node7&#45;&gt;Node16</title>
<path fill="none" stroke="midnightblue" d="M613.12,-335.71C589.43,-330.27 561.27,-323.81 537.09,-318.26"/>
<polygon fill="midnightblue" stroke="midnightblue" points="612.44,-339.14 622.97,-337.97 614.01,-332.32 612.44,-339.14"/>
</g>
<!-- Node9 -->
<g id="node9" class="node">
<title>Node9</title>
<g id="a_node9"><a xlink:href="test__cmp__decmp_8c_a50ba26014079160ca77b7d7fa76ce0f4.html#a50ba26014079160ca77b7d7fa76ce0f4" target="_top" xlink:title="compress the given configuration and decompress it afterwards; finally compare the results">
<polygon fill="white" stroke="black" points="195,-263 195,-282 353,-282 353,-263 195,-263"/>
<text text-anchor="middle" x="274" y="-270" font-family="Helvetica,sans-Serif" font-size="10.00">compression_decompression</text>
</a>
</g>
</g>
<!-- Node8&#45;&gt;Node9 -->
<g id="edge8" class="edge">
<title>Node8&#45;&gt;Node9</title>
<path fill="none" stroke="midnightblue" d="M408.33,-384.11C406.12,-382.71 404,-381.18 402,-379.5 371.53,-353.9 396.12,-323.52 366,-297.5 358.07,-290.64 348.41,-285.65 338.39,-282.02"/>
<polygon fill="midnightblue" stroke="midnightblue" points="406.83,-387.27 417.3,-388.89 410.12,-381.1 406.83,-387.27"/>
</g>
<!-- Node11 -->
<g id="node11" class="node">
<title>Node11</title>
<g id="a_node11"><a xlink:href="test__decmp_8c_a6e7a5e150e2c829836db3c42cdec2eec.html#a6e7a5e150e2c829836db3c42cdec2eec" target="_top" xlink:title=" ">
<polygon fill="white" stroke="black" points="182,-307 182,-326 366,-326 366,-307 182,-307"/>
<text text-anchor="middle" x="274" y="-314" font-family="Helvetica,sans-Serif" font-size="10.00">test_cmp_decmp_n_imagette_raw</text>
</a>
</g>
</g>
<!-- Node8&#45;&gt;Node11 -->
<g id="edge10" class="edge">
<title>Node8&#45;&gt;Node11</title>
<path fill="none" stroke="midnightblue" d="M413.4,-385.33C409.43,-383.61 405.6,-381.68 402,-379.5 381.27,-366.92 386.75,-351.05 366,-338.5 357.24,-333.2 347.28,-329.18 337.24,-326.13"/>
<polygon fill="midnightblue" stroke="midnightblue" points="412.25,-388.63 422.84,-388.93 414.74,-382.09 412.25,-388.63"/>
</g>
<!-- Node12 -->
<g id="node12" class="node">
<title>Node12</title>
<g id="a_node12"><a xlink:href="test__decmp_8c_a1a33e2fcbf484c79dfe661b280386f6b.html#a1a33e2fcbf484c79dfe661b280386f6b" target="_top" xlink:title=" ">
<polygon fill="white" stroke="black" points="201,-348 201,-367 347,-367 347,-348 201,-348"/>
<text text-anchor="middle" x="274" y="-355" font-family="Helvetica,sans-Serif" font-size="10.00">test_cmp_decmp_s_fx_diff</text>
</a>
</g>
</g>
<!-- Node8&#45;&gt;Node12 -->
<g id="edge11" class="edge">
<title>Node8&#45;&gt;Node12</title>
<path fill="none" stroke="midnightblue" d="M422.14,-387C390.72,-380.7 352.25,-372.99 322.53,-367.03"/>
<polygon fill="midnightblue" stroke="midnightblue" points="421.58,-390.46 432.07,-388.99 422.95,-383.59 421.58,-390.46"/>
</g>
<!-- Node13 -->
<g id="node13" class="node">
<title>Node13</title>
<g id="a_node13"><a xlink:href="test__decmp_8c_acfebf2fa7515f5449e0cfa594457b66b.html#acfebf2fa7515f5449e0cfa594457b66b" target="_top" xlink:title=" ">
<polygon fill="white" stroke="black" points="233,-425 233,-444 315,-444 315,-425 233,-425"/>
<text text-anchor="middle" x="274" y="-432" font-family="Helvetica,sans-Serif" font-size="10.00">test_s_fx_diff</text>
</a>
</g>
</g>
<!-- Node8&#45;&gt;Node13 -->
<g id="edge12" class="edge">
<title>Node8&#45;&gt;Node13</title>
<path fill="none" stroke="midnightblue" d="M415.52,-409.76C382.64,-415.55 343.6,-422.42 315.02,-427.45"/>
<polygon fill="midnightblue" stroke="midnightblue" points="416.26,-413.19 425.5,-408.01 415.05,-406.29 416.26,-413.19"/>
</g>
<!-- Node14 -->
<g id="node14" class="node">
<title>Node14</title>
<g id="a_node14"><a xlink:href="test__decmp_8c_a953eeaad914985c0816dde26d47ffef0.html#a953eeaad914985c0816dde26d47ffef0" target="_top" xlink:title=" ">
<polygon fill="white" stroke="black" points="225.5,-387 225.5,-406 322.5,-406 322.5,-387 225.5,-387"/>
<text text-anchor="middle" x="274" y="-394" font-family="Helvetica,sans-Serif" font-size="10.00">test_s_fx_model</text>
</a>
</g>
</g>
<!-- Node8&#45;&gt;Node14 -->
<g id="edge13" class="edge">
<title>Node8&#45;&gt;Node14</title>
<path fill="none" stroke="midnightblue" d="M403.98,-397.76C376.82,-397.5 346.96,-397.2 322.82,-396.97"/>
<polygon fill="midnightblue" stroke="midnightblue" points="404.2,-401.26 414.23,-397.86 404.27,-394.26 404.2,-401.26"/>
</g>
<!-- Node10 -->
<g id="node10" class="node">
<title>Node10</title>
<g id="a_node10"><a xlink:href="test__cmp__decmp_8c_af3c162694b40683e0aa25c61a49cdafc.html#af3c162694b40683e0aa25c61a49cdafc" target="_top" xlink:title="random compression decompression test">
<polygon fill="white" stroke="black" points="0,-257.5 0,-287.5 146,-287.5 146,-257.5 0,-257.5"/>
<text text-anchor="start" x="8" y="-275.5" font-family="Helvetica,sans-Serif" font-size="10.00">test_random_compression</text>
<text text-anchor="middle" x="73" y="-264.5" font-family="Helvetica,sans-Serif" font-size="10.00">_decompression</text>
</a>
</g>
</g>
<!-- Node9&#45;&gt;Node10 -->
<g id="edge9" class="edge">
<title>Node9&#45;&gt;Node10</title>
<path fill="none" stroke="midnightblue" d="M184.63,-272.5C171.72,-272.5 158.55,-272.5 146.01,-272.5"/>
<polygon fill="midnightblue" stroke="midnightblue" points="184.92,-276 194.92,-272.5 184.92,-269 184.92,-276"/>
</g>
<!-- Node17&#45;&gt;Node16 -->
<g id="edge25" class="edge">
<title>Node17&#45;&gt;Node16</title>
<path fill="none" stroke="midnightblue" d="M614.82,-273.44C590.79,-279.22 561.86,-286.18 537.1,-292.13"/>
<polygon fill="midnightblue" stroke="midnightblue" points="615.89,-276.79 624.79,-271.05 614.25,-269.98 615.89,-276.79"/>
</g>
<!-- Node18 -->
<g id="node18" class="node">
<title>Node18</title>
<g id="a_node18"><a xlink:href="cmp__entity_8c_ac68e6942c21572a9513a9a7577126458.html#ac68e6942c21572a9513a9a7577126458" target="_top" xlink:title="create a compression entity and set the header fields">
<polygon fill="white" stroke="black" points="436.5,-214 436.5,-233 524.5,-233 524.5,-214 436.5,-214"/>
<text text-anchor="middle" x="480.5" y="-221" font-family="Helvetica,sans-Serif" font-size="10.00">cmp_ent_build</text>
</a>
</g>
</g>
<!-- Node17&#45;&gt;Node18 -->
<g id="edge17" class="edge">
<title>Node17&#45;&gt;Node18</title>
<path fill="none" stroke="midnightblue" d="M608.25,-249.82C581.29,-244.22 549.51,-237.62 524.52,-232.43"/>
<polygon fill="midnightblue" stroke="midnightblue" points="607.82,-253.3 618.32,-251.91 609.24,-246.45 607.82,-253.3"/>
</g>
<!-- Node21 -->
<g id="node21" class="node">
<title>Node21</title>
<g id="a_node21"><a xlink:href="test__decmp_8c_a2d642d4d482b9ec7eca4568a95f5bdd4.html#a2d642d4d482b9ec7eca4568a95f5bdd4" target="_top" xlink:title=" ">
<polygon fill="white" stroke="black" points="408.5,-252 408.5,-271 552.5,-271 552.5,-252 408.5,-252"/>
<text text-anchor="middle" x="480.5" y="-259" font-family="Helvetica,sans-Serif" font-size="10.00">icu_compress_data_entity</text>
</a>
</g>
</g>
<!-- Node17&#45;&gt;Node21 -->
<g id="edge23" class="edge">
<title>Node17&#45;&gt;Node21</title>
<path fill="none" stroke="midnightblue" d="M584.63,-261.5C573.95,-261.5 563.05,-261.5 552.53,-261.5"/>
<polygon fill="midnightblue" stroke="midnightblue" points="584.79,-265 594.79,-261.5 584.79,-258 584.79,-265"/>
</g>
<!-- Node17&#45;&gt;Node22 -->
<g id="edge26" class="edge">
<title>Node17&#45;&gt;Node22</title>
<path fill="none" stroke="midnightblue" d="M601.42,-247.13C599.16,-245.73 597.01,-244.19 595,-242.5 566.36,-218.49 587.09,-191.15 559,-166.5 552.62,-160.91 544.98,-156.56 537.01,-153.19"/>
<polygon fill="midnightblue" stroke="midnightblue" points="600.04,-250.36 610.53,-251.89 603.29,-244.16 600.04,-250.36"/>
</g>
<!-- Node18&#45;&gt;Node6 -->
<g id="edge22" class="edge">
<title>Node18&#45;&gt;Node6</title>
<path fill="none" stroke="midnightblue" d="M426,-213.56C395.19,-207.83 356.68,-200.68 326.26,-195.02"/>
<polygon fill="midnightblue" stroke="midnightblue" points="425.66,-217.06 436.13,-215.44 426.94,-210.17 425.66,-217.06"/>
</g>
<!-- Node18&#45;&gt;Node9 -->
<g id="edge18" class="edge">
<title>Node18&#45;&gt;Node9</title>
<path fill="none" stroke="midnightblue" d="M429.49,-235.48C394.21,-243.94 347.58,-255.11 314.81,-262.96"/>
<polygon fill="midnightblue" stroke="midnightblue" points="430.68,-238.8 439.58,-233.06 429.04,-231.99 430.68,-238.8"/>
</g>
<!-- Node18&#45;&gt;Node11 -->
<g id="edge19" class="edge">
<title>Node18&#45;&gt;Node11</title>
<path fill="none" stroke="midnightblue" d="M426.53,-231.23C417.89,-233.93 409.37,-237.58 402,-242.5 379.53,-257.51 388.26,-276.18 366,-291.5 356.01,-298.37 344.19,-303.36 332.44,-306.98"/>
<polygon fill="midnightblue" stroke="midnightblue" points="427.55,-234.58 436.28,-228.56 425.71,-227.83 427.55,-234.58"/>
</g>
<!-- Node18&#45;&gt;Node19 -->
<g id="edge20" class="edge">
<title>Node18&#45;&gt;Node19</title>
<path fill="none" stroke="midnightblue" d="M426.72,-214.89C418.13,-212.29 409.57,-208.9 402,-204.5 381.89,-192.81 384.78,-180.23 366,-166.5 345.89,-151.79 320.09,-139.86 301.1,-132.15"/>
<polygon fill="midnightblue" stroke="midnightblue" points="425.83,-218.27 436.39,-217.51 427.66,-211.52 425.83,-218.27"/>
</g>
<!-- Node20 -->
<g id="node20" class="node">
<title>Node20</title>
<g id="a_node20"><a xlink:href="test__cmp__entity_8c_a893444224bcd50fbb99e42e85989b4a6.html#a893444224bcd50fbb99e42e85989b4a6" target="_top" xlink:title=" ">
<polygon fill="white" stroke="black" points="216.5,-214 216.5,-233 331.5,-233 331.5,-214 216.5,-214"/>
<text text-anchor="middle" x="274" y="-221" font-family="Helvetica,sans-Serif" font-size="10.00">test_cmp_ent_parse</text>
</a>
</g>
</g>
<!-- Node18&#45;&gt;Node20 -->
<g id="edge21" class="edge">
<title>Node18&#45;&gt;Node20</title>
<path fill="none" stroke="midnightblue" d="M425.77,-223.5C396.76,-223.5 360.96,-223.5 331.52,-223.5"/>
<polygon fill="midnightblue" stroke="midnightblue" points="426.13,-227 436.13,-223.5 426.13,-220 426.13,-227"/>
</g>
<!-- Node21&#45;&gt;Node12 -->
<g id="edge24" class="edge">
<title>Node21&#45;&gt;Node12</title>
<path fill="none" stroke="midnightblue" d="M413.03,-275.03C409.16,-276.91 405.44,-279.06 402,-281.5 378.49,-298.2 389.64,-318.98 366,-335.5 358.41,-340.81 349.68,-344.84 340.71,-347.91"/>
<polygon fill="midnightblue" stroke="midnightblue" points="414.48,-278.22 422.32,-271.09 411.74,-271.77 414.48,-278.22"/>
</g>
<!-- Node23&#45;&gt;Node22 -->
<g id="edge28" class="edge">
<title>Node23&#45;&gt;Node22</title>
<path fill="none" stroke="midnightblue" d="M597.41,-141.5C577.59,-141.5 556.12,-141.5 537.11,-141.5"/>
<polygon fill="midnightblue" stroke="midnightblue" points="597.6,-145 607.6,-141.5 597.6,-138 597.6,-145"/>
</g>
</g>
</svg>
        <g id="navigator" transform="translate(0 0)" fill="#404254">
                <rect fill="#f2f5e9" fill-opacity="0.5" stroke="#606060" stroke-width=".5" x="0" y="0" width="60" height="60"/>
                <use id="zoomplus" xlink:href="#zoomPlus" x="17" y="9" onmousedown="handleZoom(evt,'in')"/>
                <use id="zoomminus" xlink:href="#zoomMin" x="42" y="9" onmousedown="handleZoom(evt,'out')"/>
                <use id="reset" xlink:href="#resetDef" x="30" y="36" onmousedown="handleReset()"/>
                <g id="arrowUp" xlink:href="#dirArrow" transform="translate(30 24)" onmousedown="handlePan(0,-1)">
                  <use xlink:href="#rim" fill="#404040">
                        <set attributeName="fill" to="#808080" begin="arrowUp.mouseover" end="arrowUp.mouseout"/>
                  </use>
                  <path fill="none" stroke="white" stroke-width="1.5" d="M0,-3.0v7 M-2.5,-0.5L0,-3.0L2.5,-0.5"/>
                </g>
                <g id="arrowRight" xlink:href="#dirArrow" transform="rotate(90) translate(36 -43)" onmousedown="handlePan(1,0)">
                  <use xlink:href="#rim" fill="#404040">
                        <set attributeName="fill" to="#808080" begin="arrowRight.mouseover" end="arrowRight.mouseout"/>
                  </use>
                  <path fill="none" stroke="white" stroke-width="1.5" d="M0,-3.0v7 M-2.5,-0.5L0,-3.0L2.5,-0.5"/>
                </g>
                <g id="arrowDown" xlink:href="#dirArrow" transform="rotate(180) translate(-30 -48)" onmousedown="handlePan(0,1)">
                  <use xlink:href="#rim" fill="#404040">
                        <set attributeName="fill" to="#808080" begin="arrowDown.mouseover" end="arrowDown.mouseout"/>
                  </use>
                  <path fill="none" stroke="white" stroke-width="1.5" d="M0,-3.0v7 M-2.5,-0.5L0,-3.0L2.5,-0.5"/>
                </g>
                <g id="arrowLeft" xlink:href="#dirArrow" transform="rotate(270) translate(-36 17)" onmousedown="handlePan(-1,0)">
                  <use xlink:href="#rim" fill="#404040">
                        <set attributeName="fill" to="#808080" begin="arrowLeft.mouseover" end="arrowLeft.mouseout"/>
                  </use>
                  <path fill="none" stroke="white" stroke-width="1.5" d="M0,-3.0v7 M-2.5,-0.5L0,-3.0L2.5,-0.5"/>
                </g>
        </g>
        <svg viewBox="0 0 15 15" width="100%" height="30px" preserveAspectRatio="xMaxYMin meet">
         <g id="arrow_out" transform="scale(0.3 0.3)">
          <a xlink:href="cmp__entity_8c_a6fc83a1c918c2d0c565f8f828fce62b7_a6fc83a1c918c2d0c565f8f828fce62b7_icgraph_org.svg" target="_base">
           <rect id="button" ry="5" rx="5" y="6" x="6" height="38" width="38"
                fill="#f2f5e9" fill-opacity="0.5" stroke="#606060" stroke-width="1.0"/>
           <path id="arrow"
             d="M 11.500037,31.436501 C 11.940474,20.09759 22.043105,11.32322 32.158766,21.979434 L 37.068811,17.246167 C 37.068811,17.246167 37.088388,32 37.088388,32 L 22.160133,31.978069 C 22.160133,31.978069 26.997745,27.140456 26.997745,27.140456 C 18.528582,18.264221 13.291696,25.230495 11.500037,31.436501 z"
             style="fill:#404040;"/>
          </a>
         </g>
        </svg>
</svg>
