<?xml version="1.0" encoding="UTF-8" standalone="no"?>
<!DOCTYPE svg PUBLIC "-//W3C//DTD SVG 1.1//EN"
 "http://www.w3.org/Graphics/SVG/1.1/DTD/svg11.dtd">
<!-- Generated by graphviz version 2.43.0 (0)
 -->
<!-- Title: compress_l_fx_efx Pages: 1 -->
<!--zoomable 349 -->
<svg id="main" version="1.1" xmlns="http://www.w3.org/2000/svg" xmlns:xlink="http://www.w3.org/1999/xlink" xml:space="preserve" onload="init(evt)">
<style type="text/css"><![CDATA[
.edge:hover path { stroke: red; }
.edge:hover polygon { stroke: red; fill: red; }
]]></style>
<script type="text/javascript"><![CDATA[
var edges = document.getElementsByTagName('g');
if (edges && edges.length) {
  for (var i=0;i<edges.length;i++) {
    if (edges[i].id.substr(0,4)=='edge') {
      edges[i].setAttribute('class','edge');
    }
  }
}
]]></script>
        <defs>
                <circle id="rim" cx="0" cy="0" r="7"/>
                <circle id="rim2" cx="0" cy="0" r="3.5"/>
                <g id="zoomPlus">
                        <use xlink:href="#rim" fill="#404040">
                                <set attributeName="fill" to="#808080" begin="zoomplus.mouseover" end="zoomplus.mouseout"/>
                        </use>
                        <path d="M-4,0h8M0,-4v8" fill="none" stroke="white" stroke-width="1.5" pointer-events="none"/>
                </g>
                <g id="zoomMin">
                        <use xlink:href="#rim" fill="#404040">
                                <set attributeName="fill" to="#808080" begin="zoomminus.mouseover" end="zoomminus.mouseout"/>
                        </use>
                        <path d="M-4,0h8" fill="none" stroke="white" stroke-width="1.5" pointer-events="none"/>
                </g>
                <g id="dirArrow">
                        <path fill="none" stroke="white" stroke-width="1.5" d="M0,-3.0v7 M-2.5,-0.5L0,-3.0L2.5,-0.5"/>
                </g>
               <g id="resetDef">
                       <use xlink:href="#rim2" fill="#404040">
                               <set attributeName="fill" to="#808080" begin="reset.mouseover" end="reset.mouseout"/>
                       </use>
               </g>
        </defs>

<script type="text/javascript">
var viewWidth = 795;
var viewHeight = 349;
var sectionId = 'dynsection-0';
</script>
<script xlink:href="svgpan.js"/>
<svg id="graph" class="graph">
<g id="viewport">
<title>compress_l_fx_efx</title>
<polygon fill="white" stroke="transparent" points="-4,4 -4,-345 791,-345 791,4 -4,4"/>
<!-- Node1 -->
<g id="node1" class="node">
<title>Node1</title>
<g id="a_node1"><a xlink:title="compress L_FX_EFX data">
<polygon fill="#bfbfbf" stroke="black" points="0,-133.5 0,-152.5 108,-152.5 108,-133.5 0,-133.5"/>
<text text-anchor="middle" x="54" y="-140.5" font-family="Helvetica,sans-Serif" font-size="10.00">compress_l_fx_efx</text>
</a>
</g>
</g>
<!-- Node2 -->
<g id="node2" class="node">
<title>Node2</title>
<g id="a_node2"><a xlink:href="cmp__cal__up__model_8h_ae94523fd5901d49d08ea8f98ee319356.html#ae94523fd5901d49d08ea8f98ee319356" target="_top" xlink:title=" ">
<polygon fill="white" stroke="black" points="165.5,-209.5 165.5,-228.5 268.5,-228.5 268.5,-209.5 165.5,-209.5"/>
<text text-anchor="middle" x="217" y="-216.5" font-family="Helvetica,sans-Serif" font-size="10.00">cmp_up_model32</text>
</a>
</g>
</g>
<!-- Node1&#45;&gt;Node2 -->
<g id="edge1" class="edge">
<title>Node1&#45;&gt;Node2</title>
<path fill="none" stroke="midnightblue" d="M67.26,-152.63C83.81,-165.19 114.6,-187.09 144,-200 149.46,-202.4 155.29,-204.55 161.18,-206.46"/>
<polygon fill="midnightblue" stroke="midnightblue" points="160.51,-209.92 171.09,-209.46 162.53,-203.22 160.51,-209.92"/>
</g>
<!-- Node3 -->
<g id="node3" class="node">
<title>Node3</title>
<g id="a_node3"><a xlink:href="cmp__icu_8c_a68e2952d3ee5108ed25d85c0fe15cad9.html#a68e2952d3ee5108ed25d85c0fe15cad9" target="_top" xlink:title="compress the multi&#45;entry packet header structure and sets the data, model and up_model pointers to th...">
<polygon fill="white" stroke="black" points="144,-171.5 144,-190.5 290,-190.5 290,-171.5 144,-171.5"/>
<text text-anchor="middle" x="217" y="-178.5" font-family="Helvetica,sans-Serif" font-size="10.00">compress_multi_entry_hdr</text>
</a>
</g>
</g>
<!-- Node1&#45;&gt;Node3 -->
<g id="edge2" class="edge">
<title>Node1&#45;&gt;Node3</title>
<path fill="none" stroke="midnightblue" d="M95.63,-152.59C116.97,-157.63 143.31,-163.84 165.91,-169.18"/>
<polygon fill="midnightblue" stroke="midnightblue" points="165.13,-172.59 175.67,-171.48 166.74,-165.78 165.13,-172.59"/>
</g>
<!-- Node4 -->
<g id="node4" class="node">
<title>Node4</title>
<g id="a_node4"><a xlink:href="cmp__icu_8c_a5434cde7ebe64a734bcd3029e0755d39.html#a5434cde7ebe64a734bcd3029e0755d39" target="_top" xlink:title="configure an encoder setup structure to have a setup to encode a vale">
<polygon fill="white" stroke="black" points="148,-133.5 148,-152.5 286,-152.5 286,-133.5 148,-133.5"/>
<text text-anchor="middle" x="217" y="-140.5" font-family="Helvetica,sans-Serif" font-size="10.00">configure_encoder_setup</text>
</a>
</g>
</g>
<!-- Node1&#45;&gt;Node4 -->
<g id="edge3" class="edge">
<title>Node1&#45;&gt;Node4</title>
<path fill="none" stroke="midnightblue" d="M108.16,-143C117.71,-143 127.84,-143 137.92,-143"/>
<polygon fill="midnightblue" stroke="midnightblue" points="137.96,-146.5 147.96,-143 137.96,-139.5 137.96,-146.5"/>
</g>
<!-- Node19 -->
<g id="node19" class="node">
<title>Node19</title>
<g id="a_node19"><a xlink:href="cmp__icu_8c_a5268c6512d945edcdc898cd1b2ca5396.html#a5268c6512d945edcdc898cd1b2ca5396" target="_top" xlink:title="encodes the data with the model and the given setup and put it into the bitstream">
<polygon fill="white" stroke="black" points="175,-95.5 175,-114.5 259,-114.5 259,-95.5 175,-95.5"/>
<text text-anchor="middle" x="217" y="-102.5" font-family="Helvetica,sans-Serif" font-size="10.00">encode_value</text>
</a>
</g>
</g>
<!-- Node1&#45;&gt;Node19 -->
<g id="edge23" class="edge">
<title>Node1&#45;&gt;Node19</title>
<path fill="none" stroke="midnightblue" d="M95.63,-133.41C116.97,-128.37 143.31,-122.16 165.91,-116.82"/>
<polygon fill="midnightblue" stroke="midnightblue" points="166.74,-120.22 175.67,-114.52 165.13,-113.41 166.74,-120.22"/>
</g>
<!-- Node20 -->
<g id="node20" class="node">
<title>Node20</title>
<g id="a_node20"><a xlink:href="cmp__support_8c_afba7806c424cfb8c7678c1b4cebdfcbb.html#afba7806c424cfb8c7678c1b4cebdfcbb" target="_top" xlink:title="check if a model mode is selected">
<polygon fill="white" stroke="black" points="156,-57.5 156,-76.5 278,-76.5 278,-57.5 156,-57.5"/>
<text text-anchor="middle" x="217" y="-64.5" font-family="Helvetica,sans-Serif" font-size="10.00">model_mode_is_used</text>
</a>
</g>
</g>
<!-- Node1&#45;&gt;Node20 -->
<g id="edge24" class="edge">
<title>Node1&#45;&gt;Node20</title>
<path fill="none" stroke="midnightblue" d="M67.26,-133.37C83.81,-120.81 114.6,-98.91 144,-86 149.46,-83.6 155.29,-81.45 161.18,-79.54"/>
<polygon fill="midnightblue" stroke="midnightblue" points="162.53,-82.78 171.09,-76.54 160.51,-76.08 162.53,-82.78"/>
</g>
<!-- Node5 -->
<g id="node5" class="node">
<title>Node5</title>
<g id="a_node5"><a xlink:href="cmp__icu_8c_a24f7f725d312368abff72e12ba0380c7.html#a24f7f725d312368abff72e12ba0380c7" target="_top" xlink:title="calculate the maximum length of the bitstream/icu_output_buf in bits">
<polygon fill="white" stroke="black" points="326,-294.5 326,-313.5 472,-313.5 472,-294.5 326,-294.5"/>
<text text-anchor="middle" x="399" y="-301.5" font-family="Helvetica,sans-Serif" font-size="10.00">cmp_buffer_length_to_bits</text>
</a>
</g>
</g>
<!-- Node4&#45;&gt;Node5 -->
<g id="edge4" class="edge">
<title>Node4&#45;&gt;Node5</title>
<path fill="none" stroke="midnightblue" d="M276.18,-152.66C281.23,-155.13 285.95,-158.19 290,-162 327.16,-196.96 291.98,-232.98 326,-271 333.44,-279.32 343.4,-285.68 353.53,-290.48"/>
<polygon fill="midnightblue" stroke="midnightblue" points="352.25,-293.74 362.82,-294.47 355.02,-287.31 352.25,-293.74"/>
</g>
<!-- Node9 -->
<g id="node9" class="node">
<title>Node9</title>
<g id="a_node9"><a xlink:href="cmp__icu_8c_aaea9e8cb11d380bb6a6c11020a7c77f9.html#aaea9e8cb11d380bb6a6c11020a7c77f9" target="_top" xlink:title="subtract the model from the data, encode the result and put it into bitstream, for encoding outlier u...">
<polygon fill="white" stroke="black" points="341.5,-152.5 341.5,-171.5 456.5,-171.5 456.5,-152.5 341.5,-152.5"/>
<text text-anchor="middle" x="399" y="-159.5" font-family="Helvetica,sans-Serif" font-size="10.00">encode_value_multi</text>
</a>
</g>
</g>
<!-- Node4&#45;&gt;Node9 -->
<g id="edge8" class="edge">
<title>Node4&#45;&gt;Node9</title>
<path fill="none" stroke="midnightblue" d="M286.05,-150.18C300.85,-151.75 316.5,-153.4 331.25,-154.95"/>
<polygon fill="midnightblue" stroke="midnightblue" points="330.99,-158.45 341.3,-156.01 331.72,-151.48 330.99,-158.45"/>
</g>
<!-- Node13 -->
<g id="node13" class="node">
<title>Node13</title>
<g id="a_node13"><a xlink:href="cmp__icu_8c_aa3eee2af4deb902d63df587a6a15af13.html#aa3eee2af4deb902d63df587a6a15af13" target="_top" xlink:title="put the value unencoded with setup&#45;&gt;cmp_par_1 bits without any changes in the bitstream">
<polygon fill="white" stroke="black" points="513.5,-261.5 513.5,-280.5 626.5,-280.5 626.5,-261.5 513.5,-261.5"/>
<text text-anchor="middle" x="570" y="-268.5" font-family="Helvetica,sans-Serif" font-size="10.00">encode_value_none</text>
</a>
</g>
</g>
<!-- Node4&#45;&gt;Node13 -->
<g id="edge13" class="edge">
<title>Node4&#45;&gt;Node13</title>
<path fill="none" stroke="midnightblue" d="M272.34,-152.54C278.63,-155 284.68,-158.1 290,-162 314.16,-179.72 301.43,-201.86 326,-219 378.16,-255.39 450.83,-267.11 503.09,-270.51"/>
<polygon fill="midnightblue" stroke="midnightblue" points="503.08,-274.02 513.26,-271.08 503.47,-267.03 503.08,-274.02"/>
</g>
<!-- Node14 -->
<g id="node14" class="node">
<title>Node14</title>
<g id="a_node14"><a xlink:href="cmp__icu_8c_a441be2f84e386657cc72dc61b7769ff1.html#a441be2f84e386657cc72dc61b7769ff1" target="_top" xlink:title="subtract the model from the data, encode the result and put it into bitstream, for encoding outlier u...">
<polygon fill="white" stroke="black" points="344,-190.5 344,-209.5 454,-209.5 454,-190.5 344,-190.5"/>
<text text-anchor="middle" x="399" y="-197.5" font-family="Helvetica,sans-Serif" font-size="10.00">encode_value_zero</text>
</a>
</g>
</g>
<!-- Node4&#45;&gt;Node14 -->
<g id="edge15" class="edge">
<title>Node4&#45;&gt;Node14</title>
<path fill="none" stroke="midnightblue" d="M260.77,-152.57C270.52,-155.22 280.73,-158.38 290,-162 306.86,-168.57 309.14,-174.43 326,-181 332.23,-183.43 338.88,-185.65 345.53,-187.66"/>
<polygon fill="midnightblue" stroke="midnightblue" points="344.65,-191.04 355.23,-190.43 346.57,-184.31 344.65,-191.04"/>
</g>
<!-- Node15 -->
<g id="node15" class="node">
<title>Node15</title>
<g id="a_node15"><a xlink:href="cmp__icu_8c_ad1becd97051927d20474767867ce34a7.html#ad1becd97051927d20474767867ce34a7" target="_top" xlink:title="forms a codeword according to the Golomb code">
<polygon fill="white" stroke="black" points="350,-114.5 350,-133.5 448,-133.5 448,-114.5 350,-114.5"/>
<text text-anchor="middle" x="399" y="-121.5" font-family="Helvetica,sans-Serif" font-size="10.00">golomb_encoder</text>
</a>
</g>
</g>
<!-- Node4&#45;&gt;Node15 -->
<g id="edge19" class="edge">
<title>Node4&#45;&gt;Node15</title>
<path fill="none" stroke="midnightblue" d="M286.05,-135.82C303.61,-133.96 322.36,-131.98 339.39,-130.19"/>
<polygon fill="midnightblue" stroke="midnightblue" points="340.17,-133.62 349.75,-129.09 339.44,-126.66 340.17,-133.62"/>
</g>
<!-- Node16 -->
<g id="node16" class="node">
<title>Node16</title>
<g id="a_node16"><a xlink:href="cmp__support_8c_a67b0e38ca0e68c282c89552daa61ffdf.html#a67b0e38ca0e68c282c89552daa61ffdf" target="_top" xlink:title="implementation of the logarithm base of floor(log2(x)) for integers">
<polygon fill="white" stroke="black" points="376,-76.5 376,-95.5 422,-95.5 422,-76.5 376,-76.5"/>
<text text-anchor="middle" x="399" y="-83.5" font-family="Helvetica,sans-Serif" font-size="10.00">ilog_2</text>
</a>
</g>
</g>
<!-- Node4&#45;&gt;Node16 -->
<g id="edge20" class="edge">
<title>Node4&#45;&gt;Node16</title>
<path fill="none" stroke="midnightblue" d="M260.77,-133.43C270.52,-130.78 280.73,-127.62 290,-124 306.86,-117.43 309.14,-111.57 326,-105 338.7,-100.05 353.16,-95.95 365.77,-92.84"/>
<polygon fill="midnightblue" stroke="midnightblue" points="366.92,-96.17 375.85,-90.47 365.31,-89.36 366.92,-96.17"/>
</g>
<!-- Node17 -->
<g id="node17" class="node">
<title>Node17</title>
<g id="a_node17"><a xlink:href="cmp__support_8c_a7831f21f8303058bcac76d42a4aa1c06.html#a7831f21f8303058bcac76d42a4aa1c06" target="_top" xlink:title="determining if an integer is a power of 2">
<polygon fill="white" stroke="black" points="355,-38.5 355,-57.5 443,-57.5 443,-38.5 355,-38.5"/>
<text text-anchor="middle" x="399" y="-45.5" font-family="Helvetica,sans-Serif" font-size="10.00">is_a_pow_of_2</text>
</a>
</g>
</g>
<!-- Node4&#45;&gt;Node17 -->
<g id="edge21" class="edge">
<title>Node4&#45;&gt;Node17</title>
<path fill="none" stroke="midnightblue" d="M272.34,-133.46C278.63,-131 284.68,-127.9 290,-124 314.16,-106.28 301.84,-84.72 326,-67 331.67,-62.84 338.19,-59.59 344.93,-57.05"/>
<polygon fill="midnightblue" stroke="midnightblue" points="346.47,-60.23 354.9,-53.82 344.31,-53.57 346.47,-60.23"/>
</g>
<!-- Node18 -->
<g id="node18" class="node">
<title>Node18</title>
<g id="a_node18"><a xlink:href="cmp__icu_8c_ad3bc9d18c24f7caeef7da35b9e389c19.html#ad3bc9d18c24f7caeef7da35b9e389c19" target="_top" xlink:title="forms the codeword according to the Rice code">
<polygon fill="white" stroke="black" points="359.5,-0.5 359.5,-19.5 438.5,-19.5 438.5,-0.5 359.5,-0.5"/>
<text text-anchor="middle" x="399" y="-7.5" font-family="Helvetica,sans-Serif" font-size="10.00">rice_encoder</text>
</a>
</g>
</g>
<!-- Node4&#45;&gt;Node18 -->
<g id="edge22" class="edge">
<title>Node4&#45;&gt;Node18</title>
<path fill="none" stroke="midnightblue" d="M275.3,-133.49C280.65,-131.01 285.68,-127.89 290,-124 323.55,-93.78 292.45,-59.22 326,-29 332.63,-23.03 340.92,-18.89 349.49,-16.04"/>
<polygon fill="midnightblue" stroke="midnightblue" points="350.52,-19.39 359.21,-13.34 348.64,-12.65 350.52,-19.39"/>
</g>
<!-- Node6 -->
<g id="node6" class="node">
<title>Node6</title>
<g id="a_node6"><a xlink:href="cmp__data__types_8c_aafa65f72ed4d0fb99beb11c37f11ce52.html#aafa65f72ed4d0fb99beb11c37f11ce52" target="_top" xlink:title="calculate the need bytes for the data">
<polygon fill="white" stroke="black" points="508,-299.5 508,-318.5 632,-318.5 632,-299.5 508,-299.5"/>
<text text-anchor="middle" x="570" y="-306.5" font-family="Helvetica,sans-Serif" font-size="10.00">cmp_cal_size_of_data</text>
</a>
</g>
</g>
<!-- Node5&#45;&gt;Node6 -->
<g id="edge5" class="edge">
<title>Node5&#45;&gt;Node6</title>
<path fill="none" stroke="midnightblue" d="M472.16,-306.13C480.64,-306.39 489.3,-306.64 497.77,-306.89"/>
<polygon fill="midnightblue" stroke="midnightblue" points="497.89,-310.4 507.98,-307.19 498.09,-303.4 497.89,-310.4"/>
</g>
<!-- Node7 -->
<g id="node7" class="node">
<title>Node7</title>
<g id="a_node7"><a xlink:href="cmp__support_8c_a9197caa657b3d84615c0d323dc96c502.html#a9197caa657b3d84615c0d323dc96c502" target="_top" xlink:title="check if the data product data type is supported by the RDCU compressor">
<polygon fill="white" stroke="black" points="668,-272 668,-302 787,-302 787,-272 668,-272"/>
<text text-anchor="start" x="676" y="-290" font-family="Helvetica,sans-Serif" font-size="10.00">rdcu_supported_data</text>
<text text-anchor="middle" x="727.5" y="-279" font-family="Helvetica,sans-Serif" font-size="10.00">_type_is_used</text>
</a>
</g>
</g>
<!-- Node6&#45;&gt;Node7 -->
<g id="edge6" class="edge">
<title>Node6&#45;&gt;Node7</title>
<path fill="none" stroke="midnightblue" d="M632.01,-300.37C640.51,-299.17 649.29,-297.92 657.92,-296.7"/>
<polygon fill="midnightblue" stroke="midnightblue" points="658.54,-300.15 667.95,-295.28 657.56,-293.22 658.54,-300.15"/>
</g>
<!-- Node8 -->
<g id="node8" class="node">
<title>Node8</title>
<g id="a_node8"><a xlink:href="cmp__data__types_8c_a0be8705b1dcc45f605abd8400dd5230b.html#a0be8705b1dcc45f605abd8400dd5230b" target="_top" xlink:title="calculate the size of a sample for the different compression data type">
<polygon fill="white" stroke="black" points="675.5,-321.5 675.5,-340.5 779.5,-340.5 779.5,-321.5 675.5,-321.5"/>
<text text-anchor="middle" x="727.5" y="-328.5" font-family="Helvetica,sans-Serif" font-size="10.00">size_of_a_sample</text>
</a>
</g>
</g>
<!-- Node6&#45;&gt;Node8 -->
<g id="edge7" class="edge">
<title>Node6&#45;&gt;Node8</title>
<path fill="none" stroke="midnightblue" d="M632.01,-317.63C642.84,-319.16 654.13,-320.76 664.98,-322.3"/>
<polygon fill="midnightblue" stroke="midnightblue" points="664.82,-325.81 675.21,-323.74 665.8,-318.88 664.82,-325.81"/>
</g>
<!-- Node10 -->
<g id="node10" class="node">
<title>Node10</title>
<g id="a_node10"><a xlink:href="cmp__icu_8c_a71aaf149c528b68d0c0ffc159acc0f98.html#a71aaf149c528b68d0c0ffc159acc0f98" target="_top" xlink:title="generate a code word without an outlier mechanism and put in the bitstream">
<polygon fill="white" stroke="black" points="524,-147.5 524,-166.5 616,-166.5 616,-147.5 524,-147.5"/>
<text text-anchor="middle" x="570" y="-154.5" font-family="Helvetica,sans-Serif" font-size="10.00">encode_normal</text>
</a>
</g>
</g>
<!-- Node9&#45;&gt;Node10 -->
<g id="edge9" class="edge">
<title>Node9&#45;&gt;Node10</title>
<path fill="none" stroke="midnightblue" d="M456.74,-160.32C475.11,-159.78 495.43,-159.18 513.69,-158.64"/>
<polygon fill="midnightblue" stroke="midnightblue" points="513.99,-162.13 523.88,-158.33 513.78,-155.13 513.99,-162.13"/>
</g>
<!-- Node11 -->
<g id="node11" class="node">
<title>Node11</title>
<g id="a_node11"><a xlink:href="cmp__icu_8c_afd32ccddf2e0986e9ff136ae55a11d35.html#afd32ccddf2e0986e9ff136ae55a11d35" target="_top" xlink:title="put the value of up to 32 bits into a big endian bitstream">
<polygon fill="white" stroke="black" points="688,-201.5 688,-220.5 767,-220.5 767,-201.5 688,-201.5"/>
<text text-anchor="middle" x="727.5" y="-208.5" font-family="Helvetica,sans-Serif" font-size="10.00">put_n_bits32</text>
</a>
</g>
</g>
<!-- Node9&#45;&gt;Node11 -->
<g id="edge12" class="edge">
<title>Node9&#45;&gt;Node11</title>
<path fill="none" stroke="midnightblue" d="M434.21,-152.39C455.29,-146.97 482.99,-140.75 508,-138 562.78,-131.99 579.84,-120.2 632,-138 664.33,-149.03 694.19,-176.1 711.37,-194"/>
<polygon fill="midnightblue" stroke="midnightblue" points="708.95,-196.54 718.33,-201.48 714.08,-191.78 708.95,-196.54"/>
</g>
<!-- Node12 -->
<g id="node12" class="node">
<title>Node12</title>
<g id="a_node12"><a xlink:href="cmp__icu_8c_a208c98e6a4b7423d5003ea0d1c3a4fe3.html#a208c98e6a4b7423d5003ea0d1c3a4fe3" target="_top" xlink:title="map a signed value into a positive value range">
<polygon fill="white" stroke="black" points="532,-185.5 532,-204.5 608,-204.5 608,-185.5 532,-185.5"/>
<text text-anchor="middle" x="570" y="-192.5" font-family="Helvetica,sans-Serif" font-size="10.00">map_to_pos</text>
</a>
</g>
</g>
<!-- Node9&#45;&gt;Node12 -->
<g id="edge11" class="edge">
<title>Node9&#45;&gt;Node12</title>
<path fill="none" stroke="midnightblue" d="M448.88,-171.54C471.79,-176.02 498.98,-181.33 521.69,-185.76"/>
<polygon fill="midnightblue" stroke="midnightblue" points="521.29,-189.25 531.77,-187.73 522.63,-182.38 521.29,-189.25"/>
</g>
<!-- Node10&#45;&gt;Node11 -->
<g id="edge10" class="edge">
<title>Node10&#45;&gt;Node11</title>
<path fill="none" stroke="midnightblue" d="M602.76,-166.55C612.21,-169.48 622.55,-172.78 632,-176 652.12,-182.85 674.43,-191.09 692.32,-197.84"/>
<polygon fill="midnightblue" stroke="midnightblue" points="691.17,-201.15 701.76,-201.43 693.65,-194.61 691.17,-201.15"/>
</g>
<!-- Node13&#45;&gt;Node11 -->
<g id="edge14" class="edge">
<title>Node13&#45;&gt;Node11</title>
<path fill="none" stroke="midnightblue" d="M595.64,-261.49C621.72,-251.43 663.08,-235.47 692.31,-224.19"/>
<polygon fill="midnightblue" stroke="midnightblue" points="693.65,-227.43 701.72,-220.56 691.13,-220.9 693.65,-227.43"/>
</g>
<!-- Node14&#45;&gt;Node10 -->
<g id="edge16" class="edge">
<title>Node14&#45;&gt;Node10</title>
<path fill="none" stroke="midnightblue" d="M437.51,-190.46C462.34,-184.14 495.11,-175.8 521.73,-169.03"/>
<polygon fill="midnightblue" stroke="midnightblue" points="522.77,-172.37 531.6,-166.52 521.04,-165.59 522.77,-172.37"/>
</g>
<!-- Node14&#45;&gt;Node11 -->
<g id="edge18" class="edge">
<title>Node14&#45;&gt;Node11</title>
<path fill="none" stroke="midnightblue" d="M454.26,-208.42C471.4,-210.71 490.45,-212.87 508,-214 563,-217.55 576.9,-214.87 632,-214 646.79,-213.77 662.88,-213.32 677.52,-212.85"/>
<polygon fill="midnightblue" stroke="midnightblue" points="678.01,-216.34 687.89,-212.5 677.77,-209.34 678.01,-216.34"/>
</g>
<!-- Node14&#45;&gt;Node12 -->
<g id="edge17" class="edge">
<title>Node14&#45;&gt;Node12</title>
<path fill="none" stroke="midnightblue" d="M454.4,-198.39C476.03,-197.75 500.68,-197.02 521.57,-196.4"/>
<polygon fill="midnightblue" stroke="midnightblue" points="521.91,-199.89 531.8,-196.1 521.7,-192.9 521.91,-199.89"/>
</g>
</g>
</svg>
        <g id="navigator" transform="translate(0 0)" fill="#404254">
                <rect fill="#f2f5e9" fill-opacity="0.5" stroke="#606060" stroke-width=".5" x="0" y="0" width="60" height="60"/>
                <use id="zoomplus" xlink:href="#zoomPlus" x="17" y="9" onmousedown="handleZoom(evt,'in')"/>
                <use id="zoomminus" xlink:href="#zoomMin" x="42" y="9" onmousedown="handleZoom(evt,'out')"/>
                <use id="reset" xlink:href="#resetDef" x="30" y="36" onmousedown="handleReset()"/>
                <g id="arrowUp" xlink:href="#dirArrow" transform="translate(30 24)" onmousedown="handlePan(0,-1)">
                  <use xlink:href="#rim" fill="#404040">
                        <set attributeName="fill" to="#808080" begin="arrowUp.mouseover" end="arrowUp.mouseout"/>
                  </use>
                  <path fill="none" stroke="white" stroke-width="1.5" d="M0,-3.0v7 M-2.5,-0.5L0,-3.0L2.5,-0.5"/>
                </g>
                <g id="arrowRight" xlink:href="#dirArrow" transform="rotate(90) translate(36 -43)" onmousedown="handlePan(1,0)">
                  <use xlink:href="#rim" fill="#404040">
                        <set attributeName="fill" to="#808080" begin="arrowRight.mouseover" end="arrowRight.mouseout"/>
                  </use>
                  <path fill="none" stroke="white" stroke-width="1.5" d="M0,-3.0v7 M-2.5,-0.5L0,-3.0L2.5,-0.5"/>
                </g>
                <g id="arrowDown" xlink:href="#dirArrow" transform="rotate(180) translate(-30 -48)" onmousedown="handlePan(0,1)">
                  <use xlink:href="#rim" fill="#404040">
                        <set attributeName="fill" to="#808080" begin="arrowDown.mouseover" end="arrowDown.mouseout"/>
                  </use>
                  <path fill="none" stroke="white" stroke-width="1.5" d="M0,-3.0v7 M-2.5,-0.5L0,-3.0L2.5,-0.5"/>
                </g>
                <g id="arrowLeft" xlink:href="#dirArrow" transform="rotate(270) translate(-36 17)" onmousedown="handlePan(-1,0)">
                  <use xlink:href="#rim" fill="#404040">
                        <set attributeName="fill" to="#808080" begin="arrowLeft.mouseover" end="arrowLeft.mouseout"/>
                  </use>
                  <path fill="none" stroke="white" stroke-width="1.5" d="M0,-3.0v7 M-2.5,-0.5L0,-3.0L2.5,-0.5"/>
                </g>
        </g>
        <svg viewBox="0 0 15 15" width="100%" height="30px" preserveAspectRatio="xMaxYMin meet">
         <g id="arrow_out" transform="scale(0.3 0.3)">
          <a xlink:href="cmp__icu_8c_af7a379568d317e90a948422d1c82c2e7_af7a379568d317e90a948422d1c82c2e7_cgraph_org.svg" target="_base">
           <rect id="button" ry="5" rx="5" y="6" x="6" height="38" width="38"
                fill="#f2f5e9" fill-opacity="0.5" stroke="#606060" stroke-width="1.0"/>
           <path id="arrow"
             d="M 11.500037,31.436501 C 11.940474,20.09759 22.043105,11.32322 32.158766,21.979434 L 37.068811,17.246167 C 37.068811,17.246167 37.088388,32 37.088388,32 L 22.160133,31.978069 C 22.160133,31.978069 26.997745,27.140456 26.997745,27.140456 C 18.528582,18.264221 13.291696,25.230495 11.500037,31.436501 z"
             style="fill:#404040;"/>
          </a>
         </g>
        </svg>
</svg>
