<?xml version="1.0" encoding="UTF-8" standalone="no"?>
<!DOCTYPE svg PUBLIC "-//W3C//DTD SVG 1.1//EN"
 "http://www.w3.org/Graphics/SVG/1.1/DTD/svg11.dtd">
<!-- Generated by graphviz version 2.43.0 (0)
 -->
<!-- Title: cmp_ent_print Pages: 1 -->
<!--zoomable 116 -->
<svg id="main" version="1.1" xmlns="http://www.w3.org/2000/svg" xmlns:xlink="http://www.w3.org/1999/xlink" xml:space="preserve" onload="init(evt)">
<style type="text/css"><![CDATA[
.edge:hover path { stroke: red; }
.edge:hover polygon { stroke: red; fill: red; }
]]></style>
<script type="text/javascript"><![CDATA[
var edges = document.getElementsByTagName('g');
if (edges && edges.length) {
  for (var i=0;i<edges.length;i++) {
    if (edges[i].id.substr(0,4)=='edge') {
      edges[i].setAttribute('class','edge');
    }
  }
}
]]></script>
        <defs>
                <circle id="rim" cx="0" cy="0" r="7"/>
                <circle id="rim2" cx="0" cy="0" r="3.5"/>
                <g id="zoomPlus">
                        <use xlink:href="#rim" fill="#404040">
                                <set attributeName="fill" to="#808080" begin="zoomplus.mouseover" end="zoomplus.mouseout"/>
                        </use>
                        <path d="M-4,0h8M0,-4v8" fill="none" stroke="white" stroke-width="1.5" pointer-events="none"/>
                </g>
                <g id="zoomMin">
                        <use xlink:href="#rim" fill="#404040">
                                <set attributeName="fill" to="#808080" begin="zoomminus.mouseover" end="zoomminus.mouseout"/>
                        </use>
                        <path d="M-4,0h8" fill="none" stroke="white" stroke-width="1.5" pointer-events="none"/>
                </g>
                <g id="dirArrow">
                        <path fill="none" stroke="white" stroke-width="1.5" d="M0,-3.0v7 M-2.5,-0.5L0,-3.0L2.5,-0.5"/>
                </g>
               <g id="resetDef">
                       <use xlink:href="#rim2" fill="#404040">
                               <set attributeName="fill" to="#808080" begin="reset.mouseover" end="reset.mouseout"/>
                       </use>
               </g>
        </defs>

<script type="text/javascript">
var viewWidth = 950;
var viewHeight = 116;
var sectionId = 'dynsection-0';
</script>
<script xlink:href="svgpan.js"/>
<svg id="graph" class="graph">
<g id="viewport">
<title>cmp_ent_print</title>
<polygon fill="white" stroke="transparent" points="-4,4 -4,-111.5 946,-111.5 946,4 -4,4"/>
<!-- Node1 -->
<g id="node1" class="node">
<title>Node1</title>
<g id="a_node1"><a xlink:title="print the entire compressed entity header plus data">
<polygon fill="#bfbfbf" stroke="black" points="0,-25.5 0,-44.5 86,-44.5 86,-25.5 0,-25.5"/>
<text text-anchor="middle" x="43" y="-32.5" font-family="Helvetica,sans-Serif" font-size="10.00">cmp_ent_print</text>
</a>
</g>
</g>
<!-- Node2 -->
<g id="node2" class="node">
<title>Node2</title>
<g id="a_node2"><a xlink:href="cmp__entity_8c_ae1e22f1d5652d49b51dd6e3bce93c7a6.html#ae1e22f1d5652d49b51dd6e3bce93c7a6" target="_top" xlink:title="print the compressed data of the entity">
<polygon fill="white" stroke="black" points="122,-44.5 122,-63.5 235,-63.5 235,-44.5 122,-44.5"/>
<text text-anchor="middle" x="178.5" y="-51.5" font-family="Helvetica,sans-Serif" font-size="10.00">cmp_ent_print_data</text>
</a>
</g>
</g>
<!-- Node1&#45;&gt;Node2 -->
<g id="edge1" class="edge">
<title>Node1&#45;&gt;Node2</title>
<path fill="none" stroke="midnightblue" d="M86.24,-41.01C94.37,-42.17 103.05,-43.4 111.72,-44.64"/>
<polygon fill="midnightblue" stroke="midnightblue" points="111.46,-48.14 121.85,-46.08 112.44,-41.21 111.46,-48.14"/>
</g>
<!-- Node11 -->
<g id="node11" class="node">
<title>Node11</title>
<g id="a_node11"><a xlink:href="cmp__entity_8c_a68231b2e9bea9310df96a475d248979b.html#a68231b2e9bea9310df96a475d248979b" target="_top" xlink:title="print the content of the compression entity header">
<polygon fill="white" stroke="black" points="287.5,-6.5 287.5,-25.5 412.5,-25.5 412.5,-6.5 287.5,-6.5"/>
<text text-anchor="middle" x="350" y="-13.5" font-family="Helvetica,sans-Serif" font-size="10.00">cmp_ent_print_header</text>
</a>
</g>
</g>
<!-- Node1&#45;&gt;Node11 -->
<g id="edge12" class="edge">
<title>Node1&#45;&gt;Node11</title>
<path fill="none" stroke="midnightblue" d="M86.09,-32.38C135.37,-29.31 217.8,-24.17 277.24,-20.47"/>
<polygon fill="midnightblue" stroke="midnightblue" points="277.55,-23.96 287.31,-19.84 277.11,-16.97 277.55,-23.96"/>
</g>
<!-- Node3 -->
<g id="node3" class="node">
<title>Node3</title>
<g id="a_node3"><a xlink:href="cmp__entity_8c_a6fc83a1c918c2d0c565f8f828fce62b7.html#a6fc83a1c918c2d0c565f8f828fce62b7" target="_top" xlink:title="get the size of the compressed data based on the set data product type and compressed entity size in ...">
<polygon fill="white" stroke="black" points="271,-44.5 271,-63.5 429,-63.5 429,-44.5 271,-44.5"/>
<text text-anchor="middle" x="350" y="-51.5" font-family="Helvetica,sans-Serif" font-size="10.00">cmp_ent_get_cmp_data_size</text>
</a>
</g>
</g>
<!-- Node2&#45;&gt;Node3 -->
<g id="edge2" class="edge">
<title>Node2&#45;&gt;Node3</title>
<path fill="none" stroke="midnightblue" d="M235,-54C243.26,-54 251.94,-54 260.67,-54"/>
<polygon fill="midnightblue" stroke="midnightblue" points="260.92,-57.5 270.92,-54 260.92,-50.5 260.92,-57.5"/>
</g>
<!-- Node10 -->
<g id="node10" class="node">
<title>Node10</title>
<g id="a_node10"><a xlink:href="cmp__entity_8c_a00cca03217aff11fc4afdc43ca23c417.html#a00cca03217aff11fc4afdc43ca23c417" target="_top" xlink:title="get the start address of the compressed data in the compression entity">
<polygon fill="white" stroke="black" points="465,-82.5 465,-101.5 593,-101.5 593,-82.5 465,-82.5"/>
<text text-anchor="middle" x="529" y="-89.5" font-family="Helvetica,sans-Serif" font-size="10.00">cmp_ent_get_data_buf</text>
</a>
</g>
</g>
<!-- Node2&#45;&gt;Node10 -->
<g id="edge9" class="edge">
<title>Node2&#45;&gt;Node10</title>
<path fill="none" stroke="midnightblue" d="M219.84,-63.56C235.71,-67.01 254.13,-70.64 271,-73 332.68,-81.65 403.28,-86.51 454.86,-89.14"/>
<polygon fill="midnightblue" stroke="midnightblue" points="454.75,-92.64 464.91,-89.64 455.1,-85.65 454.75,-92.64"/>
</g>
<!-- Node4 -->
<g id="node4" class="node">
<title>Node4</title>
<g id="a_node4"><a xlink:href="cmp__entity_8c_a802778418cfd52cf107c7af6d0405e8a.html#a802778418cfd52cf107c7af6d0405e8a" target="_top" xlink:title="get the size of the compression entity header based on the set data product type in compression entit...">
<polygon fill="white" stroke="black" points="466.5,-6.5 466.5,-25.5 591.5,-25.5 591.5,-6.5 466.5,-6.5"/>
<text text-anchor="middle" x="529" y="-13.5" font-family="Helvetica,sans-Serif" font-size="10.00">cmp_ent_get_hdr_size</text>
</a>
</g>
</g>
<!-- Node3&#45;&gt;Node4 -->
<g id="edge3" class="edge">
<title>Node3&#45;&gt;Node4</title>
<path fill="none" stroke="midnightblue" d="M395.66,-44.41C419.34,-39.33 448.61,-33.04 473.6,-27.68"/>
<polygon fill="midnightblue" stroke="midnightblue" points="474.61,-31.04 483.66,-25.52 473.14,-24.2 474.61,-31.04"/>
</g>
<!-- Node9 -->
<g id="node9" class="node">
<title>Node9</title>
<g id="a_node9"><a xlink:href="cmp__entity_8c_a5046b9ebae291aeeba89b4f9eaf43673.html#a5046b9ebae291aeeba89b4f9eaf43673" target="_top" xlink:title="get the size of the compression entity from the compression entity header">
<polygon fill="white" stroke="black" points="477,-44.5 477,-63.5 581,-63.5 581,-44.5 477,-44.5"/>
<text text-anchor="middle" x="529" y="-51.5" font-family="Helvetica,sans-Serif" font-size="10.00">cmp_ent_get_size</text>
</a>
</g>
</g>
<!-- Node3&#45;&gt;Node9 -->
<g id="edge8" class="edge">
<title>Node3&#45;&gt;Node9</title>
<path fill="none" stroke="midnightblue" d="M429.15,-54C441.81,-54 454.76,-54 466.94,-54"/>
<polygon fill="midnightblue" stroke="midnightblue" points="466.96,-57.5 476.96,-54 466.96,-50.5 466.96,-57.5"/>
</g>
<!-- Node5 -->
<g id="node5" class="node">
<title>Node5</title>
<g id="a_node5"><a xlink:href="cmp__entity_8c_ac4f3e5eb03e7dc0f1a646dd150543af5.html#ac4f3e5eb03e7dc0f1a646dd150543af5" target="_top" xlink:title="calculate the size of the compression entity header based on a compression data product type">
<polygon fill="white" stroke="black" points="634,-0.5 634,-19.5 758,-19.5 758,-0.5 634,-0.5"/>
<text text-anchor="middle" x="696" y="-7.5" font-family="Helvetica,sans-Serif" font-size="10.00">cmp_ent_cal_hdr_size</text>
</a>
</g>
</g>
<!-- Node4&#45;&gt;Node5 -->
<g id="edge4" class="edge">
<title>Node4&#45;&gt;Node5</title>
<path fill="none" stroke="midnightblue" d="M591.91,-13.75C602.3,-13.37 613.16,-12.98 623.77,-12.59"/>
<polygon fill="midnightblue" stroke="midnightblue" points="623.97,-16.09 633.84,-12.22 623.72,-9.09 623.97,-16.09"/>
</g>
<!-- Node7 -->
<g id="node7" class="node">
<title>Node7</title>
<g id="a_node7"><a xlink:href="cmp__entity_8c_a2f2b18a1db94847afbfc30a8e7f142cf.html#a2f2b18a1db94847afbfc30a8e7f142cf" target="_top" xlink:title="get data_type from the compression entity header">
<polygon fill="white" stroke="black" points="629,-38.5 629,-57.5 763,-57.5 763,-38.5 629,-38.5"/>
<text text-anchor="middle" x="696" y="-45.5" font-family="Helvetica,sans-Serif" font-size="10.00">cmp_ent_get_data_type</text>
</a>
</g>
</g>
<!-- Node4&#45;&gt;Node7 -->
<g id="edge6" class="edge">
<title>Node4&#45;&gt;Node7</title>
<path fill="none" stroke="midnightblue" d="M579.06,-25.51C596.93,-28.98 617.33,-32.94 635.98,-36.55"/>
<polygon fill="midnightblue" stroke="midnightblue" points="635.36,-40 645.85,-38.47 636.69,-33.13 635.36,-40"/>
</g>
<!-- Node8 -->
<g id="node8" class="node">
<title>Node8</title>
<g id="a_node8"><a xlink:href="cmp__entity_8c_a8edb7fa093195536f03038be2a5341a4.html#a8edb7fa093195536f03038be2a5341a4" target="_top" xlink:title="get the raw bit from the data_type field of the compression entity header">
<polygon fill="white" stroke="black" points="629,-77 629,-107 763,-107 763,-77 629,-77"/>
<text text-anchor="start" x="637" y="-95" font-family="Helvetica,sans-Serif" font-size="10.00">cmp_ent_get_data_type</text>
<text text-anchor="middle" x="696" y="-84" font-family="Helvetica,sans-Serif" font-size="10.00">_raw_bit</text>
</a>
</g>
</g>
<!-- Node4&#45;&gt;Node8 -->
<g id="edge7" class="edge">
<title>Node4&#45;&gt;Node8</title>
<path fill="none" stroke="midnightblue" d="M571.06,-25.56C578.6,-28.09 586.22,-31.21 593,-35 611.69,-45.45 610.69,-55.91 629,-67 632.32,-69.01 635.84,-70.91 639.44,-72.69"/>
<polygon fill="midnightblue" stroke="midnightblue" points="637.99,-75.87 648.54,-76.87 640.92,-69.52 637.99,-75.87"/>
</g>
<!-- Node6 -->
<g id="node6" class="node">
<title>Node6</title>
<g id="a_node6"><a xlink:href="cmp__support_8c_af2129b98a4b5c7f856e97776962d7881.html#af2129b98a4b5c7f856e97776962d7881" target="_top" xlink:title="check if the compression entity data product type is supported">
<polygon fill="white" stroke="black" points="799,-0.5 799,-19.5 942,-19.5 942,-0.5 799,-0.5"/>
<text text-anchor="middle" x="870.5" y="-7.5" font-family="Helvetica,sans-Serif" font-size="10.00">cmp_data_type_is_invalid</text>
</a>
</g>
</g>
<!-- Node5&#45;&gt;Node6 -->
<g id="edge5" class="edge">
<title>Node5&#45;&gt;Node6</title>
<path fill="none" stroke="midnightblue" d="M758.3,-10C768.18,-10 778.54,-10 788.79,-10"/>
<polygon fill="midnightblue" stroke="midnightblue" points="788.98,-13.5 798.98,-10 788.98,-6.5 788.98,-13.5"/>
</g>
<!-- Node10&#45;&gt;Node7 -->
<g id="edge10" class="edge">
<title>Node10&#45;&gt;Node7</title>
<path fill="none" stroke="midnightblue" d="M565.8,-82.45C590.34,-75.91 623.1,-67.17 649.5,-60.13"/>
<polygon fill="midnightblue" stroke="midnightblue" points="650.51,-63.49 659.27,-57.53 648.7,-56.72 650.51,-63.49"/>
</g>
<!-- Node10&#45;&gt;Node8 -->
<g id="edge11" class="edge">
<title>Node10&#45;&gt;Node8</title>
<path fill="none" stroke="midnightblue" d="M593.32,-92C601.59,-92 610.13,-92 618.59,-92"/>
<polygon fill="midnightblue" stroke="midnightblue" points="618.84,-95.5 628.84,-92 618.84,-88.5 618.84,-95.5"/>
</g>
<!-- Node11&#45;&gt;Node4 -->
<g id="edge13" class="edge">
<title>Node11&#45;&gt;Node4</title>
<path fill="none" stroke="midnightblue" d="M412.91,-16C426.86,-16 441.8,-16 456.12,-16"/>
<polygon fill="midnightblue" stroke="midnightblue" points="456.43,-19.5 466.43,-16 456.43,-12.5 456.43,-19.5"/>
</g>
</g>
</svg>
        <g id="navigator" transform="translate(0 0)" fill="#404254">
                <rect fill="#f2f5e9" fill-opacity="0.5" stroke="#606060" stroke-width=".5" x="0" y="0" width="60" height="60"/>
                <use id="zoomplus" xlink:href="#zoomPlus" x="17" y="9" onmousedown="handleZoom(evt,'in')"/>
                <use id="zoomminus" xlink:href="#zoomMin" x="42" y="9" onmousedown="handleZoom(evt,'out')"/>
                <use id="reset" xlink:href="#resetDef" x="30" y="36" onmousedown="handleReset()"/>
                <g id="arrowUp" xlink:href="#dirArrow" transform="translate(30 24)" onmousedown="handlePan(0,-1)">
                  <use xlink:href="#rim" fill="#404040">
                        <set attributeName="fill" to="#808080" begin="arrowUp.mouseover" end="arrowUp.mouseout"/>
                  </use>
                  <path fill="none" stroke="white" stroke-width="1.5" d="M0,-3.0v7 M-2.5,-0.5L0,-3.0L2.5,-0.5"/>
                </g>
                <g id="arrowRight" xlink:href="#dirArrow" transform="rotate(90) translate(36 -43)" onmousedown="handlePan(1,0)">
                  <use xlink:href="#rim" fill="#404040">
                        <set attributeName="fill" to="#808080" begin="arrowRight.mouseover" end="arrowRight.mouseout"/>
                  </use>
                  <path fill="none" stroke="white" stroke-width="1.5" d="M0,-3.0v7 M-2.5,-0.5L0,-3.0L2.5,-0.5"/>
                </g>
                <g id="arrowDown" xlink:href="#dirArrow" transform="rotate(180) translate(-30 -48)" onmousedown="handlePan(0,1)">
                  <use xlink:href="#rim" fill="#404040">
                        <set attributeName="fill" to="#808080" begin="arrowDown.mouseover" end="arrowDown.mouseout"/>
                  </use>
                  <path fill="none" stroke="white" stroke-width="1.5" d="M0,-3.0v7 M-2.5,-0.5L0,-3.0L2.5,-0.5"/>
                </g>
                <g id="arrowLeft" xlink:href="#dirArrow" transform="rotate(270) translate(-36 17)" onmousedown="handlePan(-1,0)">
                  <use xlink:href="#rim" fill="#404040">
                        <set attributeName="fill" to="#808080" begin="arrowLeft.mouseover" end="arrowLeft.mouseout"/>
                  </use>
                  <path fill="none" stroke="white" stroke-width="1.5" d="M0,-3.0v7 M-2.5,-0.5L0,-3.0L2.5,-0.5"/>
                </g>
        </g>
        <svg viewBox="0 0 15 15" width="100%" height="30px" preserveAspectRatio="xMaxYMin meet">
         <g id="arrow_out" transform="scale(0.3 0.3)">
          <a xlink:href="cmp__entity_8h_acb86c5ed513a665da74d6cfbc5db3874_acb86c5ed513a665da74d6cfbc5db3874_cgraph_org.svg" target="_base">
           <rect id="button" ry="5" rx="5" y="6" x="6" height="38" width="38"
                fill="#f2f5e9" fill-opacity="0.5" stroke="#606060" stroke-width="1.0"/>
           <path id="arrow"
             d="M 11.500037,31.436501 C 11.940474,20.09759 22.043105,11.32322 32.158766,21.979434 L 37.068811,17.246167 C 37.068811,17.246167 37.088388,32 37.088388,32 L 22.160133,31.978069 C 22.160133,31.978069 26.997745,27.140456 26.997745,27.140456 C 18.528582,18.264221 13.291696,25.230495 11.500037,31.436501 z"
             style="fill:#404040;"/>
          </a>
         </g>
        </svg>
</svg>
