<?xml version="1.0" encoding="UTF-8" standalone="no"?>
<!DOCTYPE svg PUBLIC "-//W3C//DTD SVG 1.1//EN"
 "http://www.w3.org/Graphics/SVG/1.1/DTD/svg11.dtd">
<!-- Generated by graphviz version 2.43.0 (0)
 -->
<!-- Title: cmp_cfg_fx_cob_is_invalid Pages: 1 -->
<!--zoomable 1501 -->
<svg id="main" version="1.1" xmlns="http://www.w3.org/2000/svg" xmlns:xlink="http://www.w3.org/1999/xlink" xml:space="preserve" onload="init(evt)">
<style type="text/css"><![CDATA[
.edge:hover path { stroke: red; }
.edge:hover polygon { stroke: red; fill: red; }
]]></style>
<script type="text/javascript"><![CDATA[
var edges = document.getElementsByTagName('g');
if (edges && edges.length) {
  for (var i=0;i<edges.length;i++) {
    if (edges[i].id.substr(0,4)=='edge') {
      edges[i].setAttribute('class','edge');
    }
  }
}
]]></script>
        <defs>
                <circle id="rim" cx="0" cy="0" r="7"/>
                <circle id="rim2" cx="0" cy="0" r="3.5"/>
                <g id="zoomPlus">
                        <use xlink:href="#rim" fill="#404040">
                                <set attributeName="fill" to="#808080" begin="zoomplus.mouseover" end="zoomplus.mouseout"/>
                        </use>
                        <path d="M-4,0h8M0,-4v8" fill="none" stroke="white" stroke-width="1.5" pointer-events="none"/>
                </g>
                <g id="zoomMin">
                        <use xlink:href="#rim" fill="#404040">
                                <set attributeName="fill" to="#808080" begin="zoomminus.mouseover" end="zoomminus.mouseout"/>
                        </use>
                        <path d="M-4,0h8" fill="none" stroke="white" stroke-width="1.5" pointer-events="none"/>
                </g>
                <g id="dirArrow">
                        <path fill="none" stroke="white" stroke-width="1.5" d="M0,-3.0v7 M-2.5,-0.5L0,-3.0L2.5,-0.5"/>
                </g>
               <g id="resetDef">
                       <use xlink:href="#rim2" fill="#404040">
                               <set attributeName="fill" to="#808080" begin="reset.mouseover" end="reset.mouseout"/>
                       </use>
               </g>
        </defs>

<script type="text/javascript">
var viewWidth = 919;
var viewHeight = 1501;
var sectionId = 'dynsection-1';
</script>
<script xlink:href="svgpan.js"/>
<svg id="graph" class="graph">
<g id="viewport">
<title>cmp_cfg_fx_cob_is_invalid</title>
<polygon fill="white" stroke="transparent" points="-4,4 -4,-1496.71 915,-1496.71 915,4 -4,4"/>
<!-- Node1 -->
<g id="node1" class="node">
<title>Node1</title>
<g id="a_node1"><a xlink:title="check if the flux/center of brightness specific compression parameters are invalid">
<polygon fill="#bfbfbf" stroke="black" points="764,-704.5 764,-723.5 911,-723.5 911,-704.5 764,-704.5"/>
<text text-anchor="middle" x="837.5" y="-711.5" font-family="Helvetica,sans-Serif" font-size="10.00">cmp_cfg_fx_cob_is_invalid</text>
</a>
</g>
</g>
<!-- Node2 -->
<g id="node2" class="node">
<title>Node2</title>
<g id="a_node2"><a xlink:href="cmp__icu_8h_aafca1a4b0b6d7aeed8439d46030fe7ba.html#aafca1a4b0b6d7aeed8439d46030fe7ba" target="_top" xlink:title="set up the configuration parameters for a flux/COB compression">
<polygon fill="white" stroke="black" points="420.5,-1136.5 420.5,-1155.5 515.5,-1155.5 515.5,-1136.5 420.5,-1136.5"/>
<text text-anchor="middle" x="468" y="-1143.5" font-family="Helvetica,sans-Serif" font-size="10.00">cmp_cfg_fx_cob</text>
</a>
</g>
</g>
<!-- Node1&#45;&gt;Node2 -->
<g id="edge1" class="edge">
<title>Node1&#45;&gt;Node2</title>
<path fill="none" stroke="midnightblue" d="M821.44,-731.7C759.34,-804.7 524.17,-1081.15 477.19,-1136.37"/>
<polygon fill="midnightblue" stroke="midnightblue" points="824.32,-733.72 828.13,-723.83 818.99,-729.18 824.32,-733.72"/>
</g>
<!-- Node17 -->
<g id="node17" class="node">
<title>Node17</title>
<g id="a_node17"><a xlink:href="cmp__support_8c_ac899115007a8c1aa9d82c1872b873655.html#ac899115007a8c1aa9d82c1872b873655" target="_top" xlink:title="check if a compression configuration is invalid for a ICU compression">
<polygon fill="white" stroke="black" points="584.5,-723.5 584.5,-742.5 713.5,-742.5 713.5,-723.5 584.5,-723.5"/>
<text text-anchor="middle" x="649" y="-730.5" font-family="Helvetica,sans-Serif" font-size="10.00">cmp_cfg_icu_is_invalid</text>
</a>
</g>
</g>
<!-- Node1&#45;&gt;Node17 -->
<g id="edge16" class="edge">
<title>Node1&#45;&gt;Node17</title>
<path fill="none" stroke="midnightblue" d="M753.67,-722.44C740.24,-723.81 726.53,-725.2 713.65,-726.52"/>
<polygon fill="midnightblue" stroke="midnightblue" points="754.27,-725.9 763.86,-721.4 753.56,-718.93 754.27,-725.9"/>
</g>
<!-- Node36 -->
<g id="node36" class="node">
<title>Node36</title>
<g id="a_node36"><a xlink:href="test__cmp__icu_8c_aaa89e321d2d9f70cb59536438f4b6dff.html#aaa89e321d2d9f70cb59536438f4b6dff" target="_top" xlink:title=" ">
<polygon fill="white" stroke="black" points="407,-680 407,-710 529,-710 529,-680 407,-680"/>
<text text-anchor="start" x="415" y="-698" font-family="Helvetica,sans-Serif" font-size="10.00">test_support_function</text>
<text text-anchor="middle" x="468" y="-687" font-family="Helvetica,sans-Serif" font-size="10.00">_call_NULL</text>
</a>
</g>
</g>
<!-- Node1&#45;&gt;Node36 -->
<g id="edge58" class="edge">
<title>Node1&#45;&gt;Node36</title>
<path fill="none" stroke="midnightblue" d="M753.6,-709.71C685.31,-706.18 590.11,-701.26 529.01,-698.1"/>
<polygon fill="midnightblue" stroke="midnightblue" points="753.73,-713.23 763.89,-710.25 754.09,-706.23 753.73,-713.23"/>
</g>
<!-- Node37 -->
<g id="node37" class="node">
<title>Node37</title>
<g id="a_node37"><a xlink:href="decmp_8c_a74c8bbd7b2130f44b6672e960475f4be.html#a74c8bbd7b2130f44b6672e960475f4be" target="_top" xlink:title="decompress the data based on a compression configuration">
<polygon fill="white" stroke="black" points="570,-196.5 570,-215.5 728,-215.5 728,-196.5 570,-196.5"/>
<text text-anchor="middle" x="649" y="-203.5" font-family="Helvetica,sans-Serif" font-size="10.00">decompressed_data_internal</text>
</a>
</g>
</g>
<!-- Node1&#45;&gt;Node37 -->
<g id="edge49" class="edge">
<title>Node1&#45;&gt;Node37</title>
<path fill="none" stroke="midnightblue" d="M829.43,-694.73C798.55,-610.64 676.19,-277.33 653.6,-215.8"/>
<polygon fill="midnightblue" stroke="midnightblue" points="826.21,-696.12 832.94,-704.31 832.78,-693.71 826.21,-696.12"/>
</g>
<!-- Node3 -->
<g id="node3" class="node">
<title>Node3</title>
<g id="a_node3"><a xlink:href="test__cmp__icu_8c_a47c170546f18b0d1bf68a32073a3035f.html#a47c170546f18b0d1bf68a32073a3035f" target="_top" xlink:title=" ">
<polygon fill="white" stroke="black" points="214.5,-1425.5 214.5,-1444.5 333.5,-1444.5 333.5,-1425.5 214.5,-1425.5"/>
<text text-anchor="middle" x="274" y="-1432.5" font-family="Helvetica,sans-Serif" font-size="10.00">test_cmp_cfg_fx_cob</text>
</a>
</g>
</g>
<!-- Node2&#45;&gt;Node3 -->
<g id="edge2" class="edge">
<title>Node2&#45;&gt;Node3</title>
<path fill="none" stroke="midnightblue" d="M465.84,-1165.9C461.79,-1216.2 443.86,-1349.17 366,-1416 356.94,-1423.78 345.51,-1428.65 333.84,-1431.64"/>
<polygon fill="midnightblue" stroke="midnightblue" points="469.35,-1165.94 466.56,-1155.72 462.37,-1165.45 469.35,-1165.94"/>
</g>
<!-- Node4 -->
<g id="node4" class="node">
<title>Node4</title>
<g id="a_node4"><a xlink:href="test__decmp_8c_a1a33e2fcbf484c79dfe661b280386f6b.html#a1a33e2fcbf484c79dfe661b280386f6b" target="_top" xlink:title=" ">
<polygon fill="white" stroke="black" points="0,-426.5 0,-445.5 146,-445.5 146,-426.5 0,-426.5"/>
<text text-anchor="middle" x="73" y="-433.5" font-family="Helvetica,sans-Serif" font-size="10.00">test_cmp_decmp_s_fx_diff</text>
</a>
</g>
</g>
<!-- Node2&#45;&gt;Node4 -->
<g id="edge3" class="edge">
<title>Node2&#45;&gt;Node4</title>
<path fill="none" stroke="midnightblue" d="M467.66,-1165.9C468.33,-1222.5 461.5,-1384.81 366,-1454 299.78,-1501.98 242.8,-1508.69 182,-1454 102.47,-1382.46 77.01,-545.15 74.26,-445.65"/>
<polygon fill="midnightblue" stroke="midnightblue" points="471.16,-1165.69 467.45,-1155.77 464.16,-1165.84 471.16,-1165.69"/>
</g>
<!-- Node5 -->
<g id="node5" class="node">
<title>Node5</title>
<g id="a_node5"><a xlink:href="test__cmp__icu_8c_a64b46c032fdef8789190209bd9c3c49b.html#a64b46c032fdef8789190209bd9c3c49b" target="_top" xlink:title=" ">
<polygon fill="white" stroke="black" points="218,-935 218,-965 330,-965 330,-935 218,-935"/>
<text text-anchor="start" x="226" y="-953" font-family="Helvetica,sans-Serif" font-size="10.00">test_compress_f_fx</text>
<text text-anchor="middle" x="274" y="-942" font-family="Helvetica,sans-Serif" font-size="10.00">_efx_error_cases</text>
</a>
</g>
</g>
<!-- Node2&#45;&gt;Node5 -->
<g id="edge4" class="edge">
<title>Node2&#45;&gt;Node5</title>
<path fill="none" stroke="midnightblue" d="M460.93,-1126.38C448.86,-1090.67 418.38,-1015.04 366,-975 355.59,-967.04 342.8,-961.61 330.13,-957.91"/>
<polygon fill="midnightblue" stroke="midnightblue" points="457.67,-1127.67 464.09,-1136.1 464.33,-1125.51 457.67,-1127.67"/>
</g>
<!-- Node6 -->
<g id="node6" class="node">
<title>Node6</title>
<g id="a_node6"><a xlink:href="test__cmp__icu_8c_acd4ce1f38ffbf0d6258b81668836d96b.html#acd4ce1f38ffbf0d6258b81668836d96b" target="_top" xlink:title=" ">
<polygon fill="white" stroke="black" points="218,-886 218,-916 330,-916 330,-886 218,-886"/>
<text text-anchor="start" x="226" y="-904" font-family="Helvetica,sans-Serif" font-size="10.00">test_compress_f_fx</text>
<text text-anchor="middle" x="274" y="-893" font-family="Helvetica,sans-Serif" font-size="10.00">_efx_ncob_ecob</text>
</a>
</g>
</g>
<!-- Node2&#45;&gt;Node6 -->
<g id="edge5" class="edge">
<title>Node2&#45;&gt;Node6</title>
<path fill="none" stroke="midnightblue" d="M463.71,-1126.32C455.46,-1083.26 429.8,-980.2 366,-926 355.89,-917.41 343.06,-911.75 330.26,-908.03"/>
<polygon fill="midnightblue" stroke="midnightblue" points="460.3,-1127.13 465.52,-1136.35 467.19,-1125.89 460.3,-1127.13"/>
</g>
<!-- Node7 -->
<g id="node7" class="node">
<title>Node7</title>
<g id="a_node7"><a xlink:href="test__cmp__icu_8c_a5fdfb76e3f52d4283fdcbf5e05ac7dd9.html#a5fdfb76e3f52d4283fdcbf5e05ac7dd9" target="_top" xlink:title=" ">
<polygon fill="white" stroke="black" points="218,-837 218,-867 330,-867 330,-837 218,-837"/>
<text text-anchor="start" x="226" y="-855" font-family="Helvetica,sans-Serif" font-size="10.00">test_compress_f_fx</text>
<text text-anchor="middle" x="274" y="-844" font-family="Helvetica,sans-Serif" font-size="10.00">_error_cases</text>
</a>
</g>
</g>
<!-- Node2&#45;&gt;Node7 -->
<g id="edge6" class="edge">
<title>Node2&#45;&gt;Node7</title>
<path fill="none" stroke="midnightblue" d="M465.57,-1126.46C460.86,-1077 441.54,-945.95 366,-877 356.08,-867.94 343.18,-862.12 330.22,-858.4"/>
<polygon fill="midnightblue" stroke="midnightblue" points="462.08,-1126.79 466.42,-1136.46 469.06,-1126.2 462.08,-1126.79"/>
</g>
<!-- Node8 -->
<g id="node8" class="node">
<title>Node8</title>
<g id="a_node8"><a xlink:href="test__cmp__icu_8c_ad6a880fe71de66a8a98a3f97d9e736da.html#ad6a880fe71de66a8a98a3f97d9e736da" target="_top" xlink:title=" ">
<polygon fill="white" stroke="black" points="218,-1376 218,-1406 330,-1406 330,-1376 218,-1376"/>
<text text-anchor="start" x="226" y="-1394" font-family="Helvetica,sans-Serif" font-size="10.00">test_compress_f_fx</text>
<text text-anchor="middle" x="274" y="-1383" font-family="Helvetica,sans-Serif" font-size="10.00">_ncob_error_cases</text>
</a>
</g>
</g>
<!-- Node2&#45;&gt;Node8 -->
<g id="edge7" class="edge">
<title>Node2&#45;&gt;Node8</title>
<path fill="none" stroke="midnightblue" d="M463.78,-1165.82C455.67,-1209.17 430.27,-1312.87 366,-1367 355.88,-1375.53 343.05,-1381.06 330.24,-1384.64"/>
<polygon fill="midnightblue" stroke="midnightblue" points="467.27,-1166.17 465.56,-1155.72 460.38,-1164.96 467.27,-1166.17"/>
</g>
<!-- Node9 -->
<g id="node9" class="node">
<title>Node9</title>
<g id="a_node9"><a xlink:href="test__cmp__icu_8c_a4d05bd6cb0b420d45886997161470259.html#a4d05bd6cb0b420d45886997161470259" target="_top" xlink:title=" ">
<polygon fill="white" stroke="black" points="218.5,-1327 218.5,-1357 329.5,-1357 329.5,-1327 218.5,-1327"/>
<text text-anchor="start" x="226.5" y="-1345" font-family="Helvetica,sans-Serif" font-size="10.00">test_compress_l_fx</text>
<text text-anchor="middle" x="274" y="-1334" font-family="Helvetica,sans-Serif" font-size="10.00">_efx_error_cases</text>
</a>
</g>
</g>
<!-- Node2&#45;&gt;Node9 -->
<g id="edge8" class="edge">
<title>Node2&#45;&gt;Node9</title>
<path fill="none" stroke="midnightblue" d="M461.17,-1165.27C449.34,-1201.06 419.01,-1277.8 366,-1318 355.46,-1326 342.47,-1331.34 329.65,-1334.9"/>
<polygon fill="midnightblue" stroke="midnightblue" points="464.57,-1166.16 464.26,-1155.57 457.9,-1164.04 464.57,-1166.16"/>
</g>
<!-- Node10 -->
<g id="node10" class="node">
<title>Node10</title>
<g id="a_node10"><a xlink:href="test__cmp__icu_8c_a0d3532f9e6f2e6e0c4392049e06c627f.html#a0d3532f9e6f2e6e0c4392049e06c627f" target="_top" xlink:title=" ">
<polygon fill="white" stroke="black" points="196,-1278 196,-1308 352,-1308 352,-1278 196,-1278"/>
<text text-anchor="start" x="204" y="-1296" font-family="Helvetica,sans-Serif" font-size="10.00">test_compress_l_fx</text>
<text text-anchor="middle" x="274" y="-1285" font-family="Helvetica,sans-Serif" font-size="10.00">_efx_ncob_ecob_error_cases</text>
</a>
</g>
</g>
<!-- Node2&#45;&gt;Node10 -->
<g id="edge9" class="edge">
<title>Node2&#45;&gt;Node10</title>
<path fill="none" stroke="midnightblue" d="M456.86,-1164.62C441.08,-1191.8 408.04,-1242.02 366,-1269 360.64,-1272.44 354.8,-1275.39 348.75,-1277.92"/>
<polygon fill="midnightblue" stroke="midnightblue" points="460,-1166.17 461.88,-1155.74 453.91,-1162.72 460,-1166.17"/>
</g>
<!-- Node11 -->
<g id="node11" class="node">
<title>Node11</title>
<g id="a_node11"><a xlink:href="test__cmp__icu_8c_a13a2a26bd2eac1bd622925c6dcfbfb2d.html#a13a2a26bd2eac1bd622925c6dcfbfb2d" target="_top" xlink:title=" ">
<polygon fill="white" stroke="black" points="218.5,-1229 218.5,-1259 329.5,-1259 329.5,-1229 218.5,-1229"/>
<text text-anchor="start" x="226.5" y="-1247" font-family="Helvetica,sans-Serif" font-size="10.00">test_compress_l_fx</text>
<text text-anchor="middle" x="274" y="-1236" font-family="Helvetica,sans-Serif" font-size="10.00">_error_cases</text>
</a>
</g>
</g>
<!-- Node2&#45;&gt;Node11 -->
<g id="edge10" class="edge">
<title>Node2&#45;&gt;Node11</title>
<path fill="none" stroke="midnightblue" d="M449.01,-1162.46C429.8,-1179.23 397.79,-1204.84 366,-1220 354.64,-1225.42 341.89,-1229.75 329.6,-1233.15"/>
<polygon fill="midnightblue" stroke="midnightblue" points="451.51,-1164.93 456.66,-1155.67 446.86,-1159.69 451.51,-1164.93"/>
</g>
<!-- Node12 -->
<g id="node12" class="node">
<title>Node12</title>
<g id="a_node12"><a xlink:href="test__cmp__icu_8c_ab725960063dc032566560118d582b79e.html#ab725960063dc032566560118d582b79e" target="_top" xlink:title=" ">
<polygon fill="white" stroke="black" points="218.5,-1180 218.5,-1210 329.5,-1210 329.5,-1180 218.5,-1180"/>
<text text-anchor="start" x="226.5" y="-1198" font-family="Helvetica,sans-Serif" font-size="10.00">test_compress_l_fx</text>
<text text-anchor="middle" x="274" y="-1187" font-family="Helvetica,sans-Serif" font-size="10.00">_ncob_error_cases</text>
</a>
</g>
</g>
<!-- Node2&#45;&gt;Node12 -->
<g id="edge11" class="edge">
<title>Node2&#45;&gt;Node12</title>
<path fill="none" stroke="midnightblue" d="M419.48,-1158.13C392.32,-1165.06 358.13,-1173.78 329.83,-1181.01"/>
<polygon fill="midnightblue" stroke="midnightblue" points="420.7,-1161.43 429.52,-1155.56 418.97,-1154.65 420.7,-1161.43"/>
</g>
<!-- Node13 -->
<g id="node13" class="node">
<title>Node13</title>
<g id="a_node13"><a xlink:href="test__cmp__icu_8c_a28f0f3239f94a5d75189300dd3ed35fc.html#a28f0f3239f94a5d75189300dd3ed35fc" target="_top" xlink:title=" ">
<polygon fill="white" stroke="black" points="217.5,-1131 217.5,-1161 330.5,-1161 330.5,-1131 217.5,-1131"/>
<text text-anchor="start" x="225.5" y="-1149" font-family="Helvetica,sans-Serif" font-size="10.00">test_compress_s_fx</text>
<text text-anchor="middle" x="274" y="-1138" font-family="Helvetica,sans-Serif" font-size="10.00">_efx_error_cases</text>
</a>
</g>
</g>
<!-- Node2&#45;&gt;Node13 -->
<g id="edge12" class="edge">
<title>Node2&#45;&gt;Node13</title>
<path fill="none" stroke="midnightblue" d="M409.94,-1146C384.89,-1146 355.59,-1146 330.69,-1146"/>
<polygon fill="midnightblue" stroke="midnightblue" points="410.03,-1149.5 420.03,-1146 410.03,-1142.5 410.03,-1149.5"/>
</g>
<!-- Node14 -->
<g id="node14" class="node">
<title>Node14</title>
<g id="a_node14"><a xlink:href="test__cmp__icu_8c_a90fd6057131bbf0c9b398c9c99bea3f2.html#a90fd6057131bbf0c9b398c9c99bea3f2" target="_top" xlink:title=" ">
<polygon fill="white" stroke="black" points="196,-1082 196,-1112 352,-1112 352,-1082 196,-1082"/>
<text text-anchor="start" x="204" y="-1100" font-family="Helvetica,sans-Serif" font-size="10.00">test_compress_s_fx</text>
<text text-anchor="middle" x="274" y="-1089" font-family="Helvetica,sans-Serif" font-size="10.00">_efx_ncob_ecob_error_cases</text>
</a>
</g>
</g>
<!-- Node2&#45;&gt;Node14 -->
<g id="edge13" class="edge">
<title>Node2&#45;&gt;Node14</title>
<path fill="none" stroke="midnightblue" d="M419.58,-1133.9C393.7,-1127.29 361.41,-1119.05 333.92,-1112.04"/>
<polygon fill="midnightblue" stroke="midnightblue" points="418.97,-1137.35 429.52,-1136.44 420.7,-1130.57 418.97,-1137.35"/>
</g>
<!-- Node15 -->
<g id="node15" class="node">
<title>Node15</title>
<g id="a_node15"><a xlink:href="test__cmp__icu_8c_aa29971f14aa8c01058cf5884ccfb0b46.html#aa29971f14aa8c01058cf5884ccfb0b46" target="_top" xlink:title=" ">
<polygon fill="white" stroke="black" points="217.5,-1033 217.5,-1063 330.5,-1063 330.5,-1033 217.5,-1033"/>
<text text-anchor="start" x="225.5" y="-1051" font-family="Helvetica,sans-Serif" font-size="10.00">test_compress_s_fx</text>
<text text-anchor="middle" x="274" y="-1040" font-family="Helvetica,sans-Serif" font-size="10.00">_error_cases</text>
</a>
</g>
</g>
<!-- Node2&#45;&gt;Node15 -->
<g id="edge14" class="edge">
<title>Node2&#45;&gt;Node15</title>
<path fill="none" stroke="midnightblue" d="M448.63,-1129.57C429.32,-1113.1 397.44,-1088.07 366,-1073 354.92,-1067.69 342.52,-1063.34 330.53,-1059.85"/>
<polygon fill="midnightblue" stroke="midnightblue" points="446.49,-1132.35 456.33,-1136.26 451.08,-1127.06 446.49,-1132.35"/>
</g>
<!-- Node16 -->
<g id="node16" class="node">
<title>Node16</title>
<g id="a_node16"><a xlink:href="test__cmp__icu_8c_a70a6d23f621dd0ce0ffb110b9c77116f.html#a70a6d23f621dd0ce0ffb110b9c77116f" target="_top" xlink:title=" ">
<polygon fill="white" stroke="black" points="217.5,-984 217.5,-1014 330.5,-1014 330.5,-984 217.5,-984"/>
<text text-anchor="start" x="225.5" y="-1002" font-family="Helvetica,sans-Serif" font-size="10.00">test_compress_s_fx</text>
<text text-anchor="middle" x="274" y="-991" font-family="Helvetica,sans-Serif" font-size="10.00">_ncob_error_cases</text>
</a>
</g>
</g>
<!-- Node2&#45;&gt;Node16 -->
<g id="edge15" class="edge">
<title>Node2&#45;&gt;Node16</title>
<path fill="none" stroke="midnightblue" d="M456.78,-1127.59C440.91,-1100.7 407.75,-1050.98 366,-1024 355.4,-1017.15 342.95,-1012.16 330.71,-1008.53"/>
<polygon fill="midnightblue" stroke="midnightblue" points="453.82,-1129.45 461.83,-1136.37 459.88,-1125.96 453.82,-1129.45"/>
</g>
<!-- Node18 -->
<g id="node18" class="node">
<title>Node18</title>
<g id="a_node18"><a xlink:href="cmp__icu_8h_a08bf8ccacb449aba08db5e51d532d834.html#a08bf8ccacb449aba08db5e51d532d834" target="_top" xlink:title="compress data on the ICU in software">
<polygon fill="white" stroke="black" points="413,-729.5 413,-748.5 523,-748.5 523,-729.5 413,-729.5"/>
<text text-anchor="middle" x="468" y="-736.5" font-family="Helvetica,sans-Serif" font-size="10.00">icu_compress_data</text>
</a>
</g>
</g>
<!-- Node17&#45;&gt;Node18 -->
<g id="edge17" class="edge">
<title>Node17&#45;&gt;Node18</title>
<path fill="none" stroke="midnightblue" d="M573.93,-735.48C556.94,-736.05 539.19,-736.65 523.22,-737.18"/>
<polygon fill="midnightblue" stroke="midnightblue" points="574.51,-738.97 584.39,-735.13 574.28,-731.97 574.51,-738.97"/>
</g>
<!-- Node17&#45;&gt;Node36 -->
<g id="edge48" class="edge">
<title>Node17&#45;&gt;Node36</title>
<path fill="none" stroke="midnightblue" d="M592.85,-721.29C572.63,-717 549.66,-712.12 529.04,-707.75"/>
<polygon fill="midnightblue" stroke="midnightblue" points="592.32,-724.76 602.83,-723.41 593.78,-717.91 592.32,-724.76"/>
</g>
<!-- Node18&#45;&gt;Node5 -->
<g id="edge24" class="edge">
<title>Node18&#45;&gt;Node5</title>
<path fill="none" stroke="midnightblue" d="M462.12,-758.35C451.48,-796.49 422.48,-881.56 366,-926 355.73,-934.08 342.99,-939.46 330.33,-943.03"/>
<polygon fill="midnightblue" stroke="midnightblue" points="465.55,-759.07 464.75,-748.51 458.79,-757.27 465.55,-759.07"/>
</g>
<!-- Node18&#45;&gt;Node6 -->
<g id="edge25" class="edge">
<title>Node18&#45;&gt;Node6</title>
<path fill="none" stroke="midnightblue" d="M458.3,-758.17C443.66,-788.23 411.2,-846.18 366,-877 355.34,-884.27 342.59,-889.34 330.06,-892.87"/>
<polygon fill="midnightblue" stroke="midnightblue" points="461.63,-759.33 462.73,-748.79 455.3,-756.34 461.63,-759.33"/>
</g>
<!-- Node18&#45;&gt;Node7 -->
<g id="edge26" class="edge">
<title>Node18&#45;&gt;Node7</title>
<path fill="none" stroke="midnightblue" d="M451.89,-756.19C433.51,-776.07 400.61,-808.43 366,-827 355.03,-832.89 342.55,-837.48 330.43,-841.03"/>
<polygon fill="midnightblue" stroke="midnightblue" points="454.73,-758.27 458.85,-748.51 449.54,-753.57 454.73,-758.27"/>
</g>
<!-- Node18&#45;&gt;Node8 -->
<g id="edge27" class="edge">
<title>Node18&#45;&gt;Node8</title>
<path fill="none" stroke="midnightblue" d="M463.57,-758.71C453.7,-815.71 424.44,-985.64 402,-1127 393.54,-1180.26 402,-1326.85 366,-1367 356.73,-1377.34 343.58,-1383.46 330.16,-1387.02"/>
<polygon fill="midnightblue" stroke="midnightblue" points="467.07,-759.04 465.33,-748.59 460.17,-757.84 467.07,-759.04"/>
</g>
<!-- Node18&#45;&gt;Node9 -->
<g id="edge33" class="edge">
<title>Node18&#45;&gt;Node9</title>
<path fill="none" stroke="midnightblue" d="M463.65,-759.08C446.68,-860.58 370.9,-1312.66 366,-1318 356.5,-1328.35 343.11,-1334.45 329.52,-1338"/>
<polygon fill="midnightblue" stroke="midnightblue" points="467.14,-759.39 465.34,-748.95 460.24,-758.23 467.14,-759.39"/>
</g>
<!-- Node18&#45;&gt;Node10 -->
<g id="edge34" class="edge">
<title>Node18&#45;&gt;Node10</title>
<path fill="none" stroke="midnightblue" d="M463.83,-758.84C448.71,-852.85 384.02,-1249.68 366,-1269 361.99,-1273.3 357.3,-1276.87 352.22,-1279.82"/>
<polygon fill="midnightblue" stroke="midnightblue" points="467.32,-759.14 465.45,-748.71 460.41,-758.03 467.32,-759.14"/>
</g>
<!-- Node18&#45;&gt;Node11 -->
<g id="edge35" class="edge">
<title>Node18&#45;&gt;Node11</title>
<path fill="none" stroke="midnightblue" d="M464.11,-758.66C451.31,-844.7 398.84,-1185.45 366,-1220 356.43,-1230.07 343.19,-1236.09 329.76,-1239.66"/>
<polygon fill="midnightblue" stroke="midnightblue" points="467.59,-759.06 465.59,-748.66 460.67,-758.04 467.59,-759.06"/>
</g>
<!-- Node18&#45;&gt;Node12 -->
<g id="edge36" class="edge">
<title>Node18&#45;&gt;Node12</title>
<path fill="none" stroke="midnightblue" d="M465.04,-758.91C457.12,-835.57 424.98,-1110.33 366,-1171 356.32,-1180.96 343.03,-1186.95 329.61,-1190.51"/>
<polygon fill="midnightblue" stroke="midnightblue" points="468.55,-759.03 466.07,-748.73 461.58,-758.33 468.55,-759.03"/>
</g>
<!-- Node18&#45;&gt;Node13 -->
<g id="edge38" class="edge">
<title>Node18&#45;&gt;Node13</title>
<path fill="none" stroke="midnightblue" d="M464.41,-758.89C454.78,-829.86 418.85,-1069.14 366,-1122 356.53,-1131.47 343.79,-1137.34 330.84,-1140.94"/>
<polygon fill="midnightblue" stroke="midnightblue" points="467.92,-759.04 465.77,-748.67 460.98,-758.12 467.92,-759.04"/>
</g>
<!-- Node18&#45;&gt;Node14 -->
<g id="edge39" class="edge">
<title>Node18&#45;&gt;Node14</title>
<path fill="none" stroke="midnightblue" d="M467.26,-758.9C466.87,-816.45 457.56,-984.66 366,-1073 361.88,-1076.97 357.19,-1080.3 352.16,-1083.1"/>
<polygon fill="midnightblue" stroke="midnightblue" points="470.76,-758.63 467.23,-748.64 463.76,-758.64 470.76,-758.63"/>
</g>
<!-- Node18&#45;&gt;Node15 -->
<g id="edge40" class="edge">
<title>Node18&#45;&gt;Node15</title>
<path fill="none" stroke="midnightblue" d="M466.07,-758.69C462.54,-810.32 445.71,-950.62 366,-1024 356.26,-1032.96 343.58,-1038.66 330.78,-1042.25"/>
<polygon fill="midnightblue" stroke="midnightblue" points="469.57,-758.76 466.67,-748.57 462.59,-758.35 469.57,-758.76"/>
</g>
<!-- Node18&#45;&gt;Node16 -->
<g id="edge42" class="edge">
<title>Node18&#45;&gt;Node16</title>
<path fill="none" stroke="midnightblue" d="M464.4,-758.91C457.39,-804.4 433.8,-916.47 366,-975 356.11,-983.54 343.51,-989.09 330.86,-992.68"/>
<polygon fill="midnightblue" stroke="midnightblue" points="467.89,-759.26 465.85,-748.86 460.96,-758.26 467.89,-759.26"/>
</g>
<!-- Node19 -->
<g id="node19" class="node">
<title>Node19</title>
<g id="a_node19"><a xlink:href="test__cmp__decmp_8c_a50ba26014079160ca77b7d7fa76ce0f4.html#a50ba26014079160ca77b7d7fa76ce0f4" target="_top" xlink:title="compress the given configuration and decompress it afterwards; finally compare the results">
<polygon fill="white" stroke="black" points="195,-152.5 195,-171.5 353,-171.5 353,-152.5 195,-152.5"/>
<text text-anchor="middle" x="274" y="-159.5" font-family="Helvetica,sans-Serif" font-size="10.00">compression_decompression</text>
</a>
</g>
</g>
<!-- Node18&#45;&gt;Node19 -->
<g id="edge18" class="edge">
<title>Node18&#45;&gt;Node19</title>
<path fill="none" stroke="midnightblue" d="M406.24,-723.52C404.71,-722.13 403.29,-720.63 402,-719 327.63,-625.05 444.64,-271.41 366,-181 362.29,-176.74 357.9,-173.29 353.07,-170.5"/>
<polygon fill="midnightblue" stroke="midnightblue" points="404.47,-726.55 414.65,-729.48 408.52,-720.84 404.47,-726.55"/>
</g>
<!-- Node21 -->
<g id="node21" class="node">
<title>Node21</title>
<g id="a_node21"><a xlink:href="test__decmp_8c_a2d642d4d482b9ec7eca4568a95f5bdd4.html#a2d642d4d482b9ec7eca4568a95f5bdd4" target="_top" xlink:title=" ">
<polygon fill="white" stroke="black" points="202,-426.5 202,-445.5 346,-445.5 346,-426.5 202,-426.5"/>
<text text-anchor="middle" x="274" y="-433.5" font-family="Helvetica,sans-Serif" font-size="10.00">icu_compress_data_entity</text>
</a>
</g>
</g>
<!-- Node18&#45;&gt;Node21 -->
<g id="edge20" class="edge">
<title>Node18&#45;&gt;Node21</title>
<path fill="none" stroke="midnightblue" d="M406.89,-723.82C405.13,-722.36 403.49,-720.76 402,-719 325.36,-628.73 446.74,-541.63 366,-455 360.5,-449.1 353.67,-444.77 346.25,-441.64"/>
<polygon fill="midnightblue" stroke="midnightblue" points="405,-726.77 415.26,-729.4 408.88,-720.95 405,-726.77"/>
</g>
<!-- Node22 -->
<g id="node22" class="node">
<title>Node22</title>
<g id="a_node22"><a xlink:href="test__decmp_8c_a6e7a5e150e2c829836db3c42cdec2eec.html#a6e7a5e150e2c829836db3c42cdec2eec" target="_top" xlink:title=" ">
<polygon fill="white" stroke="black" points="182,-114.5 182,-133.5 366,-133.5 366,-114.5 182,-114.5"/>
<text text-anchor="middle" x="274" y="-121.5" font-family="Helvetica,sans-Serif" font-size="10.00">test_cmp_decmp_n_imagette_raw</text>
</a>
</g>
</g>
<!-- Node18&#45;&gt;Node22 -->
<g id="edge22" class="edge">
<title>Node18&#45;&gt;Node22</title>
<path fill="none" stroke="midnightblue" d="M406.23,-723.52C404.71,-722.14 403.29,-720.63 402,-719 322.62,-618.27 449.96,-239.95 366,-143 362.83,-139.34 359.15,-136.28 355.13,-133.72"/>
<polygon fill="midnightblue" stroke="midnightblue" points="404.46,-726.55 414.64,-729.49 408.51,-720.85 404.46,-726.55"/>
</g>
<!-- Node23 -->
<g id="node23" class="node">
<title>Node23</title>
<g id="a_node23"><a xlink:href="test__cmp__icu_8c_aca32c7d039600004c9cc5c6fe19b8ec5.html#aca32c7d039600004c9cc5c6fe19b8ec5" target="_top" xlink:title=" ">
<polygon fill="white" stroke="black" points="199,-377 199,-407 349,-407 349,-377 199,-377"/>
<text text-anchor="start" x="207" y="-395" font-family="Helvetica,sans-Serif" font-size="10.00">test_compress_background</text>
<text text-anchor="middle" x="274" y="-384" font-family="Helvetica,sans-Serif" font-size="10.00">_error_cases</text>
</a>
</g>
</g>
<!-- Node18&#45;&gt;Node23 -->
<g id="edge23" class="edge">
<title>Node18&#45;&gt;Node23</title>
<path fill="none" stroke="midnightblue" d="M406.85,-723.86C405.1,-722.38 403.48,-720.77 402,-719 315.39,-615.22 454.18,-519.45 366,-417 361.3,-411.54 355.52,-407.21 349.18,-403.8"/>
<polygon fill="midnightblue" stroke="midnightblue" points="404.94,-726.79 415.19,-729.46 408.84,-720.98 404.94,-726.79"/>
</g>
<!-- Node24 -->
<g id="node24" class="node">
<title>Node24</title>
<g id="a_node24"><a xlink:href="test__cmp__icu_8c_a99545cc4ea3f1aa22be006d201e43f6d.html#a99545cc4ea3f1aa22be006d201e43f6d" target="_top" xlink:title=" ">
<polygon fill="white" stroke="black" points="195,-338.5 195,-357.5 353,-357.5 353,-338.5 195,-338.5"/>
<text text-anchor="middle" x="274" y="-345.5" font-family="Helvetica,sans-Serif" font-size="10.00">test_compress_imagette_diff</text>
</a>
</g>
</g>
<!-- Node18&#45;&gt;Node24 -->
<g id="edge28" class="edge">
<title>Node18&#45;&gt;Node24</title>
<path fill="none" stroke="midnightblue" d="M406.32,-723.46C404.77,-722.09 403.32,-720.61 402,-719 352.12,-658.21 418.64,-425.41 366,-367 362.33,-362.92 358.02,-359.59 353.32,-356.89"/>
<polygon fill="midnightblue" stroke="midnightblue" points="404.6,-726.52 414.81,-729.35 408.59,-720.77 404.6,-726.52"/>
</g>
<!-- Node25 -->
<g id="node25" class="node">
<title>Node25</title>
<g id="a_node25"><a xlink:href="test__cmp__icu_8c_a960bb1de38c5e353aa1d1d2fb25435e8.html#a960bb1de38c5e353aa1d1d2fb25435e8" target="_top" xlink:title=" ">
<polygon fill="white" stroke="black" points="205.5,-289 205.5,-319 342.5,-319 342.5,-289 205.5,-289"/>
<text text-anchor="start" x="213.5" y="-307" font-family="Helvetica,sans-Serif" font-size="10.00">test_compress_imagette</text>
<text text-anchor="middle" x="274" y="-296" font-family="Helvetica,sans-Serif" font-size="10.00">_error_cases</text>
</a>
</g>
</g>
<!-- Node18&#45;&gt;Node25 -->
<g id="edge29" class="edge">
<title>Node18&#45;&gt;Node25</title>
<path fill="none" stroke="midnightblue" d="M406.29,-723.47C404.75,-722.1 403.31,-720.62 402,-719 347.13,-651.44 421.89,-395.72 366,-329 359.79,-321.59 351.61,-316.27 342.7,-312.46"/>
<polygon fill="midnightblue" stroke="midnightblue" points="404.56,-726.53 414.76,-729.39 408.57,-720.79 404.56,-726.53"/>
</g>
<!-- Node26 -->
<g id="node26" class="node">
<title>Node26</title>
<g id="a_node26"><a xlink:href="test__cmp__icu_8c_a7c1162f048c55a098b4e6c1d9a0a884e.html#a7c1162f048c55a098b4e6c1d9a0a884e" target="_top" xlink:title=" ">
<polygon fill="white" stroke="black" points="205.5,-240 205.5,-270 342.5,-270 342.5,-240 205.5,-240"/>
<text text-anchor="start" x="213.5" y="-258" font-family="Helvetica,sans-Serif" font-size="10.00">test_compress_imagette</text>
<text text-anchor="middle" x="274" y="-247" font-family="Helvetica,sans-Serif" font-size="10.00">_model</text>
</a>
</g>
</g>
<!-- Node18&#45;&gt;Node26 -->
<g id="edge30" class="edge">
<title>Node18&#45;&gt;Node26</title>
<path fill="none" stroke="midnightblue" d="M406.27,-723.49C404.74,-722.12 403.3,-720.62 402,-719 340.54,-642.53 429,-354.21 366,-279 359.81,-271.61 351.64,-266.35 342.73,-262.63"/>
<polygon fill="midnightblue" stroke="midnightblue" points="404.52,-726.54 414.72,-729.42 408.55,-720.81 404.52,-726.54"/>
</g>
<!-- Node27 -->
<g id="node27" class="node">
<title>Node27</title>
<g id="a_node27"><a xlink:href="test__cmp__icu_8c_a390abe2bb7591a75050558bdd4476593.html#a390abe2bb7591a75050558bdd4476593" target="_top" xlink:title=" ">
<polygon fill="white" stroke="black" points="193.5,-798.5 193.5,-817.5 354.5,-817.5 354.5,-798.5 193.5,-798.5"/>
<text text-anchor="middle" x="274" y="-805.5" font-family="Helvetica,sans-Serif" font-size="10.00">test_compress_imagette_raw</text>
</a>
</g>
</g>
<!-- Node18&#45;&gt;Node27 -->
<g id="edge31" class="edge">
<title>Node18&#45;&gt;Node27</title>
<path fill="none" stroke="midnightblue" d="M441.99,-753.62C422.01,-764.74 392.98,-779.68 366,-789 355.17,-792.74 343.35,-795.87 331.92,-798.44"/>
<polygon fill="midnightblue" stroke="midnightblue" points="443.78,-756.63 450.76,-748.66 440.33,-750.53 443.78,-756.63"/>
</g>
<!-- Node28 -->
<g id="node28" class="node">
<title>Node28</title>
<g id="a_node28"><a xlink:href="test__cmp__icu_8c_a3c859fa9247c65ae7a43e2bd682448e2.html#a3c859fa9247c65ae7a43e2bd682448e2" target="_top" xlink:title=" ">
<polygon fill="white" stroke="black" points="205.5,-749 205.5,-779 342.5,-779 342.5,-749 205.5,-749"/>
<text text-anchor="start" x="213.5" y="-767" font-family="Helvetica,sans-Serif" font-size="10.00">test_compress_imagette</text>
<text text-anchor="middle" x="274" y="-756" font-family="Helvetica,sans-Serif" font-size="10.00">_stuff</text>
</a>
</g>
</g>
<!-- Node18&#45;&gt;Node28 -->
<g id="edge32" class="edge">
<title>Node18&#45;&gt;Node28</title>
<path fill="none" stroke="midnightblue" d="M402.59,-747.39C383.37,-749.89 362.24,-752.64 342.81,-755.17"/>
<polygon fill="midnightblue" stroke="midnightblue" points="403.29,-750.83 412.75,-746.06 402.38,-743.88 403.29,-750.83"/>
</g>
<!-- Node29 -->
<g id="node29" class="node">
<title>Node29</title>
<g id="a_node29"><a xlink:href="test__cmp__icu_8c_a13bf5ba0481601697942a0a485f7631c.html#a13bf5ba0481601697942a0a485f7631c" target="_top" xlink:title=" ">
<polygon fill="white" stroke="black" points="213.5,-700 213.5,-730 334.5,-730 334.5,-700 213.5,-700"/>
<text text-anchor="start" x="221.5" y="-718" font-family="Helvetica,sans-Serif" font-size="10.00">test_compress_offset</text>
<text text-anchor="middle" x="274" y="-707" font-family="Helvetica,sans-Serif" font-size="10.00">_error_cases</text>
</a>
</g>
</g>
<!-- Node18&#45;&gt;Node29 -->
<g id="edge37" class="edge">
<title>Node18&#45;&gt;Node29</title>
<path fill="none" stroke="midnightblue" d="M402.81,-730.98C380.76,-728.22 356.17,-725.15 334.5,-722.44"/>
<polygon fill="midnightblue" stroke="midnightblue" points="402.39,-734.45 412.75,-732.22 403.26,-727.51 402.39,-734.45"/>
</g>
<!-- Node30 -->
<g id="node30" class="node">
<title>Node30</title>
<g id="a_node30"><a xlink:href="test__cmp__icu_8c_afa54c8348f46913b7c39517424f7e547.html#afa54c8348f46913b7c39517424f7e547" target="_top" xlink:title=" ">
<polygon fill="white" stroke="black" points="217.5,-651 217.5,-681 330.5,-681 330.5,-651 217.5,-651"/>
<text text-anchor="start" x="225.5" y="-669" font-family="Helvetica,sans-Serif" font-size="10.00">test_compress_s_fx</text>
<text text-anchor="middle" x="274" y="-658" font-family="Helvetica,sans-Serif" font-size="10.00">_model_multi</text>
</a>
</g>
</g>
<!-- Node18&#45;&gt;Node30 -->
<g id="edge41" class="edge">
<title>Node18&#45;&gt;Node30</title>
<path fill="none" stroke="midnightblue" d="M417.74,-726.05C412.31,-723.97 406.95,-721.63 402,-719 383.86,-709.36 384.34,-699.27 366,-690 355.06,-684.47 342.72,-680.12 330.74,-676.74"/>
<polygon fill="midnightblue" stroke="midnightblue" points="416.94,-729.48 427.54,-729.49 419.26,-722.87 416.94,-729.48"/>
</g>
<!-- Node31 -->
<g id="node31" class="node">
<title>Node31</title>
<g id="a_node31"><a xlink:href="test__cmp__icu_8c_ab9f5f00613d43e2b46aa130d472674cb.html#ab9f5f00613d43e2b46aa130d472674cb" target="_top" xlink:title=" ">
<polygon fill="white" stroke="black" points="205.5,-612.5 205.5,-631.5 342.5,-631.5 342.5,-612.5 205.5,-612.5"/>
<text text-anchor="middle" x="274" y="-619.5" font-family="Helvetica,sans-Serif" font-size="10.00">test_compress_s_fx_raw</text>
</a>
</g>
</g>
<!-- Node18&#45;&gt;Node31 -->
<g id="edge43" class="edge">
<title>Node18&#45;&gt;Node31</title>
<path fill="none" stroke="midnightblue" d="M410.09,-724.84C407.21,-723.12 404.49,-721.18 402,-719 373.26,-693.87 395.88,-664.77 366,-641 359.18,-635.57 351.19,-631.59 342.82,-628.68"/>
<polygon fill="midnightblue" stroke="midnightblue" points="408.58,-728.01 419.08,-729.42 411.76,-721.77 408.58,-728.01"/>
</g>
<!-- Node32 -->
<g id="node32" class="node">
<title>Node32</title>
<g id="a_node32"><a xlink:href="test__cmp__icu_8c_ad8cefbf7c0531178a3c5d00ed71cfe61.html#ad8cefbf7c0531178a3c5d00ed71cfe61" target="_top" xlink:title=" ">
<polygon fill="white" stroke="black" points="217.5,-563 217.5,-593 330.5,-593 330.5,-563 217.5,-563"/>
<text text-anchor="start" x="225.5" y="-581" font-family="Helvetica,sans-Serif" font-size="10.00">test_compress_s_fx</text>
<text text-anchor="middle" x="274" y="-570" font-family="Helvetica,sans-Serif" font-size="10.00">_staff</text>
</a>
</g>
</g>
<!-- Node18&#45;&gt;Node32 -->
<g id="edge44" class="edge">
<title>Node18&#45;&gt;Node32</title>
<path fill="none" stroke="midnightblue" d="M408.18,-724.17C405.98,-722.61 403.9,-720.9 402,-719 363.78,-680.88 404.79,-640.54 366,-603 356.35,-593.66 343.54,-587.73 330.59,-584"/>
<polygon fill="midnightblue" stroke="midnightblue" points="406.83,-727.43 417.24,-729.4 410.33,-721.37 406.83,-727.43"/>
</g>
<!-- Node33 -->
<g id="node33" class="node">
<title>Node33</title>
<g id="a_node33"><a xlink:href="test__cmp__icu_8c_aee4858f3ea226c6da9e4a9ed54475b1d.html#aee4858f3ea226c6da9e4a9ed54475b1d" target="_top" xlink:title=" ">
<polygon fill="white" stroke="black" points="204.5,-514 204.5,-544 343.5,-544 343.5,-514 204.5,-514"/>
<text text-anchor="start" x="212.5" y="-532" font-family="Helvetica,sans-Serif" font-size="10.00">test_compress_smearing</text>
<text text-anchor="middle" x="274" y="-521" font-family="Helvetica,sans-Serif" font-size="10.00">_error_cases</text>
</a>
</g>
</g>
<!-- Node18&#45;&gt;Node33 -->
<g id="edge45" class="edge">
<title>Node18&#45;&gt;Node33</title>
<path fill="none" stroke="midnightblue" d="M407.29,-723.85C405.4,-722.38 403.62,-720.77 402,-719 350.93,-663.4 418.19,-607.55 366,-553 359.79,-546.51 352.04,-541.7 343.72,-538.14"/>
<polygon fill="midnightblue" stroke="midnightblue" points="405.89,-727.1 416.23,-729.44 409.6,-721.17 405.89,-727.1"/>
</g>
<!-- Node34 -->
<g id="node34" class="node">
<title>Node34</title>
<g id="a_node34"><a xlink:href="test__cmp__icu_8c_a8db99614e8a5d384edb82fe466e15042.html#a8db99614e8a5d384edb82fe466e15042" target="_top" xlink:title=" ">
<polygon fill="white" stroke="black" points="207,-465 207,-495 341,-495 341,-465 207,-465"/>
<text text-anchor="start" x="215" y="-483" font-family="Helvetica,sans-Serif" font-size="10.00">test_icu_compress_data</text>
<text text-anchor="middle" x="274" y="-472" font-family="Helvetica,sans-Serif" font-size="10.00">_error_cases</text>
</a>
</g>
</g>
<!-- Node18&#45;&gt;Node34 -->
<g id="edge46" class="edge">
<title>Node18&#45;&gt;Node34</title>
<path fill="none" stroke="midnightblue" d="M407.07,-723.86C405.25,-722.38 403.55,-720.77 402,-719 338.18,-646.1 431.29,-575.59 366,-504 359.28,-496.64 350.6,-491.42 341.27,-487.74"/>
<polygon fill="midnightblue" stroke="midnightblue" points="405.41,-726.95 415.71,-729.46 409.22,-721.08 405.41,-726.95"/>
</g>
<!-- Node35 -->
<g id="node35" class="node">
<title>Node35</title>
<g id="a_node35"><a xlink:href="test__cmp__decmp_8c_abb20ed18a3c6ba0fc67ecef2d629dec0.html#abb20ed18a3c6ba0fc67ecef2d629dec0" target="_top" xlink:title=" ">
<polygon fill="white" stroke="black" points="201,-191 201,-221 347,-221 347,-191 201,-191"/>
<text text-anchor="start" x="209" y="-209" font-family="Helvetica,sans-Serif" font-size="10.00">test_random_compression</text>
<text text-anchor="middle" x="274" y="-198" font-family="Helvetica,sans-Serif" font-size="10.00">_decompression2</text>
</a>
</g>
</g>
<!-- Node18&#45;&gt;Node35 -->
<g id="edge47" class="edge">
<title>Node18&#45;&gt;Node35</title>
<path fill="none" stroke="midnightblue" d="M406.26,-723.5C404.72,-722.13 403.3,-720.63 402,-719 334.09,-633.79 435.63,-313.81 366,-230 360.88,-223.84 354.39,-219.16 347.24,-215.62"/>
<polygon fill="midnightblue" stroke="midnightblue" points="404.5,-726.55 414.68,-729.45 408.53,-720.83 404.5,-726.55"/>
</g>
<!-- Node20 -->
<g id="node20" class="node">
<title>Node20</title>
<g id="a_node20"><a xlink:href="test__cmp__decmp_8c_af3c162694b40683e0aa25c61a49cdafc.html#af3c162694b40683e0aa25c61a49cdafc" target="_top" xlink:title="random compression decompression test">
<polygon fill="white" stroke="black" points="0,-147 0,-177 146,-177 146,-147 0,-147"/>
<text text-anchor="start" x="8" y="-165" font-family="Helvetica,sans-Serif" font-size="10.00">test_random_compression</text>
<text text-anchor="middle" x="73" y="-154" font-family="Helvetica,sans-Serif" font-size="10.00">_decompression</text>
</a>
</g>
</g>
<!-- Node19&#45;&gt;Node20 -->
<g id="edge19" class="edge">
<title>Node19&#45;&gt;Node20</title>
<path fill="none" stroke="midnightblue" d="M184.63,-162C171.72,-162 158.55,-162 146.01,-162"/>
<polygon fill="midnightblue" stroke="midnightblue" points="184.92,-165.5 194.92,-162 184.92,-158.5 184.92,-165.5"/>
</g>
<!-- Node21&#45;&gt;Node4 -->
<g id="edge21" class="edge">
<title>Node21&#45;&gt;Node4</title>
<path fill="none" stroke="midnightblue" d="M191.7,-436C176.67,-436 161.06,-436 146.32,-436"/>
<polygon fill="midnightblue" stroke="midnightblue" points="192,-439.5 202,-436 192,-432.5 192,-439.5"/>
</g>
<!-- Node38 -->
<g id="node38" class="node">
<title>Node38</title>
<g id="a_node38"><a xlink:href="decmp_8h_aefe0fa39fdc295432f5e2e0f91f0b87f.html#aefe0fa39fdc295432f5e2e0f91f0b87f" target="_top" xlink:title="decompress a compression entity">
<polygon fill="white" stroke="black" points="402,-95.5 402,-114.5 534,-114.5 534,-95.5 402,-95.5"/>
<text text-anchor="middle" x="468" y="-102.5" font-family="Helvetica,sans-Serif" font-size="10.00">decompress_cmp_entiy</text>
</a>
</g>
</g>
<!-- Node37&#45;&gt;Node38 -->
<g id="edge50" class="edge">
<title>Node37&#45;&gt;Node38</title>
<path fill="none" stroke="midnightblue" d="M622.42,-191.57C585.28,-170.61 517.44,-132.33 485.93,-114.55"/>
<polygon fill="midnightblue" stroke="midnightblue" points="620.73,-194.63 631.16,-196.5 624.17,-188.54 620.73,-194.63"/>
</g>
<!-- Node41 -->
<g id="node41" class="node">
<title>Node41</title>
<g id="a_node41"><a xlink:href="decmp_8h_aa89132cfd22be6ede8bc4344e9c3336a.html#aa89132cfd22be6ede8bc4344e9c3336a" target="_top" xlink:title="decompress RDCU compressed data without a compression entity header">
<polygon fill="white" stroke="black" points="403.5,-196.5 403.5,-215.5 532.5,-215.5 532.5,-196.5 403.5,-196.5"/>
<text text-anchor="middle" x="468" y="-203.5" font-family="Helvetica,sans-Serif" font-size="10.00">decompress_rdcu_data</text>
</a>
</g>
</g>
<!-- Node37&#45;&gt;Node41 -->
<g id="edge56" class="edge">
<title>Node37&#45;&gt;Node41</title>
<path fill="none" stroke="midnightblue" d="M559.52,-206C550.43,-206 541.33,-206 532.59,-206"/>
<polygon fill="midnightblue" stroke="midnightblue" points="559.75,-209.5 569.75,-206 559.75,-202.5 559.75,-209.5"/>
</g>
<!-- Node38&#45;&gt;Node4 -->
<g id="edge53" class="edge">
<title>Node38&#45;&gt;Node4</title>
<path fill="none" stroke="midnightblue" d="M430.31,-92.54C371.69,-75.13 256.01,-51.3 182,-105 167.96,-115.18 92.3,-373.13 76.78,-426.42"/>
<polygon fill="midnightblue" stroke="midnightblue" points="429.3,-95.89 439.89,-95.48 431.36,-89.2 429.3,-95.89"/>
</g>
<!-- Node38&#45;&gt;Node19 -->
<g id="edge51" class="edge">
<title>Node38&#45;&gt;Node19</title>
<path fill="none" stroke="midnightblue" d="M435.08,-118.45C415.42,-126.38 389.55,-136.16 366,-143 353.76,-146.56 340.4,-149.73 327.79,-152.41"/>
<polygon fill="midnightblue" stroke="midnightblue" points="436.54,-121.64 444.47,-114.62 433.89,-115.16 436.54,-121.64"/>
</g>
<!-- Node38&#45;&gt;Node22 -->
<g id="edge52" class="edge">
<title>Node38&#45;&gt;Node22</title>
<path fill="none" stroke="midnightblue" d="M391.85,-112.44C383.42,-113.27 374.77,-114.13 366.17,-114.98"/>
<polygon fill="midnightblue" stroke="midnightblue" points="392.39,-115.9 402,-111.43 391.7,-108.93 392.39,-115.9"/>
</g>
<!-- Node39 -->
<g id="node39" class="node">
<title>Node39</title>
<g id="a_node39"><a xlink:href="test__decmp_8c_acfebf2fa7515f5449e0cfa594457b66b.html#acfebf2fa7515f5449e0cfa594457b66b" target="_top" xlink:title=" ">
<polygon fill="white" stroke="black" points="233,-38.5 233,-57.5 315,-57.5 315,-38.5 233,-38.5"/>
<text text-anchor="middle" x="274" y="-45.5" font-family="Helvetica,sans-Serif" font-size="10.00">test_s_fx_diff</text>
</a>
</g>
</g>
<!-- Node38&#45;&gt;Node39 -->
<g id="edge54" class="edge">
<title>Node38&#45;&gt;Node39</title>
<path fill="none" stroke="midnightblue" d="M429.78,-92.27C410.78,-85.91 387.24,-78.27 366,-72 348.76,-66.92 329.54,-61.77 313.21,-57.55"/>
<polygon fill="midnightblue" stroke="midnightblue" points="428.68,-95.59 439.27,-95.46 430.91,-88.95 428.68,-95.59"/>
</g>
<!-- Node40 -->
<g id="node40" class="node">
<title>Node40</title>
<g id="a_node40"><a xlink:href="test__decmp_8c_a953eeaad914985c0816dde26d47ffef0.html#a953eeaad914985c0816dde26d47ffef0" target="_top" xlink:title=" ">
<polygon fill="white" stroke="black" points="225.5,-0.5 225.5,-19.5 322.5,-19.5 322.5,-0.5 225.5,-0.5"/>
<text text-anchor="middle" x="274" y="-7.5" font-family="Helvetica,sans-Serif" font-size="10.00">test_s_fx_model</text>
</a>
</g>
</g>
<!-- Node38&#45;&gt;Node40 -->
<g id="edge55" class="edge">
<title>Node38&#45;&gt;Node40</title>
<path fill="none" stroke="midnightblue" d="M449.86,-88.29C430.92,-70.79 398.73,-43.83 366,-29 352.48,-22.87 336.92,-18.69 322.54,-15.86"/>
<polygon fill="midnightblue" stroke="midnightblue" points="447.69,-91.05 457.36,-95.37 452.49,-85.96 447.69,-91.05"/>
</g>
<!-- Node41&#45;&gt;Node35 -->
<g id="edge57" class="edge">
<title>Node41&#45;&gt;Node35</title>
<path fill="none" stroke="midnightblue" d="M393.04,-206C377.97,-206 362.13,-206 347.12,-206"/>
<polygon fill="midnightblue" stroke="midnightblue" points="393.33,-209.5 403.33,-206 393.33,-202.5 393.33,-209.5"/>
</g>
</g>
</svg>
        <g id="navigator" transform="translate(0 0)" fill="#404254">
                <rect fill="#f2f5e9" fill-opacity="0.5" stroke="#606060" stroke-width=".5" x="0" y="0" width="60" height="60"/>
                <use id="zoomplus" xlink:href="#zoomPlus" x="17" y="9" onmousedown="handleZoom(evt,'in')"/>
                <use id="zoomminus" xlink:href="#zoomMin" x="42" y="9" onmousedown="handleZoom(evt,'out')"/>
                <use id="reset" xlink:href="#resetDef" x="30" y="36" onmousedown="handleReset()"/>
                <g id="arrowUp" xlink:href="#dirArrow" transform="translate(30 24)" onmousedown="handlePan(0,-1)">
                  <use xlink:href="#rim" fill="#404040">
                        <set attributeName="fill" to="#808080" begin="arrowUp.mouseover" end="arrowUp.mouseout"/>
                  </use>
                  <path fill="none" stroke="white" stroke-width="1.5" d="M0,-3.0v7 M-2.5,-0.5L0,-3.0L2.5,-0.5"/>
                </g>
                <g id="arrowRight" xlink:href="#dirArrow" transform="rotate(90) translate(36 -43)" onmousedown="handlePan(1,0)">
                  <use xlink:href="#rim" fill="#404040">
                        <set attributeName="fill" to="#808080" begin="arrowRight.mouseover" end="arrowRight.mouseout"/>
                  </use>
                  <path fill="none" stroke="white" stroke-width="1.5" d="M0,-3.0v7 M-2.5,-0.5L0,-3.0L2.5,-0.5"/>
                </g>
                <g id="arrowDown" xlink:href="#dirArrow" transform="rotate(180) translate(-30 -48)" onmousedown="handlePan(0,1)">
                  <use xlink:href="#rim" fill="#404040">
                        <set attributeName="fill" to="#808080" begin="arrowDown.mouseover" end="arrowDown.mouseout"/>
                  </use>
                  <path fill="none" stroke="white" stroke-width="1.5" d="M0,-3.0v7 M-2.5,-0.5L0,-3.0L2.5,-0.5"/>
                </g>
                <g id="arrowLeft" xlink:href="#dirArrow" transform="rotate(270) translate(-36 17)" onmousedown="handlePan(-1,0)">
                  <use xlink:href="#rim" fill="#404040">
                        <set attributeName="fill" to="#808080" begin="arrowLeft.mouseover" end="arrowLeft.mouseout"/>
                  </use>
                  <path fill="none" stroke="white" stroke-width="1.5" d="M0,-3.0v7 M-2.5,-0.5L0,-3.0L2.5,-0.5"/>
                </g>
        </g>
        <svg viewBox="0 0 15 15" width="100%" height="30px" preserveAspectRatio="xMaxYMin meet">
         <g id="arrow_out" transform="scale(0.3 0.3)">
          <a xlink:href="cmp__support_8c_a0ab443a00b23edf5f8de4cca89def25b_a0ab443a00b23edf5f8de4cca89def25b_icgraph_org.svg" target="_base">
           <rect id="button" ry="5" rx="5" y="6" x="6" height="38" width="38"
                fill="#f2f5e9" fill-opacity="0.5" stroke="#606060" stroke-width="1.0"/>
           <path id="arrow"
             d="M 11.500037,31.436501 C 11.940474,20.09759 22.043105,11.32322 32.158766,21.979434 L 37.068811,17.246167 C 37.068811,17.246167 37.088388,32 37.088388,32 L 22.160133,31.978069 C 22.160133,31.978069 26.997745,27.140456 26.997745,27.140456 C 18.528582,18.264221 13.291696,25.230495 11.500037,31.436501 z"
             style="fill:#404040;"/>
          </a>
         </g>
        </svg>
</svg>
