<?xml version="1.0" encoding="UTF-8" standalone="no"?>
<!DOCTYPE svg PUBLIC "-//W3C//DTD SVG 1.1//EN"
 "http://www.w3.org/Graphics/SVG/1.1/DTD/svg11.dtd">
<!-- Generated by graphviz version 2.43.0 (0)
 -->
<!-- Title: cmp_data_types.h Pages: 1 -->
<svg width="994pt" height="207pt"
 viewBox="0.00 0.00 993.50 207.00" xmlns="http://www.w3.org/2000/svg" xmlns:xlink="http://www.w3.org/1999/xlink">
<g id="graph0" class="graph" transform="scale(1 1) rotate(0) translate(4 203)">
<title>cmp_data_types.h</title>
<polygon fill="white" stroke="transparent" points="-4,4 -4,-203 989.5,-203 989.5,4 -4,4"/>
<!-- Node1 -->
<g id="node1" class="node">
<title>Node1</title>
<g id="a_node1"><a xlink:title="definition of the different compression data types">
<polygon fill="#bfbfbf" stroke="black" points="444.5,-179.5 444.5,-198.5 550.5,-198.5 550.5,-179.5 444.5,-179.5"/>
<text text-anchor="middle" x="497.5" y="-186.5" font-family="Helvetica,sans-Serif" font-size="10.00">cmp_data_types.h</text>
</a>
</g>
</g>
<!-- Node2 -->
<g id="node2" class="node">
<title>Node2</title>
<g id="a_node2"><a xlink:href="cmp__data__types_8c.html" target="_top" xlink:title="collection of functions to handle the different compression data types">
<polygon fill="white" stroke="black" points="0,-123.5 0,-142.5 105,-142.5 105,-123.5 0,-123.5"/>
<text text-anchor="middle" x="52.5" y="-130.5" font-family="Helvetica,sans-Serif" font-size="10.00">cmp_data_types.c</text>
</a>
</g>
</g>
<!-- Node1&#45;&gt;Node2 -->
<g id="edge1" class="edge">
<title>Node1&#45;&gt;Node2</title>
<path fill="none" stroke="midnightblue" d="M433.95,-181.14C357.73,-172.78 226.15,-157.91 113.5,-143 110.74,-142.63 107.91,-142.25 105.06,-141.86"/>
<polygon fill="midnightblue" stroke="midnightblue" points="434.01,-184.67 444.33,-182.28 434.77,-177.71 434.01,-184.67"/>
</g>
<!-- Node3 -->
<g id="node3" class="node">
<title>Node3</title>
<g id="a_node3"><a xlink:href="cmp__max__used__bits_8c.html" target="_top" xlink:title="definition and consents of the cmp_max_used_bits structure">
<polygon fill="white" stroke="black" points="123,-123.5 123,-142.5 248,-142.5 248,-123.5 123,-123.5"/>
<text text-anchor="middle" x="185.5" y="-130.5" font-family="Helvetica,sans-Serif" font-size="10.00">cmp_max_used_bits.c</text>
</a>
</g>
</g>
<!-- Node1&#45;&gt;Node3 -->
<g id="edge2" class="edge">
<title>Node1&#45;&gt;Node3</title>
<path fill="none" stroke="midnightblue" d="M438.15,-177.73C379.19,-167.52 289.84,-152.06 234.71,-142.52"/>
<polygon fill="midnightblue" stroke="midnightblue" points="437.61,-181.19 448.06,-179.44 438.81,-174.29 437.61,-181.19"/>
</g>
<!-- Node4 -->
<g id="node4" class="node">
<title>Node4</title>
<g id="a_node4"><a xlink:href="cmp__entity_8c.html" target="_top" xlink:title="functions and definition to handle a compression entity">
<polygon fill="white" stroke="black" points="266.5,-123.5 266.5,-142.5 344.5,-142.5 344.5,-123.5 266.5,-123.5"/>
<text text-anchor="middle" x="305.5" y="-130.5" font-family="Helvetica,sans-Serif" font-size="10.00">cmp_entity.c</text>
</a>
</g>
</g>
<!-- Node1&#45;&gt;Node4 -->
<g id="edge3" class="edge">
<title>Node1&#45;&gt;Node4</title>
<path fill="none" stroke="midnightblue" d="M457.32,-176.7C421.08,-166.51 368.59,-151.74 335.78,-142.52"/>
<polygon fill="midnightblue" stroke="midnightblue" points="456.5,-180.11 467.08,-179.44 458.4,-173.37 456.5,-180.11"/>
</g>
<!-- Node5 -->
<g id="node5" class="node">
<title>Node5</title>
<g id="a_node5"><a xlink:href="cmp__max__used__bits__list_8h.html" target="_top" xlink:title="Implement a list that can hold an arbitrary number of different cmp_max_used_bits structs.">
<polygon fill="white" stroke="black" points="362.5,-123.5 362.5,-142.5 508.5,-142.5 508.5,-123.5 362.5,-123.5"/>
<text text-anchor="middle" x="435.5" y="-130.5" font-family="Helvetica,sans-Serif" font-size="10.00">cmp_max_used_bits_list.h</text>
</a>
</g>
</g>
<!-- Node1&#45;&gt;Node5 -->
<g id="edge4" class="edge">
<title>Node1&#45;&gt;Node5</title>
<path fill="none" stroke="midnightblue" d="M479.75,-172.54C468.69,-162.91 454.87,-150.87 445.64,-142.83"/>
<polygon fill="midnightblue" stroke="midnightblue" points="477.7,-175.4 487.54,-179.32 482.3,-170.12 477.7,-175.4"/>
</g>
<!-- Node9 -->
<g id="node9" class="node">
<title>Node9</title>
<g id="a_node9"><a xlink:href="cmp__icu_8c.html" target="_top" xlink:title="software compression library">
<polygon fill="white" stroke="black" points="527,-123.5 527,-142.5 592,-142.5 592,-123.5 527,-123.5"/>
<text text-anchor="middle" x="559.5" y="-130.5" font-family="Helvetica,sans-Serif" font-size="10.00">cmp_icu.c</text>
</a>
</g>
</g>
<!-- Node1&#45;&gt;Node9 -->
<g id="edge8" class="edge">
<title>Node1&#45;&gt;Node9</title>
<path fill="none" stroke="midnightblue" d="M515.25,-172.54C526.31,-162.91 540.13,-150.87 549.36,-142.83"/>
<polygon fill="midnightblue" stroke="midnightblue" points="512.7,-170.12 507.46,-179.32 517.3,-175.4 512.7,-170.12"/>
</g>
<!-- Node11 -->
<g id="node11" class="node">
<title>Node11</title>
<g id="a_node11"><a xlink:href="test__cmp__data__types_8c.html" target="_top" xlink:title="compression data types tests">
<polygon fill="white" stroke="black" points="610,-123.5 610,-142.5 739,-142.5 739,-123.5 610,-123.5"/>
<text text-anchor="middle" x="674.5" y="-130.5" font-family="Helvetica,sans-Serif" font-size="10.00">test_cmp_data_types.c</text>
</a>
</g>
</g>
<!-- Node1&#45;&gt;Node11 -->
<g id="edge11" class="edge">
<title>Node1&#45;&gt;Node11</title>
<path fill="none" stroke="midnightblue" d="M535.4,-176.44C568.78,-166.26 616.6,-151.66 646.59,-142.52"/>
<polygon fill="midnightblue" stroke="midnightblue" points="534.09,-173.18 525.55,-179.44 536.13,-179.87 534.09,-173.18"/>
</g>
<!-- Node12 -->
<g id="node12" class="node">
<title>Node12</title>
<g id="a_node12"><a xlink:href="test__cmp__decmp_8c.html" target="_top" xlink:title="random compression decompression tests">
<polygon fill="white" stroke="black" points="757.5,-123.5 757.5,-142.5 865.5,-142.5 865.5,-123.5 757.5,-123.5"/>
<text text-anchor="middle" x="811.5" y="-130.5" font-family="Helvetica,sans-Serif" font-size="10.00">test_cmp_decmp.c</text>
</a>
</g>
</g>
<!-- Node1&#45;&gt;Node12 -->
<g id="edge12" class="edge">
<title>Node1&#45;&gt;Node12</title>
<path fill="none" stroke="midnightblue" d="M557.23,-177.73C616.57,-167.52 706.49,-152.06 761.98,-142.52"/>
<polygon fill="midnightblue" stroke="midnightblue" points="556.52,-174.3 547.25,-179.44 557.7,-181.2 556.52,-174.3"/>
</g>
<!-- Node13 -->
<g id="node13" class="node">
<title>Node13</title>
<g id="a_node13"><a xlink:href="test__cmp__entity_8c.html" target="_top" xlink:title="compression entity tests">
<polygon fill="white" stroke="black" points="883.5,-123.5 883.5,-142.5 985.5,-142.5 985.5,-123.5 883.5,-123.5"/>
<text text-anchor="middle" x="934.5" y="-130.5" font-family="Helvetica,sans-Serif" font-size="10.00">test_cmp_entity.c</text>
</a>
</g>
</g>
<!-- Node1&#45;&gt;Node13 -->
<g id="edge13" class="edge">
<title>Node1&#45;&gt;Node13</title>
<path fill="none" stroke="midnightblue" d="M560.85,-181.03C635.82,-172.64 764.38,-157.83 874.5,-143 877.42,-142.61 880.42,-142.19 883.45,-141.76"/>
<polygon fill="midnightblue" stroke="midnightblue" points="560.18,-177.58 550.63,-182.17 560.96,-184.54 560.18,-177.58"/>
</g>
<!-- Node6 -->
<g id="node6" class="node">
<title>Node6</title>
<g id="a_node6"><a xlink:href="decmp_8c.html" target="_top" xlink:title="software decompression library">
<polygon fill="white" stroke="black" points="302.5,-62 302.5,-81 360.5,-81 360.5,-62 302.5,-62"/>
<text text-anchor="middle" x="331.5" y="-69" font-family="Helvetica,sans-Serif" font-size="10.00">decmp.c</text>
</a>
</g>
</g>
<!-- Node5&#45;&gt;Node6 -->
<g id="edge5" class="edge">
<title>Node5&#45;&gt;Node6</title>
<path fill="none" stroke="midnightblue" d="M411.73,-118.4C391.62,-106.9 363.43,-90.77 346.37,-81.01"/>
<polygon fill="midnightblue" stroke="midnightblue" points="410.18,-121.55 420.6,-123.48 413.66,-115.47 410.18,-121.55"/>
</g>
<!-- Node8 -->
<g id="node8" class="node">
<title>Node8</title>
<g id="a_node8"><a xlink:href="test__cmp__max__used__bits__list_8c.html" target="_top" xlink:title="max_used_bits list tests">
<polygon fill="white" stroke="black" points="378.5,-56.5 378.5,-86.5 518.5,-86.5 518.5,-56.5 378.5,-56.5"/>
<text text-anchor="start" x="386.5" y="-74.5" font-family="Helvetica,sans-Serif" font-size="10.00">test_cmp_max_used_bits</text>
<text text-anchor="middle" x="448.5" y="-63.5" font-family="Helvetica,sans-Serif" font-size="10.00">_list.c</text>
</a>
</g>
</g>
<!-- Node5&#45;&gt;Node8 -->
<g id="edge7" class="edge">
<title>Node5&#45;&gt;Node8</title>
<path fill="none" stroke="midnightblue" d="M439.54,-113.53C441.44,-104.81 443.67,-94.59 445.44,-86.52"/>
<polygon fill="midnightblue" stroke="midnightblue" points="436.08,-112.96 437.36,-123.48 442.92,-114.45 436.08,-112.96"/>
</g>
<!-- Node7 -->
<g id="node7" class="node">
<title>Node7</title>
<g id="a_node7"><a xlink:href="test__decmp_8c.html" target="_top" xlink:title="decompression tests">
<polygon fill="white" stroke="black" points="397.5,-0.5 397.5,-19.5 479.5,-19.5 479.5,-0.5 397.5,-0.5"/>
<text text-anchor="middle" x="438.5" y="-7.5" font-family="Helvetica,sans-Serif" font-size="10.00">test_decmp.c</text>
</a>
</g>
</g>
<!-- Node6&#45;&gt;Node7 -->
<g id="edge6" class="edge">
<title>Node6&#45;&gt;Node7</title>
<path fill="none" stroke="midnightblue" d="M355.68,-57.06C376.38,-45.54 405.57,-29.31 423.2,-19.51"/>
<polygon fill="midnightblue" stroke="midnightblue" points="353.87,-54.06 346.83,-61.98 357.27,-60.17 353.87,-54.06"/>
</g>
<!-- Node9&#45;&gt;Node7 -->
<g id="edge10" class="edge">
<title>Node9&#45;&gt;Node7</title>
<path fill="none" stroke="midnightblue" d="M555.5,-113.22C551.1,-96.47 542.57,-72.16 527.5,-56 511.08,-38.4 486.26,-26.65 466.99,-19.58"/>
<polygon fill="midnightblue" stroke="midnightblue" points="552.21,-114.49 557.92,-123.42 559.02,-112.88 552.21,-114.49"/>
</g>
<!-- Node10 -->
<g id="node10" class="node">
<title>Node10</title>
<g id="a_node10"><a xlink:href="test__cmp__icu_8c.html" target="_top" xlink:title="software compression tests">
<polygon fill="white" stroke="black" points="575,-62 575,-81 664,-81 664,-62 575,-62"/>
<text text-anchor="middle" x="619.5" y="-69" font-family="Helvetica,sans-Serif" font-size="10.00">test_cmp_icu.c</text>
</a>
</g>
</g>
<!-- Node9&#45;&gt;Node10 -->
<g id="edge9" class="edge">
<title>Node9&#45;&gt;Node10</title>
<path fill="none" stroke="midnightblue" d="M575.31,-116.32C586.71,-105.02 601.66,-90.19 610.92,-81.01"/>
<polygon fill="midnightblue" stroke="midnightblue" points="572.73,-113.95 568.1,-123.48 577.66,-118.92 572.73,-113.95"/>
</g>
</g>
</svg>
