<?xml version="1.0" encoding="UTF-8" standalone="no"?>
<!DOCTYPE svg PUBLIC "-//W3C//DTD SVG 1.1//EN"
 "http://www.w3.org/Graphics/SVG/1.1/DTD/svg11.dtd">
<!-- Generated by graphviz version 2.43.0 (0)
 -->
<!-- Title: cmp_input_big_to_cpu_endianness Pages: 1 -->
<svg width="478pt" height="716pt"
 viewBox="0.00 0.00 478.00 716.00" xmlns="http://www.w3.org/2000/svg" xmlns:xlink="http://www.w3.org/1999/xlink">
<g id="graph0" class="graph" transform="scale(1 1) rotate(0) translate(4 712)">
<title>cmp_input_big_to_cpu_endianness</title>
<polygon fill="white" stroke="transparent" points="-4,4 -4,-712 474,-712 474,4 -4,4"/>
<!-- Node1 -->
<g id="node1" class="node">
<title>Node1</title>
<g id="a_node1"><a xlink:title="swap the endianness of uncompressed data form big endian to the cpu endianness (or the other way arou...">
<polygon fill="#bfbfbf" stroke="black" points="0,-339 0,-369 125,-369 125,-339 0,-339"/>
<text text-anchor="start" x="8" y="-357" font-family="Helvetica,sans-Serif" font-size="10.00">cmp_input_big_to_cpu</text>
<text text-anchor="middle" x="62.5" y="-346" font-family="Helvetica,sans-Serif" font-size="10.00">_endianness</text>
</a>
</g>
</g>
<!-- Node2 -->
<g id="node2" class="node">
<title>Node2</title>
<g id="a_node2"><a xlink:href="cmp__data__types_8c_a3cace4e9842b36891df0b0ad489a5475.html#a3cace4e9842b36891df0b0ad489a5475" target="_top" xlink:title=" ">
<polygon fill="white" stroke="black" points="193.5,-688.5 193.5,-707.5 282.5,-707.5 282.5,-688.5 193.5,-688.5"/>
<text text-anchor="middle" x="238" y="-695.5" font-family="Helvetica,sans-Serif" font-size="10.00">be_to_cpus_16</text>
</a>
</g>
</g>
<!-- Node1&#45;&gt;Node2 -->
<g id="edge1" class="edge">
<title>Node1&#45;&gt;Node2</title>
<path fill="none" stroke="midnightblue" d="M63.15,-369.25C62.85,-420.96 69.17,-591.35 161,-679 167.29,-685.01 175.19,-689.2 183.49,-692.11"/>
<polygon fill="midnightblue" stroke="midnightblue" points="182.77,-695.54 193.35,-694.96 184.72,-688.82 182.77,-695.54"/>
</g>
<!-- Node3 -->
<g id="node3" class="node">
<title>Node3</title>
<g id="a_node3"><a xlink:href="cmp__data__types_8c_a4bb5dbbff3bf89cd00d45ecd69edae93.html#a4bb5dbbff3bf89cd00d45ecd69edae93" target="_top" xlink:title=" ">
<polygon fill="white" stroke="black" points="171,-650.5 171,-669.5 305,-669.5 305,-650.5 171,-650.5"/>
<text text-anchor="middle" x="238" y="-657.5" font-family="Helvetica,sans-Serif" font-size="10.00">be_to_cpus_background</text>
</a>
</g>
</g>
<!-- Node1&#45;&gt;Node3 -->
<g id="edge2" class="edge">
<title>Node1&#45;&gt;Node3</title>
<path fill="none" stroke="midnightblue" d="M63.85,-369.15C65.8,-416.81 78.54,-565.08 161,-641 162.71,-642.57 164.52,-644.02 166.43,-645.35"/>
<polygon fill="midnightblue" stroke="midnightblue" points="164.87,-648.49 175.28,-650.48 168.38,-642.43 164.87,-648.49"/>
</g>
<!-- Node4 -->
<g id="node4" class="node">
<title>Node4</title>
<g id="a_node4"><a xlink:href="cmp__data__types_8c_a481b3b5c195ed6a0bd27658afb68e199.html#a481b3b5c195ed6a0bd27658afb68e199" target="_top" xlink:title=" ">
<polygon fill="white" stroke="black" points="190.5,-612.5 190.5,-631.5 285.5,-631.5 285.5,-612.5 190.5,-612.5"/>
<text text-anchor="middle" x="238" y="-619.5" font-family="Helvetica,sans-Serif" font-size="10.00">be_to_cpus_f_fx</text>
</a>
</g>
</g>
<!-- Node1&#45;&gt;Node4 -->
<g id="edge3" class="edge">
<title>Node1&#45;&gt;Node4</title>
<path fill="none" stroke="midnightblue" d="M64.75,-369.3C69.17,-412.91 87.96,-538.77 161,-603 166.62,-607.94 173.33,-611.63 180.41,-614.39"/>
<polygon fill="midnightblue" stroke="midnightblue" points="179.62,-617.81 190.21,-617.59 181.79,-611.16 179.62,-617.81"/>
</g>
<!-- Node5 -->
<g id="node5" class="node">
<title>Node5</title>
<g id="a_node5"><a xlink:href="cmp__data__types_8c_a6c9c6b78c008567749e667d4ef517af6.html#a6c9c6b78c008567749e667d4ef517af6" target="_top" xlink:title=" ">
<polygon fill="white" stroke="black" points="180,-574.5 180,-593.5 296,-593.5 296,-574.5 180,-574.5"/>
<text text-anchor="middle" x="238" y="-581.5" font-family="Helvetica,sans-Serif" font-size="10.00">be_to_cpus_f_fx_efx</text>
</a>
</g>
</g>
<!-- Node1&#45;&gt;Node5 -->
<g id="edge4" class="edge">
<title>Node1&#45;&gt;Node5</title>
<path fill="none" stroke="midnightblue" d="M65.93,-369.22C72.97,-408.17 97.12,-512.12 161,-565 163.95,-567.44 167.17,-569.58 170.57,-571.44"/>
<polygon fill="midnightblue" stroke="midnightblue" points="169.35,-574.74 179.9,-575.78 172.3,-568.39 169.35,-574.74"/>
</g>
<!-- Node6 -->
<g id="node6" class="node">
<title>Node6</title>
<g id="a_node6"><a xlink:href="cmp__data__types_8c_a9d11d34d069e6ba9ba8236b89402d428.html#a9d11d34d069e6ba9ba8236b89402d428" target="_top" xlink:title=" ">
<polygon fill="white" stroke="black" points="180,-525 180,-555 296,-555 296,-525 180,-525"/>
<text text-anchor="start" x="188" y="-543" font-family="Helvetica,sans-Serif" font-size="10.00">be_to_cpus_f_fx_efx</text>
<text text-anchor="middle" x="238" y="-532" font-family="Helvetica,sans-Serif" font-size="10.00">_ncob_ecob</text>
</a>
</g>
</g>
<!-- Node1&#45;&gt;Node6 -->
<g id="edge5" class="edge">
<title>Node1&#45;&gt;Node6</title>
<path fill="none" stroke="midnightblue" d="M68.62,-369.33C80.04,-401.19 110.62,-474.92 161,-515 164.09,-517.46 167.43,-519.68 170.93,-521.69"/>
<polygon fill="midnightblue" stroke="midnightblue" points="169.4,-524.83 179.9,-526.24 172.57,-518.59 169.4,-524.83"/>
</g>
<!-- Node7 -->
<g id="node7" class="node">
<title>Node7</title>
<g id="a_node7"><a xlink:href="cmp__data__types_8c_a4f82d8b8427f788ad604c14cadf18ca8.html#a4f82d8b8427f788ad604c14cadf18ca8" target="_top" xlink:title=" ">
<polygon fill="white" stroke="black" points="176,-486.5 176,-505.5 300,-505.5 300,-486.5 176,-486.5"/>
<text text-anchor="middle" x="238" y="-493.5" font-family="Helvetica,sans-Serif" font-size="10.00">be_to_cpus_f_fx_ncob</text>
</a>
</g>
</g>
<!-- Node1&#45;&gt;Node7 -->
<g id="edge6" class="edge">
<title>Node1&#45;&gt;Node7</title>
<path fill="none" stroke="midnightblue" d="M71.15,-369.13C85.2,-395.35 117.72,-449.09 161,-477 164.31,-479.14 167.85,-481.03 171.52,-482.72"/>
<polygon fill="midnightblue" stroke="midnightblue" points="170.27,-485.99 180.85,-486.48 172.88,-479.49 170.27,-485.99"/>
</g>
<!-- Node8 -->
<g id="node8" class="node">
<title>Node8</title>
<g id="a_node8"><a xlink:href="cmp__data__types_8c_ae9302203cd6ebebbf199e488d8e42039.html#ae9302203cd6ebebbf199e488d8e42039" target="_top" xlink:title=" ">
<polygon fill="white" stroke="black" points="190.5,-448.5 190.5,-467.5 285.5,-467.5 285.5,-448.5 190.5,-448.5"/>
<text text-anchor="middle" x="238" y="-455.5" font-family="Helvetica,sans-Serif" font-size="10.00">be_to_cpus_l_fx</text>
</a>
</g>
</g>
<!-- Node1&#45;&gt;Node8 -->
<g id="edge7" class="edge">
<title>Node1&#45;&gt;Node8</title>
<path fill="none" stroke="midnightblue" d="M76.44,-369.01C93.77,-388.15 126.36,-420.92 161,-439 167.08,-442.17 173.7,-444.83 180.43,-447.05"/>
<polygon fill="midnightblue" stroke="midnightblue" points="179.72,-450.5 190.31,-450.01 181.73,-443.79 179.72,-450.5"/>
</g>
<!-- Node10 -->
<g id="node10" class="node">
<title>Node10</title>
<g id="a_node10"><a xlink:href="cmp__data__types_8c_a400efed1c7b48988fba6974f6d2fc332.html#a400efed1c7b48988fba6974f6d2fc332" target="_top" xlink:title=" ">
<polygon fill="white" stroke="black" points="180,-410.5 180,-429.5 296,-429.5 296,-410.5 180,-410.5"/>
<text text-anchor="middle" x="238" y="-417.5" font-family="Helvetica,sans-Serif" font-size="10.00">be_to_cpus_l_fx_efx</text>
</a>
</g>
</g>
<!-- Node1&#45;&gt;Node10 -->
<g id="edge9" class="edge">
<title>Node1&#45;&gt;Node10</title>
<path fill="none" stroke="midnightblue" d="M91.01,-369.13C110.19,-379.21 136.61,-392.18 161,-401 167.86,-403.48 175.18,-405.76 182.47,-407.8"/>
<polygon fill="midnightblue" stroke="midnightblue" points="181.77,-411.24 192.34,-410.45 183.58,-404.48 181.77,-411.24"/>
</g>
<!-- Node11 -->
<g id="node11" class="node">
<title>Node11</title>
<g id="a_node11"><a xlink:href="cmp__data__types_8c_a20b4c948454832556538ff6335904ef5.html#a20b4c948454832556538ff6335904ef5" target="_top" xlink:title=" ">
<polygon fill="white" stroke="black" points="180,-361 180,-391 296,-391 296,-361 180,-361"/>
<text text-anchor="start" x="188" y="-379" font-family="Helvetica,sans-Serif" font-size="10.00">be_to_cpus_l_fx_efx</text>
<text text-anchor="middle" x="238" y="-368" font-family="Helvetica,sans-Serif" font-size="10.00">_ncob_ecob</text>
</a>
</g>
</g>
<!-- Node1&#45;&gt;Node11 -->
<g id="edge11" class="edge">
<title>Node1&#45;&gt;Node11</title>
<path fill="none" stroke="midnightblue" d="M125.16,-361.82C139.64,-363.65 155.14,-365.62 169.85,-367.49"/>
<polygon fill="midnightblue" stroke="midnightblue" points="169.53,-370.97 179.89,-368.76 170.41,-364.03 169.53,-370.97"/>
</g>
<!-- Node12 -->
<g id="node12" class="node">
<title>Node12</title>
<g id="a_node12"><a xlink:href="cmp__data__types_8c_a0e82f77b5e2ff7dc6d88f30feaa3048c.html#a0e82f77b5e2ff7dc6d88f30feaa3048c" target="_top" xlink:title=" ">
<polygon fill="white" stroke="black" points="176.5,-322.5 176.5,-341.5 299.5,-341.5 299.5,-322.5 176.5,-322.5"/>
<text text-anchor="middle" x="238" y="-329.5" font-family="Helvetica,sans-Serif" font-size="10.00">be_to_cpus_l_fx_ncob</text>
</a>
</g>
</g>
<!-- Node1&#45;&gt;Node12 -->
<g id="edge13" class="edge">
<title>Node1&#45;&gt;Node12</title>
<path fill="none" stroke="midnightblue" d="M125.16,-346.18C138.43,-344.5 152.56,-342.71 166.15,-340.98"/>
<polygon fill="midnightblue" stroke="midnightblue" points="166.93,-344.41 176.42,-339.68 166.05,-337.47 166.93,-344.41"/>
</g>
<!-- Node13 -->
<g id="node13" class="node">
<title>Node13</title>
<g id="a_node13"><a xlink:href="cmp__data__types_8c_a18d9e97ef0ef8d9dc4f66cb6e90d42b4.html#a18d9e97ef0ef8d9dc4f66cb6e90d42b4" target="_top" xlink:title=" ">
<polygon fill="white" stroke="black" points="186,-284.5 186,-303.5 290,-303.5 290,-284.5 186,-284.5"/>
<text text-anchor="middle" x="238" y="-291.5" font-family="Helvetica,sans-Serif" font-size="10.00">be_to_cpus_offset</text>
</a>
</g>
</g>
<!-- Node1&#45;&gt;Node13 -->
<g id="edge15" class="edge">
<title>Node1&#45;&gt;Node13</title>
<path fill="none" stroke="midnightblue" d="M95.97,-338.87C114.71,-330.52 138.87,-320.37 161,-313 168.44,-310.52 176.38,-308.2 184.23,-306.08"/>
<polygon fill="midnightblue" stroke="midnightblue" points="185.27,-309.43 194.06,-303.52 183.5,-302.65 185.27,-309.43"/>
</g>
<!-- Node14 -->
<g id="node14" class="node">
<title>Node14</title>
<g id="a_node14"><a xlink:href="cmp__data__types_8c_acb62fce2d42d1aea4985b6ef8102eeff.html#acb62fce2d42d1aea4985b6ef8102eeff" target="_top" xlink:title=" ">
<polygon fill="white" stroke="black" points="189.5,-246.5 189.5,-265.5 286.5,-265.5 286.5,-246.5 189.5,-246.5"/>
<text text-anchor="middle" x="238" y="-253.5" font-family="Helvetica,sans-Serif" font-size="10.00">be_to_cpus_s_fx</text>
</a>
</g>
</g>
<!-- Node1&#45;&gt;Node14 -->
<g id="edge16" class="edge">
<title>Node1&#45;&gt;Node14</title>
<path fill="none" stroke="midnightblue" d="M77.9,-338.84C95.74,-320.95 127.86,-291.54 161,-275 166.75,-272.13 172.97,-269.67 179.28,-267.57"/>
<polygon fill="midnightblue" stroke="midnightblue" points="180.68,-270.81 189.23,-264.56 178.65,-264.11 180.68,-270.81"/>
</g>
<!-- Node15 -->
<g id="node15" class="node">
<title>Node15</title>
<g id="a_node15"><a xlink:href="cmp__data__types_8c_a1165a849fe375d4960616f9fc137f518.html#a1165a849fe375d4960616f9fc137f518" target="_top" xlink:title=" ">
<polygon fill="white" stroke="black" points="179,-208.5 179,-227.5 297,-227.5 297,-208.5 179,-208.5"/>
<text text-anchor="middle" x="238" y="-215.5" font-family="Helvetica,sans-Serif" font-size="10.00">be_to_cpus_s_fx_efx</text>
</a>
</g>
</g>
<!-- Node1&#45;&gt;Node15 -->
<g id="edge17" class="edge">
<title>Node1&#45;&gt;Node15</title>
<path fill="none" stroke="midnightblue" d="M71.8,-338.81C86.4,-313.6 119.12,-263.29 161,-237 164.4,-234.86 168.03,-232.97 171.79,-231.29"/>
<polygon fill="midnightblue" stroke="midnightblue" points="173.31,-234.45 181.34,-227.53 170.75,-227.93 173.31,-234.45"/>
</g>
<!-- Node16 -->
<g id="node16" class="node">
<title>Node16</title>
<g id="a_node16"><a xlink:href="cmp__data__types_8c_ac3c2a554642922567918b638bad3407d.html#ac3c2a554642922567918b638bad3407d" target="_top" xlink:title=" ">
<polygon fill="white" stroke="black" points="179,-159 179,-189 297,-189 297,-159 179,-159"/>
<text text-anchor="start" x="187" y="-177" font-family="Helvetica,sans-Serif" font-size="10.00">be_to_cpus_s_fx_efx</text>
<text text-anchor="middle" x="238" y="-166" font-family="Helvetica,sans-Serif" font-size="10.00">_ncob_ecob</text>
</a>
</g>
</g>
<!-- Node1&#45;&gt;Node16 -->
<g id="edge18" class="edge">
<title>Node1&#45;&gt;Node16</title>
<path fill="none" stroke="midnightblue" d="M68.97,-338.77C80.84,-307.85 111.91,-237.38 161,-199 163.76,-196.84 166.72,-194.86 169.81,-193.05"/>
<polygon fill="midnightblue" stroke="midnightblue" points="171.54,-196.1 178.8,-188.38 168.32,-189.88 171.54,-196.1"/>
</g>
<!-- Node17 -->
<g id="node17" class="node">
<title>Node17</title>
<g id="a_node17"><a xlink:href="cmp__data__types_8c_ab3ea383ccffc6bde1cb89bf8a67d9680.html#ab3ea383ccffc6bde1cb89bf8a67d9680" target="_top" xlink:title=" ">
<polygon fill="white" stroke="black" points="175.5,-120.5 175.5,-139.5 300.5,-139.5 300.5,-120.5 175.5,-120.5"/>
<text text-anchor="middle" x="238" y="-127.5" font-family="Helvetica,sans-Serif" font-size="10.00">be_to_cpus_s_fx_ncob</text>
</a>
</g>
</g>
<!-- Node1&#45;&gt;Node17 -->
<g id="edge19" class="edge">
<title>Node1&#45;&gt;Node17</title>
<path fill="none" stroke="midnightblue" d="M66.24,-338.77C73.9,-300.76 99.15,-201.17 161,-150 163.71,-147.76 166.65,-145.76 169.73,-143.99"/>
<polygon fill="midnightblue" stroke="midnightblue" points="171.34,-147.1 178.78,-139.56 168.26,-140.82 171.34,-147.1"/>
</g>
<!-- Node18 -->
<g id="node18" class="node">
<title>Node18</title>
<g id="a_node18"><a xlink:href="cmp__data__types_8c_aea8cc68320de3ef12cafa62c01322aee.html#aea8cc68320de3ef12cafa62c01322aee" target="_top" xlink:title=" ">
<polygon fill="white" stroke="black" points="177,-82.5 177,-101.5 299,-101.5 299,-82.5 177,-82.5"/>
<text text-anchor="middle" x="238" y="-89.5" font-family="Helvetica,sans-Serif" font-size="10.00">be_to_cpus_smearing</text>
</a>
</g>
</g>
<!-- Node1&#45;&gt;Node18 -->
<g id="edge20" class="edge">
<title>Node1&#45;&gt;Node18</title>
<path fill="none" stroke="midnightblue" d="M64.91,-338.75C69.72,-295.89 89.39,-173.44 161,-111 163.21,-109.07 165.59,-107.34 168.09,-105.77"/>
<polygon fill="midnightblue" stroke="midnightblue" points="169.78,-108.83 177,-101.08 166.52,-102.64 169.78,-108.83"/>
</g>
<!-- Node19 -->
<g id="node19" class="node">
<title>Node19</title>
<g id="a_node19"><a xlink:href="cmp__data__types_8c_a8302ce6ba8de68ad01b50c592c5a2178.html#a8302ce6ba8de68ad01b50c592c5a2178" target="_top" xlink:title="calculates the number of samples for a given data size for the different compression modes">
<polygon fill="white" stroke="black" points="161,-6.5 161,-25.5 315,-25.5 315,-6.5 161,-6.5"/>
<text text-anchor="middle" x="238" y="-13.5" font-family="Helvetica,sans-Serif" font-size="10.00">cmp_input_size_to_samples</text>
</a>
</g>
</g>
<!-- Node1&#45;&gt;Node19 -->
<g id="edge21" class="edge">
<title>Node1&#45;&gt;Node19</title>
<path fill="none" stroke="midnightblue" d="M63.55,-338.76C64.55,-288.58 74.63,-126.79 161,-40 164.9,-36.08 169.44,-32.79 174.32,-30.05"/>
<polygon fill="midnightblue" stroke="midnightblue" points="175.93,-33.16 183.42,-25.66 172.89,-26.85 175.93,-33.16"/>
</g>
<!-- Node20 -->
<g id="node20" class="node">
<title>Node20</title>
<g id="a_node20"><a xlink:href="cmp__support_8c_a9197caa657b3d84615c0d323dc96c502.html#a9197caa657b3d84615c0d323dc96c502" target="_top" xlink:title="check if the data product data type is supported by the RDCU compressor">
<polygon fill="white" stroke="black" points="351,-39 351,-69 470,-69 470,-39 351,-39"/>
<text text-anchor="start" x="359" y="-57" font-family="Helvetica,sans-Serif" font-size="10.00">rdcu_supported_data</text>
<text text-anchor="middle" x="410.5" y="-46" font-family="Helvetica,sans-Serif" font-size="10.00">_type_is_used</text>
</a>
</g>
</g>
<!-- Node1&#45;&gt;Node20 -->
<g id="edge24" class="edge">
<title>Node1&#45;&gt;Node20</title>
<path fill="none" stroke="midnightblue" d="M63.45,-338.9C64.19,-290.79 73.67,-140.29 161,-73 211.55,-34.05 286.34,-33.67 340.66,-40.35"/>
<polygon fill="midnightblue" stroke="midnightblue" points="340.52,-43.86 350.89,-41.72 341.45,-36.93 340.52,-43.86"/>
</g>
<!-- Node9 -->
<g id="node9" class="node">
<title>Node9</title>
<g id="a_node9"><a xlink:href="cmp__data__types_8c_a5416891baf024a201286ed2d6644ac8c.html#a5416891baf024a201286ed2d6644ac8c" target="_top" xlink:title=" ">
<polygon fill="white" stroke="black" points="371.5,-388.5 371.5,-407.5 449.5,-407.5 449.5,-388.5 371.5,-388.5"/>
<text text-anchor="middle" x="410.5" y="-395.5" font-family="Helvetica,sans-Serif" font-size="10.00">be24_to_cpu</text>
</a>
</g>
</g>
<!-- Node8&#45;&gt;Node9 -->
<g id="edge8" class="edge">
<title>Node8&#45;&gt;Node9</title>
<path fill="none" stroke="midnightblue" d="M282.36,-448.47C293.13,-445.74 304.57,-442.54 315,-439 337.64,-431.32 362.41,-420.48 380.91,-411.87"/>
<polygon fill="midnightblue" stroke="midnightblue" points="382.41,-415.03 389.96,-407.6 379.42,-408.7 382.41,-415.03"/>
</g>
<!-- Node10&#45;&gt;Node9 -->
<g id="edge10" class="edge">
<title>Node10&#45;&gt;Node9</title>
<path fill="none" stroke="midnightblue" d="M296.25,-412.61C317.43,-409.88 341.22,-406.81 361.5,-404.19"/>
<polygon fill="midnightblue" stroke="midnightblue" points="361.98,-407.66 371.45,-402.91 361.08,-400.72 361.98,-407.66"/>
</g>
<!-- Node11&#45;&gt;Node9 -->
<g id="edge12" class="edge">
<title>Node11&#45;&gt;Node9</title>
<path fill="none" stroke="midnightblue" d="M296.25,-383.39C317.43,-386.12 341.22,-389.19 361.5,-391.81"/>
<polygon fill="midnightblue" stroke="midnightblue" points="361.08,-395.28 371.45,-393.09 361.98,-388.34 361.08,-395.28"/>
</g>
<!-- Node12&#45;&gt;Node9 -->
<g id="edge14" class="edge">
<title>Node12&#45;&gt;Node9</title>
<path fill="none" stroke="midnightblue" d="M281.27,-341.56C292.38,-344.49 304.25,-348.01 315,-352 338.89,-360.86 364.84,-373.74 383.49,-383.62"/>
<polygon fill="midnightblue" stroke="midnightblue" points="382.06,-386.83 392.53,-388.48 385.38,-380.66 382.06,-386.83"/>
</g>
<!-- Node19&#45;&gt;Node20 -->
<g id="edge22" class="edge">
<title>Node19&#45;&gt;Node20</title>
<path fill="none" stroke="midnightblue" d="M282.02,-25.59C299.83,-29.56 320.93,-34.26 340.78,-38.68"/>
<polygon fill="midnightblue" stroke="midnightblue" points="340.19,-42.14 350.71,-40.9 341.71,-35.31 340.19,-42.14"/>
</g>
<!-- Node21 -->
<g id="node21" class="node">
<title>Node21</title>
<g id="a_node21"><a xlink:href="cmp__data__types_8c_a0be8705b1dcc45f605abd8400dd5230b.html#a0be8705b1dcc45f605abd8400dd5230b" target="_top" xlink:title="calculate the size of a sample for the different compression data type">
<polygon fill="white" stroke="black" points="358.5,-0.5 358.5,-19.5 462.5,-19.5 462.5,-0.5 358.5,-0.5"/>
<text text-anchor="middle" x="410.5" y="-7.5" font-family="Helvetica,sans-Serif" font-size="10.00">size_of_a_sample</text>
</a>
</g>
</g>
<!-- Node19&#45;&gt;Node21 -->
<g id="edge23" class="edge">
<title>Node19&#45;&gt;Node21</title>
<path fill="none" stroke="midnightblue" d="M315.27,-13.32C326.29,-12.93 337.51,-12.53 348.19,-12.16"/>
<polygon fill="midnightblue" stroke="midnightblue" points="348.37,-15.65 358.24,-11.8 348.12,-8.66 348.37,-15.65"/>
</g>
</g>
</svg>
