<?xml version="1.0" encoding="UTF-8" standalone="no"?>
<!DOCTYPE svg PUBLIC "-//W3C//DTD SVG 1.1//EN"
 "http://www.w3.org/Graphics/SVG/1.1/DTD/svg11.dtd">
<!-- Generated by graphviz version 2.43.0 (0)
 -->
<!-- Title: compress_offset Pages: 1 -->
<svg width="784pt" height="349pt"
 viewBox="0.00 0.00 784.00 349.00" xmlns="http://www.w3.org/2000/svg" xmlns:xlink="http://www.w3.org/1999/xlink">
<g id="graph0" class="graph" transform="scale(1 1) rotate(0) translate(4 345)">
<title>compress_offset</title>
<polygon fill="white" stroke="transparent" points="-4,4 -4,-345 780,-345 780,4 -4,4"/>
<!-- Node1 -->
<g id="node1" class="node">
<title>Node1</title>
<g id="a_node1"><a xlink:title="compress offset data from the normal and fast cameras">
<polygon fill="#bfbfbf" stroke="black" points="0,-114.5 0,-133.5 97,-133.5 97,-114.5 0,-114.5"/>
<text text-anchor="middle" x="48.5" y="-121.5" font-family="Helvetica,sans-Serif" font-size="10.00">compress_offset</text>
</a>
</g>
</g>
<!-- Node2 -->
<g id="node2" class="node">
<title>Node2</title>
<g id="a_node2"><a xlink:href="cmp__icu_8c_a68e2952d3ee5108ed25d85c0fe15cad9.html#a68e2952d3ee5108ed25d85c0fe15cad9" target="_top" xlink:title="compress the multi&#45;entry packet header structure and sets the data, model and up_model pointers to th...">
<polygon fill="white" stroke="black" points="133,-171.5 133,-190.5 279,-190.5 279,-171.5 133,-171.5"/>
<text text-anchor="middle" x="206" y="-178.5" font-family="Helvetica,sans-Serif" font-size="10.00">compress_multi_entry_hdr</text>
</a>
</g>
</g>
<!-- Node1&#45;&gt;Node2 -->
<g id="edge1" class="edge">
<title>Node1&#45;&gt;Node2</title>
<path fill="none" stroke="midnightblue" d="M68.03,-133.53C84.7,-141.84 110.05,-153.82 133,-162 139.78,-164.42 147.02,-166.68 154.19,-168.75"/>
<polygon fill="midnightblue" stroke="midnightblue" points="153.32,-172.14 163.89,-171.43 155.19,-165.39 153.32,-172.14"/>
</g>
<!-- Node3 -->
<g id="node3" class="node">
<title>Node3</title>
<g id="a_node3"><a xlink:href="cmp__icu_8c_a5434cde7ebe64a734bcd3029e0755d39.html#a5434cde7ebe64a734bcd3029e0755d39" target="_top" xlink:title="configure an encoder setup structure to have a setup to encode a vale">
<polygon fill="white" stroke="black" points="137,-133.5 137,-152.5 275,-152.5 275,-133.5 137,-133.5"/>
<text text-anchor="middle" x="206" y="-140.5" font-family="Helvetica,sans-Serif" font-size="10.00">configure_encoder_setup</text>
</a>
</g>
</g>
<!-- Node1&#45;&gt;Node3 -->
<g id="edge2" class="edge">
<title>Node1&#45;&gt;Node3</title>
<path fill="none" stroke="midnightblue" d="M97,-129.8C106.45,-130.96 116.6,-132.2 126.76,-133.44"/>
<polygon fill="midnightblue" stroke="midnightblue" points="126.55,-136.94 136.9,-134.68 127.4,-129.99 126.55,-136.94"/>
</g>
<!-- Node18 -->
<g id="node18" class="node">
<title>Node18</title>
<g id="a_node18"><a xlink:href="cmp__icu_8c_a5268c6512d945edcdc898cd1b2ca5396.html#a5268c6512d945edcdc898cd1b2ca5396" target="_top" xlink:title="encodes the data with the model and the given setup and put it into the bitstream">
<polygon fill="white" stroke="black" points="164,-95.5 164,-114.5 248,-114.5 248,-95.5 164,-95.5"/>
<text text-anchor="middle" x="206" y="-102.5" font-family="Helvetica,sans-Serif" font-size="10.00">encode_value</text>
</a>
</g>
</g>
<!-- Node1&#45;&gt;Node18 -->
<g id="edge22" class="edge">
<title>Node1&#45;&gt;Node18</title>
<path fill="none" stroke="midnightblue" d="M97,-118.2C114.93,-116.01 135.4,-113.5 153.66,-111.27"/>
<polygon fill="midnightblue" stroke="midnightblue" points="154.33,-114.72 163.84,-110.03 153.49,-107.77 154.33,-114.72"/>
</g>
<!-- Node19 -->
<g id="node19" class="node">
<title>Node19</title>
<g id="a_node19"><a xlink:href="cmp__support_8c_afba7806c424cfb8c7678c1b4cebdfcbb.html#afba7806c424cfb8c7678c1b4cebdfcbb" target="_top" xlink:title="check if a model mode is selected">
<polygon fill="white" stroke="black" points="145,-57.5 145,-76.5 267,-76.5 267,-57.5 145,-57.5"/>
<text text-anchor="middle" x="206" y="-64.5" font-family="Helvetica,sans-Serif" font-size="10.00">model_mode_is_used</text>
</a>
</g>
</g>
<!-- Node1&#45;&gt;Node19 -->
<g id="edge23" class="edge">
<title>Node1&#45;&gt;Node19</title>
<path fill="none" stroke="midnightblue" d="M68.03,-114.47C84.7,-106.16 110.05,-94.18 133,-86 139.78,-83.58 147.02,-81.32 154.19,-79.25"/>
<polygon fill="midnightblue" stroke="midnightblue" points="155.19,-82.61 163.89,-76.57 153.32,-75.86 155.19,-82.61"/>
</g>
<!-- Node4 -->
<g id="node4" class="node">
<title>Node4</title>
<g id="a_node4"><a xlink:href="cmp__icu_8c_a24f7f725d312368abff72e12ba0380c7.html#a24f7f725d312368abff72e12ba0380c7" target="_top" xlink:title="calculate the maximum length of the bitstream/icu_output_buf in bits">
<polygon fill="white" stroke="black" points="315,-294.5 315,-313.5 461,-313.5 461,-294.5 315,-294.5"/>
<text text-anchor="middle" x="388" y="-301.5" font-family="Helvetica,sans-Serif" font-size="10.00">cmp_buffer_length_to_bits</text>
</a>
</g>
</g>
<!-- Node3&#45;&gt;Node4 -->
<g id="edge3" class="edge">
<title>Node3&#45;&gt;Node4</title>
<path fill="none" stroke="midnightblue" d="M265.18,-152.66C270.23,-155.13 274.95,-158.19 279,-162 316.16,-196.96 280.98,-232.98 315,-271 322.44,-279.32 332.4,-285.68 342.53,-290.48"/>
<polygon fill="midnightblue" stroke="midnightblue" points="341.25,-293.74 351.82,-294.47 344.02,-287.31 341.25,-293.74"/>
</g>
<!-- Node8 -->
<g id="node8" class="node">
<title>Node8</title>
<g id="a_node8"><a xlink:href="cmp__icu_8c_aaea9e8cb11d380bb6a6c11020a7c77f9.html#aaea9e8cb11d380bb6a6c11020a7c77f9" target="_top" xlink:title="subtract the model from the data, encode the result and put it into bitstream, for encoding outlier u...">
<polygon fill="white" stroke="black" points="330.5,-152.5 330.5,-171.5 445.5,-171.5 445.5,-152.5 330.5,-152.5"/>
<text text-anchor="middle" x="388" y="-159.5" font-family="Helvetica,sans-Serif" font-size="10.00">encode_value_multi</text>
</a>
</g>
</g>
<!-- Node3&#45;&gt;Node8 -->
<g id="edge7" class="edge">
<title>Node3&#45;&gt;Node8</title>
<path fill="none" stroke="midnightblue" d="M275.05,-150.18C289.85,-151.75 305.5,-153.4 320.25,-154.95"/>
<polygon fill="midnightblue" stroke="midnightblue" points="319.99,-158.45 330.3,-156.01 320.72,-151.48 319.99,-158.45"/>
</g>
<!-- Node12 -->
<g id="node12" class="node">
<title>Node12</title>
<g id="a_node12"><a xlink:href="cmp__icu_8c_aa3eee2af4deb902d63df587a6a15af13.html#aa3eee2af4deb902d63df587a6a15af13" target="_top" xlink:title="put the value unencoded with setup&#45;&gt;cmp_par_1 bits without any changes in the bitstream">
<polygon fill="white" stroke="black" points="502.5,-261.5 502.5,-280.5 615.5,-280.5 615.5,-261.5 502.5,-261.5"/>
<text text-anchor="middle" x="559" y="-268.5" font-family="Helvetica,sans-Serif" font-size="10.00">encode_value_none</text>
</a>
</g>
</g>
<!-- Node3&#45;&gt;Node12 -->
<g id="edge12" class="edge">
<title>Node3&#45;&gt;Node12</title>
<path fill="none" stroke="midnightblue" d="M261.34,-152.54C267.63,-155 273.68,-158.1 279,-162 303.16,-179.72 290.43,-201.86 315,-219 367.16,-255.39 439.83,-267.11 492.09,-270.51"/>
<polygon fill="midnightblue" stroke="midnightblue" points="492.08,-274.02 502.26,-271.08 492.47,-267.03 492.08,-274.02"/>
</g>
<!-- Node13 -->
<g id="node13" class="node">
<title>Node13</title>
<g id="a_node13"><a xlink:href="cmp__icu_8c_a441be2f84e386657cc72dc61b7769ff1.html#a441be2f84e386657cc72dc61b7769ff1" target="_top" xlink:title="subtract the model from the data, encode the result and put it into bitstream, for encoding outlier u...">
<polygon fill="white" stroke="black" points="333,-190.5 333,-209.5 443,-209.5 443,-190.5 333,-190.5"/>
<text text-anchor="middle" x="388" y="-197.5" font-family="Helvetica,sans-Serif" font-size="10.00">encode_value_zero</text>
</a>
</g>
</g>
<!-- Node3&#45;&gt;Node13 -->
<g id="edge14" class="edge">
<title>Node3&#45;&gt;Node13</title>
<path fill="none" stroke="midnightblue" d="M249.77,-152.57C259.52,-155.22 269.73,-158.38 279,-162 295.86,-168.57 298.14,-174.43 315,-181 321.23,-183.43 327.88,-185.65 334.53,-187.66"/>
<polygon fill="midnightblue" stroke="midnightblue" points="333.65,-191.04 344.23,-190.43 335.57,-184.31 333.65,-191.04"/>
</g>
<!-- Node14 -->
<g id="node14" class="node">
<title>Node14</title>
<g id="a_node14"><a xlink:href="cmp__icu_8c_ad1becd97051927d20474767867ce34a7.html#ad1becd97051927d20474767867ce34a7" target="_top" xlink:title="forms a codeword according to the Golomb code">
<polygon fill="white" stroke="black" points="339,-114.5 339,-133.5 437,-133.5 437,-114.5 339,-114.5"/>
<text text-anchor="middle" x="388" y="-121.5" font-family="Helvetica,sans-Serif" font-size="10.00">golomb_encoder</text>
</a>
</g>
</g>
<!-- Node3&#45;&gt;Node14 -->
<g id="edge18" class="edge">
<title>Node3&#45;&gt;Node14</title>
<path fill="none" stroke="midnightblue" d="M275.05,-135.82C292.61,-133.96 311.36,-131.98 328.39,-130.19"/>
<polygon fill="midnightblue" stroke="midnightblue" points="329.17,-133.62 338.75,-129.09 328.44,-126.66 329.17,-133.62"/>
</g>
<!-- Node15 -->
<g id="node15" class="node">
<title>Node15</title>
<g id="a_node15"><a xlink:href="cmp__support_8c_a67b0e38ca0e68c282c89552daa61ffdf.html#a67b0e38ca0e68c282c89552daa61ffdf" target="_top" xlink:title="implementation of the logarithm base of floor(log2(x)) for integers">
<polygon fill="white" stroke="black" points="365,-76.5 365,-95.5 411,-95.5 411,-76.5 365,-76.5"/>
<text text-anchor="middle" x="388" y="-83.5" font-family="Helvetica,sans-Serif" font-size="10.00">ilog_2</text>
</a>
</g>
</g>
<!-- Node3&#45;&gt;Node15 -->
<g id="edge19" class="edge">
<title>Node3&#45;&gt;Node15</title>
<path fill="none" stroke="midnightblue" d="M249.77,-133.43C259.52,-130.78 269.73,-127.62 279,-124 295.86,-117.43 298.14,-111.57 315,-105 327.7,-100.05 342.16,-95.95 354.77,-92.84"/>
<polygon fill="midnightblue" stroke="midnightblue" points="355.92,-96.17 364.85,-90.47 354.31,-89.36 355.92,-96.17"/>
</g>
<!-- Node16 -->
<g id="node16" class="node">
<title>Node16</title>
<g id="a_node16"><a xlink:href="cmp__support_8c_a7831f21f8303058bcac76d42a4aa1c06.html#a7831f21f8303058bcac76d42a4aa1c06" target="_top" xlink:title="determining if an integer is a power of 2">
<polygon fill="white" stroke="black" points="344,-38.5 344,-57.5 432,-57.5 432,-38.5 344,-38.5"/>
<text text-anchor="middle" x="388" y="-45.5" font-family="Helvetica,sans-Serif" font-size="10.00">is_a_pow_of_2</text>
</a>
</g>
</g>
<!-- Node3&#45;&gt;Node16 -->
<g id="edge20" class="edge">
<title>Node3&#45;&gt;Node16</title>
<path fill="none" stroke="midnightblue" d="M261.34,-133.46C267.63,-131 273.68,-127.9 279,-124 303.16,-106.28 290.84,-84.72 315,-67 320.67,-62.84 327.19,-59.59 333.93,-57.05"/>
<polygon fill="midnightblue" stroke="midnightblue" points="335.47,-60.23 343.9,-53.82 333.31,-53.57 335.47,-60.23"/>
</g>
<!-- Node17 -->
<g id="node17" class="node">
<title>Node17</title>
<g id="a_node17"><a xlink:href="cmp__icu_8c_ad3bc9d18c24f7caeef7da35b9e389c19.html#ad3bc9d18c24f7caeef7da35b9e389c19" target="_top" xlink:title="forms the codeword according to the Rice code">
<polygon fill="white" stroke="black" points="348.5,-0.5 348.5,-19.5 427.5,-19.5 427.5,-0.5 348.5,-0.5"/>
<text text-anchor="middle" x="388" y="-7.5" font-family="Helvetica,sans-Serif" font-size="10.00">rice_encoder</text>
</a>
</g>
</g>
<!-- Node3&#45;&gt;Node17 -->
<g id="edge21" class="edge">
<title>Node3&#45;&gt;Node17</title>
<path fill="none" stroke="midnightblue" d="M264.3,-133.49C269.65,-131.01 274.68,-127.89 279,-124 312.55,-93.78 281.45,-59.22 315,-29 321.63,-23.03 329.92,-18.89 338.49,-16.04"/>
<polygon fill="midnightblue" stroke="midnightblue" points="339.52,-19.39 348.21,-13.34 337.64,-12.65 339.52,-19.39"/>
</g>
<!-- Node5 -->
<g id="node5" class="node">
<title>Node5</title>
<g id="a_node5"><a xlink:href="cmp__data__types_8c_aafa65f72ed4d0fb99beb11c37f11ce52.html#aafa65f72ed4d0fb99beb11c37f11ce52" target="_top" xlink:title="calculate the need bytes for the data">
<polygon fill="white" stroke="black" points="497,-299.5 497,-318.5 621,-318.5 621,-299.5 497,-299.5"/>
<text text-anchor="middle" x="559" y="-306.5" font-family="Helvetica,sans-Serif" font-size="10.00">cmp_cal_size_of_data</text>
</a>
</g>
</g>
<!-- Node4&#45;&gt;Node5 -->
<g id="edge4" class="edge">
<title>Node4&#45;&gt;Node5</title>
<path fill="none" stroke="midnightblue" d="M461.16,-306.13C469.64,-306.39 478.3,-306.64 486.77,-306.89"/>
<polygon fill="midnightblue" stroke="midnightblue" points="486.89,-310.4 496.98,-307.19 487.09,-303.4 486.89,-310.4"/>
</g>
<!-- Node6 -->
<g id="node6" class="node">
<title>Node6</title>
<g id="a_node6"><a xlink:href="cmp__support_8c_a9197caa657b3d84615c0d323dc96c502.html#a9197caa657b3d84615c0d323dc96c502" target="_top" xlink:title="check if the data product data type is supported by the RDCU compressor">
<polygon fill="white" stroke="black" points="657,-272 657,-302 776,-302 776,-272 657,-272"/>
<text text-anchor="start" x="665" y="-290" font-family="Helvetica,sans-Serif" font-size="10.00">rdcu_supported_data</text>
<text text-anchor="middle" x="716.5" y="-279" font-family="Helvetica,sans-Serif" font-size="10.00">_type_is_used</text>
</a>
</g>
</g>
<!-- Node5&#45;&gt;Node6 -->
<g id="edge5" class="edge">
<title>Node5&#45;&gt;Node6</title>
<path fill="none" stroke="midnightblue" d="M621.01,-300.37C629.51,-299.17 638.29,-297.92 646.92,-296.7"/>
<polygon fill="midnightblue" stroke="midnightblue" points="647.54,-300.15 656.95,-295.28 646.56,-293.22 647.54,-300.15"/>
</g>
<!-- Node7 -->
<g id="node7" class="node">
<title>Node7</title>
<g id="a_node7"><a xlink:href="cmp__data__types_8c_a0be8705b1dcc45f605abd8400dd5230b.html#a0be8705b1dcc45f605abd8400dd5230b" target="_top" xlink:title="calculate the size of a sample for the different compression data type">
<polygon fill="white" stroke="black" points="664.5,-321.5 664.5,-340.5 768.5,-340.5 768.5,-321.5 664.5,-321.5"/>
<text text-anchor="middle" x="716.5" y="-328.5" font-family="Helvetica,sans-Serif" font-size="10.00">size_of_a_sample</text>
</a>
</g>
</g>
<!-- Node5&#45;&gt;Node7 -->
<g id="edge6" class="edge">
<title>Node5&#45;&gt;Node7</title>
<path fill="none" stroke="midnightblue" d="M621.01,-317.63C631.84,-319.16 643.13,-320.76 653.98,-322.3"/>
<polygon fill="midnightblue" stroke="midnightblue" points="653.82,-325.81 664.21,-323.74 654.8,-318.88 653.82,-325.81"/>
</g>
<!-- Node9 -->
<g id="node9" class="node">
<title>Node9</title>
<g id="a_node9"><a xlink:href="cmp__icu_8c_a71aaf149c528b68d0c0ffc159acc0f98.html#a71aaf149c528b68d0c0ffc159acc0f98" target="_top" xlink:title="generate a code word without an outlier mechanism and put in the bitstream">
<polygon fill="white" stroke="black" points="513,-147.5 513,-166.5 605,-166.5 605,-147.5 513,-147.5"/>
<text text-anchor="middle" x="559" y="-154.5" font-family="Helvetica,sans-Serif" font-size="10.00">encode_normal</text>
</a>
</g>
</g>
<!-- Node8&#45;&gt;Node9 -->
<g id="edge8" class="edge">
<title>Node8&#45;&gt;Node9</title>
<path fill="none" stroke="midnightblue" d="M445.74,-160.32C464.11,-159.78 484.43,-159.18 502.69,-158.64"/>
<polygon fill="midnightblue" stroke="midnightblue" points="502.99,-162.13 512.88,-158.33 502.78,-155.13 502.99,-162.13"/>
</g>
<!-- Node10 -->
<g id="node10" class="node">
<title>Node10</title>
<g id="a_node10"><a xlink:href="cmp__icu_8c_afd32ccddf2e0986e9ff136ae55a11d35.html#afd32ccddf2e0986e9ff136ae55a11d35" target="_top" xlink:title="put the value of up to 32 bits into a big endian bitstream">
<polygon fill="white" stroke="black" points="677,-201.5 677,-220.5 756,-220.5 756,-201.5 677,-201.5"/>
<text text-anchor="middle" x="716.5" y="-208.5" font-family="Helvetica,sans-Serif" font-size="10.00">put_n_bits32</text>
</a>
</g>
</g>
<!-- Node8&#45;&gt;Node10 -->
<g id="edge11" class="edge">
<title>Node8&#45;&gt;Node10</title>
<path fill="none" stroke="midnightblue" d="M423.21,-152.39C444.29,-146.97 471.99,-140.75 497,-138 551.78,-131.99 568.84,-120.2 621,-138 653.33,-149.03 683.19,-176.1 700.37,-194"/>
<polygon fill="midnightblue" stroke="midnightblue" points="697.95,-196.54 707.33,-201.48 703.08,-191.78 697.95,-196.54"/>
</g>
<!-- Node11 -->
<g id="node11" class="node">
<title>Node11</title>
<g id="a_node11"><a xlink:href="cmp__icu_8c_a208c98e6a4b7423d5003ea0d1c3a4fe3.html#a208c98e6a4b7423d5003ea0d1c3a4fe3" target="_top" xlink:title="map a signed value into a positive value range">
<polygon fill="white" stroke="black" points="521,-185.5 521,-204.5 597,-204.5 597,-185.5 521,-185.5"/>
<text text-anchor="middle" x="559" y="-192.5" font-family="Helvetica,sans-Serif" font-size="10.00">map_to_pos</text>
</a>
</g>
</g>
<!-- Node8&#45;&gt;Node11 -->
<g id="edge10" class="edge">
<title>Node8&#45;&gt;Node11</title>
<path fill="none" stroke="midnightblue" d="M437.88,-171.54C460.79,-176.02 487.98,-181.33 510.69,-185.76"/>
<polygon fill="midnightblue" stroke="midnightblue" points="510.29,-189.25 520.77,-187.73 511.63,-182.38 510.29,-189.25"/>
</g>
<!-- Node9&#45;&gt;Node10 -->
<g id="edge9" class="edge">
<title>Node9&#45;&gt;Node10</title>
<path fill="none" stroke="midnightblue" d="M591.76,-166.55C601.21,-169.48 611.55,-172.78 621,-176 641.12,-182.85 663.43,-191.09 681.32,-197.84"/>
<polygon fill="midnightblue" stroke="midnightblue" points="680.17,-201.15 690.76,-201.43 682.65,-194.61 680.17,-201.15"/>
</g>
<!-- Node12&#45;&gt;Node10 -->
<g id="edge13" class="edge">
<title>Node12&#45;&gt;Node10</title>
<path fill="none" stroke="midnightblue" d="M584.64,-261.49C610.72,-251.43 652.08,-235.47 681.31,-224.19"/>
<polygon fill="midnightblue" stroke="midnightblue" points="682.65,-227.43 690.72,-220.56 680.13,-220.9 682.65,-227.43"/>
</g>
<!-- Node13&#45;&gt;Node9 -->
<g id="edge15" class="edge">
<title>Node13&#45;&gt;Node9</title>
<path fill="none" stroke="midnightblue" d="M426.51,-190.46C451.34,-184.14 484.11,-175.8 510.73,-169.03"/>
<polygon fill="midnightblue" stroke="midnightblue" points="511.77,-172.37 520.6,-166.52 510.04,-165.59 511.77,-172.37"/>
</g>
<!-- Node13&#45;&gt;Node10 -->
<g id="edge17" class="edge">
<title>Node13&#45;&gt;Node10</title>
<path fill="none" stroke="midnightblue" d="M443.26,-208.42C460.4,-210.71 479.45,-212.87 497,-214 552,-217.55 565.9,-214.87 621,-214 635.79,-213.77 651.88,-213.32 666.52,-212.85"/>
<polygon fill="midnightblue" stroke="midnightblue" points="667.01,-216.34 676.89,-212.5 666.77,-209.34 667.01,-216.34"/>
</g>
<!-- Node13&#45;&gt;Node11 -->
<g id="edge16" class="edge">
<title>Node13&#45;&gt;Node11</title>
<path fill="none" stroke="midnightblue" d="M443.4,-198.39C465.03,-197.75 489.68,-197.02 510.57,-196.4"/>
<polygon fill="midnightblue" stroke="midnightblue" points="510.91,-199.89 520.8,-196.1 510.7,-192.9 510.91,-199.89"/>
</g>
</g>
</svg>
