<?xml version="1.0" encoding="UTF-8" standalone="no"?>
<!DOCTYPE svg PUBLIC "-//W3C//DTD SVG 1.1//EN"
 "http://www.w3.org/Graphics/SVG/1.1/DTD/svg11.dtd">
<!-- Generated by graphviz version 2.43.0 (0)
 -->
<!-- Title: cmp_ent_get_max_used_bits_version Pages: 1 -->
<svg width="901pt" height="380pt"
 viewBox="0.00 0.00 901.00 379.50" xmlns="http://www.w3.org/2000/svg" xmlns:xlink="http://www.w3.org/1999/xlink">
<g id="graph0" class="graph" transform="scale(1 1) rotate(0) translate(4 375.5)">
<title>cmp_ent_get_max_used_bits_version</title>
<polygon fill="white" stroke="transparent" points="-4,4 -4,-375.5 897,-375.5 897,4 -4,4"/>
<!-- Node1 -->
<g id="node1" class="node">
<title>Node1</title>
<g id="a_node1"><a xlink:title="get the version identifier for the maximum used bits registry from the compression entity header">
<polygon fill="#bfbfbf" stroke="black" points="758,-131.5 758,-161.5 893,-161.5 893,-131.5 758,-131.5"/>
<text text-anchor="start" x="766" y="-149.5" font-family="Helvetica,sans-Serif" font-size="10.00">cmp_ent_get_max_used</text>
<text text-anchor="middle" x="825.5" y="-138.5" font-family="Helvetica,sans-Serif" font-size="10.00">_bits_version</text>
</a>
</g>
</g>
<!-- Node2 -->
<g id="node2" class="node">
<title>Node2</title>
<g id="a_node2"><a xlink:href="cmp__entity_8c_a2437ba690b73b4c212cd7962819b24ce.html#a2437ba690b73b4c212cd7962819b24ce" target="_top" xlink:title="parses the generic compressed entity header">
<polygon fill="white" stroke="black" points="588.5,-289.5 588.5,-319.5 720.5,-319.5 720.5,-289.5 588.5,-289.5"/>
<text text-anchor="start" x="596.5" y="-307.5" font-family="Helvetica,sans-Serif" font-size="10.00">cmp_ent_parse_generic</text>
<text text-anchor="middle" x="654.5" y="-296.5" font-family="Helvetica,sans-Serif" font-size="10.00">_header</text>
</a>
</g>
</g>
<!-- Node1&#45;&gt;Node2 -->
<g id="edge1" class="edge">
<title>Node1&#45;&gt;Node2</title>
<path fill="none" stroke="midnightblue" d="M800.92,-168.55C766.05,-201.14 701.65,-261.35 671.66,-289.4"/>
<polygon fill="midnightblue" stroke="midnightblue" points="803.38,-171.04 808.3,-161.65 798.6,-165.92 803.38,-171.04"/>
</g>
<!-- Node5 -->
<g id="node5" class="node">
<title>Node5</title>
<g id="a_node5"><a xlink:href="decmp_8c_a74bca2e933b64c4e4738700db181be76.html#a74bca2e933b64c4e4738700db181be76" target="_top" xlink:title="read in an imagette compression entity header to a compression configuration">
<polygon fill="white" stroke="black" points="592,-213 592,-232 717,-232 717,-213 592,-213"/>
<text text-anchor="middle" x="654.5" y="-220" font-family="Helvetica,sans-Serif" font-size="10.00">cmp_ent_read_header</text>
</a>
</g>
</g>
<!-- Node1&#45;&gt;Node5 -->
<g id="edge4" class="edge">
<title>Node1&#45;&gt;Node5</title>
<path fill="none" stroke="midnightblue" d="M788.03,-166.38C768.69,-176.57 744.35,-188.84 722,-198.5 709.83,-203.76 696.09,-208.85 684.28,-212.98"/>
<polygon fill="midnightblue" stroke="midnightblue" points="789.91,-169.35 797.1,-161.56 786.63,-163.17 789.91,-169.35"/>
</g>
<!-- Node14 -->
<g id="node14" class="node">
<title>Node14</title>
<g id="a_node14"><a xlink:href="test__decmp_8c_a27e5a2b67e3e81da1be024826485b2e3.html#a27e5a2b67e3e81da1be024826485b2e3" target="_top" xlink:title=" ">
<polygon fill="white" stroke="black" points="420,-158.5 420,-188.5 533,-188.5 533,-158.5 420,-158.5"/>
<text text-anchor="start" x="428" y="-176.5" font-family="Helvetica,sans-Serif" font-size="10.00">test_cmp_ent_write</text>
<text text-anchor="middle" x="476.5" y="-165.5" font-family="Helvetica,sans-Serif" font-size="10.00">_cmp_pars</text>
</a>
</g>
</g>
<!-- Node1&#45;&gt;Node14 -->
<g id="edge16" class="edge">
<title>Node1&#45;&gt;Node14</title>
<path fill="none" stroke="midnightblue" d="M748.13,-161.96C739.35,-163.35 730.5,-164.58 722,-165.5 657.4,-172.5 582.68,-173.99 533.02,-174.06"/>
<polygon fill="midnightblue" stroke="midnightblue" points="748.7,-165.41 758,-160.33 747.56,-158.51 748.7,-165.41"/>
</g>
<!-- Node15 -->
<g id="node15" class="node">
<title>Node15</title>
<g id="a_node15"><a xlink:href="test__cmp__entity_8c_a13c81359af8798146608574ab0e113fb.html#a13c81359af8798146608574ab0e113fb" target="_top" xlink:title=" ">
<polygon fill="white" stroke="black" points="598.5,-137 598.5,-156 710.5,-156 710.5,-137 598.5,-137"/>
<text text-anchor="middle" x="654.5" y="-144" font-family="Helvetica,sans-Serif" font-size="10.00">test_cmp_ent_build</text>
</a>
</g>
</g>
<!-- Node1&#45;&gt;Node15 -->
<g id="edge14" class="edge">
<title>Node1&#45;&gt;Node15</title>
<path fill="none" stroke="midnightblue" d="M747.38,-146.5C734.99,-146.5 722.39,-146.5 710.66,-146.5"/>
<polygon fill="midnightblue" stroke="midnightblue" points="747.71,-150 757.71,-146.5 747.71,-143 747.71,-150"/>
</g>
<!-- Node16 -->
<g id="node16" class="node">
<title>Node16</title>
<g id="a_node16"><a xlink:href="test__cmp__entity_8c_a991729c77482729377539ccc0c96f4b7.html#a991729c77482729377539ccc0c96f4b7" target="_top" xlink:title=" ">
<polygon fill="white" stroke="black" points="595,-99 595,-118 714,-118 714,-99 595,-99"/>
<text text-anchor="middle" x="654.5" y="-106" font-family="Helvetica,sans-Serif" font-size="10.00">test_cmp_ent_create</text>
</a>
</g>
</g>
<!-- Node1&#45;&gt;Node16 -->
<g id="edge15" class="edge">
<title>Node1&#45;&gt;Node16</title>
<path fill="none" stroke="midnightblue" d="M747.72,-129.23C730.63,-125.39 713.11,-121.45 698,-118.06"/>
<polygon fill="midnightblue" stroke="midnightblue" points="747.18,-132.7 757.71,-131.48 748.72,-125.87 747.18,-132.7"/>
</g>
<!-- Node17 -->
<g id="node17" class="node">
<title>Node17</title>
<g id="a_node17"><a xlink:href="test__cmp__entity_8c_a8f7fd6d8b939382555507ecf2e74ec79.html#a8f7fd6d8b939382555507ecf2e74ec79" target="_top" xlink:title=" ">
<polygon fill="white" stroke="black" points="598,-49.5 598,-79.5 711,-79.5 711,-49.5 598,-49.5"/>
<text text-anchor="start" x="606" y="-67.5" font-family="Helvetica,sans-Serif" font-size="10.00">test_cmp_ent_write</text>
<text text-anchor="middle" x="654.5" y="-56.5" font-family="Helvetica,sans-Serif" font-size="10.00">_rdcu_cmp_pars</text>
</a>
</g>
</g>
<!-- Node1&#45;&gt;Node17 -->
<g id="edge17" class="edge">
<title>Node1&#45;&gt;Node17</title>
<path fill="none" stroke="midnightblue" d="M791.15,-126.3C771.41,-114.78 745.71,-100.48 722,-89.5 714.5,-86.03 706.37,-82.66 698.46,-79.58"/>
<polygon fill="midnightblue" stroke="midnightblue" points="789.37,-129.32 799.77,-131.38 792.93,-123.29 789.37,-129.32"/>
</g>
<!-- Node18 -->
<g id="node18" class="node">
<title>Node18</title>
<g id="a_node18"><a xlink:href="test__cmp__entity_8c_a8661a0f0f2e5ba76ca830b3ce98433de.html#a8661a0f0f2e5ba76ca830b3ce98433de" target="_top" xlink:title=" ">
<polygon fill="white" stroke="black" points="587,-0.5 587,-30.5 722,-30.5 722,-0.5 587,-0.5"/>
<text text-anchor="start" x="595" y="-18.5" font-family="Helvetica,sans-Serif" font-size="10.00">test_ent_max_used_bits</text>
<text text-anchor="middle" x="654.5" y="-7.5" font-family="Helvetica,sans-Serif" font-size="10.00">_version</text>
</a>
</g>
</g>
<!-- Node1&#45;&gt;Node18 -->
<g id="edge18" class="edge">
<title>Node1&#45;&gt;Node18</title>
<path fill="none" stroke="midnightblue" d="M807.35,-123.05C788.74,-99.08 756.96,-62.23 722,-39.5 716.86,-36.15 711.18,-33.2 705.39,-30.61"/>
<polygon fill="midnightblue" stroke="midnightblue" points="804.75,-125.41 813.6,-131.25 810.32,-121.17 804.75,-125.41"/>
</g>
<!-- Node3 -->
<g id="node3" class="node">
<title>Node3</title>
<g id="a_node3"><a xlink:href="cmp__entity_8c_a1f4478c4d9938fa6f5631e88298ed816.html#a1f4478c4d9938fa6f5631e88298ed816" target="_top" xlink:title="parse the compressed entity header">
<polygon fill="white" stroke="black" points="431,-333 431,-352 522,-352 522,-333 431,-333"/>
<text text-anchor="middle" x="476.5" y="-340" font-family="Helvetica,sans-Serif" font-size="10.00">cmp_ent_parse</text>
</a>
</g>
</g>
<!-- Node2&#45;&gt;Node3 -->
<g id="edge2" class="edge">
<title>Node2&#45;&gt;Node3</title>
<path fill="none" stroke="midnightblue" d="M578.45,-320.7C559.1,-324.88 538.91,-329.24 521.71,-332.96"/>
<polygon fill="midnightblue" stroke="midnightblue" points="579.43,-324.07 588.46,-318.54 577.95,-317.23 579.43,-324.07"/>
</g>
<!-- Node4 -->
<g id="node4" class="node">
<title>Node4</title>
<g id="a_node4"><a xlink:href="test__cmp__entity_8c_a893444224bcd50fbb99e42e85989b4a6.html#a893444224bcd50fbb99e42e85989b4a6" target="_top" xlink:title=" ">
<polygon fill="white" stroke="black" points="216.5,-352 216.5,-371 331.5,-371 331.5,-352 216.5,-352"/>
<text text-anchor="middle" x="274" y="-359" font-family="Helvetica,sans-Serif" font-size="10.00">test_cmp_ent_parse</text>
</a>
</g>
</g>
<!-- Node3&#45;&gt;Node4 -->
<g id="edge3" class="edge">
<title>Node3&#45;&gt;Node4</title>
<path fill="none" stroke="midnightblue" d="M420.5,-347.71C392.95,-350.32 359.63,-353.48 331.83,-356.11"/>
<polygon fill="midnightblue" stroke="midnightblue" points="421.13,-351.17 430.75,-346.74 420.47,-344.2 421.13,-351.17"/>
</g>
<!-- Node6 -->
<g id="node6" class="node">
<title>Node6</title>
<g id="a_node6"><a xlink:href="decmp_8h_aefe0fa39fdc295432f5e2e0f91f0b87f.html#aefe0fa39fdc295432f5e2e0f91f0b87f" target="_top" xlink:title="decompress a compression entity">
<polygon fill="white" stroke="black" points="410.5,-257 410.5,-276 542.5,-276 542.5,-257 410.5,-257"/>
<text text-anchor="middle" x="476.5" y="-264" font-family="Helvetica,sans-Serif" font-size="10.00">decompress_cmp_entiy</text>
</a>
</g>
</g>
<!-- Node5&#45;&gt;Node6 -->
<g id="edge5" class="edge">
<title>Node5&#45;&gt;Node6</title>
<path fill="none" stroke="midnightblue" d="M605.25,-234.56C577.03,-241.62 541.89,-250.4 515.61,-256.97"/>
<polygon fill="midnightblue" stroke="midnightblue" points="606.46,-237.87 615.31,-232.05 604.76,-231.08 606.46,-237.87"/>
</g>
<!-- Node13 -->
<g id="node13" class="node">
<title>Node13</title>
<g id="a_node13"><a xlink:href="test__decmp_8c_a83b6283115165bfb92bf9008dcbdc41d.html#a83b6283115165bfb92bf9008dcbdc41d" target="_top" xlink:title=" ">
<polygon fill="white" stroke="black" points="402,-207.5 402,-237.5 551,-237.5 551,-207.5 402,-207.5"/>
<text text-anchor="start" x="410" y="-225.5" font-family="Helvetica,sans-Serif" font-size="10.00">test_cmp_ent_read_header</text>
<text text-anchor="middle" x="476.5" y="-214.5" font-family="Helvetica,sans-Serif" font-size="10.00">_error_cases</text>
</a>
</g>
</g>
<!-- Node5&#45;&gt;Node13 -->
<g id="edge12" class="edge">
<title>Node5&#45;&gt;Node13</title>
<path fill="none" stroke="midnightblue" d="M581.91,-222.5C571.76,-222.5 561.31,-222.5 551.12,-222.5"/>
<polygon fill="midnightblue" stroke="midnightblue" points="581.94,-226 591.94,-222.5 581.94,-219 581.94,-226"/>
</g>
<!-- Node5&#45;&gt;Node14 -->
<g id="edge13" class="edge">
<title>Node5&#45;&gt;Node14</title>
<path fill="none" stroke="midnightblue" d="M609.4,-210.22C585.78,-203.65 556.49,-195.49 531.51,-188.54"/>
<polygon fill="midnightblue" stroke="midnightblue" points="608.58,-213.63 619.15,-212.94 610.45,-206.88 608.58,-213.63"/>
</g>
<!-- Node7 -->
<g id="node7" class="node">
<title>Node7</title>
<g id="a_node7"><a xlink:href="test__cmp__decmp_8c_a50ba26014079160ca77b7d7fa76ce0f4.html#a50ba26014079160ca77b7d7fa76ce0f4" target="_top" xlink:title="compress the given configuration and decompress it afterwards; finally compare the results">
<polygon fill="white" stroke="black" points="195,-314 195,-333 353,-333 353,-314 195,-314"/>
<text text-anchor="middle" x="274" y="-321" font-family="Helvetica,sans-Serif" font-size="10.00">compression_decompression</text>
</a>
</g>
</g>
<!-- Node6&#45;&gt;Node7 -->
<g id="edge6" class="edge">
<title>Node6&#45;&gt;Node7</title>
<path fill="none" stroke="midnightblue" d="M441.37,-279.61C419.95,-287.52 391.62,-297.41 366,-304.5 353.24,-308.03 339.32,-311.25 326.29,-313.99"/>
<polygon fill="midnightblue" stroke="midnightblue" points="442.85,-282.79 451,-276.02 440.4,-276.24 442.85,-282.79"/>
</g>
<!-- Node9 -->
<g id="node9" class="node">
<title>Node9</title>
<g id="a_node9"><a xlink:href="test__decmp_8c_a6e7a5e150e2c829836db3c42cdec2eec.html#a6e7a5e150e2c829836db3c42cdec2eec" target="_top" xlink:title=" ">
<polygon fill="white" stroke="black" points="182,-276 182,-295 366,-295 366,-276 182,-276"/>
<text text-anchor="middle" x="274" y="-283" font-family="Helvetica,sans-Serif" font-size="10.00">test_cmp_decmp_n_imagette_raw</text>
</a>
</g>
</g>
<!-- Node6&#45;&gt;Node9 -->
<g id="edge8" class="edge">
<title>Node6&#45;&gt;Node9</title>
<path fill="none" stroke="midnightblue" d="M400.36,-273.62C389.27,-274.67 377.74,-275.76 366.36,-276.84"/>
<polygon fill="midnightblue" stroke="midnightblue" points="400.78,-277.1 410.4,-272.67 400.12,-270.13 400.78,-277.1"/>
</g>
<!-- Node10 -->
<g id="node10" class="node">
<title>Node10</title>
<g id="a_node10"><a xlink:href="test__decmp_8c_a1a33e2fcbf484c79dfe661b280386f6b.html#a1a33e2fcbf484c79dfe661b280386f6b" target="_top" xlink:title=" ">
<polygon fill="white" stroke="black" points="201,-238 201,-257 347,-257 347,-238 201,-238"/>
<text text-anchor="middle" x="274" y="-245" font-family="Helvetica,sans-Serif" font-size="10.00">test_cmp_decmp_s_fx_diff</text>
</a>
</g>
</g>
<!-- Node6&#45;&gt;Node10 -->
<g id="edge9" class="edge">
<title>Node6&#45;&gt;Node10</title>
<path fill="none" stroke="midnightblue" d="M400.28,-259.37C382.85,-257.72 364.34,-255.97 347.05,-254.33"/>
<polygon fill="midnightblue" stroke="midnightblue" points="400.12,-262.87 410.4,-260.33 400.78,-255.9 400.12,-262.87"/>
</g>
<!-- Node11 -->
<g id="node11" class="node">
<title>Node11</title>
<g id="a_node11"><a xlink:href="test__decmp_8c_acfebf2fa7515f5449e0cfa594457b66b.html#acfebf2fa7515f5449e0cfa594457b66b" target="_top" xlink:title=" ">
<polygon fill="white" stroke="black" points="233,-200 233,-219 315,-219 315,-200 233,-200"/>
<text text-anchor="middle" x="274" y="-207" font-family="Helvetica,sans-Serif" font-size="10.00">test_s_fx_diff</text>
</a>
</g>
</g>
<!-- Node6&#45;&gt;Node11 -->
<g id="edge10" class="edge">
<title>Node6&#45;&gt;Node11</title>
<path fill="none" stroke="midnightblue" d="M424.89,-254.15C417.14,-251.85 409.3,-249.29 402,-246.5 385.29,-240.12 382.9,-234.38 366,-228.5 349.69,-222.83 331.12,-218.58 315.02,-215.55"/>
<polygon fill="midnightblue" stroke="midnightblue" points="424.03,-257.54 434.6,-256.91 425.94,-250.81 424.03,-257.54"/>
</g>
<!-- Node12 -->
<g id="node12" class="node">
<title>Node12</title>
<g id="a_node12"><a xlink:href="test__decmp_8c_a953eeaad914985c0816dde26d47ffef0.html#a953eeaad914985c0816dde26d47ffef0" target="_top" xlink:title=" ">
<polygon fill="white" stroke="black" points="225.5,-162 225.5,-181 322.5,-181 322.5,-162 225.5,-162"/>
<text text-anchor="middle" x="274" y="-169" font-family="Helvetica,sans-Serif" font-size="10.00">test_s_fx_model</text>
</a>
</g>
</g>
<!-- Node6&#45;&gt;Node12 -->
<g id="edge11" class="edge">
<title>Node6&#45;&gt;Node12</title>
<path fill="none" stroke="midnightblue" d="M412.5,-252.86C408.8,-251 405.27,-248.89 402,-246.5 378.14,-229.01 390.38,-207.27 366,-190.5 353.37,-181.81 337.58,-176.95 322.72,-174.28"/>
<polygon fill="midnightblue" stroke="midnightblue" points="411.38,-256.19 421.95,-256.97 414.18,-249.77 411.38,-256.19"/>
</g>
<!-- Node8 -->
<g id="node8" class="node">
<title>Node8</title>
<g id="a_node8"><a xlink:href="test__cmp__decmp_8c_af3c162694b40683e0aa25c61a49cdafc.html#af3c162694b40683e0aa25c61a49cdafc" target="_top" xlink:title="random compression decompression test">
<polygon fill="white" stroke="black" points="0,-308.5 0,-338.5 146,-338.5 146,-308.5 0,-308.5"/>
<text text-anchor="start" x="8" y="-326.5" font-family="Helvetica,sans-Serif" font-size="10.00">test_random_compression</text>
<text text-anchor="middle" x="73" y="-315.5" font-family="Helvetica,sans-Serif" font-size="10.00">_decompression</text>
</a>
</g>
</g>
<!-- Node7&#45;&gt;Node8 -->
<g id="edge7" class="edge">
<title>Node7&#45;&gt;Node8</title>
<path fill="none" stroke="midnightblue" d="M184.63,-323.5C171.72,-323.5 158.55,-323.5 146.01,-323.5"/>
<polygon fill="midnightblue" stroke="midnightblue" points="184.92,-327 194.92,-323.5 184.92,-320 184.92,-327"/>
</g>
</g>
</svg>
