<?xml version="1.0" encoding="UTF-8" standalone="no"?>
<!DOCTYPE svg PUBLIC "-//W3C//DTD SVG 1.1//EN"
 "http://www.w3.org/Graphics/SVG/1.1/DTD/svg11.dtd">
<!-- Generated by graphviz version 2.43.0 (0)
 -->
<!-- Title: cmp_ent_get_coarse_end_time Pages: 1 -->
<svg width="584pt" height="116pt"
 viewBox="0.00 0.00 584.00 115.50" xmlns="http://www.w3.org/2000/svg" xmlns:xlink="http://www.w3.org/1999/xlink">
<g id="graph0" class="graph" transform="scale(1 1) rotate(0) translate(4 111.5)">
<title>cmp_ent_get_coarse_end_time</title>
<polygon fill="white" stroke="transparent" points="-4,4 -4,-111.5 580,-111.5 580,4 -4,4"/>
<!-- Node1 -->
<g id="node1" class="node">
<title>Node1</title>
<g id="a_node1"><a xlink:title="get the coarse time from the compression end timestamp in the compression entity header">
<polygon fill="#bfbfbf" stroke="black" points="459,-33 459,-63 576,-63 576,-33 459,-33"/>
<text text-anchor="start" x="467" y="-51" font-family="Helvetica,sans-Serif" font-size="10.00">cmp_ent_get_coarse</text>
<text text-anchor="middle" x="517.5" y="-40" font-family="Helvetica,sans-Serif" font-size="10.00">_end_time</text>
</a>
</g>
</g>
<!-- Node2 -->
<g id="node2" class="node">
<title>Node2</title>
<g id="a_node2"><a xlink:href="cmp__entity_8c_a2437ba690b73b4c212cd7962819b24ce.html#a2437ba690b73b4c212cd7962819b24ce" target="_top" xlink:title="parses the generic compressed entity header">
<polygon fill="white" stroke="black" points="284.5,-77 284.5,-107 416.5,-107 416.5,-77 284.5,-77"/>
<text text-anchor="start" x="292.5" y="-95" font-family="Helvetica,sans-Serif" font-size="10.00">cmp_ent_parse_generic</text>
<text text-anchor="middle" x="350.5" y="-84" font-family="Helvetica,sans-Serif" font-size="10.00">_header</text>
</a>
</g>
</g>
<!-- Node1&#45;&gt;Node2 -->
<g id="edge1" class="edge">
<title>Node1&#45;&gt;Node2</title>
<path fill="none" stroke="midnightblue" d="M450.11,-65.7C436.1,-69.44 421.45,-73.35 407.85,-76.97"/>
<polygon fill="midnightblue" stroke="midnightblue" points="451.42,-68.98 460.18,-63.02 449.61,-62.21 451.42,-68.98"/>
</g>
<!-- Node5 -->
<g id="node5" class="node">
<title>Node5</title>
<g id="a_node5"><a xlink:href="test__cmp__entity_8c_a90c6d801a064985e533e097e75b7eec2.html#a90c6d801a064985e533e097e75b7eec2" target="_top" xlink:title=" ">
<polygon fill="white" stroke="black" points="278,-38.5 278,-57.5 423,-57.5 423,-38.5 278,-38.5"/>
<text text-anchor="middle" x="350.5" y="-45.5" font-family="Helvetica,sans-Serif" font-size="10.00">test_ent_coarse_end_time</text>
</a>
</g>
</g>
<!-- Node1&#45;&gt;Node5 -->
<g id="edge4" class="edge">
<title>Node1&#45;&gt;Node5</title>
<path fill="none" stroke="midnightblue" d="M448.64,-48C440.22,-48 431.59,-48 423.11,-48"/>
<polygon fill="midnightblue" stroke="midnightblue" points="448.79,-51.5 458.79,-48 448.79,-44.5 448.79,-51.5"/>
</g>
<!-- Node6 -->
<g id="node6" class="node">
<title>Node6</title>
<g id="a_node6"><a xlink:href="test__cmp__entity_8c_a6ee6e9dd79281888c6f4b14eab4a48ad.html#a6ee6e9dd79281888c6f4b14eab4a48ad" target="_top" xlink:title=" ">
<polygon fill="white" stroke="black" points="281.5,-0.5 281.5,-19.5 419.5,-19.5 419.5,-0.5 281.5,-0.5"/>
<text text-anchor="middle" x="350.5" y="-7.5" font-family="Helvetica,sans-Serif" font-size="10.00">test_ent_end_timestamp</text>
</a>
</g>
</g>
<!-- Node1&#45;&gt;Node6 -->
<g id="edge5" class="edge">
<title>Node1&#45;&gt;Node6</title>
<path fill="none" stroke="midnightblue" d="M448.96,-32.45C429.93,-28.06 409.8,-23.43 392.81,-19.51"/>
<polygon fill="midnightblue" stroke="midnightblue" points="448.26,-35.88 458.79,-34.71 449.83,-29.05 448.26,-35.88"/>
</g>
<!-- Node3 -->
<g id="node3" class="node">
<title>Node3</title>
<g id="a_node3"><a xlink:href="cmp__entity_8c_a1f4478c4d9938fa6f5631e88298ed816.html#a1f4478c4d9938fa6f5631e88298ed816" target="_top" xlink:title="parse the compressed entity header">
<polygon fill="white" stroke="black" points="151,-82.5 151,-101.5 242,-101.5 242,-82.5 151,-82.5"/>
<text text-anchor="middle" x="196.5" y="-89.5" font-family="Helvetica,sans-Serif" font-size="10.00">cmp_ent_parse</text>
</a>
</g>
</g>
<!-- Node2&#45;&gt;Node3 -->
<g id="edge2" class="edge">
<title>Node2&#45;&gt;Node3</title>
<path fill="none" stroke="midnightblue" d="M274.14,-92C263.2,-92 252.25,-92 242.18,-92"/>
<polygon fill="midnightblue" stroke="midnightblue" points="274.16,-95.5 284.16,-92 274.16,-88.5 274.16,-95.5"/>
</g>
<!-- Node4 -->
<g id="node4" class="node">
<title>Node4</title>
<g id="a_node4"><a xlink:href="test__cmp__entity_8c_a893444224bcd50fbb99e42e85989b4a6.html#a893444224bcd50fbb99e42e85989b4a6" target="_top" xlink:title=" ">
<polygon fill="white" stroke="black" points="0,-82.5 0,-101.5 115,-101.5 115,-82.5 0,-82.5"/>
<text text-anchor="middle" x="57.5" y="-89.5" font-family="Helvetica,sans-Serif" font-size="10.00">test_cmp_ent_parse</text>
</a>
</g>
</g>
<!-- Node3&#45;&gt;Node4 -->
<g id="edge3" class="edge">
<title>Node3&#45;&gt;Node4</title>
<path fill="none" stroke="midnightblue" d="M140.41,-92C132.2,-92 123.71,-92 115.46,-92"/>
<polygon fill="midnightblue" stroke="midnightblue" points="140.64,-95.5 150.64,-92 140.64,-88.5 140.64,-95.5"/>
</g>
</g>
</svg>
