<?xml version="1.0" encoding="UTF-8" standalone="no"?>
<!DOCTYPE svg PUBLIC "-//W3C//DTD SVG 1.1//EN"
 "http://www.w3.org/Graphics/SVG/1.1/DTD/svg11.dtd">
<!-- Generated by graphviz version 2.43.0 (0)
 -->
<!-- Title: cmp_max_used_bits.c Pages: 1 -->
<svg width="471pt" height="252pt"
 viewBox="0.00 0.00 471.00 252.00" xmlns="http://www.w3.org/2000/svg" xmlns:xlink="http://www.w3.org/1999/xlink">
<g id="graph0" class="graph" transform="scale(1 1) rotate(0) translate(4 248)">
<title>cmp_max_used_bits.c</title>
<polygon fill="white" stroke="transparent" points="-4,4 -4,-248 467,-248 467,4 -4,4"/>
<!-- Node1 -->
<g id="node1" class="node">
<title>Node1</title>
<g id="a_node1"><a xlink:title="definition and consents of the cmp_max_used_bits structure">
<polygon fill="#bfbfbf" stroke="black" points="0,-224.5 0,-243.5 125,-243.5 125,-224.5 0,-224.5"/>
<text text-anchor="middle" x="62.5" y="-231.5" font-family="Helvetica,sans-Serif" font-size="10.00">cmp_max_used_bits.c</text>
</a>
</g>
</g>
<!-- Node2 -->
<g id="node2" class="node">
<title>Node2</title>
<g id="a_node2"><a xlink:title=" ">
<polygon fill="white" stroke="#bfbfbf" points="72,-0.5 72,-19.5 125,-19.5 125,-0.5 72,-0.5"/>
<text text-anchor="middle" x="98.5" y="-7.5" font-family="Helvetica,sans-Serif" font-size="10.00">stdint.h</text>
</a>
</g>
</g>
<!-- Node1&#45;&gt;Node2 -->
<g id="edge1" class="edge">
<title>Node1&#45;&gt;Node2</title>
<path fill="none" stroke="midnightblue" d="M59.41,-224.17C56.45,-215.2 52.18,-200.83 50.5,-188 49.35,-179.19 49.56,-176.84 50.5,-168 55.86,-117.38 57.02,-103.81 74.5,-56 77.96,-46.54 83.08,-36.6 87.71,-28.48"/>
<polygon fill="midnightblue" stroke="midnightblue" points="90.87,-30.01 92.96,-19.63 84.85,-26.44 90.87,-30.01"/>
</g>
<!-- Node3 -->
<g id="node3" class="node">
<title>Node3</title>
<g id="a_node3"><a xlink:href="cmp__data__types_8h.html" target="_top" xlink:title="definition of the different compression data types">
<polygon fill="white" stroke="black" points="59.5,-168.5 59.5,-187.5 165.5,-187.5 165.5,-168.5 59.5,-168.5"/>
<text text-anchor="middle" x="112.5" y="-175.5" font-family="Helvetica,sans-Serif" font-size="10.00">cmp_data_types.h</text>
</a>
</g>
</g>
<!-- Node1&#45;&gt;Node3 -->
<g id="edge2" class="edge">
<title>Node1&#45;&gt;Node3</title>
<path fill="none" stroke="midnightblue" d="M70.76,-224.08C77.96,-216.3 88.61,-204.8 97.35,-195.37"/>
<polygon fill="midnightblue" stroke="midnightblue" points="100.17,-197.47 104.4,-187.75 95.03,-192.71 100.17,-197.47"/>
</g>
<!-- Node3&#45;&gt;Node2 -->
<g id="edge3" class="edge">
<title>Node3&#45;&gt;Node2</title>
<path fill="none" stroke="midnightblue" d="M103.48,-168.34C95.43,-159.93 84.2,-146.36 79.5,-132 67.92,-96.62 81.07,-53.03 90.53,-29.02"/>
<polygon fill="midnightblue" stroke="midnightblue" points="93.79,-30.31 94.4,-19.73 87.33,-27.61 93.79,-30.31"/>
</g>
<!-- Node4 -->
<g id="node4" class="node">
<title>Node4</title>
<g id="a_node4"><a xlink:href="compiler_8h.html" target="_top" xlink:title="a collection of preprocessor macros">
<polygon fill="white" stroke="black" points="88.5,-112.5 88.5,-131.5 156.5,-131.5 156.5,-112.5 88.5,-112.5"/>
<text text-anchor="middle" x="122.5" y="-119.5" font-family="Helvetica,sans-Serif" font-size="10.00">compiler.h</text>
</a>
</g>
</g>
<!-- Node3&#45;&gt;Node4 -->
<g id="edge4" class="edge">
<title>Node3&#45;&gt;Node4</title>
<path fill="none" stroke="midnightblue" d="M114.15,-168.08C115.48,-160.93 117.38,-150.64 119.04,-141.69"/>
<polygon fill="midnightblue" stroke="midnightblue" points="122.5,-142.22 120.88,-131.75 115.62,-140.95 122.5,-142.22"/>
</g>
<!-- Node5 -->
<g id="node5" class="node">
<title>Node5</title>
<g id="a_node5"><a xlink:href="cmp__support_8h.html" target="_top" xlink:title="compression/decompression helper functions">
<polygon fill="white" stroke="black" points="175,-112.5 175,-131.5 318,-131.5 318,-112.5 175,-112.5"/>
<text text-anchor="middle" x="246.5" y="-119.5" font-family="Helvetica,sans-Serif" font-size="10.00">../common/cmp_support.h</text>
</a>
</g>
</g>
<!-- Node3&#45;&gt;Node5 -->
<g id="edge5" class="edge">
<title>Node3&#45;&gt;Node5</title>
<path fill="none" stroke="midnightblue" d="M133.73,-168.44C155.88,-159.52 190.82,-145.44 215.94,-135.32"/>
<polygon fill="midnightblue" stroke="midnightblue" points="217.4,-138.5 225.37,-131.52 214.78,-132.01 217.4,-138.5"/>
</g>
<!-- Node5&#45;&gt;Node2 -->
<g id="edge6" class="edge">
<title>Node5&#45;&gt;Node2</title>
<path fill="none" stroke="midnightblue" d="M186.68,-112.42C162.29,-106.08 135.63,-95.09 117.5,-76 105.74,-63.62 101.21,-44.38 99.49,-30.04"/>
<polygon fill="midnightblue" stroke="midnightblue" points="102.96,-29.48 98.63,-19.81 95.98,-30.07 102.96,-29.48"/>
</g>
<!-- Node6 -->
<g id="node6" class="node">
<title>Node6</title>
<g id="a_node6"><a xlink:title=" ">
<polygon fill="white" stroke="#bfbfbf" points="126.5,-56.5 126.5,-75.5 182.5,-75.5 182.5,-56.5 126.5,-56.5"/>
<text text-anchor="middle" x="154.5" y="-63.5" font-family="Helvetica,sans-Serif" font-size="10.00">stddef.h</text>
</a>
</g>
</g>
<!-- Node5&#45;&gt;Node6 -->
<g id="edge7" class="edge">
<title>Node5&#45;&gt;Node6</title>
<path fill="none" stroke="midnightblue" d="M231.72,-112.32C217.23,-103.82 194.93,-90.73 178.01,-80.8"/>
<polygon fill="midnightblue" stroke="midnightblue" points="179.64,-77.7 169.24,-75.65 176.1,-83.74 179.64,-77.7"/>
</g>
<!-- Node7 -->
<g id="node7" class="node">
<title>Node7</title>
<g id="a_node7"><a xlink:href="cmp__max__used__bits_8h.html" target="_top" xlink:title="definition and consents of the cmp_max_used_bits structure">
<polygon fill="white" stroke="black" points="201,-56.5 201,-75.5 326,-75.5 326,-56.5 201,-56.5"/>
<text text-anchor="middle" x="263.5" y="-63.5" font-family="Helvetica,sans-Serif" font-size="10.00">cmp_max_used_bits.h</text>
</a>
</g>
</g>
<!-- Node5&#45;&gt;Node7 -->
<g id="edge8" class="edge">
<title>Node5&#45;&gt;Node7</title>
<path fill="none" stroke="midnightblue" d="M249.31,-112.08C251.58,-104.85 254.87,-94.41 257.71,-85.4"/>
<polygon fill="midnightblue" stroke="midnightblue" points="261.08,-86.34 260.75,-75.75 254.4,-84.24 261.08,-86.34"/>
</g>
<!-- Node8 -->
<g id="node8" class="node">
<title>Node8</title>
<g id="a_node8"><a xlink:href="cmp__cal__up__model_8h.html" target="_top" xlink:title="functions to calculate the update (new) model">
<polygon fill="white" stroke="black" points="344,-56.5 344,-75.5 463,-75.5 463,-56.5 344,-56.5"/>
<text text-anchor="middle" x="403.5" y="-63.5" font-family="Helvetica,sans-Serif" font-size="10.00">cmp_cal_up_model.h</text>
</a>
</g>
</g>
<!-- Node5&#45;&gt;Node8 -->
<g id="edge10" class="edge">
<title>Node5&#45;&gt;Node8</title>
<path fill="none" stroke="midnightblue" d="M271.38,-112.44C297.79,-103.36 339.72,-88.94 369.24,-78.78"/>
<polygon fill="midnightblue" stroke="midnightblue" points="370.42,-82.08 378.74,-75.52 368.14,-75.46 370.42,-82.08"/>
</g>
<!-- Node7&#45;&gt;Node2 -->
<g id="edge9" class="edge">
<title>Node7&#45;&gt;Node2</title>
<path fill="none" stroke="midnightblue" d="M237.36,-56.44C209.48,-47.32 165.15,-32.81 134.1,-22.65"/>
<polygon fill="midnightblue" stroke="midnightblue" points="135.12,-19.3 124.52,-19.52 132.94,-25.95 135.12,-19.3"/>
</g>
<!-- Node8&#45;&gt;Node2 -->
<g id="edge11" class="edge">
<title>Node8&#45;&gt;Node2</title>
<path fill="none" stroke="midnightblue" d="M355.17,-56.44C294.1,-45.63 190.34,-27.26 135.31,-17.52"/>
<polygon fill="midnightblue" stroke="midnightblue" points="135.76,-14.04 125.3,-15.75 134.54,-20.94 135.76,-14.04"/>
</g>
</g>
</svg>
