<?xml version="1.0" encoding="UTF-8" standalone="no"?>
<!DOCTYPE svg PUBLIC "-//W3C//DTD SVG 1.1//EN"
 "http://www.w3.org/Graphics/SVG/1.1/DTD/svg11.dtd">
<!-- Generated by graphviz version 2.43.0 (0)
 -->
<!-- Title: cmp_rdcu_cfg.c Pages: 1 -->
<svg width="471pt" height="252pt"
 viewBox="0.00 0.00 470.80 252.00" xmlns="http://www.w3.org/2000/svg" xmlns:xlink="http://www.w3.org/1999/xlink">
<g id="graph0" class="graph" transform="scale(1 1) rotate(0) translate(4 248)">
<title>cmp_rdcu_cfg.c</title>
<polygon fill="white" stroke="transparent" points="-4,4 -4,-248 466.8,-248 466.8,4 -4,4"/>
<!-- Node1 -->
<g id="node1" class="node">
<title>Node1</title>
<g id="a_node1"><a xlink:title="hardware compressor configuration library">
<polygon fill="#bfbfbf" stroke="black" points="154.3,-224.5 154.3,-243.5 246.3,-243.5 246.3,-224.5 154.3,-224.5"/>
<text text-anchor="middle" x="200.3" y="-231.5" font-family="Helvetica,sans-Serif" font-size="10.00">cmp_rdcu_cfg.c</text>
</a>
</g>
</g>
<!-- Node2 -->
<g id="node2" class="node">
<title>Node2</title>
<g id="a_node2"><a xlink:title=" ">
<polygon fill="white" stroke="#bfbfbf" points="191.8,-0.5 191.8,-19.5 244.8,-19.5 244.8,-0.5 191.8,-0.5"/>
<text text-anchor="middle" x="218.3" y="-7.5" font-family="Helvetica,sans-Serif" font-size="10.00">stdint.h</text>
</a>
</g>
</g>
<!-- Node1&#45;&gt;Node2 -->
<g id="edge1" class="edge">
<title>Node1&#45;&gt;Node2</title>
<path fill="none" stroke="midnightblue" d="M153.92,-228.97C101.72,-223.37 21.79,-211.18 3.3,-188 -2.24,-181.05 1.17,-176.63 3.3,-168 16.81,-113.38 18.68,-91.53 62.3,-56 96.57,-28.1 147.38,-17.49 181.61,-13.46"/>
<polygon fill="midnightblue" stroke="midnightblue" points="182.09,-16.93 191.67,-12.41 181.36,-9.97 182.09,-16.93"/>
</g>
<!-- Node3 -->
<g id="node3" class="node">
<title>Node3</title>
<g id="a_node3"><a xlink:title=" ">
<polygon fill="white" stroke="#bfbfbf" points="12.8,-168.5 12.8,-187.5 65.8,-187.5 65.8,-168.5 12.8,-168.5"/>
<text text-anchor="middle" x="39.3" y="-175.5" font-family="Helvetica,sans-Serif" font-size="10.00">string.h</text>
</a>
</g>
</g>
<!-- Node1&#45;&gt;Node3 -->
<g id="edge2" class="edge">
<title>Node1&#45;&gt;Node3</title>
<path fill="none" stroke="midnightblue" d="M174.79,-224.44C147.71,-215.36 104.71,-200.94 74.44,-190.78"/>
<polygon fill="midnightblue" stroke="midnightblue" points="75.29,-187.38 64.7,-187.52 73.06,-194.01 75.29,-187.38"/>
</g>
<!-- Node4 -->
<g id="node4" class="node">
<title>Node4</title>
<g id="a_node4"><a xlink:href="cmp__debug_8h.html" target="_top" xlink:title="compression/decompression debugging defines">
<polygon fill="white" stroke="black" points="83.8,-168.5 83.8,-187.5 220.8,-187.5 220.8,-168.5 83.8,-168.5"/>
<text text-anchor="middle" x="152.3" y="-175.5" font-family="Helvetica,sans-Serif" font-size="10.00">../common/cmp_debug.h</text>
</a>
</g>
</g>
<!-- Node1&#45;&gt;Node4 -->
<g id="edge3" class="edge">
<title>Node1&#45;&gt;Node4</title>
<path fill="none" stroke="midnightblue" d="M192.38,-224.08C185.46,-216.3 175.24,-204.8 166.85,-195.37"/>
<polygon fill="midnightblue" stroke="midnightblue" points="169.34,-192.9 160.08,-187.75 164.11,-197.55 169.34,-192.9"/>
</g>
<!-- Node5 -->
<g id="node5" class="node">
<title>Node5</title>
<g id="a_node5"><a xlink:href="cmp__support_8h.html" target="_top" xlink:title="compression/decompression helper functions">
<polygon fill="white" stroke="black" points="161.8,-112.5 161.8,-131.5 304.8,-131.5 304.8,-112.5 161.8,-112.5"/>
<text text-anchor="middle" x="233.3" y="-119.5" font-family="Helvetica,sans-Serif" font-size="10.00">../common/cmp_support.h</text>
</a>
</g>
</g>
<!-- Node1&#45;&gt;Node5 -->
<g id="edge4" class="edge">
<title>Node1&#45;&gt;Node5</title>
<path fill="none" stroke="midnightblue" d="M207.79,-224.4C214.75,-215.82 224.73,-201.95 229.3,-188 234.21,-173.04 234.96,-155.13 234.63,-141.9"/>
<polygon fill="midnightblue" stroke="midnightblue" points="238.11,-141.49 234.13,-131.67 231.12,-141.83 238.11,-141.49"/>
</g>
<!-- Node9 -->
<g id="node9" class="node">
<title>Node9</title>
<g id="a_node9"><a xlink:href="rdcu__cmd_8h.html" target="_top" xlink:title="RMAP RDCU RMAP command library header file.">
<polygon fill="white" stroke="black" points="389.8,-112.5 389.8,-131.5 462.8,-131.5 462.8,-112.5 389.8,-112.5"/>
<text text-anchor="middle" x="426.3" y="-119.5" font-family="Helvetica,sans-Serif" font-size="10.00">rdcu_cmd.h</text>
</a>
</g>
</g>
<!-- Node1&#45;&gt;Node9 -->
<g id="edge11" class="edge">
<title>Node1&#45;&gt;Node9</title>
<path fill="none" stroke="midnightblue" d="M246.49,-230.11C284.9,-225.78 339.51,-214.96 379.3,-188 396.73,-176.19 409.96,-155.68 417.88,-140.84"/>
<polygon fill="midnightblue" stroke="midnightblue" points="421.13,-142.17 422.49,-131.66 414.87,-139.02 421.13,-142.17"/>
</g>
<!-- Node10 -->
<g id="node10" class="node">
<title>Node10</title>
<g id="a_node10"><a xlink:href="cmp__rdcu__cfg_8h.html" target="_top" xlink:title="hardware compressor configuration library">
<polygon fill="white" stroke="black" points="277.8,-168.5 277.8,-187.5 370.8,-187.5 370.8,-168.5 277.8,-168.5"/>
<text text-anchor="middle" x="324.3" y="-175.5" font-family="Helvetica,sans-Serif" font-size="10.00">cmp_rdcu_cfg.h</text>
</a>
</g>
</g>
<!-- Node1&#45;&gt;Node10 -->
<g id="edge13" class="edge">
<title>Node1&#45;&gt;Node10</title>
<path fill="none" stroke="midnightblue" d="M219.95,-224.44C240.27,-215.6 272.21,-201.69 295.4,-191.59"/>
<polygon fill="midnightblue" stroke="midnightblue" points="296.98,-194.72 304.75,-187.52 294.18,-188.3 296.98,-194.72"/>
</g>
<!-- Node5&#45;&gt;Node2 -->
<g id="edge5" class="edge">
<title>Node5&#45;&gt;Node2</title>
<path fill="none" stroke="midnightblue" d="M176.34,-112.49C135.33,-105.06 85.07,-92.82 72.3,-76 41.72,-35.7 128.78,-19.83 181.41,-14.04"/>
<polygon fill="midnightblue" stroke="midnightblue" points="181.84,-17.51 191.43,-13.01 181.12,-10.55 181.84,-17.51"/>
</g>
<!-- Node6 -->
<g id="node6" class="node">
<title>Node6</title>
<g id="a_node6"><a xlink:title=" ">
<polygon fill="white" stroke="#bfbfbf" points="81.3,-56.5 81.3,-75.5 137.3,-75.5 137.3,-56.5 81.3,-56.5"/>
<text text-anchor="middle" x="109.3" y="-63.5" font-family="Helvetica,sans-Serif" font-size="10.00">stddef.h</text>
</a>
</g>
</g>
<!-- Node5&#45;&gt;Node6 -->
<g id="edge6" class="edge">
<title>Node5&#45;&gt;Node6</title>
<path fill="none" stroke="midnightblue" d="M213.66,-112.44C193.34,-103.6 161.4,-89.69 138.21,-79.59"/>
<polygon fill="midnightblue" stroke="midnightblue" points="139.43,-76.3 128.86,-75.52 136.63,-82.72 139.43,-76.3"/>
</g>
<!-- Node7 -->
<g id="node7" class="node">
<title>Node7</title>
<g id="a_node7"><a xlink:href="cmp__max__used__bits_8h.html" target="_top" xlink:title="definition and consents of the cmp_max_used_bits structure">
<polygon fill="white" stroke="black" points="155.8,-56.5 155.8,-75.5 280.8,-75.5 280.8,-56.5 155.8,-56.5"/>
<text text-anchor="middle" x="218.3" y="-63.5" font-family="Helvetica,sans-Serif" font-size="10.00">cmp_max_used_bits.h</text>
</a>
</g>
</g>
<!-- Node5&#45;&gt;Node7 -->
<g id="edge7" class="edge">
<title>Node5&#45;&gt;Node7</title>
<path fill="none" stroke="midnightblue" d="M230.83,-112.08C228.82,-104.85 225.92,-94.41 223.41,-85.4"/>
<polygon fill="midnightblue" stroke="midnightblue" points="226.78,-84.45 220.74,-75.75 220.04,-86.32 226.78,-84.45"/>
</g>
<!-- Node8 -->
<g id="node8" class="node">
<title>Node8</title>
<g id="a_node8"><a xlink:href="cmp__cal__up__model_8h.html" target="_top" xlink:title="functions to calculate the update (new) model">
<polygon fill="white" stroke="black" points="298.8,-56.5 298.8,-75.5 417.8,-75.5 417.8,-56.5 298.8,-56.5"/>
<text text-anchor="middle" x="358.3" y="-63.5" font-family="Helvetica,sans-Serif" font-size="10.00">cmp_cal_up_model.h</text>
</a>
</g>
</g>
<!-- Node5&#45;&gt;Node8 -->
<g id="edge9" class="edge">
<title>Node5&#45;&gt;Node8</title>
<path fill="none" stroke="midnightblue" d="M253.11,-112.44C273.59,-103.6 305.79,-89.69 329.17,-79.59"/>
<polygon fill="midnightblue" stroke="midnightblue" points="330.8,-82.7 338.59,-75.52 328.02,-76.27 330.8,-82.7"/>
</g>
<!-- Node7&#45;&gt;Node2 -->
<g id="edge8" class="edge">
<title>Node7&#45;&gt;Node2</title>
<path fill="none" stroke="midnightblue" d="M218.3,-56.08C218.3,-49.01 218.3,-38.86 218.3,-29.99"/>
<polygon fill="midnightblue" stroke="midnightblue" points="221.8,-29.75 218.3,-19.75 214.8,-29.75 221.8,-29.75"/>
</g>
<!-- Node8&#45;&gt;Node2 -->
<g id="edge10" class="edge">
<title>Node8&#45;&gt;Node2</title>
<path fill="none" stroke="midnightblue" d="M336.12,-56.44C312.88,-47.48 276.16,-33.31 249.89,-23.18"/>
<polygon fill="midnightblue" stroke="midnightblue" points="250.97,-19.85 240.38,-19.52 248.45,-26.38 250.97,-19.85"/>
</g>
<!-- Node9&#45;&gt;Node2 -->
<g id="edge12" class="edge">
<title>Node9&#45;&gt;Node2</title>
<path fill="none" stroke="midnightblue" d="M429.59,-112.3C434.13,-98.67 440.35,-72.16 427.3,-56 406.1,-29.74 309.53,-18.08 255.39,-13.53"/>
<polygon fill="midnightblue" stroke="midnightblue" points="255.41,-10.02 245.16,-12.71 254.85,-17 255.41,-10.02"/>
</g>
<!-- Node10&#45;&gt;Node5 -->
<g id="edge14" class="edge">
<title>Node10&#45;&gt;Node5</title>
<path fill="none" stroke="midnightblue" d="M309.68,-168.32C295.36,-159.82 273.29,-146.73 256.56,-136.8"/>
<polygon fill="midnightblue" stroke="midnightblue" points="258.27,-133.75 247.89,-131.65 254.7,-139.77 258.27,-133.75"/>
</g>
</g>
</svg>
