<?xml version="1.0" encoding="UTF-8" standalone="no"?>
<!DOCTYPE svg PUBLIC "-//W3C//DTD SVG 1.1//EN"
 "http://www.w3.org/Graphics/SVG/1.1/DTD/svg11.dtd">
<!-- Generated by graphviz version 2.43.0 (0)
 -->
<!-- Title: cmp_ent_get_version_id Pages: 1 -->
<!--zoomable 116 -->
<svg id="main" version="1.1" xmlns="http://www.w3.org/2000/svg" xmlns:xlink="http://www.w3.org/1999/xlink" xml:space="preserve" onload="init(evt)">
<style type="text/css"><![CDATA[
.edge:hover path { stroke: red; }
.edge:hover polygon { stroke: red; fill: red; }
]]></style>
<script type="text/javascript"><![CDATA[
var edges = document.getElementsByTagName('g');
if (edges && edges.length) {
  for (var i=0;i<edges.length;i++) {
    if (edges[i].id.substr(0,4)=='edge') {
      edges[i].setAttribute('class','edge');
    }
  }
}
]]></script>
        <defs>
                <circle id="rim" cx="0" cy="0" r="7"/>
                <circle id="rim2" cx="0" cy="0" r="3.5"/>
                <g id="zoomPlus">
                        <use xlink:href="#rim" fill="#404040">
                                <set attributeName="fill" to="#808080" begin="zoomplus.mouseover" end="zoomplus.mouseout"/>
                        </use>
                        <path d="M-4,0h8M0,-4v8" fill="none" stroke="white" stroke-width="1.5" pointer-events="none"/>
                </g>
                <g id="zoomMin">
                        <use xlink:href="#rim" fill="#404040">
                                <set attributeName="fill" to="#808080" begin="zoomminus.mouseover" end="zoomminus.mouseout"/>
                        </use>
                        <path d="M-4,0h8" fill="none" stroke="white" stroke-width="1.5" pointer-events="none"/>
                </g>
                <g id="dirArrow">
                        <path fill="none" stroke="white" stroke-width="1.5" d="M0,-3.0v7 M-2.5,-0.5L0,-3.0L2.5,-0.5"/>
                </g>
               <g id="resetDef">
                       <use xlink:href="#rim2" fill="#404040">
                               <set attributeName="fill" to="#808080" begin="reset.mouseover" end="reset.mouseout"/>
                       </use>
               </g>
        </defs>

<script type="text/javascript">
var viewWidth = 589;
var viewHeight = 116;
var sectionId = 'dynsection-0';
</script>
<script xlink:href="svgpan.js"/>
<svg id="graph" class="graph">
<g id="viewport">
<title>cmp_ent_get_version_id</title>
<polygon fill="white" stroke="transparent" points="-4,4 -4,-111.5 585,-111.5 585,4 -4,4"/>
<!-- Node1 -->
<g id="node1" class="node">
<title>Node1</title>
<g id="a_node1"><a xlink:title="get the ASW version identifier from the compression entity header">
<polygon fill="#bfbfbf" stroke="black" points="446,-38.5 446,-57.5 581,-57.5 581,-38.5 446,-38.5"/>
<text text-anchor="middle" x="513.5" y="-45.5" font-family="Helvetica,sans-Serif" font-size="10.00">cmp_ent_get_version_id</text>
</a>
</g>
</g>
<!-- Node2 -->
<g id="node2" class="node">
<title>Node2</title>
<g id="a_node2"><a xlink:href="cmp__entity_8c_a2437ba690b73b4c212cd7962819b24ce.html#a2437ba690b73b4c212cd7962819b24ce" target="_top" xlink:title="parses the generic compressed entity header">
<polygon fill="white" stroke="black" points="278,-77 278,-107 410,-107 410,-77 278,-77"/>
<text text-anchor="start" x="286" y="-95" font-family="Helvetica,sans-Serif" font-size="10.00">cmp_ent_parse_generic</text>
<text text-anchor="middle" x="344" y="-84" font-family="Helvetica,sans-Serif" font-size="10.00">_header</text>
</a>
</g>
</g>
<!-- Node1&#45;&gt;Node2 -->
<g id="edge1" class="edge">
<title>Node1&#45;&gt;Node2</title>
<path fill="none" stroke="midnightblue" d="M466.45,-60.1C446.64,-65.3 423.27,-71.44 402.35,-76.93"/>
<polygon fill="midnightblue" stroke="midnightblue" points="467.37,-63.47 476.15,-57.55 465.59,-56.7 467.37,-63.47"/>
</g>
<!-- Node5 -->
<g id="node5" class="node">
<title>Node5</title>
<g id="a_node5"><a xlink:href="test__cmp__entity_8c_a13c81359af8798146608574ab0e113fb.html#a13c81359af8798146608574ab0e113fb" target="_top" xlink:title=" ">
<polygon fill="white" stroke="black" points="288,-38.5 288,-57.5 400,-57.5 400,-38.5 288,-38.5"/>
<text text-anchor="middle" x="344" y="-45.5" font-family="Helvetica,sans-Serif" font-size="10.00">test_cmp_ent_build</text>
</a>
</g>
</g>
<!-- Node1&#45;&gt;Node5 -->
<g id="edge4" class="edge">
<title>Node1&#45;&gt;Node5</title>
<path fill="none" stroke="midnightblue" d="M435.79,-48C423.77,-48 411.56,-48 400.15,-48"/>
<polygon fill="midnightblue" stroke="midnightblue" points="435.82,-51.5 445.82,-48 435.82,-44.5 435.82,-51.5"/>
</g>
<!-- Node6 -->
<g id="node6" class="node">
<title>Node6</title>
<g id="a_node6"><a xlink:href="test__cmp__entity_8c_a3e9c4b22525089c9b8f118bef3e2446f.html#a3e9c4b22525089c9b8f118bef3e2446f" target="_top" xlink:title=" ">
<polygon fill="white" stroke="black" points="288,-0.5 288,-19.5 400,-19.5 400,-0.5 288,-0.5"/>
<text text-anchor="middle" x="344" y="-7.5" font-family="Helvetica,sans-Serif" font-size="10.00">test_ent_version_id</text>
</a>
</g>
</g>
<!-- Node1&#45;&gt;Node6 -->
<g id="edge5" class="edge">
<title>Node1&#45;&gt;Node6</title>
<path fill="none" stroke="midnightblue" d="M460.38,-36.18C436.77,-30.82 409.22,-24.57 386.96,-19.52"/>
<polygon fill="midnightblue" stroke="midnightblue" points="459.71,-39.61 470.23,-38.41 461.25,-32.79 459.71,-39.61"/>
</g>
<!-- Node3 -->
<g id="node3" class="node">
<title>Node3</title>
<g id="a_node3"><a xlink:href="cmp__entity_8c_a1f4478c4d9938fa6f5631e88298ed816.html#a1f4478c4d9938fa6f5631e88298ed816" target="_top" xlink:title="parse the compressed entity header">
<polygon fill="white" stroke="black" points="151,-82.5 151,-101.5 242,-101.5 242,-82.5 151,-82.5"/>
<text text-anchor="middle" x="196.5" y="-89.5" font-family="Helvetica,sans-Serif" font-size="10.00">cmp_ent_parse</text>
</a>
</g>
</g>
<!-- Node2&#45;&gt;Node3 -->
<g id="edge2" class="edge">
<title>Node2&#45;&gt;Node3</title>
<path fill="none" stroke="midnightblue" d="M267.66,-92C258.92,-92 250.23,-92 242.09,-92"/>
<polygon fill="midnightblue" stroke="midnightblue" points="267.91,-95.5 277.91,-92 267.91,-88.5 267.91,-95.5"/>
</g>
<!-- Node4 -->
<g id="node4" class="node">
<title>Node4</title>
<g id="a_node4"><a xlink:href="test__cmp__entity_8c_a893444224bcd50fbb99e42e85989b4a6.html#a893444224bcd50fbb99e42e85989b4a6" target="_top" xlink:title=" ">
<polygon fill="white" stroke="black" points="0,-82.5 0,-101.5 115,-101.5 115,-82.5 0,-82.5"/>
<text text-anchor="middle" x="57.5" y="-89.5" font-family="Helvetica,sans-Serif" font-size="10.00">test_cmp_ent_parse</text>
</a>
</g>
</g>
<!-- Node3&#45;&gt;Node4 -->
<g id="edge3" class="edge">
<title>Node3&#45;&gt;Node4</title>
<path fill="none" stroke="midnightblue" d="M140.41,-92C132.2,-92 123.71,-92 115.46,-92"/>
<polygon fill="midnightblue" stroke="midnightblue" points="140.64,-95.5 150.64,-92 140.64,-88.5 140.64,-95.5"/>
</g>
</g>
</svg>
        <g id="navigator" transform="translate(0 0)" fill="#404254">
                <rect fill="#f2f5e9" fill-opacity="0.5" stroke="#606060" stroke-width=".5" x="0" y="0" width="60" height="60"/>
                <use id="zoomplus" xlink:href="#zoomPlus" x="17" y="9" onmousedown="handleZoom(evt,'in')"/>
                <use id="zoomminus" xlink:href="#zoomMin" x="42" y="9" onmousedown="handleZoom(evt,'out')"/>
                <use id="reset" xlink:href="#resetDef" x="30" y="36" onmousedown="handleReset()"/>
                <g id="arrowUp" xlink:href="#dirArrow" transform="translate(30 24)" onmousedown="handlePan(0,-1)">
                  <use xlink:href="#rim" fill="#404040">
                        <set attributeName="fill" to="#808080" begin="arrowUp.mouseover" end="arrowUp.mouseout"/>
                  </use>
                  <path fill="none" stroke="white" stroke-width="1.5" d="M0,-3.0v7 M-2.5,-0.5L0,-3.0L2.5,-0.5"/>
                </g>
                <g id="arrowRight" xlink:href="#dirArrow" transform="rotate(90) translate(36 -43)" onmousedown="handlePan(1,0)">
                  <use xlink:href="#rim" fill="#404040">
                        <set attributeName="fill" to="#808080" begin="arrowRight.mouseover" end="arrowRight.mouseout"/>
                  </use>
                  <path fill="none" stroke="white" stroke-width="1.5" d="M0,-3.0v7 M-2.5,-0.5L0,-3.0L2.5,-0.5"/>
                </g>
                <g id="arrowDown" xlink:href="#dirArrow" transform="rotate(180) translate(-30 -48)" onmousedown="handlePan(0,1)">
                  <use xlink:href="#rim" fill="#404040">
                        <set attributeName="fill" to="#808080" begin="arrowDown.mouseover" end="arrowDown.mouseout"/>
                  </use>
                  <path fill="none" stroke="white" stroke-width="1.5" d="M0,-3.0v7 M-2.5,-0.5L0,-3.0L2.5,-0.5"/>
                </g>
                <g id="arrowLeft" xlink:href="#dirArrow" transform="rotate(270) translate(-36 17)" onmousedown="handlePan(-1,0)">
                  <use xlink:href="#rim" fill="#404040">
                        <set attributeName="fill" to="#808080" begin="arrowLeft.mouseover" end="arrowLeft.mouseout"/>
                  </use>
                  <path fill="none" stroke="white" stroke-width="1.5" d="M0,-3.0v7 M-2.5,-0.5L0,-3.0L2.5,-0.5"/>
                </g>
        </g>
        <svg viewBox="0 0 15 15" width="100%" height="30px" preserveAspectRatio="xMaxYMin meet">
         <g id="arrow_out" transform="scale(0.3 0.3)">
          <a xlink:href="cmp__entity_8h_a79f4db0e43ce48de20e24e727619dd64_a79f4db0e43ce48de20e24e727619dd64_icgraph_org.svg" target="_base">
           <rect id="button" ry="5" rx="5" y="6" x="6" height="38" width="38"
                fill="#f2f5e9" fill-opacity="0.5" stroke="#606060" stroke-width="1.0"/>
           <path id="arrow"
             d="M 11.500037,31.436501 C 11.940474,20.09759 22.043105,11.32322 32.158766,21.979434 L 37.068811,17.246167 C 37.068811,17.246167 37.088388,32 37.088388,32 L 22.160133,31.978069 C 22.160133,31.978069 26.997745,27.140456 26.997745,27.140456 C 18.528582,18.264221 13.291696,25.230495 11.500037,31.436501 z"
             style="fill:#404040;"/>
          </a>
         </g>
        </svg>
</svg>
