<?xml version="1.0" encoding="UTF-8" standalone="no"?>
<!DOCTYPE svg PUBLIC "-//W3C//DTD SVG 1.1//EN"
 "http://www.w3.org/Graphics/SVG/1.1/DTD/svg11.dtd">
<!-- Generated by graphviz version 2.43.0 (0)
 -->
<!-- Title: compress_l_fx_efx_ncob_ecob Pages: 1 -->
<svg width="852pt" height="349pt"
 viewBox="0.00 0.00 852.00 349.00" xmlns="http://www.w3.org/2000/svg" xmlns:xlink="http://www.w3.org/1999/xlink">
<g id="graph0" class="graph" transform="scale(1 1) rotate(0) translate(4 345)">
<title>compress_l_fx_efx_ncob_ecob</title>
<polygon fill="white" stroke="transparent" points="-4,4 -4,-345 848,-345 848,4 -4,4"/>
<!-- Node1 -->
<g id="node1" class="node">
<title>Node1</title>
<g id="a_node1"><a xlink:title="compress L_FX_EFX_NCOB_ECOB data">
<polygon fill="#bfbfbf" stroke="black" points="0,-133.5 0,-152.5 165,-152.5 165,-133.5 0,-133.5"/>
<text text-anchor="middle" x="82.5" y="-140.5" font-family="Helvetica,sans-Serif" font-size="10.00">compress_l_fx_efx_ncob_ecob</text>
</a>
</g>
</g>
<!-- Node2 -->
<g id="node2" class="node">
<title>Node2</title>
<g id="a_node2"><a xlink:href="cmp__cal__up__model_8h_ae94523fd5901d49d08ea8f98ee319356.html#ae94523fd5901d49d08ea8f98ee319356" target="_top" xlink:title=" ">
<polygon fill="white" stroke="black" points="222.5,-209.5 222.5,-228.5 325.5,-228.5 325.5,-209.5 222.5,-209.5"/>
<text text-anchor="middle" x="274" y="-216.5" font-family="Helvetica,sans-Serif" font-size="10.00">cmp_up_model32</text>
</a>
</g>
</g>
<!-- Node1&#45;&gt;Node2 -->
<g id="edge1" class="edge">
<title>Node1&#45;&gt;Node2</title>
<path fill="none" stroke="midnightblue" d="M100.56,-152.58C123.02,-164.89 164.01,-186.29 201,-200 207.43,-202.38 214.3,-204.6 221.13,-206.61"/>
<polygon fill="midnightblue" stroke="midnightblue" points="220.5,-210.06 231.07,-209.4 222.39,-203.32 220.5,-210.06"/>
</g>
<!-- Node3 -->
<g id="node3" class="node">
<title>Node3</title>
<g id="a_node3"><a xlink:href="cmp__icu_8c_a68e2952d3ee5108ed25d85c0fe15cad9.html#a68e2952d3ee5108ed25d85c0fe15cad9" target="_top" xlink:title="compress the multi&#45;entry packet header structure and sets the data, model and up_model pointers to th...">
<polygon fill="white" stroke="black" points="201,-171.5 201,-190.5 347,-190.5 347,-171.5 201,-171.5"/>
<text text-anchor="middle" x="274" y="-178.5" font-family="Helvetica,sans-Serif" font-size="10.00">compress_multi_entry_hdr</text>
</a>
</g>
</g>
<!-- Node1&#45;&gt;Node3 -->
<g id="edge2" class="edge">
<title>Node1&#45;&gt;Node3</title>
<path fill="none" stroke="midnightblue" d="M131.32,-152.59C156.89,-157.72 188.56,-164.07 215.47,-169.46"/>
<polygon fill="midnightblue" stroke="midnightblue" points="215.03,-172.95 225.53,-171.48 216.41,-166.08 215.03,-172.95"/>
</g>
<!-- Node4 -->
<g id="node4" class="node">
<title>Node4</title>
<g id="a_node4"><a xlink:href="cmp__icu_8c_a5434cde7ebe64a734bcd3029e0755d39.html#a5434cde7ebe64a734bcd3029e0755d39" target="_top" xlink:title="configure an encoder setup structure to have a setup to encode a vale">
<polygon fill="white" stroke="black" points="205,-133.5 205,-152.5 343,-152.5 343,-133.5 205,-133.5"/>
<text text-anchor="middle" x="274" y="-140.5" font-family="Helvetica,sans-Serif" font-size="10.00">configure_encoder_setup</text>
</a>
</g>
</g>
<!-- Node1&#45;&gt;Node4 -->
<g id="edge3" class="edge">
<title>Node1&#45;&gt;Node4</title>
<path fill="none" stroke="midnightblue" d="M165.24,-143C175.05,-143 185.06,-143 194.82,-143"/>
<polygon fill="midnightblue" stroke="midnightblue" points="194.89,-146.5 204.89,-143 194.89,-139.5 194.89,-146.5"/>
</g>
<!-- Node19 -->
<g id="node19" class="node">
<title>Node19</title>
<g id="a_node19"><a xlink:href="cmp__icu_8c_a5268c6512d945edcdc898cd1b2ca5396.html#a5268c6512d945edcdc898cd1b2ca5396" target="_top" xlink:title="encodes the data with the model and the given setup and put it into the bitstream">
<polygon fill="white" stroke="black" points="232,-95.5 232,-114.5 316,-114.5 316,-95.5 232,-95.5"/>
<text text-anchor="middle" x="274" y="-102.5" font-family="Helvetica,sans-Serif" font-size="10.00">encode_value</text>
</a>
</g>
</g>
<!-- Node1&#45;&gt;Node19 -->
<g id="edge23" class="edge">
<title>Node1&#45;&gt;Node19</title>
<path fill="none" stroke="midnightblue" d="M131.32,-133.41C158.95,-127.87 193.72,-120.9 221.89,-115.25"/>
<polygon fill="midnightblue" stroke="midnightblue" points="222.83,-118.63 231.95,-113.23 221.45,-111.77 222.83,-118.63"/>
</g>
<!-- Node20 -->
<g id="node20" class="node">
<title>Node20</title>
<g id="a_node20"><a xlink:href="cmp__support_8c_afba7806c424cfb8c7678c1b4cebdfcbb.html#afba7806c424cfb8c7678c1b4cebdfcbb" target="_top" xlink:title="check if a model mode is selected">
<polygon fill="white" stroke="black" points="213,-57.5 213,-76.5 335,-76.5 335,-57.5 213,-57.5"/>
<text text-anchor="middle" x="274" y="-64.5" font-family="Helvetica,sans-Serif" font-size="10.00">model_mode_is_used</text>
</a>
</g>
</g>
<!-- Node1&#45;&gt;Node20 -->
<g id="edge24" class="edge">
<title>Node1&#45;&gt;Node20</title>
<path fill="none" stroke="midnightblue" d="M100.56,-133.42C123.02,-121.11 164.01,-99.71 201,-86 207.43,-83.62 214.3,-81.4 221.13,-79.39"/>
<polygon fill="midnightblue" stroke="midnightblue" points="222.39,-82.68 231.07,-76.6 220.5,-75.94 222.39,-82.68"/>
</g>
<!-- Node5 -->
<g id="node5" class="node">
<title>Node5</title>
<g id="a_node5"><a xlink:href="cmp__icu_8c_a24f7f725d312368abff72e12ba0380c7.html#a24f7f725d312368abff72e12ba0380c7" target="_top" xlink:title="calculate the maximum length of the bitstream/icu_output_buf in bits">
<polygon fill="white" stroke="black" points="383,-294.5 383,-313.5 529,-313.5 529,-294.5 383,-294.5"/>
<text text-anchor="middle" x="456" y="-301.5" font-family="Helvetica,sans-Serif" font-size="10.00">cmp_buffer_length_to_bits</text>
</a>
</g>
</g>
<!-- Node4&#45;&gt;Node5 -->
<g id="edge4" class="edge">
<title>Node4&#45;&gt;Node5</title>
<path fill="none" stroke="midnightblue" d="M333.18,-152.66C338.23,-155.13 342.95,-158.19 347,-162 384.16,-196.96 348.98,-232.98 383,-271 390.44,-279.32 400.4,-285.68 410.53,-290.48"/>
<polygon fill="midnightblue" stroke="midnightblue" points="409.25,-293.74 419.82,-294.47 412.02,-287.31 409.25,-293.74"/>
</g>
<!-- Node9 -->
<g id="node9" class="node">
<title>Node9</title>
<g id="a_node9"><a xlink:href="cmp__icu_8c_aaea9e8cb11d380bb6a6c11020a7c77f9.html#aaea9e8cb11d380bb6a6c11020a7c77f9" target="_top" xlink:title="subtract the model from the data, encode the result and put it into bitstream, for encoding outlier u...">
<polygon fill="white" stroke="black" points="398.5,-152.5 398.5,-171.5 513.5,-171.5 513.5,-152.5 398.5,-152.5"/>
<text text-anchor="middle" x="456" y="-159.5" font-family="Helvetica,sans-Serif" font-size="10.00">encode_value_multi</text>
</a>
</g>
</g>
<!-- Node4&#45;&gt;Node9 -->
<g id="edge8" class="edge">
<title>Node4&#45;&gt;Node9</title>
<path fill="none" stroke="midnightblue" d="M343.05,-150.18C357.85,-151.75 373.5,-153.4 388.25,-154.95"/>
<polygon fill="midnightblue" stroke="midnightblue" points="387.99,-158.45 398.3,-156.01 388.72,-151.48 387.99,-158.45"/>
</g>
<!-- Node13 -->
<g id="node13" class="node">
<title>Node13</title>
<g id="a_node13"><a xlink:href="cmp__icu_8c_aa3eee2af4deb902d63df587a6a15af13.html#aa3eee2af4deb902d63df587a6a15af13" target="_top" xlink:title="put the value unencoded with setup&#45;&gt;cmp_par_1 bits without any changes in the bitstream">
<polygon fill="white" stroke="black" points="570.5,-261.5 570.5,-280.5 683.5,-280.5 683.5,-261.5 570.5,-261.5"/>
<text text-anchor="middle" x="627" y="-268.5" font-family="Helvetica,sans-Serif" font-size="10.00">encode_value_none</text>
</a>
</g>
</g>
<!-- Node4&#45;&gt;Node13 -->
<g id="edge13" class="edge">
<title>Node4&#45;&gt;Node13</title>
<path fill="none" stroke="midnightblue" d="M329.34,-152.54C335.63,-155 341.68,-158.1 347,-162 371.16,-179.72 358.43,-201.86 383,-219 435.16,-255.39 507.83,-267.11 560.09,-270.51"/>
<polygon fill="midnightblue" stroke="midnightblue" points="560.08,-274.02 570.26,-271.08 560.47,-267.03 560.08,-274.02"/>
</g>
<!-- Node14 -->
<g id="node14" class="node">
<title>Node14</title>
<g id="a_node14"><a xlink:href="cmp__icu_8c_a441be2f84e386657cc72dc61b7769ff1.html#a441be2f84e386657cc72dc61b7769ff1" target="_top" xlink:title="subtract the model from the data, encode the result and put it into bitstream, for encoding outlier u...">
<polygon fill="white" stroke="black" points="401,-190.5 401,-209.5 511,-209.5 511,-190.5 401,-190.5"/>
<text text-anchor="middle" x="456" y="-197.5" font-family="Helvetica,sans-Serif" font-size="10.00">encode_value_zero</text>
</a>
</g>
</g>
<!-- Node4&#45;&gt;Node14 -->
<g id="edge15" class="edge">
<title>Node4&#45;&gt;Node14</title>
<path fill="none" stroke="midnightblue" d="M317.77,-152.57C327.52,-155.22 337.73,-158.38 347,-162 363.86,-168.57 366.14,-174.43 383,-181 389.23,-183.43 395.88,-185.65 402.53,-187.66"/>
<polygon fill="midnightblue" stroke="midnightblue" points="401.65,-191.04 412.23,-190.43 403.57,-184.31 401.65,-191.04"/>
</g>
<!-- Node15 -->
<g id="node15" class="node">
<title>Node15</title>
<g id="a_node15"><a xlink:href="cmp__icu_8c_ad1becd97051927d20474767867ce34a7.html#ad1becd97051927d20474767867ce34a7" target="_top" xlink:title="forms a codeword according to the Golomb code">
<polygon fill="white" stroke="black" points="407,-114.5 407,-133.5 505,-133.5 505,-114.5 407,-114.5"/>
<text text-anchor="middle" x="456" y="-121.5" font-family="Helvetica,sans-Serif" font-size="10.00">golomb_encoder</text>
</a>
</g>
</g>
<!-- Node4&#45;&gt;Node15 -->
<g id="edge19" class="edge">
<title>Node4&#45;&gt;Node15</title>
<path fill="none" stroke="midnightblue" d="M343.05,-135.82C360.61,-133.96 379.36,-131.98 396.39,-130.19"/>
<polygon fill="midnightblue" stroke="midnightblue" points="397.17,-133.62 406.75,-129.09 396.44,-126.66 397.17,-133.62"/>
</g>
<!-- Node16 -->
<g id="node16" class="node">
<title>Node16</title>
<g id="a_node16"><a xlink:href="cmp__support_8c_a67b0e38ca0e68c282c89552daa61ffdf.html#a67b0e38ca0e68c282c89552daa61ffdf" target="_top" xlink:title="implementation of the logarithm base of floor(log2(x)) for integers">
<polygon fill="white" stroke="black" points="433,-76.5 433,-95.5 479,-95.5 479,-76.5 433,-76.5"/>
<text text-anchor="middle" x="456" y="-83.5" font-family="Helvetica,sans-Serif" font-size="10.00">ilog_2</text>
</a>
</g>
</g>
<!-- Node4&#45;&gt;Node16 -->
<g id="edge20" class="edge">
<title>Node4&#45;&gt;Node16</title>
<path fill="none" stroke="midnightblue" d="M317.77,-133.43C327.52,-130.78 337.73,-127.62 347,-124 363.86,-117.43 366.14,-111.57 383,-105 395.7,-100.05 410.16,-95.95 422.77,-92.84"/>
<polygon fill="midnightblue" stroke="midnightblue" points="423.92,-96.17 432.85,-90.47 422.31,-89.36 423.92,-96.17"/>
</g>
<!-- Node17 -->
<g id="node17" class="node">
<title>Node17</title>
<g id="a_node17"><a xlink:href="cmp__support_8c_a7831f21f8303058bcac76d42a4aa1c06.html#a7831f21f8303058bcac76d42a4aa1c06" target="_top" xlink:title="determining if an integer is a power of 2">
<polygon fill="white" stroke="black" points="412,-38.5 412,-57.5 500,-57.5 500,-38.5 412,-38.5"/>
<text text-anchor="middle" x="456" y="-45.5" font-family="Helvetica,sans-Serif" font-size="10.00">is_a_pow_of_2</text>
</a>
</g>
</g>
<!-- Node4&#45;&gt;Node17 -->
<g id="edge21" class="edge">
<title>Node4&#45;&gt;Node17</title>
<path fill="none" stroke="midnightblue" d="M329.34,-133.46C335.63,-131 341.68,-127.9 347,-124 371.16,-106.28 358.84,-84.72 383,-67 388.67,-62.84 395.19,-59.59 401.93,-57.05"/>
<polygon fill="midnightblue" stroke="midnightblue" points="403.47,-60.23 411.9,-53.82 401.31,-53.57 403.47,-60.23"/>
</g>
<!-- Node18 -->
<g id="node18" class="node">
<title>Node18</title>
<g id="a_node18"><a xlink:href="cmp__icu_8c_ad3bc9d18c24f7caeef7da35b9e389c19.html#ad3bc9d18c24f7caeef7da35b9e389c19" target="_top" xlink:title="forms the codeword according to the Rice code">
<polygon fill="white" stroke="black" points="416.5,-0.5 416.5,-19.5 495.5,-19.5 495.5,-0.5 416.5,-0.5"/>
<text text-anchor="middle" x="456" y="-7.5" font-family="Helvetica,sans-Serif" font-size="10.00">rice_encoder</text>
</a>
</g>
</g>
<!-- Node4&#45;&gt;Node18 -->
<g id="edge22" class="edge">
<title>Node4&#45;&gt;Node18</title>
<path fill="none" stroke="midnightblue" d="M332.3,-133.49C337.65,-131.01 342.68,-127.89 347,-124 380.55,-93.78 349.45,-59.22 383,-29 389.63,-23.03 397.92,-18.89 406.49,-16.04"/>
<polygon fill="midnightblue" stroke="midnightblue" points="407.52,-19.39 416.21,-13.34 405.64,-12.65 407.52,-19.39"/>
</g>
<!-- Node6 -->
<g id="node6" class="node">
<title>Node6</title>
<g id="a_node6"><a xlink:href="cmp__data__types_8c_aafa65f72ed4d0fb99beb11c37f11ce52.html#aafa65f72ed4d0fb99beb11c37f11ce52" target="_top" xlink:title="calculate the need bytes for the data">
<polygon fill="white" stroke="black" points="565,-299.5 565,-318.5 689,-318.5 689,-299.5 565,-299.5"/>
<text text-anchor="middle" x="627" y="-306.5" font-family="Helvetica,sans-Serif" font-size="10.00">cmp_cal_size_of_data</text>
</a>
</g>
</g>
<!-- Node5&#45;&gt;Node6 -->
<g id="edge5" class="edge">
<title>Node5&#45;&gt;Node6</title>
<path fill="none" stroke="midnightblue" d="M529.16,-306.13C537.64,-306.39 546.3,-306.64 554.77,-306.89"/>
<polygon fill="midnightblue" stroke="midnightblue" points="554.89,-310.4 564.98,-307.19 555.09,-303.4 554.89,-310.4"/>
</g>
<!-- Node7 -->
<g id="node7" class="node">
<title>Node7</title>
<g id="a_node7"><a xlink:href="cmp__support_8c_a9197caa657b3d84615c0d323dc96c502.html#a9197caa657b3d84615c0d323dc96c502" target="_top" xlink:title="check if the data product data type is supported by the RDCU compressor">
<polygon fill="white" stroke="black" points="725,-272 725,-302 844,-302 844,-272 725,-272"/>
<text text-anchor="start" x="733" y="-290" font-family="Helvetica,sans-Serif" font-size="10.00">rdcu_supported_data</text>
<text text-anchor="middle" x="784.5" y="-279" font-family="Helvetica,sans-Serif" font-size="10.00">_type_is_used</text>
</a>
</g>
</g>
<!-- Node6&#45;&gt;Node7 -->
<g id="edge6" class="edge">
<title>Node6&#45;&gt;Node7</title>
<path fill="none" stroke="midnightblue" d="M689.01,-300.37C697.51,-299.17 706.29,-297.92 714.92,-296.7"/>
<polygon fill="midnightblue" stroke="midnightblue" points="715.54,-300.15 724.95,-295.28 714.56,-293.22 715.54,-300.15"/>
</g>
<!-- Node8 -->
<g id="node8" class="node">
<title>Node8</title>
<g id="a_node8"><a xlink:href="cmp__data__types_8c_a0be8705b1dcc45f605abd8400dd5230b.html#a0be8705b1dcc45f605abd8400dd5230b" target="_top" xlink:title="calculate the size of a sample for the different compression data type">
<polygon fill="white" stroke="black" points="732.5,-321.5 732.5,-340.5 836.5,-340.5 836.5,-321.5 732.5,-321.5"/>
<text text-anchor="middle" x="784.5" y="-328.5" font-family="Helvetica,sans-Serif" font-size="10.00">size_of_a_sample</text>
</a>
</g>
</g>
<!-- Node6&#45;&gt;Node8 -->
<g id="edge7" class="edge">
<title>Node6&#45;&gt;Node8</title>
<path fill="none" stroke="midnightblue" d="M689.01,-317.63C699.84,-319.16 711.13,-320.76 721.98,-322.3"/>
<polygon fill="midnightblue" stroke="midnightblue" points="721.82,-325.81 732.21,-323.74 722.8,-318.88 721.82,-325.81"/>
</g>
<!-- Node10 -->
<g id="node10" class="node">
<title>Node10</title>
<g id="a_node10"><a xlink:href="cmp__icu_8c_a71aaf149c528b68d0c0ffc159acc0f98.html#a71aaf149c528b68d0c0ffc159acc0f98" target="_top" xlink:title="generate a code word without an outlier mechanism and put in the bitstream">
<polygon fill="white" stroke="black" points="581,-147.5 581,-166.5 673,-166.5 673,-147.5 581,-147.5"/>
<text text-anchor="middle" x="627" y="-154.5" font-family="Helvetica,sans-Serif" font-size="10.00">encode_normal</text>
</a>
</g>
</g>
<!-- Node9&#45;&gt;Node10 -->
<g id="edge9" class="edge">
<title>Node9&#45;&gt;Node10</title>
<path fill="none" stroke="midnightblue" d="M513.74,-160.32C532.11,-159.78 552.43,-159.18 570.69,-158.64"/>
<polygon fill="midnightblue" stroke="midnightblue" points="570.99,-162.13 580.88,-158.33 570.78,-155.13 570.99,-162.13"/>
</g>
<!-- Node11 -->
<g id="node11" class="node">
<title>Node11</title>
<g id="a_node11"><a xlink:href="cmp__icu_8c_afd32ccddf2e0986e9ff136ae55a11d35.html#afd32ccddf2e0986e9ff136ae55a11d35" target="_top" xlink:title="put the value of up to 32 bits into a big endian bitstream">
<polygon fill="white" stroke="black" points="745,-201.5 745,-220.5 824,-220.5 824,-201.5 745,-201.5"/>
<text text-anchor="middle" x="784.5" y="-208.5" font-family="Helvetica,sans-Serif" font-size="10.00">put_n_bits32</text>
</a>
</g>
</g>
<!-- Node9&#45;&gt;Node11 -->
<g id="edge12" class="edge">
<title>Node9&#45;&gt;Node11</title>
<path fill="none" stroke="midnightblue" d="M491.21,-152.39C512.29,-146.97 539.99,-140.75 565,-138 619.78,-131.99 636.84,-120.2 689,-138 721.33,-149.03 751.19,-176.1 768.37,-194"/>
<polygon fill="midnightblue" stroke="midnightblue" points="765.95,-196.54 775.33,-201.48 771.08,-191.78 765.95,-196.54"/>
</g>
<!-- Node12 -->
<g id="node12" class="node">
<title>Node12</title>
<g id="a_node12"><a xlink:href="cmp__icu_8c_a208c98e6a4b7423d5003ea0d1c3a4fe3.html#a208c98e6a4b7423d5003ea0d1c3a4fe3" target="_top" xlink:title="map a signed value into a positive value range">
<polygon fill="white" stroke="black" points="589,-185.5 589,-204.5 665,-204.5 665,-185.5 589,-185.5"/>
<text text-anchor="middle" x="627" y="-192.5" font-family="Helvetica,sans-Serif" font-size="10.00">map_to_pos</text>
</a>
</g>
</g>
<!-- Node9&#45;&gt;Node12 -->
<g id="edge11" class="edge">
<title>Node9&#45;&gt;Node12</title>
<path fill="none" stroke="midnightblue" d="M505.88,-171.54C528.79,-176.02 555.98,-181.33 578.69,-185.76"/>
<polygon fill="midnightblue" stroke="midnightblue" points="578.29,-189.25 588.77,-187.73 579.63,-182.38 578.29,-189.25"/>
</g>
<!-- Node10&#45;&gt;Node11 -->
<g id="edge10" class="edge">
<title>Node10&#45;&gt;Node11</title>
<path fill="none" stroke="midnightblue" d="M659.76,-166.55C669.21,-169.48 679.55,-172.78 689,-176 709.12,-182.85 731.43,-191.09 749.32,-197.84"/>
<polygon fill="midnightblue" stroke="midnightblue" points="748.17,-201.15 758.76,-201.43 750.65,-194.61 748.17,-201.15"/>
</g>
<!-- Node13&#45;&gt;Node11 -->
<g id="edge14" class="edge">
<title>Node13&#45;&gt;Node11</title>
<path fill="none" stroke="midnightblue" d="M652.64,-261.49C678.72,-251.43 720.08,-235.47 749.31,-224.19"/>
<polygon fill="midnightblue" stroke="midnightblue" points="750.65,-227.43 758.72,-220.56 748.13,-220.9 750.65,-227.43"/>
</g>
<!-- Node14&#45;&gt;Node10 -->
<g id="edge16" class="edge">
<title>Node14&#45;&gt;Node10</title>
<path fill="none" stroke="midnightblue" d="M494.51,-190.46C519.34,-184.14 552.11,-175.8 578.73,-169.03"/>
<polygon fill="midnightblue" stroke="midnightblue" points="579.77,-172.37 588.6,-166.52 578.04,-165.59 579.77,-172.37"/>
</g>
<!-- Node14&#45;&gt;Node11 -->
<g id="edge18" class="edge">
<title>Node14&#45;&gt;Node11</title>
<path fill="none" stroke="midnightblue" d="M511.26,-208.42C528.4,-210.71 547.45,-212.87 565,-214 620,-217.55 633.9,-214.87 689,-214 703.79,-213.77 719.88,-213.32 734.52,-212.85"/>
<polygon fill="midnightblue" stroke="midnightblue" points="735.01,-216.34 744.89,-212.5 734.77,-209.34 735.01,-216.34"/>
</g>
<!-- Node14&#45;&gt;Node12 -->
<g id="edge17" class="edge">
<title>Node14&#45;&gt;Node12</title>
<path fill="none" stroke="midnightblue" d="M511.4,-198.39C533.03,-197.75 557.68,-197.02 578.57,-196.4"/>
<polygon fill="midnightblue" stroke="midnightblue" points="578.91,-199.89 588.8,-196.1 578.7,-192.9 578.91,-199.89"/>
</g>
</g>
</svg>
