<?xml version="1.0" encoding="UTF-8" standalone="no"?>
<!DOCTYPE svg PUBLIC "-//W3C//DTD SVG 1.1//EN"
 "http://www.w3.org/Graphics/SVG/1.1/DTD/svg11.dtd">
<!-- Generated by graphviz version 2.43.0 (0)
 -->
<!-- Title: ilog_2 Pages: 1 -->
<!--zoomable 1760 -->
<svg id="main" version="1.1" xmlns="http://www.w3.org/2000/svg" xmlns:xlink="http://www.w3.org/1999/xlink" xml:space="preserve" onload="init(evt)">
<style type="text/css"><![CDATA[
.edge:hover path { stroke: red; }
.edge:hover polygon { stroke: red; fill: red; }
]]></style>
<script type="text/javascript"><![CDATA[
var edges = document.getElementsByTagName('g');
if (edges && edges.length) {
  for (var i=0;i<edges.length;i++) {
    if (edges[i].id.substr(0,4)=='edge') {
      edges[i].setAttribute('class','edge');
    }
  }
}
]]></script>
        <defs>
                <circle id="rim" cx="0" cy="0" r="7"/>
                <circle id="rim2" cx="0" cy="0" r="3.5"/>
                <g id="zoomPlus">
                        <use xlink:href="#rim" fill="#404040">
                                <set attributeName="fill" to="#808080" begin="zoomplus.mouseover" end="zoomplus.mouseout"/>
                        </use>
                        <path d="M-4,0h8M0,-4v8" fill="none" stroke="white" stroke-width="1.5" pointer-events="none"/>
                </g>
                <g id="zoomMin">
                        <use xlink:href="#rim" fill="#404040">
                                <set attributeName="fill" to="#808080" begin="zoomminus.mouseover" end="zoomminus.mouseout"/>
                        </use>
                        <path d="M-4,0h8" fill="none" stroke="white" stroke-width="1.5" pointer-events="none"/>
                </g>
                <g id="dirArrow">
                        <path fill="none" stroke="white" stroke-width="1.5" d="M0,-3.0v7 M-2.5,-0.5L0,-3.0L2.5,-0.5"/>
                </g>
               <g id="resetDef">
                       <use xlink:href="#rim2" fill="#404040">
                               <set attributeName="fill" to="#808080" begin="reset.mouseover" end="reset.mouseout"/>
                       </use>
               </g>
        </defs>

<script type="text/javascript">
var viewWidth = 431;
var viewHeight = 1760;
var sectionId = 'dynsection-0';
</script>
<script xlink:href="svgpan.js"/>
<svg id="graph" class="graph">
<g id="viewport">
<title>ilog_2</title>
<polygon fill="white" stroke="transparent" points="-4,4 -4,-1756 427,-1756 427,4 -4,4"/>
<!-- Node1 -->
<g id="node1" class="node">
<title>Node1</title>
<g id="a_node1"><a xlink:title="implementation of the logarithm base of floor(log2(x)) for integers">
<polygon fill="#bfbfbf" stroke="black" points="377,-152.5 377,-171.5 423,-171.5 423,-152.5 377,-152.5"/>
<text text-anchor="middle" x="400" y="-159.5" font-family="Helvetica,sans-Serif" font-size="10.00">ilog_2</text>
</a>
</g>
</g>
<!-- Node2 -->
<g id="node2" class="node">
<title>Node2</title>
<g id="a_node2"><a xlink:href="cmp__support_8c_aefdc949ff52e4920859d0bd82f5aa5aa.html#aefdc949ff52e4920859d0bd82f5aa5aa" target="_top" xlink:title="get the maximum valid spill threshold value for a non&#45;imagette compression in diff or model mode">
<polygon fill="white" stroke="black" points="216.5,-1451.5 216.5,-1470.5 326.5,-1470.5 326.5,-1451.5 216.5,-1451.5"/>
<text text-anchor="middle" x="271.5" y="-1458.5" font-family="Helvetica,sans-Serif" font-size="10.00">cmp_icu_max_spill</text>
</a>
</g>
</g>
<!-- Node1&#45;&gt;Node2 -->
<g id="edge1" class="edge">
<title>Node1&#45;&gt;Node2</title>
<path fill="none" stroke="midnightblue" d="M397.09,-181.93C389.82,-257.64 363.22,-534.73 341,-763 313.64,-1044.16 279.61,-1388.98 273.47,-1451.16"/>
<polygon fill="midnightblue" stroke="midnightblue" points="400.61,-181.83 398.08,-171.54 393.65,-181.16 400.61,-181.83"/>
</g>
<!-- Node62 -->
<g id="node16" class="node">
<title>Node62</title>
<g id="a_node16"><a xlink:href="decmp_8c_ac9a6281c5fcfbf077cc63e0494274f20.html#ac9a6281c5fcfbf077cc63e0494274f20" target="_top" xlink:title="configure a decoder setup structure to have a setup to decode a vale">
<polygon fill="white" stroke="black" points="202.5,-734.5 202.5,-753.5 340.5,-753.5 340.5,-734.5 202.5,-734.5"/>
<text text-anchor="middle" x="271.5" y="-741.5" font-family="Helvetica,sans-Serif" font-size="10.00">configure_decoder_setup</text>
</a>
</g>
</g>
<!-- Node1&#45;&gt;Node62 -->
<g id="edge15" class="edge">
<title>Node1&#45;&gt;Node62</title>
<path fill="none" stroke="midnightblue" d="M394.74,-181.62C374.55,-274.48 289,-668.11 274.57,-734.48"/>
<polygon fill="midnightblue" stroke="midnightblue" points="398.21,-182.13 396.91,-171.62 391.37,-180.64 398.21,-182.13"/>
</g>
<!-- Node84 -->
<g id="node37" class="node">
<title>Node84</title>
<g id="a_node37"><a xlink:href="cmp__icu_8c_a5434cde7ebe64a734bcd3029e0755d39.html#a5434cde7ebe64a734bcd3029e0755d39" target="_top" xlink:title="configure an encoder setup structure to have a setup to encode a vale">
<polygon fill="white" stroke="red" points="202.5,-228.5 202.5,-247.5 340.5,-247.5 340.5,-228.5 202.5,-228.5"/>
<text text-anchor="middle" x="271.5" y="-235.5" font-family="Helvetica,sans-Serif" font-size="10.00">configure_encoder_setup</text>
</a>
</g>
</g>
<!-- Node1&#45;&gt;Node84 -->
<g id="edge36" class="edge">
<title>Node1&#45;&gt;Node84</title>
<path fill="none" stroke="midnightblue" d="M385.29,-179.61C374.53,-192.3 358.48,-208.9 341,-219 334.37,-222.83 326.94,-225.91 319.48,-228.4"/>
<polygon fill="midnightblue" stroke="midnightblue" points="388.24,-181.54 391.85,-171.58 382.82,-177.11 388.24,-181.54"/>
</g>
<!-- Node101 -->
<g id="node45" class="node">
<title>Node101</title>
<g id="a_node45"><a xlink:href="decmp_8c_ab8ea64d46b8170dc65694e3d0dec64ff.html#ab8ea64d46b8170dc65694e3d0dec64ff" target="_top" xlink:title="decode the next Golomb code word in the bitstream">
<polygon fill="white" stroke="red" points="222.5,-190.5 222.5,-209.5 320.5,-209.5 320.5,-190.5 222.5,-190.5"/>
<text text-anchor="middle" x="271.5" y="-197.5" font-family="Helvetica,sans-Serif" font-size="10.00">golomb_decoder</text>
</a>
</g>
</g>
<!-- Node1&#45;&gt;Node101 -->
<g id="edge44" class="edge">
<title>Node1&#45;&gt;Node101</title>
<path fill="none" stroke="midnightblue" d="M367.15,-171.57C347.91,-177.35 323.46,-184.69 304.24,-190.47"/>
<polygon fill="midnightblue" stroke="midnightblue" points="368.4,-174.85 376.97,-168.62 366.38,-168.14 368.4,-174.85"/>
</g>
<!-- Node104 -->
<g id="node46" class="node">
<title>Node104</title>
<g id="a_node46"><a xlink:href="test__decmp_8c_a0a6312a9d1b013bc9f35096fc9fbe3b9.html#a0a6312a9d1b013bc9f35096fc9fbe3b9" target="_top" xlink:title=" ">
<polygon fill="white" stroke="black" points="22,-76.5 22,-95.5 144,-95.5 144,-76.5 22,-76.5"/>
<text text-anchor="middle" x="83" y="-83.5" font-family="Helvetica,sans-Serif" font-size="10.00">test_golomb_decoder</text>
</a>
</g>
</g>
<!-- Node1&#45;&gt;Node104 -->
<g id="edge48" class="edge">
<title>Node1&#45;&gt;Node104</title>
<path fill="none" stroke="midnightblue" d="M366.85,-165.55C326.25,-168.59 255.28,-169.02 202,-143 181.1,-132.79 186.19,-116.56 166,-105 159.28,-101.15 151.83,-98.08 144.23,-95.63"/>
<polygon fill="midnightblue" stroke="midnightblue" points="367.3,-169.03 376.97,-164.69 366.71,-162.05 367.3,-169.03"/>
</g>
<!-- Node105 -->
<g id="node47" class="node">
<title>Node105</title>
<g id="a_node47"><a xlink:href="test__cmp__icu_8c_ad0132e0109e115196d8623b4f2ffd54e.html#ad0132e0109e115196d8623b4f2ffd54e" target="_top" xlink:title=" ">
<polygon fill="white" stroke="black" points="202,-114.5 202,-133.5 341,-133.5 341,-114.5 202,-114.5"/>
<text text-anchor="middle" x="271.5" y="-121.5" font-family="Helvetica,sans-Serif" font-size="10.00">test_encode_value_multi</text>
</a>
</g>
</g>
<!-- Node1&#45;&gt;Node105 -->
<g id="edge46" class="edge">
<title>Node1&#45;&gt;Node105</title>
<path fill="none" stroke="midnightblue" d="M367.15,-152.43C347.91,-146.65 323.46,-139.31 304.24,-133.53"/>
<polygon fill="midnightblue" stroke="midnightblue" points="366.38,-155.86 376.97,-155.38 368.4,-149.15 366.38,-155.86"/>
</g>
<!-- Node106 -->
<g id="node48" class="node">
<title>Node106</title>
<g id="a_node48"><a xlink:href="test__cmp__icu_8c_a7f405ba5813fad9584e4c13ded974244.html#a7f405ba5813fad9584e4c13ded974244" target="_top" xlink:title=" ">
<polygon fill="white" stroke="black" points="204.5,-76.5 204.5,-95.5 338.5,-95.5 338.5,-76.5 204.5,-76.5"/>
<text text-anchor="middle" x="271.5" y="-83.5" font-family="Helvetica,sans-Serif" font-size="10.00">test_encode_value_zero</text>
</a>
</g>
</g>
<!-- Node1&#45;&gt;Node106 -->
<g id="edge47" class="edge">
<title>Node1&#45;&gt;Node106</title>
<path fill="none" stroke="midnightblue" d="M385.29,-144.39C374.53,-131.7 358.48,-115.1 341,-105 334.37,-101.17 326.94,-98.09 319.48,-95.6"/>
<polygon fill="midnightblue" stroke="midnightblue" points="382.82,-146.89 391.85,-152.42 388.24,-142.46 382.82,-146.89"/>
</g>
<!-- Node107 -->
<g id="node49" class="node">
<title>Node107</title>
<g id="a_node49"><a xlink:href="test__cmp__icu_8c_a4188d6240bd1ba09993114f008ae26b4.html#a4188d6240bd1ba09993114f008ae26b4" target="_top" xlink:title=" ">
<polygon fill="white" stroke="black" points="210.5,-38.5 210.5,-57.5 332.5,-57.5 332.5,-38.5 210.5,-38.5"/>
<text text-anchor="middle" x="271.5" y="-45.5" font-family="Helvetica,sans-Serif" font-size="10.00">test_golomb_encoder</text>
</a>
</g>
</g>
<!-- Node1&#45;&gt;Node107 -->
<g id="edge49" class="edge">
<title>Node1&#45;&gt;Node107</title>
<path fill="none" stroke="midnightblue" d="M392.27,-142.81C383.71,-121.19 366.85,-86.51 341,-67 335.88,-63.13 330.01,-60.05 323.91,-57.6"/>
<polygon fill="midnightblue" stroke="midnightblue" points="389.02,-144.12 395.81,-152.26 395.58,-141.66 389.02,-144.12"/>
</g>
<!-- Node108 -->
<g id="node50" class="node">
<title>Node108</title>
<g id="a_node50"><a xlink:href="test__cmp__icu_8c_a59dcfbac6e8d25648d02b28aff3fd79d.html#a59dcfbac6e8d25648d02b28aff3fd79d" target="_top" xlink:title=" ">
<polygon fill="white" stroke="black" points="220,-0.5 220,-19.5 323,-19.5 323,-0.5 220,-0.5"/>
<text text-anchor="middle" x="271.5" y="-7.5" font-family="Helvetica,sans-Serif" font-size="10.00">test_rice_encoder</text>
</a>
</g>
</g>
<!-- Node1&#45;&gt;Node108 -->
<g id="edge50" class="edge">
<title>Node1&#45;&gt;Node108</title>
<path fill="none" stroke="midnightblue" d="M395.84,-142.13C390.16,-112.99 375.42,-58.89 341,-29 335.78,-24.47 329.57,-21.01 323.05,-18.37"/>
<polygon fill="midnightblue" stroke="midnightblue" points="392.46,-143.07 397.65,-152.3 399.35,-141.84 392.46,-143.07"/>
</g>
<!-- Node3 -->
<g id="node3" class="node">
<title>Node3</title>
<g id="a_node3"><a xlink:href="cmp__support_8c_adbae174c7bd594fd05723ddc667f5b54.html#adbae174c7bd594fd05723ddc667f5b54" target="_top" xlink:title="check if the combination of the different compression parameters is invalid">
<polygon fill="white" stroke="red" points="21.5,-1732.5 21.5,-1751.5 144.5,-1751.5 144.5,-1732.5 21.5,-1732.5"/>
<text text-anchor="middle" x="83" y="-1739.5" font-family="Helvetica,sans-Serif" font-size="10.00">cmp_pars_are_invalid</text>
</a>
</g>
</g>
<!-- Node2&#45;&gt;Node3 -->
<g id="edge2" class="edge">
<title>Node2&#45;&gt;Node3</title>
<path fill="none" stroke="midnightblue" d="M268.71,-1480.89C263.18,-1530.02 241.84,-1657.88 166,-1723 159.79,-1728.33 152.37,-1732.24 144.58,-1735.09"/>
<polygon fill="midnightblue" stroke="midnightblue" points="272.22,-1480.96 269.75,-1470.66 265.26,-1480.25 272.22,-1480.96"/>
</g>
<!-- Node61 -->
<g id="node4" class="node">
<title>Node61</title>
<g id="a_node4"><a xlink:href="test__cmp__decmp_8c_ab6035a99c2c905e6e5072a0aaff5d852.html#ab6035a99c2c905e6e5072a0aaff5d852" target="_top" xlink:title="generate random compression configuration">
<polygon fill="white" stroke="red" points="8,-1694.5 8,-1713.5 158,-1713.5 158,-1694.5 8,-1694.5"/>
<text text-anchor="middle" x="83" y="-1701.5" font-family="Helvetica,sans-Serif" font-size="10.00">generate_random_cmp_par</text>
</a>
</g>
</g>
<!-- Node2&#45;&gt;Node61 -->
<g id="edge3" class="edge">
<title>Node2&#45;&gt;Node61</title>
<path fill="none" stroke="midnightblue" d="M267.21,-1480.96C258.86,-1525.04 232.56,-1631.07 166,-1685 161.23,-1688.86 155.82,-1691.97 150.11,-1694.47"/>
<polygon fill="midnightblue" stroke="midnightblue" points="270.69,-1481.39 269,-1470.93 263.8,-1480.16 270.69,-1481.39"/>
</g>
<!-- Node6 -->
<g id="node5" class="node">
<title>Node6</title>
<g id="a_node5"><a xlink:href="test__cmp__icu_8c_aed9881c4fba85b79a035d585f4f47774.html#aed9881c4fba85b79a035d585f4f47774" target="_top" xlink:title=" ">
<polygon fill="white" stroke="black" points="30.5,-1656.5 30.5,-1675.5 135.5,-1675.5 135.5,-1656.5 30.5,-1656.5"/>
<text text-anchor="middle" x="83" y="-1663.5" font-family="Helvetica,sans-Serif" font-size="10.00">test_cmp_cfg_aux</text>
</a>
</g>
</g>
<!-- Node2&#45;&gt;Node6 -->
<g id="edge4" class="edge">
<title>Node2&#45;&gt;Node6</title>
<path fill="none" stroke="midnightblue" d="M265.33,-1480.4C254.1,-1518.63 223.72,-1603.73 166,-1647 157.23,-1653.57 146.56,-1657.93 135.86,-1660.8"/>
<polygon fill="midnightblue" stroke="midnightblue" points="268.77,-1481.11 268.11,-1470.54 262.03,-1479.22 268.77,-1481.11"/>
</g>
<!-- Node47 -->
<g id="node6" class="node">
<title>Node47</title>
<g id="a_node6"><a xlink:href="test__cmp__icu_8c_a47c170546f18b0d1bf68a32073a3035f.html#a47c170546f18b0d1bf68a32073a3035f" target="_top" xlink:title=" ">
<polygon fill="white" stroke="black" points="23.5,-1618.5 23.5,-1637.5 142.5,-1637.5 142.5,-1618.5 23.5,-1618.5"/>
<text text-anchor="middle" x="83" y="-1625.5" font-family="Helvetica,sans-Serif" font-size="10.00">test_cmp_cfg_fx_cob</text>
</a>
</g>
</g>
<!-- Node2&#45;&gt;Node47 -->
<g id="edge5" class="edge">
<title>Node2&#45;&gt;Node47</title>
<path fill="none" stroke="midnightblue" d="M262.43,-1480.37C248.03,-1512.43 214.78,-1576.21 166,-1609 158.97,-1613.73 150.91,-1617.29 142.66,-1619.97"/>
<polygon fill="midnightblue" stroke="midnightblue" points="265.81,-1481.38 266.58,-1470.81 259.39,-1478.59 265.81,-1481.38"/>
</g>
<!-- Node7 -->
<g id="node7" class="node">
<title>Node7</title>
<g id="a_node7"><a xlink:href="test__cmp__icu_8c_aca32c7d039600004c9cc5c6fe19b8ec5.html#aca32c7d039600004c9cc5c6fe19b8ec5" target="_top" xlink:title=" ">
<polygon fill="white" stroke="black" points="8,-1569 8,-1599 158,-1599 158,-1569 8,-1569"/>
<text text-anchor="start" x="16" y="-1587" font-family="Helvetica,sans-Serif" font-size="10.00">test_compress_background</text>
<text text-anchor="middle" x="83" y="-1576" font-family="Helvetica,sans-Serif" font-size="10.00">_error_cases</text>
</a>
</g>
</g>
<!-- Node2&#45;&gt;Node7 -->
<g id="edge6" class="edge">
<title>Node2&#45;&gt;Node7</title>
<path fill="none" stroke="midnightblue" d="M256.5,-1478.67C238.04,-1500.81 203.49,-1538.46 166,-1560 160.08,-1563.4 153.65,-1566.35 147.07,-1568.91"/>
<polygon fill="midnightblue" stroke="midnightblue" points="259.36,-1480.7 262.97,-1470.74 253.93,-1476.28 259.36,-1480.7"/>
</g>
<!-- Node26 -->
<g id="node8" class="node">
<title>Node26</title>
<g id="a_node8"><a xlink:href="test__cmp__icu_8c_a4d05bd6cb0b420d45886997161470259.html#a4d05bd6cb0b420d45886997161470259" target="_top" xlink:title=" ">
<polygon fill="white" stroke="black" points="27.5,-1520 27.5,-1550 138.5,-1550 138.5,-1520 27.5,-1520"/>
<text text-anchor="start" x="35.5" y="-1538" font-family="Helvetica,sans-Serif" font-size="10.00">test_compress_l_fx</text>
<text text-anchor="middle" x="83" y="-1527" font-family="Helvetica,sans-Serif" font-size="10.00">_efx_error_cases</text>
</a>
</g>
</g>
<!-- Node2&#45;&gt;Node26 -->
<g id="edge7" class="edge">
<title>Node2&#45;&gt;Node26</title>
<path fill="none" stroke="midnightblue" d="M243.88,-1475.21C223.07,-1485.96 193.2,-1500.59 166,-1511 157.27,-1514.34 147.87,-1517.49 138.66,-1520.34"/>
<polygon fill="midnightblue" stroke="midnightblue" points="245.52,-1478.3 252.77,-1470.57 242.28,-1472.1 245.52,-1478.3"/>
</g>
<!-- Node27 -->
<g id="node9" class="node">
<title>Node27</title>
<g id="a_node9"><a xlink:href="test__cmp__icu_8c_a0d3532f9e6f2e6e0c4392049e06c627f.html#a0d3532f9e6f2e6e0c4392049e06c627f" target="_top" xlink:title=" ">
<polygon fill="white" stroke="black" points="5,-1471 5,-1501 161,-1501 161,-1471 5,-1471"/>
<text text-anchor="start" x="13" y="-1489" font-family="Helvetica,sans-Serif" font-size="10.00">test_compress_l_fx</text>
<text text-anchor="middle" x="83" y="-1478" font-family="Helvetica,sans-Serif" font-size="10.00">_efx_ncob_ecob_error_cases</text>
</a>
</g>
</g>
<!-- Node2&#45;&gt;Node27 -->
<g id="edge8" class="edge">
<title>Node2&#45;&gt;Node27</title>
<path fill="none" stroke="midnightblue" d="M206,-1469.65C191.56,-1471.58 176.11,-1473.65 161.22,-1475.65"/>
<polygon fill="midnightblue" stroke="midnightblue" points="206.86,-1473.06 216.31,-1468.26 205.93,-1466.12 206.86,-1473.06"/>
</g>
<!-- Node29 -->
<g id="node10" class="node">
<title>Node29</title>
<g id="a_node10"><a xlink:href="test__cmp__icu_8c_ab725960063dc032566560118d582b79e.html#ab725960063dc032566560118d582b79e" target="_top" xlink:title=" ">
<polygon fill="white" stroke="black" points="27.5,-1422 27.5,-1452 138.5,-1452 138.5,-1422 27.5,-1422"/>
<text text-anchor="start" x="35.5" y="-1440" font-family="Helvetica,sans-Serif" font-size="10.00">test_compress_l_fx</text>
<text text-anchor="middle" x="83" y="-1429" font-family="Helvetica,sans-Serif" font-size="10.00">_ncob_error_cases</text>
</a>
</g>
</g>
<!-- Node2&#45;&gt;Node29 -->
<g id="edge9" class="edge">
<title>Node2&#45;&gt;Node29</title>
<path fill="none" stroke="midnightblue" d="M206.37,-1452.75C184.33,-1449.91 159.87,-1446.76 138.65,-1444.03"/>
<polygon fill="midnightblue" stroke="midnightblue" points="205.94,-1456.22 216.31,-1454.03 206.83,-1449.28 205.94,-1456.22"/>
</g>
<!-- Node8 -->
<g id="node11" class="node">
<title>Node8</title>
<g id="a_node11"><a xlink:href="test__cmp__icu_8c_a13bf5ba0481601697942a0a485f7631c.html#a13bf5ba0481601697942a0a485f7631c" target="_top" xlink:title=" ">
<polygon fill="white" stroke="black" points="22.5,-1373 22.5,-1403 143.5,-1403 143.5,-1373 22.5,-1373"/>
<text text-anchor="start" x="30.5" y="-1391" font-family="Helvetica,sans-Serif" font-size="10.00">test_compress_offset</text>
<text text-anchor="middle" x="83" y="-1380" font-family="Helvetica,sans-Serif" font-size="10.00">_error_cases</text>
</a>
</g>
</g>
<!-- Node2&#45;&gt;Node8 -->
<g id="edge10" class="edge">
<title>Node2&#45;&gt;Node8</title>
<path fill="none" stroke="midnightblue" d="M242.37,-1446.82C221.58,-1436.66 192.42,-1423.04 166,-1413 156.82,-1409.51 146.92,-1406.16 137.29,-1403.1"/>
<polygon fill="midnightblue" stroke="midnightblue" points="241.05,-1450.08 251.57,-1451.37 244.15,-1443.8 241.05,-1450.08"/>
</g>
<!-- Node30 -->
<g id="node12" class="node">
<title>Node30</title>
<g id="a_node12"><a xlink:href="test__cmp__icu_8c_a28f0f3239f94a5d75189300dd3ed35fc.html#a28f0f3239f94a5d75189300dd3ed35fc" target="_top" xlink:title=" ">
<polygon fill="white" stroke="black" points="26.5,-1324 26.5,-1354 139.5,-1354 139.5,-1324 26.5,-1324"/>
<text text-anchor="start" x="34.5" y="-1342" font-family="Helvetica,sans-Serif" font-size="10.00">test_compress_s_fx</text>
<text text-anchor="middle" x="83" y="-1331" font-family="Helvetica,sans-Serif" font-size="10.00">_efx_error_cases</text>
</a>
</g>
</g>
<!-- Node2&#45;&gt;Node30 -->
<g id="edge11" class="edge">
<title>Node2&#45;&gt;Node30</title>
<path fill="none" stroke="midnightblue" d="M256.38,-1443.77C237.81,-1422.16 203.13,-1385.36 166,-1364 157.87,-1359.32 148.78,-1355.44 139.69,-1352.23"/>
<polygon fill="midnightblue" stroke="midnightblue" points="253.78,-1446.11 262.9,-1451.5 259.13,-1441.6 253.78,-1446.11"/>
</g>
<!-- Node31 -->
<g id="node13" class="node">
<title>Node31</title>
<g id="a_node13"><a xlink:href="test__cmp__icu_8c_a90fd6057131bbf0c9b398c9c99bea3f2.html#a90fd6057131bbf0c9b398c9c99bea3f2" target="_top" xlink:title=" ">
<polygon fill="white" stroke="black" points="5,-1275 5,-1305 161,-1305 161,-1275 5,-1275"/>
<text text-anchor="start" x="13" y="-1293" font-family="Helvetica,sans-Serif" font-size="10.00">test_compress_s_fx</text>
<text text-anchor="middle" x="83" y="-1282" font-family="Helvetica,sans-Serif" font-size="10.00">_efx_ncob_ecob_error_cases</text>
</a>
</g>
</g>
<!-- Node2&#45;&gt;Node31 -->
<g id="edge12" class="edge">
<title>Node2&#45;&gt;Node31</title>
<path fill="none" stroke="midnightblue" d="M261.89,-1441.79C246.91,-1410.55 213.09,-1348.81 166,-1315 160.68,-1311.18 154.77,-1307.94 148.62,-1305.18"/>
<polygon fill="midnightblue" stroke="midnightblue" points="258.85,-1443.55 266.24,-1451.14 265.19,-1440.59 258.85,-1443.55"/>
</g>
<!-- Node34 -->
<g id="node14" class="node">
<title>Node34</title>
<g id="a_node14"><a xlink:href="test__cmp__icu_8c_a70a6d23f621dd0ce0ffb110b9c77116f.html#a70a6d23f621dd0ce0ffb110b9c77116f" target="_top" xlink:title=" ">
<polygon fill="white" stroke="black" points="26.5,-1226 26.5,-1256 139.5,-1256 139.5,-1226 26.5,-1226"/>
<text text-anchor="start" x="34.5" y="-1244" font-family="Helvetica,sans-Serif" font-size="10.00">test_compress_s_fx</text>
<text text-anchor="middle" x="83" y="-1233" font-family="Helvetica,sans-Serif" font-size="10.00">_ncob_error_cases</text>
</a>
</g>
</g>
<!-- Node2&#45;&gt;Node34 -->
<g id="edge13" class="edge">
<title>Node2&#45;&gt;Node34</title>
<path fill="none" stroke="midnightblue" d="M265.49,-1441.52C254.41,-1402.34 224.07,-1313.67 166,-1266 158.41,-1259.77 149.28,-1255.09 139.91,-1251.57"/>
<polygon fill="midnightblue" stroke="midnightblue" points="262.12,-1442.45 268.11,-1451.19 268.87,-1440.62 262.12,-1442.45"/>
</g>
<!-- Node9 -->
<g id="node15" class="node">
<title>Node9</title>
<g id="a_node15"><a xlink:href="test__cmp__icu_8c_aee4858f3ea226c6da9e4a9ed54475b1d.html#aee4858f3ea226c6da9e4a9ed54475b1d" target="_top" xlink:title=" ">
<polygon fill="white" stroke="black" points="13.5,-1177 13.5,-1207 152.5,-1207 152.5,-1177 13.5,-1177"/>
<text text-anchor="start" x="21.5" y="-1195" font-family="Helvetica,sans-Serif" font-size="10.00">test_compress_smearing</text>
<text text-anchor="middle" x="83" y="-1184" font-family="Helvetica,sans-Serif" font-size="10.00">_error_cases</text>
</a>
</g>
</g>
<!-- Node2&#45;&gt;Node9 -->
<g id="edge14" class="edge">
<title>Node2&#45;&gt;Node9</title>
<path fill="none" stroke="midnightblue" d="M267.75,-1441.23C260.27,-1395.01 235.26,-1279.12 166,-1217 161.68,-1213.12 156.77,-1209.85 151.56,-1207.08"/>
<polygon fill="midnightblue" stroke="midnightblue" points="264.33,-1442.04 269.29,-1451.4 271.25,-1440.99 264.33,-1442.04"/>
</g>
<!-- Node63 -->
<g id="node17" class="node">
<title>Node63</title>
<g id="a_node17"><a xlink:href="decmp_8c_ae8bbe9e530e670af67db5d739f15f120.html#ae8bbe9e530e670af67db5d739f15f120" target="_top" xlink:title="decompress N&#45;CAM background data">
<polygon fill="white" stroke="red" points="14,-1138.5 14,-1157.5 152,-1157.5 152,-1138.5 14,-1138.5"/>
<text text-anchor="middle" x="83" y="-1145.5" font-family="Helvetica,sans-Serif" font-size="10.00">decompress_background</text>
</a>
</g>
</g>
<!-- Node62&#45;&gt;Node63 -->
<g id="edge16" class="edge">
<title>Node62&#45;&gt;Node63</title>
<path fill="none" stroke="midnightblue" d="M267.79,-764.06C257.71,-835.6 220.22,-1076.77 166,-1129 161.9,-1132.95 157.14,-1136.14 152.02,-1138.71"/>
<polygon fill="midnightblue" stroke="midnightblue" points="271.31,-764.14 269.21,-753.75 264.38,-763.18 271.31,-764.14"/>
</g>
<!-- Node64 -->
<g id="node18" class="node">
<title>Node64</title>
<g id="a_node18"><a xlink:href="decmp_8c_ac44d884cb830d9b0dbbca34c6db2de7d.html#ac44d884cb830d9b0dbbca34c6db2de7d" target="_top" xlink:title="decompress fast normal light flux (F_FX) data">
<polygon fill="white" stroke="red" points="33,-1100.5 33,-1119.5 133,-1119.5 133,-1100.5 33,-1100.5"/>
<text text-anchor="middle" x="83" y="-1107.5" font-family="Helvetica,sans-Serif" font-size="10.00">decompress_f_fx</text>
</a>
</g>
</g>
<!-- Node62&#45;&gt;Node64 -->
<g id="edge17" class="edge">
<title>Node62&#45;&gt;Node64</title>
<path fill="none" stroke="midnightblue" d="M270.93,-764.03C271.04,-823.46 262.83,-1000.25 166,-1091 157.04,-1099.39 145.14,-1104.33 133.18,-1107.16"/>
<polygon fill="midnightblue" stroke="midnightblue" points="274.42,-763.74 270.82,-753.77 267.42,-763.81 274.42,-763.74"/>
</g>
<!-- Node65 -->
<g id="node19" class="node">
<title>Node65</title>
<g id="a_node19"><a xlink:href="decmp_8c_a84e912fefa1f49f27885af0d855a4989.html#a84e912fefa1f49f27885af0d855a4989" target="_top" xlink:title="decompress F_FX_EFX data">
<polygon fill="white" stroke="red" points="22.5,-1062.5 22.5,-1081.5 143.5,-1081.5 143.5,-1062.5 22.5,-1062.5"/>
<text text-anchor="middle" x="83" y="-1069.5" font-family="Helvetica,sans-Serif" font-size="10.00">decompress_f_fx_efx</text>
</a>
</g>
</g>
<!-- Node62&#45;&gt;Node65 -->
<g id="edge18" class="edge">
<title>Node62&#45;&gt;Node65</title>
<path fill="none" stroke="midnightblue" d="M270.08,-763.65C267.81,-818.37 253.56,-973.66 166,-1053 159.61,-1058.79 151.81,-1062.92 143.59,-1065.85"/>
<polygon fill="midnightblue" stroke="midnightblue" points="273.59,-763.67 270.41,-753.57 266.59,-763.45 273.59,-763.67"/>
</g>
<!-- Node66 -->
<g id="node20" class="node">
<title>Node66</title>
<g id="a_node20"><a xlink:href="decmp_8c_aac2934ca104c49490be71c4966d2b173.html#aac2934ca104c49490be71c4966d2b173" target="_top" xlink:title="decompress short F_FX_NCOB_ECOB data">
<polygon fill="white" stroke="red" points="22.5,-1013 22.5,-1043 143.5,-1043 143.5,-1013 22.5,-1013"/>
<text text-anchor="start" x="30.5" y="-1031" font-family="Helvetica,sans-Serif" font-size="10.00">decompress_f_fx_efx</text>
<text text-anchor="middle" x="83" y="-1020" font-family="Helvetica,sans-Serif" font-size="10.00">_ncob_ecob</text>
</a>
</g>
</g>
<!-- Node62&#45;&gt;Node66 -->
<g id="edge19" class="edge">
<title>Node62&#45;&gt;Node66</title>
<path fill="none" stroke="midnightblue" d="M268.31,-763.68C261.92,-811.79 238.82,-936.29 166,-1003 159.63,-1008.83 151.94,-1013.3 143.86,-1016.73"/>
<polygon fill="midnightblue" stroke="midnightblue" points="271.8,-764 269.55,-753.65 264.85,-763.15 271.8,-764"/>
</g>
<!-- Node67 -->
<g id="node21" class="node">
<title>Node67</title>
<g id="a_node21"><a xlink:href="decmp_8c_a8310f64826697fb15c590854c08b3ad9.html#a8310f64826697fb15c590854c08b3ad9" target="_top" xlink:title="decompress short F_FX_NCOB data">
<polygon fill="white" stroke="red" points="19,-974.5 19,-993.5 147,-993.5 147,-974.5 19,-974.5"/>
<text text-anchor="middle" x="83" y="-981.5" font-family="Helvetica,sans-Serif" font-size="10.00">decompress_f_fx_ncob</text>
</a>
</g>
</g>
<!-- Node62&#45;&gt;Node67 -->
<g id="edge20" class="edge">
<title>Node62&#45;&gt;Node67</title>
<path fill="none" stroke="midnightblue" d="M267.13,-763.7C258.59,-807.2 231.96,-911.83 166,-965 160.42,-969.49 153.98,-972.96 147.2,-975.64"/>
<polygon fill="midnightblue" stroke="midnightblue" points="270.58,-764.27 268.96,-753.8 263.7,-763 270.58,-764.27"/>
</g>
<!-- Node68 -->
<g id="node22" class="node">
<title>Node68</title>
<g id="a_node22"><a xlink:href="decmp_8c_a62e230570f1d23f56fbe10fb238dbf1d.html#a62e230570f1d23f56fbe10fb238dbf1d" target="_top" xlink:title="decompress imagette data">
<polygon fill="white" stroke="red" points="20.5,-936.5 20.5,-955.5 145.5,-955.5 145.5,-936.5 20.5,-936.5"/>
<text text-anchor="middle" x="83" y="-943.5" font-family="Helvetica,sans-Serif" font-size="10.00">decompress_imagette</text>
</a>
</g>
</g>
<!-- Node62&#45;&gt;Node68 -->
<g id="edge21" class="edge">
<title>Node62&#45;&gt;Node68</title>
<path fill="none" stroke="midnightblue" d="M265.08,-763.63C253.55,-801.5 222.9,-884.65 166,-927 159.9,-931.54 152.9,-935.01 145.61,-937.68"/>
<polygon fill="midnightblue" stroke="midnightblue" points="268.5,-764.4 267.94,-753.82 261.78,-762.44 268.5,-764.4"/>
</g>
<!-- Node70 -->
<g id="node23" class="node">
<title>Node70</title>
<g id="a_node23"><a xlink:href="decmp_8c_a75f3c5c08234bce92e84d07a93e9a77d.html#a75f3c5c08234bce92e84d07a93e9a77d" target="_top" xlink:title="decompress long normal light flux (L_FX) data">
<polygon fill="white" stroke="red" points="33.5,-898.5 33.5,-917.5 132.5,-917.5 132.5,-898.5 33.5,-898.5"/>
<text text-anchor="middle" x="83" y="-905.5" font-family="Helvetica,sans-Serif" font-size="10.00">decompress_l_fx</text>
</a>
</g>
</g>
<!-- Node62&#45;&gt;Node70 -->
<g id="edge22" class="edge">
<title>Node62&#45;&gt;Node70</title>
<path fill="none" stroke="midnightblue" d="M262.32,-762.98C247.76,-794.39 214.28,-856.88 166,-889 156.14,-895.56 144.32,-899.87 132.75,-902.69"/>
<polygon fill="midnightblue" stroke="midnightblue" points="265.62,-764.17 266.52,-753.61 259.24,-761.3 265.62,-764.17"/>
</g>
<!-- Node71 -->
<g id="node24" class="node">
<title>Node71</title>
<g id="a_node24"><a xlink:href="decmp_8c_aa06fff345fa7fd62fb4fd7a619c118fe.html#aa06fff345fa7fd62fb4fd7a619c118fe" target="_top" xlink:title="decompress L_FX_EFX data">
<polygon fill="white" stroke="red" points="23,-860.5 23,-879.5 143,-879.5 143,-860.5 23,-860.5"/>
<text text-anchor="middle" x="83" y="-867.5" font-family="Helvetica,sans-Serif" font-size="10.00">decompress_l_fx_efx</text>
</a>
</g>
</g>
<!-- Node62&#45;&gt;Node71 -->
<g id="edge23" class="edge">
<title>Node62&#45;&gt;Node71</title>
<path fill="none" stroke="midnightblue" d="M258.07,-762.06C240.46,-786.2 205.93,-828.53 166,-851 159,-854.94 151.22,-858.07 143.32,-860.54"/>
<polygon fill="midnightblue" stroke="midnightblue" points="261.02,-763.96 263.96,-753.78 255.31,-759.9 261.02,-763.96"/>
</g>
<!-- Node72 -->
<g id="node25" class="node">
<title>Node72</title>
<g id="a_node25"><a xlink:href="decmp_8c_a36a5692cbd5d1e46805ba3f1dac23f60.html#a36a5692cbd5d1e46805ba3f1dac23f60" target="_top" xlink:title="decompress L_FX_EFX_NCOB_ECOB data">
<polygon fill="white" stroke="red" points="23,-811 23,-841 143,-841 143,-811 23,-811"/>
<text text-anchor="start" x="31" y="-829" font-family="Helvetica,sans-Serif" font-size="10.00">decompress_l_fx_efx</text>
<text text-anchor="middle" x="83" y="-818" font-family="Helvetica,sans-Serif" font-size="10.00">_ncob_ecob</text>
</a>
</g>
</g>
<!-- Node62&#45;&gt;Node72 -->
<g id="edge24" class="edge">
<title>Node62&#45;&gt;Node72</title>
<path fill="none" stroke="midnightblue" d="M246.66,-758.83C225.91,-771.28 194.75,-788.92 166,-801 157.36,-804.63 148,-807.99 138.81,-810.99"/>
<polygon fill="midnightblue" stroke="midnightblue" points="248.68,-761.7 255.41,-753.51 245.04,-755.71 248.68,-761.7"/>
</g>
<!-- Node73 -->
<g id="node26" class="node">
<title>Node73</title>
<g id="a_node26"><a xlink:href="decmp_8c_a5883c910a0e8e829e60844e78da88e96.html#a5883c910a0e8e829e60844e78da88e96" target="_top" xlink:title="decompress L_FX_NCOB data">
<polygon fill="white" stroke="red" points="19,-772.5 19,-791.5 147,-791.5 147,-772.5 19,-772.5"/>
<text text-anchor="middle" x="83" y="-779.5" font-family="Helvetica,sans-Serif" font-size="10.00">decompress_l_fx_ncob</text>
</a>
</g>
</g>
<!-- Node62&#45;&gt;Node73 -->
<g id="edge25" class="edge">
<title>Node62&#45;&gt;Node73</title>
<path fill="none" stroke="midnightblue" d="M213.52,-755.61C187,-761.01 155.83,-767.36 130.72,-772.48"/>
<polygon fill="midnightblue" stroke="midnightblue" points="214.34,-759.02 223.44,-753.59 212.94,-752.16 214.34,-759.02"/>
</g>
<!-- Node74 -->
<g id="node27" class="node">
<title>Node74</title>
<g id="a_node27"><a xlink:href="decmp_8c_a47d0a8b2f718f7d4659a34a6b516c79d.html#a47d0a8b2f718f7d4659a34a6b516c79d" target="_top" xlink:title="decompress N&#45;CAM and F&#45;CAM offset data">
<polygon fill="white" stroke="red" points="28.5,-734.5 28.5,-753.5 137.5,-753.5 137.5,-734.5 28.5,-734.5"/>
<text text-anchor="middle" x="83" y="-741.5" font-family="Helvetica,sans-Serif" font-size="10.00">decompress_offset</text>
</a>
</g>
</g>
<!-- Node62&#45;&gt;Node74 -->
<g id="edge26" class="edge">
<title>Node62&#45;&gt;Node74</title>
<path fill="none" stroke="midnightblue" d="M192.26,-744C173.86,-744 154.67,-744 137.63,-744"/>
<polygon fill="midnightblue" stroke="midnightblue" points="192.38,-747.5 202.38,-744 192.38,-740.5 192.38,-747.5"/>
</g>
<!-- Node75 -->
<g id="node28" class="node">
<title>Node75</title>
<g id="a_node28"><a xlink:href="decmp_8c_ad57c4f63787216adcca82dca5a2c99ae.html#ad57c4f63787216adcca82dca5a2c99ae" target="_top" xlink:title="decompress short normal light flux (S_FX) data">
<polygon fill="white" stroke="red" points="32.5,-696.5 32.5,-715.5 133.5,-715.5 133.5,-696.5 32.5,-696.5"/>
<text text-anchor="middle" x="83" y="-703.5" font-family="Helvetica,sans-Serif" font-size="10.00">decompress_s_fx</text>
</a>
</g>
</g>
<!-- Node62&#45;&gt;Node75 -->
<g id="edge27" class="edge">
<title>Node62&#45;&gt;Node75</title>
<path fill="none" stroke="midnightblue" d="M213.52,-732.39C187,-726.99 155.83,-720.64 130.72,-715.52"/>
<polygon fill="midnightblue" stroke="midnightblue" points="212.94,-735.84 223.44,-734.41 214.34,-728.98 212.94,-735.84"/>
</g>
<!-- Node76 -->
<g id="node29" class="node">
<title>Node76</title>
<g id="a_node29"><a xlink:href="decmp_8c_ae950fe1a6eeb3224f3491439a7149a1f.html#ae950fe1a6eeb3224f3491439a7149a1f" target="_top" xlink:title="decompress S_FX_EFX data">
<polygon fill="white" stroke="red" points="22,-658.5 22,-677.5 144,-677.5 144,-658.5 22,-658.5"/>
<text text-anchor="middle" x="83" y="-665.5" font-family="Helvetica,sans-Serif" font-size="10.00">decompress_s_fx_efx</text>
</a>
</g>
</g>
<!-- Node62&#45;&gt;Node76 -->
<g id="edge28" class="edge">
<title>Node62&#45;&gt;Node76</title>
<path fill="none" stroke="midnightblue" d="M247.21,-728.89C226.59,-716.11 195.31,-698.15 166,-687 156.17,-683.26 145.38,-680.12 134.95,-677.54"/>
<polygon fill="midnightblue" stroke="midnightblue" points="245.56,-731.99 255.89,-734.35 249.29,-726.06 245.56,-731.99"/>
</g>
<!-- Node77 -->
<g id="node30" class="node">
<title>Node77</title>
<g id="a_node30"><a xlink:href="decmp_8c_aee9e79676f49da2b257ad810955e4f09.html#aee9e79676f49da2b257ad810955e4f09" target="_top" xlink:title="decompress short S_FX_NCOB_ECOB data">
<polygon fill="white" stroke="red" points="22,-609 22,-639 144,-639 144,-609 22,-609"/>
<text text-anchor="start" x="30" y="-627" font-family="Helvetica,sans-Serif" font-size="10.00">decompress_s_fx_efx</text>
<text text-anchor="middle" x="83" y="-616" font-family="Helvetica,sans-Serif" font-size="10.00">_ncob_ecob</text>
</a>
</g>
</g>
<!-- Node62&#45;&gt;Node77 -->
<g id="edge29" class="edge">
<title>Node62&#45;&gt;Node77</title>
<path fill="none" stroke="midnightblue" d="M256.02,-726.81C237.29,-705.62 202.69,-669.86 166,-649 159.27,-645.18 151.89,-641.87 144.41,-639.04"/>
<polygon fill="midnightblue" stroke="midnightblue" points="253.41,-729.15 262.61,-734.41 258.7,-724.56 253.41,-729.15"/>
</g>
<!-- Node78 -->
<g id="node31" class="node">
<title>Node78</title>
<g id="a_node31"><a xlink:href="decmp_8c_a5075a002558af814210bd1c186a244f0.html#a5075a002558af814210bd1c186a244f0" target="_top" xlink:title="decompress short S_FX_NCOB data">
<polygon fill="white" stroke="red" points="18,-570.5 18,-589.5 148,-589.5 148,-570.5 18,-570.5"/>
<text text-anchor="middle" x="83" y="-577.5" font-family="Helvetica,sans-Serif" font-size="10.00">decompress_s_fx_ncob</text>
</a>
</g>
</g>
<!-- Node62&#45;&gt;Node78 -->
<g id="edge30" class="edge">
<title>Node62&#45;&gt;Node78</title>
<path fill="none" stroke="midnightblue" d="M262.24,-725.21C247.57,-694.11 213.93,-632.17 166,-600 159.55,-595.67 152.26,-592.28 144.75,-589.62"/>
<polygon fill="midnightblue" stroke="midnightblue" points="259.14,-726.85 266.48,-734.49 265.51,-723.94 259.14,-726.85"/>
</g>
<!-- Node79 -->
<g id="node32" class="node">
<title>Node79</title>
<g id="a_node32"><a xlink:href="decmp_8c_ab043a8a939e8818cf2875aecec205bb9.html#ab043a8a939e8818cf2875aecec205bb9" target="_top" xlink:title="decompress N&#45;CAM smearing data">
<polygon fill="white" stroke="red" points="19.5,-532.5 19.5,-551.5 146.5,-551.5 146.5,-532.5 19.5,-532.5"/>
<text text-anchor="middle" x="83" y="-539.5" font-family="Helvetica,sans-Serif" font-size="10.00">decompress_smearing</text>
</a>
</g>
</g>
<!-- Node62&#45;&gt;Node79 -->
<g id="edge31" class="edge">
<title>Node62&#45;&gt;Node79</title>
<path fill="none" stroke="midnightblue" d="M265.08,-724.37C253.55,-686.5 222.9,-603.35 166,-561 160.26,-556.72 153.71,-553.39 146.87,-550.79"/>
<polygon fill="midnightblue" stroke="midnightblue" points="261.78,-725.56 267.94,-734.18 268.5,-723.6 261.78,-725.56"/>
</g>
<!-- Node80 -->
<g id="node33" class="node">
<title>Node80</title>
<g id="a_node33"><a xlink:href="test__decmp_8c_a2cf11f635ba073b682cac0e4ef9dfdbc.html#a2cf11f635ba073b682cac0e4ef9dfdbc" target="_top" xlink:title=" ">
<polygon fill="white" stroke="black" points="29.5,-494.5 29.5,-513.5 136.5,-513.5 136.5,-494.5 29.5,-494.5"/>
<text text-anchor="middle" x="83" y="-501.5" font-family="Helvetica,sans-Serif" font-size="10.00">test_decode_multi</text>
</a>
</g>
</g>
<!-- Node62&#45;&gt;Node80 -->
<g id="edge32" class="edge">
<title>Node62&#45;&gt;Node80</title>
<path fill="none" stroke="midnightblue" d="M267.13,-724.3C258.59,-680.8 231.96,-576.17 166,-523 157.58,-516.21 147.18,-511.76 136.64,-508.87"/>
<polygon fill="midnightblue" stroke="midnightblue" points="263.7,-725 268.96,-734.2 270.58,-723.73 263.7,-725"/>
</g>
<!-- Node81 -->
<g id="node34" class="node">
<title>Node81</title>
<g id="a_node34"><a xlink:href="test__decmp_8c_a7ada560b6c0070a378eeff45b9dae044.html#a7ada560b6c0070a378eeff45b9dae044" target="_top" xlink:title=" ">
<polygon fill="white" stroke="black" points="32,-456.5 32,-475.5 134,-475.5 134,-456.5 32,-456.5"/>
<text text-anchor="middle" x="83" y="-463.5" font-family="Helvetica,sans-Serif" font-size="10.00">test_decode_zero</text>
</a>
</g>
</g>
<!-- Node62&#45;&gt;Node81 -->
<g id="edge33" class="edge">
<title>Node62&#45;&gt;Node81</title>
<path fill="none" stroke="midnightblue" d="M268.63,-724.34C262.93,-675.75 241.22,-549.33 166,-485 157.12,-477.4 145.78,-472.7 134.38,-469.82"/>
<polygon fill="midnightblue" stroke="midnightblue" points="265.17,-724.88 269.72,-734.45 272.13,-724.13 265.17,-724.88"/>
</g>
<!-- Node82 -->
<g id="node35" class="node">
<title>Node82</title>
<g id="a_node35"><a xlink:href="test__decmp_8c_a29cac1eb3ce172274827f3bb9481294c.html#a29cac1eb3ce172274827f3bb9481294c" target="_top" xlink:title=" ">
<polygon fill="white" stroke="black" points="16,-418.5 16,-437.5 150,-437.5 150,-418.5 16,-418.5"/>
<text text-anchor="middle" x="83" y="-425.5" font-family="Helvetica,sans-Serif" font-size="10.00">test_multi_refill_needed</text>
</a>
</g>
</g>
<!-- Node62&#45;&gt;Node82 -->
<g id="edge34" class="edge">
<title>Node62&#45;&gt;Node82</title>
<path fill="none" stroke="midnightblue" d="M269.76,-724.04C266.64,-670.49 250.43,-522.57 166,-447 161.32,-442.81 155.9,-439.49 150.11,-436.87"/>
<polygon fill="midnightblue" stroke="midnightblue" points="266.27,-724.42 270.26,-734.24 273.27,-724.08 266.27,-724.42"/>
</g>
<!-- Node83 -->
<g id="node36" class="node">
<title>Node83</title>
<g id="a_node36"><a xlink:href="test__decmp_8c_a58e183d189a8362c6690c0a6205b6dcc.html#a58e183d189a8362c6690c0a6205b6dcc" target="_top" xlink:title=" ">
<polygon fill="white" stroke="black" points="18,-380.5 18,-399.5 148,-399.5 148,-380.5 18,-380.5"/>
<text text-anchor="middle" x="83" y="-387.5" font-family="Helvetica,sans-Serif" font-size="10.00">test_zero_refill_needed</text>
</a>
</g>
</g>
<!-- Node62&#45;&gt;Node83 -->
<g id="edge35" class="edge">
<title>Node62&#45;&gt;Node83</title>
<path fill="none" stroke="midnightblue" d="M270.68,-724.26C270.07,-666.46 259.99,-496.22 166,-409 160.86,-404.23 154.76,-400.58 148.25,-397.8"/>
<polygon fill="midnightblue" stroke="midnightblue" points="267.18,-724.26 270.7,-734.26 274.18,-724.25 267.18,-724.26"/>
</g>
<!-- Node85 -->
<g id="node38" class="node">
<title>Node85</title>
<g id="a_node38"><a xlink:href="cmp__icu_8c_adcd70e1df20dbd835f12f1518e0e5913.html#adcd70e1df20dbd835f12f1518e0e5913" target="_top" xlink:title="compress background data from the normal and fast cameras">
<polygon fill="white" stroke="red" points="20,-342.5 20,-361.5 146,-361.5 146,-342.5 20,-342.5"/>
<text text-anchor="middle" x="83" y="-349.5" font-family="Helvetica,sans-Serif" font-size="10.00">compress_background</text>
</a>
</g>
</g>
<!-- Node84&#45;&gt;Node85 -->
<g id="edge37" class="edge">
<title>Node84&#45;&gt;Node85</title>
<path fill="none" stroke="midnightblue" d="M256.53,-255.26C238.1,-276.83 203.58,-313.31 166,-333 158.62,-336.87 150.46,-339.95 142.24,-342.42"/>
<polygon fill="midnightblue" stroke="midnightblue" points="259.26,-257.45 262.98,-247.53 253.89,-252.96 259.26,-257.45"/>
</g>
<!-- Node86 -->
<g id="node39" class="node">
<title>Node86</title>
<g id="a_node39"><a xlink:href="cmp__icu_8c_a6579c62abdb392078ff769daed82e3de.html#a6579c62abdb392078ff769daed82e3de" target="_top" xlink:title="compress F_FX data">
<polygon fill="white" stroke="red" points="39,-304.5 39,-323.5 127,-323.5 127,-304.5 39,-304.5"/>
<text text-anchor="middle" x="83" y="-311.5" font-family="Helvetica,sans-Serif" font-size="10.00">compress_f_fx</text>
</a>
</g>
</g>
<!-- Node84&#45;&gt;Node86 -->
<g id="edge38" class="edge">
<title>Node84&#45;&gt;Node86</title>
<path fill="none" stroke="midnightblue" d="M247.21,-253.11C226.59,-265.89 195.31,-283.85 166,-295 153.71,-299.68 139.92,-303.41 127.22,-306.29"/>
<polygon fill="midnightblue" stroke="midnightblue" points="249.29,-255.94 255.89,-247.65 245.56,-250.01 249.29,-255.94"/>
</g>
<!-- Node87 -->
<g id="node40" class="node">
<title>Node87</title>
<g id="a_node40"><a xlink:href="cmp__icu_8c_a62fbfd95fc2341952d7bea6e3254524e.html#a62fbfd95fc2341952d7bea6e3254524e" target="_top" xlink:title="compress F_FX_EFX data">
<polygon fill="white" stroke="red" points="28.5,-266.5 28.5,-285.5 137.5,-285.5 137.5,-266.5 28.5,-266.5"/>
<text text-anchor="middle" x="83" y="-273.5" font-family="Helvetica,sans-Serif" font-size="10.00">compress_f_fx_efx</text>
</a>
</g>
</g>
<!-- Node84&#45;&gt;Node87 -->
<g id="edge39" class="edge">
<title>Node84&#45;&gt;Node87</title>
<path fill="none" stroke="midnightblue" d="M213.52,-249.61C187,-255.01 155.83,-261.36 130.72,-266.48"/>
<polygon fill="midnightblue" stroke="midnightblue" points="214.34,-253.02 223.44,-247.59 212.94,-246.16 214.34,-253.02"/>
</g>
<!-- Node88 -->
<g id="node41" class="node">
<title>Node88</title>
<g id="a_node41"><a xlink:href="cmp__icu_8c_a3df4e4d9132cd8f7b230390c2e652b98.html#a3df4e4d9132cd8f7b230390c2e652b98" target="_top" xlink:title="compress F_FX_EFX_NCOB_ECOB data">
<polygon fill="white" stroke="red" points="0,-228.5 0,-247.5 166,-247.5 166,-228.5 0,-228.5"/>
<text text-anchor="middle" x="83" y="-235.5" font-family="Helvetica,sans-Serif" font-size="10.00">compress_f_fx_efx_ncob_ecob</text>
</a>
</g>
</g>
<!-- Node84&#45;&gt;Node88 -->
<g id="edge40" class="edge">
<title>Node84&#45;&gt;Node88</title>
<path fill="none" stroke="midnightblue" d="M192.34,-238C183.7,-238 174.89,-238 166.2,-238"/>
<polygon fill="midnightblue" stroke="midnightblue" points="192.38,-241.5 202.38,-238 192.38,-234.5 192.38,-241.5"/>
</g>
<!-- Node89 -->
<g id="node42" class="node">
<title>Node89</title>
<g id="a_node42"><a xlink:href="cmp__icu_8c_a4012970a57d0030a74668735dea00172.html#a4012970a57d0030a74668735dea00172" target="_top" xlink:title="compress F_FX_NCOB data">
<polygon fill="white" stroke="red" points="25,-190.5 25,-209.5 141,-209.5 141,-190.5 25,-190.5"/>
<text text-anchor="middle" x="83" y="-197.5" font-family="Helvetica,sans-Serif" font-size="10.00">compress_f_fx_ncob</text>
</a>
</g>
</g>
<!-- Node84&#45;&gt;Node89 -->
<g id="edge41" class="edge">
<title>Node84&#45;&gt;Node89</title>
<path fill="none" stroke="midnightblue" d="M213.52,-226.39C187,-220.99 155.83,-214.64 130.72,-209.52"/>
<polygon fill="midnightblue" stroke="midnightblue" points="212.94,-229.84 223.44,-228.41 214.34,-222.98 212.94,-229.84"/>
</g>
<!-- Node90 -->
<g id="node43" class="node">
<title>Node90</title>
<g id="a_node43"><a xlink:href="cmp__icu_8c_a0c612434a54dd796d5abc627c29c9421.html#a0c612434a54dd796d5abc627c29c9421" target="_top" xlink:title="compress imagette data">
<polygon fill="white" stroke="red" points="26.5,-152.5 26.5,-171.5 139.5,-171.5 139.5,-152.5 26.5,-152.5"/>
<text text-anchor="middle" x="83" y="-159.5" font-family="Helvetica,sans-Serif" font-size="10.00">compress_imagette</text>
</a>
</g>
</g>
<!-- Node84&#45;&gt;Node90 -->
<g id="edge42" class="edge">
<title>Node84&#45;&gt;Node90</title>
<path fill="none" stroke="midnightblue" d="M213.53,-224.84C209.52,-223.12 205.63,-221.18 202,-219 182.06,-207.01 186.19,-192.56 166,-181 158.01,-176.43 148.99,-172.95 139.92,-170.31"/>
<polygon fill="midnightblue" stroke="midnightblue" points="212.45,-228.18 223.04,-228.48 214.95,-221.64 212.45,-228.18"/>
</g>
<!-- Node91 -->
<g id="node44" class="node">
<title>Node91</title>
<g id="a_node44"><a xlink:href="cmp__icu_8c_a7b02a8c025e95748452f82c4f49a6711.html#a7b02a8c025e95748452f82c4f49a6711" target="_top" xlink:title="compress L_FX data">
<polygon fill="white" stroke="red" points="39.5,-114.5 39.5,-133.5 126.5,-133.5 126.5,-114.5 39.5,-114.5"/>
<text text-anchor="middle" x="83" y="-121.5" font-family="Helvetica,sans-Serif" font-size="10.00">compress_l_fx</text>
</a>
</g>
</g>
<!-- Node84&#45;&gt;Node91 -->
<g id="edge43" class="edge">
<title>Node84&#45;&gt;Node91</title>
<path fill="none" stroke="midnightblue" d="M208.46,-223.67C206.19,-222.25 204.02,-220.7 202,-219 173.4,-194.94 195.11,-166.44 166,-143 154.96,-134.11 140.51,-129.23 126.83,-126.59"/>
<polygon fill="midnightblue" stroke="midnightblue" points="207.16,-226.94 217.64,-228.46 210.4,-220.73 207.16,-226.94"/>
</g>
<!-- Node101&#45;&gt;Node104 -->
<g id="edge45" class="edge">
<title>Node101&#45;&gt;Node104</title>
<path fill="none" stroke="midnightblue" d="M217.98,-186.43C212.21,-183.58 206.73,-180.14 202,-176 175.38,-152.69 193.85,-126.82 166,-105 159.56,-99.95 152.01,-96.2 144.15,-93.43"/>
<polygon fill="midnightblue" stroke="midnightblue" points="216.65,-189.67 227.21,-190.45 219.44,-183.25 216.65,-189.67"/>
</g>
</g>
</svg>
        <g id="navigator" transform="translate(0 0)" fill="#404254">
                <rect fill="#f2f5e9" fill-opacity="0.5" stroke="#606060" stroke-width=".5" x="0" y="0" width="60" height="60"/>
                <use id="zoomplus" xlink:href="#zoomPlus" x="17" y="9" onmousedown="handleZoom(evt,'in')"/>
                <use id="zoomminus" xlink:href="#zoomMin" x="42" y="9" onmousedown="handleZoom(evt,'out')"/>
                <use id="reset" xlink:href="#resetDef" x="30" y="36" onmousedown="handleReset()"/>
                <g id="arrowUp" xlink:href="#dirArrow" transform="translate(30 24)" onmousedown="handlePan(0,-1)">
                  <use xlink:href="#rim" fill="#404040">
                        <set attributeName="fill" to="#808080" begin="arrowUp.mouseover" end="arrowUp.mouseout"/>
                  </use>
                  <path fill="none" stroke="white" stroke-width="1.5" d="M0,-3.0v7 M-2.5,-0.5L0,-3.0L2.5,-0.5"/>
                </g>
                <g id="arrowRight" xlink:href="#dirArrow" transform="rotate(90) translate(36 -43)" onmousedown="handlePan(1,0)">
                  <use xlink:href="#rim" fill="#404040">
                        <set attributeName="fill" to="#808080" begin="arrowRight.mouseover" end="arrowRight.mouseout"/>
                  </use>
                  <path fill="none" stroke="white" stroke-width="1.5" d="M0,-3.0v7 M-2.5,-0.5L0,-3.0L2.5,-0.5"/>
                </g>
                <g id="arrowDown" xlink:href="#dirArrow" transform="rotate(180) translate(-30 -48)" onmousedown="handlePan(0,1)">
                  <use xlink:href="#rim" fill="#404040">
                        <set attributeName="fill" to="#808080" begin="arrowDown.mouseover" end="arrowDown.mouseout"/>
                  </use>
                  <path fill="none" stroke="white" stroke-width="1.5" d="M0,-3.0v7 M-2.5,-0.5L0,-3.0L2.5,-0.5"/>
                </g>
                <g id="arrowLeft" xlink:href="#dirArrow" transform="rotate(270) translate(-36 17)" onmousedown="handlePan(-1,0)">
                  <use xlink:href="#rim" fill="#404040">
                        <set attributeName="fill" to="#808080" begin="arrowLeft.mouseover" end="arrowLeft.mouseout"/>
                  </use>
                  <path fill="none" stroke="white" stroke-width="1.5" d="M0,-3.0v7 M-2.5,-0.5L0,-3.0L2.5,-0.5"/>
                </g>
        </g>
        <svg viewBox="0 0 15 15" width="100%" height="30px" preserveAspectRatio="xMaxYMin meet">
         <g id="arrow_out" transform="scale(0.3 0.3)">
          <a xlink:href="cmp__support_8c_a67b0e38ca0e68c282c89552daa61ffdf_a67b0e38ca0e68c282c89552daa61ffdf_icgraph_org.svg" target="_base">
           <rect id="button" ry="5" rx="5" y="6" x="6" height="38" width="38"
                fill="#f2f5e9" fill-opacity="0.5" stroke="#606060" stroke-width="1.0"/>
           <path id="arrow"
             d="M 11.500037,31.436501 C 11.940474,20.09759 22.043105,11.32322 32.158766,21.979434 L 37.068811,17.246167 C 37.068811,17.246167 37.088388,32 37.088388,32 L 22.160133,31.978069 C 22.160133,31.978069 26.997745,27.140456 26.997745,27.140456 C 18.528582,18.264221 13.291696,25.230495 11.500037,31.436501 z"
             style="fill:#404040;"/>
          </a>
         </g>
        </svg>
</svg>
