<?xml version="1.0" encoding="UTF-8" standalone="no"?>
<!DOCTYPE svg PUBLIC "-//W3C//DTD SVG 1.1//EN"
 "http://www.w3.org/Graphics/SVG/1.1/DTD/svg11.dtd">
<!-- Generated by graphviz version 2.43.0 (0)
 -->
<!-- Title: cmp_cfg_aux_is_invalid Pages: 1 -->
<svg width="666pt" height="116pt"
 viewBox="0.00 0.00 666.00 115.50" xmlns="http://www.w3.org/2000/svg" xmlns:xlink="http://www.w3.org/1999/xlink">
<g id="graph0" class="graph" transform="scale(1 1) rotate(0) translate(4 111.5)">
<title>cmp_cfg_aux_is_invalid</title>
<polygon fill="white" stroke="transparent" points="-4,4 -4,-111.5 662,-111.5 662,4 -4,4"/>
<!-- Node1 -->
<g id="node1" class="node">
<title>Node1</title>
<g id="a_node1"><a xlink:title="check if the auxiliary science specific compression parameters are invalid">
<polygon fill="#bfbfbf" stroke="black" points="0,-69 0,-88 133,-88 133,-69 0,-69"/>
<text text-anchor="middle" x="66.5" y="-76" font-family="Helvetica,sans-Serif" font-size="10.00">cmp_cfg_aux_is_invalid</text>
</a>
</g>
</g>
<!-- Node2 -->
<g id="node2" class="node">
<title>Node2</title>
<g id="a_node2"><a xlink:href="cmp__support_8c_ab7bfe528432579ce1b410441e03fd846.html#ab7bfe528432579ce1b410441e03fd846" target="_top" xlink:title="check if an auxiliary science compression data type is used">
<polygon fill="white" stroke="black" points="169,-88 169,-107 326,-107 326,-88 169,-88"/>
<text text-anchor="middle" x="247.5" y="-95" font-family="Helvetica,sans-Serif" font-size="10.00">cmp_aux_data_type_is_used</text>
</a>
</g>
</g>
<!-- Node1&#45;&gt;Node2 -->
<g id="edge1" class="edge">
<title>Node1&#45;&gt;Node2</title>
<path fill="none" stroke="midnightblue" d="M133.14,-85.47C141.46,-86.35 150.07,-87.26 158.67,-88.18"/>
<polygon fill="midnightblue" stroke="midnightblue" points="158.41,-91.67 168.73,-89.24 159.15,-84.71 158.41,-91.67"/>
</g>
<!-- Node3 -->
<g id="node3" class="node">
<title>Node3</title>
<g id="a_node3"><a xlink:href="cmp__support_8c_adbae174c7bd594fd05723ddc667f5b54.html#adbae174c7bd594fd05723ddc667f5b54" target="_top" xlink:title="check if the combination of the different compression parameters is invalid">
<polygon fill="white" stroke="black" points="186,-50 186,-69 309,-69 309,-50 186,-50"/>
<text text-anchor="middle" x="247.5" y="-57" font-family="Helvetica,sans-Serif" font-size="10.00">cmp_pars_are_invalid</text>
</a>
</g>
</g>
<!-- Node1&#45;&gt;Node3 -->
<g id="edge2" class="edge">
<title>Node1&#45;&gt;Node3</title>
<path fill="none" stroke="midnightblue" d="M133.14,-71.53C147.03,-70.06 161.74,-68.5 175.81,-67"/>
<polygon fill="midnightblue" stroke="midnightblue" points="176.35,-70.47 185.92,-65.93 175.61,-63.51 176.35,-70.47"/>
</g>
<!-- Node4 -->
<g id="node4" class="node">
<title>Node4</title>
<g id="a_node4"><a xlink:href="cmp__support_8c_aefdc949ff52e4920859d0bd82f5aa5aa.html#aefdc949ff52e4920859d0bd82f5aa5aa" target="_top" xlink:title="get the maximum valid spill threshold value for a non&#45;imagette compression in diff or model mode">
<polygon fill="white" stroke="black" points="377.5,-88 377.5,-107 487.5,-107 487.5,-88 377.5,-88"/>
<text text-anchor="middle" x="432.5" y="-95" font-family="Helvetica,sans-Serif" font-size="10.00">cmp_icu_max_spill</text>
</a>
</g>
</g>
<!-- Node3&#45;&gt;Node4 -->
<g id="edge3" class="edge">
<title>Node3&#45;&gt;Node4</title>
<path fill="none" stroke="midnightblue" d="M294.68,-69.09C319.26,-74.19 349.69,-80.51 375.6,-85.89"/>
<polygon fill="midnightblue" stroke="midnightblue" points="375.15,-89.37 385.65,-87.98 376.57,-82.52 375.15,-89.37"/>
</g>
<!-- Node6 -->
<g id="node6" class="node">
<title>Node6</title>
<g id="a_node6"><a xlink:href="cmp__support_8c_a743a6fcf9ff9d9c86e5dcd2521694472.html#a743a6fcf9ff9d9c86e5dcd2521694472" target="_top" xlink:title="get the maximum valid spill threshold value for a imagette compression in diff or model mode">
<polygon fill="white" stroke="black" points="375.5,-50 375.5,-69 489.5,-69 489.5,-50 375.5,-50"/>
<text text-anchor="middle" x="432.5" y="-57" font-family="Helvetica,sans-Serif" font-size="10.00">cmp_ima_max_spill</text>
</a>
</g>
</g>
<!-- Node3&#45;&gt;Node6 -->
<g id="edge5" class="edge">
<title>Node3&#45;&gt;Node6</title>
<path fill="none" stroke="midnightblue" d="M309.18,-59.5C327.18,-59.5 346.98,-59.5 365.3,-59.5"/>
<polygon fill="midnightblue" stroke="midnightblue" points="365.31,-63 375.31,-59.5 365.31,-56 365.31,-63"/>
</g>
<!-- Node7 -->
<g id="node7" class="node">
<title>Node7</title>
<g id="a_node7"><a xlink:href="cmp__support_8c_a01181fec3ef69e316b4d77de4df9865f.html#a01181fec3ef69e316b4d77de4df9865f" target="_top" xlink:title="check if an imagette compression data type is used">
<polygon fill="white" stroke="black" points="362,-0.5 362,-30.5 503,-30.5 503,-0.5 362,-0.5"/>
<text text-anchor="start" x="370" y="-18.5" font-family="Helvetica,sans-Serif" font-size="10.00">cmp_imagette_data_type</text>
<text text-anchor="middle" x="432.5" y="-7.5" font-family="Helvetica,sans-Serif" font-size="10.00">_is_used</text>
</a>
</g>
</g>
<!-- Node3&#45;&gt;Node7 -->
<g id="edge6" class="edge">
<title>Node3&#45;&gt;Node7</title>
<path fill="none" stroke="midnightblue" d="M288.21,-49.95C308.9,-44.98 334.87,-38.73 358.99,-32.93"/>
<polygon fill="midnightblue" stroke="midnightblue" points="359.94,-36.31 368.84,-30.57 358.3,-29.5 359.94,-36.31"/>
</g>
<!-- Node5 -->
<g id="node5" class="node">
<title>Node5</title>
<g id="a_node5"><a xlink:href="cmp__support_8c_a67b0e38ca0e68c282c89552daa61ffdf.html#a67b0e38ca0e68c282c89552daa61ffdf" target="_top" xlink:title="implementation of the logarithm base of floor(log2(x)) for integers">
<polygon fill="white" stroke="black" points="575.5,-88 575.5,-107 621.5,-107 621.5,-88 575.5,-88"/>
<text text-anchor="middle" x="598.5" y="-95" font-family="Helvetica,sans-Serif" font-size="10.00">ilog_2</text>
</a>
</g>
</g>
<!-- Node4&#45;&gt;Node5 -->
<g id="edge4" class="edge">
<title>Node4&#45;&gt;Node5</title>
<path fill="none" stroke="midnightblue" d="M487.65,-97.5C513.31,-97.5 543.1,-97.5 565.17,-97.5"/>
<polygon fill="midnightblue" stroke="midnightblue" points="565.34,-101 575.34,-97.5 565.34,-94 565.34,-101"/>
</g>
<!-- Node8 -->
<g id="node8" class="node">
<title>Node8</title>
<g id="a_node8"><a xlink:href="cmp__support_8c_a9197caa657b3d84615c0d323dc96c502.html#a9197caa657b3d84615c0d323dc96c502" target="_top" xlink:title="check if the data product data type is supported by the RDCU compressor">
<polygon fill="white" stroke="black" points="539,-0.5 539,-30.5 658,-30.5 658,-0.5 539,-0.5"/>
<text text-anchor="start" x="547" y="-18.5" font-family="Helvetica,sans-Serif" font-size="10.00">rdcu_supported_data</text>
<text text-anchor="middle" x="598.5" y="-7.5" font-family="Helvetica,sans-Serif" font-size="10.00">_type_is_used</text>
</a>
</g>
</g>
<!-- Node7&#45;&gt;Node8 -->
<g id="edge7" class="edge">
<title>Node7&#45;&gt;Node8</title>
<path fill="none" stroke="midnightblue" d="M503.05,-15.5C511.55,-15.5 520.24,-15.5 528.73,-15.5"/>
<polygon fill="midnightblue" stroke="midnightblue" points="528.97,-19 538.97,-15.5 528.97,-12 528.97,-19"/>
</g>
</g>
</svg>
