<?xml version="1.0" encoding="UTF-8" standalone="no"?>
<!DOCTYPE svg PUBLIC "-//W3C//DTD SVG 1.1//EN"
 "http://www.w3.org/Graphics/SVG/1.1/DTD/svg11.dtd">
<!-- Generated by graphviz version 2.43.0 (0)
 -->
<!-- Title: cmp_max_used_bits.h Pages: 1 -->
<svg width="1527pt" height="319pt"
 viewBox="0.00 0.00 1526.75 319.00" xmlns="http://www.w3.org/2000/svg" xmlns:xlink="http://www.w3.org/1999/xlink">
<g id="graph0" class="graph" transform="scale(1 1) rotate(0) translate(4 315)">
<title>cmp_max_used_bits.h</title>
<polygon fill="white" stroke="transparent" points="-4,4 -4,-315 1522.75,-315 1522.75,4 -4,4"/>
<!-- Node1 -->
<g id="node1" class="node">
<title>Node1</title>
<g id="a_node1"><a xlink:title="definition and consents of the cmp_max_used_bits structure">
<polygon fill="#bfbfbf" stroke="black" points="849.5,-291.5 849.5,-310.5 974.5,-310.5 974.5,-291.5 849.5,-291.5"/>
<text text-anchor="middle" x="912" y="-298.5" font-family="Helvetica,sans-Serif" font-size="10.00">cmp_max_used_bits.h</text>
</a>
</g>
</g>
<!-- Node2 -->
<g id="node2" class="node">
<title>Node2</title>
<g id="a_node2"><a xlink:href="cmp__support_8h.html" target="_top" xlink:title="compression/decompression helper functions">
<polygon fill="white" stroke="black" points="867.5,-235.5 867.5,-254.5 956.5,-254.5 956.5,-235.5 867.5,-235.5"/>
<text text-anchor="middle" x="912" y="-242.5" font-family="Helvetica,sans-Serif" font-size="10.00">cmp_support.h</text>
</a>
</g>
</g>
<!-- Node1&#45;&gt;Node2 -->
<g id="edge1" class="edge">
<title>Node1&#45;&gt;Node2</title>
<path fill="none" stroke="midnightblue" d="M912,-280.8C912,-271.91 912,-261.78 912,-254.75"/>
<polygon fill="midnightblue" stroke="midnightblue" points="908.5,-281.08 912,-291.08 915.5,-281.08 908.5,-281.08"/>
</g>
<!-- Node13 -->
<g id="node13" class="node">
<title>Node13</title>
<g id="a_node13"><a xlink:href="decmp_8c.html" target="_top" xlink:title="software decompression library">
<polygon fill="white" stroke="black" points="0,-62 0,-81 58,-81 58,-62 0,-62"/>
<text text-anchor="middle" x="29" y="-69" font-family="Helvetica,sans-Serif" font-size="10.00">decmp.c</text>
</a>
</g>
</g>
<!-- Node1&#45;&gt;Node13 -->
<g id="edge44" class="edge">
<title>Node1&#45;&gt;Node13</title>
<path fill="none" stroke="midnightblue" d="M839.2,-297.99C662.02,-292.01 213.42,-270.08 84,-199 55.77,-183.49 50.76,-172.57 38,-143 29.01,-122.15 28.29,-94.85 28.6,-81.15"/>
<polygon fill="midnightblue" stroke="midnightblue" points="839.09,-301.48 849.2,-298.32 839.33,-294.49 839.09,-301.48"/>
</g>
<!-- Node25 -->
<g id="node25" class="node">
<title>Node25</title>
<g id="a_node25"><a xlink:href="cmp__max__used__bits__list_8c.html" target="_top" xlink:title="Implement a list that can hold an arbitrary number of different cmp_max_used_bits structs.">
<polygon fill="white" stroke="black" points="974.5,-235.5 974.5,-254.5 1119.5,-254.5 1119.5,-235.5 974.5,-235.5"/>
<text text-anchor="middle" x="1047" y="-242.5" font-family="Helvetica,sans-Serif" font-size="10.00">cmp_max_used_bits_list.c</text>
</a>
</g>
</g>
<!-- Node1&#45;&gt;Node25 -->
<g id="edge43" class="edge">
<title>Node1&#45;&gt;Node25</title>
<path fill="none" stroke="midnightblue" d="M942.91,-287.64C968.24,-277.5 1003.43,-263.43 1025.71,-254.52"/>
<polygon fill="midnightblue" stroke="midnightblue" points="941.38,-284.48 933.39,-291.44 943.98,-290.98 941.38,-284.48"/>
</g>
<!-- Node3 -->
<g id="node3" class="node">
<title>Node3</title>
<g id="a_node3"><a xlink:href="cmp__icu_8h.html" target="_top" xlink:title="software compression library">
<polygon fill="white" stroke="black" points="1445,-179.5 1445,-198.5 1511,-198.5 1511,-179.5 1445,-179.5"/>
<text text-anchor="middle" x="1478" y="-186.5" font-family="Helvetica,sans-Serif" font-size="10.00">cmp_icu.h</text>
</a>
</g>
</g>
<!-- Node2&#45;&gt;Node3 -->
<g id="edge2" class="edge">
<title>Node2&#45;&gt;Node3</title>
<path fill="none" stroke="midnightblue" d="M966.97,-234.84C1154.35,-211.33 1204,-216.21 1389,-199 1407.4,-197.29 1427.93,-195.22 1444.62,-193.5"/>
<polygon fill="midnightblue" stroke="midnightblue" points="966.26,-231.4 956.78,-236.13 967.14,-238.34 966.26,-231.4"/>
</g>
<!-- Node4 -->
<g id="node4" class="node">
<title>Node4</title>
<g id="a_node4"><a xlink:href="cmp__icu_8c.html" target="_top" xlink:title="software compression library">
<polygon fill="white" stroke="black" points="858.5,-123.5 858.5,-142.5 923.5,-142.5 923.5,-123.5 858.5,-123.5"/>
<text text-anchor="middle" x="891" y="-130.5" font-family="Helvetica,sans-Serif" font-size="10.00">cmp_icu.c</text>
</a>
</g>
</g>
<!-- Node2&#45;&gt;Node4 -->
<g id="edge35" class="edge">
<title>Node2&#45;&gt;Node4</title>
<path fill="none" stroke="midnightblue" d="M908.44,-225.35C903.84,-201.25 896.02,-160.31 892.64,-142.59"/>
<polygon fill="midnightblue" stroke="midnightblue" points="905.04,-226.2 910.35,-235.37 911.91,-224.89 905.04,-226.2"/>
</g>
<!-- Node8 -->
<g id="node8" class="node">
<title>Node8</title>
<g id="a_node8"><a xlink:href="cmp__data__types_8h.html" target="_top" xlink:title="definition of the different compression data types">
<polygon fill="white" stroke="black" points="686,-179.5 686,-198.5 792,-198.5 792,-179.5 686,-179.5"/>
<text text-anchor="middle" x="739" y="-186.5" font-family="Helvetica,sans-Serif" font-size="10.00">cmp_data_types.h</text>
</a>
</g>
</g>
<!-- Node2&#45;&gt;Node8 -->
<g id="edge8" class="edge">
<title>Node2&#45;&gt;Node8</title>
<path fill="none" stroke="midnightblue" d="M874.95,-232.44C842.34,-222.26 795.59,-207.66 766.28,-198.52"/>
<polygon fill="midnightblue" stroke="midnightblue" points="874,-235.8 884.59,-235.44 876.08,-229.12 874,-235.8"/>
</g>
<!-- Node9 -->
<g id="node9" class="node">
<title>Node9</title>
<g id="a_node9"><a xlink:href="cmp__data__types_8c.html" target="_top" xlink:title="collection of functions to handle the different compression data types">
<polygon fill="white" stroke="black" points="941.5,-123.5 941.5,-142.5 1046.5,-142.5 1046.5,-123.5 941.5,-123.5"/>
<text text-anchor="middle" x="994" y="-130.5" font-family="Helvetica,sans-Serif" font-size="10.00">cmp_data_types.c</text>
</a>
</g>
</g>
<!-- Node2&#45;&gt;Node9 -->
<g id="edge21" class="edge">
<title>Node2&#45;&gt;Node9</title>
<path fill="none" stroke="midnightblue" d="M924.47,-227.27C942.2,-203.49 974.03,-160.79 987.6,-142.59"/>
<polygon fill="midnightblue" stroke="midnightblue" points="921.6,-225.26 918.43,-235.37 927.22,-229.44 921.6,-225.26"/>
</g>
<!-- Node11 -->
<g id="node11" class="node">
<title>Node11</title>
<g id="a_node11"><a xlink:href="cmp__entity_8c.html" target="_top" xlink:title="functions and definition to handle a compression entity">
<polygon fill="white" stroke="black" points="230,-123.5 230,-142.5 308,-142.5 308,-123.5 230,-123.5"/>
<text text-anchor="middle" x="269" y="-130.5" font-family="Helvetica,sans-Serif" font-size="10.00">cmp_entity.c</text>
</a>
</g>
</g>
<!-- Node2&#45;&gt;Node11 -->
<g id="edge31" class="edge">
<title>Node2&#45;&gt;Node11</title>
<path fill="none" stroke="midnightblue" d="M857.1,-235.4C751.51,-218.71 512.91,-180.29 313,-143 311.47,-142.71 309.91,-142.42 308.33,-142.11"/>
<polygon fill="midnightblue" stroke="midnightblue" points="856.77,-238.89 867.2,-236.99 857.86,-231.97 856.77,-238.89"/>
</g>
<!-- Node2&#45;&gt;Node13 -->
<g id="edge42" class="edge">
<title>Node2&#45;&gt;Node13</title>
<path fill="none" stroke="midnightblue" d="M857.11,-244.66C702.69,-245.9 267.07,-245.12 133,-199 91.61,-184.76 78.16,-178.09 52,-143 37.69,-123.8 32.03,-95.28 30.01,-81.12"/>
<polygon fill="midnightblue" stroke="midnightblue" points="857.33,-248.16 867.3,-244.57 857.27,-241.16 857.33,-248.16"/>
</g>
<!-- Node17 -->
<g id="node17" class="node">
<title>Node17</title>
<g id="a_node17"><a xlink:href="cmp__rdcu_8h.html" target="_top" xlink:title="hardware compressor control library">
<polygon fill="white" stroke="black" points="1064.5,-123.5 1064.5,-142.5 1137.5,-142.5 1137.5,-123.5 1064.5,-123.5"/>
<text text-anchor="middle" x="1101" y="-130.5" font-family="Helvetica,sans-Serif" font-size="10.00">cmp_rdcu.h</text>
</a>
</g>
</g>
<!-- Node2&#45;&gt;Node17 -->
<g id="edge20" class="edge">
<title>Node2&#45;&gt;Node17</title>
<path fill="none" stroke="midnightblue" d="M935.54,-230.3C975.05,-207.3 1053.59,-161.59 1086.24,-142.59"/>
<polygon fill="midnightblue" stroke="midnightblue" points="933.71,-227.31 926.83,-235.37 937.23,-233.36 933.71,-227.31"/>
</g>
<!-- Node18 -->
<g id="node18" class="node">
<title>Node18</title>
<g id="a_node18"><a xlink:href="cmp__entity_8h.html" target="_top" xlink:title="functions and definition to handle a compression entity">
<polygon fill="white" stroke="black" points="142.5,-179.5 142.5,-198.5 221.5,-198.5 221.5,-179.5 142.5,-179.5"/>
<text text-anchor="middle" x="182" y="-186.5" font-family="Helvetica,sans-Serif" font-size="10.00">cmp_entity.h</text>
</a>
</g>
</g>
<!-- Node2&#45;&gt;Node18 -->
<g id="edge22" class="edge">
<title>Node2&#45;&gt;Node18</title>
<path fill="none" stroke="midnightblue" d="M857.31,-239.95C716.63,-229.55 344.64,-202.03 221.91,-192.95"/>
<polygon fill="midnightblue" stroke="midnightblue" points="857.2,-243.46 867.43,-240.7 857.72,-236.48 857.2,-243.46"/>
</g>
<!-- Node19 -->
<g id="node19" class="node">
<title>Node19</title>
<g id="a_node19"><a xlink:href="decmp_8h.html" target="_top" xlink:title="software decompression library">
<polygon fill="white" stroke="black" points="152.5,-123.5 152.5,-142.5 211.5,-142.5 211.5,-123.5 152.5,-123.5"/>
<text text-anchor="middle" x="182" y="-130.5" font-family="Helvetica,sans-Serif" font-size="10.00">decmp.h</text>
</a>
</g>
</g>
<!-- Node2&#45;&gt;Node19 -->
<g id="edge33" class="edge">
<title>Node2&#45;&gt;Node19</title>
<path fill="none" stroke="midnightblue" d="M857.02,-238.83C781.53,-231.46 641.63,-216.84 523,-199 388.01,-178.7 354.65,-170.8 221,-143 218.01,-142.38 214.89,-141.7 211.78,-141.01"/>
<polygon fill="midnightblue" stroke="midnightblue" points="856.95,-242.34 867.24,-239.82 857.62,-235.37 856.95,-242.34"/>
</g>
<!-- Node20 -->
<g id="node20" class="node">
<title>Node20</title>
<g id="a_node20"><a xlink:href="cmp__support_8c.html" target="_top" xlink:title="compressor support library">
<polygon fill="white" stroke="black" points="1187,-179.5 1187,-198.5 1275,-198.5 1275,-179.5 1187,-179.5"/>
<text text-anchor="middle" x="1231" y="-186.5" font-family="Helvetica,sans-Serif" font-size="10.00">cmp_support.c</text>
</a>
</g>
</g>
<!-- Node2&#45;&gt;Node20 -->
<g id="edge32" class="edge">
<title>Node2&#45;&gt;Node20</title>
<path fill="none" stroke="midnightblue" d="M966.43,-234.76C1049.91,-220.61 1135.98,-206.06 1186.76,-197.48"/>
<polygon fill="midnightblue" stroke="midnightblue" points="965.81,-231.31 956.53,-236.44 966.98,-238.22 965.81,-231.31"/>
</g>
<!-- Node21 -->
<g id="node21" class="node">
<title>Node21</title>
<g id="a_node21"><a xlink:href="cmp__rdcu_8c.html" target="_top" xlink:title="hardware compressor control library">
<polygon fill="white" stroke="black" points="1156,-123.5 1156,-142.5 1228,-142.5 1228,-123.5 1156,-123.5"/>
<text text-anchor="middle" x="1192" y="-130.5" font-family="Helvetica,sans-Serif" font-size="10.00">cmp_rdcu.c</text>
</a>
</g>
</g>
<!-- Node2&#45;&gt;Node21 -->
<g id="edge34" class="edge">
<title>Node2&#45;&gt;Node21</title>
<path fill="none" stroke="midnightblue" d="M942.38,-231.64C964.28,-222.68 994.52,-210.22 1021,-199 1041.53,-190.3 1046.28,-187.22 1067,-179 1101.09,-165.47 1141.05,-151.39 1166.44,-142.66"/>
<polygon fill="midnightblue" stroke="midnightblue" points="940.88,-228.47 932.94,-235.49 943.53,-234.95 940.88,-228.47"/>
</g>
<!-- Node22 -->
<g id="node22" class="node">
<title>Node22</title>
<g id="a_node22"><a xlink:href="cmp__rdcu__cfg_8h.html" target="_top" xlink:title="hardware compressor configuration library">
<polygon fill="white" stroke="black" points="1075.5,-179.5 1075.5,-198.5 1168.5,-198.5 1168.5,-179.5 1075.5,-179.5"/>
<text text-anchor="middle" x="1122" y="-186.5" font-family="Helvetica,sans-Serif" font-size="10.00">cmp_rdcu_cfg.h</text>
</a>
</g>
</g>
<!-- Node2&#45;&gt;Node22 -->
<g id="edge36" class="edge">
<title>Node2&#45;&gt;Node22</title>
<path fill="none" stroke="midnightblue" d="M955.19,-232.89C994.85,-222.7 1052.77,-207.8 1088.88,-198.52"/>
<polygon fill="midnightblue" stroke="midnightblue" points="954.09,-229.56 945.28,-235.44 955.83,-236.34 954.09,-229.56"/>
</g>
<!-- Node23 -->
<g id="node23" class="node">
<title>Node23</title>
<g id="a_node23"><a xlink:href="cmp__rdcu__cfg_8c.html" target="_top" xlink:title="hardware compressor configuration library">
<polygon fill="white" stroke="black" points="1380,-123.5 1380,-142.5 1472,-142.5 1472,-123.5 1380,-123.5"/>
<text text-anchor="middle" x="1426" y="-130.5" font-family="Helvetica,sans-Serif" font-size="10.00">cmp_rdcu_cfg.c</text>
</a>
</g>
</g>
<!-- Node2&#45;&gt;Node23 -->
<g id="edge41" class="edge">
<title>Node2&#45;&gt;Node23</title>
<path fill="none" stroke="midnightblue" d="M966.43,-234.89C1108.13,-216.01 1149.61,-236.31 1284,-199 1332.85,-185.44 1386.1,-157.01 1411.26,-142.66"/>
<polygon fill="midnightblue" stroke="midnightblue" points="965.94,-231.43 956.5,-236.26 966.89,-238.36 965.94,-231.43"/>
</g>
<!-- Node3&#45;&gt;Node4 -->
<g id="edge3" class="edge">
<title>Node3&#45;&gt;Node4</title>
<path fill="none" stroke="midnightblue" d="M1434.78,-186.41C1342.17,-182.56 1117.89,-170.93 932,-143 929.26,-142.59 926.43,-142.1 923.6,-141.57"/>
<polygon fill="midnightblue" stroke="midnightblue" points="1434.76,-189.91 1444.9,-186.82 1435.05,-182.91 1434.76,-189.91"/>
</g>
<!-- Node5 -->
<g id="node5" class="node">
<title>Node5</title>
<g id="a_node5"><a xlink:href="test__cmp__icu_8c.html" target="_top" xlink:title="software compression tests">
<polygon fill="white" stroke="black" points="1206.5,-62 1206.5,-81 1295.5,-81 1295.5,-62 1206.5,-62"/>
<text text-anchor="middle" x="1251" y="-69" font-family="Helvetica,sans-Serif" font-size="10.00">test_cmp_icu.c</text>
</a>
</g>
</g>
<!-- Node3&#45;&gt;Node5 -->
<g id="edge7" class="edge">
<title>Node3&#45;&gt;Node5</title>
<path fill="none" stroke="midnightblue" d="M1496.74,-172.44C1511.14,-158.61 1526.62,-138.27 1514,-123 1486.79,-90.07 1363.14,-78.4 1295.52,-74.43"/>
<polygon fill="midnightblue" stroke="midnightblue" points="1494.12,-170.09 1489.03,-179.38 1498.81,-175.29 1494.12,-170.09"/>
</g>
<!-- Node7 -->
<g id="node7" class="node">
<title>Node7</title>
<g id="a_node7"><a xlink:href="test__cmp__decmp_8c.html" target="_top" xlink:title="random compression decompression tests">
<polygon fill="white" stroke="black" points="755,-62 755,-81 863,-81 863,-62 755,-62"/>
<text text-anchor="middle" x="809" y="-69" font-family="Helvetica,sans-Serif" font-size="10.00">test_cmp_decmp.c</text>
</a>
</g>
</g>
<!-- Node3&#45;&gt;Node7 -->
<g id="edge6" class="edge">
<title>Node3&#45;&gt;Node7</title>
<path fill="none" stroke="midnightblue" d="M1485.22,-169.62C1489.59,-155.08 1492.38,-135.26 1481,-123 1460.06,-100.43 1019.2,-80.83 863.15,-74.58"/>
<polygon fill="midnightblue" stroke="midnightblue" points="1481.9,-168.49 1481.93,-179.08 1488.52,-170.78 1481.9,-168.49"/>
</g>
<!-- Node4&#45;&gt;Node5 -->
<g id="edge4" class="edge">
<title>Node4&#45;&gt;Node5</title>
<path fill="none" stroke="midnightblue" d="M933.59,-122.78C1036.67,-103.53 1146.62,-87.22 1206.48,-78.7"/>
<polygon fill="midnightblue" stroke="midnightblue" points="932.82,-119.37 923.64,-124.65 934.11,-126.24 932.82,-119.37"/>
</g>
<!-- Node6 -->
<g id="node6" class="node">
<title>Node6</title>
<g id="a_node6"><a xlink:href="test__decmp_8c.html" target="_top" xlink:title="decompression tests">
<polygon fill="white" stroke="black" points="45,-0.5 45,-19.5 127,-19.5 127,-0.5 45,-0.5"/>
<text text-anchor="middle" x="86" y="-7.5" font-family="Helvetica,sans-Serif" font-size="10.00">test_decmp.c</text>
</a>
</g>
</g>
<!-- Node4&#45;&gt;Node6 -->
<g id="edge5" class="edge">
<title>Node4&#45;&gt;Node6</title>
<path fill="none" stroke="midnightblue" d="M892.06,-113.22C891.92,-95.52 888.58,-69.73 872,-56 814.39,-8.31 280.73,-9.27 127.16,-10.56"/>
<polygon fill="midnightblue" stroke="midnightblue" points="888.56,-113.16 891.8,-123.25 895.55,-113.34 888.56,-113.16"/>
</g>
<!-- Node8&#45;&gt;Node4 -->
<g id="edge16" class="edge">
<title>Node8&#45;&gt;Node4</title>
<path fill="none" stroke="midnightblue" d="M772.67,-176.04C801.27,-165.88 841.61,-151.55 867.03,-142.52"/>
<polygon fill="midnightblue" stroke="midnightblue" points="771.34,-172.8 763.08,-179.44 773.68,-179.39 771.34,-172.8"/>
</g>
<!-- Node8&#45;&gt;Node7 -->
<g id="edge18" class="edge">
<title>Node8&#45;&gt;Node7</title>
<path fill="none" stroke="midnightblue" d="M773.6,-174.92C787.51,-167.75 802.11,-157.34 810,-143 820.86,-123.27 815.59,-95.48 811.77,-81.41"/>
<polygon fill="midnightblue" stroke="midnightblue" points="771.71,-171.94 764.16,-179.38 774.7,-178.27 771.71,-171.94"/>
</g>
<!-- Node8&#45;&gt;Node9 -->
<g id="edge9" class="edge">
<title>Node8&#45;&gt;Node9</title>
<path fill="none" stroke="midnightblue" d="M789.31,-177.35C837.5,-167.14 909.28,-151.94 953.78,-142.52"/>
<polygon fill="midnightblue" stroke="midnightblue" points="788.46,-173.95 779.41,-179.44 789.91,-180.8 788.46,-173.95"/>
</g>
<!-- Node10 -->
<g id="node10" class="node">
<title>Node10</title>
<g id="a_node10"><a xlink:href="cmp__max__used__bits_8c.html" target="_top" xlink:title="definition and consents of the cmp_max_used_bits structure">
<polygon fill="white" stroke="black" points="676.5,-123.5 676.5,-142.5 801.5,-142.5 801.5,-123.5 676.5,-123.5"/>
<text text-anchor="middle" x="739" y="-130.5" font-family="Helvetica,sans-Serif" font-size="10.00">cmp_max_used_bits.c</text>
</a>
</g>
</g>
<!-- Node8&#45;&gt;Node10 -->
<g id="edge10" class="edge">
<title>Node8&#45;&gt;Node10</title>
<path fill="none" stroke="midnightblue" d="M739,-168.8C739,-159.91 739,-149.78 739,-142.75"/>
<polygon fill="midnightblue" stroke="midnightblue" points="735.5,-169.08 739,-179.08 742.5,-169.08 735.5,-169.08"/>
</g>
<!-- Node8&#45;&gt;Node11 -->
<g id="edge11" class="edge">
<title>Node8&#45;&gt;Node11</title>
<path fill="none" stroke="midnightblue" d="M675.75,-182.38C593.92,-174.83 447.02,-160.34 322,-143 317.47,-142.37 312.73,-141.65 308.03,-140.9"/>
<polygon fill="midnightblue" stroke="midnightblue" points="675.61,-185.88 685.88,-183.31 676.24,-178.91 675.61,-185.88"/>
</g>
<!-- Node12 -->
<g id="node12" class="node">
<title>Node12</title>
<g id="a_node12"><a xlink:href="cmp__max__used__bits__list_8h.html" target="_top" xlink:title="Implement a list that can hold an arbitrary number of different cmp_max_used_bits structs.">
<polygon fill="white" stroke="black" points="512,-123.5 512,-142.5 658,-142.5 658,-123.5 512,-123.5"/>
<text text-anchor="middle" x="585" y="-130.5" font-family="Helvetica,sans-Serif" font-size="10.00">cmp_max_used_bits_list.h</text>
</a>
</g>
</g>
<!-- Node8&#45;&gt;Node12 -->
<g id="edge12" class="edge">
<title>Node8&#45;&gt;Node12</title>
<path fill="none" stroke="midnightblue" d="M704.89,-176.04C675.91,-165.88 635.04,-151.55 609.29,-142.52"/>
<polygon fill="midnightblue" stroke="midnightblue" points="704,-179.44 714.6,-179.44 706.32,-172.83 704,-179.44"/>
</g>
<!-- Node15 -->
<g id="node15" class="node">
<title>Node15</title>
<g id="a_node15"><a xlink:href="test__cmp__data__types_8c.html" target="_top" xlink:title="compression data types tests">
<polygon fill="white" stroke="black" points="364.5,-123.5 364.5,-142.5 493.5,-142.5 493.5,-123.5 364.5,-123.5"/>
<text text-anchor="middle" x="429" y="-130.5" font-family="Helvetica,sans-Serif" font-size="10.00">test_cmp_data_types.c</text>
</a>
</g>
</g>
<!-- Node8&#45;&gt;Node15 -->
<g id="edge17" class="edge">
<title>Node8&#45;&gt;Node15</title>
<path fill="none" stroke="midnightblue" d="M679.66,-177.66C621.08,-167.46 532.55,-152.04 477.89,-142.52"/>
<polygon fill="midnightblue" stroke="midnightblue" points="679.43,-181.18 689.88,-179.44 680.63,-174.28 679.43,-181.18"/>
</g>
<!-- Node16 -->
<g id="node16" class="node">
<title>Node16</title>
<g id="a_node16"><a xlink:href="test__cmp__entity_8c.html" target="_top" xlink:title="compression entity tests">
<polygon fill="white" stroke="black" points="131,-62 131,-81 233,-81 233,-62 131,-62"/>
<text text-anchor="middle" x="182" y="-69" font-family="Helvetica,sans-Serif" font-size="10.00">test_cmp_entity.c</text>
</a>
</g>
</g>
<!-- Node8&#45;&gt;Node16 -->
<g id="edge19" class="edge">
<title>Node8&#45;&gt;Node16</title>
<path fill="none" stroke="midnightblue" d="M675.81,-187.64C598.49,-185.6 464.37,-176.9 355,-143 336.77,-137.35 334.42,-130.8 317,-123 279.78,-106.32 235.22,-90.41 207.77,-81.05"/>
<polygon fill="midnightblue" stroke="midnightblue" points="675.8,-191.14 685.88,-187.87 675.96,-184.14 675.8,-191.14"/>
</g>
<!-- Node12&#45;&gt;Node13 -->
<g id="edge13" class="edge">
<title>Node12&#45;&gt;Node13</title>
<path fill="none" stroke="midnightblue" d="M501.64,-122.98C331.54,-105.93 287.13,-107.68 122,-87 100.6,-84.32 76.54,-80.55 58.26,-77.52"/>
<polygon fill="midnightblue" stroke="midnightblue" points="501.38,-126.47 511.69,-124 502.09,-119.51 501.38,-126.47"/>
</g>
<!-- Node14 -->
<g id="node14" class="node">
<title>Node14</title>
<g id="a_node14"><a xlink:href="test__cmp__max__used__bits__list_8c.html" target="_top" xlink:title="max_used_bits list tests">
<polygon fill="white" stroke="black" points="515,-56.5 515,-86.5 655,-86.5 655,-56.5 515,-56.5"/>
<text text-anchor="start" x="523" y="-74.5" font-family="Helvetica,sans-Serif" font-size="10.00">test_cmp_max_used_bits</text>
<text text-anchor="middle" x="585" y="-63.5" font-family="Helvetica,sans-Serif" font-size="10.00">_list.c</text>
</a>
</g>
</g>
<!-- Node12&#45;&gt;Node14 -->
<g id="edge15" class="edge">
<title>Node12&#45;&gt;Node14</title>
<path fill="none" stroke="midnightblue" d="M585,-113.23C585,-104.59 585,-94.5 585,-86.52"/>
<polygon fill="midnightblue" stroke="midnightblue" points="581.5,-113.48 585,-123.48 588.5,-113.48 581.5,-113.48"/>
</g>
<!-- Node13&#45;&gt;Node6 -->
<g id="edge14" class="edge">
<title>Node13&#45;&gt;Node6</title>
<path fill="none" stroke="midnightblue" d="M44.33,-54.5C55.12,-43.24 69.14,-28.6 77.85,-19.51"/>
<polygon fill="midnightblue" stroke="midnightblue" points="41.56,-52.33 37.17,-61.98 46.61,-57.18 41.56,-52.33"/>
</g>
<!-- Node18&#45;&gt;Node4 -->
<g id="edge27" class="edge">
<title>Node18&#45;&gt;Node4</title>
<path fill="none" stroke="midnightblue" d="M231.83,-185.09C338.16,-178.75 595.09,-162.63 810,-143 825.92,-141.55 843.57,-139.62 858.32,-137.93"/>
<polygon fill="midnightblue" stroke="midnightblue" points="231.49,-181.61 221.72,-185.7 231.91,-188.6 231.49,-181.61"/>
</g>
<!-- Node18&#45;&gt;Node6 -->
<g id="edge30" class="edge">
<title>Node18&#45;&gt;Node6</title>
<path fill="none" stroke="midnightblue" d="M163.39,-172.69C154.48,-164.59 144.2,-154.06 137,-143 109.52,-100.79 93.35,-41.54 87.99,-19.6"/>
<polygon fill="midnightblue" stroke="midnightblue" points="161.23,-175.45 171.07,-179.38 165.83,-170.17 161.23,-175.45"/>
</g>
<!-- Node18&#45;&gt;Node11 -->
<g id="edge23" class="edge">
<title>Node18&#45;&gt;Node11</title>
<path fill="none" stroke="midnightblue" d="M204.72,-173.9C220.67,-164 241.5,-151.07 255.06,-142.65"/>
<polygon fill="midnightblue" stroke="midnightblue" points="202.63,-171.08 195.98,-179.32 206.32,-177.02 202.63,-171.08"/>
</g>
<!-- Node18&#45;&gt;Node13 -->
<g id="edge28" class="edge">
<title>Node18&#45;&gt;Node13</title>
<path fill="none" stroke="midnightblue" d="M135.93,-176.37C114.74,-169.32 90.3,-158.6 72,-143 51.48,-125.52 37.91,-95.69 32.15,-81.08"/>
<polygon fill="midnightblue" stroke="midnightblue" points="135.13,-179.79 145.72,-179.45 137.23,-173.11 135.13,-179.79"/>
</g>
<!-- Node18&#45;&gt;Node16 -->
<g id="edge29" class="edge">
<title>Node18&#45;&gt;Node16</title>
<path fill="none" stroke="midnightblue" d="M163.42,-172.32C155.52,-164.44 147.17,-154.19 143,-143 139.89,-134.67 140.13,-131.41 143,-123 148.79,-106.02 162.87,-90.3 172.43,-81.06"/>
<polygon fill="midnightblue" stroke="midnightblue" points="161.3,-175.13 171.01,-179.37 166.06,-170 161.3,-175.13"/>
</g>
<!-- Node18&#45;&gt;Node19 -->
<g id="edge24" class="edge">
<title>Node18&#45;&gt;Node19</title>
<path fill="none" stroke="midnightblue" d="M182,-168.8C182,-159.91 182,-149.78 182,-142.75"/>
<polygon fill="midnightblue" stroke="midnightblue" points="178.5,-169.08 182,-179.08 185.5,-169.08 178.5,-169.08"/>
</g>
<!-- Node19&#45;&gt;Node7 -->
<g id="edge25" class="edge">
<title>Node19&#45;&gt;Node7</title>
<path fill="none" stroke="midnightblue" d="M221.78,-123.12C417.94,-93.1 470.53,-104.53 664,-87 694.11,-84.27 727.7,-80.93 754.97,-78.14"/>
<polygon fill="midnightblue" stroke="midnightblue" points="221.07,-119.68 211.72,-124.67 222.14,-126.6 221.07,-119.68"/>
</g>
<!-- Node19&#45;&gt;Node16 -->
<g id="edge26" class="edge">
<title>Node19&#45;&gt;Node16</title>
<path fill="none" stroke="midnightblue" d="M182,-113.32C182,-102.5 182,-89.4 182,-81.01"/>
<polygon fill="midnightblue" stroke="midnightblue" points="178.5,-113.48 182,-123.48 185.5,-113.48 178.5,-113.48"/>
</g>
<!-- Node22&#45;&gt;Node17 -->
<g id="edge37" class="edge">
<title>Node22&#45;&gt;Node17</title>
<path fill="none" stroke="midnightblue" d="M1114.88,-169.69C1111.34,-160.59 1107.23,-150.01 1104.4,-142.75"/>
<polygon fill="midnightblue" stroke="midnightblue" points="1111.65,-171.03 1118.53,-179.08 1118.17,-168.49 1111.65,-171.03"/>
</g>
<!-- Node22&#45;&gt;Node21 -->
<g id="edge38" class="edge">
<title>Node22&#45;&gt;Node21</title>
<path fill="none" stroke="midnightblue" d="M1141.31,-173.1C1153.91,-163.38 1169.93,-151.03 1180.55,-142.83"/>
<polygon fill="midnightblue" stroke="midnightblue" points="1139.03,-170.44 1133.25,-179.32 1143.3,-175.99 1139.03,-170.44"/>
</g>
<!-- Node22&#45;&gt;Node23 -->
<g id="edge39" class="edge">
<title>Node22&#45;&gt;Node23</title>
<path fill="none" stroke="midnightblue" d="M1178.59,-177.95C1236.53,-167.66 1325.53,-151.85 1379.5,-142.26"/>
<polygon fill="midnightblue" stroke="midnightblue" points="1177.74,-174.54 1168.5,-179.74 1178.96,-181.44 1177.74,-174.54"/>
</g>
<!-- Node24 -->
<g id="node24" class="node">
<title>Node24</title>
<g id="a_node24"><a xlink:href="test__cmp__rdcu__cfg_8c.html" target="_top" xlink:title="hardware compressor configuration tests">
<polygon fill="white" stroke="black" points="1246,-123.5 1246,-142.5 1362,-142.5 1362,-123.5 1246,-123.5"/>
<text text-anchor="middle" x="1304" y="-130.5" font-family="Helvetica,sans-Serif" font-size="10.00">test_cmp_rdcu_cfg.c</text>
</a>
</g>
</g>
<!-- Node22&#45;&gt;Node24 -->
<g id="edge40" class="edge">
<title>Node22&#45;&gt;Node24</title>
<path fill="none" stroke="midnightblue" d="M1160.53,-176.57C1194.86,-166.38 1244.33,-151.7 1275.3,-142.52"/>
<polygon fill="midnightblue" stroke="midnightblue" points="1159.43,-173.24 1150.84,-179.44 1161.42,-179.95 1159.43,-173.24"/>
</g>
</g>
</svg>
