<?xml version="1.0" encoding="UTF-8" standalone="no"?>
<!DOCTYPE svg PUBLIC "-//W3C//DTD SVG 1.1//EN"
 "http://www.w3.org/Graphics/SVG/1.1/DTD/svg11.dtd">
<!-- Generated by graphviz version 2.43.0 (0)
 -->
<!-- Title: cmp_cfg_icu_imagette Pages: 1 -->
<svg width="329pt" height="165pt"
 viewBox="0.00 0.00 329.00 164.50" xmlns="http://www.w3.org/2000/svg" xmlns:xlink="http://www.w3.org/1999/xlink">
<g id="graph0" class="graph" transform="scale(1 1) rotate(0) translate(4 160.5)">
<title>cmp_cfg_icu_imagette</title>
<polygon fill="white" stroke="transparent" points="-4,4 -4,-160.5 325,-160.5 325,4 -4,4"/>
<!-- Node1 -->
<g id="node1" class="node">
<title>Node1</title>
<g id="a_node1"><a xlink:title="set up the configuration parameters for an ICU imagette compression">
<polygon fill="#bfbfbf" stroke="black" points="194,-77 194,-96 321,-96 321,-77 194,-77"/>
<text text-anchor="middle" x="257.5" y="-84" font-family="Helvetica,sans-Serif" font-size="10.00">cmp_cfg_icu_imagette</text>
</a>
</g>
</g>
<!-- Node2 -->
<g id="node2" class="node">
<title>Node2</title>
<g id="a_node2"><a xlink:href="test__cmp__icu_8c_ae91227c5082b05a7b64b7cce58c1f4ca.html#ae91227c5082b05a7b64b7cce58c1f4ca" target="_top" xlink:title=" ">
<polygon fill="white" stroke="black" points="3.5,-137 3.5,-156 154.5,-156 154.5,-137 3.5,-137"/>
<text text-anchor="middle" x="79" y="-144" font-family="Helvetica,sans-Serif" font-size="10.00">test_cmp_cfg_icu_imagette</text>
</a>
</g>
</g>
<!-- Node1&#45;&gt;Node2 -->
<g id="edge1" class="edge">
<title>Node1&#45;&gt;Node2</title>
<path fill="none" stroke="midnightblue" d="M226.91,-100.23C207.59,-108.85 181.64,-119.75 158,-127.5 147.27,-131.02 135.52,-134.21 124.48,-136.93"/>
<polygon fill="midnightblue" stroke="midnightblue" points="228.42,-103.39 236.1,-96.09 225.54,-97.01 228.42,-103.39"/>
</g>
<!-- Node3 -->
<g id="node3" class="node">
<title>Node3</title>
<g id="a_node3"><a xlink:href="test__cmp__icu_8c_a99545cc4ea3f1aa22be006d201e43f6d.html#a99545cc4ea3f1aa22be006d201e43f6d" target="_top" xlink:title=" ">
<polygon fill="white" stroke="black" points="0,-99 0,-118 158,-118 158,-99 0,-99"/>
<text text-anchor="middle" x="79" y="-106" font-family="Helvetica,sans-Serif" font-size="10.00">test_compress_imagette_diff</text>
</a>
</g>
</g>
<!-- Node1&#45;&gt;Node3 -->
<g id="edge2" class="edge">
<title>Node1&#45;&gt;Node3</title>
<path fill="none" stroke="midnightblue" d="M183.72,-95.57C174.72,-96.69 165.49,-97.84 156.43,-98.97"/>
<polygon fill="midnightblue" stroke="midnightblue" points="184.29,-99.03 193.78,-94.32 183.42,-92.08 184.29,-99.03"/>
</g>
<!-- Node4 -->
<g id="node4" class="node">
<title>Node4</title>
<g id="a_node4"><a xlink:href="test__cmp__icu_8c_a7c1162f048c55a098b4e6c1d9a0a884e.html#a7c1162f048c55a098b4e6c1d9a0a884e" target="_top" xlink:title=" ">
<polygon fill="white" stroke="black" points="10.5,-49.5 10.5,-79.5 147.5,-79.5 147.5,-49.5 10.5,-49.5"/>
<text text-anchor="start" x="18.5" y="-67.5" font-family="Helvetica,sans-Serif" font-size="10.00">test_compress_imagette</text>
<text text-anchor="middle" x="79" y="-56.5" font-family="Helvetica,sans-Serif" font-size="10.00">_model</text>
</a>
</g>
</g>
<!-- Node1&#45;&gt;Node4 -->
<g id="edge3" class="edge">
<title>Node1&#45;&gt;Node4</title>
<path fill="none" stroke="midnightblue" d="M183.82,-77.44C171.84,-75.95 159.46,-74.4 147.61,-72.93"/>
<polygon fill="midnightblue" stroke="midnightblue" points="183.42,-80.92 193.78,-78.68 184.29,-73.97 183.42,-80.92"/>
</g>
<!-- Node5 -->
<g id="node5" class="node">
<title>Node5</title>
<g id="a_node5"><a xlink:href="test__cmp__icu_8c_a3c859fa9247c65ae7a43e2bd682448e2.html#a3c859fa9247c65ae7a43e2bd682448e2" target="_top" xlink:title=" ">
<polygon fill="white" stroke="black" points="10.5,-0.5 10.5,-30.5 147.5,-30.5 147.5,-0.5 10.5,-0.5"/>
<text text-anchor="start" x="18.5" y="-18.5" font-family="Helvetica,sans-Serif" font-size="10.00">test_compress_imagette</text>
<text text-anchor="middle" x="79" y="-7.5" font-family="Helvetica,sans-Serif" font-size="10.00">_stuff</text>
</a>
</g>
</g>
<!-- Node1&#45;&gt;Node5 -->
<g id="edge4" class="edge">
<title>Node1&#45;&gt;Node5</title>
<path fill="none" stroke="midnightblue" d="M228.71,-72.37C209.2,-62.74 182.35,-50.04 158,-40.5 149.13,-37.02 139.56,-33.65 130.26,-30.57"/>
<polygon fill="midnightblue" stroke="midnightblue" points="227.41,-75.63 237.93,-76.96 230.54,-69.37 227.41,-75.63"/>
</g>
</g>
</svg>
