<?xml version="1.0" encoding="UTF-8" standalone="no"?>
<!DOCTYPE svg PUBLIC "-//W3C//DTD SVG 1.1//EN"
 "http://www.w3.org/Graphics/SVG/1.1/DTD/svg11.dtd">
<!-- Generated by graphviz version 2.43.0 (0)
 -->
<!-- Title: cmp_ent_set_data_type Pages: 1 -->
<svg width="909pt" height="482pt"
 viewBox="0.00 0.00 909.00 481.50" xmlns="http://www.w3.org/2000/svg" xmlns:xlink="http://www.w3.org/1999/xlink">
<g id="graph0" class="graph" transform="scale(1 1) rotate(0) translate(4 477.5)">
<title>cmp_ent_set_data_type</title>
<polygon fill="white" stroke="transparent" points="-4,4 -4,-477.5 905,-477.5 905,4 -4,4"/>
<!-- Node1 -->
<g id="node1" class="node">
<title>Node1</title>
<g id="a_node1"><a xlink:title="set the compression data product type in the compression entity header">
<polygon fill="#bfbfbf" stroke="black" points="768,-145 768,-164 901,-164 901,-145 768,-145"/>
<text text-anchor="middle" x="834.5" y="-152" font-family="Helvetica,sans-Serif" font-size="10.00">cmp_ent_set_data_type</text>
</a>
</g>
</g>
<!-- Node2 -->
<g id="node2" class="node">
<title>Node2</title>
<g id="a_node2"><a xlink:href="cmp__entity_8c_ae5d154b04722901866cadf9bcd523e03.html#ae5d154b04722901866cadf9bcd523e03" target="_top" xlink:title="create a compression entity by setting the size of the compression entity and the data product type i...">
<polygon fill="white" stroke="black" points="616,-244 616,-263 711,-263 711,-244 616,-244"/>
<text text-anchor="middle" x="663.5" y="-251" font-family="Helvetica,sans-Serif" font-size="10.00">cmp_ent_create</text>
</a>
</g>
</g>
<!-- Node1&#45;&gt;Node2 -->
<g id="edge1" class="edge">
<title>Node1&#45;&gt;Node2</title>
<path fill="none" stroke="midnightblue" d="M814.78,-170.61C795.17,-186.87 762.97,-211.89 732,-228.5 720.66,-234.58 707.51,-239.82 695.86,-243.9"/>
<polygon fill="midnightblue" stroke="midnightblue" points="817.21,-173.13 822.61,-164.02 812.71,-167.78 817.21,-173.13"/>
</g>
<!-- Node13 -->
<g id="node13" class="node">
<title>Node13</title>
<g id="a_node13"><a xlink:href="test__cmp__entity_8c_a9ff6c40a6acfa4a24a448db1471c524a.html#a9ff6c40a6acfa4a24a448db1471c524a" target="_top" xlink:title=" ">
<polygon fill="white" stroke="black" points="402,-397 402,-416 559,-416 559,-397 402,-397"/>
<text text-anchor="middle" x="480.5" y="-404" font-family="Helvetica,sans-Serif" font-size="10.00">test_cmp_ent_get_cmp_data</text>
</a>
</g>
</g>
<!-- Node1&#45;&gt;Node13 -->
<g id="edge19" class="edge">
<title>Node1&#45;&gt;Node13</title>
<path fill="none" stroke="midnightblue" d="M820.54,-172.45C802.43,-196.82 767.74,-240.93 732,-272.5 662.8,-333.62 643.54,-350.4 559,-387.5 550.37,-391.29 540.86,-394.4 531.54,-396.93"/>
<polygon fill="midnightblue" stroke="midnightblue" points="823.54,-174.28 826.64,-164.15 817.9,-170.14 823.54,-174.28"/>
</g>
<!-- Node14 -->
<g id="node14" class="node">
<title>Node14</title>
<g id="a_node14"><a xlink:href="test__cmp__entity_8c_a92dfee949fe5c27ffd4895f16b4a423f.html#a92dfee949fe5c27ffd4895f16b4a423f" target="_top" xlink:title=" ">
<polygon fill="white" stroke="black" points="404.5,-207 404.5,-226 556.5,-226 556.5,-207 404.5,-207"/>
<text text-anchor="middle" x="480.5" y="-214" font-family="Helvetica,sans-Serif" font-size="10.00">test_cmp_ent_get_data_buf</text>
</a>
</g>
</g>
<!-- Node1&#45;&gt;Node14 -->
<g id="edge21" class="edge">
<title>Node1&#45;&gt;Node14</title>
<path fill="none" stroke="midnightblue" d="M781.91,-166.26C765.95,-169.74 748.28,-173.44 732,-176.5 669.67,-188.22 598.21,-199.41 547.6,-206.96"/>
<polygon fill="midnightblue" stroke="midnightblue" points="783.11,-169.58 792.12,-164.01 781.6,-162.74 783.11,-169.58"/>
</g>
<!-- Node15 -->
<g id="node15" class="node">
<title>Node15</title>
<g id="a_node15"><a xlink:href="test__decmp_8c_a83b6283115165bfb92bf9008dcbdc41d.html#a83b6283115165bfb92bf9008dcbdc41d" target="_top" xlink:title=" ">
<polygon fill="white" stroke="black" points="406,-157.5 406,-187.5 555,-187.5 555,-157.5 406,-157.5"/>
<text text-anchor="start" x="414" y="-175.5" font-family="Helvetica,sans-Serif" font-size="10.00">test_cmp_ent_read_header</text>
<text text-anchor="middle" x="480.5" y="-164.5" font-family="Helvetica,sans-Serif" font-size="10.00">_error_cases</text>
</a>
</g>
</g>
<!-- Node1&#45;&gt;Node15 -->
<g id="edge22" class="edge">
<title>Node1&#45;&gt;Node15</title>
<path fill="none" stroke="midnightblue" d="M757.55,-158.38C697.62,-161.45 614.52,-165.7 555.19,-168.73"/>
<polygon fill="midnightblue" stroke="midnightblue" points="757.9,-161.87 767.7,-157.86 757.54,-154.88 757.9,-161.87"/>
</g>
<!-- Node16 -->
<g id="node16" class="node">
<title>Node16</title>
<g id="a_node16"><a xlink:href="test__decmp_8c_a27e5a2b67e3e81da1be024826485b2e3.html#a27e5a2b67e3e81da1be024826485b2e3" target="_top" xlink:title=" ">
<polygon fill="white" stroke="black" points="424,-108.5 424,-138.5 537,-138.5 537,-108.5 424,-108.5"/>
<text text-anchor="start" x="432" y="-126.5" font-family="Helvetica,sans-Serif" font-size="10.00">test_cmp_ent_write</text>
<text text-anchor="middle" x="480.5" y="-115.5" font-family="Helvetica,sans-Serif" font-size="10.00">_cmp_pars</text>
</a>
</g>
</g>
<!-- Node1&#45;&gt;Node16 -->
<g id="edge23" class="edge">
<title>Node1&#45;&gt;Node16</title>
<path fill="none" stroke="midnightblue" d="M757.73,-147.83C691.42,-141.99 596.64,-133.64 537.13,-128.4"/>
<polygon fill="midnightblue" stroke="midnightblue" points="757.44,-151.31 767.7,-148.71 758.05,-144.34 757.44,-151.31"/>
</g>
<!-- Node17 -->
<g id="node17" class="node">
<title>Node17</title>
<g id="a_node17"><a xlink:href="test__cmp__entity_8c_a8f7fd6d8b939382555507ecf2e74ec79.html#a8f7fd6d8b939382555507ecf2e74ec79" target="_top" xlink:title=" ">
<polygon fill="white" stroke="black" points="424,-59.5 424,-89.5 537,-89.5 537,-59.5 424,-59.5"/>
<text text-anchor="start" x="432" y="-77.5" font-family="Helvetica,sans-Serif" font-size="10.00">test_cmp_ent_write</text>
<text text-anchor="middle" x="480.5" y="-66.5" font-family="Helvetica,sans-Serif" font-size="10.00">_rdcu_cmp_pars</text>
</a>
</g>
</g>
<!-- Node1&#45;&gt;Node17 -->
<g id="edge24" class="edge">
<title>Node1&#45;&gt;Node17</title>
<path fill="none" stroke="midnightblue" d="M785.31,-142.37C768.47,-138.19 749.42,-133.56 732,-129.5 665.22,-113.95 588.13,-97.2 537.31,-86.33"/>
<polygon fill="midnightblue" stroke="midnightblue" points="784.93,-145.88 795.48,-144.89 786.62,-139.08 784.93,-145.88"/>
</g>
<!-- Node18 -->
<g id="node18" class="node">
<title>Node18</title>
<g id="a_node18"><a xlink:href="test__cmp__entity_8c_a19d7fc6db5dff9dfc3fec51696d302b1.html#a19d7fc6db5dff9dfc3fec51696d302b1" target="_top" xlink:title=" ">
<polygon fill="white" stroke="black" points="595,-50 595,-69 732,-69 732,-50 595,-50"/>
<text text-anchor="middle" x="663.5" y="-57" font-family="Helvetica,sans-Serif" font-size="10.00">test_cmp_ent_data_type</text>
</a>
</g>
</g>
<!-- Node1&#45;&gt;Node18 -->
<g id="edge18" class="edge">
<title>Node1&#45;&gt;Node18</title>
<path fill="none" stroke="midnightblue" d="M814.07,-138.51C794.35,-122.88 762.47,-99.21 732,-83.5 720.95,-77.8 708.23,-72.89 696.83,-69.03"/>
<polygon fill="midnightblue" stroke="midnightblue" points="811.99,-141.34 821.98,-144.87 816.38,-135.88 811.99,-141.34"/>
</g>
<!-- Node19 -->
<g id="node19" class="node">
<title>Node19</title>
<g id="a_node19"><a xlink:href="test__cmp__entity_8c_a41cc3aa5c0bcd8ac649017d31689e8ba.html#a41cc3aa5c0bcd8ac649017d31689e8ba" target="_top" xlink:title=" ">
<polygon fill="white" stroke="black" points="598.5,-0.5 598.5,-30.5 728.5,-30.5 728.5,-0.5 598.5,-0.5"/>
<text text-anchor="start" x="606.5" y="-18.5" font-family="Helvetica,sans-Serif" font-size="10.00">test_cmp_ent_get_cmp</text>
<text text-anchor="middle" x="663.5" y="-7.5" font-family="Helvetica,sans-Serif" font-size="10.00">_data_size</text>
</a>
</g>
</g>
<!-- Node1&#45;&gt;Node19 -->
<g id="edge20" class="edge">
<title>Node1&#45;&gt;Node19</title>
<path fill="none" stroke="midnightblue" d="M821.63,-136.33C804.56,-111.49 770.81,-67 732,-40.5 726.43,-36.7 720.2,-33.38 713.85,-30.53"/>
<polygon fill="midnightblue" stroke="midnightblue" points="818.85,-138.47 827.34,-144.81 824.66,-134.56 818.85,-138.47"/>
</g>
<!-- Node3 -->
<g id="node3" class="node">
<title>Node3</title>
<g id="a_node3"><a xlink:href="cmp__entity_8c_ac68e6942c21572a9513a9a7577126458.html#ac68e6942c21572a9513a9a7577126458" target="_top" xlink:title="create a compression entity and set the header fields">
<polygon fill="white" stroke="black" points="436.5,-359 436.5,-378 524.5,-378 524.5,-359 436.5,-359"/>
<text text-anchor="middle" x="480.5" y="-366" font-family="Helvetica,sans-Serif" font-size="10.00">cmp_ent_build</text>
</a>
</g>
</g>
<!-- Node2&#45;&gt;Node3 -->
<g id="edge2" class="edge">
<title>Node2&#45;&gt;Node3</title>
<path fill="none" stroke="midnightblue" d="M647.2,-270.81C628.33,-291.16 594.41,-324.66 559,-344.5 548.19,-350.56 535.65,-355.29 523.85,-358.89"/>
<polygon fill="midnightblue" stroke="midnightblue" points="649.96,-272.97 654.1,-263.22 644.78,-268.26 649.96,-272.97"/>
</g>
<!-- Node4 -->
<g id="node4" class="node">
<title>Node4</title>
<g id="a_node4"><a xlink:href="test__cmp__decmp_8c_a50ba26014079160ca77b7d7fa76ce0f4.html#a50ba26014079160ca77b7d7fa76ce0f4" target="_top" xlink:title="compress the given configuration and decompress it afterwards; finally compare the results">
<polygon fill="white" stroke="black" points="195,-302 195,-321 353,-321 353,-302 195,-302"/>
<text text-anchor="middle" x="274" y="-309" font-family="Helvetica,sans-Serif" font-size="10.00">compression_decompression</text>
</a>
</g>
</g>
<!-- Node2&#45;&gt;Node4 -->
<g id="edge9" class="edge">
<title>Node2&#45;&gt;Node4</title>
<path fill="none" stroke="midnightblue" d="M642.06,-269.16C622.11,-283.38 590.28,-303.33 559,-311.5 487.08,-330.28 401.38,-326.94 343.07,-321.02"/>
<polygon fill="midnightblue" stroke="midnightblue" points="644.34,-271.82 650.34,-263.09 640.21,-266.18 644.34,-271.82"/>
</g>
<!-- Node10 -->
<g id="node10" class="node">
<title>Node10</title>
<g id="a_node10"><a xlink:href="test__decmp_8c_a2d642d4d482b9ec7eca4568a95f5bdd4.html#a2d642d4d482b9ec7eca4568a95f5bdd4" target="_top" xlink:title=" ">
<polygon fill="white" stroke="black" points="408.5,-245 408.5,-264 552.5,-264 552.5,-245 408.5,-245"/>
<text text-anchor="middle" x="480.5" y="-252" font-family="Helvetica,sans-Serif" font-size="10.00">icu_compress_data_entity</text>
</a>
</g>
</g>
<!-- Node2&#45;&gt;Node10 -->
<g id="edge10" class="edge">
<title>Node2&#45;&gt;Node10</title>
<path fill="none" stroke="midnightblue" d="M605.67,-253.81C588.83,-253.91 570.18,-254.01 552.57,-254.11"/>
<polygon fill="midnightblue" stroke="midnightblue" points="605.91,-257.31 615.89,-253.76 605.87,-250.31 605.91,-257.31"/>
</g>
<!-- Node12 -->
<g id="node12" class="node">
<title>Node12</title>
<g id="a_node12"><a xlink:href="test__cmp__entity_8c_a991729c77482729377539ccc0c96f4b7.html#a991729c77482729377539ccc0c96f4b7" target="_top" xlink:title=" ">
<polygon fill="white" stroke="black" points="421,-283 421,-302 540,-302 540,-283 421,-283"/>
<text text-anchor="middle" x="480.5" y="-290" font-family="Helvetica,sans-Serif" font-size="10.00">test_cmp_ent_create</text>
</a>
</g>
</g>
<!-- Node2&#45;&gt;Node12 -->
<g id="edge12" class="edge">
<title>Node2&#45;&gt;Node12</title>
<path fill="none" stroke="midnightblue" d="M608.36,-265.16C581.95,-270.86 550.57,-277.62 525.63,-282.99"/>
<polygon fill="midnightblue" stroke="midnightblue" points="609.18,-268.57 618.22,-263.04 607.71,-261.73 609.18,-268.57"/>
</g>
<!-- Node2&#45;&gt;Node13 -->
<g id="edge13" class="edge">
<title>Node2&#45;&gt;Node13</title>
<path fill="none" stroke="midnightblue" d="M647.54,-270.81C633.57,-287.17 612.32,-312.58 595,-335.5 578.05,-357.93 582.15,-371.56 559,-387.5 553.41,-391.35 547.12,-394.42 540.6,-396.87"/>
<polygon fill="midnightblue" stroke="midnightblue" points="650.27,-273 654.13,-263.13 644.96,-268.44 650.27,-273"/>
</g>
<!-- Node2&#45;&gt;Node14 -->
<g id="edge14" class="edge">
<title>Node2&#45;&gt;Node14</title>
<path fill="none" stroke="midnightblue" d="M605.83,-241.92C580.89,-236.82 551.95,-230.9 528.27,-226.06"/>
<polygon fill="midnightblue" stroke="midnightblue" points="605.39,-245.4 615.89,-243.97 606.79,-238.54 605.39,-245.4"/>
</g>
<!-- Node2&#45;&gt;Node15 -->
<g id="edge15" class="edge">
<title>Node2&#45;&gt;Node15</title>
<path fill="none" stroke="midnightblue" d="M638.11,-238.64C617.52,-226.51 587.02,-209.48 559,-197.5 550.68,-193.94 541.68,-190.6 532.85,-187.59"/>
<polygon fill="midnightblue" stroke="midnightblue" points="636.44,-241.72 646.82,-243.83 640.02,-235.7 636.44,-241.72"/>
</g>
<!-- Node2&#45;&gt;Node16 -->
<g id="edge16" class="edge">
<title>Node2&#45;&gt;Node16</title>
<path fill="none" stroke="midnightblue" d="M649.36,-235.59C631.42,-212.34 597.09,-171.97 559,-148.5 552.26,-144.35 544.76,-140.81 537.16,-137.83"/>
<polygon fill="midnightblue" stroke="midnightblue" points="646.79,-238 655.61,-243.87 652.38,-233.78 646.79,-238"/>
</g>
<!-- Node2&#45;&gt;Node17 -->
<g id="edge17" class="edge">
<title>Node2&#45;&gt;Node17</title>
<path fill="none" stroke="midnightblue" d="M654.92,-234.51C640.92,-201.84 607.9,-135 559,-98.5 552.45,-93.61 544.89,-89.71 537.12,-86.59"/>
<polygon fill="midnightblue" stroke="midnightblue" points="651.73,-235.94 658.8,-243.84 658.19,-233.26 651.73,-235.94"/>
</g>
<!-- Node3&#45;&gt;Node4 -->
<g id="edge3" class="edge">
<title>Node3&#45;&gt;Node4</title>
<path fill="none" stroke="midnightblue" d="M437.12,-355.97C425.67,-352.42 413.31,-348.45 402,-344.5 385.79,-338.85 382.46,-335.38 366,-330.5 353.93,-326.92 340.77,-323.76 328.3,-321.09"/>
<polygon fill="midnightblue" stroke="midnightblue" points="436.32,-359.38 446.9,-358.96 438.37,-352.69 436.32,-359.38"/>
</g>
<!-- Node6 -->
<g id="node6" class="node">
<title>Node6</title>
<g id="a_node6"><a xlink:href="test__decmp_8c_a6e7a5e150e2c829836db3c42cdec2eec.html#a6e7a5e150e2c829836db3c42cdec2eec" target="_top" xlink:title=" ">
<polygon fill="white" stroke="black" points="182,-416 182,-435 366,-435 366,-416 182,-416"/>
<text text-anchor="middle" x="274" y="-423" font-family="Helvetica,sans-Serif" font-size="10.00">test_cmp_decmp_n_imagette_raw</text>
</a>
</g>
</g>
<!-- Node3&#45;&gt;Node6 -->
<g id="edge5" class="edge">
<title>Node3&#45;&gt;Node6</title>
<path fill="none" stroke="midnightblue" d="M426.6,-379.63C418.26,-381.9 409.82,-384.53 402,-387.5 385.09,-393.92 383.02,-400.37 366,-406.5 355.52,-410.27 344.08,-413.39 332.96,-415.94"/>
<polygon fill="midnightblue" stroke="midnightblue" points="427.49,-383.01 436.29,-377.11 425.73,-376.23 427.49,-383.01"/>
</g>
<!-- Node7 -->
<g id="node7" class="node">
<title>Node7</title>
<g id="a_node7"><a xlink:href="test__cmp__entity_8c_a13c81359af8798146608574ab0e113fb.html#a13c81359af8798146608574ab0e113fb" target="_top" xlink:title=" ">
<polygon fill="white" stroke="black" points="218,-378 218,-397 330,-397 330,-378 218,-378"/>
<text text-anchor="middle" x="274" y="-385" font-family="Helvetica,sans-Serif" font-size="10.00">test_cmp_ent_build</text>
</a>
</g>
</g>
<!-- Node3&#45;&gt;Node7 -->
<g id="edge6" class="edge">
<title>Node3&#45;&gt;Node7</title>
<path fill="none" stroke="midnightblue" d="M426,-373.47C396.44,-376.22 359.79,-379.62 330,-382.39"/>
<polygon fill="midnightblue" stroke="midnightblue" points="426.5,-376.94 436.13,-372.53 425.85,-369.97 426.5,-376.94"/>
</g>
<!-- Node8 -->
<g id="node8" class="node">
<title>Node8</title>
<g id="a_node8"><a xlink:href="test__cmp__entity_8c_a893444224bcd50fbb99e42e85989b4a6.html#a893444224bcd50fbb99e42e85989b4a6" target="_top" xlink:title=" ">
<polygon fill="white" stroke="black" points="216.5,-340 216.5,-359 331.5,-359 331.5,-340 216.5,-340"/>
<text text-anchor="middle" x="274" y="-347" font-family="Helvetica,sans-Serif" font-size="10.00">test_cmp_ent_parse</text>
</a>
</g>
</g>
<!-- Node3&#45;&gt;Node8 -->
<g id="edge7" class="edge">
<title>Node3&#45;&gt;Node8</title>
<path fill="none" stroke="midnightblue" d="M426.15,-363.54C397.07,-360.84 361.09,-357.5 331.52,-354.75"/>
<polygon fill="midnightblue" stroke="midnightblue" points="425.85,-367.03 436.13,-364.47 426.5,-360.06 425.85,-367.03"/>
</g>
<!-- Node9 -->
<g id="node9" class="node">
<title>Node9</title>
<g id="a_node9"><a xlink:href="test__cmp__entity_8c_a28c5d64d3c7c61100798fa39100d0f30.html#a28c5d64d3c7c61100798fa39100d0f30" target="_top" xlink:title=" ">
<polygon fill="white" stroke="black" points="219,-454 219,-473 329,-473 329,-454 219,-454"/>
<text text-anchor="middle" x="274" y="-461" font-family="Helvetica,sans-Serif" font-size="10.00">test_cmp_ent_print</text>
</a>
</g>
</g>
<!-- Node3&#45;&gt;Node9 -->
<g id="edge8" class="edge">
<title>Node3&#45;&gt;Node9</title>
<path fill="none" stroke="midnightblue" d="M426.52,-375.7C417.81,-378.46 409.27,-382.27 402,-387.5 377.68,-405.01 390.62,-427.42 366,-444.5 355.26,-451.95 342.21,-456.59 329.38,-459.45"/>
<polygon fill="midnightblue" stroke="midnightblue" points="427.64,-379.03 436.36,-373.01 425.79,-372.27 427.64,-379.03"/>
</g>
<!-- Node5 -->
<g id="node5" class="node">
<title>Node5</title>
<g id="a_node5"><a xlink:href="test__cmp__decmp_8c_af3c162694b40683e0aa25c61a49cdafc.html#af3c162694b40683e0aa25c61a49cdafc" target="_top" xlink:title="random compression decompression test">
<polygon fill="white" stroke="black" points="0,-296.5 0,-326.5 146,-326.5 146,-296.5 0,-296.5"/>
<text text-anchor="start" x="8" y="-314.5" font-family="Helvetica,sans-Serif" font-size="10.00">test_random_compression</text>
<text text-anchor="middle" x="73" y="-303.5" font-family="Helvetica,sans-Serif" font-size="10.00">_decompression</text>
</a>
</g>
</g>
<!-- Node4&#45;&gt;Node5 -->
<g id="edge4" class="edge">
<title>Node4&#45;&gt;Node5</title>
<path fill="none" stroke="midnightblue" d="M184.63,-311.5C171.72,-311.5 158.55,-311.5 146.01,-311.5"/>
<polygon fill="midnightblue" stroke="midnightblue" points="184.92,-315 194.92,-311.5 184.92,-308 184.92,-315"/>
</g>
<!-- Node11 -->
<g id="node11" class="node">
<title>Node11</title>
<g id="a_node11"><a xlink:href="test__decmp_8c_a1a33e2fcbf484c79dfe661b280386f6b.html#a1a33e2fcbf484c79dfe661b280386f6b" target="_top" xlink:title=" ">
<polygon fill="white" stroke="black" points="201,-245 201,-264 347,-264 347,-245 201,-245"/>
<text text-anchor="middle" x="274" y="-252" font-family="Helvetica,sans-Serif" font-size="10.00">test_cmp_decmp_s_fx_diff</text>
</a>
</g>
</g>
<!-- Node10&#45;&gt;Node11 -->
<g id="edge11" class="edge">
<title>Node10&#45;&gt;Node11</title>
<path fill="none" stroke="midnightblue" d="M397.9,-254.5C381.08,-254.5 363.48,-254.5 347.02,-254.5"/>
<polygon fill="midnightblue" stroke="midnightblue" points="398.26,-258 408.26,-254.5 398.26,-251 398.26,-258"/>
</g>
</g>
</svg>
