<?xml version="1.0" encoding="UTF-8" standalone="no"?>
<!DOCTYPE svg PUBLIC "-//W3C//DTD SVG 1.1//EN"
 "http://www.w3.org/Graphics/SVG/1.1/DTD/svg11.dtd">
<!-- Generated by graphviz version 2.43.0 (0)
 -->
<!-- Title: cmp_ent_get_hdr_size Pages: 1 -->
<svg width="482pt" height="116pt"
 viewBox="0.00 0.00 482.00 115.50" xmlns="http://www.w3.org/2000/svg" xmlns:xlink="http://www.w3.org/1999/xlink">
<g id="graph0" class="graph" transform="scale(1 1) rotate(0) translate(4 111.5)">
<title>cmp_ent_get_hdr_size</title>
<polygon fill="white" stroke="transparent" points="-4,4 -4,-111.5 478,-111.5 478,4 -4,4"/>
<!-- Node1 -->
<g id="node1" class="node">
<title>Node1</title>
<g id="a_node1"><a xlink:title="get the size of the compression entity header based on the set data product type in compression entit...">
<polygon fill="#bfbfbf" stroke="black" points="0,-50 0,-69 125,-69 125,-50 0,-50"/>
<text text-anchor="middle" x="62.5" y="-57" font-family="Helvetica,sans-Serif" font-size="10.00">cmp_ent_get_hdr_size</text>
</a>
</g>
</g>
<!-- Node2 -->
<g id="node2" class="node">
<title>Node2</title>
<g id="a_node2"><a xlink:href="cmp__entity_8c_ac4f3e5eb03e7dc0f1a646dd150543af5.html#ac4f3e5eb03e7dc0f1a646dd150543af5" target="_top" xlink:title="calculate the size of the compression entity header based on a compression data product type">
<polygon fill="white" stroke="black" points="166,-88 166,-107 290,-107 290,-88 166,-88"/>
<text text-anchor="middle" x="228" y="-95" font-family="Helvetica,sans-Serif" font-size="10.00">cmp_ent_cal_hdr_size</text>
</a>
</g>
</g>
<!-- Node1&#45;&gt;Node2 -->
<g id="edge1" class="edge">
<title>Node1&#45;&gt;Node2</title>
<path fill="none" stroke="midnightblue" d="M104.76,-69.09C126.43,-74.13 153.18,-80.34 176.13,-85.68"/>
<polygon fill="midnightblue" stroke="midnightblue" points="175.51,-89.13 186.04,-87.98 177.09,-82.31 175.51,-89.13"/>
</g>
<!-- Node4 -->
<g id="node4" class="node">
<title>Node4</title>
<g id="a_node4"><a xlink:href="cmp__entity_8c_a2f2b18a1db94847afbfc30a8e7f142cf.html#a2f2b18a1db94847afbfc30a8e7f142cf" target="_top" xlink:title="get data_type from the compression entity header">
<polygon fill="white" stroke="black" points="161,-50 161,-69 295,-69 295,-50 161,-50"/>
<text text-anchor="middle" x="228" y="-57" font-family="Helvetica,sans-Serif" font-size="10.00">cmp_ent_get_data_type</text>
</a>
</g>
</g>
<!-- Node1&#45;&gt;Node4 -->
<g id="edge3" class="edge">
<title>Node1&#45;&gt;Node4</title>
<path fill="none" stroke="midnightblue" d="M125.31,-59.5C133.54,-59.5 142.06,-59.5 150.5,-59.5"/>
<polygon fill="midnightblue" stroke="midnightblue" points="150.73,-63 160.73,-59.5 150.73,-56 150.73,-63"/>
</g>
<!-- Node5 -->
<g id="node5" class="node">
<title>Node5</title>
<g id="a_node5"><a xlink:href="cmp__entity_8c_a8edb7fa093195536f03038be2a5341a4.html#a8edb7fa093195536f03038be2a5341a4" target="_top" xlink:title="get the raw bit from the data_type field of the compression entity header">
<polygon fill="white" stroke="black" points="161,-0.5 161,-30.5 295,-30.5 295,-0.5 161,-0.5"/>
<text text-anchor="start" x="169" y="-18.5" font-family="Helvetica,sans-Serif" font-size="10.00">cmp_ent_get_data_type</text>
<text text-anchor="middle" x="228" y="-7.5" font-family="Helvetica,sans-Serif" font-size="10.00">_raw_bit</text>
</a>
</g>
</g>
<!-- Node1&#45;&gt;Node5 -->
<g id="edge4" class="edge">
<title>Node1&#45;&gt;Node5</title>
<path fill="none" stroke="midnightblue" d="M98.98,-49.95C117.22,-45.04 140.05,-38.9 161.36,-33.17"/>
<polygon fill="midnightblue" stroke="midnightblue" points="162.27,-36.54 171.02,-30.57 160.45,-29.78 162.27,-36.54"/>
</g>
<!-- Node3 -->
<g id="node3" class="node">
<title>Node3</title>
<g id="a_node3"><a xlink:href="cmp__support_8c_af2129b98a4b5c7f856e97776962d7881.html#af2129b98a4b5c7f856e97776962d7881" target="_top" xlink:title="check if the compression entity data product type is supported">
<polygon fill="white" stroke="black" points="331,-88 331,-107 474,-107 474,-88 331,-88"/>
<text text-anchor="middle" x="402.5" y="-95" font-family="Helvetica,sans-Serif" font-size="10.00">cmp_data_type_is_invalid</text>
</a>
</g>
</g>
<!-- Node2&#45;&gt;Node3 -->
<g id="edge2" class="edge">
<title>Node2&#45;&gt;Node3</title>
<path fill="none" stroke="midnightblue" d="M290.3,-97.5C300.18,-97.5 310.54,-97.5 320.79,-97.5"/>
<polygon fill="midnightblue" stroke="midnightblue" points="320.98,-101 330.98,-97.5 320.98,-94 320.98,-101"/>
</g>
</g>
</svg>
