<?xml version="1.0" encoding="UTF-8" standalone="no"?>
<!DOCTYPE svg PUBLIC "-//W3C//DTD SVG 1.1//EN"
 "http://www.w3.org/Graphics/SVG/1.1/DTD/svg11.dtd">
<!-- Generated by graphviz version 2.43.0 (0)
 -->
<!-- Title: cmp_support.c Pages: 1 -->
<svg width="443pt" height="196pt"
 viewBox="0.00 0.00 442.98 196.00" xmlns="http://www.w3.org/2000/svg" xmlns:xlink="http://www.w3.org/1999/xlink">
<g id="graph0" class="graph" transform="scale(1 1) rotate(0) translate(4 192)">
<title>cmp_support.c</title>
<polygon fill="white" stroke="transparent" points="-4,4 -4,-192 438.98,-192 438.98,4 -4,4"/>
<!-- Node1 -->
<g id="node1" class="node">
<title>Node1</title>
<g id="a_node1"><a xlink:title="compressor support library">
<polygon fill="#bfbfbf" stroke="black" points="160.48,-168.5 160.48,-187.5 248.48,-187.5 248.48,-168.5 160.48,-168.5"/>
<text text-anchor="middle" x="204.48" y="-175.5" font-family="Helvetica,sans-Serif" font-size="10.00">cmp_support.c</text>
</a>
</g>
</g>
<!-- Node2 -->
<g id="node2" class="node">
<title>Node2</title>
<g id="a_node2"><a xlink:href="compiler_8h.html" target="_top" xlink:title="a collection of preprocessor macros">
<polygon fill="white" stroke="black" points="21.48,-112.5 21.48,-131.5 89.48,-131.5 89.48,-112.5 21.48,-112.5"/>
<text text-anchor="middle" x="55.48" y="-119.5" font-family="Helvetica,sans-Serif" font-size="10.00">compiler.h</text>
</a>
</g>
</g>
<!-- Node1&#45;&gt;Node2 -->
<g id="edge1" class="edge">
<title>Node1&#45;&gt;Node2</title>
<path fill="none" stroke="midnightblue" d="M180.87,-168.44C156.03,-159.44 116.71,-145.19 88.73,-135.05"/>
<polygon fill="midnightblue" stroke="midnightblue" points="89.58,-131.63 78.98,-131.52 87.19,-138.21 89.58,-131.63"/>
</g>
<!-- Node3 -->
<g id="node3" class="node">
<title>Node3</title>
<g id="a_node3"><a xlink:href="cmp__support_8h.html" target="_top" xlink:title="compression/decompression helper functions">
<polygon fill="white" stroke="black" points="107.98,-112.5 107.98,-131.5 196.98,-131.5 196.98,-112.5 107.98,-112.5"/>
<text text-anchor="middle" x="152.48" y="-119.5" font-family="Helvetica,sans-Serif" font-size="10.00">cmp_support.h</text>
</a>
</g>
</g>
<!-- Node1&#45;&gt;Node3 -->
<g id="edge2" class="edge">
<title>Node1&#45;&gt;Node3</title>
<path fill="none" stroke="midnightblue" d="M195.9,-168.08C188.32,-160.22 177.11,-148.57 167.97,-139.08"/>
<polygon fill="midnightblue" stroke="midnightblue" points="170.37,-136.53 160.91,-131.75 165.33,-141.38 170.37,-136.53"/>
</g>
<!-- Node8 -->
<g id="node8" class="node">
<title>Node8</title>
<g id="a_node8"><a xlink:href="cmp__debug_8h.html" target="_top" xlink:title="compression/decompression debugging defines">
<polygon fill="white" stroke="black" points="215.48,-112.5 215.48,-131.5 297.48,-131.5 297.48,-112.5 215.48,-112.5"/>
<text text-anchor="middle" x="256.48" y="-119.5" font-family="Helvetica,sans-Serif" font-size="10.00">cmp_debug.h</text>
</a>
</g>
</g>
<!-- Node1&#45;&gt;Node8 -->
<g id="edge9" class="edge">
<title>Node1&#45;&gt;Node8</title>
<path fill="none" stroke="midnightblue" d="M213.07,-168.08C220.64,-160.22 231.86,-148.57 241,-139.08"/>
<polygon fill="midnightblue" stroke="midnightblue" points="243.64,-141.38 248.06,-131.75 238.6,-136.53 243.64,-141.38"/>
</g>
<!-- Node9 -->
<g id="node9" class="node">
<title>Node9</title>
<g id="a_node9"><a xlink:href="leon__inttypes_8h.html" target="_top" xlink:title="This is a simple inttypes.h implementation for the sparc platform, since the sparc&#45;elf&#45;gcc toolchain ...">
<polygon fill="white" stroke="black" points="335.48,-112.5 335.48,-131.5 427.48,-131.5 427.48,-112.5 335.48,-112.5"/>
<text text-anchor="middle" x="381.48" y="-119.5" font-family="Helvetica,sans-Serif" font-size="10.00">leon_inttypes.h</text>
</a>
</g>
</g>
<!-- Node1&#45;&gt;Node9 -->
<g id="edge10" class="edge">
<title>Node1&#45;&gt;Node9</title>
<path fill="none" stroke="midnightblue" d="M232.53,-168.44C262.57,-159.28 310.4,-144.69 343.73,-134.52"/>
<polygon fill="midnightblue" stroke="midnightblue" points="345.03,-137.78 353.57,-131.52 342.98,-131.09 345.03,-137.78"/>
</g>
<!-- Node4 -->
<g id="node4" class="node">
<title>Node4</title>
<g id="a_node4"><a xlink:title=" ">
<polygon fill="white" stroke="#bfbfbf" points="125.98,-0.5 125.98,-19.5 178.98,-19.5 178.98,-0.5 125.98,-0.5"/>
<text text-anchor="middle" x="152.48" y="-7.5" font-family="Helvetica,sans-Serif" font-size="10.00">stdint.h</text>
</a>
</g>
</g>
<!-- Node3&#45;&gt;Node4 -->
<g id="edge3" class="edge">
<title>Node3&#45;&gt;Node4</title>
<path fill="none" stroke="midnightblue" d="M107.94,-113.24C69.64,-105.55 18.69,-92.54 6.48,-76 -23.56,-35.3 63.27,-19.6 115.72,-13.94"/>
<polygon fill="midnightblue" stroke="midnightblue" points="116.1,-17.42 125.7,-12.93 115.4,-10.45 116.1,-17.42"/>
</g>
<!-- Node5 -->
<g id="node5" class="node">
<title>Node5</title>
<g id="a_node5"><a xlink:title=" ">
<polygon fill="white" stroke="#bfbfbf" points="15.48,-56.5 15.48,-75.5 71.48,-75.5 71.48,-56.5 15.48,-56.5"/>
<text text-anchor="middle" x="43.48" y="-63.5" font-family="Helvetica,sans-Serif" font-size="10.00">stddef.h</text>
</a>
</g>
</g>
<!-- Node3&#45;&gt;Node5 -->
<g id="edge4" class="edge">
<title>Node3&#45;&gt;Node5</title>
<path fill="none" stroke="midnightblue" d="M134.97,-112.32C117.41,-103.62 90.15,-90.12 69.95,-80.11"/>
<polygon fill="midnightblue" stroke="midnightblue" points="71.47,-76.96 60.95,-75.65 68.36,-83.23 71.47,-76.96"/>
</g>
<!-- Node6 -->
<g id="node6" class="node">
<title>Node6</title>
<g id="a_node6"><a xlink:href="cmp__max__used__bits_8h.html" target="_top" xlink:title="definition and consents of the cmp_max_used_bits structure">
<polygon fill="white" stroke="black" points="89.98,-56.5 89.98,-75.5 214.98,-75.5 214.98,-56.5 89.98,-56.5"/>
<text text-anchor="middle" x="152.48" y="-63.5" font-family="Helvetica,sans-Serif" font-size="10.00">cmp_max_used_bits.h</text>
</a>
</g>
</g>
<!-- Node3&#45;&gt;Node6 -->
<g id="edge5" class="edge">
<title>Node3&#45;&gt;Node6</title>
<path fill="none" stroke="midnightblue" d="M152.48,-112.08C152.48,-105.01 152.48,-94.86 152.48,-85.99"/>
<polygon fill="midnightblue" stroke="midnightblue" points="155.98,-85.75 152.48,-75.75 148.98,-85.75 155.98,-85.75"/>
</g>
<!-- Node7 -->
<g id="node7" class="node">
<title>Node7</title>
<g id="a_node7"><a xlink:href="cmp__cal__up__model_8h.html" target="_top" xlink:title="functions to calculate the update (new) model">
<polygon fill="white" stroke="black" points="232.98,-56.5 232.98,-75.5 351.98,-75.5 351.98,-56.5 232.98,-56.5"/>
<text text-anchor="middle" x="292.48" y="-63.5" font-family="Helvetica,sans-Serif" font-size="10.00">cmp_cal_up_model.h</text>
</a>
</g>
</g>
<!-- Node3&#45;&gt;Node7 -->
<g id="edge7" class="edge">
<title>Node3&#45;&gt;Node7</title>
<path fill="none" stroke="midnightblue" d="M174.67,-112.44C197.91,-103.48 234.63,-89.31 260.9,-79.18"/>
<polygon fill="midnightblue" stroke="midnightblue" points="262.33,-82.38 270.4,-75.52 259.81,-75.85 262.33,-82.38"/>
</g>
<!-- Node6&#45;&gt;Node4 -->
<g id="edge6" class="edge">
<title>Node6&#45;&gt;Node4</title>
<path fill="none" stroke="midnightblue" d="M152.48,-56.08C152.48,-49.01 152.48,-38.86 152.48,-29.99"/>
<polygon fill="midnightblue" stroke="midnightblue" points="155.98,-29.75 152.48,-19.75 148.98,-29.75 155.98,-29.75"/>
</g>
<!-- Node7&#45;&gt;Node4 -->
<g id="edge8" class="edge">
<title>Node7&#45;&gt;Node4</title>
<path fill="none" stroke="midnightblue" d="M270.3,-56.44C247.06,-47.48 210.33,-33.31 184.07,-23.18"/>
<polygon fill="midnightblue" stroke="midnightblue" points="185.15,-19.85 174.56,-19.52 182.63,-26.38 185.15,-19.85"/>
</g>
<!-- Node10 -->
<g id="node10" class="node">
<title>Node10</title>
<g id="a_node10"><a xlink:title=" ">
<polygon fill="white" stroke="#bfbfbf" points="369.98,-56.5 369.98,-75.5 434.98,-75.5 434.98,-56.5 369.98,-56.5"/>
<text text-anchor="middle" x="402.48" y="-63.5" font-family="Helvetica,sans-Serif" font-size="10.00">inttypes.h</text>
</a>
</g>
</g>
<!-- Node9&#45;&gt;Node10 -->
<g id="edge11" class="edge">
<title>Node9&#45;&gt;Node10</title>
<path fill="none" stroke="midnightblue" d="M384.95,-112.08C387.8,-104.77 391.91,-94.18 395.44,-85.1"/>
<polygon fill="midnightblue" stroke="midnightblue" points="398.72,-86.34 399.08,-75.75 392.19,-83.8 398.72,-86.34"/>
</g>
</g>
</svg>
