<?xml version="1.0" encoding="UTF-8" standalone="no"?>
<!DOCTYPE svg PUBLIC "-//W3C//DTD SVG 1.1//EN"
 "http://www.w3.org/Graphics/SVG/1.1/DTD/svg11.dtd">
<!-- Generated by graphviz version 2.43.0 (0)
 -->
<!-- Title: cmp_rdcu_cfg.h Pages: 1 -->
<svg width="416pt" height="84pt"
 viewBox="0.00 0.00 415.50 84.00" xmlns="http://www.w3.org/2000/svg" xmlns:xlink="http://www.w3.org/1999/xlink">
<g id="graph0" class="graph" transform="scale(1 1) rotate(0) translate(4 80)">
<title>cmp_rdcu_cfg.h</title>
<polygon fill="white" stroke="transparent" points="-4,4 -4,-80 411.5,-80 411.5,4 -4,4"/>
<!-- Node1 -->
<g id="node1" class="node">
<title>Node1</title>
<g id="a_node1"><a xlink:title="hardware compressor configuration library">
<polygon fill="#bfbfbf" stroke="black" points="131,-56.5 131,-75.5 224,-75.5 224,-56.5 131,-56.5"/>
<text text-anchor="middle" x="177.5" y="-63.5" font-family="Helvetica,sans-Serif" font-size="10.00">cmp_rdcu_cfg.h</text>
</a>
</g>
</g>
<!-- Node2 -->
<g id="node2" class="node">
<title>Node2</title>
<g id="a_node2"><a xlink:href="cmp__rdcu_8h.html" target="_top" xlink:title="hardware compressor control library">
<polygon fill="white" stroke="black" points="0,-0.5 0,-19.5 73,-19.5 73,-0.5 0,-0.5"/>
<text text-anchor="middle" x="36.5" y="-7.5" font-family="Helvetica,sans-Serif" font-size="10.00">cmp_rdcu.h</text>
</a>
</g>
</g>
<!-- Node1&#45;&gt;Node2 -->
<g id="edge1" class="edge">
<title>Node1&#45;&gt;Node2</title>
<path fill="none" stroke="midnightblue" d="M145.57,-52.77C119.09,-42.63 82.11,-28.47 58.74,-19.52"/>
<polygon fill="midnightblue" stroke="midnightblue" points="144.57,-56.14 155.16,-56.44 147.07,-49.6 144.57,-56.14"/>
</g>
<!-- Node3 -->
<g id="node3" class="node">
<title>Node3</title>
<g id="a_node3"><a xlink:href="cmp__rdcu_8c.html" target="_top" xlink:title="hardware compressor control library">
<polygon fill="white" stroke="black" points="91.5,-0.5 91.5,-19.5 163.5,-19.5 163.5,-0.5 91.5,-0.5"/>
<text text-anchor="middle" x="127.5" y="-7.5" font-family="Helvetica,sans-Serif" font-size="10.00">cmp_rdcu.c</text>
</a>
</g>
</g>
<!-- Node1&#45;&gt;Node3 -->
<g id="edge2" class="edge">
<title>Node1&#45;&gt;Node3</title>
<path fill="none" stroke="midnightblue" d="M162.42,-48.72C153.61,-39.2 142.83,-27.56 135.6,-19.75"/>
<polygon fill="midnightblue" stroke="midnightblue" points="159.88,-51.12 169.24,-56.08 165.02,-46.37 159.88,-51.12"/>
</g>
<!-- Node4 -->
<g id="node4" class="node">
<title>Node4</title>
<g id="a_node4"><a xlink:href="cmp__rdcu__cfg_8c.html" target="_top" xlink:title="hardware compressor configuration library">
<polygon fill="white" stroke="black" points="181.5,-0.5 181.5,-19.5 273.5,-19.5 273.5,-0.5 181.5,-0.5"/>
<text text-anchor="middle" x="227.5" y="-7.5" font-family="Helvetica,sans-Serif" font-size="10.00">cmp_rdcu_cfg.c</text>
</a>
</g>
</g>
<!-- Node1&#45;&gt;Node4 -->
<g id="edge3" class="edge">
<title>Node1&#45;&gt;Node4</title>
<path fill="none" stroke="midnightblue" d="M192.58,-48.72C201.39,-39.2 212.17,-27.56 219.4,-19.75"/>
<polygon fill="midnightblue" stroke="midnightblue" points="189.98,-46.37 185.76,-56.08 195.12,-51.12 189.98,-46.37"/>
</g>
<!-- Node5 -->
<g id="node5" class="node">
<title>Node5</title>
<g id="a_node5"><a xlink:href="test__cmp__rdcu__cfg_8c.html" target="_top" xlink:title="hardware compressor configuration tests">
<polygon fill="white" stroke="black" points="291.5,-0.5 291.5,-19.5 407.5,-19.5 407.5,-0.5 291.5,-0.5"/>
<text text-anchor="middle" x="349.5" y="-7.5" font-family="Helvetica,sans-Serif" font-size="10.00">test_cmp_rdcu_cfg.c</text>
</a>
</g>
</g>
<!-- Node1&#45;&gt;Node5 -->
<g id="edge4" class="edge">
<title>Node1&#45;&gt;Node5</title>
<path fill="none" stroke="midnightblue" d="M214.33,-53.44C246.76,-43.26 293.24,-28.66 322.37,-19.52"/>
<polygon fill="midnightblue" stroke="midnightblue" points="213.25,-50.11 204.75,-56.44 215.34,-56.79 213.25,-50.11"/>
</g>
</g>
</svg>
