<?xml version="1.0" encoding="UTF-8" standalone="no"?>
<!DOCTYPE svg PUBLIC "-//W3C//DTD SVG 1.1//EN"
 "http://www.w3.org/Graphics/SVG/1.1/DTD/svg11.dtd">
<!-- Generated by graphviz version 2.43.0 (0)
 -->
<!-- Title: cmp_ent_write_rdcu_cmp_pars Pages: 1 -->
<!--zoomable 781 -->
<svg id="main" version="1.1" xmlns="http://www.w3.org/2000/svg" xmlns:xlink="http://www.w3.org/1999/xlink" xml:space="preserve" onload="init(evt)">
<style type="text/css"><![CDATA[
.edge:hover path { stroke: red; }
.edge:hover polygon { stroke: red; fill: red; }
]]></style>
<script type="text/javascript"><![CDATA[
var edges = document.getElementsByTagName('g');
if (edges && edges.length) {
  for (var i=0;i<edges.length;i++) {
    if (edges[i].id.substr(0,4)=='edge') {
      edges[i].setAttribute('class','edge');
    }
  }
}
]]></script>
        <defs>
                <circle id="rim" cx="0" cy="0" r="7"/>
                <circle id="rim2" cx="0" cy="0" r="3.5"/>
                <g id="zoomPlus">
                        <use xlink:href="#rim" fill="#404040">
                                <set attributeName="fill" to="#808080" begin="zoomplus.mouseover" end="zoomplus.mouseout"/>
                        </use>
                        <path d="M-4,0h8M0,-4v8" fill="none" stroke="white" stroke-width="1.5" pointer-events="none"/>
                </g>
                <g id="zoomMin">
                        <use xlink:href="#rim" fill="#404040">
                                <set attributeName="fill" to="#808080" begin="zoomminus.mouseover" end="zoomminus.mouseout"/>
                        </use>
                        <path d="M-4,0h8" fill="none" stroke="white" stroke-width="1.5" pointer-events="none"/>
                </g>
                <g id="dirArrow">
                        <path fill="none" stroke="white" stroke-width="1.5" d="M0,-3.0v7 M-2.5,-0.5L0,-3.0L2.5,-0.5"/>
                </g>
               <g id="resetDef">
                       <use xlink:href="#rim2" fill="#404040">
                               <set attributeName="fill" to="#808080" begin="reset.mouseover" end="reset.mouseout"/>
                       </use>
               </g>
        </defs>

<script type="text/javascript">
var viewWidth = 835;
var viewHeight = 781;
var sectionId = 'dynsection-0';
</script>
<script xlink:href="svgpan.js"/>
<svg id="graph" class="graph">
<g id="viewport">
<title>cmp_ent_write_rdcu_cmp_pars</title>
<polygon fill="white" stroke="transparent" points="-4,4 -4,-776.5 831,-776.5 831,4 -4,4"/>
<!-- Node1 -->
<g id="node1" class="node">
<title>Node1</title>
<g id="a_node1"><a xlink:title="write the parameters from the RDCU decompression information structure in the compression entity head...">
<polygon fill="#bfbfbf" stroke="black" points="0,-377 0,-407 115,-407 115,-377 0,-377"/>
<text text-anchor="start" x="8" y="-395" font-family="Helvetica,sans-Serif" font-size="10.00">cmp_ent_write_rdcu</text>
<text text-anchor="middle" x="57.5" y="-384" font-family="Helvetica,sans-Serif" font-size="10.00">_cmp_pars</text>
</a>
</g>
</g>
<!-- Node2 -->
<g id="node2" class="node">
<title>Node2</title>
<g id="a_node2"><a xlink:href="cmp__support_8c_a1eff9dab3c3ab66953c329fa1bf38bb5.html#a1eff9dab3c3ab66953c329fa1bf38bb5" target="_top" xlink:title="check if an adaptive imagette compression data type is used">
<polygon fill="white" stroke="black" points="168.5,-742 168.5,-772 299.5,-772 299.5,-742 168.5,-742"/>
<text text-anchor="start" x="176.5" y="-760" font-family="Helvetica,sans-Serif" font-size="10.00">cmp_ap_imagette_data</text>
<text text-anchor="middle" x="234" y="-749" font-family="Helvetica,sans-Serif" font-size="10.00">_type_is_used</text>
</a>
</g>
</g>
<!-- Node1&#45;&gt;Node2 -->
<g id="edge1" class="edge">
<title>Node1&#45;&gt;Node2</title>
<path fill="none" stroke="midnightblue" d="M57.83,-407.36C56.4,-460.31 58.99,-637.16 151,-732 153.64,-734.72 156.57,-737.15 159.71,-739.32"/>
<polygon fill="midnightblue" stroke="midnightblue" points="158.03,-742.39 168.42,-744.46 161.59,-736.36 158.03,-742.39"/>
</g>
<!-- Node3 -->
<g id="node3" class="node">
<title>Node3</title>
<g id="a_node3"><a xlink:href="cmp__support_8c_a9b2702244ffc1d51b81f38b909ce84b4.html#a9b2702244ffc1d51b81f38b909ce84b4" target="_top" xlink:title="calculate the need bytes to hold a bitstream">
<polygon fill="white" stroke="black" points="185,-703.5 185,-722.5 283,-722.5 283,-703.5 185,-703.5"/>
<text text-anchor="middle" x="234" y="-710.5" font-family="Helvetica,sans-Serif" font-size="10.00">cmp_bit_to_byte</text>
</a>
</g>
</g>
<!-- Node1&#45;&gt;Node3 -->
<g id="edge2" class="edge">
<title>Node1&#45;&gt;Node3</title>
<path fill="none" stroke="midnightblue" d="M58.5,-407.16C59.36,-455.59 68.77,-608.17 151,-689 157.68,-695.57 166.06,-700.35 174.88,-703.84"/>
<polygon fill="midnightblue" stroke="midnightblue" points="173.99,-707.23 184.58,-707.14 176.24,-700.6 173.99,-707.23"/>
</g>
<!-- Node4 -->
<g id="node4" class="node">
<title>Node4</title>
<g id="a_node4"><a xlink:href="cmp__data__types_8c_aafa65f72ed4d0fb99beb11c37f11ce52.html#aafa65f72ed4d0fb99beb11c37f11ce52" target="_top" xlink:title="calculate the need bytes for the data">
<polygon fill="white" stroke="black" points="172,-627.5 172,-646.5 296,-646.5 296,-627.5 172,-627.5"/>
<text text-anchor="middle" x="234" y="-634.5" font-family="Helvetica,sans-Serif" font-size="10.00">cmp_cal_size_of_data</text>
</a>
</g>
</g>
<!-- Node1&#45;&gt;Node4 -->
<g id="edge3" class="edge">
<title>Node1&#45;&gt;Node4</title>
<path fill="none" stroke="midnightblue" d="M59.99,-407.12C64.84,-447.92 84,-560.99 151,-618 154.47,-620.96 158.32,-623.47 162.4,-625.62"/>
<polygon fill="midnightblue" stroke="midnightblue" points="161.07,-628.86 171.63,-629.73 163.92,-622.46 161.07,-628.86"/>
</g>
<!-- Node5 -->
<g id="node5" class="node">
<title>Node5</title>
<g id="a_node5"><a xlink:href="cmp__support_8c_a9197caa657b3d84615c0d323dc96c502.html#a9197caa657b3d84615c0d323dc96c502" target="_top" xlink:title="check if the data product data type is supported by the RDCU compressor">
<polygon fill="white" stroke="black" points="356,-704 356,-734 475,-734 475,-704 356,-704"/>
<text text-anchor="start" x="364" y="-722" font-family="Helvetica,sans-Serif" font-size="10.00">rdcu_supported_data</text>
<text text-anchor="middle" x="415.5" y="-711" font-family="Helvetica,sans-Serif" font-size="10.00">_type_is_used</text>
</a>
</g>
</g>
<!-- Node1&#45;&gt;Node5 -->
<g id="edge27" class="edge">
<title>Node1&#45;&gt;Node5</title>
<path fill="none" stroke="midnightblue" d="M58.99,-407.27C61.3,-452.65 74.6,-587.71 151,-656 207.43,-706.44 243.45,-676.15 317,-694 326.68,-696.35 336.88,-698.89 346.9,-701.42"/>
<polygon fill="midnightblue" stroke="midnightblue" points="346.27,-704.87 356.82,-703.95 347.99,-698.09 346.27,-704.87"/>
</g>
<!-- Node7 -->
<g id="node7" class="node">
<title>Node7</title>
<g id="a_node7"><a xlink:href="cmp__entity_8c_a6fc83a1c918c2d0c565f8f828fce62b7.html#a6fc83a1c918c2d0c565f8f828fce62b7" target="_top" xlink:title="get the size of the compressed data based on the set data product type and compressed entity size in ...">
<polygon fill="white" stroke="black" points="155,-589.5 155,-608.5 313,-608.5 313,-589.5 155,-589.5"/>
<text text-anchor="middle" x="234" y="-596.5" font-family="Helvetica,sans-Serif" font-size="10.00">cmp_ent_get_cmp_data_size</text>
</a>
</g>
</g>
<!-- Node1&#45;&gt;Node7 -->
<g id="edge6" class="edge">
<title>Node1&#45;&gt;Node7</title>
<path fill="none" stroke="midnightblue" d="M61.79,-407.11C70.21,-442.09 95.85,-529.13 151,-575 156.01,-579.17 161.73,-582.62 167.75,-585.46"/>
<polygon fill="midnightblue" stroke="midnightblue" points="166.83,-588.87 177.4,-589.46 169.5,-582.4 166.83,-588.87"/>
</g>
<!-- Node11 -->
<g id="node11" class="node">
<title>Node11</title>
<g id="a_node11"><a xlink:href="cmp__entity_8c_a2f2b18a1db94847afbfc30a8e7f142cf.html#a2f2b18a1db94847afbfc30a8e7f142cf" target="_top" xlink:title="get data_type from the compression entity header">
<polygon fill="white" stroke="black" points="514,-581.5 514,-600.5 648,-600.5 648,-581.5 514,-581.5"/>
<text text-anchor="middle" x="581" y="-588.5" font-family="Helvetica,sans-Serif" font-size="10.00">cmp_ent_get_data_type</text>
</a>
</g>
</g>
<!-- Node1&#45;&gt;Node11 -->
<g id="edge13" class="edge">
<title>Node1&#45;&gt;Node11</title>
<path fill="none" stroke="midnightblue" d="M63.73,-407.36C74.71,-437.02 103.17,-501.89 151,-532 165.74,-541.28 384.02,-568.05 503.38,-582.12"/>
<polygon fill="midnightblue" stroke="midnightblue" points="503.21,-585.62 513.55,-583.32 504.03,-578.67 503.21,-585.62"/>
</g>
<!-- Node12 -->
<g id="node12" class="node">
<title>Node12</title>
<g id="a_node12"><a xlink:href="cmp__entity_8c_a8edb7fa093195536f03038be2a5341a4.html#a8edb7fa093195536f03038be2a5341a4" target="_top" xlink:title="get the raw bit from the data_type field of the compression entity header">
<polygon fill="white" stroke="black" points="514,-516 514,-546 648,-546 648,-516 514,-516"/>
<text text-anchor="start" x="522" y="-534" font-family="Helvetica,sans-Serif" font-size="10.00">cmp_ent_get_data_type</text>
<text text-anchor="middle" x="581" y="-523" font-family="Helvetica,sans-Serif" font-size="10.00">_raw_bit</text>
</a>
</g>
</g>
<!-- Node1&#45;&gt;Node12 -->
<g id="edge14" class="edge">
<title>Node1&#45;&gt;Node12</title>
<path fill="none" stroke="midnightblue" d="M65.88,-407.35C79,-432.69 108.99,-482.57 151,-504 210.65,-534.43 397.49,-535.46 503.88,-533.36"/>
<polygon fill="midnightblue" stroke="midnightblue" points="504,-536.86 513.92,-533.15 503.85,-529.86 504,-536.86"/>
</g>
<!-- Node14 -->
<g id="node14" class="node">
<title>Node14</title>
<g id="a_node14"><a xlink:href="cmp__entity_8c_ad021295d7f4a0337c722d2231b1194b0.html#ad021295d7f4a0337c722d2231b1194b0" target="_top" xlink:title="set the used compression mode in the compression entity header">
<polygon fill="white" stroke="black" points="165,-475.5 165,-494.5 303,-494.5 303,-475.5 165,-475.5"/>
<text text-anchor="middle" x="234" y="-482.5" font-family="Helvetica,sans-Serif" font-size="10.00">cmp_ent_set_cmp_mode</text>
</a>
</g>
</g>
<!-- Node1&#45;&gt;Node14 -->
<g id="edge15" class="edge">
<title>Node1&#45;&gt;Node14</title>
<path fill="none" stroke="midnightblue" d="M73.44,-407.2C90.64,-423.84 120.48,-450.12 151,-465 156.79,-467.82 163.01,-470.27 169.34,-472.38"/>
<polygon fill="midnightblue" stroke="midnightblue" points="168.75,-475.86 179.34,-475.43 170.8,-469.16 168.75,-475.86"/>
</g>
<!-- Node15 -->
<g id="node15" class="node">
<title>Node15</title>
<g id="a_node15"><a xlink:href="cmp__entity_8c_a8b5ffc6bbde573699f7ea678d580d27d.html#a8b5ffc6bbde573699f7ea678d580d27d" target="_top" xlink:title="set adaptive 1 Golomb parameter in the adaptive imagette specific compression entity header">
<polygon fill="white" stroke="black" points="171,-426 171,-456 297,-456 297,-426 171,-426"/>
<text text-anchor="start" x="179" y="-444" font-family="Helvetica,sans-Serif" font-size="10.00">cmp_ent_set_ima_ap1</text>
<text text-anchor="middle" x="234" y="-433" font-family="Helvetica,sans-Serif" font-size="10.00">_golomb_par</text>
</a>
</g>
</g>
<!-- Node1&#45;&gt;Node15 -->
<g id="edge16" class="edge">
<title>Node1&#45;&gt;Node15</title>
<path fill="none" stroke="midnightblue" d="M112.28,-407.1C130.44,-412.2 150.89,-417.94 169.72,-423.23"/>
<polygon fill="midnightblue" stroke="midnightblue" points="168.82,-426.61 179.4,-425.95 170.72,-419.88 168.82,-426.61"/>
</g>
<!-- Node16 -->
<g id="node16" class="node">
<title>Node16</title>
<g id="a_node16"><a xlink:href="cmp__entity_8c_a0193596a3fc1047e67384991d303dae5.html#a0193596a3fc1047e67384991d303dae5" target="_top" xlink:title=" ">
<polygon fill="white" stroke="black" points="171,-377 171,-407 297,-407 297,-377 171,-377"/>
<text text-anchor="start" x="179" y="-395" font-family="Helvetica,sans-Serif" font-size="10.00">cmp_ent_set_ima_ap1</text>
<text text-anchor="middle" x="234" y="-384" font-family="Helvetica,sans-Serif" font-size="10.00">_spill</text>
</a>
</g>
</g>
<!-- Node1&#45;&gt;Node16 -->
<g id="edge17" class="edge">
<title>Node1&#45;&gt;Node16</title>
<path fill="none" stroke="midnightblue" d="M115.16,-392C129.63,-392 145.39,-392 160.54,-392"/>
<polygon fill="midnightblue" stroke="midnightblue" points="160.9,-395.5 170.9,-392 160.9,-388.5 160.9,-395.5"/>
</g>
<!-- Node17 -->
<g id="node17" class="node">
<title>Node17</title>
<g id="a_node17"><a xlink:href="cmp__entity_8c_a4dc8c50598ca23dae683cd37618e0000.html#a4dc8c50598ca23dae683cd37618e0000" target="_top" xlink:title="set adaptive 2 Golomb parameter in the adaptive imagette specific compression entity header">
<polygon fill="white" stroke="black" points="171,-328 171,-358 297,-358 297,-328 171,-328"/>
<text text-anchor="start" x="179" y="-346" font-family="Helvetica,sans-Serif" font-size="10.00">cmp_ent_set_ima_ap2</text>
<text text-anchor="middle" x="234" y="-335" font-family="Helvetica,sans-Serif" font-size="10.00">_golomb_par</text>
</a>
</g>
</g>
<!-- Node1&#45;&gt;Node17 -->
<g id="edge18" class="edge">
<title>Node1&#45;&gt;Node17</title>
<path fill="none" stroke="midnightblue" d="M112.28,-376.9C130.44,-371.8 150.89,-366.06 169.72,-360.77"/>
<polygon fill="midnightblue" stroke="midnightblue" points="170.72,-364.12 179.4,-358.05 168.82,-357.39 170.72,-364.12"/>
</g>
<!-- Node18 -->
<g id="node18" class="node">
<title>Node18</title>
<g id="a_node18"><a xlink:href="cmp__entity_8c_a4696ca79f327709dba461878ca481d54.html#a4696ca79f327709dba461878ca481d54" target="_top" xlink:title=" ">
<polygon fill="white" stroke="black" points="171,-279 171,-309 297,-309 297,-279 171,-279"/>
<text text-anchor="start" x="179" y="-297" font-family="Helvetica,sans-Serif" font-size="10.00">cmp_ent_set_ima_ap2</text>
<text text-anchor="middle" x="234" y="-286" font-family="Helvetica,sans-Serif" font-size="10.00">_spill</text>
</a>
</g>
</g>
<!-- Node1&#45;&gt;Node18 -->
<g id="edge19" class="edge">
<title>Node1&#45;&gt;Node18</title>
<path fill="none" stroke="midnightblue" d="M73.53,-376.83C90.81,-360.19 120.71,-333.76 151,-318 154.53,-316.17 158.21,-314.45 161.99,-312.85"/>
<polygon fill="midnightblue" stroke="midnightblue" points="163.48,-316.03 171.51,-309.12 160.92,-309.51 163.48,-316.03"/>
</g>
<!-- Node19 -->
<g id="node19" class="node">
<title>Node19</title>
<g id="a_node19"><a xlink:href="cmp__entity_8c_ae8a6e666a0ecf3bde65cefa3ae38dd21.html#ae8a6e666a0ecf3bde65cefa3ae38dd21" target="_top" xlink:title="set used Golomb parameter in the (adaptive) imagette specific compression entity header">
<polygon fill="white" stroke="black" points="151,-240.5 151,-259.5 317,-259.5 317,-240.5 151,-240.5"/>
<text text-anchor="middle" x="234" y="-247.5" font-family="Helvetica,sans-Serif" font-size="10.00">cmp_ent_set_ima_golomb_par</text>
</a>
</g>
</g>
<!-- Node1&#45;&gt;Node19 -->
<g id="edge20" class="edge">
<title>Node1&#45;&gt;Node19</title>
<path fill="none" stroke="midnightblue" d="M65.49,-376.79C78.43,-350.46 108.67,-296.54 151,-269 154.19,-266.93 157.58,-265.08 161.09,-263.43"/>
<polygon fill="midnightblue" stroke="midnightblue" points="162.71,-266.55 170.63,-259.52 160.05,-260.07 162.71,-266.55"/>
</g>
<!-- Node20 -->
<g id="node20" class="node">
<title>Node20</title>
<g id="a_node20"><a xlink:href="cmp__entity_8c_aaf2a65e24eb510577c6521f3929d9a63.html#aaf2a65e24eb510577c6521f3929d9a63" target="_top" xlink:title="set the used spillover threshold parameter in the (adaptive) imagette specific compression entity hea...">
<polygon fill="white" stroke="black" points="170,-202.5 170,-221.5 298,-221.5 298,-202.5 170,-202.5"/>
<text text-anchor="middle" x="234" y="-209.5" font-family="Helvetica,sans-Serif" font-size="10.00">cmp_ent_set_ima_spill</text>
</a>
</g>
</g>
<!-- Node1&#45;&gt;Node20 -->
<g id="edge21" class="edge">
<title>Node1&#45;&gt;Node20</title>
<path fill="none" stroke="midnightblue" d="M62.7,-376.81C72.44,-344.55 99.75,-269.04 151,-231 153.99,-228.78 157.2,-226.81 160.56,-225.07"/>
<polygon fill="midnightblue" stroke="midnightblue" points="162.03,-228.25 169.72,-220.97 159.17,-221.86 162.03,-228.25"/>
</g>
<!-- Node21 -->
<g id="node21" class="node">
<title>Node21</title>
<g id="a_node21"><a xlink:href="cmp__entity_8c_a9a96fdc3bd0053e965c962eb99e2dc2e.html#a9a96fdc3bd0053e965c962eb99e2dc2e" target="_top" xlink:title="set the used lossy compression parameter in the compression entity header">
<polygon fill="white" stroke="black" points="155.5,-164.5 155.5,-183.5 312.5,-183.5 312.5,-164.5 155.5,-164.5"/>
<text text-anchor="middle" x="234" y="-171.5" font-family="Helvetica,sans-Serif" font-size="10.00">cmp_ent_set_lossy_cmp_par</text>
</a>
</g>
</g>
<!-- Node1&#45;&gt;Node21 -->
<g id="edge22" class="edge">
<title>Node1&#45;&gt;Node21</title>
<path fill="none" stroke="midnightblue" d="M60.93,-376.77C67.74,-339.26 90.65,-241.97 151,-193 153.09,-191.31 155.29,-189.76 157.6,-188.35"/>
<polygon fill="midnightblue" stroke="midnightblue" points="159.62,-191.24 166.89,-183.53 156.4,-185.02 159.62,-191.24"/>
</g>
<!-- Node22 -->
<g id="node22" class="node">
<title>Node22</title>
<g id="a_node22"><a xlink:href="cmp__entity_8c_aaf83e1291af78fdd1d6d3ce5b8e2e9da.html#aaf83e1291af78fdd1d6d3ce5b8e2e9da" target="_top" xlink:title="set version identifier for the maximum used bits registry in the compression entity header">
<polygon fill="white" stroke="black" points="167,-115 167,-145 301,-145 301,-115 167,-115"/>
<text text-anchor="start" x="175" y="-133" font-family="Helvetica,sans-Serif" font-size="10.00">cmp_ent_set_max_used</text>
<text text-anchor="middle" x="234" y="-122" font-family="Helvetica,sans-Serif" font-size="10.00">_bits_version</text>
</a>
</g>
</g>
<!-- Node1&#45;&gt;Node22 -->
<g id="edge23" class="edge">
<title>Node1&#45;&gt;Node22</title>
<path fill="none" stroke="midnightblue" d="M59.93,-376.71C64.66,-334.87 83.61,-217.44 151,-155 153.2,-152.96 155.56,-151.09 158.05,-149.37"/>
<polygon fill="midnightblue" stroke="midnightblue" points="160.11,-152.21 166.91,-144.09 156.53,-146.2 160.11,-152.21"/>
</g>
<!-- Node23 -->
<g id="node23" class="node">
<title>Node23</title>
<g id="a_node23"><a xlink:href="cmp__entity_8c_a62ce924b62513abc25d2c3a9f79890ac.html#a62ce924b62513abc25d2c3a9f79890ac" target="_top" xlink:title="set the used model weighing value in the compression entity header">
<polygon fill="white" stroke="black" points="160.5,-76.5 160.5,-95.5 307.5,-95.5 307.5,-76.5 160.5,-76.5"/>
<text text-anchor="middle" x="234" y="-83.5" font-family="Helvetica,sans-Serif" font-size="10.00">cmp_ent_set_model_value</text>
</a>
</g>
</g>
<!-- Node1&#45;&gt;Node23 -->
<g id="edge24" class="edge">
<title>Node1&#45;&gt;Node23</title>
<path fill="none" stroke="midnightblue" d="M58.5,-376.82C59.39,-329.03 68.91,-180.46 151,-105 152.53,-103.59 154.15,-102.28 155.84,-101.06"/>
<polygon fill="midnightblue" stroke="midnightblue" points="158,-103.84 164.78,-95.69 154.4,-97.84 158,-103.84"/>
</g>
<!-- Node24 -->
<g id="node24" class="node">
<title>Node24</title>
<g id="a_node24"><a xlink:href="cmp__entity_8c_a11adb9fb51386d64d43236fdfe3302df.html#a11adb9fb51386d64d43236fdfe3302df" target="_top" xlink:title="set the original size of the compressed data in the entity header">
<polygon fill="white" stroke="black" points="161,-38.5 161,-57.5 307,-57.5 307,-38.5 161,-38.5"/>
<text text-anchor="middle" x="234" y="-45.5" font-family="Helvetica,sans-Serif" font-size="10.00">cmp_ent_set_original_size</text>
</a>
</g>
</g>
<!-- Node1&#45;&gt;Node24 -->
<g id="edge25" class="edge">
<title>Node1&#45;&gt;Node24</title>
<path fill="none" stroke="midnightblue" d="M57.84,-376.71C56.48,-324.88 59.42,-154.15 151,-67 152.51,-65.56 154.1,-64.23 155.77,-62.99"/>
<polygon fill="midnightblue" stroke="midnightblue" points="157.95,-65.76 164.64,-57.54 154.28,-59.8 157.95,-65.76"/>
</g>
<!-- Node25 -->
<g id="node25" class="node">
<title>Node25</title>
<g id="a_node25"><a xlink:href="cmp__support_8c_afa39b2f9cf3ed38c0d0277791e4b9aca.html#afa39b2f9cf3ed38c0d0277791e4b9aca" target="_top" xlink:title="check if the raw mode is selected">
<polygon fill="white" stroke="black" points="179,-0.5 179,-19.5 289,-19.5 289,-0.5 179,-0.5"/>
<text text-anchor="middle" x="234" y="-7.5" font-family="Helvetica,sans-Serif" font-size="10.00">raw_mode_is_used</text>
</a>
</g>
</g>
<!-- Node1&#45;&gt;Node25 -->
<g id="edge26" class="edge">
<title>Node1&#45;&gt;Node25</title>
<path fill="none" stroke="midnightblue" d="M60.28,-376.74C67.88,-314.33 99.52,-79.37 151,-29 156.24,-23.87 162.58,-20.02 169.38,-17.15"/>
<polygon fill="midnightblue" stroke="midnightblue" points="170.62,-20.43 178.89,-13.81 168.29,-13.82 170.62,-20.43"/>
</g>
<!-- Node4&#45;&gt;Node5 -->
<g id="edge4" class="edge">
<title>Node4&#45;&gt;Node5</title>
<path fill="none" stroke="midnightblue" d="M281.18,-646.53C293.29,-650.08 306.02,-654.81 317,-661 335.91,-671.66 334.66,-682.4 353,-694 356.1,-695.96 359.39,-697.83 362.76,-699.58"/>
<polygon fill="midnightblue" stroke="midnightblue" points="361.3,-702.76 371.83,-703.98 364.36,-696.47 361.3,-702.76"/>
</g>
<!-- Node6 -->
<g id="node6" class="node">
<title>Node6</title>
<g id="a_node6"><a xlink:href="cmp__data__types_8c_a0be8705b1dcc45f605abd8400dd5230b.html#a0be8705b1dcc45f605abd8400dd5230b" target="_top" xlink:title="calculate the size of a sample for the different compression data type">
<polygon fill="white" stroke="black" points="363.5,-665.5 363.5,-684.5 467.5,-684.5 467.5,-665.5 363.5,-665.5"/>
<text text-anchor="middle" x="415.5" y="-672.5" font-family="Helvetica,sans-Serif" font-size="10.00">size_of_a_sample</text>
</a>
</g>
</g>
<!-- Node4&#45;&gt;Node6 -->
<g id="edge5" class="edge">
<title>Node4&#45;&gt;Node6</title>
<path fill="none" stroke="midnightblue" d="M280.3,-646.59C304.41,-651.69 334.25,-658.01 359.67,-663.39"/>
<polygon fill="midnightblue" stroke="midnightblue" points="359.02,-666.83 369.53,-665.48 360.47,-659.98 359.02,-666.83"/>
</g>
<!-- Node8 -->
<g id="node8" class="node">
<title>Node8</title>
<g id="a_node8"><a xlink:href="cmp__entity_8c_a802778418cfd52cf107c7af6d0405e8a.html#a802778418cfd52cf107c7af6d0405e8a" target="_top" xlink:title="get the size of the compression entity header based on the set data product type in compression entit...">
<polygon fill="white" stroke="black" points="353,-627.5 353,-646.5 478,-646.5 478,-627.5 353,-627.5"/>
<text text-anchor="middle" x="415.5" y="-634.5" font-family="Helvetica,sans-Serif" font-size="10.00">cmp_ent_get_hdr_size</text>
</a>
</g>
</g>
<!-- Node7&#45;&gt;Node8 -->
<g id="edge7" class="edge">
<title>Node7&#45;&gt;Node8</title>
<path fill="none" stroke="midnightblue" d="M280.3,-608.59C304.41,-613.69 334.25,-620.01 359.67,-625.39"/>
<polygon fill="midnightblue" stroke="midnightblue" points="359.02,-628.83 369.53,-627.48 360.47,-621.98 359.02,-628.83"/>
</g>
<!-- Node13 -->
<g id="node13" class="node">
<title>Node13</title>
<g id="a_node13"><a xlink:href="cmp__entity_8c_a5046b9ebae291aeeba89b4f9eaf43673.html#a5046b9ebae291aeeba89b4f9eaf43673" target="_top" xlink:title="get the size of the compression entity from the compression entity header">
<polygon fill="white" stroke="black" points="363.5,-589.5 363.5,-608.5 467.5,-608.5 467.5,-589.5 363.5,-589.5"/>
<text text-anchor="middle" x="415.5" y="-596.5" font-family="Helvetica,sans-Serif" font-size="10.00">cmp_ent_get_size</text>
</a>
</g>
</g>
<!-- Node7&#45;&gt;Node13 -->
<g id="edge12" class="edge">
<title>Node7&#45;&gt;Node13</title>
<path fill="none" stroke="midnightblue" d="M313.21,-599C326.63,-599 340.4,-599 353.29,-599"/>
<polygon fill="midnightblue" stroke="midnightblue" points="353.42,-602.5 363.42,-599 353.42,-595.5 353.42,-602.5"/>
</g>
<!-- Node9 -->
<g id="node9" class="node">
<title>Node9</title>
<g id="a_node9"><a xlink:href="cmp__entity_8c_ac4f3e5eb03e7dc0f1a646dd150543af5.html#ac4f3e5eb03e7dc0f1a646dd150543af5" target="_top" xlink:title="calculate the size of the compression entity header based on a compression data product type">
<polygon fill="white" stroke="black" points="519,-627.5 519,-646.5 643,-646.5 643,-627.5 519,-627.5"/>
<text text-anchor="middle" x="581" y="-634.5" font-family="Helvetica,sans-Serif" font-size="10.00">cmp_ent_cal_hdr_size</text>
</a>
</g>
</g>
<!-- Node8&#45;&gt;Node9 -->
<g id="edge8" class="edge">
<title>Node8&#45;&gt;Node9</title>
<path fill="none" stroke="midnightblue" d="M478.31,-637C488.28,-637 498.67,-637 508.84,-637"/>
<polygon fill="midnightblue" stroke="midnightblue" points="508.91,-640.5 518.91,-637 508.91,-633.5 508.91,-640.5"/>
</g>
<!-- Node8&#45;&gt;Node11 -->
<g id="edge10" class="edge">
<title>Node8&#45;&gt;Node11</title>
<path fill="none" stroke="midnightblue" d="M450.38,-627.47C475.26,-620.47 509.28,-610.9 536.22,-603.32"/>
<polygon fill="midnightblue" stroke="midnightblue" points="537.49,-606.6 546.17,-600.52 535.59,-599.86 537.49,-606.6"/>
</g>
<!-- Node8&#45;&gt;Node12 -->
<g id="edge11" class="edge">
<title>Node8&#45;&gt;Node12</title>
<path fill="none" stroke="midnightblue" d="M459.42,-627.45C465.96,-624.97 472.39,-621.87 478,-618 499.38,-603.27 494.68,-589.34 514,-572 522.46,-564.41 532.49,-557.38 542.15,-551.36"/>
<polygon fill="midnightblue" stroke="midnightblue" points="544.09,-554.28 550.86,-546.13 540.49,-548.28 544.09,-554.28"/>
</g>
<!-- Node10 -->
<g id="node10" class="node">
<title>Node10</title>
<g id="a_node10"><a xlink:href="cmp__support_8c_af2129b98a4b5c7f856e97776962d7881.html#af2129b98a4b5c7f856e97776962d7881" target="_top" xlink:title="check if the compression entity data product type is supported">
<polygon fill="white" stroke="black" points="684,-627.5 684,-646.5 827,-646.5 827,-627.5 684,-627.5"/>
<text text-anchor="middle" x="755.5" y="-634.5" font-family="Helvetica,sans-Serif" font-size="10.00">cmp_data_type_is_invalid</text>
</a>
</g>
</g>
<!-- Node9&#45;&gt;Node10 -->
<g id="edge9" class="edge">
<title>Node9&#45;&gt;Node10</title>
<path fill="none" stroke="midnightblue" d="M643.3,-637C653.18,-637 663.54,-637 673.79,-637"/>
<polygon fill="midnightblue" stroke="midnightblue" points="673.98,-640.5 683.98,-637 673.98,-633.5 673.98,-640.5"/>
</g>
</g>
</svg>
        <g id="navigator" transform="translate(0 0)" fill="#404254">
                <rect fill="#f2f5e9" fill-opacity="0.5" stroke="#606060" stroke-width=".5" x="0" y="0" width="60" height="60"/>
                <use id="zoomplus" xlink:href="#zoomPlus" x="17" y="9" onmousedown="handleZoom(evt,'in')"/>
                <use id="zoomminus" xlink:href="#zoomMin" x="42" y="9" onmousedown="handleZoom(evt,'out')"/>
                <use id="reset" xlink:href="#resetDef" x="30" y="36" onmousedown="handleReset()"/>
                <g id="arrowUp" xlink:href="#dirArrow" transform="translate(30 24)" onmousedown="handlePan(0,-1)">
                  <use xlink:href="#rim" fill="#404040">
                        <set attributeName="fill" to="#808080" begin="arrowUp.mouseover" end="arrowUp.mouseout"/>
                  </use>
                  <path fill="none" stroke="white" stroke-width="1.5" d="M0,-3.0v7 M-2.5,-0.5L0,-3.0L2.5,-0.5"/>
                </g>
                <g id="arrowRight" xlink:href="#dirArrow" transform="rotate(90) translate(36 -43)" onmousedown="handlePan(1,0)">
                  <use xlink:href="#rim" fill="#404040">
                        <set attributeName="fill" to="#808080" begin="arrowRight.mouseover" end="arrowRight.mouseout"/>
                  </use>
                  <path fill="none" stroke="white" stroke-width="1.5" d="M0,-3.0v7 M-2.5,-0.5L0,-3.0L2.5,-0.5"/>
                </g>
                <g id="arrowDown" xlink:href="#dirArrow" transform="rotate(180) translate(-30 -48)" onmousedown="handlePan(0,1)">
                  <use xlink:href="#rim" fill="#404040">
                        <set attributeName="fill" to="#808080" begin="arrowDown.mouseover" end="arrowDown.mouseout"/>
                  </use>
                  <path fill="none" stroke="white" stroke-width="1.5" d="M0,-3.0v7 M-2.5,-0.5L0,-3.0L2.5,-0.5"/>
                </g>
                <g id="arrowLeft" xlink:href="#dirArrow" transform="rotate(270) translate(-36 17)" onmousedown="handlePan(-1,0)">
                  <use xlink:href="#rim" fill="#404040">
                        <set attributeName="fill" to="#808080" begin="arrowLeft.mouseover" end="arrowLeft.mouseout"/>
                  </use>
                  <path fill="none" stroke="white" stroke-width="1.5" d="M0,-3.0v7 M-2.5,-0.5L0,-3.0L2.5,-0.5"/>
                </g>
        </g>
        <svg viewBox="0 0 15 15" width="100%" height="30px" preserveAspectRatio="xMaxYMin meet">
         <g id="arrow_out" transform="scale(0.3 0.3)">
          <a xlink:href="cmp__entity_8c_aac25fce5ba205dafed1781d24250c7b3_aac25fce5ba205dafed1781d24250c7b3_cgraph_org.svg" target="_base">
           <rect id="button" ry="5" rx="5" y="6" x="6" height="38" width="38"
                fill="#f2f5e9" fill-opacity="0.5" stroke="#606060" stroke-width="1.0"/>
           <path id="arrow"
             d="M 11.500037,31.436501 C 11.940474,20.09759 22.043105,11.32322 32.158766,21.979434 L 37.068811,17.246167 C 37.068811,17.246167 37.088388,32 37.088388,32 L 22.160133,31.978069 C 22.160133,31.978069 26.997745,27.140456 26.997745,27.140456 C 18.528582,18.264221 13.291696,25.230495 11.500037,31.436501 z"
             style="fill:#404040;"/>
          </a>
         </g>
        </svg>
</svg>
