<?xml version="1.0" encoding="UTF-8" standalone="no"?>
<!DOCTYPE svg PUBLIC "-//W3C//DTD SVG 1.1//EN"
 "http://www.w3.org/Graphics/SVG/1.1/DTD/svg11.dtd">
<!-- Generated by graphviz version 2.43.0 (0)
 -->
<!-- Title: cmp_ent_get_fine_end_time Pages: 1 -->
<!--zoomable 116 -->
<svg id="main" version="1.1" xmlns="http://www.w3.org/2000/svg" xmlns:xlink="http://www.w3.org/1999/xlink" xml:space="preserve" onload="init(evt)">
<style type="text/css"><![CDATA[
.edge:hover path { stroke: red; }
.edge:hover polygon { stroke: red; fill: red; }
]]></style>
<script type="text/javascript"><![CDATA[
var edges = document.getElementsByTagName('g');
if (edges && edges.length) {
  for (var i=0;i<edges.length;i++) {
    if (edges[i].id.substr(0,4)=='edge') {
      edges[i].setAttribute('class','edge');
    }
  }
}
]]></script>
        <defs>
                <circle id="rim" cx="0" cy="0" r="7"/>
                <circle id="rim2" cx="0" cy="0" r="3.5"/>
                <g id="zoomPlus">
                        <use xlink:href="#rim" fill="#404040">
                                <set attributeName="fill" to="#808080" begin="zoomplus.mouseover" end="zoomplus.mouseout"/>
                        </use>
                        <path d="M-4,0h8M0,-4v8" fill="none" stroke="white" stroke-width="1.5" pointer-events="none"/>
                </g>
                <g id="zoomMin">
                        <use xlink:href="#rim" fill="#404040">
                                <set attributeName="fill" to="#808080" begin="zoomminus.mouseover" end="zoomminus.mouseout"/>
                        </use>
                        <path d="M-4,0h8" fill="none" stroke="white" stroke-width="1.5" pointer-events="none"/>
                </g>
                <g id="dirArrow">
                        <path fill="none" stroke="white" stroke-width="1.5" d="M0,-3.0v7 M-2.5,-0.5L0,-3.0L2.5,-0.5"/>
                </g>
               <g id="resetDef">
                       <use xlink:href="#rim2" fill="#404040">
                               <set attributeName="fill" to="#808080" begin="reset.mouseover" end="reset.mouseout"/>
                       </use>
               </g>
        </defs>

<script type="text/javascript">
var viewWidth = 614;
var viewHeight = 116;
var sectionId = 'dynsection-0';
</script>
<script xlink:href="svgpan.js"/>
<svg id="graph" class="graph">
<g id="viewport">
<title>cmp_ent_get_fine_end_time</title>
<polygon fill="white" stroke="transparent" points="-4,4 -4,-111.5 610,-111.5 610,4 -4,4"/>
<!-- Node1 -->
<g id="node1" class="node">
<title>Node1</title>
<g id="a_node1"><a xlink:title="get the fine time from the compression end timestamp in the compression entity header">
<polygon fill="#bfbfbf" stroke="black" points="452,-38.5 452,-57.5 606,-57.5 606,-38.5 452,-38.5"/>
<text text-anchor="middle" x="529" y="-45.5" font-family="Helvetica,sans-Serif" font-size="10.00">cmp_ent_get_fine_end_time</text>
</a>
</g>
</g>
<!-- Node2 -->
<g id="node2" class="node">
<title>Node2</title>
<g id="a_node2"><a xlink:href="cmp__entity_8c_a2437ba690b73b4c212cd7962819b24ce.html#a2437ba690b73b4c212cd7962819b24ce" target="_top" xlink:title="parses the generic compressed entity header">
<polygon fill="white" stroke="black" points="281,-77 281,-107 413,-107 413,-77 281,-77"/>
<text text-anchor="start" x="289" y="-95" font-family="Helvetica,sans-Serif" font-size="10.00">cmp_ent_parse_generic</text>
<text text-anchor="middle" x="347" y="-84" font-family="Helvetica,sans-Serif" font-size="10.00">_header</text>
</a>
</g>
</g>
<!-- Node1&#45;&gt;Node2 -->
<g id="edge1" class="edge">
<title>Node1&#45;&gt;Node2</title>
<path fill="none" stroke="midnightblue" d="M479.09,-59.96C457.68,-65.19 432.32,-71.39 409.63,-76.93"/>
<polygon fill="midnightblue" stroke="midnightblue" points="480.06,-63.32 488.94,-57.55 478.4,-56.52 480.06,-63.32"/>
</g>
<!-- Node5 -->
<g id="node5" class="node">
<title>Node5</title>
<g id="a_node5"><a xlink:href="test__cmp__entity_8c_a6ee6e9dd79281888c6f4b14eab4a48ad.html#a6ee6e9dd79281888c6f4b14eab4a48ad" target="_top" xlink:title=" ">
<polygon fill="white" stroke="black" points="278,-38.5 278,-57.5 416,-57.5 416,-38.5 278,-38.5"/>
<text text-anchor="middle" x="347" y="-45.5" font-family="Helvetica,sans-Serif" font-size="10.00">test_ent_end_timestamp</text>
</a>
</g>
</g>
<!-- Node1&#45;&gt;Node5 -->
<g id="edge4" class="edge">
<title>Node1&#45;&gt;Node5</title>
<path fill="none" stroke="midnightblue" d="M441.83,-48C433.19,-48 424.5,-48 416.09,-48"/>
<polygon fill="midnightblue" stroke="midnightblue" points="441.92,-51.5 451.92,-48 441.92,-44.5 441.92,-51.5"/>
</g>
<!-- Node6 -->
<g id="node6" class="node">
<title>Node6</title>
<g id="a_node6"><a xlink:href="test__cmp__entity_8c_a773f07944f2b73a77ec5986fb3627857.html#a773f07944f2b73a77ec5986fb3627857" target="_top" xlink:title=" ">
<polygon fill="white" stroke="black" points="281.5,-0.5 281.5,-19.5 412.5,-19.5 412.5,-0.5 281.5,-0.5"/>
<text text-anchor="middle" x="347" y="-7.5" font-family="Helvetica,sans-Serif" font-size="10.00">test_ent_fine_end_time</text>
</a>
</g>
</g>
<!-- Node1&#45;&gt;Node6 -->
<g id="edge5" class="edge">
<title>Node1&#45;&gt;Node6</title>
<path fill="none" stroke="midnightblue" d="M472.67,-36.32C447.14,-30.93 417.22,-24.61 393.09,-19.52"/>
<polygon fill="midnightblue" stroke="midnightblue" points="472.07,-39.77 482.58,-38.41 473.52,-32.92 472.07,-39.77"/>
</g>
<!-- Node3 -->
<g id="node3" class="node">
<title>Node3</title>
<g id="a_node3"><a xlink:href="cmp__entity_8c_a1f4478c4d9938fa6f5631e88298ed816.html#a1f4478c4d9938fa6f5631e88298ed816" target="_top" xlink:title="parse the compressed entity header">
<polygon fill="white" stroke="black" points="151,-82.5 151,-101.5 242,-101.5 242,-82.5 151,-82.5"/>
<text text-anchor="middle" x="196.5" y="-89.5" font-family="Helvetica,sans-Serif" font-size="10.00">cmp_ent_parse</text>
</a>
</g>
</g>
<!-- Node2&#45;&gt;Node3 -->
<g id="edge2" class="edge">
<title>Node2&#45;&gt;Node3</title>
<path fill="none" stroke="midnightblue" d="M270.69,-92C260.91,-92 251.15,-92 242.1,-92"/>
<polygon fill="midnightblue" stroke="midnightblue" points="270.87,-95.5 280.87,-92 270.87,-88.5 270.87,-95.5"/>
</g>
<!-- Node4 -->
<g id="node4" class="node">
<title>Node4</title>
<g id="a_node4"><a xlink:href="test__cmp__entity_8c_a893444224bcd50fbb99e42e85989b4a6.html#a893444224bcd50fbb99e42e85989b4a6" target="_top" xlink:title=" ">
<polygon fill="white" stroke="black" points="0,-82.5 0,-101.5 115,-101.5 115,-82.5 0,-82.5"/>
<text text-anchor="middle" x="57.5" y="-89.5" font-family="Helvetica,sans-Serif" font-size="10.00">test_cmp_ent_parse</text>
</a>
</g>
</g>
<!-- Node3&#45;&gt;Node4 -->
<g id="edge3" class="edge">
<title>Node3&#45;&gt;Node4</title>
<path fill="none" stroke="midnightblue" d="M140.41,-92C132.2,-92 123.71,-92 115.46,-92"/>
<polygon fill="midnightblue" stroke="midnightblue" points="140.64,-95.5 150.64,-92 140.64,-88.5 140.64,-95.5"/>
</g>
</g>
</svg>
        <g id="navigator" transform="translate(0 0)" fill="#404254">
                <rect fill="#f2f5e9" fill-opacity="0.5" stroke="#606060" stroke-width=".5" x="0" y="0" width="60" height="60"/>
                <use id="zoomplus" xlink:href="#zoomPlus" x="17" y="9" onmousedown="handleZoom(evt,'in')"/>
                <use id="zoomminus" xlink:href="#zoomMin" x="42" y="9" onmousedown="handleZoom(evt,'out')"/>
                <use id="reset" xlink:href="#resetDef" x="30" y="36" onmousedown="handleReset()"/>
                <g id="arrowUp" xlink:href="#dirArrow" transform="translate(30 24)" onmousedown="handlePan(0,-1)">
                  <use xlink:href="#rim" fill="#404040">
                        <set attributeName="fill" to="#808080" begin="arrowUp.mouseover" end="arrowUp.mouseout"/>
                  </use>
                  <path fill="none" stroke="white" stroke-width="1.5" d="M0,-3.0v7 M-2.5,-0.5L0,-3.0L2.5,-0.5"/>
                </g>
                <g id="arrowRight" xlink:href="#dirArrow" transform="rotate(90) translate(36 -43)" onmousedown="handlePan(1,0)">
                  <use xlink:href="#rim" fill="#404040">
                        <set attributeName="fill" to="#808080" begin="arrowRight.mouseover" end="arrowRight.mouseout"/>
                  </use>
                  <path fill="none" stroke="white" stroke-width="1.5" d="M0,-3.0v7 M-2.5,-0.5L0,-3.0L2.5,-0.5"/>
                </g>
                <g id="arrowDown" xlink:href="#dirArrow" transform="rotate(180) translate(-30 -48)" onmousedown="handlePan(0,1)">
                  <use xlink:href="#rim" fill="#404040">
                        <set attributeName="fill" to="#808080" begin="arrowDown.mouseover" end="arrowDown.mouseout"/>
                  </use>
                  <path fill="none" stroke="white" stroke-width="1.5" d="M0,-3.0v7 M-2.5,-0.5L0,-3.0L2.5,-0.5"/>
                </g>
                <g id="arrowLeft" xlink:href="#dirArrow" transform="rotate(270) translate(-36 17)" onmousedown="handlePan(-1,0)">
                  <use xlink:href="#rim" fill="#404040">
                        <set attributeName="fill" to="#808080" begin="arrowLeft.mouseover" end="arrowLeft.mouseout"/>
                  </use>
                  <path fill="none" stroke="white" stroke-width="1.5" d="M0,-3.0v7 M-2.5,-0.5L0,-3.0L2.5,-0.5"/>
                </g>
        </g>
        <svg viewBox="0 0 15 15" width="100%" height="30px" preserveAspectRatio="xMaxYMin meet">
         <g id="arrow_out" transform="scale(0.3 0.3)">
          <a xlink:href="cmp__entity_8h_acfb5783d0f6a44fe647597ded8df55f1_acfb5783d0f6a44fe647597ded8df55f1_icgraph_org.svg" target="_base">
           <rect id="button" ry="5" rx="5" y="6" x="6" height="38" width="38"
                fill="#f2f5e9" fill-opacity="0.5" stroke="#606060" stroke-width="1.0"/>
           <path id="arrow"
             d="M 11.500037,31.436501 C 11.940474,20.09759 22.043105,11.32322 32.158766,21.979434 L 37.068811,17.246167 C 37.068811,17.246167 37.088388,32 37.088388,32 L 22.160133,31.978069 C 22.160133,31.978069 26.997745,27.140456 26.997745,27.140456 C 18.528582,18.264221 13.291696,25.230495 11.500037,31.436501 z"
             style="fill:#404040;"/>
          </a>
         </g>
        </svg>
</svg>
