<?xml version="1.0" encoding="UTF-8" standalone="no"?>
<!DOCTYPE svg PUBLIC "-//W3C//DTD SVG 1.1//EN"
 "http://www.w3.org/Graphics/SVG/1.1/DTD/svg11.dtd">
<!-- Generated by graphviz version 2.43.0 (0)
 -->
<!-- Title: cmp_ent_get_data_buf Pages: 1 -->
<svg width="306pt" height="78pt"
 viewBox="0.00 0.00 306.00 77.50" xmlns="http://www.w3.org/2000/svg" xmlns:xlink="http://www.w3.org/1999/xlink">
<g id="graph0" class="graph" transform="scale(1 1) rotate(0) translate(4 73.5)">
<title>cmp_ent_get_data_buf</title>
<polygon fill="white" stroke="transparent" points="-4,4 -4,-73.5 302,-73.5 302,4 -4,4"/>
<!-- Node1 -->
<g id="node1" class="node">
<title>Node1</title>
<g id="a_node1"><a xlink:title="get the start address of the compressed data in the compression entity">
<polygon fill="#bfbfbf" stroke="black" points="0,-28 0,-47 128,-47 128,-28 0,-28"/>
<text text-anchor="middle" x="64" y="-35" font-family="Helvetica,sans-Serif" font-size="10.00">cmp_ent_get_data_buf</text>
</a>
</g>
</g>
<!-- Node2 -->
<g id="node2" class="node">
<title>Node2</title>
<g id="a_node2"><a xlink:href="cmp__entity_8c_a2f2b18a1db94847afbfc30a8e7f142cf.html#a2f2b18a1db94847afbfc30a8e7f142cf" target="_top" xlink:title="get data_type from the compression entity header">
<polygon fill="white" stroke="black" points="164,-50 164,-69 298,-69 298,-50 164,-50"/>
<text text-anchor="middle" x="231" y="-57" font-family="Helvetica,sans-Serif" font-size="10.00">cmp_ent_get_data_type</text>
</a>
</g>
</g>
<!-- Node1&#45;&gt;Node2 -->
<g id="edge1" class="edge">
<title>Node1&#45;&gt;Node2</title>
<path fill="none" stroke="midnightblue" d="M128.32,-45.94C136.68,-47.06 145.32,-48.21 153.87,-49.35"/>
<polygon fill="midnightblue" stroke="midnightblue" points="153.46,-52.83 163.84,-50.68 154.39,-45.89 153.46,-52.83"/>
</g>
<!-- Node3 -->
<g id="node3" class="node">
<title>Node3</title>
<g id="a_node3"><a xlink:href="cmp__entity_8c_a8edb7fa093195536f03038be2a5341a4.html#a8edb7fa093195536f03038be2a5341a4" target="_top" xlink:title="get the raw bit from the data_type field of the compression entity header">
<polygon fill="white" stroke="black" points="164,-0.5 164,-30.5 298,-30.5 298,-0.5 164,-0.5"/>
<text text-anchor="start" x="172" y="-18.5" font-family="Helvetica,sans-Serif" font-size="10.00">cmp_ent_get_data_type</text>
<text text-anchor="middle" x="231" y="-7.5" font-family="Helvetica,sans-Serif" font-size="10.00">_raw_bit</text>
</a>
</g>
</g>
<!-- Node1&#45;&gt;Node3 -->
<g id="edge2" class="edge">
<title>Node1&#45;&gt;Node3</title>
<path fill="none" stroke="midnightblue" d="M128.32,-29.06C136.68,-27.94 145.32,-26.79 153.87,-25.65"/>
<polygon fill="midnightblue" stroke="midnightblue" points="154.39,-29.11 163.84,-24.32 153.46,-22.17 154.39,-29.11"/>
</g>
</g>
</svg>
