<?xml version="1.0" encoding="UTF-8" standalone="no"?>
<!DOCTYPE svg PUBLIC "-//W3C//DTD SVG 1.1//EN"
 "http://www.w3.org/Graphics/SVG/1.1/DTD/svg11.dtd">
<!-- Generated by graphviz version 2.43.0 (0)
 -->
<!-- Title: rdcu_cfg_buffers Pages: 1 -->
<svg width="409pt" height="104pt"
 viewBox="0.00 0.00 409.00 104.00" xmlns="http://www.w3.org/2000/svg" xmlns:xlink="http://www.w3.org/1999/xlink">
<g id="graph0" class="graph" transform="scale(1 1) rotate(0) translate(4 100)">
<title>rdcu_cfg_buffers</title>
<polygon fill="white" stroke="transparent" points="-4,4 -4,-100 405,-100 405,4 -4,4"/>
<!-- Node1 -->
<g id="node1" class="node">
<title>Node1</title>
<g id="a_node1"><a xlink:title="setup of the different data buffers for an RDCU compression">
<polygon fill="#bfbfbf" stroke="black" points="0,-38.5 0,-57.5 97,-57.5 97,-38.5 0,-38.5"/>
<text text-anchor="middle" x="48.5" y="-45.5" font-family="Helvetica,sans-Serif" font-size="10.00">rdcu_cfg_buffers</text>
</a>
</g>
</g>
<!-- Node2 -->
<g id="node2" class="node">
<title>Node2</title>
<g id="a_node2"><a xlink:href="cmp__rdcu__cfg_8c_ac1e86a9fa0666daed0aa76b5853a80c5.html#ac1e86a9fa0666daed0aa76b5853a80c5" target="_top" xlink:title="check if RDCU buffer settings are invalid">
<polygon fill="white" stroke="black" points="133,-33 133,-63 243,-63 243,-33 133,-33"/>
<text text-anchor="start" x="141" y="-51" font-family="Helvetica,sans-Serif" font-size="10.00">rdcu_cfg_buffers_is</text>
<text text-anchor="middle" x="188" y="-40" font-family="Helvetica,sans-Serif" font-size="10.00">_invalid</text>
</a>
</g>
</g>
<!-- Node1&#45;&gt;Node2 -->
<g id="edge1" class="edge">
<title>Node1&#45;&gt;Node2</title>
<path fill="none" stroke="midnightblue" d="M97.2,-48C105.46,-48 114.15,-48 122.76,-48"/>
<polygon fill="midnightblue" stroke="midnightblue" points="122.78,-51.5 132.78,-48 122.78,-44.5 122.78,-51.5"/>
</g>
<!-- Node3 -->
<g id="node3" class="node">
<title>Node3</title>
<g id="a_node3"><a xlink:href="cmp__rdcu__cfg_8c_a44623195b1df75bdf1134277861f2e3b.html#a44623195b1df75bdf1134277861f2e3b" target="_top" xlink:title="check if two buffers are overlapping">
<polygon fill="white" stroke="black" points="294,-76.5 294,-95.5 386,-95.5 386,-76.5 294,-76.5"/>
<text text-anchor="middle" x="340" y="-83.5" font-family="Helvetica,sans-Serif" font-size="10.00">buffers_overlap</text>
</a>
</g>
</g>
<!-- Node2&#45;&gt;Node3 -->
<g id="edge2" class="edge">
<title>Node2&#45;&gt;Node3</title>
<path fill="none" stroke="midnightblue" d="M243.15,-61.72C258.99,-65.73 276.17,-70.08 291.55,-73.98"/>
<polygon fill="midnightblue" stroke="midnightblue" points="290.81,-77.4 301.37,-76.47 292.53,-70.62 290.81,-77.4"/>
</g>
<!-- Node4 -->
<g id="node4" class="node">
<title>Node4</title>
<g id="a_node4"><a xlink:href="cmp__support_8c_afba7806c424cfb8c7678c1b4cebdfcbb.html#afba7806c424cfb8c7678c1b4cebdfcbb" target="_top" xlink:title="check if a model mode is selected">
<polygon fill="white" stroke="black" points="279,-38.5 279,-57.5 401,-57.5 401,-38.5 279,-38.5"/>
<text text-anchor="middle" x="340" y="-45.5" font-family="Helvetica,sans-Serif" font-size="10.00">model_mode_is_used</text>
</a>
</g>
</g>
<!-- Node2&#45;&gt;Node4 -->
<g id="edge3" class="edge">
<title>Node2&#45;&gt;Node4</title>
<path fill="none" stroke="midnightblue" d="M243.15,-48C251.48,-48 260.17,-48 268.78,-48"/>
<polygon fill="midnightblue" stroke="midnightblue" points="268.83,-51.5 278.83,-48 268.83,-44.5 268.83,-51.5"/>
</g>
<!-- Node5 -->
<g id="node5" class="node">
<title>Node5</title>
<g id="a_node5"><a xlink:href="cmp__rdcu__cfg_8c_aaa2275f0756d097ec8b94139ab116be4.html#aaa2275f0756d097ec8b94139ab116be4" target="_top" xlink:title="check if a buffer is in outside the RDCU SRAM">
<polygon fill="white" stroke="black" points="282,-0.5 282,-19.5 398,-19.5 398,-0.5 282,-0.5"/>
<text text-anchor="middle" x="340" y="-7.5" font-family="Helvetica,sans-Serif" font-size="10.00">outside_sram_range</text>
</a>
</g>
</g>
<!-- Node2&#45;&gt;Node5 -->
<g id="edge4" class="edge">
<title>Node2&#45;&gt;Node5</title>
<path fill="none" stroke="midnightblue" d="M243.15,-34.28C258.99,-30.27 276.17,-25.92 291.55,-22.02"/>
<polygon fill="midnightblue" stroke="midnightblue" points="292.53,-25.38 301.37,-19.53 290.81,-18.6 292.53,-25.38"/>
</g>
</g>
</svg>
