<?xml version="1.0" encoding="UTF-8" standalone="no"?>
<!DOCTYPE svg PUBLIC "-//W3C//DTD SVG 1.1//EN"
 "http://www.w3.org/Graphics/SVG/1.1/DTD/svg11.dtd">
<!-- Generated by graphviz version 2.43.0 (0)
 -->
<!-- Title: golomb_decoder Pages: 1 -->
<svg width="395pt" height="118pt"
 viewBox="0.00 0.00 395.00 118.12" xmlns="http://www.w3.org/2000/svg" xmlns:xlink="http://www.w3.org/1999/xlink">
<g id="graph0" class="graph" transform="scale(1 1) rotate(0) translate(4 114.12)">
<title>golomb_decoder</title>
<polygon fill="white" stroke="transparent" points="-4,4 -4,-114.12 391,-114.12 391,4 -4,4"/>
<!-- Node1 -->
<g id="node1" class="node">
<title>Node1</title>
<g id="a_node1"><a xlink:title="decode the next Golomb code word in the bitstream">
<polygon fill="#bfbfbf" stroke="black" points="0,-57.5 0,-76.5 98,-76.5 98,-57.5 0,-57.5"/>
<text text-anchor="middle" x="49" y="-64.5" font-family="Helvetica,sans-Serif" font-size="10.00">golomb_decoder</text>
</a>
</g>
</g>
<!-- Node2 -->
<g id="node2" class="node">
<title>Node2</title>
<g id="a_node2"><a xlink:href="read__bitstream_8h_ad1aa8029b694397da24a84fcdc75acab.html#ad1aa8029b694397da24a84fcdc75acab" target="_top" xlink:title="mark next n bits in the local register as consumed">
<polygon fill="white" stroke="black" points="272,-76.5 272,-95.5 374,-95.5 374,-76.5 272,-76.5"/>
<text text-anchor="middle" x="323" y="-83.5" font-family="Helvetica,sans-Serif" font-size="10.00">bit_consume_bits</text>
</a>
</g>
</g>
<!-- Node1&#45;&gt;Node2 -->
<g id="edge1" class="edge">
<title>Node1&#45;&gt;Node2</title>
<path fill="none" stroke="midnightblue" d="M65.71,-76.57C82.08,-85.94 108.81,-99.57 134,-105 183.01,-115.57 240.51,-106.75 278.9,-97.92"/>
<polygon fill="midnightblue" stroke="midnightblue" points="279.8,-101.3 288.71,-95.57 278.17,-94.49 279.8,-101.3"/>
</g>
<!-- Node3 -->
<g id="node3" class="node">
<title>Node3</title>
<g id="a_node3"><a xlink:href="read__bitstream_8h_a12cac6ee9f16079c39d9fc7b61639597.html#a12cac6ee9f16079c39d9fc7b61639597" target="_top" xlink:title="provides next n bits from local register; local register is not modified">
<polygon fill="white" stroke="black" points="137.5,-76.5 137.5,-95.5 219.5,-95.5 219.5,-76.5 137.5,-76.5"/>
<text text-anchor="middle" x="178.5" y="-83.5" font-family="Helvetica,sans-Serif" font-size="10.00">bit_peek_bits</text>
</a>
</g>
</g>
<!-- Node1&#45;&gt;Node3 -->
<g id="edge2" class="edge">
<title>Node1&#45;&gt;Node3</title>
<path fill="none" stroke="midnightblue" d="M98.2,-74.18C107.63,-75.59 117.54,-77.06 127.03,-78.48"/>
<polygon fill="midnightblue" stroke="midnightblue" points="126.73,-81.97 137.13,-79.98 127.76,-75.05 126.73,-81.97"/>
</g>
<!-- Node4 -->
<g id="node4" class="node">
<title>Node4</title>
<g id="a_node4"><a xlink:href="cmp__support_8c_a67b0e38ca0e68c282c89552daa61ffdf.html#a67b0e38ca0e68c282c89552daa61ffdf" target="_top" xlink:title="implementation of the logarithm base of floor(log2(x)) for integers">
<polygon fill="white" stroke="black" points="155.5,-38.5 155.5,-57.5 201.5,-57.5 201.5,-38.5 155.5,-38.5"/>
<text text-anchor="middle" x="178.5" y="-45.5" font-family="Helvetica,sans-Serif" font-size="10.00">ilog_2</text>
</a>
</g>
</g>
<!-- Node1&#45;&gt;Node4 -->
<g id="edge3" class="edge">
<title>Node1&#45;&gt;Node4</title>
<path fill="none" stroke="midnightblue" d="M98.2,-59.82C113.82,-57.49 130.77,-54.96 144.98,-52.85"/>
<polygon fill="midnightblue" stroke="midnightblue" points="145.86,-56.25 155.23,-51.32 144.83,-49.33 145.86,-56.25"/>
</g>
<!-- Node5 -->
<g id="node5" class="node">
<title>Node5</title>
<g id="a_node5"><a xlink:href="decmp_8c_ad77fca4bf62b97dc9fe6edabb0086709.html#ad77fca4bf62b97dc9fe6edabb0086709" target="_top" xlink:title="decode the next unary code word in the bitstream">
<polygon fill="white" stroke="black" points="134,-0.5 134,-19.5 223,-19.5 223,-0.5 134,-0.5"/>
<text text-anchor="middle" x="178.5" y="-7.5" font-family="Helvetica,sans-Serif" font-size="10.00">unary_decoder</text>
</a>
</g>
</g>
<!-- Node1&#45;&gt;Node5 -->
<g id="edge4" class="edge">
<title>Node1&#45;&gt;Node5</title>
<path fill="none" stroke="midnightblue" d="M71.02,-57.4C87.99,-49.67 112.5,-38.56 134,-29 137.9,-27.27 142,-25.46 146.06,-23.68"/>
<polygon fill="midnightblue" stroke="midnightblue" points="147.59,-26.83 155.35,-19.61 144.78,-20.41 147.59,-26.83"/>
</g>
<!-- Node5&#45;&gt;Node2 -->
<g id="edge5" class="edge">
<title>Node5&#45;&gt;Node2</title>
<path fill="none" stroke="midnightblue" d="M202.75,-19.59C209.36,-22.47 216.52,-25.73 223,-29 249.14,-42.18 278.05,-59.12 297.85,-71.09"/>
<polygon fill="midnightblue" stroke="midnightblue" points="296.16,-74.16 306.52,-76.37 299.8,-68.18 296.16,-74.16"/>
</g>
<!-- Node6 -->
<g id="node6" class="node">
<title>Node6</title>
<g id="a_node6"><a xlink:href="read__bitstream_8h_a08b1899a09b0b72856f441efae758d76.html#a08b1899a09b0b72856f441efae758d76" target="_top" xlink:title="count the leading ones in the local register; local register is not modified">
<polygon fill="white" stroke="black" points="259,-0.5 259,-19.5 387,-19.5 387,-0.5 259,-0.5"/>
<text text-anchor="middle" x="323" y="-7.5" font-family="Helvetica,sans-Serif" font-size="10.00">bit_peek_leading_ones</text>
</a>
</g>
</g>
<!-- Node5&#45;&gt;Node6 -->
<g id="edge6" class="edge">
<title>Node5&#45;&gt;Node6</title>
<path fill="none" stroke="midnightblue" d="M223.03,-10C231.15,-10 239.83,-10 248.57,-10"/>
<polygon fill="midnightblue" stroke="midnightblue" points="248.8,-13.5 258.8,-10 248.8,-6.5 248.8,-13.5"/>
</g>
</g>
</svg>
