<?xml version="1.0" encoding="UTF-8" standalone="no"?>
<!DOCTYPE svg PUBLIC "-//W3C//DTD SVG 1.1//EN"
 "http://www.w3.org/Graphics/SVG/1.1/DTD/svg11.dtd">
<!-- Generated by graphviz version 2.43.0 (0)
 -->
<!-- Title: decompress_l_fx_efx Pages: 1 -->
<!--zoomable 376 -->
<svg id="main" version="1.1" xmlns="http://www.w3.org/2000/svg" xmlns:xlink="http://www.w3.org/1999/xlink" xml:space="preserve" onload="init(evt)">
<style type="text/css"><![CDATA[
.edge:hover path { stroke: red; }
.edge:hover polygon { stroke: red; fill: red; }
]]></style>
<script type="text/javascript"><![CDATA[
var edges = document.getElementsByTagName('g');
if (edges && edges.length) {
  for (var i=0;i<edges.length;i++) {
    if (edges[i].id.substr(0,4)=='edge') {
      edges[i].setAttribute('class','edge');
    }
  }
}
]]></script>
        <defs>
                <circle id="rim" cx="0" cy="0" r="7"/>
                <circle id="rim2" cx="0" cy="0" r="3.5"/>
                <g id="zoomPlus">
                        <use xlink:href="#rim" fill="#404040">
                                <set attributeName="fill" to="#808080" begin="zoomplus.mouseover" end="zoomplus.mouseout"/>
                        </use>
                        <path d="M-4,0h8M0,-4v8" fill="none" stroke="white" stroke-width="1.5" pointer-events="none"/>
                </g>
                <g id="zoomMin">
                        <use xlink:href="#rim" fill="#404040">
                                <set attributeName="fill" to="#808080" begin="zoomminus.mouseover" end="zoomminus.mouseout"/>
                        </use>
                        <path d="M-4,0h8" fill="none" stroke="white" stroke-width="1.5" pointer-events="none"/>
                </g>
                <g id="dirArrow">
                        <path fill="none" stroke="white" stroke-width="1.5" d="M0,-3.0v7 M-2.5,-0.5L0,-3.0L2.5,-0.5"/>
                </g>
               <g id="resetDef">
                       <use xlink:href="#rim2" fill="#404040">
                               <set attributeName="fill" to="#808080" begin="reset.mouseover" end="reset.mouseout"/>
                       </use>
               </g>
        </defs>

<script type="text/javascript">
var viewWidth = 1125;
var viewHeight = 376;
var sectionId = 'dynsection-0';
</script>
<script xlink:href="svgpan.js"/>
<svg id="graph" class="graph">
<g id="viewport">
<title>decompress_l_fx_efx</title>
<polygon fill="white" stroke="transparent" points="-4,4 -4,-371.83 1121,-371.83 1121,4 -4,4"/>
<!-- Node1 -->
<g id="node1" class="node">
<title>Node1</title>
<g id="a_node1"><a xlink:title="decompress L_FX_EFX data">
<polygon fill="#bfbfbf" stroke="black" points="0,-177.33 0,-196.33 120,-196.33 120,-177.33 0,-177.33"/>
<text text-anchor="middle" x="60" y="-184.33" font-family="Helvetica,sans-Serif" font-size="10.00">decompress_l_fx_efx</text>
</a>
</g>
</g>
<!-- Node2 -->
<g id="node2" class="node">
<title>Node2</title>
<g id="a_node2"><a xlink:href="read__bitstream_8h_aa1739fc7209fe65165c7262036a1969d.html#aa1739fc7209fe65165c7262036a1969d" target="_top" xlink:title="initialize a bit_decoder">
<polygon fill="white" stroke="black" points="543.5,-348.33 543.5,-367.33 638.5,-367.33 638.5,-348.33 543.5,-348.33"/>
<text text-anchor="middle" x="591" y="-355.33" font-family="Helvetica,sans-Serif" font-size="10.00">bit_init_decoder</text>
</a>
</g>
</g>
<!-- Node1&#45;&gt;Node2 -->
<g id="edge1" class="edge">
<title>Node1&#45;&gt;Node2</title>
<path fill="none" stroke="midnightblue" d="M65.92,-196.36C77.96,-218.66 111.22,-274.31 156,-300.83 275.66,-371.7 446.02,-370.37 533.45,-363.85"/>
<polygon fill="midnightblue" stroke="midnightblue" points="533.75,-367.34 543.44,-363.06 533.19,-360.36 533.75,-367.34"/>
</g>
<!-- Node4 -->
<g id="node4" class="node">
<title>Node4</title>
<g id="a_node4"><a xlink:href="cmp__cal__up__model_8h_ae94523fd5901d49d08ea8f98ee319356.html#ae94523fd5901d49d08ea8f98ee319356" target="_top" xlink:title=" ">
<polygon fill="white" stroke="black" points="183.5,-158.33 183.5,-177.33 286.5,-177.33 286.5,-158.33 183.5,-158.33"/>
<text text-anchor="middle" x="235" y="-165.33" font-family="Helvetica,sans-Serif" font-size="10.00">cmp_up_model32</text>
</a>
</g>
</g>
<!-- Node1&#45;&gt;Node4 -->
<g id="edge3" class="edge">
<title>Node1&#45;&gt;Node4</title>
<path fill="none" stroke="midnightblue" d="M120.05,-180.34C137.24,-178.45 156.03,-176.39 173.31,-174.49"/>
<polygon fill="midnightblue" stroke="midnightblue" points="173.73,-177.97 183.29,-173.4 172.97,-171.01 173.73,-177.97"/>
</g>
<!-- Node5 -->
<g id="node5" class="node">
<title>Node5</title>
<g id="a_node5"><a xlink:href="decmp_8c_ac9a6281c5fcfbf077cc63e0494274f20.html#ac9a6281c5fcfbf077cc63e0494274f20" target="_top" xlink:title="configure a decoder setup structure to have a setup to decode a vale">
<polygon fill="white" stroke="black" points="166,-196.33 166,-215.33 304,-215.33 304,-196.33 166,-196.33"/>
<text text-anchor="middle" x="235" y="-203.33" font-family="Helvetica,sans-Serif" font-size="10.00">configure_decoder_setup</text>
</a>
</g>
</g>
<!-- Node1&#45;&gt;Node5 -->
<g id="edge4" class="edge">
<title>Node1&#45;&gt;Node5</title>
<path fill="none" stroke="midnightblue" d="M120.05,-193.31C131.6,-194.58 143.88,-195.93 155.93,-197.25"/>
<polygon fill="midnightblue" stroke="midnightblue" points="155.66,-200.74 165.98,-198.36 156.43,-193.79 155.66,-200.74"/>
</g>
<!-- Node24 -->
<g id="node24" class="node">
<title>Node24</title>
<g id="a_node24"><a xlink:href="decmp_8c_a5e29a350ebed1be3d3240b4aed0c67bc.html#a5e29a350ebed1be3d3240b4aed0c67bc" target="_top" xlink:title="decompress the next code word in the bitstream and decorate it with the model">
<polygon fill="white" stroke="black" points="193,-272.33 193,-291.33 277,-291.33 277,-272.33 193,-272.33"/>
<text text-anchor="middle" x="235" y="-279.33" font-family="Helvetica,sans-Serif" font-size="10.00">decode_value</text>
</a>
</g>
</g>
<!-- Node1&#45;&gt;Node24 -->
<g id="edge35" class="edge">
<title>Node1&#45;&gt;Node24</title>
<path fill="none" stroke="midnightblue" d="M78.54,-196.46C109.06,-213.22 172.07,-247.82 207.79,-267.44"/>
<polygon fill="midnightblue" stroke="midnightblue" points="206.22,-270.57 216.67,-272.31 209.59,-264.43 206.22,-270.57"/>
</g>
<!-- Node26 -->
<g id="node26" class="node">
<title>Node26</title>
<g id="a_node26"><a xlink:href="decmp_8c_a94885dc7430737ba85a8d8720c839022.html#a94885dc7430737ba85a8d8720c839022" target="_top" xlink:title="decompress the multi&#45;entry packet header structure and sets the data, model and up_model pointers to ...">
<polygon fill="white" stroke="black" points="156,-120.33 156,-139.33 314,-139.33 314,-120.33 156,-120.33"/>
<text text-anchor="middle" x="235" y="-127.33" font-family="Helvetica,sans-Serif" font-size="10.00">decompress_multi_entry_hdr</text>
</a>
</g>
</g>
<!-- Node1&#45;&gt;Node26 -->
<g id="edge38" class="edge">
<title>Node1&#45;&gt;Node26</title>
<path fill="none" stroke="midnightblue" d="M82.56,-177.18C101.61,-168.91 130.28,-157.06 156,-148.83 163.74,-146.35 172,-144.02 180.14,-141.89"/>
<polygon fill="midnightblue" stroke="midnightblue" points="181.13,-145.25 189.97,-139.4 179.41,-138.46 181.13,-145.25"/>
</g>
<!-- Node27 -->
<g id="node27" class="node">
<title>Node27</title>
<g id="a_node27"><a xlink:href="cmp__support_8c_afba7806c424cfb8c7678c1b4cebdfcbb.html#afba7806c424cfb8c7678c1b4cebdfcbb" target="_top" xlink:title="check if a model mode is selected">
<polygon fill="white" stroke="black" points="174,-82.33 174,-101.33 296,-101.33 296,-82.33 174,-82.33"/>
<text text-anchor="middle" x="235" y="-89.33" font-family="Helvetica,sans-Serif" font-size="10.00">model_mode_is_used</text>
</a>
</g>
</g>
<!-- Node1&#45;&gt;Node27 -->
<g id="edge39" class="edge">
<title>Node1&#45;&gt;Node27</title>
<path fill="none" stroke="midnightblue" d="M70,-177.3C85.83,-161.12 120.36,-128.34 156,-110.83 160.93,-108.41 166.18,-106.28 171.55,-104.42"/>
<polygon fill="midnightblue" stroke="midnightblue" points="172.8,-107.69 181.28,-101.34 170.69,-101.02 172.8,-107.69"/>
</g>
<!-- Node3 -->
<g id="node3" class="node">
<title>Node3</title>
<g id="a_node3"><a xlink:href="read__bitstream_8h_a4de9ebb7d031d3dcf638b7d0ae6f166d.html#a4de9ebb7d031d3dcf638b7d0ae6f166d" target="_top" xlink:title="read 8 bytes of big&#45;endian data from an unaligned address">
<polygon fill="white" stroke="black" points="676,-310.33 676,-329.33 815,-329.33 815,-310.33 676,-310.33"/>
<text text-anchor="middle" x="745.5" y="-317.33" font-family="Helvetica,sans-Serif" font-size="10.00">bit_read_unaligned_64be</text>
</a>
</g>
</g>
<!-- Node2&#45;&gt;Node3 -->
<g id="edge2" class="edge">
<title>Node2&#45;&gt;Node3</title>
<path fill="none" stroke="midnightblue" d="M630.48,-348.24C650.52,-343.25 675.2,-337.1 696.48,-331.79"/>
<polygon fill="midnightblue" stroke="midnightblue" points="697.44,-335.16 706.29,-329.35 695.74,-328.37 697.44,-335.16"/>
</g>
<!-- Node6 -->
<g id="node6" class="node">
<title>Node6</title>
<g id="a_node6"><a xlink:href="decmp_8c_a0082c0ea9e4c9c5eaa41b804e94bdf1d.html#a0082c0ea9e4c9c5eaa41b804e94bdf1d" target="_top" xlink:title="decode the next code word with the multi escape mechanism from the bitstream">
<polygon fill="white" stroke="black" points="386.5,-158.33 386.5,-177.33 469.5,-177.33 469.5,-158.33 386.5,-158.33"/>
<text text-anchor="middle" x="428" y="-165.33" font-family="Helvetica,sans-Serif" font-size="10.00">decode_multi</text>
</a>
</g>
</g>
<!-- Node5&#45;&gt;Node6 -->
<g id="edge5" class="edge">
<title>Node5&#45;&gt;Node6</title>
<path fill="none" stroke="midnightblue" d="M284.2,-196.24C312.25,-190.66 347.58,-183.63 376.09,-177.96"/>
<polygon fill="midnightblue" stroke="midnightblue" points="377.13,-181.32 386.25,-175.93 375.76,-174.45 377.13,-181.32"/>
</g>
<!-- Node12 -->
<g id="node12" class="node">
<title>Node12</title>
<g id="a_node12"><a xlink:href="decmp_8c_a071c03ef3d6f70f5be1e9aeb41fc157a.html#a071c03ef3d6f70f5be1e9aeb41fc157a" target="_top" xlink:title="get the value unencoded with setup&#45;&gt;cmp_par_1 bits without any additional changes from the bitstream">
<polygon fill="white" stroke="black" points="387.5,-272.33 387.5,-291.33 468.5,-291.33 468.5,-272.33 387.5,-272.33"/>
<text text-anchor="middle" x="428" y="-279.33" font-family="Helvetica,sans-Serif" font-size="10.00">decode_none</text>
</a>
</g>
</g>
<!-- Node5&#45;&gt;Node12 -->
<g id="edge12" class="edge">
<title>Node5&#45;&gt;Node12</title>
<path fill="none" stroke="midnightblue" d="M252.48,-215.53C274.19,-227.97 313.87,-249.52 350,-262.83 358.73,-266.04 368.21,-268.88 377.45,-271.32"/>
<polygon fill="midnightblue" stroke="midnightblue" points="376.77,-274.76 387.32,-273.81 378.48,-267.97 376.77,-274.76"/>
</g>
<!-- Node13 -->
<g id="node13" class="node">
<title>Node13</title>
<g id="a_node13"><a xlink:href="decmp_8c_ad5f1a8490e42bf0710838367255d21dc.html#ad5f1a8490e42bf0710838367255d21dc" target="_top" xlink:title="decode the next code word with zero escape system mechanism from the bitstream">
<polygon fill="white" stroke="black" points="389,-234.33 389,-253.33 467,-253.33 467,-234.33 389,-234.33"/>
<text text-anchor="middle" x="428" y="-241.33" font-family="Helvetica,sans-Serif" font-size="10.00">decode_zero</text>
</a>
</g>
</g>
<!-- Node5&#45;&gt;Node13 -->
<g id="edge15" class="edge">
<title>Node5&#45;&gt;Node13</title>
<path fill="none" stroke="midnightblue" d="M284.2,-215.42C313.16,-221.18 349.89,-228.49 378.85,-234.25"/>
<polygon fill="midnightblue" stroke="midnightblue" points="378.25,-237.7 388.74,-236.22 379.62,-230.83 378.25,-237.7"/>
</g>
<!-- Node15 -->
<g id="node15" class="node">
<title>Node15</title>
<g id="a_node15"><a xlink:href="cmp__support_8c_a67b0e38ca0e68c282c89552daa61ffdf.html#a67b0e38ca0e68c282c89552daa61ffdf" target="_top" xlink:title="implementation of the logarithm base of floor(log2(x)) for integers">
<polygon fill="white" stroke="black" points="722.5,-6.33 722.5,-25.33 768.5,-25.33 768.5,-6.33 722.5,-6.33"/>
<text text-anchor="middle" x="745.5" y="-13.33" font-family="Helvetica,sans-Serif" font-size="10.00">ilog_2</text>
</a>
</g>
</g>
<!-- Node5&#45;&gt;Node15 -->
<g id="edge19" class="edge">
<title>Node5&#45;&gt;Node15</title>
<path fill="none" stroke="midnightblue" d="M300.19,-196.21C305.22,-193.72 309.93,-190.64 314,-186.83 352.81,-150.54 310.41,-108.27 350,-72.83 453.69,20 637.93,2.16 712.17,-9.76"/>
<polygon fill="midnightblue" stroke="midnightblue" points="711.86,-13.26 722.3,-11.46 713.02,-6.36 711.86,-13.26"/>
</g>
<!-- Node16 -->
<g id="node16" class="node">
<title>Node16</title>
<g id="a_node16"><a xlink:href="cmp__support_8c_a0d3630773f703ddc81ca12e1f04485d9.html#a0d3630773f703ddc81ca12e1f04485d9" target="_top" xlink:title="check if multi escape symbol mechanism mode is used">
<polygon fill="white" stroke="black" points="350,-82.33 350,-101.33 506,-101.33 506,-82.33 350,-82.33"/>
<text text-anchor="middle" x="428" y="-89.33" font-family="Helvetica,sans-Serif" font-size="10.00">multi_escape_mech_is_used</text>
</a>
</g>
</g>
<!-- Node5&#45;&gt;Node16 -->
<g id="edge20" class="edge">
<title>Node5&#45;&gt;Node16</title>
<path fill="none" stroke="midnightblue" d="M298.1,-196.29C303.82,-193.8 309.25,-190.7 314,-186.83 342.98,-163.22 321.06,-134.48 350,-110.83 352.05,-109.15 354.23,-107.62 356.51,-106.22"/>
<polygon fill="midnightblue" stroke="midnightblue" points="358.43,-109.16 365.69,-101.45 355.21,-102.95 358.43,-109.16"/>
</g>
<!-- Node17 -->
<g id="node17" class="node">
<title>Node17</title>
<g id="a_node17"><a xlink:href="decmp_8c_ac57439dd4b34cf8fb663756f2b7b2549.html#ac57439dd4b34cf8fb663756f2b7b2549" target="_top" xlink:title="select the decoder based on the used Golomb parameter">
<polygon fill="white" stroke="black" points="383,-120.33 383,-139.33 473,-139.33 473,-120.33 383,-120.33"/>
<text text-anchor="middle" x="428" y="-127.33" font-family="Helvetica,sans-Serif" font-size="10.00">select_decoder</text>
</a>
</g>
</g>
<!-- Node5&#45;&gt;Node17 -->
<g id="edge21" class="edge">
<title>Node5&#45;&gt;Node17</title>
<path fill="none" stroke="midnightblue" d="M292.48,-196.2C299.99,-193.74 307.37,-190.67 314,-186.83 334.12,-175.15 329.89,-160.53 350,-148.83 357.11,-144.69 365.09,-141.45 373.15,-138.91"/>
<polygon fill="midnightblue" stroke="midnightblue" points="374.29,-142.23 382.97,-136.15 372.39,-135.49 374.29,-142.23"/>
</g>
<!-- Node23 -->
<g id="node23" class="node">
<title>Node23</title>
<g id="a_node23"><a xlink:href="cmp__support_8c_a82a852e0723978f5d5f4f5dbb756fa8f.html#a82a852e0723978f5d5f4f5dbb756fa8f" target="_top" xlink:title="check if zero escape symbol mechanism mode is used">
<polygon fill="white" stroke="black" points="352,-196.33 352,-215.33 504,-215.33 504,-196.33 352,-196.33"/>
<text text-anchor="middle" x="428" y="-203.33" font-family="Helvetica,sans-Serif" font-size="10.00">zero_escape_mech_is_used</text>
</a>
</g>
</g>
<!-- Node5&#45;&gt;Node23 -->
<g id="edge34" class="edge">
<title>Node5&#45;&gt;Node23</title>
<path fill="none" stroke="midnightblue" d="M304.15,-205.83C316.32,-205.83 329.14,-205.83 341.72,-205.83"/>
<polygon fill="midnightblue" stroke="midnightblue" points="341.74,-209.33 351.74,-205.83 341.74,-202.33 341.74,-209.33"/>
</g>
<!-- Node7 -->
<g id="node7" class="node">
<title>Node7</title>
<g id="a_node7"><a xlink:href="read__bitstream_8h_ad3b2702183e32bb737d84c8accd73066.html#ad3b2702183e32bb737d84c8accd73066" target="_top" xlink:title="same as bit_read_bits32() but only returns 32 bit">
<polygon fill="white" stroke="black" points="699.5,-177.33 699.5,-196.33 791.5,-196.33 791.5,-177.33 699.5,-177.33"/>
<text text-anchor="middle" x="745.5" y="-184.33" font-family="Helvetica,sans-Serif" font-size="10.00">bit_read_bits32</text>
</a>
</g>
</g>
<!-- Node6&#45;&gt;Node7 -->
<g id="edge6" class="edge">
<title>Node6&#45;&gt;Node7</title>
<path fill="none" stroke="midnightblue" d="M469.59,-176.34C491.02,-180.4 517.81,-184.81 542,-186.83 591.74,-190.98 648.59,-190.53 689.36,-189.3"/>
<polygon fill="midnightblue" stroke="midnightblue" points="689.49,-192.8 699.37,-188.97 689.26,-185.8 689.49,-192.8"/>
</g>
<!-- Node11 -->
<g id="node11" class="node">
<title>Node11</title>
<g id="a_node11"><a xlink:href="read__bitstream_8h_a65b5e1cb1107340846d20cae42c8a00c.html#a65b5e1cb1107340846d20cae42c8a00c" target="_top" xlink:title="refill the local register from the buffer previously set in bit_init_decoder()">
<polygon fill="white" stroke="black" points="563,-272.33 563,-291.33 619,-291.33 619,-272.33 563,-272.33"/>
<text text-anchor="middle" x="591" y="-279.33" font-family="Helvetica,sans-Serif" font-size="10.00">bit_refill</text>
</a>
</g>
</g>
<!-- Node6&#45;&gt;Node11 -->
<g id="edge10" class="edge">
<title>Node6&#45;&gt;Node11</title>
<path fill="none" stroke="midnightblue" d="M469.57,-173.06C481.89,-175.88 495.05,-180.2 506,-186.83 522.86,-197.03 557.21,-239.42 576.35,-263.99"/>
<polygon fill="midnightblue" stroke="midnightblue" points="573.77,-266.37 582.66,-272.14 579.31,-262.09 573.77,-266.37"/>
</g>
<!-- Node8 -->
<g id="node8" class="node">
<title>Node8</title>
<g id="a_node8"><a xlink:href="read__bitstream_8h_acf4864b9e402d8b801c0d3a8cd5dac3d.html#acf4864b9e402d8b801c0d3a8cd5dac3d" target="_top" xlink:title="read and consume next n bits from the local register">
<polygon fill="white" stroke="black" points="875,-158.33 875,-177.33 955,-177.33 955,-158.33 875,-158.33"/>
<text text-anchor="middle" x="915" y="-165.33" font-family="Helvetica,sans-Serif" font-size="10.00">bit_read_bits</text>
</a>
</g>
</g>
<!-- Node7&#45;&gt;Node8 -->
<g id="edge7" class="edge">
<title>Node7&#45;&gt;Node8</title>
<path fill="none" stroke="midnightblue" d="M791.83,-181.69C814.45,-179.12 841.84,-176.01 864.95,-173.39"/>
<polygon fill="midnightblue" stroke="midnightblue" points="865.36,-176.87 874.9,-172.26 864.57,-169.91 865.36,-176.87"/>
</g>
<!-- Node9 -->
<g id="node9" class="node">
<title>Node9</title>
<g id="a_node9"><a xlink:href="read__bitstream_8h_ad1aa8029b694397da24a84fcdc75acab.html#ad1aa8029b694397da24a84fcdc75acab" target="_top" xlink:title="mark next n bits in the local register as consumed">
<polygon fill="white" stroke="black" points="1015,-177.33 1015,-196.33 1117,-196.33 1117,-177.33 1015,-177.33"/>
<text text-anchor="middle" x="1066" y="-184.33" font-family="Helvetica,sans-Serif" font-size="10.00">bit_consume_bits</text>
</a>
</g>
</g>
<!-- Node8&#45;&gt;Node9 -->
<g id="edge8" class="edge">
<title>Node8&#45;&gt;Node9</title>
<path fill="none" stroke="midnightblue" d="M955.15,-172.82C970.29,-174.75 987.96,-177 1004.65,-179.13"/>
<polygon fill="midnightblue" stroke="midnightblue" points="1004.52,-182.64 1014.88,-180.44 1005.4,-175.7 1004.52,-182.64"/>
</g>
<!-- Node10 -->
<g id="node10" class="node">
<title>Node10</title>
<g id="a_node10"><a xlink:href="read__bitstream_8h_a12cac6ee9f16079c39d9fc7b61639597.html#a12cac6ee9f16079c39d9fc7b61639597" target="_top" xlink:title="provides next n bits from local register; local register is not modified">
<polygon fill="white" stroke="black" points="1025,-101.33 1025,-120.33 1107,-120.33 1107,-101.33 1025,-101.33"/>
<text text-anchor="middle" x="1066" y="-108.33" font-family="Helvetica,sans-Serif" font-size="10.00">bit_peek_bits</text>
</a>
</g>
</g>
<!-- Node8&#45;&gt;Node10 -->
<g id="edge9" class="edge">
<title>Node8&#45;&gt;Node10</title>
<path fill="none" stroke="midnightblue" d="M950.59,-158.23C959.89,-155.43 969.89,-152.2 979,-148.83 998.32,-141.68 1019.5,-132.34 1036,-124.71"/>
<polygon fill="midnightblue" stroke="midnightblue" points="1037.55,-127.85 1045.13,-120.44 1034.59,-121.51 1037.55,-127.85"/>
</g>
<!-- Node11&#45;&gt;Node3 -->
<g id="edge11" class="edge">
<title>Node11&#45;&gt;Node3</title>
<path fill="none" stroke="midnightblue" d="M619.26,-288.62C640.67,-293.95 671,-301.51 696.46,-307.86"/>
<polygon fill="midnightblue" stroke="midnightblue" points="695.75,-311.29 706.3,-310.31 697.45,-304.5 695.75,-311.29"/>
</g>
<!-- Node12&#45;&gt;Node7 -->
<g id="edge13" class="edge">
<title>Node12&#45;&gt;Node7</title>
<path fill="none" stroke="midnightblue" d="M468.81,-289.97C521.25,-299.91 610.29,-313.9 640,-300.83 684.43,-281.28 718.23,-232.48 734.25,-205.5"/>
<polygon fill="midnightblue" stroke="midnightblue" points="737.39,-207.06 739.33,-196.64 731.32,-203.57 737.39,-207.06"/>
</g>
<!-- Node12&#45;&gt;Node11 -->
<g id="edge14" class="edge">
<title>Node12&#45;&gt;Node11</title>
<path fill="none" stroke="midnightblue" d="M468.8,-281.83C494.38,-281.83 527.41,-281.83 552.53,-281.83"/>
<polygon fill="midnightblue" stroke="midnightblue" points="552.76,-285.33 562.76,-281.83 552.76,-278.33 552.76,-285.33"/>
</g>
<!-- Node13&#45;&gt;Node11 -->
<g id="edge18" class="edge">
<title>Node13&#45;&gt;Node11</title>
<path fill="none" stroke="midnightblue" d="M467.15,-252.83C493.1,-258.96 527.24,-267.01 552.94,-273.08"/>
<polygon fill="midnightblue" stroke="midnightblue" points="552.16,-276.49 562.69,-275.38 553.77,-269.68 552.16,-276.49"/>
</g>
<!-- Node14 -->
<g id="node14" class="node">
<title>Node14</title>
<g id="a_node14"><a xlink:href="read__bitstream_8h_ae9b99a3b550a98eba08bba186159ff7b.html#ae9b99a3b550a98eba08bba186159ff7b" target="_top" xlink:title="same as bit_read_bits32() but subtract 1 from the extracted value">
<polygon fill="white" stroke="black" points="852.5,-234.33 852.5,-253.33 977.5,-253.33 977.5,-234.33 852.5,-234.33"/>
<text text-anchor="middle" x="915" y="-241.33" font-family="Helvetica,sans-Serif" font-size="10.00">bit_read_bits32_sub_1</text>
</a>
</g>
</g>
<!-- Node13&#45;&gt;Node14 -->
<g id="edge16" class="edge">
<title>Node13&#45;&gt;Node14</title>
<path fill="none" stroke="midnightblue" d="M467.06,-243.83C547.88,-243.83 737.79,-243.83 842.16,-243.83"/>
<polygon fill="midnightblue" stroke="midnightblue" points="842.3,-247.33 852.3,-243.83 842.3,-240.33 842.3,-247.33"/>
</g>
<!-- Node14&#45;&gt;Node9 -->
<g id="edge17" class="edge">
<title>Node14&#45;&gt;Node9</title>
<path fill="none" stroke="midnightblue" d="M941.14,-234.26C952.68,-229.87 966.54,-224.59 979,-219.83 996.07,-213.3 1015.04,-206.02 1030.81,-199.97"/>
<polygon fill="midnightblue" stroke="midnightblue" points="1032.09,-203.23 1040.17,-196.37 1029.58,-196.69 1032.09,-203.23"/>
</g>
<!-- Node18 -->
<g id="node18" class="node">
<title>Node18</title>
<g id="a_node18"><a xlink:href="decmp_8c_ab8ea64d46b8170dc65694e3d0dec64ff.html#ab8ea64d46b8170dc65694e3d0dec64ff" target="_top" xlink:title="decode the next Golomb code word in the bitstream">
<polygon fill="white" stroke="black" points="542,-82.33 542,-101.33 640,-101.33 640,-82.33 542,-82.33"/>
<text text-anchor="middle" x="591" y="-89.33" font-family="Helvetica,sans-Serif" font-size="10.00">golomb_decoder</text>
</a>
</g>
</g>
<!-- Node17&#45;&gt;Node18 -->
<g id="edge22" class="edge">
<title>Node17&#45;&gt;Node18</title>
<path fill="none" stroke="midnightblue" d="M469.63,-120.24C490.97,-115.2 517.31,-108.98 539.91,-103.65"/>
<polygon fill="midnightblue" stroke="midnightblue" points="540.74,-107.05 549.67,-101.35 539.13,-100.24 540.74,-107.05"/>
</g>
<!-- Node19 -->
<g id="node19" class="node">
<title>Node19</title>
<g id="a_node19"><a xlink:href="decmp_8c_ad77fca4bf62b97dc9fe6edabb0086709.html#ad77fca4bf62b97dc9fe6edabb0086709" target="_top" xlink:title="decode the next unary code word in the bitstream">
<polygon fill="white" stroke="black" points="701,-120.33 701,-139.33 790,-139.33 790,-120.33 701,-120.33"/>
<text text-anchor="middle" x="745.5" y="-127.33" font-family="Helvetica,sans-Serif" font-size="10.00">unary_decoder</text>
</a>
</g>
</g>
<!-- Node17&#45;&gt;Node19 -->
<g id="edge33" class="edge">
<title>Node17&#45;&gt;Node19</title>
<path fill="none" stroke="midnightblue" d="M473.2,-129.83C530.19,-129.83 629.25,-129.83 690.6,-129.83"/>
<polygon fill="midnightblue" stroke="midnightblue" points="690.85,-133.33 700.85,-129.83 690.85,-126.33 690.85,-133.33"/>
</g>
<!-- Node21 -->
<g id="node21" class="node">
<title>Node21</title>
<g id="a_node21"><a xlink:href="cmp__support_8c_a7831f21f8303058bcac76d42a4aa1c06.html#a7831f21f8303058bcac76d42a4aa1c06" target="_top" xlink:title="determining if an integer is a power of 2">
<polygon fill="white" stroke="black" points="547,-44.33 547,-63.33 635,-63.33 635,-44.33 547,-44.33"/>
<text text-anchor="middle" x="591" y="-51.33" font-family="Helvetica,sans-Serif" font-size="10.00">is_a_pow_of_2</text>
</a>
</g>
</g>
<!-- Node17&#45;&gt;Node21 -->
<g id="edge29" class="edge">
<title>Node17&#45;&gt;Node21</title>
<path fill="none" stroke="midnightblue" d="M473.03,-123.5C484.28,-120.69 496,-116.65 506,-110.83 526.11,-99.12 522.73,-85.86 542,-72.83 544.75,-70.97 547.7,-69.25 550.75,-67.67"/>
<polygon fill="midnightblue" stroke="midnightblue" points="552.45,-70.74 560.04,-63.35 549.5,-64.39 552.45,-70.74"/>
</g>
<!-- Node22 -->
<g id="node22" class="node">
<title>Node22</title>
<g id="a_node22"><a xlink:href="decmp_8c_a31e9c3bcbe70648b659fe3c8f4383045.html#a31e9c3bcbe70648b659fe3c8f4383045" target="_top" xlink:title="decode the next Rice code word in the bitstream">
<polygon fill="white" stroke="black" points="551.5,-158.33 551.5,-177.33 630.5,-177.33 630.5,-158.33 551.5,-158.33"/>
<text text-anchor="middle" x="591" y="-165.33" font-family="Helvetica,sans-Serif" font-size="10.00">rice_decoder</text>
</a>
</g>
</g>
<!-- Node17&#45;&gt;Node22 -->
<g id="edge30" class="edge">
<title>Node17&#45;&gt;Node22</title>
<path fill="none" stroke="midnightblue" d="M469.63,-139.42C491.46,-144.57 518.52,-150.96 541.45,-156.37"/>
<polygon fill="midnightblue" stroke="midnightblue" points="540.79,-159.81 551.33,-158.7 542.4,-153 540.79,-159.81"/>
</g>
<!-- Node18&#45;&gt;Node9 -->
<g id="edge23" class="edge">
<title>Node18&#45;&gt;Node9</title>
<path fill="none" stroke="midnightblue" d="M640.2,-90.26C729.94,-87.98 918.95,-86.4 979,-110.83 1009.14,-123.09 1035.81,-150.63 1051.19,-168.97"/>
<polygon fill="midnightblue" stroke="midnightblue" points="1048.78,-171.55 1057.79,-177.12 1054.22,-167.15 1048.78,-171.55"/>
</g>
<!-- Node18&#45;&gt;Node10 -->
<g id="edge24" class="edge">
<title>Node18&#45;&gt;Node10</title>
<path fill="none" stroke="midnightblue" d="M640.25,-82.39C651.9,-80.49 664.36,-78.79 676,-77.83 810.21,-66.72 846.59,-53.29 979,-77.83 998.92,-81.52 1020.19,-89.64 1036.59,-96.9"/>
<polygon fill="midnightblue" stroke="midnightblue" points="1035.57,-100.28 1046.12,-101.26 1038.49,-93.92 1035.57,-100.28"/>
</g>
<!-- Node18&#45;&gt;Node15 -->
<g id="edge25" class="edge">
<title>Node18&#45;&gt;Node15</title>
<path fill="none" stroke="midnightblue" d="M621.01,-82.32C627.48,-79.67 634.15,-76.49 640,-72.83 658.4,-61.31 657.38,-50.98 676,-39.83 687.23,-33.1 700.63,-27.88 712.59,-24.05"/>
<polygon fill="midnightblue" stroke="midnightblue" points="713.64,-27.39 722.21,-21.16 711.63,-20.69 713.64,-27.39"/>
</g>
<!-- Node18&#45;&gt;Node19 -->
<g id="edge26" class="edge">
<title>Node18&#45;&gt;Node19</title>
<path fill="none" stroke="midnightblue" d="M630.48,-101.42C650.52,-106.41 675.2,-112.56 696.48,-117.86"/>
<polygon fill="midnightblue" stroke="midnightblue" points="695.74,-121.29 706.29,-120.31 697.44,-114.49 695.74,-121.29"/>
</g>
<!-- Node19&#45;&gt;Node9 -->
<g id="edge27" class="edge">
<title>Node19&#45;&gt;Node9</title>
<path fill="none" stroke="midnightblue" d="M763.74,-139.37C792.8,-155.44 848.63,-186.22 851,-186.83 901.66,-199.75 961.29,-198.46 1004.71,-194.69"/>
<polygon fill="midnightblue" stroke="midnightblue" points="1005.21,-198.16 1014.83,-193.74 1004.55,-191.19 1005.21,-198.16"/>
</g>
<!-- Node20 -->
<g id="node20" class="node">
<title>Node20</title>
<g id="a_node20"><a xlink:href="read__bitstream_8h_a08b1899a09b0b72856f441efae758d76.html#a08b1899a09b0b72856f441efae758d76" target="_top" xlink:title="count the leading ones in the local register; local register is not modified">
<polygon fill="white" stroke="black" points="851,-120.33 851,-139.33 979,-139.33 979,-120.33 851,-120.33"/>
<text text-anchor="middle" x="915" y="-127.33" font-family="Helvetica,sans-Serif" font-size="10.00">bit_peek_leading_ones</text>
</a>
</g>
</g>
<!-- Node19&#45;&gt;Node20 -->
<g id="edge28" class="edge">
<title>Node19&#45;&gt;Node20</title>
<path fill="none" stroke="midnightblue" d="M790.07,-129.83C805.55,-129.83 823.42,-129.83 840.7,-129.83"/>
<polygon fill="midnightblue" stroke="midnightblue" points="840.78,-133.33 850.78,-129.83 840.78,-126.33 840.78,-133.33"/>
</g>
<!-- Node22&#45;&gt;Node7 -->
<g id="edge31" class="edge">
<title>Node22&#45;&gt;Node7</title>
<path fill="none" stroke="midnightblue" d="M630.88,-172.67C648.69,-174.89 670.11,-177.56 689.53,-179.98"/>
<polygon fill="midnightblue" stroke="midnightblue" points="689.12,-183.45 699.48,-181.22 689.99,-176.51 689.12,-183.45"/>
</g>
<!-- Node22&#45;&gt;Node19 -->
<g id="edge32" class="edge">
<title>Node22&#45;&gt;Node19</title>
<path fill="none" stroke="midnightblue" d="M630.48,-158.24C650.52,-153.25 675.2,-147.1 696.48,-141.79"/>
<polygon fill="midnightblue" stroke="midnightblue" points="697.44,-145.16 706.29,-139.35 695.74,-138.37 697.44,-145.16"/>
</g>
<!-- Node24&#45;&gt;Node12 -->
<g id="edge36" class="edge">
<title>Node24&#45;&gt;Node12</title>
<path fill="none" stroke="midnightblue" d="M277.44,-281.83C306.72,-281.83 346.1,-281.83 377.1,-281.83"/>
<polygon fill="midnightblue" stroke="midnightblue" points="377.27,-285.33 387.27,-281.83 377.27,-278.33 377.27,-285.33"/>
</g>
<!-- Node25 -->
<g id="node25" class="node">
<title>Node25</title>
<g id="a_node25"><a xlink:href="decmp_8c_a931b1f11894a7118817a8b8bb08644f9.html#a931b1f11894a7118817a8b8bb08644f9" target="_top" xlink:title="remap an unsigned value back to a signed value">
<polygon fill="white" stroke="black" points="382.5,-310.33 382.5,-329.33 473.5,-329.33 473.5,-310.33 382.5,-310.33"/>
<text text-anchor="middle" x="428" y="-317.33" font-family="Helvetica,sans-Serif" font-size="10.00">re_map_to_pos</text>
</a>
</g>
</g>
<!-- Node24&#45;&gt;Node25 -->
<g id="edge37" class="edge">
<title>Node24&#45;&gt;Node25</title>
<path fill="none" stroke="midnightblue" d="M277.44,-290.07C305.24,-295.6 342.15,-302.95 372.35,-308.95"/>
<polygon fill="midnightblue" stroke="midnightblue" points="371.81,-312.42 382.31,-310.94 373.18,-305.55 371.81,-312.42"/>
</g>
</g>
</svg>
        <g id="navigator" transform="translate(0 0)" fill="#404254">
                <rect fill="#f2f5e9" fill-opacity="0.5" stroke="#606060" stroke-width=".5" x="0" y="0" width="60" height="60"/>
                <use id="zoomplus" xlink:href="#zoomPlus" x="17" y="9" onmousedown="handleZoom(evt,'in')"/>
                <use id="zoomminus" xlink:href="#zoomMin" x="42" y="9" onmousedown="handleZoom(evt,'out')"/>
                <use id="reset" xlink:href="#resetDef" x="30" y="36" onmousedown="handleReset()"/>
                <g id="arrowUp" xlink:href="#dirArrow" transform="translate(30 24)" onmousedown="handlePan(0,-1)">
                  <use xlink:href="#rim" fill="#404040">
                        <set attributeName="fill" to="#808080" begin="arrowUp.mouseover" end="arrowUp.mouseout"/>
                  </use>
                  <path fill="none" stroke="white" stroke-width="1.5" d="M0,-3.0v7 M-2.5,-0.5L0,-3.0L2.5,-0.5"/>
                </g>
                <g id="arrowRight" xlink:href="#dirArrow" transform="rotate(90) translate(36 -43)" onmousedown="handlePan(1,0)">
                  <use xlink:href="#rim" fill="#404040">
                        <set attributeName="fill" to="#808080" begin="arrowRight.mouseover" end="arrowRight.mouseout"/>
                  </use>
                  <path fill="none" stroke="white" stroke-width="1.5" d="M0,-3.0v7 M-2.5,-0.5L0,-3.0L2.5,-0.5"/>
                </g>
                <g id="arrowDown" xlink:href="#dirArrow" transform="rotate(180) translate(-30 -48)" onmousedown="handlePan(0,1)">
                  <use xlink:href="#rim" fill="#404040">
                        <set attributeName="fill" to="#808080" begin="arrowDown.mouseover" end="arrowDown.mouseout"/>
                  </use>
                  <path fill="none" stroke="white" stroke-width="1.5" d="M0,-3.0v7 M-2.5,-0.5L0,-3.0L2.5,-0.5"/>
                </g>
                <g id="arrowLeft" xlink:href="#dirArrow" transform="rotate(270) translate(-36 17)" onmousedown="handlePan(-1,0)">
                  <use xlink:href="#rim" fill="#404040">
                        <set attributeName="fill" to="#808080" begin="arrowLeft.mouseover" end="arrowLeft.mouseout"/>
                  </use>
                  <path fill="none" stroke="white" stroke-width="1.5" d="M0,-3.0v7 M-2.5,-0.5L0,-3.0L2.5,-0.5"/>
                </g>
        </g>
        <svg viewBox="0 0 15 15" width="100%" height="30px" preserveAspectRatio="xMaxYMin meet">
         <g id="arrow_out" transform="scale(0.3 0.3)">
          <a xlink:href="decmp_8c_aa06fff345fa7fd62fb4fd7a619c118fe_aa06fff345fa7fd62fb4fd7a619c118fe_cgraph_org.svg" target="_base">
           <rect id="button" ry="5" rx="5" y="6" x="6" height="38" width="38"
                fill="#f2f5e9" fill-opacity="0.5" stroke="#606060" stroke-width="1.0"/>
           <path id="arrow"
             d="M 11.500037,31.436501 C 11.940474,20.09759 22.043105,11.32322 32.158766,21.979434 L 37.068811,17.246167 C 37.068811,17.246167 37.088388,32 37.088388,32 L 22.160133,31.978069 C 22.160133,31.978069 26.997745,27.140456 26.997745,27.140456 C 18.528582,18.264221 13.291696,25.230495 11.500037,31.436501 z"
             style="fill:#404040;"/>
          </a>
         </g>
        </svg>
</svg>
