<?xml version="1.0" encoding="UTF-8" standalone="no"?>
<!DOCTYPE svg PUBLIC "-//W3C//DTD SVG 1.1//EN"
 "http://www.w3.org/Graphics/SVG/1.1/DTD/svg11.dtd">
<!-- Generated by graphviz version 2.43.0 (0)
 -->
<!-- Title: decmp.c Pages: 1 -->
<svg width="941pt" height="319pt"
 viewBox="0.00 0.00 940.91 319.00" xmlns="http://www.w3.org/2000/svg" xmlns:xlink="http://www.w3.org/1999/xlink">
<g id="graph0" class="graph" transform="scale(1 1) rotate(0) translate(4 315)">
<title>decmp.c</title>
<polygon fill="white" stroke="transparent" points="-4,4 -4,-315 936.91,-315 936.91,4 -4,4"/>
<!-- Node1 -->
<g id="node1" class="node">
<title>Node1</title>
<g id="a_node1"><a xlink:title="software decompression library">
<polygon fill="#bfbfbf" stroke="black" points="472.5,-291.5 472.5,-310.5 530.5,-310.5 530.5,-291.5 472.5,-291.5"/>
<text text-anchor="middle" x="501.5" y="-298.5" font-family="Helvetica,sans-Serif" font-size="10.00">decmp.c</text>
</a>
</g>
</g>
<!-- Node2 -->
<g id="node2" class="node">
<title>Node2</title>
<g id="a_node2"><a xlink:title=" ">
<polygon fill="white" stroke="#bfbfbf" points="474,-0.5 474,-19.5 527,-19.5 527,-0.5 474,-0.5"/>
<text text-anchor="middle" x="500.5" y="-7.5" font-family="Helvetica,sans-Serif" font-size="10.00">stdint.h</text>
</a>
</g>
</g>
<!-- Node1&#45;&gt;Node2 -->
<g id="edge1" class="edge">
<title>Node1&#45;&gt;Node2</title>
<path fill="none" stroke="midnightblue" d="M530.56,-298.69C619.47,-294.44 883.54,-279.81 912.5,-255 937.15,-233.89 931.5,-216.95 931.5,-184.5 931.5,-184.5 931.5,-184.5 931.5,-121 931.5,-39.9 641.37,-17.83 537.19,-12.52"/>
<polygon fill="midnightblue" stroke="midnightblue" points="537.29,-9.02 527.14,-12.03 536.95,-16.01 537.29,-9.02"/>
</g>
<!-- Node3 -->
<g id="node3" class="node">
<title>Node3</title>
<g id="a_node3"><a xlink:title=" ">
<polygon fill="white" stroke="#bfbfbf" points="105,-235.5 105,-254.5 158,-254.5 158,-235.5 105,-235.5"/>
<text text-anchor="middle" x="131.5" y="-242.5" font-family="Helvetica,sans-Serif" font-size="10.00">limits.h</text>
</a>
</g>
</g>
<!-- Node1&#45;&gt;Node3 -->
<g id="edge2" class="edge">
<title>Node1&#45;&gt;Node3</title>
<path fill="none" stroke="midnightblue" d="M472.33,-296.81C414.77,-290.33 282.61,-274.58 172.5,-255 171.21,-254.77 169.9,-254.53 168.57,-254.28"/>
<polygon fill="midnightblue" stroke="midnightblue" points="168.84,-250.76 158.34,-252.22 167.46,-257.62 168.84,-250.76"/>
</g>
<!-- Node4 -->
<g id="node4" class="node">
<title>Node4</title>
<g id="a_node4"><a xlink:title=" ">
<polygon fill="white" stroke="#bfbfbf" points="145,-174 145,-193 198,-193 198,-174 145,-174"/>
<text text-anchor="middle" x="171.5" y="-181" font-family="Helvetica,sans-Serif" font-size="10.00">string.h</text>
</a>
</g>
</g>
<!-- Node1&#45;&gt;Node4 -->
<g id="edge3" class="edge">
<title>Node1&#45;&gt;Node4</title>
<path fill="none" stroke="midnightblue" d="M472.2,-298.96C406.03,-296.08 247.52,-286.04 205.5,-255 188.63,-242.54 179.74,-219.47 175.34,-203.12"/>
<polygon fill="midnightblue" stroke="midnightblue" points="178.68,-202.01 172.97,-193.08 171.87,-203.62 178.68,-202.01"/>
</g>
<!-- Node5 -->
<g id="node5" class="node">
<title>Node5</title>
<g id="a_node5"><a xlink:title=" ">
<polygon fill="white" stroke="#bfbfbf" points="292.5,-174 292.5,-193 348.5,-193 348.5,-174 292.5,-174"/>
<text text-anchor="middle" x="320.5" y="-181" font-family="Helvetica,sans-Serif" font-size="10.00">assert.h</text>
</a>
</g>
</g>
<!-- Node1&#45;&gt;Node5 -->
<g id="edge4" class="edge">
<title>Node1&#45;&gt;Node5</title>
<path fill="none" stroke="midnightblue" d="M472.25,-295.5C443.72,-289.92 400.24,-278.17 369.5,-255 351.14,-241.16 337.12,-218.41 328.87,-202.51"/>
<polygon fill="midnightblue" stroke="midnightblue" points="331.85,-200.64 324.3,-193.21 325.57,-203.73 331.85,-200.64"/>
</g>
<!-- Node6 -->
<g id="node6" class="node">
<title>Node6</title>
<g id="a_node6"><a xlink:href="byteorder_8h.html" target="_top" xlink:title="This is a set of macros for consistent endianness conversion. They work for both little and big endia...">
<polygon fill="white" stroke="black" points="0,-174 0,-193 127,-193 127,-174 0,-174"/>
<text text-anchor="middle" x="63.5" y="-181" font-family="Helvetica,sans-Serif" font-size="10.00">../common/byteorder.h</text>
</a>
</g>
</g>
<!-- Node1&#45;&gt;Node6 -->
<g id="edge5" class="edge">
<title>Node1&#45;&gt;Node6</title>
<path fill="none" stroke="midnightblue" d="M472.43,-300.4C389.81,-300.99 155.7,-298.67 95.5,-255 78.7,-242.82 70.53,-219.69 66.68,-203.25"/>
<polygon fill="midnightblue" stroke="midnightblue" points="70.06,-202.27 64.66,-193.15 63.19,-203.64 70.06,-202.27"/>
</g>
<!-- Node7 -->
<g id="node7" class="node">
<title>Node7</title>
<g id="a_node7"><a xlink:href="compiler_8h.html" target="_top" xlink:title="a collection of preprocessor macros">
<polygon fill="white" stroke="black" points="416.5,-112.5 416.5,-131.5 538.5,-131.5 538.5,-112.5 416.5,-112.5"/>
<text text-anchor="middle" x="477.5" y="-119.5" font-family="Helvetica,sans-Serif" font-size="10.00">../common/compiler.h</text>
</a>
</g>
</g>
<!-- Node1&#45;&gt;Node7 -->
<g id="edge7" class="edge">
<title>Node1&#45;&gt;Node7</title>
<path fill="none" stroke="midnightblue" d="M510.25,-291.29C518.06,-282.84 528.95,-269.25 533.5,-255 545.26,-218.17 550.21,-202.87 533.5,-168 527.25,-154.95 515.16,-144.49 503.82,-136.95"/>
<polygon fill="midnightblue" stroke="midnightblue" points="505.35,-133.79 495,-131.54 501.69,-139.75 505.35,-133.79"/>
</g>
<!-- Node8 -->
<g id="node8" class="node">
<title>Node8</title>
<g id="a_node8"><a xlink:href="read__bitstream_8h.html" target="_top" xlink:title="this library handles the reading from an MSB&#45;first bitstream">
<polygon fill="white" stroke="black" points="214.5,-235.5 214.5,-254.5 314.5,-254.5 314.5,-235.5 214.5,-235.5"/>
<text text-anchor="middle" x="264.5" y="-242.5" font-family="Helvetica,sans-Serif" font-size="10.00">read_bitstream.h</text>
</a>
</g>
</g>
<!-- Node1&#45;&gt;Node8 -->
<g id="edge8" class="edge">
<title>Node1&#45;&gt;Node8</title>
<path fill="none" stroke="midnightblue" d="M472.44,-293.38C432.4,-284.25 359.78,-267.71 311.84,-256.79"/>
<polygon fill="midnightblue" stroke="midnightblue" points="312.53,-253.35 302,-254.55 310.98,-260.18 312.53,-253.35"/>
</g>
<!-- Node10 -->
<g id="node10" class="node">
<title>Node10</title>
<g id="a_node10"><a xlink:href="cmp__max__used__bits__list_8h.html" target="_top" xlink:title="Implement a list that can hold an arbitrary number of different cmp_max_used_bits structs.">
<polygon fill="white" stroke="black" points="378.5,-235.5 378.5,-254.5 524.5,-254.5 524.5,-235.5 378.5,-235.5"/>
<text text-anchor="middle" x="451.5" y="-242.5" font-family="Helvetica,sans-Serif" font-size="10.00">cmp_max_used_bits_list.h</text>
</a>
</g>
</g>
<!-- Node1&#45;&gt;Node10 -->
<g id="edge14" class="edge">
<title>Node1&#45;&gt;Node10</title>
<path fill="none" stroke="midnightblue" d="M493.24,-291.08C486.04,-283.3 475.39,-271.8 466.65,-262.37"/>
<polygon fill="midnightblue" stroke="midnightblue" points="468.97,-259.71 459.6,-254.75 463.83,-264.47 468.97,-259.71"/>
</g>
<!-- Node12 -->
<g id="node12" class="node">
<title>Node12</title>
<g id="a_node12"><a xlink:href="cmp__support_8h.html" target="_top" xlink:title="compression/decompression helper functions">
<polygon fill="white" stroke="black" points="557,-112.5 557,-131.5 700,-131.5 700,-112.5 557,-112.5"/>
<text text-anchor="middle" x="628.5" y="-119.5" font-family="Helvetica,sans-Serif" font-size="10.00">../common/cmp_support.h</text>
</a>
</g>
</g>
<!-- Node1&#45;&gt;Node12 -->
<g id="edge27" class="edge">
<title>Node1&#45;&gt;Node12</title>
<path fill="none" stroke="midnightblue" d="M512.49,-291.5C523.04,-283 539.01,-269.18 550.5,-255 580.82,-217.57 607.25,-167.09 620.14,-140.72"/>
<polygon fill="midnightblue" stroke="midnightblue" points="623.36,-142.11 624.54,-131.58 617.05,-139.08 623.36,-142.11"/>
</g>
<!-- Node13 -->
<g id="node13" class="node">
<title>Node13</title>
<g id="a_node13"><a xlink:href="cmp__max__used__bits_8h.html" target="_top" xlink:title="definition and consents of the cmp_max_used_bits structure">
<polygon fill="white" stroke="black" points="666,-56.5 666,-75.5 791,-75.5 791,-56.5 666,-56.5"/>
<text text-anchor="middle" x="728.5" y="-63.5" font-family="Helvetica,sans-Serif" font-size="10.00">cmp_max_used_bits.h</text>
</a>
</g>
</g>
<!-- Node1&#45;&gt;Node13 -->
<g id="edge32" class="edge">
<title>Node1&#45;&gt;Node13</title>
<path fill="none" stroke="midnightblue" d="M530.78,-298.91C587.17,-295.01 709.86,-277.48 761.5,-199 785.31,-162.81 758.08,-110.74 740.71,-84.1"/>
<polygon fill="midnightblue" stroke="midnightblue" points="743.59,-82.12 735.08,-75.81 737.8,-86.05 743.59,-82.12"/>
</g>
<!-- Node15 -->
<g id="node15" class="node">
<title>Node15</title>
<g id="a_node15"><a xlink:href="cmp__debug_8h.html" target="_top" xlink:title="compression/decompression debugging defines">
<polygon fill="white" stroke="black" points="766,-235.5 766,-254.5 903,-254.5 903,-235.5 766,-235.5"/>
<text text-anchor="middle" x="834.5" y="-242.5" font-family="Helvetica,sans-Serif" font-size="10.00">../common/cmp_debug.h</text>
</a>
</g>
</g>
<!-- Node1&#45;&gt;Node15 -->
<g id="edge26" class="edge">
<title>Node1&#45;&gt;Node15</title>
<path fill="none" stroke="midnightblue" d="M530.76,-295.26C584.38,-286.56 699.51,-267.89 771.61,-256.2"/>
<polygon fill="midnightblue" stroke="midnightblue" points="772.62,-259.58 781.93,-254.53 771.5,-252.67 772.62,-259.58"/>
</g>
<!-- Node16 -->
<g id="node16" class="node">
<title>Node16</title>
<g id="a_node16"><a xlink:href="cmp__entity_8h.html" target="_top" xlink:title="functions and definition to handle a compression entity">
<polygon fill="white" stroke="black" points="618.5,-174 618.5,-193 752.5,-193 752.5,-174 618.5,-174"/>
<text text-anchor="middle" x="685.5" y="-181" font-family="Helvetica,sans-Serif" font-size="10.00">../common/cmp_entity.h</text>
</a>
</g>
</g>
<!-- Node1&#45;&gt;Node16 -->
<g id="edge28" class="edge">
<title>Node1&#45;&gt;Node16</title>
<path fill="none" stroke="midnightblue" d="M526.7,-291.45C548.24,-283.58 579.6,-270.75 604.5,-255 629.45,-239.21 654.54,-215.97 670.04,-200.55"/>
<polygon fill="midnightblue" stroke="midnightblue" points="672.68,-202.85 677.22,-193.27 667.7,-197.93 672.68,-202.85"/>
</g>
<!-- Node6&#45;&gt;Node2 -->
<g id="edge6" class="edge">
<title>Node6&#45;&gt;Node2</title>
<path fill="none" stroke="midnightblue" d="M70.48,-173.93C90.07,-150.53 148.33,-85.39 212.5,-56 296.36,-17.6 406.78,-11.07 463.45,-10.49"/>
<polygon fill="midnightblue" stroke="midnightblue" points="463.73,-13.99 473.71,-10.45 463.7,-6.99 463.73,-13.99"/>
</g>
<!-- Node8&#45;&gt;Node2 -->
<g id="edge9" class="edge">
<title>Node8&#45;&gt;Node2</title>
<path fill="none" stroke="midnightblue" d="M262.86,-235.19C260.56,-220.62 257.56,-190.87 266.5,-168 278.54,-137.2 292.03,-135.3 315.5,-112 342.57,-85.14 347.7,-75.44 380.5,-56 406.74,-40.45 439.3,-28.65 463.88,-21.04"/>
<polygon fill="midnightblue" stroke="midnightblue" points="464.97,-24.36 473.54,-18.13 462.96,-17.66 464.97,-24.36"/>
</g>
<!-- Node8&#45;&gt;Node4 -->
<g id="edge12" class="edge">
<title>Node8&#45;&gt;Node4</title>
<path fill="none" stroke="midnightblue" d="M251.18,-235.48C236.12,-225.84 211.38,-210.02 193.46,-198.55"/>
<polygon fill="midnightblue" stroke="midnightblue" points="195.11,-195.45 184.8,-193.01 191.34,-201.35 195.11,-195.45"/>
</g>
<!-- Node8&#45;&gt;Node5 -->
<g id="edge11" class="edge">
<title>Node8&#45;&gt;Node5</title>
<path fill="none" stroke="midnightblue" d="M272.52,-235.48C281.09,-226.37 294.86,-211.74 305.46,-200.48"/>
<polygon fill="midnightblue" stroke="midnightblue" points="308.19,-202.69 312.49,-193.01 303.09,-197.89 308.19,-202.69"/>
</g>
<!-- Node8&#45;&gt;Node6 -->
<g id="edge13" class="edge">
<title>Node8&#45;&gt;Node6</title>
<path fill="none" stroke="midnightblue" d="M235.7,-235.48C200.63,-225.09 141.24,-207.51 102.19,-195.95"/>
<polygon fill="midnightblue" stroke="midnightblue" points="102.83,-192.49 92.24,-193.01 100.84,-199.2 102.83,-192.49"/>
</g>
<!-- Node9 -->
<g id="node9" class="node">
<title>Node9</title>
<g id="a_node9"><a xlink:title=" ">
<polygon fill="white" stroke="#bfbfbf" points="416.5,-56.5 416.5,-75.5 472.5,-75.5 472.5,-56.5 416.5,-56.5"/>
<text text-anchor="middle" x="444.5" y="-63.5" font-family="Helvetica,sans-Serif" font-size="10.00">stddef.h</text>
</a>
</g>
</g>
<!-- Node8&#45;&gt;Node9 -->
<g id="edge10" class="edge">
<title>Node8&#45;&gt;Node9</title>
<path fill="none" stroke="midnightblue" d="M264.63,-235.14C265.28,-219.98 268.48,-188.69 283.5,-168 315.61,-123.75 373.6,-94.47 410.52,-79.32"/>
<polygon fill="midnightblue" stroke="midnightblue" points="411.88,-82.54 419.88,-75.59 409.29,-76.04 411.88,-82.54"/>
</g>
<!-- Node10&#45;&gt;Node2 -->
<g id="edge15" class="edge">
<title>Node10&#45;&gt;Node2</title>
<path fill="none" stroke="midnightblue" d="M434.03,-235.45C420.77,-227.89 403.49,-215.5 395.5,-199 367.8,-141.8 359.42,-109 394.5,-56 409.85,-32.81 439.82,-21.53 463.99,-16.07"/>
<polygon fill="midnightblue" stroke="midnightblue" points="464.82,-19.47 473.93,-14.07 463.44,-12.61 464.82,-19.47"/>
</g>
<!-- Node11 -->
<g id="node11" class="node">
<title>Node11</title>
<g id="a_node11"><a xlink:href="cmp__data__types_8h.html" target="_top" xlink:title="definition of the different compression data types">
<polygon fill="white" stroke="black" points="405,-168.5 405,-198.5 524,-198.5 524,-168.5 405,-168.5"/>
<text text-anchor="start" x="413" y="-186.5" font-family="Helvetica,sans-Serif" font-size="10.00">../common/cmp_data</text>
<text text-anchor="middle" x="464.5" y="-175.5" font-family="Helvetica,sans-Serif" font-size="10.00">_types.h</text>
</a>
</g>
</g>
<!-- Node10&#45;&gt;Node11 -->
<g id="edge16" class="edge">
<title>Node10&#45;&gt;Node11</title>
<path fill="none" stroke="midnightblue" d="M453.36,-235.48C454.91,-228.4 457.19,-217.97 459.28,-208.39"/>
<polygon fill="midnightblue" stroke="midnightblue" points="462.72,-209.04 461.44,-198.52 455.88,-207.55 462.72,-209.04"/>
</g>
<!-- Node11&#45;&gt;Node2 -->
<g id="edge17" class="edge">
<title>Node11&#45;&gt;Node2</title>
<path fill="none" stroke="midnightblue" d="M440.62,-168.41C428.25,-159.66 414.34,-147.19 407.5,-132 393.64,-101.2 389.56,-84.62 407.5,-56 419.87,-36.28 443.59,-24.99 463.98,-18.65"/>
<polygon fill="midnightblue" stroke="midnightblue" points="464.99,-22 473.66,-15.92 463.09,-15.27 464.99,-22"/>
</g>
<!-- Node11&#45;&gt;Node7 -->
<g id="edge18" class="edge">
<title>Node11&#45;&gt;Node7</title>
<path fill="none" stroke="midnightblue" d="M467.58,-168.4C469.33,-160.38 471.55,-150.23 473.44,-141.57"/>
<polygon fill="midnightblue" stroke="midnightblue" points="476.89,-142.17 475.61,-131.66 470.05,-140.68 476.89,-142.17"/>
</g>
<!-- Node11&#45;&gt;Node12 -->
<g id="edge19" class="edge">
<title>Node11&#45;&gt;Node12</title>
<path fill="none" stroke="midnightblue" d="M503.37,-168.4C531.25,-158.28 568.44,-144.79 595.01,-135.15"/>
<polygon fill="midnightblue" stroke="midnightblue" points="596.43,-138.36 604.64,-131.66 594.04,-131.78 596.43,-138.36"/>
</g>
<!-- Node12&#45;&gt;Node2 -->
<g id="edge20" class="edge">
<title>Node12&#45;&gt;Node2</title>
<path fill="none" stroke="midnightblue" d="M586.01,-112.48C563.72,-105.97 537.57,-94.8 520.5,-76 508.98,-63.31 504.09,-44.11 502.02,-29.86"/>
<polygon fill="midnightblue" stroke="midnightblue" points="505.48,-29.27 500.89,-19.72 498.52,-30.04 505.48,-29.27"/>
</g>
<!-- Node12&#45;&gt;Node9 -->
<g id="edge21" class="edge">
<title>Node12&#45;&gt;Node9</title>
<path fill="none" stroke="midnightblue" d="M599.34,-112.44C567.71,-103.16 517.09,-88.3 482.39,-78.12"/>
<polygon fill="midnightblue" stroke="midnightblue" points="483.19,-74.71 472.61,-75.25 481.22,-81.43 483.19,-74.71"/>
</g>
<!-- Node12&#45;&gt;Node13 -->
<g id="edge22" class="edge">
<title>Node12&#45;&gt;Node13</title>
<path fill="none" stroke="midnightblue" d="M644.57,-112.32C660.46,-103.74 685.01,-90.49 703.46,-80.52"/>
<polygon fill="midnightblue" stroke="midnightblue" points="705.34,-83.49 712.47,-75.65 702.01,-77.33 705.34,-83.49"/>
</g>
<!-- Node14 -->
<g id="node14" class="node">
<title>Node14</title>
<g id="a_node14"><a xlink:href="cmp__cal__up__model_8h.html" target="_top" xlink:title="functions to calculate the update (new) model">
<polygon fill="white" stroke="black" points="529,-56.5 529,-75.5 648,-75.5 648,-56.5 529,-56.5"/>
<text text-anchor="middle" x="588.5" y="-63.5" font-family="Helvetica,sans-Serif" font-size="10.00">cmp_cal_up_model.h</text>
</a>
</g>
</g>
<!-- Node12&#45;&gt;Node14 -->
<g id="edge24" class="edge">
<title>Node12&#45;&gt;Node14</title>
<path fill="none" stroke="midnightblue" d="M621.89,-112.08C616.24,-104.46 607.96,-93.26 601.05,-83.94"/>
<polygon fill="midnightblue" stroke="midnightblue" points="603.75,-81.7 594.98,-75.75 598.12,-85.87 603.75,-81.7"/>
</g>
<!-- Node13&#45;&gt;Node2 -->
<g id="edge23" class="edge">
<title>Node13&#45;&gt;Node2</title>
<path fill="none" stroke="midnightblue" d="M692.37,-56.44C649.92,-46.39 579.86,-29.79 537.17,-19.68"/>
<polygon fill="midnightblue" stroke="midnightblue" points="537.73,-16.22 527.2,-17.32 536.12,-23.03 537.73,-16.22"/>
</g>
<!-- Node14&#45;&gt;Node2 -->
<g id="edge25" class="edge">
<title>Node14&#45;&gt;Node2</title>
<path fill="none" stroke="midnightblue" d="M574.36,-56.32C560.63,-47.9 539.56,-34.97 523.44,-25.07"/>
<polygon fill="midnightblue" stroke="midnightblue" points="524.96,-21.9 514.6,-19.65 521.3,-27.87 524.96,-21.9"/>
</g>
<!-- Node16&#45;&gt;Node2 -->
<g id="edge29" class="edge">
<title>Node16&#45;&gt;Node2</title>
<path fill="none" stroke="midnightblue" d="M704.22,-173.9C745.87,-153.67 839.53,-101.32 800.5,-56 766.92,-17.01 609.84,-11.32 537.34,-10.82"/>
<polygon fill="midnightblue" stroke="midnightblue" points="537.3,-7.32 527.28,-10.78 537.27,-14.32 537.3,-7.32"/>
</g>
<!-- Node16&#45;&gt;Node7 -->
<g id="edge30" class="edge">
<title>Node16&#45;&gt;Node7</title>
<path fill="none" stroke="midnightblue" d="M655.7,-173.98C619.25,-163.55 557.42,-145.86 517.03,-134.31"/>
<polygon fill="midnightblue" stroke="midnightblue" points="517.82,-130.89 507.25,-131.51 515.9,-137.62 517.82,-130.89"/>
</g>
<!-- Node16&#45;&gt;Node12 -->
<g id="edge31" class="edge">
<title>Node16&#45;&gt;Node12</title>
<path fill="none" stroke="midnightblue" d="M677.33,-173.98C668.61,-164.87 654.6,-150.24 643.81,-138.98"/>
<polygon fill="midnightblue" stroke="midnightblue" points="646.1,-136.31 636.65,-131.51 641.04,-141.15 646.1,-136.31"/>
</g>
</g>
</svg>
