<?xml version="1.0" encoding="UTF-8" standalone="no"?>
<!DOCTYPE svg PUBLIC "-//W3C//DTD SVG 1.1//EN"
 "http://www.w3.org/Graphics/SVG/1.1/DTD/svg11.dtd">
<!-- Generated by graphviz version 2.43.0 (0)
 -->
<!-- Title: decompress_f_fx_ncob Pages: 1 -->
<svg width="1133pt" height="357pt"
 viewBox="0.00 0.00 1133.00 356.83" xmlns="http://www.w3.org/2000/svg" xmlns:xlink="http://www.w3.org/1999/xlink">
<g id="graph0" class="graph" transform="scale(1 1) rotate(0) translate(4 352.83)">
<title>decompress_f_fx_ncob</title>
<polygon fill="white" stroke="transparent" points="-4,4 -4,-352.83 1129,-352.83 1129,4 -4,4"/>
<!-- Node1 -->
<g id="node1" class="node">
<title>Node1</title>
<g id="a_node1"><a xlink:title="decompress short F_FX_NCOB data">
<polygon fill="#bfbfbf" stroke="black" points="0,-196.33 0,-215.33 128,-215.33 128,-196.33 0,-196.33"/>
<text text-anchor="middle" x="64" y="-203.33" font-family="Helvetica,sans-Serif" font-size="10.00">decompress_f_fx_ncob</text>
</a>
</g>
</g>
<!-- Node2 -->
<g id="node2" class="node">
<title>Node2</title>
<g id="a_node2"><a xlink:href="read__bitstream_8h_aa1739fc7209fe65165c7262036a1969d.html#aa1739fc7209fe65165c7262036a1969d" target="_top" xlink:title="initialize a bit_decoder">
<polygon fill="white" stroke="black" points="195.5,-329.33 195.5,-348.33 290.5,-348.33 290.5,-329.33 195.5,-329.33"/>
<text text-anchor="middle" x="243" y="-336.33" font-family="Helvetica,sans-Serif" font-size="10.00">bit_init_decoder</text>
</a>
</g>
</g>
<!-- Node1&#45;&gt;Node2 -->
<g id="edge1" class="edge">
<title>Node1&#45;&gt;Node2</title>
<path fill="none" stroke="midnightblue" d="M73.19,-215.48C89.17,-233.89 126.29,-274.53 164,-300.83 177.55,-310.28 193.81,-318.61 207.97,-325.04"/>
<polygon fill="midnightblue" stroke="midnightblue" points="206.81,-328.36 217.37,-329.18 209.63,-321.95 206.81,-328.36"/>
</g>
<!-- Node4 -->
<g id="node4" class="node">
<title>Node4</title>
<g id="a_node4"><a xlink:href="decmp_8c_ac9a6281c5fcfbf077cc63e0494274f20.html#ac9a6281c5fcfbf077cc63e0494274f20" target="_top" xlink:title="configure a decoder setup structure to have a setup to decode a vale">
<polygon fill="white" stroke="black" points="174,-196.33 174,-215.33 312,-215.33 312,-196.33 174,-196.33"/>
<text text-anchor="middle" x="243" y="-203.33" font-family="Helvetica,sans-Serif" font-size="10.00">configure_decoder_setup</text>
</a>
</g>
</g>
<!-- Node1&#45;&gt;Node4 -->
<g id="edge3" class="edge">
<title>Node1&#45;&gt;Node4</title>
<path fill="none" stroke="midnightblue" d="M128.4,-205.83C139.83,-205.83 151.87,-205.83 163.67,-205.83"/>
<polygon fill="midnightblue" stroke="midnightblue" points="163.95,-209.33 173.95,-205.83 163.95,-202.33 163.95,-209.33"/>
</g>
<!-- Node23 -->
<g id="node23" class="node">
<title>Node23</title>
<g id="a_node23"><a xlink:href="decmp_8c_a5e29a350ebed1be3d3240b4aed0c67bc.html#a5e29a350ebed1be3d3240b4aed0c67bc" target="_top" xlink:title="decompress the next code word in the bitstream and decorate it with the model">
<polygon fill="white" stroke="black" points="201,-272.33 201,-291.33 285,-291.33 285,-272.33 201,-272.33"/>
<text text-anchor="middle" x="243" y="-279.33" font-family="Helvetica,sans-Serif" font-size="10.00">decode_value</text>
</a>
</g>
</g>
<!-- Node1&#45;&gt;Node23 -->
<g id="edge34" class="edge">
<title>Node1&#45;&gt;Node23</title>
<path fill="none" stroke="midnightblue" d="M87.42,-215.45C118.54,-228.82 174.99,-253.05 210.38,-268.25"/>
<polygon fill="midnightblue" stroke="midnightblue" points="209.2,-271.55 219.76,-272.28 211.96,-265.12 209.2,-271.55"/>
</g>
<!-- Node25 -->
<g id="node25" class="node">
<title>Node25</title>
<g id="a_node25"><a xlink:href="decmp_8c_a94885dc7430737ba85a8d8720c839022.html#a94885dc7430737ba85a8d8720c839022" target="_top" xlink:title="decompress the multi&#45;entry packet header structure and sets the data, model and up_model pointers to ...">
<polygon fill="white" stroke="black" points="164,-158.33 164,-177.33 322,-177.33 322,-158.33 164,-158.33"/>
<text text-anchor="middle" x="243" y="-165.33" font-family="Helvetica,sans-Serif" font-size="10.00">decompress_multi_entry_hdr</text>
</a>
</g>
</g>
<!-- Node1&#45;&gt;Node25 -->
<g id="edge37" class="edge">
<title>Node1&#45;&gt;Node25</title>
<path fill="none" stroke="midnightblue" d="M109.66,-196.24C133.34,-191.16 162.61,-184.87 187.6,-179.51"/>
<polygon fill="midnightblue" stroke="midnightblue" points="188.61,-182.87 197.66,-177.35 187.14,-176.02 188.61,-182.87"/>
</g>
<!-- Node26 -->
<g id="node26" class="node">
<title>Node26</title>
<g id="a_node26"><a xlink:href="cmp__support_8c_afba7806c424cfb8c7678c1b4cebdfcbb.html#afba7806c424cfb8c7678c1b4cebdfcbb" target="_top" xlink:title="check if a model mode is selected">
<polygon fill="white" stroke="black" points="182,-120.33 182,-139.33 304,-139.33 304,-120.33 182,-120.33"/>
<text text-anchor="middle" x="243" y="-127.33" font-family="Helvetica,sans-Serif" font-size="10.00">model_mode_is_used</text>
</a>
</g>
</g>
<!-- Node1&#45;&gt;Node26 -->
<g id="edge38" class="edge">
<title>Node1&#45;&gt;Node26</title>
<path fill="none" stroke="midnightblue" d="M78.78,-196.19C97.35,-183.62 131.78,-161.72 164,-148.83 170.26,-146.32 176.94,-144.09 183.66,-142.11"/>
<polygon fill="midnightblue" stroke="midnightblue" points="184.77,-145.43 193.48,-139.39 182.91,-138.68 184.77,-145.43"/>
</g>
<!-- Node3 -->
<g id="node3" class="node">
<title>Node3</title>
<g id="a_node3"><a xlink:href="read__bitstream_8h_a4de9ebb7d031d3dcf638b7d0ae6f166d.html#a4de9ebb7d031d3dcf638b7d0ae6f166d" target="_top" xlink:title="read 8 bytes of big&#45;endian data from an unaligned address">
<polygon fill="white" stroke="black" points="684,-310.33 684,-329.33 823,-329.33 823,-310.33 684,-310.33"/>
<text text-anchor="middle" x="753.5" y="-317.33" font-family="Helvetica,sans-Serif" font-size="10.00">bit_read_unaligned_64be</text>
</a>
</g>
</g>
<!-- Node2&#45;&gt;Node3 -->
<g id="edge2" class="edge">
<title>Node2&#45;&gt;Node3</title>
<path fill="none" stroke="midnightblue" d="M290.85,-339.96C344.71,-340.99 435.78,-341.94 514,-338.83 567.46,-336.7 627.5,-331.91 673.96,-327.66"/>
<polygon fill="midnightblue" stroke="midnightblue" points="674.33,-331.15 683.96,-326.74 673.68,-324.17 674.33,-331.15"/>
</g>
<!-- Node5 -->
<g id="node5" class="node">
<title>Node5</title>
<g id="a_node5"><a xlink:href="decmp_8c_a0082c0ea9e4c9c5eaa41b804e94bdf1d.html#a0082c0ea9e4c9c5eaa41b804e94bdf1d" target="_top" xlink:title="decode the next code word with the multi escape mechanism from the bitstream">
<polygon fill="white" stroke="black" points="394.5,-158.33 394.5,-177.33 477.5,-177.33 477.5,-158.33 394.5,-158.33"/>
<text text-anchor="middle" x="436" y="-165.33" font-family="Helvetica,sans-Serif" font-size="10.00">decode_multi</text>
</a>
</g>
</g>
<!-- Node4&#45;&gt;Node5 -->
<g id="edge4" class="edge">
<title>Node4&#45;&gt;Node5</title>
<path fill="none" stroke="midnightblue" d="M292.2,-196.24C320.25,-190.66 355.58,-183.63 384.09,-177.96"/>
<polygon fill="midnightblue" stroke="midnightblue" points="385.13,-181.32 394.25,-175.93 383.76,-174.45 385.13,-181.32"/>
</g>
<!-- Node11 -->
<g id="node11" class="node">
<title>Node11</title>
<g id="a_node11"><a xlink:href="decmp_8c_a071c03ef3d6f70f5be1e9aeb41fc157a.html#a071c03ef3d6f70f5be1e9aeb41fc157a" target="_top" xlink:title="get the value unencoded with setup&#45;&gt;cmp_par_1 bits without any additional changes from the bitstream">
<polygon fill="white" stroke="black" points="395.5,-272.33 395.5,-291.33 476.5,-291.33 476.5,-272.33 395.5,-272.33"/>
<text text-anchor="middle" x="436" y="-279.33" font-family="Helvetica,sans-Serif" font-size="10.00">decode_none</text>
</a>
</g>
</g>
<!-- Node4&#45;&gt;Node11 -->
<g id="edge11" class="edge">
<title>Node4&#45;&gt;Node11</title>
<path fill="none" stroke="midnightblue" d="M260.48,-215.53C282.19,-227.97 321.87,-249.52 358,-262.83 366.73,-266.04 376.21,-268.88 385.45,-271.32"/>
<polygon fill="midnightblue" stroke="midnightblue" points="384.77,-274.76 395.32,-273.81 386.48,-267.97 384.77,-274.76"/>
</g>
<!-- Node12 -->
<g id="node12" class="node">
<title>Node12</title>
<g id="a_node12"><a xlink:href="decmp_8c_ad5f1a8490e42bf0710838367255d21dc.html#ad5f1a8490e42bf0710838367255d21dc" target="_top" xlink:title="decode the next code word with zero escape system mechanism from the bitstream">
<polygon fill="white" stroke="black" points="397,-234.33 397,-253.33 475,-253.33 475,-234.33 397,-234.33"/>
<text text-anchor="middle" x="436" y="-241.33" font-family="Helvetica,sans-Serif" font-size="10.00">decode_zero</text>
</a>
</g>
</g>
<!-- Node4&#45;&gt;Node12 -->
<g id="edge14" class="edge">
<title>Node4&#45;&gt;Node12</title>
<path fill="none" stroke="midnightblue" d="M292.2,-215.42C321.16,-221.18 357.89,-228.49 386.85,-234.25"/>
<polygon fill="midnightblue" stroke="midnightblue" points="386.25,-237.7 396.74,-236.22 387.62,-230.83 386.25,-237.7"/>
</g>
<!-- Node14 -->
<g id="node14" class="node">
<title>Node14</title>
<g id="a_node14"><a xlink:href="cmp__support_8c_a67b0e38ca0e68c282c89552daa61ffdf.html#a67b0e38ca0e68c282c89552daa61ffdf" target="_top" xlink:title="implementation of the logarithm base of floor(log2(x)) for integers">
<polygon fill="white" stroke="black" points="730.5,-6.33 730.5,-25.33 776.5,-25.33 776.5,-6.33 730.5,-6.33"/>
<text text-anchor="middle" x="753.5" y="-13.33" font-family="Helvetica,sans-Serif" font-size="10.00">ilog_2</text>
</a>
</g>
</g>
<!-- Node4&#45;&gt;Node14 -->
<g id="edge18" class="edge">
<title>Node4&#45;&gt;Node14</title>
<path fill="none" stroke="midnightblue" d="M308.19,-196.21C313.22,-193.72 317.93,-190.64 322,-186.83 360.81,-150.54 318.41,-108.27 358,-72.83 461.69,20 645.93,2.16 720.17,-9.76"/>
<polygon fill="midnightblue" stroke="midnightblue" points="719.86,-13.26 730.3,-11.46 721.02,-6.36 719.86,-13.26"/>
</g>
<!-- Node15 -->
<g id="node15" class="node">
<title>Node15</title>
<g id="a_node15"><a xlink:href="cmp__support_8c_a0d3630773f703ddc81ca12e1f04485d9.html#a0d3630773f703ddc81ca12e1f04485d9" target="_top" xlink:title="check if multi escape symbol mechanism mode is used">
<polygon fill="white" stroke="black" points="358,-82.33 358,-101.33 514,-101.33 514,-82.33 358,-82.33"/>
<text text-anchor="middle" x="436" y="-89.33" font-family="Helvetica,sans-Serif" font-size="10.00">multi_escape_mech_is_used</text>
</a>
</g>
</g>
<!-- Node4&#45;&gt;Node15 -->
<g id="edge19" class="edge">
<title>Node4&#45;&gt;Node15</title>
<path fill="none" stroke="midnightblue" d="M306.1,-196.29C311.82,-193.8 317.25,-190.7 322,-186.83 350.98,-163.22 329.06,-134.48 358,-110.83 360.05,-109.15 362.23,-107.62 364.51,-106.22"/>
<polygon fill="midnightblue" stroke="midnightblue" points="366.43,-109.16 373.69,-101.45 363.21,-102.95 366.43,-109.16"/>
</g>
<!-- Node16 -->
<g id="node16" class="node">
<title>Node16</title>
<g id="a_node16"><a xlink:href="decmp_8c_ac57439dd4b34cf8fb663756f2b7b2549.html#ac57439dd4b34cf8fb663756f2b7b2549" target="_top" xlink:title="select the decoder based on the used Golomb parameter">
<polygon fill="white" stroke="black" points="391,-120.33 391,-139.33 481,-139.33 481,-120.33 391,-120.33"/>
<text text-anchor="middle" x="436" y="-127.33" font-family="Helvetica,sans-Serif" font-size="10.00">select_decoder</text>
</a>
</g>
</g>
<!-- Node4&#45;&gt;Node16 -->
<g id="edge20" class="edge">
<title>Node4&#45;&gt;Node16</title>
<path fill="none" stroke="midnightblue" d="M300.48,-196.2C307.99,-193.74 315.37,-190.67 322,-186.83 342.12,-175.15 337.89,-160.53 358,-148.83 365.11,-144.69 373.09,-141.45 381.15,-138.91"/>
<polygon fill="midnightblue" stroke="midnightblue" points="382.29,-142.23 390.97,-136.15 380.39,-135.49 382.29,-142.23"/>
</g>
<!-- Node22 -->
<g id="node22" class="node">
<title>Node22</title>
<g id="a_node22"><a xlink:href="cmp__support_8c_a82a852e0723978f5d5f4f5dbb756fa8f.html#a82a852e0723978f5d5f4f5dbb756fa8f" target="_top" xlink:title="check if zero escape symbol mechanism mode is used">
<polygon fill="white" stroke="black" points="360,-196.33 360,-215.33 512,-215.33 512,-196.33 360,-196.33"/>
<text text-anchor="middle" x="436" y="-203.33" font-family="Helvetica,sans-Serif" font-size="10.00">zero_escape_mech_is_used</text>
</a>
</g>
</g>
<!-- Node4&#45;&gt;Node22 -->
<g id="edge33" class="edge">
<title>Node4&#45;&gt;Node22</title>
<path fill="none" stroke="midnightblue" d="M312.15,-205.83C324.32,-205.83 337.14,-205.83 349.72,-205.83"/>
<polygon fill="midnightblue" stroke="midnightblue" points="349.74,-209.33 359.74,-205.83 349.74,-202.33 349.74,-209.33"/>
</g>
<!-- Node6 -->
<g id="node6" class="node">
<title>Node6</title>
<g id="a_node6"><a xlink:href="read__bitstream_8h_ad3b2702183e32bb737d84c8accd73066.html#ad3b2702183e32bb737d84c8accd73066" target="_top" xlink:title="same as bit_read_bits32() but only returns 32 bit">
<polygon fill="white" stroke="black" points="707.5,-177.33 707.5,-196.33 799.5,-196.33 799.5,-177.33 707.5,-177.33"/>
<text text-anchor="middle" x="753.5" y="-184.33" font-family="Helvetica,sans-Serif" font-size="10.00">bit_read_bits32</text>
</a>
</g>
</g>
<!-- Node5&#45;&gt;Node6 -->
<g id="edge5" class="edge">
<title>Node5&#45;&gt;Node6</title>
<path fill="none" stroke="midnightblue" d="M477.59,-176.34C499.02,-180.4 525.81,-184.81 550,-186.83 599.74,-190.98 656.59,-190.53 697.36,-189.3"/>
<polygon fill="midnightblue" stroke="midnightblue" points="697.49,-192.8 707.37,-188.97 697.26,-185.8 697.49,-192.8"/>
</g>
<!-- Node10 -->
<g id="node10" class="node">
<title>Node10</title>
<g id="a_node10"><a xlink:href="read__bitstream_8h_a65b5e1cb1107340846d20cae42c8a00c.html#a65b5e1cb1107340846d20cae42c8a00c" target="_top" xlink:title="refill the local register from the buffer previously set in bit_init_decoder()">
<polygon fill="white" stroke="black" points="571,-272.33 571,-291.33 627,-291.33 627,-272.33 571,-272.33"/>
<text text-anchor="middle" x="599" y="-279.33" font-family="Helvetica,sans-Serif" font-size="10.00">bit_refill</text>
</a>
</g>
</g>
<!-- Node5&#45;&gt;Node10 -->
<g id="edge9" class="edge">
<title>Node5&#45;&gt;Node10</title>
<path fill="none" stroke="midnightblue" d="M477.57,-173.06C489.89,-175.88 503.05,-180.2 514,-186.83 530.86,-197.03 565.21,-239.42 584.35,-263.99"/>
<polygon fill="midnightblue" stroke="midnightblue" points="581.77,-266.37 590.66,-272.14 587.31,-262.09 581.77,-266.37"/>
</g>
<!-- Node7 -->
<g id="node7" class="node">
<title>Node7</title>
<g id="a_node7"><a xlink:href="read__bitstream_8h_acf4864b9e402d8b801c0d3a8cd5dac3d.html#acf4864b9e402d8b801c0d3a8cd5dac3d" target="_top" xlink:title="read and consume next n bits from the local register">
<polygon fill="white" stroke="black" points="883,-158.33 883,-177.33 963,-177.33 963,-158.33 883,-158.33"/>
<text text-anchor="middle" x="923" y="-165.33" font-family="Helvetica,sans-Serif" font-size="10.00">bit_read_bits</text>
</a>
</g>
</g>
<!-- Node6&#45;&gt;Node7 -->
<g id="edge6" class="edge">
<title>Node6&#45;&gt;Node7</title>
<path fill="none" stroke="midnightblue" d="M799.83,-181.69C822.45,-179.12 849.84,-176.01 872.95,-173.39"/>
<polygon fill="midnightblue" stroke="midnightblue" points="873.36,-176.87 882.9,-172.26 872.57,-169.91 873.36,-176.87"/>
</g>
<!-- Node8 -->
<g id="node8" class="node">
<title>Node8</title>
<g id="a_node8"><a xlink:href="read__bitstream_8h_ad1aa8029b694397da24a84fcdc75acab.html#ad1aa8029b694397da24a84fcdc75acab" target="_top" xlink:title="mark next n bits in the local register as consumed">
<polygon fill="white" stroke="black" points="1023,-177.33 1023,-196.33 1125,-196.33 1125,-177.33 1023,-177.33"/>
<text text-anchor="middle" x="1074" y="-184.33" font-family="Helvetica,sans-Serif" font-size="10.00">bit_consume_bits</text>
</a>
</g>
</g>
<!-- Node7&#45;&gt;Node8 -->
<g id="edge7" class="edge">
<title>Node7&#45;&gt;Node8</title>
<path fill="none" stroke="midnightblue" d="M963.15,-172.82C978.29,-174.75 995.96,-177 1012.65,-179.13"/>
<polygon fill="midnightblue" stroke="midnightblue" points="1012.52,-182.64 1022.88,-180.44 1013.4,-175.7 1012.52,-182.64"/>
</g>
<!-- Node9 -->
<g id="node9" class="node">
<title>Node9</title>
<g id="a_node9"><a xlink:href="read__bitstream_8h_a12cac6ee9f16079c39d9fc7b61639597.html#a12cac6ee9f16079c39d9fc7b61639597" target="_top" xlink:title="provides next n bits from local register; local register is not modified">
<polygon fill="white" stroke="black" points="1033,-101.33 1033,-120.33 1115,-120.33 1115,-101.33 1033,-101.33"/>
<text text-anchor="middle" x="1074" y="-108.33" font-family="Helvetica,sans-Serif" font-size="10.00">bit_peek_bits</text>
</a>
</g>
</g>
<!-- Node7&#45;&gt;Node9 -->
<g id="edge8" class="edge">
<title>Node7&#45;&gt;Node9</title>
<path fill="none" stroke="midnightblue" d="M958.59,-158.23C967.89,-155.43 977.89,-152.2 987,-148.83 1006.32,-141.68 1027.5,-132.34 1044,-124.71"/>
<polygon fill="midnightblue" stroke="midnightblue" points="1045.55,-127.85 1053.13,-120.44 1042.59,-121.51 1045.55,-127.85"/>
</g>
<!-- Node10&#45;&gt;Node3 -->
<g id="edge10" class="edge">
<title>Node10&#45;&gt;Node3</title>
<path fill="none" stroke="midnightblue" d="M627.26,-288.62C648.67,-293.95 679,-301.51 704.46,-307.86"/>
<polygon fill="midnightblue" stroke="midnightblue" points="703.75,-311.29 714.3,-310.31 705.45,-304.5 703.75,-311.29"/>
</g>
<!-- Node11&#45;&gt;Node6 -->
<g id="edge12" class="edge">
<title>Node11&#45;&gt;Node6</title>
<path fill="none" stroke="midnightblue" d="M476.81,-289.97C529.25,-299.91 618.29,-313.9 648,-300.83 692.43,-281.28 726.23,-232.48 742.25,-205.5"/>
<polygon fill="midnightblue" stroke="midnightblue" points="745.39,-207.06 747.33,-196.64 739.32,-203.57 745.39,-207.06"/>
</g>
<!-- Node11&#45;&gt;Node10 -->
<g id="edge13" class="edge">
<title>Node11&#45;&gt;Node10</title>
<path fill="none" stroke="midnightblue" d="M476.8,-281.83C502.38,-281.83 535.41,-281.83 560.53,-281.83"/>
<polygon fill="midnightblue" stroke="midnightblue" points="560.76,-285.33 570.76,-281.83 560.76,-278.33 560.76,-285.33"/>
</g>
<!-- Node12&#45;&gt;Node10 -->
<g id="edge17" class="edge">
<title>Node12&#45;&gt;Node10</title>
<path fill="none" stroke="midnightblue" d="M475.15,-252.83C501.1,-258.96 535.24,-267.01 560.94,-273.08"/>
<polygon fill="midnightblue" stroke="midnightblue" points="560.16,-276.49 570.69,-275.38 561.77,-269.68 560.16,-276.49"/>
</g>
<!-- Node13 -->
<g id="node13" class="node">
<title>Node13</title>
<g id="a_node13"><a xlink:href="read__bitstream_8h_ae9b99a3b550a98eba08bba186159ff7b.html#ae9b99a3b550a98eba08bba186159ff7b" target="_top" xlink:title="same as bit_read_bits32() but subtract 1 from the extracted value">
<polygon fill="white" stroke="black" points="860.5,-234.33 860.5,-253.33 985.5,-253.33 985.5,-234.33 860.5,-234.33"/>
<text text-anchor="middle" x="923" y="-241.33" font-family="Helvetica,sans-Serif" font-size="10.00">bit_read_bits32_sub_1</text>
</a>
</g>
</g>
<!-- Node12&#45;&gt;Node13 -->
<g id="edge15" class="edge">
<title>Node12&#45;&gt;Node13</title>
<path fill="none" stroke="midnightblue" d="M475.06,-243.83C555.88,-243.83 745.79,-243.83 850.16,-243.83"/>
<polygon fill="midnightblue" stroke="midnightblue" points="850.3,-247.33 860.3,-243.83 850.3,-240.33 850.3,-247.33"/>
</g>
<!-- Node13&#45;&gt;Node8 -->
<g id="edge16" class="edge">
<title>Node13&#45;&gt;Node8</title>
<path fill="none" stroke="midnightblue" d="M949.14,-234.26C960.68,-229.87 974.54,-224.59 987,-219.83 1004.07,-213.3 1023.04,-206.02 1038.81,-199.97"/>
<polygon fill="midnightblue" stroke="midnightblue" points="1040.09,-203.23 1048.17,-196.37 1037.58,-196.69 1040.09,-203.23"/>
</g>
<!-- Node17 -->
<g id="node17" class="node">
<title>Node17</title>
<g id="a_node17"><a xlink:href="decmp_8c_ab8ea64d46b8170dc65694e3d0dec64ff.html#ab8ea64d46b8170dc65694e3d0dec64ff" target="_top" xlink:title="decode the next Golomb code word in the bitstream">
<polygon fill="white" stroke="black" points="550,-82.33 550,-101.33 648,-101.33 648,-82.33 550,-82.33"/>
<text text-anchor="middle" x="599" y="-89.33" font-family="Helvetica,sans-Serif" font-size="10.00">golomb_decoder</text>
</a>
</g>
</g>
<!-- Node16&#45;&gt;Node17 -->
<g id="edge21" class="edge">
<title>Node16&#45;&gt;Node17</title>
<path fill="none" stroke="midnightblue" d="M477.63,-120.24C498.97,-115.2 525.31,-108.98 547.91,-103.65"/>
<polygon fill="midnightblue" stroke="midnightblue" points="548.74,-107.05 557.67,-101.35 547.13,-100.24 548.74,-107.05"/>
</g>
<!-- Node18 -->
<g id="node18" class="node">
<title>Node18</title>
<g id="a_node18"><a xlink:href="decmp_8c_ad77fca4bf62b97dc9fe6edabb0086709.html#ad77fca4bf62b97dc9fe6edabb0086709" target="_top" xlink:title="decode the next unary code word in the bitstream">
<polygon fill="white" stroke="black" points="709,-120.33 709,-139.33 798,-139.33 798,-120.33 709,-120.33"/>
<text text-anchor="middle" x="753.5" y="-127.33" font-family="Helvetica,sans-Serif" font-size="10.00">unary_decoder</text>
</a>
</g>
</g>
<!-- Node16&#45;&gt;Node18 -->
<g id="edge32" class="edge">
<title>Node16&#45;&gt;Node18</title>
<path fill="none" stroke="midnightblue" d="M481.2,-129.83C538.19,-129.83 637.25,-129.83 698.6,-129.83"/>
<polygon fill="midnightblue" stroke="midnightblue" points="698.85,-133.33 708.85,-129.83 698.85,-126.33 698.85,-133.33"/>
</g>
<!-- Node20 -->
<g id="node20" class="node">
<title>Node20</title>
<g id="a_node20"><a xlink:href="cmp__support_8c_a7831f21f8303058bcac76d42a4aa1c06.html#a7831f21f8303058bcac76d42a4aa1c06" target="_top" xlink:title="determining if an integer is a power of 2">
<polygon fill="white" stroke="black" points="555,-44.33 555,-63.33 643,-63.33 643,-44.33 555,-44.33"/>
<text text-anchor="middle" x="599" y="-51.33" font-family="Helvetica,sans-Serif" font-size="10.00">is_a_pow_of_2</text>
</a>
</g>
</g>
<!-- Node16&#45;&gt;Node20 -->
<g id="edge28" class="edge">
<title>Node16&#45;&gt;Node20</title>
<path fill="none" stroke="midnightblue" d="M481.03,-123.5C492.28,-120.69 504,-116.65 514,-110.83 534.11,-99.12 530.73,-85.86 550,-72.83 552.75,-70.97 555.7,-69.25 558.75,-67.67"/>
<polygon fill="midnightblue" stroke="midnightblue" points="560.45,-70.74 568.04,-63.35 557.5,-64.39 560.45,-70.74"/>
</g>
<!-- Node21 -->
<g id="node21" class="node">
<title>Node21</title>
<g id="a_node21"><a xlink:href="decmp_8c_a31e9c3bcbe70648b659fe3c8f4383045.html#a31e9c3bcbe70648b659fe3c8f4383045" target="_top" xlink:title="decode the next Rice code word in the bitstream">
<polygon fill="white" stroke="black" points="559.5,-158.33 559.5,-177.33 638.5,-177.33 638.5,-158.33 559.5,-158.33"/>
<text text-anchor="middle" x="599" y="-165.33" font-family="Helvetica,sans-Serif" font-size="10.00">rice_decoder</text>
</a>
</g>
</g>
<!-- Node16&#45;&gt;Node21 -->
<g id="edge29" class="edge">
<title>Node16&#45;&gt;Node21</title>
<path fill="none" stroke="midnightblue" d="M477.63,-139.42C499.46,-144.57 526.52,-150.96 549.45,-156.37"/>
<polygon fill="midnightblue" stroke="midnightblue" points="548.79,-159.81 559.33,-158.7 550.4,-153 548.79,-159.81"/>
</g>
<!-- Node17&#45;&gt;Node8 -->
<g id="edge22" class="edge">
<title>Node17&#45;&gt;Node8</title>
<path fill="none" stroke="midnightblue" d="M648.2,-90.26C737.94,-87.98 926.95,-86.4 987,-110.83 1017.14,-123.09 1043.81,-150.63 1059.19,-168.97"/>
<polygon fill="midnightblue" stroke="midnightblue" points="1056.78,-171.55 1065.79,-177.12 1062.22,-167.15 1056.78,-171.55"/>
</g>
<!-- Node17&#45;&gt;Node9 -->
<g id="edge23" class="edge">
<title>Node17&#45;&gt;Node9</title>
<path fill="none" stroke="midnightblue" d="M648.25,-82.39C659.9,-80.49 672.36,-78.79 684,-77.83 818.21,-66.72 854.59,-53.29 987,-77.83 1006.92,-81.52 1028.19,-89.64 1044.59,-96.9"/>
<polygon fill="midnightblue" stroke="midnightblue" points="1043.57,-100.28 1054.12,-101.26 1046.49,-93.92 1043.57,-100.28"/>
</g>
<!-- Node17&#45;&gt;Node14 -->
<g id="edge24" class="edge">
<title>Node17&#45;&gt;Node14</title>
<path fill="none" stroke="midnightblue" d="M629.01,-82.32C635.48,-79.67 642.15,-76.49 648,-72.83 666.4,-61.31 665.38,-50.98 684,-39.83 695.23,-33.1 708.63,-27.88 720.59,-24.05"/>
<polygon fill="midnightblue" stroke="midnightblue" points="721.64,-27.39 730.21,-21.16 719.63,-20.69 721.64,-27.39"/>
</g>
<!-- Node17&#45;&gt;Node18 -->
<g id="edge25" class="edge">
<title>Node17&#45;&gt;Node18</title>
<path fill="none" stroke="midnightblue" d="M638.48,-101.42C658.52,-106.41 683.2,-112.56 704.48,-117.86"/>
<polygon fill="midnightblue" stroke="midnightblue" points="703.74,-121.29 714.29,-120.31 705.44,-114.49 703.74,-121.29"/>
</g>
<!-- Node18&#45;&gt;Node8 -->
<g id="edge26" class="edge">
<title>Node18&#45;&gt;Node8</title>
<path fill="none" stroke="midnightblue" d="M771.74,-139.37C800.8,-155.44 856.63,-186.22 859,-186.83 909.66,-199.75 969.29,-198.46 1012.71,-194.69"/>
<polygon fill="midnightblue" stroke="midnightblue" points="1013.21,-198.16 1022.83,-193.74 1012.55,-191.19 1013.21,-198.16"/>
</g>
<!-- Node19 -->
<g id="node19" class="node">
<title>Node19</title>
<g id="a_node19"><a xlink:href="read__bitstream_8h_a08b1899a09b0b72856f441efae758d76.html#a08b1899a09b0b72856f441efae758d76" target="_top" xlink:title="count the leading ones in the local register; local register is not modified">
<polygon fill="white" stroke="black" points="859,-120.33 859,-139.33 987,-139.33 987,-120.33 859,-120.33"/>
<text text-anchor="middle" x="923" y="-127.33" font-family="Helvetica,sans-Serif" font-size="10.00">bit_peek_leading_ones</text>
</a>
</g>
</g>
<!-- Node18&#45;&gt;Node19 -->
<g id="edge27" class="edge">
<title>Node18&#45;&gt;Node19</title>
<path fill="none" stroke="midnightblue" d="M798.07,-129.83C813.55,-129.83 831.42,-129.83 848.7,-129.83"/>
<polygon fill="midnightblue" stroke="midnightblue" points="848.78,-133.33 858.78,-129.83 848.78,-126.33 848.78,-133.33"/>
</g>
<!-- Node21&#45;&gt;Node6 -->
<g id="edge30" class="edge">
<title>Node21&#45;&gt;Node6</title>
<path fill="none" stroke="midnightblue" d="M638.88,-172.67C656.69,-174.89 678.11,-177.56 697.53,-179.98"/>
<polygon fill="midnightblue" stroke="midnightblue" points="697.12,-183.45 707.48,-181.22 697.99,-176.51 697.12,-183.45"/>
</g>
<!-- Node21&#45;&gt;Node18 -->
<g id="edge31" class="edge">
<title>Node21&#45;&gt;Node18</title>
<path fill="none" stroke="midnightblue" d="M638.48,-158.24C658.52,-153.25 683.2,-147.1 704.48,-141.79"/>
<polygon fill="midnightblue" stroke="midnightblue" points="705.44,-145.16 714.29,-139.35 703.74,-138.37 705.44,-145.16"/>
</g>
<!-- Node23&#45;&gt;Node11 -->
<g id="edge35" class="edge">
<title>Node23&#45;&gt;Node11</title>
<path fill="none" stroke="midnightblue" d="M285.44,-281.83C314.72,-281.83 354.1,-281.83 385.1,-281.83"/>
<polygon fill="midnightblue" stroke="midnightblue" points="385.27,-285.33 395.27,-281.83 385.27,-278.33 385.27,-285.33"/>
</g>
<!-- Node24 -->
<g id="node24" class="node">
<title>Node24</title>
<g id="a_node24"><a xlink:href="decmp_8c_a931b1f11894a7118817a8b8bb08644f9.html#a931b1f11894a7118817a8b8bb08644f9" target="_top" xlink:title="remap an unsigned value back to a signed value">
<polygon fill="white" stroke="black" points="390.5,-310.33 390.5,-329.33 481.5,-329.33 481.5,-310.33 390.5,-310.33"/>
<text text-anchor="middle" x="436" y="-317.33" font-family="Helvetica,sans-Serif" font-size="10.00">re_map_to_pos</text>
</a>
</g>
</g>
<!-- Node23&#45;&gt;Node24 -->
<g id="edge36" class="edge">
<title>Node23&#45;&gt;Node24</title>
<path fill="none" stroke="midnightblue" d="M285.44,-290.07C313.24,-295.6 350.15,-302.95 380.35,-308.95"/>
<polygon fill="midnightblue" stroke="midnightblue" points="379.81,-312.42 390.31,-310.94 381.18,-305.55 379.81,-312.42"/>
</g>
</g>
</svg>
