<?xml version="1.0" encoding="UTF-8" standalone="no"?>
<!DOCTYPE svg PUBLIC "-//W3C//DTD SVG 1.1//EN"
 "http://www.w3.org/Graphics/SVG/1.1/DTD/svg11.dtd">
<!-- Generated by graphviz version 2.43.0 (0)
 -->
<!-- Title: decmp.h Pages: 1 -->
<svg width="394pt" height="252pt"
 viewBox="0.00 0.00 393.99 252.00" xmlns="http://www.w3.org/2000/svg" xmlns:xlink="http://www.w3.org/1999/xlink">
<g id="graph0" class="graph" transform="scale(1 1) rotate(0) translate(4 248)">
<title>decmp.h</title>
<polygon fill="white" stroke="transparent" points="-4,4 -4,-248 389.99,-248 389.99,4 -4,4"/>
<!-- Node1 -->
<g id="node1" class="node">
<title>Node1</title>
<g id="a_node1"><a xlink:title="software decompression library">
<polygon fill="#bfbfbf" stroke="black" points="63.99,-224.5 63.99,-243.5 122.99,-243.5 122.99,-224.5 63.99,-224.5"/>
<text text-anchor="middle" x="93.49" y="-231.5" font-family="Helvetica,sans-Serif" font-size="10.00">decmp.h</text>
</a>
</g>
</g>
<!-- Node2 -->
<g id="node2" class="node">
<title>Node2</title>
<g id="a_node2"><a xlink:href="cmp__entity_8h.html" target="_top" xlink:title="functions and definition to handle a compression entity">
<polygon fill="white" stroke="black" points="19.99,-168.5 19.99,-187.5 98.99,-187.5 98.99,-168.5 19.99,-168.5"/>
<text text-anchor="middle" x="59.49" y="-175.5" font-family="Helvetica,sans-Serif" font-size="10.00">cmp_entity.h</text>
</a>
</g>
</g>
<!-- Node1&#45;&gt;Node2 -->
<g id="edge1" class="edge">
<title>Node1&#45;&gt;Node2</title>
<path fill="none" stroke="midnightblue" d="M87.88,-224.08C83.13,-216.53 76.18,-205.49 70.34,-196.23"/>
<polygon fill="midnightblue" stroke="midnightblue" points="73.29,-194.35 65,-187.75 67.37,-198.08 73.29,-194.35"/>
</g>
<!-- Node5 -->
<g id="node5" class="node">
<title>Node5</title>
<g id="a_node5"><a xlink:href="cmp__support_8h.html" target="_top" xlink:title="compression/decompression helper functions">
<polygon fill="white" stroke="black" points="97.99,-112.5 97.99,-131.5 186.99,-131.5 186.99,-112.5 97.99,-112.5"/>
<text text-anchor="middle" x="142.49" y="-119.5" font-family="Helvetica,sans-Serif" font-size="10.00">cmp_support.h</text>
</a>
</g>
</g>
<!-- Node1&#45;&gt;Node5 -->
<g id="edge11" class="edge">
<title>Node1&#45;&gt;Node5</title>
<path fill="none" stroke="midnightblue" d="M97.34,-224.37C105.32,-206.46 123.82,-164.92 134.5,-140.95"/>
<polygon fill="midnightblue" stroke="midnightblue" points="137.79,-142.15 138.67,-131.59 131.4,-139.3 137.79,-142.15"/>
</g>
<!-- Node3 -->
<g id="node3" class="node">
<title>Node3</title>
<g id="a_node3"><a xlink:title=" ">
<polygon fill="white" stroke="#bfbfbf" points="76.99,-0.5 76.99,-19.5 129.99,-19.5 129.99,-0.5 76.99,-0.5"/>
<text text-anchor="middle" x="103.49" y="-7.5" font-family="Helvetica,sans-Serif" font-size="10.00">stdint.h</text>
</a>
</g>
</g>
<!-- Node2&#45;&gt;Node3 -->
<g id="edge2" class="edge">
<title>Node2&#45;&gt;Node3</title>
<path fill="none" stroke="midnightblue" d="M41.41,-168.39C27.93,-160.87 10.52,-148.57 2.49,-132 -1.38,-124 0.27,-120.61 2.49,-112 9.61,-84.46 14.05,-76.77 33.49,-56 45.53,-43.15 61.97,-32.33 75.89,-24.53"/>
<polygon fill="midnightblue" stroke="midnightblue" points="77.89,-27.43 85.05,-19.62 74.58,-21.26 77.89,-27.43"/>
</g>
<!-- Node4 -->
<g id="node4" class="node">
<title>Node4</title>
<g id="a_node4"><a xlink:href="compiler_8h.html" target="_top" xlink:title="a collection of preprocessor macros">
<polygon fill="white" stroke="black" points="11.49,-112.5 11.49,-131.5 79.49,-131.5 79.49,-112.5 11.49,-112.5"/>
<text text-anchor="middle" x="45.49" y="-119.5" font-family="Helvetica,sans-Serif" font-size="10.00">compiler.h</text>
</a>
</g>
</g>
<!-- Node2&#45;&gt;Node4 -->
<g id="edge3" class="edge">
<title>Node2&#45;&gt;Node4</title>
<path fill="none" stroke="midnightblue" d="M57.18,-168.08C55.33,-160.93 52.66,-150.64 50.34,-141.69"/>
<polygon fill="midnightblue" stroke="midnightblue" points="53.66,-140.55 47.76,-131.75 46.88,-142.31 53.66,-140.55"/>
</g>
<!-- Node2&#45;&gt;Node5 -->
<g id="edge4" class="edge">
<title>Node2&#45;&gt;Node5</title>
<path fill="none" stroke="midnightblue" d="M72.83,-168.32C85.66,-159.98 105.28,-147.21 120.43,-137.35"/>
<polygon fill="midnightblue" stroke="midnightblue" points="122.72,-140.04 129.19,-131.65 118.9,-134.17 122.72,-140.04"/>
</g>
<!-- Node5&#45;&gt;Node3 -->
<g id="edge5" class="edge">
<title>Node5&#45;&gt;Node3</title>
<path fill="none" stroke="midnightblue" d="M97.98,-113.02C76.77,-106.75 53.28,-95.62 40.49,-76 27.37,-55.87 52.41,-36.59 74.7,-24.33"/>
<polygon fill="midnightblue" stroke="midnightblue" points="76.39,-27.4 83.65,-19.68 73.16,-21.19 76.39,-27.4"/>
</g>
<!-- Node6 -->
<g id="node6" class="node">
<title>Node6</title>
<g id="a_node6"><a xlink:title=" ">
<polygon fill="white" stroke="#bfbfbf" points="49.49,-56.5 49.49,-75.5 105.49,-75.5 105.49,-56.5 49.49,-56.5"/>
<text text-anchor="middle" x="77.49" y="-63.5" font-family="Helvetica,sans-Serif" font-size="10.00">stddef.h</text>
</a>
</g>
</g>
<!-- Node5&#45;&gt;Node6 -->
<g id="edge6" class="edge">
<title>Node5&#45;&gt;Node6</title>
<path fill="none" stroke="midnightblue" d="M132.05,-112.32C122.35,-104.26 107.68,-92.08 95.99,-82.37"/>
<polygon fill="midnightblue" stroke="midnightblue" points="98.06,-79.53 88.13,-75.83 93.58,-84.92 98.06,-79.53"/>
</g>
<!-- Node7 -->
<g id="node7" class="node">
<title>Node7</title>
<g id="a_node7"><a xlink:href="cmp__max__used__bits_8h.html" target="_top" xlink:title="definition and consents of the cmp_max_used_bits structure">
<polygon fill="white" stroke="black" points="123.99,-56.5 123.99,-75.5 248.99,-75.5 248.99,-56.5 123.99,-56.5"/>
<text text-anchor="middle" x="186.49" y="-63.5" font-family="Helvetica,sans-Serif" font-size="10.00">cmp_max_used_bits.h</text>
</a>
</g>
</g>
<!-- Node5&#45;&gt;Node7 -->
<g id="edge7" class="edge">
<title>Node5&#45;&gt;Node7</title>
<path fill="none" stroke="midnightblue" d="M149.76,-112.08C156.04,-104.38 165.28,-93.03 172.92,-83.65"/>
<polygon fill="midnightblue" stroke="midnightblue" points="175.76,-85.71 179.36,-75.75 170.33,-81.29 175.76,-85.71"/>
</g>
<!-- Node8 -->
<g id="node8" class="node">
<title>Node8</title>
<g id="a_node8"><a xlink:href="cmp__cal__up__model_8h.html" target="_top" xlink:title="functions to calculate the update (new) model">
<polygon fill="white" stroke="black" points="266.99,-56.5 266.99,-75.5 385.99,-75.5 385.99,-56.5 266.99,-56.5"/>
<text text-anchor="middle" x="326.49" y="-63.5" font-family="Helvetica,sans-Serif" font-size="10.00">cmp_cal_up_model.h</text>
</a>
</g>
</g>
<!-- Node5&#45;&gt;Node8 -->
<g id="edge9" class="edge">
<title>Node5&#45;&gt;Node8</title>
<path fill="none" stroke="midnightblue" d="M171.65,-112.44C203.01,-103.24 253.02,-88.56 287.69,-78.39"/>
<polygon fill="midnightblue" stroke="midnightblue" points="288.87,-81.69 297.48,-75.52 286.89,-74.97 288.87,-81.69"/>
</g>
<!-- Node7&#45;&gt;Node3 -->
<g id="edge8" class="edge">
<title>Node7&#45;&gt;Node3</title>
<path fill="none" stroke="midnightblue" d="M173.16,-56.32C160.33,-47.98 140.71,-35.21 125.55,-25.35"/>
<polygon fill="midnightblue" stroke="midnightblue" points="127.09,-22.17 116.8,-19.65 123.27,-28.04 127.09,-22.17"/>
</g>
<!-- Node8&#45;&gt;Node3 -->
<g id="edge10" class="edge">
<title>Node8&#45;&gt;Node3</title>
<path fill="none" stroke="midnightblue" d="M291.16,-56.44C249.86,-46.44 181.86,-29.98 140.04,-19.85"/>
<polygon fill="midnightblue" stroke="midnightblue" points="140.81,-16.43 130.26,-17.48 139.16,-23.24 140.81,-16.43"/>
</g>
</g>
</svg>
