<?xml version="1.0" encoding="UTF-8" standalone="no"?>
<!DOCTYPE svg PUBLIC "-//W3C//DTD SVG 1.1//EN"
 "http://www.w3.org/Graphics/SVG/1.1/DTD/svg11.dtd">
<!-- Generated by graphviz version 2.43.0 (0)
 -->
<!-- Title: decompress_f_fx_efx Pages: 1 -->
<svg width="1126pt" height="357pt"
 viewBox="0.00 0.00 1126.00 356.83" xmlns="http://www.w3.org/2000/svg" xmlns:xlink="http://www.w3.org/1999/xlink">
<g id="graph0" class="graph" transform="scale(1 1) rotate(0) translate(4 352.83)">
<title>decompress_f_fx_efx</title>
<polygon fill="white" stroke="transparent" points="-4,4 -4,-352.83 1122,-352.83 1122,4 -4,4"/>
<!-- Node1 -->
<g id="node1" class="node">
<title>Node1</title>
<g id="a_node1"><a xlink:title="decompress F_FX_EFX data">
<polygon fill="#bfbfbf" stroke="black" points="0,-196.33 0,-215.33 121,-215.33 121,-196.33 0,-196.33"/>
<text text-anchor="middle" x="60.5" y="-203.33" font-family="Helvetica,sans-Serif" font-size="10.00">decompress_f_fx_efx</text>
</a>
</g>
</g>
<!-- Node2 -->
<g id="node2" class="node">
<title>Node2</title>
<g id="a_node2"><a xlink:href="read__bitstream_8h_aa1739fc7209fe65165c7262036a1969d.html#aa1739fc7209fe65165c7262036a1969d" target="_top" xlink:title="initialize a bit_decoder">
<polygon fill="white" stroke="black" points="188.5,-329.33 188.5,-348.33 283.5,-348.33 283.5,-329.33 188.5,-329.33"/>
<text text-anchor="middle" x="236" y="-336.33" font-family="Helvetica,sans-Serif" font-size="10.00">bit_init_decoder</text>
</a>
</g>
</g>
<!-- Node1&#45;&gt;Node2 -->
<g id="edge1" class="edge">
<title>Node1&#45;&gt;Node2</title>
<path fill="none" stroke="midnightblue" d="M69.32,-215.5C84.61,-233.96 120.21,-274.67 157,-300.83 170.47,-310.4 186.71,-318.75 200.88,-325.16"/>
<polygon fill="midnightblue" stroke="midnightblue" points="199.74,-328.48 210.3,-329.28 202.55,-322.07 199.74,-328.48"/>
</g>
<!-- Node4 -->
<g id="node4" class="node">
<title>Node4</title>
<g id="a_node4"><a xlink:href="decmp_8c_ac9a6281c5fcfbf077cc63e0494274f20.html#ac9a6281c5fcfbf077cc63e0494274f20" target="_top" xlink:title="configure a decoder setup structure to have a setup to decode a vale">
<polygon fill="white" stroke="black" points="167,-196.33 167,-215.33 305,-215.33 305,-196.33 167,-196.33"/>
<text text-anchor="middle" x="236" y="-203.33" font-family="Helvetica,sans-Serif" font-size="10.00">configure_decoder_setup</text>
</a>
</g>
</g>
<!-- Node1&#45;&gt;Node4 -->
<g id="edge3" class="edge">
<title>Node1&#45;&gt;Node4</title>
<path fill="none" stroke="midnightblue" d="M121.21,-205.83C132.58,-205.83 144.64,-205.83 156.5,-205.83"/>
<polygon fill="midnightblue" stroke="midnightblue" points="156.84,-209.33 166.84,-205.83 156.84,-202.33 156.84,-209.33"/>
</g>
<!-- Node23 -->
<g id="node23" class="node">
<title>Node23</title>
<g id="a_node23"><a xlink:href="decmp_8c_a5e29a350ebed1be3d3240b4aed0c67bc.html#a5e29a350ebed1be3d3240b4aed0c67bc" target="_top" xlink:title="decompress the next code word in the bitstream and decorate it with the model">
<polygon fill="white" stroke="black" points="194,-272.33 194,-291.33 278,-291.33 278,-272.33 194,-272.33"/>
<text text-anchor="middle" x="236" y="-279.33" font-family="Helvetica,sans-Serif" font-size="10.00">decode_value</text>
</a>
</g>
</g>
<!-- Node1&#45;&gt;Node23 -->
<g id="edge34" class="edge">
<title>Node1&#45;&gt;Node23</title>
<path fill="none" stroke="midnightblue" d="M83.47,-215.45C113.98,-228.82 169.31,-253.05 204,-268.25"/>
<polygon fill="midnightblue" stroke="midnightblue" points="202.64,-271.47 213.2,-272.28 205.45,-265.06 202.64,-271.47"/>
</g>
<!-- Node25 -->
<g id="node25" class="node">
<title>Node25</title>
<g id="a_node25"><a xlink:href="decmp_8c_a94885dc7430737ba85a8d8720c839022.html#a94885dc7430737ba85a8d8720c839022" target="_top" xlink:title="decompress the multi&#45;entry packet header structure and sets the data, model and up_model pointers to ...">
<polygon fill="white" stroke="black" points="157,-158.33 157,-177.33 315,-177.33 315,-158.33 157,-158.33"/>
<text text-anchor="middle" x="236" y="-165.33" font-family="Helvetica,sans-Serif" font-size="10.00">decompress_multi_entry_hdr</text>
</a>
</g>
</g>
<!-- Node1&#45;&gt;Node25 -->
<g id="edge37" class="edge">
<title>Node1&#45;&gt;Node25</title>
<path fill="none" stroke="midnightblue" d="M105.28,-196.24C128.49,-191.16 157.18,-184.87 181.67,-179.51"/>
<polygon fill="midnightblue" stroke="midnightblue" points="182.51,-182.91 191.53,-177.35 181.02,-176.07 182.51,-182.91"/>
</g>
<!-- Node26 -->
<g id="node26" class="node">
<title>Node26</title>
<g id="a_node26"><a xlink:href="cmp__support_8c_afba7806c424cfb8c7678c1b4cebdfcbb.html#afba7806c424cfb8c7678c1b4cebdfcbb" target="_top" xlink:title="check if a model mode is selected">
<polygon fill="white" stroke="black" points="175,-120.33 175,-139.33 297,-139.33 297,-120.33 175,-120.33"/>
<text text-anchor="middle" x="236" y="-127.33" font-family="Helvetica,sans-Serif" font-size="10.00">model_mode_is_used</text>
</a>
</g>
</g>
<!-- Node1&#45;&gt;Node26 -->
<g id="edge38" class="edge">
<title>Node1&#45;&gt;Node26</title>
<path fill="none" stroke="midnightblue" d="M74.74,-196.16C92.58,-183.56 125.73,-161.63 157,-148.83 163.15,-146.31 169.72,-144.07 176.34,-142.09"/>
<polygon fill="midnightblue" stroke="midnightblue" points="177.33,-145.45 186.02,-139.38 175.45,-138.71 177.33,-145.45"/>
</g>
<!-- Node3 -->
<g id="node3" class="node">
<title>Node3</title>
<g id="a_node3"><a xlink:href="read__bitstream_8h_a4de9ebb7d031d3dcf638b7d0ae6f166d.html#a4de9ebb7d031d3dcf638b7d0ae6f166d" target="_top" xlink:title="read 8 bytes of big&#45;endian data from an unaligned address">
<polygon fill="white" stroke="black" points="677,-310.33 677,-329.33 816,-329.33 816,-310.33 677,-310.33"/>
<text text-anchor="middle" x="746.5" y="-317.33" font-family="Helvetica,sans-Serif" font-size="10.00">bit_read_unaligned_64be</text>
</a>
</g>
</g>
<!-- Node2&#45;&gt;Node3 -->
<g id="edge2" class="edge">
<title>Node2&#45;&gt;Node3</title>
<path fill="none" stroke="midnightblue" d="M283.85,-339.96C337.71,-340.99 428.78,-341.94 507,-338.83 560.46,-336.7 620.5,-331.91 666.96,-327.66"/>
<polygon fill="midnightblue" stroke="midnightblue" points="667.33,-331.15 676.96,-326.74 666.68,-324.17 667.33,-331.15"/>
</g>
<!-- Node5 -->
<g id="node5" class="node">
<title>Node5</title>
<g id="a_node5"><a xlink:href="decmp_8c_a0082c0ea9e4c9c5eaa41b804e94bdf1d.html#a0082c0ea9e4c9c5eaa41b804e94bdf1d" target="_top" xlink:title="decode the next code word with the multi escape mechanism from the bitstream">
<polygon fill="white" stroke="black" points="387.5,-158.33 387.5,-177.33 470.5,-177.33 470.5,-158.33 387.5,-158.33"/>
<text text-anchor="middle" x="429" y="-165.33" font-family="Helvetica,sans-Serif" font-size="10.00">decode_multi</text>
</a>
</g>
</g>
<!-- Node4&#45;&gt;Node5 -->
<g id="edge4" class="edge">
<title>Node4&#45;&gt;Node5</title>
<path fill="none" stroke="midnightblue" d="M285.2,-196.24C313.25,-190.66 348.58,-183.63 377.09,-177.96"/>
<polygon fill="midnightblue" stroke="midnightblue" points="378.13,-181.32 387.25,-175.93 376.76,-174.45 378.13,-181.32"/>
</g>
<!-- Node11 -->
<g id="node11" class="node">
<title>Node11</title>
<g id="a_node11"><a xlink:href="decmp_8c_a071c03ef3d6f70f5be1e9aeb41fc157a.html#a071c03ef3d6f70f5be1e9aeb41fc157a" target="_top" xlink:title="get the value unencoded with setup&#45;&gt;cmp_par_1 bits without any additional changes from the bitstream">
<polygon fill="white" stroke="black" points="388.5,-272.33 388.5,-291.33 469.5,-291.33 469.5,-272.33 388.5,-272.33"/>
<text text-anchor="middle" x="429" y="-279.33" font-family="Helvetica,sans-Serif" font-size="10.00">decode_none</text>
</a>
</g>
</g>
<!-- Node4&#45;&gt;Node11 -->
<g id="edge11" class="edge">
<title>Node4&#45;&gt;Node11</title>
<path fill="none" stroke="midnightblue" d="M253.48,-215.53C275.19,-227.97 314.87,-249.52 351,-262.83 359.73,-266.04 369.21,-268.88 378.45,-271.32"/>
<polygon fill="midnightblue" stroke="midnightblue" points="377.77,-274.76 388.32,-273.81 379.48,-267.97 377.77,-274.76"/>
</g>
<!-- Node12 -->
<g id="node12" class="node">
<title>Node12</title>
<g id="a_node12"><a xlink:href="decmp_8c_ad5f1a8490e42bf0710838367255d21dc.html#ad5f1a8490e42bf0710838367255d21dc" target="_top" xlink:title="decode the next code word with zero escape system mechanism from the bitstream">
<polygon fill="white" stroke="black" points="390,-234.33 390,-253.33 468,-253.33 468,-234.33 390,-234.33"/>
<text text-anchor="middle" x="429" y="-241.33" font-family="Helvetica,sans-Serif" font-size="10.00">decode_zero</text>
</a>
</g>
</g>
<!-- Node4&#45;&gt;Node12 -->
<g id="edge14" class="edge">
<title>Node4&#45;&gt;Node12</title>
<path fill="none" stroke="midnightblue" d="M285.2,-215.42C314.16,-221.18 350.89,-228.49 379.85,-234.25"/>
<polygon fill="midnightblue" stroke="midnightblue" points="379.25,-237.7 389.74,-236.22 380.62,-230.83 379.25,-237.7"/>
</g>
<!-- Node14 -->
<g id="node14" class="node">
<title>Node14</title>
<g id="a_node14"><a xlink:href="cmp__support_8c_a67b0e38ca0e68c282c89552daa61ffdf.html#a67b0e38ca0e68c282c89552daa61ffdf" target="_top" xlink:title="implementation of the logarithm base of floor(log2(x)) for integers">
<polygon fill="white" stroke="black" points="723.5,-6.33 723.5,-25.33 769.5,-25.33 769.5,-6.33 723.5,-6.33"/>
<text text-anchor="middle" x="746.5" y="-13.33" font-family="Helvetica,sans-Serif" font-size="10.00">ilog_2</text>
</a>
</g>
</g>
<!-- Node4&#45;&gt;Node14 -->
<g id="edge18" class="edge">
<title>Node4&#45;&gt;Node14</title>
<path fill="none" stroke="midnightblue" d="M301.19,-196.21C306.22,-193.72 310.93,-190.64 315,-186.83 353.81,-150.54 311.41,-108.27 351,-72.83 454.69,20 638.93,2.16 713.17,-9.76"/>
<polygon fill="midnightblue" stroke="midnightblue" points="712.86,-13.26 723.3,-11.46 714.02,-6.36 712.86,-13.26"/>
</g>
<!-- Node15 -->
<g id="node15" class="node">
<title>Node15</title>
<g id="a_node15"><a xlink:href="cmp__support_8c_a0d3630773f703ddc81ca12e1f04485d9.html#a0d3630773f703ddc81ca12e1f04485d9" target="_top" xlink:title="check if multi escape symbol mechanism mode is used">
<polygon fill="white" stroke="black" points="351,-82.33 351,-101.33 507,-101.33 507,-82.33 351,-82.33"/>
<text text-anchor="middle" x="429" y="-89.33" font-family="Helvetica,sans-Serif" font-size="10.00">multi_escape_mech_is_used</text>
</a>
</g>
</g>
<!-- Node4&#45;&gt;Node15 -->
<g id="edge19" class="edge">
<title>Node4&#45;&gt;Node15</title>
<path fill="none" stroke="midnightblue" d="M299.1,-196.29C304.82,-193.8 310.25,-190.7 315,-186.83 343.98,-163.22 322.06,-134.48 351,-110.83 353.05,-109.15 355.23,-107.62 357.51,-106.22"/>
<polygon fill="midnightblue" stroke="midnightblue" points="359.43,-109.16 366.69,-101.45 356.21,-102.95 359.43,-109.16"/>
</g>
<!-- Node16 -->
<g id="node16" class="node">
<title>Node16</title>
<g id="a_node16"><a xlink:href="decmp_8c_ac57439dd4b34cf8fb663756f2b7b2549.html#ac57439dd4b34cf8fb663756f2b7b2549" target="_top" xlink:title="select the decoder based on the used Golomb parameter">
<polygon fill="white" stroke="black" points="384,-120.33 384,-139.33 474,-139.33 474,-120.33 384,-120.33"/>
<text text-anchor="middle" x="429" y="-127.33" font-family="Helvetica,sans-Serif" font-size="10.00">select_decoder</text>
</a>
</g>
</g>
<!-- Node4&#45;&gt;Node16 -->
<g id="edge20" class="edge">
<title>Node4&#45;&gt;Node16</title>
<path fill="none" stroke="midnightblue" d="M293.48,-196.2C300.99,-193.74 308.37,-190.67 315,-186.83 335.12,-175.15 330.89,-160.53 351,-148.83 358.11,-144.69 366.09,-141.45 374.15,-138.91"/>
<polygon fill="midnightblue" stroke="midnightblue" points="375.29,-142.23 383.97,-136.15 373.39,-135.49 375.29,-142.23"/>
</g>
<!-- Node22 -->
<g id="node22" class="node">
<title>Node22</title>
<g id="a_node22"><a xlink:href="cmp__support_8c_a82a852e0723978f5d5f4f5dbb756fa8f.html#a82a852e0723978f5d5f4f5dbb756fa8f" target="_top" xlink:title="check if zero escape symbol mechanism mode is used">
<polygon fill="white" stroke="black" points="353,-196.33 353,-215.33 505,-215.33 505,-196.33 353,-196.33"/>
<text text-anchor="middle" x="429" y="-203.33" font-family="Helvetica,sans-Serif" font-size="10.00">zero_escape_mech_is_used</text>
</a>
</g>
</g>
<!-- Node4&#45;&gt;Node22 -->
<g id="edge33" class="edge">
<title>Node4&#45;&gt;Node22</title>
<path fill="none" stroke="midnightblue" d="M305.15,-205.83C317.32,-205.83 330.14,-205.83 342.72,-205.83"/>
<polygon fill="midnightblue" stroke="midnightblue" points="342.74,-209.33 352.74,-205.83 342.74,-202.33 342.74,-209.33"/>
</g>
<!-- Node6 -->
<g id="node6" class="node">
<title>Node6</title>
<g id="a_node6"><a xlink:href="read__bitstream_8h_ad3b2702183e32bb737d84c8accd73066.html#ad3b2702183e32bb737d84c8accd73066" target="_top" xlink:title="same as bit_read_bits32() but only returns 32 bit">
<polygon fill="white" stroke="black" points="700.5,-177.33 700.5,-196.33 792.5,-196.33 792.5,-177.33 700.5,-177.33"/>
<text text-anchor="middle" x="746.5" y="-184.33" font-family="Helvetica,sans-Serif" font-size="10.00">bit_read_bits32</text>
</a>
</g>
</g>
<!-- Node5&#45;&gt;Node6 -->
<g id="edge5" class="edge">
<title>Node5&#45;&gt;Node6</title>
<path fill="none" stroke="midnightblue" d="M470.59,-176.34C492.02,-180.4 518.81,-184.81 543,-186.83 592.74,-190.98 649.59,-190.53 690.36,-189.3"/>
<polygon fill="midnightblue" stroke="midnightblue" points="690.49,-192.8 700.37,-188.97 690.26,-185.8 690.49,-192.8"/>
</g>
<!-- Node10 -->
<g id="node10" class="node">
<title>Node10</title>
<g id="a_node10"><a xlink:href="read__bitstream_8h_a65b5e1cb1107340846d20cae42c8a00c.html#a65b5e1cb1107340846d20cae42c8a00c" target="_top" xlink:title="refill the local register from the buffer previously set in bit_init_decoder()">
<polygon fill="white" stroke="black" points="564,-272.33 564,-291.33 620,-291.33 620,-272.33 564,-272.33"/>
<text text-anchor="middle" x="592" y="-279.33" font-family="Helvetica,sans-Serif" font-size="10.00">bit_refill</text>
</a>
</g>
</g>
<!-- Node5&#45;&gt;Node10 -->
<g id="edge9" class="edge">
<title>Node5&#45;&gt;Node10</title>
<path fill="none" stroke="midnightblue" d="M470.57,-173.06C482.89,-175.88 496.05,-180.2 507,-186.83 523.86,-197.03 558.21,-239.42 577.35,-263.99"/>
<polygon fill="midnightblue" stroke="midnightblue" points="574.77,-266.37 583.66,-272.14 580.31,-262.09 574.77,-266.37"/>
</g>
<!-- Node7 -->
<g id="node7" class="node">
<title>Node7</title>
<g id="a_node7"><a xlink:href="read__bitstream_8h_acf4864b9e402d8b801c0d3a8cd5dac3d.html#acf4864b9e402d8b801c0d3a8cd5dac3d" target="_top" xlink:title="read and consume next n bits from the local register">
<polygon fill="white" stroke="black" points="876,-158.33 876,-177.33 956,-177.33 956,-158.33 876,-158.33"/>
<text text-anchor="middle" x="916" y="-165.33" font-family="Helvetica,sans-Serif" font-size="10.00">bit_read_bits</text>
</a>
</g>
</g>
<!-- Node6&#45;&gt;Node7 -->
<g id="edge6" class="edge">
<title>Node6&#45;&gt;Node7</title>
<path fill="none" stroke="midnightblue" d="M792.83,-181.69C815.45,-179.12 842.84,-176.01 865.95,-173.39"/>
<polygon fill="midnightblue" stroke="midnightblue" points="866.36,-176.87 875.9,-172.26 865.57,-169.91 866.36,-176.87"/>
</g>
<!-- Node8 -->
<g id="node8" class="node">
<title>Node8</title>
<g id="a_node8"><a xlink:href="read__bitstream_8h_ad1aa8029b694397da24a84fcdc75acab.html#ad1aa8029b694397da24a84fcdc75acab" target="_top" xlink:title="mark next n bits in the local register as consumed">
<polygon fill="white" stroke="black" points="1016,-177.33 1016,-196.33 1118,-196.33 1118,-177.33 1016,-177.33"/>
<text text-anchor="middle" x="1067" y="-184.33" font-family="Helvetica,sans-Serif" font-size="10.00">bit_consume_bits</text>
</a>
</g>
</g>
<!-- Node7&#45;&gt;Node8 -->
<g id="edge7" class="edge">
<title>Node7&#45;&gt;Node8</title>
<path fill="none" stroke="midnightblue" d="M956.15,-172.82C971.29,-174.75 988.96,-177 1005.65,-179.13"/>
<polygon fill="midnightblue" stroke="midnightblue" points="1005.52,-182.64 1015.88,-180.44 1006.4,-175.7 1005.52,-182.64"/>
</g>
<!-- Node9 -->
<g id="node9" class="node">
<title>Node9</title>
<g id="a_node9"><a xlink:href="read__bitstream_8h_a12cac6ee9f16079c39d9fc7b61639597.html#a12cac6ee9f16079c39d9fc7b61639597" target="_top" xlink:title="provides next n bits from local register; local register is not modified">
<polygon fill="white" stroke="black" points="1026,-101.33 1026,-120.33 1108,-120.33 1108,-101.33 1026,-101.33"/>
<text text-anchor="middle" x="1067" y="-108.33" font-family="Helvetica,sans-Serif" font-size="10.00">bit_peek_bits</text>
</a>
</g>
</g>
<!-- Node7&#45;&gt;Node9 -->
<g id="edge8" class="edge">
<title>Node7&#45;&gt;Node9</title>
<path fill="none" stroke="midnightblue" d="M951.59,-158.23C960.89,-155.43 970.89,-152.2 980,-148.83 999.32,-141.68 1020.5,-132.34 1037,-124.71"/>
<polygon fill="midnightblue" stroke="midnightblue" points="1038.55,-127.85 1046.13,-120.44 1035.59,-121.51 1038.55,-127.85"/>
</g>
<!-- Node10&#45;&gt;Node3 -->
<g id="edge10" class="edge">
<title>Node10&#45;&gt;Node3</title>
<path fill="none" stroke="midnightblue" d="M620.26,-288.62C641.67,-293.95 672,-301.51 697.46,-307.86"/>
<polygon fill="midnightblue" stroke="midnightblue" points="696.75,-311.29 707.3,-310.31 698.45,-304.5 696.75,-311.29"/>
</g>
<!-- Node11&#45;&gt;Node6 -->
<g id="edge12" class="edge">
<title>Node11&#45;&gt;Node6</title>
<path fill="none" stroke="midnightblue" d="M469.81,-289.97C522.25,-299.91 611.29,-313.9 641,-300.83 685.43,-281.28 719.23,-232.48 735.25,-205.5"/>
<polygon fill="midnightblue" stroke="midnightblue" points="738.39,-207.06 740.33,-196.64 732.32,-203.57 738.39,-207.06"/>
</g>
<!-- Node11&#45;&gt;Node10 -->
<g id="edge13" class="edge">
<title>Node11&#45;&gt;Node10</title>
<path fill="none" stroke="midnightblue" d="M469.8,-281.83C495.38,-281.83 528.41,-281.83 553.53,-281.83"/>
<polygon fill="midnightblue" stroke="midnightblue" points="553.76,-285.33 563.76,-281.83 553.76,-278.33 553.76,-285.33"/>
</g>
<!-- Node12&#45;&gt;Node10 -->
<g id="edge17" class="edge">
<title>Node12&#45;&gt;Node10</title>
<path fill="none" stroke="midnightblue" d="M468.15,-252.83C494.1,-258.96 528.24,-267.01 553.94,-273.08"/>
<polygon fill="midnightblue" stroke="midnightblue" points="553.16,-276.49 563.69,-275.38 554.77,-269.68 553.16,-276.49"/>
</g>
<!-- Node13 -->
<g id="node13" class="node">
<title>Node13</title>
<g id="a_node13"><a xlink:href="read__bitstream_8h_ae9b99a3b550a98eba08bba186159ff7b.html#ae9b99a3b550a98eba08bba186159ff7b" target="_top" xlink:title="same as bit_read_bits32() but subtract 1 from the extracted value">
<polygon fill="white" stroke="black" points="853.5,-234.33 853.5,-253.33 978.5,-253.33 978.5,-234.33 853.5,-234.33"/>
<text text-anchor="middle" x="916" y="-241.33" font-family="Helvetica,sans-Serif" font-size="10.00">bit_read_bits32_sub_1</text>
</a>
</g>
</g>
<!-- Node12&#45;&gt;Node13 -->
<g id="edge15" class="edge">
<title>Node12&#45;&gt;Node13</title>
<path fill="none" stroke="midnightblue" d="M468.06,-243.83C548.88,-243.83 738.79,-243.83 843.16,-243.83"/>
<polygon fill="midnightblue" stroke="midnightblue" points="843.3,-247.33 853.3,-243.83 843.3,-240.33 843.3,-247.33"/>
</g>
<!-- Node13&#45;&gt;Node8 -->
<g id="edge16" class="edge">
<title>Node13&#45;&gt;Node8</title>
<path fill="none" stroke="midnightblue" d="M942.14,-234.26C953.68,-229.87 967.54,-224.59 980,-219.83 997.07,-213.3 1016.04,-206.02 1031.81,-199.97"/>
<polygon fill="midnightblue" stroke="midnightblue" points="1033.09,-203.23 1041.17,-196.37 1030.58,-196.69 1033.09,-203.23"/>
</g>
<!-- Node17 -->
<g id="node17" class="node">
<title>Node17</title>
<g id="a_node17"><a xlink:href="decmp_8c_ab8ea64d46b8170dc65694e3d0dec64ff.html#ab8ea64d46b8170dc65694e3d0dec64ff" target="_top" xlink:title="decode the next Golomb code word in the bitstream">
<polygon fill="white" stroke="black" points="543,-82.33 543,-101.33 641,-101.33 641,-82.33 543,-82.33"/>
<text text-anchor="middle" x="592" y="-89.33" font-family="Helvetica,sans-Serif" font-size="10.00">golomb_decoder</text>
</a>
</g>
</g>
<!-- Node16&#45;&gt;Node17 -->
<g id="edge21" class="edge">
<title>Node16&#45;&gt;Node17</title>
<path fill="none" stroke="midnightblue" d="M470.63,-120.24C491.97,-115.2 518.31,-108.98 540.91,-103.65"/>
<polygon fill="midnightblue" stroke="midnightblue" points="541.74,-107.05 550.67,-101.35 540.13,-100.24 541.74,-107.05"/>
</g>
<!-- Node18 -->
<g id="node18" class="node">
<title>Node18</title>
<g id="a_node18"><a xlink:href="decmp_8c_ad77fca4bf62b97dc9fe6edabb0086709.html#ad77fca4bf62b97dc9fe6edabb0086709" target="_top" xlink:title="decode the next unary code word in the bitstream">
<polygon fill="white" stroke="black" points="702,-120.33 702,-139.33 791,-139.33 791,-120.33 702,-120.33"/>
<text text-anchor="middle" x="746.5" y="-127.33" font-family="Helvetica,sans-Serif" font-size="10.00">unary_decoder</text>
</a>
</g>
</g>
<!-- Node16&#45;&gt;Node18 -->
<g id="edge32" class="edge">
<title>Node16&#45;&gt;Node18</title>
<path fill="none" stroke="midnightblue" d="M474.2,-129.83C531.19,-129.83 630.25,-129.83 691.6,-129.83"/>
<polygon fill="midnightblue" stroke="midnightblue" points="691.85,-133.33 701.85,-129.83 691.85,-126.33 691.85,-133.33"/>
</g>
<!-- Node20 -->
<g id="node20" class="node">
<title>Node20</title>
<g id="a_node20"><a xlink:href="cmp__support_8c_a7831f21f8303058bcac76d42a4aa1c06.html#a7831f21f8303058bcac76d42a4aa1c06" target="_top" xlink:title="determining if an integer is a power of 2">
<polygon fill="white" stroke="black" points="548,-44.33 548,-63.33 636,-63.33 636,-44.33 548,-44.33"/>
<text text-anchor="middle" x="592" y="-51.33" font-family="Helvetica,sans-Serif" font-size="10.00">is_a_pow_of_2</text>
</a>
</g>
</g>
<!-- Node16&#45;&gt;Node20 -->
<g id="edge28" class="edge">
<title>Node16&#45;&gt;Node20</title>
<path fill="none" stroke="midnightblue" d="M474.03,-123.5C485.28,-120.69 497,-116.65 507,-110.83 527.11,-99.12 523.73,-85.86 543,-72.83 545.75,-70.97 548.7,-69.25 551.75,-67.67"/>
<polygon fill="midnightblue" stroke="midnightblue" points="553.45,-70.74 561.04,-63.35 550.5,-64.39 553.45,-70.74"/>
</g>
<!-- Node21 -->
<g id="node21" class="node">
<title>Node21</title>
<g id="a_node21"><a xlink:href="decmp_8c_a31e9c3bcbe70648b659fe3c8f4383045.html#a31e9c3bcbe70648b659fe3c8f4383045" target="_top" xlink:title="decode the next Rice code word in the bitstream">
<polygon fill="white" stroke="black" points="552.5,-158.33 552.5,-177.33 631.5,-177.33 631.5,-158.33 552.5,-158.33"/>
<text text-anchor="middle" x="592" y="-165.33" font-family="Helvetica,sans-Serif" font-size="10.00">rice_decoder</text>
</a>
</g>
</g>
<!-- Node16&#45;&gt;Node21 -->
<g id="edge29" class="edge">
<title>Node16&#45;&gt;Node21</title>
<path fill="none" stroke="midnightblue" d="M470.63,-139.42C492.46,-144.57 519.52,-150.96 542.45,-156.37"/>
<polygon fill="midnightblue" stroke="midnightblue" points="541.79,-159.81 552.33,-158.7 543.4,-153 541.79,-159.81"/>
</g>
<!-- Node17&#45;&gt;Node8 -->
<g id="edge22" class="edge">
<title>Node17&#45;&gt;Node8</title>
<path fill="none" stroke="midnightblue" d="M641.2,-90.26C730.94,-87.98 919.95,-86.4 980,-110.83 1010.14,-123.09 1036.81,-150.63 1052.19,-168.97"/>
<polygon fill="midnightblue" stroke="midnightblue" points="1049.78,-171.55 1058.79,-177.12 1055.22,-167.15 1049.78,-171.55"/>
</g>
<!-- Node17&#45;&gt;Node9 -->
<g id="edge23" class="edge">
<title>Node17&#45;&gt;Node9</title>
<path fill="none" stroke="midnightblue" d="M641.25,-82.39C652.9,-80.49 665.36,-78.79 677,-77.83 811.21,-66.72 847.59,-53.29 980,-77.83 999.92,-81.52 1021.19,-89.64 1037.59,-96.9"/>
<polygon fill="midnightblue" stroke="midnightblue" points="1036.57,-100.28 1047.12,-101.26 1039.49,-93.92 1036.57,-100.28"/>
</g>
<!-- Node17&#45;&gt;Node14 -->
<g id="edge24" class="edge">
<title>Node17&#45;&gt;Node14</title>
<path fill="none" stroke="midnightblue" d="M622.01,-82.32C628.48,-79.67 635.15,-76.49 641,-72.83 659.4,-61.31 658.38,-50.98 677,-39.83 688.23,-33.1 701.63,-27.88 713.59,-24.05"/>
<polygon fill="midnightblue" stroke="midnightblue" points="714.64,-27.39 723.21,-21.16 712.63,-20.69 714.64,-27.39"/>
</g>
<!-- Node17&#45;&gt;Node18 -->
<g id="edge25" class="edge">
<title>Node17&#45;&gt;Node18</title>
<path fill="none" stroke="midnightblue" d="M631.48,-101.42C651.52,-106.41 676.2,-112.56 697.48,-117.86"/>
<polygon fill="midnightblue" stroke="midnightblue" points="696.74,-121.29 707.29,-120.31 698.44,-114.49 696.74,-121.29"/>
</g>
<!-- Node18&#45;&gt;Node8 -->
<g id="edge26" class="edge">
<title>Node18&#45;&gt;Node8</title>
<path fill="none" stroke="midnightblue" d="M764.74,-139.37C793.8,-155.44 849.63,-186.22 852,-186.83 902.66,-199.75 962.29,-198.46 1005.71,-194.69"/>
<polygon fill="midnightblue" stroke="midnightblue" points="1006.21,-198.16 1015.83,-193.74 1005.55,-191.19 1006.21,-198.16"/>
</g>
<!-- Node19 -->
<g id="node19" class="node">
<title>Node19</title>
<g id="a_node19"><a xlink:href="read__bitstream_8h_a08b1899a09b0b72856f441efae758d76.html#a08b1899a09b0b72856f441efae758d76" target="_top" xlink:title="count the leading ones in the local register; local register is not modified">
<polygon fill="white" stroke="black" points="852,-120.33 852,-139.33 980,-139.33 980,-120.33 852,-120.33"/>
<text text-anchor="middle" x="916" y="-127.33" font-family="Helvetica,sans-Serif" font-size="10.00">bit_peek_leading_ones</text>
</a>
</g>
</g>
<!-- Node18&#45;&gt;Node19 -->
<g id="edge27" class="edge">
<title>Node18&#45;&gt;Node19</title>
<path fill="none" stroke="midnightblue" d="M791.07,-129.83C806.55,-129.83 824.42,-129.83 841.7,-129.83"/>
<polygon fill="midnightblue" stroke="midnightblue" points="841.78,-133.33 851.78,-129.83 841.78,-126.33 841.78,-133.33"/>
</g>
<!-- Node21&#45;&gt;Node6 -->
<g id="edge30" class="edge">
<title>Node21&#45;&gt;Node6</title>
<path fill="none" stroke="midnightblue" d="M631.88,-172.67C649.69,-174.89 671.11,-177.56 690.53,-179.98"/>
<polygon fill="midnightblue" stroke="midnightblue" points="690.12,-183.45 700.48,-181.22 690.99,-176.51 690.12,-183.45"/>
</g>
<!-- Node21&#45;&gt;Node18 -->
<g id="edge31" class="edge">
<title>Node21&#45;&gt;Node18</title>
<path fill="none" stroke="midnightblue" d="M631.48,-158.24C651.52,-153.25 676.2,-147.1 697.48,-141.79"/>
<polygon fill="midnightblue" stroke="midnightblue" points="698.44,-145.16 707.29,-139.35 696.74,-138.37 698.44,-145.16"/>
</g>
<!-- Node23&#45;&gt;Node11 -->
<g id="edge35" class="edge">
<title>Node23&#45;&gt;Node11</title>
<path fill="none" stroke="midnightblue" d="M278.44,-281.83C307.72,-281.83 347.1,-281.83 378.1,-281.83"/>
<polygon fill="midnightblue" stroke="midnightblue" points="378.27,-285.33 388.27,-281.83 378.27,-278.33 378.27,-285.33"/>
</g>
<!-- Node24 -->
<g id="node24" class="node">
<title>Node24</title>
<g id="a_node24"><a xlink:href="decmp_8c_a931b1f11894a7118817a8b8bb08644f9.html#a931b1f11894a7118817a8b8bb08644f9" target="_top" xlink:title="remap an unsigned value back to a signed value">
<polygon fill="white" stroke="black" points="383.5,-310.33 383.5,-329.33 474.5,-329.33 474.5,-310.33 383.5,-310.33"/>
<text text-anchor="middle" x="429" y="-317.33" font-family="Helvetica,sans-Serif" font-size="10.00">re_map_to_pos</text>
</a>
</g>
</g>
<!-- Node23&#45;&gt;Node24 -->
<g id="edge36" class="edge">
<title>Node23&#45;&gt;Node24</title>
<path fill="none" stroke="midnightblue" d="M278.44,-290.07C306.24,-295.6 343.15,-302.95 373.35,-308.95"/>
<polygon fill="midnightblue" stroke="midnightblue" points="372.81,-312.42 383.31,-310.94 374.18,-305.55 372.81,-312.42"/>
</g>
</g>
</svg>
