<?xml version="1.0" encoding="UTF-8" standalone="no"?>
<!DOCTYPE svg PUBLIC "-//W3C//DTD SVG 1.1//EN"
 "http://www.w3.org/Graphics/SVG/1.1/DTD/svg11.dtd">
<!-- Generated by graphviz version 2.43.0 (0)
 -->
<!-- Title: decode_none Pages: 1 -->
<!--zoomable 792 -->
<svg id="main" version="1.1" xmlns="http://www.w3.org/2000/svg" xmlns:xlink="http://www.w3.org/1999/xlink" xml:space="preserve" onload="init(evt)">
<style type="text/css"><![CDATA[
.edge:hover path { stroke: red; }
.edge:hover polygon { stroke: red; fill: red; }
]]></style>
<script type="text/javascript"><![CDATA[
var edges = document.getElementsByTagName('g');
if (edges && edges.length) {
  for (var i=0;i<edges.length;i++) {
    if (edges[i].id.substr(0,4)=='edge') {
      edges[i].setAttribute('class','edge');
    }
  }
}
]]></script>
        <defs>
                <circle id="rim" cx="0" cy="0" r="7"/>
                <circle id="rim2" cx="0" cy="0" r="3.5"/>
                <g id="zoomPlus">
                        <use xlink:href="#rim" fill="#404040">
                                <set attributeName="fill" to="#808080" begin="zoomplus.mouseover" end="zoomplus.mouseout"/>
                        </use>
                        <path d="M-4,0h8M0,-4v8" fill="none" stroke="white" stroke-width="1.5" pointer-events="none"/>
                </g>
                <g id="zoomMin">
                        <use xlink:href="#rim" fill="#404040">
                                <set attributeName="fill" to="#808080" begin="zoomminus.mouseover" end="zoomminus.mouseout"/>
                        </use>
                        <path d="M-4,0h8" fill="none" stroke="white" stroke-width="1.5" pointer-events="none"/>
                </g>
                <g id="dirArrow">
                        <path fill="none" stroke="white" stroke-width="1.5" d="M0,-3.0v7 M-2.5,-0.5L0,-3.0L2.5,-0.5"/>
                </g>
               <g id="resetDef">
                       <use xlink:href="#rim2" fill="#404040">
                               <set attributeName="fill" to="#808080" begin="reset.mouseover" end="reset.mouseout"/>
                       </use>
               </g>
        </defs>

<script type="text/javascript">
var viewWidth = 1201;
var viewHeight = 792;
var sectionId = 'dynsection-1';
</script>
<script xlink:href="svgpan.js"/>
<svg id="graph" class="graph">
<g id="viewport">
<title>decode_none</title>
<polygon fill="white" stroke="transparent" points="-4,4 -4,-787.5 1197,-787.5 1197,4 -4,4"/>
<!-- Node1 -->
<g id="node1" class="node">
<title>Node1</title>
<g id="a_node1"><a xlink:title="get the value unencoded with setup&#45;&gt;cmp_par_1 bits without any additional changes from the bitstream">
<polygon fill="#bfbfbf" stroke="black" points="1112,-411.5 1112,-430.5 1193,-430.5 1193,-411.5 1112,-411.5"/>
<text text-anchor="middle" x="1152.5" y="-418.5" font-family="Helvetica,sans-Serif" font-size="10.00">decode_none</text>
</a>
</g>
</g>
<!-- Node2 -->
<g id="node2" class="node">
<title>Node2</title>
<g id="a_node2"><a xlink:href="decmp_8c_ac9a6281c5fcfbf077cc63e0494274f20.html#ac9a6281c5fcfbf077cc63e0494274f20" target="_top" xlink:title="configure a decoder setup structure to have a setup to decode a vale">
<polygon fill="white" stroke="black" points="938,-392.5 938,-411.5 1076,-411.5 1076,-392.5 938,-392.5"/>
<text text-anchor="middle" x="1007" y="-399.5" font-family="Helvetica,sans-Serif" font-size="10.00">configure_decoder_setup</text>
</a>
</g>
</g>
<!-- Node1&#45;&gt;Node2 -->
<g id="edge1" class="edge">
<title>Node1&#45;&gt;Node2</title>
<path fill="none" stroke="midnightblue" d="M1101.98,-414.44C1093.63,-413.34 1084.83,-412.17 1076.1,-411.02"/>
<polygon fill="midnightblue" stroke="midnightblue" points="1101.54,-417.91 1111.91,-415.76 1102.45,-410.98 1101.54,-417.91"/>
</g>
<!-- Node34 -->
<g id="node34" class="node">
<title>Node34</title>
<g id="a_node34"><a xlink:href="decmp_8c_a5e29a350ebed1be3d3240b4aed0c67bc.html#a5e29a350ebed1be3d3240b4aed0c67bc" target="_top" xlink:title="decompress the next code word in the bitstream and decorate it with the model">
<polygon fill="white" stroke="black" points="965,-430.5 965,-449.5 1049,-449.5 1049,-430.5 965,-430.5"/>
<text text-anchor="middle" x="1007" y="-437.5" font-family="Helvetica,sans-Serif" font-size="10.00">decode_value</text>
</a>
</g>
</g>
<!-- Node1&#45;&gt;Node34 -->
<g id="edge48" class="edge">
<title>Node1&#45;&gt;Node34</title>
<path fill="none" stroke="midnightblue" d="M1101.54,-427.61C1084.45,-429.88 1065.54,-432.38 1049.21,-434.54"/>
<polygon fill="midnightblue" stroke="midnightblue" points="1102.45,-431.02 1111.91,-426.24 1101.54,-424.09 1102.45,-431.02"/>
</g>
<!-- Node3 -->
<g id="node3" class="node">
<title>Node3</title>
<g id="a_node3"><a xlink:href="decmp_8c_ae8bbe9e530e670af67db5d739f15f120.html#ae8bbe9e530e670af67db5d739f15f120" target="_top" xlink:title="decompress N&#45;CAM background data">
<polygon fill="white" stroke="black" points="764,-594.5 764,-613.5 902,-613.5 902,-594.5 764,-594.5"/>
<text text-anchor="middle" x="833" y="-601.5" font-family="Helvetica,sans-Serif" font-size="10.00">decompress_background</text>
</a>
</g>
</g>
<!-- Node2&#45;&gt;Node3 -->
<g id="edge2" class="edge">
<title>Node2&#45;&gt;Node3</title>
<path fill="none" stroke="midnightblue" d="M941.97,-417.31C940.57,-418.46 939.24,-419.68 938,-421 886.74,-475.23 953.26,-530.77 902,-585 898.38,-588.83 894.06,-591.91 889.37,-594.38"/>
<polygon fill="midnightblue" stroke="midnightblue" points="944.2,-420.03 950.63,-411.62 940.35,-414.18 944.2,-420.03"/>
</g>
<!-- Node14 -->
<g id="node14" class="node">
<title>Node14</title>
<g id="a_node14"><a xlink:href="decmp_8c_ac44d884cb830d9b0dbbca34c6db2de7d.html#ac44d884cb830d9b0dbbca34c6db2de7d" target="_top" xlink:title="decompress fast normal light flux (F_FX) data">
<polygon fill="white" stroke="black" points="783,-556.5 783,-575.5 883,-575.5 883,-556.5 783,-556.5"/>
<text text-anchor="middle" x="833" y="-563.5" font-family="Helvetica,sans-Serif" font-size="10.00">decompress_f_fx</text>
</a>
</g>
</g>
<!-- Node2&#45;&gt;Node14 -->
<g id="edge13" class="edge">
<title>Node2&#45;&gt;Node14</title>
<path fill="none" stroke="midnightblue" d="M942.69,-416.95C941.04,-418.19 939.47,-419.54 938,-421 896.7,-462.06 943.3,-505.94 902,-547 896.7,-552.27 890.06,-556.11 883.03,-558.9"/>
<polygon fill="midnightblue" stroke="midnightblue" points="944.84,-419.73 951.54,-411.52 941.18,-413.76 944.84,-419.73"/>
</g>
<!-- Node15 -->
<g id="node15" class="node">
<title>Node15</title>
<g id="a_node15"><a xlink:href="decmp_8c_a84e912fefa1f49f27885af0d855a4989.html#a84e912fefa1f49f27885af0d855a4989" target="_top" xlink:title="decompress F_FX_EFX data">
<polygon fill="white" stroke="black" points="772.5,-518.5 772.5,-537.5 893.5,-537.5 893.5,-518.5 772.5,-518.5"/>
<text text-anchor="middle" x="833" y="-525.5" font-family="Helvetica,sans-Serif" font-size="10.00">decompress_f_fx_efx</text>
</a>
</g>
</g>
<!-- Node2&#45;&gt;Node15 -->
<g id="edge15" class="edge">
<title>Node2&#45;&gt;Node15</title>
<path fill="none" stroke="midnightblue" d="M944.17,-416.32C941.99,-417.74 939.93,-419.29 938,-421 906.69,-448.76 933.12,-480.02 902,-508 897.15,-512.36 891.39,-515.77 885.31,-518.44"/>
<polygon fill="midnightblue" stroke="midnightblue" points="945.88,-419.37 952.99,-411.52 942.54,-413.22 945.88,-419.37"/>
</g>
<!-- Node16 -->
<g id="node16" class="node">
<title>Node16</title>
<g id="a_node16"><a xlink:href="decmp_8c_aac2934ca104c49490be71c4966d2b173.html#aac2934ca104c49490be71c4966d2b173" target="_top" xlink:title="decompress short F_FX_NCOB_ECOB data">
<polygon fill="white" stroke="black" points="772.5,-469 772.5,-499 893.5,-499 893.5,-469 772.5,-469"/>
<text text-anchor="start" x="780.5" y="-487" font-family="Helvetica,sans-Serif" font-size="10.00">decompress_f_fx_efx</text>
<text text-anchor="middle" x="833" y="-476" font-family="Helvetica,sans-Serif" font-size="10.00">_ncob_ecob</text>
</a>
</g>
</g>
<!-- Node2&#45;&gt;Node16 -->
<g id="edge17" class="edge">
<title>Node2&#45;&gt;Node16</title>
<path fill="none" stroke="midnightblue" d="M949.44,-415.18C945.46,-416.9 941.6,-418.83 938,-421 918.08,-433.01 921.43,-446.2 902,-459 896.33,-462.74 890.02,-466.01 883.6,-468.85"/>
<polygon fill="midnightblue" stroke="midnightblue" points="950.81,-418.41 958.89,-411.56 948.3,-411.87 950.81,-418.41"/>
</g>
<!-- Node17 -->
<g id="node17" class="node">
<title>Node17</title>
<g id="a_node17"><a xlink:href="decmp_8c_a8310f64826697fb15c590854c08b3ad9.html#a8310f64826697fb15c590854c08b3ad9" target="_top" xlink:title="decompress short F_FX_NCOB data">
<polygon fill="white" stroke="black" points="769,-430.5 769,-449.5 897,-449.5 897,-430.5 769,-430.5"/>
<text text-anchor="middle" x="833" y="-437.5" font-family="Helvetica,sans-Serif" font-size="10.00">decompress_f_fx_ncob</text>
</a>
</g>
</g>
<!-- Node2&#45;&gt;Node17 -->
<g id="edge19" class="edge">
<title>Node2&#45;&gt;Node17</title>
<path fill="none" stroke="midnightblue" d="M952.8,-413.75C928.48,-419.13 900.05,-425.41 877.09,-430.48"/>
<polygon fill="midnightblue" stroke="midnightblue" points="953.59,-417.16 962.6,-411.59 952.08,-410.33 953.59,-417.16"/>
</g>
<!-- Node18 -->
<g id="node18" class="node">
<title>Node18</title>
<g id="a_node18"><a xlink:href="decmp_8c_a62e230570f1d23f56fbe10fb238dbf1d.html#a62e230570f1d23f56fbe10fb238dbf1d" target="_top" xlink:title="decompress imagette data">
<polygon fill="white" stroke="black" points="770.5,-758.5 770.5,-777.5 895.5,-777.5 895.5,-758.5 770.5,-758.5"/>
<text text-anchor="middle" x="833" y="-765.5" font-family="Helvetica,sans-Serif" font-size="10.00">decompress_imagette</text>
</a>
</g>
</g>
<!-- Node2&#45;&gt;Node18 -->
<g id="edge21" class="edge">
<title>Node2&#45;&gt;Node18</title>
<path fill="none" stroke="midnightblue" d="M941.25,-417.62C940.1,-418.68 939.02,-419.8 938,-421 843.09,-532.8 996.91,-637.2 902,-749 898.75,-752.83 894.79,-755.92 890.44,-758.41"/>
<polygon fill="midnightblue" stroke="midnightblue" points="943.52,-420.29 949.56,-411.59 939.41,-414.63 943.52,-420.29"/>
</g>
<!-- Node20 -->
<g id="node20" class="node">
<title>Node20</title>
<g id="a_node20"><a xlink:href="decmp_8c_a75f3c5c08234bce92e84d07a93e9a77d.html#a75f3c5c08234bce92e84d07a93e9a77d" target="_top" xlink:title="decompress long normal light flux (L_FX) data">
<polygon fill="white" stroke="black" points="783.5,-392.5 783.5,-411.5 882.5,-411.5 882.5,-392.5 783.5,-392.5"/>
<text text-anchor="middle" x="833" y="-399.5" font-family="Helvetica,sans-Serif" font-size="10.00">decompress_l_fx</text>
</a>
</g>
</g>
<!-- Node2&#45;&gt;Node20 -->
<g id="edge24" class="edge">
<title>Node2&#45;&gt;Node20</title>
<path fill="none" stroke="midnightblue" d="M927.1,-402C911.95,-402 896.49,-402 882.65,-402"/>
<polygon fill="midnightblue" stroke="midnightblue" points="927.53,-405.5 937.53,-402 927.53,-398.5 927.53,-405.5"/>
</g>
<!-- Node21 -->
<g id="node21" class="node">
<title>Node21</title>
<g id="a_node21"><a xlink:href="decmp_8c_aa06fff345fa7fd62fb4fd7a619c118fe.html#aa06fff345fa7fd62fb4fd7a619c118fe" target="_top" xlink:title="decompress L_FX_EFX data">
<polygon fill="white" stroke="black" points="773,-354.5 773,-373.5 893,-373.5 893,-354.5 773,-354.5"/>
<text text-anchor="middle" x="833" y="-361.5" font-family="Helvetica,sans-Serif" font-size="10.00">decompress_l_fx_efx</text>
</a>
</g>
</g>
<!-- Node2&#45;&gt;Node21 -->
<g id="edge26" class="edge">
<title>Node2&#45;&gt;Node21</title>
<path fill="none" stroke="midnightblue" d="M952.8,-390.25C928.48,-384.87 900.05,-378.59 877.09,-373.52"/>
<polygon fill="midnightblue" stroke="midnightblue" points="952.08,-393.67 962.6,-392.41 953.59,-386.84 952.08,-393.67"/>
</g>
<!-- Node22 -->
<g id="node22" class="node">
<title>Node22</title>
<g id="a_node22"><a xlink:href="decmp_8c_a36a5692cbd5d1e46805ba3f1dac23f60.html#a36a5692cbd5d1e46805ba3f1dac23f60" target="_top" xlink:title="decompress L_FX_EFX_NCOB_ECOB data">
<polygon fill="white" stroke="black" points="773,-305 773,-335 893,-335 893,-305 773,-305"/>
<text text-anchor="start" x="781" y="-323" font-family="Helvetica,sans-Serif" font-size="10.00">decompress_l_fx_efx</text>
<text text-anchor="middle" x="833" y="-312" font-family="Helvetica,sans-Serif" font-size="10.00">_ncob_ecob</text>
</a>
</g>
</g>
<!-- Node2&#45;&gt;Node22 -->
<g id="edge28" class="edge">
<title>Node2&#45;&gt;Node22</title>
<path fill="none" stroke="midnightblue" d="M981.38,-387.15C960.64,-374.96 929.96,-357.71 902,-345 894.33,-341.51 886.02,-338.14 877.92,-335.05"/>
<polygon fill="midnightblue" stroke="midnightblue" points="979.78,-390.26 990.17,-392.35 983.35,-384.24 979.78,-390.26"/>
</g>
<!-- Node23 -->
<g id="node23" class="node">
<title>Node23</title>
<g id="a_node23"><a xlink:href="decmp_8c_a5883c910a0e8e829e60844e78da88e96.html#a5883c910a0e8e829e60844e78da88e96" target="_top" xlink:title="decompress L_FX_NCOB data">
<polygon fill="white" stroke="black" points="769,-266.5 769,-285.5 897,-285.5 897,-266.5 769,-266.5"/>
<text text-anchor="middle" x="833" y="-273.5" font-family="Helvetica,sans-Serif" font-size="10.00">decompress_l_fx_ncob</text>
</a>
</g>
</g>
<!-- Node2&#45;&gt;Node23 -->
<g id="edge30" class="edge">
<title>Node2&#45;&gt;Node23</title>
<path fill="none" stroke="midnightblue" d="M993.5,-384.19C975.83,-360.35 941.3,-318.35 902,-295 895.47,-291.12 888.11,-288 880.71,-285.51"/>
<polygon fill="midnightblue" stroke="midnightblue" points="990.72,-386.32 999.42,-392.36 996.39,-382.21 990.72,-386.32"/>
</g>
<!-- Node24 -->
<g id="node24" class="node">
<title>Node24</title>
<g id="a_node24"><a xlink:href="decmp_8c_a47d0a8b2f718f7d4659a34a6b516c79d.html#a47d0a8b2f718f7d4659a34a6b516c79d" target="_top" xlink:title="decompress N&#45;CAM and F&#45;CAM offset data">
<polygon fill="white" stroke="black" points="778.5,-228.5 778.5,-247.5 887.5,-247.5 887.5,-228.5 778.5,-228.5"/>
<text text-anchor="middle" x="833" y="-235.5" font-family="Helvetica,sans-Serif" font-size="10.00">decompress_offset</text>
</a>
</g>
</g>
<!-- Node2&#45;&gt;Node24 -->
<g id="edge32" class="edge">
<title>Node2&#45;&gt;Node24</title>
<path fill="none" stroke="midnightblue" d="M997.51,-382.8C982.71,-351.59 949.21,-290.03 902,-257 896.48,-253.13 890.19,-250.05 883.72,-247.6"/>
<polygon fill="midnightblue" stroke="midnightblue" points="994.44,-384.52 1001.8,-392.14 1000.8,-381.59 994.44,-384.52"/>
</g>
<!-- Node25 -->
<g id="node25" class="node">
<title>Node25</title>
<g id="a_node25"><a xlink:href="decmp_8c_ad57c4f63787216adcca82dca5a2c99ae.html#ad57c4f63787216adcca82dca5a2c99ae" target="_top" xlink:title="decompress short normal light flux (S_FX) data">
<polygon fill="white" stroke="black" points="782.5,-190.5 782.5,-209.5 883.5,-209.5 883.5,-190.5 782.5,-190.5"/>
<text text-anchor="middle" x="833" y="-197.5" font-family="Helvetica,sans-Serif" font-size="10.00">decompress_s_fx</text>
</a>
</g>
</g>
<!-- Node2&#45;&gt;Node25 -->
<g id="edge34" class="edge">
<title>Node2&#45;&gt;Node25</title>
<path fill="none" stroke="midnightblue" d="M1000.46,-382.6C988.74,-345.12 957.82,-262.62 902,-219 896.59,-214.77 890.29,-211.49 883.76,-208.93"/>
<polygon fill="midnightblue" stroke="midnightblue" points="997.15,-383.73 1003.37,-392.3 1003.85,-381.72 997.15,-383.73"/>
</g>
<!-- Node26 -->
<g id="node26" class="node">
<title>Node26</title>
<g id="a_node26"><a xlink:href="decmp_8c_ae950fe1a6eeb3224f3491439a7149a1f.html#ae950fe1a6eeb3224f3491439a7149a1f" target="_top" xlink:title="decompress S_FX_EFX data">
<polygon fill="white" stroke="black" points="772,-152.5 772,-171.5 894,-171.5 894,-152.5 772,-152.5"/>
<text text-anchor="middle" x="833" y="-159.5" font-family="Helvetica,sans-Serif" font-size="10.00">decompress_s_fx_efx</text>
</a>
</g>
</g>
<!-- Node2&#45;&gt;Node26 -->
<g id="edge36" class="edge">
<title>Node2&#45;&gt;Node26</title>
<path fill="none" stroke="midnightblue" d="M1002.44,-382.24C993.6,-339.01 966.51,-235.53 902,-181 897.41,-177.12 892.09,-174.03 886.48,-171.57"/>
<polygon fill="midnightblue" stroke="midnightblue" points="999.05,-383.16 1004.39,-392.31 1005.92,-381.83 999.05,-383.16"/>
</g>
<!-- Node27 -->
<g id="node27" class="node">
<title>Node27</title>
<g id="a_node27"><a xlink:href="decmp_8c_aee9e79676f49da2b257ad810955e4f09.html#aee9e79676f49da2b257ad810955e4f09" target="_top" xlink:title="decompress short S_FX_NCOB_ECOB data">
<polygon fill="white" stroke="black" points="772,-709 772,-739 894,-739 894,-709 772,-709"/>
<text text-anchor="start" x="780" y="-727" font-family="Helvetica,sans-Serif" font-size="10.00">decompress_s_fx_efx</text>
<text text-anchor="middle" x="833" y="-716" font-family="Helvetica,sans-Serif" font-size="10.00">_ncob_ecob</text>
</a>
</g>
</g>
<!-- Node2&#45;&gt;Node27 -->
<g id="edge38" class="edge">
<title>Node2&#45;&gt;Node27</title>
<path fill="none" stroke="midnightblue" d="M941.28,-417.65C940.12,-418.7 939.03,-419.81 938,-421 856.45,-515.19 979.72,-601.63 902,-699 898.94,-702.83 895.23,-706.08 891.15,-708.83"/>
<polygon fill="midnightblue" stroke="midnightblue" points="943.55,-420.33 949.63,-411.65 939.47,-414.64 943.55,-420.33"/>
</g>
<!-- Node28 -->
<g id="node28" class="node">
<title>Node28</title>
<g id="a_node28"><a xlink:href="decmp_8c_a5075a002558af814210bd1c186a244f0.html#a5075a002558af814210bd1c186a244f0" target="_top" xlink:title="decompress short S_FX_NCOB data">
<polygon fill="white" stroke="black" points="768,-670.5 768,-689.5 898,-689.5 898,-670.5 768,-670.5"/>
<text text-anchor="middle" x="833" y="-677.5" font-family="Helvetica,sans-Serif" font-size="10.00">decompress_s_fx_ncob</text>
</a>
</g>
</g>
<!-- Node2&#45;&gt;Node28 -->
<g id="edge40" class="edge">
<title>Node2&#45;&gt;Node28</title>
<path fill="none" stroke="midnightblue" d="M941.75,-417.28C940.43,-418.44 939.17,-419.67 938,-421 866.59,-501.83 973.41,-580.17 902,-661 898.59,-664.86 894.47,-667.96 889.96,-670.45"/>
<polygon fill="midnightblue" stroke="midnightblue" points="943.81,-420.12 950.04,-411.55 939.82,-414.36 943.81,-420.12"/>
</g>
<!-- Node29 -->
<g id="node29" class="node">
<title>Node29</title>
<g id="a_node29"><a xlink:href="decmp_8c_ab043a8a939e8818cf2875aecec205bb9.html#ab043a8a939e8818cf2875aecec205bb9" target="_top" xlink:title="decompress N&#45;CAM smearing data">
<polygon fill="white" stroke="black" points="769.5,-632.5 769.5,-651.5 896.5,-651.5 896.5,-632.5 769.5,-632.5"/>
<text text-anchor="middle" x="833" y="-639.5" font-family="Helvetica,sans-Serif" font-size="10.00">decompress_smearing</text>
</a>
</g>
</g>
<!-- Node2&#45;&gt;Node29 -->
<g id="edge42" class="edge">
<title>Node2&#45;&gt;Node29</title>
<path fill="none" stroke="midnightblue" d="M941.8,-417.33C940.46,-418.47 939.19,-419.69 938,-421 876.69,-488.51 963.31,-555.49 902,-623 898.54,-626.81 894.38,-629.88 889.85,-632.36"/>
<polygon fill="midnightblue" stroke="midnightblue" points="943.85,-420.17 950.15,-411.64 939.91,-414.38 943.85,-420.17"/>
</g>
<!-- Node30 -->
<g id="node30" class="node">
<title>Node30</title>
<g id="a_node30"><a xlink:href="test__decmp_8c_a2cf11f635ba073b682cac0e4ef9dfdbc.html#a2cf11f635ba073b682cac0e4ef9dfdbc" target="_top" xlink:title=" ">
<polygon fill="white" stroke="black" points="779.5,-114.5 779.5,-133.5 886.5,-133.5 886.5,-114.5 779.5,-114.5"/>
<text text-anchor="middle" x="833" y="-121.5" font-family="Helvetica,sans-Serif" font-size="10.00">test_decode_multi</text>
</a>
</g>
</g>
<!-- Node2&#45;&gt;Node30 -->
<g id="edge44" class="edge">
<title>Node2&#45;&gt;Node30</title>
<path fill="none" stroke="midnightblue" d="M1003.95,-382.22C997.87,-333.87 975.49,-208.87 902,-143 897.53,-138.99 892.28,-135.82 886.71,-133.32"/>
<polygon fill="midnightblue" stroke="midnightblue" points="1000.49,-382.76 1005.12,-392.3 1007.45,-381.96 1000.49,-382.76"/>
</g>
<!-- Node31 -->
<g id="node31" class="node">
<title>Node31</title>
<g id="a_node31"><a xlink:href="test__decmp_8c_a7ada560b6c0070a378eeff45b9dae044.html#a7ada560b6c0070a378eeff45b9dae044" target="_top" xlink:title=" ">
<polygon fill="white" stroke="black" points="782,-76.5 782,-95.5 884,-95.5 884,-76.5 782,-76.5"/>
<text text-anchor="middle" x="833" y="-83.5" font-family="Helvetica,sans-Serif" font-size="10.00">test_decode_zero</text>
</a>
</g>
</g>
<!-- Node2&#45;&gt;Node31 -->
<g id="edge45" class="edge">
<title>Node2&#45;&gt;Node31</title>
<path fill="none" stroke="midnightblue" d="M1005.11,-382.25C1001.63,-329.21 984.61,-182.46 902,-105 896.9,-100.22 890.7,-96.63 884.15,-93.93"/>
<polygon fill="midnightblue" stroke="midnightblue" points="1001.62,-382.56 1005.68,-392.34 1008.61,-382.16 1001.62,-382.56"/>
</g>
<!-- Node32 -->
<g id="node32" class="node">
<title>Node32</title>
<g id="a_node32"><a xlink:href="test__decmp_8c_a29cac1eb3ce172274827f3bb9481294c.html#a29cac1eb3ce172274827f3bb9481294c" target="_top" xlink:title=" ">
<polygon fill="white" stroke="black" points="766,-38.5 766,-57.5 900,-57.5 900,-38.5 766,-38.5"/>
<text text-anchor="middle" x="833" y="-45.5" font-family="Helvetica,sans-Serif" font-size="10.00">test_multi_refill_needed</text>
</a>
</g>
</g>
<!-- Node2&#45;&gt;Node32 -->
<g id="edge46" class="edge">
<title>Node2&#45;&gt;Node32</title>
<path fill="none" stroke="midnightblue" d="M1006.02,-382.1C1004.94,-324.5 993.72,-156.14 902,-67 898.04,-63.16 893.38,-60.08 888.37,-57.61"/>
<polygon fill="midnightblue" stroke="midnightblue" points="1002.52,-382.39 1006.12,-392.36 1009.52,-382.33 1002.52,-382.39"/>
</g>
<!-- Node33 -->
<g id="node33" class="node">
<title>Node33</title>
<g id="a_node33"><a xlink:href="test__decmp_8c_a58e183d189a8362c6690c0a6205b6dcc.html#a58e183d189a8362c6690c0a6205b6dcc" target="_top" xlink:title=" ">
<polygon fill="white" stroke="black" points="768,-0.5 768,-19.5 898,-19.5 898,-0.5 768,-0.5"/>
<text text-anchor="middle" x="833" y="-7.5" font-family="Helvetica,sans-Serif" font-size="10.00">test_zero_refill_needed</text>
</a>
</g>
</g>
<!-- Node2&#45;&gt;Node33 -->
<g id="edge47" class="edge">
<title>Node2&#45;&gt;Node33</title>
<path fill="none" stroke="midnightblue" d="M1006.76,-381.94C1007.97,-320.02 1002.9,-129.96 902,-29 898.19,-25.19 893.68,-22.12 888.82,-19.66"/>
<polygon fill="midnightblue" stroke="midnightblue" points="1003.26,-382.17 1006.47,-392.26 1010.25,-382.36 1003.26,-382.17"/>
</g>
<!-- Node4 -->
<g id="node4" class="node">
<title>Node4</title>
<g id="a_node4"><a xlink:href="decmp_8c_a74c8bbd7b2130f44b6672e960475f4be.html#a74c8bbd7b2130f44b6672e960475f4be" target="_top" xlink:title="decompress the data based on a compression configuration">
<polygon fill="white" stroke="black" points="570,-452.5 570,-471.5 728,-471.5 728,-452.5 570,-452.5"/>
<text text-anchor="middle" x="649" y="-459.5" font-family="Helvetica,sans-Serif" font-size="10.00">decompressed_data_internal</text>
</a>
</g>
</g>
<!-- Node3&#45;&gt;Node4 -->
<g id="edge3" class="edge">
<title>Node3&#45;&gt;Node4</title>
<path fill="none" stroke="midnightblue" d="M774.89,-590.63C771.1,-588.97 767.43,-587.1 764,-585 713.55,-554.21 671.43,-494.91 656.15,-471.67"/>
<polygon fill="midnightblue" stroke="midnightblue" points="773.91,-594.01 784.5,-594.38 776.45,-587.48 773.91,-594.01"/>
</g>
<!-- Node5 -->
<g id="node5" class="node">
<title>Node5</title>
<g id="a_node5"><a xlink:href="decmp_8h_aefe0fa39fdc295432f5e2e0f91f0b87f.html#aefe0fa39fdc295432f5e2e0f91f0b87f" target="_top" xlink:title="decompress a compression entity">
<polygon fill="white" stroke="black" points="402,-493.5 402,-512.5 534,-512.5 534,-493.5 402,-493.5"/>
<text text-anchor="middle" x="468" y="-500.5" font-family="Helvetica,sans-Serif" font-size="10.00">decompress_cmp_entiy</text>
</a>
</g>
</g>
<!-- Node4&#45;&gt;Node5 -->
<g id="edge4" class="edge">
<title>Node4&#45;&gt;Node5</title>
<path fill="none" stroke="midnightblue" d="M596.72,-473.75C569.42,-480 536.28,-487.59 510.6,-493.47"/>
<polygon fill="midnightblue" stroke="midnightblue" points="597.52,-477.15 606.48,-471.51 595.95,-470.33 597.52,-477.15"/>
</g>
<!-- Node12 -->
<g id="node12" class="node">
<title>Node12</title>
<g id="a_node12"><a xlink:href="decmp_8h_aa89132cfd22be6ede8bc4344e9c3336a.html#aa89132cfd22be6ede8bc4344e9c3336a" target="_top" xlink:title="decompress RDCU compressed data without a compression entity header">
<polygon fill="white" stroke="black" points="403.5,-433.5 403.5,-452.5 532.5,-452.5 532.5,-433.5 403.5,-433.5"/>
<text text-anchor="middle" x="468" y="-440.5" font-family="Helvetica,sans-Serif" font-size="10.00">decompress_rdcu_data</text>
</a>
</g>
</g>
<!-- Node4&#45;&gt;Node12 -->
<g id="edge11" class="edge">
<title>Node4&#45;&gt;Node12</title>
<path fill="none" stroke="midnightblue" d="M559.52,-452.61C550.43,-451.64 541.33,-450.68 532.59,-449.75"/>
<polygon fill="midnightblue" stroke="midnightblue" points="559.43,-456.12 569.75,-453.69 560.17,-449.16 559.43,-456.12"/>
</g>
<!-- Node6 -->
<g id="node6" class="node">
<title>Node6</title>
<g id="a_node6"><a xlink:href="test__cmp__decmp_8c_a50ba26014079160ca77b7d7fa76ce0f4.html#a50ba26014079160ca77b7d7fa76ce0f4" target="_top" xlink:title="compress the given configuration and decompress it afterwards; finally compare the results">
<polygon fill="white" stroke="black" points="195,-474.5 195,-493.5 353,-493.5 353,-474.5 195,-474.5"/>
<text text-anchor="middle" x="274" y="-481.5" font-family="Helvetica,sans-Serif" font-size="10.00">compression_decompression</text>
</a>
</g>
</g>
<!-- Node5&#45;&gt;Node6 -->
<g id="edge5" class="edge">
<title>Node5&#45;&gt;Node6</title>
<path fill="none" stroke="midnightblue" d="M391.94,-495.57C379.23,-494.31 366.02,-493.01 353.23,-491.74"/>
<polygon fill="midnightblue" stroke="midnightblue" points="391.7,-499.07 402,-496.57 392.39,-492.1 391.7,-499.07"/>
</g>
<!-- Node8 -->
<g id="node8" class="node">
<title>Node8</title>
<g id="a_node8"><a xlink:href="test__decmp_8c_a6e7a5e150e2c829836db3c42cdec2eec.html#a6e7a5e150e2c829836db3c42cdec2eec" target="_top" xlink:title=" ">
<polygon fill="white" stroke="black" points="182,-436.5 182,-455.5 366,-455.5 366,-436.5 182,-436.5"/>
<text text-anchor="middle" x="274" y="-443.5" font-family="Helvetica,sans-Serif" font-size="10.00">test_cmp_decmp_n_imagette_raw</text>
</a>
</g>
</g>
<!-- Node5&#45;&gt;Node8 -->
<g id="edge7" class="edge">
<title>Node5&#45;&gt;Node8</title>
<path fill="none" stroke="midnightblue" d="M435.08,-489.55C415.42,-481.62 389.55,-471.84 366,-465 353.76,-461.44 340.4,-458.27 327.79,-455.59"/>
<polygon fill="midnightblue" stroke="midnightblue" points="433.89,-492.84 444.47,-493.38 436.54,-486.36 433.89,-492.84"/>
</g>
<!-- Node9 -->
<g id="node9" class="node">
<title>Node9</title>
<g id="a_node9"><a xlink:href="test__decmp_8c_a1a33e2fcbf484c79dfe661b280386f6b.html#a1a33e2fcbf484c79dfe661b280386f6b" target="_top" xlink:title=" ">
<polygon fill="white" stroke="black" points="201,-588.5 201,-607.5 347,-607.5 347,-588.5 201,-588.5"/>
<text text-anchor="middle" x="274" y="-595.5" font-family="Helvetica,sans-Serif" font-size="10.00">test_cmp_decmp_s_fx_diff</text>
</a>
</g>
</g>
<!-- Node5&#45;&gt;Node9 -->
<g id="edge8" class="edge">
<title>Node5&#45;&gt;Node9</title>
<path fill="none" stroke="midnightblue" d="M449.86,-519.71C430.92,-537.21 398.73,-564.17 366,-579 357.47,-582.86 348.14,-585.95 338.8,-588.42"/>
<polygon fill="midnightblue" stroke="midnightblue" points="452.49,-522.04 457.36,-512.63 447.69,-516.95 452.49,-522.04"/>
</g>
<!-- Node10 -->
<g id="node10" class="node">
<title>Node10</title>
<g id="a_node10"><a xlink:href="test__decmp_8c_acfebf2fa7515f5449e0cfa594457b66b.html#acfebf2fa7515f5449e0cfa594457b66b" target="_top" xlink:title=" ">
<polygon fill="white" stroke="black" points="233,-550.5 233,-569.5 315,-569.5 315,-550.5 233,-550.5"/>
<text text-anchor="middle" x="274" y="-557.5" font-family="Helvetica,sans-Serif" font-size="10.00">test_s_fx_diff</text>
</a>
</g>
</g>
<!-- Node5&#45;&gt;Node10 -->
<g id="edge9" class="edge">
<title>Node5&#45;&gt;Node10</title>
<path fill="none" stroke="midnightblue" d="M435.08,-516.45C415.42,-524.38 389.55,-534.16 366,-541 349.57,-545.77 331.15,-549.85 315.19,-552.99"/>
<polygon fill="midnightblue" stroke="midnightblue" points="436.54,-519.64 444.47,-512.62 433.89,-513.16 436.54,-519.64"/>
</g>
<!-- Node11 -->
<g id="node11" class="node">
<title>Node11</title>
<g id="a_node11"><a xlink:href="test__decmp_8c_a953eeaad914985c0816dde26d47ffef0.html#a953eeaad914985c0816dde26d47ffef0" target="_top" xlink:title=" ">
<polygon fill="white" stroke="black" points="225.5,-512.5 225.5,-531.5 322.5,-531.5 322.5,-512.5 225.5,-512.5"/>
<text text-anchor="middle" x="274" y="-519.5" font-family="Helvetica,sans-Serif" font-size="10.00">test_s_fx_model</text>
</a>
</g>
</g>
<!-- Node5&#45;&gt;Node11 -->
<g id="edge10" class="edge">
<title>Node5&#45;&gt;Node11</title>
<path fill="none" stroke="midnightblue" d="M391.79,-510.44C368.51,-512.75 343.51,-515.22 322.64,-517.29"/>
<polygon fill="midnightblue" stroke="midnightblue" points="392.39,-513.9 402,-509.43 391.7,-506.93 392.39,-513.9"/>
</g>
<!-- Node7 -->
<g id="node7" class="node">
<title>Node7</title>
<g id="a_node7"><a xlink:href="test__cmp__decmp_8c_af3c162694b40683e0aa25c61a49cdafc.html#af3c162694b40683e0aa25c61a49cdafc" target="_top" xlink:title="random compression decompression test">
<polygon fill="white" stroke="black" points="0,-469 0,-499 146,-499 146,-469 0,-469"/>
<text text-anchor="start" x="8" y="-487" font-family="Helvetica,sans-Serif" font-size="10.00">test_random_compression</text>
<text text-anchor="middle" x="73" y="-476" font-family="Helvetica,sans-Serif" font-size="10.00">_decompression</text>
</a>
</g>
</g>
<!-- Node6&#45;&gt;Node7 -->
<g id="edge6" class="edge">
<title>Node6&#45;&gt;Node7</title>
<path fill="none" stroke="midnightblue" d="M184.63,-484C171.72,-484 158.55,-484 146.01,-484"/>
<polygon fill="midnightblue" stroke="midnightblue" points="184.92,-487.5 194.92,-484 184.92,-480.5 184.92,-487.5"/>
</g>
<!-- Node13 -->
<g id="node13" class="node">
<title>Node13</title>
<g id="a_node13"><a xlink:href="test__cmp__decmp_8c_abb20ed18a3c6ba0fc67ecef2d629dec0.html#abb20ed18a3c6ba0fc67ecef2d629dec0" target="_top" xlink:title=" ">
<polygon fill="white" stroke="black" points="201,-387 201,-417 347,-417 347,-387 201,-387"/>
<text text-anchor="start" x="209" y="-405" font-family="Helvetica,sans-Serif" font-size="10.00">test_random_compression</text>
<text text-anchor="middle" x="274" y="-394" font-family="Helvetica,sans-Serif" font-size="10.00">_decompression2</text>
</a>
</g>
</g>
<!-- Node12&#45;&gt;Node13 -->
<g id="edge12" class="edge">
<title>Node12&#45;&gt;Node13</title>
<path fill="none" stroke="midnightblue" d="M412.54,-431.37C391.73,-426.93 367.7,-421.8 345.61,-417.08"/>
<polygon fill="midnightblue" stroke="midnightblue" points="411.96,-434.83 422.47,-433.49 413.42,-427.98 411.96,-434.83"/>
</g>
<!-- Node14&#45;&gt;Node4 -->
<g id="edge14" class="edge">
<title>Node14&#45;&gt;Node4</title>
<path fill="none" stroke="midnightblue" d="M778.81,-553.21C773.71,-551.37 768.69,-549.31 764,-547 721.68,-526.21 679.05,-489.13 660.13,-471.64"/>
<polygon fill="midnightblue" stroke="midnightblue" points="778.08,-556.65 788.67,-556.48 780.28,-550.01 778.08,-556.65"/>
</g>
<!-- Node15&#45;&gt;Node4 -->
<g id="edge16" class="edge">
<title>Node15&#45;&gt;Node4</title>
<path fill="none" stroke="midnightblue" d="M787.43,-515.57C779.58,-513.19 771.52,-510.62 764,-508 731.55,-496.71 694.82,-481.43 672.04,-471.64"/>
<polygon fill="midnightblue" stroke="midnightblue" points="786.62,-518.98 797.2,-518.47 788.61,-512.27 786.62,-518.98"/>
</g>
<!-- Node16&#45;&gt;Node4 -->
<g id="edge18" class="edge">
<title>Node16&#45;&gt;Node4</title>
<path fill="none" stroke="midnightblue" d="M762.32,-475.58C751.19,-474.23 739.6,-472.83 728.27,-471.46"/>
<polygon fill="midnightblue" stroke="midnightblue" points="762.06,-479.07 772.41,-476.8 762.9,-472.12 762.06,-479.07"/>
</g>
<!-- Node17&#45;&gt;Node4 -->
<g id="edge20" class="edge">
<title>Node17&#45;&gt;Node4</title>
<path fill="none" stroke="midnightblue" d="M758.86,-448.84C748.74,-450.06 738.31,-451.32 728.11,-452.56"/>
<polygon fill="midnightblue" stroke="midnightblue" points="759.35,-452.31 768.86,-447.63 758.51,-445.36 759.35,-452.31"/>
</g>
<!-- Node18&#45;&gt;Node4 -->
<g id="edge22" class="edge">
<title>Node18&#45;&gt;Node4</title>
<path fill="none" stroke="midnightblue" d="M769.55,-753.32C767.6,-752 765.74,-750.57 764,-749 675.51,-669.4 654.77,-512.03 650.82,-471.63"/>
<polygon fill="midnightblue" stroke="midnightblue" points="768.16,-756.56 778.6,-758.39 771.58,-750.45 768.16,-756.56"/>
</g>
<!-- Node19 -->
<g id="node19" class="node">
<title>Node19</title>
<g id="a_node19"><a xlink:href="test__decmp_8c_a86f0175a42bc3897a2544ead6d1e3d5a.html#a86f0175a42bc3897a2544ead6d1e3d5a" target="_top" xlink:title=" ">
<polygon fill="white" stroke="black" points="574.5,-753 574.5,-783 723.5,-783 723.5,-753 574.5,-753"/>
<text text-anchor="start" x="582.5" y="-771" font-family="Helvetica,sans-Serif" font-size="10.00">test_decompress_imagette</text>
<text text-anchor="middle" x="649" y="-760" font-family="Helvetica,sans-Serif" font-size="10.00">_model</text>
</a>
</g>
</g>
<!-- Node18&#45;&gt;Node19 -->
<g id="edge23" class="edge">
<title>Node18&#45;&gt;Node19</title>
<path fill="none" stroke="midnightblue" d="M760.35,-768C748.25,-768 735.67,-768 723.52,-768"/>
<polygon fill="midnightblue" stroke="midnightblue" points="760.38,-771.5 770.38,-768 760.38,-764.5 760.38,-771.5"/>
</g>
<!-- Node20&#45;&gt;Node4 -->
<g id="edge25" class="edge">
<title>Node20&#45;&gt;Node4</title>
<path fill="none" stroke="midnightblue" d="M786.21,-414.3C778.76,-416.44 771.15,-418.72 764,-421 733.14,-430.85 698.16,-443.68 675.18,-452.35"/>
<polygon fill="midnightblue" stroke="midnightblue" points="787.19,-417.66 795.86,-411.57 785.28,-410.93 787.19,-417.66"/>
</g>
<!-- Node21&#45;&gt;Node4 -->
<g id="edge27" class="edge">
<title>Node21&#45;&gt;Node4</title>
<path fill="none" stroke="midnightblue" d="M779.74,-376.66C774.33,-378.55 768.99,-380.65 764,-383 723.03,-402.25 680.75,-435.83 661.18,-452.31"/>
<polygon fill="midnightblue" stroke="midnightblue" points="781.05,-379.92 789.49,-373.52 778.9,-373.26 781.05,-379.92"/>
</g>
<!-- Node22&#45;&gt;Node4 -->
<g id="edge29" class="edge">
<title>Node22&#45;&gt;Node4</title>
<path fill="none" stroke="midnightblue" d="M773.71,-339.39C770.35,-341.13 767.08,-343 764,-345 716.17,-376.02 673.17,-430.45 656.9,-452.41"/>
<polygon fill="midnightblue" stroke="midnightblue" points="775.27,-342.52 782.8,-335.07 772.27,-336.2 775.27,-342.52"/>
</g>
<!-- Node23&#45;&gt;Node4 -->
<g id="edge31" class="edge">
<title>Node23&#45;&gt;Node4</title>
<path fill="none" stroke="midnightblue" d="M772.57,-289.78C769.57,-291.34 766.69,-293.07 764,-295 703.81,-338.17 665.39,-423.62 653.75,-452.34"/>
<polygon fill="midnightblue" stroke="midnightblue" points="774.16,-292.9 781.85,-285.62 771.29,-286.52 774.16,-292.9"/>
</g>
<!-- Node24&#45;&gt;Node4 -->
<g id="edge33" class="edge">
<title>Node24&#45;&gt;Node4</title>
<path fill="none" stroke="midnightblue" d="M771.34,-252.06C768.76,-253.54 766.3,-255.19 764,-257 695.26,-311.22 661.57,-418.96 652.55,-452.08"/>
<polygon fill="midnightblue" stroke="midnightblue" points="773.02,-255.13 780.46,-247.59 769.94,-248.85 773.02,-255.13"/>
</g>
<!-- Node25&#45;&gt;Node4 -->
<g id="edge35" class="edge">
<title>Node25&#45;&gt;Node4</title>
<path fill="none" stroke="midnightblue" d="M772.95,-212.84C769.76,-214.63 766.75,-216.67 764,-219 686.1,-284.92 658.05,-415.89 651.57,-452.37"/>
<polygon fill="midnightblue" stroke="midnightblue" points="774.74,-215.86 782.28,-208.41 771.75,-209.53 774.74,-215.86"/>
</g>
<!-- Node26&#45;&gt;Node4 -->
<g id="edge37" class="edge">
<title>Node26&#45;&gt;Node4</title>
<path fill="none" stroke="midnightblue" d="M769.56,-176.69C767.61,-178.01 765.75,-179.44 764,-181 677.02,-258.67 655.21,-412.3 650.91,-452.3"/>
<polygon fill="midnightblue" stroke="midnightblue" points="771.6,-179.57 778.63,-171.64 768.19,-173.45 771.6,-179.57"/>
</g>
<!-- Node27&#45;&gt;Node4 -->
<g id="edge39" class="edge">
<title>Node27&#45;&gt;Node4</title>
<path fill="none" stroke="midnightblue" d="M769.52,-703.45C767.59,-702.06 765.74,-700.58 764,-699 690.32,-632.08 659.46,-507.27 651.92,-471.69"/>
<polygon fill="midnightblue" stroke="midnightblue" points="768.1,-706.69 778.44,-708.98 771.79,-700.74 768.1,-706.69"/>
</g>
<!-- Node28&#45;&gt;Node4 -->
<g id="edge41" class="edge">
<title>Node28&#45;&gt;Node4</title>
<path fill="none" stroke="midnightblue" d="M771.79,-666.14C769.05,-664.6 766.44,-662.9 764,-661 696.45,-608.41 661.96,-503.79 652.64,-471.63"/>
<polygon fill="midnightblue" stroke="midnightblue" points="770.33,-669.32 780.86,-670.49 773.36,-663.01 770.33,-669.32"/>
</g>
<!-- Node29&#45;&gt;Node4 -->
<g id="edge43" class="edge">
<title>Node29&#45;&gt;Node4</title>
<path fill="none" stroke="midnightblue" d="M773.06,-628.4C769.89,-626.79 766.84,-625 764,-623 705.2,-581.59 666.16,-499.78 654.02,-471.72"/>
<polygon fill="midnightblue" stroke="midnightblue" points="771.7,-631.62 782.26,-632.43 774.51,-625.21 771.7,-631.62"/>
</g>
<!-- Node34&#45;&gt;Node3 -->
<g id="edge49" class="edge">
<title>Node34&#45;&gt;Node3</title>
<path fill="none" stroke="midnightblue" d="M997.51,-459.2C982.71,-490.41 949.21,-551.97 902,-585 896.48,-588.87 890.19,-591.95 883.72,-594.4"/>
<polygon fill="midnightblue" stroke="midnightblue" points="1000.8,-460.41 1001.8,-449.86 994.44,-457.48 1000.8,-460.41"/>
</g>
<!-- Node34&#45;&gt;Node14 -->
<g id="edge50" class="edge">
<title>Node34&#45;&gt;Node14</title>
<path fill="none" stroke="midnightblue" d="M993.5,-457.81C975.83,-481.65 941.3,-523.65 902,-547 895.47,-550.88 888.11,-554 880.71,-556.49"/>
<polygon fill="midnightblue" stroke="midnightblue" points="996.39,-459.79 999.42,-449.64 990.72,-455.68 996.39,-459.79"/>
</g>
<!-- Node34&#45;&gt;Node15 -->
<g id="edge51" class="edge">
<title>Node34&#45;&gt;Node15</title>
<path fill="none" stroke="midnightblue" d="M985.76,-455.83C965.53,-471 933.05,-493.66 902,-508 893.06,-512.13 883.07,-515.63 873.56,-518.49"/>
<polygon fill="midnightblue" stroke="midnightblue" points="988.06,-458.48 993.89,-449.64 983.81,-452.91 988.06,-458.48"/>
</g>
<!-- Node34&#45;&gt;Node16 -->
<g id="edge52" class="edge">
<title>Node34&#45;&gt;Node16</title>
<path fill="none" stroke="midnightblue" d="M958.99,-452.03C938.59,-457.25 914.47,-463.41 892.89,-468.93"/>
<polygon fill="midnightblue" stroke="midnightblue" points="959.86,-455.42 968.68,-449.55 958.12,-448.63 959.86,-455.42"/>
</g>
<!-- Node34&#45;&gt;Node17 -->
<g id="edge53" class="edge">
<title>Node34&#45;&gt;Node17</title>
<path fill="none" stroke="midnightblue" d="M954.73,-440C936.62,-440 916.02,-440 897.04,-440"/>
<polygon fill="midnightblue" stroke="midnightblue" points="954.8,-443.5 964.8,-440 954.8,-436.5 954.8,-443.5"/>
</g>
<!-- Node34&#45;&gt;Node18 -->
<g id="edge54" class="edge">
<title>Node34&#45;&gt;Node18</title>
<path fill="none" stroke="midnightblue" d="M1005.42,-459.82C1002.71,-514.34 987.47,-667.88 902,-749 897.91,-752.88 893.09,-755.98 887.95,-758.46"/>
<polygon fill="midnightblue" stroke="midnightblue" points="1008.92,-459.88 1005.83,-449.75 1001.92,-459.6 1008.92,-459.88"/>
</g>
<!-- Node34&#45;&gt;Node20 -->
<g id="edge55" class="edge">
<title>Node34&#45;&gt;Node20</title>
<path fill="none" stroke="midnightblue" d="M954.88,-428.71C930.17,-423.25 900.84,-416.77 877.26,-411.56"/>
<polygon fill="midnightblue" stroke="midnightblue" points="954.28,-432.16 964.8,-430.9 955.79,-425.32 954.28,-432.16"/>
</g>
<!-- Node34&#45;&gt;Node21 -->
<g id="edge56" class="edge">
<title>Node34&#45;&gt;Node21</title>
<path fill="none" stroke="midnightblue" d="M955.39,-429.19C949.32,-426.94 943.37,-424.24 938,-421 918.08,-408.99 921.92,-395.01 902,-383 895.6,-379.14 888.38,-376.04 881.11,-373.56"/>
<polygon fill="midnightblue" stroke="midnightblue" points="954.37,-432.55 964.97,-432.38 956.58,-425.9 954.37,-432.55"/>
</g>
<!-- Node34&#45;&gt;Node22 -->
<g id="edge57" class="edge">
<title>Node34&#45;&gt;Node22</title>
<path fill="none" stroke="midnightblue" d="M954.96,-431.03C948.83,-428.47 942.98,-425.2 938,-421 909.42,-396.91 929.59,-370.21 902,-345 897.82,-341.18 893.01,-337.93 887.92,-335.17"/>
<polygon fill="midnightblue" stroke="midnightblue" points="954.16,-434.46 964.76,-434.47 956.49,-427.85 954.16,-434.46"/>
</g>
<!-- Node34&#45;&gt;Node23 -->
<g id="edge58" class="edge">
<title>Node34&#45;&gt;Node23</title>
<path fill="none" stroke="midnightblue" d="M955.17,-432.16C948.81,-429.44 942.85,-425.82 938,-421 896.7,-379.94 943.3,-336.06 902,-295 898.09,-291.11 893.45,-288 888.46,-285.52"/>
<polygon fill="midnightblue" stroke="midnightblue" points="954.1,-435.49 964.69,-435.52 956.43,-428.89 954.1,-435.49"/>
</g>
<!-- Node34&#45;&gt;Node24 -->
<g id="edge59" class="edge">
<title>Node34&#45;&gt;Node24</title>
<path fill="none" stroke="midnightblue" d="M955.12,-432.53C948.71,-429.76 942.75,-426.03 938,-421 886.74,-366.77 953.26,-311.23 902,-257 897.96,-252.72 893.04,-249.38 887.72,-246.78"/>
<polygon fill="midnightblue" stroke="midnightblue" points="954.14,-435.9 964.74,-435.93 956.48,-429.3 954.14,-435.9"/>
</g>
<!-- Node34&#45;&gt;Node25 -->
<g id="edge60" class="edge">
<title>Node34&#45;&gt;Node25</title>
<path fill="none" stroke="midnightblue" d="M955.16,-432.8C948.7,-430 942.71,-426.18 938,-421 876.69,-353.49 963.31,-286.51 902,-219 896.97,-213.46 890.48,-209.49 883.51,-206.64"/>
<polygon fill="midnightblue" stroke="midnightblue" points="954.29,-436.2 964.89,-436.22 956.62,-429.6 954.29,-436.2"/>
</g>
<!-- Node34&#45;&gt;Node26 -->
<g id="edge61" class="edge">
<title>Node34&#45;&gt;Node26</title>
<path fill="none" stroke="midnightblue" d="M955.04,-432.91C948.59,-430.1 942.63,-426.25 938,-421 866.59,-340.17 973.41,-261.83 902,-181 898.59,-177.14 894.47,-174.04 889.96,-171.55"/>
<polygon fill="midnightblue" stroke="midnightblue" points="954.15,-436.31 964.75,-436.34 956.48,-429.71 954.15,-436.31"/>
</g>
<!-- Node34&#45;&gt;Node27 -->
<g id="edge62" class="edge">
<title>Node34&#45;&gt;Node27</title>
<path fill="none" stroke="midnightblue" d="M1003.57,-459.73C996.67,-507.48 972.66,-630.4 902,-699 898.03,-702.86 893.41,-706.12 888.49,-708.89"/>
<polygon fill="midnightblue" stroke="midnightblue" points="1007.08,-459.9 1004.95,-449.52 1000.14,-458.96 1007.08,-459.9"/>
</g>
<!-- Node34&#45;&gt;Node28 -->
<g id="edge63" class="edge">
<title>Node34&#45;&gt;Node28</title>
<path fill="none" stroke="midnightblue" d="M1002.44,-459.76C993.6,-502.99 966.51,-606.47 902,-661 897.41,-664.88 892.09,-667.97 886.48,-670.43"/>
<polygon fill="midnightblue" stroke="midnightblue" points="1005.92,-460.17 1004.39,-449.69 999.05,-458.84 1005.92,-460.17"/>
</g>
<!-- Node34&#45;&gt;Node29 -->
<g id="edge64" class="edge">
<title>Node34&#45;&gt;Node29</title>
<path fill="none" stroke="midnightblue" d="M1000.46,-459.4C988.74,-496.88 957.82,-579.38 902,-623 897.07,-626.85 891.41,-629.92 885.5,-632.37"/>
<polygon fill="midnightblue" stroke="midnightblue" points="1003.85,-460.28 1003.37,-449.7 997.15,-458.27 1003.85,-460.28"/>
</g>
</g>
</svg>
        <g id="navigator" transform="translate(0 0)" fill="#404254">
                <rect fill="#f2f5e9" fill-opacity="0.5" stroke="#606060" stroke-width=".5" x="0" y="0" width="60" height="60"/>
                <use id="zoomplus" xlink:href="#zoomPlus" x="17" y="9" onmousedown="handleZoom(evt,'in')"/>
                <use id="zoomminus" xlink:href="#zoomMin" x="42" y="9" onmousedown="handleZoom(evt,'out')"/>
                <use id="reset" xlink:href="#resetDef" x="30" y="36" onmousedown="handleReset()"/>
                <g id="arrowUp" xlink:href="#dirArrow" transform="translate(30 24)" onmousedown="handlePan(0,-1)">
                  <use xlink:href="#rim" fill="#404040">
                        <set attributeName="fill" to="#808080" begin="arrowUp.mouseover" end="arrowUp.mouseout"/>
                  </use>
                  <path fill="none" stroke="white" stroke-width="1.5" d="M0,-3.0v7 M-2.5,-0.5L0,-3.0L2.5,-0.5"/>
                </g>
                <g id="arrowRight" xlink:href="#dirArrow" transform="rotate(90) translate(36 -43)" onmousedown="handlePan(1,0)">
                  <use xlink:href="#rim" fill="#404040">
                        <set attributeName="fill" to="#808080" begin="arrowRight.mouseover" end="arrowRight.mouseout"/>
                  </use>
                  <path fill="none" stroke="white" stroke-width="1.5" d="M0,-3.0v7 M-2.5,-0.5L0,-3.0L2.5,-0.5"/>
                </g>
                <g id="arrowDown" xlink:href="#dirArrow" transform="rotate(180) translate(-30 -48)" onmousedown="handlePan(0,1)">
                  <use xlink:href="#rim" fill="#404040">
                        <set attributeName="fill" to="#808080" begin="arrowDown.mouseover" end="arrowDown.mouseout"/>
                  </use>
                  <path fill="none" stroke="white" stroke-width="1.5" d="M0,-3.0v7 M-2.5,-0.5L0,-3.0L2.5,-0.5"/>
                </g>
                <g id="arrowLeft" xlink:href="#dirArrow" transform="rotate(270) translate(-36 17)" onmousedown="handlePan(-1,0)">
                  <use xlink:href="#rim" fill="#404040">
                        <set attributeName="fill" to="#808080" begin="arrowLeft.mouseover" end="arrowLeft.mouseout"/>
                  </use>
                  <path fill="none" stroke="white" stroke-width="1.5" d="M0,-3.0v7 M-2.5,-0.5L0,-3.0L2.5,-0.5"/>
                </g>
        </g>
        <svg viewBox="0 0 15 15" width="100%" height="30px" preserveAspectRatio="xMaxYMin meet">
         <g id="arrow_out" transform="scale(0.3 0.3)">
          <a xlink:href="decmp_8c_a071c03ef3d6f70f5be1e9aeb41fc157a_a071c03ef3d6f70f5be1e9aeb41fc157a_icgraph_org.svg" target="_base">
           <rect id="button" ry="5" rx="5" y="6" x="6" height="38" width="38"
                fill="#f2f5e9" fill-opacity="0.5" stroke="#606060" stroke-width="1.0"/>
           <path id="arrow"
             d="M 11.500037,31.436501 C 11.940474,20.09759 22.043105,11.32322 32.158766,21.979434 L 37.068811,17.246167 C 37.068811,17.246167 37.088388,32 37.088388,32 L 22.160133,31.978069 C 22.160133,31.978069 26.997745,27.140456 26.997745,27.140456 C 18.528582,18.264221 13.291696,25.230495 11.500037,31.436501 z"
             style="fill:#404040;"/>
          </a>
         </g>
        </svg>
</svg>
