<?xml version="1.0" encoding="UTF-8" standalone="no"?>
<!DOCTYPE svg PUBLIC "-//W3C//DTD SVG 1.1//EN"
 "http://www.w3.org/Graphics/SVG/1.1/DTD/svg11.dtd">
<!-- Generated by graphviz version 2.43.0 (0)
 -->
<!-- Title: decode_value Pages: 1 -->
<!--zoomable 640 -->
<svg id="main" version="1.1" xmlns="http://www.w3.org/2000/svg" xmlns:xlink="http://www.w3.org/1999/xlink" xml:space="preserve" onload="init(evt)">
<style type="text/css"><![CDATA[
.edge:hover path { stroke: red; }
.edge:hover polygon { stroke: red; fill: red; }
]]></style>
<script type="text/javascript"><![CDATA[
var edges = document.getElementsByTagName('g');
if (edges && edges.length) {
  for (var i=0;i<edges.length;i++) {
    if (edges[i].id.substr(0,4)=='edge') {
      edges[i].setAttribute('class','edge');
    }
  }
}
]]></script>
        <defs>
                <circle id="rim" cx="0" cy="0" r="7"/>
                <circle id="rim2" cx="0" cy="0" r="3.5"/>
                <g id="zoomPlus">
                        <use xlink:href="#rim" fill="#404040">
                                <set attributeName="fill" to="#808080" begin="zoomplus.mouseover" end="zoomplus.mouseout"/>
                        </use>
                        <path d="M-4,0h8M0,-4v8" fill="none" stroke="white" stroke-width="1.5" pointer-events="none"/>
                </g>
                <g id="zoomMin">
                        <use xlink:href="#rim" fill="#404040">
                                <set attributeName="fill" to="#808080" begin="zoomminus.mouseover" end="zoomminus.mouseout"/>
                        </use>
                        <path d="M-4,0h8" fill="none" stroke="white" stroke-width="1.5" pointer-events="none"/>
                </g>
                <g id="dirArrow">
                        <path fill="none" stroke="white" stroke-width="1.5" d="M0,-3.0v7 M-2.5,-0.5L0,-3.0L2.5,-0.5"/>
                </g>
               <g id="resetDef">
                       <use xlink:href="#rim2" fill="#404040">
                               <set attributeName="fill" to="#808080" begin="reset.mouseover" end="reset.mouseout"/>
                       </use>
               </g>
        </defs>

<script type="text/javascript">
var viewWidth = 1030;
var viewHeight = 640;
var sectionId = 'dynsection-1';
</script>
<script xlink:href="svgpan.js"/>
<svg id="graph" class="graph">
<g id="viewport">
<title>decode_value</title>
<polygon fill="white" stroke="transparent" points="-4,4 -4,-635.5 1026,-635.5 1026,4 -4,4"/>
<!-- Node1 -->
<g id="node1" class="node">
<title>Node1</title>
<g id="a_node1"><a xlink:title="decompress the next code word in the bitstream and decorate it with the model">
<polygon fill="#bfbfbf" stroke="black" points="938,-306.5 938,-325.5 1022,-325.5 1022,-306.5 938,-306.5"/>
<text text-anchor="middle" x="980" y="-313.5" font-family="Helvetica,sans-Serif" font-size="10.00">decode_value</text>
</a>
</g>
</g>
<!-- Node2 -->
<g id="node2" class="node">
<title>Node2</title>
<g id="a_node2"><a xlink:href="decmp_8c_ae8bbe9e530e670af67db5d739f15f120.html#ae8bbe9e530e670af67db5d739f15f120" target="_top" xlink:title="decompress N&#45;CAM background data">
<polygon fill="white" stroke="black" points="764,-568.5 764,-587.5 902,-587.5 902,-568.5 764,-568.5"/>
<text text-anchor="middle" x="833" y="-575.5" font-family="Helvetica,sans-Serif" font-size="10.00">decompress_background</text>
</a>
</g>
</g>
<!-- Node1&#45;&gt;Node2 -->
<g id="edge1" class="edge">
<title>Node1&#45;&gt;Node2</title>
<path fill="none" stroke="midnightblue" d="M978.75,-335.66C977.05,-381.62 966.25,-496.92 902,-559 898.03,-562.83 893.36,-565.91 888.35,-568.37"/>
<polygon fill="midnightblue" stroke="midnightblue" points="982.25,-335.63 979.01,-325.54 975.25,-335.45 982.25,-335.63"/>
</g>
<!-- Node13 -->
<g id="node13" class="node">
<title>Node13</title>
<g id="a_node13"><a xlink:href="decmp_8c_ac44d884cb830d9b0dbbca34c6db2de7d.html#ac44d884cb830d9b0dbbca34c6db2de7d" target="_top" xlink:title="decompress fast normal light flux (F_FX) data">
<polygon fill="white" stroke="black" points="783,-530.5 783,-549.5 883,-549.5 883,-530.5 783,-530.5"/>
<text text-anchor="middle" x="833" y="-537.5" font-family="Helvetica,sans-Serif" font-size="10.00">decompress_f_fx</text>
</a>
</g>
</g>
<!-- Node1&#45;&gt;Node13 -->
<g id="edge12" class="edge">
<title>Node1&#45;&gt;Node13</title>
<path fill="none" stroke="midnightblue" d="M977.38,-335.88C972.97,-376.73 957.07,-470.51 902,-521 896.58,-525.97 889.96,-529.65 883.01,-532.38"/>
<polygon fill="midnightblue" stroke="midnightblue" points="980.87,-336.13 978.34,-325.84 973.9,-335.46 980.87,-336.13"/>
</g>
<!-- Node14 -->
<g id="node14" class="node">
<title>Node14</title>
<g id="a_node14"><a xlink:href="decmp_8c_a84e912fefa1f49f27885af0d855a4989.html#a84e912fefa1f49f27885af0d855a4989" target="_top" xlink:title="decompress F_FX_EFX data">
<polygon fill="white" stroke="black" points="772.5,-492.5 772.5,-511.5 893.5,-511.5 893.5,-492.5 772.5,-492.5"/>
<text text-anchor="middle" x="833" y="-499.5" font-family="Helvetica,sans-Serif" font-size="10.00">decompress_f_fx_efx</text>
</a>
</g>
</g>
<!-- Node1&#45;&gt;Node14 -->
<g id="edge14" class="edge">
<title>Node1&#45;&gt;Node14</title>
<path fill="none" stroke="midnightblue" d="M975.54,-335.52C968.31,-370.42 948.27,-443.58 902,-483 897.43,-486.9 892.11,-490 886.51,-492.46"/>
<polygon fill="midnightblue" stroke="midnightblue" points="978.99,-336.1 977.45,-325.62 972.12,-334.77 978.99,-336.1"/>
</g>
<!-- Node15 -->
<g id="node15" class="node">
<title>Node15</title>
<g id="a_node15"><a xlink:href="decmp_8c_aac2934ca104c49490be71c4966d2b173.html#aac2934ca104c49490be71c4966d2b173" target="_top" xlink:title="decompress short F_FX_NCOB_ECOB data">
<polygon fill="white" stroke="black" points="772.5,-443 772.5,-473 893.5,-473 893.5,-443 772.5,-443"/>
<text text-anchor="start" x="780.5" y="-461" font-family="Helvetica,sans-Serif" font-size="10.00">decompress_f_fx_efx</text>
<text text-anchor="middle" x="833" y="-450" font-family="Helvetica,sans-Serif" font-size="10.00">_ncob_ecob</text>
</a>
</g>
</g>
<!-- Node1&#45;&gt;Node15 -->
<g id="edge16" class="edge">
<title>Node1&#45;&gt;Node15</title>
<path fill="none" stroke="midnightblue" d="M971.1,-335.06C959.53,-360.74 935.66,-406.31 902,-433 897.17,-436.83 891.7,-440.11 886.01,-442.91"/>
<polygon fill="midnightblue" stroke="midnightblue" points="974.4,-336.24 975.17,-325.68 967.97,-333.45 974.4,-336.24"/>
</g>
<!-- Node16 -->
<g id="node16" class="node">
<title>Node16</title>
<g id="a_node16"><a xlink:href="decmp_8c_a8310f64826697fb15c590854c08b3ad9.html#a8310f64826697fb15c590854c08b3ad9" target="_top" xlink:title="decompress short F_FX_NCOB data">
<polygon fill="white" stroke="black" points="769,-404.5 769,-423.5 897,-423.5 897,-404.5 769,-404.5"/>
<text text-anchor="middle" x="833" y="-411.5" font-family="Helvetica,sans-Serif" font-size="10.00">decompress_f_fx_ncob</text>
</a>
</g>
</g>
<!-- Node1&#45;&gt;Node16 -->
<g id="edge18" class="edge">
<title>Node1&#45;&gt;Node16</title>
<path fill="none" stroke="midnightblue" d="M966,-334.08C952.12,-352.1 928.51,-379.28 902,-395 895.46,-398.88 888.1,-401.99 880.7,-404.48"/>
<polygon fill="midnightblue" stroke="midnightblue" points="969.15,-335.71 972.34,-325.61 963.55,-331.52 969.15,-335.71"/>
</g>
<!-- Node17 -->
<g id="node17" class="node">
<title>Node17</title>
<g id="a_node17"><a xlink:href="decmp_8c_a62e230570f1d23f56fbe10fb238dbf1d.html#a62e230570f1d23f56fbe10fb238dbf1d" target="_top" xlink:title="decompress imagette data">
<polygon fill="white" stroke="black" points="770.5,-606.5 770.5,-625.5 895.5,-625.5 895.5,-606.5 770.5,-606.5"/>
<text text-anchor="middle" x="833" y="-613.5" font-family="Helvetica,sans-Serif" font-size="10.00">decompress_imagette</text>
</a>
</g>
</g>
<!-- Node1&#45;&gt;Node17 -->
<g id="edge20" class="edge">
<title>Node1&#45;&gt;Node17</title>
<path fill="none" stroke="midnightblue" d="M979.75,-335.89C980.54,-386.87 975.32,-523.32 902,-597 898.2,-600.82 893.69,-603.89 888.84,-606.36"/>
<polygon fill="midnightblue" stroke="midnightblue" points="983.24,-335.51 979.49,-325.61 976.25,-335.69 983.24,-335.51"/>
</g>
<!-- Node19 -->
<g id="node19" class="node">
<title>Node19</title>
<g id="a_node19"><a xlink:href="decmp_8c_a75f3c5c08234bce92e84d07a93e9a77d.html#a75f3c5c08234bce92e84d07a93e9a77d" target="_top" xlink:title="decompress long normal light flux (L_FX) data">
<polygon fill="white" stroke="black" points="783.5,-366.5 783.5,-385.5 882.5,-385.5 882.5,-366.5 783.5,-366.5"/>
<text text-anchor="middle" x="833" y="-373.5" font-family="Helvetica,sans-Serif" font-size="10.00">decompress_l_fx</text>
</a>
</g>
</g>
<!-- Node1&#45;&gt;Node19 -->
<g id="edge23" class="edge">
<title>Node1&#45;&gt;Node19</title>
<path fill="none" stroke="midnightblue" d="M954.55,-330.78C939.73,-339.29 920.22,-349.7 902,-357 893.01,-360.6 883.09,-363.79 873.68,-366.47"/>
<polygon fill="midnightblue" stroke="midnightblue" points="956.69,-333.58 963.55,-325.51 953.15,-327.54 956.69,-333.58"/>
</g>
<!-- Node20 -->
<g id="node20" class="node">
<title>Node20</title>
<g id="a_node20"><a xlink:href="decmp_8c_aa06fff345fa7fd62fb4fd7a619c118fe.html#aa06fff345fa7fd62fb4fd7a619c118fe" target="_top" xlink:title="decompress L_FX_EFX data">
<polygon fill="white" stroke="black" points="773,-328.5 773,-347.5 893,-347.5 893,-328.5 773,-328.5"/>
<text text-anchor="middle" x="833" y="-335.5" font-family="Helvetica,sans-Serif" font-size="10.00">decompress_l_fx_efx</text>
</a>
</g>
</g>
<!-- Node1&#45;&gt;Node20 -->
<g id="edge25" class="edge">
<title>Node1&#45;&gt;Node20</title>
<path fill="none" stroke="midnightblue" d="M927.79,-323.77C916.57,-325.47 904.62,-327.29 893.13,-329.03"/>
<polygon fill="midnightblue" stroke="midnightblue" points="928.47,-327.21 937.84,-322.25 927.42,-320.29 928.47,-327.21"/>
</g>
<!-- Node21 -->
<g id="node21" class="node">
<title>Node21</title>
<g id="a_node21"><a xlink:href="decmp_8c_a36a5692cbd5d1e46805ba3f1dac23f60.html#a36a5692cbd5d1e46805ba3f1dac23f60" target="_top" xlink:title="decompress L_FX_EFX_NCOB_ECOB data">
<polygon fill="white" stroke="black" points="773,-279 773,-309 893,-309 893,-279 773,-279"/>
<text text-anchor="start" x="781" y="-297" font-family="Helvetica,sans-Serif" font-size="10.00">decompress_l_fx_efx</text>
<text text-anchor="middle" x="833" y="-286" font-family="Helvetica,sans-Serif" font-size="10.00">_ncob_ecob</text>
</a>
</g>
</g>
<!-- Node1&#45;&gt;Node21 -->
<g id="edge27" class="edge">
<title>Node1&#45;&gt;Node21</title>
<path fill="none" stroke="midnightblue" d="M927.79,-308.23C916.57,-306.53 904.62,-304.71 893.13,-302.97"/>
<polygon fill="midnightblue" stroke="midnightblue" points="927.42,-311.71 937.84,-309.75 928.47,-304.79 927.42,-311.71"/>
</g>
<!-- Node22 -->
<g id="node22" class="node">
<title>Node22</title>
<g id="a_node22"><a xlink:href="decmp_8c_a5883c910a0e8e829e60844e78da88e96.html#a5883c910a0e8e829e60844e78da88e96" target="_top" xlink:title="decompress L_FX_NCOB data">
<polygon fill="white" stroke="black" points="769,-240.5 769,-259.5 897,-259.5 897,-240.5 769,-240.5"/>
<text text-anchor="middle" x="833" y="-247.5" font-family="Helvetica,sans-Serif" font-size="10.00">decompress_l_fx_ncob</text>
</a>
</g>
</g>
<!-- Node1&#45;&gt;Node22 -->
<g id="edge29" class="edge">
<title>Node1&#45;&gt;Node22</title>
<path fill="none" stroke="midnightblue" d="M956.83,-300.71C941.87,-290.9 921.38,-278.47 902,-270 892.75,-265.96 882.46,-262.45 872.73,-259.55"/>
<polygon fill="midnightblue" stroke="midnightblue" points="955.12,-303.77 965.38,-306.41 959.01,-297.95 955.12,-303.77"/>
</g>
<!-- Node23 -->
<g id="node23" class="node">
<title>Node23</title>
<g id="a_node23"><a xlink:href="decmp_8c_a47d0a8b2f718f7d4659a34a6b516c79d.html#a47d0a8b2f718f7d4659a34a6b516c79d" target="_top" xlink:title="decompress N&#45;CAM and F&#45;CAM offset data">
<polygon fill="white" stroke="black" points="778.5,-202.5 778.5,-221.5 887.5,-221.5 887.5,-202.5 778.5,-202.5"/>
<text text-anchor="middle" x="833" y="-209.5" font-family="Helvetica,sans-Serif" font-size="10.00">decompress_offset</text>
</a>
</g>
</g>
<!-- Node1&#45;&gt;Node23 -->
<g id="edge31" class="edge">
<title>Node1&#45;&gt;Node23</title>
<path fill="none" stroke="midnightblue" d="M967.32,-297.96C953.86,-278.59 929.95,-248.27 902,-231 895.74,-227.13 888.68,-224.04 881.54,-221.56"/>
<polygon fill="midnightblue" stroke="midnightblue" points="964.58,-300.15 973.07,-306.49 970.38,-296.24 964.58,-300.15"/>
</g>
<!-- Node24 -->
<g id="node24" class="node">
<title>Node24</title>
<g id="a_node24"><a xlink:href="decmp_8c_ad57c4f63787216adcca82dca5a2c99ae.html#ad57c4f63787216adcca82dca5a2c99ae" target="_top" xlink:title="decompress short normal light flux (S_FX) data">
<polygon fill="white" stroke="black" points="782.5,-164.5 782.5,-183.5 883.5,-183.5 883.5,-164.5 782.5,-164.5"/>
<text text-anchor="middle" x="833" y="-171.5" font-family="Helvetica,sans-Serif" font-size="10.00">decompress_s_fx</text>
</a>
</g>
</g>
<!-- Node1&#45;&gt;Node24 -->
<g id="edge33" class="edge">
<title>Node1&#45;&gt;Node24</title>
<path fill="none" stroke="midnightblue" d="M972.13,-296.74C961.43,-269.5 938.16,-220.03 902,-193 896.5,-188.89 890.16,-185.67 883.6,-183.14"/>
<polygon fill="midnightblue" stroke="midnightblue" points="968.94,-298.18 975.73,-306.3 975.49,-295.71 968.94,-298.18"/>
</g>
<!-- Node25 -->
<g id="node25" class="node">
<title>Node25</title>
<g id="a_node25"><a xlink:href="decmp_8c_ae950fe1a6eeb3224f3491439a7149a1f.html#ae950fe1a6eeb3224f3491439a7149a1f" target="_top" xlink:title="decompress S_FX_EFX data">
<polygon fill="white" stroke="black" points="772,-126.5 772,-145.5 894,-145.5 894,-126.5 772,-126.5"/>
<text text-anchor="middle" x="833" y="-133.5" font-family="Helvetica,sans-Serif" font-size="10.00">decompress_s_fx_efx</text>
</a>
</g>
</g>
<!-- Node1&#45;&gt;Node25 -->
<g id="edge35" class="edge">
<title>Node1&#45;&gt;Node25</title>
<path fill="none" stroke="midnightblue" d="M975.11,-296.25C967.37,-262.23 946.76,-192.6 902,-155 897.4,-151.14 892.07,-148.06 886.46,-145.6"/>
<polygon fill="midnightblue" stroke="midnightblue" points="971.75,-297.28 977.26,-306.33 978.6,-295.82 971.75,-297.28"/>
</g>
<!-- Node26 -->
<g id="node26" class="node">
<title>Node26</title>
<g id="a_node26"><a xlink:href="decmp_8c_aee9e79676f49da2b257ad810955e4f09.html#aee9e79676f49da2b257ad810955e4f09" target="_top" xlink:title="decompress short S_FX_NCOB_ECOB data">
<polygon fill="white" stroke="black" points="772,-77 772,-107 894,-107 894,-77 772,-77"/>
<text text-anchor="start" x="780" y="-95" font-family="Helvetica,sans-Serif" font-size="10.00">decompress_s_fx_efx</text>
<text text-anchor="middle" x="833" y="-84" font-family="Helvetica,sans-Serif" font-size="10.00">_ncob_ecob</text>
</a>
</g>
</g>
<!-- Node1&#45;&gt;Node26 -->
<g id="edge37" class="edge">
<title>Node1&#45;&gt;Node26</title>
<path fill="none" stroke="midnightblue" d="M976.76,-296.23C971.26,-256.77 953.56,-167.7 902,-117 898.05,-113.12 893.46,-109.83 888.55,-107.06"/>
<polygon fill="midnightblue" stroke="midnightblue" points="973.29,-296.7 978.03,-306.18 980.23,-295.81 973.29,-296.7"/>
</g>
<!-- Node27 -->
<g id="node27" class="node">
<title>Node27</title>
<g id="a_node27"><a xlink:href="decmp_8c_a5075a002558af814210bd1c186a244f0.html#a5075a002558af814210bd1c186a244f0" target="_top" xlink:title="decompress short S_FX_NCOB data">
<polygon fill="white" stroke="black" points="768,-38.5 768,-57.5 898,-57.5 898,-38.5 768,-38.5"/>
<text text-anchor="middle" x="833" y="-45.5" font-family="Helvetica,sans-Serif" font-size="10.00">decompress_s_fx_ncob</text>
</a>
</g>
</g>
<!-- Node1&#45;&gt;Node27 -->
<g id="edge39" class="edge">
<title>Node1&#45;&gt;Node27</title>
<path fill="none" stroke="midnightblue" d="M978.82,-296.01C977.3,-249.24 966.84,-131.88 902,-68 897.62,-63.68 892.35,-60.29 886.72,-57.62"/>
<polygon fill="midnightblue" stroke="midnightblue" points="975.33,-296.38 979.05,-306.3 982.33,-296.22 975.33,-296.38"/>
</g>
<!-- Node28 -->
<g id="node28" class="node">
<title>Node28</title>
<g id="a_node28"><a xlink:href="decmp_8c_ab043a8a939e8818cf2875aecec205bb9.html#ab043a8a939e8818cf2875aecec205bb9" target="_top" xlink:title="decompress N&#45;CAM smearing data">
<polygon fill="white" stroke="black" points="769.5,-0.5 769.5,-19.5 896.5,-19.5 896.5,-0.5 769.5,-0.5"/>
<text text-anchor="middle" x="833" y="-7.5" font-family="Helvetica,sans-Serif" font-size="10.00">decompress_smearing</text>
</a>
</g>
</g>
<!-- Node1&#45;&gt;Node28 -->
<g id="edge41" class="edge">
<title>Node1&#45;&gt;Node28</title>
<path fill="none" stroke="midnightblue" d="M976.24,-296.05C967.75,-237.47 940.27,-67.67 902,-29 898.21,-25.17 893.71,-22.09 888.86,-19.62"/>
<polygon fill="midnightblue" stroke="midnightblue" points="972.81,-296.8 977.68,-306.21 979.74,-295.82 972.81,-296.8"/>
</g>
<!-- Node3 -->
<g id="node3" class="node">
<title>Node3</title>
<g id="a_node3"><a xlink:href="decmp_8c_a74c8bbd7b2130f44b6672e960475f4be.html#a74c8bbd7b2130f44b6672e960475f4be" target="_top" xlink:title="decompress the data based on a compression configuration">
<polygon fill="white" stroke="black" points="570,-306.5 570,-325.5 728,-325.5 728,-306.5 570,-306.5"/>
<text text-anchor="middle" x="649" y="-313.5" font-family="Helvetica,sans-Serif" font-size="10.00">decompressed_data_internal</text>
</a>
</g>
</g>
<!-- Node2&#45;&gt;Node3 -->
<g id="edge2" class="edge">
<title>Node2&#45;&gt;Node3</title>
<path fill="none" stroke="midnightblue" d="M770.4,-563.65C768.15,-562.24 766.01,-560.7 764,-559 686.1,-493.08 658.05,-362.11 651.57,-325.63"/>
<polygon fill="midnightblue" stroke="midnightblue" points="769.03,-566.89 779.51,-568.43 772.28,-560.69 769.03,-566.89"/>
</g>
<!-- Node4 -->
<g id="node4" class="node">
<title>Node4</title>
<g id="a_node4"><a xlink:href="decmp_8h_aefe0fa39fdc295432f5e2e0f91f0b87f.html#aefe0fa39fdc295432f5e2e0f91f0b87f" target="_top" xlink:title="decompress a compression entity">
<polygon fill="white" stroke="black" points="402,-347.5 402,-366.5 534,-366.5 534,-347.5 402,-347.5"/>
<text text-anchor="middle" x="468" y="-354.5" font-family="Helvetica,sans-Serif" font-size="10.00">decompress_cmp_entiy</text>
</a>
</g>
</g>
<!-- Node3&#45;&gt;Node4 -->
<g id="edge3" class="edge">
<title>Node3&#45;&gt;Node4</title>
<path fill="none" stroke="midnightblue" d="M596.72,-327.75C569.42,-334 536.28,-341.59 510.6,-347.47"/>
<polygon fill="midnightblue" stroke="midnightblue" points="597.52,-331.15 606.48,-325.51 595.95,-324.33 597.52,-331.15"/>
</g>
<!-- Node11 -->
<g id="node11" class="node">
<title>Node11</title>
<g id="a_node11"><a xlink:href="decmp_8h_aa89132cfd22be6ede8bc4344e9c3336a.html#aa89132cfd22be6ede8bc4344e9c3336a" target="_top" xlink:title="decompress RDCU compressed data without a compression entity header">
<polygon fill="white" stroke="black" points="403.5,-287.5 403.5,-306.5 532.5,-306.5 532.5,-287.5 403.5,-287.5"/>
<text text-anchor="middle" x="468" y="-294.5" font-family="Helvetica,sans-Serif" font-size="10.00">decompress_rdcu_data</text>
</a>
</g>
</g>
<!-- Node3&#45;&gt;Node11 -->
<g id="edge10" class="edge">
<title>Node3&#45;&gt;Node11</title>
<path fill="none" stroke="midnightblue" d="M559.52,-306.61C550.43,-305.64 541.33,-304.68 532.59,-303.75"/>
<polygon fill="midnightblue" stroke="midnightblue" points="559.43,-310.12 569.75,-307.69 560.17,-303.16 559.43,-310.12"/>
</g>
<!-- Node5 -->
<g id="node5" class="node">
<title>Node5</title>
<g id="a_node5"><a xlink:href="test__cmp__decmp_8c_a50ba26014079160ca77b7d7fa76ce0f4.html#a50ba26014079160ca77b7d7fa76ce0f4" target="_top" xlink:title="compress the given configuration and decompress it afterwards; finally compare the results">
<polygon fill="white" stroke="black" points="195,-442.5 195,-461.5 353,-461.5 353,-442.5 195,-442.5"/>
<text text-anchor="middle" x="274" y="-449.5" font-family="Helvetica,sans-Serif" font-size="10.00">compression_decompression</text>
</a>
</g>
</g>
<!-- Node4&#45;&gt;Node5 -->
<g id="edge4" class="edge">
<title>Node4&#45;&gt;Node5</title>
<path fill="none" stroke="midnightblue" d="M449.86,-373.71C430.92,-391.21 398.73,-418.17 366,-433 357.47,-436.86 348.14,-439.95 338.8,-442.42"/>
<polygon fill="midnightblue" stroke="midnightblue" points="452.49,-376.04 457.36,-366.63 447.69,-370.95 452.49,-376.04"/>
</g>
<!-- Node7 -->
<g id="node7" class="node">
<title>Node7</title>
<g id="a_node7"><a xlink:href="test__decmp_8c_a6e7a5e150e2c829836db3c42cdec2eec.html#a6e7a5e150e2c829836db3c42cdec2eec" target="_top" xlink:title=" ">
<polygon fill="white" stroke="black" points="182,-404.5 182,-423.5 366,-423.5 366,-404.5 182,-404.5"/>
<text text-anchor="middle" x="274" y="-411.5" font-family="Helvetica,sans-Serif" font-size="10.00">test_cmp_decmp_n_imagette_raw</text>
</a>
</g>
</g>
<!-- Node4&#45;&gt;Node7 -->
<g id="edge6" class="edge">
<title>Node4&#45;&gt;Node7</title>
<path fill="none" stroke="midnightblue" d="M435.08,-370.45C415.42,-378.38 389.55,-388.16 366,-395 353.76,-398.56 340.4,-401.73 327.79,-404.41"/>
<polygon fill="midnightblue" stroke="midnightblue" points="436.54,-373.64 444.47,-366.62 433.89,-367.16 436.54,-373.64"/>
</g>
<!-- Node8 -->
<g id="node8" class="node">
<title>Node8</title>
<g id="a_node8"><a xlink:href="test__decmp_8c_a1a33e2fcbf484c79dfe661b280386f6b.html#a1a33e2fcbf484c79dfe661b280386f6b" target="_top" xlink:title=" ">
<polygon fill="white" stroke="black" points="201,-366.5 201,-385.5 347,-385.5 347,-366.5 201,-366.5"/>
<text text-anchor="middle" x="274" y="-373.5" font-family="Helvetica,sans-Serif" font-size="10.00">test_cmp_decmp_s_fx_diff</text>
</a>
</g>
</g>
<!-- Node4&#45;&gt;Node8 -->
<g id="edge7" class="edge">
<title>Node4&#45;&gt;Node8</title>
<path fill="none" stroke="midnightblue" d="M391.94,-364.43C377.22,-365.88 361.81,-367.41 347.19,-368.86"/>
<polygon fill="midnightblue" stroke="midnightblue" points="392.39,-367.9 402,-363.43 391.7,-360.93 392.39,-367.9"/>
</g>
<!-- Node9 -->
<g id="node9" class="node">
<title>Node9</title>
<g id="a_node9"><a xlink:href="test__decmp_8c_acfebf2fa7515f5449e0cfa594457b66b.html#acfebf2fa7515f5449e0cfa594457b66b" target="_top" xlink:title=" ">
<polygon fill="white" stroke="black" points="233,-328.5 233,-347.5 315,-347.5 315,-328.5 233,-328.5"/>
<text text-anchor="middle" x="274" y="-335.5" font-family="Helvetica,sans-Serif" font-size="10.00">test_s_fx_diff</text>
</a>
</g>
</g>
<!-- Node4&#45;&gt;Node9 -->
<g id="edge8" class="edge">
<title>Node4&#45;&gt;Node9</title>
<path fill="none" stroke="midnightblue" d="M391.71,-349.55C365.54,-346.96 337.21,-344.16 315.02,-341.96"/>
<polygon fill="midnightblue" stroke="midnightblue" points="391.7,-353.07 402,-350.57 392.39,-346.1 391.7,-353.07"/>
</g>
<!-- Node10 -->
<g id="node10" class="node">
<title>Node10</title>
<g id="a_node10"><a xlink:href="test__decmp_8c_a953eeaad914985c0816dde26d47ffef0.html#a953eeaad914985c0816dde26d47ffef0" target="_top" xlink:title=" ">
<polygon fill="white" stroke="black" points="225.5,-290.5 225.5,-309.5 322.5,-309.5 322.5,-290.5 225.5,-290.5"/>
<text text-anchor="middle" x="274" y="-297.5" font-family="Helvetica,sans-Serif" font-size="10.00">test_s_fx_model</text>
</a>
</g>
</g>
<!-- Node4&#45;&gt;Node10 -->
<g id="edge9" class="edge">
<title>Node4&#45;&gt;Node10</title>
<path fill="none" stroke="midnightblue" d="M435.08,-343.55C415.42,-335.62 389.55,-325.84 366,-319 352.05,-314.95 336.66,-311.39 322.57,-308.49"/>
<polygon fill="midnightblue" stroke="midnightblue" points="433.89,-346.84 444.47,-347.38 436.54,-340.36 433.89,-346.84"/>
</g>
<!-- Node6 -->
<g id="node6" class="node">
<title>Node6</title>
<g id="a_node6"><a xlink:href="test__cmp__decmp_8c_af3c162694b40683e0aa25c61a49cdafc.html#af3c162694b40683e0aa25c61a49cdafc" target="_top" xlink:title="random compression decompression test">
<polygon fill="white" stroke="black" points="0,-437 0,-467 146,-467 146,-437 0,-437"/>
<text text-anchor="start" x="8" y="-455" font-family="Helvetica,sans-Serif" font-size="10.00">test_random_compression</text>
<text text-anchor="middle" x="73" y="-444" font-family="Helvetica,sans-Serif" font-size="10.00">_decompression</text>
</a>
</g>
</g>
<!-- Node5&#45;&gt;Node6 -->
<g id="edge5" class="edge">
<title>Node5&#45;&gt;Node6</title>
<path fill="none" stroke="midnightblue" d="M184.63,-452C171.72,-452 158.55,-452 146.01,-452"/>
<polygon fill="midnightblue" stroke="midnightblue" points="184.92,-455.5 194.92,-452 184.92,-448.5 184.92,-455.5"/>
</g>
<!-- Node12 -->
<g id="node12" class="node">
<title>Node12</title>
<g id="a_node12"><a xlink:href="test__cmp__decmp_8c_abb20ed18a3c6ba0fc67ecef2d629dec0.html#abb20ed18a3c6ba0fc67ecef2d629dec0" target="_top" xlink:title=" ">
<polygon fill="white" stroke="black" points="201,-241 201,-271 347,-271 347,-241 201,-241"/>
<text text-anchor="start" x="209" y="-259" font-family="Helvetica,sans-Serif" font-size="10.00">test_random_compression</text>
<text text-anchor="middle" x="274" y="-248" font-family="Helvetica,sans-Serif" font-size="10.00">_decompression2</text>
</a>
</g>
</g>
<!-- Node11&#45;&gt;Node12 -->
<g id="edge11" class="edge">
<title>Node11&#45;&gt;Node12</title>
<path fill="none" stroke="midnightblue" d="M412.54,-285.37C391.73,-280.93 367.7,-275.8 345.61,-271.08"/>
<polygon fill="midnightblue" stroke="midnightblue" points="411.96,-288.83 422.47,-287.49 413.42,-281.98 411.96,-288.83"/>
</g>
<!-- Node13&#45;&gt;Node3 -->
<g id="edge13" class="edge">
<title>Node13&#45;&gt;Node3</title>
<path fill="none" stroke="midnightblue" d="M773.6,-527.19C770.2,-525.39 766.97,-523.34 764,-521 695.26,-466.78 661.57,-359.04 652.55,-325.92"/>
<polygon fill="midnightblue" stroke="midnightblue" points="772.35,-530.47 782.91,-531.39 775.23,-524.08 772.35,-530.47"/>
</g>
<!-- Node14&#45;&gt;Node3 -->
<g id="edge15" class="edge">
<title>Node14&#45;&gt;Node3</title>
<path fill="none" stroke="midnightblue" d="M772.57,-488.22C769.57,-486.66 766.69,-484.93 764,-483 703.81,-439.83 665.39,-354.38 653.75,-325.66"/>
<polygon fill="midnightblue" stroke="midnightblue" points="771.29,-491.48 781.85,-492.38 774.16,-485.1 771.29,-491.48"/>
</g>
<!-- Node15&#45;&gt;Node3 -->
<g id="edge17" class="edge">
<title>Node15&#45;&gt;Node3</title>
<path fill="none" stroke="midnightblue" d="M773.71,-438.61C770.35,-436.87 767.08,-435 764,-433 716.17,-401.98 673.17,-347.55 656.9,-325.59"/>
<polygon fill="midnightblue" stroke="midnightblue" points="772.27,-441.8 782.8,-442.93 775.27,-435.48 772.27,-441.8"/>
</g>
<!-- Node16&#45;&gt;Node3 -->
<g id="edge19" class="edge">
<title>Node16&#45;&gt;Node3</title>
<path fill="none" stroke="midnightblue" d="M779.74,-401.34C774.33,-399.45 768.99,-397.35 764,-395 723.03,-375.75 680.75,-342.17 661.18,-325.69"/>
<polygon fill="midnightblue" stroke="midnightblue" points="778.9,-404.74 789.49,-404.48 781.05,-398.08 778.9,-404.74"/>
</g>
<!-- Node17&#45;&gt;Node3 -->
<g id="edge21" class="edge">
<title>Node17&#45;&gt;Node3</title>
<path fill="none" stroke="midnightblue" d="M769.56,-601.31C767.61,-599.99 765.75,-598.56 764,-597 677.02,-519.33 655.21,-365.7 650.91,-325.7"/>
<polygon fill="midnightblue" stroke="midnightblue" points="768.19,-604.55 778.63,-606.36 771.6,-598.43 768.19,-604.55"/>
</g>
<!-- Node18 -->
<g id="node18" class="node">
<title>Node18</title>
<g id="a_node18"><a xlink:href="test__decmp_8c_a86f0175a42bc3897a2544ead6d1e3d5a.html#a86f0175a42bc3897a2544ead6d1e3d5a" target="_top" xlink:title=" ">
<polygon fill="white" stroke="black" points="574.5,-601 574.5,-631 723.5,-631 723.5,-601 574.5,-601"/>
<text text-anchor="start" x="582.5" y="-619" font-family="Helvetica,sans-Serif" font-size="10.00">test_decompress_imagette</text>
<text text-anchor="middle" x="649" y="-608" font-family="Helvetica,sans-Serif" font-size="10.00">_model</text>
</a>
</g>
</g>
<!-- Node17&#45;&gt;Node18 -->
<g id="edge22" class="edge">
<title>Node17&#45;&gt;Node18</title>
<path fill="none" stroke="midnightblue" d="M760.35,-616C748.25,-616 735.67,-616 723.52,-616"/>
<polygon fill="midnightblue" stroke="midnightblue" points="760.38,-619.5 770.38,-616 760.38,-612.5 760.38,-619.5"/>
</g>
<!-- Node19&#45;&gt;Node3 -->
<g id="edge24" class="edge">
<title>Node19&#45;&gt;Node3</title>
<path fill="none" stroke="midnightblue" d="M786.21,-363.7C778.76,-361.56 771.15,-359.28 764,-357 733.14,-347.15 698.16,-334.32 675.18,-325.65"/>
<polygon fill="midnightblue" stroke="midnightblue" points="785.28,-367.07 795.86,-366.43 787.19,-360.34 785.28,-367.07"/>
</g>
<!-- Node20&#45;&gt;Node3 -->
<g id="edge26" class="edge">
<title>Node20&#45;&gt;Node3</title>
<path fill="none" stroke="midnightblue" d="M762.66,-329.62C751.33,-328.25 739.53,-326.82 728.01,-325.43"/>
<polygon fill="midnightblue" stroke="midnightblue" points="762.56,-333.13 772.91,-330.86 763.4,-326.18 762.56,-333.13"/>
</g>
<!-- Node21&#45;&gt;Node3 -->
<g id="edge28" class="edge">
<title>Node21&#45;&gt;Node3</title>
<path fill="none" stroke="midnightblue" d="M762.66,-302.38C751.33,-303.75 739.53,-305.18 728.01,-306.57"/>
<polygon fill="midnightblue" stroke="midnightblue" points="763.4,-305.82 772.91,-301.14 762.56,-298.87 763.4,-305.82"/>
</g>
<!-- Node22&#45;&gt;Node3 -->
<g id="edge30" class="edge">
<title>Node22&#45;&gt;Node3</title>
<path fill="none" stroke="midnightblue" d="M787.43,-262.43C779.58,-264.81 771.52,-267.38 764,-270 731.55,-281.29 694.82,-296.57 672.04,-306.36"/>
<polygon fill="midnightblue" stroke="midnightblue" points="788.61,-265.73 797.2,-259.53 786.62,-259.02 788.61,-265.73"/>
</g>
<!-- Node23&#45;&gt;Node3 -->
<g id="edge32" class="edge">
<title>Node23&#45;&gt;Node3</title>
<path fill="none" stroke="midnightblue" d="M778.81,-224.79C773.71,-226.63 768.69,-228.69 764,-231 721.68,-251.79 679.05,-288.87 660.13,-306.36"/>
<polygon fill="midnightblue" stroke="midnightblue" points="780.28,-227.99 788.67,-221.52 778.08,-221.35 780.28,-227.99"/>
</g>
<!-- Node24&#45;&gt;Node3 -->
<g id="edge34" class="edge">
<title>Node24&#45;&gt;Node3</title>
<path fill="none" stroke="midnightblue" d="M774.89,-187.37C771.1,-189.03 767.43,-190.9 764,-193 713.55,-223.79 671.43,-283.09 656.15,-306.33"/>
<polygon fill="midnightblue" stroke="midnightblue" points="776.45,-190.52 784.5,-183.62 773.91,-183.99 776.45,-190.52"/>
</g>
<!-- Node25&#45;&gt;Node3 -->
<g id="edge36" class="edge">
<title>Node25&#45;&gt;Node3</title>
<path fill="none" stroke="midnightblue" d="M773.06,-149.6C769.89,-151.21 766.84,-153 764,-155 705.2,-196.41 666.16,-278.22 654.02,-306.28"/>
<polygon fill="midnightblue" stroke="midnightblue" points="774.51,-152.79 782.26,-145.57 771.7,-146.38 774.51,-152.79"/>
</g>
<!-- Node26&#45;&gt;Node3 -->
<g id="edge38" class="edge">
<title>Node26&#45;&gt;Node3</title>
<path fill="none" stroke="midnightblue" d="M770.26,-112.31C768.07,-113.77 765.98,-115.33 764,-117 698.91,-171.99 662.98,-274.1 652.94,-306.13"/>
<polygon fill="midnightblue" stroke="midnightblue" points="772.2,-115.23 779.06,-107.15 768.67,-109.18 772.2,-115.23"/>
</g>
<!-- Node27&#45;&gt;Node3 -->
<g id="edge40" class="edge">
<title>Node27&#45;&gt;Node3</title>
<path fill="none" stroke="midnightblue" d="M772.14,-62.16C769.25,-63.89 766.51,-65.83 764,-68 685.32,-136.03 657.76,-269.72 651.49,-306.46"/>
<polygon fill="midnightblue" stroke="midnightblue" points="773.85,-65.22 781.19,-57.59 770.69,-58.98 773.85,-65.22"/>
</g>
<!-- Node28&#45;&gt;Node3 -->
<g id="edge42" class="edge">
<title>Node28&#45;&gt;Node3</title>
<path fill="none" stroke="midnightblue" d="M769.55,-24.68C767.6,-26 765.74,-27.43 764,-29 675.51,-108.6 654.77,-265.97 650.82,-306.37"/>
<polygon fill="midnightblue" stroke="midnightblue" points="771.58,-27.55 778.6,-19.61 768.16,-21.44 771.58,-27.55"/>
</g>
</g>
</svg>
        <g id="navigator" transform="translate(0 0)" fill="#404254">
                <rect fill="#f2f5e9" fill-opacity="0.5" stroke="#606060" stroke-width=".5" x="0" y="0" width="60" height="60"/>
                <use id="zoomplus" xlink:href="#zoomPlus" x="17" y="9" onmousedown="handleZoom(evt,'in')"/>
                <use id="zoomminus" xlink:href="#zoomMin" x="42" y="9" onmousedown="handleZoom(evt,'out')"/>
                <use id="reset" xlink:href="#resetDef" x="30" y="36" onmousedown="handleReset()"/>
                <g id="arrowUp" xlink:href="#dirArrow" transform="translate(30 24)" onmousedown="handlePan(0,-1)">
                  <use xlink:href="#rim" fill="#404040">
                        <set attributeName="fill" to="#808080" begin="arrowUp.mouseover" end="arrowUp.mouseout"/>
                  </use>
                  <path fill="none" stroke="white" stroke-width="1.5" d="M0,-3.0v7 M-2.5,-0.5L0,-3.0L2.5,-0.5"/>
                </g>
                <g id="arrowRight" xlink:href="#dirArrow" transform="rotate(90) translate(36 -43)" onmousedown="handlePan(1,0)">
                  <use xlink:href="#rim" fill="#404040">
                        <set attributeName="fill" to="#808080" begin="arrowRight.mouseover" end="arrowRight.mouseout"/>
                  </use>
                  <path fill="none" stroke="white" stroke-width="1.5" d="M0,-3.0v7 M-2.5,-0.5L0,-3.0L2.5,-0.5"/>
                </g>
                <g id="arrowDown" xlink:href="#dirArrow" transform="rotate(180) translate(-30 -48)" onmousedown="handlePan(0,1)">
                  <use xlink:href="#rim" fill="#404040">
                        <set attributeName="fill" to="#808080" begin="arrowDown.mouseover" end="arrowDown.mouseout"/>
                  </use>
                  <path fill="none" stroke="white" stroke-width="1.5" d="M0,-3.0v7 M-2.5,-0.5L0,-3.0L2.5,-0.5"/>
                </g>
                <g id="arrowLeft" xlink:href="#dirArrow" transform="rotate(270) translate(-36 17)" onmousedown="handlePan(-1,0)">
                  <use xlink:href="#rim" fill="#404040">
                        <set attributeName="fill" to="#808080" begin="arrowLeft.mouseover" end="arrowLeft.mouseout"/>
                  </use>
                  <path fill="none" stroke="white" stroke-width="1.5" d="M0,-3.0v7 M-2.5,-0.5L0,-3.0L2.5,-0.5"/>
                </g>
        </g>
        <svg viewBox="0 0 15 15" width="100%" height="30px" preserveAspectRatio="xMaxYMin meet">
         <g id="arrow_out" transform="scale(0.3 0.3)">
          <a xlink:href="decmp_8c_a5e29a350ebed1be3d3240b4aed0c67bc_a5e29a350ebed1be3d3240b4aed0c67bc_icgraph_org.svg" target="_base">
           <rect id="button" ry="5" rx="5" y="6" x="6" height="38" width="38"
                fill="#f2f5e9" fill-opacity="0.5" stroke="#606060" stroke-width="1.0"/>
           <path id="arrow"
             d="M 11.500037,31.436501 C 11.940474,20.09759 22.043105,11.32322 32.158766,21.979434 L 37.068811,17.246167 C 37.068811,17.246167 37.088388,32 37.088388,32 L 22.160133,31.978069 C 22.160133,31.978069 26.997745,27.140456 26.997745,27.140456 C 18.528582,18.264221 13.291696,25.230495 11.500037,31.436501 z"
             style="fill:#404040;"/>
          </a>
         </g>
        </svg>
</svg>
