<?xml version="1.0" encoding="UTF-8" standalone="no"?>
<!DOCTYPE svg PUBLIC "-//W3C//DTD SVG 1.1//EN"
 "http://www.w3.org/Graphics/SVG/1.1/DTD/svg11.dtd">
<!-- Generated by graphviz version 2.43.0 (0)
 -->
<!-- Title: decompress_smearing Pages: 1 -->
<!--zoomable 357 -->
<svg id="main" version="1.1" xmlns="http://www.w3.org/2000/svg" xmlns:xlink="http://www.w3.org/1999/xlink" xml:space="preserve" onload="init(evt)">
<style type="text/css"><![CDATA[
.edge:hover path { stroke: red; }
.edge:hover polygon { stroke: red; fill: red; }
]]></style>
<script type="text/javascript"><![CDATA[
var edges = document.getElementsByTagName('g');
if (edges && edges.length) {
  for (var i=0;i<edges.length;i++) {
    if (edges[i].id.substr(0,4)=='edge') {
      edges[i].setAttribute('class','edge');
    }
  }
}
]]></script>
        <defs>
                <circle id="rim" cx="0" cy="0" r="7"/>
                <circle id="rim2" cx="0" cy="0" r="3.5"/>
                <g id="zoomPlus">
                        <use xlink:href="#rim" fill="#404040">
                                <set attributeName="fill" to="#808080" begin="zoomplus.mouseover" end="zoomplus.mouseout"/>
                        </use>
                        <path d="M-4,0h8M0,-4v8" fill="none" stroke="white" stroke-width="1.5" pointer-events="none"/>
                </g>
                <g id="zoomMin">
                        <use xlink:href="#rim" fill="#404040">
                                <set attributeName="fill" to="#808080" begin="zoomminus.mouseover" end="zoomminus.mouseout"/>
                        </use>
                        <path d="M-4,0h8" fill="none" stroke="white" stroke-width="1.5" pointer-events="none"/>
                </g>
                <g id="dirArrow">
                        <path fill="none" stroke="white" stroke-width="1.5" d="M0,-3.0v7 M-2.5,-0.5L0,-3.0L2.5,-0.5"/>
                </g>
               <g id="resetDef">
                       <use xlink:href="#rim2" fill="#404040">
                               <set attributeName="fill" to="#808080" begin="reset.mouseover" end="reset.mouseout"/>
                       </use>
               </g>
        </defs>

<script type="text/javascript">
var viewWidth = 1132;
var viewHeight = 357;
var sectionId = 'dynsection-0';
</script>
<script xlink:href="svgpan.js"/>
<svg id="graph" class="graph">
<g id="viewport">
<title>decompress_smearing</title>
<polygon fill="white" stroke="transparent" points="-4,4 -4,-352.83 1128,-352.83 1128,4 -4,4"/>
<!-- Node1 -->
<g id="node1" class="node">
<title>Node1</title>
<g id="a_node1"><a xlink:title="decompress N&#45;CAM smearing data">
<polygon fill="#bfbfbf" stroke="black" points="0,-196.33 0,-215.33 127,-215.33 127,-196.33 0,-196.33"/>
<text text-anchor="middle" x="63.5" y="-203.33" font-family="Helvetica,sans-Serif" font-size="10.00">decompress_smearing</text>
</a>
</g>
</g>
<!-- Node2 -->
<g id="node2" class="node">
<title>Node2</title>
<g id="a_node2"><a xlink:href="read__bitstream_8h_aa1739fc7209fe65165c7262036a1969d.html#aa1739fc7209fe65165c7262036a1969d" target="_top" xlink:title="initialize a bit_decoder">
<polygon fill="white" stroke="black" points="194.5,-329.33 194.5,-348.33 289.5,-348.33 289.5,-329.33 194.5,-329.33"/>
<text text-anchor="middle" x="242" y="-336.33" font-family="Helvetica,sans-Serif" font-size="10.00">bit_init_decoder</text>
</a>
</g>
</g>
<!-- Node1&#45;&gt;Node2 -->
<g id="edge1" class="edge">
<title>Node1&#45;&gt;Node2</title>
<path fill="none" stroke="midnightblue" d="M72.63,-215.48C88.52,-233.9 125.42,-274.55 163,-300.83 176.54,-310.3 192.8,-318.63 206.96,-325.06"/>
<polygon fill="midnightblue" stroke="midnightblue" points="205.8,-328.37 216.36,-329.2 208.62,-321.97 205.8,-328.37"/>
</g>
<!-- Node4 -->
<g id="node4" class="node">
<title>Node4</title>
<g id="a_node4"><a xlink:href="decmp_8c_ac9a6281c5fcfbf077cc63e0494274f20.html#ac9a6281c5fcfbf077cc63e0494274f20" target="_top" xlink:title="configure a decoder setup structure to have a setup to decode a vale">
<polygon fill="white" stroke="black" points="173,-196.33 173,-215.33 311,-215.33 311,-196.33 173,-196.33"/>
<text text-anchor="middle" x="242" y="-203.33" font-family="Helvetica,sans-Serif" font-size="10.00">configure_decoder_setup</text>
</a>
</g>
</g>
<!-- Node1&#45;&gt;Node4 -->
<g id="edge3" class="edge">
<title>Node1&#45;&gt;Node4</title>
<path fill="none" stroke="midnightblue" d="M127.22,-205.83C138.64,-205.83 150.69,-205.83 162.49,-205.83"/>
<polygon fill="midnightblue" stroke="midnightblue" points="162.79,-209.33 172.79,-205.83 162.79,-202.33 162.79,-209.33"/>
</g>
<!-- Node23 -->
<g id="node23" class="node">
<title>Node23</title>
<g id="a_node23"><a xlink:href="decmp_8c_a5e29a350ebed1be3d3240b4aed0c67bc.html#a5e29a350ebed1be3d3240b4aed0c67bc" target="_top" xlink:title="decompress the next code word in the bitstream and decorate it with the model">
<polygon fill="white" stroke="black" points="200,-272.33 200,-291.33 284,-291.33 284,-272.33 200,-272.33"/>
<text text-anchor="middle" x="242" y="-279.33" font-family="Helvetica,sans-Serif" font-size="10.00">decode_value</text>
</a>
</g>
</g>
<!-- Node1&#45;&gt;Node23 -->
<g id="edge34" class="edge">
<title>Node1&#45;&gt;Node23</title>
<path fill="none" stroke="midnightblue" d="M86.85,-215.45C117.89,-228.82 174.18,-253.05 209.47,-268.25"/>
<polygon fill="midnightblue" stroke="midnightblue" points="208.26,-271.54 218.83,-272.28 211.03,-265.11 208.26,-271.54"/>
</g>
<!-- Node25 -->
<g id="node25" class="node">
<title>Node25</title>
<g id="a_node25"><a xlink:href="decmp_8c_a94885dc7430737ba85a8d8720c839022.html#a94885dc7430737ba85a8d8720c839022" target="_top" xlink:title="decompress the multi&#45;entry packet header structure and sets the data, model and up_model pointers to ...">
<polygon fill="white" stroke="black" points="163,-158.33 163,-177.33 321,-177.33 321,-158.33 163,-158.33"/>
<text text-anchor="middle" x="242" y="-165.33" font-family="Helvetica,sans-Serif" font-size="10.00">decompress_multi_entry_hdr</text>
</a>
</g>
</g>
<!-- Node1&#45;&gt;Node25 -->
<g id="edge37" class="edge">
<title>Node1&#45;&gt;Node25</title>
<path fill="none" stroke="midnightblue" d="M109.04,-196.24C132.64,-191.16 161.83,-184.87 186.75,-179.51"/>
<polygon fill="midnightblue" stroke="midnightblue" points="187.74,-182.87 196.78,-177.35 186.27,-176.03 187.74,-182.87"/>
</g>
<!-- Node26 -->
<g id="node26" class="node">
<title>Node26</title>
<g id="a_node26"><a xlink:href="cmp__support_8c_afba7806c424cfb8c7678c1b4cebdfcbb.html#afba7806c424cfb8c7678c1b4cebdfcbb" target="_top" xlink:title="check if a model mode is selected">
<polygon fill="white" stroke="black" points="181,-120.33 181,-139.33 303,-139.33 303,-120.33 181,-120.33"/>
<text text-anchor="middle" x="242" y="-127.33" font-family="Helvetica,sans-Serif" font-size="10.00">model_mode_is_used</text>
</a>
</g>
</g>
<!-- Node1&#45;&gt;Node26 -->
<g id="edge38" class="edge">
<title>Node1&#45;&gt;Node26</title>
<path fill="none" stroke="midnightblue" d="M78.21,-196.19C96.67,-183.62 130.91,-161.71 163,-148.83 169.26,-146.32 175.93,-144.07 182.65,-142.09"/>
<polygon fill="midnightblue" stroke="midnightblue" points="183.77,-145.41 192.47,-139.37 181.9,-138.67 183.77,-145.41"/>
</g>
<!-- Node3 -->
<g id="node3" class="node">
<title>Node3</title>
<g id="a_node3"><a xlink:href="read__bitstream_8h_a4de9ebb7d031d3dcf638b7d0ae6f166d.html#a4de9ebb7d031d3dcf638b7d0ae6f166d" target="_top" xlink:title="read 8 bytes of big&#45;endian data from an unaligned address">
<polygon fill="white" stroke="black" points="683,-310.33 683,-329.33 822,-329.33 822,-310.33 683,-310.33"/>
<text text-anchor="middle" x="752.5" y="-317.33" font-family="Helvetica,sans-Serif" font-size="10.00">bit_read_unaligned_64be</text>
</a>
</g>
</g>
<!-- Node2&#45;&gt;Node3 -->
<g id="edge2" class="edge">
<title>Node2&#45;&gt;Node3</title>
<path fill="none" stroke="midnightblue" d="M289.85,-339.96C343.71,-340.99 434.78,-341.94 513,-338.83 566.46,-336.7 626.5,-331.91 672.96,-327.66"/>
<polygon fill="midnightblue" stroke="midnightblue" points="673.33,-331.15 682.96,-326.74 672.68,-324.17 673.33,-331.15"/>
</g>
<!-- Node5 -->
<g id="node5" class="node">
<title>Node5</title>
<g id="a_node5"><a xlink:href="decmp_8c_a0082c0ea9e4c9c5eaa41b804e94bdf1d.html#a0082c0ea9e4c9c5eaa41b804e94bdf1d" target="_top" xlink:title="decode the next code word with the multi escape mechanism from the bitstream">
<polygon fill="white" stroke="black" points="393.5,-158.33 393.5,-177.33 476.5,-177.33 476.5,-158.33 393.5,-158.33"/>
<text text-anchor="middle" x="435" y="-165.33" font-family="Helvetica,sans-Serif" font-size="10.00">decode_multi</text>
</a>
</g>
</g>
<!-- Node4&#45;&gt;Node5 -->
<g id="edge4" class="edge">
<title>Node4&#45;&gt;Node5</title>
<path fill="none" stroke="midnightblue" d="M291.2,-196.24C319.25,-190.66 354.58,-183.63 383.09,-177.96"/>
<polygon fill="midnightblue" stroke="midnightblue" points="384.13,-181.32 393.25,-175.93 382.76,-174.45 384.13,-181.32"/>
</g>
<!-- Node11 -->
<g id="node11" class="node">
<title>Node11</title>
<g id="a_node11"><a xlink:href="decmp_8c_a071c03ef3d6f70f5be1e9aeb41fc157a.html#a071c03ef3d6f70f5be1e9aeb41fc157a" target="_top" xlink:title="get the value unencoded with setup&#45;&gt;cmp_par_1 bits without any additional changes from the bitstream">
<polygon fill="white" stroke="black" points="394.5,-272.33 394.5,-291.33 475.5,-291.33 475.5,-272.33 394.5,-272.33"/>
<text text-anchor="middle" x="435" y="-279.33" font-family="Helvetica,sans-Serif" font-size="10.00">decode_none</text>
</a>
</g>
</g>
<!-- Node4&#45;&gt;Node11 -->
<g id="edge11" class="edge">
<title>Node4&#45;&gt;Node11</title>
<path fill="none" stroke="midnightblue" d="M259.48,-215.53C281.19,-227.97 320.87,-249.52 357,-262.83 365.73,-266.04 375.21,-268.88 384.45,-271.32"/>
<polygon fill="midnightblue" stroke="midnightblue" points="383.77,-274.76 394.32,-273.81 385.48,-267.97 383.77,-274.76"/>
</g>
<!-- Node12 -->
<g id="node12" class="node">
<title>Node12</title>
<g id="a_node12"><a xlink:href="decmp_8c_ad5f1a8490e42bf0710838367255d21dc.html#ad5f1a8490e42bf0710838367255d21dc" target="_top" xlink:title="decode the next code word with zero escape system mechanism from the bitstream">
<polygon fill="white" stroke="black" points="396,-234.33 396,-253.33 474,-253.33 474,-234.33 396,-234.33"/>
<text text-anchor="middle" x="435" y="-241.33" font-family="Helvetica,sans-Serif" font-size="10.00">decode_zero</text>
</a>
</g>
</g>
<!-- Node4&#45;&gt;Node12 -->
<g id="edge14" class="edge">
<title>Node4&#45;&gt;Node12</title>
<path fill="none" stroke="midnightblue" d="M291.2,-215.42C320.16,-221.18 356.89,-228.49 385.85,-234.25"/>
<polygon fill="midnightblue" stroke="midnightblue" points="385.25,-237.7 395.74,-236.22 386.62,-230.83 385.25,-237.7"/>
</g>
<!-- Node14 -->
<g id="node14" class="node">
<title>Node14</title>
<g id="a_node14"><a xlink:href="cmp__support_8c_a67b0e38ca0e68c282c89552daa61ffdf.html#a67b0e38ca0e68c282c89552daa61ffdf" target="_top" xlink:title="implementation of the logarithm base of floor(log2(x)) for integers">
<polygon fill="white" stroke="black" points="729.5,-6.33 729.5,-25.33 775.5,-25.33 775.5,-6.33 729.5,-6.33"/>
<text text-anchor="middle" x="752.5" y="-13.33" font-family="Helvetica,sans-Serif" font-size="10.00">ilog_2</text>
</a>
</g>
</g>
<!-- Node4&#45;&gt;Node14 -->
<g id="edge18" class="edge">
<title>Node4&#45;&gt;Node14</title>
<path fill="none" stroke="midnightblue" d="M307.19,-196.21C312.22,-193.72 316.93,-190.64 321,-186.83 359.81,-150.54 317.41,-108.27 357,-72.83 460.69,20 644.93,2.16 719.17,-9.76"/>
<polygon fill="midnightblue" stroke="midnightblue" points="718.86,-13.26 729.3,-11.46 720.02,-6.36 718.86,-13.26"/>
</g>
<!-- Node15 -->
<g id="node15" class="node">
<title>Node15</title>
<g id="a_node15"><a xlink:href="cmp__support_8c_a0d3630773f703ddc81ca12e1f04485d9.html#a0d3630773f703ddc81ca12e1f04485d9" target="_top" xlink:title="check if multi escape symbol mechanism mode is used">
<polygon fill="white" stroke="black" points="357,-82.33 357,-101.33 513,-101.33 513,-82.33 357,-82.33"/>
<text text-anchor="middle" x="435" y="-89.33" font-family="Helvetica,sans-Serif" font-size="10.00">multi_escape_mech_is_used</text>
</a>
</g>
</g>
<!-- Node4&#45;&gt;Node15 -->
<g id="edge19" class="edge">
<title>Node4&#45;&gt;Node15</title>
<path fill="none" stroke="midnightblue" d="M305.1,-196.29C310.82,-193.8 316.25,-190.7 321,-186.83 349.98,-163.22 328.06,-134.48 357,-110.83 359.05,-109.15 361.23,-107.62 363.51,-106.22"/>
<polygon fill="midnightblue" stroke="midnightblue" points="365.43,-109.16 372.69,-101.45 362.21,-102.95 365.43,-109.16"/>
</g>
<!-- Node16 -->
<g id="node16" class="node">
<title>Node16</title>
<g id="a_node16"><a xlink:href="decmp_8c_ac57439dd4b34cf8fb663756f2b7b2549.html#ac57439dd4b34cf8fb663756f2b7b2549" target="_top" xlink:title="select the decoder based on the used Golomb parameter">
<polygon fill="white" stroke="black" points="390,-120.33 390,-139.33 480,-139.33 480,-120.33 390,-120.33"/>
<text text-anchor="middle" x="435" y="-127.33" font-family="Helvetica,sans-Serif" font-size="10.00">select_decoder</text>
</a>
</g>
</g>
<!-- Node4&#45;&gt;Node16 -->
<g id="edge20" class="edge">
<title>Node4&#45;&gt;Node16</title>
<path fill="none" stroke="midnightblue" d="M299.48,-196.2C306.99,-193.74 314.37,-190.67 321,-186.83 341.12,-175.15 336.89,-160.53 357,-148.83 364.11,-144.69 372.09,-141.45 380.15,-138.91"/>
<polygon fill="midnightblue" stroke="midnightblue" points="381.29,-142.23 389.97,-136.15 379.39,-135.49 381.29,-142.23"/>
</g>
<!-- Node22 -->
<g id="node22" class="node">
<title>Node22</title>
<g id="a_node22"><a xlink:href="cmp__support_8c_a82a852e0723978f5d5f4f5dbb756fa8f.html#a82a852e0723978f5d5f4f5dbb756fa8f" target="_top" xlink:title="check if zero escape symbol mechanism mode is used">
<polygon fill="white" stroke="black" points="359,-196.33 359,-215.33 511,-215.33 511,-196.33 359,-196.33"/>
<text text-anchor="middle" x="435" y="-203.33" font-family="Helvetica,sans-Serif" font-size="10.00">zero_escape_mech_is_used</text>
</a>
</g>
</g>
<!-- Node4&#45;&gt;Node22 -->
<g id="edge33" class="edge">
<title>Node4&#45;&gt;Node22</title>
<path fill="none" stroke="midnightblue" d="M311.15,-205.83C323.32,-205.83 336.14,-205.83 348.72,-205.83"/>
<polygon fill="midnightblue" stroke="midnightblue" points="348.74,-209.33 358.74,-205.83 348.74,-202.33 348.74,-209.33"/>
</g>
<!-- Node6 -->
<g id="node6" class="node">
<title>Node6</title>
<g id="a_node6"><a xlink:href="read__bitstream_8h_ad3b2702183e32bb737d84c8accd73066.html#ad3b2702183e32bb737d84c8accd73066" target="_top" xlink:title="same as bit_read_bits32() but only returns 32 bit">
<polygon fill="white" stroke="black" points="706.5,-177.33 706.5,-196.33 798.5,-196.33 798.5,-177.33 706.5,-177.33"/>
<text text-anchor="middle" x="752.5" y="-184.33" font-family="Helvetica,sans-Serif" font-size="10.00">bit_read_bits32</text>
</a>
</g>
</g>
<!-- Node5&#45;&gt;Node6 -->
<g id="edge5" class="edge">
<title>Node5&#45;&gt;Node6</title>
<path fill="none" stroke="midnightblue" d="M476.59,-176.34C498.02,-180.4 524.81,-184.81 549,-186.83 598.74,-190.98 655.59,-190.53 696.36,-189.3"/>
<polygon fill="midnightblue" stroke="midnightblue" points="696.49,-192.8 706.37,-188.97 696.26,-185.8 696.49,-192.8"/>
</g>
<!-- Node10 -->
<g id="node10" class="node">
<title>Node10</title>
<g id="a_node10"><a xlink:href="read__bitstream_8h_a65b5e1cb1107340846d20cae42c8a00c.html#a65b5e1cb1107340846d20cae42c8a00c" target="_top" xlink:title="refill the local register from the buffer previously set in bit_init_decoder()">
<polygon fill="white" stroke="black" points="570,-272.33 570,-291.33 626,-291.33 626,-272.33 570,-272.33"/>
<text text-anchor="middle" x="598" y="-279.33" font-family="Helvetica,sans-Serif" font-size="10.00">bit_refill</text>
</a>
</g>
</g>
<!-- Node5&#45;&gt;Node10 -->
<g id="edge9" class="edge">
<title>Node5&#45;&gt;Node10</title>
<path fill="none" stroke="midnightblue" d="M476.57,-173.06C488.89,-175.88 502.05,-180.2 513,-186.83 529.86,-197.03 564.21,-239.42 583.35,-263.99"/>
<polygon fill="midnightblue" stroke="midnightblue" points="580.77,-266.37 589.66,-272.14 586.31,-262.09 580.77,-266.37"/>
</g>
<!-- Node7 -->
<g id="node7" class="node">
<title>Node7</title>
<g id="a_node7"><a xlink:href="read__bitstream_8h_acf4864b9e402d8b801c0d3a8cd5dac3d.html#acf4864b9e402d8b801c0d3a8cd5dac3d" target="_top" xlink:title="read and consume next n bits from the local register">
<polygon fill="white" stroke="black" points="882,-158.33 882,-177.33 962,-177.33 962,-158.33 882,-158.33"/>
<text text-anchor="middle" x="922" y="-165.33" font-family="Helvetica,sans-Serif" font-size="10.00">bit_read_bits</text>
</a>
</g>
</g>
<!-- Node6&#45;&gt;Node7 -->
<g id="edge6" class="edge">
<title>Node6&#45;&gt;Node7</title>
<path fill="none" stroke="midnightblue" d="M798.83,-181.69C821.45,-179.12 848.84,-176.01 871.95,-173.39"/>
<polygon fill="midnightblue" stroke="midnightblue" points="872.36,-176.87 881.9,-172.26 871.57,-169.91 872.36,-176.87"/>
</g>
<!-- Node8 -->
<g id="node8" class="node">
<title>Node8</title>
<g id="a_node8"><a xlink:href="read__bitstream_8h_ad1aa8029b694397da24a84fcdc75acab.html#ad1aa8029b694397da24a84fcdc75acab" target="_top" xlink:title="mark next n bits in the local register as consumed">
<polygon fill="white" stroke="black" points="1022,-177.33 1022,-196.33 1124,-196.33 1124,-177.33 1022,-177.33"/>
<text text-anchor="middle" x="1073" y="-184.33" font-family="Helvetica,sans-Serif" font-size="10.00">bit_consume_bits</text>
</a>
</g>
</g>
<!-- Node7&#45;&gt;Node8 -->
<g id="edge7" class="edge">
<title>Node7&#45;&gt;Node8</title>
<path fill="none" stroke="midnightblue" d="M962.15,-172.82C977.29,-174.75 994.96,-177 1011.65,-179.13"/>
<polygon fill="midnightblue" stroke="midnightblue" points="1011.52,-182.64 1021.88,-180.44 1012.4,-175.7 1011.52,-182.64"/>
</g>
<!-- Node9 -->
<g id="node9" class="node">
<title>Node9</title>
<g id="a_node9"><a xlink:href="read__bitstream_8h_a12cac6ee9f16079c39d9fc7b61639597.html#a12cac6ee9f16079c39d9fc7b61639597" target="_top" xlink:title="provides next n bits from local register; local register is not modified">
<polygon fill="white" stroke="black" points="1032,-101.33 1032,-120.33 1114,-120.33 1114,-101.33 1032,-101.33"/>
<text text-anchor="middle" x="1073" y="-108.33" font-family="Helvetica,sans-Serif" font-size="10.00">bit_peek_bits</text>
</a>
</g>
</g>
<!-- Node7&#45;&gt;Node9 -->
<g id="edge8" class="edge">
<title>Node7&#45;&gt;Node9</title>
<path fill="none" stroke="midnightblue" d="M957.59,-158.23C966.89,-155.43 976.89,-152.2 986,-148.83 1005.32,-141.68 1026.5,-132.34 1043,-124.71"/>
<polygon fill="midnightblue" stroke="midnightblue" points="1044.55,-127.85 1052.13,-120.44 1041.59,-121.51 1044.55,-127.85"/>
</g>
<!-- Node10&#45;&gt;Node3 -->
<g id="edge10" class="edge">
<title>Node10&#45;&gt;Node3</title>
<path fill="none" stroke="midnightblue" d="M626.26,-288.62C647.67,-293.95 678,-301.51 703.46,-307.86"/>
<polygon fill="midnightblue" stroke="midnightblue" points="702.75,-311.29 713.3,-310.31 704.45,-304.5 702.75,-311.29"/>
</g>
<!-- Node11&#45;&gt;Node6 -->
<g id="edge12" class="edge">
<title>Node11&#45;&gt;Node6</title>
<path fill="none" stroke="midnightblue" d="M475.81,-289.97C528.25,-299.91 617.29,-313.9 647,-300.83 691.43,-281.28 725.23,-232.48 741.25,-205.5"/>
<polygon fill="midnightblue" stroke="midnightblue" points="744.39,-207.06 746.33,-196.64 738.32,-203.57 744.39,-207.06"/>
</g>
<!-- Node11&#45;&gt;Node10 -->
<g id="edge13" class="edge">
<title>Node11&#45;&gt;Node10</title>
<path fill="none" stroke="midnightblue" d="M475.8,-281.83C501.38,-281.83 534.41,-281.83 559.53,-281.83"/>
<polygon fill="midnightblue" stroke="midnightblue" points="559.76,-285.33 569.76,-281.83 559.76,-278.33 559.76,-285.33"/>
</g>
<!-- Node12&#45;&gt;Node10 -->
<g id="edge17" class="edge">
<title>Node12&#45;&gt;Node10</title>
<path fill="none" stroke="midnightblue" d="M474.15,-252.83C500.1,-258.96 534.24,-267.01 559.94,-273.08"/>
<polygon fill="midnightblue" stroke="midnightblue" points="559.16,-276.49 569.69,-275.38 560.77,-269.68 559.16,-276.49"/>
</g>
<!-- Node13 -->
<g id="node13" class="node">
<title>Node13</title>
<g id="a_node13"><a xlink:href="read__bitstream_8h_ae9b99a3b550a98eba08bba186159ff7b.html#ae9b99a3b550a98eba08bba186159ff7b" target="_top" xlink:title="same as bit_read_bits32() but subtract 1 from the extracted value">
<polygon fill="white" stroke="black" points="859.5,-234.33 859.5,-253.33 984.5,-253.33 984.5,-234.33 859.5,-234.33"/>
<text text-anchor="middle" x="922" y="-241.33" font-family="Helvetica,sans-Serif" font-size="10.00">bit_read_bits32_sub_1</text>
</a>
</g>
</g>
<!-- Node12&#45;&gt;Node13 -->
<g id="edge15" class="edge">
<title>Node12&#45;&gt;Node13</title>
<path fill="none" stroke="midnightblue" d="M474.06,-243.83C554.88,-243.83 744.79,-243.83 849.16,-243.83"/>
<polygon fill="midnightblue" stroke="midnightblue" points="849.3,-247.33 859.3,-243.83 849.3,-240.33 849.3,-247.33"/>
</g>
<!-- Node13&#45;&gt;Node8 -->
<g id="edge16" class="edge">
<title>Node13&#45;&gt;Node8</title>
<path fill="none" stroke="midnightblue" d="M948.14,-234.26C959.68,-229.87 973.54,-224.59 986,-219.83 1003.07,-213.3 1022.04,-206.02 1037.81,-199.97"/>
<polygon fill="midnightblue" stroke="midnightblue" points="1039.09,-203.23 1047.17,-196.37 1036.58,-196.69 1039.09,-203.23"/>
</g>
<!-- Node17 -->
<g id="node17" class="node">
<title>Node17</title>
<g id="a_node17"><a xlink:href="decmp_8c_ab8ea64d46b8170dc65694e3d0dec64ff.html#ab8ea64d46b8170dc65694e3d0dec64ff" target="_top" xlink:title="decode the next Golomb code word in the bitstream">
<polygon fill="white" stroke="black" points="549,-82.33 549,-101.33 647,-101.33 647,-82.33 549,-82.33"/>
<text text-anchor="middle" x="598" y="-89.33" font-family="Helvetica,sans-Serif" font-size="10.00">golomb_decoder</text>
</a>
</g>
</g>
<!-- Node16&#45;&gt;Node17 -->
<g id="edge21" class="edge">
<title>Node16&#45;&gt;Node17</title>
<path fill="none" stroke="midnightblue" d="M476.63,-120.24C497.97,-115.2 524.31,-108.98 546.91,-103.65"/>
<polygon fill="midnightblue" stroke="midnightblue" points="547.74,-107.05 556.67,-101.35 546.13,-100.24 547.74,-107.05"/>
</g>
<!-- Node18 -->
<g id="node18" class="node">
<title>Node18</title>
<g id="a_node18"><a xlink:href="decmp_8c_ad77fca4bf62b97dc9fe6edabb0086709.html#ad77fca4bf62b97dc9fe6edabb0086709" target="_top" xlink:title="decode the next unary code word in the bitstream">
<polygon fill="white" stroke="black" points="708,-120.33 708,-139.33 797,-139.33 797,-120.33 708,-120.33"/>
<text text-anchor="middle" x="752.5" y="-127.33" font-family="Helvetica,sans-Serif" font-size="10.00">unary_decoder</text>
</a>
</g>
</g>
<!-- Node16&#45;&gt;Node18 -->
<g id="edge32" class="edge">
<title>Node16&#45;&gt;Node18</title>
<path fill="none" stroke="midnightblue" d="M480.2,-129.83C537.19,-129.83 636.25,-129.83 697.6,-129.83"/>
<polygon fill="midnightblue" stroke="midnightblue" points="697.85,-133.33 707.85,-129.83 697.85,-126.33 697.85,-133.33"/>
</g>
<!-- Node20 -->
<g id="node20" class="node">
<title>Node20</title>
<g id="a_node20"><a xlink:href="cmp__support_8c_a7831f21f8303058bcac76d42a4aa1c06.html#a7831f21f8303058bcac76d42a4aa1c06" target="_top" xlink:title="determining if an integer is a power of 2">
<polygon fill="white" stroke="black" points="554,-44.33 554,-63.33 642,-63.33 642,-44.33 554,-44.33"/>
<text text-anchor="middle" x="598" y="-51.33" font-family="Helvetica,sans-Serif" font-size="10.00">is_a_pow_of_2</text>
</a>
</g>
</g>
<!-- Node16&#45;&gt;Node20 -->
<g id="edge28" class="edge">
<title>Node16&#45;&gt;Node20</title>
<path fill="none" stroke="midnightblue" d="M480.03,-123.5C491.28,-120.69 503,-116.65 513,-110.83 533.11,-99.12 529.73,-85.86 549,-72.83 551.75,-70.97 554.7,-69.25 557.75,-67.67"/>
<polygon fill="midnightblue" stroke="midnightblue" points="559.45,-70.74 567.04,-63.35 556.5,-64.39 559.45,-70.74"/>
</g>
<!-- Node21 -->
<g id="node21" class="node">
<title>Node21</title>
<g id="a_node21"><a xlink:href="decmp_8c_a31e9c3bcbe70648b659fe3c8f4383045.html#a31e9c3bcbe70648b659fe3c8f4383045" target="_top" xlink:title="decode the next Rice code word in the bitstream">
<polygon fill="white" stroke="black" points="558.5,-158.33 558.5,-177.33 637.5,-177.33 637.5,-158.33 558.5,-158.33"/>
<text text-anchor="middle" x="598" y="-165.33" font-family="Helvetica,sans-Serif" font-size="10.00">rice_decoder</text>
</a>
</g>
</g>
<!-- Node16&#45;&gt;Node21 -->
<g id="edge29" class="edge">
<title>Node16&#45;&gt;Node21</title>
<path fill="none" stroke="midnightblue" d="M476.63,-139.42C498.46,-144.57 525.52,-150.96 548.45,-156.37"/>
<polygon fill="midnightblue" stroke="midnightblue" points="547.79,-159.81 558.33,-158.7 549.4,-153 547.79,-159.81"/>
</g>
<!-- Node17&#45;&gt;Node8 -->
<g id="edge22" class="edge">
<title>Node17&#45;&gt;Node8</title>
<path fill="none" stroke="midnightblue" d="M647.2,-90.26C736.94,-87.98 925.95,-86.4 986,-110.83 1016.14,-123.09 1042.81,-150.63 1058.19,-168.97"/>
<polygon fill="midnightblue" stroke="midnightblue" points="1055.78,-171.55 1064.79,-177.12 1061.22,-167.15 1055.78,-171.55"/>
</g>
<!-- Node17&#45;&gt;Node9 -->
<g id="edge23" class="edge">
<title>Node17&#45;&gt;Node9</title>
<path fill="none" stroke="midnightblue" d="M647.25,-82.39C658.9,-80.49 671.36,-78.79 683,-77.83 817.21,-66.72 853.59,-53.29 986,-77.83 1005.92,-81.52 1027.19,-89.64 1043.59,-96.9"/>
<polygon fill="midnightblue" stroke="midnightblue" points="1042.57,-100.28 1053.12,-101.26 1045.49,-93.92 1042.57,-100.28"/>
</g>
<!-- Node17&#45;&gt;Node14 -->
<g id="edge24" class="edge">
<title>Node17&#45;&gt;Node14</title>
<path fill="none" stroke="midnightblue" d="M628.01,-82.32C634.48,-79.67 641.15,-76.49 647,-72.83 665.4,-61.31 664.38,-50.98 683,-39.83 694.23,-33.1 707.63,-27.88 719.59,-24.05"/>
<polygon fill="midnightblue" stroke="midnightblue" points="720.64,-27.39 729.21,-21.16 718.63,-20.69 720.64,-27.39"/>
</g>
<!-- Node17&#45;&gt;Node18 -->
<g id="edge25" class="edge">
<title>Node17&#45;&gt;Node18</title>
<path fill="none" stroke="midnightblue" d="M637.48,-101.42C657.52,-106.41 682.2,-112.56 703.48,-117.86"/>
<polygon fill="midnightblue" stroke="midnightblue" points="702.74,-121.29 713.29,-120.31 704.44,-114.49 702.74,-121.29"/>
</g>
<!-- Node18&#45;&gt;Node8 -->
<g id="edge26" class="edge">
<title>Node18&#45;&gt;Node8</title>
<path fill="none" stroke="midnightblue" d="M770.74,-139.37C799.8,-155.44 855.63,-186.22 858,-186.83 908.66,-199.75 968.29,-198.46 1011.71,-194.69"/>
<polygon fill="midnightblue" stroke="midnightblue" points="1012.21,-198.16 1021.83,-193.74 1011.55,-191.19 1012.21,-198.16"/>
</g>
<!-- Node19 -->
<g id="node19" class="node">
<title>Node19</title>
<g id="a_node19"><a xlink:href="read__bitstream_8h_a08b1899a09b0b72856f441efae758d76.html#a08b1899a09b0b72856f441efae758d76" target="_top" xlink:title="count the leading ones in the local register; local register is not modified">
<polygon fill="white" stroke="black" points="858,-120.33 858,-139.33 986,-139.33 986,-120.33 858,-120.33"/>
<text text-anchor="middle" x="922" y="-127.33" font-family="Helvetica,sans-Serif" font-size="10.00">bit_peek_leading_ones</text>
</a>
</g>
</g>
<!-- Node18&#45;&gt;Node19 -->
<g id="edge27" class="edge">
<title>Node18&#45;&gt;Node19</title>
<path fill="none" stroke="midnightblue" d="M797.07,-129.83C812.55,-129.83 830.42,-129.83 847.7,-129.83"/>
<polygon fill="midnightblue" stroke="midnightblue" points="847.78,-133.33 857.78,-129.83 847.78,-126.33 847.78,-133.33"/>
</g>
<!-- Node21&#45;&gt;Node6 -->
<g id="edge30" class="edge">
<title>Node21&#45;&gt;Node6</title>
<path fill="none" stroke="midnightblue" d="M637.88,-172.67C655.69,-174.89 677.11,-177.56 696.53,-179.98"/>
<polygon fill="midnightblue" stroke="midnightblue" points="696.12,-183.45 706.48,-181.22 696.99,-176.51 696.12,-183.45"/>
</g>
<!-- Node21&#45;&gt;Node18 -->
<g id="edge31" class="edge">
<title>Node21&#45;&gt;Node18</title>
<path fill="none" stroke="midnightblue" d="M637.48,-158.24C657.52,-153.25 682.2,-147.1 703.48,-141.79"/>
<polygon fill="midnightblue" stroke="midnightblue" points="704.44,-145.16 713.29,-139.35 702.74,-138.37 704.44,-145.16"/>
</g>
<!-- Node23&#45;&gt;Node11 -->
<g id="edge35" class="edge">
<title>Node23&#45;&gt;Node11</title>
<path fill="none" stroke="midnightblue" d="M284.44,-281.83C313.72,-281.83 353.1,-281.83 384.1,-281.83"/>
<polygon fill="midnightblue" stroke="midnightblue" points="384.27,-285.33 394.27,-281.83 384.27,-278.33 384.27,-285.33"/>
</g>
<!-- Node24 -->
<g id="node24" class="node">
<title>Node24</title>
<g id="a_node24"><a xlink:href="decmp_8c_a931b1f11894a7118817a8b8bb08644f9.html#a931b1f11894a7118817a8b8bb08644f9" target="_top" xlink:title="remap an unsigned value back to a signed value">
<polygon fill="white" stroke="black" points="389.5,-310.33 389.5,-329.33 480.5,-329.33 480.5,-310.33 389.5,-310.33"/>
<text text-anchor="middle" x="435" y="-317.33" font-family="Helvetica,sans-Serif" font-size="10.00">re_map_to_pos</text>
</a>
</g>
</g>
<!-- Node23&#45;&gt;Node24 -->
<g id="edge36" class="edge">
<title>Node23&#45;&gt;Node24</title>
<path fill="none" stroke="midnightblue" d="M284.44,-290.07C312.24,-295.6 349.15,-302.95 379.35,-308.95"/>
<polygon fill="midnightblue" stroke="midnightblue" points="378.81,-312.42 389.31,-310.94 380.18,-305.55 378.81,-312.42"/>
</g>
</g>
</svg>
        <g id="navigator" transform="translate(0 0)" fill="#404254">
                <rect fill="#f2f5e9" fill-opacity="0.5" stroke="#606060" stroke-width=".5" x="0" y="0" width="60" height="60"/>
                <use id="zoomplus" xlink:href="#zoomPlus" x="17" y="9" onmousedown="handleZoom(evt,'in')"/>
                <use id="zoomminus" xlink:href="#zoomMin" x="42" y="9" onmousedown="handleZoom(evt,'out')"/>
                <use id="reset" xlink:href="#resetDef" x="30" y="36" onmousedown="handleReset()"/>
                <g id="arrowUp" xlink:href="#dirArrow" transform="translate(30 24)" onmousedown="handlePan(0,-1)">
                  <use xlink:href="#rim" fill="#404040">
                        <set attributeName="fill" to="#808080" begin="arrowUp.mouseover" end="arrowUp.mouseout"/>
                  </use>
                  <path fill="none" stroke="white" stroke-width="1.5" d="M0,-3.0v7 M-2.5,-0.5L0,-3.0L2.5,-0.5"/>
                </g>
                <g id="arrowRight" xlink:href="#dirArrow" transform="rotate(90) translate(36 -43)" onmousedown="handlePan(1,0)">
                  <use xlink:href="#rim" fill="#404040">
                        <set attributeName="fill" to="#808080" begin="arrowRight.mouseover" end="arrowRight.mouseout"/>
                  </use>
                  <path fill="none" stroke="white" stroke-width="1.5" d="M0,-3.0v7 M-2.5,-0.5L0,-3.0L2.5,-0.5"/>
                </g>
                <g id="arrowDown" xlink:href="#dirArrow" transform="rotate(180) translate(-30 -48)" onmousedown="handlePan(0,1)">
                  <use xlink:href="#rim" fill="#404040">
                        <set attributeName="fill" to="#808080" begin="arrowDown.mouseover" end="arrowDown.mouseout"/>
                  </use>
                  <path fill="none" stroke="white" stroke-width="1.5" d="M0,-3.0v7 M-2.5,-0.5L0,-3.0L2.5,-0.5"/>
                </g>
                <g id="arrowLeft" xlink:href="#dirArrow" transform="rotate(270) translate(-36 17)" onmousedown="handlePan(-1,0)">
                  <use xlink:href="#rim" fill="#404040">
                        <set attributeName="fill" to="#808080" begin="arrowLeft.mouseover" end="arrowLeft.mouseout"/>
                  </use>
                  <path fill="none" stroke="white" stroke-width="1.5" d="M0,-3.0v7 M-2.5,-0.5L0,-3.0L2.5,-0.5"/>
                </g>
        </g>
        <svg viewBox="0 0 15 15" width="100%" height="30px" preserveAspectRatio="xMaxYMin meet">
         <g id="arrow_out" transform="scale(0.3 0.3)">
          <a xlink:href="decmp_8c_ab043a8a939e8818cf2875aecec205bb9_ab043a8a939e8818cf2875aecec205bb9_cgraph_org.svg" target="_base">
           <rect id="button" ry="5" rx="5" y="6" x="6" height="38" width="38"
                fill="#f2f5e9" fill-opacity="0.5" stroke="#606060" stroke-width="1.0"/>
           <path id="arrow"
             d="M 11.500037,31.436501 C 11.940474,20.09759 22.043105,11.32322 32.158766,21.979434 L 37.068811,17.246167 C 37.068811,17.246167 37.088388,32 37.088388,32 L 22.160133,31.978069 C 22.160133,31.978069 26.997745,27.140456 26.997745,27.140456 C 18.528582,18.264221 13.291696,25.230495 11.500037,31.436501 z"
             style="fill:#404040;"/>
          </a>
         </g>
        </svg>
</svg>
