<?xml version="1.0" encoding="UTF-8" standalone="no"?>
<!DOCTYPE svg PUBLIC "-//W3C//DTD SVG 1.1//EN"
 "http://www.w3.org/Graphics/SVG/1.1/DTD/svg11.dtd">
<!-- Generated by graphviz version 2.43.0 (0)
 -->
<!-- Title: decode_value Pages: 1 -->
<!--zoomable 104 -->
<svg id="main" version="1.1" xmlns="http://www.w3.org/2000/svg" xmlns:xlink="http://www.w3.org/1999/xlink" xml:space="preserve" onload="init(evt)">
<style type="text/css"><![CDATA[
.edge:hover path { stroke: red; }
.edge:hover polygon { stroke: red; fill: red; }
]]></style>
<script type="text/javascript"><![CDATA[
var edges = document.getElementsByTagName('g');
if (edges && edges.length) {
  for (var i=0;i<edges.length;i++) {
    if (edges[i].id.substr(0,4)=='edge') {
      edges[i].setAttribute('class','edge');
    }
  }
}
]]></script>
        <defs>
                <circle id="rim" cx="0" cy="0" r="7"/>
                <circle id="rim2" cx="0" cy="0" r="3.5"/>
                <g id="zoomPlus">
                        <use xlink:href="#rim" fill="#404040">
                                <set attributeName="fill" to="#808080" begin="zoomplus.mouseover" end="zoomplus.mouseout"/>
                        </use>
                        <path d="M-4,0h8M0,-4v8" fill="none" stroke="white" stroke-width="1.5" pointer-events="none"/>
                </g>
                <g id="zoomMin">
                        <use xlink:href="#rim" fill="#404040">
                                <set attributeName="fill" to="#808080" begin="zoomminus.mouseover" end="zoomminus.mouseout"/>
                        </use>
                        <path d="M-4,0h8" fill="none" stroke="white" stroke-width="1.5" pointer-events="none"/>
                </g>
                <g id="dirArrow">
                        <path fill="none" stroke="white" stroke-width="1.5" d="M0,-3.0v7 M-2.5,-0.5L0,-3.0L2.5,-0.5"/>
                </g>
               <g id="resetDef">
                       <use xlink:href="#rim2" fill="#404040">
                               <set attributeName="fill" to="#808080" begin="reset.mouseover" end="reset.mouseout"/>
                       </use>
               </g>
        </defs>

<script type="text/javascript">
var viewWidth = 660;
var viewHeight = 104;
var sectionId = 'dynsection-0';
</script>
<script xlink:href="svgpan.js"/>
<svg id="graph" class="graph">
<g id="viewport">
<title>decode_value</title>
<polygon fill="white" stroke="transparent" points="-4,4 -4,-100 656,-100 656,4 -4,4"/>
<!-- Node1 -->
<g id="node1" class="node">
<title>Node1</title>
<g id="a_node1"><a xlink:title="decompress the next code word in the bitstream and decorate it with the model">
<polygon fill="#bfbfbf" stroke="black" points="0,-19.5 0,-38.5 84,-38.5 84,-19.5 0,-19.5"/>
<text text-anchor="middle" x="42" y="-26.5" font-family="Helvetica,sans-Serif" font-size="10.00">decode_value</text>
</a>
</g>
</g>
<!-- Node2 -->
<g id="node2" class="node">
<title>Node2</title>
<g id="a_node2"><a xlink:href="decmp_8c_a071c03ef3d6f70f5be1e9aeb41fc157a.html#a071c03ef3d6f70f5be1e9aeb41fc157a" target="_top" xlink:title="get the value unencoded with setup&#45;&gt;cmp_par_1 bits without any additional changes from the bitstream">
<polygon fill="white" stroke="black" points="125,-38.5 125,-57.5 206,-57.5 206,-38.5 125,-38.5"/>
<text text-anchor="middle" x="165.5" y="-45.5" font-family="Helvetica,sans-Serif" font-size="10.00">decode_none</text>
</a>
</g>
</g>
<!-- Node1&#45;&gt;Node2 -->
<g id="edge1" class="edge">
<title>Node1&#45;&gt;Node2</title>
<path fill="none" stroke="midnightblue" d="M84.13,-35.43C93.94,-36.97 104.52,-38.62 114.67,-40.21"/>
<polygon fill="midnightblue" stroke="midnightblue" points="114.22,-43.68 124.64,-41.77 115.3,-36.76 114.22,-43.68"/>
</g>
<!-- Node9 -->
<g id="node9" class="node">
<title>Node9</title>
<g id="a_node9"><a xlink:href="decmp_8c_a931b1f11894a7118817a8b8bb08644f9.html#a931b1f11894a7118817a8b8bb08644f9" target="_top" xlink:title="remap an unsigned value back to a signed value">
<polygon fill="white" stroke="black" points="120,-0.5 120,-19.5 211,-19.5 211,-0.5 120,-0.5"/>
<text text-anchor="middle" x="165.5" y="-7.5" font-family="Helvetica,sans-Serif" font-size="10.00">re_map_to_pos</text>
</a>
</g>
</g>
<!-- Node1&#45;&gt;Node9 -->
<g id="edge8" class="edge">
<title>Node1&#45;&gt;Node9</title>
<path fill="none" stroke="midnightblue" d="M84.13,-22.57C92.35,-21.28 101.1,-19.91 109.69,-18.57"/>
<polygon fill="midnightblue" stroke="midnightblue" points="110.32,-22.02 119.66,-17.01 109.24,-15.1 110.32,-22.02"/>
</g>
<!-- Node3 -->
<g id="node3" class="node">
<title>Node3</title>
<g id="a_node3"><a xlink:href="read__bitstream_8h_ad3b2702183e32bb737d84c8accd73066.html#ad3b2702183e32bb737d84c8accd73066" target="_top" xlink:title="same as bit_read_bits32() but only returns 32 bit">
<polygon fill="white" stroke="black" points="247,-57.5 247,-76.5 339,-76.5 339,-57.5 247,-57.5"/>
<text text-anchor="middle" x="293" y="-64.5" font-family="Helvetica,sans-Serif" font-size="10.00">bit_read_bits32</text>
</a>
</g>
</g>
<!-- Node2&#45;&gt;Node3 -->
<g id="edge2" class="edge">
<title>Node2&#45;&gt;Node3</title>
<path fill="none" stroke="midnightblue" d="M206.21,-54.01C215.9,-55.48 226.45,-57.08 236.73,-58.63"/>
<polygon fill="midnightblue" stroke="midnightblue" points="236.46,-62.13 246.87,-60.17 237.51,-55.21 236.46,-62.13"/>
</g>
<!-- Node7 -->
<g id="node7" class="node">
<title>Node7</title>
<g id="a_node7"><a xlink:href="read__bitstream_8h_a65b5e1cb1107340846d20cae42c8a00c.html#a65b5e1cb1107340846d20cae42c8a00c" target="_top" xlink:title="refill the local register from the buffer previously set in bit_init_decoder()">
<polygon fill="white" stroke="black" points="265,-19.5 265,-38.5 321,-38.5 321,-19.5 265,-19.5"/>
<text text-anchor="middle" x="293" y="-26.5" font-family="Helvetica,sans-Serif" font-size="10.00">bit_refill</text>
</a>
</g>
</g>
<!-- Node2&#45;&gt;Node7 -->
<g id="edge6" class="edge">
<title>Node2&#45;&gt;Node7</title>
<path fill="none" stroke="midnightblue" d="M206.21,-41.99C221.73,-39.64 239.43,-36.96 254.71,-34.65"/>
<polygon fill="midnightblue" stroke="midnightblue" points="255.48,-38.07 264.85,-33.11 254.43,-31.15 255.48,-38.07"/>
</g>
<!-- Node4 -->
<g id="node4" class="node">
<title>Node4</title>
<g id="a_node4"><a xlink:href="read__bitstream_8h_acf4864b9e402d8b801c0d3a8cd5dac3d.html#acf4864b9e402d8b801c0d3a8cd5dac3d" target="_top" xlink:title="read and consume next n bits from the local register">
<polygon fill="white" stroke="black" points="404.5,-57.5 404.5,-76.5 484.5,-76.5 484.5,-57.5 404.5,-57.5"/>
<text text-anchor="middle" x="444.5" y="-64.5" font-family="Helvetica,sans-Serif" font-size="10.00">bit_read_bits</text>
</a>
</g>
</g>
<!-- Node3&#45;&gt;Node4 -->
<g id="edge3" class="edge">
<title>Node3&#45;&gt;Node4</title>
<path fill="none" stroke="midnightblue" d="M339.26,-67C356.65,-67 376.57,-67 394.3,-67"/>
<polygon fill="midnightblue" stroke="midnightblue" points="394.46,-70.5 404.46,-67 394.46,-63.5 394.46,-70.5"/>
</g>
<!-- Node5 -->
<g id="node5" class="node">
<title>Node5</title>
<g id="a_node5"><a xlink:href="read__bitstream_8h_ad1aa8029b694397da24a84fcdc75acab.html#ad1aa8029b694397da24a84fcdc75acab" target="_top" xlink:title="mark next n bits in the local register as consumed">
<polygon fill="white" stroke="black" points="550,-76.5 550,-95.5 652,-95.5 652,-76.5 550,-76.5"/>
<text text-anchor="middle" x="601" y="-83.5" font-family="Helvetica,sans-Serif" font-size="10.00">bit_consume_bits</text>
</a>
</g>
</g>
<!-- Node4&#45;&gt;Node5 -->
<g id="edge4" class="edge">
<title>Node4&#45;&gt;Node5</title>
<path fill="none" stroke="midnightblue" d="M484.89,-71.84C501.56,-73.89 521.35,-76.33 539.79,-78.6"/>
<polygon fill="midnightblue" stroke="midnightblue" points="539.51,-82.09 549.86,-79.83 540.36,-75.14 539.51,-82.09"/>
</g>
<!-- Node6 -->
<g id="node6" class="node">
<title>Node6</title>
<g id="a_node6"><a xlink:href="read__bitstream_8h_a12cac6ee9f16079c39d9fc7b61639597.html#a12cac6ee9f16079c39d9fc7b61639597" target="_top" xlink:title="provides next n bits from local register; local register is not modified">
<polygon fill="white" stroke="black" points="560,-38.5 560,-57.5 642,-57.5 642,-38.5 560,-38.5"/>
<text text-anchor="middle" x="601" y="-45.5" font-family="Helvetica,sans-Serif" font-size="10.00">bit_peek_bits</text>
</a>
</g>
</g>
<!-- Node4&#45;&gt;Node6 -->
<g id="edge5" class="edge">
<title>Node4&#45;&gt;Node6</title>
<path fill="none" stroke="midnightblue" d="M484.89,-62.16C504.63,-59.73 528.76,-56.76 549.82,-54.17"/>
<polygon fill="midnightblue" stroke="midnightblue" points="550.38,-57.63 559.88,-52.93 549.53,-50.68 550.38,-57.63"/>
</g>
<!-- Node8 -->
<g id="node8" class="node">
<title>Node8</title>
<g id="a_node8"><a xlink:href="read__bitstream_8h_a4de9ebb7d031d3dcf638b7d0ae6f166d.html#a4de9ebb7d031d3dcf638b7d0ae6f166d" target="_top" xlink:title="read 8 bytes of big&#45;endian data from an unaligned address">
<polygon fill="white" stroke="black" points="375,-19.5 375,-38.5 514,-38.5 514,-19.5 375,-19.5"/>
<text text-anchor="middle" x="444.5" y="-26.5" font-family="Helvetica,sans-Serif" font-size="10.00">bit_read_unaligned_64be</text>
</a>
</g>
</g>
<!-- Node7&#45;&gt;Node8 -->
<g id="edge7" class="edge">
<title>Node7&#45;&gt;Node8</title>
<path fill="none" stroke="midnightblue" d="M321.07,-29C333.5,-29 348.94,-29 364.62,-29"/>
<polygon fill="midnightblue" stroke="midnightblue" points="364.93,-32.5 374.93,-29 364.93,-25.5 364.93,-32.5"/>
</g>
</g>
</svg>
        <g id="navigator" transform="translate(0 0)" fill="#404254">
                <rect fill="#f2f5e9" fill-opacity="0.5" stroke="#606060" stroke-width=".5" x="0" y="0" width="60" height="60"/>
                <use id="zoomplus" xlink:href="#zoomPlus" x="17" y="9" onmousedown="handleZoom(evt,'in')"/>
                <use id="zoomminus" xlink:href="#zoomMin" x="42" y="9" onmousedown="handleZoom(evt,'out')"/>
                <use id="reset" xlink:href="#resetDef" x="30" y="36" onmousedown="handleReset()"/>
                <g id="arrowUp" xlink:href="#dirArrow" transform="translate(30 24)" onmousedown="handlePan(0,-1)">
                  <use xlink:href="#rim" fill="#404040">
                        <set attributeName="fill" to="#808080" begin="arrowUp.mouseover" end="arrowUp.mouseout"/>
                  </use>
                  <path fill="none" stroke="white" stroke-width="1.5" d="M0,-3.0v7 M-2.5,-0.5L0,-3.0L2.5,-0.5"/>
                </g>
                <g id="arrowRight" xlink:href="#dirArrow" transform="rotate(90) translate(36 -43)" onmousedown="handlePan(1,0)">
                  <use xlink:href="#rim" fill="#404040">
                        <set attributeName="fill" to="#808080" begin="arrowRight.mouseover" end="arrowRight.mouseout"/>
                  </use>
                  <path fill="none" stroke="white" stroke-width="1.5" d="M0,-3.0v7 M-2.5,-0.5L0,-3.0L2.5,-0.5"/>
                </g>
                <g id="arrowDown" xlink:href="#dirArrow" transform="rotate(180) translate(-30 -48)" onmousedown="handlePan(0,1)">
                  <use xlink:href="#rim" fill="#404040">
                        <set attributeName="fill" to="#808080" begin="arrowDown.mouseover" end="arrowDown.mouseout"/>
                  </use>
                  <path fill="none" stroke="white" stroke-width="1.5" d="M0,-3.0v7 M-2.5,-0.5L0,-3.0L2.5,-0.5"/>
                </g>
                <g id="arrowLeft" xlink:href="#dirArrow" transform="rotate(270) translate(-36 17)" onmousedown="handlePan(-1,0)">
                  <use xlink:href="#rim" fill="#404040">
                        <set attributeName="fill" to="#808080" begin="arrowLeft.mouseover" end="arrowLeft.mouseout"/>
                  </use>
                  <path fill="none" stroke="white" stroke-width="1.5" d="M0,-3.0v7 M-2.5,-0.5L0,-3.0L2.5,-0.5"/>
                </g>
        </g>
        <svg viewBox="0 0 15 15" width="100%" height="30px" preserveAspectRatio="xMaxYMin meet">
         <g id="arrow_out" transform="scale(0.3 0.3)">
          <a xlink:href="decmp_8c_a5e29a350ebed1be3d3240b4aed0c67bc_a5e29a350ebed1be3d3240b4aed0c67bc_cgraph_org.svg" target="_base">
           <rect id="button" ry="5" rx="5" y="6" x="6" height="38" width="38"
                fill="#f2f5e9" fill-opacity="0.5" stroke="#606060" stroke-width="1.0"/>
           <path id="arrow"
             d="M 11.500037,31.436501 C 11.940474,20.09759 22.043105,11.32322 32.158766,21.979434 L 37.068811,17.246167 C 37.068811,17.246167 37.088388,32 37.088388,32 L 22.160133,31.978069 C 22.160133,31.978069 26.997745,27.140456 26.997745,27.140456 C 18.528582,18.264221 13.291696,25.230495 11.500037,31.436501 z"
             style="fill:#404040;"/>
          </a>
         </g>
        </svg>
</svg>
