<?xml version="1.0" encoding="UTF-8" standalone="no"?>
<!DOCTYPE svg PUBLIC "-//W3C//DTD SVG 1.1//EN"
 "http://www.w3.org/Graphics/SVG/1.1/DTD/svg11.dtd">
<!-- Generated by graphviz version 2.43.0 (0)
 -->
<!-- Title: decompress_s_fx_ncob Pages: 1 -->
<svg width="1135pt" height="357pt"
 viewBox="0.00 0.00 1135.00 356.83" xmlns="http://www.w3.org/2000/svg" xmlns:xlink="http://www.w3.org/1999/xlink">
<g id="graph0" class="graph" transform="scale(1 1) rotate(0) translate(4 352.83)">
<title>decompress_s_fx_ncob</title>
<polygon fill="white" stroke="transparent" points="-4,4 -4,-352.83 1131,-352.83 1131,4 -4,4"/>
<!-- Node1 -->
<g id="node1" class="node">
<title>Node1</title>
<g id="a_node1"><a xlink:title="decompress short S_FX_NCOB data">
<polygon fill="#bfbfbf" stroke="black" points="0,-196.33 0,-215.33 130,-215.33 130,-196.33 0,-196.33"/>
<text text-anchor="middle" x="65" y="-203.33" font-family="Helvetica,sans-Serif" font-size="10.00">decompress_s_fx_ncob</text>
</a>
</g>
</g>
<!-- Node2 -->
<g id="node2" class="node">
<title>Node2</title>
<g id="a_node2"><a xlink:href="read__bitstream_8h_aa1739fc7209fe65165c7262036a1969d.html#aa1739fc7209fe65165c7262036a1969d" target="_top" xlink:title="initialize a bit_decoder">
<polygon fill="white" stroke="black" points="197.5,-329.33 197.5,-348.33 292.5,-348.33 292.5,-329.33 197.5,-329.33"/>
<text text-anchor="middle" x="245" y="-336.33" font-family="Helvetica,sans-Serif" font-size="10.00">bit_init_decoder</text>
</a>
</g>
</g>
<!-- Node1&#45;&gt;Node2 -->
<g id="edge1" class="edge">
<title>Node1&#45;&gt;Node2</title>
<path fill="none" stroke="midnightblue" d="M74.29,-215.47C90.47,-233.87 128.03,-274.48 166,-300.83 179.68,-310.32 196.08,-318.69 210.3,-325.15"/>
<polygon fill="midnightblue" stroke="midnightblue" points="209.18,-328.48 219.75,-329.3 212,-322.07 209.18,-328.48"/>
</g>
<!-- Node4 -->
<g id="node4" class="node">
<title>Node4</title>
<g id="a_node4"><a xlink:href="decmp_8c_ac9a6281c5fcfbf077cc63e0494274f20.html#ac9a6281c5fcfbf077cc63e0494274f20" target="_top" xlink:title="configure a decoder setup structure to have a setup to decode a vale">
<polygon fill="white" stroke="black" points="176,-196.33 176,-215.33 314,-215.33 314,-196.33 176,-196.33"/>
<text text-anchor="middle" x="245" y="-203.33" font-family="Helvetica,sans-Serif" font-size="10.00">configure_decoder_setup</text>
</a>
</g>
</g>
<!-- Node1&#45;&gt;Node4 -->
<g id="edge3" class="edge">
<title>Node1&#45;&gt;Node4</title>
<path fill="none" stroke="midnightblue" d="M130.01,-205.83C141.5,-205.83 153.59,-205.83 165.43,-205.83"/>
<polygon fill="midnightblue" stroke="midnightblue" points="165.75,-209.33 175.75,-205.83 165.75,-202.33 165.75,-209.33"/>
</g>
<!-- Node23 -->
<g id="node23" class="node">
<title>Node23</title>
<g id="a_node23"><a xlink:href="decmp_8c_a5e29a350ebed1be3d3240b4aed0c67bc.html#a5e29a350ebed1be3d3240b4aed0c67bc" target="_top" xlink:title="decompress the next code word in the bitstream and decorate it with the model">
<polygon fill="white" stroke="black" points="203,-272.33 203,-291.33 287,-291.33 287,-272.33 203,-272.33"/>
<text text-anchor="middle" x="245" y="-279.33" font-family="Helvetica,sans-Serif" font-size="10.00">decode_value</text>
</a>
</g>
</g>
<!-- Node1&#45;&gt;Node23 -->
<g id="edge34" class="edge">
<title>Node1&#45;&gt;Node23</title>
<path fill="none" stroke="midnightblue" d="M88.54,-215.45C119.84,-228.82 176.61,-253.05 212.2,-268.25"/>
<polygon fill="midnightblue" stroke="midnightblue" points="211.07,-271.57 221.64,-272.28 213.82,-265.13 211.07,-271.57"/>
</g>
<!-- Node25 -->
<g id="node25" class="node">
<title>Node25</title>
<g id="a_node25"><a xlink:href="decmp_8c_a94885dc7430737ba85a8d8720c839022.html#a94885dc7430737ba85a8d8720c839022" target="_top" xlink:title="decompress the multi&#45;entry packet header structure and sets the data, model and up_model pointers to ...">
<polygon fill="white" stroke="black" points="166,-158.33 166,-177.33 324,-177.33 324,-158.33 166,-158.33"/>
<text text-anchor="middle" x="245" y="-165.33" font-family="Helvetica,sans-Serif" font-size="10.00">decompress_multi_entry_hdr</text>
</a>
</g>
</g>
<!-- Node1&#45;&gt;Node25 -->
<g id="edge37" class="edge">
<title>Node1&#45;&gt;Node25</title>
<path fill="none" stroke="midnightblue" d="M110.92,-196.24C134.83,-191.13 164.42,-184.82 189.62,-179.44"/>
<polygon fill="midnightblue" stroke="midnightblue" points="190.36,-182.86 199.41,-177.35 188.9,-176.01 190.36,-182.86"/>
</g>
<!-- Node26 -->
<g id="node26" class="node">
<title>Node26</title>
<g id="a_node26"><a xlink:href="cmp__support_8c_afba7806c424cfb8c7678c1b4cebdfcbb.html#afba7806c424cfb8c7678c1b4cebdfcbb" target="_top" xlink:title="check if a model mode is selected">
<polygon fill="white" stroke="black" points="184,-120.33 184,-139.33 306,-139.33 306,-120.33 184,-120.33"/>
<text text-anchor="middle" x="245" y="-127.33" font-family="Helvetica,sans-Serif" font-size="10.00">model_mode_is_used</text>
</a>
</g>
</g>
<!-- Node1&#45;&gt;Node26 -->
<g id="edge38" class="edge">
<title>Node1&#45;&gt;Node26</title>
<path fill="none" stroke="midnightblue" d="M79.94,-196.2C98.71,-183.64 133.5,-161.75 166,-148.83 172.27,-146.34 178.95,-144.11 185.67,-142.13"/>
<polygon fill="midnightblue" stroke="midnightblue" points="186.78,-145.45 195.49,-139.42 184.92,-138.71 186.78,-145.45"/>
</g>
<!-- Node3 -->
<g id="node3" class="node">
<title>Node3</title>
<g id="a_node3"><a xlink:href="read__bitstream_8h_a4de9ebb7d031d3dcf638b7d0ae6f166d.html#a4de9ebb7d031d3dcf638b7d0ae6f166d" target="_top" xlink:title="read 8 bytes of big&#45;endian data from an unaligned address">
<polygon fill="white" stroke="black" points="686,-310.33 686,-329.33 825,-329.33 825,-310.33 686,-310.33"/>
<text text-anchor="middle" x="755.5" y="-317.33" font-family="Helvetica,sans-Serif" font-size="10.00">bit_read_unaligned_64be</text>
</a>
</g>
</g>
<!-- Node2&#45;&gt;Node3 -->
<g id="edge2" class="edge">
<title>Node2&#45;&gt;Node3</title>
<path fill="none" stroke="midnightblue" d="M292.85,-339.96C346.71,-340.99 437.78,-341.94 516,-338.83 569.46,-336.7 629.5,-331.91 675.96,-327.66"/>
<polygon fill="midnightblue" stroke="midnightblue" points="676.33,-331.15 685.96,-326.74 675.68,-324.17 676.33,-331.15"/>
</g>
<!-- Node5 -->
<g id="node5" class="node">
<title>Node5</title>
<g id="a_node5"><a xlink:href="decmp_8c_a0082c0ea9e4c9c5eaa41b804e94bdf1d.html#a0082c0ea9e4c9c5eaa41b804e94bdf1d" target="_top" xlink:title="decode the next code word with the multi escape mechanism from the bitstream">
<polygon fill="white" stroke="black" points="396.5,-158.33 396.5,-177.33 479.5,-177.33 479.5,-158.33 396.5,-158.33"/>
<text text-anchor="middle" x="438" y="-165.33" font-family="Helvetica,sans-Serif" font-size="10.00">decode_multi</text>
</a>
</g>
</g>
<!-- Node4&#45;&gt;Node5 -->
<g id="edge4" class="edge">
<title>Node4&#45;&gt;Node5</title>
<path fill="none" stroke="midnightblue" d="M294.2,-196.24C322.25,-190.66 357.58,-183.63 386.09,-177.96"/>
<polygon fill="midnightblue" stroke="midnightblue" points="387.13,-181.32 396.25,-175.93 385.76,-174.45 387.13,-181.32"/>
</g>
<!-- Node11 -->
<g id="node11" class="node">
<title>Node11</title>
<g id="a_node11"><a xlink:href="decmp_8c_a071c03ef3d6f70f5be1e9aeb41fc157a.html#a071c03ef3d6f70f5be1e9aeb41fc157a" target="_top" xlink:title="get the value unencoded with setup&#45;&gt;cmp_par_1 bits without any additional changes from the bitstream">
<polygon fill="white" stroke="black" points="397.5,-272.33 397.5,-291.33 478.5,-291.33 478.5,-272.33 397.5,-272.33"/>
<text text-anchor="middle" x="438" y="-279.33" font-family="Helvetica,sans-Serif" font-size="10.00">decode_none</text>
</a>
</g>
</g>
<!-- Node4&#45;&gt;Node11 -->
<g id="edge11" class="edge">
<title>Node4&#45;&gt;Node11</title>
<path fill="none" stroke="midnightblue" d="M262.48,-215.53C284.19,-227.97 323.87,-249.52 360,-262.83 368.73,-266.04 378.21,-268.88 387.45,-271.32"/>
<polygon fill="midnightblue" stroke="midnightblue" points="386.77,-274.76 397.32,-273.81 388.48,-267.97 386.77,-274.76"/>
</g>
<!-- Node12 -->
<g id="node12" class="node">
<title>Node12</title>
<g id="a_node12"><a xlink:href="decmp_8c_ad5f1a8490e42bf0710838367255d21dc.html#ad5f1a8490e42bf0710838367255d21dc" target="_top" xlink:title="decode the next code word with zero escape system mechanism from the bitstream">
<polygon fill="white" stroke="black" points="399,-234.33 399,-253.33 477,-253.33 477,-234.33 399,-234.33"/>
<text text-anchor="middle" x="438" y="-241.33" font-family="Helvetica,sans-Serif" font-size="10.00">decode_zero</text>
</a>
</g>
</g>
<!-- Node4&#45;&gt;Node12 -->
<g id="edge14" class="edge">
<title>Node4&#45;&gt;Node12</title>
<path fill="none" stroke="midnightblue" d="M294.2,-215.42C323.16,-221.18 359.89,-228.49 388.85,-234.25"/>
<polygon fill="midnightblue" stroke="midnightblue" points="388.25,-237.7 398.74,-236.22 389.62,-230.83 388.25,-237.7"/>
</g>
<!-- Node14 -->
<g id="node14" class="node">
<title>Node14</title>
<g id="a_node14"><a xlink:href="cmp__support_8c_a67b0e38ca0e68c282c89552daa61ffdf.html#a67b0e38ca0e68c282c89552daa61ffdf" target="_top" xlink:title="implementation of the logarithm base of floor(log2(x)) for integers">
<polygon fill="white" stroke="black" points="732.5,-6.33 732.5,-25.33 778.5,-25.33 778.5,-6.33 732.5,-6.33"/>
<text text-anchor="middle" x="755.5" y="-13.33" font-family="Helvetica,sans-Serif" font-size="10.00">ilog_2</text>
</a>
</g>
</g>
<!-- Node4&#45;&gt;Node14 -->
<g id="edge18" class="edge">
<title>Node4&#45;&gt;Node14</title>
<path fill="none" stroke="midnightblue" d="M310.19,-196.21C315.22,-193.72 319.93,-190.64 324,-186.83 362.81,-150.54 320.41,-108.27 360,-72.83 463.69,20 647.93,2.16 722.17,-9.76"/>
<polygon fill="midnightblue" stroke="midnightblue" points="721.86,-13.26 732.3,-11.46 723.02,-6.36 721.86,-13.26"/>
</g>
<!-- Node15 -->
<g id="node15" class="node">
<title>Node15</title>
<g id="a_node15"><a xlink:href="cmp__support_8c_a0d3630773f703ddc81ca12e1f04485d9.html#a0d3630773f703ddc81ca12e1f04485d9" target="_top" xlink:title="check if multi escape symbol mechanism mode is used">
<polygon fill="white" stroke="black" points="360,-82.33 360,-101.33 516,-101.33 516,-82.33 360,-82.33"/>
<text text-anchor="middle" x="438" y="-89.33" font-family="Helvetica,sans-Serif" font-size="10.00">multi_escape_mech_is_used</text>
</a>
</g>
</g>
<!-- Node4&#45;&gt;Node15 -->
<g id="edge19" class="edge">
<title>Node4&#45;&gt;Node15</title>
<path fill="none" stroke="midnightblue" d="M308.1,-196.29C313.82,-193.8 319.25,-190.7 324,-186.83 352.98,-163.22 331.06,-134.48 360,-110.83 362.05,-109.15 364.23,-107.62 366.51,-106.22"/>
<polygon fill="midnightblue" stroke="midnightblue" points="368.43,-109.16 375.69,-101.45 365.21,-102.95 368.43,-109.16"/>
</g>
<!-- Node16 -->
<g id="node16" class="node">
<title>Node16</title>
<g id="a_node16"><a xlink:href="decmp_8c_ac57439dd4b34cf8fb663756f2b7b2549.html#ac57439dd4b34cf8fb663756f2b7b2549" target="_top" xlink:title="select the decoder based on the used Golomb parameter">
<polygon fill="white" stroke="black" points="393,-120.33 393,-139.33 483,-139.33 483,-120.33 393,-120.33"/>
<text text-anchor="middle" x="438" y="-127.33" font-family="Helvetica,sans-Serif" font-size="10.00">select_decoder</text>
</a>
</g>
</g>
<!-- Node4&#45;&gt;Node16 -->
<g id="edge20" class="edge">
<title>Node4&#45;&gt;Node16</title>
<path fill="none" stroke="midnightblue" d="M302.48,-196.2C309.99,-193.74 317.37,-190.67 324,-186.83 344.12,-175.15 339.89,-160.53 360,-148.83 367.11,-144.69 375.09,-141.45 383.15,-138.91"/>
<polygon fill="midnightblue" stroke="midnightblue" points="384.29,-142.23 392.97,-136.15 382.39,-135.49 384.29,-142.23"/>
</g>
<!-- Node22 -->
<g id="node22" class="node">
<title>Node22</title>
<g id="a_node22"><a xlink:href="cmp__support_8c_a82a852e0723978f5d5f4f5dbb756fa8f.html#a82a852e0723978f5d5f4f5dbb756fa8f" target="_top" xlink:title="check if zero escape symbol mechanism mode is used">
<polygon fill="white" stroke="black" points="362,-196.33 362,-215.33 514,-215.33 514,-196.33 362,-196.33"/>
<text text-anchor="middle" x="438" y="-203.33" font-family="Helvetica,sans-Serif" font-size="10.00">zero_escape_mech_is_used</text>
</a>
</g>
</g>
<!-- Node4&#45;&gt;Node22 -->
<g id="edge33" class="edge">
<title>Node4&#45;&gt;Node22</title>
<path fill="none" stroke="midnightblue" d="M314.15,-205.83C326.32,-205.83 339.14,-205.83 351.72,-205.83"/>
<polygon fill="midnightblue" stroke="midnightblue" points="351.74,-209.33 361.74,-205.83 351.74,-202.33 351.74,-209.33"/>
</g>
<!-- Node6 -->
<g id="node6" class="node">
<title>Node6</title>
<g id="a_node6"><a xlink:href="read__bitstream_8h_ad3b2702183e32bb737d84c8accd73066.html#ad3b2702183e32bb737d84c8accd73066" target="_top" xlink:title="same as bit_read_bits32() but only returns 32 bit">
<polygon fill="white" stroke="black" points="709.5,-177.33 709.5,-196.33 801.5,-196.33 801.5,-177.33 709.5,-177.33"/>
<text text-anchor="middle" x="755.5" y="-184.33" font-family="Helvetica,sans-Serif" font-size="10.00">bit_read_bits32</text>
</a>
</g>
</g>
<!-- Node5&#45;&gt;Node6 -->
<g id="edge5" class="edge">
<title>Node5&#45;&gt;Node6</title>
<path fill="none" stroke="midnightblue" d="M479.59,-176.34C501.02,-180.4 527.81,-184.81 552,-186.83 601.74,-190.98 658.59,-190.53 699.36,-189.3"/>
<polygon fill="midnightblue" stroke="midnightblue" points="699.49,-192.8 709.37,-188.97 699.26,-185.8 699.49,-192.8"/>
</g>
<!-- Node10 -->
<g id="node10" class="node">
<title>Node10</title>
<g id="a_node10"><a xlink:href="read__bitstream_8h_a65b5e1cb1107340846d20cae42c8a00c.html#a65b5e1cb1107340846d20cae42c8a00c" target="_top" xlink:title="refill the local register from the buffer previously set in bit_init_decoder()">
<polygon fill="white" stroke="black" points="573,-272.33 573,-291.33 629,-291.33 629,-272.33 573,-272.33"/>
<text text-anchor="middle" x="601" y="-279.33" font-family="Helvetica,sans-Serif" font-size="10.00">bit_refill</text>
</a>
</g>
</g>
<!-- Node5&#45;&gt;Node10 -->
<g id="edge9" class="edge">
<title>Node5&#45;&gt;Node10</title>
<path fill="none" stroke="midnightblue" d="M479.57,-173.06C491.89,-175.88 505.05,-180.2 516,-186.83 532.86,-197.03 567.21,-239.42 586.35,-263.99"/>
<polygon fill="midnightblue" stroke="midnightblue" points="583.77,-266.37 592.66,-272.14 589.31,-262.09 583.77,-266.37"/>
</g>
<!-- Node7 -->
<g id="node7" class="node">
<title>Node7</title>
<g id="a_node7"><a xlink:href="read__bitstream_8h_acf4864b9e402d8b801c0d3a8cd5dac3d.html#acf4864b9e402d8b801c0d3a8cd5dac3d" target="_top" xlink:title="read and consume next n bits from the local register">
<polygon fill="white" stroke="black" points="885,-158.33 885,-177.33 965,-177.33 965,-158.33 885,-158.33"/>
<text text-anchor="middle" x="925" y="-165.33" font-family="Helvetica,sans-Serif" font-size="10.00">bit_read_bits</text>
</a>
</g>
</g>
<!-- Node6&#45;&gt;Node7 -->
<g id="edge6" class="edge">
<title>Node6&#45;&gt;Node7</title>
<path fill="none" stroke="midnightblue" d="M801.83,-181.69C824.45,-179.12 851.84,-176.01 874.95,-173.39"/>
<polygon fill="midnightblue" stroke="midnightblue" points="875.36,-176.87 884.9,-172.26 874.57,-169.91 875.36,-176.87"/>
</g>
<!-- Node8 -->
<g id="node8" class="node">
<title>Node8</title>
<g id="a_node8"><a xlink:href="read__bitstream_8h_ad1aa8029b694397da24a84fcdc75acab.html#ad1aa8029b694397da24a84fcdc75acab" target="_top" xlink:title="mark next n bits in the local register as consumed">
<polygon fill="white" stroke="black" points="1025,-177.33 1025,-196.33 1127,-196.33 1127,-177.33 1025,-177.33"/>
<text text-anchor="middle" x="1076" y="-184.33" font-family="Helvetica,sans-Serif" font-size="10.00">bit_consume_bits</text>
</a>
</g>
</g>
<!-- Node7&#45;&gt;Node8 -->
<g id="edge7" class="edge">
<title>Node7&#45;&gt;Node8</title>
<path fill="none" stroke="midnightblue" d="M965.15,-172.82C980.29,-174.75 997.96,-177 1014.65,-179.13"/>
<polygon fill="midnightblue" stroke="midnightblue" points="1014.52,-182.64 1024.88,-180.44 1015.4,-175.7 1014.52,-182.64"/>
</g>
<!-- Node9 -->
<g id="node9" class="node">
<title>Node9</title>
<g id="a_node9"><a xlink:href="read__bitstream_8h_a12cac6ee9f16079c39d9fc7b61639597.html#a12cac6ee9f16079c39d9fc7b61639597" target="_top" xlink:title="provides next n bits from local register; local register is not modified">
<polygon fill="white" stroke="black" points="1035,-101.33 1035,-120.33 1117,-120.33 1117,-101.33 1035,-101.33"/>
<text text-anchor="middle" x="1076" y="-108.33" font-family="Helvetica,sans-Serif" font-size="10.00">bit_peek_bits</text>
</a>
</g>
</g>
<!-- Node7&#45;&gt;Node9 -->
<g id="edge8" class="edge">
<title>Node7&#45;&gt;Node9</title>
<path fill="none" stroke="midnightblue" d="M960.59,-158.23C969.89,-155.43 979.89,-152.2 989,-148.83 1008.32,-141.68 1029.5,-132.34 1046,-124.71"/>
<polygon fill="midnightblue" stroke="midnightblue" points="1047.55,-127.85 1055.13,-120.44 1044.59,-121.51 1047.55,-127.85"/>
</g>
<!-- Node10&#45;&gt;Node3 -->
<g id="edge10" class="edge">
<title>Node10&#45;&gt;Node3</title>
<path fill="none" stroke="midnightblue" d="M629.26,-288.62C650.67,-293.95 681,-301.51 706.46,-307.86"/>
<polygon fill="midnightblue" stroke="midnightblue" points="705.75,-311.29 716.3,-310.31 707.45,-304.5 705.75,-311.29"/>
</g>
<!-- Node11&#45;&gt;Node6 -->
<g id="edge12" class="edge">
<title>Node11&#45;&gt;Node6</title>
<path fill="none" stroke="midnightblue" d="M478.81,-289.97C531.25,-299.91 620.29,-313.9 650,-300.83 694.43,-281.28 728.23,-232.48 744.25,-205.5"/>
<polygon fill="midnightblue" stroke="midnightblue" points="747.39,-207.06 749.33,-196.64 741.32,-203.57 747.39,-207.06"/>
</g>
<!-- Node11&#45;&gt;Node10 -->
<g id="edge13" class="edge">
<title>Node11&#45;&gt;Node10</title>
<path fill="none" stroke="midnightblue" d="M478.8,-281.83C504.38,-281.83 537.41,-281.83 562.53,-281.83"/>
<polygon fill="midnightblue" stroke="midnightblue" points="562.76,-285.33 572.76,-281.83 562.76,-278.33 562.76,-285.33"/>
</g>
<!-- Node12&#45;&gt;Node10 -->
<g id="edge17" class="edge">
<title>Node12&#45;&gt;Node10</title>
<path fill="none" stroke="midnightblue" d="M477.15,-252.83C503.1,-258.96 537.24,-267.01 562.94,-273.08"/>
<polygon fill="midnightblue" stroke="midnightblue" points="562.16,-276.49 572.69,-275.38 563.77,-269.68 562.16,-276.49"/>
</g>
<!-- Node13 -->
<g id="node13" class="node">
<title>Node13</title>
<g id="a_node13"><a xlink:href="read__bitstream_8h_ae9b99a3b550a98eba08bba186159ff7b.html#ae9b99a3b550a98eba08bba186159ff7b" target="_top" xlink:title="same as bit_read_bits32() but subtract 1 from the extracted value">
<polygon fill="white" stroke="black" points="862.5,-234.33 862.5,-253.33 987.5,-253.33 987.5,-234.33 862.5,-234.33"/>
<text text-anchor="middle" x="925" y="-241.33" font-family="Helvetica,sans-Serif" font-size="10.00">bit_read_bits32_sub_1</text>
</a>
</g>
</g>
<!-- Node12&#45;&gt;Node13 -->
<g id="edge15" class="edge">
<title>Node12&#45;&gt;Node13</title>
<path fill="none" stroke="midnightblue" d="M477.06,-243.83C557.88,-243.83 747.79,-243.83 852.16,-243.83"/>
<polygon fill="midnightblue" stroke="midnightblue" points="852.3,-247.33 862.3,-243.83 852.3,-240.33 852.3,-247.33"/>
</g>
<!-- Node13&#45;&gt;Node8 -->
<g id="edge16" class="edge">
<title>Node13&#45;&gt;Node8</title>
<path fill="none" stroke="midnightblue" d="M951.14,-234.26C962.68,-229.87 976.54,-224.59 989,-219.83 1006.07,-213.3 1025.04,-206.02 1040.81,-199.97"/>
<polygon fill="midnightblue" stroke="midnightblue" points="1042.09,-203.23 1050.17,-196.37 1039.58,-196.69 1042.09,-203.23"/>
</g>
<!-- Node17 -->
<g id="node17" class="node">
<title>Node17</title>
<g id="a_node17"><a xlink:href="decmp_8c_ab8ea64d46b8170dc65694e3d0dec64ff.html#ab8ea64d46b8170dc65694e3d0dec64ff" target="_top" xlink:title="decode the next Golomb code word in the bitstream">
<polygon fill="white" stroke="black" points="552,-82.33 552,-101.33 650,-101.33 650,-82.33 552,-82.33"/>
<text text-anchor="middle" x="601" y="-89.33" font-family="Helvetica,sans-Serif" font-size="10.00">golomb_decoder</text>
</a>
</g>
</g>
<!-- Node16&#45;&gt;Node17 -->
<g id="edge21" class="edge">
<title>Node16&#45;&gt;Node17</title>
<path fill="none" stroke="midnightblue" d="M479.63,-120.24C500.97,-115.2 527.31,-108.98 549.91,-103.65"/>
<polygon fill="midnightblue" stroke="midnightblue" points="550.74,-107.05 559.67,-101.35 549.13,-100.24 550.74,-107.05"/>
</g>
<!-- Node18 -->
<g id="node18" class="node">
<title>Node18</title>
<g id="a_node18"><a xlink:href="decmp_8c_ad77fca4bf62b97dc9fe6edabb0086709.html#ad77fca4bf62b97dc9fe6edabb0086709" target="_top" xlink:title="decode the next unary code word in the bitstream">
<polygon fill="white" stroke="black" points="711,-120.33 711,-139.33 800,-139.33 800,-120.33 711,-120.33"/>
<text text-anchor="middle" x="755.5" y="-127.33" font-family="Helvetica,sans-Serif" font-size="10.00">unary_decoder</text>
</a>
</g>
</g>
<!-- Node16&#45;&gt;Node18 -->
<g id="edge32" class="edge">
<title>Node16&#45;&gt;Node18</title>
<path fill="none" stroke="midnightblue" d="M483.2,-129.83C540.19,-129.83 639.25,-129.83 700.6,-129.83"/>
<polygon fill="midnightblue" stroke="midnightblue" points="700.85,-133.33 710.85,-129.83 700.85,-126.33 700.85,-133.33"/>
</g>
<!-- Node20 -->
<g id="node20" class="node">
<title>Node20</title>
<g id="a_node20"><a xlink:href="cmp__support_8c_a7831f21f8303058bcac76d42a4aa1c06.html#a7831f21f8303058bcac76d42a4aa1c06" target="_top" xlink:title="determining if an integer is a power of 2">
<polygon fill="white" stroke="black" points="557,-44.33 557,-63.33 645,-63.33 645,-44.33 557,-44.33"/>
<text text-anchor="middle" x="601" y="-51.33" font-family="Helvetica,sans-Serif" font-size="10.00">is_a_pow_of_2</text>
</a>
</g>
</g>
<!-- Node16&#45;&gt;Node20 -->
<g id="edge28" class="edge">
<title>Node16&#45;&gt;Node20</title>
<path fill="none" stroke="midnightblue" d="M483.03,-123.5C494.28,-120.69 506,-116.65 516,-110.83 536.11,-99.12 532.73,-85.86 552,-72.83 554.75,-70.97 557.7,-69.25 560.75,-67.67"/>
<polygon fill="midnightblue" stroke="midnightblue" points="562.45,-70.74 570.04,-63.35 559.5,-64.39 562.45,-70.74"/>
</g>
<!-- Node21 -->
<g id="node21" class="node">
<title>Node21</title>
<g id="a_node21"><a xlink:href="decmp_8c_a31e9c3bcbe70648b659fe3c8f4383045.html#a31e9c3bcbe70648b659fe3c8f4383045" target="_top" xlink:title="decode the next Rice code word in the bitstream">
<polygon fill="white" stroke="black" points="561.5,-158.33 561.5,-177.33 640.5,-177.33 640.5,-158.33 561.5,-158.33"/>
<text text-anchor="middle" x="601" y="-165.33" font-family="Helvetica,sans-Serif" font-size="10.00">rice_decoder</text>
</a>
</g>
</g>
<!-- Node16&#45;&gt;Node21 -->
<g id="edge29" class="edge">
<title>Node16&#45;&gt;Node21</title>
<path fill="none" stroke="midnightblue" d="M479.63,-139.42C501.46,-144.57 528.52,-150.96 551.45,-156.37"/>
<polygon fill="midnightblue" stroke="midnightblue" points="550.79,-159.81 561.33,-158.7 552.4,-153 550.79,-159.81"/>
</g>
<!-- Node17&#45;&gt;Node8 -->
<g id="edge22" class="edge">
<title>Node17&#45;&gt;Node8</title>
<path fill="none" stroke="midnightblue" d="M650.2,-90.26C739.94,-87.98 928.95,-86.4 989,-110.83 1019.14,-123.09 1045.81,-150.63 1061.19,-168.97"/>
<polygon fill="midnightblue" stroke="midnightblue" points="1058.78,-171.55 1067.79,-177.12 1064.22,-167.15 1058.78,-171.55"/>
</g>
<!-- Node17&#45;&gt;Node9 -->
<g id="edge23" class="edge">
<title>Node17&#45;&gt;Node9</title>
<path fill="none" stroke="midnightblue" d="M650.25,-82.39C661.9,-80.49 674.36,-78.79 686,-77.83 820.21,-66.72 856.59,-53.29 989,-77.83 1008.92,-81.52 1030.19,-89.64 1046.59,-96.9"/>
<polygon fill="midnightblue" stroke="midnightblue" points="1045.57,-100.28 1056.12,-101.26 1048.49,-93.92 1045.57,-100.28"/>
</g>
<!-- Node17&#45;&gt;Node14 -->
<g id="edge24" class="edge">
<title>Node17&#45;&gt;Node14</title>
<path fill="none" stroke="midnightblue" d="M631.01,-82.32C637.48,-79.67 644.15,-76.49 650,-72.83 668.4,-61.31 667.38,-50.98 686,-39.83 697.23,-33.1 710.63,-27.88 722.59,-24.05"/>
<polygon fill="midnightblue" stroke="midnightblue" points="723.64,-27.39 732.21,-21.16 721.63,-20.69 723.64,-27.39"/>
</g>
<!-- Node17&#45;&gt;Node18 -->
<g id="edge25" class="edge">
<title>Node17&#45;&gt;Node18</title>
<path fill="none" stroke="midnightblue" d="M640.48,-101.42C660.52,-106.41 685.2,-112.56 706.48,-117.86"/>
<polygon fill="midnightblue" stroke="midnightblue" points="705.74,-121.29 716.29,-120.31 707.44,-114.49 705.74,-121.29"/>
</g>
<!-- Node18&#45;&gt;Node8 -->
<g id="edge26" class="edge">
<title>Node18&#45;&gt;Node8</title>
<path fill="none" stroke="midnightblue" d="M773.74,-139.37C802.8,-155.44 858.63,-186.22 861,-186.83 911.66,-199.75 971.29,-198.46 1014.71,-194.69"/>
<polygon fill="midnightblue" stroke="midnightblue" points="1015.21,-198.16 1024.83,-193.74 1014.55,-191.19 1015.21,-198.16"/>
</g>
<!-- Node19 -->
<g id="node19" class="node">
<title>Node19</title>
<g id="a_node19"><a xlink:href="read__bitstream_8h_a08b1899a09b0b72856f441efae758d76.html#a08b1899a09b0b72856f441efae758d76" target="_top" xlink:title="count the leading ones in the local register; local register is not modified">
<polygon fill="white" stroke="black" points="861,-120.33 861,-139.33 989,-139.33 989,-120.33 861,-120.33"/>
<text text-anchor="middle" x="925" y="-127.33" font-family="Helvetica,sans-Serif" font-size="10.00">bit_peek_leading_ones</text>
</a>
</g>
</g>
<!-- Node18&#45;&gt;Node19 -->
<g id="edge27" class="edge">
<title>Node18&#45;&gt;Node19</title>
<path fill="none" stroke="midnightblue" d="M800.07,-129.83C815.55,-129.83 833.42,-129.83 850.7,-129.83"/>
<polygon fill="midnightblue" stroke="midnightblue" points="850.78,-133.33 860.78,-129.83 850.78,-126.33 850.78,-133.33"/>
</g>
<!-- Node21&#45;&gt;Node6 -->
<g id="edge30" class="edge">
<title>Node21&#45;&gt;Node6</title>
<path fill="none" stroke="midnightblue" d="M640.88,-172.67C658.69,-174.89 680.11,-177.56 699.53,-179.98"/>
<polygon fill="midnightblue" stroke="midnightblue" points="699.12,-183.45 709.48,-181.22 699.99,-176.51 699.12,-183.45"/>
</g>
<!-- Node21&#45;&gt;Node18 -->
<g id="edge31" class="edge">
<title>Node21&#45;&gt;Node18</title>
<path fill="none" stroke="midnightblue" d="M640.48,-158.24C660.52,-153.25 685.2,-147.1 706.48,-141.79"/>
<polygon fill="midnightblue" stroke="midnightblue" points="707.44,-145.16 716.29,-139.35 705.74,-138.37 707.44,-145.16"/>
</g>
<!-- Node23&#45;&gt;Node11 -->
<g id="edge35" class="edge">
<title>Node23&#45;&gt;Node11</title>
<path fill="none" stroke="midnightblue" d="M287.44,-281.83C316.72,-281.83 356.1,-281.83 387.1,-281.83"/>
<polygon fill="midnightblue" stroke="midnightblue" points="387.27,-285.33 397.27,-281.83 387.27,-278.33 387.27,-285.33"/>
</g>
<!-- Node24 -->
<g id="node24" class="node">
<title>Node24</title>
<g id="a_node24"><a xlink:href="decmp_8c_a931b1f11894a7118817a8b8bb08644f9.html#a931b1f11894a7118817a8b8bb08644f9" target="_top" xlink:title="remap an unsigned value back to a signed value">
<polygon fill="white" stroke="black" points="392.5,-310.33 392.5,-329.33 483.5,-329.33 483.5,-310.33 392.5,-310.33"/>
<text text-anchor="middle" x="438" y="-317.33" font-family="Helvetica,sans-Serif" font-size="10.00">re_map_to_pos</text>
</a>
</g>
</g>
<!-- Node23&#45;&gt;Node24 -->
<g id="edge36" class="edge">
<title>Node23&#45;&gt;Node24</title>
<path fill="none" stroke="midnightblue" d="M287.44,-290.07C315.24,-295.6 352.15,-302.95 382.35,-308.95"/>
<polygon fill="midnightblue" stroke="midnightblue" points="381.81,-312.42 392.31,-310.94 383.18,-305.55 381.81,-312.42"/>
</g>
</g>
</svg>
