<?xml version="1.0" encoding="UTF-8" standalone="no"?>
<!DOCTYPE svg PUBLIC "-//W3C//DTD SVG 1.1//EN"
 "http://www.w3.org/Graphics/SVG/1.1/DTD/svg11.dtd">
<!-- Generated by graphviz version 2.43.0 (0)
 -->
<!-- Title: decompress_multi_entry_hdr Pages: 1 -->
<svg width="1104pt" height="596pt"
 viewBox="0.00 0.00 1104.00 596.00" xmlns="http://www.w3.org/2000/svg" xmlns:xlink="http://www.w3.org/1999/xlink">
<g id="graph0" class="graph" transform="scale(1 1) rotate(0) translate(4 592)">
<title>decompress_multi_entry_hdr</title>
<polygon fill="white" stroke="transparent" points="-4,4 -4,-592 1100,-592 1100,4 -4,4"/>
<!-- Node1 -->
<g id="node1" class="node">
<title>Node1</title>
<g id="a_node1"><a xlink:title="decompress the multi&#45;entry packet header structure and sets the data, model and up_model pointers to ...">
<polygon fill="#bfbfbf" stroke="black" points="938,-284.5 938,-303.5 1096,-303.5 1096,-284.5 938,-284.5"/>
<text text-anchor="middle" x="1017" y="-291.5" font-family="Helvetica,sans-Serif" font-size="10.00">decompress_multi_entry_hdr</text>
</a>
</g>
</g>
<!-- Node2 -->
<g id="node2" class="node">
<title>Node2</title>
<g id="a_node2"><a xlink:href="decmp_8c_ae8bbe9e530e670af67db5d739f15f120.html#ae8bbe9e530e670af67db5d739f15f120" target="_top" xlink:title="decompress N&#45;CAM background data">
<polygon fill="white" stroke="black" points="764,-568.5 764,-587.5 902,-587.5 902,-568.5 764,-568.5"/>
<text text-anchor="middle" x="833" y="-575.5" font-family="Helvetica,sans-Serif" font-size="10.00">decompress_background</text>
</a>
</g>
</g>
<!-- Node1&#45;&gt;Node2 -->
<g id="edge1" class="edge">
<title>Node1&#45;&gt;Node2</title>
<path fill="none" stroke="midnightblue" d="M1013.38,-313.63C1005.78,-362.69 979.13,-491.56 902,-559 897.57,-562.87 892.41,-565.96 886.95,-568.42"/>
<polygon fill="midnightblue" stroke="midnightblue" points="1016.85,-314.08 1014.83,-303.68 1009.93,-313.07 1016.85,-314.08"/>
</g>
<!-- Node13 -->
<g id="node13" class="node">
<title>Node13</title>
<g id="a_node13"><a xlink:href="decmp_8c_ac44d884cb830d9b0dbbca34c6db2de7d.html#ac44d884cb830d9b0dbbca34c6db2de7d" target="_top" xlink:title="decompress fast normal light flux (F_FX) data">
<polygon fill="white" stroke="black" points="783,-530.5 783,-549.5 883,-549.5 883,-530.5 783,-530.5"/>
<text text-anchor="middle" x="833" y="-537.5" font-family="Helvetica,sans-Serif" font-size="10.00">decompress_f_fx</text>
</a>
</g>
</g>
<!-- Node1&#45;&gt;Node13 -->
<g id="edge12" class="edge">
<title>Node1&#45;&gt;Node13</title>
<path fill="none" stroke="midnightblue" d="M1011.8,-313.75C1001.38,-357.87 970.1,-464.92 902,-521 896.51,-525.52 890.02,-528.97 883.26,-531.59"/>
<polygon fill="midnightblue" stroke="midnightblue" points="1015.22,-314.49 1014.01,-303.96 1008.4,-312.95 1015.22,-314.49"/>
</g>
<!-- Node14 -->
<g id="node14" class="node">
<title>Node14</title>
<g id="a_node14"><a xlink:href="decmp_8c_a84e912fefa1f49f27885af0d855a4989.html#a84e912fefa1f49f27885af0d855a4989" target="_top" xlink:title="decompress F_FX_EFX data">
<polygon fill="white" stroke="black" points="772.5,-492.5 772.5,-511.5 893.5,-511.5 893.5,-492.5 772.5,-492.5"/>
<text text-anchor="middle" x="833" y="-499.5" font-family="Helvetica,sans-Serif" font-size="10.00">decompress_f_fx_efx</text>
</a>
</g>
</g>
<!-- Node1&#45;&gt;Node14 -->
<g id="edge14" class="edge">
<title>Node1&#45;&gt;Node14</title>
<path fill="none" stroke="midnightblue" d="M1009.75,-313.51C996.41,-351.98 961.4,-437.82 902,-483 896.93,-486.86 891.11,-489.93 885.06,-492.38"/>
<polygon fill="midnightblue" stroke="midnightblue" points="1013.22,-314.18 1013.07,-303.58 1006.58,-311.96 1013.22,-314.18"/>
</g>
<!-- Node15 -->
<g id="node15" class="node">
<title>Node15</title>
<g id="a_node15"><a xlink:href="decmp_8c_aac2934ca104c49490be71c4966d2b173.html#aac2934ca104c49490be71c4966d2b173" target="_top" xlink:title="decompress short F_FX_NCOB_ECOB data">
<polygon fill="white" stroke="black" points="772.5,-443 772.5,-473 893.5,-473 893.5,-443 772.5,-443"/>
<text text-anchor="start" x="780.5" y="-461" font-family="Helvetica,sans-Serif" font-size="10.00">decompress_f_fx_efx</text>
<text text-anchor="middle" x="833" y="-450" font-family="Helvetica,sans-Serif" font-size="10.00">_ncob_ecob</text>
</a>
</g>
</g>
<!-- Node1&#45;&gt;Node15 -->
<g id="edge16" class="edge">
<title>Node1&#45;&gt;Node15</title>
<path fill="none" stroke="midnightblue" d="M1005.44,-312.39C987.67,-341.8 949.08,-399.53 902,-433 896.67,-436.79 890.7,-440.07 884.57,-442.9"/>
<polygon fill="midnightblue" stroke="midnightblue" points="1008.57,-313.96 1010.65,-303.57 1002.55,-310.4 1008.57,-313.96"/>
</g>
<!-- Node16 -->
<g id="node16" class="node">
<title>Node16</title>
<g id="a_node16"><a xlink:href="decmp_8c_a8310f64826697fb15c590854c08b3ad9.html#a8310f64826697fb15c590854c08b3ad9" target="_top" xlink:title="decompress short F_FX_NCOB data">
<polygon fill="white" stroke="black" points="769,-404.5 769,-423.5 897,-423.5 897,-404.5 769,-404.5"/>
<text text-anchor="middle" x="833" y="-411.5" font-family="Helvetica,sans-Serif" font-size="10.00">decompress_f_fx_ncob</text>
</a>
</g>
</g>
<!-- Node1&#45;&gt;Node16 -->
<g id="edge18" class="edge">
<title>Node1&#45;&gt;Node16</title>
<path fill="none" stroke="midnightblue" d="M1001.08,-311.41C980.85,-333.94 942.56,-372.91 902,-395 895,-398.81 887.18,-401.91 879.39,-404.42"/>
<polygon fill="midnightblue" stroke="midnightblue" points="1003.93,-313.47 1007.91,-303.65 998.68,-308.84 1003.93,-313.47"/>
</g>
<!-- Node17 -->
<g id="node17" class="node">
<title>Node17</title>
<g id="a_node17"><a xlink:href="decmp_8c_a75f3c5c08234bce92e84d07a93e9a77d.html#a75f3c5c08234bce92e84d07a93e9a77d" target="_top" xlink:title="decompress long normal light flux (L_FX) data">
<polygon fill="white" stroke="black" points="783.5,-366.5 783.5,-385.5 882.5,-385.5 882.5,-366.5 783.5,-366.5"/>
<text text-anchor="middle" x="833" y="-373.5" font-family="Helvetica,sans-Serif" font-size="10.00">decompress_l_fx</text>
</a>
</g>
</g>
<!-- Node1&#45;&gt;Node17 -->
<g id="edge20" class="edge">
<title>Node1&#45;&gt;Node17</title>
<path fill="none" stroke="midnightblue" d="M992.92,-308.86C970.43,-322.81 934.92,-343.52 902,-357 893.15,-360.62 883.38,-363.8 874.08,-366.47"/>
<polygon fill="midnightblue" stroke="midnightblue" points="994.83,-311.79 1001.43,-303.51 991.1,-305.86 994.83,-311.79"/>
</g>
<!-- Node18 -->
<g id="node18" class="node">
<title>Node18</title>
<g id="a_node18"><a xlink:href="decmp_8c_aa06fff345fa7fd62fb4fd7a619c118fe.html#aa06fff345fa7fd62fb4fd7a619c118fe" target="_top" xlink:title="decompress L_FX_EFX data">
<polygon fill="white" stroke="black" points="773,-328.5 773,-347.5 893,-347.5 893,-328.5 773,-328.5"/>
<text text-anchor="middle" x="833" y="-335.5" font-family="Helvetica,sans-Serif" font-size="10.00">decompress_l_fx_efx</text>
</a>
</g>
</g>
<!-- Node1&#45;&gt;Node18 -->
<g id="edge22" class="edge">
<title>Node1&#45;&gt;Node18</title>
<path fill="none" stroke="midnightblue" d="M966.49,-305.97C937.24,-313.04 900.7,-321.87 873.41,-328.47"/>
<polygon fill="midnightblue" stroke="midnightblue" points="967.61,-309.3 976.51,-303.55 965.97,-302.5 967.61,-309.3"/>
</g>
<!-- Node19 -->
<g id="node19" class="node">
<title>Node19</title>
<g id="a_node19"><a xlink:href="decmp_8c_a36a5692cbd5d1e46805ba3f1dac23f60.html#a36a5692cbd5d1e46805ba3f1dac23f60" target="_top" xlink:title="decompress L_FX_EFX_NCOB_ECOB data">
<polygon fill="white" stroke="black" points="773,-279 773,-309 893,-309 893,-279 773,-279"/>
<text text-anchor="start" x="781" y="-297" font-family="Helvetica,sans-Serif" font-size="10.00">decompress_l_fx_efx</text>
<text text-anchor="middle" x="833" y="-286" font-family="Helvetica,sans-Serif" font-size="10.00">_ncob_ecob</text>
</a>
</g>
</g>
<!-- Node1&#45;&gt;Node19 -->
<g id="edge24" class="edge">
<title>Node1&#45;&gt;Node19</title>
<path fill="none" stroke="midnightblue" d="M927.56,-294C915.91,-294 904.2,-294 893.21,-294"/>
<polygon fill="midnightblue" stroke="midnightblue" points="927.76,-297.5 937.76,-294 927.76,-290.5 927.76,-297.5"/>
</g>
<!-- Node20 -->
<g id="node20" class="node">
<title>Node20</title>
<g id="a_node20"><a xlink:href="decmp_8c_a5883c910a0e8e829e60844e78da88e96.html#a5883c910a0e8e829e60844e78da88e96" target="_top" xlink:title="decompress L_FX_NCOB data">
<polygon fill="white" stroke="black" points="769,-240.5 769,-259.5 897,-259.5 897,-240.5 769,-240.5"/>
<text text-anchor="middle" x="833" y="-247.5" font-family="Helvetica,sans-Serif" font-size="10.00">decompress_l_fx_ncob</text>
</a>
</g>
</g>
<!-- Node1&#45;&gt;Node20 -->
<g id="edge26" class="edge">
<title>Node1&#45;&gt;Node20</title>
<path fill="none" stroke="midnightblue" d="M966.49,-282.03C937.24,-274.96 900.7,-266.13 873.41,-259.53"/>
<polygon fill="midnightblue" stroke="midnightblue" points="965.97,-285.5 976.51,-284.45 967.61,-278.7 965.97,-285.5"/>
</g>
<!-- Node21 -->
<g id="node21" class="node">
<title>Node21</title>
<g id="a_node21"><a xlink:href="decmp_8c_a47d0a8b2f718f7d4659a34a6b516c79d.html#a47d0a8b2f718f7d4659a34a6b516c79d" target="_top" xlink:title="decompress N&#45;CAM and F&#45;CAM offset data">
<polygon fill="white" stroke="black" points="778.5,-202.5 778.5,-221.5 887.5,-221.5 887.5,-202.5 778.5,-202.5"/>
<text text-anchor="middle" x="833" y="-209.5" font-family="Helvetica,sans-Serif" font-size="10.00">decompress_offset</text>
</a>
</g>
</g>
<!-- Node1&#45;&gt;Node21 -->
<g id="edge28" class="edge">
<title>Node1&#45;&gt;Node21</title>
<path fill="none" stroke="midnightblue" d="M992.92,-279.14C970.43,-265.19 934.92,-244.48 902,-231 893.15,-227.38 883.38,-224.2 874.08,-221.53"/>
<polygon fill="midnightblue" stroke="midnightblue" points="991.1,-282.14 1001.43,-284.49 994.83,-276.21 991.1,-282.14"/>
</g>
<!-- Node22 -->
<g id="node22" class="node">
<title>Node22</title>
<g id="a_node22"><a xlink:href="decmp_8c_ad57c4f63787216adcca82dca5a2c99ae.html#ad57c4f63787216adcca82dca5a2c99ae" target="_top" xlink:title="decompress short normal light flux (S_FX) data">
<polygon fill="white" stroke="black" points="782.5,-164.5 782.5,-183.5 883.5,-183.5 883.5,-164.5 782.5,-164.5"/>
<text text-anchor="middle" x="833" y="-171.5" font-family="Helvetica,sans-Serif" font-size="10.00">decompress_s_fx</text>
</a>
</g>
</g>
<!-- Node1&#45;&gt;Node22 -->
<g id="edge30" class="edge">
<title>Node1&#45;&gt;Node22</title>
<path fill="none" stroke="midnightblue" d="M1001.08,-276.59C980.85,-254.06 942.56,-215.09 902,-193 895,-189.19 887.18,-186.09 879.39,-183.58"/>
<polygon fill="midnightblue" stroke="midnightblue" points="998.68,-279.16 1007.91,-284.35 1003.93,-274.53 998.68,-279.16"/>
</g>
<!-- Node23 -->
<g id="node23" class="node">
<title>Node23</title>
<g id="a_node23"><a xlink:href="decmp_8c_ae950fe1a6eeb3224f3491439a7149a1f.html#ae950fe1a6eeb3224f3491439a7149a1f" target="_top" xlink:title="decompress S_FX_EFX data">
<polygon fill="white" stroke="black" points="772,-126.5 772,-145.5 894,-145.5 894,-126.5 772,-126.5"/>
<text text-anchor="middle" x="833" y="-133.5" font-family="Helvetica,sans-Serif" font-size="10.00">decompress_s_fx_efx</text>
</a>
</g>
</g>
<!-- Node1&#45;&gt;Node23 -->
<g id="edge32" class="edge">
<title>Node1&#45;&gt;Node23</title>
<path fill="none" stroke="midnightblue" d="M1005.74,-275.17C988.39,-245.14 950.37,-186.57 902,-155 896.05,-151.11 889.3,-148.01 882.43,-145.54"/>
<polygon fill="midnightblue" stroke="midnightblue" points="1002.86,-277.19 1010.81,-284.18 1008.95,-273.75 1002.86,-277.19"/>
</g>
<!-- Node24 -->
<g id="node24" class="node">
<title>Node24</title>
<g id="a_node24"><a xlink:href="decmp_8c_aee9e79676f49da2b257ad810955e4f09.html#aee9e79676f49da2b257ad810955e4f09" target="_top" xlink:title="decompress short S_FX_NCOB_ECOB data">
<polygon fill="white" stroke="black" points="772,-77 772,-107 894,-107 894,-77 772,-77"/>
<text text-anchor="start" x="780" y="-95" font-family="Helvetica,sans-Serif" font-size="10.00">decompress_s_fx_efx</text>
<text text-anchor="middle" x="833" y="-84" font-family="Helvetica,sans-Serif" font-size="10.00">_ncob_ecob</text>
</a>
</g>
</g>
<!-- Node1&#45;&gt;Node24 -->
<g id="edge34" class="edge">
<title>Node1&#45;&gt;Node24</title>
<path fill="none" stroke="midnightblue" d="M1008.68,-275.11C993.87,-239.27 957.04,-161.1 902,-117 897.19,-113.15 891.73,-109.85 886.05,-107.04"/>
<polygon fill="midnightblue" stroke="midnightblue" points="1005.44,-276.43 1012.41,-284.4 1011.93,-273.82 1005.44,-276.43"/>
</g>
<!-- Node25 -->
<g id="node25" class="node">
<title>Node25</title>
<g id="a_node25"><a xlink:href="decmp_8c_a5075a002558af814210bd1c186a244f0.html#a5075a002558af814210bd1c186a244f0" target="_top" xlink:title="decompress short S_FX_NCOB data">
<polygon fill="white" stroke="black" points="768,-38.5 768,-57.5 898,-57.5 898,-38.5 768,-38.5"/>
<text text-anchor="middle" x="833" y="-45.5" font-family="Helvetica,sans-Serif" font-size="10.00">decompress_s_fx_ncob</text>
</a>
</g>
</g>
<!-- Node1&#45;&gt;Node25 -->
<g id="edge36" class="edge">
<title>Node1&#45;&gt;Node25</title>
<path fill="none" stroke="midnightblue" d="M1011.8,-274.25C1001.38,-230.13 970.1,-123.08 902,-67 897.27,-63.1 891.79,-60 886.04,-57.54"/>
<polygon fill="midnightblue" stroke="midnightblue" points="1008.4,-275.05 1014.01,-284.04 1015.22,-273.51 1008.4,-275.05"/>
</g>
<!-- Node26 -->
<g id="node26" class="node">
<title>Node26</title>
<g id="a_node26"><a xlink:href="decmp_8c_ab043a8a939e8818cf2875aecec205bb9.html#ab043a8a939e8818cf2875aecec205bb9" target="_top" xlink:title="decompress N&#45;CAM smearing data">
<polygon fill="white" stroke="black" points="769.5,-0.5 769.5,-19.5 896.5,-19.5 896.5,-0.5 769.5,-0.5"/>
<text text-anchor="middle" x="833" y="-7.5" font-family="Helvetica,sans-Serif" font-size="10.00">decompress_smearing</text>
</a>
</g>
</g>
<!-- Node1&#45;&gt;Node26 -->
<g id="edge38" class="edge">
<title>Node1&#45;&gt;Node26</title>
<path fill="none" stroke="midnightblue" d="M1013.38,-274.37C1005.78,-225.31 979.13,-96.44 902,-29 897.57,-25.13 892.41,-22.04 886.95,-19.58"/>
<polygon fill="midnightblue" stroke="midnightblue" points="1009.93,-274.93 1014.83,-284.32 1016.85,-273.92 1009.93,-274.93"/>
</g>
<!-- Node3 -->
<g id="node3" class="node">
<title>Node3</title>
<g id="a_node3"><a xlink:href="decmp_8c_a74c8bbd7b2130f44b6672e960475f4be.html#a74c8bbd7b2130f44b6672e960475f4be" target="_top" xlink:title="decompress the data based on a compression configuration">
<polygon fill="white" stroke="black" points="570,-284.5 570,-303.5 728,-303.5 728,-284.5 570,-284.5"/>
<text text-anchor="middle" x="649" y="-291.5" font-family="Helvetica,sans-Serif" font-size="10.00">decompressed_data_internal</text>
</a>
</g>
</g>
<!-- Node2&#45;&gt;Node3 -->
<g id="edge2" class="edge">
<title>Node2&#45;&gt;Node3</title>
<path fill="none" stroke="midnightblue" d="M770.2,-563.65C768.02,-562.24 765.94,-560.69 764,-559 680.87,-486.31 656.37,-342.24 651.17,-303.68"/>
<polygon fill="midnightblue" stroke="midnightblue" points="768.58,-566.75 779.05,-568.42 771.91,-560.59 768.58,-566.75"/>
</g>
<!-- Node4 -->
<g id="node4" class="node">
<title>Node4</title>
<g id="a_node4"><a xlink:href="decmp_8h_aefe0fa39fdc295432f5e2e0f91f0b87f.html#aefe0fa39fdc295432f5e2e0f91f0b87f" target="_top" xlink:title="decompress a compression entity">
<polygon fill="white" stroke="black" points="402,-325.5 402,-344.5 534,-344.5 534,-325.5 402,-325.5"/>
<text text-anchor="middle" x="468" y="-332.5" font-family="Helvetica,sans-Serif" font-size="10.00">decompress_cmp_entiy</text>
</a>
</g>
</g>
<!-- Node3&#45;&gt;Node4 -->
<g id="edge3" class="edge">
<title>Node3&#45;&gt;Node4</title>
<path fill="none" stroke="midnightblue" d="M596.72,-305.75C569.42,-312 536.28,-319.59 510.6,-325.47"/>
<polygon fill="midnightblue" stroke="midnightblue" points="597.52,-309.15 606.48,-303.51 595.95,-302.33 597.52,-309.15"/>
</g>
<!-- Node11 -->
<g id="node11" class="node">
<title>Node11</title>
<g id="a_node11"><a xlink:href="decmp_8h_aa89132cfd22be6ede8bc4344e9c3336a.html#aa89132cfd22be6ede8bc4344e9c3336a" target="_top" xlink:title="decompress RDCU compressed data without a compression entity header">
<polygon fill="white" stroke="black" points="403.5,-265.5 403.5,-284.5 532.5,-284.5 532.5,-265.5 403.5,-265.5"/>
<text text-anchor="middle" x="468" y="-272.5" font-family="Helvetica,sans-Serif" font-size="10.00">decompress_rdcu_data</text>
</a>
</g>
</g>
<!-- Node3&#45;&gt;Node11 -->
<g id="edge10" class="edge">
<title>Node3&#45;&gt;Node11</title>
<path fill="none" stroke="midnightblue" d="M559.52,-284.61C550.43,-283.64 541.33,-282.68 532.59,-281.75"/>
<polygon fill="midnightblue" stroke="midnightblue" points="559.43,-288.12 569.75,-285.69 560.17,-281.16 559.43,-288.12"/>
</g>
<!-- Node5 -->
<g id="node5" class="node">
<title>Node5</title>
<g id="a_node5"><a xlink:href="test__cmp__decmp_8c_a50ba26014079160ca77b7d7fa76ce0f4.html#a50ba26014079160ca77b7d7fa76ce0f4" target="_top" xlink:title="compress the given configuration and decompress it afterwards; finally compare the results">
<polygon fill="white" stroke="black" points="195,-420.5 195,-439.5 353,-439.5 353,-420.5 195,-420.5"/>
<text text-anchor="middle" x="274" y="-427.5" font-family="Helvetica,sans-Serif" font-size="10.00">compression_decompression</text>
</a>
</g>
</g>
<!-- Node4&#45;&gt;Node5 -->
<g id="edge4" class="edge">
<title>Node4&#45;&gt;Node5</title>
<path fill="none" stroke="midnightblue" d="M449.86,-351.71C430.92,-369.21 398.73,-396.17 366,-411 357.47,-414.86 348.14,-417.95 338.8,-420.42"/>
<polygon fill="midnightblue" stroke="midnightblue" points="452.49,-354.04 457.36,-344.63 447.69,-348.95 452.49,-354.04"/>
</g>
<!-- Node7 -->
<g id="node7" class="node">
<title>Node7</title>
<g id="a_node7"><a xlink:href="test__decmp_8c_a6e7a5e150e2c829836db3c42cdec2eec.html#a6e7a5e150e2c829836db3c42cdec2eec" target="_top" xlink:title=" ">
<polygon fill="white" stroke="black" points="182,-382.5 182,-401.5 366,-401.5 366,-382.5 182,-382.5"/>
<text text-anchor="middle" x="274" y="-389.5" font-family="Helvetica,sans-Serif" font-size="10.00">test_cmp_decmp_n_imagette_raw</text>
</a>
</g>
</g>
<!-- Node4&#45;&gt;Node7 -->
<g id="edge6" class="edge">
<title>Node4&#45;&gt;Node7</title>
<path fill="none" stroke="midnightblue" d="M435.08,-348.45C415.42,-356.38 389.55,-366.16 366,-373 353.76,-376.56 340.4,-379.73 327.79,-382.41"/>
<polygon fill="midnightblue" stroke="midnightblue" points="436.54,-351.64 444.47,-344.62 433.89,-345.16 436.54,-351.64"/>
</g>
<!-- Node8 -->
<g id="node8" class="node">
<title>Node8</title>
<g id="a_node8"><a xlink:href="test__decmp_8c_a1a33e2fcbf484c79dfe661b280386f6b.html#a1a33e2fcbf484c79dfe661b280386f6b" target="_top" xlink:title=" ">
<polygon fill="white" stroke="black" points="201,-344.5 201,-363.5 347,-363.5 347,-344.5 201,-344.5"/>
<text text-anchor="middle" x="274" y="-351.5" font-family="Helvetica,sans-Serif" font-size="10.00">test_cmp_decmp_s_fx_diff</text>
</a>
</g>
</g>
<!-- Node4&#45;&gt;Node8 -->
<g id="edge7" class="edge">
<title>Node4&#45;&gt;Node8</title>
<path fill="none" stroke="midnightblue" d="M391.94,-342.43C377.22,-343.88 361.81,-345.41 347.19,-346.86"/>
<polygon fill="midnightblue" stroke="midnightblue" points="392.39,-345.9 402,-341.43 391.7,-338.93 392.39,-345.9"/>
</g>
<!-- Node9 -->
<g id="node9" class="node">
<title>Node9</title>
<g id="a_node9"><a xlink:href="test__decmp_8c_acfebf2fa7515f5449e0cfa594457b66b.html#acfebf2fa7515f5449e0cfa594457b66b" target="_top" xlink:title=" ">
<polygon fill="white" stroke="black" points="233,-306.5 233,-325.5 315,-325.5 315,-306.5 233,-306.5"/>
<text text-anchor="middle" x="274" y="-313.5" font-family="Helvetica,sans-Serif" font-size="10.00">test_s_fx_diff</text>
</a>
</g>
</g>
<!-- Node4&#45;&gt;Node9 -->
<g id="edge8" class="edge">
<title>Node4&#45;&gt;Node9</title>
<path fill="none" stroke="midnightblue" d="M391.71,-327.55C365.54,-324.96 337.21,-322.16 315.02,-319.96"/>
<polygon fill="midnightblue" stroke="midnightblue" points="391.7,-331.07 402,-328.57 392.39,-324.1 391.7,-331.07"/>
</g>
<!-- Node10 -->
<g id="node10" class="node">
<title>Node10</title>
<g id="a_node10"><a xlink:href="test__decmp_8c_a953eeaad914985c0816dde26d47ffef0.html#a953eeaad914985c0816dde26d47ffef0" target="_top" xlink:title=" ">
<polygon fill="white" stroke="black" points="225.5,-268.5 225.5,-287.5 322.5,-287.5 322.5,-268.5 225.5,-268.5"/>
<text text-anchor="middle" x="274" y="-275.5" font-family="Helvetica,sans-Serif" font-size="10.00">test_s_fx_model</text>
</a>
</g>
</g>
<!-- Node4&#45;&gt;Node10 -->
<g id="edge9" class="edge">
<title>Node4&#45;&gt;Node10</title>
<path fill="none" stroke="midnightblue" d="M435.08,-321.55C415.42,-313.62 389.55,-303.84 366,-297 352.05,-292.95 336.66,-289.39 322.57,-286.49"/>
<polygon fill="midnightblue" stroke="midnightblue" points="433.89,-324.84 444.47,-325.38 436.54,-318.36 433.89,-324.84"/>
</g>
<!-- Node6 -->
<g id="node6" class="node">
<title>Node6</title>
<g id="a_node6"><a xlink:href="test__cmp__decmp_8c_af3c162694b40683e0aa25c61a49cdafc.html#af3c162694b40683e0aa25c61a49cdafc" target="_top" xlink:title="random compression decompression test">
<polygon fill="white" stroke="black" points="0,-415 0,-445 146,-445 146,-415 0,-415"/>
<text text-anchor="start" x="8" y="-433" font-family="Helvetica,sans-Serif" font-size="10.00">test_random_compression</text>
<text text-anchor="middle" x="73" y="-422" font-family="Helvetica,sans-Serif" font-size="10.00">_decompression</text>
</a>
</g>
</g>
<!-- Node5&#45;&gt;Node6 -->
<g id="edge5" class="edge">
<title>Node5&#45;&gt;Node6</title>
<path fill="none" stroke="midnightblue" d="M184.63,-430C171.72,-430 158.55,-430 146.01,-430"/>
<polygon fill="midnightblue" stroke="midnightblue" points="184.92,-433.5 194.92,-430 184.92,-426.5 184.92,-433.5"/>
</g>
<!-- Node12 -->
<g id="node12" class="node">
<title>Node12</title>
<g id="a_node12"><a xlink:href="test__cmp__decmp_8c_abb20ed18a3c6ba0fc67ecef2d629dec0.html#abb20ed18a3c6ba0fc67ecef2d629dec0" target="_top" xlink:title=" ">
<polygon fill="white" stroke="black" points="201,-219 201,-249 347,-249 347,-219 201,-219"/>
<text text-anchor="start" x="209" y="-237" font-family="Helvetica,sans-Serif" font-size="10.00">test_random_compression</text>
<text text-anchor="middle" x="274" y="-226" font-family="Helvetica,sans-Serif" font-size="10.00">_decompression2</text>
</a>
</g>
</g>
<!-- Node11&#45;&gt;Node12 -->
<g id="edge11" class="edge">
<title>Node11&#45;&gt;Node12</title>
<path fill="none" stroke="midnightblue" d="M412.54,-263.37C391.73,-258.93 367.7,-253.8 345.61,-249.08"/>
<polygon fill="midnightblue" stroke="midnightblue" points="411.96,-266.83 422.47,-265.49 413.42,-259.98 411.96,-266.83"/>
</g>
<!-- Node13&#45;&gt;Node3 -->
<g id="edge13" class="edge">
<title>Node13&#45;&gt;Node3</title>
<path fill="none" stroke="midnightblue" d="M773.49,-527.33C770.11,-525.5 766.92,-523.4 764,-521 690.13,-460.16 659.58,-339.36 651.99,-303.96"/>
<polygon fill="midnightblue" stroke="midnightblue" points="772.19,-530.59 782.74,-531.59 775.12,-524.23 772.19,-530.59"/>
</g>
<!-- Node14&#45;&gt;Node3 -->
<g id="edge15" class="edge">
<title>Node14&#45;&gt;Node3</title>
<path fill="none" stroke="midnightblue" d="M771.84,-488.07C769.09,-486.55 766.46,-484.87 764,-483 698.73,-433.36 662.92,-334.64 652.93,-303.58"/>
<polygon fill="midnightblue" stroke="midnightblue" points="770.41,-491.27 780.94,-492.38 773.4,-484.94 770.41,-491.27"/>
</g>
<!-- Node15&#45;&gt;Node3 -->
<g id="edge17" class="edge">
<title>Node15&#45;&gt;Node3</title>
<path fill="none" stroke="midnightblue" d="M772.42,-438.31C769.49,-436.66 766.67,-434.9 764,-433 711.6,-395.74 669.71,-328.44 655.35,-303.57"/>
<polygon fill="midnightblue" stroke="midnightblue" points="770.93,-441.48 781.43,-442.9 774.11,-435.24 770.93,-441.48"/>
</g>
<!-- Node16&#45;&gt;Node3 -->
<g id="edge19" class="edge">
<title>Node16&#45;&gt;Node3</title>
<path fill="none" stroke="midnightblue" d="M777.16,-401.06C772.6,-399.28 768.15,-397.26 764,-395 718.25,-370.08 675.41,-323.71 658.09,-303.65"/>
<polygon fill="midnightblue" stroke="midnightblue" points="776.02,-404.37 786.61,-404.42 778.36,-397.77 776.02,-404.37"/>
</g>
<!-- Node17&#45;&gt;Node3 -->
<g id="edge21" class="edge">
<title>Node17&#45;&gt;Node3</title>
<path fill="none" stroke="midnightblue" d="M782.22,-363.54C776.01,-361.56 769.81,-359.38 764,-357 726.54,-341.66 685.73,-316.97 664.57,-303.51"/>
<polygon fill="midnightblue" stroke="midnightblue" points="781.34,-366.93 791.92,-366.47 783.36,-360.23 781.34,-366.93"/>
</g>
<!-- Node18&#45;&gt;Node3 -->
<g id="edge23" class="edge">
<title>Node18&#45;&gt;Node3</title>
<path fill="none" stroke="midnightblue" d="M782.49,-326.03C753.24,-318.96 716.7,-310.13 689.41,-303.53"/>
<polygon fill="midnightblue" stroke="midnightblue" points="781.97,-329.5 792.51,-328.45 783.61,-322.7 781.97,-329.5"/>
</g>
<!-- Node19&#45;&gt;Node3 -->
<g id="edge25" class="edge">
<title>Node19&#45;&gt;Node3</title>
<path fill="none" stroke="midnightblue" d="M762.66,-294C751.33,-294 739.53,-294 728.01,-294"/>
<polygon fill="midnightblue" stroke="midnightblue" points="762.91,-297.5 772.91,-294 762.91,-290.5 762.91,-297.5"/>
</g>
<!-- Node20&#45;&gt;Node3 -->
<g id="edge27" class="edge">
<title>Node20&#45;&gt;Node3</title>
<path fill="none" stroke="midnightblue" d="M782.49,-261.97C753.24,-269.04 716.7,-277.87 689.41,-284.47"/>
<polygon fill="midnightblue" stroke="midnightblue" points="783.61,-265.3 792.51,-259.55 781.97,-258.5 783.61,-265.3"/>
</g>
<!-- Node21&#45;&gt;Node3 -->
<g id="edge29" class="edge">
<title>Node21&#45;&gt;Node3</title>
<path fill="none" stroke="midnightblue" d="M782.22,-224.46C776.01,-226.44 769.81,-228.62 764,-231 726.54,-246.34 685.73,-271.03 664.57,-284.49"/>
<polygon fill="midnightblue" stroke="midnightblue" points="783.36,-227.77 791.92,-221.53 781.34,-221.07 783.36,-227.77"/>
</g>
<!-- Node22&#45;&gt;Node3 -->
<g id="edge31" class="edge">
<title>Node22&#45;&gt;Node3</title>
<path fill="none" stroke="midnightblue" d="M777.16,-186.94C772.6,-188.72 768.15,-190.74 764,-193 718.25,-217.92 675.41,-264.29 658.09,-284.35"/>
<polygon fill="midnightblue" stroke="midnightblue" points="778.36,-190.23 786.61,-183.58 776.02,-183.63 778.36,-190.23"/>
</g>
<!-- Node23&#45;&gt;Node3 -->
<g id="edge33" class="edge">
<title>Node23&#45;&gt;Node3</title>
<path fill="none" stroke="midnightblue" d="M774.06,-149.45C770.55,-151.09 767.16,-152.94 764,-155 710.16,-190.14 669.15,-258.73 655.19,-284.18"/>
<polygon fill="midnightblue" stroke="midnightblue" points="775.65,-152.58 783.57,-145.54 772.99,-146.1 775.65,-152.58"/>
</g>
<!-- Node24&#45;&gt;Node3 -->
<g id="edge35" class="edge">
<title>Node24&#45;&gt;Node3</title>
<path fill="none" stroke="midnightblue" d="M771.15,-111.94C768.65,-113.51 766.25,-115.19 764,-117 703.53,-165.45 665.03,-255.04 653.59,-284.4"/>
<polygon fill="midnightblue" stroke="midnightblue" points="772.92,-114.96 779.95,-107.04 769.51,-108.85 772.92,-114.96"/>
</g>
<!-- Node25&#45;&gt;Node3 -->
<g id="edge37" class="edge">
<title>Node25&#45;&gt;Node3</title>
<path fill="none" stroke="midnightblue" d="M770.6,-62.33C768.28,-63.74 766.07,-65.3 764,-67 690.13,-127.84 659.58,-248.64 651.99,-284.04"/>
<polygon fill="midnightblue" stroke="midnightblue" points="772.65,-65.21 779.96,-57.54 769.46,-58.98 772.65,-65.21"/>
</g>
<!-- Node26&#45;&gt;Node3 -->
<g id="edge39" class="edge">
<title>Node26&#45;&gt;Node3</title>
<path fill="none" stroke="midnightblue" d="M770.2,-24.35C768.02,-25.76 765.94,-27.31 764,-29 680.87,-101.69 656.37,-245.76 651.17,-284.32"/>
<polygon fill="midnightblue" stroke="midnightblue" points="771.91,-27.41 779.05,-19.58 768.58,-21.25 771.91,-27.41"/>
</g>
</g>
</svg>
