<?xml version="1.0" encoding="UTF-8" standalone="no"?>
<!DOCTYPE svg PUBLIC "-//W3C//DTD SVG 1.1//EN"
 "http://www.w3.org/Graphics/SVG/1.1/DTD/svg11.dtd">
<!-- Generated by graphviz version 2.43.0 (0)
 -->
<!-- Title: decompress_l_fx Pages: 1 -->
<!--zoomable 376 -->
<svg id="main" version="1.1" xmlns="http://www.w3.org/2000/svg" xmlns:xlink="http://www.w3.org/1999/xlink" xml:space="preserve" onload="init(evt)">
<style type="text/css"><![CDATA[
.edge:hover path { stroke: red; }
.edge:hover polygon { stroke: red; fill: red; }
]]></style>
<script type="text/javascript"><![CDATA[
var edges = document.getElementsByTagName('g');
if (edges && edges.length) {
  for (var i=0;i<edges.length;i++) {
    if (edges[i].id.substr(0,4)=='edge') {
      edges[i].setAttribute('class','edge');
    }
  }
}
]]></script>
        <defs>
                <circle id="rim" cx="0" cy="0" r="7"/>
                <circle id="rim2" cx="0" cy="0" r="3.5"/>
                <g id="zoomPlus">
                        <use xlink:href="#rim" fill="#404040">
                                <set attributeName="fill" to="#808080" begin="zoomplus.mouseover" end="zoomplus.mouseout"/>
                        </use>
                        <path d="M-4,0h8M0,-4v8" fill="none" stroke="white" stroke-width="1.5" pointer-events="none"/>
                </g>
                <g id="zoomMin">
                        <use xlink:href="#rim" fill="#404040">
                                <set attributeName="fill" to="#808080" begin="zoomminus.mouseover" end="zoomminus.mouseout"/>
                        </use>
                        <path d="M-4,0h8" fill="none" stroke="white" stroke-width="1.5" pointer-events="none"/>
                </g>
                <g id="dirArrow">
                        <path fill="none" stroke="white" stroke-width="1.5" d="M0,-3.0v7 M-2.5,-0.5L0,-3.0L2.5,-0.5"/>
                </g>
               <g id="resetDef">
                       <use xlink:href="#rim2" fill="#404040">
                               <set attributeName="fill" to="#808080" begin="reset.mouseover" end="reset.mouseout"/>
                       </use>
               </g>
        </defs>

<script type="text/javascript">
var viewWidth = 1104;
var viewHeight = 376;
var sectionId = 'dynsection-0';
</script>
<script xlink:href="svgpan.js"/>
<svg id="graph" class="graph">
<g id="viewport">
<title>decompress_l_fx</title>
<polygon fill="white" stroke="transparent" points="-4,4 -4,-372.45 1100,-372.45 1100,4 -4,4"/>
<!-- Node1 -->
<g id="node1" class="node">
<title>Node1</title>
<g id="a_node1"><a xlink:title="decompress long normal light flux (L_FX) data">
<polygon fill="#bfbfbf" stroke="black" points="0,-177.33 0,-196.33 99,-196.33 99,-177.33 0,-177.33"/>
<text text-anchor="middle" x="49.5" y="-184.33" font-family="Helvetica,sans-Serif" font-size="10.00">decompress_l_fx</text>
</a>
</g>
</g>
<!-- Node2 -->
<g id="node2" class="node">
<title>Node2</title>
<g id="a_node2"><a xlink:href="read__bitstream_8h_aa1739fc7209fe65165c7262036a1969d.html#aa1739fc7209fe65165c7262036a1969d" target="_top" xlink:title="initialize a bit_decoder">
<polygon fill="white" stroke="black" points="522.5,-348.33 522.5,-367.33 617.5,-367.33 617.5,-348.33 522.5,-348.33"/>
<text text-anchor="middle" x="570" y="-355.33" font-family="Helvetica,sans-Serif" font-size="10.00">bit_init_decoder</text>
</a>
</g>
</g>
<!-- Node1&#45;&gt;Node2 -->
<g id="edge1" class="edge">
<title>Node1&#45;&gt;Node2</title>
<path fill="none" stroke="midnightblue" d="M54.58,-196.36C64.64,-218.64 92.92,-274.26 135,-300.83 252.75,-375.17 424.3,-372.29 512.29,-364.65"/>
<polygon fill="midnightblue" stroke="midnightblue" points="512.71,-368.12 522.35,-363.72 512.07,-361.15 512.71,-368.12"/>
</g>
<!-- Node4 -->
<g id="node4" class="node">
<title>Node4</title>
<g id="a_node4"><a xlink:href="cmp__cal__up__model_8h_ae94523fd5901d49d08ea8f98ee319356.html#ae94523fd5901d49d08ea8f98ee319356" target="_top" xlink:title=" ">
<polygon fill="white" stroke="black" points="162.5,-158.33 162.5,-177.33 265.5,-177.33 265.5,-158.33 162.5,-158.33"/>
<text text-anchor="middle" x="214" y="-165.33" font-family="Helvetica,sans-Serif" font-size="10.00">cmp_up_model32</text>
</a>
</g>
</g>
<!-- Node1&#45;&gt;Node4 -->
<g id="edge3" class="edge">
<title>Node1&#45;&gt;Node4</title>
<path fill="none" stroke="midnightblue" d="M99.26,-181.13C115.9,-179.18 134.73,-176.98 152.2,-174.94"/>
<polygon fill="midnightblue" stroke="midnightblue" points="152.78,-178.39 162.31,-173.75 151.97,-171.44 152.78,-178.39"/>
</g>
<!-- Node5 -->
<g id="node5" class="node">
<title>Node5</title>
<g id="a_node5"><a xlink:href="decmp_8c_ac9a6281c5fcfbf077cc63e0494274f20.html#ac9a6281c5fcfbf077cc63e0494274f20" target="_top" xlink:title="configure a decoder setup structure to have a setup to decode a vale">
<polygon fill="white" stroke="black" points="145,-196.33 145,-215.33 283,-215.33 283,-196.33 145,-196.33"/>
<text text-anchor="middle" x="214" y="-203.33" font-family="Helvetica,sans-Serif" font-size="10.00">configure_decoder_setup</text>
</a>
</g>
</g>
<!-- Node1&#45;&gt;Node5 -->
<g id="edge4" class="edge">
<title>Node1&#45;&gt;Node5</title>
<path fill="none" stroke="midnightblue" d="M99.26,-192.53C110.43,-193.83 122.59,-195.26 134.66,-196.67"/>
<polygon fill="midnightblue" stroke="midnightblue" points="134.41,-200.16 144.75,-197.85 135.23,-193.21 134.41,-200.16"/>
</g>
<!-- Node24 -->
<g id="node24" class="node">
<title>Node24</title>
<g id="a_node24"><a xlink:href="decmp_8c_a5e29a350ebed1be3d3240b4aed0c67bc.html#a5e29a350ebed1be3d3240b4aed0c67bc" target="_top" xlink:title="decompress the next code word in the bitstream and decorate it with the model">
<polygon fill="white" stroke="black" points="172,-272.33 172,-291.33 256,-291.33 256,-272.33 172,-272.33"/>
<text text-anchor="middle" x="214" y="-279.33" font-family="Helvetica,sans-Serif" font-size="10.00">decode_value</text>
</a>
</g>
</g>
<!-- Node1&#45;&gt;Node24 -->
<g id="edge35" class="edge">
<title>Node1&#45;&gt;Node24</title>
<path fill="none" stroke="midnightblue" d="M66.98,-196.46C95.44,-213.1 154.02,-247.35 187.69,-267.03"/>
<polygon fill="midnightblue" stroke="midnightblue" points="186.08,-270.14 196.48,-272.17 189.61,-264.1 186.08,-270.14"/>
</g>
<!-- Node26 -->
<g id="node26" class="node">
<title>Node26</title>
<g id="a_node26"><a xlink:href="decmp_8c_a94885dc7430737ba85a8d8720c839022.html#a94885dc7430737ba85a8d8720c839022" target="_top" xlink:title="decompress the multi&#45;entry packet header structure and sets the data, model and up_model pointers to ...">
<polygon fill="white" stroke="black" points="135,-120.33 135,-139.33 293,-139.33 293,-120.33 135,-120.33"/>
<text text-anchor="middle" x="214" y="-127.33" font-family="Helvetica,sans-Serif" font-size="10.00">decompress_multi_entry_hdr</text>
</a>
</g>
</g>
<!-- Node1&#45;&gt;Node26 -->
<g id="edge38" class="edge">
<title>Node1&#45;&gt;Node26</title>
<path fill="none" stroke="midnightblue" d="M69.23,-177.2C86.09,-168.83 111.72,-156.82 135,-148.83 142.32,-146.31 150.14,-144 157.89,-141.91"/>
<polygon fill="midnightblue" stroke="midnightblue" points="158.83,-145.28 167.63,-139.39 157.08,-138.5 158.83,-145.28"/>
</g>
<!-- Node27 -->
<g id="node27" class="node">
<title>Node27</title>
<g id="a_node27"><a xlink:href="cmp__support_8c_afba7806c424cfb8c7678c1b4cebdfcbb.html#afba7806c424cfb8c7678c1b4cebdfcbb" target="_top" xlink:title="check if a model mode is selected">
<polygon fill="white" stroke="black" points="153,-82.33 153,-101.33 275,-101.33 275,-82.33 153,-82.33"/>
<text text-anchor="middle" x="214" y="-89.33" font-family="Helvetica,sans-Serif" font-size="10.00">model_mode_is_used</text>
</a>
</g>
</g>
<!-- Node1&#45;&gt;Node27 -->
<g id="edge39" class="edge">
<title>Node1&#45;&gt;Node27</title>
<path fill="none" stroke="midnightblue" d="M58.28,-177.25C72,-161.01 102.2,-128.14 135,-110.83 139.32,-108.55 143.91,-106.54 148.63,-104.76"/>
<polygon fill="midnightblue" stroke="midnightblue" points="150.09,-107.97 158.44,-101.45 147.84,-101.33 150.09,-107.97"/>
</g>
<!-- Node3 -->
<g id="node3" class="node">
<title>Node3</title>
<g id="a_node3"><a xlink:href="read__bitstream_8h_a4de9ebb7d031d3dcf638b7d0ae6f166d.html#a4de9ebb7d031d3dcf638b7d0ae6f166d" target="_top" xlink:title="read 8 bytes of big&#45;endian data from an unaligned address">
<polygon fill="white" stroke="black" points="655,-310.33 655,-329.33 794,-329.33 794,-310.33 655,-310.33"/>
<text text-anchor="middle" x="724.5" y="-317.33" font-family="Helvetica,sans-Serif" font-size="10.00">bit_read_unaligned_64be</text>
</a>
</g>
</g>
<!-- Node2&#45;&gt;Node3 -->
<g id="edge2" class="edge">
<title>Node2&#45;&gt;Node3</title>
<path fill="none" stroke="midnightblue" d="M609.48,-348.24C629.52,-343.25 654.2,-337.1 675.48,-331.79"/>
<polygon fill="midnightblue" stroke="midnightblue" points="676.44,-335.16 685.29,-329.35 674.74,-328.37 676.44,-335.16"/>
</g>
<!-- Node6 -->
<g id="node6" class="node">
<title>Node6</title>
<g id="a_node6"><a xlink:href="decmp_8c_a0082c0ea9e4c9c5eaa41b804e94bdf1d.html#a0082c0ea9e4c9c5eaa41b804e94bdf1d" target="_top" xlink:title="decode the next code word with the multi escape mechanism from the bitstream">
<polygon fill="white" stroke="black" points="365.5,-158.33 365.5,-177.33 448.5,-177.33 448.5,-158.33 365.5,-158.33"/>
<text text-anchor="middle" x="407" y="-165.33" font-family="Helvetica,sans-Serif" font-size="10.00">decode_multi</text>
</a>
</g>
</g>
<!-- Node5&#45;&gt;Node6 -->
<g id="edge5" class="edge">
<title>Node5&#45;&gt;Node6</title>
<path fill="none" stroke="midnightblue" d="M263.2,-196.24C291.25,-190.66 326.58,-183.63 355.09,-177.96"/>
<polygon fill="midnightblue" stroke="midnightblue" points="356.13,-181.32 365.25,-175.93 354.76,-174.45 356.13,-181.32"/>
</g>
<!-- Node12 -->
<g id="node12" class="node">
<title>Node12</title>
<g id="a_node12"><a xlink:href="decmp_8c_a071c03ef3d6f70f5be1e9aeb41fc157a.html#a071c03ef3d6f70f5be1e9aeb41fc157a" target="_top" xlink:title="get the value unencoded with setup&#45;&gt;cmp_par_1 bits without any additional changes from the bitstream">
<polygon fill="white" stroke="black" points="366.5,-272.33 366.5,-291.33 447.5,-291.33 447.5,-272.33 366.5,-272.33"/>
<text text-anchor="middle" x="407" y="-279.33" font-family="Helvetica,sans-Serif" font-size="10.00">decode_none</text>
</a>
</g>
</g>
<!-- Node5&#45;&gt;Node12 -->
<g id="edge12" class="edge">
<title>Node5&#45;&gt;Node12</title>
<path fill="none" stroke="midnightblue" d="M231.48,-215.53C253.19,-227.97 292.87,-249.52 329,-262.83 337.73,-266.04 347.21,-268.88 356.45,-271.32"/>
<polygon fill="midnightblue" stroke="midnightblue" points="355.77,-274.76 366.32,-273.81 357.48,-267.97 355.77,-274.76"/>
</g>
<!-- Node13 -->
<g id="node13" class="node">
<title>Node13</title>
<g id="a_node13"><a xlink:href="decmp_8c_ad5f1a8490e42bf0710838367255d21dc.html#ad5f1a8490e42bf0710838367255d21dc" target="_top" xlink:title="decode the next code word with zero escape system mechanism from the bitstream">
<polygon fill="white" stroke="black" points="368,-234.33 368,-253.33 446,-253.33 446,-234.33 368,-234.33"/>
<text text-anchor="middle" x="407" y="-241.33" font-family="Helvetica,sans-Serif" font-size="10.00">decode_zero</text>
</a>
</g>
</g>
<!-- Node5&#45;&gt;Node13 -->
<g id="edge15" class="edge">
<title>Node5&#45;&gt;Node13</title>
<path fill="none" stroke="midnightblue" d="M263.2,-215.42C292.16,-221.18 328.89,-228.49 357.85,-234.25"/>
<polygon fill="midnightblue" stroke="midnightblue" points="357.25,-237.7 367.74,-236.22 358.62,-230.83 357.25,-237.7"/>
</g>
<!-- Node15 -->
<g id="node15" class="node">
<title>Node15</title>
<g id="a_node15"><a xlink:href="cmp__support_8c_a67b0e38ca0e68c282c89552daa61ffdf.html#a67b0e38ca0e68c282c89552daa61ffdf" target="_top" xlink:title="implementation of the logarithm base of floor(log2(x)) for integers">
<polygon fill="white" stroke="black" points="701.5,-6.33 701.5,-25.33 747.5,-25.33 747.5,-6.33 701.5,-6.33"/>
<text text-anchor="middle" x="724.5" y="-13.33" font-family="Helvetica,sans-Serif" font-size="10.00">ilog_2</text>
</a>
</g>
</g>
<!-- Node5&#45;&gt;Node15 -->
<g id="edge19" class="edge">
<title>Node5&#45;&gt;Node15</title>
<path fill="none" stroke="midnightblue" d="M279.19,-196.21C284.22,-193.72 288.93,-190.64 293,-186.83 331.81,-150.54 289.41,-108.27 329,-72.83 432.69,20 616.93,2.16 691.17,-9.76"/>
<polygon fill="midnightblue" stroke="midnightblue" points="690.86,-13.26 701.3,-11.46 692.02,-6.36 690.86,-13.26"/>
</g>
<!-- Node16 -->
<g id="node16" class="node">
<title>Node16</title>
<g id="a_node16"><a xlink:href="cmp__support_8c_a0d3630773f703ddc81ca12e1f04485d9.html#a0d3630773f703ddc81ca12e1f04485d9" target="_top" xlink:title="check if multi escape symbol mechanism mode is used">
<polygon fill="white" stroke="black" points="329,-82.33 329,-101.33 485,-101.33 485,-82.33 329,-82.33"/>
<text text-anchor="middle" x="407" y="-89.33" font-family="Helvetica,sans-Serif" font-size="10.00">multi_escape_mech_is_used</text>
</a>
</g>
</g>
<!-- Node5&#45;&gt;Node16 -->
<g id="edge20" class="edge">
<title>Node5&#45;&gt;Node16</title>
<path fill="none" stroke="midnightblue" d="M277.1,-196.29C282.82,-193.8 288.25,-190.7 293,-186.83 321.98,-163.22 300.06,-134.48 329,-110.83 331.05,-109.15 333.23,-107.62 335.51,-106.22"/>
<polygon fill="midnightblue" stroke="midnightblue" points="337.43,-109.16 344.69,-101.45 334.21,-102.95 337.43,-109.16"/>
</g>
<!-- Node17 -->
<g id="node17" class="node">
<title>Node17</title>
<g id="a_node17"><a xlink:href="decmp_8c_ac57439dd4b34cf8fb663756f2b7b2549.html#ac57439dd4b34cf8fb663756f2b7b2549" target="_top" xlink:title="select the decoder based on the used Golomb parameter">
<polygon fill="white" stroke="black" points="362,-120.33 362,-139.33 452,-139.33 452,-120.33 362,-120.33"/>
<text text-anchor="middle" x="407" y="-127.33" font-family="Helvetica,sans-Serif" font-size="10.00">select_decoder</text>
</a>
</g>
</g>
<!-- Node5&#45;&gt;Node17 -->
<g id="edge21" class="edge">
<title>Node5&#45;&gt;Node17</title>
<path fill="none" stroke="midnightblue" d="M271.48,-196.2C278.99,-193.74 286.37,-190.67 293,-186.83 313.12,-175.15 308.89,-160.53 329,-148.83 336.11,-144.69 344.09,-141.45 352.15,-138.91"/>
<polygon fill="midnightblue" stroke="midnightblue" points="353.29,-142.23 361.97,-136.15 351.39,-135.49 353.29,-142.23"/>
</g>
<!-- Node23 -->
<g id="node23" class="node">
<title>Node23</title>
<g id="a_node23"><a xlink:href="cmp__support_8c_a82a852e0723978f5d5f4f5dbb756fa8f.html#a82a852e0723978f5d5f4f5dbb756fa8f" target="_top" xlink:title="check if zero escape symbol mechanism mode is used">
<polygon fill="white" stroke="black" points="331,-196.33 331,-215.33 483,-215.33 483,-196.33 331,-196.33"/>
<text text-anchor="middle" x="407" y="-203.33" font-family="Helvetica,sans-Serif" font-size="10.00">zero_escape_mech_is_used</text>
</a>
</g>
</g>
<!-- Node5&#45;&gt;Node23 -->
<g id="edge34" class="edge">
<title>Node5&#45;&gt;Node23</title>
<path fill="none" stroke="midnightblue" d="M283.15,-205.83C295.32,-205.83 308.14,-205.83 320.72,-205.83"/>
<polygon fill="midnightblue" stroke="midnightblue" points="320.74,-209.33 330.74,-205.83 320.74,-202.33 320.74,-209.33"/>
</g>
<!-- Node7 -->
<g id="node7" class="node">
<title>Node7</title>
<g id="a_node7"><a xlink:href="read__bitstream_8h_ad3b2702183e32bb737d84c8accd73066.html#ad3b2702183e32bb737d84c8accd73066" target="_top" xlink:title="same as bit_read_bits32() but only returns 32 bit">
<polygon fill="white" stroke="black" points="678.5,-177.33 678.5,-196.33 770.5,-196.33 770.5,-177.33 678.5,-177.33"/>
<text text-anchor="middle" x="724.5" y="-184.33" font-family="Helvetica,sans-Serif" font-size="10.00">bit_read_bits32</text>
</a>
</g>
</g>
<!-- Node6&#45;&gt;Node7 -->
<g id="edge6" class="edge">
<title>Node6&#45;&gt;Node7</title>
<path fill="none" stroke="midnightblue" d="M448.59,-176.34C470.02,-180.4 496.81,-184.81 521,-186.83 570.74,-190.98 627.59,-190.53 668.36,-189.3"/>
<polygon fill="midnightblue" stroke="midnightblue" points="668.49,-192.8 678.37,-188.97 668.26,-185.8 668.49,-192.8"/>
</g>
<!-- Node11 -->
<g id="node11" class="node">
<title>Node11</title>
<g id="a_node11"><a xlink:href="read__bitstream_8h_a65b5e1cb1107340846d20cae42c8a00c.html#a65b5e1cb1107340846d20cae42c8a00c" target="_top" xlink:title="refill the local register from the buffer previously set in bit_init_decoder()">
<polygon fill="white" stroke="black" points="542,-272.33 542,-291.33 598,-291.33 598,-272.33 542,-272.33"/>
<text text-anchor="middle" x="570" y="-279.33" font-family="Helvetica,sans-Serif" font-size="10.00">bit_refill</text>
</a>
</g>
</g>
<!-- Node6&#45;&gt;Node11 -->
<g id="edge10" class="edge">
<title>Node6&#45;&gt;Node11</title>
<path fill="none" stroke="midnightblue" d="M448.57,-173.06C460.89,-175.88 474.05,-180.2 485,-186.83 501.86,-197.03 536.21,-239.42 555.35,-263.99"/>
<polygon fill="midnightblue" stroke="midnightblue" points="552.77,-266.37 561.66,-272.14 558.31,-262.09 552.77,-266.37"/>
</g>
<!-- Node8 -->
<g id="node8" class="node">
<title>Node8</title>
<g id="a_node8"><a xlink:href="read__bitstream_8h_acf4864b9e402d8b801c0d3a8cd5dac3d.html#acf4864b9e402d8b801c0d3a8cd5dac3d" target="_top" xlink:title="read and consume next n bits from the local register">
<polygon fill="white" stroke="black" points="854,-158.33 854,-177.33 934,-177.33 934,-158.33 854,-158.33"/>
<text text-anchor="middle" x="894" y="-165.33" font-family="Helvetica,sans-Serif" font-size="10.00">bit_read_bits</text>
</a>
</g>
</g>
<!-- Node7&#45;&gt;Node8 -->
<g id="edge7" class="edge">
<title>Node7&#45;&gt;Node8</title>
<path fill="none" stroke="midnightblue" d="M770.83,-181.69C793.45,-179.12 820.84,-176.01 843.95,-173.39"/>
<polygon fill="midnightblue" stroke="midnightblue" points="844.36,-176.87 853.9,-172.26 843.57,-169.91 844.36,-176.87"/>
</g>
<!-- Node9 -->
<g id="node9" class="node">
<title>Node9</title>
<g id="a_node9"><a xlink:href="read__bitstream_8h_ad1aa8029b694397da24a84fcdc75acab.html#ad1aa8029b694397da24a84fcdc75acab" target="_top" xlink:title="mark next n bits in the local register as consumed">
<polygon fill="white" stroke="black" points="994,-177.33 994,-196.33 1096,-196.33 1096,-177.33 994,-177.33"/>
<text text-anchor="middle" x="1045" y="-184.33" font-family="Helvetica,sans-Serif" font-size="10.00">bit_consume_bits</text>
</a>
</g>
</g>
<!-- Node8&#45;&gt;Node9 -->
<g id="edge8" class="edge">
<title>Node8&#45;&gt;Node9</title>
<path fill="none" stroke="midnightblue" d="M934.15,-172.82C949.29,-174.75 966.96,-177 983.65,-179.13"/>
<polygon fill="midnightblue" stroke="midnightblue" points="983.52,-182.64 993.88,-180.44 984.4,-175.7 983.52,-182.64"/>
</g>
<!-- Node10 -->
<g id="node10" class="node">
<title>Node10</title>
<g id="a_node10"><a xlink:href="read__bitstream_8h_a12cac6ee9f16079c39d9fc7b61639597.html#a12cac6ee9f16079c39d9fc7b61639597" target="_top" xlink:title="provides next n bits from local register; local register is not modified">
<polygon fill="white" stroke="black" points="1004,-101.33 1004,-120.33 1086,-120.33 1086,-101.33 1004,-101.33"/>
<text text-anchor="middle" x="1045" y="-108.33" font-family="Helvetica,sans-Serif" font-size="10.00">bit_peek_bits</text>
</a>
</g>
</g>
<!-- Node8&#45;&gt;Node10 -->
<g id="edge9" class="edge">
<title>Node8&#45;&gt;Node10</title>
<path fill="none" stroke="midnightblue" d="M929.59,-158.23C938.89,-155.43 948.89,-152.2 958,-148.83 977.32,-141.68 998.5,-132.34 1015,-124.71"/>
<polygon fill="midnightblue" stroke="midnightblue" points="1016.55,-127.85 1024.13,-120.44 1013.59,-121.51 1016.55,-127.85"/>
</g>
<!-- Node11&#45;&gt;Node3 -->
<g id="edge11" class="edge">
<title>Node11&#45;&gt;Node3</title>
<path fill="none" stroke="midnightblue" d="M598.26,-288.62C619.67,-293.95 650,-301.51 675.46,-307.86"/>
<polygon fill="midnightblue" stroke="midnightblue" points="674.75,-311.29 685.3,-310.31 676.45,-304.5 674.75,-311.29"/>
</g>
<!-- Node12&#45;&gt;Node7 -->
<g id="edge13" class="edge">
<title>Node12&#45;&gt;Node7</title>
<path fill="none" stroke="midnightblue" d="M447.81,-289.97C500.25,-299.91 589.29,-313.9 619,-300.83 663.43,-281.28 697.23,-232.48 713.25,-205.5"/>
<polygon fill="midnightblue" stroke="midnightblue" points="716.39,-207.06 718.33,-196.64 710.32,-203.57 716.39,-207.06"/>
</g>
<!-- Node12&#45;&gt;Node11 -->
<g id="edge14" class="edge">
<title>Node12&#45;&gt;Node11</title>
<path fill="none" stroke="midnightblue" d="M447.8,-281.83C473.38,-281.83 506.41,-281.83 531.53,-281.83"/>
<polygon fill="midnightblue" stroke="midnightblue" points="531.76,-285.33 541.76,-281.83 531.76,-278.33 531.76,-285.33"/>
</g>
<!-- Node13&#45;&gt;Node11 -->
<g id="edge18" class="edge">
<title>Node13&#45;&gt;Node11</title>
<path fill="none" stroke="midnightblue" d="M446.15,-252.83C472.1,-258.96 506.24,-267.01 531.94,-273.08"/>
<polygon fill="midnightblue" stroke="midnightblue" points="531.16,-276.49 541.69,-275.38 532.77,-269.68 531.16,-276.49"/>
</g>
<!-- Node14 -->
<g id="node14" class="node">
<title>Node14</title>
<g id="a_node14"><a xlink:href="read__bitstream_8h_ae9b99a3b550a98eba08bba186159ff7b.html#ae9b99a3b550a98eba08bba186159ff7b" target="_top" xlink:title="same as bit_read_bits32() but subtract 1 from the extracted value">
<polygon fill="white" stroke="black" points="831.5,-234.33 831.5,-253.33 956.5,-253.33 956.5,-234.33 831.5,-234.33"/>
<text text-anchor="middle" x="894" y="-241.33" font-family="Helvetica,sans-Serif" font-size="10.00">bit_read_bits32_sub_1</text>
</a>
</g>
</g>
<!-- Node13&#45;&gt;Node14 -->
<g id="edge16" class="edge">
<title>Node13&#45;&gt;Node14</title>
<path fill="none" stroke="midnightblue" d="M446.06,-243.83C526.88,-243.83 716.79,-243.83 821.16,-243.83"/>
<polygon fill="midnightblue" stroke="midnightblue" points="821.3,-247.33 831.3,-243.83 821.3,-240.33 821.3,-247.33"/>
</g>
<!-- Node14&#45;&gt;Node9 -->
<g id="edge17" class="edge">
<title>Node14&#45;&gt;Node9</title>
<path fill="none" stroke="midnightblue" d="M920.14,-234.26C931.68,-229.87 945.54,-224.59 958,-219.83 975.07,-213.3 994.04,-206.02 1009.81,-199.97"/>
<polygon fill="midnightblue" stroke="midnightblue" points="1011.09,-203.23 1019.17,-196.37 1008.58,-196.69 1011.09,-203.23"/>
</g>
<!-- Node18 -->
<g id="node18" class="node">
<title>Node18</title>
<g id="a_node18"><a xlink:href="decmp_8c_ab8ea64d46b8170dc65694e3d0dec64ff.html#ab8ea64d46b8170dc65694e3d0dec64ff" target="_top" xlink:title="decode the next Golomb code word in the bitstream">
<polygon fill="white" stroke="black" points="521,-82.33 521,-101.33 619,-101.33 619,-82.33 521,-82.33"/>
<text text-anchor="middle" x="570" y="-89.33" font-family="Helvetica,sans-Serif" font-size="10.00">golomb_decoder</text>
</a>
</g>
</g>
<!-- Node17&#45;&gt;Node18 -->
<g id="edge22" class="edge">
<title>Node17&#45;&gt;Node18</title>
<path fill="none" stroke="midnightblue" d="M448.63,-120.24C469.97,-115.2 496.31,-108.98 518.91,-103.65"/>
<polygon fill="midnightblue" stroke="midnightblue" points="519.74,-107.05 528.67,-101.35 518.13,-100.24 519.74,-107.05"/>
</g>
<!-- Node19 -->
<g id="node19" class="node">
<title>Node19</title>
<g id="a_node19"><a xlink:href="decmp_8c_ad77fca4bf62b97dc9fe6edabb0086709.html#ad77fca4bf62b97dc9fe6edabb0086709" target="_top" xlink:title="decode the next unary code word in the bitstream">
<polygon fill="white" stroke="black" points="680,-120.33 680,-139.33 769,-139.33 769,-120.33 680,-120.33"/>
<text text-anchor="middle" x="724.5" y="-127.33" font-family="Helvetica,sans-Serif" font-size="10.00">unary_decoder</text>
</a>
</g>
</g>
<!-- Node17&#45;&gt;Node19 -->
<g id="edge33" class="edge">
<title>Node17&#45;&gt;Node19</title>
<path fill="none" stroke="midnightblue" d="M452.2,-129.83C509.19,-129.83 608.25,-129.83 669.6,-129.83"/>
<polygon fill="midnightblue" stroke="midnightblue" points="669.85,-133.33 679.85,-129.83 669.85,-126.33 669.85,-133.33"/>
</g>
<!-- Node21 -->
<g id="node21" class="node">
<title>Node21</title>
<g id="a_node21"><a xlink:href="cmp__support_8c_a7831f21f8303058bcac76d42a4aa1c06.html#a7831f21f8303058bcac76d42a4aa1c06" target="_top" xlink:title="determining if an integer is a power of 2">
<polygon fill="white" stroke="black" points="526,-44.33 526,-63.33 614,-63.33 614,-44.33 526,-44.33"/>
<text text-anchor="middle" x="570" y="-51.33" font-family="Helvetica,sans-Serif" font-size="10.00">is_a_pow_of_2</text>
</a>
</g>
</g>
<!-- Node17&#45;&gt;Node21 -->
<g id="edge29" class="edge">
<title>Node17&#45;&gt;Node21</title>
<path fill="none" stroke="midnightblue" d="M452.03,-123.5C463.28,-120.69 475,-116.65 485,-110.83 505.11,-99.12 501.73,-85.86 521,-72.83 523.75,-70.97 526.7,-69.25 529.75,-67.67"/>
<polygon fill="midnightblue" stroke="midnightblue" points="531.45,-70.74 539.04,-63.35 528.5,-64.39 531.45,-70.74"/>
</g>
<!-- Node22 -->
<g id="node22" class="node">
<title>Node22</title>
<g id="a_node22"><a xlink:href="decmp_8c_a31e9c3bcbe70648b659fe3c8f4383045.html#a31e9c3bcbe70648b659fe3c8f4383045" target="_top" xlink:title="decode the next Rice code word in the bitstream">
<polygon fill="white" stroke="black" points="530.5,-158.33 530.5,-177.33 609.5,-177.33 609.5,-158.33 530.5,-158.33"/>
<text text-anchor="middle" x="570" y="-165.33" font-family="Helvetica,sans-Serif" font-size="10.00">rice_decoder</text>
</a>
</g>
</g>
<!-- Node17&#45;&gt;Node22 -->
<g id="edge30" class="edge">
<title>Node17&#45;&gt;Node22</title>
<path fill="none" stroke="midnightblue" d="M448.63,-139.42C470.46,-144.57 497.52,-150.96 520.45,-156.37"/>
<polygon fill="midnightblue" stroke="midnightblue" points="519.79,-159.81 530.33,-158.7 521.4,-153 519.79,-159.81"/>
</g>
<!-- Node18&#45;&gt;Node9 -->
<g id="edge23" class="edge">
<title>Node18&#45;&gt;Node9</title>
<path fill="none" stroke="midnightblue" d="M619.2,-90.26C708.94,-87.98 897.95,-86.4 958,-110.83 988.14,-123.09 1014.81,-150.63 1030.19,-168.97"/>
<polygon fill="midnightblue" stroke="midnightblue" points="1027.78,-171.55 1036.79,-177.12 1033.22,-167.15 1027.78,-171.55"/>
</g>
<!-- Node18&#45;&gt;Node10 -->
<g id="edge24" class="edge">
<title>Node18&#45;&gt;Node10</title>
<path fill="none" stroke="midnightblue" d="M619.25,-82.39C630.9,-80.49 643.36,-78.79 655,-77.83 789.21,-66.72 825.59,-53.29 958,-77.83 977.92,-81.52 999.19,-89.64 1015.59,-96.9"/>
<polygon fill="midnightblue" stroke="midnightblue" points="1014.57,-100.28 1025.12,-101.26 1017.49,-93.92 1014.57,-100.28"/>
</g>
<!-- Node18&#45;&gt;Node15 -->
<g id="edge25" class="edge">
<title>Node18&#45;&gt;Node15</title>
<path fill="none" stroke="midnightblue" d="M600.01,-82.32C606.48,-79.67 613.15,-76.49 619,-72.83 637.4,-61.31 636.38,-50.98 655,-39.83 666.23,-33.1 679.63,-27.88 691.59,-24.05"/>
<polygon fill="midnightblue" stroke="midnightblue" points="692.64,-27.39 701.21,-21.16 690.63,-20.69 692.64,-27.39"/>
</g>
<!-- Node18&#45;&gt;Node19 -->
<g id="edge26" class="edge">
<title>Node18&#45;&gt;Node19</title>
<path fill="none" stroke="midnightblue" d="M609.48,-101.42C629.52,-106.41 654.2,-112.56 675.48,-117.86"/>
<polygon fill="midnightblue" stroke="midnightblue" points="674.74,-121.29 685.29,-120.31 676.44,-114.49 674.74,-121.29"/>
</g>
<!-- Node19&#45;&gt;Node9 -->
<g id="edge27" class="edge">
<title>Node19&#45;&gt;Node9</title>
<path fill="none" stroke="midnightblue" d="M742.74,-139.37C771.8,-155.44 827.63,-186.22 830,-186.83 880.66,-199.75 940.29,-198.46 983.71,-194.69"/>
<polygon fill="midnightblue" stroke="midnightblue" points="984.21,-198.16 993.83,-193.74 983.55,-191.19 984.21,-198.16"/>
</g>
<!-- Node20 -->
<g id="node20" class="node">
<title>Node20</title>
<g id="a_node20"><a xlink:href="read__bitstream_8h_a08b1899a09b0b72856f441efae758d76.html#a08b1899a09b0b72856f441efae758d76" target="_top" xlink:title="count the leading ones in the local register; local register is not modified">
<polygon fill="white" stroke="black" points="830,-120.33 830,-139.33 958,-139.33 958,-120.33 830,-120.33"/>
<text text-anchor="middle" x="894" y="-127.33" font-family="Helvetica,sans-Serif" font-size="10.00">bit_peek_leading_ones</text>
</a>
</g>
</g>
<!-- Node19&#45;&gt;Node20 -->
<g id="edge28" class="edge">
<title>Node19&#45;&gt;Node20</title>
<path fill="none" stroke="midnightblue" d="M769.07,-129.83C784.55,-129.83 802.42,-129.83 819.7,-129.83"/>
<polygon fill="midnightblue" stroke="midnightblue" points="819.78,-133.33 829.78,-129.83 819.78,-126.33 819.78,-133.33"/>
</g>
<!-- Node22&#45;&gt;Node7 -->
<g id="edge31" class="edge">
<title>Node22&#45;&gt;Node7</title>
<path fill="none" stroke="midnightblue" d="M609.88,-172.67C627.69,-174.89 649.11,-177.56 668.53,-179.98"/>
<polygon fill="midnightblue" stroke="midnightblue" points="668.12,-183.45 678.48,-181.22 668.99,-176.51 668.12,-183.45"/>
</g>
<!-- Node22&#45;&gt;Node19 -->
<g id="edge32" class="edge">
<title>Node22&#45;&gt;Node19</title>
<path fill="none" stroke="midnightblue" d="M609.48,-158.24C629.52,-153.25 654.2,-147.1 675.48,-141.79"/>
<polygon fill="midnightblue" stroke="midnightblue" points="676.44,-145.16 685.29,-139.35 674.74,-138.37 676.44,-145.16"/>
</g>
<!-- Node24&#45;&gt;Node12 -->
<g id="edge36" class="edge">
<title>Node24&#45;&gt;Node12</title>
<path fill="none" stroke="midnightblue" d="M256.44,-281.83C285.72,-281.83 325.1,-281.83 356.1,-281.83"/>
<polygon fill="midnightblue" stroke="midnightblue" points="356.27,-285.33 366.27,-281.83 356.27,-278.33 356.27,-285.33"/>
</g>
<!-- Node25 -->
<g id="node25" class="node">
<title>Node25</title>
<g id="a_node25"><a xlink:href="decmp_8c_a931b1f11894a7118817a8b8bb08644f9.html#a931b1f11894a7118817a8b8bb08644f9" target="_top" xlink:title="remap an unsigned value back to a signed value">
<polygon fill="white" stroke="black" points="361.5,-310.33 361.5,-329.33 452.5,-329.33 452.5,-310.33 361.5,-310.33"/>
<text text-anchor="middle" x="407" y="-317.33" font-family="Helvetica,sans-Serif" font-size="10.00">re_map_to_pos</text>
</a>
</g>
</g>
<!-- Node24&#45;&gt;Node25 -->
<g id="edge37" class="edge">
<title>Node24&#45;&gt;Node25</title>
<path fill="none" stroke="midnightblue" d="M256.44,-290.07C284.24,-295.6 321.15,-302.95 351.35,-308.95"/>
<polygon fill="midnightblue" stroke="midnightblue" points="350.81,-312.42 361.31,-310.94 352.18,-305.55 350.81,-312.42"/>
</g>
</g>
</svg>
        <g id="navigator" transform="translate(0 0)" fill="#404254">
                <rect fill="#f2f5e9" fill-opacity="0.5" stroke="#606060" stroke-width=".5" x="0" y="0" width="60" height="60"/>
                <use id="zoomplus" xlink:href="#zoomPlus" x="17" y="9" onmousedown="handleZoom(evt,'in')"/>
                <use id="zoomminus" xlink:href="#zoomMin" x="42" y="9" onmousedown="handleZoom(evt,'out')"/>
                <use id="reset" xlink:href="#resetDef" x="30" y="36" onmousedown="handleReset()"/>
                <g id="arrowUp" xlink:href="#dirArrow" transform="translate(30 24)" onmousedown="handlePan(0,-1)">
                  <use xlink:href="#rim" fill="#404040">
                        <set attributeName="fill" to="#808080" begin="arrowUp.mouseover" end="arrowUp.mouseout"/>
                  </use>
                  <path fill="none" stroke="white" stroke-width="1.5" d="M0,-3.0v7 M-2.5,-0.5L0,-3.0L2.5,-0.5"/>
                </g>
                <g id="arrowRight" xlink:href="#dirArrow" transform="rotate(90) translate(36 -43)" onmousedown="handlePan(1,0)">
                  <use xlink:href="#rim" fill="#404040">
                        <set attributeName="fill" to="#808080" begin="arrowRight.mouseover" end="arrowRight.mouseout"/>
                  </use>
                  <path fill="none" stroke="white" stroke-width="1.5" d="M0,-3.0v7 M-2.5,-0.5L0,-3.0L2.5,-0.5"/>
                </g>
                <g id="arrowDown" xlink:href="#dirArrow" transform="rotate(180) translate(-30 -48)" onmousedown="handlePan(0,1)">
                  <use xlink:href="#rim" fill="#404040">
                        <set attributeName="fill" to="#808080" begin="arrowDown.mouseover" end="arrowDown.mouseout"/>
                  </use>
                  <path fill="none" stroke="white" stroke-width="1.5" d="M0,-3.0v7 M-2.5,-0.5L0,-3.0L2.5,-0.5"/>
                </g>
                <g id="arrowLeft" xlink:href="#dirArrow" transform="rotate(270) translate(-36 17)" onmousedown="handlePan(-1,0)">
                  <use xlink:href="#rim" fill="#404040">
                        <set attributeName="fill" to="#808080" begin="arrowLeft.mouseover" end="arrowLeft.mouseout"/>
                  </use>
                  <path fill="none" stroke="white" stroke-width="1.5" d="M0,-3.0v7 M-2.5,-0.5L0,-3.0L2.5,-0.5"/>
                </g>
        </g>
        <svg viewBox="0 0 15 15" width="100%" height="30px" preserveAspectRatio="xMaxYMin meet">
         <g id="arrow_out" transform="scale(0.3 0.3)">
          <a xlink:href="decmp_8c_a75f3c5c08234bce92e84d07a93e9a77d_a75f3c5c08234bce92e84d07a93e9a77d_cgraph_org.svg" target="_base">
           <rect id="button" ry="5" rx="5" y="6" x="6" height="38" width="38"
                fill="#f2f5e9" fill-opacity="0.5" stroke="#606060" stroke-width="1.0"/>
           <path id="arrow"
             d="M 11.500037,31.436501 C 11.940474,20.09759 22.043105,11.32322 32.158766,21.979434 L 37.068811,17.246167 C 37.068811,17.246167 37.088388,32 37.088388,32 L 22.160133,31.978069 C 22.160133,31.978069 26.997745,27.140456 26.997745,27.140456 C 18.528582,18.264221 13.291696,25.230495 11.500037,31.436501 z"
             style="fill:#404040;"/>
          </a>
         </g>
        </svg>
</svg>
