<?xml version="1.0" encoding="UTF-8" standalone="no"?>
<!DOCTYPE svg PUBLIC "-//W3C//DTD SVG 1.1//EN"
 "http://www.w3.org/Graphics/SVG/1.1/DTD/svg11.dtd">
<!-- Generated by graphviz version 2.43.0 (0)
 -->
<!-- Title: configure_decoder_setup Pages: 1 -->
<svg width="949pt" height="389pt"
 viewBox="0.00 0.00 949.00 389.00" xmlns="http://www.w3.org/2000/svg" xmlns:xlink="http://www.w3.org/1999/xlink">
<g id="graph0" class="graph" transform="scale(1 1) rotate(0) translate(4 385)">
<title>configure_decoder_setup</title>
<polygon fill="white" stroke="transparent" points="-4,4 -4,-385 945,-385 945,4 -4,4"/>
<!-- Node1 -->
<g id="node1" class="node">
<title>Node1</title>
<g id="a_node1"><a xlink:title="configure a decoder setup structure to have a setup to decode a vale">
<polygon fill="#bfbfbf" stroke="black" points="0,-171.5 0,-190.5 138,-190.5 138,-171.5 0,-171.5"/>
<text text-anchor="middle" x="69" y="-178.5" font-family="Helvetica,sans-Serif" font-size="10.00">configure_decoder_setup</text>
</a>
</g>
</g>
<!-- Node2 -->
<g id="node2" class="node">
<title>Node2</title>
<g id="a_node2"><a xlink:href="decmp_8c_a0082c0ea9e4c9c5eaa41b804e94bdf1d.html#a0082c0ea9e4c9c5eaa41b804e94bdf1d" target="_top" xlink:title="decode the next code word with the multi escape mechanism from the bitstream">
<polygon fill="white" stroke="black" points="210.5,-266.5 210.5,-285.5 293.5,-285.5 293.5,-266.5 210.5,-266.5"/>
<text text-anchor="middle" x="252" y="-273.5" font-family="Helvetica,sans-Serif" font-size="10.00">decode_multi</text>
</a>
</g>
</g>
<!-- Node1&#45;&gt;Node2 -->
<g id="edge1" class="edge">
<title>Node1&#45;&gt;Node2</title>
<path fill="none" stroke="midnightblue" d="M88.35,-190.63C120.28,-207.39 186.21,-241.99 223.58,-261.61"/>
<polygon fill="midnightblue" stroke="midnightblue" points="222.39,-264.94 232.87,-266.48 225.64,-258.74 222.39,-264.94"/>
</g>
<!-- Node9 -->
<g id="node9" class="node">
<title>Node9</title>
<g id="a_node9"><a xlink:href="decmp_8c_a071c03ef3d6f70f5be1e9aeb41fc157a.html#a071c03ef3d6f70f5be1e9aeb41fc157a" target="_top" xlink:title="get the value unencoded with setup&#45;&gt;cmp_par_1 bits without any additional changes from the bitstream">
<polygon fill="white" stroke="black" points="211.5,-304.5 211.5,-323.5 292.5,-323.5 292.5,-304.5 211.5,-304.5"/>
<text text-anchor="middle" x="252" y="-311.5" font-family="Helvetica,sans-Serif" font-size="10.00">decode_none</text>
</a>
</g>
</g>
<!-- Node1&#45;&gt;Node9 -->
<g id="edge8" class="edge">
<title>Node1&#45;&gt;Node9</title>
<path fill="none" stroke="midnightblue" d="M75.93,-190.71C90,-212.89 127.72,-267.47 174,-295 182.34,-299.96 191.93,-303.63 201.45,-306.35"/>
<polygon fill="midnightblue" stroke="midnightblue" points="200.73,-309.77 211.28,-308.84 202.45,-302.99 200.73,-309.77"/>
</g>
<!-- Node10 -->
<g id="node10" class="node">
<title>Node10</title>
<g id="a_node10"><a xlink:href="decmp_8c_ad5f1a8490e42bf0710838367255d21dc.html#ad5f1a8490e42bf0710838367255d21dc" target="_top" xlink:title="decode the next code word with zero escape system mechanism from the bitstream">
<polygon fill="white" stroke="black" points="213,-342.5 213,-361.5 291,-361.5 291,-342.5 213,-342.5"/>
<text text-anchor="middle" x="252" y="-349.5" font-family="Helvetica,sans-Serif" font-size="10.00">decode_zero</text>
</a>
</g>
</g>
<!-- Node1&#45;&gt;Node10 -->
<g id="edge11" class="edge">
<title>Node1&#45;&gt;Node10</title>
<path fill="none" stroke="midnightblue" d="M73.68,-190.64C84.52,-217.71 119.09,-294.92 174,-333 182.49,-338.88 192.61,-342.95 202.68,-345.76"/>
<polygon fill="midnightblue" stroke="midnightblue" points="202.13,-349.23 212.67,-348.17 203.77,-342.43 202.13,-349.23"/>
</g>
<!-- Node12 -->
<g id="node12" class="node">
<title>Node12</title>
<g id="a_node12"><a xlink:href="cmp__support_8c_a67b0e38ca0e68c282c89552daa61ffdf.html#a67b0e38ca0e68c282c89552daa61ffdf" target="_top" xlink:title="implementation of the logarithm base of floor(log2(x)) for integers">
<polygon fill="white" stroke="black" points="546.5,-95.5 546.5,-114.5 592.5,-114.5 592.5,-95.5 546.5,-95.5"/>
<text text-anchor="middle" x="569.5" y="-102.5" font-family="Helvetica,sans-Serif" font-size="10.00">ilog_2</text>
</a>
</g>
</g>
<!-- Node1&#45;&gt;Node12 -->
<g id="edge15" class="edge">
<title>Node1&#45;&gt;Node12</title>
<path fill="none" stroke="midnightblue" d="M97.71,-171.38C149.57,-153.94 265.2,-117.73 366,-105 425.71,-97.46 496.12,-100 536.22,-102.52"/>
<polygon fill="midnightblue" stroke="midnightblue" points="536,-106.01 546.21,-103.18 536.47,-99.03 536,-106.01"/>
</g>
<!-- Node13 -->
<g id="node13" class="node">
<title>Node13</title>
<g id="a_node13"><a xlink:href="cmp__support_8c_a0d3630773f703ddc81ca12e1f04485d9.html#a0d3630773f703ddc81ca12e1f04485d9" target="_top" xlink:title="check if multi escape symbol mechanism mode is used">
<polygon fill="white" stroke="black" points="174,-38.5 174,-57.5 330,-57.5 330,-38.5 174,-38.5"/>
<text text-anchor="middle" x="252" y="-45.5" font-family="Helvetica,sans-Serif" font-size="10.00">multi_escape_mech_is_used</text>
</a>
</g>
</g>
<!-- Node1&#45;&gt;Node13 -->
<g id="edge16" class="edge">
<title>Node1&#45;&gt;Node13</title>
<path fill="none" stroke="midnightblue" d="M76.59,-171.28C91.46,-150.09 129.78,-99.45 174,-72 181.18,-67.54 189.26,-63.85 197.41,-60.81"/>
<polygon fill="midnightblue" stroke="midnightblue" points="198.64,-64.09 206.96,-57.54 196.37,-57.47 198.64,-64.09"/>
</g>
<!-- Node14 -->
<g id="node14" class="node">
<title>Node14</title>
<g id="a_node14"><a xlink:href="decmp_8c_ac57439dd4b34cf8fb663756f2b7b2549.html#ac57439dd4b34cf8fb663756f2b7b2549" target="_top" xlink:title="select the decoder based on the used Golomb parameter">
<polygon fill="white" stroke="black" points="207,-171.5 207,-190.5 297,-190.5 297,-171.5 207,-171.5"/>
<text text-anchor="middle" x="252" y="-178.5" font-family="Helvetica,sans-Serif" font-size="10.00">select_decoder</text>
</a>
</g>
</g>
<!-- Node1&#45;&gt;Node14 -->
<g id="edge17" class="edge">
<title>Node1&#45;&gt;Node14</title>
<path fill="none" stroke="midnightblue" d="M138.17,-181C157.53,-181 178.34,-181 196.75,-181"/>
<polygon fill="midnightblue" stroke="midnightblue" points="197,-184.5 207,-181 197,-177.5 197,-184.5"/>
</g>
<!-- Node20 -->
<g id="node20" class="node">
<title>Node20</title>
<g id="a_node20"><a xlink:href="cmp__support_8c_a82a852e0723978f5d5f4f5dbb756fa8f.html#a82a852e0723978f5d5f4f5dbb756fa8f" target="_top" xlink:title="check if zero escape symbol mechanism mode is used">
<polygon fill="white" stroke="black" points="176,-0.5 176,-19.5 328,-19.5 328,-0.5 176,-0.5"/>
<text text-anchor="middle" x="252" y="-7.5" font-family="Helvetica,sans-Serif" font-size="10.00">zero_escape_mech_is_used</text>
</a>
</g>
</g>
<!-- Node1&#45;&gt;Node20 -->
<g id="edge30" class="edge">
<title>Node1&#45;&gt;Node20</title>
<path fill="none" stroke="midnightblue" d="M73.68,-171.36C84.52,-144.29 119.09,-67.08 174,-29 176.86,-27.02 179.9,-25.24 183.07,-23.65"/>
<polygon fill="midnightblue" stroke="midnightblue" points="184.49,-26.85 192.26,-19.64 181.69,-20.43 184.49,-26.85"/>
</g>
<!-- Node3 -->
<g id="node3" class="node">
<title>Node3</title>
<g id="a_node3"><a xlink:href="read__bitstream_8h_ad3b2702183e32bb737d84c8accd73066.html#ad3b2702183e32bb737d84c8accd73066" target="_top" xlink:title="same as bit_read_bits32() but only returns 32 bit">
<polygon fill="white" stroke="black" points="523.5,-266.5 523.5,-285.5 615.5,-285.5 615.5,-266.5 523.5,-266.5"/>
<text text-anchor="middle" x="569.5" y="-273.5" font-family="Helvetica,sans-Serif" font-size="10.00">bit_read_bits32</text>
</a>
</g>
</g>
<!-- Node2&#45;&gt;Node3 -->
<g id="edge2" class="edge">
<title>Node2&#45;&gt;Node3</title>
<path fill="none" stroke="midnightblue" d="M293.6,-276C349.57,-276 450.6,-276 513.36,-276"/>
<polygon fill="midnightblue" stroke="midnightblue" points="513.47,-279.5 523.47,-276 513.47,-272.5 513.47,-279.5"/>
</g>
<!-- Node7 -->
<g id="node7" class="node">
<title>Node7</title>
<g id="a_node7"><a xlink:href="read__bitstream_8h_a65b5e1cb1107340846d20cae42c8a00c.html#a65b5e1cb1107340846d20cae42c8a00c" target="_top" xlink:title="refill the local register from the buffer previously set in bit_init_decoder()">
<polygon fill="white" stroke="black" points="387,-342.5 387,-361.5 443,-361.5 443,-342.5 387,-342.5"/>
<text text-anchor="middle" x="415" y="-349.5" font-family="Helvetica,sans-Serif" font-size="10.00">bit_refill</text>
</a>
</g>
</g>
<!-- Node2&#45;&gt;Node7 -->
<g id="edge6" class="edge">
<title>Node2&#45;&gt;Node7</title>
<path fill="none" stroke="midnightblue" d="M293.86,-283.25C305.8,-286.11 318.68,-289.96 330,-295 353.91,-305.65 378.34,-323.12 394.65,-335.92"/>
<polygon fill="midnightblue" stroke="midnightblue" points="392.83,-338.95 402.82,-342.48 397.21,-333.49 392.83,-338.95"/>
</g>
<!-- Node4 -->
<g id="node4" class="node">
<title>Node4</title>
<g id="a_node4"><a xlink:href="read__bitstream_8h_acf4864b9e402d8b801c0d3a8cd5dac3d.html#acf4864b9e402d8b801c0d3a8cd5dac3d" target="_top" xlink:title="read and consume next n bits from the local register">
<polygon fill="white" stroke="black" points="699,-266.5 699,-285.5 779,-285.5 779,-266.5 699,-266.5"/>
<text text-anchor="middle" x="739" y="-273.5" font-family="Helvetica,sans-Serif" font-size="10.00">bit_read_bits</text>
</a>
</g>
</g>
<!-- Node3&#45;&gt;Node4 -->
<g id="edge3" class="edge">
<title>Node3&#45;&gt;Node4</title>
<path fill="none" stroke="midnightblue" d="M615.83,-276C638.34,-276 665.59,-276 688.64,-276"/>
<polygon fill="midnightblue" stroke="midnightblue" points="688.9,-279.5 698.9,-276 688.9,-272.5 688.9,-279.5"/>
</g>
<!-- Node5 -->
<g id="node5" class="node">
<title>Node5</title>
<g id="a_node5"><a xlink:href="read__bitstream_8h_ad1aa8029b694397da24a84fcdc75acab.html#ad1aa8029b694397da24a84fcdc75acab" target="_top" xlink:title="mark next n bits in the local register as consumed">
<polygon fill="white" stroke="black" points="839,-285.5 839,-304.5 941,-304.5 941,-285.5 839,-285.5"/>
<text text-anchor="middle" x="890" y="-292.5" font-family="Helvetica,sans-Serif" font-size="10.00">bit_consume_bits</text>
</a>
</g>
</g>
<!-- Node4&#45;&gt;Node5 -->
<g id="edge4" class="edge">
<title>Node4&#45;&gt;Node5</title>
<path fill="none" stroke="midnightblue" d="M779.15,-280.99C794.29,-282.92 811.96,-285.18 828.65,-287.3"/>
<polygon fill="midnightblue" stroke="midnightblue" points="828.52,-290.82 838.88,-288.61 829.4,-283.87 828.52,-290.82"/>
</g>
<!-- Node6 -->
<g id="node6" class="node">
<title>Node6</title>
<g id="a_node6"><a xlink:href="read__bitstream_8h_a12cac6ee9f16079c39d9fc7b61639597.html#a12cac6ee9f16079c39d9fc7b61639597" target="_top" xlink:title="provides next n bits from local register; local register is not modified">
<polygon fill="white" stroke="black" points="849,-190.5 849,-209.5 931,-209.5 931,-190.5 849,-190.5"/>
<text text-anchor="middle" x="890" y="-197.5" font-family="Helvetica,sans-Serif" font-size="10.00">bit_peek_bits</text>
</a>
</g>
</g>
<!-- Node4&#45;&gt;Node6 -->
<g id="edge5" class="edge">
<title>Node4&#45;&gt;Node6</title>
<path fill="none" stroke="midnightblue" d="M778.32,-266.4C786.63,-263.78 795.24,-260.64 803,-257 827.16,-245.65 852.34,-228.2 869.16,-215.6"/>
<polygon fill="midnightblue" stroke="midnightblue" points="871.31,-218.35 877.14,-209.51 867.07,-212.79 871.31,-218.35"/>
</g>
<!-- Node8 -->
<g id="node8" class="node">
<title>Node8</title>
<g id="a_node8"><a xlink:href="read__bitstream_8h_a4de9ebb7d031d3dcf638b7d0ae6f166d.html#a4de9ebb7d031d3dcf638b7d0ae6f166d" target="_top" xlink:title="read 8 bytes of big&#45;endian data from an unaligned address">
<polygon fill="white" stroke="black" points="500,-342.5 500,-361.5 639,-361.5 639,-342.5 500,-342.5"/>
<text text-anchor="middle" x="569.5" y="-349.5" font-family="Helvetica,sans-Serif" font-size="10.00">bit_read_unaligned_64be</text>
</a>
</g>
</g>
<!-- Node7&#45;&gt;Node8 -->
<g id="edge7" class="edge">
<title>Node7&#45;&gt;Node8</title>
<path fill="none" stroke="midnightblue" d="M443.26,-352C456.39,-352 472.87,-352 489.53,-352"/>
<polygon fill="midnightblue" stroke="midnightblue" points="489.89,-355.5 499.89,-352 489.89,-348.5 489.89,-355.5"/>
</g>
<!-- Node9&#45;&gt;Node3 -->
<g id="edge9" class="edge">
<title>Node9&#45;&gt;Node3</title>
<path fill="none" stroke="midnightblue" d="M292.69,-309.72C335.13,-305.1 404.36,-297.39 464,-290 479.94,-288.03 497.24,-285.76 513.09,-283.63"/>
<polygon fill="midnightblue" stroke="midnightblue" points="513.82,-287.07 523.26,-282.26 512.88,-280.13 513.82,-287.07"/>
</g>
<!-- Node9&#45;&gt;Node7 -->
<g id="edge10" class="edge">
<title>Node9&#45;&gt;Node7</title>
<path fill="none" stroke="midnightblue" d="M292.8,-323.39C318.5,-329.46 351.7,-337.3 376.86,-343.23"/>
<polygon fill="midnightblue" stroke="midnightblue" points="376.22,-346.68 386.76,-345.57 377.83,-339.87 376.22,-346.68"/>
</g>
<!-- Node10&#45;&gt;Node7 -->
<g id="edge14" class="edge">
<title>Node10&#45;&gt;Node7</title>
<path fill="none" stroke="midnightblue" d="M291.15,-352C316.98,-352 350.94,-352 376.6,-352"/>
<polygon fill="midnightblue" stroke="midnightblue" points="376.69,-355.5 386.69,-352 376.69,-348.5 376.69,-355.5"/>
</g>
<!-- Node11 -->
<g id="node11" class="node">
<title>Node11</title>
<g id="a_node11"><a xlink:href="read__bitstream_8h_ae9b99a3b550a98eba08bba186159ff7b.html#ae9b99a3b550a98eba08bba186159ff7b" target="_top" xlink:title="same as bit_read_bits32() but subtract 1 from the extracted value">
<polygon fill="white" stroke="black" points="676.5,-361.5 676.5,-380.5 801.5,-380.5 801.5,-361.5 676.5,-361.5"/>
<text text-anchor="middle" x="739" y="-368.5" font-family="Helvetica,sans-Serif" font-size="10.00">bit_read_bits32_sub_1</text>
</a>
</g>
</g>
<!-- Node10&#45;&gt;Node11 -->
<g id="edge12" class="edge">
<title>Node10&#45;&gt;Node11</title>
<path fill="none" stroke="midnightblue" d="M291.24,-360.06C313.04,-364.24 340.92,-368.91 366,-371 470.04,-379.69 591.01,-377.4 666.05,-374.54"/>
<polygon fill="midnightblue" stroke="midnightblue" points="666.47,-378.03 676.32,-374.13 666.19,-371.03 666.47,-378.03"/>
</g>
<!-- Node11&#45;&gt;Node5 -->
<g id="edge13" class="edge">
<title>Node11&#45;&gt;Node5</title>
<path fill="none" stroke="midnightblue" d="M758.87,-361.37C784.73,-348.18 831.37,-324.39 861.23,-309.17"/>
<polygon fill="midnightblue" stroke="midnightblue" points="862.96,-312.21 870.28,-304.55 859.78,-305.97 862.96,-312.21"/>
</g>
<!-- Node15 -->
<g id="node15" class="node">
<title>Node15</title>
<g id="a_node15"><a xlink:href="decmp_8c_ab8ea64d46b8170dc65694e3d0dec64ff.html#ab8ea64d46b8170dc65694e3d0dec64ff" target="_top" xlink:title="decode the next Golomb code word in the bitstream">
<polygon fill="white" stroke="black" points="366,-152.5 366,-171.5 464,-171.5 464,-152.5 366,-152.5"/>
<text text-anchor="middle" x="415" y="-159.5" font-family="Helvetica,sans-Serif" font-size="10.00">golomb_decoder</text>
</a>
</g>
</g>
<!-- Node14&#45;&gt;Node15 -->
<g id="edge18" class="edge">
<title>Node14&#45;&gt;Node15</title>
<path fill="none" stroke="midnightblue" d="M297.42,-175.76C315.41,-173.64 336.43,-171.15 355.63,-168.89"/>
<polygon fill="midnightblue" stroke="midnightblue" points="356.25,-172.34 365.77,-167.69 355.43,-165.39 356.25,-172.34"/>
</g>
<!-- Node16 -->
<g id="node16" class="node">
<title>Node16</title>
<g id="a_node16"><a xlink:href="decmp_8c_ad77fca4bf62b97dc9fe6edabb0086709.html#ad77fca4bf62b97dc9fe6edabb0086709" target="_top" xlink:title="decode the next unary code word in the bitstream">
<polygon fill="white" stroke="black" points="525,-228.5 525,-247.5 614,-247.5 614,-228.5 525,-228.5"/>
<text text-anchor="middle" x="569.5" y="-235.5" font-family="Helvetica,sans-Serif" font-size="10.00">unary_decoder</text>
</a>
</g>
</g>
<!-- Node14&#45;&gt;Node16 -->
<g id="edge29" class="edge">
<title>Node14&#45;&gt;Node16</title>
<path fill="none" stroke="midnightblue" d="M297.05,-188.91C339.74,-196.58 406.31,-208.56 464,-219 480.53,-221.99 498.53,-225.26 514.85,-228.23"/>
<polygon fill="midnightblue" stroke="midnightblue" points="514.31,-231.69 524.78,-230.03 515.57,-224.8 514.31,-231.69"/>
</g>
<!-- Node18 -->
<g id="node18" class="node">
<title>Node18</title>
<g id="a_node18"><a xlink:href="cmp__support_8c_a7831f21f8303058bcac76d42a4aa1c06.html#a7831f21f8303058bcac76d42a4aa1c06" target="_top" xlink:title="determining if an integer is a power of 2">
<polygon fill="white" stroke="black" points="371,-114.5 371,-133.5 459,-133.5 459,-114.5 371,-114.5"/>
<text text-anchor="middle" x="415" y="-121.5" font-family="Helvetica,sans-Serif" font-size="10.00">is_a_pow_of_2</text>
</a>
</g>
</g>
<!-- Node14&#45;&gt;Node18 -->
<g id="edge25" class="edge">
<title>Node14&#45;&gt;Node18</title>
<path fill="none" stroke="midnightblue" d="M279.95,-171.46C306.65,-162.01 347.74,-147.46 377.39,-136.96"/>
<polygon fill="midnightblue" stroke="midnightblue" points="378.71,-140.21 386.96,-133.57 376.37,-133.61 378.71,-140.21"/>
</g>
<!-- Node19 -->
<g id="node19" class="node">
<title>Node19</title>
<g id="a_node19"><a xlink:href="decmp_8c_a31e9c3bcbe70648b659fe3c8f4383045.html#a31e9c3bcbe70648b659fe3c8f4383045" target="_top" xlink:title="decode the next Rice code word in the bitstream">
<polygon fill="white" stroke="black" points="375.5,-228.5 375.5,-247.5 454.5,-247.5 454.5,-228.5 375.5,-228.5"/>
<text text-anchor="middle" x="415" y="-235.5" font-family="Helvetica,sans-Serif" font-size="10.00">rice_decoder</text>
</a>
</g>
</g>
<!-- Node14&#45;&gt;Node19 -->
<g id="edge26" class="edge">
<title>Node14&#45;&gt;Node19</title>
<path fill="none" stroke="midnightblue" d="M279.95,-190.54C306.65,-199.99 347.74,-214.54 377.39,-225.04"/>
<polygon fill="midnightblue" stroke="midnightblue" points="376.37,-228.39 386.96,-228.43 378.71,-221.79 376.37,-228.39"/>
</g>
<!-- Node15&#45;&gt;Node5 -->
<g id="edge19" class="edge">
<title>Node15&#45;&gt;Node5</title>
<path fill="none" stroke="midnightblue" d="M452.2,-171.56C466.95,-175.21 484.21,-179.17 500,-182 633.53,-205.97 679.27,-163.35 803,-219 832.52,-232.27 859.2,-259.3 874.76,-277.28"/>
<polygon fill="midnightblue" stroke="midnightblue" points="872.36,-279.87 881.47,-285.28 877.73,-275.37 872.36,-279.87"/>
</g>
<!-- Node15&#45;&gt;Node6 -->
<g id="edge20" class="edge">
<title>Node15&#45;&gt;Node6</title>
<path fill="none" stroke="midnightblue" d="M464.1,-163.45C537.41,-166 681.41,-172.37 803,-186 814.63,-187.3 827.08,-189.1 838.79,-190.97"/>
<polygon fill="midnightblue" stroke="midnightblue" points="838.43,-194.45 848.86,-192.62 839.56,-187.55 838.43,-194.45"/>
</g>
<!-- Node15&#45;&gt;Node12 -->
<g id="edge21" class="edge">
<title>Node15&#45;&gt;Node12</title>
<path fill="none" stroke="midnightblue" d="M441.53,-152.46C467.77,-142.65 508.68,-127.36 536.94,-116.8"/>
<polygon fill="midnightblue" stroke="midnightblue" points="538.22,-120.05 546.36,-113.27 535.77,-113.5 538.22,-120.05"/>
</g>
<!-- Node15&#45;&gt;Node16 -->
<g id="edge22" class="edge">
<title>Node15&#45;&gt;Node16</title>
<path fill="none" stroke="midnightblue" d="M437.52,-171.64C445.98,-175.71 455.64,-180.73 464,-186 481.15,-196.81 482.2,-204.3 500,-214 507.8,-218.25 516.49,-221.98 525,-225.15"/>
<polygon fill="midnightblue" stroke="midnightblue" points="523.88,-228.47 534.47,-228.5 526.21,-221.87 523.88,-228.47"/>
</g>
<!-- Node16&#45;&gt;Node5 -->
<g id="edge23" class="edge">
<title>Node16&#45;&gt;Node5</title>
<path fill="none" stroke="midnightblue" d="M614.35,-246.35C622.88,-249.01 631.49,-252.48 639,-257 658.94,-268.99 653.63,-285.81 675,-295 726.45,-317.13 791.52,-313.2 836.32,-306.22"/>
<polygon fill="midnightblue" stroke="midnightblue" points="837.12,-309.64 846.41,-304.55 835.97,-302.73 837.12,-309.64"/>
</g>
<!-- Node17 -->
<g id="node17" class="node">
<title>Node17</title>
<g id="a_node17"><a xlink:href="read__bitstream_8h_a08b1899a09b0b72856f441efae758d76.html#a08b1899a09b0b72856f441efae758d76" target="_top" xlink:title="count the leading ones in the local register; local register is not modified">
<polygon fill="white" stroke="black" points="675,-228.5 675,-247.5 803,-247.5 803,-228.5 675,-228.5"/>
<text text-anchor="middle" x="739" y="-235.5" font-family="Helvetica,sans-Serif" font-size="10.00">bit_peek_leading_ones</text>
</a>
</g>
</g>
<!-- Node16&#45;&gt;Node17 -->
<g id="edge24" class="edge">
<title>Node16&#45;&gt;Node17</title>
<path fill="none" stroke="midnightblue" d="M614.07,-238C629.55,-238 647.42,-238 664.7,-238"/>
<polygon fill="midnightblue" stroke="midnightblue" points="664.78,-241.5 674.78,-238 664.78,-234.5 664.78,-241.5"/>
</g>
<!-- Node19&#45;&gt;Node3 -->
<g id="edge27" class="edge">
<title>Node19&#45;&gt;Node3</title>
<path fill="none" stroke="midnightblue" d="M454.48,-247.59C474.52,-252.58 499.2,-258.73 520.48,-264.03"/>
<polygon fill="midnightblue" stroke="midnightblue" points="519.74,-267.46 530.29,-266.48 521.44,-260.67 519.74,-267.46"/>
</g>
<!-- Node19&#45;&gt;Node16 -->
<g id="edge28" class="edge">
<title>Node19&#45;&gt;Node16</title>
<path fill="none" stroke="midnightblue" d="M454.88,-238C473.06,-238 495.02,-238 514.76,-238"/>
<polygon fill="midnightblue" stroke="midnightblue" points="514.85,-241.5 524.85,-238 514.85,-234.5 514.85,-241.5"/>
</g>
</g>
</svg>
