<?xml version="1.0" encoding="UTF-8" standalone="no"?>
<!DOCTYPE svg PUBLIC "-//W3C//DTD SVG 1.1//EN"
 "http://www.w3.org/Graphics/SVG/1.1/DTD/svg11.dtd">
<!-- Generated by graphviz version 2.43.0 (0)
 -->
<!-- Title: cmp_ent_read_header Pages: 1 -->
<!--zoomable 208 -->
<svg id="main" version="1.1" xmlns="http://www.w3.org/2000/svg" xmlns:xlink="http://www.w3.org/1999/xlink" xml:space="preserve" onload="init(evt)">
<style type="text/css"><![CDATA[
.edge:hover path { stroke: red; }
.edge:hover polygon { stroke: red; fill: red; }
]]></style>
<script type="text/javascript"><![CDATA[
var edges = document.getElementsByTagName('g');
if (edges && edges.length) {
  for (var i=0;i<edges.length;i++) {
    if (edges[i].id.substr(0,4)=='edge') {
      edges[i].setAttribute('class','edge');
    }
  }
}
]]></script>
        <defs>
                <circle id="rim" cx="0" cy="0" r="7"/>
                <circle id="rim2" cx="0" cy="0" r="3.5"/>
                <g id="zoomPlus">
                        <use xlink:href="#rim" fill="#404040">
                                <set attributeName="fill" to="#808080" begin="zoomplus.mouseover" end="zoomplus.mouseout"/>
                        </use>
                        <path d="M-4,0h8M0,-4v8" fill="none" stroke="white" stroke-width="1.5" pointer-events="none"/>
                </g>
                <g id="zoomMin">
                        <use xlink:href="#rim" fill="#404040">
                                <set attributeName="fill" to="#808080" begin="zoomminus.mouseover" end="zoomminus.mouseout"/>
                        </use>
                        <path d="M-4,0h8" fill="none" stroke="white" stroke-width="1.5" pointer-events="none"/>
                </g>
                <g id="dirArrow">
                        <path fill="none" stroke="white" stroke-width="1.5" d="M0,-3.0v7 M-2.5,-0.5L0,-3.0L2.5,-0.5"/>
                </g>
               <g id="resetDef">
                       <use xlink:href="#rim2" fill="#404040">
                               <set attributeName="fill" to="#808080" begin="reset.mouseover" end="reset.mouseout"/>
                       </use>
               </g>
        </defs>

<script type="text/javascript">
var viewWidth = 720;
var viewHeight = 208;
var sectionId = 'dynsection-1';
</script>
<script xlink:href="svgpan.js"/>
<svg id="graph" class="graph">
<g id="viewport">
<title>cmp_ent_read_header</title>
<polygon fill="white" stroke="transparent" points="-4,4 -4,-204 716,-204 716,4 -4,4"/>
<!-- Node1 -->
<g id="node1" class="node">
<title>Node1</title>
<g id="a_node1"><a xlink:title="read in an imagette compression entity header to a compression configuration">
<polygon fill="#bfbfbf" stroke="black" points="587,-55 587,-74 712,-74 712,-55 587,-55"/>
<text text-anchor="middle" x="649.5" y="-62" font-family="Helvetica,sans-Serif" font-size="10.00">cmp_ent_read_header</text>
</a>
</g>
</g>
<!-- Node2 -->
<g id="node2" class="node">
<title>Node2</title>
<g id="a_node2"><a xlink:href="decmp_8h_aefe0fa39fdc295432f5e2e0f91f0b87f.html#aefe0fa39fdc295432f5e2e0f91f0b87f" target="_top" xlink:title="decompress a compression entity">
<polygon fill="white" stroke="black" points="410.5,-99 410.5,-118 542.5,-118 542.5,-99 410.5,-99"/>
<text text-anchor="middle" x="476.5" y="-106" font-family="Helvetica,sans-Serif" font-size="10.00">decompress_cmp_entiy</text>
</a>
</g>
</g>
<!-- Node1&#45;&gt;Node2 -->
<g id="edge1" class="edge">
<title>Node1&#45;&gt;Node2</title>
<path fill="none" stroke="midnightblue" d="M601.62,-76.56C574.2,-83.62 540.06,-92.4 514.53,-98.97"/>
<polygon fill="midnightblue" stroke="midnightblue" points="602.58,-79.93 611.4,-74.05 600.84,-73.15 602.58,-79.93"/>
</g>
<!-- Node9 -->
<g id="node9" class="node">
<title>Node9</title>
<g id="a_node9"><a xlink:href="test__decmp_8c_a83b6283115165bfb92bf9008dcbdc41d.html#a83b6283115165bfb92bf9008dcbdc41d" target="_top" xlink:title=" ">
<polygon fill="white" stroke="black" points="402,-49.5 402,-79.5 551,-79.5 551,-49.5 402,-49.5"/>
<text text-anchor="start" x="410" y="-67.5" font-family="Helvetica,sans-Serif" font-size="10.00">test_cmp_ent_read_header</text>
<text text-anchor="middle" x="476.5" y="-56.5" font-family="Helvetica,sans-Serif" font-size="10.00">_error_cases</text>
</a>
</g>
</g>
<!-- Node1&#45;&gt;Node9 -->
<g id="edge8" class="edge">
<title>Node1&#45;&gt;Node9</title>
<path fill="none" stroke="midnightblue" d="M576.59,-64.5C568.16,-64.5 559.54,-64.5 551.09,-64.5"/>
<polygon fill="midnightblue" stroke="midnightblue" points="576.77,-68 586.77,-64.5 576.77,-61 576.77,-68"/>
</g>
<!-- Node10 -->
<g id="node10" class="node">
<title>Node10</title>
<g id="a_node10"><a xlink:href="test__decmp_8c_a27e5a2b67e3e81da1be024826485b2e3.html#a27e5a2b67e3e81da1be024826485b2e3" target="_top" xlink:title=" ">
<polygon fill="white" stroke="black" points="420,-0.5 420,-30.5 533,-30.5 533,-0.5 420,-0.5"/>
<text text-anchor="start" x="428" y="-18.5" font-family="Helvetica,sans-Serif" font-size="10.00">test_cmp_ent_write</text>
<text text-anchor="middle" x="476.5" y="-7.5" font-family="Helvetica,sans-Serif" font-size="10.00">_cmp_pars</text>
</a>
</g>
</g>
<!-- Node1&#45;&gt;Node10 -->
<g id="edge9" class="edge">
<title>Node1&#45;&gt;Node10</title>
<path fill="none" stroke="midnightblue" d="M605.35,-52.13C582.45,-45.57 554.13,-37.46 529.98,-30.54"/>
<polygon fill="midnightblue" stroke="midnightblue" points="604.55,-55.55 615.12,-54.94 606.47,-48.82 604.55,-55.55"/>
</g>
<!-- Node3 -->
<g id="node3" class="node">
<title>Node3</title>
<g id="a_node3"><a xlink:href="test__cmp__decmp_8c_a50ba26014079160ca77b7d7fa76ce0f4.html#a50ba26014079160ca77b7d7fa76ce0f4" target="_top" xlink:title="compress the given configuration and decompress it afterwards; finally compare the results">
<polygon fill="white" stroke="black" points="195,-175 195,-194 353,-194 353,-175 195,-175"/>
<text text-anchor="middle" x="274" y="-182" font-family="Helvetica,sans-Serif" font-size="10.00">compression_decompression</text>
</a>
</g>
</g>
<!-- Node2&#45;&gt;Node3 -->
<g id="edge2" class="edge">
<title>Node2&#45;&gt;Node3</title>
<path fill="none" stroke="midnightblue" d="M451.72,-123.32C430.1,-136.19 396.94,-154.45 366,-165.5 355.51,-169.24 344.07,-172.35 332.94,-174.89"/>
<polygon fill="midnightblue" stroke="midnightblue" points="453.77,-126.17 460.51,-118 450.14,-120.18 453.77,-126.17"/>
</g>
<!-- Node5 -->
<g id="node5" class="node">
<title>Node5</title>
<g id="a_node5"><a xlink:href="test__decmp_8c_a6e7a5e150e2c829836db3c42cdec2eec.html#a6e7a5e150e2c829836db3c42cdec2eec" target="_top" xlink:title=" ">
<polygon fill="white" stroke="black" points="182,-137 182,-156 366,-156 366,-137 182,-137"/>
<text text-anchor="middle" x="274" y="-144" font-family="Helvetica,sans-Serif" font-size="10.00">test_cmp_decmp_n_imagette_raw</text>
</a>
</g>
</g>
<!-- Node2&#45;&gt;Node5 -->
<g id="edge4" class="edge">
<title>Node2&#45;&gt;Node5</title>
<path fill="none" stroke="midnightblue" d="M415.25,-119.92C386.57,-125.36 352.65,-131.78 325.36,-136.96"/>
<polygon fill="midnightblue" stroke="midnightblue" points="415.99,-123.34 425.16,-118.04 414.69,-116.46 415.99,-123.34"/>
</g>
<!-- Node6 -->
<g id="node6" class="node">
<title>Node6</title>
<g id="a_node6"><a xlink:href="test__decmp_8c_a1a33e2fcbf484c79dfe661b280386f6b.html#a1a33e2fcbf484c79dfe661b280386f6b" target="_top" xlink:title=" ">
<polygon fill="white" stroke="black" points="201,-99 201,-118 347,-118 347,-99 201,-99"/>
<text text-anchor="middle" x="274" y="-106" font-family="Helvetica,sans-Serif" font-size="10.00">test_cmp_decmp_s_fx_diff</text>
</a>
</g>
</g>
<!-- Node2&#45;&gt;Node6 -->
<g id="edge5" class="edge">
<title>Node2&#45;&gt;Node6</title>
<path fill="none" stroke="midnightblue" d="M400.28,-108.5C382.85,-108.5 364.34,-108.5 347.05,-108.5"/>
<polygon fill="midnightblue" stroke="midnightblue" points="400.4,-112 410.4,-108.5 400.4,-105 400.4,-112"/>
</g>
<!-- Node7 -->
<g id="node7" class="node">
<title>Node7</title>
<g id="a_node7"><a xlink:href="test__decmp_8c_acfebf2fa7515f5449e0cfa594457b66b.html#acfebf2fa7515f5449e0cfa594457b66b" target="_top" xlink:title=" ">
<polygon fill="white" stroke="black" points="233,-61 233,-80 315,-80 315,-61 233,-61"/>
<text text-anchor="middle" x="274" y="-68" font-family="Helvetica,sans-Serif" font-size="10.00">test_s_fx_diff</text>
</a>
</g>
</g>
<!-- Node2&#45;&gt;Node7 -->
<g id="edge6" class="edge">
<title>Node2&#45;&gt;Node7</title>
<path fill="none" stroke="midnightblue" d="M414.93,-97.02C382.65,-90.9 343.82,-83.54 315.26,-78.13"/>
<polygon fill="midnightblue" stroke="midnightblue" points="414.69,-100.54 425.16,-98.96 415.99,-93.66 414.69,-100.54"/>
</g>
<!-- Node8 -->
<g id="node8" class="node">
<title>Node8</title>
<g id="a_node8"><a xlink:href="test__decmp_8c_a953eeaad914985c0816dde26d47ffef0.html#a953eeaad914985c0816dde26d47ffef0" target="_top" xlink:title=" ">
<polygon fill="white" stroke="black" points="225.5,-23 225.5,-42 322.5,-42 322.5,-23 225.5,-23"/>
<text text-anchor="middle" x="274" y="-30" font-family="Helvetica,sans-Serif" font-size="10.00">test_s_fx_model</text>
</a>
</g>
</g>
<!-- Node2&#45;&gt;Node8 -->
<g id="edge7" class="edge">
<title>Node2&#45;&gt;Node8</title>
<path fill="none" stroke="midnightblue" d="M413.74,-95.33C409.66,-93.62 405.7,-91.68 402,-89.5 381.96,-77.69 386.31,-62.84 366,-51.5 352.89,-44.18 337.3,-39.68 322.76,-36.9"/>
<polygon fill="midnightblue" stroke="midnightblue" points="412.83,-98.73 423.43,-98.95 415.28,-92.18 412.83,-98.73"/>
</g>
<!-- Node4 -->
<g id="node4" class="node">
<title>Node4</title>
<g id="a_node4"><a xlink:href="test__cmp__decmp_8c_af3c162694b40683e0aa25c61a49cdafc.html#af3c162694b40683e0aa25c61a49cdafc" target="_top" xlink:title="random compression decompression test">
<polygon fill="white" stroke="black" points="0,-169.5 0,-199.5 146,-199.5 146,-169.5 0,-169.5"/>
<text text-anchor="start" x="8" y="-187.5" font-family="Helvetica,sans-Serif" font-size="10.00">test_random_compression</text>
<text text-anchor="middle" x="73" y="-176.5" font-family="Helvetica,sans-Serif" font-size="10.00">_decompression</text>
</a>
</g>
</g>
<!-- Node3&#45;&gt;Node4 -->
<g id="edge3" class="edge">
<title>Node3&#45;&gt;Node4</title>
<path fill="none" stroke="midnightblue" d="M184.63,-184.5C171.72,-184.5 158.55,-184.5 146.01,-184.5"/>
<polygon fill="midnightblue" stroke="midnightblue" points="184.92,-188 194.92,-184.5 184.92,-181 184.92,-188"/>
</g>
</g>
</svg>
        <g id="navigator" transform="translate(0 0)" fill="#404254">
                <rect fill="#f2f5e9" fill-opacity="0.5" stroke="#606060" stroke-width=".5" x="0" y="0" width="60" height="60"/>
                <use id="zoomplus" xlink:href="#zoomPlus" x="17" y="9" onmousedown="handleZoom(evt,'in')"/>
                <use id="zoomminus" xlink:href="#zoomMin" x="42" y="9" onmousedown="handleZoom(evt,'out')"/>
                <use id="reset" xlink:href="#resetDef" x="30" y="36" onmousedown="handleReset()"/>
                <g id="arrowUp" xlink:href="#dirArrow" transform="translate(30 24)" onmousedown="handlePan(0,-1)">
                  <use xlink:href="#rim" fill="#404040">
                        <set attributeName="fill" to="#808080" begin="arrowUp.mouseover" end="arrowUp.mouseout"/>
                  </use>
                  <path fill="none" stroke="white" stroke-width="1.5" d="M0,-3.0v7 M-2.5,-0.5L0,-3.0L2.5,-0.5"/>
                </g>
                <g id="arrowRight" xlink:href="#dirArrow" transform="rotate(90) translate(36 -43)" onmousedown="handlePan(1,0)">
                  <use xlink:href="#rim" fill="#404040">
                        <set attributeName="fill" to="#808080" begin="arrowRight.mouseover" end="arrowRight.mouseout"/>
                  </use>
                  <path fill="none" stroke="white" stroke-width="1.5" d="M0,-3.0v7 M-2.5,-0.5L0,-3.0L2.5,-0.5"/>
                </g>
                <g id="arrowDown" xlink:href="#dirArrow" transform="rotate(180) translate(-30 -48)" onmousedown="handlePan(0,1)">
                  <use xlink:href="#rim" fill="#404040">
                        <set attributeName="fill" to="#808080" begin="arrowDown.mouseover" end="arrowDown.mouseout"/>
                  </use>
                  <path fill="none" stroke="white" stroke-width="1.5" d="M0,-3.0v7 M-2.5,-0.5L0,-3.0L2.5,-0.5"/>
                </g>
                <g id="arrowLeft" xlink:href="#dirArrow" transform="rotate(270) translate(-36 17)" onmousedown="handlePan(-1,0)">
                  <use xlink:href="#rim" fill="#404040">
                        <set attributeName="fill" to="#808080" begin="arrowLeft.mouseover" end="arrowLeft.mouseout"/>
                  </use>
                  <path fill="none" stroke="white" stroke-width="1.5" d="M0,-3.0v7 M-2.5,-0.5L0,-3.0L2.5,-0.5"/>
                </g>
        </g>
        <svg viewBox="0 0 15 15" width="100%" height="30px" preserveAspectRatio="xMaxYMin meet">
         <g id="arrow_out" transform="scale(0.3 0.3)">
          <a xlink:href="decmp_8c_a74bca2e933b64c4e4738700db181be76_a74bca2e933b64c4e4738700db181be76_icgraph_org.svg" target="_base">
           <rect id="button" ry="5" rx="5" y="6" x="6" height="38" width="38"
                fill="#f2f5e9" fill-opacity="0.5" stroke="#606060" stroke-width="1.0"/>
           <path id="arrow"
             d="M 11.500037,31.436501 C 11.940474,20.09759 22.043105,11.32322 32.158766,21.979434 L 37.068811,17.246167 C 37.068811,17.246167 37.088388,32 37.088388,32 L 22.160133,31.978069 C 22.160133,31.978069 26.997745,27.140456 26.997745,27.140456 C 18.528582,18.264221 13.291696,25.230495 11.500037,31.436501 z"
             style="fill:#404040;"/>
          </a>
         </g>
        </svg>
</svg>
