<?xml version="1.0" encoding="UTF-8" standalone="no"?>
<!DOCTYPE svg PUBLIC "-//W3C//DTD SVG 1.1//EN"
 "http://www.w3.org/Graphics/SVG/1.1/DTD/svg11.dtd">
<!-- Generated by graphviz version 2.43.0 (0)
 -->
<!-- Title: cmp_icu Pages: 1 -->
<svg width="180pt" height="167pt"
 viewBox="0.00 0.00 180.00 167.00" xmlns="http://www.w3.org/2000/svg" xmlns:xlink="http://www.w3.org/1999/xlink">
<g id="graph0" class="graph" transform="scale(1 1) rotate(0) translate(4 163)">
<title>cmp_icu</title>
<polygon fill="white" stroke="transparent" points="-4,4 -4,-163 176,-163 176,4 -4,4"/>
<g id="clust1" class="cluster">
<title>clusterdir_13e138d54eb8818da29c3992edef070a</title>
<g id="a_clust1"><a xlink:href="dir_13e138d54eb8818da29c3992edef070a.html" target="_top" xlink:title="test">
<polygon fill="#ddddee" stroke="black" points="8,-8 8,-151 108,-151 108,-8 8,-8"/>
<text text-anchor="middle" x="58" y="-139" font-family="Helvetica,sans-Serif" font-size="10.00">test</text>
</a>
</g>
</g>
<!-- dir_6c0c88587a4f4c16f8b64620f10752cf -->
<g id="node1" class="node">
<title>dir_6c0c88587a4f4c16f8b64620f10752cf</title>
<g id="a_node1"><a xlink:href="dir_6c0c88587a4f4c16f8b64620f10752cf.html" target="_top" xlink:title="test_common">
<polygon fill="none" stroke="black" points="99.5,-52 16.5,-52 16.5,-16 99.5,-16 99.5,-52"/>
<text text-anchor="middle" x="58" y="-31.5" font-family="Helvetica,sans-Serif" font-size="10.00">test_common</text>
</a>
</g>
</g>
<!-- dir_7ffe0f34147b282515e00877e4f78276 -->
<g id="node2" class="node">
<title>dir_7ffe0f34147b282515e00877e4f78276</title>
<g id="a_node2"><a xlink:href="dir_7ffe0f34147b282515e00877e4f78276.html" target="_top" xlink:title="cmp_icu">
<polygon fill="#eeeeff" stroke="black" points="92.5,-124 35.5,-124 35.5,-88 92.5,-88 92.5,-124"/>
<text text-anchor="middle" x="64" y="-103.5" font-family="Helvetica,sans-Serif" font-size="10.00">cmp_icu</text>
</a>
</g>
</g>
<!-- dir_7ffe0f34147b282515e00877e4f78276&#45;&gt;dir_6c0c88587a4f4c16f8b64620f10752cf -->
<g id="edge1" class="edge">
<title>dir_7ffe0f34147b282515e00877e4f78276&#45;&gt;dir_6c0c88587a4f4c16f8b64620f10752cf</title>
<path fill="none" stroke="black" d="M62.52,-87.7C61.86,-79.98 61.06,-70.71 60.32,-62.11"/>
<polygon fill="black" stroke="black" points="63.81,-61.77 59.47,-52.1 56.83,-62.37 63.81,-61.77"/>
<g id="a_edge1&#45;headlabel"><a xlink:href="dir_000009_000012.html" target="_top" xlink:title="1">
<text text-anchor="middle" x="66.94" y="-62.61" font-family="Helvetica,sans-Serif" font-size="10.00">1</text>
</a>
</g>
</g>
<!-- dir_97aefd0d527b934f1d99a682da8fe6a9 -->
<g id="node3" class="node">
<title>dir_97aefd0d527b934f1d99a682da8fe6a9</title>
<g id="a_node3"><a xlink:href="dir_97aefd0d527b934f1d99a682da8fe6a9.html" target="_top" xlink:title="lib">
<polygon fill="white" stroke="red" points="172,-52 118,-52 118,-16 172,-16 172,-52"/>
<text text-anchor="middle" x="145" y="-31.5" font-family="Helvetica,sans-Serif" font-size="10.00">lib</text>
</a>
</g>
</g>
<!-- dir_7ffe0f34147b282515e00877e4f78276&#45;&gt;dir_97aefd0d527b934f1d99a682da8fe6a9 -->
<g id="edge2" class="edge">
<title>dir_7ffe0f34147b282515e00877e4f78276&#45;&gt;dir_97aefd0d527b934f1d99a682da8fe6a9</title>
<path fill="none" stroke="black" d="M84.02,-87.7C94.13,-78.97 106.54,-68.24 117.52,-58.75"/>
<polygon fill="black" stroke="black" points="119.93,-61.29 125.21,-52.1 115.35,-55.99 119.93,-61.29"/>
<g id="a_edge2&#45;headlabel"><a xlink:href="dir_000009_000000.html" target="_top" xlink:title="3">
<text text-anchor="middle" x="119.07" y="-63.29" font-family="Helvetica,sans-Serif" font-size="10.00">3</text>
</a>
</g>
</g>
</g>
</svg>
