<?xml version="1.0" encoding="UTF-8" standalone="no"?>
<!DOCTYPE svg PUBLIC "-//W3C//DTD SVG 1.1//EN"
 "http://www.w3.org/Graphics/SVG/1.1/DTD/svg11.dtd">
<!-- Generated by graphviz version 2.43.0 (0)
 -->
<!-- Title: cmp_entity Pages: 1 -->
<svg width="112pt" height="151pt"
 viewBox="0.00 0.00 112.00 151.00" xmlns="http://www.w3.org/2000/svg" xmlns:xlink="http://www.w3.org/1999/xlink">
<g id="graph0" class="graph" transform="scale(1 1) rotate(0) translate(4 147)">
<title>cmp_entity</title>
<polygon fill="white" stroke="transparent" points="-4,4 -4,-147 108,-147 108,4 -4,4"/>
<g id="clust1" class="cluster">
<title>clusterdir_13e138d54eb8818da29c3992edef070a</title>
<g id="a_clust1"><a xlink:href="dir_13e138d54eb8818da29c3992edef070a.html" target="_top" xlink:title="test">
<polygon fill="#ddddee" stroke="black" points="8,-64 8,-135 96,-135 96,-64 8,-64"/>
<text text-anchor="middle" x="52" y="-123" font-family="Helvetica,sans-Serif" font-size="10.00">test</text>
</a>
</g>
</g>
<!-- dir_e6d2b02bd69fc90d54e43c0c3b371375 -->
<g id="node1" class="node">
<title>dir_e6d2b02bd69fc90d54e43c0c3b371375</title>
<g id="a_node1"><a xlink:href="dir_e6d2b02bd69fc90d54e43c0c3b371375.html" target="_top" xlink:title="cmp_entity">
<polygon fill="#eeeeff" stroke="black" points="87.5,-108 16.5,-108 16.5,-72 87.5,-72 87.5,-108"/>
<text text-anchor="middle" x="52" y="-87.5" font-family="Helvetica,sans-Serif" font-size="10.00">cmp_entity</text>
</a>
</g>
</g>
<!-- dir_97aefd0d527b934f1d99a682da8fe6a9 -->
<g id="node2" class="node">
<title>dir_97aefd0d527b934f1d99a682da8fe6a9</title>
<g id="a_node2"><a xlink:href="dir_97aefd0d527b934f1d99a682da8fe6a9.html" target="_top" xlink:title="lib">
<polygon fill="white" stroke="red" points="79,-36 25,-36 25,0 79,0 79,-36"/>
<text text-anchor="middle" x="52" y="-15.5" font-family="Helvetica,sans-Serif" font-size="10.00">lib</text>
</a>
</g>
</g>
<!-- dir_e6d2b02bd69fc90d54e43c0c3b371375&#45;&gt;dir_97aefd0d527b934f1d99a682da8fe6a9 -->
<g id="edge1" class="edge">
<title>dir_e6d2b02bd69fc90d54e43c0c3b371375&#45;&gt;dir_97aefd0d527b934f1d99a682da8fe6a9</title>
<path fill="none" stroke="black" d="M52,-71.7C52,-63.98 52,-54.71 52,-46.11"/>
<polygon fill="black" stroke="black" points="55.5,-46.1 52,-36.1 48.5,-46.1 55.5,-46.1"/>
<g id="a_edge1&#45;headlabel"><a xlink:href="dir_000008_000000.html" target="_top" xlink:title="3">
<text text-anchor="middle" x="58.34" y="-47.2" font-family="Helvetica,sans-Serif" font-size="10.00">3</text>
</a>
</g>
</g>
</g>
</svg>
