<?xml version="1.0" encoding="UTF-8" standalone="no"?>
<!DOCTYPE svg PUBLIC "-//W3C//DTD SVG 1.1//EN"
 "http://www.w3.org/Graphics/SVG/1.1/DTD/svg11.dtd">
<!-- Generated by graphviz version 2.43.0 (0)
 -->
<!-- Title: lib Pages: 1 -->
<svg width="326pt" height="220pt"
 viewBox="0.00 0.00 326.00 220.00" xmlns="http://www.w3.org/2000/svg" xmlns:xlink="http://www.w3.org/1999/xlink">
<g id="graph0" class="graph" transform="scale(1 1) rotate(0) translate(4 216)">
<title>lib</title>
<polygon fill="white" stroke="transparent" points="-4,4 -4,-216 322,-216 322,4 -4,4"/>
<g id="clust1" class="cluster">
<title>clusterdir_97aefd0d527b934f1d99a682da8fe6a9</title>
<g id="a_clust1"><a xlink:href="dir_97aefd0d527b934f1d99a682da8fe6a9.html" target="_top">
<polygon fill="#eeeeff" stroke="black" points="8,-8 8,-204 310,-204 310,-8 8,-8"/>
</a>
</g>
</g>
<!-- dir_97aefd0d527b934f1d99a682da8fe6a9 -->
<g id="node1" class="node">
<title>dir_97aefd0d527b934f1d99a682da8fe6a9</title>
<text text-anchor="middle" x="257" y="-175.5" font-family="Helvetica,sans-Serif" font-size="10.00">lib</text>
</g>
<!-- dir_9eb27f139a98be9b6b7a3636179e34f7 -->
<g id="node5" class="node">
<title>dir_9eb27f139a98be9b6b7a3636179e34f7</title>
<g id="a_node5"><a xlink:href="dir_9eb27f139a98be9b6b7a3636179e34f7.html" target="_top" xlink:title="rdcu_compress">
<polygon fill="white" stroke="black" points="302,-124 212,-124 212,-88 302,-88 302,-124"/>
<text text-anchor="middle" x="257" y="-103.5" font-family="Helvetica,sans-Serif" font-size="10.00">rdcu_compress</text>
</a>
</g>
</g>
<!-- dir_97aefd0d527b934f1d99a682da8fe6a9&#45;&gt;dir_9eb27f139a98be9b6b7a3636179e34f7 -->
<g id="edge4" class="edge">
<title>dir_97aefd0d527b934f1d99a682da8fe6a9&#45;&gt;dir_9eb27f139a98be9b6b7a3636179e34f7</title>
<path fill="none" stroke="black" d="M257,-159.7C257,-151.98 257,-142.71 257,-134.11"/>
<polygon fill="black" stroke="black" points="260.5,-134.1 257,-124.1 253.5,-134.1 260.5,-134.1"/>
<g id="a_edge4&#45;headlabel"><a xlink:href="dir_000000_000004.html" target="_top" xlink:title="3">
<text text-anchor="middle" x="263.34" y="-135.2" font-family="Helvetica,sans-Serif" font-size="10.00">3</text>
</a>
</g>
</g>
<!-- dir_1ea122f7b94457c2332c194612c8b8fe -->
<g id="node2" class="node">
<title>dir_1ea122f7b94457c2332c194612c8b8fe</title>
<g id="a_node2"><a xlink:href="dir_1ea122f7b94457c2332c194612c8b8fe.html" target="_top" xlink:title="common">
<polygon fill="white" stroke="black" points="185.5,-52 126.5,-52 126.5,-16 185.5,-16 185.5,-52"/>
<text text-anchor="middle" x="156" y="-31.5" font-family="Helvetica,sans-Serif" font-size="10.00">common</text>
</a>
</g>
</g>
<!-- dir_f8f2b0d8efe27ee69b04ff57a70829bc -->
<g id="node3" class="node">
<title>dir_f8f2b0d8efe27ee69b04ff57a70829bc</title>
<g id="a_node3"><a xlink:href="dir_f8f2b0d8efe27ee69b04ff57a70829bc.html" target="_top" xlink:title="decompress">
<polygon fill="white" stroke="black" points="194,-124 118,-124 118,-88 194,-88 194,-124"/>
<text text-anchor="middle" x="156" y="-103.5" font-family="Helvetica,sans-Serif" font-size="10.00">decompress</text>
</a>
</g>
</g>
<!-- dir_f8f2b0d8efe27ee69b04ff57a70829bc&#45;&gt;dir_1ea122f7b94457c2332c194612c8b8fe -->
<g id="edge1" class="edge">
<title>dir_f8f2b0d8efe27ee69b04ff57a70829bc&#45;&gt;dir_1ea122f7b94457c2332c194612c8b8fe</title>
<path fill="none" stroke="black" d="M156,-87.7C156,-79.98 156,-70.71 156,-62.11"/>
<polygon fill="black" stroke="black" points="159.5,-62.1 156,-52.1 152.5,-62.1 159.5,-62.1"/>
<g id="a_edge1&#45;headlabel"><a xlink:href="dir_000003_000001.html" target="_top" xlink:title="10">
<text text-anchor="middle" x="162.34" y="-63.2" font-family="Helvetica,sans-Serif" font-size="10.00">10</text>
</a>
</g>
</g>
<!-- dir_5b079b6750011041f173bc24d0da5b6b -->
<g id="node4" class="node">
<title>dir_5b079b6750011041f173bc24d0da5b6b</title>
<g id="a_node4"><a xlink:href="dir_5b079b6750011041f173bc24d0da5b6b.html" target="_top" xlink:title="icu_compress">
<polygon fill="white" stroke="black" points="99.5,-124 16.5,-124 16.5,-88 99.5,-88 99.5,-124"/>
<text text-anchor="middle" x="58" y="-103.5" font-family="Helvetica,sans-Serif" font-size="10.00">icu_compress</text>
</a>
</g>
</g>
<!-- dir_5b079b6750011041f173bc24d0da5b6b&#45;&gt;dir_1ea122f7b94457c2332c194612c8b8fe -->
<g id="edge3" class="edge">
<title>dir_5b079b6750011041f173bc24d0da5b6b&#45;&gt;dir_1ea122f7b94457c2332c194612c8b8fe</title>
<path fill="none" stroke="black" d="M81.97,-87.88C94.55,-78.89 110.13,-67.76 123.75,-58.03"/>
<polygon fill="black" stroke="black" points="125.83,-60.85 131.93,-52.19 121.76,-55.15 125.83,-60.85"/>
<g id="a_edge3&#45;headlabel"><a xlink:href="dir_000002_000001.html" target="_top" xlink:title="5">
<text text-anchor="middle" x="124.56" y="-62.75" font-family="Helvetica,sans-Serif" font-size="10.00">5</text>
</a>
</g>
</g>
<!-- dir_9eb27f139a98be9b6b7a3636179e34f7&#45;&gt;dir_1ea122f7b94457c2332c194612c8b8fe -->
<g id="edge2" class="edge">
<title>dir_9eb27f139a98be9b6b7a3636179e34f7&#45;&gt;dir_1ea122f7b94457c2332c194612c8b8fe</title>
<path fill="none" stroke="black" d="M232.29,-87.88C219.33,-78.89 203.27,-67.76 189.23,-58.03"/>
<polygon fill="black" stroke="black" points="191.02,-55.01 180.8,-52.19 187.03,-60.76 191.02,-55.01"/>
<g id="a_edge2&#45;headlabel"><a xlink:href="dir_000004_000001.html" target="_top" xlink:title="9">
<text text-anchor="middle" x="195.59" y="-52.22" font-family="Helvetica,sans-Serif" font-size="10.00">9</text>
</a>
</g>
</g>
</g>
</svg>
