<?xml version="1.0" encoding="UTF-8" standalone="no"?>
<!DOCTYPE svg PUBLIC "-//W3C//DTD SVG 1.1//EN"
 "http://www.w3.org/Graphics/SVG/1.1/DTD/svg11.dtd">
<!-- Generated by graphviz version 2.43.0 (0)
 -->
<!-- Title: cmp_decmp Pages: 1 -->
<svg width="180pt" height="167pt"
 viewBox="0.00 0.00 180.00 167.00" xmlns="http://www.w3.org/2000/svg" xmlns:xlink="http://www.w3.org/1999/xlink">
<g id="graph0" class="graph" transform="scale(1 1) rotate(0) translate(4 163)">
<title>cmp_decmp</title>
<polygon fill="white" stroke="transparent" points="-4,4 -4,-163 176,-163 176,4 -4,4"/>
<g id="clust1" class="cluster">
<title>clusterdir_13e138d54eb8818da29c3992edef070a</title>
<g id="a_clust1"><a xlink:href="dir_13e138d54eb8818da29c3992edef070a.html" target="_top" xlink:title="test">
<polygon fill="#ddddee" stroke="black" points="8,-8 8,-151 108,-151 108,-8 8,-8"/>
<text text-anchor="middle" x="58" y="-139" font-family="Helvetica,sans-Serif" font-size="10.00">test</text>
</a>
</g>
</g>
<!-- dir_6c0c88587a4f4c16f8b64620f10752cf -->
<g id="node1" class="node">
<title>dir_6c0c88587a4f4c16f8b64620f10752cf</title>
<g id="a_node1"><a xlink:href="dir_6c0c88587a4f4c16f8b64620f10752cf.html" target="_top" xlink:title="test_common">
<polygon fill="none" stroke="black" points="99.5,-52 16.5,-52 16.5,-16 99.5,-16 99.5,-52"/>
<text text-anchor="middle" x="58" y="-31.5" font-family="Helvetica,sans-Serif" font-size="10.00">test_common</text>
</a>
</g>
</g>
<!-- dir_644c1fea284155f0d7659322d443e85a -->
<g id="node2" class="node">
<title>dir_644c1fea284155f0d7659322d443e85a</title>
<g id="a_node2"><a xlink:href="dir_644c1fea284155f0d7659322d443e85a.html" target="_top" xlink:title="cmp_decmp">
<polygon fill="#eeeeff" stroke="black" points="98,-124 22,-124 22,-88 98,-88 98,-124"/>
<text text-anchor="middle" x="60" y="-103.5" font-family="Helvetica,sans-Serif" font-size="10.00">cmp_decmp</text>
</a>
</g>
</g>
<!-- dir_644c1fea284155f0d7659322d443e85a&#45;&gt;dir_6c0c88587a4f4c16f8b64620f10752cf -->
<g id="edge1" class="edge">
<title>dir_644c1fea284155f0d7659322d443e85a&#45;&gt;dir_6c0c88587a4f4c16f8b64620f10752cf</title>
<path fill="none" stroke="black" d="M59.51,-87.7C59.29,-79.98 59.02,-70.71 58.77,-62.11"/>
<polygon fill="black" stroke="black" points="62.27,-62 58.49,-52.1 55.28,-62.2 62.27,-62"/>
<g id="a_edge1&#45;headlabel"><a xlink:href="dir_000007_000012.html" target="_top" xlink:title="1">
<text text-anchor="middle" x="65.21" y="-63.01" font-family="Helvetica,sans-Serif" font-size="10.00">1</text>
</a>
</g>
</g>
<!-- dir_97aefd0d527b934f1d99a682da8fe6a9 -->
<g id="node3" class="node">
<title>dir_97aefd0d527b934f1d99a682da8fe6a9</title>
<g id="a_node3"><a xlink:href="dir_97aefd0d527b934f1d99a682da8fe6a9.html" target="_top" xlink:title="lib">
<polygon fill="white" stroke="red" points="172,-52 118,-52 118,-16 172,-16 172,-52"/>
<text text-anchor="middle" x="145" y="-31.5" font-family="Helvetica,sans-Serif" font-size="10.00">lib</text>
</a>
</g>
</g>
<!-- dir_644c1fea284155f0d7659322d443e85a&#45;&gt;dir_97aefd0d527b934f1d99a682da8fe6a9 -->
<g id="edge2" class="edge">
<title>dir_644c1fea284155f0d7659322d443e85a&#45;&gt;dir_97aefd0d527b934f1d99a682da8fe6a9</title>
<path fill="none" stroke="black" d="M81.01,-87.7C91.72,-78.88 104.89,-68.03 116.5,-58.47"/>
<polygon fill="black" stroke="black" points="118.74,-61.16 124.23,-52.1 114.29,-55.76 118.74,-61.16"/>
<g id="a_edge2&#45;headlabel"><a xlink:href="dir_000007_000000.html" target="_top" xlink:title="4">
<text text-anchor="middle" x="117.77" y="-63.14" font-family="Helvetica,sans-Serif" font-size="10.00">4</text>
</a>
</g>
</g>
</g>
</svg>
