<?xml version="1.0" encoding="UTF-8" standalone="no"?>
<!DOCTYPE svg PUBLIC "-//W3C//DTD SVG 1.1//EN"
 "http://www.w3.org/Graphics/SVG/1.1/DTD/svg11.dtd">
<!-- Generated by graphviz version 2.43.0 (0)
 -->
<!-- Title: leon_inttypes.h Pages: 1 -->
<svg width="494pt" height="84pt"
 viewBox="0.00 0.00 493.50 84.00" xmlns="http://www.w3.org/2000/svg" xmlns:xlink="http://www.w3.org/1999/xlink">
<g id="graph0" class="graph" transform="scale(1 1) rotate(0) translate(4 80)">
<title>leon_inttypes.h</title>
<polygon fill="white" stroke="transparent" points="-4,4 -4,-80 489.5,-80 489.5,4 -4,4"/>
<!-- Node1 -->
<g id="node1" class="node">
<title>Node1</title>
<g id="a_node1"><a xlink:title="This is a simple inttypes.h implementation for the sparc platform, since the sparc&#45;elf&#45;gcc toolchain ...">
<polygon fill="#bfbfbf" stroke="black" points="181,-56.5 181,-75.5 273,-75.5 273,-56.5 181,-56.5"/>
<text text-anchor="middle" x="227" y="-63.5" font-family="Helvetica,sans-Serif" font-size="10.00">leon_inttypes.h</text>
</a>
</g>
</g>
<!-- Node2 -->
<g id="node2" class="node">
<title>Node2</title>
<g id="a_node2"><a xlink:href="cmp__entity_8c.html" target="_top" xlink:title="functions and definition to handle a compression entity">
<polygon fill="white" stroke="black" points="0,-0.5 0,-19.5 78,-19.5 78,-0.5 0,-0.5"/>
<text text-anchor="middle" x="39" y="-7.5" font-family="Helvetica,sans-Serif" font-size="10.00">cmp_entity.c</text>
</a>
</g>
</g>
<!-- Node1&#45;&gt;Node2 -->
<g id="edge1" class="edge">
<title>Node1&#45;&gt;Node2</title>
<path fill="none" stroke="midnightblue" d="M187.2,-53.57C151.73,-43.38 100.63,-28.7 68.65,-19.52"/>
<polygon fill="midnightblue" stroke="midnightblue" points="186.63,-57.05 197.21,-56.44 188.57,-50.32 186.63,-57.05"/>
</g>
<!-- Node3 -->
<g id="node3" class="node">
<title>Node3</title>
<g id="a_node3"><a xlink:href="cmp__support_8c.html" target="_top" xlink:title="compressor support library">
<polygon fill="white" stroke="black" points="96,-0.5 96,-19.5 184,-19.5 184,-0.5 96,-0.5"/>
<text text-anchor="middle" x="140" y="-7.5" font-family="Helvetica,sans-Serif" font-size="10.00">cmp_support.c</text>
</a>
</g>
</g>
<!-- Node1&#45;&gt;Node3 -->
<g id="edge2" class="edge">
<title>Node1&#45;&gt;Node3</title>
<path fill="none" stroke="midnightblue" d="M204.28,-50.9C188.33,-41 167.5,-28.07 153.94,-19.65"/>
<polygon fill="midnightblue" stroke="midnightblue" points="202.68,-54.02 213.02,-56.32 206.37,-48.08 202.68,-54.02"/>
</g>
<!-- Node4 -->
<g id="node4" class="node">
<title>Node4</title>
<g id="a_node4"><a xlink:href="rmap_8c.html" target="_top" xlink:title="rmap command/reply helper functions">
<polygon fill="white" stroke="black" points="202,-0.5 202,-19.5 252,-19.5 252,-0.5 202,-0.5"/>
<text text-anchor="middle" x="227" y="-7.5" font-family="Helvetica,sans-Serif" font-size="10.00">rmap.c</text>
</a>
</g>
</g>
<!-- Node1&#45;&gt;Node4 -->
<g id="edge3" class="edge">
<title>Node1&#45;&gt;Node4</title>
<path fill="none" stroke="midnightblue" d="M227,-45.8C227,-36.91 227,-26.78 227,-19.75"/>
<polygon fill="midnightblue" stroke="midnightblue" points="223.5,-46.08 227,-56.08 230.5,-46.08 223.5,-46.08"/>
</g>
<!-- Node5 -->
<g id="node5" class="node">
<title>Node5</title>
<g id="a_node5"><a xlink:href="test__cmp__decmp_8c.html" target="_top" xlink:title="random compression decompression tests">
<polygon fill="white" stroke="black" points="270,-0.5 270,-19.5 378,-19.5 378,-0.5 270,-0.5"/>
<text text-anchor="middle" x="324" y="-7.5" font-family="Helvetica,sans-Serif" font-size="10.00">test_cmp_decmp.c</text>
</a>
</g>
</g>
<!-- Node1&#45;&gt;Node5 -->
<g id="edge4" class="edge">
<title>Node1&#45;&gt;Node5</title>
<path fill="none" stroke="midnightblue" d="M251.34,-51.45C269.24,-41.48 293.05,-28.23 308.45,-19.65"/>
<polygon fill="midnightblue" stroke="midnightblue" points="249.62,-48.4 242.58,-56.32 253.02,-54.52 249.62,-48.4"/>
</g>
<!-- Node6 -->
<g id="node6" class="node">
<title>Node6</title>
<g id="a_node6"><a xlink:href="test__cmp__icu_8c.html" target="_top" xlink:title="software compression tests">
<polygon fill="white" stroke="black" points="396.5,-0.5 396.5,-19.5 485.5,-19.5 485.5,-0.5 396.5,-0.5"/>
<text text-anchor="middle" x="441" y="-7.5" font-family="Helvetica,sans-Serif" font-size="10.00">test_cmp_icu.c</text>
</a>
</g>
</g>
<!-- Node1&#45;&gt;Node6 -->
<g id="edge5" class="edge">
<title>Node1&#45;&gt;Node6</title>
<path fill="none" stroke="midnightblue" d="M270.76,-53.96C311.17,-43.76 370.37,-28.82 407.25,-19.52"/>
<polygon fill="midnightblue" stroke="midnightblue" points="269.75,-50.6 260.91,-56.44 271.46,-57.39 269.75,-50.6"/>
</g>
</g>
</svg>
