<?xml version="1.0" encoding="UTF-8" standalone="no"?>
<!DOCTYPE svg PUBLIC "-//W3C//DTD SVG 1.1//EN"
 "http://www.w3.org/Graphics/SVG/1.1/DTD/svg11.dtd">
<!-- Generated by graphviz version 2.43.0 (0)
 -->
<!-- Title: __list_del Pages: 1 -->
<svg width="569pt" height="192pt"
 viewBox="0.00 0.00 569.00 192.00" xmlns="http://www.w3.org/2000/svg" xmlns:xlink="http://www.w3.org/1999/xlink">
<g id="graph0" class="graph" transform="scale(1 1) rotate(0) translate(4 188)">
<title>__list_del</title>
<polygon fill="white" stroke="transparent" points="-4,4 -4,-188 565,-188 565,4 -4,4"/>
<!-- Node1 -->
<g id="node1" class="node">
<title>Node1</title>
<g id="a_node1"><a xlink:title=" ">
<polygon fill="#bfbfbf" stroke="black" points="499,-60.5 499,-79.5 561,-79.5 561,-60.5 499,-60.5"/>
<text text-anchor="middle" x="530" y="-67.5" font-family="Helvetica,sans-Serif" font-size="10.00">__list_del</text>
</a>
</g>
</g>
<!-- Node2 -->
<g id="node2" class="node">
<title>Node2</title>
<g id="a_node2"><a xlink:href="list_8h_aafaf36c0a2adaebb3ef5e301410a347f.html#aafaf36c0a2adaebb3ef5e301410a347f" target="_top" xlink:title="deletes entry from list.">
<polygon fill="white" stroke="black" points="370,-126.5 370,-145.5 463,-145.5 463,-126.5 370,-126.5"/>
<text text-anchor="middle" x="416.5" y="-133.5" font-family="Helvetica,sans-Serif" font-size="10.00">__list_del_entry</text>
</a>
</g>
</g>
<!-- Node1&#45;&gt;Node2 -->
<g id="edge1" class="edge">
<title>Node1&#45;&gt;Node2</title>
<path fill="none" stroke="midnightblue" d="M503.93,-84.84C482.43,-97.57 452.08,-115.53 433.66,-126.44"/>
<polygon fill="midnightblue" stroke="midnightblue" points="505.73,-87.84 512.55,-79.74 502.16,-81.82 505.73,-87.84"/>
</g>
<!-- Node5 -->
<g id="node5" class="node">
<title>Node5</title>
<g id="a_node5"><a xlink:href="list_8h_ab1708206f0f7e0a56550b35372203ba5.html#ab1708206f0f7e0a56550b35372203ba5" target="_top" xlink:title="deletes entry from list.">
<polygon fill="white" stroke="black" points="390.5,-60.5 390.5,-79.5 442.5,-79.5 442.5,-60.5 390.5,-60.5"/>
<text text-anchor="middle" x="416.5" y="-67.5" font-family="Helvetica,sans-Serif" font-size="10.00">list_del</text>
</a>
</g>
</g>
<!-- Node1&#45;&gt;Node5 -->
<g id="edge4" class="edge">
<title>Node1&#45;&gt;Node5</title>
<path fill="none" stroke="midnightblue" d="M488.57,-70C473.27,-70 456.31,-70 442.79,-70"/>
<polygon fill="midnightblue" stroke="midnightblue" points="488.83,-73.5 498.83,-70 488.83,-66.5 488.83,-73.5"/>
</g>
<!-- Node9 -->
<g id="node9" class="node">
<title>Node9</title>
<g id="a_node9"><a xlink:href="list_8h_a1c5ac6a6b04a03f5782e818daacf96e9.html#a1c5ac6a6b04a03f5782e818daacf96e9" target="_top" xlink:title="delete from one list and add as another&#39;s tail">
<polygon fill="white" stroke="black" points="373.5,-22.5 373.5,-41.5 459.5,-41.5 459.5,-22.5 373.5,-22.5"/>
<text text-anchor="middle" x="416.5" y="-29.5" font-family="Helvetica,sans-Serif" font-size="10.00">list_move_tail</text>
</a>
</g>
</g>
<!-- Node1&#45;&gt;Node9 -->
<g id="edge8" class="edge">
<title>Node1&#45;&gt;Node9</title>
<path fill="none" stroke="midnightblue" d="M491.37,-57.17C476.41,-52.08 459.49,-46.31 445.63,-41.59"/>
<polygon fill="midnightblue" stroke="midnightblue" points="490.27,-60.5 500.86,-60.41 492.53,-53.87 490.27,-60.5"/>
</g>
<!-- Node3 -->
<g id="node3" class="node">
<title>Node3</title>
<g id="a_node3"><a xlink:href="list_8h_ae1cde0f50b85945cfff23be4fc1586f4.html#ae1cde0f50b85945cfff23be4fc1586f4" target="_top" xlink:title="deletes entry from list and reinitialize it.">
<polygon fill="white" stroke="black" points="229,-164.5 229,-183.5 302,-183.5 302,-164.5 229,-164.5"/>
<text text-anchor="middle" x="265.5" y="-171.5" font-family="Helvetica,sans-Serif" font-size="10.00">list_del_init</text>
</a>
</g>
</g>
<!-- Node2&#45;&gt;Node3 -->
<g id="edge2" class="edge">
<title>Node2&#45;&gt;Node3</title>
<path fill="none" stroke="midnightblue" d="M368.03,-148.11C346.63,-153.56 321.79,-159.9 302.04,-164.94"/>
<polygon fill="midnightblue" stroke="midnightblue" points="369.08,-151.45 377.9,-145.59 367.35,-144.67 369.08,-151.45"/>
</g>
<!-- Node4 -->
<g id="node4" class="node">
<title>Node4</title>
<g id="a_node4"><a xlink:href="list_8h_aee8df43e41969c2272acfd6ed6e75d4c.html#aee8df43e41969c2272acfd6ed6e75d4c" target="_top" xlink:title="delete from one list and add as another&#39;s head">
<polygon fill="white" stroke="black" points="233,-126.5 233,-145.5 298,-145.5 298,-126.5 233,-126.5"/>
<text text-anchor="middle" x="265.5" y="-133.5" font-family="Helvetica,sans-Serif" font-size="10.00">list_move</text>
</a>
</g>
</g>
<!-- Node2&#45;&gt;Node4 -->
<g id="edge3" class="edge">
<title>Node2&#45;&gt;Node4</title>
<path fill="none" stroke="midnightblue" d="M359.93,-136C339.04,-136 316.02,-136 298.05,-136"/>
<polygon fill="midnightblue" stroke="midnightblue" points="359.99,-139.5 369.99,-136 359.99,-132.5 359.99,-139.5"/>
</g>
<!-- Node6 -->
<g id="node6" class="node">
<title>Node6</title>
<g id="a_node6"><a xlink:href="cmp__max__used__bits__list_8c_af542c0427f6c49599bf2b0468350c2bf.html#af542c0427f6c49599bf2b0468350c2bf" target="_top" xlink:title="delete a max_used_bits item from the list">
<polygon fill="white" stroke="black" points="197,-77 197,-107 334,-107 334,-77 197,-77"/>
<text text-anchor="start" x="205" y="-95" font-family="Helvetica,sans-Serif" font-size="10.00">cmp_max_used_bits_list</text>
<text text-anchor="middle" x="265.5" y="-84" font-family="Helvetica,sans-Serif" font-size="10.00">_delet</text>
</a>
</g>
</g>
<!-- Node5&#45;&gt;Node6 -->
<g id="edge5" class="edge">
<title>Node5&#45;&gt;Node6</title>
<path fill="none" stroke="midnightblue" d="M380.23,-75.21C366.46,-77.24 350.19,-79.64 334.32,-81.99"/>
<polygon fill="midnightblue" stroke="midnightblue" points="380.84,-78.66 390.22,-73.73 379.82,-71.73 380.84,-78.66"/>
</g>
<!-- Node8 -->
<g id="node8" class="node">
<title>Node8</title>
<g id="a_node8"><a xlink:href="list_8h_aa88ecc2b45985151e559c4bd0a0a2a09.html#aa88ecc2b45985151e559c4bd0a0a2a09" target="_top" xlink:title="replace entry1 with entry2 and re&#45;add entry1 at entry2&#39;s position">
<polygon fill="white" stroke="black" points="234.5,-38.5 234.5,-57.5 296.5,-57.5 296.5,-38.5 234.5,-38.5"/>
<text text-anchor="middle" x="265.5" y="-45.5" font-family="Helvetica,sans-Serif" font-size="10.00">list_swap</text>
</a>
</g>
</g>
<!-- Node5&#45;&gt;Node8 -->
<g id="edge7" class="edge">
<title>Node5&#45;&gt;Node8</title>
<path fill="none" stroke="midnightblue" d="M380.23,-64.79C354.75,-61.03 320.71,-56 296.53,-52.43"/>
<polygon fill="midnightblue" stroke="midnightblue" points="379.82,-68.27 390.22,-66.27 380.84,-61.34 379.82,-68.27"/>
</g>
<!-- Node7 -->
<g id="node7" class="node">
<title>Node7</title>
<g id="a_node7"><a xlink:href="test__cmp__max__used__bits__list_8c_acd1ebf1cab2751d1420a94e2c50ba6ce.html#acd1ebf1cab2751d1420a94e2c50ba6ce" target="_top" xlink:title=" ">
<polygon fill="white" stroke="black" points="0,-82.5 0,-101.5 161,-101.5 161,-82.5 0,-82.5"/>
<text text-anchor="middle" x="80.5" y="-89.5" font-family="Helvetica,sans-Serif" font-size="10.00">test_cmp_max_used_bits_list</text>
</a>
</g>
</g>
<!-- Node6&#45;&gt;Node7 -->
<g id="edge6" class="edge">
<title>Node6&#45;&gt;Node7</title>
<path fill="none" stroke="midnightblue" d="M186.69,-92C178.26,-92 169.68,-92 161.22,-92"/>
<polygon fill="midnightblue" stroke="midnightblue" points="186.88,-95.5 196.88,-92 186.88,-88.5 186.88,-95.5"/>
</g>
<!-- Node10 -->
<g id="node10" class="node">
<title>Node10</title>
<g id="a_node10"><a xlink:href="list_8h_ace3524496c1d85a59486e73a292d0c84.html#ace3524496c1d85a59486e73a292d0c84" target="_top" xlink:title="rotate the list to the left">
<polygon fill="white" stroke="black" points="222,-0.5 222,-19.5 309,-19.5 309,-0.5 222,-0.5"/>
<text text-anchor="middle" x="265.5" y="-7.5" font-family="Helvetica,sans-Serif" font-size="10.00">list_rotate_left</text>
</a>
</g>
</g>
<!-- Node9&#45;&gt;Node10 -->
<g id="edge9" class="edge">
<title>Node9&#45;&gt;Node10</title>
<path fill="none" stroke="midnightblue" d="M363.06,-24.26C345.42,-21.65 325.96,-18.78 309.16,-16.3"/>
<polygon fill="midnightblue" stroke="midnightblue" points="362.8,-27.76 373.2,-25.75 363.82,-20.83 362.8,-27.76"/>
</g>
</g>
</svg>
