<?xml version="1.0" encoding="UTF-8" standalone="no"?>
<!DOCTYPE svg PUBLIC "-//W3C//DTD SVG 1.1//EN"
 "http://www.w3.org/Graphics/SVG/1.1/DTD/svg11.dtd">
<!-- Generated by graphviz version 2.43.0 (0)
 -->
<!-- Title: list_add Pages: 1 -->
<svg width="456pt" height="132pt"
 viewBox="0.00 0.00 456.00 131.50" xmlns="http://www.w3.org/2000/svg" xmlns:xlink="http://www.w3.org/1999/xlink">
<g id="graph0" class="graph" transform="scale(1 1) rotate(0) translate(4 127.5)">
<title>list_add</title>
<polygon fill="white" stroke="transparent" points="-4,4 -4,-127.5 452,-127.5 452,4 -4,4"/>
<!-- Node1 -->
<g id="node1" class="node">
<title>Node1</title>
<g id="a_node1"><a xlink:title="add a new entry">
<polygon fill="#bfbfbf" stroke="black" points="393,-38.5 393,-57.5 448,-57.5 448,-38.5 393,-38.5"/>
<text text-anchor="middle" x="420.5" y="-45.5" font-family="Helvetica,sans-Serif" font-size="10.00">list_add</text>
</a>
</g>
</g>
<!-- Node2 -->
<g id="node2" class="node">
<title>Node2</title>
<g id="a_node2"><a xlink:href="cmp__max__used__bits__list_8c_a3a9b1df3e78c09e9790dd6fef4b7a1c0.html#a3a9b1df3e78c09e9790dd6fef4b7a1c0" target="_top" xlink:title="add a max_used_bits item to the list">
<polygon fill="white" stroke="black" points="197,-76.5 197,-95.5 357,-95.5 357,-76.5 197,-76.5"/>
<text text-anchor="middle" x="277" y="-83.5" font-family="Helvetica,sans-Serif" font-size="10.00">cmp_max_used_bits_list_add</text>
</a>
</g>
</g>
<!-- Node1&#45;&gt;Node2 -->
<g id="edge1" class="edge">
<title>Node1&#45;&gt;Node2</title>
<path fill="none" stroke="midnightblue" d="M383.13,-59.45C374.58,-62.03 365.49,-64.69 357,-67 344.89,-70.3 331.65,-73.6 319.53,-76.5"/>
<polygon fill="midnightblue" stroke="midnightblue" points="384.3,-62.76 392.84,-56.49 382.25,-56.06 384.3,-62.76"/>
</g>
<!-- Node5 -->
<g id="node5" class="node">
<title>Node5</title>
<g id="a_node5"><a xlink:href="list_8h_aee8df43e41969c2272acfd6ed6e75d4c.html#aee8df43e41969c2272acfd6ed6e75d4c" target="_top" xlink:title="delete from one list and add as another&#39;s head">
<polygon fill="white" stroke="black" points="244.5,-38.5 244.5,-57.5 309.5,-57.5 309.5,-38.5 244.5,-38.5"/>
<text text-anchor="middle" x="277" y="-45.5" font-family="Helvetica,sans-Serif" font-size="10.00">list_move</text>
</a>
</g>
</g>
<!-- Node1&#45;&gt;Node5 -->
<g id="edge4" class="edge">
<title>Node1&#45;&gt;Node5</title>
<path fill="none" stroke="midnightblue" d="M382.64,-48C360,-48 331.3,-48 309.69,-48"/>
<polygon fill="midnightblue" stroke="midnightblue" points="382.88,-51.5 392.88,-48 382.88,-44.5 382.88,-51.5"/>
</g>
<!-- Node6 -->
<g id="node6" class="node">
<title>Node6</title>
<g id="a_node6"><a xlink:href="list_8h_aa88ecc2b45985151e559c4bd0a0a2a09.html#aa88ecc2b45985151e559c4bd0a0a2a09" target="_top" xlink:title="replace entry1 with entry2 and re&#45;add entry1 at entry2&#39;s position">
<polygon fill="white" stroke="black" points="246,-0.5 246,-19.5 308,-19.5 308,-0.5 246,-0.5"/>
<text text-anchor="middle" x="277" y="-7.5" font-family="Helvetica,sans-Serif" font-size="10.00">list_swap</text>
</a>
</g>
</g>
<!-- Node1&#45;&gt;Node6 -->
<g id="edge5" class="edge">
<title>Node1&#45;&gt;Node6</title>
<path fill="none" stroke="midnightblue" d="M383.13,-36.55C374.58,-33.97 365.49,-31.31 357,-29 340.94,-24.63 322.9,-20.25 308.12,-16.8"/>
<polygon fill="midnightblue" stroke="midnightblue" points="382.25,-39.94 392.84,-39.51 384.3,-33.24 382.25,-39.94"/>
</g>
<!-- Node3 -->
<g id="node3" class="node">
<title>Node3</title>
<g id="a_node3"><a xlink:href="test__decmp_8c_a27e5a2b67e3e81da1be024826485b2e3.html#a27e5a2b67e3e81da1be024826485b2e3" target="_top" xlink:title=" ">
<polygon fill="white" stroke="black" points="24,-93 24,-123 137,-123 137,-93 24,-93"/>
<text text-anchor="start" x="32" y="-111" font-family="Helvetica,sans-Serif" font-size="10.00">test_cmp_ent_write</text>
<text text-anchor="middle" x="80.5" y="-100" font-family="Helvetica,sans-Serif" font-size="10.00">_cmp_pars</text>
</a>
</g>
</g>
<!-- Node2&#45;&gt;Node3 -->
<g id="edge2" class="edge">
<title>Node2&#45;&gt;Node3</title>
<path fill="none" stroke="midnightblue" d="M186.93,-96.07C169.93,-98 152.59,-99.96 137.01,-101.72"/>
<polygon fill="midnightblue" stroke="midnightblue" points="187.35,-99.55 196.89,-94.95 186.56,-92.59 187.35,-99.55"/>
</g>
<!-- Node4 -->
<g id="node4" class="node">
<title>Node4</title>
<g id="a_node4"><a xlink:href="test__cmp__max__used__bits__list_8c_acd1ebf1cab2751d1420a94e2c50ba6ce.html#acd1ebf1cab2751d1420a94e2c50ba6ce" target="_top" xlink:title=" ">
<polygon fill="white" stroke="black" points="0,-54.5 0,-73.5 161,-73.5 161,-54.5 0,-54.5"/>
<text text-anchor="middle" x="80.5" y="-61.5" font-family="Helvetica,sans-Serif" font-size="10.00">test_cmp_max_used_bits_list</text>
</a>
</g>
</g>
<!-- Node2&#45;&gt;Node4 -->
<g id="edge3" class="edge">
<title>Node2&#45;&gt;Node4</title>
<path fill="none" stroke="midnightblue" d="M186.88,-75.92C178.31,-74.95 169.65,-73.97 161.17,-73.01"/>
<polygon fill="midnightblue" stroke="midnightblue" points="186.56,-79.41 196.89,-77.05 187.35,-72.45 186.56,-79.41"/>
</g>
</g>
</svg>
