<?xml version="1.0" encoding="UTF-8" standalone="no"?>
<!DOCTYPE svg PUBLIC "-//W3C//DTD SVG 1.1//EN"
 "http://www.w3.org/Graphics/SVG/1.1/DTD/svg11.dtd">
<!-- Generated by graphviz version 2.43.0 (0)
 -->
<!-- Title: list_rotate_left Pages: 1 -->
<svg width="430pt" height="85pt"
 viewBox="0.00 0.00 430.00 85.00" xmlns="http://www.w3.org/2000/svg" xmlns:xlink="http://www.w3.org/1999/xlink">
<g id="graph0" class="graph" transform="scale(1 1) rotate(0) translate(4 81)">
<title>list_rotate_left</title>
<polygon fill="white" stroke="transparent" points="-4,4 -4,-81 426,-81 426,4 -4,4"/>
<!-- Node1 -->
<g id="node1" class="node">
<title>Node1</title>
<g id="a_node1"><a xlink:title="rotate the list to the left">
<polygon fill="#bfbfbf" stroke="black" points="0,-38.5 0,-57.5 87,-57.5 87,-38.5 0,-38.5"/>
<text text-anchor="middle" x="43.5" y="-45.5" font-family="Helvetica,sans-Serif" font-size="10.00">list_rotate_left</text>
</a>
</g>
</g>
<!-- Node2 -->
<g id="node2" class="node">
<title>Node2</title>
<g id="a_node2"><a xlink:href="list_8h_a0fce12be81e8f2677b3a272fee1652ac.html#a0fce12be81e8f2677b3a272fee1652ac" target="_top" xlink:title="tests whether a list is empty">
<polygon fill="white" stroke="black" points="132,-57.5 132,-76.5 200,-76.5 200,-57.5 132,-57.5"/>
<text text-anchor="middle" x="166" y="-64.5" font-family="Helvetica,sans-Serif" font-size="10.00">list_empty</text>
</a>
</g>
</g>
<!-- Node1&#45;&gt;Node2 -->
<g id="edge1" class="edge">
<title>Node1&#45;&gt;Node2</title>
<path fill="none" stroke="midnightblue" d="M87.32,-54.75C98.51,-56.52 110.57,-58.42 121.78,-60.19"/>
<polygon fill="midnightblue" stroke="midnightblue" points="121.36,-63.66 131.78,-61.76 122.45,-56.75 121.36,-63.66"/>
</g>
<!-- Node3 -->
<g id="node3" class="node">
<title>Node3</title>
<g id="a_node3"><a xlink:href="list_8h_a1c5ac6a6b04a03f5782e818daacf96e9.html#a1c5ac6a6b04a03f5782e818daacf96e9" target="_top" xlink:title="delete from one list and add as another&#39;s tail">
<polygon fill="white" stroke="black" points="123,-19.5 123,-38.5 209,-38.5 209,-19.5 123,-19.5"/>
<text text-anchor="middle" x="166" y="-26.5" font-family="Helvetica,sans-Serif" font-size="10.00">list_move_tail</text>
</a>
</g>
</g>
<!-- Node1&#45;&gt;Node3 -->
<g id="edge2" class="edge">
<title>Node1&#45;&gt;Node3</title>
<path fill="none" stroke="midnightblue" d="M87.32,-41.25C95.5,-39.96 104.14,-38.6 112.58,-37.27"/>
<polygon fill="midnightblue" stroke="midnightblue" points="113.39,-40.68 122.72,-35.67 112.3,-33.77 113.39,-40.68"/>
</g>
<!-- Node4 -->
<g id="node4" class="node">
<title>Node4</title>
<g id="a_node4"><a xlink:href="list_8h_a24b474717d65a296695e8b79b4adefda.html#a24b474717d65a296695e8b79b4adefda" target="_top" xlink:title=" ">
<polygon fill="white" stroke="black" points="252,-38.5 252,-57.5 314,-57.5 314,-38.5 252,-38.5"/>
<text text-anchor="middle" x="283" y="-45.5" font-family="Helvetica,sans-Serif" font-size="10.00">__list_del</text>
</a>
</g>
</g>
<!-- Node3&#45;&gt;Node4 -->
<g id="edge3" class="edge">
<title>Node3&#45;&gt;Node4</title>
<path fill="none" stroke="midnightblue" d="M209.17,-35.97C219.75,-37.71 231.07,-39.59 241.56,-41.32"/>
<polygon fill="midnightblue" stroke="midnightblue" points="241.28,-44.82 251.71,-43 242.42,-37.91 241.28,-44.82"/>
</g>
<!-- Node5 -->
<g id="node5" class="node">
<title>Node5</title>
<g id="a_node5"><a xlink:href="list_8h_a588bec046f1e9797b33a5c5ab250f447.html#a588bec046f1e9797b33a5c5ab250f447" target="_top" xlink:title="add a new entry">
<polygon fill="white" stroke="black" points="245,-0.5 245,-19.5 321,-19.5 321,-0.5 245,-0.5"/>
<text text-anchor="middle" x="283" y="-7.5" font-family="Helvetica,sans-Serif" font-size="10.00">list_add_tail</text>
</a>
</g>
</g>
<!-- Node3&#45;&gt;Node5 -->
<g id="edge4" class="edge">
<title>Node3&#45;&gt;Node5</title>
<path fill="none" stroke="midnightblue" d="M209.17,-22.03C217.46,-20.66 226.22,-19.22 234.67,-17.82"/>
<polygon fill="midnightblue" stroke="midnightblue" points="235.48,-21.23 244.77,-16.15 234.34,-14.33 235.48,-21.23"/>
</g>
<!-- Node6 -->
<g id="node6" class="node">
<title>Node6</title>
<g id="a_node6"><a xlink:href="list_8h_a8a28f150a191624bf6923a48cdace7e3.html#a8a28f150a191624bf6923a48cdace7e3" target="_top" xlink:title=" ">
<polygon fill="white" stroke="black" points="357,-0.5 357,-19.5 422,-19.5 422,-0.5 357,-0.5"/>
<text text-anchor="middle" x="389.5" y="-7.5" font-family="Helvetica,sans-Serif" font-size="10.00">__list_add</text>
</a>
</g>
</g>
<!-- Node5&#45;&gt;Node6 -->
<g id="edge5" class="edge">
<title>Node5&#45;&gt;Node6</title>
<path fill="none" stroke="midnightblue" d="M321.14,-10C329.39,-10 338.2,-10 346.64,-10"/>
<polygon fill="midnightblue" stroke="midnightblue" points="346.67,-13.5 356.67,-10 346.67,-6.5 346.67,-13.5"/>
</g>
</g>
</svg>
