<?xml version="1.0" encoding="UTF-8" standalone="no"?>
<!DOCTYPE svg PUBLIC "-//W3C//DTD SVG 1.1//EN"
 "http://www.w3.org/Graphics/SVG/1.1/DTD/svg11.dtd">
<!-- Generated by graphviz version 2.43.0 (0)
 -->
<!-- Title: list_swap Pages: 1 -->
<svg width="280pt" height="104pt"
 viewBox="0.00 0.00 280.00 104.00" xmlns="http://www.w3.org/2000/svg" xmlns:xlink="http://www.w3.org/1999/xlink">
<g id="graph0" class="graph" transform="scale(1 1) rotate(0) translate(4 100)">
<title>list_swap</title>
<polygon fill="white" stroke="transparent" points="-4,4 -4,-100 276,-100 276,4 -4,4"/>
<!-- Node1 -->
<g id="node1" class="node">
<title>Node1</title>
<g id="a_node1"><a xlink:title="replace entry1 with entry2 and re&#45;add entry1 at entry2&#39;s position">
<polygon fill="#bfbfbf" stroke="black" points="0,-38.5 0,-57.5 62,-57.5 62,-38.5 0,-38.5"/>
<text text-anchor="middle" x="31" y="-45.5" font-family="Helvetica,sans-Serif" font-size="10.00">list_swap</text>
</a>
</g>
</g>
<!-- Node2 -->
<g id="node2" class="node">
<title>Node2</title>
<g id="a_node2"><a xlink:href="list_8h_a0373c4b3c8ce51a451a569ad978b32e1.html#a0373c4b3c8ce51a451a569ad978b32e1" target="_top" xlink:title="add a new entry">
<polygon fill="white" stroke="black" points="107,-76.5 107,-95.5 162,-95.5 162,-76.5 107,-76.5"/>
<text text-anchor="middle" x="134.5" y="-83.5" font-family="Helvetica,sans-Serif" font-size="10.00">list_add</text>
</a>
</g>
</g>
<!-- Node1&#45;&gt;Node2 -->
<g id="edge1" class="edge">
<title>Node1&#45;&gt;Node2</title>
<path fill="none" stroke="midnightblue" d="M57.61,-57.59C69.99,-62.22 85.05,-67.86 98.47,-72.89"/>
<polygon fill="midnightblue" stroke="midnightblue" points="97.3,-76.19 107.9,-76.41 99.76,-69.63 97.3,-76.19"/>
</g>
<!-- Node4 -->
<g id="node4" class="node">
<title>Node4</title>
<g id="a_node4"><a xlink:href="list_8h_ab1708206f0f7e0a56550b35372203ba5.html#ab1708206f0f7e0a56550b35372203ba5" target="_top" xlink:title="deletes entry from list.">
<polygon fill="white" stroke="black" points="108.5,-38.5 108.5,-57.5 160.5,-57.5 160.5,-38.5 108.5,-38.5"/>
<text text-anchor="middle" x="134.5" y="-45.5" font-family="Helvetica,sans-Serif" font-size="10.00">list_del</text>
</a>
</g>
</g>
<!-- Node1&#45;&gt;Node4 -->
<g id="edge3" class="edge">
<title>Node1&#45;&gt;Node4</title>
<path fill="none" stroke="midnightblue" d="M62.18,-48C73.45,-48 86.36,-48 98.06,-48"/>
<polygon fill="midnightblue" stroke="midnightblue" points="98.4,-51.5 108.4,-48 98.4,-44.5 98.4,-51.5"/>
</g>
<!-- Node6 -->
<g id="node6" class="node">
<title>Node6</title>
<g id="a_node6"><a xlink:href="list_8h_a4e7f191f394096b42707eecbc55733ff.html#a4e7f191f394096b42707eecbc55733ff" target="_top" xlink:title="replace old entry by new one">
<polygon fill="white" stroke="black" points="98,-0.5 98,-19.5 171,-19.5 171,-0.5 98,-0.5"/>
<text text-anchor="middle" x="134.5" y="-7.5" font-family="Helvetica,sans-Serif" font-size="10.00">list_replace</text>
</a>
</g>
</g>
<!-- Node1&#45;&gt;Node6 -->
<g id="edge5" class="edge">
<title>Node1&#45;&gt;Node6</title>
<path fill="none" stroke="midnightblue" d="M57.61,-38.41C69.99,-33.78 85.05,-28.14 98.47,-23.11"/>
<polygon fill="midnightblue" stroke="midnightblue" points="99.76,-26.37 107.9,-19.59 97.3,-19.81 99.76,-26.37"/>
</g>
<!-- Node3 -->
<g id="node3" class="node">
<title>Node3</title>
<g id="a_node3"><a xlink:href="list_8h_a8a28f150a191624bf6923a48cdace7e3.html#a8a28f150a191624bf6923a48cdace7e3" target="_top" xlink:title=" ">
<polygon fill="white" stroke="black" points="207,-76.5 207,-95.5 272,-95.5 272,-76.5 207,-76.5"/>
<text text-anchor="middle" x="239.5" y="-83.5" font-family="Helvetica,sans-Serif" font-size="10.00">__list_add</text>
</a>
</g>
</g>
<!-- Node2&#45;&gt;Node3 -->
<g id="edge2" class="edge">
<title>Node2&#45;&gt;Node3</title>
<path fill="none" stroke="midnightblue" d="M162.03,-86C172.63,-86 185.1,-86 196.85,-86"/>
<polygon fill="midnightblue" stroke="midnightblue" points="196.93,-89.5 206.93,-86 196.93,-82.5 196.93,-89.5"/>
</g>
<!-- Node5 -->
<g id="node5" class="node">
<title>Node5</title>
<g id="a_node5"><a xlink:href="list_8h_a24b474717d65a296695e8b79b4adefda.html#a24b474717d65a296695e8b79b4adefda" target="_top" xlink:title=" ">
<polygon fill="white" stroke="black" points="208.5,-38.5 208.5,-57.5 270.5,-57.5 270.5,-38.5 208.5,-38.5"/>
<text text-anchor="middle" x="239.5" y="-45.5" font-family="Helvetica,sans-Serif" font-size="10.00">__list_del</text>
</a>
</g>
</g>
<!-- Node4&#45;&gt;Node5 -->
<g id="edge4" class="edge">
<title>Node4&#45;&gt;Node5</title>
<path fill="none" stroke="midnightblue" d="M160.7,-48C171.96,-48 185.51,-48 198.13,-48"/>
<polygon fill="midnightblue" stroke="midnightblue" points="198.43,-51.5 208.43,-48 198.43,-44.5 198.43,-51.5"/>
</g>
</g>
</svg>
