<?xml version="1.0" encoding="UTF-8" standalone="no"?>
<!DOCTYPE svg PUBLIC "-//W3C//DTD SVG 1.1//EN"
 "http://www.w3.org/Graphics/SVG/1.1/DTD/svg11.dtd">
<!-- Generated by graphviz version 2.43.0 (0)
 -->
<!-- Title: rdcu_sync_compr_status Pages: 1 -->
<!--zoomable 750 -->
<svg id="main" version="1.1" xmlns="http://www.w3.org/2000/svg" xmlns:xlink="http://www.w3.org/1999/xlink" xml:space="preserve" onload="init(evt)">
<style type="text/css"><![CDATA[
.edge:hover path { stroke: red; }
.edge:hover polygon { stroke: red; fill: red; }
]]></style>
<script type="text/javascript"><![CDATA[
var edges = document.getElementsByTagName('g');
if (edges && edges.length) {
  for (var i=0;i<edges.length;i++) {
    if (edges[i].id.substr(0,4)=='edge') {
      edges[i].setAttribute('class','edge');
    }
  }
}
]]></script>
        <defs>
                <circle id="rim" cx="0" cy="0" r="7"/>
                <circle id="rim2" cx="0" cy="0" r="3.5"/>
                <g id="zoomPlus">
                        <use xlink:href="#rim" fill="#404040">
                                <set attributeName="fill" to="#808080" begin="zoomplus.mouseover" end="zoomplus.mouseout"/>
                        </use>
                        <path d="M-4,0h8M0,-4v8" fill="none" stroke="white" stroke-width="1.5" pointer-events="none"/>
                </g>
                <g id="zoomMin">
                        <use xlink:href="#rim" fill="#404040">
                                <set attributeName="fill" to="#808080" begin="zoomminus.mouseover" end="zoomminus.mouseout"/>
                        </use>
                        <path d="M-4,0h8" fill="none" stroke="white" stroke-width="1.5" pointer-events="none"/>
                </g>
                <g id="dirArrow">
                        <path fill="none" stroke="white" stroke-width="1.5" d="M0,-3.0v7 M-2.5,-0.5L0,-3.0L2.5,-0.5"/>
                </g>
               <g id="resetDef">
                       <use xlink:href="#rim2" fill="#404040">
                               <set attributeName="fill" to="#808080" begin="reset.mouseover" end="reset.mouseout"/>
                       </use>
               </g>
        </defs>

<script type="text/javascript">
var viewWidth = 1127;
var viewHeight = 750;
var sectionId = 'dynsection-0';
</script>
<script xlink:href="svgpan.js"/>
<svg id="graph" class="graph">
<g id="viewport">
<title>rdcu_sync_compr_status</title>
<polygon fill="white" stroke="transparent" points="-4,4 -4,-746 1123,-746 1123,4 -4,4"/>
<!-- Node1 -->
<g id="node1" class="node">
<title>Node1</title>
<g id="a_node1"><a xlink:title="sync the Compressor Status register (read only)">
<polygon fill="#bfbfbf" stroke="black" points="0,-269.5 0,-288.5 137,-288.5 137,-269.5 0,-269.5"/>
<text text-anchor="middle" x="68.5" y="-276.5" font-family="Helvetica,sans-Serif" font-size="10.00">rdcu_sync_compr_status</text>
</a>
</g>
</g>
<!-- Node2 -->
<g id="node2" class="node">
<title>Node2</title>
<g id="a_node2"><a xlink:href="rdcu__cmd_8c_a23db174de10a78d7ffcc343f46ead4ca.html#a23db174de10a78d7ffcc343f46ead4ca" target="_top" xlink:title="create a command to read the RDCU compressor status register">
<polygon fill="white" stroke="black" points="173,-387 173,-417 300,-417 300,-387 173,-387"/>
<text text-anchor="start" x="181" y="-405" font-family="Helvetica,sans-Serif" font-size="10.00">rdcu_read_cmd_compr</text>
<text text-anchor="middle" x="236.5" y="-394" font-family="Helvetica,sans-Serif" font-size="10.00">_status</text>
</a>
</g>
</g>
<!-- Node1&#45;&gt;Node2 -->
<g id="edge1" class="edge">
<title>Node1&#45;&gt;Node2</title>
<path fill="none" stroke="midnightblue" d="M82.53,-288.65C109.2,-308.42 170.59,-353.91 206.98,-380.86"/>
<polygon fill="midnightblue" stroke="midnightblue" points="205.09,-383.83 215.21,-386.97 209.26,-378.2 205.09,-383.83"/>
</g>
<!-- Node20 -->
<g id="node20" class="node">
<title>Node20</title>
<g id="a_node20"><a xlink:href="rdcu__rmap_8c_a533d1eb248d83ba3d406cefe7f3c9eb9.html#a533d1eb248d83ba3d406cefe7f3c9eb9" target="_top" xlink:title="submit a sync command">
<polygon fill="white" stroke="black" points="204,-247.5 204,-266.5 269,-266.5 269,-247.5 204,-247.5"/>
<text text-anchor="middle" x="236.5" y="-254.5" font-family="Helvetica,sans-Serif" font-size="10.00">rdcu_sync</text>
</a>
</g>
</g>
<!-- Node1&#45;&gt;Node20 -->
<g id="edge20" class="edge">
<title>Node1&#45;&gt;Node20</title>
<path fill="none" stroke="midnightblue" d="M137.02,-270.05C156.2,-267.51 176.52,-264.82 193.69,-262.54"/>
<polygon fill="midnightblue" stroke="midnightblue" points="194.48,-265.97 203.93,-261.18 193.56,-259.03 194.48,-265.97"/>
</g>
<!-- Node3 -->
<g id="node3" class="node">
<title>Node3</title>
<g id="a_node3"><a xlink:href="rdcu__cmd_8c_a3274188041d4484130e893afc5f1630f.html#a3274188041d4484130e893afc5f1630f" target="_top" xlink:title="generate a read command for an arbitrary register (internal)">
<polygon fill="white" stroke="black" points="336,-438 336,-468 470,-468 470,-438 336,-438"/>
<text text-anchor="start" x="344" y="-456" font-family="Helvetica,sans-Serif" font-size="10.00">rdcu_read_cmd_register</text>
<text text-anchor="middle" x="403" y="-445" font-family="Helvetica,sans-Serif" font-size="10.00">_internal</text>
</a>
</g>
</g>
<!-- Node2&#45;&gt;Node3 -->
<g id="edge2" class="edge">
<title>Node2&#45;&gt;Node3</title>
<path fill="none" stroke="midnightblue" d="M285.97,-417.03C304.12,-422.66 324.94,-429.11 343.89,-434.98"/>
<polygon fill="midnightblue" stroke="midnightblue" points="343.01,-438.38 353.6,-437.99 345.08,-431.69 343.01,-438.38"/>
</g>
<!-- Node4 -->
<g id="node4" class="node">
<title>Node4</title>
<g id="a_node4"><a xlink:href="rdcu__rmap_8c_ab224927e85a7cec5b6f90292c7de36c4.html#ab224927e85a7cec5b6f90292c7de36c4" target="_top" xlink:title="generate an rmap command packet">
<polygon fill="white" stroke="black" points="510,-494.5 510,-513.5 597,-513.5 597,-494.5 510,-494.5"/>
<text text-anchor="middle" x="553.5" y="-501.5" font-family="Helvetica,sans-Serif" font-size="10.00">rdcu_gen_cmd</text>
</a>
</g>
</g>
<!-- Node3&#45;&gt;Node4 -->
<g id="edge3" class="edge">
<title>Node3&#45;&gt;Node4</title>
<path fill="none" stroke="midnightblue" d="M447.75,-468.03C469.07,-475.35 494.46,-484.07 514.9,-491.09"/>
<polygon fill="midnightblue" stroke="midnightblue" points="513.9,-494.44 524.49,-494.38 516.17,-487.82 513.9,-494.44"/>
</g>
<!-- Node5 -->
<g id="node5" class="node">
<title>Node5</title>
<g id="a_node5"><a xlink:href="rmap_8c_aa17375d153cc3473cbbe4dfe1056c527.html#aa17375d153cc3473cbbe4dfe1056c527" target="_top" xlink:title="build an rmap header">
<polygon fill="white" stroke="black" points="654,-646.5 654,-665.5 746,-665.5 746,-646.5 654,-646.5"/>
<text text-anchor="middle" x="700" y="-653.5" font-family="Helvetica,sans-Serif" font-size="10.00">rmap_build_hdr</text>
</a>
</g>
</g>
<!-- Node4&#45;&gt;Node5 -->
<g id="edge4" class="edge">
<title>Node4&#45;&gt;Node5</title>
<path fill="none" stroke="midnightblue" d="M557.76,-513.68C566.52,-538.17 592.88,-603 637,-637 639.34,-638.8 641.85,-640.44 644.48,-641.92"/>
<polygon fill="midnightblue" stroke="midnightblue" points="643.22,-645.19 653.75,-646.38 646.25,-638.89 643.22,-645.19"/>
</g>
<!-- Node7 -->
<g id="node7" class="node">
<title>Node7</title>
<g id="a_node7"><a xlink:href="rmap_8c_aba944cf978de0b264ea5bb3a784bce0f.html#aba944cf978de0b264ea5bb3a784bce0f" target="_top" xlink:title="create an RMAP packet and set defaults">
<polygon fill="white" stroke="black" points="812,-437.5 812,-456.5 928,-456.5 928,-437.5 812,-437.5"/>
<text text-anchor="middle" x="870" y="-444.5" font-family="Helvetica,sans-Serif" font-size="10.00">rmap_create_packet</text>
</a>
</g>
</g>
<!-- Node4&#45;&gt;Node7 -->
<g id="edge6" class="edge">
<title>Node4&#45;&gt;Node7</title>
<path fill="none" stroke="midnightblue" d="M582.93,-513.53C623.8,-525.69 701.06,-542.91 763,-523 799.03,-511.42 833.19,-482.57 852.57,-463.93"/>
<polygon fill="midnightblue" stroke="midnightblue" points="855.28,-466.17 859.93,-456.65 850.36,-461.19 855.28,-466.17"/>
</g>
<!-- Node8 -->
<g id="node8" class="node">
<title>Node8</title>
<g id="a_node8"><a xlink:href="rmap_8c_a1def9af549819e7fdbda12af8bdc9c0e.html#a1def9af549819e7fdbda12af8bdc9c0e" target="_top" xlink:title="completely destroys an RMAP packet">
<polygon fill="white" stroke="black" points="644,-228.5 644,-247.5 756,-247.5 756,-228.5 644,-228.5"/>
<text text-anchor="middle" x="700" y="-235.5" font-family="Helvetica,sans-Serif" font-size="10.00">rmap_erase_packet</text>
</a>
</g>
</g>
<!-- Node4&#45;&gt;Node8 -->
<g id="edge7" class="edge">
<title>Node4&#45;&gt;Node8</title>
<path fill="none" stroke="midnightblue" d="M556.72,-494.09C564.09,-462.7 589.97,-363.5 637,-295 648,-278.98 664.29,-264.23 677.41,-253.75"/>
<polygon fill="midnightblue" stroke="midnightblue" points="679.71,-256.4 685.48,-247.51 675.43,-250.86 679.71,-256.4"/>
</g>
<!-- Node9 -->
<g id="node9" class="node">
<title>Node9</title>
<g id="a_node9"><a xlink:href="rmap_8c_aab7e23f061291d39568ad2df700bc777.html#aab7e23f061291d39568ad2df700bc777" target="_top" xlink:title="set an RMAP command">
<polygon fill="white" stroke="black" points="655.5,-684.5 655.5,-703.5 744.5,-703.5 744.5,-684.5 655.5,-684.5"/>
<text text-anchor="middle" x="700" y="-691.5" font-family="Helvetica,sans-Serif" font-size="10.00">rmap_set_cmd</text>
</a>
</g>
</g>
<!-- Node4&#45;&gt;Node9 -->
<g id="edge8" class="edge">
<title>Node4&#45;&gt;Node9</title>
<path fill="none" stroke="midnightblue" d="M556.36,-513.79C562.4,-542.91 584.23,-629.7 637,-675 639.81,-677.42 642.93,-679.52 646.22,-681.36"/>
<polygon fill="midnightblue" stroke="midnightblue" points="644.74,-684.53 655.27,-685.64 647.72,-678.2 644.74,-684.53"/>
</g>
<!-- Node11 -->
<g id="node11" class="node">
<title>Node11</title>
<g id="a_node11"><a xlink:href="rmap_8c_acf641aae92829ae864b6c3d8f94d86e2.html#acf641aae92829ae864b6c3d8f94d86e2" target="_top" xlink:title="set a data address">
<polygon fill="white" stroke="black" points="642,-608.5 642,-627.5 758,-627.5 758,-608.5 642,-608.5"/>
<text text-anchor="middle" x="700" y="-615.5" font-family="Helvetica,sans-Serif" font-size="10.00">rmap_set_data_addr</text>
</a>
</g>
</g>
<!-- Node4&#45;&gt;Node11 -->
<g id="edge10" class="edge">
<title>Node4&#45;&gt;Node11</title>
<path fill="none" stroke="midnightblue" d="M560.24,-513.66C572.11,-532.81 601.29,-575.78 637,-599 640.16,-601.05 643.55,-602.9 647.06,-604.55"/>
<polygon fill="midnightblue" stroke="midnightblue" points="645.98,-607.88 656.56,-608.48 648.66,-601.42 645.98,-607.88"/>
</g>
<!-- Node12 -->
<g id="node12" class="node">
<title>Node12</title>
<g id="a_node12"><a xlink:href="rmap_8c_a6833f065640f652aa1a929309e592f7a.html#a6833f065640f652aa1a929309e592f7a" target="_top" xlink:title="set an RMAP command">
<polygon fill="white" stroke="black" points="645,-570.5 645,-589.5 755,-589.5 755,-570.5 645,-570.5"/>
<text text-anchor="middle" x="700" y="-577.5" font-family="Helvetica,sans-Serif" font-size="10.00">rmap_set_data_len</text>
</a>
</g>
</g>
<!-- Node4&#45;&gt;Node12 -->
<g id="edge11" class="edge">
<title>Node4&#45;&gt;Node12</title>
<path fill="none" stroke="midnightblue" d="M568.04,-513.68C584,-524.82 611.59,-543.22 637,-556 644.78,-559.91 653.36,-563.6 661.6,-566.87"/>
<polygon fill="midnightblue" stroke="midnightblue" points="660.45,-570.17 671.04,-570.48 662.95,-563.64 660.45,-570.17"/>
</g>
<!-- Node13 -->
<g id="node13" class="node">
<title>Node13</title>
<g id="a_node13"><a xlink:href="rmap_8c_a5f0081b9928da5e50fc8b231b57f3a80.html#a5f0081b9928da5e50fc8b231b57f3a80" target="_top" xlink:title="set the destination address path">
<polygon fill="white" stroke="black" points="642,-342.5 642,-361.5 758,-361.5 758,-342.5 642,-342.5"/>
<text text-anchor="middle" x="700" y="-349.5" font-family="Helvetica,sans-Serif" font-size="10.00">rmap_set_dest_path</text>
</a>
</g>
</g>
<!-- Node4&#45;&gt;Node13 -->
<g id="edge12" class="edge">
<title>Node4&#45;&gt;Node13</title>
<path fill="none" stroke="midnightblue" d="M557.76,-494.32C566.52,-469.83 592.88,-405 637,-371 639.34,-369.2 641.85,-367.56 644.48,-366.08"/>
<polygon fill="midnightblue" stroke="midnightblue" points="646.25,-369.11 653.75,-361.62 643.22,-362.81 646.25,-369.11"/>
</g>
<!-- Node15 -->
<g id="node15" class="node">
<title>Node15</title>
<g id="a_node15"><a xlink:href="rmap_8c_a2da8e7b48411d382b54848795f85795d.html#a2da8e7b48411d382b54848795f85795d" target="_top" xlink:title="set the destination (target) logical address">
<polygon fill="white" stroke="black" points="658.5,-494.5 658.5,-513.5 741.5,-513.5 741.5,-494.5 658.5,-494.5"/>
<text text-anchor="middle" x="700" y="-501.5" font-family="Helvetica,sans-Serif" font-size="10.00">rmap_set_dst</text>
</a>
</g>
</g>
<!-- Node4&#45;&gt;Node15 -->
<g id="edge14" class="edge">
<title>Node4&#45;&gt;Node15</title>
<path fill="none" stroke="midnightblue" d="M597.07,-504C613.07,-504 631.41,-504 648.09,-504"/>
<polygon fill="midnightblue" stroke="midnightblue" points="648.22,-507.5 658.22,-504 648.22,-500.5 648.22,-507.5"/>
</g>
<!-- Node16 -->
<g id="node16" class="node">
<title>Node16</title>
<g id="a_node16"><a xlink:href="rmap_8c_a15021c9dfccddc44786dfd37834bcd7e.html#a15021c9dfccddc44786dfd37834bcd7e" target="_top" xlink:title="set the command authorisation key">
<polygon fill="white" stroke="black" points="657.5,-456.5 657.5,-475.5 742.5,-475.5 742.5,-456.5 657.5,-456.5"/>
<text text-anchor="middle" x="700" y="-463.5" font-family="Helvetica,sans-Serif" font-size="10.00">rmap_set_key</text>
</a>
</g>
</g>
<!-- Node4&#45;&gt;Node16 -->
<g id="edge15" class="edge">
<title>Node4&#45;&gt;Node16</title>
<path fill="none" stroke="midnightblue" d="M590.96,-494.41C609.77,-489.46 632.91,-483.38 652.95,-478.11"/>
<polygon fill="midnightblue" stroke="midnightblue" points="654.02,-481.45 662.8,-475.52 652.24,-474.68 654.02,-481.45"/>
</g>
<!-- Node17 -->
<g id="node17" class="node">
<title>Node17</title>
<g id="a_node17"><a xlink:href="rmap_8c_a56c47830e67d01e469231e5e7e1d3a34.html#a56c47830e67d01e469231e5e7e1d3a34" target="_top" xlink:title="set the reply address path">
<polygon fill="white" stroke="black" points="640.5,-304.5 640.5,-323.5 759.5,-323.5 759.5,-304.5 640.5,-304.5"/>
<text text-anchor="middle" x="700" y="-311.5" font-family="Helvetica,sans-Serif" font-size="10.00">rmap_set_reply_path</text>
</a>
</g>
</g>
<!-- Node4&#45;&gt;Node17 -->
<g id="edge16" class="edge">
<title>Node4&#45;&gt;Node17</title>
<path fill="none" stroke="midnightblue" d="M556.36,-494.21C562.4,-465.09 584.23,-378.3 637,-333 638.98,-331.3 641.11,-329.75 643.35,-328.34"/>
<polygon fill="midnightblue" stroke="midnightblue" points="645.2,-331.32 652.41,-323.56 641.93,-325.13 645.2,-331.32"/>
</g>
<!-- Node18 -->
<g id="node18" class="node">
<title>Node18</title>
<g id="a_node18"><a xlink:href="rmap_8c_adae0030440ca4e7ad34622e505acbb2c.html#adae0030440ca4e7ad34622e505acbb2c" target="_top" xlink:title="set the source (initiator) logical address">
<polygon fill="white" stroke="black" points="659,-418.5 659,-437.5 741,-437.5 741,-418.5 659,-418.5"/>
<text text-anchor="middle" x="700" y="-425.5" font-family="Helvetica,sans-Serif" font-size="10.00">rmap_set_src</text>
</a>
</g>
</g>
<!-- Node4&#45;&gt;Node18 -->
<g id="edge18" class="edge">
<title>Node4&#45;&gt;Node18</title>
<path fill="none" stroke="midnightblue" d="M565.82,-494.48C581.1,-482.04 609.58,-460.28 637,-447 641.63,-444.76 646.58,-442.71 651.6,-440.86"/>
<polygon fill="midnightblue" stroke="midnightblue" points="652.92,-444.1 661.24,-437.54 650.65,-437.48 652.92,-444.1"/>
</g>
<!-- Node19 -->
<g id="node19" class="node">
<title>Node19</title>
<g id="a_node19"><a xlink:href="rmap_8c_a7b4c31714493ce6cc19d4aa825ab50aa.html#a7b4c31714493ce6cc19d4aa825ab50aa" target="_top" xlink:title="set an RMAP transaction identifier">
<polygon fill="white" stroke="black" points="655.5,-722.5 655.5,-741.5 744.5,-741.5 744.5,-722.5 655.5,-722.5"/>
<text text-anchor="middle" x="700" y="-729.5" font-family="Helvetica,sans-Serif" font-size="10.00">rmap_set_tr_id</text>
</a>
</g>
</g>
<!-- Node4&#45;&gt;Node19 -->
<g id="edge19" class="edge">
<title>Node4&#45;&gt;Node19</title>
<path fill="none" stroke="midnightblue" d="M555.38,-513.52C558.93,-546.34 575.12,-655.81 637,-713 639.77,-715.56 642.87,-717.77 646.17,-719.69"/>
<polygon fill="midnightblue" stroke="midnightblue" points="644.77,-722.9 655.3,-724.09 647.82,-716.59 644.77,-722.9"/>
</g>
<!-- Node6 -->
<g id="node6" class="node">
<title>Node6</title>
<g id="a_node6"><a xlink:href="rmap_8c_a0ec3c28e83818f02e00d4c79d82d938a.html#a0ec3c28e83818f02e00d4c79d82d938a" target="_top" xlink:title="get the minimum header size given the RMAP instruction">
<polygon fill="white" stroke="black" points="803.5,-532.5 803.5,-551.5 936.5,-551.5 936.5,-532.5 803.5,-532.5"/>
<text text-anchor="middle" x="870" y="-539.5" font-family="Helvetica,sans-Serif" font-size="10.00">rmap_get_min_hdr_size</text>
</a>
</g>
</g>
<!-- Node5&#45;&gt;Node6 -->
<g id="edge5" class="edge">
<title>Node5&#45;&gt;Node6</title>
<path fill="none" stroke="midnightblue" d="M741.42,-646.4C748.83,-643.87 756.33,-640.76 763,-637 800.04,-616.08 835.2,-580.34 854.26,-559.17"/>
<polygon fill="midnightblue" stroke="midnightblue" points="856.96,-561.39 860.96,-551.58 851.72,-556.75 856.96,-561.39"/>
</g>
<!-- Node10 -->
<g id="node10" class="node">
<title>Node10</title>
<g id="a_node10"><a xlink:href="rmap_8c_a667ce871110961f2a611d0244791e20f.html#a667ce871110961f2a611d0244791e20f" target="_top" xlink:title="valiidates a command code">
<polygon fill="white" stroke="black" points="799,-684.5 799,-703.5 941,-703.5 941,-684.5 799,-684.5"/>
<text text-anchor="middle" x="870" y="-691.5" font-family="Helvetica,sans-Serif" font-size="10.00">rmap_validate_cmd_code</text>
</a>
</g>
</g>
<!-- Node9&#45;&gt;Node10 -->
<g id="edge9" class="edge">
<title>Node9&#45;&gt;Node10</title>
<path fill="none" stroke="midnightblue" d="M744.7,-694C758.13,-694 773.36,-694 788.44,-694"/>
<polygon fill="midnightblue" stroke="midnightblue" points="788.83,-697.5 798.83,-694 788.83,-690.5 788.83,-697.5"/>
</g>
<!-- Node14 -->
<g id="node14" class="node">
<title>Node14</title>
<g id="a_node14"><a xlink:href="test__cmp__max__used__bits__list_8c_a7ac38fce3243a7dcf448301ee9ffd392.html#a7ac38fce3243a7dcf448301ee9ffd392" target="_top" xlink:title=" ">
<polygon fill="white" stroke="black" points="845,-304.5 845,-323.5 895,-323.5 895,-304.5 845,-304.5"/>
<text text-anchor="middle" x="870" y="-311.5" font-family="Helvetica,sans-Serif" font-size="10.00">malloc</text>
</a>
</g>
</g>
<!-- Node13&#45;&gt;Node14 -->
<g id="edge13" class="edge">
<title>Node13&#45;&gt;Node14</title>
<path fill="none" stroke="midnightblue" d="M743.39,-342.41C771.71,-336.01 808.47,-327.69 834.9,-321.71"/>
<polygon fill="midnightblue" stroke="midnightblue" points="835.85,-325.09 844.83,-319.47 834.3,-318.26 835.85,-325.09"/>
</g>
<!-- Node17&#45;&gt;Node14 -->
<g id="edge17" class="edge">
<title>Node17&#45;&gt;Node14</title>
<path fill="none" stroke="midnightblue" d="M759.76,-314C784.69,-314 812.89,-314 834.39,-314"/>
<polygon fill="midnightblue" stroke="midnightblue" points="834.67,-317.5 844.67,-314 834.67,-310.5 834.67,-317.5"/>
</g>
<!-- Node20&#45;&gt;Node14 -->
<g id="edge21" class="edge">
<title>Node20&#45;&gt;Node14</title>
<path fill="none" stroke="midnightblue" d="M269.01,-258.12C350.79,-261.28 576.49,-271.61 763,-295 787.12,-298.03 814.09,-302.88 834.78,-306.92"/>
<polygon fill="midnightblue" stroke="midnightblue" points="834.2,-310.38 844.69,-308.89 835.57,-303.51 834.2,-310.38"/>
</g>
<!-- Node21 -->
<g id="node21" class="node">
<title>Node21</title>
<g id="a_node21"><a xlink:href="rdcu__rmap_8c_a95fad3cd9b6bbe562e1a73e3f1c108a8.html#a95fad3cd9b6bbe562e1a73e3f1c108a8" target="_top" xlink:title="submit an rmap command transaction">
<polygon fill="white" stroke="black" points="357,-228.5 357,-247.5 449,-247.5 449,-228.5 357,-228.5"/>
<text text-anchor="middle" x="403" y="-235.5" font-family="Helvetica,sans-Serif" font-size="10.00">rdcu_submit_tx</text>
</a>
</g>
</g>
<!-- Node20&#45;&gt;Node21 -->
<g id="edge22" class="edge">
<title>Node20&#45;&gt;Node21</title>
<path fill="none" stroke="midnightblue" d="M269.22,-253.34C291.14,-250.8 320.89,-247.37 346.67,-244.39"/>
<polygon fill="midnightblue" stroke="midnightblue" points="347.16,-247.86 356.7,-243.23 346.36,-240.9 347.16,-247.86"/>
</g>
<!-- Node32 -->
<g id="node32" class="node">
<title>Node32</title>
<g id="a_node32"><a xlink:href="rdcu__rmap_8c_a36f44335aa66dd49fb4903f7269bc5b1.html#a36f44335aa66dd49fb4903f7269bc5b1" target="_top" xlink:title="grab a slot in the transaction log">
<polygon fill="white" stroke="black" points="347,-190.5 347,-209.5 459,-209.5 459,-190.5 347,-190.5"/>
<text text-anchor="middle" x="403" y="-197.5" font-family="Helvetica,sans-Serif" font-size="10.00">trans_log_grab_slot</text>
</a>
</g>
</g>
<!-- Node20&#45;&gt;Node32 -->
<g id="edge38" class="edge">
<title>Node20&#45;&gt;Node32</title>
<path fill="none" stroke="midnightblue" d="M260.77,-247.36C280.6,-239.3 309.94,-227.76 336,-219 342.61,-216.78 349.64,-214.58 356.55,-212.51"/>
<polygon fill="midnightblue" stroke="midnightblue" points="357.93,-215.76 366.54,-209.59 355.96,-209.04 357.93,-215.76"/>
</g>
<!-- Node22 -->
<g id="node22" class="node">
<title>Node22</title>
<g id="a_node22"><a xlink:href="rdcu__rmap_8c_a1a064554031c2fa2dcb65541e0765c0f.html#a1a064554031c2fa2dcb65541e0765c0f" target="_top" xlink:title="n rmap command transaction">
<polygon fill="white" stroke="black" points="506,-171.5 506,-190.5 601,-190.5 601,-171.5 506,-171.5"/>
<text text-anchor="middle" x="553.5" y="-178.5" font-family="Helvetica,sans-Serif" font-size="10.00">rdcu_process_rx</text>
</a>
</g>
</g>
<!-- Node21&#45;&gt;Node22 -->
<g id="edge23" class="edge">
<title>Node21&#45;&gt;Node22</title>
<path fill="none" stroke="midnightblue" d="M440.98,-228.42C450.52,-225.66 460.72,-222.45 470,-219 488.61,-212.08 508.86,-202.78 524.64,-195.11"/>
<polygon fill="midnightblue" stroke="midnightblue" points="526.41,-198.14 533.84,-190.58 523.32,-191.86 526.41,-198.14"/>
</g>
<!-- Node22&#45;&gt;Node8 -->
<g id="edge26" class="edge">
<title>Node22&#45;&gt;Node8</title>
<path fill="none" stroke="midnightblue" d="M578.3,-190.6C594.76,-197.22 617.19,-206.2 637,-214 645.99,-217.54 655.73,-221.33 664.77,-224.83"/>
<polygon fill="midnightblue" stroke="midnightblue" points="663.65,-228.15 674.24,-228.49 666.17,-221.62 663.65,-228.15"/>
</g>
<!-- Node22&#45;&gt;Node14 -->
<g id="edge24" class="edge">
<title>Node22&#45;&gt;Node14</title>
<path fill="none" stroke="midnightblue" d="M601.07,-182.28C644.88,-185.11 711.29,-193.67 763,-219 801.4,-237.81 836.32,-274.59 854.92,-296.46"/>
<polygon fill="midnightblue" stroke="midnightblue" points="852.35,-298.85 861.43,-304.3 857.73,-294.37 852.35,-298.85"/>
</g>
<!-- Node23 -->
<g id="node23" class="node">
<title>Node23</title>
<g id="a_node23"><a xlink:href="rmap_8c_abf1868ec6873f9f189050cadc7e64a3b.html#abf1868ec6873f9f189050cadc7e64a3b" target="_top" xlink:title="calculate the CRC8 of a given buffer">
<polygon fill="white" stroke="black" points="666,-76.5 666,-95.5 734,-95.5 734,-76.5 666,-76.5"/>
<text text-anchor="middle" x="700" y="-83.5" font-family="Helvetica,sans-Serif" font-size="10.00">rmap_crc8</text>
</a>
</g>
</g>
<!-- Node22&#45;&gt;Node23 -->
<g id="edge25" class="edge">
<title>Node22&#45;&gt;Node23</title>
<path fill="none" stroke="midnightblue" d="M562.37,-171.36C575.95,-155.32 605.41,-123.12 637,-105 642.9,-101.61 649.48,-98.76 656.08,-96.39"/>
<polygon fill="midnightblue" stroke="midnightblue" points="657.27,-99.68 665.69,-93.25 655.09,-93.03 657.27,-99.68"/>
</g>
<!-- Node24 -->
<g id="node24" class="node">
<title>Node24</title>
<g id="a_node24"><a xlink:href="rmap_8c_a5e88a29337404518eceedf9b4af285bf.html#a5e88a29337404518eceedf9b4af285bf" target="_top" xlink:title=" ">
<polygon fill="white" stroke="black" points="652.5,-38.5 652.5,-57.5 747.5,-57.5 747.5,-38.5 652.5,-38.5"/>
<text text-anchor="middle" x="700" y="-45.5" font-family="Helvetica,sans-Serif" font-size="10.00">rmap_parse_pkt</text>
</a>
</g>
</g>
<!-- Node22&#45;&gt;Node24 -->
<g id="edge27" class="edge">
<title>Node22&#45;&gt;Node24</title>
<path fill="none" stroke="midnightblue" d="M558.76,-171.43C568.98,-149.55 597.06,-95.57 637,-67 639.7,-65.07 642.6,-63.33 645.62,-61.76"/>
<polygon fill="midnightblue" stroke="midnightblue" points="647.27,-64.86 654.96,-57.57 644.4,-58.48 647.27,-64.86"/>
</g>
<!-- Node29 -->
<g id="node29" class="node">
<title>Node29</title>
<g id="a_node29"><a xlink:href="rmap_8c_a46d3271304c12df042b57dbebaba67e1.html#a46d3271304c12df042b57dbebaba67e1" target="_top" xlink:title="create an rmap packet from a buffer">
<polygon fill="white" stroke="black" points="637.5,-380.5 637.5,-399.5 762.5,-399.5 762.5,-380.5 637.5,-380.5"/>
<text text-anchor="middle" x="700" y="-387.5" font-family="Helvetica,sans-Serif" font-size="10.00">rmap_pkt_from_buffer</text>
</a>
</g>
</g>
<!-- Node22&#45;&gt;Node29 -->
<g id="edge32" class="edge">
<title>Node22&#45;&gt;Node29</title>
<path fill="none" stroke="midnightblue" d="M555.8,-190.52C560.52,-221.4 579.62,-319.72 637,-371 638.91,-372.71 640.97,-374.26 643.14,-375.67"/>
<polygon fill="midnightblue" stroke="midnightblue" points="641.49,-378.76 651.95,-380.46 644.84,-372.61 641.49,-378.76"/>
</g>
<!-- Node30 -->
<g id="node30" class="node">
<title>Node30</title>
<g id="a_node30"><a xlink:href="rdcu__rmap_8c_acf9b176d8d9b24e9d07711f56aebccc0.html#acf9b176d8d9b24e9d07711f56aebccc0" target="_top" xlink:title="get the local address for a slot">
<polygon fill="white" stroke="black" points="645,-152.5 645,-171.5 755,-171.5 755,-152.5 645,-152.5"/>
<text text-anchor="middle" x="700" y="-159.5" font-family="Helvetica,sans-Serif" font-size="10.00">trans_log_get_addr</text>
</a>
</g>
</g>
<!-- Node22&#45;&gt;Node30 -->
<g id="edge36" class="edge">
<title>Node22&#45;&gt;Node30</title>
<path fill="none" stroke="midnightblue" d="M601.02,-174.88C611.69,-173.48 623.23,-171.96 634.51,-170.48"/>
<polygon fill="midnightblue" stroke="midnightblue" points="635.31,-173.9 644.77,-169.13 634.4,-166.96 635.31,-173.9"/>
</g>
<!-- Node31 -->
<g id="node31" class="node">
<title>Node31</title>
<g id="a_node31"><a xlink:href="rdcu__rmap_8c_a7012f58a1862cf07b00e299d24c199c2.html#a7012f58a1862cf07b00e299d24c199c2" target="_top" xlink:title="release a slot in the transaction log">
<polygon fill="white" stroke="black" points="637,-114.5 637,-133.5 763,-133.5 763,-114.5 637,-114.5"/>
<text text-anchor="middle" x="700" y="-121.5" font-family="Helvetica,sans-Serif" font-size="10.00">trans_log_release_slot</text>
</a>
</g>
</g>
<!-- Node22&#45;&gt;Node31 -->
<g id="edge37" class="edge">
<title>Node22&#45;&gt;Node31</title>
<path fill="none" stroke="midnightblue" d="M573.52,-171.35C590.05,-163.18 614.75,-151.49 637,-143 642.87,-140.76 649.12,-138.6 655.31,-136.58"/>
<polygon fill="midnightblue" stroke="midnightblue" points="656.45,-139.89 664.93,-133.54 654.34,-133.22 656.45,-139.89"/>
</g>
<!-- Node25 -->
<g id="node25" class="node">
<title>Node25</title>
<g id="a_node25"><a xlink:href="rmap_8c_abb4e19c17c7223212c3904bc4c0189d2.html#abb4e19c17c7223212c3904bc4c0189d2" target="_top" xlink:title=" ">
<polygon fill="white" stroke="black" points="814.5,-76.5 814.5,-95.5 925.5,-95.5 925.5,-76.5 814.5,-76.5"/>
<text text-anchor="middle" x="870" y="-83.5" font-family="Helvetica,sans-Serif" font-size="10.00">rmap_check_status</text>
</a>
</g>
</g>
<!-- Node24&#45;&gt;Node25 -->
<g id="edge28" class="edge">
<title>Node24&#45;&gt;Node25</title>
<path fill="none" stroke="midnightblue" d="M743.39,-57.59C765.76,-62.65 793.4,-68.9 817.05,-74.25"/>
<polygon fill="midnightblue" stroke="midnightblue" points="816.39,-77.69 826.91,-76.48 817.93,-70.86 816.39,-77.69"/>
</g>
<!-- Node26 -->
<g id="node26" class="node">
<title>Node26</title>
<g id="a_node26"><a xlink:href="rmap_8c_a20aa8b91dfb1bbad819759f97b853054.html#a20aa8b91dfb1bbad819759f97b853054" target="_top" xlink:title=" ">
<polygon fill="white" stroke="black" points="809,-38.5 809,-57.5 931,-57.5 931,-38.5 809,-38.5"/>
<text text-anchor="middle" x="870" y="-45.5" font-family="Helvetica,sans-Serif" font-size="10.00">rmap_parse_cmd_pkt</text>
</a>
</g>
</g>
<!-- Node24&#45;&gt;Node26 -->
<g id="edge29" class="edge">
<title>Node24&#45;&gt;Node26</title>
<path fill="none" stroke="midnightblue" d="M747.8,-48C763.62,-48 781.66,-48 798.89,-48"/>
<polygon fill="midnightblue" stroke="midnightblue" points="798.92,-51.5 808.92,-48 798.92,-44.5 798.92,-51.5"/>
</g>
<!-- Node27 -->
<g id="node27" class="node">
<title>Node27</title>
<g id="a_node27"><a xlink:href="rmap_8c_adef42426b46ee5ad5176ee76cff35c22.html#adef42426b46ee5ad5176ee76cff35c22" target="_top" xlink:title=" ">
<polygon fill="white" stroke="black" points="807.5,-0.5 807.5,-19.5 932.5,-19.5 932.5,-0.5 807.5,-0.5"/>
<text text-anchor="middle" x="870" y="-7.5" font-family="Helvetica,sans-Serif" font-size="10.00">rmap_parse_reply_pkt</text>
</a>
</g>
</g>
<!-- Node24&#45;&gt;Node27 -->
<g id="edge30" class="edge">
<title>Node24&#45;&gt;Node27</title>
<path fill="none" stroke="midnightblue" d="M743.39,-38.41C765.76,-33.35 793.4,-27.1 817.05,-21.75"/>
<polygon fill="midnightblue" stroke="midnightblue" points="817.93,-25.14 826.91,-19.52 816.39,-18.31 817.93,-25.14"/>
</g>
<!-- Node28 -->
<g id="node28" class="node">
<title>Node28</title>
<g id="a_node28"><a xlink:href="rmap_8c_a2ff278a5e094a9f585865d4d838e0e0e.html#a2ff278a5e094a9f585865d4d838e0e0e" target="_top" xlink:title=" ">
<polygon fill="white" stroke="black" points="977,-0.5 977,-19.5 1119,-19.5 1119,-0.5 977,-0.5"/>
<text text-anchor="middle" x="1048" y="-7.5" font-family="Helvetica,sans-Serif" font-size="10.00">rmap_process_read_reply</text>
</a>
</g>
</g>
<!-- Node27&#45;&gt;Node28 -->
<g id="edge31" class="edge">
<title>Node27&#45;&gt;Node28</title>
<path fill="none" stroke="midnightblue" d="M932.56,-10C943.6,-10 955.25,-10 966.73,-10"/>
<polygon fill="midnightblue" stroke="midnightblue" points="966.74,-13.5 976.74,-10 966.74,-6.5 966.74,-13.5"/>
</g>
<!-- Node29&#45;&gt;Node6 -->
<g id="edge35" class="edge">
<title>Node29&#45;&gt;Node6</title>
<path fill="none" stroke="midnightblue" d="M745.9,-399.53C752,-402 757.9,-405.1 763,-409 786.81,-427.19 780.78,-442.22 799,-466 815.39,-487.38 836.64,-509.84 851.41,-524.74"/>
<polygon fill="midnightblue" stroke="midnightblue" points="849.32,-527.61 858.87,-532.19 854.27,-522.65 849.32,-527.61"/>
</g>
<!-- Node29&#45;&gt;Node7 -->
<g id="edge34" class="edge">
<title>Node29&#45;&gt;Node7</title>
<path fill="none" stroke="midnightblue" d="M733.27,-399.58C742.87,-402.51 753.38,-405.81 763,-409 786.76,-416.89 813.27,-426.4 833.83,-433.93"/>
<polygon fill="midnightblue" stroke="midnightblue" points="832.82,-437.28 843.41,-437.45 835.23,-430.71 832.82,-437.28"/>
</g>
<!-- Node29&#45;&gt;Node14 -->
<g id="edge33" class="edge">
<title>Node29&#45;&gt;Node14</title>
<path fill="none" stroke="midnightblue" d="M736.51,-380.43C745.29,-377.7 754.58,-374.51 763,-371 792.06,-358.87 823.64,-341.27 844.7,-328.84"/>
<polygon fill="midnightblue" stroke="midnightblue" points="846.52,-331.83 853.32,-323.7 842.94,-325.82 846.52,-331.83"/>
</g>
</g>
</svg>
        <g id="navigator" transform="translate(0 0)" fill="#404254">
                <rect fill="#f2f5e9" fill-opacity="0.5" stroke="#606060" stroke-width=".5" x="0" y="0" width="60" height="60"/>
                <use id="zoomplus" xlink:href="#zoomPlus" x="17" y="9" onmousedown="handleZoom(evt,'in')"/>
                <use id="zoomminus" xlink:href="#zoomMin" x="42" y="9" onmousedown="handleZoom(evt,'out')"/>
                <use id="reset" xlink:href="#resetDef" x="30" y="36" onmousedown="handleReset()"/>
                <g id="arrowUp" xlink:href="#dirArrow" transform="translate(30 24)" onmousedown="handlePan(0,-1)">
                  <use xlink:href="#rim" fill="#404040">
                        <set attributeName="fill" to="#808080" begin="arrowUp.mouseover" end="arrowUp.mouseout"/>
                  </use>
                  <path fill="none" stroke="white" stroke-width="1.5" d="M0,-3.0v7 M-2.5,-0.5L0,-3.0L2.5,-0.5"/>
                </g>
                <g id="arrowRight" xlink:href="#dirArrow" transform="rotate(90) translate(36 -43)" onmousedown="handlePan(1,0)">
                  <use xlink:href="#rim" fill="#404040">
                        <set attributeName="fill" to="#808080" begin="arrowRight.mouseover" end="arrowRight.mouseout"/>
                  </use>
                  <path fill="none" stroke="white" stroke-width="1.5" d="M0,-3.0v7 M-2.5,-0.5L0,-3.0L2.5,-0.5"/>
                </g>
                <g id="arrowDown" xlink:href="#dirArrow" transform="rotate(180) translate(-30 -48)" onmousedown="handlePan(0,1)">
                  <use xlink:href="#rim" fill="#404040">
                        <set attributeName="fill" to="#808080" begin="arrowDown.mouseover" end="arrowDown.mouseout"/>
                  </use>
                  <path fill="none" stroke="white" stroke-width="1.5" d="M0,-3.0v7 M-2.5,-0.5L0,-3.0L2.5,-0.5"/>
                </g>
                <g id="arrowLeft" xlink:href="#dirArrow" transform="rotate(270) translate(-36 17)" onmousedown="handlePan(-1,0)">
                  <use xlink:href="#rim" fill="#404040">
                        <set attributeName="fill" to="#808080" begin="arrowLeft.mouseover" end="arrowLeft.mouseout"/>
                  </use>
                  <path fill="none" stroke="white" stroke-width="1.5" d="M0,-3.0v7 M-2.5,-0.5L0,-3.0L2.5,-0.5"/>
                </g>
        </g>
        <svg viewBox="0 0 15 15" width="100%" height="30px" preserveAspectRatio="xMaxYMin meet">
         <g id="arrow_out" transform="scale(0.3 0.3)">
          <a xlink:href="rdcu__ctrl_8h_a8b6fe99cdb713589e8a57a00fc1d1160_a8b6fe99cdb713589e8a57a00fc1d1160_cgraph_org.svg" target="_base">
           <rect id="button" ry="5" rx="5" y="6" x="6" height="38" width="38"
                fill="#f2f5e9" fill-opacity="0.5" stroke="#606060" stroke-width="1.0"/>
           <path id="arrow"
             d="M 11.500037,31.436501 C 11.940474,20.09759 22.043105,11.32322 32.158766,21.979434 L 37.068811,17.246167 C 37.068811,17.246167 37.088388,32 37.088388,32 L 22.160133,31.978069 C 22.160133,31.978069 26.997745,27.140456 26.997745,27.140456 C 18.528582,18.264221 13.291696,25.230495 11.500037,31.436501 z"
             style="fill:#404040;"/>
          </a>
         </g>
        </svg>
</svg>
