<?xml version="1.0" encoding="UTF-8" standalone="no"?>
<!DOCTYPE svg PUBLIC "-//W3C//DTD SVG 1.1//EN"
 "http://www.w3.org/Graphics/SVG/1.1/DTD/svg11.dtd">
<!-- Generated by graphviz version 2.43.0 (0)
 -->
<!-- Title: rdcu_sync_compr_data_size Pages: 1 -->
<!--zoomable 750 -->
<svg id="main" version="1.1" xmlns="http://www.w3.org/2000/svg" xmlns:xlink="http://www.w3.org/1999/xlink" xml:space="preserve" onload="init(evt)">
<style type="text/css"><![CDATA[
.edge:hover path { stroke: red; }
.edge:hover polygon { stroke: red; fill: red; }
]]></style>
<script type="text/javascript"><![CDATA[
var edges = document.getElementsByTagName('g');
if (edges && edges.length) {
  for (var i=0;i<edges.length;i++) {
    if (edges[i].id.substr(0,4)=='edge') {
      edges[i].setAttribute('class','edge');
    }
  }
}
]]></script>
        <defs>
                <circle id="rim" cx="0" cy="0" r="7"/>
                <circle id="rim2" cx="0" cy="0" r="3.5"/>
                <g id="zoomPlus">
                        <use xlink:href="#rim" fill="#404040">
                                <set attributeName="fill" to="#808080" begin="zoomplus.mouseover" end="zoomplus.mouseout"/>
                        </use>
                        <path d="M-4,0h8M0,-4v8" fill="none" stroke="white" stroke-width="1.5" pointer-events="none"/>
                </g>
                <g id="zoomMin">
                        <use xlink:href="#rim" fill="#404040">
                                <set attributeName="fill" to="#808080" begin="zoomminus.mouseover" end="zoomminus.mouseout"/>
                        </use>
                        <path d="M-4,0h8" fill="none" stroke="white" stroke-width="1.5" pointer-events="none"/>
                </g>
                <g id="dirArrow">
                        <path fill="none" stroke="white" stroke-width="1.5" d="M0,-3.0v7 M-2.5,-0.5L0,-3.0L2.5,-0.5"/>
                </g>
               <g id="resetDef">
                       <use xlink:href="#rim2" fill="#404040">
                               <set attributeName="fill" to="#808080" begin="reset.mouseover" end="reset.mouseout"/>
                       </use>
               </g>
        </defs>

<script type="text/javascript">
var viewWidth = 1143;
var viewHeight = 750;
var sectionId = 'dynsection-0';
</script>
<script xlink:href="svgpan.js"/>
<svg id="graph" class="graph">
<g id="viewport">
<title>rdcu_sync_compr_data_size</title>
<polygon fill="white" stroke="transparent" points="-4,4 -4,-746 1139,-746 1139,4 -4,4"/>
<!-- Node1 -->
<g id="node1" class="node">
<title>Node1</title>
<g id="a_node1"><a xlink:title="sync the Compressed Data Start Size (read only)">
<polygon fill="#bfbfbf" stroke="black" points="0,-269.5 0,-288.5 153,-288.5 153,-269.5 0,-269.5"/>
<text text-anchor="middle" x="76.5" y="-276.5" font-family="Helvetica,sans-Serif" font-size="10.00">rdcu_sync_compr_data_size</text>
</a>
</g>
</g>
<!-- Node2 -->
<g id="node2" class="node">
<title>Node2</title>
<g id="a_node2"><a xlink:href="rdcu__cmd_8c_a4bdc6be33663c0a5fe3cb92b30f9a38d.html#a4bdc6be33663c0a5fe3cb92b30f9a38d" target="_top" xlink:title="create a command to read the RDCU compressed data size register">
<polygon fill="white" stroke="black" points="189,-387 189,-417 316,-417 316,-387 189,-387"/>
<text text-anchor="start" x="197" y="-405" font-family="Helvetica,sans-Serif" font-size="10.00">rdcu_read_cmd_compr</text>
<text text-anchor="middle" x="252.5" y="-394" font-family="Helvetica,sans-Serif" font-size="10.00">_data_size</text>
</a>
</g>
</g>
<!-- Node1&#45;&gt;Node2 -->
<g id="edge1" class="edge">
<title>Node1&#45;&gt;Node2</title>
<path fill="none" stroke="midnightblue" d="M91.15,-288.65C119.12,-308.42 183.47,-353.91 221.6,-380.86"/>
<polygon fill="midnightblue" stroke="midnightblue" points="220.05,-384.05 230.23,-386.97 224.09,-378.34 220.05,-384.05"/>
</g>
<!-- Node20 -->
<g id="node20" class="node">
<title>Node20</title>
<g id="a_node20"><a xlink:href="rdcu__rmap_8c_a533d1eb248d83ba3d406cefe7f3c9eb9.html#a533d1eb248d83ba3d406cefe7f3c9eb9" target="_top" xlink:title="submit a sync command">
<polygon fill="white" stroke="black" points="220,-247.5 220,-266.5 285,-266.5 285,-247.5 220,-247.5"/>
<text text-anchor="middle" x="252.5" y="-254.5" font-family="Helvetica,sans-Serif" font-size="10.00">rdcu_sync</text>
</a>
</g>
</g>
<!-- Node1&#45;&gt;Node20 -->
<g id="edge20" class="edge">
<title>Node1&#45;&gt;Node20</title>
<path fill="none" stroke="midnightblue" d="M152.81,-269.48C172.28,-267.02 192.55,-264.45 209.61,-262.3"/>
<polygon fill="midnightblue" stroke="midnightblue" points="210.31,-265.74 219.79,-261.01 209.43,-258.79 210.31,-265.74"/>
</g>
<!-- Node3 -->
<g id="node3" class="node">
<title>Node3</title>
<g id="a_node3"><a xlink:href="rdcu__cmd_8c_a3274188041d4484130e893afc5f1630f.html#a3274188041d4484130e893afc5f1630f" target="_top" xlink:title="generate a read command for an arbitrary register (internal)">
<polygon fill="white" stroke="black" points="352,-438 352,-468 486,-468 486,-438 352,-438"/>
<text text-anchor="start" x="360" y="-456" font-family="Helvetica,sans-Serif" font-size="10.00">rdcu_read_cmd_register</text>
<text text-anchor="middle" x="419" y="-445" font-family="Helvetica,sans-Serif" font-size="10.00">_internal</text>
</a>
</g>
</g>
<!-- Node2&#45;&gt;Node3 -->
<g id="edge2" class="edge">
<title>Node2&#45;&gt;Node3</title>
<path fill="none" stroke="midnightblue" d="M301.97,-417.03C320.12,-422.66 340.94,-429.11 359.89,-434.98"/>
<polygon fill="midnightblue" stroke="midnightblue" points="359.01,-438.38 369.6,-437.99 361.08,-431.69 359.01,-438.38"/>
</g>
<!-- Node4 -->
<g id="node4" class="node">
<title>Node4</title>
<g id="a_node4"><a xlink:href="rdcu__rmap_8c_ab224927e85a7cec5b6f90292c7de36c4.html#ab224927e85a7cec5b6f90292c7de36c4" target="_top" xlink:title="generate an rmap command packet">
<polygon fill="white" stroke="black" points="526,-494.5 526,-513.5 613,-513.5 613,-494.5 526,-494.5"/>
<text text-anchor="middle" x="569.5" y="-501.5" font-family="Helvetica,sans-Serif" font-size="10.00">rdcu_gen_cmd</text>
</a>
</g>
</g>
<!-- Node3&#45;&gt;Node4 -->
<g id="edge3" class="edge">
<title>Node3&#45;&gt;Node4</title>
<path fill="none" stroke="midnightblue" d="M463.75,-468.03C485.07,-475.35 510.46,-484.07 530.9,-491.09"/>
<polygon fill="midnightblue" stroke="midnightblue" points="529.9,-494.44 540.49,-494.38 532.17,-487.82 529.9,-494.44"/>
</g>
<!-- Node5 -->
<g id="node5" class="node">
<title>Node5</title>
<g id="a_node5"><a xlink:href="rmap_8c_aa17375d153cc3473cbbe4dfe1056c527.html#aa17375d153cc3473cbbe4dfe1056c527" target="_top" xlink:title="build an rmap header">
<polygon fill="white" stroke="black" points="670,-646.5 670,-665.5 762,-665.5 762,-646.5 670,-646.5"/>
<text text-anchor="middle" x="716" y="-653.5" font-family="Helvetica,sans-Serif" font-size="10.00">rmap_build_hdr</text>
</a>
</g>
</g>
<!-- Node4&#45;&gt;Node5 -->
<g id="edge4" class="edge">
<title>Node4&#45;&gt;Node5</title>
<path fill="none" stroke="midnightblue" d="M573.76,-513.68C582.52,-538.17 608.88,-603 653,-637 655.34,-638.8 657.85,-640.44 660.48,-641.92"/>
<polygon fill="midnightblue" stroke="midnightblue" points="659.22,-645.19 669.75,-646.38 662.25,-638.89 659.22,-645.19"/>
</g>
<!-- Node7 -->
<g id="node7" class="node">
<title>Node7</title>
<g id="a_node7"><a xlink:href="rmap_8c_aba944cf978de0b264ea5bb3a784bce0f.html#aba944cf978de0b264ea5bb3a784bce0f" target="_top" xlink:title="create an RMAP packet and set defaults">
<polygon fill="white" stroke="black" points="828,-437.5 828,-456.5 944,-456.5 944,-437.5 828,-437.5"/>
<text text-anchor="middle" x="886" y="-444.5" font-family="Helvetica,sans-Serif" font-size="10.00">rmap_create_packet</text>
</a>
</g>
</g>
<!-- Node4&#45;&gt;Node7 -->
<g id="edge6" class="edge">
<title>Node4&#45;&gt;Node7</title>
<path fill="none" stroke="midnightblue" d="M598.93,-513.53C639.8,-525.69 717.06,-542.91 779,-523 815.03,-511.42 849.19,-482.57 868.57,-463.93"/>
<polygon fill="midnightblue" stroke="midnightblue" points="871.28,-466.17 875.93,-456.65 866.36,-461.19 871.28,-466.17"/>
</g>
<!-- Node8 -->
<g id="node8" class="node">
<title>Node8</title>
<g id="a_node8"><a xlink:href="rmap_8c_a1def9af549819e7fdbda12af8bdc9c0e.html#a1def9af549819e7fdbda12af8bdc9c0e" target="_top" xlink:title="completely destroys an RMAP packet">
<polygon fill="white" stroke="black" points="660,-228.5 660,-247.5 772,-247.5 772,-228.5 660,-228.5"/>
<text text-anchor="middle" x="716" y="-235.5" font-family="Helvetica,sans-Serif" font-size="10.00">rmap_erase_packet</text>
</a>
</g>
</g>
<!-- Node4&#45;&gt;Node8 -->
<g id="edge7" class="edge">
<title>Node4&#45;&gt;Node8</title>
<path fill="none" stroke="midnightblue" d="M572.72,-494.09C580.09,-462.7 605.97,-363.5 653,-295 664,-278.98 680.29,-264.23 693.41,-253.75"/>
<polygon fill="midnightblue" stroke="midnightblue" points="695.71,-256.4 701.48,-247.51 691.43,-250.86 695.71,-256.4"/>
</g>
<!-- Node9 -->
<g id="node9" class="node">
<title>Node9</title>
<g id="a_node9"><a xlink:href="rmap_8c_aab7e23f061291d39568ad2df700bc777.html#aab7e23f061291d39568ad2df700bc777" target="_top" xlink:title="set an RMAP command">
<polygon fill="white" stroke="black" points="671.5,-684.5 671.5,-703.5 760.5,-703.5 760.5,-684.5 671.5,-684.5"/>
<text text-anchor="middle" x="716" y="-691.5" font-family="Helvetica,sans-Serif" font-size="10.00">rmap_set_cmd</text>
</a>
</g>
</g>
<!-- Node4&#45;&gt;Node9 -->
<g id="edge8" class="edge">
<title>Node4&#45;&gt;Node9</title>
<path fill="none" stroke="midnightblue" d="M572.36,-513.79C578.4,-542.91 600.23,-629.7 653,-675 655.81,-677.42 658.93,-679.52 662.22,-681.36"/>
<polygon fill="midnightblue" stroke="midnightblue" points="660.74,-684.53 671.27,-685.64 663.72,-678.2 660.74,-684.53"/>
</g>
<!-- Node11 -->
<g id="node11" class="node">
<title>Node11</title>
<g id="a_node11"><a xlink:href="rmap_8c_acf641aae92829ae864b6c3d8f94d86e2.html#acf641aae92829ae864b6c3d8f94d86e2" target="_top" xlink:title="set a data address">
<polygon fill="white" stroke="black" points="658,-608.5 658,-627.5 774,-627.5 774,-608.5 658,-608.5"/>
<text text-anchor="middle" x="716" y="-615.5" font-family="Helvetica,sans-Serif" font-size="10.00">rmap_set_data_addr</text>
</a>
</g>
</g>
<!-- Node4&#45;&gt;Node11 -->
<g id="edge10" class="edge">
<title>Node4&#45;&gt;Node11</title>
<path fill="none" stroke="midnightblue" d="M576.24,-513.66C588.11,-532.81 617.29,-575.78 653,-599 656.16,-601.05 659.55,-602.9 663.06,-604.55"/>
<polygon fill="midnightblue" stroke="midnightblue" points="661.98,-607.88 672.56,-608.48 664.66,-601.42 661.98,-607.88"/>
</g>
<!-- Node12 -->
<g id="node12" class="node">
<title>Node12</title>
<g id="a_node12"><a xlink:href="rmap_8c_a6833f065640f652aa1a929309e592f7a.html#a6833f065640f652aa1a929309e592f7a" target="_top" xlink:title="set an RMAP command">
<polygon fill="white" stroke="black" points="661,-570.5 661,-589.5 771,-589.5 771,-570.5 661,-570.5"/>
<text text-anchor="middle" x="716" y="-577.5" font-family="Helvetica,sans-Serif" font-size="10.00">rmap_set_data_len</text>
</a>
</g>
</g>
<!-- Node4&#45;&gt;Node12 -->
<g id="edge11" class="edge">
<title>Node4&#45;&gt;Node12</title>
<path fill="none" stroke="midnightblue" d="M584.04,-513.68C600,-524.82 627.59,-543.22 653,-556 660.78,-559.91 669.36,-563.6 677.6,-566.87"/>
<polygon fill="midnightblue" stroke="midnightblue" points="676.45,-570.17 687.04,-570.48 678.95,-563.64 676.45,-570.17"/>
</g>
<!-- Node13 -->
<g id="node13" class="node">
<title>Node13</title>
<g id="a_node13"><a xlink:href="rmap_8c_a5f0081b9928da5e50fc8b231b57f3a80.html#a5f0081b9928da5e50fc8b231b57f3a80" target="_top" xlink:title="set the destination address path">
<polygon fill="white" stroke="black" points="658,-342.5 658,-361.5 774,-361.5 774,-342.5 658,-342.5"/>
<text text-anchor="middle" x="716" y="-349.5" font-family="Helvetica,sans-Serif" font-size="10.00">rmap_set_dest_path</text>
</a>
</g>
</g>
<!-- Node4&#45;&gt;Node13 -->
<g id="edge12" class="edge">
<title>Node4&#45;&gt;Node13</title>
<path fill="none" stroke="midnightblue" d="M573.76,-494.32C582.52,-469.83 608.88,-405 653,-371 655.34,-369.2 657.85,-367.56 660.48,-366.08"/>
<polygon fill="midnightblue" stroke="midnightblue" points="662.25,-369.11 669.75,-361.62 659.22,-362.81 662.25,-369.11"/>
</g>
<!-- Node15 -->
<g id="node15" class="node">
<title>Node15</title>
<g id="a_node15"><a xlink:href="rmap_8c_a2da8e7b48411d382b54848795f85795d.html#a2da8e7b48411d382b54848795f85795d" target="_top" xlink:title="set the destination (target) logical address">
<polygon fill="white" stroke="black" points="674.5,-494.5 674.5,-513.5 757.5,-513.5 757.5,-494.5 674.5,-494.5"/>
<text text-anchor="middle" x="716" y="-501.5" font-family="Helvetica,sans-Serif" font-size="10.00">rmap_set_dst</text>
</a>
</g>
</g>
<!-- Node4&#45;&gt;Node15 -->
<g id="edge14" class="edge">
<title>Node4&#45;&gt;Node15</title>
<path fill="none" stroke="midnightblue" d="M613.07,-504C629.07,-504 647.41,-504 664.09,-504"/>
<polygon fill="midnightblue" stroke="midnightblue" points="664.22,-507.5 674.22,-504 664.22,-500.5 664.22,-507.5"/>
</g>
<!-- Node16 -->
<g id="node16" class="node">
<title>Node16</title>
<g id="a_node16"><a xlink:href="rmap_8c_a15021c9dfccddc44786dfd37834bcd7e.html#a15021c9dfccddc44786dfd37834bcd7e" target="_top" xlink:title="set the command authorisation key">
<polygon fill="white" stroke="black" points="673.5,-456.5 673.5,-475.5 758.5,-475.5 758.5,-456.5 673.5,-456.5"/>
<text text-anchor="middle" x="716" y="-463.5" font-family="Helvetica,sans-Serif" font-size="10.00">rmap_set_key</text>
</a>
</g>
</g>
<!-- Node4&#45;&gt;Node16 -->
<g id="edge15" class="edge">
<title>Node4&#45;&gt;Node16</title>
<path fill="none" stroke="midnightblue" d="M606.96,-494.41C625.77,-489.46 648.91,-483.38 668.95,-478.11"/>
<polygon fill="midnightblue" stroke="midnightblue" points="670.02,-481.45 678.8,-475.52 668.24,-474.68 670.02,-481.45"/>
</g>
<!-- Node17 -->
<g id="node17" class="node">
<title>Node17</title>
<g id="a_node17"><a xlink:href="rmap_8c_a56c47830e67d01e469231e5e7e1d3a34.html#a56c47830e67d01e469231e5e7e1d3a34" target="_top" xlink:title="set the reply address path">
<polygon fill="white" stroke="black" points="656.5,-304.5 656.5,-323.5 775.5,-323.5 775.5,-304.5 656.5,-304.5"/>
<text text-anchor="middle" x="716" y="-311.5" font-family="Helvetica,sans-Serif" font-size="10.00">rmap_set_reply_path</text>
</a>
</g>
</g>
<!-- Node4&#45;&gt;Node17 -->
<g id="edge16" class="edge">
<title>Node4&#45;&gt;Node17</title>
<path fill="none" stroke="midnightblue" d="M572.36,-494.21C578.4,-465.09 600.23,-378.3 653,-333 654.98,-331.3 657.11,-329.75 659.35,-328.34"/>
<polygon fill="midnightblue" stroke="midnightblue" points="661.2,-331.32 668.41,-323.56 657.93,-325.13 661.2,-331.32"/>
</g>
<!-- Node18 -->
<g id="node18" class="node">
<title>Node18</title>
<g id="a_node18"><a xlink:href="rmap_8c_adae0030440ca4e7ad34622e505acbb2c.html#adae0030440ca4e7ad34622e505acbb2c" target="_top" xlink:title="set the source (initiator) logical address">
<polygon fill="white" stroke="black" points="675,-418.5 675,-437.5 757,-437.5 757,-418.5 675,-418.5"/>
<text text-anchor="middle" x="716" y="-425.5" font-family="Helvetica,sans-Serif" font-size="10.00">rmap_set_src</text>
</a>
</g>
</g>
<!-- Node4&#45;&gt;Node18 -->
<g id="edge18" class="edge">
<title>Node4&#45;&gt;Node18</title>
<path fill="none" stroke="midnightblue" d="M581.82,-494.48C597.1,-482.04 625.58,-460.28 653,-447 657.63,-444.76 662.58,-442.71 667.6,-440.86"/>
<polygon fill="midnightblue" stroke="midnightblue" points="668.92,-444.1 677.24,-437.54 666.65,-437.48 668.92,-444.1"/>
</g>
<!-- Node19 -->
<g id="node19" class="node">
<title>Node19</title>
<g id="a_node19"><a xlink:href="rmap_8c_a7b4c31714493ce6cc19d4aa825ab50aa.html#a7b4c31714493ce6cc19d4aa825ab50aa" target="_top" xlink:title="set an RMAP transaction identifier">
<polygon fill="white" stroke="black" points="671.5,-722.5 671.5,-741.5 760.5,-741.5 760.5,-722.5 671.5,-722.5"/>
<text text-anchor="middle" x="716" y="-729.5" font-family="Helvetica,sans-Serif" font-size="10.00">rmap_set_tr_id</text>
</a>
</g>
</g>
<!-- Node4&#45;&gt;Node19 -->
<g id="edge19" class="edge">
<title>Node4&#45;&gt;Node19</title>
<path fill="none" stroke="midnightblue" d="M571.38,-513.52C574.93,-546.34 591.12,-655.81 653,-713 655.77,-715.56 658.87,-717.77 662.17,-719.69"/>
<polygon fill="midnightblue" stroke="midnightblue" points="660.77,-722.9 671.3,-724.09 663.82,-716.59 660.77,-722.9"/>
</g>
<!-- Node6 -->
<g id="node6" class="node">
<title>Node6</title>
<g id="a_node6"><a xlink:href="rmap_8c_a0ec3c28e83818f02e00d4c79d82d938a.html#a0ec3c28e83818f02e00d4c79d82d938a" target="_top" xlink:title="get the minimum header size given the RMAP instruction">
<polygon fill="white" stroke="black" points="819.5,-532.5 819.5,-551.5 952.5,-551.5 952.5,-532.5 819.5,-532.5"/>
<text text-anchor="middle" x="886" y="-539.5" font-family="Helvetica,sans-Serif" font-size="10.00">rmap_get_min_hdr_size</text>
</a>
</g>
</g>
<!-- Node5&#45;&gt;Node6 -->
<g id="edge5" class="edge">
<title>Node5&#45;&gt;Node6</title>
<path fill="none" stroke="midnightblue" d="M757.42,-646.4C764.83,-643.87 772.33,-640.76 779,-637 816.04,-616.08 851.2,-580.34 870.26,-559.17"/>
<polygon fill="midnightblue" stroke="midnightblue" points="872.96,-561.39 876.96,-551.58 867.72,-556.75 872.96,-561.39"/>
</g>
<!-- Node10 -->
<g id="node10" class="node">
<title>Node10</title>
<g id="a_node10"><a xlink:href="rmap_8c_a667ce871110961f2a611d0244791e20f.html#a667ce871110961f2a611d0244791e20f" target="_top" xlink:title="valiidates a command code">
<polygon fill="white" stroke="black" points="815,-684.5 815,-703.5 957,-703.5 957,-684.5 815,-684.5"/>
<text text-anchor="middle" x="886" y="-691.5" font-family="Helvetica,sans-Serif" font-size="10.00">rmap_validate_cmd_code</text>
</a>
</g>
</g>
<!-- Node9&#45;&gt;Node10 -->
<g id="edge9" class="edge">
<title>Node9&#45;&gt;Node10</title>
<path fill="none" stroke="midnightblue" d="M760.7,-694C774.13,-694 789.36,-694 804.44,-694"/>
<polygon fill="midnightblue" stroke="midnightblue" points="804.83,-697.5 814.83,-694 804.83,-690.5 804.83,-697.5"/>
</g>
<!-- Node14 -->
<g id="node14" class="node">
<title>Node14</title>
<g id="a_node14"><a xlink:href="test__cmp__max__used__bits__list_8c_a7ac38fce3243a7dcf448301ee9ffd392.html#a7ac38fce3243a7dcf448301ee9ffd392" target="_top" xlink:title=" ">
<polygon fill="white" stroke="black" points="861,-304.5 861,-323.5 911,-323.5 911,-304.5 861,-304.5"/>
<text text-anchor="middle" x="886" y="-311.5" font-family="Helvetica,sans-Serif" font-size="10.00">malloc</text>
</a>
</g>
</g>
<!-- Node13&#45;&gt;Node14 -->
<g id="edge13" class="edge">
<title>Node13&#45;&gt;Node14</title>
<path fill="none" stroke="midnightblue" d="M759.39,-342.41C787.71,-336.01 824.47,-327.69 850.9,-321.71"/>
<polygon fill="midnightblue" stroke="midnightblue" points="851.85,-325.09 860.83,-319.47 850.3,-318.26 851.85,-325.09"/>
</g>
<!-- Node17&#45;&gt;Node14 -->
<g id="edge17" class="edge">
<title>Node17&#45;&gt;Node14</title>
<path fill="none" stroke="midnightblue" d="M775.76,-314C800.69,-314 828.89,-314 850.39,-314"/>
<polygon fill="midnightblue" stroke="midnightblue" points="850.67,-317.5 860.67,-314 850.67,-310.5 850.67,-317.5"/>
</g>
<!-- Node20&#45;&gt;Node14 -->
<g id="edge21" class="edge">
<title>Node20&#45;&gt;Node14</title>
<path fill="none" stroke="midnightblue" d="M285.01,-258.12C366.79,-261.28 592.49,-271.61 779,-295 803.12,-298.03 830.09,-302.88 850.78,-306.92"/>
<polygon fill="midnightblue" stroke="midnightblue" points="850.2,-310.38 860.69,-308.89 851.57,-303.51 850.2,-310.38"/>
</g>
<!-- Node21 -->
<g id="node21" class="node">
<title>Node21</title>
<g id="a_node21"><a xlink:href="rdcu__rmap_8c_a95fad3cd9b6bbe562e1a73e3f1c108a8.html#a95fad3cd9b6bbe562e1a73e3f1c108a8" target="_top" xlink:title="submit an rmap command transaction">
<polygon fill="white" stroke="black" points="373,-228.5 373,-247.5 465,-247.5 465,-228.5 373,-228.5"/>
<text text-anchor="middle" x="419" y="-235.5" font-family="Helvetica,sans-Serif" font-size="10.00">rdcu_submit_tx</text>
</a>
</g>
</g>
<!-- Node20&#45;&gt;Node21 -->
<g id="edge22" class="edge">
<title>Node20&#45;&gt;Node21</title>
<path fill="none" stroke="midnightblue" d="M285.22,-253.34C307.14,-250.8 336.89,-247.37 362.67,-244.39"/>
<polygon fill="midnightblue" stroke="midnightblue" points="363.16,-247.86 372.7,-243.23 362.36,-240.9 363.16,-247.86"/>
</g>
<!-- Node32 -->
<g id="node32" class="node">
<title>Node32</title>
<g id="a_node32"><a xlink:href="rdcu__rmap_8c_a36f44335aa66dd49fb4903f7269bc5b1.html#a36f44335aa66dd49fb4903f7269bc5b1" target="_top" xlink:title="grab a slot in the transaction log">
<polygon fill="white" stroke="black" points="363,-190.5 363,-209.5 475,-209.5 475,-190.5 363,-190.5"/>
<text text-anchor="middle" x="419" y="-197.5" font-family="Helvetica,sans-Serif" font-size="10.00">trans_log_grab_slot</text>
</a>
</g>
</g>
<!-- Node20&#45;&gt;Node32 -->
<g id="edge38" class="edge">
<title>Node20&#45;&gt;Node32</title>
<path fill="none" stroke="midnightblue" d="M276.77,-247.36C296.6,-239.3 325.94,-227.76 352,-219 358.61,-216.78 365.64,-214.58 372.55,-212.51"/>
<polygon fill="midnightblue" stroke="midnightblue" points="373.93,-215.76 382.54,-209.59 371.96,-209.04 373.93,-215.76"/>
</g>
<!-- Node22 -->
<g id="node22" class="node">
<title>Node22</title>
<g id="a_node22"><a xlink:href="rdcu__rmap_8c_a1a064554031c2fa2dcb65541e0765c0f.html#a1a064554031c2fa2dcb65541e0765c0f" target="_top" xlink:title="n rmap command transaction">
<polygon fill="white" stroke="black" points="522,-171.5 522,-190.5 617,-190.5 617,-171.5 522,-171.5"/>
<text text-anchor="middle" x="569.5" y="-178.5" font-family="Helvetica,sans-Serif" font-size="10.00">rdcu_process_rx</text>
</a>
</g>
</g>
<!-- Node21&#45;&gt;Node22 -->
<g id="edge23" class="edge">
<title>Node21&#45;&gt;Node22</title>
<path fill="none" stroke="midnightblue" d="M456.98,-228.42C466.52,-225.66 476.72,-222.45 486,-219 504.61,-212.08 524.86,-202.78 540.64,-195.11"/>
<polygon fill="midnightblue" stroke="midnightblue" points="542.41,-198.14 549.84,-190.58 539.32,-191.86 542.41,-198.14"/>
</g>
<!-- Node22&#45;&gt;Node8 -->
<g id="edge26" class="edge">
<title>Node22&#45;&gt;Node8</title>
<path fill="none" stroke="midnightblue" d="M594.3,-190.6C610.76,-197.22 633.19,-206.2 653,-214 661.99,-217.54 671.73,-221.33 680.77,-224.83"/>
<polygon fill="midnightblue" stroke="midnightblue" points="679.65,-228.15 690.24,-228.49 682.17,-221.62 679.65,-228.15"/>
</g>
<!-- Node22&#45;&gt;Node14 -->
<g id="edge24" class="edge">
<title>Node22&#45;&gt;Node14</title>
<path fill="none" stroke="midnightblue" d="M617.07,-182.28C660.88,-185.11 727.29,-193.67 779,-219 817.4,-237.81 852.32,-274.59 870.92,-296.46"/>
<polygon fill="midnightblue" stroke="midnightblue" points="868.35,-298.85 877.43,-304.3 873.73,-294.37 868.35,-298.85"/>
</g>
<!-- Node23 -->
<g id="node23" class="node">
<title>Node23</title>
<g id="a_node23"><a xlink:href="rmap_8c_abf1868ec6873f9f189050cadc7e64a3b.html#abf1868ec6873f9f189050cadc7e64a3b" target="_top" xlink:title="calculate the CRC8 of a given buffer">
<polygon fill="white" stroke="black" points="682,-76.5 682,-95.5 750,-95.5 750,-76.5 682,-76.5"/>
<text text-anchor="middle" x="716" y="-83.5" font-family="Helvetica,sans-Serif" font-size="10.00">rmap_crc8</text>
</a>
</g>
</g>
<!-- Node22&#45;&gt;Node23 -->
<g id="edge25" class="edge">
<title>Node22&#45;&gt;Node23</title>
<path fill="none" stroke="midnightblue" d="M578.37,-171.36C591.95,-155.32 621.41,-123.12 653,-105 658.9,-101.61 665.48,-98.76 672.08,-96.39"/>
<polygon fill="midnightblue" stroke="midnightblue" points="673.27,-99.68 681.69,-93.25 671.09,-93.03 673.27,-99.68"/>
</g>
<!-- Node24 -->
<g id="node24" class="node">
<title>Node24</title>
<g id="a_node24"><a xlink:href="rmap_8c_a5e88a29337404518eceedf9b4af285bf.html#a5e88a29337404518eceedf9b4af285bf" target="_top" xlink:title=" ">
<polygon fill="white" stroke="black" points="668.5,-38.5 668.5,-57.5 763.5,-57.5 763.5,-38.5 668.5,-38.5"/>
<text text-anchor="middle" x="716" y="-45.5" font-family="Helvetica,sans-Serif" font-size="10.00">rmap_parse_pkt</text>
</a>
</g>
</g>
<!-- Node22&#45;&gt;Node24 -->
<g id="edge27" class="edge">
<title>Node22&#45;&gt;Node24</title>
<path fill="none" stroke="midnightblue" d="M574.76,-171.43C584.98,-149.55 613.06,-95.57 653,-67 655.7,-65.07 658.6,-63.33 661.62,-61.76"/>
<polygon fill="midnightblue" stroke="midnightblue" points="663.27,-64.86 670.96,-57.57 660.4,-58.48 663.27,-64.86"/>
</g>
<!-- Node29 -->
<g id="node29" class="node">
<title>Node29</title>
<g id="a_node29"><a xlink:href="rmap_8c_a46d3271304c12df042b57dbebaba67e1.html#a46d3271304c12df042b57dbebaba67e1" target="_top" xlink:title="create an rmap packet from a buffer">
<polygon fill="white" stroke="black" points="653.5,-380.5 653.5,-399.5 778.5,-399.5 778.5,-380.5 653.5,-380.5"/>
<text text-anchor="middle" x="716" y="-387.5" font-family="Helvetica,sans-Serif" font-size="10.00">rmap_pkt_from_buffer</text>
</a>
</g>
</g>
<!-- Node22&#45;&gt;Node29 -->
<g id="edge32" class="edge">
<title>Node22&#45;&gt;Node29</title>
<path fill="none" stroke="midnightblue" d="M571.8,-190.52C576.52,-221.4 595.62,-319.72 653,-371 654.91,-372.71 656.97,-374.26 659.14,-375.67"/>
<polygon fill="midnightblue" stroke="midnightblue" points="657.49,-378.76 667.95,-380.46 660.84,-372.61 657.49,-378.76"/>
</g>
<!-- Node30 -->
<g id="node30" class="node">
<title>Node30</title>
<g id="a_node30"><a xlink:href="rdcu__rmap_8c_acf9b176d8d9b24e9d07711f56aebccc0.html#acf9b176d8d9b24e9d07711f56aebccc0" target="_top" xlink:title="get the local address for a slot">
<polygon fill="white" stroke="black" points="661,-152.5 661,-171.5 771,-171.5 771,-152.5 661,-152.5"/>
<text text-anchor="middle" x="716" y="-159.5" font-family="Helvetica,sans-Serif" font-size="10.00">trans_log_get_addr</text>
</a>
</g>
</g>
<!-- Node22&#45;&gt;Node30 -->
<g id="edge36" class="edge">
<title>Node22&#45;&gt;Node30</title>
<path fill="none" stroke="midnightblue" d="M617.02,-174.88C627.69,-173.48 639.23,-171.96 650.51,-170.48"/>
<polygon fill="midnightblue" stroke="midnightblue" points="651.31,-173.9 660.77,-169.13 650.4,-166.96 651.31,-173.9"/>
</g>
<!-- Node31 -->
<g id="node31" class="node">
<title>Node31</title>
<g id="a_node31"><a xlink:href="rdcu__rmap_8c_a7012f58a1862cf07b00e299d24c199c2.html#a7012f58a1862cf07b00e299d24c199c2" target="_top" xlink:title="release a slot in the transaction log">
<polygon fill="white" stroke="black" points="653,-114.5 653,-133.5 779,-133.5 779,-114.5 653,-114.5"/>
<text text-anchor="middle" x="716" y="-121.5" font-family="Helvetica,sans-Serif" font-size="10.00">trans_log_release_slot</text>
</a>
</g>
</g>
<!-- Node22&#45;&gt;Node31 -->
<g id="edge37" class="edge">
<title>Node22&#45;&gt;Node31</title>
<path fill="none" stroke="midnightblue" d="M589.52,-171.35C606.05,-163.18 630.75,-151.49 653,-143 658.87,-140.76 665.12,-138.6 671.31,-136.58"/>
<polygon fill="midnightblue" stroke="midnightblue" points="672.45,-139.89 680.93,-133.54 670.34,-133.22 672.45,-139.89"/>
</g>
<!-- Node25 -->
<g id="node25" class="node">
<title>Node25</title>
<g id="a_node25"><a xlink:href="rmap_8c_abb4e19c17c7223212c3904bc4c0189d2.html#abb4e19c17c7223212c3904bc4c0189d2" target="_top" xlink:title=" ">
<polygon fill="white" stroke="black" points="830.5,-76.5 830.5,-95.5 941.5,-95.5 941.5,-76.5 830.5,-76.5"/>
<text text-anchor="middle" x="886" y="-83.5" font-family="Helvetica,sans-Serif" font-size="10.00">rmap_check_status</text>
</a>
</g>
</g>
<!-- Node24&#45;&gt;Node25 -->
<g id="edge28" class="edge">
<title>Node24&#45;&gt;Node25</title>
<path fill="none" stroke="midnightblue" d="M759.39,-57.59C781.76,-62.65 809.4,-68.9 833.05,-74.25"/>
<polygon fill="midnightblue" stroke="midnightblue" points="832.39,-77.69 842.91,-76.48 833.93,-70.86 832.39,-77.69"/>
</g>
<!-- Node26 -->
<g id="node26" class="node">
<title>Node26</title>
<g id="a_node26"><a xlink:href="rmap_8c_a20aa8b91dfb1bbad819759f97b853054.html#a20aa8b91dfb1bbad819759f97b853054" target="_top" xlink:title=" ">
<polygon fill="white" stroke="black" points="825,-38.5 825,-57.5 947,-57.5 947,-38.5 825,-38.5"/>
<text text-anchor="middle" x="886" y="-45.5" font-family="Helvetica,sans-Serif" font-size="10.00">rmap_parse_cmd_pkt</text>
</a>
</g>
</g>
<!-- Node24&#45;&gt;Node26 -->
<g id="edge29" class="edge">
<title>Node24&#45;&gt;Node26</title>
<path fill="none" stroke="midnightblue" d="M763.8,-48C779.62,-48 797.66,-48 814.89,-48"/>
<polygon fill="midnightblue" stroke="midnightblue" points="814.92,-51.5 824.92,-48 814.92,-44.5 814.92,-51.5"/>
</g>
<!-- Node27 -->
<g id="node27" class="node">
<title>Node27</title>
<g id="a_node27"><a xlink:href="rmap_8c_adef42426b46ee5ad5176ee76cff35c22.html#adef42426b46ee5ad5176ee76cff35c22" target="_top" xlink:title=" ">
<polygon fill="white" stroke="black" points="823.5,-0.5 823.5,-19.5 948.5,-19.5 948.5,-0.5 823.5,-0.5"/>
<text text-anchor="middle" x="886" y="-7.5" font-family="Helvetica,sans-Serif" font-size="10.00">rmap_parse_reply_pkt</text>
</a>
</g>
</g>
<!-- Node24&#45;&gt;Node27 -->
<g id="edge30" class="edge">
<title>Node24&#45;&gt;Node27</title>
<path fill="none" stroke="midnightblue" d="M759.39,-38.41C781.76,-33.35 809.4,-27.1 833.05,-21.75"/>
<polygon fill="midnightblue" stroke="midnightblue" points="833.93,-25.14 842.91,-19.52 832.39,-18.31 833.93,-25.14"/>
</g>
<!-- Node28 -->
<g id="node28" class="node">
<title>Node28</title>
<g id="a_node28"><a xlink:href="rmap_8c_a2ff278a5e094a9f585865d4d838e0e0e.html#a2ff278a5e094a9f585865d4d838e0e0e" target="_top" xlink:title=" ">
<polygon fill="white" stroke="black" points="993,-0.5 993,-19.5 1135,-19.5 1135,-0.5 993,-0.5"/>
<text text-anchor="middle" x="1064" y="-7.5" font-family="Helvetica,sans-Serif" font-size="10.00">rmap_process_read_reply</text>
</a>
</g>
</g>
<!-- Node27&#45;&gt;Node28 -->
<g id="edge31" class="edge">
<title>Node27&#45;&gt;Node28</title>
<path fill="none" stroke="midnightblue" d="M948.56,-10C959.6,-10 971.25,-10 982.73,-10"/>
<polygon fill="midnightblue" stroke="midnightblue" points="982.74,-13.5 992.74,-10 982.74,-6.5 982.74,-13.5"/>
</g>
<!-- Node29&#45;&gt;Node6 -->
<g id="edge35" class="edge">
<title>Node29&#45;&gt;Node6</title>
<path fill="none" stroke="midnightblue" d="M761.9,-399.53C768,-402 773.9,-405.1 779,-409 802.81,-427.19 796.78,-442.22 815,-466 831.39,-487.38 852.64,-509.84 867.41,-524.74"/>
<polygon fill="midnightblue" stroke="midnightblue" points="865.32,-527.61 874.87,-532.19 870.27,-522.65 865.32,-527.61"/>
</g>
<!-- Node29&#45;&gt;Node7 -->
<g id="edge34" class="edge">
<title>Node29&#45;&gt;Node7</title>
<path fill="none" stroke="midnightblue" d="M749.27,-399.58C758.87,-402.51 769.38,-405.81 779,-409 802.76,-416.89 829.27,-426.4 849.83,-433.93"/>
<polygon fill="midnightblue" stroke="midnightblue" points="848.82,-437.28 859.41,-437.45 851.23,-430.71 848.82,-437.28"/>
</g>
<!-- Node29&#45;&gt;Node14 -->
<g id="edge33" class="edge">
<title>Node29&#45;&gt;Node14</title>
<path fill="none" stroke="midnightblue" d="M752.51,-380.43C761.29,-377.7 770.58,-374.51 779,-371 808.06,-358.87 839.64,-341.27 860.7,-328.84"/>
<polygon fill="midnightblue" stroke="midnightblue" points="862.52,-331.83 869.32,-323.7 858.94,-325.82 862.52,-331.83"/>
</g>
</g>
</svg>
        <g id="navigator" transform="translate(0 0)" fill="#404254">
                <rect fill="#f2f5e9" fill-opacity="0.5" stroke="#606060" stroke-width=".5" x="0" y="0" width="60" height="60"/>
                <use id="zoomplus" xlink:href="#zoomPlus" x="17" y="9" onmousedown="handleZoom(evt,'in')"/>
                <use id="zoomminus" xlink:href="#zoomMin" x="42" y="9" onmousedown="handleZoom(evt,'out')"/>
                <use id="reset" xlink:href="#resetDef" x="30" y="36" onmousedown="handleReset()"/>
                <g id="arrowUp" xlink:href="#dirArrow" transform="translate(30 24)" onmousedown="handlePan(0,-1)">
                  <use xlink:href="#rim" fill="#404040">
                        <set attributeName="fill" to="#808080" begin="arrowUp.mouseover" end="arrowUp.mouseout"/>
                  </use>
                  <path fill="none" stroke="white" stroke-width="1.5" d="M0,-3.0v7 M-2.5,-0.5L0,-3.0L2.5,-0.5"/>
                </g>
                <g id="arrowRight" xlink:href="#dirArrow" transform="rotate(90) translate(36 -43)" onmousedown="handlePan(1,0)">
                  <use xlink:href="#rim" fill="#404040">
                        <set attributeName="fill" to="#808080" begin="arrowRight.mouseover" end="arrowRight.mouseout"/>
                  </use>
                  <path fill="none" stroke="white" stroke-width="1.5" d="M0,-3.0v7 M-2.5,-0.5L0,-3.0L2.5,-0.5"/>
                </g>
                <g id="arrowDown" xlink:href="#dirArrow" transform="rotate(180) translate(-30 -48)" onmousedown="handlePan(0,1)">
                  <use xlink:href="#rim" fill="#404040">
                        <set attributeName="fill" to="#808080" begin="arrowDown.mouseover" end="arrowDown.mouseout"/>
                  </use>
                  <path fill="none" stroke="white" stroke-width="1.5" d="M0,-3.0v7 M-2.5,-0.5L0,-3.0L2.5,-0.5"/>
                </g>
                <g id="arrowLeft" xlink:href="#dirArrow" transform="rotate(270) translate(-36 17)" onmousedown="handlePan(-1,0)">
                  <use xlink:href="#rim" fill="#404040">
                        <set attributeName="fill" to="#808080" begin="arrowLeft.mouseover" end="arrowLeft.mouseout"/>
                  </use>
                  <path fill="none" stroke="white" stroke-width="1.5" d="M0,-3.0v7 M-2.5,-0.5L0,-3.0L2.5,-0.5"/>
                </g>
        </g>
        <svg viewBox="0 0 15 15" width="100%" height="30px" preserveAspectRatio="xMaxYMin meet">
         <g id="arrow_out" transform="scale(0.3 0.3)">
          <a xlink:href="rdcu__ctrl_8h_a45a520766308d3f7c8e338f5dd9893b6_a45a520766308d3f7c8e338f5dd9893b6_cgraph_org.svg" target="_base">
           <rect id="button" ry="5" rx="5" y="6" x="6" height="38" width="38"
                fill="#f2f5e9" fill-opacity="0.5" stroke="#606060" stroke-width="1.0"/>
           <path id="arrow"
             d="M 11.500037,31.436501 C 11.940474,20.09759 22.043105,11.32322 32.158766,21.979434 L 37.068811,17.246167 C 37.068811,17.246167 37.088388,32 37.088388,32 L 22.160133,31.978069 C 22.160133,31.978069 26.997745,27.140456 26.997745,27.140456 C 18.528582,18.264221 13.291696,25.230495 11.500037,31.436501 z"
             style="fill:#404040;"/>
          </a>
         </g>
        </svg>
</svg>
