<?xml version="1.0" encoding="UTF-8" standalone="no"?>
<!DOCTYPE svg PUBLIC "-//W3C//DTD SVG 1.1//EN"
 "http://www.w3.org/Graphics/SVG/1.1/DTD/svg11.dtd">
<!-- Generated by graphviz version 2.43.0 (0)
 -->
<!-- Title: rdcu_read_cmd_samples_used Pages: 1 -->
<svg width="501pt" height="28pt"
 viewBox="0.00 0.00 501.00 28.00" xmlns="http://www.w3.org/2000/svg" xmlns:xlink="http://www.w3.org/1999/xlink">
<g id="graph0" class="graph" transform="scale(1 1) rotate(0) translate(4 24)">
<title>rdcu_read_cmd_samples_used</title>
<polygon fill="white" stroke="transparent" points="-4,4 -4,-24 497,-24 497,4 -4,4"/>
<!-- Node1 -->
<g id="node1" class="node">
<title>Node1</title>
<g id="a_node1"><a xlink:title="create a command to read the RDCU used number of samples register">
<polygon fill="#bfbfbf" stroke="black" points="327,-0.5 327,-19.5 493,-19.5 493,-0.5 327,-0.5"/>
<text text-anchor="middle" x="410" y="-7.5" font-family="Helvetica,sans-Serif" font-size="10.00">rdcu_read_cmd_samples_used</text>
</a>
</g>
</g>
<!-- Node2 -->
<g id="node2" class="node">
<title>Node2</title>
<g id="a_node2"><a xlink:href="rdcu__ctrl_8c_a5763b76d6fa138ad840f2dd81f9cd90e.html#a5763b76d6fa138ad840f2dd81f9cd90e" target="_top" xlink:title="sync the Model Info Length (read only)">
<polygon fill="white" stroke="black" points="151,-0.5 151,-19.5 291,-19.5 291,-0.5 151,-0.5"/>
<text text-anchor="middle" x="221" y="-7.5" font-family="Helvetica,sans-Serif" font-size="10.00">rdcu_sync_samples_used</text>
</a>
</g>
</g>
<!-- Node1&#45;&gt;Node2 -->
<g id="edge1" class="edge">
<title>Node1&#45;&gt;Node2</title>
<path fill="none" stroke="midnightblue" d="M316.83,-10C308.17,-10 299.49,-10 291.1,-10"/>
<polygon fill="midnightblue" stroke="midnightblue" points="316.98,-13.5 326.98,-10 316.98,-6.5 316.98,-13.5"/>
</g>
<!-- Node3 -->
<g id="node3" class="node">
<title>Node3</title>
<g id="a_node3"><a xlink:href="cmp__rdcu_8h_afb2e10f8b9d9e433d1b4a6a96f930097.html#afb2e10f8b9d9e433d1b4a6a96f930097" target="_top" xlink:title="read out the metadata of an RDCU compression">
<polygon fill="white" stroke="black" points="0,-0.5 0,-19.5 115,-19.5 115,-0.5 0,-0.5"/>
<text text-anchor="middle" x="57.5" y="-7.5" font-family="Helvetica,sans-Serif" font-size="10.00">rdcu_read_cmp_info</text>
</a>
</g>
</g>
<!-- Node2&#45;&gt;Node3 -->
<g id="edge2" class="edge">
<title>Node2&#45;&gt;Node3</title>
<path fill="none" stroke="midnightblue" d="M140.56,-10C132.01,-10 123.44,-10 115.23,-10"/>
<polygon fill="midnightblue" stroke="midnightblue" points="140.57,-13.5 150.57,-10 140.57,-6.5 140.57,-13.5"/>
</g>
</g>
</svg>
