<?xml version="1.0" encoding="UTF-8" standalone="no"?>
<!DOCTYPE svg PUBLIC "-//W3C//DTD SVG 1.1//EN"
 "http://www.w3.org/Graphics/SVG/1.1/DTD/svg11.dtd">
<!-- Generated by graphviz version 2.43.0 (0)
 -->
<!-- Title: rdcu_sync_sram_to_mirror Pages: 1 -->
<svg width="1124pt" height="750pt"
 viewBox="0.00 0.00 1124.00 750.00" xmlns="http://www.w3.org/2000/svg" xmlns:xlink="http://www.w3.org/1999/xlink">
<g id="graph0" class="graph" transform="scale(1 1) rotate(0) translate(4 746)">
<title>rdcu_sync_sram_to_mirror</title>
<polygon fill="white" stroke="transparent" points="-4,4 -4,-746 1120,-746 1120,4 -4,4"/>
<!-- Node1 -->
<g id="node1" class="node">
<title>Node1</title>
<g id="a_node1"><a xlink:title="sync a range of 32 bit words of the remote SRAM to the local mirror">
<polygon fill="#bfbfbf" stroke="black" points="0,-209.5 0,-228.5 146,-228.5 146,-209.5 0,-209.5"/>
<text text-anchor="middle" x="73" y="-216.5" font-family="Helvetica,sans-Serif" font-size="10.00">rdcu_sync_sram_to_mirror</text>
</a>
</g>
</g>
<!-- Node2 -->
<g id="node2" class="node">
<title>Node2</title>
<g id="a_node2"><a xlink:href="rdcu__cmd_8c_a0529d01908536a90bebeb44f114342c7.html#a0529d01908536a90bebeb44f114342c7" target="_top" xlink:title="create a command to read arbitrary data to the RDCU">
<polygon fill="white" stroke="black" points="188.5,-380.5 188.5,-399.5 306.5,-399.5 306.5,-380.5 188.5,-380.5"/>
<text text-anchor="middle" x="247.5" y="-387.5" font-family="Helvetica,sans-Serif" font-size="10.00">rdcu_read_cmd_data</text>
</a>
</g>
</g>
<!-- Node1&#45;&gt;Node2 -->
<g id="edge1" class="edge">
<title>Node1&#45;&gt;Node2</title>
<path fill="none" stroke="midnightblue" d="M83.77,-228.68C112,-256.67 193.92,-337.88 229.58,-373.23"/>
<polygon fill="midnightblue" stroke="midnightblue" points="227.27,-375.87 236.84,-380.42 232.2,-370.9 227.27,-375.87"/>
</g>
<!-- Node20 -->
<g id="node20" class="node">
<title>Node20</title>
<g id="a_node20"><a xlink:href="rdcu__rmap_8c_a2650ed06998d198567938a9e933e1761.html#a2650ed06998d198567938a9e933e1761" target="_top" xlink:title="get the RDCU &lt;&#45;&gt; ICU mirror RMAP synchronisation status">
<polygon fill="white" stroke="black" points="182,-152.5 182,-171.5 313,-171.5 313,-152.5 182,-152.5"/>
<text text-anchor="middle" x="247.5" y="-159.5" font-family="Helvetica,sans-Serif" font-size="10.00">rdcu_rmap_sync_status</text>
</a>
</g>
</g>
<!-- Node1&#45;&gt;Node20 -->
<g id="edge20" class="edge">
<title>Node1&#45;&gt;Node20</title>
<path fill="none" stroke="midnightblue" d="M102.87,-209.46C131.61,-199.97 175.89,-185.33 207.68,-174.83"/>
<polygon fill="midnightblue" stroke="midnightblue" points="209.14,-178.03 217.53,-171.57 206.94,-171.39 209.14,-178.03"/>
</g>
<!-- Node31 -->
<g id="node31" class="node">
<title>Node31</title>
<g id="a_node31"><a xlink:href="rdcu__rmap_8c_a9494bec87a3b44e5a6bb06a76193806e.html#a9494bec87a3b44e5a6bb06a76193806e" target="_top" xlink:title="submit a data sync command">
<polygon fill="white" stroke="black" points="201.5,-209.5 201.5,-228.5 293.5,-228.5 293.5,-209.5 201.5,-209.5"/>
<text text-anchor="middle" x="247.5" y="-216.5" font-family="Helvetica,sans-Serif" font-size="10.00">rdcu_sync_data</text>
</a>
</g>
</g>
<!-- Node1&#45;&gt;Node31 -->
<g id="edge36" class="edge">
<title>Node1&#45;&gt;Node31</title>
<path fill="none" stroke="midnightblue" d="M146.16,-219C161.16,-219 176.75,-219 191.05,-219"/>
<polygon fill="midnightblue" stroke="midnightblue" points="191.2,-222.5 201.2,-219 191.2,-215.5 191.2,-222.5"/>
</g>
<!-- Node3 -->
<g id="node3" class="node">
<title>Node3</title>
<g id="a_node3"><a xlink:href="rdcu__cmd_8c_abe170ae0642edcb2e3db4ffded12cc89.html#abe170ae0642edcb2e3db4ffded12cc89" target="_top" xlink:title="create a command to read arbitrary data to the RDCU (internal)">
<polygon fill="white" stroke="black" points="349,-423 349,-453 467,-453 467,-423 349,-423"/>
<text text-anchor="start" x="357" y="-441" font-family="Helvetica,sans-Serif" font-size="10.00">rdcu_read_cmd_data</text>
<text text-anchor="middle" x="408" y="-430" font-family="Helvetica,sans-Serif" font-size="10.00">_internal</text>
</a>
</g>
</g>
<!-- Node2&#45;&gt;Node3 -->
<g id="edge2" class="edge">
<title>Node2&#45;&gt;Node3</title>
<path fill="none" stroke="midnightblue" d="M280.19,-399.6C299.48,-405.44 324.73,-413.09 347.62,-420.02"/>
<polygon fill="midnightblue" stroke="midnightblue" points="346.68,-423.39 357.26,-422.94 348.7,-416.69 346.68,-423.39"/>
</g>
<!-- Node4 -->
<g id="node4" class="node">
<title>Node4</title>
<g id="a_node4"><a xlink:href="rdcu__rmap_8c_ab224927e85a7cec5b6f90292c7de36c4.html#ab224927e85a7cec5b6f90292c7de36c4" target="_top" xlink:title="generate an rmap command packet">
<polygon fill="white" stroke="black" points="507,-494.5 507,-513.5 594,-513.5 594,-494.5 507,-494.5"/>
<text text-anchor="middle" x="550.5" y="-501.5" font-family="Helvetica,sans-Serif" font-size="10.00">rdcu_gen_cmd</text>
</a>
</g>
</g>
<!-- Node3&#45;&gt;Node4 -->
<g id="edge3" class="edge">
<title>Node3&#45;&gt;Node4</title>
<path fill="none" stroke="midnightblue" d="M441.23,-453.14C464.91,-464.26 496.83,-479.26 519.87,-490.08"/>
<polygon fill="midnightblue" stroke="midnightblue" points="518.61,-493.36 529.15,-494.44 521.59,-487.02 518.61,-493.36"/>
</g>
<!-- Node5 -->
<g id="node5" class="node">
<title>Node5</title>
<g id="a_node5"><a xlink:href="rmap_8c_aa17375d153cc3473cbbe4dfe1056c527.html#aa17375d153cc3473cbbe4dfe1056c527" target="_top" xlink:title="build an rmap header">
<polygon fill="white" stroke="black" points="651,-646.5 651,-665.5 743,-665.5 743,-646.5 651,-646.5"/>
<text text-anchor="middle" x="697" y="-653.5" font-family="Helvetica,sans-Serif" font-size="10.00">rmap_build_hdr</text>
</a>
</g>
</g>
<!-- Node4&#45;&gt;Node5 -->
<g id="edge4" class="edge">
<title>Node4&#45;&gt;Node5</title>
<path fill="none" stroke="midnightblue" d="M554.76,-513.68C563.52,-538.17 589.88,-603 634,-637 636.34,-638.8 638.85,-640.44 641.48,-641.92"/>
<polygon fill="midnightblue" stroke="midnightblue" points="640.22,-645.19 650.75,-646.38 643.25,-638.89 640.22,-645.19"/>
</g>
<!-- Node7 -->
<g id="node7" class="node">
<title>Node7</title>
<g id="a_node7"><a xlink:href="rmap_8c_aba944cf978de0b264ea5bb3a784bce0f.html#aba944cf978de0b264ea5bb3a784bce0f" target="_top" xlink:title="create an RMAP packet and set defaults">
<polygon fill="white" stroke="black" points="809,-437.5 809,-456.5 925,-456.5 925,-437.5 809,-437.5"/>
<text text-anchor="middle" x="867" y="-444.5" font-family="Helvetica,sans-Serif" font-size="10.00">rmap_create_packet</text>
</a>
</g>
</g>
<!-- Node4&#45;&gt;Node7 -->
<g id="edge6" class="edge">
<title>Node4&#45;&gt;Node7</title>
<path fill="none" stroke="midnightblue" d="M579.93,-513.53C620.8,-525.69 698.06,-542.91 760,-523 796.03,-511.42 830.19,-482.57 849.57,-463.93"/>
<polygon fill="midnightblue" stroke="midnightblue" points="852.28,-466.17 856.93,-456.65 847.36,-461.19 852.28,-466.17"/>
</g>
<!-- Node8 -->
<g id="node8" class="node">
<title>Node8</title>
<g id="a_node8"><a xlink:href="rmap_8c_a1def9af549819e7fdbda12af8bdc9c0e.html#a1def9af549819e7fdbda12af8bdc9c0e" target="_top" xlink:title="completely destroys an RMAP packet">
<polygon fill="white" stroke="black" points="641,-228.5 641,-247.5 753,-247.5 753,-228.5 641,-228.5"/>
<text text-anchor="middle" x="697" y="-235.5" font-family="Helvetica,sans-Serif" font-size="10.00">rmap_erase_packet</text>
</a>
</g>
</g>
<!-- Node4&#45;&gt;Node8 -->
<g id="edge7" class="edge">
<title>Node4&#45;&gt;Node8</title>
<path fill="none" stroke="midnightblue" d="M553.72,-494.09C561.09,-462.7 586.97,-363.5 634,-295 645,-278.98 661.29,-264.23 674.41,-253.75"/>
<polygon fill="midnightblue" stroke="midnightblue" points="676.71,-256.4 682.48,-247.51 672.43,-250.86 676.71,-256.4"/>
</g>
<!-- Node9 -->
<g id="node9" class="node">
<title>Node9</title>
<g id="a_node9"><a xlink:href="rmap_8c_aab7e23f061291d39568ad2df700bc777.html#aab7e23f061291d39568ad2df700bc777" target="_top" xlink:title="set an RMAP command">
<polygon fill="white" stroke="black" points="652.5,-684.5 652.5,-703.5 741.5,-703.5 741.5,-684.5 652.5,-684.5"/>
<text text-anchor="middle" x="697" y="-691.5" font-family="Helvetica,sans-Serif" font-size="10.00">rmap_set_cmd</text>
</a>
</g>
</g>
<!-- Node4&#45;&gt;Node9 -->
<g id="edge8" class="edge">
<title>Node4&#45;&gt;Node9</title>
<path fill="none" stroke="midnightblue" d="M553.36,-513.79C559.4,-542.91 581.23,-629.7 634,-675 636.81,-677.42 639.93,-679.52 643.22,-681.36"/>
<polygon fill="midnightblue" stroke="midnightblue" points="641.74,-684.53 652.27,-685.64 644.72,-678.2 641.74,-684.53"/>
</g>
<!-- Node11 -->
<g id="node11" class="node">
<title>Node11</title>
<g id="a_node11"><a xlink:href="rmap_8c_acf641aae92829ae864b6c3d8f94d86e2.html#acf641aae92829ae864b6c3d8f94d86e2" target="_top" xlink:title="set a data address">
<polygon fill="white" stroke="black" points="639,-608.5 639,-627.5 755,-627.5 755,-608.5 639,-608.5"/>
<text text-anchor="middle" x="697" y="-615.5" font-family="Helvetica,sans-Serif" font-size="10.00">rmap_set_data_addr</text>
</a>
</g>
</g>
<!-- Node4&#45;&gt;Node11 -->
<g id="edge10" class="edge">
<title>Node4&#45;&gt;Node11</title>
<path fill="none" stroke="midnightblue" d="M557.24,-513.66C569.11,-532.81 598.29,-575.78 634,-599 637.16,-601.05 640.55,-602.9 644.06,-604.55"/>
<polygon fill="midnightblue" stroke="midnightblue" points="642.98,-607.88 653.56,-608.48 645.66,-601.42 642.98,-607.88"/>
</g>
<!-- Node12 -->
<g id="node12" class="node">
<title>Node12</title>
<g id="a_node12"><a xlink:href="rmap_8c_a6833f065640f652aa1a929309e592f7a.html#a6833f065640f652aa1a929309e592f7a" target="_top" xlink:title="set an RMAP command">
<polygon fill="white" stroke="black" points="642,-570.5 642,-589.5 752,-589.5 752,-570.5 642,-570.5"/>
<text text-anchor="middle" x="697" y="-577.5" font-family="Helvetica,sans-Serif" font-size="10.00">rmap_set_data_len</text>
</a>
</g>
</g>
<!-- Node4&#45;&gt;Node12 -->
<g id="edge11" class="edge">
<title>Node4&#45;&gt;Node12</title>
<path fill="none" stroke="midnightblue" d="M565.04,-513.68C581,-524.82 608.59,-543.22 634,-556 641.78,-559.91 650.36,-563.6 658.6,-566.87"/>
<polygon fill="midnightblue" stroke="midnightblue" points="657.45,-570.17 668.04,-570.48 659.95,-563.64 657.45,-570.17"/>
</g>
<!-- Node13 -->
<g id="node13" class="node">
<title>Node13</title>
<g id="a_node13"><a xlink:href="rmap_8c_a5f0081b9928da5e50fc8b231b57f3a80.html#a5f0081b9928da5e50fc8b231b57f3a80" target="_top" xlink:title="set the destination address path">
<polygon fill="white" stroke="black" points="639,-342.5 639,-361.5 755,-361.5 755,-342.5 639,-342.5"/>
<text text-anchor="middle" x="697" y="-349.5" font-family="Helvetica,sans-Serif" font-size="10.00">rmap_set_dest_path</text>
</a>
</g>
</g>
<!-- Node4&#45;&gt;Node13 -->
<g id="edge12" class="edge">
<title>Node4&#45;&gt;Node13</title>
<path fill="none" stroke="midnightblue" d="M554.76,-494.32C563.52,-469.83 589.88,-405 634,-371 636.34,-369.2 638.85,-367.56 641.48,-366.08"/>
<polygon fill="midnightblue" stroke="midnightblue" points="643.25,-369.11 650.75,-361.62 640.22,-362.81 643.25,-369.11"/>
</g>
<!-- Node15 -->
<g id="node15" class="node">
<title>Node15</title>
<g id="a_node15"><a xlink:href="rmap_8c_a2da8e7b48411d382b54848795f85795d.html#a2da8e7b48411d382b54848795f85795d" target="_top" xlink:title="set the destination (target) logical address">
<polygon fill="white" stroke="black" points="655.5,-494.5 655.5,-513.5 738.5,-513.5 738.5,-494.5 655.5,-494.5"/>
<text text-anchor="middle" x="697" y="-501.5" font-family="Helvetica,sans-Serif" font-size="10.00">rmap_set_dst</text>
</a>
</g>
</g>
<!-- Node4&#45;&gt;Node15 -->
<g id="edge14" class="edge">
<title>Node4&#45;&gt;Node15</title>
<path fill="none" stroke="midnightblue" d="M594.07,-504C610.07,-504 628.41,-504 645.09,-504"/>
<polygon fill="midnightblue" stroke="midnightblue" points="645.22,-507.5 655.22,-504 645.22,-500.5 645.22,-507.5"/>
</g>
<!-- Node16 -->
<g id="node16" class="node">
<title>Node16</title>
<g id="a_node16"><a xlink:href="rmap_8c_a15021c9dfccddc44786dfd37834bcd7e.html#a15021c9dfccddc44786dfd37834bcd7e" target="_top" xlink:title="set the command authorisation key">
<polygon fill="white" stroke="black" points="654.5,-456.5 654.5,-475.5 739.5,-475.5 739.5,-456.5 654.5,-456.5"/>
<text text-anchor="middle" x="697" y="-463.5" font-family="Helvetica,sans-Serif" font-size="10.00">rmap_set_key</text>
</a>
</g>
</g>
<!-- Node4&#45;&gt;Node16 -->
<g id="edge15" class="edge">
<title>Node4&#45;&gt;Node16</title>
<path fill="none" stroke="midnightblue" d="M587.96,-494.41C606.77,-489.46 629.91,-483.38 649.95,-478.11"/>
<polygon fill="midnightblue" stroke="midnightblue" points="651.02,-481.45 659.8,-475.52 649.24,-474.68 651.02,-481.45"/>
</g>
<!-- Node17 -->
<g id="node17" class="node">
<title>Node17</title>
<g id="a_node17"><a xlink:href="rmap_8c_a56c47830e67d01e469231e5e7e1d3a34.html#a56c47830e67d01e469231e5e7e1d3a34" target="_top" xlink:title="set the reply address path">
<polygon fill="white" stroke="black" points="637.5,-304.5 637.5,-323.5 756.5,-323.5 756.5,-304.5 637.5,-304.5"/>
<text text-anchor="middle" x="697" y="-311.5" font-family="Helvetica,sans-Serif" font-size="10.00">rmap_set_reply_path</text>
</a>
</g>
</g>
<!-- Node4&#45;&gt;Node17 -->
<g id="edge16" class="edge">
<title>Node4&#45;&gt;Node17</title>
<path fill="none" stroke="midnightblue" d="M553.36,-494.21C559.4,-465.09 581.23,-378.3 634,-333 635.98,-331.3 638.11,-329.75 640.35,-328.34"/>
<polygon fill="midnightblue" stroke="midnightblue" points="642.2,-331.32 649.41,-323.56 638.93,-325.13 642.2,-331.32"/>
</g>
<!-- Node18 -->
<g id="node18" class="node">
<title>Node18</title>
<g id="a_node18"><a xlink:href="rmap_8c_adae0030440ca4e7ad34622e505acbb2c.html#adae0030440ca4e7ad34622e505acbb2c" target="_top" xlink:title="set the source (initiator) logical address">
<polygon fill="white" stroke="black" points="656,-418.5 656,-437.5 738,-437.5 738,-418.5 656,-418.5"/>
<text text-anchor="middle" x="697" y="-425.5" font-family="Helvetica,sans-Serif" font-size="10.00">rmap_set_src</text>
</a>
</g>
</g>
<!-- Node4&#45;&gt;Node18 -->
<g id="edge18" class="edge">
<title>Node4&#45;&gt;Node18</title>
<path fill="none" stroke="midnightblue" d="M562.82,-494.48C578.1,-482.04 606.58,-460.28 634,-447 638.63,-444.76 643.58,-442.71 648.6,-440.86"/>
<polygon fill="midnightblue" stroke="midnightblue" points="649.92,-444.1 658.24,-437.54 647.65,-437.48 649.92,-444.1"/>
</g>
<!-- Node19 -->
<g id="node19" class="node">
<title>Node19</title>
<g id="a_node19"><a xlink:href="rmap_8c_a7b4c31714493ce6cc19d4aa825ab50aa.html#a7b4c31714493ce6cc19d4aa825ab50aa" target="_top" xlink:title="set an RMAP transaction identifier">
<polygon fill="white" stroke="black" points="652.5,-722.5 652.5,-741.5 741.5,-741.5 741.5,-722.5 652.5,-722.5"/>
<text text-anchor="middle" x="697" y="-729.5" font-family="Helvetica,sans-Serif" font-size="10.00">rmap_set_tr_id</text>
</a>
</g>
</g>
<!-- Node4&#45;&gt;Node19 -->
<g id="edge19" class="edge">
<title>Node4&#45;&gt;Node19</title>
<path fill="none" stroke="midnightblue" d="M552.38,-513.52C555.93,-546.34 572.12,-655.81 634,-713 636.77,-715.56 639.87,-717.77 643.17,-719.69"/>
<polygon fill="midnightblue" stroke="midnightblue" points="641.77,-722.9 652.3,-724.09 644.82,-716.59 641.77,-722.9"/>
</g>
<!-- Node6 -->
<g id="node6" class="node">
<title>Node6</title>
<g id="a_node6"><a xlink:href="rmap_8c_a0ec3c28e83818f02e00d4c79d82d938a.html#a0ec3c28e83818f02e00d4c79d82d938a" target="_top" xlink:title="get the minimum header size given the RMAP instruction">
<polygon fill="white" stroke="black" points="800.5,-532.5 800.5,-551.5 933.5,-551.5 933.5,-532.5 800.5,-532.5"/>
<text text-anchor="middle" x="867" y="-539.5" font-family="Helvetica,sans-Serif" font-size="10.00">rmap_get_min_hdr_size</text>
</a>
</g>
</g>
<!-- Node5&#45;&gt;Node6 -->
<g id="edge5" class="edge">
<title>Node5&#45;&gt;Node6</title>
<path fill="none" stroke="midnightblue" d="M738.42,-646.4C745.83,-643.87 753.33,-640.76 760,-637 797.04,-616.08 832.2,-580.34 851.26,-559.17"/>
<polygon fill="midnightblue" stroke="midnightblue" points="853.96,-561.39 857.96,-551.58 848.72,-556.75 853.96,-561.39"/>
</g>
<!-- Node10 -->
<g id="node10" class="node">
<title>Node10</title>
<g id="a_node10"><a xlink:href="rmap_8c_a667ce871110961f2a611d0244791e20f.html#a667ce871110961f2a611d0244791e20f" target="_top" xlink:title="valiidates a command code">
<polygon fill="white" stroke="black" points="796,-684.5 796,-703.5 938,-703.5 938,-684.5 796,-684.5"/>
<text text-anchor="middle" x="867" y="-691.5" font-family="Helvetica,sans-Serif" font-size="10.00">rmap_validate_cmd_code</text>
</a>
</g>
</g>
<!-- Node9&#45;&gt;Node10 -->
<g id="edge9" class="edge">
<title>Node9&#45;&gt;Node10</title>
<path fill="none" stroke="midnightblue" d="M741.7,-694C755.13,-694 770.36,-694 785.44,-694"/>
<polygon fill="midnightblue" stroke="midnightblue" points="785.83,-697.5 795.83,-694 785.83,-690.5 785.83,-697.5"/>
</g>
<!-- Node14 -->
<g id="node14" class="node">
<title>Node14</title>
<g id="a_node14"><a xlink:href="test__cmp__max__used__bits__list_8c_a7ac38fce3243a7dcf448301ee9ffd392.html#a7ac38fce3243a7dcf448301ee9ffd392" target="_top" xlink:title=" ">
<polygon fill="white" stroke="black" points="842,-304.5 842,-323.5 892,-323.5 892,-304.5 842,-304.5"/>
<text text-anchor="middle" x="867" y="-311.5" font-family="Helvetica,sans-Serif" font-size="10.00">malloc</text>
</a>
</g>
</g>
<!-- Node13&#45;&gt;Node14 -->
<g id="edge13" class="edge">
<title>Node13&#45;&gt;Node14</title>
<path fill="none" stroke="midnightblue" d="M740.39,-342.41C768.71,-336.01 805.47,-327.69 831.9,-321.71"/>
<polygon fill="midnightblue" stroke="midnightblue" points="832.85,-325.09 841.83,-319.47 831.3,-318.26 832.85,-325.09"/>
</g>
<!-- Node17&#45;&gt;Node14 -->
<g id="edge17" class="edge">
<title>Node17&#45;&gt;Node14</title>
<path fill="none" stroke="midnightblue" d="M756.76,-314C781.69,-314 809.89,-314 831.39,-314"/>
<polygon fill="midnightblue" stroke="midnightblue" points="831.67,-317.5 841.67,-314 831.67,-310.5 831.67,-317.5"/>
</g>
<!-- Node21 -->
<g id="node21" class="node">
<title>Node21</title>
<g id="a_node21"><a xlink:href="rdcu__rmap_8c_a1a064554031c2fa2dcb65541e0765c0f.html#a1a064554031c2fa2dcb65541e0765c0f" target="_top" xlink:title="n rmap command transaction">
<polygon fill="white" stroke="black" points="503,-152.5 503,-171.5 598,-171.5 598,-152.5 503,-152.5"/>
<text text-anchor="middle" x="550.5" y="-159.5" font-family="Helvetica,sans-Serif" font-size="10.00">rdcu_process_rx</text>
</a>
</g>
</g>
<!-- Node20&#45;&gt;Node21 -->
<g id="edge21" class="edge">
<title>Node20&#45;&gt;Node21</title>
<path fill="none" stroke="midnightblue" d="M289.33,-152.49C307.49,-148.72 329.2,-144.86 349,-143 401.22,-138.11 414.89,-137.08 467,-143 479.91,-144.47 493.73,-147.19 506.31,-150.12"/>
<polygon fill="midnightblue" stroke="midnightblue" points="505.54,-153.53 516.08,-152.49 507.19,-146.73 505.54,-153.53"/>
</g>
<!-- Node21&#45;&gt;Node8 -->
<g id="edge24" class="edge">
<title>Node21&#45;&gt;Node8</title>
<path fill="none" stroke="midnightblue" d="M565.04,-171.68C581,-182.82 608.59,-201.22 634,-214 641.78,-217.91 650.36,-221.6 658.6,-224.87"/>
<polygon fill="midnightblue" stroke="midnightblue" points="657.45,-228.17 668.04,-228.48 659.95,-221.64 657.45,-228.17"/>
</g>
<!-- Node21&#45;&gt;Node14 -->
<g id="edge22" class="edge">
<title>Node21&#45;&gt;Node14</title>
<path fill="none" stroke="midnightblue" d="M590.4,-171.6C646.49,-185.61 745.05,-210.85 760,-219 797.36,-239.35 832.41,-275.29 851.36,-296.65"/>
<polygon fill="midnightblue" stroke="midnightblue" points="848.82,-299.06 858.02,-304.32 854.1,-294.47 848.82,-299.06"/>
</g>
<!-- Node22 -->
<g id="node22" class="node">
<title>Node22</title>
<g id="a_node22"><a xlink:href="rmap_8c_abf1868ec6873f9f189050cadc7e64a3b.html#abf1868ec6873f9f189050cadc7e64a3b" target="_top" xlink:title="calculate the CRC8 of a given buffer">
<polygon fill="white" stroke="black" points="663,-76.5 663,-95.5 731,-95.5 731,-76.5 663,-76.5"/>
<text text-anchor="middle" x="697" y="-83.5" font-family="Helvetica,sans-Serif" font-size="10.00">rmap_crc8</text>
</a>
</g>
</g>
<!-- Node21&#45;&gt;Node22 -->
<g id="edge23" class="edge">
<title>Node21&#45;&gt;Node22</title>
<path fill="none" stroke="midnightblue" d="M562.82,-152.48C578.1,-140.04 606.58,-118.28 634,-105 640.06,-102.07 646.67,-99.47 653.24,-97.2"/>
<polygon fill="midnightblue" stroke="midnightblue" points="654.34,-100.53 662.78,-94.13 652.19,-93.87 654.34,-100.53"/>
</g>
<!-- Node23 -->
<g id="node23" class="node">
<title>Node23</title>
<g id="a_node23"><a xlink:href="rmap_8c_a5e88a29337404518eceedf9b4af285bf.html#a5e88a29337404518eceedf9b4af285bf" target="_top" xlink:title=" ">
<polygon fill="white" stroke="black" points="649.5,-38.5 649.5,-57.5 744.5,-57.5 744.5,-38.5 649.5,-38.5"/>
<text text-anchor="middle" x="697" y="-45.5" font-family="Helvetica,sans-Serif" font-size="10.00">rmap_parse_pkt</text>
</a>
</g>
</g>
<!-- Node21&#45;&gt;Node23 -->
<g id="edge25" class="edge">
<title>Node21&#45;&gt;Node23</title>
<path fill="none" stroke="midnightblue" d="M557.24,-152.34C569.11,-133.19 598.29,-90.22 634,-67 637.16,-64.95 640.55,-63.1 644.06,-61.45"/>
<polygon fill="midnightblue" stroke="midnightblue" points="645.66,-64.58 653.56,-57.52 642.98,-58.12 645.66,-64.58"/>
</g>
<!-- Node28 -->
<g id="node28" class="node">
<title>Node28</title>
<g id="a_node28"><a xlink:href="rmap_8c_a46d3271304c12df042b57dbebaba67e1.html#a46d3271304c12df042b57dbebaba67e1" target="_top" xlink:title="create an rmap packet from a buffer">
<polygon fill="white" stroke="black" points="634.5,-380.5 634.5,-399.5 759.5,-399.5 759.5,-380.5 634.5,-380.5"/>
<text text-anchor="middle" x="697" y="-387.5" font-family="Helvetica,sans-Serif" font-size="10.00">rmap_pkt_from_buffer</text>
</a>
</g>
</g>
<!-- Node21&#45;&gt;Node28 -->
<g id="edge30" class="edge">
<title>Node21&#45;&gt;Node28</title>
<path fill="none" stroke="midnightblue" d="M552.38,-171.52C555.93,-204.34 572.12,-313.81 634,-371 635.71,-372.58 637.55,-374.03 639.49,-375.37"/>
<polygon fill="midnightblue" stroke="midnightblue" points="638.08,-378.59 648.51,-380.46 641.53,-372.49 638.08,-378.59"/>
</g>
<!-- Node29 -->
<g id="node29" class="node">
<title>Node29</title>
<g id="a_node29"><a xlink:href="rdcu__rmap_8c_acf9b176d8d9b24e9d07711f56aebccc0.html#acf9b176d8d9b24e9d07711f56aebccc0" target="_top" xlink:title="get the local address for a slot">
<polygon fill="white" stroke="black" points="642,-152.5 642,-171.5 752,-171.5 752,-152.5 642,-152.5"/>
<text text-anchor="middle" x="697" y="-159.5" font-family="Helvetica,sans-Serif" font-size="10.00">trans_log_get_addr</text>
</a>
</g>
</g>
<!-- Node21&#45;&gt;Node29 -->
<g id="edge34" class="edge">
<title>Node21&#45;&gt;Node29</title>
<path fill="none" stroke="midnightblue" d="M598.02,-162C608.69,-162 620.23,-162 631.51,-162"/>
<polygon fill="midnightblue" stroke="midnightblue" points="631.77,-165.5 641.77,-162 631.77,-158.5 631.77,-165.5"/>
</g>
<!-- Node30 -->
<g id="node30" class="node">
<title>Node30</title>
<g id="a_node30"><a xlink:href="rdcu__rmap_8c_a7012f58a1862cf07b00e299d24c199c2.html#a7012f58a1862cf07b00e299d24c199c2" target="_top" xlink:title="release a slot in the transaction log">
<polygon fill="white" stroke="black" points="634,-114.5 634,-133.5 760,-133.5 760,-114.5 634,-114.5"/>
<text text-anchor="middle" x="697" y="-121.5" font-family="Helvetica,sans-Serif" font-size="10.00">trans_log_release_slot</text>
</a>
</g>
</g>
<!-- Node21&#45;&gt;Node30 -->
<g id="edge35" class="edge">
<title>Node21&#45;&gt;Node30</title>
<path fill="none" stroke="midnightblue" d="M587.96,-152.41C606.77,-147.46 629.91,-141.38 649.95,-136.11"/>
<polygon fill="midnightblue" stroke="midnightblue" points="651.02,-139.45 659.8,-133.52 649.24,-132.68 651.02,-139.45"/>
</g>
<!-- Node24 -->
<g id="node24" class="node">
<title>Node24</title>
<g id="a_node24"><a xlink:href="rmap_8c_abb4e19c17c7223212c3904bc4c0189d2.html#abb4e19c17c7223212c3904bc4c0189d2" target="_top" xlink:title=" ">
<polygon fill="white" stroke="black" points="811.5,-76.5 811.5,-95.5 922.5,-95.5 922.5,-76.5 811.5,-76.5"/>
<text text-anchor="middle" x="867" y="-83.5" font-family="Helvetica,sans-Serif" font-size="10.00">rmap_check_status</text>
</a>
</g>
</g>
<!-- Node23&#45;&gt;Node24 -->
<g id="edge26" class="edge">
<title>Node23&#45;&gt;Node24</title>
<path fill="none" stroke="midnightblue" d="M740.39,-57.59C762.76,-62.65 790.4,-68.9 814.05,-74.25"/>
<polygon fill="midnightblue" stroke="midnightblue" points="813.39,-77.69 823.91,-76.48 814.93,-70.86 813.39,-77.69"/>
</g>
<!-- Node25 -->
<g id="node25" class="node">
<title>Node25</title>
<g id="a_node25"><a xlink:href="rmap_8c_a20aa8b91dfb1bbad819759f97b853054.html#a20aa8b91dfb1bbad819759f97b853054" target="_top" xlink:title=" ">
<polygon fill="white" stroke="black" points="806,-38.5 806,-57.5 928,-57.5 928,-38.5 806,-38.5"/>
<text text-anchor="middle" x="867" y="-45.5" font-family="Helvetica,sans-Serif" font-size="10.00">rmap_parse_cmd_pkt</text>
</a>
</g>
</g>
<!-- Node23&#45;&gt;Node25 -->
<g id="edge27" class="edge">
<title>Node23&#45;&gt;Node25</title>
<path fill="none" stroke="midnightblue" d="M744.8,-48C760.62,-48 778.66,-48 795.89,-48"/>
<polygon fill="midnightblue" stroke="midnightblue" points="795.92,-51.5 805.92,-48 795.92,-44.5 795.92,-51.5"/>
</g>
<!-- Node26 -->
<g id="node26" class="node">
<title>Node26</title>
<g id="a_node26"><a xlink:href="rmap_8c_adef42426b46ee5ad5176ee76cff35c22.html#adef42426b46ee5ad5176ee76cff35c22" target="_top" xlink:title=" ">
<polygon fill="white" stroke="black" points="804.5,-0.5 804.5,-19.5 929.5,-19.5 929.5,-0.5 804.5,-0.5"/>
<text text-anchor="middle" x="867" y="-7.5" font-family="Helvetica,sans-Serif" font-size="10.00">rmap_parse_reply_pkt</text>
</a>
</g>
</g>
<!-- Node23&#45;&gt;Node26 -->
<g id="edge28" class="edge">
<title>Node23&#45;&gt;Node26</title>
<path fill="none" stroke="midnightblue" d="M740.39,-38.41C762.76,-33.35 790.4,-27.1 814.05,-21.75"/>
<polygon fill="midnightblue" stroke="midnightblue" points="814.93,-25.14 823.91,-19.52 813.39,-18.31 814.93,-25.14"/>
</g>
<!-- Node27 -->
<g id="node27" class="node">
<title>Node27</title>
<g id="a_node27"><a xlink:href="rmap_8c_a2ff278a5e094a9f585865d4d838e0e0e.html#a2ff278a5e094a9f585865d4d838e0e0e" target="_top" xlink:title=" ">
<polygon fill="white" stroke="black" points="974,-0.5 974,-19.5 1116,-19.5 1116,-0.5 974,-0.5"/>
<text text-anchor="middle" x="1045" y="-7.5" font-family="Helvetica,sans-Serif" font-size="10.00">rmap_process_read_reply</text>
</a>
</g>
</g>
<!-- Node26&#45;&gt;Node27 -->
<g id="edge29" class="edge">
<title>Node26&#45;&gt;Node27</title>
<path fill="none" stroke="midnightblue" d="M929.56,-10C940.6,-10 952.25,-10 963.73,-10"/>
<polygon fill="midnightblue" stroke="midnightblue" points="963.74,-13.5 973.74,-10 963.74,-6.5 963.74,-13.5"/>
</g>
<!-- Node28&#45;&gt;Node6 -->
<g id="edge33" class="edge">
<title>Node28&#45;&gt;Node6</title>
<path fill="none" stroke="midnightblue" d="M742.9,-399.53C749,-402 754.9,-405.1 760,-409 783.81,-427.19 777.78,-442.22 796,-466 812.39,-487.38 833.64,-509.84 848.41,-524.74"/>
<polygon fill="midnightblue" stroke="midnightblue" points="846.32,-527.61 855.87,-532.19 851.27,-522.65 846.32,-527.61"/>
</g>
<!-- Node28&#45;&gt;Node7 -->
<g id="edge32" class="edge">
<title>Node28&#45;&gt;Node7</title>
<path fill="none" stroke="midnightblue" d="M730.27,-399.58C739.87,-402.51 750.38,-405.81 760,-409 783.76,-416.89 810.27,-426.4 830.83,-433.93"/>
<polygon fill="midnightblue" stroke="midnightblue" points="829.82,-437.28 840.41,-437.45 832.23,-430.71 829.82,-437.28"/>
</g>
<!-- Node28&#45;&gt;Node14 -->
<g id="edge31" class="edge">
<title>Node28&#45;&gt;Node14</title>
<path fill="none" stroke="midnightblue" d="M733.51,-380.43C742.29,-377.7 751.58,-374.51 760,-371 789.06,-358.87 820.64,-341.27 841.7,-328.84"/>
<polygon fill="midnightblue" stroke="midnightblue" points="843.52,-331.83 850.32,-323.7 839.94,-325.82 843.52,-331.83"/>
</g>
<!-- Node31&#45;&gt;Node14 -->
<g id="edge37" class="edge">
<title>Node31&#45;&gt;Node14</title>
<path fill="none" stroke="midnightblue" d="M290.91,-228.58C308.79,-232.43 329.85,-236.72 349,-240 530.65,-271.09 577.92,-266.51 760,-295 784.02,-298.76 810.99,-303.6 831.71,-307.46"/>
<polygon fill="midnightblue" stroke="midnightblue" points="831.16,-310.91 841.63,-309.32 832.45,-304.03 831.16,-310.91"/>
</g>
<!-- Node31&#45;&gt;Node21 -->
<g id="edge38" class="edge">
<title>Node31&#45;&gt;Node21</title>
<path fill="none" stroke="midnightblue" d="M293.61,-226.68C338.63,-232.58 409.24,-237.01 467,-219 492.24,-211.13 516.57,-192.53 532.18,-178.71"/>
<polygon fill="midnightblue" stroke="midnightblue" points="534.91,-180.96 539.91,-171.62 530.18,-175.8 534.91,-180.96"/>
</g>
<!-- Node32 -->
<g id="node32" class="node">
<title>Node32</title>
<g id="a_node32"><a xlink:href="rdcu__rmap_8c_a95fad3cd9b6bbe562e1a73e3f1c108a8.html#a95fad3cd9b6bbe562e1a73e3f1c108a8" target="_top" xlink:title="submit an rmap command transaction">
<polygon fill="white" stroke="black" points="362,-152.5 362,-171.5 454,-171.5 454,-152.5 362,-152.5"/>
<text text-anchor="middle" x="408" y="-159.5" font-family="Helvetica,sans-Serif" font-size="10.00">rdcu_submit_tx</text>
</a>
</g>
</g>
<!-- Node31&#45;&gt;Node32 -->
<g id="edge39" class="edge">
<title>Node31&#45;&gt;Node32</title>
<path fill="none" stroke="midnightblue" d="M272.76,-209.48C293.04,-201.6 322.79,-190.24 349,-181 354.97,-178.9 361.31,-176.74 367.52,-174.67"/>
<polygon fill="midnightblue" stroke="midnightblue" points="368.71,-177.96 377.11,-171.51 366.52,-171.32 368.71,-177.96"/>
</g>
<!-- Node33 -->
<g id="node33" class="node">
<title>Node33</title>
<g id="a_node33"><a xlink:href="rdcu__rmap_8c_a36f44335aa66dd49fb4903f7269bc5b1.html#a36f44335aa66dd49fb4903f7269bc5b1" target="_top" xlink:title="grab a slot in the transaction log">
<polygon fill="white" stroke="black" points="352,-190.5 352,-209.5 464,-209.5 464,-190.5 352,-190.5"/>
<text text-anchor="middle" x="408" y="-197.5" font-family="Helvetica,sans-Serif" font-size="10.00">trans_log_grab_slot</text>
</a>
</g>
</g>
<!-- Node31&#45;&gt;Node33 -->
<g id="edge41" class="edge">
<title>Node31&#45;&gt;Node33</title>
<path fill="none" stroke="midnightblue" d="M293.92,-213.56C308.7,-211.78 325.42,-209.78 341.38,-207.87"/>
<polygon fill="midnightblue" stroke="midnightblue" points="342.21,-211.29 351.72,-206.63 341.38,-204.34 342.21,-211.29"/>
</g>
<!-- Node32&#45;&gt;Node21 -->
<g id="edge40" class="edge">
<title>Node32&#45;&gt;Node21</title>
<path fill="none" stroke="midnightblue" d="M454.23,-162C466.51,-162 479.96,-162 492.79,-162"/>
<polygon fill="midnightblue" stroke="midnightblue" points="492.91,-165.5 502.91,-162 492.91,-158.5 492.91,-165.5"/>
</g>
</g>
</svg>
