<?xml version="1.0" encoding="UTF-8" standalone="no"?>
<!DOCTYPE svg PUBLIC "-//W3C//DTD SVG 1.1//EN"
 "http://www.w3.org/Graphics/SVG/1.1/DTD/svg11.dtd">
<!-- Generated by graphviz version 2.43.0 (0)
 -->
<!-- Title: rdcu_set_compression_mode Pages: 1 -->
<!--zoomable 104 -->
<svg id="main" version="1.1" xmlns="http://www.w3.org/2000/svg" xmlns:xlink="http://www.w3.org/1999/xlink" xml:space="preserve" onload="init(evt)">
<style type="text/css"><![CDATA[
.edge:hover path { stroke: red; }
.edge:hover polygon { stroke: red; fill: red; }
]]></style>
<script type="text/javascript"><![CDATA[
var edges = document.getElementsByTagName('g');
if (edges && edges.length) {
  for (var i=0;i<edges.length;i++) {
    if (edges[i].id.substr(0,4)=='edge') {
      edges[i].setAttribute('class','edge');
    }
  }
}
]]></script>
        <defs>
                <circle id="rim" cx="0" cy="0" r="7"/>
                <circle id="rim2" cx="0" cy="0" r="3.5"/>
                <g id="zoomPlus">
                        <use xlink:href="#rim" fill="#404040">
                                <set attributeName="fill" to="#808080" begin="zoomplus.mouseover" end="zoomplus.mouseout"/>
                        </use>
                        <path d="M-4,0h8M0,-4v8" fill="none" stroke="white" stroke-width="1.5" pointer-events="none"/>
                </g>
                <g id="zoomMin">
                        <use xlink:href="#rim" fill="#404040">
                                <set attributeName="fill" to="#808080" begin="zoomminus.mouseover" end="zoomminus.mouseout"/>
                        </use>
                        <path d="M-4,0h8" fill="none" stroke="white" stroke-width="1.5" pointer-events="none"/>
                </g>
                <g id="dirArrow">
                        <path fill="none" stroke="white" stroke-width="1.5" d="M0,-3.0v7 M-2.5,-0.5L0,-3.0L2.5,-0.5"/>
                </g>
               <g id="resetDef">
                       <use xlink:href="#rim2" fill="#404040">
                               <set attributeName="fill" to="#808080" begin="reset.mouseover" end="reset.mouseout"/>
                       </use>
               </g>
        </defs>

<script type="text/javascript">
var viewWidth = 643;
var viewHeight = 104;
var sectionId = 'dynsection-0';
</script>
<script xlink:href="svgpan.js"/>
<svg id="graph" class="graph">
<g id="viewport">
<title>rdcu_set_compression_mode</title>
<polygon fill="white" stroke="transparent" points="-4,4 -4,-100 639,-100 639,4 -4,4"/>
<!-- Node1 -->
<g id="node1" class="node">
<title>Node1</title>
<g id="a_node1"><a xlink:title="set compression mode">
<polygon fill="#bfbfbf" stroke="black" points="477,-38.5 477,-57.5 635,-57.5 635,-38.5 477,-38.5"/>
<text text-anchor="middle" x="556" y="-45.5" font-family="Helvetica,sans-Serif" font-size="10.00">rdcu_set_compression_mode</text>
</a>
</g>
</g>
<!-- Node2 -->
<g id="node2" class="node">
<title>Node2</title>
<g id="a_node2"><a xlink:href="cmp__rdcu_8c_a1b450ab652a1da5f914786ce577458f9.html#a1b450ab652a1da5f914786ce577458f9" target="_top" xlink:title="set up RDCU compression register">
<polygon fill="white" stroke="black" points="316,-33 316,-63 441,-63 441,-33 316,-33"/>
<text text-anchor="start" x="324" y="-51" font-family="Helvetica,sans-Serif" font-size="10.00">rdcu_set_compression</text>
<text text-anchor="middle" x="378.5" y="-40" font-family="Helvetica,sans-Serif" font-size="10.00">_register</text>
</a>
</g>
</g>
<!-- Node1&#45;&gt;Node2 -->
<g id="edge1" class="edge">
<title>Node1&#45;&gt;Node2</title>
<path fill="none" stroke="midnightblue" d="M466.61,-48C457.95,-48 449.31,-48 441.01,-48"/>
<polygon fill="midnightblue" stroke="midnightblue" points="466.75,-51.5 476.75,-48 466.75,-44.5 466.75,-51.5"/>
</g>
<!-- Node3 -->
<g id="node3" class="node">
<title>Node3</title>
<g id="a_node3"><a xlink:href="cmp__rdcu_8h_a85aeb890a333d637dd7ffba03729e93a.html#a85aeb890a333d637dd7ffba03729e93a" target="_top" xlink:title="compressing data with the help of the RDCU hardware compressor">
<polygon fill="white" stroke="black" points="158,-76.5 158,-95.5 275,-95.5 275,-76.5 158,-76.5"/>
<text text-anchor="middle" x="216.5" y="-83.5" font-family="Helvetica,sans-Serif" font-size="10.00">rdcu_compress_data</text>
</a>
</g>
</g>
<!-- Node2&#45;&gt;Node3 -->
<g id="edge2" class="edge">
<title>Node2&#45;&gt;Node3</title>
<path fill="none" stroke="midnightblue" d="M305.56,-65.09C289.23,-68.96 272.45,-72.95 257.97,-76.39"/>
<polygon fill="midnightblue" stroke="midnightblue" points="306.72,-68.41 315.64,-62.69 305.1,-61.6 306.72,-68.41"/>
</g>
<!-- Node4 -->
<g id="node4" class="node">
<title>Node4</title>
<g id="a_node4"><a xlink:href="cmp__rdcu_8c_ab69cf44ac326e0cebdef002e8f2ea2cb.html#ab69cf44ac326e0cebdef002e8f2ea2cb" target="_top" xlink:title="compressing data with the help of the RDCU hardware compressor; read data from the last compression b...">
<polygon fill="white" stroke="black" points="0,-52 0,-82 117,-82 117,-52 0,-52"/>
<text text-anchor="start" x="8" y="-70" font-family="Helvetica,sans-Serif" font-size="10.00">rdcu_compress_data</text>
<text text-anchor="middle" x="58.5" y="-59" font-family="Helvetica,sans-Serif" font-size="10.00">_parallel</text>
</a>
</g>
</g>
<!-- Node2&#45;&gt;Node4 -->
<g id="edge4" class="edge">
<title>Node2&#45;&gt;Node4</title>
<path fill="none" stroke="midnightblue" d="M305.78,-52.29C248.73,-55.69 169.96,-60.4 117.01,-63.56"/>
<polygon fill="midnightblue" stroke="midnightblue" points="306.04,-55.78 315.81,-51.69 305.62,-48.79 306.04,-55.78"/>
</g>
<!-- Node5 -->
<g id="node5" class="node">
<title>Node5</title>
<g id="a_node5"><a xlink:href="cmp__rdcu_8c_af59f75c76a057d49a54b54800dc59556.html#af59f75c76a057d49a54b54800dc59556" target="_top" xlink:title="inject a SRAM edac multi bit error into the RDCU SRAM">
<polygon fill="white" stroke="black" points="153,-0.5 153,-19.5 280,-19.5 280,-0.5 153,-0.5"/>
<text text-anchor="middle" x="216.5" y="-7.5" font-family="Helvetica,sans-Serif" font-size="10.00">rdcu_inject_edac_error</text>
</a>
</g>
</g>
<!-- Node2&#45;&gt;Node5 -->
<g id="edge5" class="edge">
<title>Node2&#45;&gt;Node5</title>
<path fill="none" stroke="midnightblue" d="M305.56,-30.91C289.23,-27.04 272.45,-23.05 257.97,-19.61"/>
<polygon fill="midnightblue" stroke="midnightblue" points="305.1,-34.4 315.64,-33.31 306.72,-27.59 305.1,-34.4"/>
</g>
<!-- Node3&#45;&gt;Node4 -->
<g id="edge3" class="edge">
<title>Node3&#45;&gt;Node4</title>
<path fill="none" stroke="midnightblue" d="M147.76,-77.75C137.57,-76.51 127.13,-75.24 117.17,-74.02"/>
<polygon fill="midnightblue" stroke="midnightblue" points="147.5,-81.24 157.85,-78.98 148.35,-74.3 147.5,-81.24"/>
</g>
</g>
</svg>
        <g id="navigator" transform="translate(0 0)" fill="#404254">
                <rect fill="#f2f5e9" fill-opacity="0.5" stroke="#606060" stroke-width=".5" x="0" y="0" width="60" height="60"/>
                <use id="zoomplus" xlink:href="#zoomPlus" x="17" y="9" onmousedown="handleZoom(evt,'in')"/>
                <use id="zoomminus" xlink:href="#zoomMin" x="42" y="9" onmousedown="handleZoom(evt,'out')"/>
                <use id="reset" xlink:href="#resetDef" x="30" y="36" onmousedown="handleReset()"/>
                <g id="arrowUp" xlink:href="#dirArrow" transform="translate(30 24)" onmousedown="handlePan(0,-1)">
                  <use xlink:href="#rim" fill="#404040">
                        <set attributeName="fill" to="#808080" begin="arrowUp.mouseover" end="arrowUp.mouseout"/>
                  </use>
                  <path fill="none" stroke="white" stroke-width="1.5" d="M0,-3.0v7 M-2.5,-0.5L0,-3.0L2.5,-0.5"/>
                </g>
                <g id="arrowRight" xlink:href="#dirArrow" transform="rotate(90) translate(36 -43)" onmousedown="handlePan(1,0)">
                  <use xlink:href="#rim" fill="#404040">
                        <set attributeName="fill" to="#808080" begin="arrowRight.mouseover" end="arrowRight.mouseout"/>
                  </use>
                  <path fill="none" stroke="white" stroke-width="1.5" d="M0,-3.0v7 M-2.5,-0.5L0,-3.0L2.5,-0.5"/>
                </g>
                <g id="arrowDown" xlink:href="#dirArrow" transform="rotate(180) translate(-30 -48)" onmousedown="handlePan(0,1)">
                  <use xlink:href="#rim" fill="#404040">
                        <set attributeName="fill" to="#808080" begin="arrowDown.mouseover" end="arrowDown.mouseout"/>
                  </use>
                  <path fill="none" stroke="white" stroke-width="1.5" d="M0,-3.0v7 M-2.5,-0.5L0,-3.0L2.5,-0.5"/>
                </g>
                <g id="arrowLeft" xlink:href="#dirArrow" transform="rotate(270) translate(-36 17)" onmousedown="handlePan(-1,0)">
                  <use xlink:href="#rim" fill="#404040">
                        <set attributeName="fill" to="#808080" begin="arrowLeft.mouseover" end="arrowLeft.mouseout"/>
                  </use>
                  <path fill="none" stroke="white" stroke-width="1.5" d="M0,-3.0v7 M-2.5,-0.5L0,-3.0L2.5,-0.5"/>
                </g>
        </g>
        <svg viewBox="0 0 15 15" width="100%" height="30px" preserveAspectRatio="xMaxYMin meet">
         <g id="arrow_out" transform="scale(0.3 0.3)">
          <a xlink:href="rdcu__ctrl_8h_a4d453cdfa10dce502a58e5b2dcc0d239_a4d453cdfa10dce502a58e5b2dcc0d239_icgraph_org.svg" target="_base">
           <rect id="button" ry="5" rx="5" y="6" x="6" height="38" width="38"
                fill="#f2f5e9" fill-opacity="0.5" stroke="#606060" stroke-width="1.0"/>
           <path id="arrow"
             d="M 11.500037,31.436501 C 11.940474,20.09759 22.043105,11.32322 32.158766,21.979434 L 37.068811,17.246167 C 37.068811,17.246167 37.088388,32 37.088388,32 L 22.160133,31.978069 C 22.160133,31.978069 26.997745,27.140456 26.997745,27.140456 C 18.528582,18.264221 13.291696,25.230495 11.500037,31.436501 z"
             style="fill:#404040;"/>
          </a>
         </g>
        </svg>
</svg>
