<?xml version="1.0" encoding="UTF-8" standalone="no"?>
<!DOCTYPE svg PUBLIC "-//W3C//DTD SVG 1.1//EN"
 "http://www.w3.org/Graphics/SVG/1.1/DTD/svg11.dtd">
<!-- Generated by graphviz version 2.43.0 (0)
 -->
<!-- Title: rdcu_sync_num_samples Pages: 1 -->
<svg width="1126pt" height="750pt"
 viewBox="0.00 0.00 1126.00 750.00" xmlns="http://www.w3.org/2000/svg" xmlns:xlink="http://www.w3.org/1999/xlink">
<g id="graph0" class="graph" transform="scale(1 1) rotate(0) translate(4 746)">
<title>rdcu_sync_num_samples</title>
<polygon fill="white" stroke="transparent" points="-4,4 -4,-746 1122,-746 1122,4 -4,4"/>
<!-- Node1 -->
<g id="node1" class="node">
<title>Node1</title>
<g id="a_node1"><a xlink:title="sync the Number of Samples (write only)">
<polygon fill="#bfbfbf" stroke="black" points="0,-586.5 0,-605.5 139,-605.5 139,-586.5 0,-586.5"/>
<text text-anchor="middle" x="69.5" y="-593.5" font-family="Helvetica,sans-Serif" font-size="10.00">rdcu_sync_num_samples</text>
</a>
</g>
</g>
<!-- Node2 -->
<g id="node2" class="node">
<title>Node2</title>
<g id="a_node2"><a xlink:href="rdcu__rmap_8c_a533d1eb248d83ba3d406cefe7f3c9eb9.html#a533d1eb248d83ba3d406cefe7f3c9eb9" target="_top" xlink:title="submit a sync command">
<polygon fill="white" stroke="black" points="203,-608.5 203,-627.5 268,-627.5 268,-608.5 203,-608.5"/>
<text text-anchor="middle" x="235.5" y="-615.5" font-family="Helvetica,sans-Serif" font-size="10.00">rdcu_sync</text>
</a>
</g>
</g>
<!-- Node1&#45;&gt;Node2 -->
<g id="edge1" class="edge">
<title>Node1&#45;&gt;Node2</title>
<path fill="none" stroke="midnightblue" d="M139.1,-605.2C157.25,-607.64 176.29,-610.19 192.55,-612.37"/>
<polygon fill="midnightblue" stroke="midnightblue" points="192.42,-615.89 202.79,-613.75 193.35,-608.95 192.42,-615.89"/>
</g>
<!-- Node19 -->
<g id="node19" class="node">
<title>Node19</title>
<g id="a_node19"><a xlink:href="rdcu__cmd_8c_aa541ffd538036f3c511cb0932d3dd463.html#aa541ffd538036f3c511cb0932d3dd463" target="_top" xlink:title="create a command to write the RDCU number of samples register">
<polygon fill="white" stroke="black" points="175,-559 175,-589 296,-589 296,-559 175,-559"/>
<text text-anchor="start" x="183" y="-577" font-family="Helvetica,sans-Serif" font-size="10.00">rdcu_write_cmd_num</text>
<text text-anchor="middle" x="235.5" y="-566" font-family="Helvetica,sans-Serif" font-size="10.00">_samples</text>
</a>
</g>
</g>
<!-- Node1&#45;&gt;Node19 -->
<g id="edge20" class="edge">
<title>Node1&#45;&gt;Node19</title>
<path fill="none" stroke="midnightblue" d="M139.1,-586.8C147.52,-585.67 156.14,-584.51 164.59,-583.38"/>
<polygon fill="midnightblue" stroke="midnightblue" points="165.33,-586.81 174.77,-582.01 164.4,-579.87 165.33,-586.81"/>
</g>
<!-- Node3 -->
<g id="node3" class="node">
<title>Node3</title>
<g id="a_node3"><a xlink:href="test__cmp__max__used__bits__list_8c_a7ac38fce3243a7dcf448301ee9ffd392.html#a7ac38fce3243a7dcf448301ee9ffd392" target="_top" xlink:title=" ">
<polygon fill="white" stroke="black" points="844,-418.5 844,-437.5 894,-437.5 894,-418.5 844,-418.5"/>
<text text-anchor="middle" x="869" y="-425.5" font-family="Helvetica,sans-Serif" font-size="10.00">malloc</text>
</a>
</g>
</g>
<!-- Node2&#45;&gt;Node3 -->
<g id="edge2" class="edge">
<title>Node2&#45;&gt;Node3</title>
<path fill="none" stroke="midnightblue" d="M268.27,-623.61C368.93,-640.72 678.95,-688 762,-637 831.21,-594.5 856.94,-491.2 864.91,-447.76"/>
<polygon fill="midnightblue" stroke="midnightblue" points="868.37,-448.3 866.61,-437.86 861.47,-447.12 868.37,-448.3"/>
</g>
<!-- Node4 -->
<g id="node4" class="node">
<title>Node4</title>
<g id="a_node4"><a xlink:href="rdcu__rmap_8c_a95fad3cd9b6bbe562e1a73e3f1c108a8.html#a95fad3cd9b6bbe562e1a73e3f1c108a8" target="_top" xlink:title="submit an rmap command transaction">
<polygon fill="white" stroke="black" points="354.5,-570.5 354.5,-589.5 446.5,-589.5 446.5,-570.5 354.5,-570.5"/>
<text text-anchor="middle" x="400.5" y="-577.5" font-family="Helvetica,sans-Serif" font-size="10.00">rdcu_submit_tx</text>
</a>
</g>
</g>
<!-- Node2&#45;&gt;Node4 -->
<g id="edge3" class="edge">
<title>Node2&#45;&gt;Node4</title>
<path fill="none" stroke="midnightblue" d="M268.31,-610.58C291.15,-605.26 322.41,-597.97 348.68,-591.85"/>
<polygon fill="midnightblue" stroke="midnightblue" points="349.54,-595.24 358.48,-589.56 347.95,-588.42 349.54,-595.24"/>
</g>
<!-- Node18 -->
<g id="node18" class="node">
<title>Node18</title>
<g id="a_node18"><a xlink:href="rdcu__rmap_8c_a36f44335aa66dd49fb4903f7269bc5b1.html#a36f44335aa66dd49fb4903f7269bc5b1" target="_top" xlink:title="grab a slot in the transaction log">
<polygon fill="white" stroke="black" points="344.5,-684.5 344.5,-703.5 456.5,-703.5 456.5,-684.5 344.5,-684.5"/>
<text text-anchor="middle" x="400.5" y="-691.5" font-family="Helvetica,sans-Serif" font-size="10.00">trans_log_grab_slot</text>
</a>
</g>
</g>
<!-- Node2&#45;&gt;Node18 -->
<g id="edge19" class="edge">
<title>Node2&#45;&gt;Node18</title>
<path fill="none" stroke="midnightblue" d="M252.33,-627.62C270.96,-638.71 303.04,-657.06 332,-670 340.93,-673.99 350.75,-677.8 360.07,-681.15"/>
<polygon fill="midnightblue" stroke="midnightblue" points="358.94,-684.46 369.53,-684.48 361.26,-677.86 358.94,-684.46"/>
</g>
<!-- Node5 -->
<g id="node5" class="node">
<title>Node5</title>
<g id="a_node5"><a xlink:href="rdcu__rmap_8c_a1a064554031c2fa2dcb65541e0765c0f.html#a1a064554031c2fa2dcb65541e0765c0f" target="_top" xlink:title="n rmap command transaction">
<polygon fill="white" stroke="black" points="505,-551.5 505,-570.5 600,-570.5 600,-551.5 505,-551.5"/>
<text text-anchor="middle" x="552.5" y="-558.5" font-family="Helvetica,sans-Serif" font-size="10.00">rdcu_process_rx</text>
</a>
</g>
</g>
<!-- Node4&#45;&gt;Node5 -->
<g id="edge4" class="edge">
<title>Node4&#45;&gt;Node5</title>
<path fill="none" stroke="midnightblue" d="M446.5,-574.3C461.65,-572.38 478.76,-570.21 494.69,-568.2"/>
<polygon fill="midnightblue" stroke="midnightblue" points="495.49,-571.62 504.97,-566.89 494.61,-564.68 495.49,-571.62"/>
</g>
<!-- Node5&#45;&gt;Node3 -->
<g id="edge5" class="edge">
<title>Node5&#45;&gt;Node3</title>
<path fill="none" stroke="midnightblue" d="M572.19,-551.49C588.7,-543.3 613.59,-531.49 636,-523 690.69,-502.27 707.97,-507.41 762,-485 791.25,-472.87 823.03,-455.12 844.08,-442.66"/>
<polygon fill="midnightblue" stroke="midnightblue" points="845.9,-445.65 852.68,-437.51 842.3,-439.65 845.9,-445.65"/>
</g>
<!-- Node6 -->
<g id="node6" class="node">
<title>Node6</title>
<g id="a_node6"><a xlink:href="rmap_8c_abf1868ec6873f9f189050cadc7e64a3b.html#abf1868ec6873f9f189050cadc7e64a3b" target="_top" xlink:title="calculate the CRC8 of a given buffer">
<polygon fill="white" stroke="black" points="665,-570.5 665,-589.5 733,-589.5 733,-570.5 665,-570.5"/>
<text text-anchor="middle" x="699" y="-577.5" font-family="Helvetica,sans-Serif" font-size="10.00">rmap_crc8</text>
</a>
</g>
</g>
<!-- Node5&#45;&gt;Node6 -->
<g id="edge6" class="edge">
<title>Node5&#45;&gt;Node6</title>
<path fill="none" stroke="midnightblue" d="M600.02,-567.12C617.51,-569.42 637.31,-572.02 654.52,-574.28"/>
<polygon fill="midnightblue" stroke="midnightblue" points="654.48,-577.81 664.85,-575.64 655.39,-570.87 654.48,-577.81"/>
</g>
<!-- Node7 -->
<g id="node7" class="node">
<title>Node7</title>
<g id="a_node7"><a xlink:href="rmap_8c_a1def9af549819e7fdbda12af8bdc9c0e.html#a1def9af549819e7fdbda12af8bdc9c0e" target="_top" xlink:title="completely destroys an RMAP packet">
<polygon fill="white" stroke="black" points="643,-456.5 643,-475.5 755,-475.5 755,-456.5 643,-456.5"/>
<text text-anchor="middle" x="699" y="-463.5" font-family="Helvetica,sans-Serif" font-size="10.00">rmap_erase_packet</text>
</a>
</g>
</g>
<!-- Node5&#45;&gt;Node7 -->
<g id="edge7" class="edge">
<title>Node5&#45;&gt;Node7</title>
<path fill="none" stroke="midnightblue" d="M562.8,-551.06C577.25,-536.11 606.5,-507.68 636,-490 642.75,-485.95 650.31,-482.36 657.76,-479.26"/>
<polygon fill="midnightblue" stroke="midnightblue" points="659.04,-482.52 667.07,-475.61 656.48,-476 659.04,-482.52"/>
</g>
<!-- Node8 -->
<g id="node8" class="node">
<title>Node8</title>
<g id="a_node8"><a xlink:href="rmap_8c_a5e88a29337404518eceedf9b4af285bf.html#a5e88a29337404518eceedf9b4af285bf" target="_top" xlink:title=" ">
<polygon fill="white" stroke="black" points="651.5,-684.5 651.5,-703.5 746.5,-703.5 746.5,-684.5 651.5,-684.5"/>
<text text-anchor="middle" x="699" y="-691.5" font-family="Helvetica,sans-Serif" font-size="10.00">rmap_parse_pkt</text>
</a>
</g>
</g>
<!-- Node5&#45;&gt;Node8 -->
<g id="edge8" class="edge">
<title>Node5&#45;&gt;Node8</title>
<path fill="none" stroke="midnightblue" d="M563.92,-570.6C579.56,-585.02 610.06,-613.13 636,-637 650.83,-650.65 667.66,-666.12 680.04,-677.5"/>
<polygon fill="midnightblue" stroke="midnightblue" points="677.73,-680.13 687.47,-684.32 682.47,-674.98 677.73,-680.13"/>
</g>
<!-- Node13 -->
<g id="node13" class="node">
<title>Node13</title>
<g id="a_node13"><a xlink:href="rmap_8c_a46d3271304c12df042b57dbebaba67e1.html#a46d3271304c12df042b57dbebaba67e1" target="_top" xlink:title="create an rmap packet from a buffer">
<polygon fill="white" stroke="black" points="636.5,-342.5 636.5,-361.5 761.5,-361.5 761.5,-342.5 636.5,-342.5"/>
<text text-anchor="middle" x="699" y="-349.5" font-family="Helvetica,sans-Serif" font-size="10.00">rmap_pkt_from_buffer</text>
</a>
</g>
</g>
<!-- Node5&#45;&gt;Node13 -->
<g id="edge13" class="edge">
<title>Node5&#45;&gt;Node13</title>
<path fill="none" stroke="midnightblue" d="M554.8,-551.48C559.52,-520.6 578.62,-422.28 636,-371 637.91,-369.29 639.97,-367.74 642.14,-366.33"/>
<polygon fill="midnightblue" stroke="midnightblue" points="643.84,-369.39 650.95,-361.54 640.49,-363.24 643.84,-369.39"/>
</g>
<!-- Node16 -->
<g id="node16" class="node">
<title>Node16</title>
<g id="a_node16"><a xlink:href="rdcu__rmap_8c_acf9b176d8d9b24e9d07711f56aebccc0.html#acf9b176d8d9b24e9d07711f56aebccc0" target="_top" xlink:title="get the local address for a slot">
<polygon fill="white" stroke="black" points="644,-532.5 644,-551.5 754,-551.5 754,-532.5 644,-532.5"/>
<text text-anchor="middle" x="699" y="-539.5" font-family="Helvetica,sans-Serif" font-size="10.00">trans_log_get_addr</text>
</a>
</g>
</g>
<!-- Node5&#45;&gt;Node16 -->
<g id="edge17" class="edge">
<title>Node5&#45;&gt;Node16</title>
<path fill="none" stroke="midnightblue" d="M600.02,-554.88C610.69,-553.48 622.23,-551.96 633.51,-550.48"/>
<polygon fill="midnightblue" stroke="midnightblue" points="634.31,-553.9 643.77,-549.13 633.4,-546.96 634.31,-553.9"/>
</g>
<!-- Node17 -->
<g id="node17" class="node">
<title>Node17</title>
<g id="a_node17"><a xlink:href="rdcu__rmap_8c_a7012f58a1862cf07b00e299d24c199c2.html#a7012f58a1862cf07b00e299d24c199c2" target="_top" xlink:title="release a slot in the transaction log">
<polygon fill="white" stroke="black" points="636,-608.5 636,-627.5 762,-627.5 762,-608.5 636,-608.5"/>
<text text-anchor="middle" x="699" y="-615.5" font-family="Helvetica,sans-Serif" font-size="10.00">trans_log_release_slot</text>
</a>
</g>
</g>
<!-- Node5&#45;&gt;Node17 -->
<g id="edge18" class="edge">
<title>Node5&#45;&gt;Node17</title>
<path fill="none" stroke="midnightblue" d="M572.52,-570.65C589.05,-578.82 613.75,-590.51 636,-599 641.87,-601.24 648.12,-603.4 654.31,-605.42"/>
<polygon fill="midnightblue" stroke="midnightblue" points="653.34,-608.78 663.93,-608.46 655.45,-602.11 653.34,-608.78"/>
</g>
<!-- Node9 -->
<g id="node9" class="node">
<title>Node9</title>
<g id="a_node9"><a xlink:href="rmap_8c_abb4e19c17c7223212c3904bc4c0189d2.html#abb4e19c17c7223212c3904bc4c0189d2" target="_top" xlink:title=" ">
<polygon fill="white" stroke="black" points="813.5,-684.5 813.5,-703.5 924.5,-703.5 924.5,-684.5 813.5,-684.5"/>
<text text-anchor="middle" x="869" y="-691.5" font-family="Helvetica,sans-Serif" font-size="10.00">rmap_check_status</text>
</a>
</g>
</g>
<!-- Node8&#45;&gt;Node9 -->
<g id="edge9" class="edge">
<title>Node8&#45;&gt;Node9</title>
<path fill="none" stroke="midnightblue" d="M746.8,-694C764.33,-694 784.57,-694 803.42,-694"/>
<polygon fill="midnightblue" stroke="midnightblue" points="803.43,-697.5 813.43,-694 803.43,-690.5 803.43,-697.5"/>
</g>
<!-- Node10 -->
<g id="node10" class="node">
<title>Node10</title>
<g id="a_node10"><a xlink:href="rmap_8c_a20aa8b91dfb1bbad819759f97b853054.html#a20aa8b91dfb1bbad819759f97b853054" target="_top" xlink:title=" ">
<polygon fill="white" stroke="black" points="808,-646.5 808,-665.5 930,-665.5 930,-646.5 808,-646.5"/>
<text text-anchor="middle" x="869" y="-653.5" font-family="Helvetica,sans-Serif" font-size="10.00">rmap_parse_cmd_pkt</text>
</a>
</g>
</g>
<!-- Node8&#45;&gt;Node10 -->
<g id="edge10" class="edge">
<title>Node8&#45;&gt;Node10</title>
<path fill="none" stroke="midnightblue" d="M742.39,-684.41C764.76,-679.35 792.4,-673.1 816.05,-667.75"/>
<polygon fill="midnightblue" stroke="midnightblue" points="816.93,-671.14 825.91,-665.52 815.39,-664.31 816.93,-671.14"/>
</g>
<!-- Node11 -->
<g id="node11" class="node">
<title>Node11</title>
<g id="a_node11"><a xlink:href="rmap_8c_adef42426b46ee5ad5176ee76cff35c22.html#adef42426b46ee5ad5176ee76cff35c22" target="_top" xlink:title=" ">
<polygon fill="white" stroke="black" points="806.5,-722.5 806.5,-741.5 931.5,-741.5 931.5,-722.5 806.5,-722.5"/>
<text text-anchor="middle" x="869" y="-729.5" font-family="Helvetica,sans-Serif" font-size="10.00">rmap_parse_reply_pkt</text>
</a>
</g>
</g>
<!-- Node8&#45;&gt;Node11 -->
<g id="edge11" class="edge">
<title>Node8&#45;&gt;Node11</title>
<path fill="none" stroke="midnightblue" d="M742.39,-703.59C764.76,-708.65 792.4,-714.9 816.05,-720.25"/>
<polygon fill="midnightblue" stroke="midnightblue" points="815.39,-723.69 825.91,-722.48 816.93,-716.86 815.39,-723.69"/>
</g>
<!-- Node12 -->
<g id="node12" class="node">
<title>Node12</title>
<g id="a_node12"><a xlink:href="rmap_8c_a2ff278a5e094a9f585865d4d838e0e0e.html#a2ff278a5e094a9f585865d4d838e0e0e" target="_top" xlink:title=" ">
<polygon fill="white" stroke="black" points="976,-722.5 976,-741.5 1118,-741.5 1118,-722.5 976,-722.5"/>
<text text-anchor="middle" x="1047" y="-729.5" font-family="Helvetica,sans-Serif" font-size="10.00">rmap_process_read_reply</text>
</a>
</g>
</g>
<!-- Node11&#45;&gt;Node12 -->
<g id="edge12" class="edge">
<title>Node11&#45;&gt;Node12</title>
<path fill="none" stroke="midnightblue" d="M931.56,-732C942.6,-732 954.25,-732 965.73,-732"/>
<polygon fill="midnightblue" stroke="midnightblue" points="965.74,-735.5 975.74,-732 965.74,-728.5 965.74,-735.5"/>
</g>
<!-- Node13&#45;&gt;Node3 -->
<g id="edge14" class="edge">
<title>Node13&#45;&gt;Node3</title>
<path fill="none" stroke="midnightblue" d="M735.51,-361.57C744.29,-364.3 753.58,-367.49 762,-371 791.06,-383.13 822.64,-400.73 843.7,-413.16"/>
<polygon fill="midnightblue" stroke="midnightblue" points="841.94,-416.18 852.32,-418.3 845.52,-410.17 841.94,-416.18"/>
</g>
<!-- Node14 -->
<g id="node14" class="node">
<title>Node14</title>
<g id="a_node14"><a xlink:href="rmap_8c_aba944cf978de0b264ea5bb3a784bce0f.html#aba944cf978de0b264ea5bb3a784bce0f" target="_top" xlink:title="create an RMAP packet and set defaults">
<polygon fill="white" stroke="black" points="811,-228.5 811,-247.5 927,-247.5 927,-228.5 811,-228.5"/>
<text text-anchor="middle" x="869" y="-235.5" font-family="Helvetica,sans-Serif" font-size="10.00">rmap_create_packet</text>
</a>
</g>
</g>
<!-- Node13&#45;&gt;Node14 -->
<g id="edge15" class="edge">
<title>Node13&#45;&gt;Node14</title>
<path fill="none" stroke="midnightblue" d="M740.42,-342.4C747.83,-339.87 755.33,-336.76 762,-333 799.04,-312.08 834.2,-276.34 853.26,-255.17"/>
<polygon fill="midnightblue" stroke="midnightblue" points="855.96,-257.39 859.96,-247.58 850.72,-252.75 855.96,-257.39"/>
</g>
<!-- Node15 -->
<g id="node15" class="node">
<title>Node15</title>
<g id="a_node15"><a xlink:href="rmap_8c_a0ec3c28e83818f02e00d4c79d82d938a.html#a0ec3c28e83818f02e00d4c79d82d938a" target="_top" xlink:title="get the minimum header size given the RMAP instruction">
<polygon fill="white" stroke="black" points="802.5,-133.5 802.5,-152.5 935.5,-152.5 935.5,-133.5 802.5,-133.5"/>
<text text-anchor="middle" x="869" y="-140.5" font-family="Helvetica,sans-Serif" font-size="10.00">rmap_get_min_hdr_size</text>
</a>
</g>
</g>
<!-- Node13&#45;&gt;Node15 -->
<g id="edge16" class="edge">
<title>Node13&#45;&gt;Node15</title>
<path fill="none" stroke="midnightblue" d="M748.37,-342.44C753.39,-339.98 758.08,-336.88 762,-333 799.73,-295.59 771.36,-264.97 798,-219 811.48,-195.74 833.17,-173.66 848.83,-159.36"/>
<polygon fill="midnightblue" stroke="midnightblue" points="851.26,-161.89 856.4,-152.62 846.6,-156.66 851.26,-161.89"/>
</g>
<!-- Node20 -->
<g id="node20" class="node">
<title>Node20</title>
<g id="a_node20"><a xlink:href="rdcu__cmd_8c_a690d79ff983a96fdd40db6396e9c70e9.html#a690d79ff983a96fdd40db6396e9c70e9" target="_top" xlink:title="generate a write command for an arbitrary register (internal)">
<polygon fill="white" stroke="black" points="332,-353 332,-383 469,-383 469,-353 332,-353"/>
<text text-anchor="start" x="340" y="-371" font-family="Helvetica,sans-Serif" font-size="10.00">rdcu_write_cmd_register</text>
<text text-anchor="middle" x="400.5" y="-360" font-family="Helvetica,sans-Serif" font-size="10.00">_internal</text>
</a>
</g>
</g>
<!-- Node19&#45;&gt;Node20 -->
<g id="edge21" class="edge">
<title>Node19&#45;&gt;Node20</title>
<path fill="none" stroke="midnightblue" d="M248.49,-558.85C276.69,-523.21 347.39,-433.86 381.09,-391.27"/>
<polygon fill="midnightblue" stroke="midnightblue" points="384.04,-393.18 387.5,-383.17 378.55,-388.84 384.04,-393.18"/>
</g>
<!-- Node21 -->
<g id="node21" class="node">
<title>Node21</title>
<g id="a_node21"><a xlink:href="rdcu__rmap_8c_ab224927e85a7cec5b6f90292c7de36c4.html#ab224927e85a7cec5b6f90292c7de36c4" target="_top" xlink:title="generate an rmap command packet">
<polygon fill="white" stroke="black" points="509,-228.5 509,-247.5 596,-247.5 596,-228.5 509,-228.5"/>
<text text-anchor="middle" x="552.5" y="-235.5" font-family="Helvetica,sans-Serif" font-size="10.00">rdcu_gen_cmd</text>
</a>
</g>
</g>
<!-- Node20&#45;&gt;Node21 -->
<g id="edge22" class="edge">
<title>Node20&#45;&gt;Node21</title>
<path fill="none" stroke="midnightblue" d="M419,-352.83C447.42,-328.21 503.36,-279.72 532.63,-254.35"/>
<polygon fill="midnightblue" stroke="midnightblue" points="535.2,-256.76 540.47,-247.56 530.62,-251.47 535.2,-256.76"/>
</g>
<!-- Node21&#45;&gt;Node7 -->
<g id="edge26" class="edge">
<title>Node21&#45;&gt;Node7</title>
<path fill="none" stroke="midnightblue" d="M554.38,-247.52C557.93,-280.34 574.12,-389.81 636,-447 637.71,-448.58 639.55,-450.03 641.49,-451.37"/>
<polygon fill="midnightblue" stroke="midnightblue" points="640.08,-454.59 650.51,-456.46 643.53,-448.49 640.08,-454.59"/>
</g>
<!-- Node21&#45;&gt;Node14 -->
<g id="edge25" class="edge">
<title>Node21&#45;&gt;Node14</title>
<path fill="none" stroke="midnightblue" d="M558.23,-228.34C568.82,-207.96 596.65,-160.95 636,-143 686.95,-119.76 709.7,-122.99 762,-143 802.34,-158.43 837.01,-197.08 854.95,-220.05"/>
<polygon fill="midnightblue" stroke="midnightblue" points="852.35,-222.42 861.18,-228.27 857.93,-218.19 852.35,-222.42"/>
</g>
<!-- Node22 -->
<g id="node22" class="node">
<title>Node22</title>
<g id="a_node22"><a xlink:href="rmap_8c_aa17375d153cc3473cbbe4dfe1056c527.html#aa17375d153cc3473cbbe4dfe1056c527" target="_top" xlink:title="build an rmap header">
<polygon fill="white" stroke="black" points="653,-76.5 653,-95.5 745,-95.5 745,-76.5 653,-76.5"/>
<text text-anchor="middle" x="699" y="-83.5" font-family="Helvetica,sans-Serif" font-size="10.00">rmap_build_hdr</text>
</a>
</g>
</g>
<!-- Node21&#45;&gt;Node22 -->
<g id="edge23" class="edge">
<title>Node21&#45;&gt;Node22</title>
<path fill="none" stroke="midnightblue" d="M557.29,-228.17C566.9,-204.53 594.4,-143.91 636,-110 640.99,-105.93 646.75,-102.5 652.71,-99.61"/>
<polygon fill="midnightblue" stroke="midnightblue" points="654.36,-102.71 662.15,-95.52 651.58,-96.29 654.36,-102.71"/>
</g>
<!-- Node23 -->
<g id="node23" class="node">
<title>Node23</title>
<g id="a_node23"><a xlink:href="rmap_8c_aab7e23f061291d39568ad2df700bc777.html#aab7e23f061291d39568ad2df700bc777" target="_top" xlink:title="set an RMAP command">
<polygon fill="white" stroke="black" points="654.5,-38.5 654.5,-57.5 743.5,-57.5 743.5,-38.5 654.5,-38.5"/>
<text text-anchor="middle" x="699" y="-45.5" font-family="Helvetica,sans-Serif" font-size="10.00">rmap_set_cmd</text>
</a>
</g>
</g>
<!-- Node21&#45;&gt;Node23 -->
<g id="edge27" class="edge">
<title>Node21&#45;&gt;Node23</title>
<path fill="none" stroke="midnightblue" d="M555.36,-228.21C561.4,-199.09 583.23,-112.3 636,-67 638.81,-64.58 641.93,-62.48 645.22,-60.64"/>
<polygon fill="midnightblue" stroke="midnightblue" points="646.72,-63.8 654.27,-56.36 643.74,-57.47 646.72,-63.8"/>
</g>
<!-- Node25 -->
<g id="node25" class="node">
<title>Node25</title>
<g id="a_node25"><a xlink:href="rmap_8c_acf641aae92829ae864b6c3d8f94d86e2.html#acf641aae92829ae864b6c3d8f94d86e2" target="_top" xlink:title="set a data address">
<polygon fill="white" stroke="black" points="641,-228.5 641,-247.5 757,-247.5 757,-228.5 641,-228.5"/>
<text text-anchor="middle" x="699" y="-235.5" font-family="Helvetica,sans-Serif" font-size="10.00">rmap_set_data_addr</text>
</a>
</g>
</g>
<!-- Node21&#45;&gt;Node25 -->
<g id="edge29" class="edge">
<title>Node21&#45;&gt;Node25</title>
<path fill="none" stroke="midnightblue" d="M596.07,-238C606.95,-238 618.92,-238 630.72,-238"/>
<polygon fill="midnightblue" stroke="midnightblue" points="631,-241.5 641,-238 631,-234.5 631,-241.5"/>
</g>
<!-- Node26 -->
<g id="node26" class="node">
<title>Node26</title>
<g id="a_node26"><a xlink:href="rmap_8c_a6833f065640f652aa1a929309e592f7a.html#a6833f065640f652aa1a929309e592f7a" target="_top" xlink:title="set an RMAP command">
<polygon fill="white" stroke="black" points="644,-190.5 644,-209.5 754,-209.5 754,-190.5 644,-190.5"/>
<text text-anchor="middle" x="699" y="-197.5" font-family="Helvetica,sans-Serif" font-size="10.00">rmap_set_data_len</text>
</a>
</g>
</g>
<!-- Node21&#45;&gt;Node26 -->
<g id="edge30" class="edge">
<title>Node21&#45;&gt;Node26</title>
<path fill="none" stroke="midnightblue" d="M589.96,-228.41C608.77,-223.46 631.91,-217.38 651.95,-212.11"/>
<polygon fill="midnightblue" stroke="midnightblue" points="653.02,-215.45 661.8,-209.52 651.24,-208.68 653.02,-215.45"/>
</g>
<!-- Node27 -->
<g id="node27" class="node">
<title>Node27</title>
<g id="a_node27"><a xlink:href="rmap_8c_a5f0081b9928da5e50fc8b231b57f3a80.html#a5f0081b9928da5e50fc8b231b57f3a80" target="_top" xlink:title="set the destination address path">
<polygon fill="white" stroke="black" points="641,-418.5 641,-437.5 757,-437.5 757,-418.5 641,-418.5"/>
<text text-anchor="middle" x="699" y="-425.5" font-family="Helvetica,sans-Serif" font-size="10.00">rmap_set_dest_path</text>
</a>
</g>
</g>
<!-- Node21&#45;&gt;Node27 -->
<g id="edge31" class="edge">
<title>Node21&#45;&gt;Node27</title>
<path fill="none" stroke="midnightblue" d="M555.36,-247.79C561.4,-276.91 583.23,-363.7 636,-409 637.98,-410.7 640.11,-412.25 642.35,-413.66"/>
<polygon fill="midnightblue" stroke="midnightblue" points="640.93,-416.87 651.41,-418.44 644.2,-410.68 640.93,-416.87"/>
</g>
<!-- Node28 -->
<g id="node28" class="node">
<title>Node28</title>
<g id="a_node28"><a xlink:href="rmap_8c_a2da8e7b48411d382b54848795f85795d.html#a2da8e7b48411d382b54848795f85795d" target="_top" xlink:title="set the destination (target) logical address">
<polygon fill="white" stroke="black" points="657.5,-152.5 657.5,-171.5 740.5,-171.5 740.5,-152.5 657.5,-152.5"/>
<text text-anchor="middle" x="699" y="-159.5" font-family="Helvetica,sans-Serif" font-size="10.00">rmap_set_dst</text>
</a>
</g>
</g>
<!-- Node21&#45;&gt;Node28 -->
<g id="edge33" class="edge">
<title>Node21&#45;&gt;Node28</title>
<path fill="none" stroke="midnightblue" d="M564.82,-228.48C580.1,-216.04 608.58,-194.28 636,-181 640.63,-178.76 645.58,-176.71 650.6,-174.86"/>
<polygon fill="midnightblue" stroke="midnightblue" points="651.92,-178.1 660.24,-171.54 649.65,-171.48 651.92,-178.1"/>
</g>
<!-- Node29 -->
<g id="node29" class="node">
<title>Node29</title>
<g id="a_node29"><a xlink:href="rmap_8c_a15021c9dfccddc44786dfd37834bcd7e.html#a15021c9dfccddc44786dfd37834bcd7e" target="_top" xlink:title="set the command authorisation key">
<polygon fill="white" stroke="black" points="656.5,-0.5 656.5,-19.5 741.5,-19.5 741.5,-0.5 656.5,-0.5"/>
<text text-anchor="middle" x="699" y="-7.5" font-family="Helvetica,sans-Serif" font-size="10.00">rmap_set_key</text>
</a>
</g>
</g>
<!-- Node21&#45;&gt;Node29 -->
<g id="edge34" class="edge">
<title>Node21&#45;&gt;Node29</title>
<path fill="none" stroke="midnightblue" d="M554.38,-228.48C557.93,-195.66 574.12,-86.19 636,-29 639.21,-26.03 642.87,-23.53 646.77,-21.42"/>
<polygon fill="midnightblue" stroke="midnightblue" points="648.54,-24.46 656.22,-17.16 645.66,-18.08 648.54,-24.46"/>
</g>
<!-- Node30 -->
<g id="node30" class="node">
<title>Node30</title>
<g id="a_node30"><a xlink:href="rmap_8c_a56c47830e67d01e469231e5e7e1d3a34.html#a56c47830e67d01e469231e5e7e1d3a34" target="_top" xlink:title="set the reply address path">
<polygon fill="white" stroke="black" points="639.5,-380.5 639.5,-399.5 758.5,-399.5 758.5,-380.5 639.5,-380.5"/>
<text text-anchor="middle" x="699" y="-387.5" font-family="Helvetica,sans-Serif" font-size="10.00">rmap_set_reply_path</text>
</a>
</g>
</g>
<!-- Node21&#45;&gt;Node30 -->
<g id="edge35" class="edge">
<title>Node21&#45;&gt;Node30</title>
<path fill="none" stroke="midnightblue" d="M556.76,-247.68C565.52,-272.17 591.88,-337 636,-371 638.34,-372.8 640.85,-374.44 643.48,-375.92"/>
<polygon fill="midnightblue" stroke="midnightblue" points="642.22,-379.19 652.75,-380.38 645.25,-372.89 642.22,-379.19"/>
</g>
<!-- Node31 -->
<g id="node31" class="node">
<title>Node31</title>
<g id="a_node31"><a xlink:href="rmap_8c_adae0030440ca4e7ad34622e505acbb2c.html#adae0030440ca4e7ad34622e505acbb2c" target="_top" xlink:title="set the source (initiator) logical address">
<polygon fill="white" stroke="black" points="658,-304.5 658,-323.5 740,-323.5 740,-304.5 658,-304.5"/>
<text text-anchor="middle" x="699" y="-311.5" font-family="Helvetica,sans-Serif" font-size="10.00">rmap_set_src</text>
</a>
</g>
</g>
<!-- Node21&#45;&gt;Node31 -->
<g id="edge37" class="edge">
<title>Node21&#45;&gt;Node31</title>
<path fill="none" stroke="midnightblue" d="M564.82,-247.52C580.1,-259.96 608.58,-281.72 636,-295 640.63,-297.24 645.58,-299.29 650.6,-301.14"/>
<polygon fill="midnightblue" stroke="midnightblue" points="649.65,-304.52 660.24,-304.46 651.92,-297.9 649.65,-304.52"/>
</g>
<!-- Node32 -->
<g id="node32" class="node">
<title>Node32</title>
<g id="a_node32"><a xlink:href="rmap_8c_a7b4c31714493ce6cc19d4aa825ab50aa.html#a7b4c31714493ce6cc19d4aa825ab50aa" target="_top" xlink:title="set an RMAP transaction identifier">
<polygon fill="white" stroke="black" points="654.5,-266.5 654.5,-285.5 743.5,-285.5 743.5,-266.5 654.5,-266.5"/>
<text text-anchor="middle" x="699" y="-273.5" font-family="Helvetica,sans-Serif" font-size="10.00">rmap_set_tr_id</text>
</a>
</g>
</g>
<!-- Node21&#45;&gt;Node32 -->
<g id="edge38" class="edge">
<title>Node21&#45;&gt;Node32</title>
<path fill="none" stroke="midnightblue" d="M589.96,-247.59C608.77,-252.54 631.91,-258.62 651.95,-263.89"/>
<polygon fill="midnightblue" stroke="midnightblue" points="651.24,-267.32 661.8,-266.48 653.02,-260.55 651.24,-267.32"/>
</g>
<!-- Node22&#45;&gt;Node15 -->
<g id="edge24" class="edge">
<title>Node22&#45;&gt;Node15</title>
<path fill="none" stroke="midnightblue" d="M728.12,-95.54C756.1,-105.03 799.23,-119.67 830.2,-130.17"/>
<polygon fill="midnightblue" stroke="midnightblue" points="829.19,-133.53 839.79,-133.43 831.44,-126.9 829.19,-133.53"/>
</g>
<!-- Node24 -->
<g id="node24" class="node">
<title>Node24</title>
<g id="a_node24"><a xlink:href="rmap_8c_a667ce871110961f2a611d0244791e20f.html#a667ce871110961f2a611d0244791e20f" target="_top" xlink:title="valiidates a command code">
<polygon fill="white" stroke="black" points="798,-38.5 798,-57.5 940,-57.5 940,-38.5 798,-38.5"/>
<text text-anchor="middle" x="869" y="-45.5" font-family="Helvetica,sans-Serif" font-size="10.00">rmap_validate_cmd_code</text>
</a>
</g>
</g>
<!-- Node23&#45;&gt;Node24 -->
<g id="edge28" class="edge">
<title>Node23&#45;&gt;Node24</title>
<path fill="none" stroke="midnightblue" d="M743.7,-48C757.13,-48 772.36,-48 787.44,-48"/>
<polygon fill="midnightblue" stroke="midnightblue" points="787.83,-51.5 797.83,-48 787.83,-44.5 787.83,-51.5"/>
</g>
<!-- Node27&#45;&gt;Node3 -->
<g id="edge32" class="edge">
<title>Node27&#45;&gt;Node3</title>
<path fill="none" stroke="midnightblue" d="M757.35,-428C782.67,-428 811.6,-428 833.52,-428"/>
<polygon fill="midnightblue" stroke="midnightblue" points="833.68,-431.5 843.68,-428 833.68,-424.5 833.68,-431.5"/>
</g>
<!-- Node30&#45;&gt;Node3 -->
<g id="edge36" class="edge">
<title>Node30&#45;&gt;Node3</title>
<path fill="none" stroke="midnightblue" d="M742.39,-399.59C770.71,-405.99 807.47,-414.31 833.9,-420.29"/>
<polygon fill="midnightblue" stroke="midnightblue" points="833.3,-423.74 843.83,-422.53 834.85,-416.91 833.3,-423.74"/>
</g>
</g>
</svg>
