<?xml version="1.0" encoding="UTF-8" standalone="no"?>
<!DOCTYPE svg PUBLIC "-//W3C//DTD SVG 1.1//EN"
 "http://www.w3.org/Graphics/SVG/1.1/DTD/svg11.dtd">
<!-- Generated by graphviz version 2.43.0 (0)
 -->
<!-- Title: rdcu_read_cmd_rdcu_status Pages: 1 -->
<svg width="751pt" height="446pt"
 viewBox="0.00 0.00 751.00 446.00" xmlns="http://www.w3.org/2000/svg" xmlns:xlink="http://www.w3.org/1999/xlink">
<g id="graph0" class="graph" transform="scale(1 1) rotate(0) translate(4 442)">
<title>rdcu_read_cmd_rdcu_status</title>
<polygon fill="white" stroke="transparent" points="-4,4 -4,-442 747,-442 747,4 -4,4"/>
<!-- Node1 -->
<g id="node1" class="node">
<title>Node1</title>
<g id="a_node1"><a xlink:title="create a command to read the RDCU status register">
<polygon fill="#bfbfbf" stroke="black" points="0,-204 0,-234 117,-234 117,-204 0,-204"/>
<text text-anchor="start" x="8" y="-222" font-family="Helvetica,sans-Serif" font-size="10.00">rdcu_read_cmd_rdcu</text>
<text text-anchor="middle" x="58.5" y="-211" font-family="Helvetica,sans-Serif" font-size="10.00">_status</text>
</a>
</g>
</g>
<!-- Node2 -->
<g id="node2" class="node">
<title>Node2</title>
<g id="a_node2"><a xlink:href="rdcu__cmd_8c_a3274188041d4484130e893afc5f1630f.html#a3274188041d4484130e893afc5f1630f" target="_top" xlink:title="generate a read command for an arbitrary register (internal)">
<polygon fill="white" stroke="black" points="153,-204 153,-234 287,-234 287,-204 153,-204"/>
<text text-anchor="start" x="161" y="-222" font-family="Helvetica,sans-Serif" font-size="10.00">rdcu_read_cmd_register</text>
<text text-anchor="middle" x="220" y="-211" font-family="Helvetica,sans-Serif" font-size="10.00">_internal</text>
</a>
</g>
</g>
<!-- Node1&#45;&gt;Node2 -->
<g id="edge1" class="edge">
<title>Node1&#45;&gt;Node2</title>
<path fill="none" stroke="midnightblue" d="M117.08,-219C125.42,-219 134.11,-219 142.74,-219"/>
<polygon fill="midnightblue" stroke="midnightblue" points="142.83,-222.5 152.83,-219 142.83,-215.5 142.83,-222.5"/>
</g>
<!-- Node3 -->
<g id="node3" class="node">
<title>Node3</title>
<g id="a_node3"><a xlink:href="rdcu__rmap_8c_ab224927e85a7cec5b6f90292c7de36c4.html#ab224927e85a7cec5b6f90292c7de36c4" target="_top" xlink:title="generate an rmap command packet">
<polygon fill="white" stroke="black" points="323,-209.5 323,-228.5 410,-228.5 410,-209.5 323,-209.5"/>
<text text-anchor="middle" x="366.5" y="-216.5" font-family="Helvetica,sans-Serif" font-size="10.00">rdcu_gen_cmd</text>
</a>
</g>
</g>
<!-- Node2&#45;&gt;Node3 -->
<g id="edge2" class="edge">
<title>Node2&#45;&gt;Node3</title>
<path fill="none" stroke="midnightblue" d="M287.33,-219C295.78,-219 304.34,-219 312.54,-219"/>
<polygon fill="midnightblue" stroke="midnightblue" points="312.7,-222.5 322.7,-219 312.7,-215.5 312.7,-222.5"/>
</g>
<!-- Node4 -->
<g id="node4" class="node">
<title>Node4</title>
<g id="a_node4"><a xlink:href="rmap_8c_aa17375d153cc3473cbbe4dfe1056c527.html#aa17375d153cc3473cbbe4dfe1056c527" target="_top" xlink:title="build an rmap header">
<polygon fill="white" stroke="black" points="459.5,-418.5 459.5,-437.5 551.5,-437.5 551.5,-418.5 459.5,-418.5"/>
<text text-anchor="middle" x="505.5" y="-425.5" font-family="Helvetica,sans-Serif" font-size="10.00">rmap_build_hdr</text>
</a>
</g>
</g>
<!-- Node3&#45;&gt;Node4 -->
<g id="edge3" class="edge">
<title>Node3&#45;&gt;Node4</title>
<path fill="none" stroke="midnightblue" d="M368.68,-228.91C372.91,-260.12 390.2,-357.38 446,-409 447.72,-410.59 449.57,-412.05 451.53,-413.38"/>
<polygon fill="midnightblue" stroke="midnightblue" points="450.18,-416.64 460.62,-418.49 453.62,-410.54 450.18,-416.64"/>
</g>
<!-- Node6 -->
<g id="node6" class="node">
<title>Node6</title>
<g id="a_node6"><a xlink:href="rmap_8c_aba944cf978de0b264ea5bb3a784bce0f.html#aba944cf978de0b264ea5bb3a784bce0f" target="_top" xlink:title="create an RMAP packet and set defaults">
<polygon fill="white" stroke="black" points="447.5,-380.5 447.5,-399.5 563.5,-399.5 563.5,-380.5 447.5,-380.5"/>
<text text-anchor="middle" x="505.5" y="-387.5" font-family="Helvetica,sans-Serif" font-size="10.00">rmap_create_packet</text>
</a>
</g>
</g>
<!-- Node3&#45;&gt;Node6 -->
<g id="edge5" class="edge">
<title>Node3&#45;&gt;Node6</title>
<path fill="none" stroke="midnightblue" d="M369.78,-228.81C376.52,-255.66 398.91,-331.01 446,-371 447.99,-372.69 450.14,-374.24 452.4,-375.64"/>
<polygon fill="midnightblue" stroke="midnightblue" points="451.04,-378.88 461.52,-380.42 454.28,-372.68 451.04,-378.88"/>
</g>
<!-- Node7 -->
<g id="node7" class="node">
<title>Node7</title>
<g id="a_node7"><a xlink:href="rmap_8c_a1def9af549819e7fdbda12af8bdc9c0e.html#a1def9af549819e7fdbda12af8bdc9c0e" target="_top" xlink:title="completely destroys an RMAP packet">
<polygon fill="white" stroke="black" points="449.5,-342.5 449.5,-361.5 561.5,-361.5 561.5,-342.5 449.5,-342.5"/>
<text text-anchor="middle" x="505.5" y="-349.5" font-family="Helvetica,sans-Serif" font-size="10.00">rmap_erase_packet</text>
</a>
</g>
</g>
<!-- Node3&#45;&gt;Node7 -->
<g id="edge6" class="edge">
<title>Node3&#45;&gt;Node7</title>
<path fill="none" stroke="midnightblue" d="M371.45,-228.53C380.97,-250.31 407.28,-304.12 446,-333 448.49,-334.86 451.16,-336.53 453.96,-338.05"/>
<polygon fill="midnightblue" stroke="midnightblue" points="452.63,-341.3 463.17,-342.38 455.6,-334.96 452.63,-341.3"/>
</g>
<!-- Node8 -->
<g id="node8" class="node">
<title>Node8</title>
<g id="a_node8"><a xlink:href="rmap_8c_aab7e23f061291d39568ad2df700bc777.html#aab7e23f061291d39568ad2df700bc777" target="_top" xlink:title="set an RMAP command">
<polygon fill="white" stroke="black" points="461,-304.5 461,-323.5 550,-323.5 550,-304.5 461,-304.5"/>
<text text-anchor="middle" x="505.5" y="-311.5" font-family="Helvetica,sans-Serif" font-size="10.00">rmap_set_cmd</text>
</a>
</g>
</g>
<!-- Node3&#45;&gt;Node8 -->
<g id="edge7" class="edge">
<title>Node3&#45;&gt;Node8</title>
<path fill="none" stroke="midnightblue" d="M374.91,-228.6C387.73,-244.59 415.6,-276.71 446,-295 449.45,-297.08 453.16,-298.96 456.97,-300.65"/>
<polygon fill="midnightblue" stroke="midnightblue" points="455.98,-304.02 466.57,-304.48 458.57,-297.52 455.98,-304.02"/>
</g>
<!-- Node10 -->
<g id="node10" class="node">
<title>Node10</title>
<g id="a_node10"><a xlink:href="rmap_8c_acf641aae92829ae864b6c3d8f94d86e2.html#acf641aae92829ae864b6c3d8f94d86e2" target="_top" xlink:title="set a data address">
<polygon fill="white" stroke="black" points="447.5,-266.5 447.5,-285.5 563.5,-285.5 563.5,-266.5 447.5,-266.5"/>
<text text-anchor="middle" x="505.5" y="-273.5" font-family="Helvetica,sans-Serif" font-size="10.00">rmap_set_data_addr</text>
</a>
</g>
</g>
<!-- Node3&#45;&gt;Node10 -->
<g id="edge9" class="edge">
<title>Node3&#45;&gt;Node10</title>
<path fill="none" stroke="midnightblue" d="M385.58,-228.63C401.29,-236.78 424.79,-248.47 446,-257 451.39,-259.17 457.14,-261.28 462.85,-263.25"/>
<polygon fill="midnightblue" stroke="midnightblue" points="461.74,-266.57 472.34,-266.43 463.97,-259.93 461.74,-266.57"/>
</g>
<!-- Node11 -->
<g id="node11" class="node">
<title>Node11</title>
<g id="a_node11"><a xlink:href="rmap_8c_a6833f065640f652aa1a929309e592f7a.html#a6833f065640f652aa1a929309e592f7a" target="_top" xlink:title="set an RMAP command">
<polygon fill="white" stroke="black" points="450.5,-228.5 450.5,-247.5 560.5,-247.5 560.5,-228.5 450.5,-228.5"/>
<text text-anchor="middle" x="505.5" y="-235.5" font-family="Helvetica,sans-Serif" font-size="10.00">rmap_set_data_len</text>
</a>
</g>
</g>
<!-- Node3&#45;&gt;Node11 -->
<g id="edge10" class="edge">
<title>Node3&#45;&gt;Node11</title>
<path fill="none" stroke="midnightblue" d="M410.1,-224.91C419.64,-226.23 429.97,-227.66 440.18,-229.08"/>
<polygon fill="midnightblue" stroke="midnightblue" points="439.92,-232.58 450.31,-230.48 440.88,-225.64 439.92,-232.58"/>
</g>
<!-- Node12 -->
<g id="node12" class="node">
<title>Node12</title>
<g id="a_node12"><a xlink:href="rmap_8c_a5f0081b9928da5e50fc8b231b57f3a80.html#a5f0081b9928da5e50fc8b231b57f3a80" target="_top" xlink:title="set the destination address path">
<polygon fill="white" stroke="black" points="447.5,-190.5 447.5,-209.5 563.5,-209.5 563.5,-190.5 447.5,-190.5"/>
<text text-anchor="middle" x="505.5" y="-197.5" font-family="Helvetica,sans-Serif" font-size="10.00">rmap_set_dest_path</text>
</a>
</g>
</g>
<!-- Node3&#45;&gt;Node12 -->
<g id="edge11" class="edge">
<title>Node3&#45;&gt;Node12</title>
<path fill="none" stroke="midnightblue" d="M410.1,-213.09C418.75,-211.89 428.05,-210.6 437.32,-209.32"/>
<polygon fill="midnightblue" stroke="midnightblue" points="437.9,-212.77 447.33,-207.93 436.94,-205.84 437.9,-212.77"/>
</g>
<!-- Node14 -->
<g id="node14" class="node">
<title>Node14</title>
<g id="a_node14"><a xlink:href="rmap_8c_a2da8e7b48411d382b54848795f85795d.html#a2da8e7b48411d382b54848795f85795d" target="_top" xlink:title="set the destination (target) logical address">
<polygon fill="white" stroke="black" points="464,-152.5 464,-171.5 547,-171.5 547,-152.5 464,-152.5"/>
<text text-anchor="middle" x="505.5" y="-159.5" font-family="Helvetica,sans-Serif" font-size="10.00">rmap_set_dst</text>
</a>
</g>
</g>
<!-- Node3&#45;&gt;Node14 -->
<g id="edge13" class="edge">
<title>Node3&#45;&gt;Node14</title>
<path fill="none" stroke="midnightblue" d="M385.58,-209.37C401.29,-201.22 424.79,-189.53 446,-181 451.39,-178.83 457.14,-176.72 462.85,-174.75"/>
<polygon fill="midnightblue" stroke="midnightblue" points="463.97,-178.07 472.34,-171.57 461.74,-171.43 463.97,-178.07"/>
</g>
<!-- Node15 -->
<g id="node15" class="node">
<title>Node15</title>
<g id="a_node15"><a xlink:href="rmap_8c_a15021c9dfccddc44786dfd37834bcd7e.html#a15021c9dfccddc44786dfd37834bcd7e" target="_top" xlink:title="set the command authorisation key">
<polygon fill="white" stroke="black" points="463,-114.5 463,-133.5 548,-133.5 548,-114.5 463,-114.5"/>
<text text-anchor="middle" x="505.5" y="-121.5" font-family="Helvetica,sans-Serif" font-size="10.00">rmap_set_key</text>
</a>
</g>
</g>
<!-- Node3&#45;&gt;Node15 -->
<g id="edge14" class="edge">
<title>Node3&#45;&gt;Node15</title>
<path fill="none" stroke="midnightblue" d="M374.91,-209.4C387.73,-193.41 415.6,-161.29 446,-143 449.45,-140.92 453.16,-139.04 456.97,-137.35"/>
<polygon fill="midnightblue" stroke="midnightblue" points="458.57,-140.48 466.57,-133.52 455.98,-133.98 458.57,-140.48"/>
</g>
<!-- Node16 -->
<g id="node16" class="node">
<title>Node16</title>
<g id="a_node16"><a xlink:href="rmap_8c_a56c47830e67d01e469231e5e7e1d3a34.html#a56c47830e67d01e469231e5e7e1d3a34" target="_top" xlink:title="set the reply address path">
<polygon fill="white" stroke="black" points="446,-76.5 446,-95.5 565,-95.5 565,-76.5 446,-76.5"/>
<text text-anchor="middle" x="505.5" y="-83.5" font-family="Helvetica,sans-Serif" font-size="10.00">rmap_set_reply_path</text>
</a>
</g>
</g>
<!-- Node3&#45;&gt;Node16 -->
<g id="edge15" class="edge">
<title>Node3&#45;&gt;Node16</title>
<path fill="none" stroke="midnightblue" d="M371.45,-209.47C380.97,-187.69 407.28,-133.88 446,-105 448.49,-103.14 451.16,-101.47 453.96,-99.95"/>
<polygon fill="midnightblue" stroke="midnightblue" points="455.6,-103.04 463.17,-95.62 452.63,-96.7 455.6,-103.04"/>
</g>
<!-- Node17 -->
<g id="node17" class="node">
<title>Node17</title>
<g id="a_node17"><a xlink:href="rmap_8c_adae0030440ca4e7ad34622e505acbb2c.html#adae0030440ca4e7ad34622e505acbb2c" target="_top" xlink:title="set the source (initiator) logical address">
<polygon fill="white" stroke="black" points="464.5,-38.5 464.5,-57.5 546.5,-57.5 546.5,-38.5 464.5,-38.5"/>
<text text-anchor="middle" x="505.5" y="-45.5" font-family="Helvetica,sans-Serif" font-size="10.00">rmap_set_src</text>
</a>
</g>
</g>
<!-- Node3&#45;&gt;Node17 -->
<g id="edge17" class="edge">
<title>Node3&#45;&gt;Node17</title>
<path fill="none" stroke="midnightblue" d="M369.78,-209.19C376.52,-182.34 398.91,-106.99 446,-67 448.73,-64.68 451.74,-62.65 454.93,-60.86"/>
<polygon fill="midnightblue" stroke="midnightblue" points="456.7,-63.89 464.23,-56.44 453.7,-57.57 456.7,-63.89"/>
</g>
<!-- Node18 -->
<g id="node18" class="node">
<title>Node18</title>
<g id="a_node18"><a xlink:href="rmap_8c_a7b4c31714493ce6cc19d4aa825ab50aa.html#a7b4c31714493ce6cc19d4aa825ab50aa" target="_top" xlink:title="set an RMAP transaction identifier">
<polygon fill="white" stroke="black" points="461,-0.5 461,-19.5 550,-19.5 550,-0.5 461,-0.5"/>
<text text-anchor="middle" x="505.5" y="-7.5" font-family="Helvetica,sans-Serif" font-size="10.00">rmap_set_tr_id</text>
</a>
</g>
</g>
<!-- Node3&#45;&gt;Node18 -->
<g id="edge18" class="edge">
<title>Node3&#45;&gt;Node18</title>
<path fill="none" stroke="midnightblue" d="M368.68,-209.09C372.91,-177.88 390.2,-80.62 446,-29 447.89,-27.26 449.93,-25.67 452.1,-24.23"/>
<polygon fill="midnightblue" stroke="midnightblue" points="453.85,-27.26 460.91,-19.37 450.47,-21.13 453.85,-27.26"/>
</g>
<!-- Node5 -->
<g id="node5" class="node">
<title>Node5</title>
<g id="a_node5"><a xlink:href="rmap_8c_a0ec3c28e83818f02e00d4c79d82d938a.html#a0ec3c28e83818f02e00d4c79d82d938a" target="_top" xlink:title="get the minimum header size given the RMAP instruction">
<polygon fill="white" stroke="black" points="605.5,-418.5 605.5,-437.5 738.5,-437.5 738.5,-418.5 605.5,-418.5"/>
<text text-anchor="middle" x="672" y="-425.5" font-family="Helvetica,sans-Serif" font-size="10.00">rmap_get_min_hdr_size</text>
</a>
</g>
</g>
<!-- Node4&#45;&gt;Node5 -->
<g id="edge4" class="edge">
<title>Node4&#45;&gt;Node5</title>
<path fill="none" stroke="midnightblue" d="M551.89,-428C565.33,-428 580.43,-428 595.25,-428"/>
<polygon fill="midnightblue" stroke="midnightblue" points="595.44,-431.5 605.44,-428 595.44,-424.5 595.44,-431.5"/>
</g>
<!-- Node9 -->
<g id="node9" class="node">
<title>Node9</title>
<g id="a_node9"><a xlink:href="rmap_8c_a667ce871110961f2a611d0244791e20f.html#a667ce871110961f2a611d0244791e20f" target="_top" xlink:title="valiidates a command code">
<polygon fill="white" stroke="black" points="601,-304.5 601,-323.5 743,-323.5 743,-304.5 601,-304.5"/>
<text text-anchor="middle" x="672" y="-311.5" font-family="Helvetica,sans-Serif" font-size="10.00">rmap_validate_cmd_code</text>
</a>
</g>
</g>
<!-- Node8&#45;&gt;Node9 -->
<g id="edge8" class="edge">
<title>Node8&#45;&gt;Node9</title>
<path fill="none" stroke="midnightblue" d="M550.15,-314C562.64,-314 576.65,-314 590.6,-314"/>
<polygon fill="midnightblue" stroke="midnightblue" points="590.72,-317.5 600.72,-314 590.72,-310.5 590.72,-317.5"/>
</g>
<!-- Node13 -->
<g id="node13" class="node">
<title>Node13</title>
<g id="a_node13"><a xlink:href="test__cmp__max__used__bits__list_8c_a7ac38fce3243a7dcf448301ee9ffd392.html#a7ac38fce3243a7dcf448301ee9ffd392" target="_top" xlink:title=" ">
<polygon fill="white" stroke="black" points="647,-133.5 647,-152.5 697,-152.5 697,-133.5 647,-133.5"/>
<text text-anchor="middle" x="672" y="-140.5" font-family="Helvetica,sans-Serif" font-size="10.00">malloc</text>
</a>
</g>
</g>
<!-- Node12&#45;&gt;Node13 -->
<g id="edge12" class="edge">
<title>Node12&#45;&gt;Node13</title>
<path fill="none" stroke="midnightblue" d="M536.62,-190.41C545.75,-187.45 555.8,-184.14 565,-181 589.17,-172.75 616.27,-163.02 637.02,-155.48"/>
<polygon fill="midnightblue" stroke="midnightblue" points="638.46,-158.68 646.65,-151.96 636.06,-152.1 638.46,-158.68"/>
</g>
<!-- Node16&#45;&gt;Node13 -->
<g id="edge16" class="edge">
<title>Node16&#45;&gt;Node13</title>
<path fill="none" stroke="midnightblue" d="M536.62,-95.59C545.75,-98.55 555.8,-101.86 565,-105 589.17,-113.25 616.27,-122.98 637.02,-130.52"/>
<polygon fill="midnightblue" stroke="midnightblue" points="636.06,-133.9 646.65,-134.04 638.46,-127.32 636.06,-133.9"/>
</g>
</g>
</svg>
