<?xml version="1.0" encoding="UTF-8" standalone="no"?>
<!DOCTYPE svg PUBLIC "-//W3C//DTD SVG 1.1//EN"
 "http://www.w3.org/Graphics/SVG/1.1/DTD/svg11.dtd">
<!-- Generated by graphviz version 2.43.0 (0)
 -->
<!-- Title: rdcu_read_cmd_used_param2 Pages: 1 -->
<svg width="451pt" height="39pt"
 viewBox="0.00 0.00 451.00 39.00" xmlns="http://www.w3.org/2000/svg" xmlns:xlink="http://www.w3.org/1999/xlink">
<g id="graph0" class="graph" transform="scale(1 1) rotate(0) translate(4 35)">
<title>rdcu_read_cmd_used_param2</title>
<polygon fill="white" stroke="transparent" points="-4,4 -4,-35 447,-35 447,4 -4,4"/>
<!-- Node1 -->
<g id="node1" class="node">
<title>Node1</title>
<g id="a_node1"><a xlink:title="create a command to read the RDCU unused parameter 2 register">
<polygon fill="#bfbfbf" stroke="black" points="324,-0.5 324,-30.5 443,-30.5 443,-0.5 324,-0.5"/>
<text text-anchor="start" x="332" y="-18.5" font-family="Helvetica,sans-Serif" font-size="10.00">rdcu_read_cmd_used</text>
<text text-anchor="middle" x="383.5" y="-7.5" font-family="Helvetica,sans-Serif" font-size="10.00">_param2</text>
</a>
</g>
</g>
<!-- Node2 -->
<g id="node2" class="node">
<title>Node2</title>
<g id="a_node2"><a xlink:href="rdcu__ctrl_8c_acd4f9a1b2f7c671a6ead44dd579814e5.html#acd4f9a1b2f7c671a6ead44dd579814e5" target="_top" xlink:title="sync the Used Parameter 2 (read only)">
<polygon fill="white" stroke="black" points="151,-6 151,-25 288,-25 288,-6 151,-6"/>
<text text-anchor="middle" x="219.5" y="-13" font-family="Helvetica,sans-Serif" font-size="10.00">rdcu_sync_used_param2</text>
</a>
</g>
</g>
<!-- Node1&#45;&gt;Node2 -->
<g id="edge1" class="edge">
<title>Node1&#45;&gt;Node2</title>
<path fill="none" stroke="midnightblue" d="M313.46,-15.5C305.09,-15.5 296.54,-15.5 288.19,-15.5"/>
<polygon fill="midnightblue" stroke="midnightblue" points="313.56,-19 323.56,-15.5 313.56,-12 313.56,-19"/>
</g>
<!-- Node3 -->
<g id="node3" class="node">
<title>Node3</title>
<g id="a_node3"><a xlink:href="cmp__rdcu_8h_afb2e10f8b9d9e433d1b4a6a96f930097.html#afb2e10f8b9d9e433d1b4a6a96f930097" target="_top" xlink:title="read out the metadata of an RDCU compression">
<polygon fill="white" stroke="black" points="0,-6 0,-25 115,-25 115,-6 0,-6"/>
<text text-anchor="middle" x="57.5" y="-13" font-family="Helvetica,sans-Serif" font-size="10.00">rdcu_read_cmp_info</text>
</a>
</g>
</g>
<!-- Node2&#45;&gt;Node3 -->
<g id="edge2" class="edge">
<title>Node2&#45;&gt;Node3</title>
<path fill="none" stroke="midnightblue" d="M140.39,-15.5C131.95,-15.5 123.48,-15.5 115.36,-15.5"/>
<polygon fill="midnightblue" stroke="midnightblue" points="140.65,-19 150.65,-15.5 140.65,-12 140.65,-19"/>
</g>
</g>
</svg>
