<?xml version="1.0" encoding="UTF-8" standalone="no"?>
<!DOCTYPE svg PUBLIC "-//W3C//DTD SVG 1.1//EN"
 "http://www.w3.org/Graphics/SVG/1.1/DTD/svg11.dtd">
<!-- Generated by graphviz version 2.43.0 (0)
 -->
<!-- Title: rdcu_sync_new_model_addr_used Pages: 1 -->
<svg width="1142pt" height="750pt"
 viewBox="0.00 0.00 1142.00 750.00" xmlns="http://www.w3.org/2000/svg" xmlns:xlink="http://www.w3.org/1999/xlink">
<g id="graph0" class="graph" transform="scale(1 1) rotate(0) translate(4 746)">
<title>rdcu_sync_new_model_addr_used</title>
<polygon fill="white" stroke="transparent" points="-4,4 -4,-746 1138,-746 1138,4 -4,4"/>
<!-- Node1 -->
<g id="node1" class="node">
<title>Node1</title>
<g id="a_node1"><a xlink:title="sync the Model Info Start Address (read only)">
<polygon fill="#bfbfbf" stroke="black" points="0,-264 0,-294 127,-294 127,-264 0,-264"/>
<text text-anchor="start" x="8" y="-282" font-family="Helvetica,sans-Serif" font-size="10.00">rdcu_sync_new_model</text>
<text text-anchor="middle" x="63.5" y="-271" font-family="Helvetica,sans-Serif" font-size="10.00">_addr_used</text>
</a>
</g>
</g>
<!-- Node2 -->
<g id="node2" class="node">
<title>Node2</title>
<g id="a_node2"><a xlink:href="rdcu__cmd_8c_af2d361b4f536a99ae87968cf1f1a412b.html#af2d361b4f536a99ae87968cf1f1a412b" target="_top" xlink:title="create a command to read the RDCU updated model start address register">
<polygon fill="white" stroke="black" points="163,-387 163,-417 315,-417 315,-387 163,-387"/>
<text text-anchor="start" x="171" y="-405" font-family="Helvetica,sans-Serif" font-size="10.00">rdcu_read_cmd_new_model</text>
<text text-anchor="middle" x="239" y="-394" font-family="Helvetica,sans-Serif" font-size="10.00">_addr_used</text>
</a>
</g>
</g>
<!-- Node1&#45;&gt;Node2 -->
<g id="edge1" class="edge">
<title>Node1&#45;&gt;Node2</title>
<path fill="none" stroke="midnightblue" d="M85.77,-294.08C116.56,-315.9 173.63,-356.37 208.47,-381.07"/>
<polygon fill="midnightblue" stroke="midnightblue" points="206.64,-384.06 216.82,-386.99 210.69,-378.35 206.64,-384.06"/>
</g>
<!-- Node20 -->
<g id="node20" class="node">
<title>Node20</title>
<g id="a_node20"><a xlink:href="rdcu__rmap_8c_a533d1eb248d83ba3d406cefe7f3c9eb9.html#a533d1eb248d83ba3d406cefe7f3c9eb9" target="_top" xlink:title="submit a sync command">
<polygon fill="white" stroke="black" points="206.5,-247.5 206.5,-266.5 271.5,-266.5 271.5,-247.5 206.5,-247.5"/>
<text text-anchor="middle" x="239" y="-254.5" font-family="Helvetica,sans-Serif" font-size="10.00">rdcu_sync</text>
</a>
</g>
</g>
<!-- Node1&#45;&gt;Node20 -->
<g id="edge20" class="edge">
<title>Node1&#45;&gt;Node20</title>
<path fill="none" stroke="midnightblue" d="M127.14,-271.06C150.06,-268.15 175.41,-264.94 196.08,-262.31"/>
<polygon fill="midnightblue" stroke="midnightblue" points="196.65,-265.77 206.13,-261.04 195.77,-258.83 196.65,-265.77"/>
</g>
<!-- Node3 -->
<g id="node3" class="node">
<title>Node3</title>
<g id="a_node3"><a xlink:href="rdcu__cmd_8c_a3274188041d4484130e893afc5f1630f.html#a3274188041d4484130e893afc5f1630f" target="_top" xlink:title="generate a read command for an arbitrary register (internal)">
<polygon fill="white" stroke="black" points="351,-438 351,-468 485,-468 485,-438 351,-438"/>
<text text-anchor="start" x="359" y="-456" font-family="Helvetica,sans-Serif" font-size="10.00">rdcu_read_cmd_register</text>
<text text-anchor="middle" x="418" y="-445" font-family="Helvetica,sans-Serif" font-size="10.00">_internal</text>
</a>
</g>
</g>
<!-- Node2&#45;&gt;Node3 -->
<g id="edge2" class="edge">
<title>Node2&#45;&gt;Node3</title>
<path fill="none" stroke="midnightblue" d="M292.15,-417.03C311.87,-422.71 334.5,-429.23 355.03,-435.14"/>
<polygon fill="midnightblue" stroke="midnightblue" points="354.34,-438.59 364.92,-437.99 356.28,-431.86 354.34,-438.59"/>
</g>
<!-- Node4 -->
<g id="node4" class="node">
<title>Node4</title>
<g id="a_node4"><a xlink:href="rdcu__rmap_8c_ab224927e85a7cec5b6f90292c7de36c4.html#ab224927e85a7cec5b6f90292c7de36c4" target="_top" xlink:title="generate an rmap command packet">
<polygon fill="white" stroke="black" points="525,-494.5 525,-513.5 612,-513.5 612,-494.5 525,-494.5"/>
<text text-anchor="middle" x="568.5" y="-501.5" font-family="Helvetica,sans-Serif" font-size="10.00">rdcu_gen_cmd</text>
</a>
</g>
</g>
<!-- Node3&#45;&gt;Node4 -->
<g id="edge3" class="edge">
<title>Node3&#45;&gt;Node4</title>
<path fill="none" stroke="midnightblue" d="M462.75,-468.03C484.07,-475.35 509.46,-484.07 529.9,-491.09"/>
<polygon fill="midnightblue" stroke="midnightblue" points="528.9,-494.44 539.49,-494.38 531.17,-487.82 528.9,-494.44"/>
</g>
<!-- Node5 -->
<g id="node5" class="node">
<title>Node5</title>
<g id="a_node5"><a xlink:href="rmap_8c_aa17375d153cc3473cbbe4dfe1056c527.html#aa17375d153cc3473cbbe4dfe1056c527" target="_top" xlink:title="build an rmap header">
<polygon fill="white" stroke="black" points="669,-646.5 669,-665.5 761,-665.5 761,-646.5 669,-646.5"/>
<text text-anchor="middle" x="715" y="-653.5" font-family="Helvetica,sans-Serif" font-size="10.00">rmap_build_hdr</text>
</a>
</g>
</g>
<!-- Node4&#45;&gt;Node5 -->
<g id="edge4" class="edge">
<title>Node4&#45;&gt;Node5</title>
<path fill="none" stroke="midnightblue" d="M572.76,-513.68C581.52,-538.17 607.88,-603 652,-637 654.34,-638.8 656.85,-640.44 659.48,-641.92"/>
<polygon fill="midnightblue" stroke="midnightblue" points="658.22,-645.19 668.75,-646.38 661.25,-638.89 658.22,-645.19"/>
</g>
<!-- Node7 -->
<g id="node7" class="node">
<title>Node7</title>
<g id="a_node7"><a xlink:href="rmap_8c_aba944cf978de0b264ea5bb3a784bce0f.html#aba944cf978de0b264ea5bb3a784bce0f" target="_top" xlink:title="create an RMAP packet and set defaults">
<polygon fill="white" stroke="black" points="827,-437.5 827,-456.5 943,-456.5 943,-437.5 827,-437.5"/>
<text text-anchor="middle" x="885" y="-444.5" font-family="Helvetica,sans-Serif" font-size="10.00">rmap_create_packet</text>
</a>
</g>
</g>
<!-- Node4&#45;&gt;Node7 -->
<g id="edge6" class="edge">
<title>Node4&#45;&gt;Node7</title>
<path fill="none" stroke="midnightblue" d="M597.93,-513.53C638.8,-525.69 716.06,-542.91 778,-523 814.03,-511.42 848.19,-482.57 867.57,-463.93"/>
<polygon fill="midnightblue" stroke="midnightblue" points="870.28,-466.17 874.93,-456.65 865.36,-461.19 870.28,-466.17"/>
</g>
<!-- Node8 -->
<g id="node8" class="node">
<title>Node8</title>
<g id="a_node8"><a xlink:href="rmap_8c_a1def9af549819e7fdbda12af8bdc9c0e.html#a1def9af549819e7fdbda12af8bdc9c0e" target="_top" xlink:title="completely destroys an RMAP packet">
<polygon fill="white" stroke="black" points="659,-228.5 659,-247.5 771,-247.5 771,-228.5 659,-228.5"/>
<text text-anchor="middle" x="715" y="-235.5" font-family="Helvetica,sans-Serif" font-size="10.00">rmap_erase_packet</text>
</a>
</g>
</g>
<!-- Node4&#45;&gt;Node8 -->
<g id="edge7" class="edge">
<title>Node4&#45;&gt;Node8</title>
<path fill="none" stroke="midnightblue" d="M571.72,-494.09C579.09,-462.7 604.97,-363.5 652,-295 663,-278.98 679.29,-264.23 692.41,-253.75"/>
<polygon fill="midnightblue" stroke="midnightblue" points="694.71,-256.4 700.48,-247.51 690.43,-250.86 694.71,-256.4"/>
</g>
<!-- Node9 -->
<g id="node9" class="node">
<title>Node9</title>
<g id="a_node9"><a xlink:href="rmap_8c_aab7e23f061291d39568ad2df700bc777.html#aab7e23f061291d39568ad2df700bc777" target="_top" xlink:title="set an RMAP command">
<polygon fill="white" stroke="black" points="670.5,-684.5 670.5,-703.5 759.5,-703.5 759.5,-684.5 670.5,-684.5"/>
<text text-anchor="middle" x="715" y="-691.5" font-family="Helvetica,sans-Serif" font-size="10.00">rmap_set_cmd</text>
</a>
</g>
</g>
<!-- Node4&#45;&gt;Node9 -->
<g id="edge8" class="edge">
<title>Node4&#45;&gt;Node9</title>
<path fill="none" stroke="midnightblue" d="M571.36,-513.79C577.4,-542.91 599.23,-629.7 652,-675 654.81,-677.42 657.93,-679.52 661.22,-681.36"/>
<polygon fill="midnightblue" stroke="midnightblue" points="659.74,-684.53 670.27,-685.64 662.72,-678.2 659.74,-684.53"/>
</g>
<!-- Node11 -->
<g id="node11" class="node">
<title>Node11</title>
<g id="a_node11"><a xlink:href="rmap_8c_acf641aae92829ae864b6c3d8f94d86e2.html#acf641aae92829ae864b6c3d8f94d86e2" target="_top" xlink:title="set a data address">
<polygon fill="white" stroke="black" points="657,-608.5 657,-627.5 773,-627.5 773,-608.5 657,-608.5"/>
<text text-anchor="middle" x="715" y="-615.5" font-family="Helvetica,sans-Serif" font-size="10.00">rmap_set_data_addr</text>
</a>
</g>
</g>
<!-- Node4&#45;&gt;Node11 -->
<g id="edge10" class="edge">
<title>Node4&#45;&gt;Node11</title>
<path fill="none" stroke="midnightblue" d="M575.24,-513.66C587.11,-532.81 616.29,-575.78 652,-599 655.16,-601.05 658.55,-602.9 662.06,-604.55"/>
<polygon fill="midnightblue" stroke="midnightblue" points="660.98,-607.88 671.56,-608.48 663.66,-601.42 660.98,-607.88"/>
</g>
<!-- Node12 -->
<g id="node12" class="node">
<title>Node12</title>
<g id="a_node12"><a xlink:href="rmap_8c_a6833f065640f652aa1a929309e592f7a.html#a6833f065640f652aa1a929309e592f7a" target="_top" xlink:title="set an RMAP command">
<polygon fill="white" stroke="black" points="660,-570.5 660,-589.5 770,-589.5 770,-570.5 660,-570.5"/>
<text text-anchor="middle" x="715" y="-577.5" font-family="Helvetica,sans-Serif" font-size="10.00">rmap_set_data_len</text>
</a>
</g>
</g>
<!-- Node4&#45;&gt;Node12 -->
<g id="edge11" class="edge">
<title>Node4&#45;&gt;Node12</title>
<path fill="none" stroke="midnightblue" d="M583.04,-513.68C599,-524.82 626.59,-543.22 652,-556 659.78,-559.91 668.36,-563.6 676.6,-566.87"/>
<polygon fill="midnightblue" stroke="midnightblue" points="675.45,-570.17 686.04,-570.48 677.95,-563.64 675.45,-570.17"/>
</g>
<!-- Node13 -->
<g id="node13" class="node">
<title>Node13</title>
<g id="a_node13"><a xlink:href="rmap_8c_a5f0081b9928da5e50fc8b231b57f3a80.html#a5f0081b9928da5e50fc8b231b57f3a80" target="_top" xlink:title="set the destination address path">
<polygon fill="white" stroke="black" points="657,-342.5 657,-361.5 773,-361.5 773,-342.5 657,-342.5"/>
<text text-anchor="middle" x="715" y="-349.5" font-family="Helvetica,sans-Serif" font-size="10.00">rmap_set_dest_path</text>
</a>
</g>
</g>
<!-- Node4&#45;&gt;Node13 -->
<g id="edge12" class="edge">
<title>Node4&#45;&gt;Node13</title>
<path fill="none" stroke="midnightblue" d="M572.76,-494.32C581.52,-469.83 607.88,-405 652,-371 654.34,-369.2 656.85,-367.56 659.48,-366.08"/>
<polygon fill="midnightblue" stroke="midnightblue" points="661.25,-369.11 668.75,-361.62 658.22,-362.81 661.25,-369.11"/>
</g>
<!-- Node15 -->
<g id="node15" class="node">
<title>Node15</title>
<g id="a_node15"><a xlink:href="rmap_8c_a2da8e7b48411d382b54848795f85795d.html#a2da8e7b48411d382b54848795f85795d" target="_top" xlink:title="set the destination (target) logical address">
<polygon fill="white" stroke="black" points="673.5,-494.5 673.5,-513.5 756.5,-513.5 756.5,-494.5 673.5,-494.5"/>
<text text-anchor="middle" x="715" y="-501.5" font-family="Helvetica,sans-Serif" font-size="10.00">rmap_set_dst</text>
</a>
</g>
</g>
<!-- Node4&#45;&gt;Node15 -->
<g id="edge14" class="edge">
<title>Node4&#45;&gt;Node15</title>
<path fill="none" stroke="midnightblue" d="M612.07,-504C628.07,-504 646.41,-504 663.09,-504"/>
<polygon fill="midnightblue" stroke="midnightblue" points="663.22,-507.5 673.22,-504 663.22,-500.5 663.22,-507.5"/>
</g>
<!-- Node16 -->
<g id="node16" class="node">
<title>Node16</title>
<g id="a_node16"><a xlink:href="rmap_8c_a15021c9dfccddc44786dfd37834bcd7e.html#a15021c9dfccddc44786dfd37834bcd7e" target="_top" xlink:title="set the command authorisation key">
<polygon fill="white" stroke="black" points="672.5,-456.5 672.5,-475.5 757.5,-475.5 757.5,-456.5 672.5,-456.5"/>
<text text-anchor="middle" x="715" y="-463.5" font-family="Helvetica,sans-Serif" font-size="10.00">rmap_set_key</text>
</a>
</g>
</g>
<!-- Node4&#45;&gt;Node16 -->
<g id="edge15" class="edge">
<title>Node4&#45;&gt;Node16</title>
<path fill="none" stroke="midnightblue" d="M605.96,-494.41C624.77,-489.46 647.91,-483.38 667.95,-478.11"/>
<polygon fill="midnightblue" stroke="midnightblue" points="669.02,-481.45 677.8,-475.52 667.24,-474.68 669.02,-481.45"/>
</g>
<!-- Node17 -->
<g id="node17" class="node">
<title>Node17</title>
<g id="a_node17"><a xlink:href="rmap_8c_a56c47830e67d01e469231e5e7e1d3a34.html#a56c47830e67d01e469231e5e7e1d3a34" target="_top" xlink:title="set the reply address path">
<polygon fill="white" stroke="black" points="655.5,-304.5 655.5,-323.5 774.5,-323.5 774.5,-304.5 655.5,-304.5"/>
<text text-anchor="middle" x="715" y="-311.5" font-family="Helvetica,sans-Serif" font-size="10.00">rmap_set_reply_path</text>
</a>
</g>
</g>
<!-- Node4&#45;&gt;Node17 -->
<g id="edge16" class="edge">
<title>Node4&#45;&gt;Node17</title>
<path fill="none" stroke="midnightblue" d="M571.36,-494.21C577.4,-465.09 599.23,-378.3 652,-333 653.98,-331.3 656.11,-329.75 658.35,-328.34"/>
<polygon fill="midnightblue" stroke="midnightblue" points="660.2,-331.32 667.41,-323.56 656.93,-325.13 660.2,-331.32"/>
</g>
<!-- Node18 -->
<g id="node18" class="node">
<title>Node18</title>
<g id="a_node18"><a xlink:href="rmap_8c_adae0030440ca4e7ad34622e505acbb2c.html#adae0030440ca4e7ad34622e505acbb2c" target="_top" xlink:title="set the source (initiator) logical address">
<polygon fill="white" stroke="black" points="674,-418.5 674,-437.5 756,-437.5 756,-418.5 674,-418.5"/>
<text text-anchor="middle" x="715" y="-425.5" font-family="Helvetica,sans-Serif" font-size="10.00">rmap_set_src</text>
</a>
</g>
</g>
<!-- Node4&#45;&gt;Node18 -->
<g id="edge18" class="edge">
<title>Node4&#45;&gt;Node18</title>
<path fill="none" stroke="midnightblue" d="M580.82,-494.48C596.1,-482.04 624.58,-460.28 652,-447 656.63,-444.76 661.58,-442.71 666.6,-440.86"/>
<polygon fill="midnightblue" stroke="midnightblue" points="667.92,-444.1 676.24,-437.54 665.65,-437.48 667.92,-444.1"/>
</g>
<!-- Node19 -->
<g id="node19" class="node">
<title>Node19</title>
<g id="a_node19"><a xlink:href="rmap_8c_a7b4c31714493ce6cc19d4aa825ab50aa.html#a7b4c31714493ce6cc19d4aa825ab50aa" target="_top" xlink:title="set an RMAP transaction identifier">
<polygon fill="white" stroke="black" points="670.5,-722.5 670.5,-741.5 759.5,-741.5 759.5,-722.5 670.5,-722.5"/>
<text text-anchor="middle" x="715" y="-729.5" font-family="Helvetica,sans-Serif" font-size="10.00">rmap_set_tr_id</text>
</a>
</g>
</g>
<!-- Node4&#45;&gt;Node19 -->
<g id="edge19" class="edge">
<title>Node4&#45;&gt;Node19</title>
<path fill="none" stroke="midnightblue" d="M570.38,-513.52C573.93,-546.34 590.12,-655.81 652,-713 654.77,-715.56 657.87,-717.77 661.17,-719.69"/>
<polygon fill="midnightblue" stroke="midnightblue" points="659.77,-722.9 670.3,-724.09 662.82,-716.59 659.77,-722.9"/>
</g>
<!-- Node6 -->
<g id="node6" class="node">
<title>Node6</title>
<g id="a_node6"><a xlink:href="rmap_8c_a0ec3c28e83818f02e00d4c79d82d938a.html#a0ec3c28e83818f02e00d4c79d82d938a" target="_top" xlink:title="get the minimum header size given the RMAP instruction">
<polygon fill="white" stroke="black" points="818.5,-532.5 818.5,-551.5 951.5,-551.5 951.5,-532.5 818.5,-532.5"/>
<text text-anchor="middle" x="885" y="-539.5" font-family="Helvetica,sans-Serif" font-size="10.00">rmap_get_min_hdr_size</text>
</a>
</g>
</g>
<!-- Node5&#45;&gt;Node6 -->
<g id="edge5" class="edge">
<title>Node5&#45;&gt;Node6</title>
<path fill="none" stroke="midnightblue" d="M756.42,-646.4C763.83,-643.87 771.33,-640.76 778,-637 815.04,-616.08 850.2,-580.34 869.26,-559.17"/>
<polygon fill="midnightblue" stroke="midnightblue" points="871.96,-561.39 875.96,-551.58 866.72,-556.75 871.96,-561.39"/>
</g>
<!-- Node10 -->
<g id="node10" class="node">
<title>Node10</title>
<g id="a_node10"><a xlink:href="rmap_8c_a667ce871110961f2a611d0244791e20f.html#a667ce871110961f2a611d0244791e20f" target="_top" xlink:title="valiidates a command code">
<polygon fill="white" stroke="black" points="814,-684.5 814,-703.5 956,-703.5 956,-684.5 814,-684.5"/>
<text text-anchor="middle" x="885" y="-691.5" font-family="Helvetica,sans-Serif" font-size="10.00">rmap_validate_cmd_code</text>
</a>
</g>
</g>
<!-- Node9&#45;&gt;Node10 -->
<g id="edge9" class="edge">
<title>Node9&#45;&gt;Node10</title>
<path fill="none" stroke="midnightblue" d="M759.7,-694C773.13,-694 788.36,-694 803.44,-694"/>
<polygon fill="midnightblue" stroke="midnightblue" points="803.83,-697.5 813.83,-694 803.83,-690.5 803.83,-697.5"/>
</g>
<!-- Node14 -->
<g id="node14" class="node">
<title>Node14</title>
<g id="a_node14"><a xlink:href="test__cmp__max__used__bits__list_8c_a7ac38fce3243a7dcf448301ee9ffd392.html#a7ac38fce3243a7dcf448301ee9ffd392" target="_top" xlink:title=" ">
<polygon fill="white" stroke="black" points="860,-304.5 860,-323.5 910,-323.5 910,-304.5 860,-304.5"/>
<text text-anchor="middle" x="885" y="-311.5" font-family="Helvetica,sans-Serif" font-size="10.00">malloc</text>
</a>
</g>
</g>
<!-- Node13&#45;&gt;Node14 -->
<g id="edge13" class="edge">
<title>Node13&#45;&gt;Node14</title>
<path fill="none" stroke="midnightblue" d="M758.39,-342.41C786.71,-336.01 823.47,-327.69 849.9,-321.71"/>
<polygon fill="midnightblue" stroke="midnightblue" points="850.85,-325.09 859.83,-319.47 849.3,-318.26 850.85,-325.09"/>
</g>
<!-- Node17&#45;&gt;Node14 -->
<g id="edge17" class="edge">
<title>Node17&#45;&gt;Node14</title>
<path fill="none" stroke="midnightblue" d="M774.76,-314C799.69,-314 827.89,-314 849.39,-314"/>
<polygon fill="midnightblue" stroke="midnightblue" points="849.67,-317.5 859.67,-314 849.67,-310.5 849.67,-317.5"/>
</g>
<!-- Node20&#45;&gt;Node14 -->
<g id="edge21" class="edge">
<title>Node20&#45;&gt;Node14</title>
<path fill="none" stroke="midnightblue" d="M271.65,-258.05C354.86,-261.08 586.59,-271.15 778,-295 802.12,-298.01 829.09,-302.86 849.78,-306.91"/>
<polygon fill="midnightblue" stroke="midnightblue" points="849.2,-310.36 859.69,-308.88 850.57,-303.5 849.2,-310.36"/>
</g>
<!-- Node21 -->
<g id="node21" class="node">
<title>Node21</title>
<g id="a_node21"><a xlink:href="rdcu__rmap_8c_a95fad3cd9b6bbe562e1a73e3f1c108a8.html#a95fad3cd9b6bbe562e1a73e3f1c108a8" target="_top" xlink:title="submit an rmap command transaction">
<polygon fill="white" stroke="black" points="372,-228.5 372,-247.5 464,-247.5 464,-228.5 372,-228.5"/>
<text text-anchor="middle" x="418" y="-235.5" font-family="Helvetica,sans-Serif" font-size="10.00">rdcu_submit_tx</text>
</a>
</g>
</g>
<!-- Node20&#45;&gt;Node21 -->
<g id="edge22" class="edge">
<title>Node20&#45;&gt;Node21</title>
<path fill="none" stroke="midnightblue" d="M271.64,-253.6C296.64,-250.92 332.13,-247.11 361.78,-243.93"/>
<polygon fill="midnightblue" stroke="midnightblue" points="362.43,-247.38 372,-242.83 361.68,-240.42 362.43,-247.38"/>
</g>
<!-- Node32 -->
<g id="node32" class="node">
<title>Node32</title>
<g id="a_node32"><a xlink:href="rdcu__rmap_8c_a36f44335aa66dd49fb4903f7269bc5b1.html#a36f44335aa66dd49fb4903f7269bc5b1" target="_top" xlink:title="grab a slot in the transaction log">
<polygon fill="white" stroke="black" points="362,-190.5 362,-209.5 474,-209.5 474,-190.5 362,-190.5"/>
<text text-anchor="middle" x="418" y="-197.5" font-family="Helvetica,sans-Serif" font-size="10.00">trans_log_grab_slot</text>
</a>
</g>
</g>
<!-- Node20&#45;&gt;Node32 -->
<g id="edge38" class="edge">
<title>Node20&#45;&gt;Node32</title>
<path fill="none" stroke="midnightblue" d="M266.79,-247.41C289.2,-239.49 322.05,-228.12 351,-219 358.04,-216.78 365.53,-214.53 372.84,-212.38"/>
<polygon fill="midnightblue" stroke="midnightblue" points="374.02,-215.69 382.65,-209.54 372.07,-208.96 374.02,-215.69"/>
</g>
<!-- Node22 -->
<g id="node22" class="node">
<title>Node22</title>
<g id="a_node22"><a xlink:href="rdcu__rmap_8c_a1a064554031c2fa2dcb65541e0765c0f.html#a1a064554031c2fa2dcb65541e0765c0f" target="_top" xlink:title="n rmap command transaction">
<polygon fill="white" stroke="black" points="521,-171.5 521,-190.5 616,-190.5 616,-171.5 521,-171.5"/>
<text text-anchor="middle" x="568.5" y="-178.5" font-family="Helvetica,sans-Serif" font-size="10.00">rdcu_process_rx</text>
</a>
</g>
</g>
<!-- Node21&#45;&gt;Node22 -->
<g id="edge23" class="edge">
<title>Node21&#45;&gt;Node22</title>
<path fill="none" stroke="midnightblue" d="M455.98,-228.42C465.52,-225.66 475.72,-222.45 485,-219 503.61,-212.08 523.86,-202.78 539.64,-195.11"/>
<polygon fill="midnightblue" stroke="midnightblue" points="541.41,-198.14 548.84,-190.58 538.32,-191.86 541.41,-198.14"/>
</g>
<!-- Node22&#45;&gt;Node8 -->
<g id="edge26" class="edge">
<title>Node22&#45;&gt;Node8</title>
<path fill="none" stroke="midnightblue" d="M593.3,-190.6C609.76,-197.22 632.19,-206.2 652,-214 660.99,-217.54 670.73,-221.33 679.77,-224.83"/>
<polygon fill="midnightblue" stroke="midnightblue" points="678.65,-228.15 689.24,-228.49 681.17,-221.62 678.65,-228.15"/>
</g>
<!-- Node22&#45;&gt;Node14 -->
<g id="edge24" class="edge">
<title>Node22&#45;&gt;Node14</title>
<path fill="none" stroke="midnightblue" d="M616.07,-182.28C659.88,-185.11 726.29,-193.67 778,-219 816.4,-237.81 851.32,-274.59 869.92,-296.46"/>
<polygon fill="midnightblue" stroke="midnightblue" points="867.35,-298.85 876.43,-304.3 872.73,-294.37 867.35,-298.85"/>
</g>
<!-- Node23 -->
<g id="node23" class="node">
<title>Node23</title>
<g id="a_node23"><a xlink:href="rmap_8c_abf1868ec6873f9f189050cadc7e64a3b.html#abf1868ec6873f9f189050cadc7e64a3b" target="_top" xlink:title="calculate the CRC8 of a given buffer">
<polygon fill="white" stroke="black" points="681,-76.5 681,-95.5 749,-95.5 749,-76.5 681,-76.5"/>
<text text-anchor="middle" x="715" y="-83.5" font-family="Helvetica,sans-Serif" font-size="10.00">rmap_crc8</text>
</a>
</g>
</g>
<!-- Node22&#45;&gt;Node23 -->
<g id="edge25" class="edge">
<title>Node22&#45;&gt;Node23</title>
<path fill="none" stroke="midnightblue" d="M577.37,-171.36C590.95,-155.32 620.41,-123.12 652,-105 657.9,-101.61 664.48,-98.76 671.08,-96.39"/>
<polygon fill="midnightblue" stroke="midnightblue" points="672.27,-99.68 680.69,-93.25 670.09,-93.03 672.27,-99.68"/>
</g>
<!-- Node24 -->
<g id="node24" class="node">
<title>Node24</title>
<g id="a_node24"><a xlink:href="rmap_8c_a5e88a29337404518eceedf9b4af285bf.html#a5e88a29337404518eceedf9b4af285bf" target="_top" xlink:title=" ">
<polygon fill="white" stroke="black" points="667.5,-38.5 667.5,-57.5 762.5,-57.5 762.5,-38.5 667.5,-38.5"/>
<text text-anchor="middle" x="715" y="-45.5" font-family="Helvetica,sans-Serif" font-size="10.00">rmap_parse_pkt</text>
</a>
</g>
</g>
<!-- Node22&#45;&gt;Node24 -->
<g id="edge27" class="edge">
<title>Node22&#45;&gt;Node24</title>
<path fill="none" stroke="midnightblue" d="M573.76,-171.43C583.98,-149.55 612.06,-95.57 652,-67 654.7,-65.07 657.6,-63.33 660.62,-61.76"/>
<polygon fill="midnightblue" stroke="midnightblue" points="662.27,-64.86 669.96,-57.57 659.4,-58.48 662.27,-64.86"/>
</g>
<!-- Node29 -->
<g id="node29" class="node">
<title>Node29</title>
<g id="a_node29"><a xlink:href="rmap_8c_a46d3271304c12df042b57dbebaba67e1.html#a46d3271304c12df042b57dbebaba67e1" target="_top" xlink:title="create an rmap packet from a buffer">
<polygon fill="white" stroke="black" points="652.5,-380.5 652.5,-399.5 777.5,-399.5 777.5,-380.5 652.5,-380.5"/>
<text text-anchor="middle" x="715" y="-387.5" font-family="Helvetica,sans-Serif" font-size="10.00">rmap_pkt_from_buffer</text>
</a>
</g>
</g>
<!-- Node22&#45;&gt;Node29 -->
<g id="edge32" class="edge">
<title>Node22&#45;&gt;Node29</title>
<path fill="none" stroke="midnightblue" d="M570.8,-190.52C575.52,-221.4 594.62,-319.72 652,-371 653.91,-372.71 655.97,-374.26 658.14,-375.67"/>
<polygon fill="midnightblue" stroke="midnightblue" points="656.49,-378.76 666.95,-380.46 659.84,-372.61 656.49,-378.76"/>
</g>
<!-- Node30 -->
<g id="node30" class="node">
<title>Node30</title>
<g id="a_node30"><a xlink:href="rdcu__rmap_8c_acf9b176d8d9b24e9d07711f56aebccc0.html#acf9b176d8d9b24e9d07711f56aebccc0" target="_top" xlink:title="get the local address for a slot">
<polygon fill="white" stroke="black" points="660,-152.5 660,-171.5 770,-171.5 770,-152.5 660,-152.5"/>
<text text-anchor="middle" x="715" y="-159.5" font-family="Helvetica,sans-Serif" font-size="10.00">trans_log_get_addr</text>
</a>
</g>
</g>
<!-- Node22&#45;&gt;Node30 -->
<g id="edge36" class="edge">
<title>Node22&#45;&gt;Node30</title>
<path fill="none" stroke="midnightblue" d="M616.02,-174.88C626.69,-173.48 638.23,-171.96 649.51,-170.48"/>
<polygon fill="midnightblue" stroke="midnightblue" points="650.31,-173.9 659.77,-169.13 649.4,-166.96 650.31,-173.9"/>
</g>
<!-- Node31 -->
<g id="node31" class="node">
<title>Node31</title>
<g id="a_node31"><a xlink:href="rdcu__rmap_8c_a7012f58a1862cf07b00e299d24c199c2.html#a7012f58a1862cf07b00e299d24c199c2" target="_top" xlink:title="release a slot in the transaction log">
<polygon fill="white" stroke="black" points="652,-114.5 652,-133.5 778,-133.5 778,-114.5 652,-114.5"/>
<text text-anchor="middle" x="715" y="-121.5" font-family="Helvetica,sans-Serif" font-size="10.00">trans_log_release_slot</text>
</a>
</g>
</g>
<!-- Node22&#45;&gt;Node31 -->
<g id="edge37" class="edge">
<title>Node22&#45;&gt;Node31</title>
<path fill="none" stroke="midnightblue" d="M588.52,-171.35C605.05,-163.18 629.75,-151.49 652,-143 657.87,-140.76 664.12,-138.6 670.31,-136.58"/>
<polygon fill="midnightblue" stroke="midnightblue" points="671.45,-139.89 679.93,-133.54 669.34,-133.22 671.45,-139.89"/>
</g>
<!-- Node25 -->
<g id="node25" class="node">
<title>Node25</title>
<g id="a_node25"><a xlink:href="rmap_8c_abb4e19c17c7223212c3904bc4c0189d2.html#abb4e19c17c7223212c3904bc4c0189d2" target="_top" xlink:title=" ">
<polygon fill="white" stroke="black" points="829.5,-76.5 829.5,-95.5 940.5,-95.5 940.5,-76.5 829.5,-76.5"/>
<text text-anchor="middle" x="885" y="-83.5" font-family="Helvetica,sans-Serif" font-size="10.00">rmap_check_status</text>
</a>
</g>
</g>
<!-- Node24&#45;&gt;Node25 -->
<g id="edge28" class="edge">
<title>Node24&#45;&gt;Node25</title>
<path fill="none" stroke="midnightblue" d="M758.39,-57.59C780.76,-62.65 808.4,-68.9 832.05,-74.25"/>
<polygon fill="midnightblue" stroke="midnightblue" points="831.39,-77.69 841.91,-76.48 832.93,-70.86 831.39,-77.69"/>
</g>
<!-- Node26 -->
<g id="node26" class="node">
<title>Node26</title>
<g id="a_node26"><a xlink:href="rmap_8c_a20aa8b91dfb1bbad819759f97b853054.html#a20aa8b91dfb1bbad819759f97b853054" target="_top" xlink:title=" ">
<polygon fill="white" stroke="black" points="824,-38.5 824,-57.5 946,-57.5 946,-38.5 824,-38.5"/>
<text text-anchor="middle" x="885" y="-45.5" font-family="Helvetica,sans-Serif" font-size="10.00">rmap_parse_cmd_pkt</text>
</a>
</g>
</g>
<!-- Node24&#45;&gt;Node26 -->
<g id="edge29" class="edge">
<title>Node24&#45;&gt;Node26</title>
<path fill="none" stroke="midnightblue" d="M762.8,-48C778.62,-48 796.66,-48 813.89,-48"/>
<polygon fill="midnightblue" stroke="midnightblue" points="813.92,-51.5 823.92,-48 813.92,-44.5 813.92,-51.5"/>
</g>
<!-- Node27 -->
<g id="node27" class="node">
<title>Node27</title>
<g id="a_node27"><a xlink:href="rmap_8c_adef42426b46ee5ad5176ee76cff35c22.html#adef42426b46ee5ad5176ee76cff35c22" target="_top" xlink:title=" ">
<polygon fill="white" stroke="black" points="822.5,-0.5 822.5,-19.5 947.5,-19.5 947.5,-0.5 822.5,-0.5"/>
<text text-anchor="middle" x="885" y="-7.5" font-family="Helvetica,sans-Serif" font-size="10.00">rmap_parse_reply_pkt</text>
</a>
</g>
</g>
<!-- Node24&#45;&gt;Node27 -->
<g id="edge30" class="edge">
<title>Node24&#45;&gt;Node27</title>
<path fill="none" stroke="midnightblue" d="M758.39,-38.41C780.76,-33.35 808.4,-27.1 832.05,-21.75"/>
<polygon fill="midnightblue" stroke="midnightblue" points="832.93,-25.14 841.91,-19.52 831.39,-18.31 832.93,-25.14"/>
</g>
<!-- Node28 -->
<g id="node28" class="node">
<title>Node28</title>
<g id="a_node28"><a xlink:href="rmap_8c_a2ff278a5e094a9f585865d4d838e0e0e.html#a2ff278a5e094a9f585865d4d838e0e0e" target="_top" xlink:title=" ">
<polygon fill="white" stroke="black" points="992,-0.5 992,-19.5 1134,-19.5 1134,-0.5 992,-0.5"/>
<text text-anchor="middle" x="1063" y="-7.5" font-family="Helvetica,sans-Serif" font-size="10.00">rmap_process_read_reply</text>
</a>
</g>
</g>
<!-- Node27&#45;&gt;Node28 -->
<g id="edge31" class="edge">
<title>Node27&#45;&gt;Node28</title>
<path fill="none" stroke="midnightblue" d="M947.56,-10C958.6,-10 970.25,-10 981.73,-10"/>
<polygon fill="midnightblue" stroke="midnightblue" points="981.74,-13.5 991.74,-10 981.74,-6.5 981.74,-13.5"/>
</g>
<!-- Node29&#45;&gt;Node6 -->
<g id="edge35" class="edge">
<title>Node29&#45;&gt;Node6</title>
<path fill="none" stroke="midnightblue" d="M760.9,-399.53C767,-402 772.9,-405.1 778,-409 801.81,-427.19 795.78,-442.22 814,-466 830.39,-487.38 851.64,-509.84 866.41,-524.74"/>
<polygon fill="midnightblue" stroke="midnightblue" points="864.32,-527.61 873.87,-532.19 869.27,-522.65 864.32,-527.61"/>
</g>
<!-- Node29&#45;&gt;Node7 -->
<g id="edge34" class="edge">
<title>Node29&#45;&gt;Node7</title>
<path fill="none" stroke="midnightblue" d="M748.27,-399.58C757.87,-402.51 768.38,-405.81 778,-409 801.76,-416.89 828.27,-426.4 848.83,-433.93"/>
<polygon fill="midnightblue" stroke="midnightblue" points="847.82,-437.28 858.41,-437.45 850.23,-430.71 847.82,-437.28"/>
</g>
<!-- Node29&#45;&gt;Node14 -->
<g id="edge33" class="edge">
<title>Node29&#45;&gt;Node14</title>
<path fill="none" stroke="midnightblue" d="M751.51,-380.43C760.29,-377.7 769.58,-374.51 778,-371 807.06,-358.87 838.64,-341.27 859.7,-328.84"/>
<polygon fill="midnightblue" stroke="midnightblue" points="861.52,-331.83 868.32,-323.7 857.94,-325.82 861.52,-331.83"/>
</g>
</g>
</svg>
