<?xml version="1.0" encoding="UTF-8" standalone="no"?>
<!DOCTYPE svg PUBLIC "-//W3C//DTD SVG 1.1//EN"
 "http://www.w3.org/Graphics/SVG/1.1/DTD/svg11.dtd">
<!-- Generated by graphviz version 2.43.0 (0)
 -->
<!-- Title: rdcu_sync_sram_edac_status Pages: 1 -->
<!--zoomable 750 -->
<svg id="main" version="1.1" xmlns="http://www.w3.org/2000/svg" xmlns:xlink="http://www.w3.org/1999/xlink" xml:space="preserve" onload="init(evt)">
<style type="text/css"><![CDATA[
.edge:hover path { stroke: red; }
.edge:hover polygon { stroke: red; fill: red; }
]]></style>
<script type="text/javascript"><![CDATA[
var edges = document.getElementsByTagName('g');
if (edges && edges.length) {
  for (var i=0;i<edges.length;i++) {
    if (edges[i].id.substr(0,4)=='edge') {
      edges[i].setAttribute('class','edge');
    }
  }
}
]]></script>
        <defs>
                <circle id="rim" cx="0" cy="0" r="7"/>
                <circle id="rim2" cx="0" cy="0" r="3.5"/>
                <g id="zoomPlus">
                        <use xlink:href="#rim" fill="#404040">
                                <set attributeName="fill" to="#808080" begin="zoomplus.mouseover" end="zoomplus.mouseout"/>
                        </use>
                        <path d="M-4,0h8M0,-4v8" fill="none" stroke="white" stroke-width="1.5" pointer-events="none"/>
                </g>
                <g id="zoomMin">
                        <use xlink:href="#rim" fill="#404040">
                                <set attributeName="fill" to="#808080" begin="zoomminus.mouseover" end="zoomminus.mouseout"/>
                        </use>
                        <path d="M-4,0h8" fill="none" stroke="white" stroke-width="1.5" pointer-events="none"/>
                </g>
                <g id="dirArrow">
                        <path fill="none" stroke="white" stroke-width="1.5" d="M0,-3.0v7 M-2.5,-0.5L0,-3.0L2.5,-0.5"/>
                </g>
               <g id="resetDef">
                       <use xlink:href="#rim2" fill="#404040">
                               <set attributeName="fill" to="#808080" begin="reset.mouseover" end="reset.mouseout"/>
                       </use>
               </g>
        </defs>

<script type="text/javascript">
var viewWidth = 1108;
var viewHeight = 750;
var sectionId = 'dynsection-0';
</script>
<script xlink:href="svgpan.js"/>
<svg id="graph" class="graph">
<g id="viewport">
<title>rdcu_sync_sram_edac_status</title>
<polygon fill="white" stroke="transparent" points="-4,4 -4,-746 1104,-746 1104,4 -4,4"/>
<!-- Node1 -->
<g id="node1" class="node">
<title>Node1</title>
<g id="a_node1"><a xlink:title="sync the SRAM EDAC Status (read only)">
<polygon fill="#bfbfbf" stroke="black" points="0,-264 0,-294 124,-294 124,-264 0,-264"/>
<text text-anchor="start" x="8" y="-282" font-family="Helvetica,sans-Serif" font-size="10.00">rdcu_sync_sram_edac</text>
<text text-anchor="middle" x="62" y="-271" font-family="Helvetica,sans-Serif" font-size="10.00">_status</text>
</a>
</g>
</g>
<!-- Node2 -->
<g id="node2" class="node">
<title>Node2</title>
<g id="a_node2"><a xlink:href="rdcu__cmd_8c_aadc49549fc11a28677d51fb952819475.html#aadc49549fc11a28677d51fb952819475" target="_top" xlink:title="create a command to read the SRAM EDAC Status register">
<polygon fill="white" stroke="black" points="160,-387 160,-417 281,-417 281,-387 160,-387"/>
<text text-anchor="start" x="168" y="-405" font-family="Helvetica,sans-Serif" font-size="10.00">rdcu_read_cmd_sram</text>
<text text-anchor="middle" x="220.5" y="-394" font-family="Helvetica,sans-Serif" font-size="10.00">_edac_status</text>
</a>
</g>
</g>
<!-- Node1&#45;&gt;Node2 -->
<g id="edge1" class="edge">
<title>Node1&#45;&gt;Node2</title>
<path fill="none" stroke="midnightblue" d="M82.19,-294.08C109.76,-315.75 160.73,-355.81 192.21,-380.55"/>
<polygon fill="midnightblue" stroke="midnightblue" points="190.13,-383.37 200.15,-386.79 194.45,-377.86 190.13,-383.37"/>
</g>
<!-- Node20 -->
<g id="node20" class="node">
<title>Node20</title>
<g id="a_node20"><a xlink:href="rdcu__rmap_8c_a533d1eb248d83ba3d406cefe7f3c9eb9.html#a533d1eb248d83ba3d406cefe7f3c9eb9" target="_top" xlink:title="submit a sync command">
<polygon fill="white" stroke="black" points="188,-247.5 188,-266.5 253,-266.5 253,-247.5 188,-247.5"/>
<text text-anchor="middle" x="220.5" y="-254.5" font-family="Helvetica,sans-Serif" font-size="10.00">rdcu_sync</text>
</a>
</g>
</g>
<!-- Node1&#45;&gt;Node20 -->
<g id="edge20" class="edge">
<title>Node1&#45;&gt;Node20</title>
<path fill="none" stroke="midnightblue" d="M124.4,-270.37C142.25,-267.86 161.32,-265.18 177.66,-262.88"/>
<polygon fill="midnightblue" stroke="midnightblue" points="178.55,-266.29 187.96,-261.43 177.57,-259.36 178.55,-266.29"/>
</g>
<!-- Node3 -->
<g id="node3" class="node">
<title>Node3</title>
<g id="a_node3"><a xlink:href="rdcu__cmd_8c_a3274188041d4484130e893afc5f1630f.html#a3274188041d4484130e893afc5f1630f" target="_top" xlink:title="generate a read command for an arbitrary register (internal)">
<polygon fill="white" stroke="black" points="317,-438 317,-468 451,-468 451,-438 317,-438"/>
<text text-anchor="start" x="325" y="-456" font-family="Helvetica,sans-Serif" font-size="10.00">rdcu_read_cmd_register</text>
<text text-anchor="middle" x="384" y="-445" font-family="Helvetica,sans-Serif" font-size="10.00">_internal</text>
</a>
</g>
</g>
<!-- Node2&#45;&gt;Node3 -->
<g id="edge2" class="edge">
<title>Node2&#45;&gt;Node3</title>
<path fill="none" stroke="midnightblue" d="M269.08,-417.03C286.83,-422.63 307.16,-429.05 325.69,-434.9"/>
<polygon fill="midnightblue" stroke="midnightblue" points="324.89,-438.32 335.48,-437.99 327,-431.64 324.89,-438.32"/>
</g>
<!-- Node4 -->
<g id="node4" class="node">
<title>Node4</title>
<g id="a_node4"><a xlink:href="rdcu__rmap_8c_ab224927e85a7cec5b6f90292c7de36c4.html#ab224927e85a7cec5b6f90292c7de36c4" target="_top" xlink:title="generate an rmap command packet">
<polygon fill="white" stroke="black" points="491,-494.5 491,-513.5 578,-513.5 578,-494.5 491,-494.5"/>
<text text-anchor="middle" x="534.5" y="-501.5" font-family="Helvetica,sans-Serif" font-size="10.00">rdcu_gen_cmd</text>
</a>
</g>
</g>
<!-- Node3&#45;&gt;Node4 -->
<g id="edge3" class="edge">
<title>Node3&#45;&gt;Node4</title>
<path fill="none" stroke="midnightblue" d="M428.75,-468.03C450.07,-475.35 475.46,-484.07 495.9,-491.09"/>
<polygon fill="midnightblue" stroke="midnightblue" points="494.9,-494.44 505.49,-494.38 497.17,-487.82 494.9,-494.44"/>
</g>
<!-- Node5 -->
<g id="node5" class="node">
<title>Node5</title>
<g id="a_node5"><a xlink:href="rmap_8c_aa17375d153cc3473cbbe4dfe1056c527.html#aa17375d153cc3473cbbe4dfe1056c527" target="_top" xlink:title="build an rmap header">
<polygon fill="white" stroke="black" points="635,-646.5 635,-665.5 727,-665.5 727,-646.5 635,-646.5"/>
<text text-anchor="middle" x="681" y="-653.5" font-family="Helvetica,sans-Serif" font-size="10.00">rmap_build_hdr</text>
</a>
</g>
</g>
<!-- Node4&#45;&gt;Node5 -->
<g id="edge4" class="edge">
<title>Node4&#45;&gt;Node5</title>
<path fill="none" stroke="midnightblue" d="M538.76,-513.68C547.52,-538.17 573.88,-603 618,-637 620.34,-638.8 622.85,-640.44 625.48,-641.92"/>
<polygon fill="midnightblue" stroke="midnightblue" points="624.22,-645.19 634.75,-646.38 627.25,-638.89 624.22,-645.19"/>
</g>
<!-- Node7 -->
<g id="node7" class="node">
<title>Node7</title>
<g id="a_node7"><a xlink:href="rmap_8c_aba944cf978de0b264ea5bb3a784bce0f.html#aba944cf978de0b264ea5bb3a784bce0f" target="_top" xlink:title="create an RMAP packet and set defaults">
<polygon fill="white" stroke="black" points="793,-437.5 793,-456.5 909,-456.5 909,-437.5 793,-437.5"/>
<text text-anchor="middle" x="851" y="-444.5" font-family="Helvetica,sans-Serif" font-size="10.00">rmap_create_packet</text>
</a>
</g>
</g>
<!-- Node4&#45;&gt;Node7 -->
<g id="edge6" class="edge">
<title>Node4&#45;&gt;Node7</title>
<path fill="none" stroke="midnightblue" d="M563.93,-513.53C604.8,-525.69 682.06,-542.91 744,-523 780.03,-511.42 814.19,-482.57 833.57,-463.93"/>
<polygon fill="midnightblue" stroke="midnightblue" points="836.28,-466.17 840.93,-456.65 831.36,-461.19 836.28,-466.17"/>
</g>
<!-- Node8 -->
<g id="node8" class="node">
<title>Node8</title>
<g id="a_node8"><a xlink:href="rmap_8c_a1def9af549819e7fdbda12af8bdc9c0e.html#a1def9af549819e7fdbda12af8bdc9c0e" target="_top" xlink:title="completely destroys an RMAP packet">
<polygon fill="white" stroke="black" points="625,-228.5 625,-247.5 737,-247.5 737,-228.5 625,-228.5"/>
<text text-anchor="middle" x="681" y="-235.5" font-family="Helvetica,sans-Serif" font-size="10.00">rmap_erase_packet</text>
</a>
</g>
</g>
<!-- Node4&#45;&gt;Node8 -->
<g id="edge7" class="edge">
<title>Node4&#45;&gt;Node8</title>
<path fill="none" stroke="midnightblue" d="M537.72,-494.09C545.09,-462.7 570.97,-363.5 618,-295 629,-278.98 645.29,-264.23 658.41,-253.75"/>
<polygon fill="midnightblue" stroke="midnightblue" points="660.71,-256.4 666.48,-247.51 656.43,-250.86 660.71,-256.4"/>
</g>
<!-- Node9 -->
<g id="node9" class="node">
<title>Node9</title>
<g id="a_node9"><a xlink:href="rmap_8c_aab7e23f061291d39568ad2df700bc777.html#aab7e23f061291d39568ad2df700bc777" target="_top" xlink:title="set an RMAP command">
<polygon fill="white" stroke="black" points="636.5,-684.5 636.5,-703.5 725.5,-703.5 725.5,-684.5 636.5,-684.5"/>
<text text-anchor="middle" x="681" y="-691.5" font-family="Helvetica,sans-Serif" font-size="10.00">rmap_set_cmd</text>
</a>
</g>
</g>
<!-- Node4&#45;&gt;Node9 -->
<g id="edge8" class="edge">
<title>Node4&#45;&gt;Node9</title>
<path fill="none" stroke="midnightblue" d="M537.36,-513.79C543.4,-542.91 565.23,-629.7 618,-675 620.81,-677.42 623.93,-679.52 627.22,-681.36"/>
<polygon fill="midnightblue" stroke="midnightblue" points="625.74,-684.53 636.27,-685.64 628.72,-678.2 625.74,-684.53"/>
</g>
<!-- Node11 -->
<g id="node11" class="node">
<title>Node11</title>
<g id="a_node11"><a xlink:href="rmap_8c_acf641aae92829ae864b6c3d8f94d86e2.html#acf641aae92829ae864b6c3d8f94d86e2" target="_top" xlink:title="set a data address">
<polygon fill="white" stroke="black" points="623,-608.5 623,-627.5 739,-627.5 739,-608.5 623,-608.5"/>
<text text-anchor="middle" x="681" y="-615.5" font-family="Helvetica,sans-Serif" font-size="10.00">rmap_set_data_addr</text>
</a>
</g>
</g>
<!-- Node4&#45;&gt;Node11 -->
<g id="edge10" class="edge">
<title>Node4&#45;&gt;Node11</title>
<path fill="none" stroke="midnightblue" d="M541.24,-513.66C553.11,-532.81 582.29,-575.78 618,-599 621.16,-601.05 624.55,-602.9 628.06,-604.55"/>
<polygon fill="midnightblue" stroke="midnightblue" points="626.98,-607.88 637.56,-608.48 629.66,-601.42 626.98,-607.88"/>
</g>
<!-- Node12 -->
<g id="node12" class="node">
<title>Node12</title>
<g id="a_node12"><a xlink:href="rmap_8c_a6833f065640f652aa1a929309e592f7a.html#a6833f065640f652aa1a929309e592f7a" target="_top" xlink:title="set an RMAP command">
<polygon fill="white" stroke="black" points="626,-570.5 626,-589.5 736,-589.5 736,-570.5 626,-570.5"/>
<text text-anchor="middle" x="681" y="-577.5" font-family="Helvetica,sans-Serif" font-size="10.00">rmap_set_data_len</text>
</a>
</g>
</g>
<!-- Node4&#45;&gt;Node12 -->
<g id="edge11" class="edge">
<title>Node4&#45;&gt;Node12</title>
<path fill="none" stroke="midnightblue" d="M549.04,-513.68C565,-524.82 592.59,-543.22 618,-556 625.78,-559.91 634.36,-563.6 642.6,-566.87"/>
<polygon fill="midnightblue" stroke="midnightblue" points="641.45,-570.17 652.04,-570.48 643.95,-563.64 641.45,-570.17"/>
</g>
<!-- Node13 -->
<g id="node13" class="node">
<title>Node13</title>
<g id="a_node13"><a xlink:href="rmap_8c_a5f0081b9928da5e50fc8b231b57f3a80.html#a5f0081b9928da5e50fc8b231b57f3a80" target="_top" xlink:title="set the destination address path">
<polygon fill="white" stroke="black" points="623,-342.5 623,-361.5 739,-361.5 739,-342.5 623,-342.5"/>
<text text-anchor="middle" x="681" y="-349.5" font-family="Helvetica,sans-Serif" font-size="10.00">rmap_set_dest_path</text>
</a>
</g>
</g>
<!-- Node4&#45;&gt;Node13 -->
<g id="edge12" class="edge">
<title>Node4&#45;&gt;Node13</title>
<path fill="none" stroke="midnightblue" d="M538.76,-494.32C547.52,-469.83 573.88,-405 618,-371 620.34,-369.2 622.85,-367.56 625.48,-366.08"/>
<polygon fill="midnightblue" stroke="midnightblue" points="627.25,-369.11 634.75,-361.62 624.22,-362.81 627.25,-369.11"/>
</g>
<!-- Node15 -->
<g id="node15" class="node">
<title>Node15</title>
<g id="a_node15"><a xlink:href="rmap_8c_a2da8e7b48411d382b54848795f85795d.html#a2da8e7b48411d382b54848795f85795d" target="_top" xlink:title="set the destination (target) logical address">
<polygon fill="white" stroke="black" points="639.5,-494.5 639.5,-513.5 722.5,-513.5 722.5,-494.5 639.5,-494.5"/>
<text text-anchor="middle" x="681" y="-501.5" font-family="Helvetica,sans-Serif" font-size="10.00">rmap_set_dst</text>
</a>
</g>
</g>
<!-- Node4&#45;&gt;Node15 -->
<g id="edge14" class="edge">
<title>Node4&#45;&gt;Node15</title>
<path fill="none" stroke="midnightblue" d="M578.07,-504C594.07,-504 612.41,-504 629.09,-504"/>
<polygon fill="midnightblue" stroke="midnightblue" points="629.22,-507.5 639.22,-504 629.22,-500.5 629.22,-507.5"/>
</g>
<!-- Node16 -->
<g id="node16" class="node">
<title>Node16</title>
<g id="a_node16"><a xlink:href="rmap_8c_a15021c9dfccddc44786dfd37834bcd7e.html#a15021c9dfccddc44786dfd37834bcd7e" target="_top" xlink:title="set the command authorisation key">
<polygon fill="white" stroke="black" points="638.5,-456.5 638.5,-475.5 723.5,-475.5 723.5,-456.5 638.5,-456.5"/>
<text text-anchor="middle" x="681" y="-463.5" font-family="Helvetica,sans-Serif" font-size="10.00">rmap_set_key</text>
</a>
</g>
</g>
<!-- Node4&#45;&gt;Node16 -->
<g id="edge15" class="edge">
<title>Node4&#45;&gt;Node16</title>
<path fill="none" stroke="midnightblue" d="M571.96,-494.41C590.77,-489.46 613.91,-483.38 633.95,-478.11"/>
<polygon fill="midnightblue" stroke="midnightblue" points="635.02,-481.45 643.8,-475.52 633.24,-474.68 635.02,-481.45"/>
</g>
<!-- Node17 -->
<g id="node17" class="node">
<title>Node17</title>
<g id="a_node17"><a xlink:href="rmap_8c_a56c47830e67d01e469231e5e7e1d3a34.html#a56c47830e67d01e469231e5e7e1d3a34" target="_top" xlink:title="set the reply address path">
<polygon fill="white" stroke="black" points="621.5,-304.5 621.5,-323.5 740.5,-323.5 740.5,-304.5 621.5,-304.5"/>
<text text-anchor="middle" x="681" y="-311.5" font-family="Helvetica,sans-Serif" font-size="10.00">rmap_set_reply_path</text>
</a>
</g>
</g>
<!-- Node4&#45;&gt;Node17 -->
<g id="edge16" class="edge">
<title>Node4&#45;&gt;Node17</title>
<path fill="none" stroke="midnightblue" d="M537.36,-494.21C543.4,-465.09 565.23,-378.3 618,-333 619.98,-331.3 622.11,-329.75 624.35,-328.34"/>
<polygon fill="midnightblue" stroke="midnightblue" points="626.2,-331.32 633.41,-323.56 622.93,-325.13 626.2,-331.32"/>
</g>
<!-- Node18 -->
<g id="node18" class="node">
<title>Node18</title>
<g id="a_node18"><a xlink:href="rmap_8c_adae0030440ca4e7ad34622e505acbb2c.html#adae0030440ca4e7ad34622e505acbb2c" target="_top" xlink:title="set the source (initiator) logical address">
<polygon fill="white" stroke="black" points="640,-418.5 640,-437.5 722,-437.5 722,-418.5 640,-418.5"/>
<text text-anchor="middle" x="681" y="-425.5" font-family="Helvetica,sans-Serif" font-size="10.00">rmap_set_src</text>
</a>
</g>
</g>
<!-- Node4&#45;&gt;Node18 -->
<g id="edge18" class="edge">
<title>Node4&#45;&gt;Node18</title>
<path fill="none" stroke="midnightblue" d="M546.82,-494.48C562.1,-482.04 590.58,-460.28 618,-447 622.63,-444.76 627.58,-442.71 632.6,-440.86"/>
<polygon fill="midnightblue" stroke="midnightblue" points="633.92,-444.1 642.24,-437.54 631.65,-437.48 633.92,-444.1"/>
</g>
<!-- Node19 -->
<g id="node19" class="node">
<title>Node19</title>
<g id="a_node19"><a xlink:href="rmap_8c_a7b4c31714493ce6cc19d4aa825ab50aa.html#a7b4c31714493ce6cc19d4aa825ab50aa" target="_top" xlink:title="set an RMAP transaction identifier">
<polygon fill="white" stroke="black" points="636.5,-722.5 636.5,-741.5 725.5,-741.5 725.5,-722.5 636.5,-722.5"/>
<text text-anchor="middle" x="681" y="-729.5" font-family="Helvetica,sans-Serif" font-size="10.00">rmap_set_tr_id</text>
</a>
</g>
</g>
<!-- Node4&#45;&gt;Node19 -->
<g id="edge19" class="edge">
<title>Node4&#45;&gt;Node19</title>
<path fill="none" stroke="midnightblue" d="M536.38,-513.52C539.93,-546.34 556.12,-655.81 618,-713 620.77,-715.56 623.87,-717.77 627.17,-719.69"/>
<polygon fill="midnightblue" stroke="midnightblue" points="625.77,-722.9 636.3,-724.09 628.82,-716.59 625.77,-722.9"/>
</g>
<!-- Node6 -->
<g id="node6" class="node">
<title>Node6</title>
<g id="a_node6"><a xlink:href="rmap_8c_a0ec3c28e83818f02e00d4c79d82d938a.html#a0ec3c28e83818f02e00d4c79d82d938a" target="_top" xlink:title="get the minimum header size given the RMAP instruction">
<polygon fill="white" stroke="black" points="784.5,-532.5 784.5,-551.5 917.5,-551.5 917.5,-532.5 784.5,-532.5"/>
<text text-anchor="middle" x="851" y="-539.5" font-family="Helvetica,sans-Serif" font-size="10.00">rmap_get_min_hdr_size</text>
</a>
</g>
</g>
<!-- Node5&#45;&gt;Node6 -->
<g id="edge5" class="edge">
<title>Node5&#45;&gt;Node6</title>
<path fill="none" stroke="midnightblue" d="M722.42,-646.4C729.83,-643.87 737.33,-640.76 744,-637 781.04,-616.08 816.2,-580.34 835.26,-559.17"/>
<polygon fill="midnightblue" stroke="midnightblue" points="837.96,-561.39 841.96,-551.58 832.72,-556.75 837.96,-561.39"/>
</g>
<!-- Node10 -->
<g id="node10" class="node">
<title>Node10</title>
<g id="a_node10"><a xlink:href="rmap_8c_a667ce871110961f2a611d0244791e20f.html#a667ce871110961f2a611d0244791e20f" target="_top" xlink:title="valiidates a command code">
<polygon fill="white" stroke="black" points="780,-684.5 780,-703.5 922,-703.5 922,-684.5 780,-684.5"/>
<text text-anchor="middle" x="851" y="-691.5" font-family="Helvetica,sans-Serif" font-size="10.00">rmap_validate_cmd_code</text>
</a>
</g>
</g>
<!-- Node9&#45;&gt;Node10 -->
<g id="edge9" class="edge">
<title>Node9&#45;&gt;Node10</title>
<path fill="none" stroke="midnightblue" d="M725.7,-694C739.13,-694 754.36,-694 769.44,-694"/>
<polygon fill="midnightblue" stroke="midnightblue" points="769.83,-697.5 779.83,-694 769.83,-690.5 769.83,-697.5"/>
</g>
<!-- Node14 -->
<g id="node14" class="node">
<title>Node14</title>
<g id="a_node14"><a xlink:href="test__cmp__max__used__bits__list_8c_a7ac38fce3243a7dcf448301ee9ffd392.html#a7ac38fce3243a7dcf448301ee9ffd392" target="_top" xlink:title=" ">
<polygon fill="white" stroke="black" points="826,-304.5 826,-323.5 876,-323.5 876,-304.5 826,-304.5"/>
<text text-anchor="middle" x="851" y="-311.5" font-family="Helvetica,sans-Serif" font-size="10.00">malloc</text>
</a>
</g>
</g>
<!-- Node13&#45;&gt;Node14 -->
<g id="edge13" class="edge">
<title>Node13&#45;&gt;Node14</title>
<path fill="none" stroke="midnightblue" d="M724.39,-342.41C752.71,-336.01 789.47,-327.69 815.9,-321.71"/>
<polygon fill="midnightblue" stroke="midnightblue" points="816.85,-325.09 825.83,-319.47 815.3,-318.26 816.85,-325.09"/>
</g>
<!-- Node17&#45;&gt;Node14 -->
<g id="edge17" class="edge">
<title>Node17&#45;&gt;Node14</title>
<path fill="none" stroke="midnightblue" d="M740.76,-314C765.69,-314 793.89,-314 815.39,-314"/>
<polygon fill="midnightblue" stroke="midnightblue" points="815.67,-317.5 825.67,-314 815.67,-310.5 815.67,-317.5"/>
</g>
<!-- Node20&#45;&gt;Node14 -->
<g id="edge21" class="edge">
<title>Node20&#45;&gt;Node14</title>
<path fill="none" stroke="midnightblue" d="M253.12,-258.14C334.69,-261.35 558.78,-271.73 744,-295 768.12,-298.03 795.09,-302.88 815.78,-306.93"/>
<polygon fill="midnightblue" stroke="midnightblue" points="815.2,-310.38 825.69,-308.89 816.56,-303.51 815.2,-310.38"/>
</g>
<!-- Node21 -->
<g id="node21" class="node">
<title>Node21</title>
<g id="a_node21"><a xlink:href="rdcu__rmap_8c_a95fad3cd9b6bbe562e1a73e3f1c108a8.html#a95fad3cd9b6bbe562e1a73e3f1c108a8" target="_top" xlink:title="submit an rmap command transaction">
<polygon fill="white" stroke="black" points="338,-228.5 338,-247.5 430,-247.5 430,-228.5 338,-228.5"/>
<text text-anchor="middle" x="384" y="-235.5" font-family="Helvetica,sans-Serif" font-size="10.00">rdcu_submit_tx</text>
</a>
</g>
</g>
<!-- Node20&#45;&gt;Node21 -->
<g id="edge22" class="edge">
<title>Node20&#45;&gt;Node21</title>
<path fill="none" stroke="midnightblue" d="M253.02,-253.29C274.24,-250.8 302.79,-247.44 327.73,-244.5"/>
<polygon fill="midnightblue" stroke="midnightblue" points="328.28,-247.96 337.81,-243.32 327.47,-241.01 328.28,-247.96"/>
</g>
<!-- Node32 -->
<g id="node32" class="node">
<title>Node32</title>
<g id="a_node32"><a xlink:href="rdcu__rmap_8c_a36f44335aa66dd49fb4903f7269bc5b1.html#a36f44335aa66dd49fb4903f7269bc5b1" target="_top" xlink:title="grab a slot in the transaction log">
<polygon fill="white" stroke="black" points="328,-190.5 328,-209.5 440,-209.5 440,-190.5 328,-190.5"/>
<text text-anchor="middle" x="384" y="-197.5" font-family="Helvetica,sans-Serif" font-size="10.00">trans_log_grab_slot</text>
</a>
</g>
</g>
<!-- Node20&#45;&gt;Node32 -->
<g id="edge38" class="edge">
<title>Node20&#45;&gt;Node32</title>
<path fill="none" stroke="midnightblue" d="M243.65,-247.47C262.86,-239.37 291.5,-227.72 317,-219 323.59,-216.74 330.62,-214.53 337.53,-212.45"/>
<polygon fill="midnightblue" stroke="midnightblue" points="338.91,-215.7 347.52,-209.52 336.94,-208.98 338.91,-215.7"/>
</g>
<!-- Node22 -->
<g id="node22" class="node">
<title>Node22</title>
<g id="a_node22"><a xlink:href="rdcu__rmap_8c_a1a064554031c2fa2dcb65541e0765c0f.html#a1a064554031c2fa2dcb65541e0765c0f" target="_top" xlink:title="n rmap command transaction">
<polygon fill="white" stroke="black" points="487,-171.5 487,-190.5 582,-190.5 582,-171.5 487,-171.5"/>
<text text-anchor="middle" x="534.5" y="-178.5" font-family="Helvetica,sans-Serif" font-size="10.00">rdcu_process_rx</text>
</a>
</g>
</g>
<!-- Node21&#45;&gt;Node22 -->
<g id="edge23" class="edge">
<title>Node21&#45;&gt;Node22</title>
<path fill="none" stroke="midnightblue" d="M421.98,-228.42C431.52,-225.66 441.72,-222.45 451,-219 469.61,-212.08 489.86,-202.78 505.64,-195.11"/>
<polygon fill="midnightblue" stroke="midnightblue" points="507.41,-198.14 514.84,-190.58 504.32,-191.86 507.41,-198.14"/>
</g>
<!-- Node22&#45;&gt;Node8 -->
<g id="edge26" class="edge">
<title>Node22&#45;&gt;Node8</title>
<path fill="none" stroke="midnightblue" d="M559.3,-190.6C575.76,-197.22 598.19,-206.2 618,-214 626.99,-217.54 636.73,-221.33 645.77,-224.83"/>
<polygon fill="midnightblue" stroke="midnightblue" points="644.65,-228.15 655.24,-228.49 647.17,-221.62 644.65,-228.15"/>
</g>
<!-- Node22&#45;&gt;Node14 -->
<g id="edge24" class="edge">
<title>Node22&#45;&gt;Node14</title>
<path fill="none" stroke="midnightblue" d="M582.07,-182.28C625.88,-185.11 692.29,-193.67 744,-219 782.4,-237.81 817.32,-274.59 835.92,-296.46"/>
<polygon fill="midnightblue" stroke="midnightblue" points="833.35,-298.85 842.43,-304.3 838.73,-294.37 833.35,-298.85"/>
</g>
<!-- Node23 -->
<g id="node23" class="node">
<title>Node23</title>
<g id="a_node23"><a xlink:href="rmap_8c_abf1868ec6873f9f189050cadc7e64a3b.html#abf1868ec6873f9f189050cadc7e64a3b" target="_top" xlink:title="calculate the CRC8 of a given buffer">
<polygon fill="white" stroke="black" points="647,-76.5 647,-95.5 715,-95.5 715,-76.5 647,-76.5"/>
<text text-anchor="middle" x="681" y="-83.5" font-family="Helvetica,sans-Serif" font-size="10.00">rmap_crc8</text>
</a>
</g>
</g>
<!-- Node22&#45;&gt;Node23 -->
<g id="edge25" class="edge">
<title>Node22&#45;&gt;Node23</title>
<path fill="none" stroke="midnightblue" d="M543.37,-171.36C556.95,-155.32 586.41,-123.12 618,-105 623.9,-101.61 630.48,-98.76 637.08,-96.39"/>
<polygon fill="midnightblue" stroke="midnightblue" points="638.27,-99.68 646.69,-93.25 636.09,-93.03 638.27,-99.68"/>
</g>
<!-- Node24 -->
<g id="node24" class="node">
<title>Node24</title>
<g id="a_node24"><a xlink:href="rmap_8c_a5e88a29337404518eceedf9b4af285bf.html#a5e88a29337404518eceedf9b4af285bf" target="_top" xlink:title=" ">
<polygon fill="white" stroke="black" points="633.5,-38.5 633.5,-57.5 728.5,-57.5 728.5,-38.5 633.5,-38.5"/>
<text text-anchor="middle" x="681" y="-45.5" font-family="Helvetica,sans-Serif" font-size="10.00">rmap_parse_pkt</text>
</a>
</g>
</g>
<!-- Node22&#45;&gt;Node24 -->
<g id="edge27" class="edge">
<title>Node22&#45;&gt;Node24</title>
<path fill="none" stroke="midnightblue" d="M539.76,-171.43C549.98,-149.55 578.06,-95.57 618,-67 620.7,-65.07 623.6,-63.33 626.62,-61.76"/>
<polygon fill="midnightblue" stroke="midnightblue" points="628.27,-64.86 635.96,-57.57 625.4,-58.48 628.27,-64.86"/>
</g>
<!-- Node29 -->
<g id="node29" class="node">
<title>Node29</title>
<g id="a_node29"><a xlink:href="rmap_8c_a46d3271304c12df042b57dbebaba67e1.html#a46d3271304c12df042b57dbebaba67e1" target="_top" xlink:title="create an rmap packet from a buffer">
<polygon fill="white" stroke="black" points="618.5,-380.5 618.5,-399.5 743.5,-399.5 743.5,-380.5 618.5,-380.5"/>
<text text-anchor="middle" x="681" y="-387.5" font-family="Helvetica,sans-Serif" font-size="10.00">rmap_pkt_from_buffer</text>
</a>
</g>
</g>
<!-- Node22&#45;&gt;Node29 -->
<g id="edge32" class="edge">
<title>Node22&#45;&gt;Node29</title>
<path fill="none" stroke="midnightblue" d="M536.8,-190.52C541.52,-221.4 560.62,-319.72 618,-371 619.91,-372.71 621.97,-374.26 624.14,-375.67"/>
<polygon fill="midnightblue" stroke="midnightblue" points="622.49,-378.76 632.95,-380.46 625.84,-372.61 622.49,-378.76"/>
</g>
<!-- Node30 -->
<g id="node30" class="node">
<title>Node30</title>
<g id="a_node30"><a xlink:href="rdcu__rmap_8c_acf9b176d8d9b24e9d07711f56aebccc0.html#acf9b176d8d9b24e9d07711f56aebccc0" target="_top" xlink:title="get the local address for a slot">
<polygon fill="white" stroke="black" points="626,-152.5 626,-171.5 736,-171.5 736,-152.5 626,-152.5"/>
<text text-anchor="middle" x="681" y="-159.5" font-family="Helvetica,sans-Serif" font-size="10.00">trans_log_get_addr</text>
</a>
</g>
</g>
<!-- Node22&#45;&gt;Node30 -->
<g id="edge36" class="edge">
<title>Node22&#45;&gt;Node30</title>
<path fill="none" stroke="midnightblue" d="M582.02,-174.88C592.69,-173.48 604.23,-171.96 615.51,-170.48"/>
<polygon fill="midnightblue" stroke="midnightblue" points="616.31,-173.9 625.77,-169.13 615.4,-166.96 616.31,-173.9"/>
</g>
<!-- Node31 -->
<g id="node31" class="node">
<title>Node31</title>
<g id="a_node31"><a xlink:href="rdcu__rmap_8c_a7012f58a1862cf07b00e299d24c199c2.html#a7012f58a1862cf07b00e299d24c199c2" target="_top" xlink:title="release a slot in the transaction log">
<polygon fill="white" stroke="black" points="618,-114.5 618,-133.5 744,-133.5 744,-114.5 618,-114.5"/>
<text text-anchor="middle" x="681" y="-121.5" font-family="Helvetica,sans-Serif" font-size="10.00">trans_log_release_slot</text>
</a>
</g>
</g>
<!-- Node22&#45;&gt;Node31 -->
<g id="edge37" class="edge">
<title>Node22&#45;&gt;Node31</title>
<path fill="none" stroke="midnightblue" d="M554.52,-171.35C571.05,-163.18 595.75,-151.49 618,-143 623.87,-140.76 630.12,-138.6 636.31,-136.58"/>
<polygon fill="midnightblue" stroke="midnightblue" points="637.45,-139.89 645.93,-133.54 635.34,-133.22 637.45,-139.89"/>
</g>
<!-- Node25 -->
<g id="node25" class="node">
<title>Node25</title>
<g id="a_node25"><a xlink:href="rmap_8c_abb4e19c17c7223212c3904bc4c0189d2.html#abb4e19c17c7223212c3904bc4c0189d2" target="_top" xlink:title=" ">
<polygon fill="white" stroke="black" points="795.5,-76.5 795.5,-95.5 906.5,-95.5 906.5,-76.5 795.5,-76.5"/>
<text text-anchor="middle" x="851" y="-83.5" font-family="Helvetica,sans-Serif" font-size="10.00">rmap_check_status</text>
</a>
</g>
</g>
<!-- Node24&#45;&gt;Node25 -->
<g id="edge28" class="edge">
<title>Node24&#45;&gt;Node25</title>
<path fill="none" stroke="midnightblue" d="M724.39,-57.59C746.76,-62.65 774.4,-68.9 798.05,-74.25"/>
<polygon fill="midnightblue" stroke="midnightblue" points="797.39,-77.69 807.91,-76.48 798.93,-70.86 797.39,-77.69"/>
</g>
<!-- Node26 -->
<g id="node26" class="node">
<title>Node26</title>
<g id="a_node26"><a xlink:href="rmap_8c_a20aa8b91dfb1bbad819759f97b853054.html#a20aa8b91dfb1bbad819759f97b853054" target="_top" xlink:title=" ">
<polygon fill="white" stroke="black" points="790,-38.5 790,-57.5 912,-57.5 912,-38.5 790,-38.5"/>
<text text-anchor="middle" x="851" y="-45.5" font-family="Helvetica,sans-Serif" font-size="10.00">rmap_parse_cmd_pkt</text>
</a>
</g>
</g>
<!-- Node24&#45;&gt;Node26 -->
<g id="edge29" class="edge">
<title>Node24&#45;&gt;Node26</title>
<path fill="none" stroke="midnightblue" d="M728.8,-48C744.62,-48 762.66,-48 779.89,-48"/>
<polygon fill="midnightblue" stroke="midnightblue" points="779.92,-51.5 789.92,-48 779.92,-44.5 779.92,-51.5"/>
</g>
<!-- Node27 -->
<g id="node27" class="node">
<title>Node27</title>
<g id="a_node27"><a xlink:href="rmap_8c_adef42426b46ee5ad5176ee76cff35c22.html#adef42426b46ee5ad5176ee76cff35c22" target="_top" xlink:title=" ">
<polygon fill="white" stroke="black" points="788.5,-0.5 788.5,-19.5 913.5,-19.5 913.5,-0.5 788.5,-0.5"/>
<text text-anchor="middle" x="851" y="-7.5" font-family="Helvetica,sans-Serif" font-size="10.00">rmap_parse_reply_pkt</text>
</a>
</g>
</g>
<!-- Node24&#45;&gt;Node27 -->
<g id="edge30" class="edge">
<title>Node24&#45;&gt;Node27</title>
<path fill="none" stroke="midnightblue" d="M724.39,-38.41C746.76,-33.35 774.4,-27.1 798.05,-21.75"/>
<polygon fill="midnightblue" stroke="midnightblue" points="798.93,-25.14 807.91,-19.52 797.39,-18.31 798.93,-25.14"/>
</g>
<!-- Node28 -->
<g id="node28" class="node">
<title>Node28</title>
<g id="a_node28"><a xlink:href="rmap_8c_a2ff278a5e094a9f585865d4d838e0e0e.html#a2ff278a5e094a9f585865d4d838e0e0e" target="_top" xlink:title=" ">
<polygon fill="white" stroke="black" points="958,-0.5 958,-19.5 1100,-19.5 1100,-0.5 958,-0.5"/>
<text text-anchor="middle" x="1029" y="-7.5" font-family="Helvetica,sans-Serif" font-size="10.00">rmap_process_read_reply</text>
</a>
</g>
</g>
<!-- Node27&#45;&gt;Node28 -->
<g id="edge31" class="edge">
<title>Node27&#45;&gt;Node28</title>
<path fill="none" stroke="midnightblue" d="M913.56,-10C924.6,-10 936.25,-10 947.73,-10"/>
<polygon fill="midnightblue" stroke="midnightblue" points="947.74,-13.5 957.74,-10 947.74,-6.5 947.74,-13.5"/>
</g>
<!-- Node29&#45;&gt;Node6 -->
<g id="edge35" class="edge">
<title>Node29&#45;&gt;Node6</title>
<path fill="none" stroke="midnightblue" d="M726.9,-399.53C733,-402 738.9,-405.1 744,-409 767.81,-427.19 761.78,-442.22 780,-466 796.39,-487.38 817.64,-509.84 832.41,-524.74"/>
<polygon fill="midnightblue" stroke="midnightblue" points="830.32,-527.61 839.87,-532.19 835.27,-522.65 830.32,-527.61"/>
</g>
<!-- Node29&#45;&gt;Node7 -->
<g id="edge34" class="edge">
<title>Node29&#45;&gt;Node7</title>
<path fill="none" stroke="midnightblue" d="M714.27,-399.58C723.87,-402.51 734.38,-405.81 744,-409 767.76,-416.89 794.27,-426.4 814.83,-433.93"/>
<polygon fill="midnightblue" stroke="midnightblue" points="813.82,-437.28 824.41,-437.45 816.23,-430.71 813.82,-437.28"/>
</g>
<!-- Node29&#45;&gt;Node14 -->
<g id="edge33" class="edge">
<title>Node29&#45;&gt;Node14</title>
<path fill="none" stroke="midnightblue" d="M717.51,-380.43C726.29,-377.7 735.58,-374.51 744,-371 773.06,-358.87 804.64,-341.27 825.7,-328.84"/>
<polygon fill="midnightblue" stroke="midnightblue" points="827.52,-331.83 834.32,-323.7 823.94,-325.82 827.52,-331.83"/>
</g>
</g>
</svg>
        <g id="navigator" transform="translate(0 0)" fill="#404254">
                <rect fill="#f2f5e9" fill-opacity="0.5" stroke="#606060" stroke-width=".5" x="0" y="0" width="60" height="60"/>
                <use id="zoomplus" xlink:href="#zoomPlus" x="17" y="9" onmousedown="handleZoom(evt,'in')"/>
                <use id="zoomminus" xlink:href="#zoomMin" x="42" y="9" onmousedown="handleZoom(evt,'out')"/>
                <use id="reset" xlink:href="#resetDef" x="30" y="36" onmousedown="handleReset()"/>
                <g id="arrowUp" xlink:href="#dirArrow" transform="translate(30 24)" onmousedown="handlePan(0,-1)">
                  <use xlink:href="#rim" fill="#404040">
                        <set attributeName="fill" to="#808080" begin="arrowUp.mouseover" end="arrowUp.mouseout"/>
                  </use>
                  <path fill="none" stroke="white" stroke-width="1.5" d="M0,-3.0v7 M-2.5,-0.5L0,-3.0L2.5,-0.5"/>
                </g>
                <g id="arrowRight" xlink:href="#dirArrow" transform="rotate(90) translate(36 -43)" onmousedown="handlePan(1,0)">
                  <use xlink:href="#rim" fill="#404040">
                        <set attributeName="fill" to="#808080" begin="arrowRight.mouseover" end="arrowRight.mouseout"/>
                  </use>
                  <path fill="none" stroke="white" stroke-width="1.5" d="M0,-3.0v7 M-2.5,-0.5L0,-3.0L2.5,-0.5"/>
                </g>
                <g id="arrowDown" xlink:href="#dirArrow" transform="rotate(180) translate(-30 -48)" onmousedown="handlePan(0,1)">
                  <use xlink:href="#rim" fill="#404040">
                        <set attributeName="fill" to="#808080" begin="arrowDown.mouseover" end="arrowDown.mouseout"/>
                  </use>
                  <path fill="none" stroke="white" stroke-width="1.5" d="M0,-3.0v7 M-2.5,-0.5L0,-3.0L2.5,-0.5"/>
                </g>
                <g id="arrowLeft" xlink:href="#dirArrow" transform="rotate(270) translate(-36 17)" onmousedown="handlePan(-1,0)">
                  <use xlink:href="#rim" fill="#404040">
                        <set attributeName="fill" to="#808080" begin="arrowLeft.mouseover" end="arrowLeft.mouseout"/>
                  </use>
                  <path fill="none" stroke="white" stroke-width="1.5" d="M0,-3.0v7 M-2.5,-0.5L0,-3.0L2.5,-0.5"/>
                </g>
        </g>
        <svg viewBox="0 0 15 15" width="100%" height="30px" preserveAspectRatio="xMaxYMin meet">
         <g id="arrow_out" transform="scale(0.3 0.3)">
          <a xlink:href="rdcu__ctrl_8c_a9fe5ad61776fab9bd7c922610039ea63_a9fe5ad61776fab9bd7c922610039ea63_cgraph_org.svg" target="_base">
           <rect id="button" ry="5" rx="5" y="6" x="6" height="38" width="38"
                fill="#f2f5e9" fill-opacity="0.5" stroke="#606060" stroke-width="1.0"/>
           <path id="arrow"
             d="M 11.500037,31.436501 C 11.940474,20.09759 22.043105,11.32322 32.158766,21.979434 L 37.068811,17.246167 C 37.068811,17.246167 37.088388,32 37.088388,32 L 22.160133,31.978069 C 22.160133,31.978069 26.997745,27.140456 26.997745,27.140456 C 18.528582,18.264221 13.291696,25.230495 11.500037,31.436501 z"
             style="fill:#404040;"/>
          </a>
         </g>
        </svg>
</svg>
