<?xml version="1.0" encoding="UTF-8" standalone="no"?>
<!DOCTYPE svg PUBLIC "-//W3C//DTD SVG 1.1//EN"
 "http://www.w3.org/Graphics/SVG/1.1/DTD/svg11.dtd">
<!-- Generated by graphviz version 2.43.0 (0)
 -->
<!-- Title: rdcu_read_cmd_compr_data_start_addr Pages: 1 -->
<svg width="761pt" height="446pt"
 viewBox="0.00 0.00 761.00 446.00" xmlns="http://www.w3.org/2000/svg" xmlns:xlink="http://www.w3.org/1999/xlink">
<g id="graph0" class="graph" transform="scale(1 1) rotate(0) translate(4 442)">
<title>rdcu_read_cmd_compr_data_start_addr</title>
<polygon fill="white" stroke="transparent" points="-4,4 -4,-442 757,-442 757,4 -4,4"/>
<!-- Node1 -->
<g id="node1" class="node">
<title>Node1</title>
<g id="a_node1"><a xlink:title="create a command to read the RDCU compressed data start address register">
<polygon fill="#bfbfbf" stroke="black" points="0,-204 0,-234 127,-234 127,-204 0,-204"/>
<text text-anchor="start" x="8" y="-222" font-family="Helvetica,sans-Serif" font-size="10.00">rdcu_read_cmd_compr</text>
<text text-anchor="middle" x="63.5" y="-211" font-family="Helvetica,sans-Serif" font-size="10.00">_data_start_addr</text>
</a>
</g>
</g>
<!-- Node2 -->
<g id="node2" class="node">
<title>Node2</title>
<g id="a_node2"><a xlink:href="rdcu__cmd_8c_a3274188041d4484130e893afc5f1630f.html#a3274188041d4484130e893afc5f1630f" target="_top" xlink:title="generate a read command for an arbitrary register (internal)">
<polygon fill="white" stroke="black" points="163,-204 163,-234 297,-234 297,-204 163,-204"/>
<text text-anchor="start" x="171" y="-222" font-family="Helvetica,sans-Serif" font-size="10.00">rdcu_read_cmd_register</text>
<text text-anchor="middle" x="230" y="-211" font-family="Helvetica,sans-Serif" font-size="10.00">_internal</text>
</a>
</g>
</g>
<!-- Node1&#45;&gt;Node2 -->
<g id="edge1" class="edge">
<title>Node1&#45;&gt;Node2</title>
<path fill="none" stroke="midnightblue" d="M127.16,-219C135.58,-219 144.29,-219 152.91,-219"/>
<polygon fill="midnightblue" stroke="midnightblue" points="152.96,-222.5 162.96,-219 152.96,-215.5 152.96,-222.5"/>
</g>
<!-- Node3 -->
<g id="node3" class="node">
<title>Node3</title>
<g id="a_node3"><a xlink:href="rdcu__rmap_8c_ab224927e85a7cec5b6f90292c7de36c4.html#ab224927e85a7cec5b6f90292c7de36c4" target="_top" xlink:title="generate an rmap command packet">
<polygon fill="white" stroke="black" points="333,-209.5 333,-228.5 420,-228.5 420,-209.5 333,-209.5"/>
<text text-anchor="middle" x="376.5" y="-216.5" font-family="Helvetica,sans-Serif" font-size="10.00">rdcu_gen_cmd</text>
</a>
</g>
</g>
<!-- Node2&#45;&gt;Node3 -->
<g id="edge2" class="edge">
<title>Node2&#45;&gt;Node3</title>
<path fill="none" stroke="midnightblue" d="M297.33,-219C305.78,-219 314.34,-219 322.54,-219"/>
<polygon fill="midnightblue" stroke="midnightblue" points="322.7,-222.5 332.7,-219 322.7,-215.5 322.7,-222.5"/>
</g>
<!-- Node4 -->
<g id="node4" class="node">
<title>Node4</title>
<g id="a_node4"><a xlink:href="rmap_8c_aa17375d153cc3473cbbe4dfe1056c527.html#aa17375d153cc3473cbbe4dfe1056c527" target="_top" xlink:title="build an rmap header">
<polygon fill="white" stroke="black" points="469.5,-418.5 469.5,-437.5 561.5,-437.5 561.5,-418.5 469.5,-418.5"/>
<text text-anchor="middle" x="515.5" y="-425.5" font-family="Helvetica,sans-Serif" font-size="10.00">rmap_build_hdr</text>
</a>
</g>
</g>
<!-- Node3&#45;&gt;Node4 -->
<g id="edge3" class="edge">
<title>Node3&#45;&gt;Node4</title>
<path fill="none" stroke="midnightblue" d="M378.68,-228.91C382.91,-260.12 400.2,-357.38 456,-409 457.72,-410.59 459.57,-412.05 461.53,-413.38"/>
<polygon fill="midnightblue" stroke="midnightblue" points="460.18,-416.64 470.62,-418.49 463.62,-410.54 460.18,-416.64"/>
</g>
<!-- Node6 -->
<g id="node6" class="node">
<title>Node6</title>
<g id="a_node6"><a xlink:href="rmap_8c_aba944cf978de0b264ea5bb3a784bce0f.html#aba944cf978de0b264ea5bb3a784bce0f" target="_top" xlink:title="create an RMAP packet and set defaults">
<polygon fill="white" stroke="black" points="457.5,-380.5 457.5,-399.5 573.5,-399.5 573.5,-380.5 457.5,-380.5"/>
<text text-anchor="middle" x="515.5" y="-387.5" font-family="Helvetica,sans-Serif" font-size="10.00">rmap_create_packet</text>
</a>
</g>
</g>
<!-- Node3&#45;&gt;Node6 -->
<g id="edge5" class="edge">
<title>Node3&#45;&gt;Node6</title>
<path fill="none" stroke="midnightblue" d="M379.78,-228.81C386.52,-255.66 408.91,-331.01 456,-371 457.99,-372.69 460.14,-374.24 462.4,-375.64"/>
<polygon fill="midnightblue" stroke="midnightblue" points="461.04,-378.88 471.52,-380.42 464.28,-372.68 461.04,-378.88"/>
</g>
<!-- Node7 -->
<g id="node7" class="node">
<title>Node7</title>
<g id="a_node7"><a xlink:href="rmap_8c_a1def9af549819e7fdbda12af8bdc9c0e.html#a1def9af549819e7fdbda12af8bdc9c0e" target="_top" xlink:title="completely destroys an RMAP packet">
<polygon fill="white" stroke="black" points="459.5,-342.5 459.5,-361.5 571.5,-361.5 571.5,-342.5 459.5,-342.5"/>
<text text-anchor="middle" x="515.5" y="-349.5" font-family="Helvetica,sans-Serif" font-size="10.00">rmap_erase_packet</text>
</a>
</g>
</g>
<!-- Node3&#45;&gt;Node7 -->
<g id="edge6" class="edge">
<title>Node3&#45;&gt;Node7</title>
<path fill="none" stroke="midnightblue" d="M381.45,-228.53C390.97,-250.31 417.28,-304.12 456,-333 458.49,-334.86 461.16,-336.53 463.96,-338.05"/>
<polygon fill="midnightblue" stroke="midnightblue" points="462.63,-341.3 473.17,-342.38 465.6,-334.96 462.63,-341.3"/>
</g>
<!-- Node8 -->
<g id="node8" class="node">
<title>Node8</title>
<g id="a_node8"><a xlink:href="rmap_8c_aab7e23f061291d39568ad2df700bc777.html#aab7e23f061291d39568ad2df700bc777" target="_top" xlink:title="set an RMAP command">
<polygon fill="white" stroke="black" points="471,-304.5 471,-323.5 560,-323.5 560,-304.5 471,-304.5"/>
<text text-anchor="middle" x="515.5" y="-311.5" font-family="Helvetica,sans-Serif" font-size="10.00">rmap_set_cmd</text>
</a>
</g>
</g>
<!-- Node3&#45;&gt;Node8 -->
<g id="edge7" class="edge">
<title>Node3&#45;&gt;Node8</title>
<path fill="none" stroke="midnightblue" d="M384.91,-228.6C397.73,-244.59 425.6,-276.71 456,-295 459.45,-297.08 463.16,-298.96 466.97,-300.65"/>
<polygon fill="midnightblue" stroke="midnightblue" points="465.98,-304.02 476.57,-304.48 468.57,-297.52 465.98,-304.02"/>
</g>
<!-- Node10 -->
<g id="node10" class="node">
<title>Node10</title>
<g id="a_node10"><a xlink:href="rmap_8c_acf641aae92829ae864b6c3d8f94d86e2.html#acf641aae92829ae864b6c3d8f94d86e2" target="_top" xlink:title="set a data address">
<polygon fill="white" stroke="black" points="457.5,-266.5 457.5,-285.5 573.5,-285.5 573.5,-266.5 457.5,-266.5"/>
<text text-anchor="middle" x="515.5" y="-273.5" font-family="Helvetica,sans-Serif" font-size="10.00">rmap_set_data_addr</text>
</a>
</g>
</g>
<!-- Node3&#45;&gt;Node10 -->
<g id="edge9" class="edge">
<title>Node3&#45;&gt;Node10</title>
<path fill="none" stroke="midnightblue" d="M395.58,-228.63C411.29,-236.78 434.79,-248.47 456,-257 461.39,-259.17 467.14,-261.28 472.85,-263.25"/>
<polygon fill="midnightblue" stroke="midnightblue" points="471.74,-266.57 482.34,-266.43 473.97,-259.93 471.74,-266.57"/>
</g>
<!-- Node11 -->
<g id="node11" class="node">
<title>Node11</title>
<g id="a_node11"><a xlink:href="rmap_8c_a6833f065640f652aa1a929309e592f7a.html#a6833f065640f652aa1a929309e592f7a" target="_top" xlink:title="set an RMAP command">
<polygon fill="white" stroke="black" points="460.5,-228.5 460.5,-247.5 570.5,-247.5 570.5,-228.5 460.5,-228.5"/>
<text text-anchor="middle" x="515.5" y="-235.5" font-family="Helvetica,sans-Serif" font-size="10.00">rmap_set_data_len</text>
</a>
</g>
</g>
<!-- Node3&#45;&gt;Node11 -->
<g id="edge10" class="edge">
<title>Node3&#45;&gt;Node11</title>
<path fill="none" stroke="midnightblue" d="M420.1,-224.91C429.64,-226.23 439.97,-227.66 450.18,-229.08"/>
<polygon fill="midnightblue" stroke="midnightblue" points="449.92,-232.58 460.31,-230.48 450.88,-225.64 449.92,-232.58"/>
</g>
<!-- Node12 -->
<g id="node12" class="node">
<title>Node12</title>
<g id="a_node12"><a xlink:href="rmap_8c_a5f0081b9928da5e50fc8b231b57f3a80.html#a5f0081b9928da5e50fc8b231b57f3a80" target="_top" xlink:title="set the destination address path">
<polygon fill="white" stroke="black" points="457.5,-190.5 457.5,-209.5 573.5,-209.5 573.5,-190.5 457.5,-190.5"/>
<text text-anchor="middle" x="515.5" y="-197.5" font-family="Helvetica,sans-Serif" font-size="10.00">rmap_set_dest_path</text>
</a>
</g>
</g>
<!-- Node3&#45;&gt;Node12 -->
<g id="edge11" class="edge">
<title>Node3&#45;&gt;Node12</title>
<path fill="none" stroke="midnightblue" d="M420.1,-213.09C428.75,-211.89 438.05,-210.6 447.32,-209.32"/>
<polygon fill="midnightblue" stroke="midnightblue" points="447.9,-212.77 457.33,-207.93 446.94,-205.84 447.9,-212.77"/>
</g>
<!-- Node14 -->
<g id="node14" class="node">
<title>Node14</title>
<g id="a_node14"><a xlink:href="rmap_8c_a2da8e7b48411d382b54848795f85795d.html#a2da8e7b48411d382b54848795f85795d" target="_top" xlink:title="set the destination (target) logical address">
<polygon fill="white" stroke="black" points="474,-152.5 474,-171.5 557,-171.5 557,-152.5 474,-152.5"/>
<text text-anchor="middle" x="515.5" y="-159.5" font-family="Helvetica,sans-Serif" font-size="10.00">rmap_set_dst</text>
</a>
</g>
</g>
<!-- Node3&#45;&gt;Node14 -->
<g id="edge13" class="edge">
<title>Node3&#45;&gt;Node14</title>
<path fill="none" stroke="midnightblue" d="M395.58,-209.37C411.29,-201.22 434.79,-189.53 456,-181 461.39,-178.83 467.14,-176.72 472.85,-174.75"/>
<polygon fill="midnightblue" stroke="midnightblue" points="473.97,-178.07 482.34,-171.57 471.74,-171.43 473.97,-178.07"/>
</g>
<!-- Node15 -->
<g id="node15" class="node">
<title>Node15</title>
<g id="a_node15"><a xlink:href="rmap_8c_a15021c9dfccddc44786dfd37834bcd7e.html#a15021c9dfccddc44786dfd37834bcd7e" target="_top" xlink:title="set the command authorisation key">
<polygon fill="white" stroke="black" points="473,-114.5 473,-133.5 558,-133.5 558,-114.5 473,-114.5"/>
<text text-anchor="middle" x="515.5" y="-121.5" font-family="Helvetica,sans-Serif" font-size="10.00">rmap_set_key</text>
</a>
</g>
</g>
<!-- Node3&#45;&gt;Node15 -->
<g id="edge14" class="edge">
<title>Node3&#45;&gt;Node15</title>
<path fill="none" stroke="midnightblue" d="M384.91,-209.4C397.73,-193.41 425.6,-161.29 456,-143 459.45,-140.92 463.16,-139.04 466.97,-137.35"/>
<polygon fill="midnightblue" stroke="midnightblue" points="468.57,-140.48 476.57,-133.52 465.98,-133.98 468.57,-140.48"/>
</g>
<!-- Node16 -->
<g id="node16" class="node">
<title>Node16</title>
<g id="a_node16"><a xlink:href="rmap_8c_a56c47830e67d01e469231e5e7e1d3a34.html#a56c47830e67d01e469231e5e7e1d3a34" target="_top" xlink:title="set the reply address path">
<polygon fill="white" stroke="black" points="456,-76.5 456,-95.5 575,-95.5 575,-76.5 456,-76.5"/>
<text text-anchor="middle" x="515.5" y="-83.5" font-family="Helvetica,sans-Serif" font-size="10.00">rmap_set_reply_path</text>
</a>
</g>
</g>
<!-- Node3&#45;&gt;Node16 -->
<g id="edge15" class="edge">
<title>Node3&#45;&gt;Node16</title>
<path fill="none" stroke="midnightblue" d="M381.45,-209.47C390.97,-187.69 417.28,-133.88 456,-105 458.49,-103.14 461.16,-101.47 463.96,-99.95"/>
<polygon fill="midnightblue" stroke="midnightblue" points="465.6,-103.04 473.17,-95.62 462.63,-96.7 465.6,-103.04"/>
</g>
<!-- Node17 -->
<g id="node17" class="node">
<title>Node17</title>
<g id="a_node17"><a xlink:href="rmap_8c_adae0030440ca4e7ad34622e505acbb2c.html#adae0030440ca4e7ad34622e505acbb2c" target="_top" xlink:title="set the source (initiator) logical address">
<polygon fill="white" stroke="black" points="474.5,-38.5 474.5,-57.5 556.5,-57.5 556.5,-38.5 474.5,-38.5"/>
<text text-anchor="middle" x="515.5" y="-45.5" font-family="Helvetica,sans-Serif" font-size="10.00">rmap_set_src</text>
</a>
</g>
</g>
<!-- Node3&#45;&gt;Node17 -->
<g id="edge17" class="edge">
<title>Node3&#45;&gt;Node17</title>
<path fill="none" stroke="midnightblue" d="M379.78,-209.19C386.52,-182.34 408.91,-106.99 456,-67 458.73,-64.68 461.74,-62.65 464.93,-60.86"/>
<polygon fill="midnightblue" stroke="midnightblue" points="466.7,-63.89 474.23,-56.44 463.7,-57.57 466.7,-63.89"/>
</g>
<!-- Node18 -->
<g id="node18" class="node">
<title>Node18</title>
<g id="a_node18"><a xlink:href="rmap_8c_a7b4c31714493ce6cc19d4aa825ab50aa.html#a7b4c31714493ce6cc19d4aa825ab50aa" target="_top" xlink:title="set an RMAP transaction identifier">
<polygon fill="white" stroke="black" points="471,-0.5 471,-19.5 560,-19.5 560,-0.5 471,-0.5"/>
<text text-anchor="middle" x="515.5" y="-7.5" font-family="Helvetica,sans-Serif" font-size="10.00">rmap_set_tr_id</text>
</a>
</g>
</g>
<!-- Node3&#45;&gt;Node18 -->
<g id="edge18" class="edge">
<title>Node3&#45;&gt;Node18</title>
<path fill="none" stroke="midnightblue" d="M378.68,-209.09C382.91,-177.88 400.2,-80.62 456,-29 457.89,-27.26 459.93,-25.67 462.1,-24.23"/>
<polygon fill="midnightblue" stroke="midnightblue" points="463.85,-27.26 470.91,-19.37 460.47,-21.13 463.85,-27.26"/>
</g>
<!-- Node5 -->
<g id="node5" class="node">
<title>Node5</title>
<g id="a_node5"><a xlink:href="rmap_8c_a0ec3c28e83818f02e00d4c79d82d938a.html#a0ec3c28e83818f02e00d4c79d82d938a" target="_top" xlink:title="get the minimum header size given the RMAP instruction">
<polygon fill="white" stroke="black" points="615.5,-418.5 615.5,-437.5 748.5,-437.5 748.5,-418.5 615.5,-418.5"/>
<text text-anchor="middle" x="682" y="-425.5" font-family="Helvetica,sans-Serif" font-size="10.00">rmap_get_min_hdr_size</text>
</a>
</g>
</g>
<!-- Node4&#45;&gt;Node5 -->
<g id="edge4" class="edge">
<title>Node4&#45;&gt;Node5</title>
<path fill="none" stroke="midnightblue" d="M561.89,-428C575.33,-428 590.43,-428 605.25,-428"/>
<polygon fill="midnightblue" stroke="midnightblue" points="605.44,-431.5 615.44,-428 605.44,-424.5 605.44,-431.5"/>
</g>
<!-- Node9 -->
<g id="node9" class="node">
<title>Node9</title>
<g id="a_node9"><a xlink:href="rmap_8c_a667ce871110961f2a611d0244791e20f.html#a667ce871110961f2a611d0244791e20f" target="_top" xlink:title="valiidates a command code">
<polygon fill="white" stroke="black" points="611,-304.5 611,-323.5 753,-323.5 753,-304.5 611,-304.5"/>
<text text-anchor="middle" x="682" y="-311.5" font-family="Helvetica,sans-Serif" font-size="10.00">rmap_validate_cmd_code</text>
</a>
</g>
</g>
<!-- Node8&#45;&gt;Node9 -->
<g id="edge8" class="edge">
<title>Node8&#45;&gt;Node9</title>
<path fill="none" stroke="midnightblue" d="M560.15,-314C572.64,-314 586.65,-314 600.6,-314"/>
<polygon fill="midnightblue" stroke="midnightblue" points="600.72,-317.5 610.72,-314 600.72,-310.5 600.72,-317.5"/>
</g>
<!-- Node13 -->
<g id="node13" class="node">
<title>Node13</title>
<g id="a_node13"><a xlink:href="test__cmp__max__used__bits__list_8c_a7ac38fce3243a7dcf448301ee9ffd392.html#a7ac38fce3243a7dcf448301ee9ffd392" target="_top" xlink:title=" ">
<polygon fill="white" stroke="black" points="657,-133.5 657,-152.5 707,-152.5 707,-133.5 657,-133.5"/>
<text text-anchor="middle" x="682" y="-140.5" font-family="Helvetica,sans-Serif" font-size="10.00">malloc</text>
</a>
</g>
</g>
<!-- Node12&#45;&gt;Node13 -->
<g id="edge12" class="edge">
<title>Node12&#45;&gt;Node13</title>
<path fill="none" stroke="midnightblue" d="M546.62,-190.41C555.75,-187.45 565.8,-184.14 575,-181 599.17,-172.75 626.27,-163.02 647.02,-155.48"/>
<polygon fill="midnightblue" stroke="midnightblue" points="648.46,-158.68 656.65,-151.96 646.06,-152.1 648.46,-158.68"/>
</g>
<!-- Node16&#45;&gt;Node13 -->
<g id="edge16" class="edge">
<title>Node16&#45;&gt;Node13</title>
<path fill="none" stroke="midnightblue" d="M546.62,-95.59C555.75,-98.55 565.8,-101.86 575,-105 599.17,-113.25 626.27,-122.98 647.02,-130.52"/>
<polygon fill="midnightblue" stroke="midnightblue" points="646.06,-133.9 656.65,-134.04 648.46,-127.32 646.06,-133.9"/>
</g>
</g>
</svg>
