<?xml version="1.0" encoding="UTF-8" standalone="no"?>
<!DOCTYPE svg PUBLIC "-//W3C//DTD SVG 1.1//EN"
 "http://www.w3.org/Graphics/SVG/1.1/DTD/svg11.dtd">
<!-- Generated by graphviz version 2.43.0 (0)
 -->
<!-- Title: rdcu_sync_samples_used Pages: 1 -->
<!--zoomable 750 -->
<svg id="main" version="1.1" xmlns="http://www.w3.org/2000/svg" xmlns:xlink="http://www.w3.org/1999/xlink" xml:space="preserve" onload="init(evt)">
<style type="text/css"><![CDATA[
.edge:hover path { stroke: red; }
.edge:hover polygon { stroke: red; fill: red; }
]]></style>
<script type="text/javascript"><![CDATA[
var edges = document.getElementsByTagName('g');
if (edges && edges.length) {
  for (var i=0;i<edges.length;i++) {
    if (edges[i].id.substr(0,4)=='edge') {
      edges[i].setAttribute('class','edge');
    }
  }
}
]]></script>
        <defs>
                <circle id="rim" cx="0" cy="0" r="7"/>
                <circle id="rim2" cx="0" cy="0" r="3.5"/>
                <g id="zoomPlus">
                        <use xlink:href="#rim" fill="#404040">
                                <set attributeName="fill" to="#808080" begin="zoomplus.mouseover" end="zoomplus.mouseout"/>
                        </use>
                        <path d="M-4,0h8M0,-4v8" fill="none" stroke="white" stroke-width="1.5" pointer-events="none"/>
                </g>
                <g id="zoomMin">
                        <use xlink:href="#rim" fill="#404040">
                                <set attributeName="fill" to="#808080" begin="zoomminus.mouseover" end="zoomminus.mouseout"/>
                        </use>
                        <path d="M-4,0h8" fill="none" stroke="white" stroke-width="1.5" pointer-events="none"/>
                </g>
                <g id="dirArrow">
                        <path fill="none" stroke="white" stroke-width="1.5" d="M0,-3.0v7 M-2.5,-0.5L0,-3.0L2.5,-0.5"/>
                </g>
               <g id="resetDef">
                       <use xlink:href="#rim2" fill="#404040">
                               <set attributeName="fill" to="#808080" begin="reset.mouseover" end="reset.mouseout"/>
                       </use>
               </g>
        </defs>

<script type="text/javascript">
var viewWidth = 1169;
var viewHeight = 750;
var sectionId = 'dynsection-0';
</script>
<script xlink:href="svgpan.js"/>
<svg id="graph" class="graph">
<g id="viewport">
<title>rdcu_sync_samples_used</title>
<polygon fill="white" stroke="transparent" points="-4,4 -4,-746 1165,-746 1165,4 -4,4"/>
<!-- Node1 -->
<g id="node1" class="node">
<title>Node1</title>
<g id="a_node1"><a xlink:title="sync the Model Info Length (read only)">
<polygon fill="#bfbfbf" stroke="black" points="0,-266.5 0,-285.5 140,-285.5 140,-266.5 0,-266.5"/>
<text text-anchor="middle" x="70" y="-273.5" font-family="Helvetica,sans-Serif" font-size="10.00">rdcu_sync_samples_used</text>
</a>
</g>
</g>
<!-- Node2 -->
<g id="node2" class="node">
<title>Node2</title>
<g id="a_node2"><a xlink:href="rdcu__cmd_8c_a9a23215025204062c5bfc18ea2947369.html#a9a23215025204062c5bfc18ea2947369" target="_top" xlink:title="create a command to read the RDCU used number of samples register">
<polygon fill="white" stroke="black" points="176,-389.5 176,-408.5 342,-408.5 342,-389.5 176,-389.5"/>
<text text-anchor="middle" x="259" y="-396.5" font-family="Helvetica,sans-Serif" font-size="10.00">rdcu_read_cmd_samples_used</text>
</a>
</g>
</g>
<!-- Node1&#45;&gt;Node2 -->
<g id="edge1" class="edge">
<title>Node1&#45;&gt;Node2</title>
<path fill="none" stroke="midnightblue" d="M85.67,-285.65C118.04,-306.94 195.75,-358.06 234.79,-383.74"/>
<polygon fill="midnightblue" stroke="midnightblue" points="233.12,-386.82 243.39,-389.39 236.96,-380.97 233.12,-386.82"/>
</g>
<!-- Node20 -->
<g id="node20" class="node">
<title>Node20</title>
<g id="a_node20"><a xlink:href="rdcu__rmap_8c_a533d1eb248d83ba3d406cefe7f3c9eb9.html#a533d1eb248d83ba3d406cefe7f3c9eb9" target="_top" xlink:title="submit a sync command">
<polygon fill="white" stroke="black" points="226.5,-247.5 226.5,-266.5 291.5,-266.5 291.5,-247.5 226.5,-247.5"/>
<text text-anchor="middle" x="259" y="-254.5" font-family="Helvetica,sans-Serif" font-size="10.00">rdcu_sync</text>
</a>
</g>
</g>
<!-- Node1&#45;&gt;Node20 -->
<g id="edge20" class="edge">
<title>Node1&#45;&gt;Node20</title>
<path fill="none" stroke="midnightblue" d="M140.1,-268.98C165.61,-266.39 193.72,-263.53 216.1,-261.26"/>
<polygon fill="midnightblue" stroke="midnightblue" points="216.67,-264.72 226.26,-260.22 215.96,-257.75 216.67,-264.72"/>
</g>
<!-- Node3 -->
<g id="node3" class="node">
<title>Node3</title>
<g id="a_node3"><a xlink:href="rdcu__cmd_8c_a3274188041d4484130e893afc5f1630f.html#a3274188041d4484130e893afc5f1630f" target="_top" xlink:title="generate a read command for an arbitrary register (internal)">
<polygon fill="white" stroke="black" points="378,-437 378,-467 512,-467 512,-437 378,-437"/>
<text text-anchor="start" x="386" y="-455" font-family="Helvetica,sans-Serif" font-size="10.00">rdcu_read_cmd_register</text>
<text text-anchor="middle" x="445" y="-444" font-family="Helvetica,sans-Serif" font-size="10.00">_internal</text>
</a>
</g>
</g>
<!-- Node2&#45;&gt;Node3 -->
<g id="edge2" class="edge">
<title>Node2&#45;&gt;Node3</title>
<path fill="none" stroke="midnightblue" d="M293.32,-408.6C317.98,-415.7 352.29,-425.58 381.94,-434.12"/>
<polygon fill="midnightblue" stroke="midnightblue" points="381.21,-437.56 391.79,-436.96 383.15,-430.83 381.21,-437.56"/>
</g>
<!-- Node4 -->
<g id="node4" class="node">
<title>Node4</title>
<g id="a_node4"><a xlink:href="rdcu__rmap_8c_ab224927e85a7cec5b6f90292c7de36c4.html#ab224927e85a7cec5b6f90292c7de36c4" target="_top" xlink:title="generate an rmap command packet">
<polygon fill="white" stroke="black" points="552,-494.5 552,-513.5 639,-513.5 639,-494.5 552,-494.5"/>
<text text-anchor="middle" x="595.5" y="-501.5" font-family="Helvetica,sans-Serif" font-size="10.00">rdcu_gen_cmd</text>
</a>
</g>
</g>
<!-- Node3&#45;&gt;Node4 -->
<g id="edge3" class="edge">
<title>Node3&#45;&gt;Node4</title>
<path fill="none" stroke="midnightblue" d="M488.95,-467.04C510.69,-474.65 536.82,-483.8 557.63,-491.09"/>
<polygon fill="midnightblue" stroke="midnightblue" points="556.49,-494.4 567.09,-494.4 558.81,-487.79 556.49,-494.4"/>
</g>
<!-- Node5 -->
<g id="node5" class="node">
<title>Node5</title>
<g id="a_node5"><a xlink:href="rmap_8c_aa17375d153cc3473cbbe4dfe1056c527.html#aa17375d153cc3473cbbe4dfe1056c527" target="_top" xlink:title="build an rmap header">
<polygon fill="white" stroke="black" points="696,-646.5 696,-665.5 788,-665.5 788,-646.5 696,-646.5"/>
<text text-anchor="middle" x="742" y="-653.5" font-family="Helvetica,sans-Serif" font-size="10.00">rmap_build_hdr</text>
</a>
</g>
</g>
<!-- Node4&#45;&gt;Node5 -->
<g id="edge4" class="edge">
<title>Node4&#45;&gt;Node5</title>
<path fill="none" stroke="midnightblue" d="M599.76,-513.68C608.52,-538.17 634.88,-603 679,-637 681.34,-638.8 683.85,-640.44 686.48,-641.92"/>
<polygon fill="midnightblue" stroke="midnightblue" points="685.22,-645.19 695.75,-646.38 688.25,-638.89 685.22,-645.19"/>
</g>
<!-- Node7 -->
<g id="node7" class="node">
<title>Node7</title>
<g id="a_node7"><a xlink:href="rmap_8c_aba944cf978de0b264ea5bb3a784bce0f.html#aba944cf978de0b264ea5bb3a784bce0f" target="_top" xlink:title="create an RMAP packet and set defaults">
<polygon fill="white" stroke="black" points="854,-437.5 854,-456.5 970,-456.5 970,-437.5 854,-437.5"/>
<text text-anchor="middle" x="912" y="-444.5" font-family="Helvetica,sans-Serif" font-size="10.00">rmap_create_packet</text>
</a>
</g>
</g>
<!-- Node4&#45;&gt;Node7 -->
<g id="edge6" class="edge">
<title>Node4&#45;&gt;Node7</title>
<path fill="none" stroke="midnightblue" d="M624.93,-513.53C665.8,-525.69 743.06,-542.91 805,-523 841.03,-511.42 875.19,-482.57 894.57,-463.93"/>
<polygon fill="midnightblue" stroke="midnightblue" points="897.28,-466.17 901.93,-456.65 892.36,-461.19 897.28,-466.17"/>
</g>
<!-- Node8 -->
<g id="node8" class="node">
<title>Node8</title>
<g id="a_node8"><a xlink:href="rmap_8c_a1def9af549819e7fdbda12af8bdc9c0e.html#a1def9af549819e7fdbda12af8bdc9c0e" target="_top" xlink:title="completely destroys an RMAP packet">
<polygon fill="white" stroke="black" points="686,-228.5 686,-247.5 798,-247.5 798,-228.5 686,-228.5"/>
<text text-anchor="middle" x="742" y="-235.5" font-family="Helvetica,sans-Serif" font-size="10.00">rmap_erase_packet</text>
</a>
</g>
</g>
<!-- Node4&#45;&gt;Node8 -->
<g id="edge7" class="edge">
<title>Node4&#45;&gt;Node8</title>
<path fill="none" stroke="midnightblue" d="M598.72,-494.09C606.09,-462.7 631.97,-363.5 679,-295 690,-278.98 706.29,-264.23 719.41,-253.75"/>
<polygon fill="midnightblue" stroke="midnightblue" points="721.71,-256.4 727.48,-247.51 717.43,-250.86 721.71,-256.4"/>
</g>
<!-- Node9 -->
<g id="node9" class="node">
<title>Node9</title>
<g id="a_node9"><a xlink:href="rmap_8c_aab7e23f061291d39568ad2df700bc777.html#aab7e23f061291d39568ad2df700bc777" target="_top" xlink:title="set an RMAP command">
<polygon fill="white" stroke="black" points="697.5,-684.5 697.5,-703.5 786.5,-703.5 786.5,-684.5 697.5,-684.5"/>
<text text-anchor="middle" x="742" y="-691.5" font-family="Helvetica,sans-Serif" font-size="10.00">rmap_set_cmd</text>
</a>
</g>
</g>
<!-- Node4&#45;&gt;Node9 -->
<g id="edge8" class="edge">
<title>Node4&#45;&gt;Node9</title>
<path fill="none" stroke="midnightblue" d="M598.36,-513.79C604.4,-542.91 626.23,-629.7 679,-675 681.81,-677.42 684.93,-679.52 688.22,-681.36"/>
<polygon fill="midnightblue" stroke="midnightblue" points="686.74,-684.53 697.27,-685.64 689.72,-678.2 686.74,-684.53"/>
</g>
<!-- Node11 -->
<g id="node11" class="node">
<title>Node11</title>
<g id="a_node11"><a xlink:href="rmap_8c_acf641aae92829ae864b6c3d8f94d86e2.html#acf641aae92829ae864b6c3d8f94d86e2" target="_top" xlink:title="set a data address">
<polygon fill="white" stroke="black" points="684,-608.5 684,-627.5 800,-627.5 800,-608.5 684,-608.5"/>
<text text-anchor="middle" x="742" y="-615.5" font-family="Helvetica,sans-Serif" font-size="10.00">rmap_set_data_addr</text>
</a>
</g>
</g>
<!-- Node4&#45;&gt;Node11 -->
<g id="edge10" class="edge">
<title>Node4&#45;&gt;Node11</title>
<path fill="none" stroke="midnightblue" d="M602.24,-513.66C614.11,-532.81 643.29,-575.78 679,-599 682.16,-601.05 685.55,-602.9 689.06,-604.55"/>
<polygon fill="midnightblue" stroke="midnightblue" points="687.98,-607.88 698.56,-608.48 690.66,-601.42 687.98,-607.88"/>
</g>
<!-- Node12 -->
<g id="node12" class="node">
<title>Node12</title>
<g id="a_node12"><a xlink:href="rmap_8c_a6833f065640f652aa1a929309e592f7a.html#a6833f065640f652aa1a929309e592f7a" target="_top" xlink:title="set an RMAP command">
<polygon fill="white" stroke="black" points="687,-570.5 687,-589.5 797,-589.5 797,-570.5 687,-570.5"/>
<text text-anchor="middle" x="742" y="-577.5" font-family="Helvetica,sans-Serif" font-size="10.00">rmap_set_data_len</text>
</a>
</g>
</g>
<!-- Node4&#45;&gt;Node12 -->
<g id="edge11" class="edge">
<title>Node4&#45;&gt;Node12</title>
<path fill="none" stroke="midnightblue" d="M610.04,-513.68C626,-524.82 653.59,-543.22 679,-556 686.78,-559.91 695.36,-563.6 703.6,-566.87"/>
<polygon fill="midnightblue" stroke="midnightblue" points="702.45,-570.17 713.04,-570.48 704.95,-563.64 702.45,-570.17"/>
</g>
<!-- Node13 -->
<g id="node13" class="node">
<title>Node13</title>
<g id="a_node13"><a xlink:href="rmap_8c_a5f0081b9928da5e50fc8b231b57f3a80.html#a5f0081b9928da5e50fc8b231b57f3a80" target="_top" xlink:title="set the destination address path">
<polygon fill="white" stroke="black" points="684,-342.5 684,-361.5 800,-361.5 800,-342.5 684,-342.5"/>
<text text-anchor="middle" x="742" y="-349.5" font-family="Helvetica,sans-Serif" font-size="10.00">rmap_set_dest_path</text>
</a>
</g>
</g>
<!-- Node4&#45;&gt;Node13 -->
<g id="edge12" class="edge">
<title>Node4&#45;&gt;Node13</title>
<path fill="none" stroke="midnightblue" d="M599.76,-494.32C608.52,-469.83 634.88,-405 679,-371 681.34,-369.2 683.85,-367.56 686.48,-366.08"/>
<polygon fill="midnightblue" stroke="midnightblue" points="688.25,-369.11 695.75,-361.62 685.22,-362.81 688.25,-369.11"/>
</g>
<!-- Node15 -->
<g id="node15" class="node">
<title>Node15</title>
<g id="a_node15"><a xlink:href="rmap_8c_a2da8e7b48411d382b54848795f85795d.html#a2da8e7b48411d382b54848795f85795d" target="_top" xlink:title="set the destination (target) logical address">
<polygon fill="white" stroke="black" points="700.5,-494.5 700.5,-513.5 783.5,-513.5 783.5,-494.5 700.5,-494.5"/>
<text text-anchor="middle" x="742" y="-501.5" font-family="Helvetica,sans-Serif" font-size="10.00">rmap_set_dst</text>
</a>
</g>
</g>
<!-- Node4&#45;&gt;Node15 -->
<g id="edge14" class="edge">
<title>Node4&#45;&gt;Node15</title>
<path fill="none" stroke="midnightblue" d="M639.07,-504C655.07,-504 673.41,-504 690.09,-504"/>
<polygon fill="midnightblue" stroke="midnightblue" points="690.22,-507.5 700.22,-504 690.22,-500.5 690.22,-507.5"/>
</g>
<!-- Node16 -->
<g id="node16" class="node">
<title>Node16</title>
<g id="a_node16"><a xlink:href="rmap_8c_a15021c9dfccddc44786dfd37834bcd7e.html#a15021c9dfccddc44786dfd37834bcd7e" target="_top" xlink:title="set the command authorisation key">
<polygon fill="white" stroke="black" points="699.5,-456.5 699.5,-475.5 784.5,-475.5 784.5,-456.5 699.5,-456.5"/>
<text text-anchor="middle" x="742" y="-463.5" font-family="Helvetica,sans-Serif" font-size="10.00">rmap_set_key</text>
</a>
</g>
</g>
<!-- Node4&#45;&gt;Node16 -->
<g id="edge15" class="edge">
<title>Node4&#45;&gt;Node16</title>
<path fill="none" stroke="midnightblue" d="M632.96,-494.41C651.77,-489.46 674.91,-483.38 694.95,-478.11"/>
<polygon fill="midnightblue" stroke="midnightblue" points="696.02,-481.45 704.8,-475.52 694.24,-474.68 696.02,-481.45"/>
</g>
<!-- Node17 -->
<g id="node17" class="node">
<title>Node17</title>
<g id="a_node17"><a xlink:href="rmap_8c_a56c47830e67d01e469231e5e7e1d3a34.html#a56c47830e67d01e469231e5e7e1d3a34" target="_top" xlink:title="set the reply address path">
<polygon fill="white" stroke="black" points="682.5,-304.5 682.5,-323.5 801.5,-323.5 801.5,-304.5 682.5,-304.5"/>
<text text-anchor="middle" x="742" y="-311.5" font-family="Helvetica,sans-Serif" font-size="10.00">rmap_set_reply_path</text>
</a>
</g>
</g>
<!-- Node4&#45;&gt;Node17 -->
<g id="edge16" class="edge">
<title>Node4&#45;&gt;Node17</title>
<path fill="none" stroke="midnightblue" d="M598.36,-494.21C604.4,-465.09 626.23,-378.3 679,-333 680.98,-331.3 683.11,-329.75 685.35,-328.34"/>
<polygon fill="midnightblue" stroke="midnightblue" points="687.2,-331.32 694.41,-323.56 683.93,-325.13 687.2,-331.32"/>
</g>
<!-- Node18 -->
<g id="node18" class="node">
<title>Node18</title>
<g id="a_node18"><a xlink:href="rmap_8c_adae0030440ca4e7ad34622e505acbb2c.html#adae0030440ca4e7ad34622e505acbb2c" target="_top" xlink:title="set the source (initiator) logical address">
<polygon fill="white" stroke="black" points="701,-418.5 701,-437.5 783,-437.5 783,-418.5 701,-418.5"/>
<text text-anchor="middle" x="742" y="-425.5" font-family="Helvetica,sans-Serif" font-size="10.00">rmap_set_src</text>
</a>
</g>
</g>
<!-- Node4&#45;&gt;Node18 -->
<g id="edge18" class="edge">
<title>Node4&#45;&gt;Node18</title>
<path fill="none" stroke="midnightblue" d="M607.82,-494.48C623.1,-482.04 651.58,-460.28 679,-447 683.63,-444.76 688.58,-442.71 693.6,-440.86"/>
<polygon fill="midnightblue" stroke="midnightblue" points="694.92,-444.1 703.24,-437.54 692.65,-437.48 694.92,-444.1"/>
</g>
<!-- Node19 -->
<g id="node19" class="node">
<title>Node19</title>
<g id="a_node19"><a xlink:href="rmap_8c_a7b4c31714493ce6cc19d4aa825ab50aa.html#a7b4c31714493ce6cc19d4aa825ab50aa" target="_top" xlink:title="set an RMAP transaction identifier">
<polygon fill="white" stroke="black" points="697.5,-722.5 697.5,-741.5 786.5,-741.5 786.5,-722.5 697.5,-722.5"/>
<text text-anchor="middle" x="742" y="-729.5" font-family="Helvetica,sans-Serif" font-size="10.00">rmap_set_tr_id</text>
</a>
</g>
</g>
<!-- Node4&#45;&gt;Node19 -->
<g id="edge19" class="edge">
<title>Node4&#45;&gt;Node19</title>
<path fill="none" stroke="midnightblue" d="M597.38,-513.52C600.93,-546.34 617.12,-655.81 679,-713 681.77,-715.56 684.87,-717.77 688.17,-719.69"/>
<polygon fill="midnightblue" stroke="midnightblue" points="686.77,-722.9 697.3,-724.09 689.82,-716.59 686.77,-722.9"/>
</g>
<!-- Node6 -->
<g id="node6" class="node">
<title>Node6</title>
<g id="a_node6"><a xlink:href="rmap_8c_a0ec3c28e83818f02e00d4c79d82d938a.html#a0ec3c28e83818f02e00d4c79d82d938a" target="_top" xlink:title="get the minimum header size given the RMAP instruction">
<polygon fill="white" stroke="black" points="845.5,-532.5 845.5,-551.5 978.5,-551.5 978.5,-532.5 845.5,-532.5"/>
<text text-anchor="middle" x="912" y="-539.5" font-family="Helvetica,sans-Serif" font-size="10.00">rmap_get_min_hdr_size</text>
</a>
</g>
</g>
<!-- Node5&#45;&gt;Node6 -->
<g id="edge5" class="edge">
<title>Node5&#45;&gt;Node6</title>
<path fill="none" stroke="midnightblue" d="M783.42,-646.4C790.83,-643.87 798.33,-640.76 805,-637 842.04,-616.08 877.2,-580.34 896.26,-559.17"/>
<polygon fill="midnightblue" stroke="midnightblue" points="898.96,-561.39 902.96,-551.58 893.72,-556.75 898.96,-561.39"/>
</g>
<!-- Node10 -->
<g id="node10" class="node">
<title>Node10</title>
<g id="a_node10"><a xlink:href="rmap_8c_a667ce871110961f2a611d0244791e20f.html#a667ce871110961f2a611d0244791e20f" target="_top" xlink:title="valiidates a command code">
<polygon fill="white" stroke="black" points="841,-684.5 841,-703.5 983,-703.5 983,-684.5 841,-684.5"/>
<text text-anchor="middle" x="912" y="-691.5" font-family="Helvetica,sans-Serif" font-size="10.00">rmap_validate_cmd_code</text>
</a>
</g>
</g>
<!-- Node9&#45;&gt;Node10 -->
<g id="edge9" class="edge">
<title>Node9&#45;&gt;Node10</title>
<path fill="none" stroke="midnightblue" d="M786.7,-694C800.13,-694 815.36,-694 830.44,-694"/>
<polygon fill="midnightblue" stroke="midnightblue" points="830.83,-697.5 840.83,-694 830.83,-690.5 830.83,-697.5"/>
</g>
<!-- Node14 -->
<g id="node14" class="node">
<title>Node14</title>
<g id="a_node14"><a xlink:href="test__cmp__max__used__bits__list_8c_a7ac38fce3243a7dcf448301ee9ffd392.html#a7ac38fce3243a7dcf448301ee9ffd392" target="_top" xlink:title=" ">
<polygon fill="white" stroke="black" points="887,-304.5 887,-323.5 937,-323.5 937,-304.5 887,-304.5"/>
<text text-anchor="middle" x="912" y="-311.5" font-family="Helvetica,sans-Serif" font-size="10.00">malloc</text>
</a>
</g>
</g>
<!-- Node13&#45;&gt;Node14 -->
<g id="edge13" class="edge">
<title>Node13&#45;&gt;Node14</title>
<path fill="none" stroke="midnightblue" d="M785.39,-342.41C813.71,-336.01 850.47,-327.69 876.9,-321.71"/>
<polygon fill="midnightblue" stroke="midnightblue" points="877.85,-325.09 886.83,-319.47 876.3,-318.26 877.85,-325.09"/>
</g>
<!-- Node17&#45;&gt;Node14 -->
<g id="edge17" class="edge">
<title>Node17&#45;&gt;Node14</title>
<path fill="none" stroke="midnightblue" d="M801.76,-314C826.69,-314 854.89,-314 876.39,-314"/>
<polygon fill="midnightblue" stroke="midnightblue" points="876.67,-317.5 886.67,-314 876.67,-310.5 876.67,-317.5"/>
</g>
<!-- Node20&#45;&gt;Node14 -->
<g id="edge21" class="edge">
<title>Node20&#45;&gt;Node14</title>
<path fill="none" stroke="midnightblue" d="M291.75,-258.02C375.79,-260.97 610.87,-270.9 805,-295 829.13,-297.99 856.09,-302.85 876.79,-306.9"/>
<polygon fill="midnightblue" stroke="midnightblue" points="876.2,-310.35 886.69,-308.87 877.57,-303.49 876.2,-310.35"/>
</g>
<!-- Node21 -->
<g id="node21" class="node">
<title>Node21</title>
<g id="a_node21"><a xlink:href="rdcu__rmap_8c_a95fad3cd9b6bbe562e1a73e3f1c108a8.html#a95fad3cd9b6bbe562e1a73e3f1c108a8" target="_top" xlink:title="submit an rmap command transaction">
<polygon fill="white" stroke="black" points="399,-228.5 399,-247.5 491,-247.5 491,-228.5 399,-228.5"/>
<text text-anchor="middle" x="445" y="-235.5" font-family="Helvetica,sans-Serif" font-size="10.00">rdcu_submit_tx</text>
</a>
</g>
</g>
<!-- Node20&#45;&gt;Node21 -->
<g id="edge22" class="edge">
<title>Node20&#45;&gt;Node21</title>
<path fill="none" stroke="midnightblue" d="M291.63,-253.73C318.24,-250.99 356.91,-246.99 388.64,-243.72"/>
<polygon fill="midnightblue" stroke="midnightblue" points="389.08,-247.19 398.67,-242.68 388.36,-240.23 389.08,-247.19"/>
</g>
<!-- Node32 -->
<g id="node32" class="node">
<title>Node32</title>
<g id="a_node32"><a xlink:href="rdcu__rmap_8c_a36f44335aa66dd49fb4903f7269bc5b1.html#a36f44335aa66dd49fb4903f7269bc5b1" target="_top" xlink:title="grab a slot in the transaction log">
<polygon fill="white" stroke="black" points="389,-190.5 389,-209.5 501,-209.5 501,-190.5 389,-190.5"/>
<text text-anchor="middle" x="445" y="-197.5" font-family="Helvetica,sans-Serif" font-size="10.00">trans_log_grab_slot</text>
</a>
</g>
</g>
<!-- Node20&#45;&gt;Node32 -->
<g id="edge38" class="edge">
<title>Node20&#45;&gt;Node32</title>
<path fill="none" stroke="midnightblue" d="M289.02,-247.38C312.85,-239.54 347.53,-228.29 378,-219 385.22,-216.8 392.9,-214.53 400.37,-212.35"/>
<polygon fill="midnightblue" stroke="midnightblue" points="401.39,-215.7 410.02,-209.56 399.45,-208.98 401.39,-215.7"/>
</g>
<!-- Node22 -->
<g id="node22" class="node">
<title>Node22</title>
<g id="a_node22"><a xlink:href="rdcu__rmap_8c_a1a064554031c2fa2dcb65541e0765c0f.html#a1a064554031c2fa2dcb65541e0765c0f" target="_top" xlink:title="n rmap command transaction">
<polygon fill="white" stroke="black" points="548,-171.5 548,-190.5 643,-190.5 643,-171.5 548,-171.5"/>
<text text-anchor="middle" x="595.5" y="-178.5" font-family="Helvetica,sans-Serif" font-size="10.00">rdcu_process_rx</text>
</a>
</g>
</g>
<!-- Node21&#45;&gt;Node22 -->
<g id="edge23" class="edge">
<title>Node21&#45;&gt;Node22</title>
<path fill="none" stroke="midnightblue" d="M482.98,-228.42C492.52,-225.66 502.72,-222.45 512,-219 530.61,-212.08 550.86,-202.78 566.64,-195.11"/>
<polygon fill="midnightblue" stroke="midnightblue" points="568.41,-198.14 575.84,-190.58 565.32,-191.86 568.41,-198.14"/>
</g>
<!-- Node22&#45;&gt;Node8 -->
<g id="edge26" class="edge">
<title>Node22&#45;&gt;Node8</title>
<path fill="none" stroke="midnightblue" d="M620.3,-190.6C636.76,-197.22 659.19,-206.2 679,-214 687.99,-217.54 697.73,-221.33 706.77,-224.83"/>
<polygon fill="midnightblue" stroke="midnightblue" points="705.65,-228.15 716.24,-228.49 708.17,-221.62 705.65,-228.15"/>
</g>
<!-- Node22&#45;&gt;Node14 -->
<g id="edge24" class="edge">
<title>Node22&#45;&gt;Node14</title>
<path fill="none" stroke="midnightblue" d="M643.07,-182.28C686.88,-185.11 753.29,-193.67 805,-219 843.4,-237.81 878.32,-274.59 896.92,-296.46"/>
<polygon fill="midnightblue" stroke="midnightblue" points="894.35,-298.85 903.43,-304.3 899.73,-294.37 894.35,-298.85"/>
</g>
<!-- Node23 -->
<g id="node23" class="node">
<title>Node23</title>
<g id="a_node23"><a xlink:href="rmap_8c_abf1868ec6873f9f189050cadc7e64a3b.html#abf1868ec6873f9f189050cadc7e64a3b" target="_top" xlink:title="calculate the CRC8 of a given buffer">
<polygon fill="white" stroke="black" points="708,-76.5 708,-95.5 776,-95.5 776,-76.5 708,-76.5"/>
<text text-anchor="middle" x="742" y="-83.5" font-family="Helvetica,sans-Serif" font-size="10.00">rmap_crc8</text>
</a>
</g>
</g>
<!-- Node22&#45;&gt;Node23 -->
<g id="edge25" class="edge">
<title>Node22&#45;&gt;Node23</title>
<path fill="none" stroke="midnightblue" d="M604.37,-171.36C617.95,-155.32 647.41,-123.12 679,-105 684.9,-101.61 691.48,-98.76 698.08,-96.39"/>
<polygon fill="midnightblue" stroke="midnightblue" points="699.27,-99.68 707.69,-93.25 697.09,-93.03 699.27,-99.68"/>
</g>
<!-- Node24 -->
<g id="node24" class="node">
<title>Node24</title>
<g id="a_node24"><a xlink:href="rmap_8c_a5e88a29337404518eceedf9b4af285bf.html#a5e88a29337404518eceedf9b4af285bf" target="_top" xlink:title=" ">
<polygon fill="white" stroke="black" points="694.5,-38.5 694.5,-57.5 789.5,-57.5 789.5,-38.5 694.5,-38.5"/>
<text text-anchor="middle" x="742" y="-45.5" font-family="Helvetica,sans-Serif" font-size="10.00">rmap_parse_pkt</text>
</a>
</g>
</g>
<!-- Node22&#45;&gt;Node24 -->
<g id="edge27" class="edge">
<title>Node22&#45;&gt;Node24</title>
<path fill="none" stroke="midnightblue" d="M600.76,-171.43C610.98,-149.55 639.06,-95.57 679,-67 681.7,-65.07 684.6,-63.33 687.62,-61.76"/>
<polygon fill="midnightblue" stroke="midnightblue" points="689.27,-64.86 696.96,-57.57 686.4,-58.48 689.27,-64.86"/>
</g>
<!-- Node29 -->
<g id="node29" class="node">
<title>Node29</title>
<g id="a_node29"><a xlink:href="rmap_8c_a46d3271304c12df042b57dbebaba67e1.html#a46d3271304c12df042b57dbebaba67e1" target="_top" xlink:title="create an rmap packet from a buffer">
<polygon fill="white" stroke="black" points="679.5,-380.5 679.5,-399.5 804.5,-399.5 804.5,-380.5 679.5,-380.5"/>
<text text-anchor="middle" x="742" y="-387.5" font-family="Helvetica,sans-Serif" font-size="10.00">rmap_pkt_from_buffer</text>
</a>
</g>
</g>
<!-- Node22&#45;&gt;Node29 -->
<g id="edge32" class="edge">
<title>Node22&#45;&gt;Node29</title>
<path fill="none" stroke="midnightblue" d="M597.8,-190.52C602.52,-221.4 621.62,-319.72 679,-371 680.91,-372.71 682.97,-374.26 685.14,-375.67"/>
<polygon fill="midnightblue" stroke="midnightblue" points="683.49,-378.76 693.95,-380.46 686.84,-372.61 683.49,-378.76"/>
</g>
<!-- Node30 -->
<g id="node30" class="node">
<title>Node30</title>
<g id="a_node30"><a xlink:href="rdcu__rmap_8c_acf9b176d8d9b24e9d07711f56aebccc0.html#acf9b176d8d9b24e9d07711f56aebccc0" target="_top" xlink:title="get the local address for a slot">
<polygon fill="white" stroke="black" points="687,-152.5 687,-171.5 797,-171.5 797,-152.5 687,-152.5"/>
<text text-anchor="middle" x="742" y="-159.5" font-family="Helvetica,sans-Serif" font-size="10.00">trans_log_get_addr</text>
</a>
</g>
</g>
<!-- Node22&#45;&gt;Node30 -->
<g id="edge36" class="edge">
<title>Node22&#45;&gt;Node30</title>
<path fill="none" stroke="midnightblue" d="M643.02,-174.88C653.69,-173.48 665.23,-171.96 676.51,-170.48"/>
<polygon fill="midnightblue" stroke="midnightblue" points="677.31,-173.9 686.77,-169.13 676.4,-166.96 677.31,-173.9"/>
</g>
<!-- Node31 -->
<g id="node31" class="node">
<title>Node31</title>
<g id="a_node31"><a xlink:href="rdcu__rmap_8c_a7012f58a1862cf07b00e299d24c199c2.html#a7012f58a1862cf07b00e299d24c199c2" target="_top" xlink:title="release a slot in the transaction log">
<polygon fill="white" stroke="black" points="679,-114.5 679,-133.5 805,-133.5 805,-114.5 679,-114.5"/>
<text text-anchor="middle" x="742" y="-121.5" font-family="Helvetica,sans-Serif" font-size="10.00">trans_log_release_slot</text>
</a>
</g>
</g>
<!-- Node22&#45;&gt;Node31 -->
<g id="edge37" class="edge">
<title>Node22&#45;&gt;Node31</title>
<path fill="none" stroke="midnightblue" d="M615.52,-171.35C632.05,-163.18 656.75,-151.49 679,-143 684.87,-140.76 691.12,-138.6 697.31,-136.58"/>
<polygon fill="midnightblue" stroke="midnightblue" points="698.45,-139.89 706.93,-133.54 696.34,-133.22 698.45,-139.89"/>
</g>
<!-- Node25 -->
<g id="node25" class="node">
<title>Node25</title>
<g id="a_node25"><a xlink:href="rmap_8c_abb4e19c17c7223212c3904bc4c0189d2.html#abb4e19c17c7223212c3904bc4c0189d2" target="_top" xlink:title=" ">
<polygon fill="white" stroke="black" points="856.5,-76.5 856.5,-95.5 967.5,-95.5 967.5,-76.5 856.5,-76.5"/>
<text text-anchor="middle" x="912" y="-83.5" font-family="Helvetica,sans-Serif" font-size="10.00">rmap_check_status</text>
</a>
</g>
</g>
<!-- Node24&#45;&gt;Node25 -->
<g id="edge28" class="edge">
<title>Node24&#45;&gt;Node25</title>
<path fill="none" stroke="midnightblue" d="M785.39,-57.59C807.76,-62.65 835.4,-68.9 859.05,-74.25"/>
<polygon fill="midnightblue" stroke="midnightblue" points="858.39,-77.69 868.91,-76.48 859.93,-70.86 858.39,-77.69"/>
</g>
<!-- Node26 -->
<g id="node26" class="node">
<title>Node26</title>
<g id="a_node26"><a xlink:href="rmap_8c_a20aa8b91dfb1bbad819759f97b853054.html#a20aa8b91dfb1bbad819759f97b853054" target="_top" xlink:title=" ">
<polygon fill="white" stroke="black" points="851,-38.5 851,-57.5 973,-57.5 973,-38.5 851,-38.5"/>
<text text-anchor="middle" x="912" y="-45.5" font-family="Helvetica,sans-Serif" font-size="10.00">rmap_parse_cmd_pkt</text>
</a>
</g>
</g>
<!-- Node24&#45;&gt;Node26 -->
<g id="edge29" class="edge">
<title>Node24&#45;&gt;Node26</title>
<path fill="none" stroke="midnightblue" d="M789.8,-48C805.62,-48 823.66,-48 840.89,-48"/>
<polygon fill="midnightblue" stroke="midnightblue" points="840.92,-51.5 850.92,-48 840.92,-44.5 840.92,-51.5"/>
</g>
<!-- Node27 -->
<g id="node27" class="node">
<title>Node27</title>
<g id="a_node27"><a xlink:href="rmap_8c_adef42426b46ee5ad5176ee76cff35c22.html#adef42426b46ee5ad5176ee76cff35c22" target="_top" xlink:title=" ">
<polygon fill="white" stroke="black" points="849.5,-0.5 849.5,-19.5 974.5,-19.5 974.5,-0.5 849.5,-0.5"/>
<text text-anchor="middle" x="912" y="-7.5" font-family="Helvetica,sans-Serif" font-size="10.00">rmap_parse_reply_pkt</text>
</a>
</g>
</g>
<!-- Node24&#45;&gt;Node27 -->
<g id="edge30" class="edge">
<title>Node24&#45;&gt;Node27</title>
<path fill="none" stroke="midnightblue" d="M785.39,-38.41C807.76,-33.35 835.4,-27.1 859.05,-21.75"/>
<polygon fill="midnightblue" stroke="midnightblue" points="859.93,-25.14 868.91,-19.52 858.39,-18.31 859.93,-25.14"/>
</g>
<!-- Node28 -->
<g id="node28" class="node">
<title>Node28</title>
<g id="a_node28"><a xlink:href="rmap_8c_a2ff278a5e094a9f585865d4d838e0e0e.html#a2ff278a5e094a9f585865d4d838e0e0e" target="_top" xlink:title=" ">
<polygon fill="white" stroke="black" points="1019,-0.5 1019,-19.5 1161,-19.5 1161,-0.5 1019,-0.5"/>
<text text-anchor="middle" x="1090" y="-7.5" font-family="Helvetica,sans-Serif" font-size="10.00">rmap_process_read_reply</text>
</a>
</g>
</g>
<!-- Node27&#45;&gt;Node28 -->
<g id="edge31" class="edge">
<title>Node27&#45;&gt;Node28</title>
<path fill="none" stroke="midnightblue" d="M974.56,-10C985.6,-10 997.25,-10 1008.73,-10"/>
<polygon fill="midnightblue" stroke="midnightblue" points="1008.74,-13.5 1018.74,-10 1008.74,-6.5 1008.74,-13.5"/>
</g>
<!-- Node29&#45;&gt;Node6 -->
<g id="edge35" class="edge">
<title>Node29&#45;&gt;Node6</title>
<path fill="none" stroke="midnightblue" d="M787.9,-399.53C794,-402 799.9,-405.1 805,-409 828.81,-427.19 822.78,-442.22 841,-466 857.39,-487.38 878.64,-509.84 893.41,-524.74"/>
<polygon fill="midnightblue" stroke="midnightblue" points="891.32,-527.61 900.87,-532.19 896.27,-522.65 891.32,-527.61"/>
</g>
<!-- Node29&#45;&gt;Node7 -->
<g id="edge34" class="edge">
<title>Node29&#45;&gt;Node7</title>
<path fill="none" stroke="midnightblue" d="M775.27,-399.58C784.87,-402.51 795.38,-405.81 805,-409 828.76,-416.89 855.27,-426.4 875.83,-433.93"/>
<polygon fill="midnightblue" stroke="midnightblue" points="874.82,-437.28 885.41,-437.45 877.23,-430.71 874.82,-437.28"/>
</g>
<!-- Node29&#45;&gt;Node14 -->
<g id="edge33" class="edge">
<title>Node29&#45;&gt;Node14</title>
<path fill="none" stroke="midnightblue" d="M778.51,-380.43C787.29,-377.7 796.58,-374.51 805,-371 834.06,-358.87 865.64,-341.27 886.7,-328.84"/>
<polygon fill="midnightblue" stroke="midnightblue" points="888.52,-331.83 895.32,-323.7 884.94,-325.82 888.52,-331.83"/>
</g>
</g>
</svg>
        <g id="navigator" transform="translate(0 0)" fill="#404254">
                <rect fill="#f2f5e9" fill-opacity="0.5" stroke="#606060" stroke-width=".5" x="0" y="0" width="60" height="60"/>
                <use id="zoomplus" xlink:href="#zoomPlus" x="17" y="9" onmousedown="handleZoom(evt,'in')"/>
                <use id="zoomminus" xlink:href="#zoomMin" x="42" y="9" onmousedown="handleZoom(evt,'out')"/>
                <use id="reset" xlink:href="#resetDef" x="30" y="36" onmousedown="handleReset()"/>
                <g id="arrowUp" xlink:href="#dirArrow" transform="translate(30 24)" onmousedown="handlePan(0,-1)">
                  <use xlink:href="#rim" fill="#404040">
                        <set attributeName="fill" to="#808080" begin="arrowUp.mouseover" end="arrowUp.mouseout"/>
                  </use>
                  <path fill="none" stroke="white" stroke-width="1.5" d="M0,-3.0v7 M-2.5,-0.5L0,-3.0L2.5,-0.5"/>
                </g>
                <g id="arrowRight" xlink:href="#dirArrow" transform="rotate(90) translate(36 -43)" onmousedown="handlePan(1,0)">
                  <use xlink:href="#rim" fill="#404040">
                        <set attributeName="fill" to="#808080" begin="arrowRight.mouseover" end="arrowRight.mouseout"/>
                  </use>
                  <path fill="none" stroke="white" stroke-width="1.5" d="M0,-3.0v7 M-2.5,-0.5L0,-3.0L2.5,-0.5"/>
                </g>
                <g id="arrowDown" xlink:href="#dirArrow" transform="rotate(180) translate(-30 -48)" onmousedown="handlePan(0,1)">
                  <use xlink:href="#rim" fill="#404040">
                        <set attributeName="fill" to="#808080" begin="arrowDown.mouseover" end="arrowDown.mouseout"/>
                  </use>
                  <path fill="none" stroke="white" stroke-width="1.5" d="M0,-3.0v7 M-2.5,-0.5L0,-3.0L2.5,-0.5"/>
                </g>
                <g id="arrowLeft" xlink:href="#dirArrow" transform="rotate(270) translate(-36 17)" onmousedown="handlePan(-1,0)">
                  <use xlink:href="#rim" fill="#404040">
                        <set attributeName="fill" to="#808080" begin="arrowLeft.mouseover" end="arrowLeft.mouseout"/>
                  </use>
                  <path fill="none" stroke="white" stroke-width="1.5" d="M0,-3.0v7 M-2.5,-0.5L0,-3.0L2.5,-0.5"/>
                </g>
        </g>
        <svg viewBox="0 0 15 15" width="100%" height="30px" preserveAspectRatio="xMaxYMin meet">
         <g id="arrow_out" transform="scale(0.3 0.3)">
          <a xlink:href="rdcu__ctrl_8c_a5763b76d6fa138ad840f2dd81f9cd90e_a5763b76d6fa138ad840f2dd81f9cd90e_cgraph_org.svg" target="_base">
           <rect id="button" ry="5" rx="5" y="6" x="6" height="38" width="38"
                fill="#f2f5e9" fill-opacity="0.5" stroke="#606060" stroke-width="1.0"/>
           <path id="arrow"
             d="M 11.500037,31.436501 C 11.940474,20.09759 22.043105,11.32322 32.158766,21.979434 L 37.068811,17.246167 C 37.068811,17.246167 37.088388,32 37.088388,32 L 22.160133,31.978069 C 22.160133,31.978069 26.997745,27.140456 26.997745,27.140456 C 18.528582,18.264221 13.291696,25.230495 11.500037,31.436501 z"
             style="fill:#404040;"/>
          </a>
         </g>
        </svg>
</svg>
