<?xml version="1.0" encoding="UTF-8" standalone="no"?>
<!DOCTYPE svg PUBLIC "-//W3C//DTD SVG 1.1//EN"
 "http://www.w3.org/Graphics/SVG/1.1/DTD/svg11.dtd">
<!-- Generated by graphviz version 2.43.0 (0)
 -->
<!-- Title: rdcu_sync_rdcu_status Pages: 1 -->
<!--zoomable 750 -->
<svg id="main" version="1.1" xmlns="http://www.w3.org/2000/svg" xmlns:xlink="http://www.w3.org/1999/xlink" xml:space="preserve" onload="init(evt)">
<style type="text/css"><![CDATA[
.edge:hover path { stroke: red; }
.edge:hover polygon { stroke: red; fill: red; }
]]></style>
<script type="text/javascript"><![CDATA[
var edges = document.getElementsByTagName('g');
if (edges && edges.length) {
  for (var i=0;i<edges.length;i++) {
    if (edges[i].id.substr(0,4)=='edge') {
      edges[i].setAttribute('class','edge');
    }
  }
}
]]></script>
        <defs>
                <circle id="rim" cx="0" cy="0" r="7"/>
                <circle id="rim2" cx="0" cy="0" r="3.5"/>
                <g id="zoomPlus">
                        <use xlink:href="#rim" fill="#404040">
                                <set attributeName="fill" to="#808080" begin="zoomplus.mouseover" end="zoomplus.mouseout"/>
                        </use>
                        <path d="M-4,0h8M0,-4v8" fill="none" stroke="white" stroke-width="1.5" pointer-events="none"/>
                </g>
                <g id="zoomMin">
                        <use xlink:href="#rim" fill="#404040">
                                <set attributeName="fill" to="#808080" begin="zoomminus.mouseover" end="zoomminus.mouseout"/>
                        </use>
                        <path d="M-4,0h8" fill="none" stroke="white" stroke-width="1.5" pointer-events="none"/>
                </g>
                <g id="dirArrow">
                        <path fill="none" stroke="white" stroke-width="1.5" d="M0,-3.0v7 M-2.5,-0.5L0,-3.0L2.5,-0.5"/>
                </g>
               <g id="resetDef">
                       <use xlink:href="#rim2" fill="#404040">
                               <set attributeName="fill" to="#808080" begin="reset.mouseover" end="reset.mouseout"/>
                       </use>
               </g>
        </defs>

<script type="text/javascript">
var viewWidth = 1107;
var viewHeight = 750;
var sectionId = 'dynsection-0';
</script>
<script xlink:href="svgpan.js"/>
<svg id="graph" class="graph">
<g id="viewport">
<title>rdcu_sync_rdcu_status</title>
<polygon fill="white" stroke="transparent" points="-4,4 -4,-746 1103,-746 1103,4 -4,4"/>
<!-- Node1 -->
<g id="node1" class="node">
<title>Node1</title>
<g id="a_node1"><a xlink:title="sync the RDCU status register (read only)">
<polygon fill="#bfbfbf" stroke="black" points="0,-269.5 0,-288.5 127,-288.5 127,-269.5 0,-269.5"/>
<text text-anchor="middle" x="63.5" y="-276.5" font-family="Helvetica,sans-Serif" font-size="10.00">rdcu_sync_rdcu_status</text>
</a>
</g>
</g>
<!-- Node2 -->
<g id="node2" class="node">
<title>Node2</title>
<g id="a_node2"><a xlink:href="rdcu__cmd_8c_a4129bfe37351e950a25bbe9ead3892f9.html#a4129bfe37351e950a25bbe9ead3892f9" target="_top" xlink:title="create a command to read the RDCU status register">
<polygon fill="white" stroke="black" points="163,-387 163,-417 280,-417 280,-387 163,-387"/>
<text text-anchor="start" x="171" y="-405" font-family="Helvetica,sans-Serif" font-size="10.00">rdcu_read_cmd_rdcu</text>
<text text-anchor="middle" x="221.5" y="-394" font-family="Helvetica,sans-Serif" font-size="10.00">_status</text>
</a>
</g>
</g>
<!-- Node1&#45;&gt;Node2 -->
<g id="edge1" class="edge">
<title>Node1&#45;&gt;Node2</title>
<path fill="none" stroke="midnightblue" d="M76.74,-288.65C101.7,-308.33 159.02,-353.52 193.26,-380.52"/>
<polygon fill="midnightblue" stroke="midnightblue" points="191.41,-383.52 201.43,-386.97 195.75,-378.03 191.41,-383.52"/>
</g>
<!-- Node20 -->
<g id="node20" class="node">
<title>Node20</title>
<g id="a_node20"><a xlink:href="rdcu__rmap_8c_a533d1eb248d83ba3d406cefe7f3c9eb9.html#a533d1eb248d83ba3d406cefe7f3c9eb9" target="_top" xlink:title="submit a sync command">
<polygon fill="white" stroke="black" points="189,-247.5 189,-266.5 254,-266.5 254,-247.5 189,-247.5"/>
<text text-anchor="middle" x="221.5" y="-254.5" font-family="Helvetica,sans-Serif" font-size="10.00">rdcu_sync</text>
</a>
</g>
</g>
<!-- Node1&#45;&gt;Node20 -->
<g id="edge20" class="edge">
<title>Node1&#45;&gt;Node20</title>
<path fill="none" stroke="midnightblue" d="M127.05,-270.18C144.44,-267.73 162.89,-265.13 178.76,-262.89"/>
<polygon fill="midnightblue" stroke="midnightblue" points="179.37,-266.34 188.78,-261.47 178.39,-259.4 179.37,-266.34"/>
</g>
<!-- Node3 -->
<g id="node3" class="node">
<title>Node3</title>
<g id="a_node3"><a xlink:href="rdcu__cmd_8c_a3274188041d4484130e893afc5f1630f.html#a3274188041d4484130e893afc5f1630f" target="_top" xlink:title="generate a read command for an arbitrary register (internal)">
<polygon fill="white" stroke="black" points="316,-438 316,-468 450,-468 450,-438 316,-438"/>
<text text-anchor="start" x="324" y="-456" font-family="Helvetica,sans-Serif" font-size="10.00">rdcu_read_cmd_register</text>
<text text-anchor="middle" x="383" y="-445" font-family="Helvetica,sans-Serif" font-size="10.00">_internal</text>
</a>
</g>
</g>
<!-- Node2&#45;&gt;Node3 -->
<g id="edge2" class="edge">
<title>Node2&#45;&gt;Node3</title>
<path fill="none" stroke="midnightblue" d="M269.49,-417.03C287.02,-422.63 307.1,-429.05 325.4,-434.9"/>
<polygon fill="midnightblue" stroke="midnightblue" points="324.48,-438.28 335.07,-437.99 326.61,-431.61 324.48,-438.28"/>
</g>
<!-- Node4 -->
<g id="node4" class="node">
<title>Node4</title>
<g id="a_node4"><a xlink:href="rdcu__rmap_8c_ab224927e85a7cec5b6f90292c7de36c4.html#ab224927e85a7cec5b6f90292c7de36c4" target="_top" xlink:title="generate an rmap command packet">
<polygon fill="white" stroke="black" points="490,-494.5 490,-513.5 577,-513.5 577,-494.5 490,-494.5"/>
<text text-anchor="middle" x="533.5" y="-501.5" font-family="Helvetica,sans-Serif" font-size="10.00">rdcu_gen_cmd</text>
</a>
</g>
</g>
<!-- Node3&#45;&gt;Node4 -->
<g id="edge3" class="edge">
<title>Node3&#45;&gt;Node4</title>
<path fill="none" stroke="midnightblue" d="M427.75,-468.03C449.07,-475.35 474.46,-484.07 494.9,-491.09"/>
<polygon fill="midnightblue" stroke="midnightblue" points="493.9,-494.44 504.49,-494.38 496.17,-487.82 493.9,-494.44"/>
</g>
<!-- Node5 -->
<g id="node5" class="node">
<title>Node5</title>
<g id="a_node5"><a xlink:href="rmap_8c_aa17375d153cc3473cbbe4dfe1056c527.html#aa17375d153cc3473cbbe4dfe1056c527" target="_top" xlink:title="build an rmap header">
<polygon fill="white" stroke="black" points="634,-646.5 634,-665.5 726,-665.5 726,-646.5 634,-646.5"/>
<text text-anchor="middle" x="680" y="-653.5" font-family="Helvetica,sans-Serif" font-size="10.00">rmap_build_hdr</text>
</a>
</g>
</g>
<!-- Node4&#45;&gt;Node5 -->
<g id="edge4" class="edge">
<title>Node4&#45;&gt;Node5</title>
<path fill="none" stroke="midnightblue" d="M537.76,-513.68C546.52,-538.17 572.88,-603 617,-637 619.34,-638.8 621.85,-640.44 624.48,-641.92"/>
<polygon fill="midnightblue" stroke="midnightblue" points="623.22,-645.19 633.75,-646.38 626.25,-638.89 623.22,-645.19"/>
</g>
<!-- Node7 -->
<g id="node7" class="node">
<title>Node7</title>
<g id="a_node7"><a xlink:href="rmap_8c_aba944cf978de0b264ea5bb3a784bce0f.html#aba944cf978de0b264ea5bb3a784bce0f" target="_top" xlink:title="create an RMAP packet and set defaults">
<polygon fill="white" stroke="black" points="792,-437.5 792,-456.5 908,-456.5 908,-437.5 792,-437.5"/>
<text text-anchor="middle" x="850" y="-444.5" font-family="Helvetica,sans-Serif" font-size="10.00">rmap_create_packet</text>
</a>
</g>
</g>
<!-- Node4&#45;&gt;Node7 -->
<g id="edge6" class="edge">
<title>Node4&#45;&gt;Node7</title>
<path fill="none" stroke="midnightblue" d="M562.93,-513.53C603.8,-525.69 681.06,-542.91 743,-523 779.03,-511.42 813.19,-482.57 832.57,-463.93"/>
<polygon fill="midnightblue" stroke="midnightblue" points="835.28,-466.17 839.93,-456.65 830.36,-461.19 835.28,-466.17"/>
</g>
<!-- Node8 -->
<g id="node8" class="node">
<title>Node8</title>
<g id="a_node8"><a xlink:href="rmap_8c_a1def9af549819e7fdbda12af8bdc9c0e.html#a1def9af549819e7fdbda12af8bdc9c0e" target="_top" xlink:title="completely destroys an RMAP packet">
<polygon fill="white" stroke="black" points="624,-228.5 624,-247.5 736,-247.5 736,-228.5 624,-228.5"/>
<text text-anchor="middle" x="680" y="-235.5" font-family="Helvetica,sans-Serif" font-size="10.00">rmap_erase_packet</text>
</a>
</g>
</g>
<!-- Node4&#45;&gt;Node8 -->
<g id="edge7" class="edge">
<title>Node4&#45;&gt;Node8</title>
<path fill="none" stroke="midnightblue" d="M536.72,-494.09C544.09,-462.7 569.97,-363.5 617,-295 628,-278.98 644.29,-264.23 657.41,-253.75"/>
<polygon fill="midnightblue" stroke="midnightblue" points="659.71,-256.4 665.48,-247.51 655.43,-250.86 659.71,-256.4"/>
</g>
<!-- Node9 -->
<g id="node9" class="node">
<title>Node9</title>
<g id="a_node9"><a xlink:href="rmap_8c_aab7e23f061291d39568ad2df700bc777.html#aab7e23f061291d39568ad2df700bc777" target="_top" xlink:title="set an RMAP command">
<polygon fill="white" stroke="black" points="635.5,-684.5 635.5,-703.5 724.5,-703.5 724.5,-684.5 635.5,-684.5"/>
<text text-anchor="middle" x="680" y="-691.5" font-family="Helvetica,sans-Serif" font-size="10.00">rmap_set_cmd</text>
</a>
</g>
</g>
<!-- Node4&#45;&gt;Node9 -->
<g id="edge8" class="edge">
<title>Node4&#45;&gt;Node9</title>
<path fill="none" stroke="midnightblue" d="M536.36,-513.79C542.4,-542.91 564.23,-629.7 617,-675 619.81,-677.42 622.93,-679.52 626.22,-681.36"/>
<polygon fill="midnightblue" stroke="midnightblue" points="624.74,-684.53 635.27,-685.64 627.72,-678.2 624.74,-684.53"/>
</g>
<!-- Node11 -->
<g id="node11" class="node">
<title>Node11</title>
<g id="a_node11"><a xlink:href="rmap_8c_acf641aae92829ae864b6c3d8f94d86e2.html#acf641aae92829ae864b6c3d8f94d86e2" target="_top" xlink:title="set a data address">
<polygon fill="white" stroke="black" points="622,-608.5 622,-627.5 738,-627.5 738,-608.5 622,-608.5"/>
<text text-anchor="middle" x="680" y="-615.5" font-family="Helvetica,sans-Serif" font-size="10.00">rmap_set_data_addr</text>
</a>
</g>
</g>
<!-- Node4&#45;&gt;Node11 -->
<g id="edge10" class="edge">
<title>Node4&#45;&gt;Node11</title>
<path fill="none" stroke="midnightblue" d="M540.24,-513.66C552.11,-532.81 581.29,-575.78 617,-599 620.16,-601.05 623.55,-602.9 627.06,-604.55"/>
<polygon fill="midnightblue" stroke="midnightblue" points="625.98,-607.88 636.56,-608.48 628.66,-601.42 625.98,-607.88"/>
</g>
<!-- Node12 -->
<g id="node12" class="node">
<title>Node12</title>
<g id="a_node12"><a xlink:href="rmap_8c_a6833f065640f652aa1a929309e592f7a.html#a6833f065640f652aa1a929309e592f7a" target="_top" xlink:title="set an RMAP command">
<polygon fill="white" stroke="black" points="625,-570.5 625,-589.5 735,-589.5 735,-570.5 625,-570.5"/>
<text text-anchor="middle" x="680" y="-577.5" font-family="Helvetica,sans-Serif" font-size="10.00">rmap_set_data_len</text>
</a>
</g>
</g>
<!-- Node4&#45;&gt;Node12 -->
<g id="edge11" class="edge">
<title>Node4&#45;&gt;Node12</title>
<path fill="none" stroke="midnightblue" d="M548.04,-513.68C564,-524.82 591.59,-543.22 617,-556 624.78,-559.91 633.36,-563.6 641.6,-566.87"/>
<polygon fill="midnightblue" stroke="midnightblue" points="640.45,-570.17 651.04,-570.48 642.95,-563.64 640.45,-570.17"/>
</g>
<!-- Node13 -->
<g id="node13" class="node">
<title>Node13</title>
<g id="a_node13"><a xlink:href="rmap_8c_a5f0081b9928da5e50fc8b231b57f3a80.html#a5f0081b9928da5e50fc8b231b57f3a80" target="_top" xlink:title="set the destination address path">
<polygon fill="white" stroke="black" points="622,-342.5 622,-361.5 738,-361.5 738,-342.5 622,-342.5"/>
<text text-anchor="middle" x="680" y="-349.5" font-family="Helvetica,sans-Serif" font-size="10.00">rmap_set_dest_path</text>
</a>
</g>
</g>
<!-- Node4&#45;&gt;Node13 -->
<g id="edge12" class="edge">
<title>Node4&#45;&gt;Node13</title>
<path fill="none" stroke="midnightblue" d="M537.76,-494.32C546.52,-469.83 572.88,-405 617,-371 619.34,-369.2 621.85,-367.56 624.48,-366.08"/>
<polygon fill="midnightblue" stroke="midnightblue" points="626.25,-369.11 633.75,-361.62 623.22,-362.81 626.25,-369.11"/>
</g>
<!-- Node15 -->
<g id="node15" class="node">
<title>Node15</title>
<g id="a_node15"><a xlink:href="rmap_8c_a2da8e7b48411d382b54848795f85795d.html#a2da8e7b48411d382b54848795f85795d" target="_top" xlink:title="set the destination (target) logical address">
<polygon fill="white" stroke="black" points="638.5,-494.5 638.5,-513.5 721.5,-513.5 721.5,-494.5 638.5,-494.5"/>
<text text-anchor="middle" x="680" y="-501.5" font-family="Helvetica,sans-Serif" font-size="10.00">rmap_set_dst</text>
</a>
</g>
</g>
<!-- Node4&#45;&gt;Node15 -->
<g id="edge14" class="edge">
<title>Node4&#45;&gt;Node15</title>
<path fill="none" stroke="midnightblue" d="M577.07,-504C593.07,-504 611.41,-504 628.09,-504"/>
<polygon fill="midnightblue" stroke="midnightblue" points="628.22,-507.5 638.22,-504 628.22,-500.5 628.22,-507.5"/>
</g>
<!-- Node16 -->
<g id="node16" class="node">
<title>Node16</title>
<g id="a_node16"><a xlink:href="rmap_8c_a15021c9dfccddc44786dfd37834bcd7e.html#a15021c9dfccddc44786dfd37834bcd7e" target="_top" xlink:title="set the command authorisation key">
<polygon fill="white" stroke="black" points="637.5,-456.5 637.5,-475.5 722.5,-475.5 722.5,-456.5 637.5,-456.5"/>
<text text-anchor="middle" x="680" y="-463.5" font-family="Helvetica,sans-Serif" font-size="10.00">rmap_set_key</text>
</a>
</g>
</g>
<!-- Node4&#45;&gt;Node16 -->
<g id="edge15" class="edge">
<title>Node4&#45;&gt;Node16</title>
<path fill="none" stroke="midnightblue" d="M570.96,-494.41C589.77,-489.46 612.91,-483.38 632.95,-478.11"/>
<polygon fill="midnightblue" stroke="midnightblue" points="634.02,-481.45 642.8,-475.52 632.24,-474.68 634.02,-481.45"/>
</g>
<!-- Node17 -->
<g id="node17" class="node">
<title>Node17</title>
<g id="a_node17"><a xlink:href="rmap_8c_a56c47830e67d01e469231e5e7e1d3a34.html#a56c47830e67d01e469231e5e7e1d3a34" target="_top" xlink:title="set the reply address path">
<polygon fill="white" stroke="black" points="620.5,-304.5 620.5,-323.5 739.5,-323.5 739.5,-304.5 620.5,-304.5"/>
<text text-anchor="middle" x="680" y="-311.5" font-family="Helvetica,sans-Serif" font-size="10.00">rmap_set_reply_path</text>
</a>
</g>
</g>
<!-- Node4&#45;&gt;Node17 -->
<g id="edge16" class="edge">
<title>Node4&#45;&gt;Node17</title>
<path fill="none" stroke="midnightblue" d="M536.36,-494.21C542.4,-465.09 564.23,-378.3 617,-333 618.98,-331.3 621.11,-329.75 623.35,-328.34"/>
<polygon fill="midnightblue" stroke="midnightblue" points="625.2,-331.32 632.41,-323.56 621.93,-325.13 625.2,-331.32"/>
</g>
<!-- Node18 -->
<g id="node18" class="node">
<title>Node18</title>
<g id="a_node18"><a xlink:href="rmap_8c_adae0030440ca4e7ad34622e505acbb2c.html#adae0030440ca4e7ad34622e505acbb2c" target="_top" xlink:title="set the source (initiator) logical address">
<polygon fill="white" stroke="black" points="639,-418.5 639,-437.5 721,-437.5 721,-418.5 639,-418.5"/>
<text text-anchor="middle" x="680" y="-425.5" font-family="Helvetica,sans-Serif" font-size="10.00">rmap_set_src</text>
</a>
</g>
</g>
<!-- Node4&#45;&gt;Node18 -->
<g id="edge18" class="edge">
<title>Node4&#45;&gt;Node18</title>
<path fill="none" stroke="midnightblue" d="M545.82,-494.48C561.1,-482.04 589.58,-460.28 617,-447 621.63,-444.76 626.58,-442.71 631.6,-440.86"/>
<polygon fill="midnightblue" stroke="midnightblue" points="632.92,-444.1 641.24,-437.54 630.65,-437.48 632.92,-444.1"/>
</g>
<!-- Node19 -->
<g id="node19" class="node">
<title>Node19</title>
<g id="a_node19"><a xlink:href="rmap_8c_a7b4c31714493ce6cc19d4aa825ab50aa.html#a7b4c31714493ce6cc19d4aa825ab50aa" target="_top" xlink:title="set an RMAP transaction identifier">
<polygon fill="white" stroke="black" points="635.5,-722.5 635.5,-741.5 724.5,-741.5 724.5,-722.5 635.5,-722.5"/>
<text text-anchor="middle" x="680" y="-729.5" font-family="Helvetica,sans-Serif" font-size="10.00">rmap_set_tr_id</text>
</a>
</g>
</g>
<!-- Node4&#45;&gt;Node19 -->
<g id="edge19" class="edge">
<title>Node4&#45;&gt;Node19</title>
<path fill="none" stroke="midnightblue" d="M535.38,-513.52C538.93,-546.34 555.12,-655.81 617,-713 619.77,-715.56 622.87,-717.77 626.17,-719.69"/>
<polygon fill="midnightblue" stroke="midnightblue" points="624.77,-722.9 635.3,-724.09 627.82,-716.59 624.77,-722.9"/>
</g>
<!-- Node6 -->
<g id="node6" class="node">
<title>Node6</title>
<g id="a_node6"><a xlink:href="rmap_8c_a0ec3c28e83818f02e00d4c79d82d938a.html#a0ec3c28e83818f02e00d4c79d82d938a" target="_top" xlink:title="get the minimum header size given the RMAP instruction">
<polygon fill="white" stroke="black" points="783.5,-532.5 783.5,-551.5 916.5,-551.5 916.5,-532.5 783.5,-532.5"/>
<text text-anchor="middle" x="850" y="-539.5" font-family="Helvetica,sans-Serif" font-size="10.00">rmap_get_min_hdr_size</text>
</a>
</g>
</g>
<!-- Node5&#45;&gt;Node6 -->
<g id="edge5" class="edge">
<title>Node5&#45;&gt;Node6</title>
<path fill="none" stroke="midnightblue" d="M721.42,-646.4C728.83,-643.87 736.33,-640.76 743,-637 780.04,-616.08 815.2,-580.34 834.26,-559.17"/>
<polygon fill="midnightblue" stroke="midnightblue" points="836.96,-561.39 840.96,-551.58 831.72,-556.75 836.96,-561.39"/>
</g>
<!-- Node10 -->
<g id="node10" class="node">
<title>Node10</title>
<g id="a_node10"><a xlink:href="rmap_8c_a667ce871110961f2a611d0244791e20f.html#a667ce871110961f2a611d0244791e20f" target="_top" xlink:title="valiidates a command code">
<polygon fill="white" stroke="black" points="779,-684.5 779,-703.5 921,-703.5 921,-684.5 779,-684.5"/>
<text text-anchor="middle" x="850" y="-691.5" font-family="Helvetica,sans-Serif" font-size="10.00">rmap_validate_cmd_code</text>
</a>
</g>
</g>
<!-- Node9&#45;&gt;Node10 -->
<g id="edge9" class="edge">
<title>Node9&#45;&gt;Node10</title>
<path fill="none" stroke="midnightblue" d="M724.7,-694C738.13,-694 753.36,-694 768.44,-694"/>
<polygon fill="midnightblue" stroke="midnightblue" points="768.83,-697.5 778.83,-694 768.83,-690.5 768.83,-697.5"/>
</g>
<!-- Node14 -->
<g id="node14" class="node">
<title>Node14</title>
<g id="a_node14"><a xlink:href="test__cmp__max__used__bits__list_8c_a7ac38fce3243a7dcf448301ee9ffd392.html#a7ac38fce3243a7dcf448301ee9ffd392" target="_top" xlink:title=" ">
<polygon fill="white" stroke="black" points="825,-304.5 825,-323.5 875,-323.5 875,-304.5 825,-304.5"/>
<text text-anchor="middle" x="850" y="-311.5" font-family="Helvetica,sans-Serif" font-size="10.00">malloc</text>
</a>
</g>
</g>
<!-- Node13&#45;&gt;Node14 -->
<g id="edge13" class="edge">
<title>Node13&#45;&gt;Node14</title>
<path fill="none" stroke="midnightblue" d="M723.39,-342.41C751.71,-336.01 788.47,-327.69 814.9,-321.71"/>
<polygon fill="midnightblue" stroke="midnightblue" points="815.85,-325.09 824.83,-319.47 814.3,-318.26 815.85,-325.09"/>
</g>
<!-- Node17&#45;&gt;Node14 -->
<g id="edge17" class="edge">
<title>Node17&#45;&gt;Node14</title>
<path fill="none" stroke="midnightblue" d="M739.76,-314C764.69,-314 792.89,-314 814.39,-314"/>
<polygon fill="midnightblue" stroke="midnightblue" points="814.67,-317.5 824.67,-314 814.67,-310.5 814.67,-317.5"/>
</g>
<!-- Node20&#45;&gt;Node14 -->
<g id="edge21" class="edge">
<title>Node20&#45;&gt;Node14</title>
<path fill="none" stroke="midnightblue" d="M254,-258.15C335.26,-261.37 558.49,-271.79 743,-295 767.12,-298.03 794.09,-302.89 814.78,-306.93"/>
<polygon fill="midnightblue" stroke="midnightblue" points="814.2,-310.38 824.69,-308.9 815.56,-303.52 814.2,-310.38"/>
</g>
<!-- Node21 -->
<g id="node21" class="node">
<title>Node21</title>
<g id="a_node21"><a xlink:href="rdcu__rmap_8c_a95fad3cd9b6bbe562e1a73e3f1c108a8.html#a95fad3cd9b6bbe562e1a73e3f1c108a8" target="_top" xlink:title="submit an rmap command transaction">
<polygon fill="white" stroke="black" points="337,-228.5 337,-247.5 429,-247.5 429,-228.5 337,-228.5"/>
<text text-anchor="middle" x="383" y="-235.5" font-family="Helvetica,sans-Serif" font-size="10.00">rdcu_submit_tx</text>
</a>
</g>
</g>
<!-- Node20&#45;&gt;Node21 -->
<g id="edge22" class="edge">
<title>Node20&#45;&gt;Node21</title>
<path fill="none" stroke="midnightblue" d="M254.01,-253.25C274.75,-250.78 302.45,-247.48 326.78,-244.58"/>
<polygon fill="midnightblue" stroke="midnightblue" points="327.45,-248.02 336.96,-243.36 326.62,-241.07 327.45,-248.02"/>
</g>
<!-- Node32 -->
<g id="node32" class="node">
<title>Node32</title>
<g id="a_node32"><a xlink:href="rdcu__rmap_8c_a36f44335aa66dd49fb4903f7269bc5b1.html#a36f44335aa66dd49fb4903f7269bc5b1" target="_top" xlink:title="grab a slot in the transaction log">
<polygon fill="white" stroke="black" points="327,-190.5 327,-209.5 439,-209.5 439,-190.5 327,-190.5"/>
<text text-anchor="middle" x="383" y="-197.5" font-family="Helvetica,sans-Serif" font-size="10.00">trans_log_grab_slot</text>
</a>
</g>
</g>
<!-- Node20&#45;&gt;Node32 -->
<g id="edge38" class="edge">
<title>Node20&#45;&gt;Node32</title>
<path fill="none" stroke="midnightblue" d="M244.17,-247.43C262.96,-239.32 291,-227.65 316,-219 322.51,-216.75 329.44,-214.54 336.28,-212.48"/>
<polygon fill="midnightblue" stroke="midnightblue" points="337.56,-215.75 346.16,-209.57 335.58,-209.04 337.56,-215.75"/>
</g>
<!-- Node22 -->
<g id="node22" class="node">
<title>Node22</title>
<g id="a_node22"><a xlink:href="rdcu__rmap_8c_a1a064554031c2fa2dcb65541e0765c0f.html#a1a064554031c2fa2dcb65541e0765c0f" target="_top" xlink:title="n rmap command transaction">
<polygon fill="white" stroke="black" points="486,-171.5 486,-190.5 581,-190.5 581,-171.5 486,-171.5"/>
<text text-anchor="middle" x="533.5" y="-178.5" font-family="Helvetica,sans-Serif" font-size="10.00">rdcu_process_rx</text>
</a>
</g>
</g>
<!-- Node21&#45;&gt;Node22 -->
<g id="edge23" class="edge">
<title>Node21&#45;&gt;Node22</title>
<path fill="none" stroke="midnightblue" d="M420.98,-228.42C430.52,-225.66 440.72,-222.45 450,-219 468.61,-212.08 488.86,-202.78 504.64,-195.11"/>
<polygon fill="midnightblue" stroke="midnightblue" points="506.41,-198.14 513.84,-190.58 503.32,-191.86 506.41,-198.14"/>
</g>
<!-- Node22&#45;&gt;Node8 -->
<g id="edge26" class="edge">
<title>Node22&#45;&gt;Node8</title>
<path fill="none" stroke="midnightblue" d="M558.3,-190.6C574.76,-197.22 597.19,-206.2 617,-214 625.99,-217.54 635.73,-221.33 644.77,-224.83"/>
<polygon fill="midnightblue" stroke="midnightblue" points="643.65,-228.15 654.24,-228.49 646.17,-221.62 643.65,-228.15"/>
</g>
<!-- Node22&#45;&gt;Node14 -->
<g id="edge24" class="edge">
<title>Node22&#45;&gt;Node14</title>
<path fill="none" stroke="midnightblue" d="M581.07,-182.28C624.88,-185.11 691.29,-193.67 743,-219 781.4,-237.81 816.32,-274.59 834.92,-296.46"/>
<polygon fill="midnightblue" stroke="midnightblue" points="832.35,-298.85 841.43,-304.3 837.73,-294.37 832.35,-298.85"/>
</g>
<!-- Node23 -->
<g id="node23" class="node">
<title>Node23</title>
<g id="a_node23"><a xlink:href="rmap_8c_abf1868ec6873f9f189050cadc7e64a3b.html#abf1868ec6873f9f189050cadc7e64a3b" target="_top" xlink:title="calculate the CRC8 of a given buffer">
<polygon fill="white" stroke="black" points="646,-76.5 646,-95.5 714,-95.5 714,-76.5 646,-76.5"/>
<text text-anchor="middle" x="680" y="-83.5" font-family="Helvetica,sans-Serif" font-size="10.00">rmap_crc8</text>
</a>
</g>
</g>
<!-- Node22&#45;&gt;Node23 -->
<g id="edge25" class="edge">
<title>Node22&#45;&gt;Node23</title>
<path fill="none" stroke="midnightblue" d="M542.37,-171.36C555.95,-155.32 585.41,-123.12 617,-105 622.9,-101.61 629.48,-98.76 636.08,-96.39"/>
<polygon fill="midnightblue" stroke="midnightblue" points="637.27,-99.68 645.69,-93.25 635.09,-93.03 637.27,-99.68"/>
</g>
<!-- Node24 -->
<g id="node24" class="node">
<title>Node24</title>
<g id="a_node24"><a xlink:href="rmap_8c_a5e88a29337404518eceedf9b4af285bf.html#a5e88a29337404518eceedf9b4af285bf" target="_top" xlink:title=" ">
<polygon fill="white" stroke="black" points="632.5,-38.5 632.5,-57.5 727.5,-57.5 727.5,-38.5 632.5,-38.5"/>
<text text-anchor="middle" x="680" y="-45.5" font-family="Helvetica,sans-Serif" font-size="10.00">rmap_parse_pkt</text>
</a>
</g>
</g>
<!-- Node22&#45;&gt;Node24 -->
<g id="edge27" class="edge">
<title>Node22&#45;&gt;Node24</title>
<path fill="none" stroke="midnightblue" d="M538.76,-171.43C548.98,-149.55 577.06,-95.57 617,-67 619.7,-65.07 622.6,-63.33 625.62,-61.76"/>
<polygon fill="midnightblue" stroke="midnightblue" points="627.27,-64.86 634.96,-57.57 624.4,-58.48 627.27,-64.86"/>
</g>
<!-- Node29 -->
<g id="node29" class="node">
<title>Node29</title>
<g id="a_node29"><a xlink:href="rmap_8c_a46d3271304c12df042b57dbebaba67e1.html#a46d3271304c12df042b57dbebaba67e1" target="_top" xlink:title="create an rmap packet from a buffer">
<polygon fill="white" stroke="black" points="617.5,-380.5 617.5,-399.5 742.5,-399.5 742.5,-380.5 617.5,-380.5"/>
<text text-anchor="middle" x="680" y="-387.5" font-family="Helvetica,sans-Serif" font-size="10.00">rmap_pkt_from_buffer</text>
</a>
</g>
</g>
<!-- Node22&#45;&gt;Node29 -->
<g id="edge32" class="edge">
<title>Node22&#45;&gt;Node29</title>
<path fill="none" stroke="midnightblue" d="M535.8,-190.52C540.52,-221.4 559.62,-319.72 617,-371 618.91,-372.71 620.97,-374.26 623.14,-375.67"/>
<polygon fill="midnightblue" stroke="midnightblue" points="621.49,-378.76 631.95,-380.46 624.84,-372.61 621.49,-378.76"/>
</g>
<!-- Node30 -->
<g id="node30" class="node">
<title>Node30</title>
<g id="a_node30"><a xlink:href="rdcu__rmap_8c_acf9b176d8d9b24e9d07711f56aebccc0.html#acf9b176d8d9b24e9d07711f56aebccc0" target="_top" xlink:title="get the local address for a slot">
<polygon fill="white" stroke="black" points="625,-152.5 625,-171.5 735,-171.5 735,-152.5 625,-152.5"/>
<text text-anchor="middle" x="680" y="-159.5" font-family="Helvetica,sans-Serif" font-size="10.00">trans_log_get_addr</text>
</a>
</g>
</g>
<!-- Node22&#45;&gt;Node30 -->
<g id="edge36" class="edge">
<title>Node22&#45;&gt;Node30</title>
<path fill="none" stroke="midnightblue" d="M581.02,-174.88C591.69,-173.48 603.23,-171.96 614.51,-170.48"/>
<polygon fill="midnightblue" stroke="midnightblue" points="615.31,-173.9 624.77,-169.13 614.4,-166.96 615.31,-173.9"/>
</g>
<!-- Node31 -->
<g id="node31" class="node">
<title>Node31</title>
<g id="a_node31"><a xlink:href="rdcu__rmap_8c_a7012f58a1862cf07b00e299d24c199c2.html#a7012f58a1862cf07b00e299d24c199c2" target="_top" xlink:title="release a slot in the transaction log">
<polygon fill="white" stroke="black" points="617,-114.5 617,-133.5 743,-133.5 743,-114.5 617,-114.5"/>
<text text-anchor="middle" x="680" y="-121.5" font-family="Helvetica,sans-Serif" font-size="10.00">trans_log_release_slot</text>
</a>
</g>
</g>
<!-- Node22&#45;&gt;Node31 -->
<g id="edge37" class="edge">
<title>Node22&#45;&gt;Node31</title>
<path fill="none" stroke="midnightblue" d="M553.52,-171.35C570.05,-163.18 594.75,-151.49 617,-143 622.87,-140.76 629.12,-138.6 635.31,-136.58"/>
<polygon fill="midnightblue" stroke="midnightblue" points="636.45,-139.89 644.93,-133.54 634.34,-133.22 636.45,-139.89"/>
</g>
<!-- Node25 -->
<g id="node25" class="node">
<title>Node25</title>
<g id="a_node25"><a xlink:href="rmap_8c_abb4e19c17c7223212c3904bc4c0189d2.html#abb4e19c17c7223212c3904bc4c0189d2" target="_top" xlink:title=" ">
<polygon fill="white" stroke="black" points="794.5,-76.5 794.5,-95.5 905.5,-95.5 905.5,-76.5 794.5,-76.5"/>
<text text-anchor="middle" x="850" y="-83.5" font-family="Helvetica,sans-Serif" font-size="10.00">rmap_check_status</text>
</a>
</g>
</g>
<!-- Node24&#45;&gt;Node25 -->
<g id="edge28" class="edge">
<title>Node24&#45;&gt;Node25</title>
<path fill="none" stroke="midnightblue" d="M723.39,-57.59C745.76,-62.65 773.4,-68.9 797.05,-74.25"/>
<polygon fill="midnightblue" stroke="midnightblue" points="796.39,-77.69 806.91,-76.48 797.93,-70.86 796.39,-77.69"/>
</g>
<!-- Node26 -->
<g id="node26" class="node">
<title>Node26</title>
<g id="a_node26"><a xlink:href="rmap_8c_a20aa8b91dfb1bbad819759f97b853054.html#a20aa8b91dfb1bbad819759f97b853054" target="_top" xlink:title=" ">
<polygon fill="white" stroke="black" points="789,-38.5 789,-57.5 911,-57.5 911,-38.5 789,-38.5"/>
<text text-anchor="middle" x="850" y="-45.5" font-family="Helvetica,sans-Serif" font-size="10.00">rmap_parse_cmd_pkt</text>
</a>
</g>
</g>
<!-- Node24&#45;&gt;Node26 -->
<g id="edge29" class="edge">
<title>Node24&#45;&gt;Node26</title>
<path fill="none" stroke="midnightblue" d="M727.8,-48C743.62,-48 761.66,-48 778.89,-48"/>
<polygon fill="midnightblue" stroke="midnightblue" points="778.92,-51.5 788.92,-48 778.92,-44.5 778.92,-51.5"/>
</g>
<!-- Node27 -->
<g id="node27" class="node">
<title>Node27</title>
<g id="a_node27"><a xlink:href="rmap_8c_adef42426b46ee5ad5176ee76cff35c22.html#adef42426b46ee5ad5176ee76cff35c22" target="_top" xlink:title=" ">
<polygon fill="white" stroke="black" points="787.5,-0.5 787.5,-19.5 912.5,-19.5 912.5,-0.5 787.5,-0.5"/>
<text text-anchor="middle" x="850" y="-7.5" font-family="Helvetica,sans-Serif" font-size="10.00">rmap_parse_reply_pkt</text>
</a>
</g>
</g>
<!-- Node24&#45;&gt;Node27 -->
<g id="edge30" class="edge">
<title>Node24&#45;&gt;Node27</title>
<path fill="none" stroke="midnightblue" d="M723.39,-38.41C745.76,-33.35 773.4,-27.1 797.05,-21.75"/>
<polygon fill="midnightblue" stroke="midnightblue" points="797.93,-25.14 806.91,-19.52 796.39,-18.31 797.93,-25.14"/>
</g>
<!-- Node28 -->
<g id="node28" class="node">
<title>Node28</title>
<g id="a_node28"><a xlink:href="rmap_8c_a2ff278a5e094a9f585865d4d838e0e0e.html#a2ff278a5e094a9f585865d4d838e0e0e" target="_top" xlink:title=" ">
<polygon fill="white" stroke="black" points="957,-0.5 957,-19.5 1099,-19.5 1099,-0.5 957,-0.5"/>
<text text-anchor="middle" x="1028" y="-7.5" font-family="Helvetica,sans-Serif" font-size="10.00">rmap_process_read_reply</text>
</a>
</g>
</g>
<!-- Node27&#45;&gt;Node28 -->
<g id="edge31" class="edge">
<title>Node27&#45;&gt;Node28</title>
<path fill="none" stroke="midnightblue" d="M912.56,-10C923.6,-10 935.25,-10 946.73,-10"/>
<polygon fill="midnightblue" stroke="midnightblue" points="946.74,-13.5 956.74,-10 946.74,-6.5 946.74,-13.5"/>
</g>
<!-- Node29&#45;&gt;Node6 -->
<g id="edge35" class="edge">
<title>Node29&#45;&gt;Node6</title>
<path fill="none" stroke="midnightblue" d="M725.9,-399.53C732,-402 737.9,-405.1 743,-409 766.81,-427.19 760.78,-442.22 779,-466 795.39,-487.38 816.64,-509.84 831.41,-524.74"/>
<polygon fill="midnightblue" stroke="midnightblue" points="829.32,-527.61 838.87,-532.19 834.27,-522.65 829.32,-527.61"/>
</g>
<!-- Node29&#45;&gt;Node7 -->
<g id="edge34" class="edge">
<title>Node29&#45;&gt;Node7</title>
<path fill="none" stroke="midnightblue" d="M713.27,-399.58C722.87,-402.51 733.38,-405.81 743,-409 766.76,-416.89 793.27,-426.4 813.83,-433.93"/>
<polygon fill="midnightblue" stroke="midnightblue" points="812.82,-437.28 823.41,-437.45 815.23,-430.71 812.82,-437.28"/>
</g>
<!-- Node29&#45;&gt;Node14 -->
<g id="edge33" class="edge">
<title>Node29&#45;&gt;Node14</title>
<path fill="none" stroke="midnightblue" d="M716.51,-380.43C725.29,-377.7 734.58,-374.51 743,-371 772.06,-358.87 803.64,-341.27 824.7,-328.84"/>
<polygon fill="midnightblue" stroke="midnightblue" points="826.52,-331.83 833.32,-323.7 822.94,-325.82 826.52,-331.83"/>
</g>
</g>
</svg>
        <g id="navigator" transform="translate(0 0)" fill="#404254">
                <rect fill="#f2f5e9" fill-opacity="0.5" stroke="#606060" stroke-width=".5" x="0" y="0" width="60" height="60"/>
                <use id="zoomplus" xlink:href="#zoomPlus" x="17" y="9" onmousedown="handleZoom(evt,'in')"/>
                <use id="zoomminus" xlink:href="#zoomMin" x="42" y="9" onmousedown="handleZoom(evt,'out')"/>
                <use id="reset" xlink:href="#resetDef" x="30" y="36" onmousedown="handleReset()"/>
                <g id="arrowUp" xlink:href="#dirArrow" transform="translate(30 24)" onmousedown="handlePan(0,-1)">
                  <use xlink:href="#rim" fill="#404040">
                        <set attributeName="fill" to="#808080" begin="arrowUp.mouseover" end="arrowUp.mouseout"/>
                  </use>
                  <path fill="none" stroke="white" stroke-width="1.5" d="M0,-3.0v7 M-2.5,-0.5L0,-3.0L2.5,-0.5"/>
                </g>
                <g id="arrowRight" xlink:href="#dirArrow" transform="rotate(90) translate(36 -43)" onmousedown="handlePan(1,0)">
                  <use xlink:href="#rim" fill="#404040">
                        <set attributeName="fill" to="#808080" begin="arrowRight.mouseover" end="arrowRight.mouseout"/>
                  </use>
                  <path fill="none" stroke="white" stroke-width="1.5" d="M0,-3.0v7 M-2.5,-0.5L0,-3.0L2.5,-0.5"/>
                </g>
                <g id="arrowDown" xlink:href="#dirArrow" transform="rotate(180) translate(-30 -48)" onmousedown="handlePan(0,1)">
                  <use xlink:href="#rim" fill="#404040">
                        <set attributeName="fill" to="#808080" begin="arrowDown.mouseover" end="arrowDown.mouseout"/>
                  </use>
                  <path fill="none" stroke="white" stroke-width="1.5" d="M0,-3.0v7 M-2.5,-0.5L0,-3.0L2.5,-0.5"/>
                </g>
                <g id="arrowLeft" xlink:href="#dirArrow" transform="rotate(270) translate(-36 17)" onmousedown="handlePan(-1,0)">
                  <use xlink:href="#rim" fill="#404040">
                        <set attributeName="fill" to="#808080" begin="arrowLeft.mouseover" end="arrowLeft.mouseout"/>
                  </use>
                  <path fill="none" stroke="white" stroke-width="1.5" d="M0,-3.0v7 M-2.5,-0.5L0,-3.0L2.5,-0.5"/>
                </g>
        </g>
        <svg viewBox="0 0 15 15" width="100%" height="30px" preserveAspectRatio="xMaxYMin meet">
         <g id="arrow_out" transform="scale(0.3 0.3)">
          <a xlink:href="rdcu__ctrl_8h_a972ec74ae14af6c3473d42ca24c155b1_a972ec74ae14af6c3473d42ca24c155b1_cgraph_org.svg" target="_base">
           <rect id="button" ry="5" rx="5" y="6" x="6" height="38" width="38"
                fill="#f2f5e9" fill-opacity="0.5" stroke="#606060" stroke-width="1.0"/>
           <path id="arrow"
             d="M 11.500037,31.436501 C 11.940474,20.09759 22.043105,11.32322 32.158766,21.979434 L 37.068811,17.246167 C 37.068811,17.246167 37.088388,32 37.088388,32 L 22.160133,31.978069 C 22.160133,31.978069 26.997745,27.140456 26.997745,27.140456 C 18.528582,18.264221 13.291696,25.230495 11.500037,31.436501 z"
             style="fill:#404040;"/>
          </a>
         </g>
        </svg>
</svg>
