<?xml version="1.0" encoding="UTF-8" standalone="no"?>
<!DOCTYPE svg PUBLIC "-//W3C//DTD SVG 1.1//EN"
 "http://www.w3.org/Graphics/SVG/1.1/DTD/svg11.dtd">
<!-- Generated by graphviz version 2.43.0 (0)
 -->
<!-- Title: rdcu_rmap_sync_status Pages: 1 -->
<!--zoomable 405 -->
<svg id="main" version="1.1" xmlns="http://www.w3.org/2000/svg" xmlns:xlink="http://www.w3.org/1999/xlink" xml:space="preserve" onload="init(evt)">
<style type="text/css"><![CDATA[
.edge:hover path { stroke: red; }
.edge:hover polygon { stroke: red; fill: red; }
]]></style>
<script type="text/javascript"><![CDATA[
var edges = document.getElementsByTagName('g');
if (edges && edges.length) {
  for (var i=0;i<edges.length;i++) {
    if (edges[i].id.substr(0,4)=='edge') {
      edges[i].setAttribute('class','edge');
    }
  }
}
]]></script>
        <defs>
                <circle id="rim" cx="0" cy="0" r="7"/>
                <circle id="rim2" cx="0" cy="0" r="3.5"/>
                <g id="zoomPlus">
                        <use xlink:href="#rim" fill="#404040">
                                <set attributeName="fill" to="#808080" begin="zoomplus.mouseover" end="zoomplus.mouseout"/>
                        </use>
                        <path d="M-4,0h8M0,-4v8" fill="none" stroke="white" stroke-width="1.5" pointer-events="none"/>
                </g>
                <g id="zoomMin">
                        <use xlink:href="#rim" fill="#404040">
                                <set attributeName="fill" to="#808080" begin="zoomminus.mouseover" end="zoomminus.mouseout"/>
                        </use>
                        <path d="M-4,0h8" fill="none" stroke="white" stroke-width="1.5" pointer-events="none"/>
                </g>
                <g id="dirArrow">
                        <path fill="none" stroke="white" stroke-width="1.5" d="M0,-3.0v7 M-2.5,-0.5L0,-3.0L2.5,-0.5"/>
                </g>
               <g id="resetDef">
                       <use xlink:href="#rim2" fill="#404040">
                               <set attributeName="fill" to="#808080" begin="reset.mouseover" end="reset.mouseout"/>
                       </use>
               </g>
        </defs>

<script type="text/javascript">
var viewWidth = 998;
var viewHeight = 405;
var sectionId = 'dynsection-1';
</script>
<script xlink:href="svgpan.js"/>
<svg id="graph" class="graph">
<g id="viewport">
<title>rdcu_rmap_sync_status</title>
<polygon fill="white" stroke="transparent" points="-4,4 -4,-400.68 994,-400.68 994,4 -4,4"/>
<!-- Node1 -->
<g id="node1" class="node">
<title>Node1</title>
<g id="a_node1"><a xlink:title="get the RDCU &lt;&#45;&gt; ICU mirror RMAP synchronisation status">
<polygon fill="#bfbfbf" stroke="black" points="859,-330.68 859,-349.68 990,-349.68 990,-330.68 859,-330.68"/>
<text text-anchor="middle" x="924.5" y="-337.68" font-family="Helvetica,sans-Serif" font-size="10.00">rdcu_rmap_sync_status</text>
</a>
</g>
</g>
<!-- Node2 -->
<g id="node2" class="node">
<title>Node2</title>
<g id="a_node2"><a xlink:href="rdcu__ctrl_8c_a6633b7b026950cffc57092377e3350ec.html#a6633b7b026950cffc57092377e3350ec" target="_top" xlink:title="sync a range of 32 bit words of the remote SRAM to the local mirror and form the local mirror to the ...">
<polygon fill="white" stroke="black" points="153,-366.18 153,-396.18 284,-396.18 284,-366.18 153,-366.18"/>
<text text-anchor="start" x="161" y="-384.18" font-family="Helvetica,sans-Serif" font-size="10.00">rdcu_sync_sram_mirror</text>
<text text-anchor="middle" x="218.5" y="-373.18" font-family="Helvetica,sans-Serif" font-size="10.00">_parallel</text>
</a>
</g>
</g>
<!-- Node1&#45;&gt;Node2 -->
<g id="edge1" class="edge">
<title>Node1&#45;&gt;Node2</title>
<path fill="none" stroke="midnightblue" d="M867.98,-351.58C853.39,-354.33 837.64,-357.07 823,-359.18 628.42,-387.14 395.12,-385.94 284.21,-383.3"/>
<polygon fill="midnightblue" stroke="midnightblue" points="868.7,-355.01 877.86,-349.69 867.38,-348.13 868.7,-355.01"/>
</g>
<!-- Node4 -->
<g id="node4" class="node">
<title>Node4</title>
<g id="a_node4"><a xlink:href="rdcu__ctrl_8c_a37c5108b5eb07978b60235fbe040c47d.html#a37c5108b5eb07978b60235fbe040c47d" target="_top" xlink:title="sync a range of 32 bit words of the remote SRAM to the local mirror">
<polygon fill="white" stroke="black" points="677,-330.68 677,-349.68 823,-349.68 823,-330.68 677,-330.68"/>
<text text-anchor="middle" x="750" y="-337.68" font-family="Helvetica,sans-Serif" font-size="10.00">rdcu_sync_sram_to_mirror</text>
</a>
</g>
</g>
<!-- Node1&#45;&gt;Node4 -->
<g id="edge3" class="edge">
<title>Node1&#45;&gt;Node4</title>
<path fill="none" stroke="midnightblue" d="M848.54,-340.18C840.08,-340.18 831.46,-340.18 823.03,-340.18"/>
<polygon fill="midnightblue" stroke="midnightblue" points="848.78,-343.68 858.78,-340.18 848.78,-336.68 848.78,-343.68"/>
</g>
<!-- Node8 -->
<g id="node8" class="node">
<title>Node8</title>
<g id="a_node8"><a xlink:href="cmp__rdcu_8c_a308f44d7c916a3a601dd4f007dd8873c.html#a308f44d7c916a3a601dd4f007dd8873c" target="_top" xlink:title="save repeating 3 lines of code...">
<polygon fill="white" stroke="black" points="710,-178.68 710,-197.68 790,-197.68 790,-178.68 710,-178.68"/>
<text text-anchor="middle" x="750" y="-185.68" font-family="Helvetica,sans-Serif" font-size="10.00">rdcu_syncing</text>
</a>
</g>
</g>
<!-- Node1&#45;&gt;Node8 -->
<g id="edge8" class="edge">
<title>Node1&#45;&gt;Node8</title>
<path fill="none" stroke="midnightblue" d="M904.9,-323.79C868.84,-292.02 790.46,-222.95 761.79,-197.68"/>
<polygon fill="midnightblue" stroke="midnightblue" points="902.89,-326.68 912.71,-330.67 907.52,-321.43 902.89,-326.68"/>
</g>
<!-- Node3 -->
<g id="node3" class="node">
<title>Node3</title>
<g id="a_node3"><a xlink:href="cmp__rdcu_8c_ab69cf44ac326e0cebdef002e8f2ea2cb.html#ab69cf44ac326e0cebdef002e8f2ea2cb" target="_top" xlink:title="compressing data with the help of the RDCU hardware compressor; read data from the last compression b...">
<polygon fill="white" stroke="black" points="0,-112.18 0,-142.18 117,-142.18 117,-112.18 0,-112.18"/>
<text text-anchor="start" x="8" y="-130.18" font-family="Helvetica,sans-Serif" font-size="10.00">rdcu_compress_data</text>
<text text-anchor="middle" x="58.5" y="-119.18" font-family="Helvetica,sans-Serif" font-size="10.00">_parallel</text>
</a>
</g>
</g>
<!-- Node2&#45;&gt;Node3 -->
<g id="edge2" class="edge">
<title>Node2&#45;&gt;Node3</title>
<path fill="none" stroke="midnightblue" d="M191.91,-359.04C179.18,-347.18 164.18,-331.82 153,-316.18 110.64,-256.91 77.64,-175.58 65.04,-142.3"/>
<polygon fill="midnightblue" stroke="midnightblue" points="189.73,-361.8 199.48,-365.95 194.45,-356.62 189.73,-361.8"/>
</g>
<!-- Node5 -->
<g id="node5" class="node">
<title>Node5</title>
<g id="a_node5"><a xlink:href="cmp__rdcu_8c_af59f75c76a057d49a54b54800dc59556.html#af59f75c76a057d49a54b54800dc59556" target="_top" xlink:title="inject a SRAM edac multi bit error into the RDCU SRAM">
<polygon fill="white" stroke="black" points="155,-215.68 155,-234.68 282,-234.68 282,-215.68 155,-215.68"/>
<text text-anchor="middle" x="218.5" y="-222.68" font-family="Helvetica,sans-Serif" font-size="10.00">rdcu_inject_edac_error</text>
</a>
</g>
</g>
<!-- Node4&#45;&gt;Node5 -->
<g id="edge4" class="edge">
<title>Node4&#45;&gt;Node5</title>
<path fill="none" stroke="midnightblue" d="M702.25,-351.95C649.68,-363.28 562.11,-376.35 489,-359.18 382.94,-334.26 270.87,-261.05 232.94,-234.73"/>
<polygon fill="midnightblue" stroke="midnightblue" points="703.28,-355.31 712.28,-349.72 701.76,-348.48 703.28,-355.31"/>
</g>
<!-- Node6 -->
<g id="node6" class="node">
<title>Node6</title>
<g id="a_node6"><a xlink:href="cmp__rdcu_8h_a468b8082ee6e0134519743425b2194c4.html#a468b8082ee6e0134519743425b2194c4" target="_top" xlink:title="read the compressed bitstream from the RDCU SRAM">
<polygon fill="white" stroke="black" points="493.5,-292.68 493.5,-311.68 636.5,-311.68 636.5,-292.68 493.5,-292.68"/>
<text text-anchor="middle" x="565" y="-299.68" font-family="Helvetica,sans-Serif" font-size="10.00">rdcu_read_cmp_bitstream</text>
</a>
</g>
</g>
<!-- Node4&#45;&gt;Node6 -->
<g id="edge5" class="edge">
<title>Node4&#45;&gt;Node6</title>
<path fill="none" stroke="midnightblue" d="M692.75,-328.5C666.79,-323.11 636.38,-316.79 611.85,-311.7"/>
<polygon fill="midnightblue" stroke="midnightblue" points="692.32,-331.98 702.82,-330.59 693.74,-325.13 692.32,-331.98"/>
</g>
<!-- Node7 -->
<g id="node7" class="node">
<title>Node7</title>
<g id="a_node7"><a xlink:href="cmp__rdcu_8h_ae37779561352f0c47d0c51fcc9789cc9.html#ae37779561352f0c47d0c51fcc9789cc9" target="_top" xlink:title="read the updated model from the RDCU SRAM">
<polygon fill="white" stroke="black" points="514.5,-330.68 514.5,-349.68 615.5,-349.68 615.5,-330.68 514.5,-330.68"/>
<text text-anchor="middle" x="565" y="-337.68" font-family="Helvetica,sans-Serif" font-size="10.00">rdcu_read_model</text>
</a>
</g>
</g>
<!-- Node4&#45;&gt;Node7 -->
<g id="edge6" class="edge">
<title>Node4&#45;&gt;Node7</title>
<path fill="none" stroke="midnightblue" d="M666.75,-340.18C649.34,-340.18 631.47,-340.18 615.71,-340.18"/>
<polygon fill="midnightblue" stroke="midnightblue" points="666.94,-343.68 676.94,-340.18 666.94,-336.68 666.94,-343.68"/>
</g>
<!-- Node7&#45;&gt;Node3 -->
<g id="edge7" class="edge">
<title>Node7&#45;&gt;Node3</title>
<path fill="none" stroke="midnightblue" d="M504.29,-338.31C419.88,-333.13 263.64,-314.01 153,-244.18 111.88,-218.23 80.94,-167.76 67.25,-142.44"/>
<polygon fill="midnightblue" stroke="midnightblue" points="504.29,-341.81 514.47,-338.89 504.68,-334.83 504.29,-341.81"/>
</g>
<!-- Node8&#45;&gt;Node3 -->
<g id="edge9" class="edge">
<title>Node8&#45;&gt;Node3</title>
<path fill="none" stroke="midnightblue" d="M739.54,-169.49C723.67,-140.38 688.67,-85.09 641,-61.18 447.11,36.07 357.63,3.77 153,-68.18 124.57,-78.17 95.85,-98.1 77.88,-112.02"/>
<polygon fill="midnightblue" stroke="midnightblue" points="736.59,-171.38 744.35,-178.6 742.78,-168.12 736.59,-171.38"/>
</g>
<!-- Node8&#45;&gt;Node5 -->
<g id="edge10" class="edge">
<title>Node8&#45;&gt;Node5</title>
<path fill="none" stroke="midnightblue" d="M727.45,-203.62C706.52,-217.6 673.27,-237.18 641,-245.18 504.65,-278.95 336.08,-250.91 260.06,-234.71"/>
<polygon fill="midnightblue" stroke="midnightblue" points="729.62,-206.38 735.89,-197.84 725.66,-200.6 729.62,-206.38"/>
</g>
<!-- Node8&#45;&gt;Node6 -->
<g id="edge17" class="edge">
<title>Node8&#45;&gt;Node6</title>
<path fill="none" stroke="midnightblue" d="M733.07,-204.93C713.22,-224.92 677.45,-258.16 641,-278.18 630.1,-284.17 617.47,-288.93 605.72,-292.58"/>
<polygon fill="midnightblue" stroke="midnightblue" points="735.62,-207.33 740.1,-197.73 730.61,-202.44 735.62,-207.33"/>
</g>
<!-- Node8&#45;&gt;Node7 -->
<g id="edge20" class="edge">
<title>Node8&#45;&gt;Node7</title>
<path fill="none" stroke="midnightblue" d="M738.96,-207.13C722.5,-236.27 686.97,-291.82 641,-321.18 633.42,-326.02 624.66,-329.63 615.88,-332.32"/>
<polygon fill="midnightblue" stroke="midnightblue" points="742.22,-208.45 743.97,-198 736.08,-205.08 742.22,-208.45"/>
</g>
<!-- Node9 -->
<g id="node9" class="node">
<title>Node9</title>
<g id="a_node9"><a xlink:href="cmp__rdcu_8h_a0ef52214c3b0da6e9fbc56d7fa05c971.html#a0ef52214c3b0da6e9fbc56d7fa05c971" target="_top" xlink:title="interrupt a data compression">
<polygon fill="white" stroke="black" points="489,-140.68 489,-159.68 641,-159.68 641,-140.68 489,-140.68"/>
<text text-anchor="middle" x="565" y="-147.68" font-family="Helvetica,sans-Serif" font-size="10.00">rdcu_interrupt_compression</text>
</a>
</g>
</g>
<!-- Node8&#45;&gt;Node9 -->
<g id="edge11" class="edge">
<title>Node8&#45;&gt;Node9</title>
<path fill="none" stroke="midnightblue" d="M699.63,-177.93C672.36,-172.26 638.7,-165.27 611.98,-159.73"/>
<polygon fill="midnightblue" stroke="midnightblue" points="699.24,-181.42 709.74,-180.03 700.66,-174.57 699.24,-181.42"/>
</g>
<!-- Node10 -->
<g id="node10" class="node">
<title>Node10</title>
<g id="a_node10"><a xlink:href="cmp__rdcu_8c_a1b450ab652a1da5f914786ce577458f9.html#a1b450ab652a1da5f914786ce577458f9" target="_top" xlink:title="set up RDCU compression register">
<polygon fill="white" stroke="black" points="324,-135.18 324,-165.18 449,-165.18 449,-135.18 324,-135.18"/>
<text text-anchor="start" x="332" y="-153.18" font-family="Helvetica,sans-Serif" font-size="10.00">rdcu_set_compression</text>
<text text-anchor="middle" x="386.5" y="-142.18" font-family="Helvetica,sans-Serif" font-size="10.00">_register</text>
</a>
</g>
</g>
<!-- Node8&#45;&gt;Node10 -->
<g id="edge21" class="edge">
<title>Node8&#45;&gt;Node10</title>
<path fill="none" stroke="midnightblue" d="M727.45,-172.73C706.52,-158.76 673.27,-139.17 641,-131.18 576.21,-115.13 499.49,-124.68 447.55,-135.18"/>
<polygon fill="midnightblue" stroke="midnightblue" points="725.66,-175.75 735.89,-178.52 729.62,-169.98 725.66,-175.75"/>
</g>
<!-- Node12 -->
<g id="node12" class="node">
<title>Node12</title>
<g id="a_node12"><a xlink:href="cmp__rdcu_8h_afb2e10f8b9d9e433d1b4a6a96f930097.html#afb2e10f8b9d9e433d1b4a6a96f930097" target="_top" xlink:title="read out the metadata of an RDCU compression">
<polygon fill="white" stroke="black" points="507.5,-216.68 507.5,-235.68 622.5,-235.68 622.5,-216.68 507.5,-216.68"/>
<text text-anchor="middle" x="565" y="-223.68" font-family="Helvetica,sans-Serif" font-size="10.00">rdcu_read_cmp_info</text>
</a>
</g>
</g>
<!-- Node8&#45;&gt;Node12 -->
<g id="edge18" class="edge">
<title>Node8&#45;&gt;Node12</title>
<path fill="none" stroke="midnightblue" d="M699.63,-198.43C672.36,-204.09 638.7,-211.08 611.98,-216.63"/>
<polygon fill="midnightblue" stroke="midnightblue" points="700.66,-201.79 709.74,-196.33 699.24,-194.94 700.66,-201.79"/>
</g>
<!-- Node13 -->
<g id="node13" class="node">
<title>Node13</title>
<g id="a_node13"><a xlink:href="cmp__rdcu_8h_ab9573ccdf850671c2f0c6f90d39677e3.html#ab9573ccdf850671c2f0c6f90d39677e3" target="_top" xlink:title="read out the status register of the RDCU compressor">
<polygon fill="white" stroke="black" points="502,-178.68 502,-197.68 628,-197.68 628,-178.68 502,-178.68"/>
<text text-anchor="middle" x="565" y="-185.68" font-family="Helvetica,sans-Serif" font-size="10.00">rdcu_read_cmp_status</text>
</a>
</g>
</g>
<!-- Node8&#45;&gt;Node13 -->
<g id="edge19" class="edge">
<title>Node8&#45;&gt;Node13</title>
<path fill="none" stroke="midnightblue" d="M699.64,-188.18C677.66,-188.18 651.53,-188.18 628.23,-188.18"/>
<polygon fill="midnightblue" stroke="midnightblue" points="699.74,-191.68 709.74,-188.18 699.74,-184.68 699.74,-191.68"/>
</g>
<!-- Node14 -->
<g id="node14" class="node">
<title>Node14</title>
<g id="a_node14"><a xlink:href="cmp__rdcu_8c_a2816c91a0cc8b4c6c06d9f3531840f28.html#a2816c91a0cc8b4c6c06d9f3531840f28" target="_top" xlink:title="start the RDCU data compressor">
<polygon fill="white" stroke="black" points="320,-58.68 320,-77.68 453,-77.68 453,-58.68 320,-58.68"/>
<text text-anchor="middle" x="386.5" y="-65.68" font-family="Helvetica,sans-Serif" font-size="10.00">rdcu_start_compression</text>
</a>
</g>
</g>
<!-- Node8&#45;&gt;Node14 -->
<g id="edge22" class="edge">
<title>Node8&#45;&gt;Node14</title>
<path fill="none" stroke="midnightblue" d="M735.04,-170.69C716.28,-148.59 680.66,-111.38 641,-94.18 581.13,-68.21 506.1,-63.54 453.25,-64.24"/>
<polygon fill="midnightblue" stroke="midnightblue" points="732.52,-173.13 741.59,-178.61 737.92,-168.67 732.52,-173.13"/>
</g>
<!-- Node15 -->
<g id="node15" class="node">
<title>Node15</title>
<g id="a_node15"><a xlink:href="cmp__rdcu_8c_aa257971c693045ef23e6c79879b32473.html#aa257971c693045ef23e6c79879b32473" target="_top" xlink:title="set up RDCU SRAM for compression">
<polygon fill="white" stroke="black" points="331,-96.68 331,-115.68 442,-115.68 442,-96.68 331,-96.68"/>
<text text-anchor="middle" x="386.5" y="-103.68" font-family="Helvetica,sans-Serif" font-size="10.00">rdcu_transfer_sram</text>
</a>
</g>
</g>
<!-- Node8&#45;&gt;Node15 -->
<g id="edge25" class="edge">
<title>Node8&#45;&gt;Node15</title>
<path fill="none" stroke="midnightblue" d="M730.56,-171.78C710.24,-154.85 675.8,-129.37 641,-118.18 575.15,-97 494.72,-97.28 442.37,-100.67"/>
<polygon fill="midnightblue" stroke="midnightblue" points="728.48,-174.62 738.36,-178.45 733.03,-169.29 728.48,-174.62"/>
</g>
<!-- Node9&#45;&gt;Node10 -->
<g id="edge12" class="edge">
<title>Node9&#45;&gt;Node10</title>
<path fill="none" stroke="midnightblue" d="M478.6,-150.18C468.69,-150.18 458.73,-150.18 449.22,-150.18"/>
<polygon fill="midnightblue" stroke="midnightblue" points="478.89,-153.68 488.89,-150.18 478.89,-146.68 478.89,-153.68"/>
</g>
<!-- Node10&#45;&gt;Node3 -->
<g id="edge15" class="edge">
<title>Node10&#45;&gt;Node3</title>
<path fill="none" stroke="midnightblue" d="M313.79,-145.12C254.7,-140.95 171.97,-135.11 117.12,-131.24"/>
<polygon fill="midnightblue" stroke="midnightblue" points="313.58,-148.61 323.8,-145.82 314.07,-141.63 313.58,-148.61"/>
</g>
<!-- Node10&#45;&gt;Node5 -->
<g id="edge16" class="edge">
<title>Node10&#45;&gt;Node5</title>
<path fill="none" stroke="midnightblue" d="M342.6,-169.56C309.99,-184.29 266.52,-203.93 240.92,-215.5"/>
<polygon fill="midnightblue" stroke="midnightblue" points="344.24,-172.66 351.91,-165.35 341.35,-166.28 344.24,-172.66"/>
</g>
<!-- Node11 -->
<g id="node11" class="node">
<title>Node11</title>
<g id="a_node11"><a xlink:href="cmp__rdcu_8h_a85aeb890a333d637dd7ffba03729e93a.html#a85aeb890a333d637dd7ffba03729e93a" target="_top" xlink:title="compressing data with the help of the RDCU hardware compressor">
<polygon fill="white" stroke="black" points="160,-98.68 160,-117.68 277,-117.68 277,-98.68 160,-98.68"/>
<text text-anchor="middle" x="218.5" y="-105.68" font-family="Helvetica,sans-Serif" font-size="10.00">rdcu_compress_data</text>
</a>
</g>
</g>
<!-- Node10&#45;&gt;Node11 -->
<g id="edge13" class="edge">
<title>Node10&#45;&gt;Node11</title>
<path fill="none" stroke="midnightblue" d="M316.25,-132.66C296.09,-127.56 274.81,-122.17 257.36,-117.76"/>
<polygon fill="midnightblue" stroke="midnightblue" points="315.49,-136.07 326.04,-135.13 317.2,-129.29 315.49,-136.07"/>
</g>
<!-- Node11&#45;&gt;Node3 -->
<g id="edge14" class="edge">
<title>Node11&#45;&gt;Node3</title>
<path fill="none" stroke="midnightblue" d="M149.38,-116.37C138.64,-117.66 127.63,-118.98 117.17,-120.24"/>
<polygon fill="midnightblue" stroke="midnightblue" points="150.05,-119.81 159.56,-115.14 149.22,-112.86 150.05,-119.81"/>
</g>
<!-- Node14&#45;&gt;Node3 -->
<g id="edge24" class="edge">
<title>Node14&#45;&gt;Node3</title>
<path fill="none" stroke="midnightblue" d="M309.6,-69.38C263.71,-71.5 204.35,-76.72 153,-89.18 131.2,-94.47 107.83,-103.97 89.9,-112.14"/>
<polygon fill="midnightblue" stroke="midnightblue" points="309.92,-72.87 319.77,-68.95 309.63,-65.88 309.92,-72.87"/>
</g>
<!-- Node14&#45;&gt;Node11 -->
<g id="edge23" class="edge">
<title>Node14&#45;&gt;Node11</title>
<path fill="none" stroke="midnightblue" d="M335.87,-80.14C311.27,-86.06 281.98,-93.12 258.94,-98.67"/>
<polygon fill="midnightblue" stroke="midnightblue" points="336.84,-83.5 345.74,-77.76 335.2,-76.7 336.84,-83.5"/>
</g>
<!-- Node15&#45;&gt;Node5 -->
<g id="edge27" class="edge">
<title>Node15&#45;&gt;Node5</title>
<path fill="none" stroke="midnightblue" d="M333.93,-119.29C329.08,-121.3 324.36,-123.58 320,-126.18 278.76,-150.74 241.76,-195.72 226.68,-215.46"/>
<polygon fill="midnightblue" stroke="midnightblue" points="335.2,-122.55 343.34,-115.77 332.75,-116 335.2,-122.55"/>
</g>
<!-- Node15&#45;&gt;Node11 -->
<g id="edge26" class="edge">
<title>Node15&#45;&gt;Node11</title>
<path fill="none" stroke="midnightblue" d="M320.43,-106.96C306.13,-107.13 291.09,-107.32 277.11,-107.48"/>
<polygon fill="midnightblue" stroke="midnightblue" points="320.73,-110.46 330.69,-106.84 320.64,-103.46 320.73,-110.46"/>
</g>
</g>
</svg>
        <g id="navigator" transform="translate(0 0)" fill="#404254">
                <rect fill="#f2f5e9" fill-opacity="0.5" stroke="#606060" stroke-width=".5" x="0" y="0" width="60" height="60"/>
                <use id="zoomplus" xlink:href="#zoomPlus" x="17" y="9" onmousedown="handleZoom(evt,'in')"/>
                <use id="zoomminus" xlink:href="#zoomMin" x="42" y="9" onmousedown="handleZoom(evt,'out')"/>
                <use id="reset" xlink:href="#resetDef" x="30" y="36" onmousedown="handleReset()"/>
                <g id="arrowUp" xlink:href="#dirArrow" transform="translate(30 24)" onmousedown="handlePan(0,-1)">
                  <use xlink:href="#rim" fill="#404040">
                        <set attributeName="fill" to="#808080" begin="arrowUp.mouseover" end="arrowUp.mouseout"/>
                  </use>
                  <path fill="none" stroke="white" stroke-width="1.5" d="M0,-3.0v7 M-2.5,-0.5L0,-3.0L2.5,-0.5"/>
                </g>
                <g id="arrowRight" xlink:href="#dirArrow" transform="rotate(90) translate(36 -43)" onmousedown="handlePan(1,0)">
                  <use xlink:href="#rim" fill="#404040">
                        <set attributeName="fill" to="#808080" begin="arrowRight.mouseover" end="arrowRight.mouseout"/>
                  </use>
                  <path fill="none" stroke="white" stroke-width="1.5" d="M0,-3.0v7 M-2.5,-0.5L0,-3.0L2.5,-0.5"/>
                </g>
                <g id="arrowDown" xlink:href="#dirArrow" transform="rotate(180) translate(-30 -48)" onmousedown="handlePan(0,1)">
                  <use xlink:href="#rim" fill="#404040">
                        <set attributeName="fill" to="#808080" begin="arrowDown.mouseover" end="arrowDown.mouseout"/>
                  </use>
                  <path fill="none" stroke="white" stroke-width="1.5" d="M0,-3.0v7 M-2.5,-0.5L0,-3.0L2.5,-0.5"/>
                </g>
                <g id="arrowLeft" xlink:href="#dirArrow" transform="rotate(270) translate(-36 17)" onmousedown="handlePan(-1,0)">
                  <use xlink:href="#rim" fill="#404040">
                        <set attributeName="fill" to="#808080" begin="arrowLeft.mouseover" end="arrowLeft.mouseout"/>
                  </use>
                  <path fill="none" stroke="white" stroke-width="1.5" d="M0,-3.0v7 M-2.5,-0.5L0,-3.0L2.5,-0.5"/>
                </g>
        </g>
        <svg viewBox="0 0 15 15" width="100%" height="30px" preserveAspectRatio="xMaxYMin meet">
         <g id="arrow_out" transform="scale(0.3 0.3)">
          <a xlink:href="rdcu__rmap_8h_a2650ed06998d198567938a9e933e1761_a2650ed06998d198567938a9e933e1761_icgraph_org.svg" target="_base">
           <rect id="button" ry="5" rx="5" y="6" x="6" height="38" width="38"
                fill="#f2f5e9" fill-opacity="0.5" stroke="#606060" stroke-width="1.0"/>
           <path id="arrow"
             d="M 11.500037,31.436501 C 11.940474,20.09759 22.043105,11.32322 32.158766,21.979434 L 37.068811,17.246167 C 37.068811,17.246167 37.088388,32 37.088388,32 L 22.160133,31.978069 C 22.160133,31.978069 26.997745,27.140456 26.997745,27.140456 C 18.528582,18.264221 13.291696,25.230495 11.500037,31.436501 z"
             style="fill:#404040;"/>
          </a>
         </g>
        </svg>
</svg>
