<?xml version="1.0" encoding="UTF-8" standalone="no"?>
<!DOCTYPE svg PUBLIC "-//W3C//DTD SVG 1.1//EN"
 "http://www.w3.org/Graphics/SVG/1.1/DTD/svg11.dtd">
<!-- Generated by graphviz version 2.43.0 (0)
 -->
<!-- Title: rdcu_get_compr_data_size_bit Pages: 1 -->
<svg width="288pt" height="78pt"
 viewBox="0.00 0.00 288.00 77.50" xmlns="http://www.w3.org/2000/svg" xmlns:xlink="http://www.w3.org/1999/xlink">
<g id="graph0" class="graph" transform="scale(1 1) rotate(0) translate(4 73.5)">
<title>rdcu_get_compr_data_size_bit</title>
<polygon fill="white" stroke="transparent" points="-4,4 -4,-73.5 284,-73.5 284,4 -4,4"/>
<!-- Node1 -->
<g id="node1" class="node">
<title>Node1</title>
<g id="a_node1"><a xlink:title="get compressed data size in bits">
<polygon fill="#bfbfbf" stroke="black" points="158,-17 158,-47 280,-47 280,-17 158,-17"/>
<text text-anchor="start" x="166" y="-35" font-family="Helvetica,sans-Serif" font-size="10.00">rdcu_get_compr_data</text>
<text text-anchor="middle" x="219" y="-24" font-family="Helvetica,sans-Serif" font-size="10.00">_size_bit</text>
</a>
</g>
</g>
<!-- Node2 -->
<g id="node2" class="node">
<title>Node2</title>
<g id="a_node2"><a xlink:href="rdcu__ctrl_8c_a4a3946c95d251569c864133b8756ef28.html#a4a3946c95d251569c864133b8756ef28" target="_top" xlink:title="get compressed data size in bytes">
<polygon fill="white" stroke="black" points="0,-39 0,-69 122,-69 122,-39 0,-39"/>
<text text-anchor="start" x="8" y="-57" font-family="Helvetica,sans-Serif" font-size="10.00">rdcu_get_compr_data</text>
<text text-anchor="middle" x="61" y="-46" font-family="Helvetica,sans-Serif" font-size="10.00">_size_byte</text>
</a>
</g>
</g>
<!-- Node1&#45;&gt;Node2 -->
<g id="edge1" class="edge">
<title>Node1&#45;&gt;Node2</title>
<path fill="none" stroke="midnightblue" d="M147.74,-41.91C139.2,-43.11 130.53,-44.34 122.15,-45.52"/>
<polygon fill="midnightblue" stroke="midnightblue" points="148.27,-45.37 157.69,-40.51 147.3,-38.44 148.27,-45.37"/>
</g>
<!-- Node3 -->
<g id="node3" class="node">
<title>Node3</title>
<g id="a_node3"><a xlink:href="cmp__rdcu_8h_afb2e10f8b9d9e433d1b4a6a96f930097.html#afb2e10f8b9d9e433d1b4a6a96f930097" target="_top" xlink:title="read out the metadata of an RDCU compression">
<polygon fill="white" stroke="black" points="3.5,-0.5 3.5,-19.5 118.5,-19.5 118.5,-0.5 3.5,-0.5"/>
<text text-anchor="middle" x="61" y="-7.5" font-family="Helvetica,sans-Serif" font-size="10.00">rdcu_read_cmp_info</text>
</a>
</g>
</g>
<!-- Node1&#45;&gt;Node3 -->
<g id="edge2" class="edge">
<title>Node1&#45;&gt;Node3</title>
<path fill="none" stroke="midnightblue" d="M147.63,-22.08C137.9,-20.7 128.01,-19.31 118.57,-17.98"/>
<polygon fill="midnightblue" stroke="midnightblue" points="147.3,-25.56 157.69,-23.49 148.27,-18.63 147.3,-25.56"/>
</g>
</g>
</svg>
