<?xml version="1.0" encoding="UTF-8" standalone="no"?>
<!DOCTYPE svg PUBLIC "-//W3C//DTD SVG 1.1//EN"
 "http://www.w3.org/Graphics/SVG/1.1/DTD/svg11.dtd">
<!-- Generated by graphviz version 2.43.0 (0)
 -->
<!-- Title: rdcu_set_data_compr_start Pages: 1 -->
<svg width="604pt" height="53pt"
 viewBox="0.00 0.00 604.00 52.50" xmlns="http://www.w3.org/2000/svg" xmlns:xlink="http://www.w3.org/1999/xlink">
<g id="graph0" class="graph" transform="scale(1 1) rotate(0) translate(4 48.5)">
<title>rdcu_set_data_compr_start</title>
<polygon fill="white" stroke="transparent" points="-4,4 -4,-48.5 600,-48.5 600,4 -4,4"/>
<!-- Node1 -->
<g id="node1" class="node">
<title>Node1</title>
<g id="a_node1"><a xlink:title="set data compressor start bit">
<polygon fill="#bfbfbf" stroke="black" points="475,-0.5 475,-30.5 596,-30.5 596,-0.5 475,-0.5"/>
<text text-anchor="start" x="483" y="-18.5" font-family="Helvetica,sans-Serif" font-size="10.00">rdcu_set_data_compr</text>
<text text-anchor="middle" x="535.5" y="-7.5" font-family="Helvetica,sans-Serif" font-size="10.00">_start</text>
</a>
</g>
</g>
<!-- Node2 -->
<g id="node2" class="node">
<title>Node2</title>
<g id="a_node2"><a xlink:href="cmp__rdcu_8c_a2816c91a0cc8b4c6c06d9f3531840f28.html#a2816c91a0cc8b4c6c06d9f3531840f28" target="_top" xlink:title="start the RDCU data compressor">
<polygon fill="white" stroke="black" points="306,-6 306,-25 439,-25 439,-6 306,-6"/>
<text text-anchor="middle" x="372.5" y="-13" font-family="Helvetica,sans-Serif" font-size="10.00">rdcu_start_compression</text>
</a>
</g>
</g>
<!-- Node1&#45;&gt;Node2 -->
<g id="edge1" class="edge">
<title>Node1&#45;&gt;Node2</title>
<path fill="none" stroke="midnightblue" d="M464.42,-15.5C456.04,-15.5 447.5,-15.5 439.18,-15.5"/>
<polygon fill="midnightblue" stroke="midnightblue" points="464.55,-19 474.55,-15.5 464.55,-12 464.55,-19"/>
</g>
<!-- Node3 -->
<g id="node3" class="node">
<title>Node3</title>
<g id="a_node3"><a xlink:href="cmp__rdcu_8h_a85aeb890a333d637dd7ffba03729e93a.html#a85aeb890a333d637dd7ffba03729e93a" target="_top" xlink:title="compressing data with the help of the RDCU hardware compressor">
<polygon fill="white" stroke="black" points="153,-25 153,-44 270,-44 270,-25 153,-25"/>
<text text-anchor="middle" x="211.5" y="-32" font-family="Helvetica,sans-Serif" font-size="10.00">rdcu_compress_data</text>
</a>
</g>
</g>
<!-- Node2&#45;&gt;Node3 -->
<g id="edge2" class="edge">
<title>Node2&#45;&gt;Node3</title>
<path fill="none" stroke="midnightblue" d="M295.8,-24.55C287.14,-25.58 278.43,-26.62 270.06,-27.62"/>
<polygon fill="midnightblue" stroke="midnightblue" points="296.4,-28 305.91,-23.34 295.57,-21.05 296.4,-28"/>
</g>
<!-- Node4 -->
<g id="node4" class="node">
<title>Node4</title>
<g id="a_node4"><a xlink:href="cmp__rdcu_8c_ab69cf44ac326e0cebdef002e8f2ea2cb.html#ab69cf44ac326e0cebdef002e8f2ea2cb" target="_top" xlink:title="compressing data with the help of the RDCU hardware compressor; read data from the last compression b...">
<polygon fill="white" stroke="black" points="0,-0.5 0,-30.5 117,-30.5 117,-0.5 0,-0.5"/>
<text text-anchor="start" x="8" y="-18.5" font-family="Helvetica,sans-Serif" font-size="10.00">rdcu_compress_data</text>
<text text-anchor="middle" x="58.5" y="-7.5" font-family="Helvetica,sans-Serif" font-size="10.00">_parallel</text>
</a>
</g>
</g>
<!-- Node2&#45;&gt;Node4 -->
<g id="edge4" class="edge">
<title>Node2&#45;&gt;Node4</title>
<path fill="none" stroke="midnightblue" d="M295.66,-15.5C240.63,-15.5 167.32,-15.5 117.07,-15.5"/>
<polygon fill="midnightblue" stroke="midnightblue" points="295.71,-19 305.71,-15.5 295.71,-12 295.71,-19"/>
</g>
<!-- Node3&#45;&gt;Node4 -->
<g id="edge3" class="edge">
<title>Node3&#45;&gt;Node4</title>
<path fill="none" stroke="midnightblue" d="M142.95,-26C134.32,-24.91 125.56,-23.81 117.11,-22.75"/>
<polygon fill="midnightblue" stroke="midnightblue" points="142.62,-29.49 152.98,-27.26 143.5,-22.54 142.62,-29.49"/>
</g>
</g>
</svg>
