<?xml version="1.0" encoding="UTF-8" standalone="no"?>
<!DOCTYPE svg PUBLIC "-//W3C//DTD SVG 1.1//EN"
 "http://www.w3.org/Graphics/SVG/1.1/DTD/svg11.dtd">
<!-- Generated by graphviz version 2.43.0 (0)
 -->
<!-- Title: rdcu_sync_compr_ctrl Pages: 1 -->
<!--zoomable 97 -->
<svg id="main" version="1.1" xmlns="http://www.w3.org/2000/svg" xmlns:xlink="http://www.w3.org/1999/xlink" xml:space="preserve" onload="init(evt)">
<style type="text/css"><![CDATA[
.edge:hover path { stroke: red; }
.edge:hover polygon { stroke: red; fill: red; }
]]></style>
<script type="text/javascript"><![CDATA[
var edges = document.getElementsByTagName('g');
if (edges && edges.length) {
  for (var i=0;i<edges.length;i++) {
    if (edges[i].id.substr(0,4)=='edge') {
      edges[i].setAttribute('class','edge');
    }
  }
}
]]></script>
        <defs>
                <circle id="rim" cx="0" cy="0" r="7"/>
                <circle id="rim2" cx="0" cy="0" r="3.5"/>
                <g id="zoomPlus">
                        <use xlink:href="#rim" fill="#404040">
                                <set attributeName="fill" to="#808080" begin="zoomplus.mouseover" end="zoomplus.mouseout"/>
                        </use>
                        <path d="M-4,0h8M0,-4v8" fill="none" stroke="white" stroke-width="1.5" pointer-events="none"/>
                </g>
                <g id="zoomMin">
                        <use xlink:href="#rim" fill="#404040">
                                <set attributeName="fill" to="#808080" begin="zoomminus.mouseover" end="zoomminus.mouseout"/>
                        </use>
                        <path d="M-4,0h8" fill="none" stroke="white" stroke-width="1.5" pointer-events="none"/>
                </g>
                <g id="dirArrow">
                        <path fill="none" stroke="white" stroke-width="1.5" d="M0,-3.0v7 M-2.5,-0.5L0,-3.0L2.5,-0.5"/>
                </g>
               <g id="resetDef">
                       <use xlink:href="#rim2" fill="#404040">
                               <set attributeName="fill" to="#808080" begin="reset.mouseover" end="reset.mouseout"/>
                       </use>
               </g>
        </defs>

<script type="text/javascript">
var viewWidth = 803;
var viewHeight = 97;
var sectionId = 'dynsection-1';
</script>
<script xlink:href="svgpan.js"/>
<svg id="graph" class="graph">
<g id="viewport">
<title>rdcu_sync_compr_ctrl</title>
<polygon fill="white" stroke="transparent" points="-4,4 -4,-92.71 799,-92.71 799,4 -4,4"/>
<!-- Node1 -->
<g id="node1" class="node">
<title>Node1</title>
<g id="a_node1"><a xlink:title="sync the Compressor Control register (write only)">
<polygon fill="#bfbfbf" stroke="black" points="673,-29.22 673,-48.22 795,-48.22 795,-29.22 673,-29.22"/>
<text text-anchor="middle" x="734" y="-36.22" font-family="Helvetica,sans-Serif" font-size="10.00">rdcu_sync_compr_ctrl</text>
</a>
</g>
</g>
<!-- Node2 -->
<g id="node2" class="node">
<title>Node2</title>
<g id="a_node2"><a xlink:href="cmp__rdcu_8h_a0ef52214c3b0da6e9fbc56d7fa05c971.html#a0ef52214c3b0da6e9fbc56d7fa05c971" target="_top" xlink:title="interrupt a data compression">
<polygon fill="white" stroke="black" points="485,-49.22 485,-68.22 637,-68.22 637,-49.22 485,-49.22"/>
<text text-anchor="middle" x="561" y="-56.22" font-family="Helvetica,sans-Serif" font-size="10.00">rdcu_interrupt_compression</text>
</a>
</g>
</g>
<!-- Node1&#45;&gt;Node2 -->
<g id="edge1" class="edge">
<title>Node1&#45;&gt;Node2</title>
<path fill="none" stroke="midnightblue" d="M662.56,-46.96C654.14,-47.95 645.51,-48.95 637.03,-49.95"/>
<polygon fill="midnightblue" stroke="midnightblue" points="663.19,-50.41 672.71,-45.77 662.37,-43.46 663.19,-50.41"/>
</g>
<!-- Node7 -->
<g id="node7" class="node">
<title>Node7</title>
<g id="a_node7"><a xlink:href="cmp__rdcu_8c_a2816c91a0cc8b4c6c06d9f3531840f28.html#a2816c91a0cc8b4c6c06d9f3531840f28" target="_top" xlink:title="start the RDCU data compressor">
<polygon fill="white" stroke="black" points="316,-7.22 316,-26.22 449,-26.22 449,-7.22 316,-7.22"/>
<text text-anchor="middle" x="382.5" y="-14.22" font-family="Helvetica,sans-Serif" font-size="10.00">rdcu_start_compression</text>
</a>
</g>
</g>
<!-- Node1&#45;&gt;Node7 -->
<g id="edge7" class="edge">
<title>Node1&#45;&gt;Node7</title>
<path fill="none" stroke="midnightblue" d="M662.77,-34.3C600.4,-30.38 509.94,-24.68 449.03,-20.85"/>
<polygon fill="midnightblue" stroke="midnightblue" points="662.72,-37.81 672.92,-34.94 663.16,-30.82 662.72,-37.81"/>
</g>
<!-- Node3 -->
<g id="node3" class="node">
<title>Node3</title>
<g id="a_node3"><a xlink:href="cmp__rdcu_8c_a1b450ab652a1da5f914786ce577458f9.html#a1b450ab652a1da5f914786ce577458f9" target="_top" xlink:title="set up RDCU compression register">
<polygon fill="white" stroke="black" points="320,-45.72 320,-75.72 445,-75.72 445,-45.72 320,-45.72"/>
<text text-anchor="start" x="328" y="-63.72" font-family="Helvetica,sans-Serif" font-size="10.00">rdcu_set_compression</text>
<text text-anchor="middle" x="382.5" y="-52.72" font-family="Helvetica,sans-Serif" font-size="10.00">_register</text>
</a>
</g>
</g>
<!-- Node2&#45;&gt;Node3 -->
<g id="edge2" class="edge">
<title>Node2&#45;&gt;Node3</title>
<path fill="none" stroke="midnightblue" d="M474.6,-59.69C464.69,-59.8 454.73,-59.92 445.22,-60.02"/>
<polygon fill="midnightblue" stroke="midnightblue" points="474.93,-63.19 484.89,-59.57 474.85,-56.19 474.93,-63.19"/>
</g>
<!-- Node4 -->
<g id="node4" class="node">
<title>Node4</title>
<g id="a_node4"><a xlink:href="cmp__rdcu_8h_a85aeb890a333d637dd7ffba03729e93a.html#a85aeb890a333d637dd7ffba03729e93a" target="_top" xlink:title="compressing data with the help of the RDCU hardware compressor">
<polygon fill="white" stroke="black" points="158,-13.22 158,-32.22 275,-32.22 275,-13.22 158,-13.22"/>
<text text-anchor="middle" x="216.5" y="-20.22" font-family="Helvetica,sans-Serif" font-size="10.00">rdcu_compress_data</text>
</a>
</g>
</g>
<!-- Node3&#45;&gt;Node4 -->
<g id="edge3" class="edge">
<title>Node3&#45;&gt;Node4</title>
<path fill="none" stroke="midnightblue" d="M309.82,-44.11C292.43,-40.09 274.42,-35.91 258.96,-32.33"/>
<polygon fill="midnightblue" stroke="midnightblue" points="309.43,-47.62 319.97,-46.46 311.01,-40.8 309.43,-47.62"/>
</g>
<!-- Node5 -->
<g id="node5" class="node">
<title>Node5</title>
<g id="a_node5"><a xlink:href="cmp__rdcu_8c_ab69cf44ac326e0cebdef002e8f2ea2cb.html#ab69cf44ac326e0cebdef002e8f2ea2cb" target="_top" xlink:title="compressing data with the help of the RDCU hardware compressor; read data from the last compression b...">
<polygon fill="white" stroke="black" points="0,-7.72 0,-37.72 117,-37.72 117,-7.72 0,-7.72"/>
<text text-anchor="start" x="8" y="-25.72" font-family="Helvetica,sans-Serif" font-size="10.00">rdcu_compress_data</text>
<text text-anchor="middle" x="58.5" y="-14.72" font-family="Helvetica,sans-Serif" font-size="10.00">_parallel</text>
</a>
</g>
</g>
<!-- Node3&#45;&gt;Node5 -->
<g id="edge5" class="edge">
<title>Node3&#45;&gt;Node5</title>
<path fill="none" stroke="midnightblue" d="M317.45,-77.94C271,-87.58 207.09,-94.91 153,-79.72 124.08,-71.6 95.24,-51.79 77.4,-37.82"/>
<polygon fill="midnightblue" stroke="midnightblue" points="318.35,-81.32 327.38,-75.79 316.87,-74.48 318.35,-81.32"/>
</g>
<!-- Node6 -->
<g id="node6" class="node">
<title>Node6</title>
<g id="a_node6"><a xlink:href="cmp__rdcu_8c_af59f75c76a057d49a54b54800dc59556.html#af59f75c76a057d49a54b54800dc59556" target="_top" xlink:title="inject a SRAM edac multi bit error into the RDCU SRAM">
<polygon fill="white" stroke="black" points="153,-51.22 153,-70.22 280,-70.22 280,-51.22 153,-51.22"/>
<text text-anchor="middle" x="216.5" y="-58.22" font-family="Helvetica,sans-Serif" font-size="10.00">rdcu_inject_edac_error</text>
</a>
</g>
</g>
<!-- Node3&#45;&gt;Node6 -->
<g id="edge6" class="edge">
<title>Node3&#45;&gt;Node6</title>
<path fill="none" stroke="midnightblue" d="M309.79,-60.72C299.93,-60.72 289.88,-60.72 280.2,-60.72"/>
<polygon fill="midnightblue" stroke="midnightblue" points="309.97,-64.22 319.97,-60.72 309.97,-57.22 309.97,-64.22"/>
</g>
<!-- Node4&#45;&gt;Node5 -->
<g id="edge4" class="edge">
<title>Node4&#45;&gt;Node5</title>
<path fill="none" stroke="midnightblue" d="M147.76,-22.72C137.57,-22.72 127.13,-22.72 117.17,-22.72"/>
<polygon fill="midnightblue" stroke="midnightblue" points="147.85,-26.22 157.85,-22.72 147.85,-19.22 147.85,-26.22"/>
</g>
<!-- Node7&#45;&gt;Node4 -->
<g id="edge8" class="edge">
<title>Node7&#45;&gt;Node4</title>
<path fill="none" stroke="midnightblue" d="M305.56,-19.5C295.31,-19.88 284.93,-20.26 275.08,-20.62"/>
<polygon fill="midnightblue" stroke="midnightblue" points="305.87,-22.99 315.74,-19.13 305.62,-16 305.87,-22.99"/>
</g>
<!-- Node7&#45;&gt;Node5 -->
<g id="edge9" class="edge">
<title>Node7&#45;&gt;Node5</title>
<path fill="none" stroke="midnightblue" d="M306.8,-6.06C297.78,-5.1 288.7,-4.28 280,-3.72 223.67,-0.13 209.16,1.93 153,-3.72 141.3,-4.9 128.9,-6.88 117.08,-9.14"/>
<polygon fill="midnightblue" stroke="midnightblue" points="306.58,-9.56 316.91,-7.2 307.37,-2.6 306.58,-9.56"/>
</g>
</g>
</svg>
        <g id="navigator" transform="translate(0 0)" fill="#404254">
                <rect fill="#f2f5e9" fill-opacity="0.5" stroke="#606060" stroke-width=".5" x="0" y="0" width="60" height="60"/>
                <use id="zoomplus" xlink:href="#zoomPlus" x="17" y="9" onmousedown="handleZoom(evt,'in')"/>
                <use id="zoomminus" xlink:href="#zoomMin" x="42" y="9" onmousedown="handleZoom(evt,'out')"/>
                <use id="reset" xlink:href="#resetDef" x="30" y="36" onmousedown="handleReset()"/>
                <g id="arrowUp" xlink:href="#dirArrow" transform="translate(30 24)" onmousedown="handlePan(0,-1)">
                  <use xlink:href="#rim" fill="#404040">
                        <set attributeName="fill" to="#808080" begin="arrowUp.mouseover" end="arrowUp.mouseout"/>
                  </use>
                  <path fill="none" stroke="white" stroke-width="1.5" d="M0,-3.0v7 M-2.5,-0.5L0,-3.0L2.5,-0.5"/>
                </g>
                <g id="arrowRight" xlink:href="#dirArrow" transform="rotate(90) translate(36 -43)" onmousedown="handlePan(1,0)">
                  <use xlink:href="#rim" fill="#404040">
                        <set attributeName="fill" to="#808080" begin="arrowRight.mouseover" end="arrowRight.mouseout"/>
                  </use>
                  <path fill="none" stroke="white" stroke-width="1.5" d="M0,-3.0v7 M-2.5,-0.5L0,-3.0L2.5,-0.5"/>
                </g>
                <g id="arrowDown" xlink:href="#dirArrow" transform="rotate(180) translate(-30 -48)" onmousedown="handlePan(0,1)">
                  <use xlink:href="#rim" fill="#404040">
                        <set attributeName="fill" to="#808080" begin="arrowDown.mouseover" end="arrowDown.mouseout"/>
                  </use>
                  <path fill="none" stroke="white" stroke-width="1.5" d="M0,-3.0v7 M-2.5,-0.5L0,-3.0L2.5,-0.5"/>
                </g>
                <g id="arrowLeft" xlink:href="#dirArrow" transform="rotate(270) translate(-36 17)" onmousedown="handlePan(-1,0)">
                  <use xlink:href="#rim" fill="#404040">
                        <set attributeName="fill" to="#808080" begin="arrowLeft.mouseover" end="arrowLeft.mouseout"/>
                  </use>
                  <path fill="none" stroke="white" stroke-width="1.5" d="M0,-3.0v7 M-2.5,-0.5L0,-3.0L2.5,-0.5"/>
                </g>
        </g>
        <svg viewBox="0 0 15 15" width="100%" height="30px" preserveAspectRatio="xMaxYMin meet">
         <g id="arrow_out" transform="scale(0.3 0.3)">
          <a xlink:href="rdcu__ctrl_8c_a40aa43367024873e61200a4e3e28cd9a_a40aa43367024873e61200a4e3e28cd9a_icgraph_org.svg" target="_base">
           <rect id="button" ry="5" rx="5" y="6" x="6" height="38" width="38"
                fill="#f2f5e9" fill-opacity="0.5" stroke="#606060" stroke-width="1.0"/>
           <path id="arrow"
             d="M 11.500037,31.436501 C 11.940474,20.09759 22.043105,11.32322 32.158766,21.979434 L 37.068811,17.246167 C 37.068811,17.246167 37.088388,32 37.088388,32 L 22.160133,31.978069 C 22.160133,31.978069 26.997745,27.140456 26.997745,27.140456 C 18.528582,18.264221 13.291696,25.230495 11.500037,31.436501 z"
             style="fill:#404040;"/>
          </a>
         </g>
        </svg>
</svg>
