<?xml version="1.0" encoding="UTF-8" standalone="no"?>
<!DOCTYPE svg PUBLIC "-//W3C//DTD SVG 1.1//EN"
 "http://www.w3.org/Graphics/SVG/1.1/DTD/svg11.dtd">
<!-- Generated by graphviz version 2.43.0 (0)
 -->
<!-- Title: rdcu_sync_rmap_no_reply_err_cntrs Pages: 1 -->
<!--zoomable 750 -->
<svg id="main" version="1.1" xmlns="http://www.w3.org/2000/svg" xmlns:xlink="http://www.w3.org/1999/xlink" xml:space="preserve" onload="init(evt)">
<style type="text/css"><![CDATA[
.edge:hover path { stroke: red; }
.edge:hover polygon { stroke: red; fill: red; }
]]></style>
<script type="text/javascript"><![CDATA[
var edges = document.getElementsByTagName('g');
if (edges && edges.length) {
  for (var i=0;i<edges.length;i++) {
    if (edges[i].id.substr(0,4)=='edge') {
      edges[i].setAttribute('class','edge');
    }
  }
}
]]></script>
        <defs>
                <circle id="rim" cx="0" cy="0" r="7"/>
                <circle id="rim2" cx="0" cy="0" r="3.5"/>
                <g id="zoomPlus">
                        <use xlink:href="#rim" fill="#404040">
                                <set attributeName="fill" to="#808080" begin="zoomplus.mouseover" end="zoomplus.mouseout"/>
                        </use>
                        <path d="M-4,0h8M0,-4v8" fill="none" stroke="white" stroke-width="1.5" pointer-events="none"/>
                </g>
                <g id="zoomMin">
                        <use xlink:href="#rim" fill="#404040">
                                <set attributeName="fill" to="#808080" begin="zoomminus.mouseover" end="zoomminus.mouseout"/>
                        </use>
                        <path d="M-4,0h8" fill="none" stroke="white" stroke-width="1.5" pointer-events="none"/>
                </g>
                <g id="dirArrow">
                        <path fill="none" stroke="white" stroke-width="1.5" d="M0,-3.0v7 M-2.5,-0.5L0,-3.0L2.5,-0.5"/>
                </g>
               <g id="resetDef">
                       <use xlink:href="#rim2" fill="#404040">
                               <set attributeName="fill" to="#808080" begin="reset.mouseover" end="reset.mouseout"/>
                       </use>
               </g>
        </defs>

<script type="text/javascript">
var viewWidth = 1128;
var viewHeight = 750;
var sectionId = 'dynsection-0';
</script>
<script xlink:href="svgpan.js"/>
<svg id="graph" class="graph">
<g id="viewport">
<title>rdcu_sync_rmap_no_reply_err_cntrs</title>
<polygon fill="white" stroke="transparent" points="-4,4 -4,-746 1124,-746 1124,4 -4,4"/>
<!-- Node1 -->
<g id="node1" class="node">
<title>Node1</title>
<g id="a_node1"><a xlink:title="sync the RMAP No&#45;Reply Error Counter register (read only)">
<polygon fill="#bfbfbf" stroke="black" points="0,-264 0,-294 143,-294 143,-264 0,-264"/>
<text text-anchor="start" x="8" y="-282" font-family="Helvetica,sans-Serif" font-size="10.00">rdcu_sync_rmap_no_reply</text>
<text text-anchor="middle" x="71.5" y="-271" font-family="Helvetica,sans-Serif" font-size="10.00">_err_cntrs</text>
</a>
</g>
</g>
<!-- Node2 -->
<g id="node2" class="node">
<title>Node2</title>
<g id="a_node2"><a xlink:href="rdcu__cmd_8c_ac6d3b0a97d702950111f86e5c9deaa18.html#ac6d3b0a97d702950111f86e5c9deaa18" target="_top" xlink:title="create a command to read the RDCU RMAP no reply error counter register">
<polygon fill="white" stroke="black" points="179,-387 179,-417 301,-417 301,-387 179,-387"/>
<text text-anchor="start" x="187" y="-405" font-family="Helvetica,sans-Serif" font-size="10.00">rdcu_read_cmd_rmap</text>
<text text-anchor="middle" x="240" y="-394" font-family="Helvetica,sans-Serif" font-size="10.00">_no_reply_err_cntrs</text>
</a>
</g>
</g>
<!-- Node1&#45;&gt;Node2 -->
<g id="edge1" class="edge">
<title>Node1&#45;&gt;Node2</title>
<path fill="none" stroke="midnightblue" d="M92.92,-294.08C122.33,-315.81 176.76,-356.02 210.24,-380.75"/>
<polygon fill="midnightblue" stroke="midnightblue" points="208.55,-383.86 218.68,-386.99 212.71,-378.23 208.55,-383.86"/>
</g>
<!-- Node20 -->
<g id="node20" class="node">
<title>Node20</title>
<g id="a_node20"><a xlink:href="rdcu__rmap_8c_a533d1eb248d83ba3d406cefe7f3c9eb9.html#a533d1eb248d83ba3d406cefe7f3c9eb9" target="_top" xlink:title="submit a sync command">
<polygon fill="white" stroke="black" points="207.5,-247.5 207.5,-266.5 272.5,-266.5 272.5,-247.5 207.5,-247.5"/>
<text text-anchor="middle" x="240" y="-254.5" font-family="Helvetica,sans-Serif" font-size="10.00">rdcu_sync</text>
</a>
</g>
</g>
<!-- Node1&#45;&gt;Node20 -->
<g id="edge20" class="edge">
<title>Node1&#45;&gt;Node20</title>
<path fill="none" stroke="midnightblue" d="M143.11,-269.67C161.43,-267.25 180.59,-264.72 196.92,-262.56"/>
<polygon fill="midnightblue" stroke="midnightblue" points="197.76,-265.98 207.21,-261.2 196.84,-259.04 197.76,-265.98"/>
</g>
<!-- Node3 -->
<g id="node3" class="node">
<title>Node3</title>
<g id="a_node3"><a xlink:href="rdcu__cmd_8c_a3274188041d4484130e893afc5f1630f.html#a3274188041d4484130e893afc5f1630f" target="_top" xlink:title="generate a read command for an arbitrary register (internal)">
<polygon fill="white" stroke="black" points="337,-438 337,-468 471,-468 471,-438 337,-438"/>
<text text-anchor="start" x="345" y="-456" font-family="Helvetica,sans-Serif" font-size="10.00">rdcu_read_cmd_register</text>
<text text-anchor="middle" x="404" y="-445" font-family="Helvetica,sans-Serif" font-size="10.00">_internal</text>
</a>
</g>
</g>
<!-- Node2&#45;&gt;Node3 -->
<g id="edge2" class="edge">
<title>Node2&#45;&gt;Node3</title>
<path fill="none" stroke="midnightblue" d="M288.73,-417.03C306.61,-422.66 327.11,-429.11 345.77,-434.98"/>
<polygon fill="midnightblue" stroke="midnightblue" points="344.74,-438.33 355.33,-437.99 346.84,-431.65 344.74,-438.33"/>
</g>
<!-- Node4 -->
<g id="node4" class="node">
<title>Node4</title>
<g id="a_node4"><a xlink:href="rdcu__rmap_8c_ab224927e85a7cec5b6f90292c7de36c4.html#ab224927e85a7cec5b6f90292c7de36c4" target="_top" xlink:title="generate an rmap command packet">
<polygon fill="white" stroke="black" points="511,-494.5 511,-513.5 598,-513.5 598,-494.5 511,-494.5"/>
<text text-anchor="middle" x="554.5" y="-501.5" font-family="Helvetica,sans-Serif" font-size="10.00">rdcu_gen_cmd</text>
</a>
</g>
</g>
<!-- Node3&#45;&gt;Node4 -->
<g id="edge3" class="edge">
<title>Node3&#45;&gt;Node4</title>
<path fill="none" stroke="midnightblue" d="M448.75,-468.03C470.07,-475.35 495.46,-484.07 515.9,-491.09"/>
<polygon fill="midnightblue" stroke="midnightblue" points="514.9,-494.44 525.49,-494.38 517.17,-487.82 514.9,-494.44"/>
</g>
<!-- Node5 -->
<g id="node5" class="node">
<title>Node5</title>
<g id="a_node5"><a xlink:href="rmap_8c_aa17375d153cc3473cbbe4dfe1056c527.html#aa17375d153cc3473cbbe4dfe1056c527" target="_top" xlink:title="build an rmap header">
<polygon fill="white" stroke="black" points="655,-646.5 655,-665.5 747,-665.5 747,-646.5 655,-646.5"/>
<text text-anchor="middle" x="701" y="-653.5" font-family="Helvetica,sans-Serif" font-size="10.00">rmap_build_hdr</text>
</a>
</g>
</g>
<!-- Node4&#45;&gt;Node5 -->
<g id="edge4" class="edge">
<title>Node4&#45;&gt;Node5</title>
<path fill="none" stroke="midnightblue" d="M558.76,-513.68C567.52,-538.17 593.88,-603 638,-637 640.34,-638.8 642.85,-640.44 645.48,-641.92"/>
<polygon fill="midnightblue" stroke="midnightblue" points="644.22,-645.19 654.75,-646.38 647.25,-638.89 644.22,-645.19"/>
</g>
<!-- Node7 -->
<g id="node7" class="node">
<title>Node7</title>
<g id="a_node7"><a xlink:href="rmap_8c_aba944cf978de0b264ea5bb3a784bce0f.html#aba944cf978de0b264ea5bb3a784bce0f" target="_top" xlink:title="create an RMAP packet and set defaults">
<polygon fill="white" stroke="black" points="813,-437.5 813,-456.5 929,-456.5 929,-437.5 813,-437.5"/>
<text text-anchor="middle" x="871" y="-444.5" font-family="Helvetica,sans-Serif" font-size="10.00">rmap_create_packet</text>
</a>
</g>
</g>
<!-- Node4&#45;&gt;Node7 -->
<g id="edge6" class="edge">
<title>Node4&#45;&gt;Node7</title>
<path fill="none" stroke="midnightblue" d="M583.93,-513.53C624.8,-525.69 702.06,-542.91 764,-523 800.03,-511.42 834.19,-482.57 853.57,-463.93"/>
<polygon fill="midnightblue" stroke="midnightblue" points="856.28,-466.17 860.93,-456.65 851.36,-461.19 856.28,-466.17"/>
</g>
<!-- Node8 -->
<g id="node8" class="node">
<title>Node8</title>
<g id="a_node8"><a xlink:href="rmap_8c_a1def9af549819e7fdbda12af8bdc9c0e.html#a1def9af549819e7fdbda12af8bdc9c0e" target="_top" xlink:title="completely destroys an RMAP packet">
<polygon fill="white" stroke="black" points="645,-228.5 645,-247.5 757,-247.5 757,-228.5 645,-228.5"/>
<text text-anchor="middle" x="701" y="-235.5" font-family="Helvetica,sans-Serif" font-size="10.00">rmap_erase_packet</text>
</a>
</g>
</g>
<!-- Node4&#45;&gt;Node8 -->
<g id="edge7" class="edge">
<title>Node4&#45;&gt;Node8</title>
<path fill="none" stroke="midnightblue" d="M557.72,-494.09C565.09,-462.7 590.97,-363.5 638,-295 649,-278.98 665.29,-264.23 678.41,-253.75"/>
<polygon fill="midnightblue" stroke="midnightblue" points="680.71,-256.4 686.48,-247.51 676.43,-250.86 680.71,-256.4"/>
</g>
<!-- Node9 -->
<g id="node9" class="node">
<title>Node9</title>
<g id="a_node9"><a xlink:href="rmap_8c_aab7e23f061291d39568ad2df700bc777.html#aab7e23f061291d39568ad2df700bc777" target="_top" xlink:title="set an RMAP command">
<polygon fill="white" stroke="black" points="656.5,-684.5 656.5,-703.5 745.5,-703.5 745.5,-684.5 656.5,-684.5"/>
<text text-anchor="middle" x="701" y="-691.5" font-family="Helvetica,sans-Serif" font-size="10.00">rmap_set_cmd</text>
</a>
</g>
</g>
<!-- Node4&#45;&gt;Node9 -->
<g id="edge8" class="edge">
<title>Node4&#45;&gt;Node9</title>
<path fill="none" stroke="midnightblue" d="M557.36,-513.79C563.4,-542.91 585.23,-629.7 638,-675 640.81,-677.42 643.93,-679.52 647.22,-681.36"/>
<polygon fill="midnightblue" stroke="midnightblue" points="645.74,-684.53 656.27,-685.64 648.72,-678.2 645.74,-684.53"/>
</g>
<!-- Node11 -->
<g id="node11" class="node">
<title>Node11</title>
<g id="a_node11"><a xlink:href="rmap_8c_acf641aae92829ae864b6c3d8f94d86e2.html#acf641aae92829ae864b6c3d8f94d86e2" target="_top" xlink:title="set a data address">
<polygon fill="white" stroke="black" points="643,-608.5 643,-627.5 759,-627.5 759,-608.5 643,-608.5"/>
<text text-anchor="middle" x="701" y="-615.5" font-family="Helvetica,sans-Serif" font-size="10.00">rmap_set_data_addr</text>
</a>
</g>
</g>
<!-- Node4&#45;&gt;Node11 -->
<g id="edge10" class="edge">
<title>Node4&#45;&gt;Node11</title>
<path fill="none" stroke="midnightblue" d="M561.24,-513.66C573.11,-532.81 602.29,-575.78 638,-599 641.16,-601.05 644.55,-602.9 648.06,-604.55"/>
<polygon fill="midnightblue" stroke="midnightblue" points="646.98,-607.88 657.56,-608.48 649.66,-601.42 646.98,-607.88"/>
</g>
<!-- Node12 -->
<g id="node12" class="node">
<title>Node12</title>
<g id="a_node12"><a xlink:href="rmap_8c_a6833f065640f652aa1a929309e592f7a.html#a6833f065640f652aa1a929309e592f7a" target="_top" xlink:title="set an RMAP command">
<polygon fill="white" stroke="black" points="646,-570.5 646,-589.5 756,-589.5 756,-570.5 646,-570.5"/>
<text text-anchor="middle" x="701" y="-577.5" font-family="Helvetica,sans-Serif" font-size="10.00">rmap_set_data_len</text>
</a>
</g>
</g>
<!-- Node4&#45;&gt;Node12 -->
<g id="edge11" class="edge">
<title>Node4&#45;&gt;Node12</title>
<path fill="none" stroke="midnightblue" d="M569.04,-513.68C585,-524.82 612.59,-543.22 638,-556 645.78,-559.91 654.36,-563.6 662.6,-566.87"/>
<polygon fill="midnightblue" stroke="midnightblue" points="661.45,-570.17 672.04,-570.48 663.95,-563.64 661.45,-570.17"/>
</g>
<!-- Node13 -->
<g id="node13" class="node">
<title>Node13</title>
<g id="a_node13"><a xlink:href="rmap_8c_a5f0081b9928da5e50fc8b231b57f3a80.html#a5f0081b9928da5e50fc8b231b57f3a80" target="_top" xlink:title="set the destination address path">
<polygon fill="white" stroke="black" points="643,-342.5 643,-361.5 759,-361.5 759,-342.5 643,-342.5"/>
<text text-anchor="middle" x="701" y="-349.5" font-family="Helvetica,sans-Serif" font-size="10.00">rmap_set_dest_path</text>
</a>
</g>
</g>
<!-- Node4&#45;&gt;Node13 -->
<g id="edge12" class="edge">
<title>Node4&#45;&gt;Node13</title>
<path fill="none" stroke="midnightblue" d="M558.76,-494.32C567.52,-469.83 593.88,-405 638,-371 640.34,-369.2 642.85,-367.56 645.48,-366.08"/>
<polygon fill="midnightblue" stroke="midnightblue" points="647.25,-369.11 654.75,-361.62 644.22,-362.81 647.25,-369.11"/>
</g>
<!-- Node15 -->
<g id="node15" class="node">
<title>Node15</title>
<g id="a_node15"><a xlink:href="rmap_8c_a2da8e7b48411d382b54848795f85795d.html#a2da8e7b48411d382b54848795f85795d" target="_top" xlink:title="set the destination (target) logical address">
<polygon fill="white" stroke="black" points="659.5,-494.5 659.5,-513.5 742.5,-513.5 742.5,-494.5 659.5,-494.5"/>
<text text-anchor="middle" x="701" y="-501.5" font-family="Helvetica,sans-Serif" font-size="10.00">rmap_set_dst</text>
</a>
</g>
</g>
<!-- Node4&#45;&gt;Node15 -->
<g id="edge14" class="edge">
<title>Node4&#45;&gt;Node15</title>
<path fill="none" stroke="midnightblue" d="M598.07,-504C614.07,-504 632.41,-504 649.09,-504"/>
<polygon fill="midnightblue" stroke="midnightblue" points="649.22,-507.5 659.22,-504 649.22,-500.5 649.22,-507.5"/>
</g>
<!-- Node16 -->
<g id="node16" class="node">
<title>Node16</title>
<g id="a_node16"><a xlink:href="rmap_8c_a15021c9dfccddc44786dfd37834bcd7e.html#a15021c9dfccddc44786dfd37834bcd7e" target="_top" xlink:title="set the command authorisation key">
<polygon fill="white" stroke="black" points="658.5,-456.5 658.5,-475.5 743.5,-475.5 743.5,-456.5 658.5,-456.5"/>
<text text-anchor="middle" x="701" y="-463.5" font-family="Helvetica,sans-Serif" font-size="10.00">rmap_set_key</text>
</a>
</g>
</g>
<!-- Node4&#45;&gt;Node16 -->
<g id="edge15" class="edge">
<title>Node4&#45;&gt;Node16</title>
<path fill="none" stroke="midnightblue" d="M591.96,-494.41C610.77,-489.46 633.91,-483.38 653.95,-478.11"/>
<polygon fill="midnightblue" stroke="midnightblue" points="655.02,-481.45 663.8,-475.52 653.24,-474.68 655.02,-481.45"/>
</g>
<!-- Node17 -->
<g id="node17" class="node">
<title>Node17</title>
<g id="a_node17"><a xlink:href="rmap_8c_a56c47830e67d01e469231e5e7e1d3a34.html#a56c47830e67d01e469231e5e7e1d3a34" target="_top" xlink:title="set the reply address path">
<polygon fill="white" stroke="black" points="641.5,-304.5 641.5,-323.5 760.5,-323.5 760.5,-304.5 641.5,-304.5"/>
<text text-anchor="middle" x="701" y="-311.5" font-family="Helvetica,sans-Serif" font-size="10.00">rmap_set_reply_path</text>
</a>
</g>
</g>
<!-- Node4&#45;&gt;Node17 -->
<g id="edge16" class="edge">
<title>Node4&#45;&gt;Node17</title>
<path fill="none" stroke="midnightblue" d="M557.36,-494.21C563.4,-465.09 585.23,-378.3 638,-333 639.98,-331.3 642.11,-329.75 644.35,-328.34"/>
<polygon fill="midnightblue" stroke="midnightblue" points="646.2,-331.32 653.41,-323.56 642.93,-325.13 646.2,-331.32"/>
</g>
<!-- Node18 -->
<g id="node18" class="node">
<title>Node18</title>
<g id="a_node18"><a xlink:href="rmap_8c_adae0030440ca4e7ad34622e505acbb2c.html#adae0030440ca4e7ad34622e505acbb2c" target="_top" xlink:title="set the source (initiator) logical address">
<polygon fill="white" stroke="black" points="660,-418.5 660,-437.5 742,-437.5 742,-418.5 660,-418.5"/>
<text text-anchor="middle" x="701" y="-425.5" font-family="Helvetica,sans-Serif" font-size="10.00">rmap_set_src</text>
</a>
</g>
</g>
<!-- Node4&#45;&gt;Node18 -->
<g id="edge18" class="edge">
<title>Node4&#45;&gt;Node18</title>
<path fill="none" stroke="midnightblue" d="M566.82,-494.48C582.1,-482.04 610.58,-460.28 638,-447 642.63,-444.76 647.58,-442.71 652.6,-440.86"/>
<polygon fill="midnightblue" stroke="midnightblue" points="653.92,-444.1 662.24,-437.54 651.65,-437.48 653.92,-444.1"/>
</g>
<!-- Node19 -->
<g id="node19" class="node">
<title>Node19</title>
<g id="a_node19"><a xlink:href="rmap_8c_a7b4c31714493ce6cc19d4aa825ab50aa.html#a7b4c31714493ce6cc19d4aa825ab50aa" target="_top" xlink:title="set an RMAP transaction identifier">
<polygon fill="white" stroke="black" points="656.5,-722.5 656.5,-741.5 745.5,-741.5 745.5,-722.5 656.5,-722.5"/>
<text text-anchor="middle" x="701" y="-729.5" font-family="Helvetica,sans-Serif" font-size="10.00">rmap_set_tr_id</text>
</a>
</g>
</g>
<!-- Node4&#45;&gt;Node19 -->
<g id="edge19" class="edge">
<title>Node4&#45;&gt;Node19</title>
<path fill="none" stroke="midnightblue" d="M556.38,-513.52C559.93,-546.34 576.12,-655.81 638,-713 640.77,-715.56 643.87,-717.77 647.17,-719.69"/>
<polygon fill="midnightblue" stroke="midnightblue" points="645.77,-722.9 656.3,-724.09 648.82,-716.59 645.77,-722.9"/>
</g>
<!-- Node6 -->
<g id="node6" class="node">
<title>Node6</title>
<g id="a_node6"><a xlink:href="rmap_8c_a0ec3c28e83818f02e00d4c79d82d938a.html#a0ec3c28e83818f02e00d4c79d82d938a" target="_top" xlink:title="get the minimum header size given the RMAP instruction">
<polygon fill="white" stroke="black" points="804.5,-532.5 804.5,-551.5 937.5,-551.5 937.5,-532.5 804.5,-532.5"/>
<text text-anchor="middle" x="871" y="-539.5" font-family="Helvetica,sans-Serif" font-size="10.00">rmap_get_min_hdr_size</text>
</a>
</g>
</g>
<!-- Node5&#45;&gt;Node6 -->
<g id="edge5" class="edge">
<title>Node5&#45;&gt;Node6</title>
<path fill="none" stroke="midnightblue" d="M742.42,-646.4C749.83,-643.87 757.33,-640.76 764,-637 801.04,-616.08 836.2,-580.34 855.26,-559.17"/>
<polygon fill="midnightblue" stroke="midnightblue" points="857.96,-561.39 861.96,-551.58 852.72,-556.75 857.96,-561.39"/>
</g>
<!-- Node10 -->
<g id="node10" class="node">
<title>Node10</title>
<g id="a_node10"><a xlink:href="rmap_8c_a667ce871110961f2a611d0244791e20f.html#a667ce871110961f2a611d0244791e20f" target="_top" xlink:title="valiidates a command code">
<polygon fill="white" stroke="black" points="800,-684.5 800,-703.5 942,-703.5 942,-684.5 800,-684.5"/>
<text text-anchor="middle" x="871" y="-691.5" font-family="Helvetica,sans-Serif" font-size="10.00">rmap_validate_cmd_code</text>
</a>
</g>
</g>
<!-- Node9&#45;&gt;Node10 -->
<g id="edge9" class="edge">
<title>Node9&#45;&gt;Node10</title>
<path fill="none" stroke="midnightblue" d="M745.7,-694C759.13,-694 774.36,-694 789.44,-694"/>
<polygon fill="midnightblue" stroke="midnightblue" points="789.83,-697.5 799.83,-694 789.83,-690.5 789.83,-697.5"/>
</g>
<!-- Node14 -->
<g id="node14" class="node">
<title>Node14</title>
<g id="a_node14"><a xlink:href="test__cmp__max__used__bits__list_8c_a7ac38fce3243a7dcf448301ee9ffd392.html#a7ac38fce3243a7dcf448301ee9ffd392" target="_top" xlink:title=" ">
<polygon fill="white" stroke="black" points="846,-304.5 846,-323.5 896,-323.5 896,-304.5 846,-304.5"/>
<text text-anchor="middle" x="871" y="-311.5" font-family="Helvetica,sans-Serif" font-size="10.00">malloc</text>
</a>
</g>
</g>
<!-- Node13&#45;&gt;Node14 -->
<g id="edge13" class="edge">
<title>Node13&#45;&gt;Node14</title>
<path fill="none" stroke="midnightblue" d="M744.39,-342.41C772.71,-336.01 809.47,-327.69 835.9,-321.71"/>
<polygon fill="midnightblue" stroke="midnightblue" points="836.85,-325.09 845.83,-319.47 835.3,-318.26 836.85,-325.09"/>
</g>
<!-- Node17&#45;&gt;Node14 -->
<g id="edge17" class="edge">
<title>Node17&#45;&gt;Node14</title>
<path fill="none" stroke="midnightblue" d="M760.76,-314C785.69,-314 813.89,-314 835.39,-314"/>
<polygon fill="midnightblue" stroke="midnightblue" points="835.67,-317.5 845.67,-314 835.67,-310.5 835.67,-317.5"/>
</g>
<!-- Node20&#45;&gt;Node14 -->
<g id="edge21" class="edge">
<title>Node20&#45;&gt;Node14</title>
<path fill="none" stroke="midnightblue" d="M272.65,-258.14C354.3,-261.34 578.6,-271.71 764,-295 788.12,-298.03 815.09,-302.88 835.78,-306.93"/>
<polygon fill="midnightblue" stroke="midnightblue" points="835.2,-310.38 845.69,-308.89 836.57,-303.51 835.2,-310.38"/>
</g>
<!-- Node21 -->
<g id="node21" class="node">
<title>Node21</title>
<g id="a_node21"><a xlink:href="rdcu__rmap_8c_a95fad3cd9b6bbe562e1a73e3f1c108a8.html#a95fad3cd9b6bbe562e1a73e3f1c108a8" target="_top" xlink:title="submit an rmap command transaction">
<polygon fill="white" stroke="black" points="358,-228.5 358,-247.5 450,-247.5 450,-228.5 358,-228.5"/>
<text text-anchor="middle" x="404" y="-235.5" font-family="Helvetica,sans-Serif" font-size="10.00">rdcu_submit_tx</text>
</a>
</g>
</g>
<!-- Node20&#45;&gt;Node21 -->
<g id="edge22" class="edge">
<title>Node20&#45;&gt;Node21</title>
<path fill="none" stroke="midnightblue" d="M272.62,-253.29C293.99,-250.79 322.76,-247.41 347.85,-244.47"/>
<polygon fill="midnightblue" stroke="midnightblue" points="348.45,-247.92 357.97,-243.28 347.64,-240.97 348.45,-247.92"/>
</g>
<!-- Node32 -->
<g id="node32" class="node">
<title>Node32</title>
<g id="a_node32"><a xlink:href="rdcu__rmap_8c_a36f44335aa66dd49fb4903f7269bc5b1.html#a36f44335aa66dd49fb4903f7269bc5b1" target="_top" xlink:title="grab a slot in the transaction log">
<polygon fill="white" stroke="black" points="348,-190.5 348,-209.5 460,-209.5 460,-190.5 348,-190.5"/>
<text text-anchor="middle" x="404" y="-197.5" font-family="Helvetica,sans-Serif" font-size="10.00">trans_log_grab_slot</text>
</a>
</g>
</g>
<!-- Node20&#45;&gt;Node32 -->
<g id="edge38" class="edge">
<title>Node20&#45;&gt;Node32</title>
<path fill="none" stroke="midnightblue" d="M263.27,-247.47C282.59,-239.39 311.38,-227.73 337,-219 343.6,-216.75 350.62,-214.54 357.54,-212.46"/>
<polygon fill="midnightblue" stroke="midnightblue" points="358.91,-215.71 367.52,-209.53 356.94,-208.99 358.91,-215.71"/>
</g>
<!-- Node22 -->
<g id="node22" class="node">
<title>Node22</title>
<g id="a_node22"><a xlink:href="rdcu__rmap_8c_a1a064554031c2fa2dcb65541e0765c0f.html#a1a064554031c2fa2dcb65541e0765c0f" target="_top" xlink:title="n rmap command transaction">
<polygon fill="white" stroke="black" points="507,-171.5 507,-190.5 602,-190.5 602,-171.5 507,-171.5"/>
<text text-anchor="middle" x="554.5" y="-178.5" font-family="Helvetica,sans-Serif" font-size="10.00">rdcu_process_rx</text>
</a>
</g>
</g>
<!-- Node21&#45;&gt;Node22 -->
<g id="edge23" class="edge">
<title>Node21&#45;&gt;Node22</title>
<path fill="none" stroke="midnightblue" d="M441.98,-228.42C451.52,-225.66 461.72,-222.45 471,-219 489.61,-212.08 509.86,-202.78 525.64,-195.11"/>
<polygon fill="midnightblue" stroke="midnightblue" points="527.41,-198.14 534.84,-190.58 524.32,-191.86 527.41,-198.14"/>
</g>
<!-- Node22&#45;&gt;Node8 -->
<g id="edge26" class="edge">
<title>Node22&#45;&gt;Node8</title>
<path fill="none" stroke="midnightblue" d="M579.3,-190.6C595.76,-197.22 618.19,-206.2 638,-214 646.99,-217.54 656.73,-221.33 665.77,-224.83"/>
<polygon fill="midnightblue" stroke="midnightblue" points="664.65,-228.15 675.24,-228.49 667.17,-221.62 664.65,-228.15"/>
</g>
<!-- Node22&#45;&gt;Node14 -->
<g id="edge24" class="edge">
<title>Node22&#45;&gt;Node14</title>
<path fill="none" stroke="midnightblue" d="M602.07,-182.28C645.88,-185.11 712.29,-193.67 764,-219 802.4,-237.81 837.32,-274.59 855.92,-296.46"/>
<polygon fill="midnightblue" stroke="midnightblue" points="853.35,-298.85 862.43,-304.3 858.73,-294.37 853.35,-298.85"/>
</g>
<!-- Node23 -->
<g id="node23" class="node">
<title>Node23</title>
<g id="a_node23"><a xlink:href="rmap_8c_abf1868ec6873f9f189050cadc7e64a3b.html#abf1868ec6873f9f189050cadc7e64a3b" target="_top" xlink:title="calculate the CRC8 of a given buffer">
<polygon fill="white" stroke="black" points="667,-76.5 667,-95.5 735,-95.5 735,-76.5 667,-76.5"/>
<text text-anchor="middle" x="701" y="-83.5" font-family="Helvetica,sans-Serif" font-size="10.00">rmap_crc8</text>
</a>
</g>
</g>
<!-- Node22&#45;&gt;Node23 -->
<g id="edge25" class="edge">
<title>Node22&#45;&gt;Node23</title>
<path fill="none" stroke="midnightblue" d="M563.37,-171.36C576.95,-155.32 606.41,-123.12 638,-105 643.9,-101.61 650.48,-98.76 657.08,-96.39"/>
<polygon fill="midnightblue" stroke="midnightblue" points="658.27,-99.68 666.69,-93.25 656.09,-93.03 658.27,-99.68"/>
</g>
<!-- Node24 -->
<g id="node24" class="node">
<title>Node24</title>
<g id="a_node24"><a xlink:href="rmap_8c_a5e88a29337404518eceedf9b4af285bf.html#a5e88a29337404518eceedf9b4af285bf" target="_top" xlink:title=" ">
<polygon fill="white" stroke="black" points="653.5,-38.5 653.5,-57.5 748.5,-57.5 748.5,-38.5 653.5,-38.5"/>
<text text-anchor="middle" x="701" y="-45.5" font-family="Helvetica,sans-Serif" font-size="10.00">rmap_parse_pkt</text>
</a>
</g>
</g>
<!-- Node22&#45;&gt;Node24 -->
<g id="edge27" class="edge">
<title>Node22&#45;&gt;Node24</title>
<path fill="none" stroke="midnightblue" d="M559.76,-171.43C569.98,-149.55 598.06,-95.57 638,-67 640.7,-65.07 643.6,-63.33 646.62,-61.76"/>
<polygon fill="midnightblue" stroke="midnightblue" points="648.27,-64.86 655.96,-57.57 645.4,-58.48 648.27,-64.86"/>
</g>
<!-- Node29 -->
<g id="node29" class="node">
<title>Node29</title>
<g id="a_node29"><a xlink:href="rmap_8c_a46d3271304c12df042b57dbebaba67e1.html#a46d3271304c12df042b57dbebaba67e1" target="_top" xlink:title="create an rmap packet from a buffer">
<polygon fill="white" stroke="black" points="638.5,-380.5 638.5,-399.5 763.5,-399.5 763.5,-380.5 638.5,-380.5"/>
<text text-anchor="middle" x="701" y="-387.5" font-family="Helvetica,sans-Serif" font-size="10.00">rmap_pkt_from_buffer</text>
</a>
</g>
</g>
<!-- Node22&#45;&gt;Node29 -->
<g id="edge32" class="edge">
<title>Node22&#45;&gt;Node29</title>
<path fill="none" stroke="midnightblue" d="M556.8,-190.52C561.52,-221.4 580.62,-319.72 638,-371 639.91,-372.71 641.97,-374.26 644.14,-375.67"/>
<polygon fill="midnightblue" stroke="midnightblue" points="642.49,-378.76 652.95,-380.46 645.84,-372.61 642.49,-378.76"/>
</g>
<!-- Node30 -->
<g id="node30" class="node">
<title>Node30</title>
<g id="a_node30"><a xlink:href="rdcu__rmap_8c_acf9b176d8d9b24e9d07711f56aebccc0.html#acf9b176d8d9b24e9d07711f56aebccc0" target="_top" xlink:title="get the local address for a slot">
<polygon fill="white" stroke="black" points="646,-152.5 646,-171.5 756,-171.5 756,-152.5 646,-152.5"/>
<text text-anchor="middle" x="701" y="-159.5" font-family="Helvetica,sans-Serif" font-size="10.00">trans_log_get_addr</text>
</a>
</g>
</g>
<!-- Node22&#45;&gt;Node30 -->
<g id="edge36" class="edge">
<title>Node22&#45;&gt;Node30</title>
<path fill="none" stroke="midnightblue" d="M602.02,-174.88C612.69,-173.48 624.23,-171.96 635.51,-170.48"/>
<polygon fill="midnightblue" stroke="midnightblue" points="636.31,-173.9 645.77,-169.13 635.4,-166.96 636.31,-173.9"/>
</g>
<!-- Node31 -->
<g id="node31" class="node">
<title>Node31</title>
<g id="a_node31"><a xlink:href="rdcu__rmap_8c_a7012f58a1862cf07b00e299d24c199c2.html#a7012f58a1862cf07b00e299d24c199c2" target="_top" xlink:title="release a slot in the transaction log">
<polygon fill="white" stroke="black" points="638,-114.5 638,-133.5 764,-133.5 764,-114.5 638,-114.5"/>
<text text-anchor="middle" x="701" y="-121.5" font-family="Helvetica,sans-Serif" font-size="10.00">trans_log_release_slot</text>
</a>
</g>
</g>
<!-- Node22&#45;&gt;Node31 -->
<g id="edge37" class="edge">
<title>Node22&#45;&gt;Node31</title>
<path fill="none" stroke="midnightblue" d="M574.52,-171.35C591.05,-163.18 615.75,-151.49 638,-143 643.87,-140.76 650.12,-138.6 656.31,-136.58"/>
<polygon fill="midnightblue" stroke="midnightblue" points="657.45,-139.89 665.93,-133.54 655.34,-133.22 657.45,-139.89"/>
</g>
<!-- Node25 -->
<g id="node25" class="node">
<title>Node25</title>
<g id="a_node25"><a xlink:href="rmap_8c_abb4e19c17c7223212c3904bc4c0189d2.html#abb4e19c17c7223212c3904bc4c0189d2" target="_top" xlink:title=" ">
<polygon fill="white" stroke="black" points="815.5,-76.5 815.5,-95.5 926.5,-95.5 926.5,-76.5 815.5,-76.5"/>
<text text-anchor="middle" x="871" y="-83.5" font-family="Helvetica,sans-Serif" font-size="10.00">rmap_check_status</text>
</a>
</g>
</g>
<!-- Node24&#45;&gt;Node25 -->
<g id="edge28" class="edge">
<title>Node24&#45;&gt;Node25</title>
<path fill="none" stroke="midnightblue" d="M744.39,-57.59C766.76,-62.65 794.4,-68.9 818.05,-74.25"/>
<polygon fill="midnightblue" stroke="midnightblue" points="817.39,-77.69 827.91,-76.48 818.93,-70.86 817.39,-77.69"/>
</g>
<!-- Node26 -->
<g id="node26" class="node">
<title>Node26</title>
<g id="a_node26"><a xlink:href="rmap_8c_a20aa8b91dfb1bbad819759f97b853054.html#a20aa8b91dfb1bbad819759f97b853054" target="_top" xlink:title=" ">
<polygon fill="white" stroke="black" points="810,-38.5 810,-57.5 932,-57.5 932,-38.5 810,-38.5"/>
<text text-anchor="middle" x="871" y="-45.5" font-family="Helvetica,sans-Serif" font-size="10.00">rmap_parse_cmd_pkt</text>
</a>
</g>
</g>
<!-- Node24&#45;&gt;Node26 -->
<g id="edge29" class="edge">
<title>Node24&#45;&gt;Node26</title>
<path fill="none" stroke="midnightblue" d="M748.8,-48C764.62,-48 782.66,-48 799.89,-48"/>
<polygon fill="midnightblue" stroke="midnightblue" points="799.92,-51.5 809.92,-48 799.92,-44.5 799.92,-51.5"/>
</g>
<!-- Node27 -->
<g id="node27" class="node">
<title>Node27</title>
<g id="a_node27"><a xlink:href="rmap_8c_adef42426b46ee5ad5176ee76cff35c22.html#adef42426b46ee5ad5176ee76cff35c22" target="_top" xlink:title=" ">
<polygon fill="white" stroke="black" points="808.5,-0.5 808.5,-19.5 933.5,-19.5 933.5,-0.5 808.5,-0.5"/>
<text text-anchor="middle" x="871" y="-7.5" font-family="Helvetica,sans-Serif" font-size="10.00">rmap_parse_reply_pkt</text>
</a>
</g>
</g>
<!-- Node24&#45;&gt;Node27 -->
<g id="edge30" class="edge">
<title>Node24&#45;&gt;Node27</title>
<path fill="none" stroke="midnightblue" d="M744.39,-38.41C766.76,-33.35 794.4,-27.1 818.05,-21.75"/>
<polygon fill="midnightblue" stroke="midnightblue" points="818.93,-25.14 827.91,-19.52 817.39,-18.31 818.93,-25.14"/>
</g>
<!-- Node28 -->
<g id="node28" class="node">
<title>Node28</title>
<g id="a_node28"><a xlink:href="rmap_8c_a2ff278a5e094a9f585865d4d838e0e0e.html#a2ff278a5e094a9f585865d4d838e0e0e" target="_top" xlink:title=" ">
<polygon fill="white" stroke="black" points="978,-0.5 978,-19.5 1120,-19.5 1120,-0.5 978,-0.5"/>
<text text-anchor="middle" x="1049" y="-7.5" font-family="Helvetica,sans-Serif" font-size="10.00">rmap_process_read_reply</text>
</a>
</g>
</g>
<!-- Node27&#45;&gt;Node28 -->
<g id="edge31" class="edge">
<title>Node27&#45;&gt;Node28</title>
<path fill="none" stroke="midnightblue" d="M933.56,-10C944.6,-10 956.25,-10 967.73,-10"/>
<polygon fill="midnightblue" stroke="midnightblue" points="967.74,-13.5 977.74,-10 967.74,-6.5 967.74,-13.5"/>
</g>
<!-- Node29&#45;&gt;Node6 -->
<g id="edge35" class="edge">
<title>Node29&#45;&gt;Node6</title>
<path fill="none" stroke="midnightblue" d="M746.9,-399.53C753,-402 758.9,-405.1 764,-409 787.81,-427.19 781.78,-442.22 800,-466 816.39,-487.38 837.64,-509.84 852.41,-524.74"/>
<polygon fill="midnightblue" stroke="midnightblue" points="850.32,-527.61 859.87,-532.19 855.27,-522.65 850.32,-527.61"/>
</g>
<!-- Node29&#45;&gt;Node7 -->
<g id="edge34" class="edge">
<title>Node29&#45;&gt;Node7</title>
<path fill="none" stroke="midnightblue" d="M734.27,-399.58C743.87,-402.51 754.38,-405.81 764,-409 787.76,-416.89 814.27,-426.4 834.83,-433.93"/>
<polygon fill="midnightblue" stroke="midnightblue" points="833.82,-437.28 844.41,-437.45 836.23,-430.71 833.82,-437.28"/>
</g>
<!-- Node29&#45;&gt;Node14 -->
<g id="edge33" class="edge">
<title>Node29&#45;&gt;Node14</title>
<path fill="none" stroke="midnightblue" d="M737.51,-380.43C746.29,-377.7 755.58,-374.51 764,-371 793.06,-358.87 824.64,-341.27 845.7,-328.84"/>
<polygon fill="midnightblue" stroke="midnightblue" points="847.52,-331.83 854.32,-323.7 843.94,-325.82 847.52,-331.83"/>
</g>
</g>
</svg>
        <g id="navigator" transform="translate(0 0)" fill="#404254">
                <rect fill="#f2f5e9" fill-opacity="0.5" stroke="#606060" stroke-width=".5" x="0" y="0" width="60" height="60"/>
                <use id="zoomplus" xlink:href="#zoomPlus" x="17" y="9" onmousedown="handleZoom(evt,'in')"/>
                <use id="zoomminus" xlink:href="#zoomMin" x="42" y="9" onmousedown="handleZoom(evt,'out')"/>
                <use id="reset" xlink:href="#resetDef" x="30" y="36" onmousedown="handleReset()"/>
                <g id="arrowUp" xlink:href="#dirArrow" transform="translate(30 24)" onmousedown="handlePan(0,-1)">
                  <use xlink:href="#rim" fill="#404040">
                        <set attributeName="fill" to="#808080" begin="arrowUp.mouseover" end="arrowUp.mouseout"/>
                  </use>
                  <path fill="none" stroke="white" stroke-width="1.5" d="M0,-3.0v7 M-2.5,-0.5L0,-3.0L2.5,-0.5"/>
                </g>
                <g id="arrowRight" xlink:href="#dirArrow" transform="rotate(90) translate(36 -43)" onmousedown="handlePan(1,0)">
                  <use xlink:href="#rim" fill="#404040">
                        <set attributeName="fill" to="#808080" begin="arrowRight.mouseover" end="arrowRight.mouseout"/>
                  </use>
                  <path fill="none" stroke="white" stroke-width="1.5" d="M0,-3.0v7 M-2.5,-0.5L0,-3.0L2.5,-0.5"/>
                </g>
                <g id="arrowDown" xlink:href="#dirArrow" transform="rotate(180) translate(-30 -48)" onmousedown="handlePan(0,1)">
                  <use xlink:href="#rim" fill="#404040">
                        <set attributeName="fill" to="#808080" begin="arrowDown.mouseover" end="arrowDown.mouseout"/>
                  </use>
                  <path fill="none" stroke="white" stroke-width="1.5" d="M0,-3.0v7 M-2.5,-0.5L0,-3.0L2.5,-0.5"/>
                </g>
                <g id="arrowLeft" xlink:href="#dirArrow" transform="rotate(270) translate(-36 17)" onmousedown="handlePan(-1,0)">
                  <use xlink:href="#rim" fill="#404040">
                        <set attributeName="fill" to="#808080" begin="arrowLeft.mouseover" end="arrowLeft.mouseout"/>
                  </use>
                  <path fill="none" stroke="white" stroke-width="1.5" d="M0,-3.0v7 M-2.5,-0.5L0,-3.0L2.5,-0.5"/>
                </g>
        </g>
        <svg viewBox="0 0 15 15" width="100%" height="30px" preserveAspectRatio="xMaxYMin meet">
         <g id="arrow_out" transform="scale(0.3 0.3)">
          <a xlink:href="rdcu__ctrl_8h_a0d503bf7dc586ea3f8a6883dea207186_a0d503bf7dc586ea3f8a6883dea207186_cgraph_org.svg" target="_base">
           <rect id="button" ry="5" rx="5" y="6" x="6" height="38" width="38"
                fill="#f2f5e9" fill-opacity="0.5" stroke="#606060" stroke-width="1.0"/>
           <path id="arrow"
             d="M 11.500037,31.436501 C 11.940474,20.09759 22.043105,11.32322 32.158766,21.979434 L 37.068811,17.246167 C 37.068811,17.246167 37.088388,32 37.088388,32 L 22.160133,31.978069 C 22.160133,31.978069 26.997745,27.140456 26.997745,27.140456 C 18.528582,18.264221 13.291696,25.230495 11.500037,31.436501 z"
             style="fill:#404040;"/>
          </a>
         </g>
        </svg>
</svg>
