<?xml version="1.0" encoding="UTF-8" standalone="no"?>
<!DOCTYPE svg PUBLIC "-//W3C//DTD SVG 1.1//EN"
 "http://www.w3.org/Graphics/SVG/1.1/DTD/svg11.dtd">
<!-- Generated by graphviz version 2.43.0 (0)
 -->
<!-- Title: rdcu_sync_rmap_last_err Pages: 1 -->
<svg width="1123pt" height="750pt"
 viewBox="0.00 0.00 1123.00 750.00" xmlns="http://www.w3.org/2000/svg" xmlns:xlink="http://www.w3.org/1999/xlink">
<g id="graph0" class="graph" transform="scale(1 1) rotate(0) translate(4 746)">
<title>rdcu_sync_rmap_last_err</title>
<polygon fill="white" stroke="transparent" points="-4,4 -4,-746 1119,-746 1119,4 -4,4"/>
<!-- Node1 -->
<g id="node1" class="node">
<title>Node1</title>
<g id="a_node1"><a xlink:title="sync the RMAP Last Error register (read only)">
<polygon fill="#bfbfbf" stroke="black" points="0,-269.5 0,-288.5 138,-288.5 138,-269.5 0,-269.5"/>
<text text-anchor="middle" x="69" y="-276.5" font-family="Helvetica,sans-Serif" font-size="10.00">rdcu_sync_rmap_last_err</text>
</a>
</g>
</g>
<!-- Node2 -->
<g id="node2" class="node">
<title>Node2</title>
<g id="a_node2"><a xlink:href="rdcu__cmd_8c_a681ccd56bc56f1fe99c09c5be1a1db63.html#a681ccd56bc56f1fe99c09c5be1a1db63" target="_top" xlink:title="create a command to read the RDCU RMAP last error register">
<polygon fill="white" stroke="black" points="174,-387 174,-417 296,-417 296,-387 174,-387"/>
<text text-anchor="start" x="182" y="-405" font-family="Helvetica,sans-Serif" font-size="10.00">rdcu_read_cmd_rmap</text>
<text text-anchor="middle" x="235" y="-394" font-family="Helvetica,sans-Serif" font-size="10.00">_last_err</text>
</a>
</g>
</g>
<!-- Node1&#45;&gt;Node2 -->
<g id="edge1" class="edge">
<title>Node1&#45;&gt;Node2</title>
<path fill="none" stroke="midnightblue" d="M82.87,-288.65C109.22,-308.42 169.88,-353.91 205.82,-380.86"/>
<polygon fill="midnightblue" stroke="midnightblue" points="203.86,-383.77 213.96,-386.97 208.06,-378.17 203.86,-383.77"/>
</g>
<!-- Node20 -->
<g id="node20" class="node">
<title>Node20</title>
<g id="a_node20"><a xlink:href="rdcu__rmap_8c_a533d1eb248d83ba3d406cefe7f3c9eb9.html#a533d1eb248d83ba3d406cefe7f3c9eb9" target="_top" xlink:title="submit a sync command">
<polygon fill="white" stroke="black" points="202.5,-247.5 202.5,-266.5 267.5,-266.5 267.5,-247.5 202.5,-247.5"/>
<text text-anchor="middle" x="235" y="-254.5" font-family="Helvetica,sans-Serif" font-size="10.00">rdcu_sync</text>
</a>
</g>
</g>
<!-- Node1&#45;&gt;Node20 -->
<g id="edge20" class="edge">
<title>Node1&#45;&gt;Node20</title>
<path fill="none" stroke="midnightblue" d="M138.13,-269.86C156.32,-267.42 175.45,-264.85 191.79,-262.66"/>
<polygon fill="midnightblue" stroke="midnightblue" points="192.65,-266.08 202.1,-261.28 191.72,-259.14 192.65,-266.08"/>
</g>
<!-- Node3 -->
<g id="node3" class="node">
<title>Node3</title>
<g id="a_node3"><a xlink:href="rdcu__cmd_8c_a3274188041d4484130e893afc5f1630f.html#a3274188041d4484130e893afc5f1630f" target="_top" xlink:title="generate a read command for an arbitrary register (internal)">
<polygon fill="white" stroke="black" points="332,-438 332,-468 466,-468 466,-438 332,-438"/>
<text text-anchor="start" x="340" y="-456" font-family="Helvetica,sans-Serif" font-size="10.00">rdcu_read_cmd_register</text>
<text text-anchor="middle" x="399" y="-445" font-family="Helvetica,sans-Serif" font-size="10.00">_internal</text>
</a>
</g>
</g>
<!-- Node2&#45;&gt;Node3 -->
<g id="edge2" class="edge">
<title>Node2&#45;&gt;Node3</title>
<path fill="none" stroke="midnightblue" d="M283.73,-417.03C301.61,-422.66 322.11,-429.11 340.77,-434.98"/>
<polygon fill="midnightblue" stroke="midnightblue" points="339.74,-438.33 350.33,-437.99 341.84,-431.65 339.74,-438.33"/>
</g>
<!-- Node4 -->
<g id="node4" class="node">
<title>Node4</title>
<g id="a_node4"><a xlink:href="rdcu__rmap_8c_ab224927e85a7cec5b6f90292c7de36c4.html#ab224927e85a7cec5b6f90292c7de36c4" target="_top" xlink:title="generate an rmap command packet">
<polygon fill="white" stroke="black" points="506,-494.5 506,-513.5 593,-513.5 593,-494.5 506,-494.5"/>
<text text-anchor="middle" x="549.5" y="-501.5" font-family="Helvetica,sans-Serif" font-size="10.00">rdcu_gen_cmd</text>
</a>
</g>
</g>
<!-- Node3&#45;&gt;Node4 -->
<g id="edge3" class="edge">
<title>Node3&#45;&gt;Node4</title>
<path fill="none" stroke="midnightblue" d="M443.75,-468.03C465.07,-475.35 490.46,-484.07 510.9,-491.09"/>
<polygon fill="midnightblue" stroke="midnightblue" points="509.9,-494.44 520.49,-494.38 512.17,-487.82 509.9,-494.44"/>
</g>
<!-- Node5 -->
<g id="node5" class="node">
<title>Node5</title>
<g id="a_node5"><a xlink:href="rmap_8c_aa17375d153cc3473cbbe4dfe1056c527.html#aa17375d153cc3473cbbe4dfe1056c527" target="_top" xlink:title="build an rmap header">
<polygon fill="white" stroke="black" points="650,-646.5 650,-665.5 742,-665.5 742,-646.5 650,-646.5"/>
<text text-anchor="middle" x="696" y="-653.5" font-family="Helvetica,sans-Serif" font-size="10.00">rmap_build_hdr</text>
</a>
</g>
</g>
<!-- Node4&#45;&gt;Node5 -->
<g id="edge4" class="edge">
<title>Node4&#45;&gt;Node5</title>
<path fill="none" stroke="midnightblue" d="M553.76,-513.68C562.52,-538.17 588.88,-603 633,-637 635.34,-638.8 637.85,-640.44 640.48,-641.92"/>
<polygon fill="midnightblue" stroke="midnightblue" points="639.22,-645.19 649.75,-646.38 642.25,-638.89 639.22,-645.19"/>
</g>
<!-- Node7 -->
<g id="node7" class="node">
<title>Node7</title>
<g id="a_node7"><a xlink:href="rmap_8c_aba944cf978de0b264ea5bb3a784bce0f.html#aba944cf978de0b264ea5bb3a784bce0f" target="_top" xlink:title="create an RMAP packet and set defaults">
<polygon fill="white" stroke="black" points="808,-437.5 808,-456.5 924,-456.5 924,-437.5 808,-437.5"/>
<text text-anchor="middle" x="866" y="-444.5" font-family="Helvetica,sans-Serif" font-size="10.00">rmap_create_packet</text>
</a>
</g>
</g>
<!-- Node4&#45;&gt;Node7 -->
<g id="edge6" class="edge">
<title>Node4&#45;&gt;Node7</title>
<path fill="none" stroke="midnightblue" d="M578.93,-513.53C619.8,-525.69 697.06,-542.91 759,-523 795.03,-511.42 829.19,-482.57 848.57,-463.93"/>
<polygon fill="midnightblue" stroke="midnightblue" points="851.28,-466.17 855.93,-456.65 846.36,-461.19 851.28,-466.17"/>
</g>
<!-- Node8 -->
<g id="node8" class="node">
<title>Node8</title>
<g id="a_node8"><a xlink:href="rmap_8c_a1def9af549819e7fdbda12af8bdc9c0e.html#a1def9af549819e7fdbda12af8bdc9c0e" target="_top" xlink:title="completely destroys an RMAP packet">
<polygon fill="white" stroke="black" points="640,-228.5 640,-247.5 752,-247.5 752,-228.5 640,-228.5"/>
<text text-anchor="middle" x="696" y="-235.5" font-family="Helvetica,sans-Serif" font-size="10.00">rmap_erase_packet</text>
</a>
</g>
</g>
<!-- Node4&#45;&gt;Node8 -->
<g id="edge7" class="edge">
<title>Node4&#45;&gt;Node8</title>
<path fill="none" stroke="midnightblue" d="M552.72,-494.09C560.09,-462.7 585.97,-363.5 633,-295 644,-278.98 660.29,-264.23 673.41,-253.75"/>
<polygon fill="midnightblue" stroke="midnightblue" points="675.71,-256.4 681.48,-247.51 671.43,-250.86 675.71,-256.4"/>
</g>
<!-- Node9 -->
<g id="node9" class="node">
<title>Node9</title>
<g id="a_node9"><a xlink:href="rmap_8c_aab7e23f061291d39568ad2df700bc777.html#aab7e23f061291d39568ad2df700bc777" target="_top" xlink:title="set an RMAP command">
<polygon fill="white" stroke="black" points="651.5,-684.5 651.5,-703.5 740.5,-703.5 740.5,-684.5 651.5,-684.5"/>
<text text-anchor="middle" x="696" y="-691.5" font-family="Helvetica,sans-Serif" font-size="10.00">rmap_set_cmd</text>
</a>
</g>
</g>
<!-- Node4&#45;&gt;Node9 -->
<g id="edge8" class="edge">
<title>Node4&#45;&gt;Node9</title>
<path fill="none" stroke="midnightblue" d="M552.36,-513.79C558.4,-542.91 580.23,-629.7 633,-675 635.81,-677.42 638.93,-679.52 642.22,-681.36"/>
<polygon fill="midnightblue" stroke="midnightblue" points="640.74,-684.53 651.27,-685.64 643.72,-678.2 640.74,-684.53"/>
</g>
<!-- Node11 -->
<g id="node11" class="node">
<title>Node11</title>
<g id="a_node11"><a xlink:href="rmap_8c_acf641aae92829ae864b6c3d8f94d86e2.html#acf641aae92829ae864b6c3d8f94d86e2" target="_top" xlink:title="set a data address">
<polygon fill="white" stroke="black" points="638,-608.5 638,-627.5 754,-627.5 754,-608.5 638,-608.5"/>
<text text-anchor="middle" x="696" y="-615.5" font-family="Helvetica,sans-Serif" font-size="10.00">rmap_set_data_addr</text>
</a>
</g>
</g>
<!-- Node4&#45;&gt;Node11 -->
<g id="edge10" class="edge">
<title>Node4&#45;&gt;Node11</title>
<path fill="none" stroke="midnightblue" d="M556.24,-513.66C568.11,-532.81 597.29,-575.78 633,-599 636.16,-601.05 639.55,-602.9 643.06,-604.55"/>
<polygon fill="midnightblue" stroke="midnightblue" points="641.98,-607.88 652.56,-608.48 644.66,-601.42 641.98,-607.88"/>
</g>
<!-- Node12 -->
<g id="node12" class="node">
<title>Node12</title>
<g id="a_node12"><a xlink:href="rmap_8c_a6833f065640f652aa1a929309e592f7a.html#a6833f065640f652aa1a929309e592f7a" target="_top" xlink:title="set an RMAP command">
<polygon fill="white" stroke="black" points="641,-570.5 641,-589.5 751,-589.5 751,-570.5 641,-570.5"/>
<text text-anchor="middle" x="696" y="-577.5" font-family="Helvetica,sans-Serif" font-size="10.00">rmap_set_data_len</text>
</a>
</g>
</g>
<!-- Node4&#45;&gt;Node12 -->
<g id="edge11" class="edge">
<title>Node4&#45;&gt;Node12</title>
<path fill="none" stroke="midnightblue" d="M564.04,-513.68C580,-524.82 607.59,-543.22 633,-556 640.78,-559.91 649.36,-563.6 657.6,-566.87"/>
<polygon fill="midnightblue" stroke="midnightblue" points="656.45,-570.17 667.04,-570.48 658.95,-563.64 656.45,-570.17"/>
</g>
<!-- Node13 -->
<g id="node13" class="node">
<title>Node13</title>
<g id="a_node13"><a xlink:href="rmap_8c_a5f0081b9928da5e50fc8b231b57f3a80.html#a5f0081b9928da5e50fc8b231b57f3a80" target="_top" xlink:title="set the destination address path">
<polygon fill="white" stroke="black" points="638,-342.5 638,-361.5 754,-361.5 754,-342.5 638,-342.5"/>
<text text-anchor="middle" x="696" y="-349.5" font-family="Helvetica,sans-Serif" font-size="10.00">rmap_set_dest_path</text>
</a>
</g>
</g>
<!-- Node4&#45;&gt;Node13 -->
<g id="edge12" class="edge">
<title>Node4&#45;&gt;Node13</title>
<path fill="none" stroke="midnightblue" d="M553.76,-494.32C562.52,-469.83 588.88,-405 633,-371 635.34,-369.2 637.85,-367.56 640.48,-366.08"/>
<polygon fill="midnightblue" stroke="midnightblue" points="642.25,-369.11 649.75,-361.62 639.22,-362.81 642.25,-369.11"/>
</g>
<!-- Node15 -->
<g id="node15" class="node">
<title>Node15</title>
<g id="a_node15"><a xlink:href="rmap_8c_a2da8e7b48411d382b54848795f85795d.html#a2da8e7b48411d382b54848795f85795d" target="_top" xlink:title="set the destination (target) logical address">
<polygon fill="white" stroke="black" points="654.5,-494.5 654.5,-513.5 737.5,-513.5 737.5,-494.5 654.5,-494.5"/>
<text text-anchor="middle" x="696" y="-501.5" font-family="Helvetica,sans-Serif" font-size="10.00">rmap_set_dst</text>
</a>
</g>
</g>
<!-- Node4&#45;&gt;Node15 -->
<g id="edge14" class="edge">
<title>Node4&#45;&gt;Node15</title>
<path fill="none" stroke="midnightblue" d="M593.07,-504C609.07,-504 627.41,-504 644.09,-504"/>
<polygon fill="midnightblue" stroke="midnightblue" points="644.22,-507.5 654.22,-504 644.22,-500.5 644.22,-507.5"/>
</g>
<!-- Node16 -->
<g id="node16" class="node">
<title>Node16</title>
<g id="a_node16"><a xlink:href="rmap_8c_a15021c9dfccddc44786dfd37834bcd7e.html#a15021c9dfccddc44786dfd37834bcd7e" target="_top" xlink:title="set the command authorisation key">
<polygon fill="white" stroke="black" points="653.5,-456.5 653.5,-475.5 738.5,-475.5 738.5,-456.5 653.5,-456.5"/>
<text text-anchor="middle" x="696" y="-463.5" font-family="Helvetica,sans-Serif" font-size="10.00">rmap_set_key</text>
</a>
</g>
</g>
<!-- Node4&#45;&gt;Node16 -->
<g id="edge15" class="edge">
<title>Node4&#45;&gt;Node16</title>
<path fill="none" stroke="midnightblue" d="M586.96,-494.41C605.77,-489.46 628.91,-483.38 648.95,-478.11"/>
<polygon fill="midnightblue" stroke="midnightblue" points="650.02,-481.45 658.8,-475.52 648.24,-474.68 650.02,-481.45"/>
</g>
<!-- Node17 -->
<g id="node17" class="node">
<title>Node17</title>
<g id="a_node17"><a xlink:href="rmap_8c_a56c47830e67d01e469231e5e7e1d3a34.html#a56c47830e67d01e469231e5e7e1d3a34" target="_top" xlink:title="set the reply address path">
<polygon fill="white" stroke="black" points="636.5,-304.5 636.5,-323.5 755.5,-323.5 755.5,-304.5 636.5,-304.5"/>
<text text-anchor="middle" x="696" y="-311.5" font-family="Helvetica,sans-Serif" font-size="10.00">rmap_set_reply_path</text>
</a>
</g>
</g>
<!-- Node4&#45;&gt;Node17 -->
<g id="edge16" class="edge">
<title>Node4&#45;&gt;Node17</title>
<path fill="none" stroke="midnightblue" d="M552.36,-494.21C558.4,-465.09 580.23,-378.3 633,-333 634.98,-331.3 637.11,-329.75 639.35,-328.34"/>
<polygon fill="midnightblue" stroke="midnightblue" points="641.2,-331.32 648.41,-323.56 637.93,-325.13 641.2,-331.32"/>
</g>
<!-- Node18 -->
<g id="node18" class="node">
<title>Node18</title>
<g id="a_node18"><a xlink:href="rmap_8c_adae0030440ca4e7ad34622e505acbb2c.html#adae0030440ca4e7ad34622e505acbb2c" target="_top" xlink:title="set the source (initiator) logical address">
<polygon fill="white" stroke="black" points="655,-418.5 655,-437.5 737,-437.5 737,-418.5 655,-418.5"/>
<text text-anchor="middle" x="696" y="-425.5" font-family="Helvetica,sans-Serif" font-size="10.00">rmap_set_src</text>
</a>
</g>
</g>
<!-- Node4&#45;&gt;Node18 -->
<g id="edge18" class="edge">
<title>Node4&#45;&gt;Node18</title>
<path fill="none" stroke="midnightblue" d="M561.82,-494.48C577.1,-482.04 605.58,-460.28 633,-447 637.63,-444.76 642.58,-442.71 647.6,-440.86"/>
<polygon fill="midnightblue" stroke="midnightblue" points="648.92,-444.1 657.24,-437.54 646.65,-437.48 648.92,-444.1"/>
</g>
<!-- Node19 -->
<g id="node19" class="node">
<title>Node19</title>
<g id="a_node19"><a xlink:href="rmap_8c_a7b4c31714493ce6cc19d4aa825ab50aa.html#a7b4c31714493ce6cc19d4aa825ab50aa" target="_top" xlink:title="set an RMAP transaction identifier">
<polygon fill="white" stroke="black" points="651.5,-722.5 651.5,-741.5 740.5,-741.5 740.5,-722.5 651.5,-722.5"/>
<text text-anchor="middle" x="696" y="-729.5" font-family="Helvetica,sans-Serif" font-size="10.00">rmap_set_tr_id</text>
</a>
</g>
</g>
<!-- Node4&#45;&gt;Node19 -->
<g id="edge19" class="edge">
<title>Node4&#45;&gt;Node19</title>
<path fill="none" stroke="midnightblue" d="M551.38,-513.52C554.93,-546.34 571.12,-655.81 633,-713 635.77,-715.56 638.87,-717.77 642.17,-719.69"/>
<polygon fill="midnightblue" stroke="midnightblue" points="640.77,-722.9 651.3,-724.09 643.82,-716.59 640.77,-722.9"/>
</g>
<!-- Node6 -->
<g id="node6" class="node">
<title>Node6</title>
<g id="a_node6"><a xlink:href="rmap_8c_a0ec3c28e83818f02e00d4c79d82d938a.html#a0ec3c28e83818f02e00d4c79d82d938a" target="_top" xlink:title="get the minimum header size given the RMAP instruction">
<polygon fill="white" stroke="black" points="799.5,-532.5 799.5,-551.5 932.5,-551.5 932.5,-532.5 799.5,-532.5"/>
<text text-anchor="middle" x="866" y="-539.5" font-family="Helvetica,sans-Serif" font-size="10.00">rmap_get_min_hdr_size</text>
</a>
</g>
</g>
<!-- Node5&#45;&gt;Node6 -->
<g id="edge5" class="edge">
<title>Node5&#45;&gt;Node6</title>
<path fill="none" stroke="midnightblue" d="M737.42,-646.4C744.83,-643.87 752.33,-640.76 759,-637 796.04,-616.08 831.2,-580.34 850.26,-559.17"/>
<polygon fill="midnightblue" stroke="midnightblue" points="852.96,-561.39 856.96,-551.58 847.72,-556.75 852.96,-561.39"/>
</g>
<!-- Node10 -->
<g id="node10" class="node">
<title>Node10</title>
<g id="a_node10"><a xlink:href="rmap_8c_a667ce871110961f2a611d0244791e20f.html#a667ce871110961f2a611d0244791e20f" target="_top" xlink:title="valiidates a command code">
<polygon fill="white" stroke="black" points="795,-684.5 795,-703.5 937,-703.5 937,-684.5 795,-684.5"/>
<text text-anchor="middle" x="866" y="-691.5" font-family="Helvetica,sans-Serif" font-size="10.00">rmap_validate_cmd_code</text>
</a>
</g>
</g>
<!-- Node9&#45;&gt;Node10 -->
<g id="edge9" class="edge">
<title>Node9&#45;&gt;Node10</title>
<path fill="none" stroke="midnightblue" d="M740.7,-694C754.13,-694 769.36,-694 784.44,-694"/>
<polygon fill="midnightblue" stroke="midnightblue" points="784.83,-697.5 794.83,-694 784.83,-690.5 784.83,-697.5"/>
</g>
<!-- Node14 -->
<g id="node14" class="node">
<title>Node14</title>
<g id="a_node14"><a xlink:href="test__cmp__max__used__bits__list_8c_a7ac38fce3243a7dcf448301ee9ffd392.html#a7ac38fce3243a7dcf448301ee9ffd392" target="_top" xlink:title=" ">
<polygon fill="white" stroke="black" points="841,-304.5 841,-323.5 891,-323.5 891,-304.5 841,-304.5"/>
<text text-anchor="middle" x="866" y="-311.5" font-family="Helvetica,sans-Serif" font-size="10.00">malloc</text>
</a>
</g>
</g>
<!-- Node13&#45;&gt;Node14 -->
<g id="edge13" class="edge">
<title>Node13&#45;&gt;Node14</title>
<path fill="none" stroke="midnightblue" d="M739.39,-342.41C767.71,-336.01 804.47,-327.69 830.9,-321.71"/>
<polygon fill="midnightblue" stroke="midnightblue" points="831.85,-325.09 840.83,-319.47 830.3,-318.26 831.85,-325.09"/>
</g>
<!-- Node17&#45;&gt;Node14 -->
<g id="edge17" class="edge">
<title>Node17&#45;&gt;Node14</title>
<path fill="none" stroke="midnightblue" d="M755.76,-314C780.69,-314 808.89,-314 830.39,-314"/>
<polygon fill="midnightblue" stroke="midnightblue" points="830.67,-317.5 840.67,-314 830.67,-310.5 830.67,-317.5"/>
</g>
<!-- Node20&#45;&gt;Node14 -->
<g id="edge21" class="edge">
<title>Node20&#45;&gt;Node14</title>
<path fill="none" stroke="midnightblue" d="M267.65,-258.14C349.3,-261.34 573.6,-271.71 759,-295 783.12,-298.03 810.09,-302.88 830.78,-306.93"/>
<polygon fill="midnightblue" stroke="midnightblue" points="830.2,-310.38 840.69,-308.89 831.57,-303.51 830.2,-310.38"/>
</g>
<!-- Node21 -->
<g id="node21" class="node">
<title>Node21</title>
<g id="a_node21"><a xlink:href="rdcu__rmap_8c_a95fad3cd9b6bbe562e1a73e3f1c108a8.html#a95fad3cd9b6bbe562e1a73e3f1c108a8" target="_top" xlink:title="submit an rmap command transaction">
<polygon fill="white" stroke="black" points="353,-228.5 353,-247.5 445,-247.5 445,-228.5 353,-228.5"/>
<text text-anchor="middle" x="399" y="-235.5" font-family="Helvetica,sans-Serif" font-size="10.00">rdcu_submit_tx</text>
</a>
</g>
</g>
<!-- Node20&#45;&gt;Node21 -->
<g id="edge22" class="edge">
<title>Node20&#45;&gt;Node21</title>
<path fill="none" stroke="midnightblue" d="M267.62,-253.29C288.99,-250.79 317.76,-247.41 342.85,-244.47"/>
<polygon fill="midnightblue" stroke="midnightblue" points="343.45,-247.92 352.97,-243.28 342.64,-240.97 343.45,-247.92"/>
</g>
<!-- Node32 -->
<g id="node32" class="node">
<title>Node32</title>
<g id="a_node32"><a xlink:href="rdcu__rmap_8c_a36f44335aa66dd49fb4903f7269bc5b1.html#a36f44335aa66dd49fb4903f7269bc5b1" target="_top" xlink:title="grab a slot in the transaction log">
<polygon fill="white" stroke="black" points="343,-190.5 343,-209.5 455,-209.5 455,-190.5 343,-190.5"/>
<text text-anchor="middle" x="399" y="-197.5" font-family="Helvetica,sans-Serif" font-size="10.00">trans_log_grab_slot</text>
</a>
</g>
</g>
<!-- Node20&#45;&gt;Node32 -->
<g id="edge38" class="edge">
<title>Node20&#45;&gt;Node32</title>
<path fill="none" stroke="midnightblue" d="M258.27,-247.47C277.59,-239.39 306.38,-227.73 332,-219 338.6,-216.75 345.62,-214.54 352.54,-212.46"/>
<polygon fill="midnightblue" stroke="midnightblue" points="353.91,-215.71 362.52,-209.53 351.94,-208.99 353.91,-215.71"/>
</g>
<!-- Node22 -->
<g id="node22" class="node">
<title>Node22</title>
<g id="a_node22"><a xlink:href="rdcu__rmap_8c_a1a064554031c2fa2dcb65541e0765c0f.html#a1a064554031c2fa2dcb65541e0765c0f" target="_top" xlink:title="n rmap command transaction">
<polygon fill="white" stroke="black" points="502,-171.5 502,-190.5 597,-190.5 597,-171.5 502,-171.5"/>
<text text-anchor="middle" x="549.5" y="-178.5" font-family="Helvetica,sans-Serif" font-size="10.00">rdcu_process_rx</text>
</a>
</g>
</g>
<!-- Node21&#45;&gt;Node22 -->
<g id="edge23" class="edge">
<title>Node21&#45;&gt;Node22</title>
<path fill="none" stroke="midnightblue" d="M436.98,-228.42C446.52,-225.66 456.72,-222.45 466,-219 484.61,-212.08 504.86,-202.78 520.64,-195.11"/>
<polygon fill="midnightblue" stroke="midnightblue" points="522.41,-198.14 529.84,-190.58 519.32,-191.86 522.41,-198.14"/>
</g>
<!-- Node22&#45;&gt;Node8 -->
<g id="edge26" class="edge">
<title>Node22&#45;&gt;Node8</title>
<path fill="none" stroke="midnightblue" d="M574.3,-190.6C590.76,-197.22 613.19,-206.2 633,-214 641.99,-217.54 651.73,-221.33 660.77,-224.83"/>
<polygon fill="midnightblue" stroke="midnightblue" points="659.65,-228.15 670.24,-228.49 662.17,-221.62 659.65,-228.15"/>
</g>
<!-- Node22&#45;&gt;Node14 -->
<g id="edge24" class="edge">
<title>Node22&#45;&gt;Node14</title>
<path fill="none" stroke="midnightblue" d="M597.07,-182.28C640.88,-185.11 707.29,-193.67 759,-219 797.4,-237.81 832.32,-274.59 850.92,-296.46"/>
<polygon fill="midnightblue" stroke="midnightblue" points="848.35,-298.85 857.43,-304.3 853.73,-294.37 848.35,-298.85"/>
</g>
<!-- Node23 -->
<g id="node23" class="node">
<title>Node23</title>
<g id="a_node23"><a xlink:href="rmap_8c_abf1868ec6873f9f189050cadc7e64a3b.html#abf1868ec6873f9f189050cadc7e64a3b" target="_top" xlink:title="calculate the CRC8 of a given buffer">
<polygon fill="white" stroke="black" points="662,-76.5 662,-95.5 730,-95.5 730,-76.5 662,-76.5"/>
<text text-anchor="middle" x="696" y="-83.5" font-family="Helvetica,sans-Serif" font-size="10.00">rmap_crc8</text>
</a>
</g>
</g>
<!-- Node22&#45;&gt;Node23 -->
<g id="edge25" class="edge">
<title>Node22&#45;&gt;Node23</title>
<path fill="none" stroke="midnightblue" d="M558.37,-171.36C571.95,-155.32 601.41,-123.12 633,-105 638.9,-101.61 645.48,-98.76 652.08,-96.39"/>
<polygon fill="midnightblue" stroke="midnightblue" points="653.27,-99.68 661.69,-93.25 651.09,-93.03 653.27,-99.68"/>
</g>
<!-- Node24 -->
<g id="node24" class="node">
<title>Node24</title>
<g id="a_node24"><a xlink:href="rmap_8c_a5e88a29337404518eceedf9b4af285bf.html#a5e88a29337404518eceedf9b4af285bf" target="_top" xlink:title=" ">
<polygon fill="white" stroke="black" points="648.5,-38.5 648.5,-57.5 743.5,-57.5 743.5,-38.5 648.5,-38.5"/>
<text text-anchor="middle" x="696" y="-45.5" font-family="Helvetica,sans-Serif" font-size="10.00">rmap_parse_pkt</text>
</a>
</g>
</g>
<!-- Node22&#45;&gt;Node24 -->
<g id="edge27" class="edge">
<title>Node22&#45;&gt;Node24</title>
<path fill="none" stroke="midnightblue" d="M554.76,-171.43C564.98,-149.55 593.06,-95.57 633,-67 635.7,-65.07 638.6,-63.33 641.62,-61.76"/>
<polygon fill="midnightblue" stroke="midnightblue" points="643.27,-64.86 650.96,-57.57 640.4,-58.48 643.27,-64.86"/>
</g>
<!-- Node29 -->
<g id="node29" class="node">
<title>Node29</title>
<g id="a_node29"><a xlink:href="rmap_8c_a46d3271304c12df042b57dbebaba67e1.html#a46d3271304c12df042b57dbebaba67e1" target="_top" xlink:title="create an rmap packet from a buffer">
<polygon fill="white" stroke="black" points="633.5,-380.5 633.5,-399.5 758.5,-399.5 758.5,-380.5 633.5,-380.5"/>
<text text-anchor="middle" x="696" y="-387.5" font-family="Helvetica,sans-Serif" font-size="10.00">rmap_pkt_from_buffer</text>
</a>
</g>
</g>
<!-- Node22&#45;&gt;Node29 -->
<g id="edge32" class="edge">
<title>Node22&#45;&gt;Node29</title>
<path fill="none" stroke="midnightblue" d="M551.8,-190.52C556.52,-221.4 575.62,-319.72 633,-371 634.91,-372.71 636.97,-374.26 639.14,-375.67"/>
<polygon fill="midnightblue" stroke="midnightblue" points="637.49,-378.76 647.95,-380.46 640.84,-372.61 637.49,-378.76"/>
</g>
<!-- Node30 -->
<g id="node30" class="node">
<title>Node30</title>
<g id="a_node30"><a xlink:href="rdcu__rmap_8c_acf9b176d8d9b24e9d07711f56aebccc0.html#acf9b176d8d9b24e9d07711f56aebccc0" target="_top" xlink:title="get the local address for a slot">
<polygon fill="white" stroke="black" points="641,-152.5 641,-171.5 751,-171.5 751,-152.5 641,-152.5"/>
<text text-anchor="middle" x="696" y="-159.5" font-family="Helvetica,sans-Serif" font-size="10.00">trans_log_get_addr</text>
</a>
</g>
</g>
<!-- Node22&#45;&gt;Node30 -->
<g id="edge36" class="edge">
<title>Node22&#45;&gt;Node30</title>
<path fill="none" stroke="midnightblue" d="M597.02,-174.88C607.69,-173.48 619.23,-171.96 630.51,-170.48"/>
<polygon fill="midnightblue" stroke="midnightblue" points="631.31,-173.9 640.77,-169.13 630.4,-166.96 631.31,-173.9"/>
</g>
<!-- Node31 -->
<g id="node31" class="node">
<title>Node31</title>
<g id="a_node31"><a xlink:href="rdcu__rmap_8c_a7012f58a1862cf07b00e299d24c199c2.html#a7012f58a1862cf07b00e299d24c199c2" target="_top" xlink:title="release a slot in the transaction log">
<polygon fill="white" stroke="black" points="633,-114.5 633,-133.5 759,-133.5 759,-114.5 633,-114.5"/>
<text text-anchor="middle" x="696" y="-121.5" font-family="Helvetica,sans-Serif" font-size="10.00">trans_log_release_slot</text>
</a>
</g>
</g>
<!-- Node22&#45;&gt;Node31 -->
<g id="edge37" class="edge">
<title>Node22&#45;&gt;Node31</title>
<path fill="none" stroke="midnightblue" d="M569.52,-171.35C586.05,-163.18 610.75,-151.49 633,-143 638.87,-140.76 645.12,-138.6 651.31,-136.58"/>
<polygon fill="midnightblue" stroke="midnightblue" points="652.45,-139.89 660.93,-133.54 650.34,-133.22 652.45,-139.89"/>
</g>
<!-- Node25 -->
<g id="node25" class="node">
<title>Node25</title>
<g id="a_node25"><a xlink:href="rmap_8c_abb4e19c17c7223212c3904bc4c0189d2.html#abb4e19c17c7223212c3904bc4c0189d2" target="_top" xlink:title=" ">
<polygon fill="white" stroke="black" points="810.5,-76.5 810.5,-95.5 921.5,-95.5 921.5,-76.5 810.5,-76.5"/>
<text text-anchor="middle" x="866" y="-83.5" font-family="Helvetica,sans-Serif" font-size="10.00">rmap_check_status</text>
</a>
</g>
</g>
<!-- Node24&#45;&gt;Node25 -->
<g id="edge28" class="edge">
<title>Node24&#45;&gt;Node25</title>
<path fill="none" stroke="midnightblue" d="M739.39,-57.59C761.76,-62.65 789.4,-68.9 813.05,-74.25"/>
<polygon fill="midnightblue" stroke="midnightblue" points="812.39,-77.69 822.91,-76.48 813.93,-70.86 812.39,-77.69"/>
</g>
<!-- Node26 -->
<g id="node26" class="node">
<title>Node26</title>
<g id="a_node26"><a xlink:href="rmap_8c_a20aa8b91dfb1bbad819759f97b853054.html#a20aa8b91dfb1bbad819759f97b853054" target="_top" xlink:title=" ">
<polygon fill="white" stroke="black" points="805,-38.5 805,-57.5 927,-57.5 927,-38.5 805,-38.5"/>
<text text-anchor="middle" x="866" y="-45.5" font-family="Helvetica,sans-Serif" font-size="10.00">rmap_parse_cmd_pkt</text>
</a>
</g>
</g>
<!-- Node24&#45;&gt;Node26 -->
<g id="edge29" class="edge">
<title>Node24&#45;&gt;Node26</title>
<path fill="none" stroke="midnightblue" d="M743.8,-48C759.62,-48 777.66,-48 794.89,-48"/>
<polygon fill="midnightblue" stroke="midnightblue" points="794.92,-51.5 804.92,-48 794.92,-44.5 794.92,-51.5"/>
</g>
<!-- Node27 -->
<g id="node27" class="node">
<title>Node27</title>
<g id="a_node27"><a xlink:href="rmap_8c_adef42426b46ee5ad5176ee76cff35c22.html#adef42426b46ee5ad5176ee76cff35c22" target="_top" xlink:title=" ">
<polygon fill="white" stroke="black" points="803.5,-0.5 803.5,-19.5 928.5,-19.5 928.5,-0.5 803.5,-0.5"/>
<text text-anchor="middle" x="866" y="-7.5" font-family="Helvetica,sans-Serif" font-size="10.00">rmap_parse_reply_pkt</text>
</a>
</g>
</g>
<!-- Node24&#45;&gt;Node27 -->
<g id="edge30" class="edge">
<title>Node24&#45;&gt;Node27</title>
<path fill="none" stroke="midnightblue" d="M739.39,-38.41C761.76,-33.35 789.4,-27.1 813.05,-21.75"/>
<polygon fill="midnightblue" stroke="midnightblue" points="813.93,-25.14 822.91,-19.52 812.39,-18.31 813.93,-25.14"/>
</g>
<!-- Node28 -->
<g id="node28" class="node">
<title>Node28</title>
<g id="a_node28"><a xlink:href="rmap_8c_a2ff278a5e094a9f585865d4d838e0e0e.html#a2ff278a5e094a9f585865d4d838e0e0e" target="_top" xlink:title=" ">
<polygon fill="white" stroke="black" points="973,-0.5 973,-19.5 1115,-19.5 1115,-0.5 973,-0.5"/>
<text text-anchor="middle" x="1044" y="-7.5" font-family="Helvetica,sans-Serif" font-size="10.00">rmap_process_read_reply</text>
</a>
</g>
</g>
<!-- Node27&#45;&gt;Node28 -->
<g id="edge31" class="edge">
<title>Node27&#45;&gt;Node28</title>
<path fill="none" stroke="midnightblue" d="M928.56,-10C939.6,-10 951.25,-10 962.73,-10"/>
<polygon fill="midnightblue" stroke="midnightblue" points="962.74,-13.5 972.74,-10 962.74,-6.5 962.74,-13.5"/>
</g>
<!-- Node29&#45;&gt;Node6 -->
<g id="edge35" class="edge">
<title>Node29&#45;&gt;Node6</title>
<path fill="none" stroke="midnightblue" d="M741.9,-399.53C748,-402 753.9,-405.1 759,-409 782.81,-427.19 776.78,-442.22 795,-466 811.39,-487.38 832.64,-509.84 847.41,-524.74"/>
<polygon fill="midnightblue" stroke="midnightblue" points="845.32,-527.61 854.87,-532.19 850.27,-522.65 845.32,-527.61"/>
</g>
<!-- Node29&#45;&gt;Node7 -->
<g id="edge34" class="edge">
<title>Node29&#45;&gt;Node7</title>
<path fill="none" stroke="midnightblue" d="M729.27,-399.58C738.87,-402.51 749.38,-405.81 759,-409 782.76,-416.89 809.27,-426.4 829.83,-433.93"/>
<polygon fill="midnightblue" stroke="midnightblue" points="828.82,-437.28 839.41,-437.45 831.23,-430.71 828.82,-437.28"/>
</g>
<!-- Node29&#45;&gt;Node14 -->
<g id="edge33" class="edge">
<title>Node29&#45;&gt;Node14</title>
<path fill="none" stroke="midnightblue" d="M732.51,-380.43C741.29,-377.7 750.58,-374.51 759,-371 788.06,-358.87 819.64,-341.27 840.7,-328.84"/>
<polygon fill="midnightblue" stroke="midnightblue" points="842.52,-331.83 849.32,-323.7 838.94,-325.82 842.52,-331.83"/>
</g>
</g>
</svg>
