<?xml version="1.0" encoding="UTF-8" standalone="no"?>
<!DOCTYPE svg PUBLIC "-//W3C//DTD SVG 1.1//EN"
 "http://www.w3.org/Graphics/SVG/1.1/DTD/svg11.dtd">
<!-- Generated by graphviz version 2.43.0 (0)
 -->
<!-- Title: rdcu_sync_model_start_addr Pages: 1 -->
<!--zoomable 750 -->
<svg id="main" version="1.1" xmlns="http://www.w3.org/2000/svg" xmlns:xlink="http://www.w3.org/1999/xlink" xml:space="preserve" onload="init(evt)">
<style type="text/css"><![CDATA[
.edge:hover path { stroke: red; }
.edge:hover polygon { stroke: red; fill: red; }
]]></style>
<script type="text/javascript"><![CDATA[
var edges = document.getElementsByTagName('g');
if (edges && edges.length) {
  for (var i=0;i<edges.length;i++) {
    if (edges[i].id.substr(0,4)=='edge') {
      edges[i].setAttribute('class','edge');
    }
  }
}
]]></script>
        <defs>
                <circle id="rim" cx="0" cy="0" r="7"/>
                <circle id="rim2" cx="0" cy="0" r="3.5"/>
                <g id="zoomPlus">
                        <use xlink:href="#rim" fill="#404040">
                                <set attributeName="fill" to="#808080" begin="zoomplus.mouseover" end="zoomplus.mouseout"/>
                        </use>
                        <path d="M-4,0h8M0,-4v8" fill="none" stroke="white" stroke-width="1.5" pointer-events="none"/>
                </g>
                <g id="zoomMin">
                        <use xlink:href="#rim" fill="#404040">
                                <set attributeName="fill" to="#808080" begin="zoomminus.mouseover" end="zoomminus.mouseout"/>
                        </use>
                        <path d="M-4,0h8" fill="none" stroke="white" stroke-width="1.5" pointer-events="none"/>
                </g>
                <g id="dirArrow">
                        <path fill="none" stroke="white" stroke-width="1.5" d="M0,-3.0v7 M-2.5,-0.5L0,-3.0L2.5,-0.5"/>
                </g>
               <g id="resetDef">
                       <use xlink:href="#rim2" fill="#404040">
                               <set attributeName="fill" to="#808080" begin="reset.mouseover" end="reset.mouseout"/>
                       </use>
               </g>
        </defs>

<script type="text/javascript">
var viewWidth = 1152;
var viewHeight = 750;
var sectionId = 'dynsection-0';
</script>
<script xlink:href="svgpan.js"/>
<svg id="graph" class="graph">
<g id="viewport">
<title>rdcu_sync_model_start_addr</title>
<polygon fill="white" stroke="transparent" points="-4,4 -4,-746 1148,-746 1148,4 -4,4"/>
<!-- Node1 -->
<g id="node1" class="node">
<title>Node1</title>
<g id="a_node1"><a xlink:title="sync the Model Start Address (write only)">
<polygon fill="#bfbfbf" stroke="black" points="0,-586.5 0,-605.5 156,-605.5 156,-586.5 0,-586.5"/>
<text text-anchor="middle" x="78" y="-593.5" font-family="Helvetica,sans-Serif" font-size="10.00">rdcu_sync_model_start_addr</text>
</a>
</g>
</g>
<!-- Node2 -->
<g id="node2" class="node">
<title>Node2</title>
<g id="a_node2"><a xlink:href="rdcu__rmap_8c_a533d1eb248d83ba3d406cefe7f3c9eb9.html#a533d1eb248d83ba3d406cefe7f3c9eb9" target="_top" xlink:title="submit a sync command">
<polygon fill="white" stroke="black" points="224.5,-608.5 224.5,-627.5 289.5,-627.5 289.5,-608.5 224.5,-608.5"/>
<text text-anchor="middle" x="257" y="-615.5" font-family="Helvetica,sans-Serif" font-size="10.00">rdcu_sync</text>
</a>
</g>
</g>
<!-- Node1&#45;&gt;Node2 -->
<g id="edge1" class="edge">
<title>Node1&#45;&gt;Node2</title>
<path fill="none" stroke="midnightblue" d="M155.61,-605.52C175.57,-608 196.35,-610.59 213.8,-612.75"/>
<polygon fill="midnightblue" stroke="midnightblue" points="213.83,-616.29 224.19,-614.05 214.7,-609.34 213.83,-616.29"/>
</g>
<!-- Node19 -->
<g id="node19" class="node">
<title>Node19</title>
<g id="a_node19"><a xlink:href="rdcu__cmd_8c_af20be70df2d9618f6c4bd4ca075dc27f.html#af20be70df2d9618f6c4bd4ca075dc27f" target="_top" xlink:title="create a command to write the RDCU model start address register">
<polygon fill="white" stroke="black" points="192,-559 192,-589 322,-589 322,-559 192,-559"/>
<text text-anchor="start" x="200" y="-577" font-family="Helvetica,sans-Serif" font-size="10.00">rdcu_write_cmd_model</text>
<text text-anchor="middle" x="257" y="-566" font-family="Helvetica,sans-Serif" font-size="10.00">_start_addr</text>
</a>
</g>
</g>
<!-- Node1&#45;&gt;Node19 -->
<g id="edge20" class="edge">
<title>Node1&#45;&gt;Node19</title>
<path fill="none" stroke="midnightblue" d="M155.61,-586.48C164.27,-585.4 173.09,-584.31 181.72,-583.23"/>
<polygon fill="midnightblue" stroke="midnightblue" points="182.25,-586.69 191.75,-581.99 181.39,-579.75 182.25,-586.69"/>
</g>
<!-- Node3 -->
<g id="node3" class="node">
<title>Node3</title>
<g id="a_node3"><a xlink:href="test__cmp__max__used__bits__list_8c_a7ac38fce3243a7dcf448301ee9ffd392.html#a7ac38fce3243a7dcf448301ee9ffd392" target="_top" xlink:title=" ">
<polygon fill="white" stroke="black" points="870,-418.5 870,-437.5 920,-437.5 920,-418.5 870,-418.5"/>
<text text-anchor="middle" x="895" y="-425.5" font-family="Helvetica,sans-Serif" font-size="10.00">malloc</text>
</a>
</g>
</g>
<!-- Node2&#45;&gt;Node3 -->
<g id="edge2" class="edge">
<title>Node2&#45;&gt;Node3</title>
<path fill="none" stroke="midnightblue" d="M289.69,-623.59C390.83,-640.75 704.15,-688.49 788,-637 857.21,-594.5 882.94,-491.2 890.91,-447.76"/>
<polygon fill="midnightblue" stroke="midnightblue" points="894.37,-448.3 892.61,-437.86 887.47,-447.12 894.37,-448.3"/>
</g>
<!-- Node4 -->
<g id="node4" class="node">
<title>Node4</title>
<g id="a_node4"><a xlink:href="rdcu__rmap_8c_a95fad3cd9b6bbe562e1a73e3f1c108a8.html#a95fad3cd9b6bbe562e1a73e3f1c108a8" target="_top" xlink:title="submit an rmap command transaction">
<polygon fill="white" stroke="black" points="380.5,-570.5 380.5,-589.5 472.5,-589.5 472.5,-570.5 380.5,-570.5"/>
<text text-anchor="middle" x="426.5" y="-577.5" font-family="Helvetica,sans-Serif" font-size="10.00">rdcu_submit_tx</text>
</a>
</g>
</g>
<!-- Node2&#45;&gt;Node4 -->
<g id="edge3" class="edge">
<title>Node2&#45;&gt;Node4</title>
<path fill="none" stroke="midnightblue" d="M289.51,-610.85C313.14,-605.49 346.01,-598.03 373.52,-591.79"/>
<polygon fill="midnightblue" stroke="midnightblue" points="374.4,-595.18 383.38,-589.56 372.85,-588.35 374.4,-595.18"/>
</g>
<!-- Node18 -->
<g id="node18" class="node">
<title>Node18</title>
<g id="a_node18"><a xlink:href="rdcu__rmap_8c_a36f44335aa66dd49fb4903f7269bc5b1.html#a36f44335aa66dd49fb4903f7269bc5b1" target="_top" xlink:title="grab a slot in the transaction log">
<polygon fill="white" stroke="black" points="370.5,-684.5 370.5,-703.5 482.5,-703.5 482.5,-684.5 370.5,-684.5"/>
<text text-anchor="middle" x="426.5" y="-691.5" font-family="Helvetica,sans-Serif" font-size="10.00">trans_log_grab_slot</text>
</a>
</g>
</g>
<!-- Node2&#45;&gt;Node18 -->
<g id="edge19" class="edge">
<title>Node2&#45;&gt;Node18</title>
<path fill="none" stroke="midnightblue" d="M274.64,-627.56C294.21,-638.58 327.86,-656.88 358,-670 367.06,-673.94 376.99,-677.75 386.38,-681.12"/>
<polygon fill="midnightblue" stroke="midnightblue" points="385.32,-684.46 395.92,-684.47 387.64,-677.86 385.32,-684.46"/>
</g>
<!-- Node5 -->
<g id="node5" class="node">
<title>Node5</title>
<g id="a_node5"><a xlink:href="rdcu__rmap_8c_a1a064554031c2fa2dcb65541e0765c0f.html#a1a064554031c2fa2dcb65541e0765c0f" target="_top" xlink:title="n rmap command transaction">
<polygon fill="white" stroke="black" points="531,-551.5 531,-570.5 626,-570.5 626,-551.5 531,-551.5"/>
<text text-anchor="middle" x="578.5" y="-558.5" font-family="Helvetica,sans-Serif" font-size="10.00">rdcu_process_rx</text>
</a>
</g>
</g>
<!-- Node4&#45;&gt;Node5 -->
<g id="edge4" class="edge">
<title>Node4&#45;&gt;Node5</title>
<path fill="none" stroke="midnightblue" d="M472.5,-574.3C487.65,-572.38 504.76,-570.21 520.69,-568.2"/>
<polygon fill="midnightblue" stroke="midnightblue" points="521.49,-571.62 530.97,-566.89 520.61,-564.68 521.49,-571.62"/>
</g>
<!-- Node5&#45;&gt;Node3 -->
<g id="edge5" class="edge">
<title>Node5&#45;&gt;Node3</title>
<path fill="none" stroke="midnightblue" d="M598.19,-551.49C614.7,-543.3 639.59,-531.49 662,-523 716.69,-502.27 733.97,-507.41 788,-485 817.25,-472.87 849.03,-455.12 870.08,-442.66"/>
<polygon fill="midnightblue" stroke="midnightblue" points="871.9,-445.65 878.68,-437.51 868.3,-439.65 871.9,-445.65"/>
</g>
<!-- Node6 -->
<g id="node6" class="node">
<title>Node6</title>
<g id="a_node6"><a xlink:href="rmap_8c_abf1868ec6873f9f189050cadc7e64a3b.html#abf1868ec6873f9f189050cadc7e64a3b" target="_top" xlink:title="calculate the CRC8 of a given buffer">
<polygon fill="white" stroke="black" points="691,-570.5 691,-589.5 759,-589.5 759,-570.5 691,-570.5"/>
<text text-anchor="middle" x="725" y="-577.5" font-family="Helvetica,sans-Serif" font-size="10.00">rmap_crc8</text>
</a>
</g>
</g>
<!-- Node5&#45;&gt;Node6 -->
<g id="edge6" class="edge">
<title>Node5&#45;&gt;Node6</title>
<path fill="none" stroke="midnightblue" d="M626.02,-567.12C643.51,-569.42 663.31,-572.02 680.52,-574.28"/>
<polygon fill="midnightblue" stroke="midnightblue" points="680.48,-577.81 690.85,-575.64 681.39,-570.87 680.48,-577.81"/>
</g>
<!-- Node7 -->
<g id="node7" class="node">
<title>Node7</title>
<g id="a_node7"><a xlink:href="rmap_8c_a1def9af549819e7fdbda12af8bdc9c0e.html#a1def9af549819e7fdbda12af8bdc9c0e" target="_top" xlink:title="completely destroys an RMAP packet">
<polygon fill="white" stroke="black" points="669,-456.5 669,-475.5 781,-475.5 781,-456.5 669,-456.5"/>
<text text-anchor="middle" x="725" y="-463.5" font-family="Helvetica,sans-Serif" font-size="10.00">rmap_erase_packet</text>
</a>
</g>
</g>
<!-- Node5&#45;&gt;Node7 -->
<g id="edge7" class="edge">
<title>Node5&#45;&gt;Node7</title>
<path fill="none" stroke="midnightblue" d="M588.8,-551.06C603.25,-536.11 632.5,-507.68 662,-490 668.75,-485.95 676.31,-482.36 683.76,-479.26"/>
<polygon fill="midnightblue" stroke="midnightblue" points="685.04,-482.52 693.07,-475.61 682.48,-476 685.04,-482.52"/>
</g>
<!-- Node8 -->
<g id="node8" class="node">
<title>Node8</title>
<g id="a_node8"><a xlink:href="rmap_8c_a5e88a29337404518eceedf9b4af285bf.html#a5e88a29337404518eceedf9b4af285bf" target="_top" xlink:title=" ">
<polygon fill="white" stroke="black" points="677.5,-684.5 677.5,-703.5 772.5,-703.5 772.5,-684.5 677.5,-684.5"/>
<text text-anchor="middle" x="725" y="-691.5" font-family="Helvetica,sans-Serif" font-size="10.00">rmap_parse_pkt</text>
</a>
</g>
</g>
<!-- Node5&#45;&gt;Node8 -->
<g id="edge8" class="edge">
<title>Node5&#45;&gt;Node8</title>
<path fill="none" stroke="midnightblue" d="M589.92,-570.6C605.56,-585.02 636.06,-613.13 662,-637 676.83,-650.65 693.66,-666.12 706.04,-677.5"/>
<polygon fill="midnightblue" stroke="midnightblue" points="703.73,-680.13 713.47,-684.32 708.47,-674.98 703.73,-680.13"/>
</g>
<!-- Node13 -->
<g id="node13" class="node">
<title>Node13</title>
<g id="a_node13"><a xlink:href="rmap_8c_a46d3271304c12df042b57dbebaba67e1.html#a46d3271304c12df042b57dbebaba67e1" target="_top" xlink:title="create an rmap packet from a buffer">
<polygon fill="white" stroke="black" points="662.5,-342.5 662.5,-361.5 787.5,-361.5 787.5,-342.5 662.5,-342.5"/>
<text text-anchor="middle" x="725" y="-349.5" font-family="Helvetica,sans-Serif" font-size="10.00">rmap_pkt_from_buffer</text>
</a>
</g>
</g>
<!-- Node5&#45;&gt;Node13 -->
<g id="edge13" class="edge">
<title>Node5&#45;&gt;Node13</title>
<path fill="none" stroke="midnightblue" d="M580.8,-551.48C585.52,-520.6 604.62,-422.28 662,-371 663.91,-369.29 665.97,-367.74 668.14,-366.33"/>
<polygon fill="midnightblue" stroke="midnightblue" points="669.84,-369.39 676.95,-361.54 666.49,-363.24 669.84,-369.39"/>
</g>
<!-- Node16 -->
<g id="node16" class="node">
<title>Node16</title>
<g id="a_node16"><a xlink:href="rdcu__rmap_8c_acf9b176d8d9b24e9d07711f56aebccc0.html#acf9b176d8d9b24e9d07711f56aebccc0" target="_top" xlink:title="get the local address for a slot">
<polygon fill="white" stroke="black" points="670,-532.5 670,-551.5 780,-551.5 780,-532.5 670,-532.5"/>
<text text-anchor="middle" x="725" y="-539.5" font-family="Helvetica,sans-Serif" font-size="10.00">trans_log_get_addr</text>
</a>
</g>
</g>
<!-- Node5&#45;&gt;Node16 -->
<g id="edge17" class="edge">
<title>Node5&#45;&gt;Node16</title>
<path fill="none" stroke="midnightblue" d="M626.02,-554.88C636.69,-553.48 648.23,-551.96 659.51,-550.48"/>
<polygon fill="midnightblue" stroke="midnightblue" points="660.31,-553.9 669.77,-549.13 659.4,-546.96 660.31,-553.9"/>
</g>
<!-- Node17 -->
<g id="node17" class="node">
<title>Node17</title>
<g id="a_node17"><a xlink:href="rdcu__rmap_8c_a7012f58a1862cf07b00e299d24c199c2.html#a7012f58a1862cf07b00e299d24c199c2" target="_top" xlink:title="release a slot in the transaction log">
<polygon fill="white" stroke="black" points="662,-608.5 662,-627.5 788,-627.5 788,-608.5 662,-608.5"/>
<text text-anchor="middle" x="725" y="-615.5" font-family="Helvetica,sans-Serif" font-size="10.00">trans_log_release_slot</text>
</a>
</g>
</g>
<!-- Node5&#45;&gt;Node17 -->
<g id="edge18" class="edge">
<title>Node5&#45;&gt;Node17</title>
<path fill="none" stroke="midnightblue" d="M598.52,-570.65C615.05,-578.82 639.75,-590.51 662,-599 667.87,-601.24 674.12,-603.4 680.31,-605.42"/>
<polygon fill="midnightblue" stroke="midnightblue" points="679.34,-608.78 689.93,-608.46 681.45,-602.11 679.34,-608.78"/>
</g>
<!-- Node9 -->
<g id="node9" class="node">
<title>Node9</title>
<g id="a_node9"><a xlink:href="rmap_8c_abb4e19c17c7223212c3904bc4c0189d2.html#abb4e19c17c7223212c3904bc4c0189d2" target="_top" xlink:title=" ">
<polygon fill="white" stroke="black" points="839.5,-684.5 839.5,-703.5 950.5,-703.5 950.5,-684.5 839.5,-684.5"/>
<text text-anchor="middle" x="895" y="-691.5" font-family="Helvetica,sans-Serif" font-size="10.00">rmap_check_status</text>
</a>
</g>
</g>
<!-- Node8&#45;&gt;Node9 -->
<g id="edge9" class="edge">
<title>Node8&#45;&gt;Node9</title>
<path fill="none" stroke="midnightblue" d="M772.8,-694C790.33,-694 810.57,-694 829.42,-694"/>
<polygon fill="midnightblue" stroke="midnightblue" points="829.43,-697.5 839.43,-694 829.43,-690.5 829.43,-697.5"/>
</g>
<!-- Node10 -->
<g id="node10" class="node">
<title>Node10</title>
<g id="a_node10"><a xlink:href="rmap_8c_a20aa8b91dfb1bbad819759f97b853054.html#a20aa8b91dfb1bbad819759f97b853054" target="_top" xlink:title=" ">
<polygon fill="white" stroke="black" points="834,-646.5 834,-665.5 956,-665.5 956,-646.5 834,-646.5"/>
<text text-anchor="middle" x="895" y="-653.5" font-family="Helvetica,sans-Serif" font-size="10.00">rmap_parse_cmd_pkt</text>
</a>
</g>
</g>
<!-- Node8&#45;&gt;Node10 -->
<g id="edge10" class="edge">
<title>Node8&#45;&gt;Node10</title>
<path fill="none" stroke="midnightblue" d="M768.39,-684.41C790.76,-679.35 818.4,-673.1 842.05,-667.75"/>
<polygon fill="midnightblue" stroke="midnightblue" points="842.93,-671.14 851.91,-665.52 841.39,-664.31 842.93,-671.14"/>
</g>
<!-- Node11 -->
<g id="node11" class="node">
<title>Node11</title>
<g id="a_node11"><a xlink:href="rmap_8c_adef42426b46ee5ad5176ee76cff35c22.html#adef42426b46ee5ad5176ee76cff35c22" target="_top" xlink:title=" ">
<polygon fill="white" stroke="black" points="832.5,-722.5 832.5,-741.5 957.5,-741.5 957.5,-722.5 832.5,-722.5"/>
<text text-anchor="middle" x="895" y="-729.5" font-family="Helvetica,sans-Serif" font-size="10.00">rmap_parse_reply_pkt</text>
</a>
</g>
</g>
<!-- Node8&#45;&gt;Node11 -->
<g id="edge11" class="edge">
<title>Node8&#45;&gt;Node11</title>
<path fill="none" stroke="midnightblue" d="M768.39,-703.59C790.76,-708.65 818.4,-714.9 842.05,-720.25"/>
<polygon fill="midnightblue" stroke="midnightblue" points="841.39,-723.69 851.91,-722.48 842.93,-716.86 841.39,-723.69"/>
</g>
<!-- Node12 -->
<g id="node12" class="node">
<title>Node12</title>
<g id="a_node12"><a xlink:href="rmap_8c_a2ff278a5e094a9f585865d4d838e0e0e.html#a2ff278a5e094a9f585865d4d838e0e0e" target="_top" xlink:title=" ">
<polygon fill="white" stroke="black" points="1002,-722.5 1002,-741.5 1144,-741.5 1144,-722.5 1002,-722.5"/>
<text text-anchor="middle" x="1073" y="-729.5" font-family="Helvetica,sans-Serif" font-size="10.00">rmap_process_read_reply</text>
</a>
</g>
</g>
<!-- Node11&#45;&gt;Node12 -->
<g id="edge12" class="edge">
<title>Node11&#45;&gt;Node12</title>
<path fill="none" stroke="midnightblue" d="M957.56,-732C968.6,-732 980.25,-732 991.73,-732"/>
<polygon fill="midnightblue" stroke="midnightblue" points="991.74,-735.5 1001.74,-732 991.74,-728.5 991.74,-735.5"/>
</g>
<!-- Node13&#45;&gt;Node3 -->
<g id="edge14" class="edge">
<title>Node13&#45;&gt;Node3</title>
<path fill="none" stroke="midnightblue" d="M761.51,-361.57C770.29,-364.3 779.58,-367.49 788,-371 817.06,-383.13 848.64,-400.73 869.7,-413.16"/>
<polygon fill="midnightblue" stroke="midnightblue" points="867.94,-416.18 878.32,-418.3 871.52,-410.17 867.94,-416.18"/>
</g>
<!-- Node14 -->
<g id="node14" class="node">
<title>Node14</title>
<g id="a_node14"><a xlink:href="rmap_8c_aba944cf978de0b264ea5bb3a784bce0f.html#aba944cf978de0b264ea5bb3a784bce0f" target="_top" xlink:title="create an RMAP packet and set defaults">
<polygon fill="white" stroke="black" points="837,-228.5 837,-247.5 953,-247.5 953,-228.5 837,-228.5"/>
<text text-anchor="middle" x="895" y="-235.5" font-family="Helvetica,sans-Serif" font-size="10.00">rmap_create_packet</text>
</a>
</g>
</g>
<!-- Node13&#45;&gt;Node14 -->
<g id="edge15" class="edge">
<title>Node13&#45;&gt;Node14</title>
<path fill="none" stroke="midnightblue" d="M766.42,-342.4C773.83,-339.87 781.33,-336.76 788,-333 825.04,-312.08 860.2,-276.34 879.26,-255.17"/>
<polygon fill="midnightblue" stroke="midnightblue" points="881.96,-257.39 885.96,-247.58 876.72,-252.75 881.96,-257.39"/>
</g>
<!-- Node15 -->
<g id="node15" class="node">
<title>Node15</title>
<g id="a_node15"><a xlink:href="rmap_8c_a0ec3c28e83818f02e00d4c79d82d938a.html#a0ec3c28e83818f02e00d4c79d82d938a" target="_top" xlink:title="get the minimum header size given the RMAP instruction">
<polygon fill="white" stroke="black" points="828.5,-133.5 828.5,-152.5 961.5,-152.5 961.5,-133.5 828.5,-133.5"/>
<text text-anchor="middle" x="895" y="-140.5" font-family="Helvetica,sans-Serif" font-size="10.00">rmap_get_min_hdr_size</text>
</a>
</g>
</g>
<!-- Node13&#45;&gt;Node15 -->
<g id="edge16" class="edge">
<title>Node13&#45;&gt;Node15</title>
<path fill="none" stroke="midnightblue" d="M774.37,-342.44C779.39,-339.98 784.08,-336.88 788,-333 825.73,-295.59 797.36,-264.97 824,-219 837.48,-195.74 859.17,-173.66 874.83,-159.36"/>
<polygon fill="midnightblue" stroke="midnightblue" points="877.26,-161.89 882.4,-152.62 872.6,-156.66 877.26,-161.89"/>
</g>
<!-- Node20 -->
<g id="node20" class="node">
<title>Node20</title>
<g id="a_node20"><a xlink:href="rdcu__cmd_8c_a690d79ff983a96fdd40db6396e9c70e9.html#a690d79ff983a96fdd40db6396e9c70e9" target="_top" xlink:title="generate a write command for an arbitrary register (internal)">
<polygon fill="white" stroke="black" points="358,-353 358,-383 495,-383 495,-353 358,-353"/>
<text text-anchor="start" x="366" y="-371" font-family="Helvetica,sans-Serif" font-size="10.00">rdcu_write_cmd_register</text>
<text text-anchor="middle" x="426.5" y="-360" font-family="Helvetica,sans-Serif" font-size="10.00">_internal</text>
</a>
</g>
</g>
<!-- Node19&#45;&gt;Node20 -->
<g id="edge21" class="edge">
<title>Node19&#45;&gt;Node20</title>
<path fill="none" stroke="midnightblue" d="M270.32,-558.85C299.36,-523.14 372.26,-433.48 406.79,-391.01"/>
<polygon fill="midnightblue" stroke="midnightblue" points="409.57,-393.14 413.17,-383.17 404.14,-388.72 409.57,-393.14"/>
</g>
<!-- Node21 -->
<g id="node21" class="node">
<title>Node21</title>
<g id="a_node21"><a xlink:href="rdcu__rmap_8c_ab224927e85a7cec5b6f90292c7de36c4.html#ab224927e85a7cec5b6f90292c7de36c4" target="_top" xlink:title="generate an rmap command packet">
<polygon fill="white" stroke="black" points="535,-228.5 535,-247.5 622,-247.5 622,-228.5 535,-228.5"/>
<text text-anchor="middle" x="578.5" y="-235.5" font-family="Helvetica,sans-Serif" font-size="10.00">rdcu_gen_cmd</text>
</a>
</g>
</g>
<!-- Node20&#45;&gt;Node21 -->
<g id="edge22" class="edge">
<title>Node20&#45;&gt;Node21</title>
<path fill="none" stroke="midnightblue" d="M445,-352.83C473.42,-328.21 529.36,-279.72 558.63,-254.35"/>
<polygon fill="midnightblue" stroke="midnightblue" points="561.2,-256.76 566.47,-247.56 556.62,-251.47 561.2,-256.76"/>
</g>
<!-- Node21&#45;&gt;Node7 -->
<g id="edge26" class="edge">
<title>Node21&#45;&gt;Node7</title>
<path fill="none" stroke="midnightblue" d="M580.38,-247.52C583.93,-280.34 600.12,-389.81 662,-447 663.71,-448.58 665.55,-450.03 667.49,-451.37"/>
<polygon fill="midnightblue" stroke="midnightblue" points="666.08,-454.59 676.51,-456.46 669.53,-448.49 666.08,-454.59"/>
</g>
<!-- Node21&#45;&gt;Node14 -->
<g id="edge25" class="edge">
<title>Node21&#45;&gt;Node14</title>
<path fill="none" stroke="midnightblue" d="M584.23,-228.34C594.82,-207.96 622.65,-160.95 662,-143 712.95,-119.76 735.7,-122.99 788,-143 828.34,-158.43 863.01,-197.08 880.95,-220.05"/>
<polygon fill="midnightblue" stroke="midnightblue" points="878.35,-222.42 887.18,-228.27 883.93,-218.19 878.35,-222.42"/>
</g>
<!-- Node22 -->
<g id="node22" class="node">
<title>Node22</title>
<g id="a_node22"><a xlink:href="rmap_8c_aa17375d153cc3473cbbe4dfe1056c527.html#aa17375d153cc3473cbbe4dfe1056c527" target="_top" xlink:title="build an rmap header">
<polygon fill="white" stroke="black" points="679,-76.5 679,-95.5 771,-95.5 771,-76.5 679,-76.5"/>
<text text-anchor="middle" x="725" y="-83.5" font-family="Helvetica,sans-Serif" font-size="10.00">rmap_build_hdr</text>
</a>
</g>
</g>
<!-- Node21&#45;&gt;Node22 -->
<g id="edge23" class="edge">
<title>Node21&#45;&gt;Node22</title>
<path fill="none" stroke="midnightblue" d="M583.29,-228.17C592.9,-204.53 620.4,-143.91 662,-110 666.99,-105.93 672.75,-102.5 678.71,-99.61"/>
<polygon fill="midnightblue" stroke="midnightblue" points="680.36,-102.71 688.15,-95.52 677.58,-96.29 680.36,-102.71"/>
</g>
<!-- Node23 -->
<g id="node23" class="node">
<title>Node23</title>
<g id="a_node23"><a xlink:href="rmap_8c_aab7e23f061291d39568ad2df700bc777.html#aab7e23f061291d39568ad2df700bc777" target="_top" xlink:title="set an RMAP command">
<polygon fill="white" stroke="black" points="680.5,-38.5 680.5,-57.5 769.5,-57.5 769.5,-38.5 680.5,-38.5"/>
<text text-anchor="middle" x="725" y="-45.5" font-family="Helvetica,sans-Serif" font-size="10.00">rmap_set_cmd</text>
</a>
</g>
</g>
<!-- Node21&#45;&gt;Node23 -->
<g id="edge27" class="edge">
<title>Node21&#45;&gt;Node23</title>
<path fill="none" stroke="midnightblue" d="M581.36,-228.21C587.4,-199.09 609.23,-112.3 662,-67 664.81,-64.58 667.93,-62.48 671.22,-60.64"/>
<polygon fill="midnightblue" stroke="midnightblue" points="672.72,-63.8 680.27,-56.36 669.74,-57.47 672.72,-63.8"/>
</g>
<!-- Node25 -->
<g id="node25" class="node">
<title>Node25</title>
<g id="a_node25"><a xlink:href="rmap_8c_acf641aae92829ae864b6c3d8f94d86e2.html#acf641aae92829ae864b6c3d8f94d86e2" target="_top" xlink:title="set a data address">
<polygon fill="white" stroke="black" points="667,-228.5 667,-247.5 783,-247.5 783,-228.5 667,-228.5"/>
<text text-anchor="middle" x="725" y="-235.5" font-family="Helvetica,sans-Serif" font-size="10.00">rmap_set_data_addr</text>
</a>
</g>
</g>
<!-- Node21&#45;&gt;Node25 -->
<g id="edge29" class="edge">
<title>Node21&#45;&gt;Node25</title>
<path fill="none" stroke="midnightblue" d="M622.07,-238C632.95,-238 644.92,-238 656.72,-238"/>
<polygon fill="midnightblue" stroke="midnightblue" points="657,-241.5 667,-238 657,-234.5 657,-241.5"/>
</g>
<!-- Node26 -->
<g id="node26" class="node">
<title>Node26</title>
<g id="a_node26"><a xlink:href="rmap_8c_a6833f065640f652aa1a929309e592f7a.html#a6833f065640f652aa1a929309e592f7a" target="_top" xlink:title="set an RMAP command">
<polygon fill="white" stroke="black" points="670,-190.5 670,-209.5 780,-209.5 780,-190.5 670,-190.5"/>
<text text-anchor="middle" x="725" y="-197.5" font-family="Helvetica,sans-Serif" font-size="10.00">rmap_set_data_len</text>
</a>
</g>
</g>
<!-- Node21&#45;&gt;Node26 -->
<g id="edge30" class="edge">
<title>Node21&#45;&gt;Node26</title>
<path fill="none" stroke="midnightblue" d="M615.96,-228.41C634.77,-223.46 657.91,-217.38 677.95,-212.11"/>
<polygon fill="midnightblue" stroke="midnightblue" points="679.02,-215.45 687.8,-209.52 677.24,-208.68 679.02,-215.45"/>
</g>
<!-- Node27 -->
<g id="node27" class="node">
<title>Node27</title>
<g id="a_node27"><a xlink:href="rmap_8c_a5f0081b9928da5e50fc8b231b57f3a80.html#a5f0081b9928da5e50fc8b231b57f3a80" target="_top" xlink:title="set the destination address path">
<polygon fill="white" stroke="black" points="667,-418.5 667,-437.5 783,-437.5 783,-418.5 667,-418.5"/>
<text text-anchor="middle" x="725" y="-425.5" font-family="Helvetica,sans-Serif" font-size="10.00">rmap_set_dest_path</text>
</a>
</g>
</g>
<!-- Node21&#45;&gt;Node27 -->
<g id="edge31" class="edge">
<title>Node21&#45;&gt;Node27</title>
<path fill="none" stroke="midnightblue" d="M581.36,-247.79C587.4,-276.91 609.23,-363.7 662,-409 663.98,-410.7 666.11,-412.25 668.35,-413.66"/>
<polygon fill="midnightblue" stroke="midnightblue" points="666.93,-416.87 677.41,-418.44 670.2,-410.68 666.93,-416.87"/>
</g>
<!-- Node28 -->
<g id="node28" class="node">
<title>Node28</title>
<g id="a_node28"><a xlink:href="rmap_8c_a2da8e7b48411d382b54848795f85795d.html#a2da8e7b48411d382b54848795f85795d" target="_top" xlink:title="set the destination (target) logical address">
<polygon fill="white" stroke="black" points="683.5,-152.5 683.5,-171.5 766.5,-171.5 766.5,-152.5 683.5,-152.5"/>
<text text-anchor="middle" x="725" y="-159.5" font-family="Helvetica,sans-Serif" font-size="10.00">rmap_set_dst</text>
</a>
</g>
</g>
<!-- Node21&#45;&gt;Node28 -->
<g id="edge33" class="edge">
<title>Node21&#45;&gt;Node28</title>
<path fill="none" stroke="midnightblue" d="M590.82,-228.48C606.1,-216.04 634.58,-194.28 662,-181 666.63,-178.76 671.58,-176.71 676.6,-174.86"/>
<polygon fill="midnightblue" stroke="midnightblue" points="677.92,-178.1 686.24,-171.54 675.65,-171.48 677.92,-178.1"/>
</g>
<!-- Node29 -->
<g id="node29" class="node">
<title>Node29</title>
<g id="a_node29"><a xlink:href="rmap_8c_a15021c9dfccddc44786dfd37834bcd7e.html#a15021c9dfccddc44786dfd37834bcd7e" target="_top" xlink:title="set the command authorisation key">
<polygon fill="white" stroke="black" points="682.5,-0.5 682.5,-19.5 767.5,-19.5 767.5,-0.5 682.5,-0.5"/>
<text text-anchor="middle" x="725" y="-7.5" font-family="Helvetica,sans-Serif" font-size="10.00">rmap_set_key</text>
</a>
</g>
</g>
<!-- Node21&#45;&gt;Node29 -->
<g id="edge34" class="edge">
<title>Node21&#45;&gt;Node29</title>
<path fill="none" stroke="midnightblue" d="M580.38,-228.48C583.93,-195.66 600.12,-86.19 662,-29 665.21,-26.03 668.87,-23.53 672.77,-21.42"/>
<polygon fill="midnightblue" stroke="midnightblue" points="674.54,-24.46 682.22,-17.16 671.66,-18.08 674.54,-24.46"/>
</g>
<!-- Node30 -->
<g id="node30" class="node">
<title>Node30</title>
<g id="a_node30"><a xlink:href="rmap_8c_a56c47830e67d01e469231e5e7e1d3a34.html#a56c47830e67d01e469231e5e7e1d3a34" target="_top" xlink:title="set the reply address path">
<polygon fill="white" stroke="black" points="665.5,-380.5 665.5,-399.5 784.5,-399.5 784.5,-380.5 665.5,-380.5"/>
<text text-anchor="middle" x="725" y="-387.5" font-family="Helvetica,sans-Serif" font-size="10.00">rmap_set_reply_path</text>
</a>
</g>
</g>
<!-- Node21&#45;&gt;Node30 -->
<g id="edge35" class="edge">
<title>Node21&#45;&gt;Node30</title>
<path fill="none" stroke="midnightblue" d="M582.76,-247.68C591.52,-272.17 617.88,-337 662,-371 664.34,-372.8 666.85,-374.44 669.48,-375.92"/>
<polygon fill="midnightblue" stroke="midnightblue" points="668.22,-379.19 678.75,-380.38 671.25,-372.89 668.22,-379.19"/>
</g>
<!-- Node31 -->
<g id="node31" class="node">
<title>Node31</title>
<g id="a_node31"><a xlink:href="rmap_8c_adae0030440ca4e7ad34622e505acbb2c.html#adae0030440ca4e7ad34622e505acbb2c" target="_top" xlink:title="set the source (initiator) logical address">
<polygon fill="white" stroke="black" points="684,-304.5 684,-323.5 766,-323.5 766,-304.5 684,-304.5"/>
<text text-anchor="middle" x="725" y="-311.5" font-family="Helvetica,sans-Serif" font-size="10.00">rmap_set_src</text>
</a>
</g>
</g>
<!-- Node21&#45;&gt;Node31 -->
<g id="edge37" class="edge">
<title>Node21&#45;&gt;Node31</title>
<path fill="none" stroke="midnightblue" d="M590.82,-247.52C606.1,-259.96 634.58,-281.72 662,-295 666.63,-297.24 671.58,-299.29 676.6,-301.14"/>
<polygon fill="midnightblue" stroke="midnightblue" points="675.65,-304.52 686.24,-304.46 677.92,-297.9 675.65,-304.52"/>
</g>
<!-- Node32 -->
<g id="node32" class="node">
<title>Node32</title>
<g id="a_node32"><a xlink:href="rmap_8c_a7b4c31714493ce6cc19d4aa825ab50aa.html#a7b4c31714493ce6cc19d4aa825ab50aa" target="_top" xlink:title="set an RMAP transaction identifier">
<polygon fill="white" stroke="black" points="680.5,-266.5 680.5,-285.5 769.5,-285.5 769.5,-266.5 680.5,-266.5"/>
<text text-anchor="middle" x="725" y="-273.5" font-family="Helvetica,sans-Serif" font-size="10.00">rmap_set_tr_id</text>
</a>
</g>
</g>
<!-- Node21&#45;&gt;Node32 -->
<g id="edge38" class="edge">
<title>Node21&#45;&gt;Node32</title>
<path fill="none" stroke="midnightblue" d="M615.96,-247.59C634.77,-252.54 657.91,-258.62 677.95,-263.89"/>
<polygon fill="midnightblue" stroke="midnightblue" points="677.24,-267.32 687.8,-266.48 679.02,-260.55 677.24,-267.32"/>
</g>
<!-- Node22&#45;&gt;Node15 -->
<g id="edge24" class="edge">
<title>Node22&#45;&gt;Node15</title>
<path fill="none" stroke="midnightblue" d="M754.12,-95.54C782.1,-105.03 825.23,-119.67 856.2,-130.17"/>
<polygon fill="midnightblue" stroke="midnightblue" points="855.19,-133.53 865.79,-133.43 857.44,-126.9 855.19,-133.53"/>
</g>
<!-- Node24 -->
<g id="node24" class="node">
<title>Node24</title>
<g id="a_node24"><a xlink:href="rmap_8c_a667ce871110961f2a611d0244791e20f.html#a667ce871110961f2a611d0244791e20f" target="_top" xlink:title="valiidates a command code">
<polygon fill="white" stroke="black" points="824,-38.5 824,-57.5 966,-57.5 966,-38.5 824,-38.5"/>
<text text-anchor="middle" x="895" y="-45.5" font-family="Helvetica,sans-Serif" font-size="10.00">rmap_validate_cmd_code</text>
</a>
</g>
</g>
<!-- Node23&#45;&gt;Node24 -->
<g id="edge28" class="edge">
<title>Node23&#45;&gt;Node24</title>
<path fill="none" stroke="midnightblue" d="M769.7,-48C783.13,-48 798.36,-48 813.44,-48"/>
<polygon fill="midnightblue" stroke="midnightblue" points="813.83,-51.5 823.83,-48 813.83,-44.5 813.83,-51.5"/>
</g>
<!-- Node27&#45;&gt;Node3 -->
<g id="edge32" class="edge">
<title>Node27&#45;&gt;Node3</title>
<path fill="none" stroke="midnightblue" d="M783.35,-428C808.67,-428 837.6,-428 859.52,-428"/>
<polygon fill="midnightblue" stroke="midnightblue" points="859.68,-431.5 869.68,-428 859.68,-424.5 859.68,-431.5"/>
</g>
<!-- Node30&#45;&gt;Node3 -->
<g id="edge36" class="edge">
<title>Node30&#45;&gt;Node3</title>
<path fill="none" stroke="midnightblue" d="M768.39,-399.59C796.71,-405.99 833.47,-414.31 859.9,-420.29"/>
<polygon fill="midnightblue" stroke="midnightblue" points="859.3,-423.74 869.83,-422.53 860.85,-416.91 859.3,-423.74"/>
</g>
</g>
</svg>
        <g id="navigator" transform="translate(0 0)" fill="#404254">
                <rect fill="#f2f5e9" fill-opacity="0.5" stroke="#606060" stroke-width=".5" x="0" y="0" width="60" height="60"/>
                <use id="zoomplus" xlink:href="#zoomPlus" x="17" y="9" onmousedown="handleZoom(evt,'in')"/>
                <use id="zoomminus" xlink:href="#zoomMin" x="42" y="9" onmousedown="handleZoom(evt,'out')"/>
                <use id="reset" xlink:href="#resetDef" x="30" y="36" onmousedown="handleReset()"/>
                <g id="arrowUp" xlink:href="#dirArrow" transform="translate(30 24)" onmousedown="handlePan(0,-1)">
                  <use xlink:href="#rim" fill="#404040">
                        <set attributeName="fill" to="#808080" begin="arrowUp.mouseover" end="arrowUp.mouseout"/>
                  </use>
                  <path fill="none" stroke="white" stroke-width="1.5" d="M0,-3.0v7 M-2.5,-0.5L0,-3.0L2.5,-0.5"/>
                </g>
                <g id="arrowRight" xlink:href="#dirArrow" transform="rotate(90) translate(36 -43)" onmousedown="handlePan(1,0)">
                  <use xlink:href="#rim" fill="#404040">
                        <set attributeName="fill" to="#808080" begin="arrowRight.mouseover" end="arrowRight.mouseout"/>
                  </use>
                  <path fill="none" stroke="white" stroke-width="1.5" d="M0,-3.0v7 M-2.5,-0.5L0,-3.0L2.5,-0.5"/>
                </g>
                <g id="arrowDown" xlink:href="#dirArrow" transform="rotate(180) translate(-30 -48)" onmousedown="handlePan(0,1)">
                  <use xlink:href="#rim" fill="#404040">
                        <set attributeName="fill" to="#808080" begin="arrowDown.mouseover" end="arrowDown.mouseout"/>
                  </use>
                  <path fill="none" stroke="white" stroke-width="1.5" d="M0,-3.0v7 M-2.5,-0.5L0,-3.0L2.5,-0.5"/>
                </g>
                <g id="arrowLeft" xlink:href="#dirArrow" transform="rotate(270) translate(-36 17)" onmousedown="handlePan(-1,0)">
                  <use xlink:href="#rim" fill="#404040">
                        <set attributeName="fill" to="#808080" begin="arrowLeft.mouseover" end="arrowLeft.mouseout"/>
                  </use>
                  <path fill="none" stroke="white" stroke-width="1.5" d="M0,-3.0v7 M-2.5,-0.5L0,-3.0L2.5,-0.5"/>
                </g>
        </g>
        <svg viewBox="0 0 15 15" width="100%" height="30px" preserveAspectRatio="xMaxYMin meet">
         <g id="arrow_out" transform="scale(0.3 0.3)">
          <a xlink:href="rdcu__ctrl_8c_abf96f120b7bcaf13973cd8d2b815df18_abf96f120b7bcaf13973cd8d2b815df18_cgraph_org.svg" target="_base">
           <rect id="button" ry="5" rx="5" y="6" x="6" height="38" width="38"
                fill="#f2f5e9" fill-opacity="0.5" stroke="#606060" stroke-width="1.0"/>
           <path id="arrow"
             d="M 11.500037,31.436501 C 11.940474,20.09759 22.043105,11.32322 32.158766,21.979434 L 37.068811,17.246167 C 37.068811,17.246167 37.088388,32 37.088388,32 L 22.160133,31.978069 C 22.160133,31.978069 26.997745,27.140456 26.997745,27.140456 C 18.528582,18.264221 13.291696,25.230495 11.500037,31.436501 z"
             style="fill:#404040;"/>
          </a>
         </g>
        </svg>
</svg>
