<?xml version="1.0" encoding="UTF-8" standalone="no"?>
<!DOCTYPE svg PUBLIC "-//W3C//DTD SVG 1.1//EN"
 "http://www.w3.org/Graphics/SVG/1.1/DTD/svg11.dtd">
<!-- Generated by graphviz version 2.43.0 (0)
 -->
<!-- Title: rdcu_sync_mirror_to_sram Pages: 1 -->
<svg width="617pt" height="82pt"
 viewBox="0.00 0.00 617.00 81.63" xmlns="http://www.w3.org/2000/svg" xmlns:xlink="http://www.w3.org/1999/xlink">
<g id="graph0" class="graph" transform="scale(1 1) rotate(0) translate(4 77.63)">
<title>rdcu_sync_mirror_to_sram</title>
<polygon fill="white" stroke="transparent" points="-4,4 -4,-77.63 613,-77.63 613,4 -4,4"/>
<!-- Node1 -->
<g id="node1" class="node">
<title>Node1</title>
<g id="a_node1"><a xlink:title="sync a range of 32 bit words of the local mirror to the remote SRAM">
<polygon fill="#bfbfbf" stroke="black" points="463,-38.5 463,-57.5 609,-57.5 609,-38.5 463,-38.5"/>
<text text-anchor="middle" x="536" y="-45.5" font-family="Helvetica,sans-Serif" font-size="10.00">rdcu_sync_mirror_to_sram</text>
</a>
</g>
</g>
<!-- Node2 -->
<g id="node2" class="node">
<title>Node2</title>
<g id="a_node2"><a xlink:href="cmp__rdcu_8c_ab69cf44ac326e0cebdef002e8f2ea2cb.html#ab69cf44ac326e0cebdef002e8f2ea2cb" target="_top" xlink:title="compressing data with the help of the RDCU hardware compressor; read data from the last compression b...">
<polygon fill="white" stroke="black" points="0,-33 0,-63 117,-63 117,-33 0,-33"/>
<text text-anchor="start" x="8" y="-51" font-family="Helvetica,sans-Serif" font-size="10.00">rdcu_compress_data</text>
<text text-anchor="middle" x="58.5" y="-40" font-family="Helvetica,sans-Serif" font-size="10.00">_parallel</text>
</a>
</g>
</g>
<!-- Node1&#45;&gt;Node2 -->
<g id="edge1" class="edge">
<title>Node1&#45;&gt;Node2</title>
<path fill="none" stroke="midnightblue" d="M459.17,-58.75C448.39,-60.01 437.42,-61.15 427,-62 305.61,-71.91 274.19,-79.19 153,-67 141.3,-65.82 128.9,-63.84 117.08,-61.58"/>
<polygon fill="midnightblue" stroke="midnightblue" points="459.92,-62.19 469.43,-57.51 459.08,-55.24 459.92,-62.19"/>
</g>
<!-- Node3 -->
<g id="node3" class="node">
<title>Node3</title>
<g id="a_node3"><a xlink:href="cmp__rdcu_8c_af59f75c76a057d49a54b54800dc59556.html#af59f75c76a057d49a54b54800dc59556" target="_top" xlink:title="inject a SRAM edac multi bit error into the RDCU SRAM">
<polygon fill="white" stroke="black" points="153,-38.5 153,-57.5 280,-57.5 280,-38.5 153,-38.5"/>
<text text-anchor="middle" x="216.5" y="-45.5" font-family="Helvetica,sans-Serif" font-size="10.00">rdcu_inject_edac_error</text>
</a>
</g>
</g>
<!-- Node1&#45;&gt;Node3 -->
<g id="edge2" class="edge">
<title>Node1&#45;&gt;Node3</title>
<path fill="none" stroke="midnightblue" d="M452.74,-48C398.87,-48 329.55,-48 280.14,-48"/>
<polygon fill="midnightblue" stroke="midnightblue" points="452.95,-51.5 462.95,-48 452.95,-44.5 452.95,-51.5"/>
</g>
<!-- Node4 -->
<g id="node4" class="node">
<title>Node4</title>
<g id="a_node4"><a xlink:href="cmp__rdcu_8c_aa257971c693045ef23e6c79879b32473.html#aa257971c693045ef23e6c79879b32473" target="_top" xlink:title="set up RDCU SRAM for compression">
<polygon fill="white" stroke="black" points="316,-0.5 316,-19.5 427,-19.5 427,-0.5 316,-0.5"/>
<text text-anchor="middle" x="371.5" y="-7.5" font-family="Helvetica,sans-Serif" font-size="10.00">rdcu_transfer_sram</text>
</a>
</g>
</g>
<!-- Node1&#45;&gt;Node4 -->
<g id="edge3" class="edge">
<title>Node1&#45;&gt;Node4</title>
<path fill="none" stroke="midnightblue" d="M484.13,-36.1C461.29,-30.76 434.7,-24.55 413.21,-19.52"/>
<polygon fill="midnightblue" stroke="midnightblue" points="483.46,-39.54 493.99,-38.41 485.05,-32.73 483.46,-39.54"/>
</g>
<!-- Node4&#45;&gt;Node3 -->
<g id="edge6" class="edge">
<title>Node4&#45;&gt;Node3</title>
<path fill="none" stroke="midnightblue" d="M322.02,-22.04C300.65,-27.35 275.89,-33.5 255.83,-38.48"/>
<polygon fill="midnightblue" stroke="midnightblue" points="323.03,-25.4 331.89,-19.59 321.34,-18.6 323.03,-25.4"/>
</g>
<!-- Node5 -->
<g id="node5" class="node">
<title>Node5</title>
<g id="a_node5"><a xlink:href="cmp__rdcu_8h_a85aeb890a333d637dd7ffba03729e93a.html#a85aeb890a333d637dd7ffba03729e93a" target="_top" xlink:title="compressing data with the help of the RDCU hardware compressor">
<polygon fill="white" stroke="black" points="158,-0.5 158,-19.5 275,-19.5 275,-0.5 158,-0.5"/>
<text text-anchor="middle" x="216.5" y="-7.5" font-family="Helvetica,sans-Serif" font-size="10.00">rdcu_compress_data</text>
</a>
</g>
</g>
<!-- Node4&#45;&gt;Node5 -->
<g id="edge4" class="edge">
<title>Node4&#45;&gt;Node5</title>
<path fill="none" stroke="midnightblue" d="M305.64,-10C295.47,-10 285.01,-10 275.02,-10"/>
<polygon fill="midnightblue" stroke="midnightblue" points="305.7,-13.5 315.7,-10 305.7,-6.5 305.7,-13.5"/>
</g>
<!-- Node5&#45;&gt;Node2 -->
<g id="edge5" class="edge">
<title>Node5&#45;&gt;Node2</title>
<path fill="none" stroke="midnightblue" d="M166.18,-22.01C150.6,-25.81 133.24,-30.04 117.13,-33.96"/>
<polygon fill="midnightblue" stroke="midnightblue" points="167.25,-25.36 176.13,-19.59 165.59,-18.56 167.25,-25.36"/>
</g>
</g>
</svg>
