<?xml version="1.0" encoding="UTF-8" standalone="no"?>
<!DOCTYPE svg PUBLIC "-//W3C//DTD SVG 1.1//EN"
 "http://www.w3.org/Graphics/SVG/1.1/DTD/svg11.dtd">
<!-- Generated by graphviz version 2.43.0 (0)
 -->
<!-- Title: rdcu_sync_sram_mirror_parallel Pages: 1 -->
<svg width="1112pt" height="750pt"
 viewBox="0.00 0.00 1112.00 750.00" xmlns="http://www.w3.org/2000/svg" xmlns:xlink="http://www.w3.org/1999/xlink">
<g id="graph0" class="graph" transform="scale(1 1) rotate(0) translate(4 746)">
<title>rdcu_sync_sram_mirror_parallel</title>
<polygon fill="white" stroke="transparent" points="-4,4 -4,-746 1108,-746 1108,4 -4,4"/>
<!-- Node1 -->
<g id="node1" class="node">
<title>Node1</title>
<g id="a_node1"><a xlink:title="sync a range of 32 bit words of the remote SRAM to the local mirror and form the local mirror to the ...">
<polygon fill="#bfbfbf" stroke="black" points="0,-297 0,-327 131,-327 131,-297 0,-297"/>
<text text-anchor="start" x="8" y="-315" font-family="Helvetica,sans-Serif" font-size="10.00">rdcu_sync_sram_mirror</text>
<text text-anchor="middle" x="65.5" y="-304" font-family="Helvetica,sans-Serif" font-size="10.00">_parallel</text>
</a>
</g>
</g>
<!-- Node2 -->
<g id="node2" class="node">
<title>Node2</title>
<g id="a_node2"><a xlink:href="rdcu__cmd_8c_a0529d01908536a90bebeb44f114342c7.html#a0529d01908536a90bebeb44f114342c7" target="_top" xlink:title="create a command to read arbitrary data to the RDCU">
<polygon fill="white" stroke="black" points="173.5,-391.5 173.5,-410.5 291.5,-410.5 291.5,-391.5 173.5,-391.5"/>
<text text-anchor="middle" x="232.5" y="-398.5" font-family="Helvetica,sans-Serif" font-size="10.00">rdcu_read_cmd_data</text>
</a>
</g>
</g>
<!-- Node1&#45;&gt;Node2 -->
<g id="edge1" class="edge">
<title>Node1&#45;&gt;Node2</title>
<path fill="none" stroke="midnightblue" d="M94.49,-327.1C125.19,-343.66 174.11,-370.04 204.43,-386.4"/>
<polygon fill="midnightblue" stroke="midnightblue" points="203.12,-389.67 213.58,-391.33 206.44,-383.51 203.12,-389.67"/>
</g>
<!-- Node20 -->
<g id="node20" class="node">
<title>Node20</title>
<g id="a_node20"><a xlink:href="rdcu__rmap_8c_a2650ed06998d198567938a9e933e1761.html#a2650ed06998d198567938a9e933e1761" target="_top" xlink:title="get the RDCU &lt;&#45;&gt; ICU mirror RMAP synchronisation status">
<polygon fill="white" stroke="black" points="167,-283.5 167,-302.5 298,-302.5 298,-283.5 167,-283.5"/>
<text text-anchor="middle" x="232.5" y="-290.5" font-family="Helvetica,sans-Serif" font-size="10.00">rdcu_rmap_sync_status</text>
</a>
</g>
</g>
<!-- Node1&#45;&gt;Node20 -->
<g id="edge20" class="edge">
<title>Node1&#45;&gt;Node20</title>
<path fill="none" stroke="midnightblue" d="M131.24,-304.55C139.67,-303.57 148.37,-302.57 156.95,-301.58"/>
<polygon fill="midnightblue" stroke="midnightblue" points="157.41,-305.05 166.95,-300.43 156.61,-298.1 157.41,-305.05"/>
</g>
<!-- Node31 -->
<g id="node31" class="node">
<title>Node31</title>
<g id="a_node31"><a xlink:href="rdcu__rmap_8c_a9494bec87a3b44e5a6bb06a76193806e.html#a9494bec87a3b44e5a6bb06a76193806e" target="_top" xlink:title="submit a data sync command">
<polygon fill="white" stroke="black" points="186.5,-182.5 186.5,-201.5 278.5,-201.5 278.5,-182.5 186.5,-182.5"/>
<text text-anchor="middle" x="232.5" y="-189.5" font-family="Helvetica,sans-Serif" font-size="10.00">rdcu_sync_data</text>
</a>
</g>
</g>
<!-- Node1&#45;&gt;Node31 -->
<g id="edge36" class="edge">
<title>Node1&#45;&gt;Node31</title>
<path fill="none" stroke="midnightblue" d="M87.4,-296.8C118.94,-273.86 178.41,-230.61 210.2,-207.49"/>
<polygon fill="midnightblue" stroke="midnightblue" points="212.35,-210.25 218.38,-201.54 208.24,-204.59 212.35,-210.25"/>
</g>
<!-- Node34 -->
<g id="node34" class="node">
<title>Node34</title>
<g id="a_node34"><a xlink:href="rdcu__cmd_8c_a8a2bdc35e60b4f50569ea96395254e08.html#a8a2bdc35e60b4f50569ea96395254e08" target="_top" xlink:title="create a command to write arbitrary data to the RDCU">
<polygon fill="white" stroke="black" points="172,-470.5 172,-489.5 293,-489.5 293,-470.5 172,-470.5"/>
<text text-anchor="middle" x="232.5" y="-477.5" font-family="Helvetica,sans-Serif" font-size="10.00">rdcu_write_cmd_data</text>
</a>
</g>
</g>
<!-- Node1&#45;&gt;Node34 -->
<g id="edge42" class="edge">
<title>Node1&#45;&gt;Node34</title>
<path fill="none" stroke="midnightblue" d="M80.15,-327.35C99.17,-348.59 134.94,-387.95 167,-420 182.23,-435.22 200.21,-451.85 213.32,-463.73"/>
<polygon fill="midnightblue" stroke="midnightblue" points="211.01,-466.36 220.78,-470.46 215.7,-461.16 211.01,-466.36"/>
</g>
<!-- Node3 -->
<g id="node3" class="node">
<title>Node3</title>
<g id="a_node3"><a xlink:href="rdcu__cmd_8c_abe170ae0642edcb2e3db4ffded12cc89.html#abe170ae0642edcb2e3db4ffded12cc89" target="_top" xlink:title="create a command to read arbitrary data to the RDCU (internal)">
<polygon fill="white" stroke="black" points="335.5,-394 335.5,-424 453.5,-424 453.5,-394 335.5,-394"/>
<text text-anchor="start" x="343.5" y="-412" font-family="Helvetica,sans-Serif" font-size="10.00">rdcu_read_cmd_data</text>
<text text-anchor="middle" x="394.5" y="-401" font-family="Helvetica,sans-Serif" font-size="10.00">_internal</text>
</a>
</g>
</g>
<!-- Node2&#45;&gt;Node3 -->
<g id="edge2" class="edge">
<title>Node2&#45;&gt;Node3</title>
<path fill="none" stroke="midnightblue" d="M291.72,-403.91C302.59,-404.45 314.05,-405.03 325.2,-405.59"/>
<polygon fill="midnightblue" stroke="midnightblue" points="325.16,-409.09 335.33,-406.09 325.51,-402.1 325.16,-409.09"/>
</g>
<!-- Node4 -->
<g id="node4" class="node">
<title>Node4</title>
<g id="a_node4"><a xlink:href="rdcu__rmap_8c_ab224927e85a7cec5b6f90292c7de36c4.html#ab224927e85a7cec5b6f90292c7de36c4" target="_top" xlink:title="generate an rmap command packet">
<polygon fill="white" stroke="black" points="495,-475.5 495,-494.5 582,-494.5 582,-475.5 495,-475.5"/>
<text text-anchor="middle" x="538.5" y="-482.5" font-family="Helvetica,sans-Serif" font-size="10.00">rdcu_gen_cmd</text>
</a>
</g>
</g>
<!-- Node3&#45;&gt;Node4 -->
<g id="edge3" class="edge">
<title>Node3&#45;&gt;Node4</title>
<path fill="none" stroke="midnightblue" d="M423.55,-424.02C448.78,-437.52 485.6,-457.22 510.5,-470.55"/>
<polygon fill="midnightblue" stroke="midnightblue" points="508.94,-473.68 519.41,-475.32 512.24,-467.51 508.94,-473.68"/>
</g>
<!-- Node5 -->
<g id="node5" class="node">
<title>Node5</title>
<g id="a_node5"><a xlink:href="rmap_8c_aa17375d153cc3473cbbe4dfe1056c527.html#aa17375d153cc3473cbbe4dfe1056c527" target="_top" xlink:title="build an rmap header">
<polygon fill="white" stroke="black" points="639,-532.5 639,-551.5 731,-551.5 731,-532.5 639,-532.5"/>
<text text-anchor="middle" x="685" y="-539.5" font-family="Helvetica,sans-Serif" font-size="10.00">rmap_build_hdr</text>
</a>
</g>
</g>
<!-- Node4&#45;&gt;Node5 -->
<g id="edge4" class="edge">
<title>Node4&#45;&gt;Node5</title>
<path fill="none" stroke="midnightblue" d="M558.52,-494.65C575.05,-502.82 599.75,-514.51 622,-523 627.87,-525.24 634.12,-527.4 640.31,-529.42"/>
<polygon fill="midnightblue" stroke="midnightblue" points="639.34,-532.78 649.93,-532.46 641.45,-526.11 639.34,-532.78"/>
</g>
<!-- Node7 -->
<g id="node7" class="node">
<title>Node7</title>
<g id="a_node7"><a xlink:href="rmap_8c_aba944cf978de0b264ea5bb3a784bce0f.html#aba944cf978de0b264ea5bb3a784bce0f" target="_top" xlink:title="create an RMAP packet and set defaults">
<polygon fill="white" stroke="black" points="797,-513.5 797,-532.5 913,-532.5 913,-513.5 797,-513.5"/>
<text text-anchor="middle" x="855" y="-520.5" font-family="Helvetica,sans-Serif" font-size="10.00">rmap_create_packet</text>
</a>
</g>
</g>
<!-- Node4&#45;&gt;Node7 -->
<g id="edge6" class="edge">
<title>Node4&#45;&gt;Node7</title>
<path fill="none" stroke="midnightblue" d="M542.96,-494.74C551.84,-517.98 577.83,-576.44 622,-599 671.87,-624.47 694.69,-616.14 748,-599 784.03,-587.42 818.19,-558.57 837.57,-539.93"/>
<polygon fill="midnightblue" stroke="midnightblue" points="840.28,-542.17 844.93,-532.65 835.36,-537.19 840.28,-542.17"/>
</g>
<!-- Node8 -->
<g id="node8" class="node">
<title>Node8</title>
<g id="a_node8"><a xlink:href="rmap_8c_a1def9af549819e7fdbda12af8bdc9c0e.html#a1def9af549819e7fdbda12af8bdc9c0e" target="_top" xlink:title="completely destroys an RMAP packet">
<polygon fill="white" stroke="black" points="629,-266.5 629,-285.5 741,-285.5 741,-266.5 629,-266.5"/>
<text text-anchor="middle" x="685" y="-273.5" font-family="Helvetica,sans-Serif" font-size="10.00">rmap_erase_packet</text>
</a>
</g>
</g>
<!-- Node4&#45;&gt;Node8 -->
<g id="edge7" class="edge">
<title>Node4&#45;&gt;Node8</title>
<path fill="none" stroke="midnightblue" d="M540.8,-475.48C545.52,-444.6 564.62,-346.28 622,-295 623.91,-293.29 625.97,-291.74 628.14,-290.33"/>
<polygon fill="midnightblue" stroke="midnightblue" points="629.84,-293.39 636.95,-285.54 626.49,-287.24 629.84,-293.39"/>
</g>
<!-- Node9 -->
<g id="node9" class="node">
<title>Node9</title>
<g id="a_node9"><a xlink:href="rmap_8c_aab7e23f061291d39568ad2df700bc777.html#aab7e23f061291d39568ad2df700bc777" target="_top" xlink:title="set an RMAP command">
<polygon fill="white" stroke="black" points="640.5,-646.5 640.5,-665.5 729.5,-665.5 729.5,-646.5 640.5,-646.5"/>
<text text-anchor="middle" x="685" y="-653.5" font-family="Helvetica,sans-Serif" font-size="10.00">rmap_set_cmd</text>
</a>
</g>
</g>
<!-- Node4&#45;&gt;Node9 -->
<g id="edge8" class="edge">
<title>Node4&#45;&gt;Node9</title>
<path fill="none" stroke="midnightblue" d="M542.38,-494.73C550.54,-520.7 576.23,-592.31 622,-632 626.58,-635.97 631.89,-639.32 637.44,-642.14"/>
<polygon fill="midnightblue" stroke="midnightblue" points="636.36,-645.5 646.92,-646.4 639.23,-639.11 636.36,-645.5"/>
</g>
<!-- Node11 -->
<g id="node11" class="node">
<title>Node11</title>
<g id="a_node11"><a xlink:href="rmap_8c_acf641aae92829ae864b6c3d8f94d86e2.html#acf641aae92829ae864b6c3d8f94d86e2" target="_top" xlink:title="set a data address">
<polygon fill="white" stroke="black" points="627,-570.5 627,-589.5 743,-589.5 743,-570.5 627,-570.5"/>
<text text-anchor="middle" x="685" y="-577.5" font-family="Helvetica,sans-Serif" font-size="10.00">rmap_set_data_addr</text>
</a>
</g>
</g>
<!-- Node4&#45;&gt;Node11 -->
<g id="edge10" class="edge">
<title>Node4&#45;&gt;Node11</title>
<path fill="none" stroke="midnightblue" d="M547.37,-494.64C560.95,-510.68 590.41,-542.88 622,-561 625.74,-563.14 629.74,-565.07 633.85,-566.8"/>
<polygon fill="midnightblue" stroke="midnightblue" points="632.95,-570.2 643.54,-570.47 635.43,-563.66 632.95,-570.2"/>
</g>
<!-- Node12 -->
<g id="node12" class="node">
<title>Node12</title>
<g id="a_node12"><a xlink:href="rmap_8c_a6833f065640f652aa1a929309e592f7a.html#a6833f065640f652aa1a929309e592f7a" target="_top" xlink:title="set an RMAP command">
<polygon fill="white" stroke="black" points="630,-494.5 630,-513.5 740,-513.5 740,-494.5 630,-494.5"/>
<text text-anchor="middle" x="685" y="-501.5" font-family="Helvetica,sans-Serif" font-size="10.00">rmap_set_data_len</text>
</a>
</g>
</g>
<!-- Node4&#45;&gt;Node12 -->
<g id="edge11" class="edge">
<title>Node4&#45;&gt;Node12</title>
<path fill="none" stroke="midnightblue" d="M582.07,-490.6C593.9,-492.15 607,-493.88 619.77,-495.56"/>
<polygon fill="midnightblue" stroke="midnightblue" points="619.54,-499.05 629.91,-496.89 620.45,-492.11 619.54,-499.05"/>
</g>
<!-- Node13 -->
<g id="node13" class="node">
<title>Node13</title>
<g id="a_node13"><a xlink:href="rmap_8c_a5f0081b9928da5e50fc8b231b57f3a80.html#a5f0081b9928da5e50fc8b231b57f3a80" target="_top" xlink:title="set the destination address path">
<polygon fill="white" stroke="black" points="627,-304.5 627,-323.5 743,-323.5 743,-304.5 627,-304.5"/>
<text text-anchor="middle" x="685" y="-311.5" font-family="Helvetica,sans-Serif" font-size="10.00">rmap_set_dest_path</text>
</a>
</g>
</g>
<!-- Node4&#45;&gt;Node13 -->
<g id="edge12" class="edge">
<title>Node4&#45;&gt;Node13</title>
<path fill="none" stroke="midnightblue" d="M542.01,-475.14C549.41,-448.17 573.65,-372.53 622,-333 624.06,-331.32 626.27,-329.78 628.58,-328.38"/>
<polygon fill="midnightblue" stroke="midnightblue" points="630.58,-331.29 637.9,-323.63 627.4,-325.05 630.58,-331.29"/>
</g>
<!-- Node15 -->
<g id="node15" class="node">
<title>Node15</title>
<g id="a_node15"><a xlink:href="rmap_8c_a2da8e7b48411d382b54848795f85795d.html#a2da8e7b48411d382b54848795f85795d" target="_top" xlink:title="set the destination (target) logical address">
<polygon fill="white" stroke="black" points="643.5,-456.5 643.5,-475.5 726.5,-475.5 726.5,-456.5 643.5,-456.5"/>
<text text-anchor="middle" x="685" y="-463.5" font-family="Helvetica,sans-Serif" font-size="10.00">rmap_set_dst</text>
</a>
</g>
</g>
<!-- Node4&#45;&gt;Node15 -->
<g id="edge14" class="edge">
<title>Node4&#45;&gt;Node15</title>
<path fill="none" stroke="midnightblue" d="M582.07,-479.4C598.07,-477.3 616.41,-474.89 633.09,-472.69"/>
<polygon fill="midnightblue" stroke="midnightblue" points="633.76,-476.14 643.22,-471.36 632.85,-469.2 633.76,-476.14"/>
</g>
<!-- Node16 -->
<g id="node16" class="node">
<title>Node16</title>
<g id="a_node16"><a xlink:href="rmap_8c_a15021c9dfccddc44786dfd37834bcd7e.html#a15021c9dfccddc44786dfd37834bcd7e" target="_top" xlink:title="set the command authorisation key">
<polygon fill="white" stroke="black" points="642.5,-418.5 642.5,-437.5 727.5,-437.5 727.5,-418.5 642.5,-418.5"/>
<text text-anchor="middle" x="685" y="-425.5" font-family="Helvetica,sans-Serif" font-size="10.00">rmap_set_key</text>
</a>
</g>
</g>
<!-- Node4&#45;&gt;Node16 -->
<g id="edge15" class="edge">
<title>Node4&#45;&gt;Node16</title>
<path fill="none" stroke="midnightblue" d="M558.52,-475.35C575.05,-467.18 599.75,-455.49 622,-447 627.87,-444.76 634.12,-442.6 640.31,-440.58"/>
<polygon fill="midnightblue" stroke="midnightblue" points="641.45,-443.89 649.93,-437.54 639.34,-437.22 641.45,-443.89"/>
</g>
<!-- Node17 -->
<g id="node17" class="node">
<title>Node17</title>
<g id="a_node17"><a xlink:href="rmap_8c_a56c47830e67d01e469231e5e7e1d3a34.html#a56c47830e67d01e469231e5e7e1d3a34" target="_top" xlink:title="set the reply address path">
<polygon fill="white" stroke="black" points="625.5,-342.5 625.5,-361.5 744.5,-361.5 744.5,-342.5 625.5,-342.5"/>
<text text-anchor="middle" x="685" y="-349.5" font-family="Helvetica,sans-Serif" font-size="10.00">rmap_set_reply_path</text>
</a>
</g>
</g>
<!-- Node4&#45;&gt;Node17 -->
<g id="edge16" class="edge">
<title>Node4&#45;&gt;Node17</title>
<path fill="none" stroke="midnightblue" d="M543.76,-475.43C553.98,-453.55 582.06,-399.57 622,-371 624.7,-369.07 627.6,-367.33 630.62,-365.76"/>
<polygon fill="midnightblue" stroke="midnightblue" points="632.27,-368.86 639.96,-361.57 629.4,-362.48 632.27,-368.86"/>
</g>
<!-- Node18 -->
<g id="node18" class="node">
<title>Node18</title>
<g id="a_node18"><a xlink:href="rmap_8c_adae0030440ca4e7ad34622e505acbb2c.html#adae0030440ca4e7ad34622e505acbb2c" target="_top" xlink:title="set the source (initiator) logical address">
<polygon fill="white" stroke="black" points="644,-722.5 644,-741.5 726,-741.5 726,-722.5 644,-722.5"/>
<text text-anchor="middle" x="685" y="-729.5" font-family="Helvetica,sans-Serif" font-size="10.00">rmap_set_src</text>
</a>
</g>
</g>
<!-- Node4&#45;&gt;Node18 -->
<g id="edge18" class="edge">
<title>Node4&#45;&gt;Node18</title>
<path fill="none" stroke="midnightblue" d="M540.05,-494.88C542.56,-529.99 555.82,-650.04 622,-713 625.58,-716.41 629.76,-719.21 634.23,-721.51"/>
<polygon fill="midnightblue" stroke="midnightblue" points="633.13,-724.84 643.7,-725.55 635.88,-718.4 633.13,-724.84"/>
</g>
<!-- Node19 -->
<g id="node19" class="node">
<title>Node19</title>
<g id="a_node19"><a xlink:href="rmap_8c_a7b4c31714493ce6cc19d4aa825ab50aa.html#a7b4c31714493ce6cc19d4aa825ab50aa" target="_top" xlink:title="set an RMAP transaction identifier">
<polygon fill="white" stroke="black" points="640.5,-684.5 640.5,-703.5 729.5,-703.5 729.5,-684.5 640.5,-684.5"/>
<text text-anchor="middle" x="685" y="-691.5" font-family="Helvetica,sans-Serif" font-size="10.00">rmap_set_tr_id</text>
</a>
</g>
</g>
<!-- Node4&#45;&gt;Node19 -->
<g id="edge19" class="edge">
<title>Node4&#45;&gt;Node19</title>
<path fill="none" stroke="midnightblue" d="M540.8,-494.52C545.52,-525.4 564.62,-623.72 622,-675 624.81,-677.51 627.94,-679.69 631.27,-681.58"/>
<polygon fill="midnightblue" stroke="midnightblue" points="629.9,-684.8 640.43,-685.94 632.91,-678.48 629.9,-684.8"/>
</g>
<!-- Node6 -->
<g id="node6" class="node">
<title>Node6</title>
<g id="a_node6"><a xlink:href="rmap_8c_a0ec3c28e83818f02e00d4c79d82d938a.html#a0ec3c28e83818f02e00d4c79d82d938a" target="_top" xlink:title="get the minimum header size given the RMAP instruction">
<polygon fill="white" stroke="black" points="788.5,-427.5 788.5,-446.5 921.5,-446.5 921.5,-427.5 788.5,-427.5"/>
<text text-anchor="middle" x="855" y="-434.5" font-family="Helvetica,sans-Serif" font-size="10.00">rmap_get_min_hdr_size</text>
</a>
</g>
</g>
<!-- Node5&#45;&gt;Node6 -->
<g id="edge5" class="edge">
<title>Node5&#45;&gt;Node6</title>
<path fill="none" stroke="midnightblue" d="M725.29,-532.46C733.03,-529.89 740.95,-526.76 748,-523 783.11,-504.3 817.75,-473.14 837.45,-453.91"/>
<polygon fill="midnightblue" stroke="midnightblue" points="840.07,-456.23 844.7,-446.7 835.14,-451.27 840.07,-456.23"/>
</g>
<!-- Node10 -->
<g id="node10" class="node">
<title>Node10</title>
<g id="a_node10"><a xlink:href="rmap_8c_a667ce871110961f2a611d0244791e20f.html#a667ce871110961f2a611d0244791e20f" target="_top" xlink:title="valiidates a command code">
<polygon fill="white" stroke="black" points="784,-646.5 784,-665.5 926,-665.5 926,-646.5 784,-646.5"/>
<text text-anchor="middle" x="855" y="-653.5" font-family="Helvetica,sans-Serif" font-size="10.00">rmap_validate_cmd_code</text>
</a>
</g>
</g>
<!-- Node9&#45;&gt;Node10 -->
<g id="edge9" class="edge">
<title>Node9&#45;&gt;Node10</title>
<path fill="none" stroke="midnightblue" d="M729.7,-656C743.13,-656 758.36,-656 773.44,-656"/>
<polygon fill="midnightblue" stroke="midnightblue" points="773.83,-659.5 783.83,-656 773.83,-652.5 773.83,-659.5"/>
</g>
<!-- Node14 -->
<g id="node14" class="node">
<title>Node14</title>
<g id="a_node14"><a xlink:href="test__cmp__max__used__bits__list_8c_a7ac38fce3243a7dcf448301ee9ffd392.html#a7ac38fce3243a7dcf448301ee9ffd392" target="_top" xlink:title=" ">
<polygon fill="white" stroke="black" points="830,-304.5 830,-323.5 880,-323.5 880,-304.5 830,-304.5"/>
<text text-anchor="middle" x="855" y="-311.5" font-family="Helvetica,sans-Serif" font-size="10.00">malloc</text>
</a>
</g>
</g>
<!-- Node13&#45;&gt;Node14 -->
<g id="edge13" class="edge">
<title>Node13&#45;&gt;Node14</title>
<path fill="none" stroke="midnightblue" d="M743.35,-314C768.67,-314 797.6,-314 819.52,-314"/>
<polygon fill="midnightblue" stroke="midnightblue" points="819.68,-317.5 829.68,-314 819.68,-310.5 819.68,-317.5"/>
</g>
<!-- Node17&#45;&gt;Node14 -->
<g id="edge17" class="edge">
<title>Node17&#45;&gt;Node14</title>
<path fill="none" stroke="midnightblue" d="M728.39,-342.41C756.71,-336.01 793.47,-327.69 819.9,-321.71"/>
<polygon fill="midnightblue" stroke="midnightblue" points="820.85,-325.09 829.83,-319.47 819.3,-318.26 820.85,-325.09"/>
</g>
<!-- Node21 -->
<g id="node21" class="node">
<title>Node21</title>
<g id="a_node21"><a xlink:href="rdcu__rmap_8c_a1a064554031c2fa2dcb65541e0765c0f.html#a1a064554031c2fa2dcb65541e0765c0f" target="_top" xlink:title="n rmap command transaction">
<polygon fill="white" stroke="black" points="491,-200.5 491,-219.5 586,-219.5 586,-200.5 491,-200.5"/>
<text text-anchor="middle" x="538.5" y="-207.5" font-family="Helvetica,sans-Serif" font-size="10.00">rdcu_process_rx</text>
</a>
</g>
</g>
<!-- Node20&#45;&gt;Node21 -->
<g id="edge21" class="edge">
<title>Node20&#45;&gt;Node21</title>
<path fill="none" stroke="midnightblue" d="M268.37,-283.48C323.77,-268.35 431.85,-238.85 492.84,-222.19"/>
<polygon fill="midnightblue" stroke="midnightblue" points="493.84,-225.55 502.57,-219.54 492,-218.8 493.84,-225.55"/>
</g>
<!-- Node21&#45;&gt;Node8 -->
<g id="edge24" class="edge">
<title>Node21&#45;&gt;Node8</title>
<path fill="none" stroke="midnightblue" d="M556.95,-219.54C573.48,-228.41 599.11,-241.77 622,-252 630.35,-255.73 639.46,-259.45 648.07,-262.8"/>
<polygon fill="midnightblue" stroke="midnightblue" points="646.92,-266.11 657.51,-266.42 649.43,-259.58 646.92,-266.11"/>
</g>
<!-- Node21&#45;&gt;Node14 -->
<g id="edge22" class="edge">
<title>Node21&#45;&gt;Node14</title>
<path fill="none" stroke="midnightblue" d="M586.1,-216.78C629.05,-223.89 694.12,-236.87 748,-257 777.84,-268.15 809.73,-286.23 830.64,-299.04"/>
<polygon fill="midnightblue" stroke="midnightblue" points="828.83,-302.03 839.17,-304.34 832.52,-296.08 828.83,-302.03"/>
</g>
<!-- Node22 -->
<g id="node22" class="node">
<title>Node22</title>
<g id="a_node22"><a xlink:href="rmap_8c_abf1868ec6873f9f189050cadc7e64a3b.html#abf1868ec6873f9f189050cadc7e64a3b" target="_top" xlink:title="calculate the CRC8 of a given buffer">
<polygon fill="white" stroke="black" points="651,-152.5 651,-171.5 719,-171.5 719,-152.5 651,-152.5"/>
<text text-anchor="middle" x="685" y="-159.5" font-family="Helvetica,sans-Serif" font-size="10.00">rmap_crc8</text>
</a>
</g>
</g>
<!-- Node21&#45;&gt;Node22 -->
<g id="edge23" class="edge">
<title>Node21&#45;&gt;Node22</title>
<path fill="none" stroke="midnightblue" d="M565.79,-200.45C581.95,-194.66 603.11,-187.21 622,-181 628.54,-178.85 635.49,-176.64 642.29,-174.53"/>
<polygon fill="midnightblue" stroke="midnightblue" points="643.54,-177.81 652.06,-171.52 641.47,-171.12 643.54,-177.81"/>
</g>
<!-- Node23 -->
<g id="node23" class="node">
<title>Node23</title>
<g id="a_node23"><a xlink:href="rmap_8c_a5e88a29337404518eceedf9b4af285bf.html#a5e88a29337404518eceedf9b4af285bf" target="_top" xlink:title=" ">
<polygon fill="white" stroke="black" points="637.5,-38.5 637.5,-57.5 732.5,-57.5 732.5,-38.5 637.5,-38.5"/>
<text text-anchor="middle" x="685" y="-45.5" font-family="Helvetica,sans-Serif" font-size="10.00">rmap_parse_pkt</text>
</a>
</g>
</g>
<!-- Node21&#45;&gt;Node23 -->
<g id="edge25" class="edge">
<title>Node21&#45;&gt;Node23</title>
<path fill="none" stroke="midnightblue" d="M546.3,-200.32C559.83,-181.29 591.45,-138.01 622,-105 635.52,-90.39 652.2,-75.19 664.85,-64.17"/>
<polygon fill="midnightblue" stroke="midnightblue" points="667.22,-66.75 672.51,-57.58 662.65,-61.45 667.22,-66.75"/>
</g>
<!-- Node28 -->
<g id="node28" class="node">
<title>Node28</title>
<g id="a_node28"><a xlink:href="rmap_8c_a46d3271304c12df042b57dbebaba67e1.html#a46d3271304c12df042b57dbebaba67e1" target="_top" xlink:title="create an rmap packet from a buffer">
<polygon fill="white" stroke="black" points="622.5,-380.5 622.5,-399.5 747.5,-399.5 747.5,-380.5 622.5,-380.5"/>
<text text-anchor="middle" x="685" y="-387.5" font-family="Helvetica,sans-Serif" font-size="10.00">rmap_pkt_from_buffer</text>
</a>
</g>
</g>
<!-- Node21&#45;&gt;Node28 -->
<g id="edge30" class="edge">
<title>Node21&#45;&gt;Node28</title>
<path fill="none" stroke="midnightblue" d="M541.64,-219.62C548.31,-247.44 571.44,-328.65 622,-371 624.04,-372.71 626.23,-374.26 628.53,-375.68"/>
<polygon fill="midnightblue" stroke="midnightblue" points="627.33,-379 637.82,-380.47 630.54,-372.78 627.33,-379"/>
</g>
<!-- Node29 -->
<g id="node29" class="node">
<title>Node29</title>
<g id="a_node29"><a xlink:href="rdcu__rmap_8c_acf9b176d8d9b24e9d07711f56aebccc0.html#acf9b176d8d9b24e9d07711f56aebccc0" target="_top" xlink:title="get the local address for a slot">
<polygon fill="white" stroke="black" points="630,-114.5 630,-133.5 740,-133.5 740,-114.5 630,-114.5"/>
<text text-anchor="middle" x="685" y="-121.5" font-family="Helvetica,sans-Serif" font-size="10.00">trans_log_get_addr</text>
</a>
</g>
</g>
<!-- Node21&#45;&gt;Node29 -->
<g id="edge34" class="edge">
<title>Node21&#45;&gt;Node29</title>
<path fill="none" stroke="midnightblue" d="M548.77,-200.4C563.17,-186 592.37,-158.8 622,-143 626.19,-140.77 630.68,-138.76 635.26,-136.95"/>
<polygon fill="midnightblue" stroke="midnightblue" points="636.5,-140.22 644.71,-133.54 634.12,-133.64 636.5,-140.22"/>
</g>
<!-- Node30 -->
<g id="node30" class="node">
<title>Node30</title>
<g id="a_node30"><a xlink:href="rdcu__rmap_8c_a7012f58a1862cf07b00e299d24c199c2.html#a7012f58a1862cf07b00e299d24c199c2" target="_top" xlink:title="release a slot in the transaction log">
<polygon fill="white" stroke="black" points="622,-190.5 622,-209.5 748,-209.5 748,-190.5 622,-190.5"/>
<text text-anchor="middle" x="685" y="-197.5" font-family="Helvetica,sans-Serif" font-size="10.00">trans_log_release_slot</text>
</a>
</g>
</g>
<!-- Node21&#45;&gt;Node30 -->
<g id="edge35" class="edge">
<title>Node21&#45;&gt;Node30</title>
<path fill="none" stroke="midnightblue" d="M586.02,-206.78C594.2,-206.21 602.89,-205.61 611.58,-205.01"/>
<polygon fill="midnightblue" stroke="midnightblue" points="612.02,-208.49 621.76,-204.31 611.54,-201.51 612.02,-208.49"/>
</g>
<!-- Node24 -->
<g id="node24" class="node">
<title>Node24</title>
<g id="a_node24"><a xlink:href="rmap_8c_abb4e19c17c7223212c3904bc4c0189d2.html#abb4e19c17c7223212c3904bc4c0189d2" target="_top" xlink:title=" ">
<polygon fill="white" stroke="black" points="799.5,-0.5 799.5,-19.5 910.5,-19.5 910.5,-0.5 799.5,-0.5"/>
<text text-anchor="middle" x="855" y="-7.5" font-family="Helvetica,sans-Serif" font-size="10.00">rmap_check_status</text>
</a>
</g>
</g>
<!-- Node23&#45;&gt;Node24 -->
<g id="edge26" class="edge">
<title>Node23&#45;&gt;Node24</title>
<path fill="none" stroke="midnightblue" d="M728.39,-38.41C750.76,-33.35 778.4,-27.1 802.05,-21.75"/>
<polygon fill="midnightblue" stroke="midnightblue" points="802.93,-25.14 811.91,-19.52 801.39,-18.31 802.93,-25.14"/>
</g>
<!-- Node25 -->
<g id="node25" class="node">
<title>Node25</title>
<g id="a_node25"><a xlink:href="rmap_8c_a20aa8b91dfb1bbad819759f97b853054.html#a20aa8b91dfb1bbad819759f97b853054" target="_top" xlink:title=" ">
<polygon fill="white" stroke="black" points="794,-76.5 794,-95.5 916,-95.5 916,-76.5 794,-76.5"/>
<text text-anchor="middle" x="855" y="-83.5" font-family="Helvetica,sans-Serif" font-size="10.00">rmap_parse_cmd_pkt</text>
</a>
</g>
</g>
<!-- Node23&#45;&gt;Node25 -->
<g id="edge27" class="edge">
<title>Node23&#45;&gt;Node25</title>
<path fill="none" stroke="midnightblue" d="M728.39,-57.59C750.76,-62.65 778.4,-68.9 802.05,-74.25"/>
<polygon fill="midnightblue" stroke="midnightblue" points="801.39,-77.69 811.91,-76.48 802.93,-70.86 801.39,-77.69"/>
</g>
<!-- Node26 -->
<g id="node26" class="node">
<title>Node26</title>
<g id="a_node26"><a xlink:href="rmap_8c_adef42426b46ee5ad5176ee76cff35c22.html#adef42426b46ee5ad5176ee76cff35c22" target="_top" xlink:title=" ">
<polygon fill="white" stroke="black" points="792.5,-38.5 792.5,-57.5 917.5,-57.5 917.5,-38.5 792.5,-38.5"/>
<text text-anchor="middle" x="855" y="-45.5" font-family="Helvetica,sans-Serif" font-size="10.00">rmap_parse_reply_pkt</text>
</a>
</g>
</g>
<!-- Node23&#45;&gt;Node26 -->
<g id="edge28" class="edge">
<title>Node23&#45;&gt;Node26</title>
<path fill="none" stroke="midnightblue" d="M732.8,-48C748.07,-48 765.41,-48 782.09,-48"/>
<polygon fill="midnightblue" stroke="midnightblue" points="782.37,-51.5 792.37,-48 782.37,-44.5 782.37,-51.5"/>
</g>
<!-- Node27 -->
<g id="node27" class="node">
<title>Node27</title>
<g id="a_node27"><a xlink:href="rmap_8c_a2ff278a5e094a9f585865d4d838e0e0e.html#a2ff278a5e094a9f585865d4d838e0e0e" target="_top" xlink:title=" ">
<polygon fill="white" stroke="black" points="962,-38.5 962,-57.5 1104,-57.5 1104,-38.5 962,-38.5"/>
<text text-anchor="middle" x="1033" y="-45.5" font-family="Helvetica,sans-Serif" font-size="10.00">rmap_process_read_reply</text>
</a>
</g>
</g>
<!-- Node26&#45;&gt;Node27 -->
<g id="edge29" class="edge">
<title>Node26&#45;&gt;Node27</title>
<path fill="none" stroke="midnightblue" d="M917.56,-48C928.6,-48 940.25,-48 951.73,-48"/>
<polygon fill="midnightblue" stroke="midnightblue" points="951.74,-51.5 961.74,-48 951.74,-44.5 951.74,-51.5"/>
</g>
<!-- Node28&#45;&gt;Node6 -->
<g id="edge33" class="edge">
<title>Node28&#45;&gt;Node6</title>
<path fill="none" stroke="midnightblue" d="M720,-399.51C745.87,-406.75 781.7,-416.77 809.8,-424.63"/>
<polygon fill="midnightblue" stroke="midnightblue" points="809.19,-428.1 819.77,-427.42 811.08,-421.36 809.19,-428.1"/>
</g>
<!-- Node28&#45;&gt;Node7 -->
<g id="edge32" class="edge">
<title>Node28&#45;&gt;Node7</title>
<path fill="none" stroke="midnightblue" d="M729.62,-399.58C736.1,-402.05 742.45,-405.15 748,-409 769.61,-424.01 766.44,-436.4 784,-456 800.33,-474.23 820.7,-493.37 835.25,-506.51"/>
<polygon fill="midnightblue" stroke="midnightblue" points="833.28,-509.44 843.07,-513.49 837.94,-504.22 833.28,-509.44"/>
</g>
<!-- Node28&#45;&gt;Node14 -->
<g id="edge31" class="edge">
<title>Node28&#45;&gt;Node14</title>
<path fill="none" stroke="midnightblue" d="M721.51,-380.43C730.29,-377.7 739.58,-374.51 748,-371 777.06,-358.87 808.64,-341.27 829.7,-328.84"/>
<polygon fill="midnightblue" stroke="midnightblue" points="831.52,-331.83 838.32,-323.7 827.94,-325.82 831.52,-331.83"/>
</g>
<!-- Node31&#45;&gt;Node14 -->
<g id="edge37" class="edge">
<title>Node31&#45;&gt;Node14</title>
<path fill="none" stroke="midnightblue" d="M246.33,-182.38C264.69,-169.19 300,-145.89 334,-135 421.85,-106.87 669.4,-56.73 748,-105 817.21,-147.5 842.94,-250.8 850.91,-294.24"/>
<polygon fill="midnightblue" stroke="midnightblue" points="847.47,-294.88 852.61,-304.14 854.37,-293.7 847.47,-294.88"/>
</g>
<!-- Node31&#45;&gt;Node21 -->
<g id="edge38" class="edge">
<title>Node31&#45;&gt;Node21</title>
<path fill="none" stroke="midnightblue" d="M274.33,-201.51C292.49,-205.28 314.2,-209.14 334,-211 387.54,-216.02 401.22,-211.33 455,-211 463.34,-210.95 472.15,-210.87 480.79,-210.78"/>
<polygon fill="midnightblue" stroke="midnightblue" points="480.86,-214.28 490.82,-210.66 480.78,-207.28 480.86,-214.28"/>
</g>
<!-- Node32 -->
<g id="node32" class="node">
<title>Node32</title>
<g id="a_node32"><a xlink:href="rdcu__rmap_8c_a95fad3cd9b6bbe562e1a73e3f1c108a8.html#a95fad3cd9b6bbe562e1a73e3f1c108a8" target="_top" xlink:title="submit an rmap command transaction">
<polygon fill="white" stroke="black" points="348.5,-144.5 348.5,-163.5 440.5,-163.5 440.5,-144.5 348.5,-144.5"/>
<text text-anchor="middle" x="394.5" y="-151.5" font-family="Helvetica,sans-Serif" font-size="10.00">rdcu_submit_tx</text>
</a>
</g>
</g>
<!-- Node31&#45;&gt;Node32 -->
<g id="edge39" class="edge">
<title>Node31&#45;&gt;Node32</title>
<path fill="none" stroke="midnightblue" d="M273.87,-182.41C294.99,-177.4 321.03,-171.21 343.42,-165.89"/>
<polygon fill="midnightblue" stroke="midnightblue" points="344.49,-169.24 353.42,-163.52 342.88,-162.43 344.49,-169.24"/>
</g>
<!-- Node33 -->
<g id="node33" class="node">
<title>Node33</title>
<g id="a_node33"><a xlink:href="rdcu__rmap_8c_a36f44335aa66dd49fb4903f7269bc5b1.html#a36f44335aa66dd49fb4903f7269bc5b1" target="_top" xlink:title="grab a slot in the transaction log">
<polygon fill="white" stroke="black" points="338.5,-182.5 338.5,-201.5 450.5,-201.5 450.5,-182.5 338.5,-182.5"/>
<text text-anchor="middle" x="394.5" y="-189.5" font-family="Helvetica,sans-Serif" font-size="10.00">trans_log_grab_slot</text>
</a>
</g>
</g>
<!-- Node31&#45;&gt;Node33 -->
<g id="edge41" class="edge">
<title>Node31&#45;&gt;Node33</title>
<path fill="none" stroke="midnightblue" d="M278.92,-192C294.22,-192 311.62,-192 328.14,-192"/>
<polygon fill="midnightblue" stroke="midnightblue" points="328.3,-195.5 338.3,-192 328.3,-188.5 328.3,-195.5"/>
</g>
<!-- Node32&#45;&gt;Node21 -->
<g id="edge40" class="edge">
<title>Node32&#45;&gt;Node21</title>
<path fill="none" stroke="midnightblue" d="M427.53,-163.5C436.49,-166.36 446.19,-169.63 455,-173 473.09,-179.92 492.91,-188.76 508.59,-196.07"/>
<polygon fill="midnightblue" stroke="midnightblue" points="507.22,-199.3 517.76,-200.39 510.2,-192.96 507.22,-199.3"/>
</g>
<!-- Node35 -->
<g id="node35" class="node">
<title>Node35</title>
<g id="a_node35"><a xlink:href="rdcu__cmd_8c_acf34d113aa558e87f377436d69083f4f.html#acf34d113aa558e87f377436d69083f4f" target="_top" xlink:title="create a command to write arbitrary data to the RDCU (internal)">
<polygon fill="white" stroke="black" points="334,-468 334,-498 455,-498 455,-468 334,-468"/>
<text text-anchor="start" x="342" y="-486" font-family="Helvetica,sans-Serif" font-size="10.00">rdcu_write_cmd_data</text>
<text text-anchor="middle" x="394.5" y="-475" font-family="Helvetica,sans-Serif" font-size="10.00">_internal</text>
</a>
</g>
</g>
<!-- Node34&#45;&gt;Node35 -->
<g id="edge43" class="edge">
<title>Node34&#45;&gt;Node35</title>
<path fill="none" stroke="midnightblue" d="M293.08,-481.12C303.07,-481.3 313.52,-481.5 323.75,-481.69"/>
<polygon fill="midnightblue" stroke="midnightblue" points="323.81,-485.19 333.87,-481.88 323.94,-478.2 323.81,-485.19"/>
</g>
<!-- Node35&#45;&gt;Node4 -->
<g id="edge44" class="edge">
<title>Node35&#45;&gt;Node4</title>
<path fill="none" stroke="midnightblue" d="M455.31,-483.84C464.99,-483.98 474.96,-484.12 484.47,-484.25"/>
<polygon fill="midnightblue" stroke="midnightblue" points="484.53,-487.75 494.58,-484.4 484.63,-480.75 484.53,-487.75"/>
</g>
</g>
</svg>
