<?xml version="1.0" encoding="UTF-8" standalone="no"?>
<!DOCTYPE svg PUBLIC "-//W3C//DTD SVG 1.1//EN"
 "http://www.w3.org/Graphics/SVG/1.1/DTD/svg11.dtd">
<!-- Generated by graphviz version 2.43.0 (0)
 -->
<!-- Title: rdcu_sync_lvds_ctrl Pages: 1 -->
<svg width="1118pt" height="750pt"
 viewBox="0.00 0.00 1118.00 750.00" xmlns="http://www.w3.org/2000/svg" xmlns:xlink="http://www.w3.org/1999/xlink">
<g id="graph0" class="graph" transform="scale(1 1) rotate(0) translate(4 746)">
<title>rdcu_sync_lvds_ctrl</title>
<polygon fill="white" stroke="transparent" points="-4,4 -4,-746 1114,-746 1114,4 -4,4"/>
<!-- Node1 -->
<g id="node1" class="node">
<title>Node1</title>
<g id="a_node1"><a xlink:title="sync the LVDS Control register (write only)">
<polygon fill="#bfbfbf" stroke="black" points="0,-586.5 0,-605.5 112,-605.5 112,-586.5 0,-586.5"/>
<text text-anchor="middle" x="56" y="-593.5" font-family="Helvetica,sans-Serif" font-size="10.00">rdcu_sync_lvds_ctrl</text>
</a>
</g>
</g>
<!-- Node2 -->
<g id="node2" class="node">
<title>Node2</title>
<g id="a_node2"><a xlink:href="rdcu__rmap_8c_a533d1eb248d83ba3d406cefe7f3c9eb9.html#a533d1eb248d83ba3d406cefe7f3c9eb9" target="_top" xlink:title="submit a sync command">
<polygon fill="white" stroke="black" points="185.5,-608.5 185.5,-627.5 250.5,-627.5 250.5,-608.5 185.5,-608.5"/>
<text text-anchor="middle" x="218" y="-615.5" font-family="Helvetica,sans-Serif" font-size="10.00">rdcu_sync</text>
</a>
</g>
</g>
<!-- Node1&#45;&gt;Node2 -->
<g id="edge1" class="edge">
<title>Node1&#45;&gt;Node2</title>
<path fill="none" stroke="midnightblue" d="M112.06,-603.57C132.75,-606.42 155.91,-609.6 175.2,-612.25"/>
<polygon fill="midnightblue" stroke="midnightblue" points="174.81,-615.73 185.19,-613.63 175.76,-608.8 174.81,-615.73"/>
</g>
<!-- Node19 -->
<g id="node19" class="node">
<title>Node19</title>
<g id="a_node19"><a xlink:href="rdcu__cmd_8c_a0a7cce640f7386aa2da7678bb8df8974.html#a0a7cce640f7386aa2da7678bb8df8974" target="_top" xlink:title="create a command to write the RDCU LVDS control register">
<polygon fill="white" stroke="black" points="148,-567.5 148,-586.5 288,-586.5 288,-567.5 148,-567.5"/>
<text text-anchor="middle" x="218" y="-574.5" font-family="Helvetica,sans-Serif" font-size="10.00">rdcu_write_cmd_lvds_ctrl</text>
</a>
</g>
</g>
<!-- Node1&#45;&gt;Node19 -->
<g id="edge20" class="edge">
<title>Node1&#45;&gt;Node19</title>
<path fill="none" stroke="midnightblue" d="M112.06,-589.46C120.38,-588.47 129.1,-587.44 137.8,-586.41"/>
<polygon fill="midnightblue" stroke="midnightblue" points="138.47,-589.85 147.98,-585.2 137.64,-582.9 138.47,-589.85"/>
</g>
<!-- Node3 -->
<g id="node3" class="node">
<title>Node3</title>
<g id="a_node3"><a xlink:href="test__cmp__max__used__bits__list_8c_a7ac38fce3243a7dcf448301ee9ffd392.html#a7ac38fce3243a7dcf448301ee9ffd392" target="_top" xlink:title=" ">
<polygon fill="white" stroke="black" points="836,-418.5 836,-437.5 886,-437.5 886,-418.5 836,-418.5"/>
<text text-anchor="middle" x="861" y="-425.5" font-family="Helvetica,sans-Serif" font-size="10.00">malloc</text>
</a>
</g>
</g>
<!-- Node2&#45;&gt;Node3 -->
<g id="edge2" class="edge">
<title>Node2&#45;&gt;Node3</title>
<path fill="none" stroke="midnightblue" d="M250.63,-623.57C352.34,-640.8 669.26,-689.04 754,-637 823.21,-594.5 848.94,-491.2 856.91,-447.76"/>
<polygon fill="midnightblue" stroke="midnightblue" points="860.37,-448.3 858.61,-437.86 853.47,-447.12 860.37,-448.3"/>
</g>
<!-- Node4 -->
<g id="node4" class="node">
<title>Node4</title>
<g id="a_node4"><a xlink:href="rdcu__rmap_8c_a95fad3cd9b6bbe562e1a73e3f1c108a8.html#a95fad3cd9b6bbe562e1a73e3f1c108a8" target="_top" xlink:title="submit an rmap command transaction">
<polygon fill="white" stroke="black" points="346.5,-570.5 346.5,-589.5 438.5,-589.5 438.5,-570.5 346.5,-570.5"/>
<text text-anchor="middle" x="392.5" y="-577.5" font-family="Helvetica,sans-Serif" font-size="10.00">rdcu_submit_tx</text>
</a>
</g>
</g>
<!-- Node2&#45;&gt;Node4 -->
<g id="edge3" class="edge">
<title>Node2&#45;&gt;Node4</title>
<path fill="none" stroke="midnightblue" d="M250.64,-611.03C275.17,-605.63 309.73,-598.01 338.47,-591.68"/>
<polygon fill="midnightblue" stroke="midnightblue" points="339.35,-595.07 348.37,-589.5 337.85,-588.24 339.35,-595.07"/>
</g>
<!-- Node18 -->
<g id="node18" class="node">
<title>Node18</title>
<g id="a_node18"><a xlink:href="rdcu__rmap_8c_a36f44335aa66dd49fb4903f7269bc5b1.html#a36f44335aa66dd49fb4903f7269bc5b1" target="_top" xlink:title="grab a slot in the transaction log">
<polygon fill="white" stroke="black" points="336.5,-684.5 336.5,-703.5 448.5,-703.5 448.5,-684.5 336.5,-684.5"/>
<text text-anchor="middle" x="392.5" y="-691.5" font-family="Helvetica,sans-Serif" font-size="10.00">trans_log_grab_slot</text>
</a>
</g>
</g>
<!-- Node2&#45;&gt;Node18 -->
<g id="edge19" class="edge">
<title>Node2&#45;&gt;Node18</title>
<path fill="none" stroke="midnightblue" d="M236.91,-627.68C257.57,-638.66 292.72,-656.75 324,-670 333.18,-673.89 343.23,-677.7 352.7,-681.09"/>
<polygon fill="midnightblue" stroke="midnightblue" points="351.71,-684.45 362.31,-684.46 354.03,-677.85 351.71,-684.45"/>
</g>
<!-- Node5 -->
<g id="node5" class="node">
<title>Node5</title>
<g id="a_node5"><a xlink:href="rdcu__rmap_8c_a1a064554031c2fa2dcb65541e0765c0f.html#a1a064554031c2fa2dcb65541e0765c0f" target="_top" xlink:title="n rmap command transaction">
<polygon fill="white" stroke="black" points="497,-551.5 497,-570.5 592,-570.5 592,-551.5 497,-551.5"/>
<text text-anchor="middle" x="544.5" y="-558.5" font-family="Helvetica,sans-Serif" font-size="10.00">rdcu_process_rx</text>
</a>
</g>
</g>
<!-- Node4&#45;&gt;Node5 -->
<g id="edge4" class="edge">
<title>Node4&#45;&gt;Node5</title>
<path fill="none" stroke="midnightblue" d="M438.5,-574.3C453.65,-572.38 470.76,-570.21 486.69,-568.2"/>
<polygon fill="midnightblue" stroke="midnightblue" points="487.49,-571.62 496.97,-566.89 486.61,-564.68 487.49,-571.62"/>
</g>
<!-- Node5&#45;&gt;Node3 -->
<g id="edge5" class="edge">
<title>Node5&#45;&gt;Node3</title>
<path fill="none" stroke="midnightblue" d="M564.19,-551.49C580.7,-543.3 605.59,-531.49 628,-523 682.69,-502.27 699.97,-507.41 754,-485 783.25,-472.87 815.03,-455.12 836.08,-442.66"/>
<polygon fill="midnightblue" stroke="midnightblue" points="837.9,-445.65 844.68,-437.51 834.3,-439.65 837.9,-445.65"/>
</g>
<!-- Node6 -->
<g id="node6" class="node">
<title>Node6</title>
<g id="a_node6"><a xlink:href="rmap_8c_abf1868ec6873f9f189050cadc7e64a3b.html#abf1868ec6873f9f189050cadc7e64a3b" target="_top" xlink:title="calculate the CRC8 of a given buffer">
<polygon fill="white" stroke="black" points="657,-570.5 657,-589.5 725,-589.5 725,-570.5 657,-570.5"/>
<text text-anchor="middle" x="691" y="-577.5" font-family="Helvetica,sans-Serif" font-size="10.00">rmap_crc8</text>
</a>
</g>
</g>
<!-- Node5&#45;&gt;Node6 -->
<g id="edge6" class="edge">
<title>Node5&#45;&gt;Node6</title>
<path fill="none" stroke="midnightblue" d="M592.02,-567.12C609.51,-569.42 629.31,-572.02 646.52,-574.28"/>
<polygon fill="midnightblue" stroke="midnightblue" points="646.48,-577.81 656.85,-575.64 647.39,-570.87 646.48,-577.81"/>
</g>
<!-- Node7 -->
<g id="node7" class="node">
<title>Node7</title>
<g id="a_node7"><a xlink:href="rmap_8c_a1def9af549819e7fdbda12af8bdc9c0e.html#a1def9af549819e7fdbda12af8bdc9c0e" target="_top" xlink:title="completely destroys an RMAP packet">
<polygon fill="white" stroke="black" points="635,-456.5 635,-475.5 747,-475.5 747,-456.5 635,-456.5"/>
<text text-anchor="middle" x="691" y="-463.5" font-family="Helvetica,sans-Serif" font-size="10.00">rmap_erase_packet</text>
</a>
</g>
</g>
<!-- Node5&#45;&gt;Node7 -->
<g id="edge7" class="edge">
<title>Node5&#45;&gt;Node7</title>
<path fill="none" stroke="midnightblue" d="M554.8,-551.06C569.25,-536.11 598.5,-507.68 628,-490 634.75,-485.95 642.31,-482.36 649.76,-479.26"/>
<polygon fill="midnightblue" stroke="midnightblue" points="651.04,-482.52 659.07,-475.61 648.48,-476 651.04,-482.52"/>
</g>
<!-- Node8 -->
<g id="node8" class="node">
<title>Node8</title>
<g id="a_node8"><a xlink:href="rmap_8c_a5e88a29337404518eceedf9b4af285bf.html#a5e88a29337404518eceedf9b4af285bf" target="_top" xlink:title=" ">
<polygon fill="white" stroke="black" points="643.5,-684.5 643.5,-703.5 738.5,-703.5 738.5,-684.5 643.5,-684.5"/>
<text text-anchor="middle" x="691" y="-691.5" font-family="Helvetica,sans-Serif" font-size="10.00">rmap_parse_pkt</text>
</a>
</g>
</g>
<!-- Node5&#45;&gt;Node8 -->
<g id="edge8" class="edge">
<title>Node5&#45;&gt;Node8</title>
<path fill="none" stroke="midnightblue" d="M555.92,-570.6C571.56,-585.02 602.06,-613.13 628,-637 642.83,-650.65 659.66,-666.12 672.04,-677.5"/>
<polygon fill="midnightblue" stroke="midnightblue" points="669.73,-680.13 679.47,-684.32 674.47,-674.98 669.73,-680.13"/>
</g>
<!-- Node13 -->
<g id="node13" class="node">
<title>Node13</title>
<g id="a_node13"><a xlink:href="rmap_8c_a46d3271304c12df042b57dbebaba67e1.html#a46d3271304c12df042b57dbebaba67e1" target="_top" xlink:title="create an rmap packet from a buffer">
<polygon fill="white" stroke="black" points="628.5,-342.5 628.5,-361.5 753.5,-361.5 753.5,-342.5 628.5,-342.5"/>
<text text-anchor="middle" x="691" y="-349.5" font-family="Helvetica,sans-Serif" font-size="10.00">rmap_pkt_from_buffer</text>
</a>
</g>
</g>
<!-- Node5&#45;&gt;Node13 -->
<g id="edge13" class="edge">
<title>Node5&#45;&gt;Node13</title>
<path fill="none" stroke="midnightblue" d="M546.8,-551.48C551.52,-520.6 570.62,-422.28 628,-371 629.91,-369.29 631.97,-367.74 634.14,-366.33"/>
<polygon fill="midnightblue" stroke="midnightblue" points="635.84,-369.39 642.95,-361.54 632.49,-363.24 635.84,-369.39"/>
</g>
<!-- Node16 -->
<g id="node16" class="node">
<title>Node16</title>
<g id="a_node16"><a xlink:href="rdcu__rmap_8c_acf9b176d8d9b24e9d07711f56aebccc0.html#acf9b176d8d9b24e9d07711f56aebccc0" target="_top" xlink:title="get the local address for a slot">
<polygon fill="white" stroke="black" points="636,-532.5 636,-551.5 746,-551.5 746,-532.5 636,-532.5"/>
<text text-anchor="middle" x="691" y="-539.5" font-family="Helvetica,sans-Serif" font-size="10.00">trans_log_get_addr</text>
</a>
</g>
</g>
<!-- Node5&#45;&gt;Node16 -->
<g id="edge17" class="edge">
<title>Node5&#45;&gt;Node16</title>
<path fill="none" stroke="midnightblue" d="M592.02,-554.88C602.69,-553.48 614.23,-551.96 625.51,-550.48"/>
<polygon fill="midnightblue" stroke="midnightblue" points="626.31,-553.9 635.77,-549.13 625.4,-546.96 626.31,-553.9"/>
</g>
<!-- Node17 -->
<g id="node17" class="node">
<title>Node17</title>
<g id="a_node17"><a xlink:href="rdcu__rmap_8c_a7012f58a1862cf07b00e299d24c199c2.html#a7012f58a1862cf07b00e299d24c199c2" target="_top" xlink:title="release a slot in the transaction log">
<polygon fill="white" stroke="black" points="628,-608.5 628,-627.5 754,-627.5 754,-608.5 628,-608.5"/>
<text text-anchor="middle" x="691" y="-615.5" font-family="Helvetica,sans-Serif" font-size="10.00">trans_log_release_slot</text>
</a>
</g>
</g>
<!-- Node5&#45;&gt;Node17 -->
<g id="edge18" class="edge">
<title>Node5&#45;&gt;Node17</title>
<path fill="none" stroke="midnightblue" d="M564.52,-570.65C581.05,-578.82 605.75,-590.51 628,-599 633.87,-601.24 640.12,-603.4 646.31,-605.42"/>
<polygon fill="midnightblue" stroke="midnightblue" points="645.34,-608.78 655.93,-608.46 647.45,-602.11 645.34,-608.78"/>
</g>
<!-- Node9 -->
<g id="node9" class="node">
<title>Node9</title>
<g id="a_node9"><a xlink:href="rmap_8c_abb4e19c17c7223212c3904bc4c0189d2.html#abb4e19c17c7223212c3904bc4c0189d2" target="_top" xlink:title=" ">
<polygon fill="white" stroke="black" points="805.5,-684.5 805.5,-703.5 916.5,-703.5 916.5,-684.5 805.5,-684.5"/>
<text text-anchor="middle" x="861" y="-691.5" font-family="Helvetica,sans-Serif" font-size="10.00">rmap_check_status</text>
</a>
</g>
</g>
<!-- Node8&#45;&gt;Node9 -->
<g id="edge9" class="edge">
<title>Node8&#45;&gt;Node9</title>
<path fill="none" stroke="midnightblue" d="M738.8,-694C756.33,-694 776.57,-694 795.42,-694"/>
<polygon fill="midnightblue" stroke="midnightblue" points="795.43,-697.5 805.43,-694 795.43,-690.5 795.43,-697.5"/>
</g>
<!-- Node10 -->
<g id="node10" class="node">
<title>Node10</title>
<g id="a_node10"><a xlink:href="rmap_8c_a20aa8b91dfb1bbad819759f97b853054.html#a20aa8b91dfb1bbad819759f97b853054" target="_top" xlink:title=" ">
<polygon fill="white" stroke="black" points="800,-646.5 800,-665.5 922,-665.5 922,-646.5 800,-646.5"/>
<text text-anchor="middle" x="861" y="-653.5" font-family="Helvetica,sans-Serif" font-size="10.00">rmap_parse_cmd_pkt</text>
</a>
</g>
</g>
<!-- Node8&#45;&gt;Node10 -->
<g id="edge10" class="edge">
<title>Node8&#45;&gt;Node10</title>
<path fill="none" stroke="midnightblue" d="M734.39,-684.41C756.76,-679.35 784.4,-673.1 808.05,-667.75"/>
<polygon fill="midnightblue" stroke="midnightblue" points="808.93,-671.14 817.91,-665.52 807.39,-664.31 808.93,-671.14"/>
</g>
<!-- Node11 -->
<g id="node11" class="node">
<title>Node11</title>
<g id="a_node11"><a xlink:href="rmap_8c_adef42426b46ee5ad5176ee76cff35c22.html#adef42426b46ee5ad5176ee76cff35c22" target="_top" xlink:title=" ">
<polygon fill="white" stroke="black" points="798.5,-722.5 798.5,-741.5 923.5,-741.5 923.5,-722.5 798.5,-722.5"/>
<text text-anchor="middle" x="861" y="-729.5" font-family="Helvetica,sans-Serif" font-size="10.00">rmap_parse_reply_pkt</text>
</a>
</g>
</g>
<!-- Node8&#45;&gt;Node11 -->
<g id="edge11" class="edge">
<title>Node8&#45;&gt;Node11</title>
<path fill="none" stroke="midnightblue" d="M734.39,-703.59C756.76,-708.65 784.4,-714.9 808.05,-720.25"/>
<polygon fill="midnightblue" stroke="midnightblue" points="807.39,-723.69 817.91,-722.48 808.93,-716.86 807.39,-723.69"/>
</g>
<!-- Node12 -->
<g id="node12" class="node">
<title>Node12</title>
<g id="a_node12"><a xlink:href="rmap_8c_a2ff278a5e094a9f585865d4d838e0e0e.html#a2ff278a5e094a9f585865d4d838e0e0e" target="_top" xlink:title=" ">
<polygon fill="white" stroke="black" points="968,-722.5 968,-741.5 1110,-741.5 1110,-722.5 968,-722.5"/>
<text text-anchor="middle" x="1039" y="-729.5" font-family="Helvetica,sans-Serif" font-size="10.00">rmap_process_read_reply</text>
</a>
</g>
</g>
<!-- Node11&#45;&gt;Node12 -->
<g id="edge12" class="edge">
<title>Node11&#45;&gt;Node12</title>
<path fill="none" stroke="midnightblue" d="M923.56,-732C934.6,-732 946.25,-732 957.73,-732"/>
<polygon fill="midnightblue" stroke="midnightblue" points="957.74,-735.5 967.74,-732 957.74,-728.5 957.74,-735.5"/>
</g>
<!-- Node13&#45;&gt;Node3 -->
<g id="edge14" class="edge">
<title>Node13&#45;&gt;Node3</title>
<path fill="none" stroke="midnightblue" d="M727.51,-361.57C736.29,-364.3 745.58,-367.49 754,-371 783.06,-383.13 814.64,-400.73 835.7,-413.16"/>
<polygon fill="midnightblue" stroke="midnightblue" points="833.94,-416.18 844.32,-418.3 837.52,-410.17 833.94,-416.18"/>
</g>
<!-- Node14 -->
<g id="node14" class="node">
<title>Node14</title>
<g id="a_node14"><a xlink:href="rmap_8c_aba944cf978de0b264ea5bb3a784bce0f.html#aba944cf978de0b264ea5bb3a784bce0f" target="_top" xlink:title="create an RMAP packet and set defaults">
<polygon fill="white" stroke="black" points="803,-228.5 803,-247.5 919,-247.5 919,-228.5 803,-228.5"/>
<text text-anchor="middle" x="861" y="-235.5" font-family="Helvetica,sans-Serif" font-size="10.00">rmap_create_packet</text>
</a>
</g>
</g>
<!-- Node13&#45;&gt;Node14 -->
<g id="edge15" class="edge">
<title>Node13&#45;&gt;Node14</title>
<path fill="none" stroke="midnightblue" d="M732.42,-342.4C739.83,-339.87 747.33,-336.76 754,-333 791.04,-312.08 826.2,-276.34 845.26,-255.17"/>
<polygon fill="midnightblue" stroke="midnightblue" points="847.96,-257.39 851.96,-247.58 842.72,-252.75 847.96,-257.39"/>
</g>
<!-- Node15 -->
<g id="node15" class="node">
<title>Node15</title>
<g id="a_node15"><a xlink:href="rmap_8c_a0ec3c28e83818f02e00d4c79d82d938a.html#a0ec3c28e83818f02e00d4c79d82d938a" target="_top" xlink:title="get the minimum header size given the RMAP instruction">
<polygon fill="white" stroke="black" points="794.5,-133.5 794.5,-152.5 927.5,-152.5 927.5,-133.5 794.5,-133.5"/>
<text text-anchor="middle" x="861" y="-140.5" font-family="Helvetica,sans-Serif" font-size="10.00">rmap_get_min_hdr_size</text>
</a>
</g>
</g>
<!-- Node13&#45;&gt;Node15 -->
<g id="edge16" class="edge">
<title>Node13&#45;&gt;Node15</title>
<path fill="none" stroke="midnightblue" d="M740.37,-342.44C745.39,-339.98 750.08,-336.88 754,-333 791.73,-295.59 763.36,-264.97 790,-219 803.48,-195.74 825.17,-173.66 840.83,-159.36"/>
<polygon fill="midnightblue" stroke="midnightblue" points="843.26,-161.89 848.4,-152.62 838.6,-156.66 843.26,-161.89"/>
</g>
<!-- Node20 -->
<g id="node20" class="node">
<title>Node20</title>
<g id="a_node20"><a xlink:href="rdcu__cmd_8c_a690d79ff983a96fdd40db6396e9c70e9.html#a690d79ff983a96fdd40db6396e9c70e9" target="_top" xlink:title="generate a write command for an arbitrary register (internal)">
<polygon fill="white" stroke="black" points="324,-353 324,-383 461,-383 461,-353 324,-353"/>
<text text-anchor="start" x="332" y="-371" font-family="Helvetica,sans-Serif" font-size="10.00">rdcu_write_cmd_register</text>
<text text-anchor="middle" x="392.5" y="-360" font-family="Helvetica,sans-Serif" font-size="10.00">_internal</text>
</a>
</g>
</g>
<!-- Node19&#45;&gt;Node20 -->
<g id="edge21" class="edge">
<title>Node19&#45;&gt;Node20</title>
<path fill="none" stroke="midnightblue" d="M226.86,-567.48C252.61,-536.28 334.92,-436.55 372.49,-391.04"/>
<polygon fill="midnightblue" stroke="midnightblue" points="375.29,-393.14 378.96,-383.2 369.89,-388.68 375.29,-393.14"/>
</g>
<!-- Node21 -->
<g id="node21" class="node">
<title>Node21</title>
<g id="a_node21"><a xlink:href="rdcu__rmap_8c_ab224927e85a7cec5b6f90292c7de36c4.html#ab224927e85a7cec5b6f90292c7de36c4" target="_top" xlink:title="generate an rmap command packet">
<polygon fill="white" stroke="black" points="501,-228.5 501,-247.5 588,-247.5 588,-228.5 501,-228.5"/>
<text text-anchor="middle" x="544.5" y="-235.5" font-family="Helvetica,sans-Serif" font-size="10.00">rdcu_gen_cmd</text>
</a>
</g>
</g>
<!-- Node20&#45;&gt;Node21 -->
<g id="edge22" class="edge">
<title>Node20&#45;&gt;Node21</title>
<path fill="none" stroke="midnightblue" d="M411,-352.83C439.42,-328.21 495.36,-279.72 524.63,-254.35"/>
<polygon fill="midnightblue" stroke="midnightblue" points="527.2,-256.76 532.47,-247.56 522.62,-251.47 527.2,-256.76"/>
</g>
<!-- Node21&#45;&gt;Node7 -->
<g id="edge26" class="edge">
<title>Node21&#45;&gt;Node7</title>
<path fill="none" stroke="midnightblue" d="M546.38,-247.52C549.93,-280.34 566.12,-389.81 628,-447 629.71,-448.58 631.55,-450.03 633.49,-451.37"/>
<polygon fill="midnightblue" stroke="midnightblue" points="632.08,-454.59 642.51,-456.46 635.53,-448.49 632.08,-454.59"/>
</g>
<!-- Node21&#45;&gt;Node14 -->
<g id="edge25" class="edge">
<title>Node21&#45;&gt;Node14</title>
<path fill="none" stroke="midnightblue" d="M550.23,-228.34C560.82,-207.96 588.65,-160.95 628,-143 678.95,-119.76 701.7,-122.99 754,-143 794.34,-158.43 829.01,-197.08 846.95,-220.05"/>
<polygon fill="midnightblue" stroke="midnightblue" points="844.35,-222.42 853.18,-228.27 849.93,-218.19 844.35,-222.42"/>
</g>
<!-- Node22 -->
<g id="node22" class="node">
<title>Node22</title>
<g id="a_node22"><a xlink:href="rmap_8c_aa17375d153cc3473cbbe4dfe1056c527.html#aa17375d153cc3473cbbe4dfe1056c527" target="_top" xlink:title="build an rmap header">
<polygon fill="white" stroke="black" points="645,-76.5 645,-95.5 737,-95.5 737,-76.5 645,-76.5"/>
<text text-anchor="middle" x="691" y="-83.5" font-family="Helvetica,sans-Serif" font-size="10.00">rmap_build_hdr</text>
</a>
</g>
</g>
<!-- Node21&#45;&gt;Node22 -->
<g id="edge23" class="edge">
<title>Node21&#45;&gt;Node22</title>
<path fill="none" stroke="midnightblue" d="M549.29,-228.17C558.9,-204.53 586.4,-143.91 628,-110 632.99,-105.93 638.75,-102.5 644.71,-99.61"/>
<polygon fill="midnightblue" stroke="midnightblue" points="646.36,-102.71 654.15,-95.52 643.58,-96.29 646.36,-102.71"/>
</g>
<!-- Node23 -->
<g id="node23" class="node">
<title>Node23</title>
<g id="a_node23"><a xlink:href="rmap_8c_aab7e23f061291d39568ad2df700bc777.html#aab7e23f061291d39568ad2df700bc777" target="_top" xlink:title="set an RMAP command">
<polygon fill="white" stroke="black" points="646.5,-38.5 646.5,-57.5 735.5,-57.5 735.5,-38.5 646.5,-38.5"/>
<text text-anchor="middle" x="691" y="-45.5" font-family="Helvetica,sans-Serif" font-size="10.00">rmap_set_cmd</text>
</a>
</g>
</g>
<!-- Node21&#45;&gt;Node23 -->
<g id="edge27" class="edge">
<title>Node21&#45;&gt;Node23</title>
<path fill="none" stroke="midnightblue" d="M547.36,-228.21C553.4,-199.09 575.23,-112.3 628,-67 630.81,-64.58 633.93,-62.48 637.22,-60.64"/>
<polygon fill="midnightblue" stroke="midnightblue" points="638.72,-63.8 646.27,-56.36 635.74,-57.47 638.72,-63.8"/>
</g>
<!-- Node25 -->
<g id="node25" class="node">
<title>Node25</title>
<g id="a_node25"><a xlink:href="rmap_8c_acf641aae92829ae864b6c3d8f94d86e2.html#acf641aae92829ae864b6c3d8f94d86e2" target="_top" xlink:title="set a data address">
<polygon fill="white" stroke="black" points="633,-228.5 633,-247.5 749,-247.5 749,-228.5 633,-228.5"/>
<text text-anchor="middle" x="691" y="-235.5" font-family="Helvetica,sans-Serif" font-size="10.00">rmap_set_data_addr</text>
</a>
</g>
</g>
<!-- Node21&#45;&gt;Node25 -->
<g id="edge29" class="edge">
<title>Node21&#45;&gt;Node25</title>
<path fill="none" stroke="midnightblue" d="M588.07,-238C598.95,-238 610.92,-238 622.72,-238"/>
<polygon fill="midnightblue" stroke="midnightblue" points="623,-241.5 633,-238 623,-234.5 623,-241.5"/>
</g>
<!-- Node26 -->
<g id="node26" class="node">
<title>Node26</title>
<g id="a_node26"><a xlink:href="rmap_8c_a6833f065640f652aa1a929309e592f7a.html#a6833f065640f652aa1a929309e592f7a" target="_top" xlink:title="set an RMAP command">
<polygon fill="white" stroke="black" points="636,-190.5 636,-209.5 746,-209.5 746,-190.5 636,-190.5"/>
<text text-anchor="middle" x="691" y="-197.5" font-family="Helvetica,sans-Serif" font-size="10.00">rmap_set_data_len</text>
</a>
</g>
</g>
<!-- Node21&#45;&gt;Node26 -->
<g id="edge30" class="edge">
<title>Node21&#45;&gt;Node26</title>
<path fill="none" stroke="midnightblue" d="M581.96,-228.41C600.77,-223.46 623.91,-217.38 643.95,-212.11"/>
<polygon fill="midnightblue" stroke="midnightblue" points="645.02,-215.45 653.8,-209.52 643.24,-208.68 645.02,-215.45"/>
</g>
<!-- Node27 -->
<g id="node27" class="node">
<title>Node27</title>
<g id="a_node27"><a xlink:href="rmap_8c_a5f0081b9928da5e50fc8b231b57f3a80.html#a5f0081b9928da5e50fc8b231b57f3a80" target="_top" xlink:title="set the destination address path">
<polygon fill="white" stroke="black" points="633,-418.5 633,-437.5 749,-437.5 749,-418.5 633,-418.5"/>
<text text-anchor="middle" x="691" y="-425.5" font-family="Helvetica,sans-Serif" font-size="10.00">rmap_set_dest_path</text>
</a>
</g>
</g>
<!-- Node21&#45;&gt;Node27 -->
<g id="edge31" class="edge">
<title>Node21&#45;&gt;Node27</title>
<path fill="none" stroke="midnightblue" d="M547.36,-247.79C553.4,-276.91 575.23,-363.7 628,-409 629.98,-410.7 632.11,-412.25 634.35,-413.66"/>
<polygon fill="midnightblue" stroke="midnightblue" points="632.93,-416.87 643.41,-418.44 636.2,-410.68 632.93,-416.87"/>
</g>
<!-- Node28 -->
<g id="node28" class="node">
<title>Node28</title>
<g id="a_node28"><a xlink:href="rmap_8c_a2da8e7b48411d382b54848795f85795d.html#a2da8e7b48411d382b54848795f85795d" target="_top" xlink:title="set the destination (target) logical address">
<polygon fill="white" stroke="black" points="649.5,-152.5 649.5,-171.5 732.5,-171.5 732.5,-152.5 649.5,-152.5"/>
<text text-anchor="middle" x="691" y="-159.5" font-family="Helvetica,sans-Serif" font-size="10.00">rmap_set_dst</text>
</a>
</g>
</g>
<!-- Node21&#45;&gt;Node28 -->
<g id="edge33" class="edge">
<title>Node21&#45;&gt;Node28</title>
<path fill="none" stroke="midnightblue" d="M556.82,-228.48C572.1,-216.04 600.58,-194.28 628,-181 632.63,-178.76 637.58,-176.71 642.6,-174.86"/>
<polygon fill="midnightblue" stroke="midnightblue" points="643.92,-178.1 652.24,-171.54 641.65,-171.48 643.92,-178.1"/>
</g>
<!-- Node29 -->
<g id="node29" class="node">
<title>Node29</title>
<g id="a_node29"><a xlink:href="rmap_8c_a15021c9dfccddc44786dfd37834bcd7e.html#a15021c9dfccddc44786dfd37834bcd7e" target="_top" xlink:title="set the command authorisation key">
<polygon fill="white" stroke="black" points="648.5,-0.5 648.5,-19.5 733.5,-19.5 733.5,-0.5 648.5,-0.5"/>
<text text-anchor="middle" x="691" y="-7.5" font-family="Helvetica,sans-Serif" font-size="10.00">rmap_set_key</text>
</a>
</g>
</g>
<!-- Node21&#45;&gt;Node29 -->
<g id="edge34" class="edge">
<title>Node21&#45;&gt;Node29</title>
<path fill="none" stroke="midnightblue" d="M546.38,-228.48C549.93,-195.66 566.12,-86.19 628,-29 631.21,-26.03 634.87,-23.53 638.77,-21.42"/>
<polygon fill="midnightblue" stroke="midnightblue" points="640.54,-24.46 648.22,-17.16 637.66,-18.08 640.54,-24.46"/>
</g>
<!-- Node30 -->
<g id="node30" class="node">
<title>Node30</title>
<g id="a_node30"><a xlink:href="rmap_8c_a56c47830e67d01e469231e5e7e1d3a34.html#a56c47830e67d01e469231e5e7e1d3a34" target="_top" xlink:title="set the reply address path">
<polygon fill="white" stroke="black" points="631.5,-380.5 631.5,-399.5 750.5,-399.5 750.5,-380.5 631.5,-380.5"/>
<text text-anchor="middle" x="691" y="-387.5" font-family="Helvetica,sans-Serif" font-size="10.00">rmap_set_reply_path</text>
</a>
</g>
</g>
<!-- Node21&#45;&gt;Node30 -->
<g id="edge35" class="edge">
<title>Node21&#45;&gt;Node30</title>
<path fill="none" stroke="midnightblue" d="M548.76,-247.68C557.52,-272.17 583.88,-337 628,-371 630.34,-372.8 632.85,-374.44 635.48,-375.92"/>
<polygon fill="midnightblue" stroke="midnightblue" points="634.22,-379.19 644.75,-380.38 637.25,-372.89 634.22,-379.19"/>
</g>
<!-- Node31 -->
<g id="node31" class="node">
<title>Node31</title>
<g id="a_node31"><a xlink:href="rmap_8c_adae0030440ca4e7ad34622e505acbb2c.html#adae0030440ca4e7ad34622e505acbb2c" target="_top" xlink:title="set the source (initiator) logical address">
<polygon fill="white" stroke="black" points="650,-304.5 650,-323.5 732,-323.5 732,-304.5 650,-304.5"/>
<text text-anchor="middle" x="691" y="-311.5" font-family="Helvetica,sans-Serif" font-size="10.00">rmap_set_src</text>
</a>
</g>
</g>
<!-- Node21&#45;&gt;Node31 -->
<g id="edge37" class="edge">
<title>Node21&#45;&gt;Node31</title>
<path fill="none" stroke="midnightblue" d="M556.82,-247.52C572.1,-259.96 600.58,-281.72 628,-295 632.63,-297.24 637.58,-299.29 642.6,-301.14"/>
<polygon fill="midnightblue" stroke="midnightblue" points="641.65,-304.52 652.24,-304.46 643.92,-297.9 641.65,-304.52"/>
</g>
<!-- Node32 -->
<g id="node32" class="node">
<title>Node32</title>
<g id="a_node32"><a xlink:href="rmap_8c_a7b4c31714493ce6cc19d4aa825ab50aa.html#a7b4c31714493ce6cc19d4aa825ab50aa" target="_top" xlink:title="set an RMAP transaction identifier">
<polygon fill="white" stroke="black" points="646.5,-266.5 646.5,-285.5 735.5,-285.5 735.5,-266.5 646.5,-266.5"/>
<text text-anchor="middle" x="691" y="-273.5" font-family="Helvetica,sans-Serif" font-size="10.00">rmap_set_tr_id</text>
</a>
</g>
</g>
<!-- Node21&#45;&gt;Node32 -->
<g id="edge38" class="edge">
<title>Node21&#45;&gt;Node32</title>
<path fill="none" stroke="midnightblue" d="M581.96,-247.59C600.77,-252.54 623.91,-258.62 643.95,-263.89"/>
<polygon fill="midnightblue" stroke="midnightblue" points="643.24,-267.32 653.8,-266.48 645.02,-260.55 643.24,-267.32"/>
</g>
<!-- Node22&#45;&gt;Node15 -->
<g id="edge24" class="edge">
<title>Node22&#45;&gt;Node15</title>
<path fill="none" stroke="midnightblue" d="M720.12,-95.54C748.1,-105.03 791.23,-119.67 822.2,-130.17"/>
<polygon fill="midnightblue" stroke="midnightblue" points="821.19,-133.53 831.79,-133.43 823.44,-126.9 821.19,-133.53"/>
</g>
<!-- Node24 -->
<g id="node24" class="node">
<title>Node24</title>
<g id="a_node24"><a xlink:href="rmap_8c_a667ce871110961f2a611d0244791e20f.html#a667ce871110961f2a611d0244791e20f" target="_top" xlink:title="valiidates a command code">
<polygon fill="white" stroke="black" points="790,-38.5 790,-57.5 932,-57.5 932,-38.5 790,-38.5"/>
<text text-anchor="middle" x="861" y="-45.5" font-family="Helvetica,sans-Serif" font-size="10.00">rmap_validate_cmd_code</text>
</a>
</g>
</g>
<!-- Node23&#45;&gt;Node24 -->
<g id="edge28" class="edge">
<title>Node23&#45;&gt;Node24</title>
<path fill="none" stroke="midnightblue" d="M735.7,-48C749.13,-48 764.36,-48 779.44,-48"/>
<polygon fill="midnightblue" stroke="midnightblue" points="779.83,-51.5 789.83,-48 779.83,-44.5 779.83,-51.5"/>
</g>
<!-- Node27&#45;&gt;Node3 -->
<g id="edge32" class="edge">
<title>Node27&#45;&gt;Node3</title>
<path fill="none" stroke="midnightblue" d="M749.35,-428C774.67,-428 803.6,-428 825.52,-428"/>
<polygon fill="midnightblue" stroke="midnightblue" points="825.68,-431.5 835.68,-428 825.68,-424.5 825.68,-431.5"/>
</g>
<!-- Node30&#45;&gt;Node3 -->
<g id="edge36" class="edge">
<title>Node30&#45;&gt;Node3</title>
<path fill="none" stroke="midnightblue" d="M734.39,-399.59C762.71,-405.99 799.47,-414.31 825.9,-420.29"/>
<polygon fill="midnightblue" stroke="midnightblue" points="825.3,-423.74 835.83,-422.53 826.85,-416.91 825.3,-423.74"/>
</g>
</g>
</svg>
