<?xml version="1.0" encoding="UTF-8" standalone="no"?>
<!DOCTYPE svg PUBLIC "-//W3C//DTD SVG 1.1//EN"
 "http://www.w3.org/Graphics/SVG/1.1/DTD/svg11.dtd">
<!-- Generated by graphviz version 2.43.0 (0)
 -->
<!-- Title: rdcu_read_cmd_compr_status Pages: 1 -->
<svg width="470pt" height="39pt"
 viewBox="0.00 0.00 470.00 39.00" xmlns="http://www.w3.org/2000/svg" xmlns:xlink="http://www.w3.org/1999/xlink">
<g id="graph0" class="graph" transform="scale(1 1) rotate(0) translate(4 35)">
<title>rdcu_read_cmd_compr_status</title>
<polygon fill="white" stroke="transparent" points="-4,4 -4,-35 466,-35 466,4 -4,4"/>
<!-- Node1 -->
<g id="node1" class="node">
<title>Node1</title>
<g id="a_node1"><a xlink:title="create a command to read the RDCU compressor status register">
<polygon fill="#bfbfbf" stroke="black" points="335,-0.5 335,-30.5 462,-30.5 462,-0.5 335,-0.5"/>
<text text-anchor="start" x="343" y="-18.5" font-family="Helvetica,sans-Serif" font-size="10.00">rdcu_read_cmd_compr</text>
<text text-anchor="middle" x="398.5" y="-7.5" font-family="Helvetica,sans-Serif" font-size="10.00">_status</text>
</a>
</g>
</g>
<!-- Node2 -->
<g id="node2" class="node">
<title>Node2</title>
<g id="a_node2"><a xlink:href="rdcu__ctrl_8c_a8b6fe99cdb713589e8a57a00fc1d1160.html#a8b6fe99cdb713589e8a57a00fc1d1160" target="_top" xlink:title="sync the Compressor Status register (read only)">
<polygon fill="white" stroke="black" points="162,-6 162,-25 299,-25 299,-6 162,-6"/>
<text text-anchor="middle" x="230.5" y="-13" font-family="Helvetica,sans-Serif" font-size="10.00">rdcu_sync_compr_status</text>
</a>
</g>
</g>
<!-- Node1&#45;&gt;Node2 -->
<g id="edge1" class="edge">
<title>Node1&#45;&gt;Node2</title>
<path fill="none" stroke="midnightblue" d="M324.51,-15.5C316.05,-15.5 307.44,-15.5 299.06,-15.5"/>
<polygon fill="midnightblue" stroke="midnightblue" points="324.74,-19 334.74,-15.5 324.74,-12 324.74,-19"/>
</g>
<!-- Node3 -->
<g id="node3" class="node">
<title>Node3</title>
<g id="a_node3"><a xlink:href="cmp__rdcu_8h_ab9573ccdf850671c2f0c6f90d39677e3.html#ab9573ccdf850671c2f0c6f90d39677e3" target="_top" xlink:title="read out the status register of the RDCU compressor">
<polygon fill="white" stroke="black" points="0,-6 0,-25 126,-25 126,-6 0,-6"/>
<text text-anchor="middle" x="63" y="-13" font-family="Helvetica,sans-Serif" font-size="10.00">rdcu_read_cmp_status</text>
</a>
</g>
</g>
<!-- Node2&#45;&gt;Node3 -->
<g id="edge2" class="edge">
<title>Node2&#45;&gt;Node3</title>
<path fill="none" stroke="midnightblue" d="M151.69,-15.5C143.11,-15.5 134.45,-15.5 126.1,-15.5"/>
<polygon fill="midnightblue" stroke="midnightblue" points="151.71,-19 161.71,-15.5 151.71,-12 151.71,-19"/>
</g>
</g>
</svg>
