<?xml version="1.0" encoding="UTF-8" standalone="no"?>
<!DOCTYPE svg PUBLIC "-//W3C//DTD SVG 1.1//EN"
 "http://www.w3.org/Graphics/SVG/1.1/DTD/svg11.dtd">
<!-- Generated by graphviz version 2.43.0 (0)
 -->
<!-- Title: rdcu_sync_used_param1 Pages: 1 -->
<svg width="1119pt" height="750pt"
 viewBox="0.00 0.00 1119.00 750.00" xmlns="http://www.w3.org/2000/svg" xmlns:xlink="http://www.w3.org/1999/xlink">
<g id="graph0" class="graph" transform="scale(1 1) rotate(0) translate(4 746)">
<title>rdcu_sync_used_param1</title>
<polygon fill="white" stroke="transparent" points="-4,4 -4,-746 1115,-746 1115,4 -4,4"/>
<!-- Node1 -->
<g id="node1" class="node">
<title>Node1</title>
<g id="a_node1"><a xlink:title="sync the Used Parameter 1 (read only)">
<polygon fill="#bfbfbf" stroke="black" points="0,-269.5 0,-288.5 137,-288.5 137,-269.5 0,-269.5"/>
<text text-anchor="middle" x="68.5" y="-276.5" font-family="Helvetica,sans-Serif" font-size="10.00">rdcu_sync_used_param1</text>
</a>
</g>
</g>
<!-- Node2 -->
<g id="node2" class="node">
<title>Node2</title>
<g id="a_node2"><a xlink:href="rdcu__cmd_8c_aa22cbc05ef71a00a8c3f3c775ce07781.html#aa22cbc05ef71a00a8c3f3c775ce07781" target="_top" xlink:title="create a command to read the RDCU used parameter 1 register">
<polygon fill="white" stroke="black" points="173,-387 173,-417 292,-417 292,-387 173,-387"/>
<text text-anchor="start" x="181" y="-405" font-family="Helvetica,sans-Serif" font-size="10.00">rdcu_read_cmd_used</text>
<text text-anchor="middle" x="232.5" y="-394" font-family="Helvetica,sans-Serif" font-size="10.00">_param1</text>
</a>
</g>
</g>
<!-- Node1&#45;&gt;Node2 -->
<g id="edge1" class="edge">
<title>Node1&#45;&gt;Node2</title>
<path fill="none" stroke="midnightblue" d="M82.21,-288.65C108.25,-308.42 168.16,-353.91 203.66,-380.86"/>
<polygon fill="midnightblue" stroke="midnightblue" points="201.62,-383.71 211.7,-386.97 205.85,-378.13 201.62,-383.71"/>
</g>
<!-- Node20 -->
<g id="node20" class="node">
<title>Node20</title>
<g id="a_node20"><a xlink:href="rdcu__rmap_8c_a533d1eb248d83ba3d406cefe7f3c9eb9.html#a533d1eb248d83ba3d406cefe7f3c9eb9" target="_top" xlink:title="submit a sync command">
<polygon fill="white" stroke="black" points="200,-247.5 200,-266.5 265,-266.5 265,-247.5 200,-247.5"/>
<text text-anchor="middle" x="232.5" y="-254.5" font-family="Helvetica,sans-Serif" font-size="10.00">rdcu_sync</text>
</a>
</g>
</g>
<!-- Node1&#45;&gt;Node20 -->
<g id="edge20" class="edge">
<title>Node1&#45;&gt;Node20</title>
<path fill="none" stroke="midnightblue" d="M137.26,-269.8C155.04,-267.38 173.7,-264.85 189.68,-262.68"/>
<polygon fill="midnightblue" stroke="midnightblue" points="190.32,-266.13 199.75,-261.31 189.37,-259.19 190.32,-266.13"/>
</g>
<!-- Node3 -->
<g id="node3" class="node">
<title>Node3</title>
<g id="a_node3"><a xlink:href="rdcu__cmd_8c_a3274188041d4484130e893afc5f1630f.html#a3274188041d4484130e893afc5f1630f" target="_top" xlink:title="generate a read command for an arbitrary register (internal)">
<polygon fill="white" stroke="black" points="328,-438 328,-468 462,-468 462,-438 328,-438"/>
<text text-anchor="start" x="336" y="-456" font-family="Helvetica,sans-Serif" font-size="10.00">rdcu_read_cmd_register</text>
<text text-anchor="middle" x="395" y="-445" font-family="Helvetica,sans-Serif" font-size="10.00">_internal</text>
</a>
</g>
</g>
<!-- Node2&#45;&gt;Node3 -->
<g id="edge2" class="edge">
<title>Node2&#45;&gt;Node3</title>
<path fill="none" stroke="midnightblue" d="M280.79,-417.03C298.42,-422.63 318.63,-429.05 337.04,-434.9"/>
<polygon fill="midnightblue" stroke="midnightblue" points="336.18,-438.3 346.77,-437.99 338.3,-431.63 336.18,-438.3"/>
</g>
<!-- Node4 -->
<g id="node4" class="node">
<title>Node4</title>
<g id="a_node4"><a xlink:href="rdcu__rmap_8c_ab224927e85a7cec5b6f90292c7de36c4.html#ab224927e85a7cec5b6f90292c7de36c4" target="_top" xlink:title="generate an rmap command packet">
<polygon fill="white" stroke="black" points="502,-494.5 502,-513.5 589,-513.5 589,-494.5 502,-494.5"/>
<text text-anchor="middle" x="545.5" y="-501.5" font-family="Helvetica,sans-Serif" font-size="10.00">rdcu_gen_cmd</text>
</a>
</g>
</g>
<!-- Node3&#45;&gt;Node4 -->
<g id="edge3" class="edge">
<title>Node3&#45;&gt;Node4</title>
<path fill="none" stroke="midnightblue" d="M439.75,-468.03C461.07,-475.35 486.46,-484.07 506.9,-491.09"/>
<polygon fill="midnightblue" stroke="midnightblue" points="505.9,-494.44 516.49,-494.38 508.17,-487.82 505.9,-494.44"/>
</g>
<!-- Node5 -->
<g id="node5" class="node">
<title>Node5</title>
<g id="a_node5"><a xlink:href="rmap_8c_aa17375d153cc3473cbbe4dfe1056c527.html#aa17375d153cc3473cbbe4dfe1056c527" target="_top" xlink:title="build an rmap header">
<polygon fill="white" stroke="black" points="646,-646.5 646,-665.5 738,-665.5 738,-646.5 646,-646.5"/>
<text text-anchor="middle" x="692" y="-653.5" font-family="Helvetica,sans-Serif" font-size="10.00">rmap_build_hdr</text>
</a>
</g>
</g>
<!-- Node4&#45;&gt;Node5 -->
<g id="edge4" class="edge">
<title>Node4&#45;&gt;Node5</title>
<path fill="none" stroke="midnightblue" d="M549.76,-513.68C558.52,-538.17 584.88,-603 629,-637 631.34,-638.8 633.85,-640.44 636.48,-641.92"/>
<polygon fill="midnightblue" stroke="midnightblue" points="635.22,-645.19 645.75,-646.38 638.25,-638.89 635.22,-645.19"/>
</g>
<!-- Node7 -->
<g id="node7" class="node">
<title>Node7</title>
<g id="a_node7"><a xlink:href="rmap_8c_aba944cf978de0b264ea5bb3a784bce0f.html#aba944cf978de0b264ea5bb3a784bce0f" target="_top" xlink:title="create an RMAP packet and set defaults">
<polygon fill="white" stroke="black" points="804,-437.5 804,-456.5 920,-456.5 920,-437.5 804,-437.5"/>
<text text-anchor="middle" x="862" y="-444.5" font-family="Helvetica,sans-Serif" font-size="10.00">rmap_create_packet</text>
</a>
</g>
</g>
<!-- Node4&#45;&gt;Node7 -->
<g id="edge6" class="edge">
<title>Node4&#45;&gt;Node7</title>
<path fill="none" stroke="midnightblue" d="M574.93,-513.53C615.8,-525.69 693.06,-542.91 755,-523 791.03,-511.42 825.19,-482.57 844.57,-463.93"/>
<polygon fill="midnightblue" stroke="midnightblue" points="847.28,-466.17 851.93,-456.65 842.36,-461.19 847.28,-466.17"/>
</g>
<!-- Node8 -->
<g id="node8" class="node">
<title>Node8</title>
<g id="a_node8"><a xlink:href="rmap_8c_a1def9af549819e7fdbda12af8bdc9c0e.html#a1def9af549819e7fdbda12af8bdc9c0e" target="_top" xlink:title="completely destroys an RMAP packet">
<polygon fill="white" stroke="black" points="636,-228.5 636,-247.5 748,-247.5 748,-228.5 636,-228.5"/>
<text text-anchor="middle" x="692" y="-235.5" font-family="Helvetica,sans-Serif" font-size="10.00">rmap_erase_packet</text>
</a>
</g>
</g>
<!-- Node4&#45;&gt;Node8 -->
<g id="edge7" class="edge">
<title>Node4&#45;&gt;Node8</title>
<path fill="none" stroke="midnightblue" d="M548.72,-494.09C556.09,-462.7 581.97,-363.5 629,-295 640,-278.98 656.29,-264.23 669.41,-253.75"/>
<polygon fill="midnightblue" stroke="midnightblue" points="671.71,-256.4 677.48,-247.51 667.43,-250.86 671.71,-256.4"/>
</g>
<!-- Node9 -->
<g id="node9" class="node">
<title>Node9</title>
<g id="a_node9"><a xlink:href="rmap_8c_aab7e23f061291d39568ad2df700bc777.html#aab7e23f061291d39568ad2df700bc777" target="_top" xlink:title="set an RMAP command">
<polygon fill="white" stroke="black" points="647.5,-684.5 647.5,-703.5 736.5,-703.5 736.5,-684.5 647.5,-684.5"/>
<text text-anchor="middle" x="692" y="-691.5" font-family="Helvetica,sans-Serif" font-size="10.00">rmap_set_cmd</text>
</a>
</g>
</g>
<!-- Node4&#45;&gt;Node9 -->
<g id="edge8" class="edge">
<title>Node4&#45;&gt;Node9</title>
<path fill="none" stroke="midnightblue" d="M548.36,-513.79C554.4,-542.91 576.23,-629.7 629,-675 631.81,-677.42 634.93,-679.52 638.22,-681.36"/>
<polygon fill="midnightblue" stroke="midnightblue" points="636.74,-684.53 647.27,-685.64 639.72,-678.2 636.74,-684.53"/>
</g>
<!-- Node11 -->
<g id="node11" class="node">
<title>Node11</title>
<g id="a_node11"><a xlink:href="rmap_8c_acf641aae92829ae864b6c3d8f94d86e2.html#acf641aae92829ae864b6c3d8f94d86e2" target="_top" xlink:title="set a data address">
<polygon fill="white" stroke="black" points="634,-608.5 634,-627.5 750,-627.5 750,-608.5 634,-608.5"/>
<text text-anchor="middle" x="692" y="-615.5" font-family="Helvetica,sans-Serif" font-size="10.00">rmap_set_data_addr</text>
</a>
</g>
</g>
<!-- Node4&#45;&gt;Node11 -->
<g id="edge10" class="edge">
<title>Node4&#45;&gt;Node11</title>
<path fill="none" stroke="midnightblue" d="M552.24,-513.66C564.11,-532.81 593.29,-575.78 629,-599 632.16,-601.05 635.55,-602.9 639.06,-604.55"/>
<polygon fill="midnightblue" stroke="midnightblue" points="637.98,-607.88 648.56,-608.48 640.66,-601.42 637.98,-607.88"/>
</g>
<!-- Node12 -->
<g id="node12" class="node">
<title>Node12</title>
<g id="a_node12"><a xlink:href="rmap_8c_a6833f065640f652aa1a929309e592f7a.html#a6833f065640f652aa1a929309e592f7a" target="_top" xlink:title="set an RMAP command">
<polygon fill="white" stroke="black" points="637,-570.5 637,-589.5 747,-589.5 747,-570.5 637,-570.5"/>
<text text-anchor="middle" x="692" y="-577.5" font-family="Helvetica,sans-Serif" font-size="10.00">rmap_set_data_len</text>
</a>
</g>
</g>
<!-- Node4&#45;&gt;Node12 -->
<g id="edge11" class="edge">
<title>Node4&#45;&gt;Node12</title>
<path fill="none" stroke="midnightblue" d="M560.04,-513.68C576,-524.82 603.59,-543.22 629,-556 636.78,-559.91 645.36,-563.6 653.6,-566.87"/>
<polygon fill="midnightblue" stroke="midnightblue" points="652.45,-570.17 663.04,-570.48 654.95,-563.64 652.45,-570.17"/>
</g>
<!-- Node13 -->
<g id="node13" class="node">
<title>Node13</title>
<g id="a_node13"><a xlink:href="rmap_8c_a5f0081b9928da5e50fc8b231b57f3a80.html#a5f0081b9928da5e50fc8b231b57f3a80" target="_top" xlink:title="set the destination address path">
<polygon fill="white" stroke="black" points="634,-342.5 634,-361.5 750,-361.5 750,-342.5 634,-342.5"/>
<text text-anchor="middle" x="692" y="-349.5" font-family="Helvetica,sans-Serif" font-size="10.00">rmap_set_dest_path</text>
</a>
</g>
</g>
<!-- Node4&#45;&gt;Node13 -->
<g id="edge12" class="edge">
<title>Node4&#45;&gt;Node13</title>
<path fill="none" stroke="midnightblue" d="M549.76,-494.32C558.52,-469.83 584.88,-405 629,-371 631.34,-369.2 633.85,-367.56 636.48,-366.08"/>
<polygon fill="midnightblue" stroke="midnightblue" points="638.25,-369.11 645.75,-361.62 635.22,-362.81 638.25,-369.11"/>
</g>
<!-- Node15 -->
<g id="node15" class="node">
<title>Node15</title>
<g id="a_node15"><a xlink:href="rmap_8c_a2da8e7b48411d382b54848795f85795d.html#a2da8e7b48411d382b54848795f85795d" target="_top" xlink:title="set the destination (target) logical address">
<polygon fill="white" stroke="black" points="650.5,-494.5 650.5,-513.5 733.5,-513.5 733.5,-494.5 650.5,-494.5"/>
<text text-anchor="middle" x="692" y="-501.5" font-family="Helvetica,sans-Serif" font-size="10.00">rmap_set_dst</text>
</a>
</g>
</g>
<!-- Node4&#45;&gt;Node15 -->
<g id="edge14" class="edge">
<title>Node4&#45;&gt;Node15</title>
<path fill="none" stroke="midnightblue" d="M589.07,-504C605.07,-504 623.41,-504 640.09,-504"/>
<polygon fill="midnightblue" stroke="midnightblue" points="640.22,-507.5 650.22,-504 640.22,-500.5 640.22,-507.5"/>
</g>
<!-- Node16 -->
<g id="node16" class="node">
<title>Node16</title>
<g id="a_node16"><a xlink:href="rmap_8c_a15021c9dfccddc44786dfd37834bcd7e.html#a15021c9dfccddc44786dfd37834bcd7e" target="_top" xlink:title="set the command authorisation key">
<polygon fill="white" stroke="black" points="649.5,-456.5 649.5,-475.5 734.5,-475.5 734.5,-456.5 649.5,-456.5"/>
<text text-anchor="middle" x="692" y="-463.5" font-family="Helvetica,sans-Serif" font-size="10.00">rmap_set_key</text>
</a>
</g>
</g>
<!-- Node4&#45;&gt;Node16 -->
<g id="edge15" class="edge">
<title>Node4&#45;&gt;Node16</title>
<path fill="none" stroke="midnightblue" d="M582.96,-494.41C601.77,-489.46 624.91,-483.38 644.95,-478.11"/>
<polygon fill="midnightblue" stroke="midnightblue" points="646.02,-481.45 654.8,-475.52 644.24,-474.68 646.02,-481.45"/>
</g>
<!-- Node17 -->
<g id="node17" class="node">
<title>Node17</title>
<g id="a_node17"><a xlink:href="rmap_8c_a56c47830e67d01e469231e5e7e1d3a34.html#a56c47830e67d01e469231e5e7e1d3a34" target="_top" xlink:title="set the reply address path">
<polygon fill="white" stroke="black" points="632.5,-304.5 632.5,-323.5 751.5,-323.5 751.5,-304.5 632.5,-304.5"/>
<text text-anchor="middle" x="692" y="-311.5" font-family="Helvetica,sans-Serif" font-size="10.00">rmap_set_reply_path</text>
</a>
</g>
</g>
<!-- Node4&#45;&gt;Node17 -->
<g id="edge16" class="edge">
<title>Node4&#45;&gt;Node17</title>
<path fill="none" stroke="midnightblue" d="M548.36,-494.21C554.4,-465.09 576.23,-378.3 629,-333 630.98,-331.3 633.11,-329.75 635.35,-328.34"/>
<polygon fill="midnightblue" stroke="midnightblue" points="637.2,-331.32 644.41,-323.56 633.93,-325.13 637.2,-331.32"/>
</g>
<!-- Node18 -->
<g id="node18" class="node">
<title>Node18</title>
<g id="a_node18"><a xlink:href="rmap_8c_adae0030440ca4e7ad34622e505acbb2c.html#adae0030440ca4e7ad34622e505acbb2c" target="_top" xlink:title="set the source (initiator) logical address">
<polygon fill="white" stroke="black" points="651,-418.5 651,-437.5 733,-437.5 733,-418.5 651,-418.5"/>
<text text-anchor="middle" x="692" y="-425.5" font-family="Helvetica,sans-Serif" font-size="10.00">rmap_set_src</text>
</a>
</g>
</g>
<!-- Node4&#45;&gt;Node18 -->
<g id="edge18" class="edge">
<title>Node4&#45;&gt;Node18</title>
<path fill="none" stroke="midnightblue" d="M557.82,-494.48C573.1,-482.04 601.58,-460.28 629,-447 633.63,-444.76 638.58,-442.71 643.6,-440.86"/>
<polygon fill="midnightblue" stroke="midnightblue" points="644.92,-444.1 653.24,-437.54 642.65,-437.48 644.92,-444.1"/>
</g>
<!-- Node19 -->
<g id="node19" class="node">
<title>Node19</title>
<g id="a_node19"><a xlink:href="rmap_8c_a7b4c31714493ce6cc19d4aa825ab50aa.html#a7b4c31714493ce6cc19d4aa825ab50aa" target="_top" xlink:title="set an RMAP transaction identifier">
<polygon fill="white" stroke="black" points="647.5,-722.5 647.5,-741.5 736.5,-741.5 736.5,-722.5 647.5,-722.5"/>
<text text-anchor="middle" x="692" y="-729.5" font-family="Helvetica,sans-Serif" font-size="10.00">rmap_set_tr_id</text>
</a>
</g>
</g>
<!-- Node4&#45;&gt;Node19 -->
<g id="edge19" class="edge">
<title>Node4&#45;&gt;Node19</title>
<path fill="none" stroke="midnightblue" d="M547.38,-513.52C550.93,-546.34 567.12,-655.81 629,-713 631.77,-715.56 634.87,-717.77 638.17,-719.69"/>
<polygon fill="midnightblue" stroke="midnightblue" points="636.77,-722.9 647.3,-724.09 639.82,-716.59 636.77,-722.9"/>
</g>
<!-- Node6 -->
<g id="node6" class="node">
<title>Node6</title>
<g id="a_node6"><a xlink:href="rmap_8c_a0ec3c28e83818f02e00d4c79d82d938a.html#a0ec3c28e83818f02e00d4c79d82d938a" target="_top" xlink:title="get the minimum header size given the RMAP instruction">
<polygon fill="white" stroke="black" points="795.5,-532.5 795.5,-551.5 928.5,-551.5 928.5,-532.5 795.5,-532.5"/>
<text text-anchor="middle" x="862" y="-539.5" font-family="Helvetica,sans-Serif" font-size="10.00">rmap_get_min_hdr_size</text>
</a>
</g>
</g>
<!-- Node5&#45;&gt;Node6 -->
<g id="edge5" class="edge">
<title>Node5&#45;&gt;Node6</title>
<path fill="none" stroke="midnightblue" d="M733.42,-646.4C740.83,-643.87 748.33,-640.76 755,-637 792.04,-616.08 827.2,-580.34 846.26,-559.17"/>
<polygon fill="midnightblue" stroke="midnightblue" points="848.96,-561.39 852.96,-551.58 843.72,-556.75 848.96,-561.39"/>
</g>
<!-- Node10 -->
<g id="node10" class="node">
<title>Node10</title>
<g id="a_node10"><a xlink:href="rmap_8c_a667ce871110961f2a611d0244791e20f.html#a667ce871110961f2a611d0244791e20f" target="_top" xlink:title="valiidates a command code">
<polygon fill="white" stroke="black" points="791,-684.5 791,-703.5 933,-703.5 933,-684.5 791,-684.5"/>
<text text-anchor="middle" x="862" y="-691.5" font-family="Helvetica,sans-Serif" font-size="10.00">rmap_validate_cmd_code</text>
</a>
</g>
</g>
<!-- Node9&#45;&gt;Node10 -->
<g id="edge9" class="edge">
<title>Node9&#45;&gt;Node10</title>
<path fill="none" stroke="midnightblue" d="M736.7,-694C750.13,-694 765.36,-694 780.44,-694"/>
<polygon fill="midnightblue" stroke="midnightblue" points="780.83,-697.5 790.83,-694 780.83,-690.5 780.83,-697.5"/>
</g>
<!-- Node14 -->
<g id="node14" class="node">
<title>Node14</title>
<g id="a_node14"><a xlink:href="test__cmp__max__used__bits__list_8c_a7ac38fce3243a7dcf448301ee9ffd392.html#a7ac38fce3243a7dcf448301ee9ffd392" target="_top" xlink:title=" ">
<polygon fill="white" stroke="black" points="837,-304.5 837,-323.5 887,-323.5 887,-304.5 837,-304.5"/>
<text text-anchor="middle" x="862" y="-311.5" font-family="Helvetica,sans-Serif" font-size="10.00">malloc</text>
</a>
</g>
</g>
<!-- Node13&#45;&gt;Node14 -->
<g id="edge13" class="edge">
<title>Node13&#45;&gt;Node14</title>
<path fill="none" stroke="midnightblue" d="M735.39,-342.41C763.71,-336.01 800.47,-327.69 826.9,-321.71"/>
<polygon fill="midnightblue" stroke="midnightblue" points="827.85,-325.09 836.83,-319.47 826.3,-318.26 827.85,-325.09"/>
</g>
<!-- Node17&#45;&gt;Node14 -->
<g id="edge17" class="edge">
<title>Node17&#45;&gt;Node14</title>
<path fill="none" stroke="midnightblue" d="M751.76,-314C776.69,-314 804.89,-314 826.39,-314"/>
<polygon fill="midnightblue" stroke="midnightblue" points="826.67,-317.5 836.67,-314 826.67,-310.5 826.67,-317.5"/>
</g>
<!-- Node20&#45;&gt;Node14 -->
<g id="edge21" class="edge">
<title>Node20&#45;&gt;Node14</title>
<path fill="none" stroke="midnightblue" d="M265.06,-258.15C346.47,-261.36 570.13,-271.76 755,-295 779.12,-298.03 806.09,-302.89 826.78,-306.93"/>
<polygon fill="midnightblue" stroke="midnightblue" points="826.2,-310.38 836.69,-308.9 827.56,-303.52 826.2,-310.38"/>
</g>
<!-- Node21 -->
<g id="node21" class="node">
<title>Node21</title>
<g id="a_node21"><a xlink:href="rdcu__rmap_8c_a95fad3cd9b6bbe562e1a73e3f1c108a8.html#a95fad3cd9b6bbe562e1a73e3f1c108a8" target="_top" xlink:title="submit an rmap command transaction">
<polygon fill="white" stroke="black" points="349,-228.5 349,-247.5 441,-247.5 441,-228.5 349,-228.5"/>
<text text-anchor="middle" x="395" y="-235.5" font-family="Helvetica,sans-Serif" font-size="10.00">rdcu_submit_tx</text>
</a>
</g>
</g>
<!-- Node20&#45;&gt;Node21 -->
<g id="edge22" class="edge">
<title>Node20&#45;&gt;Node21</title>
<path fill="none" stroke="midnightblue" d="M265.21,-253.25C286.25,-250.76 314.41,-247.42 339.04,-244.51"/>
<polygon fill="midnightblue" stroke="midnightblue" points="339.47,-247.98 348.99,-243.33 338.65,-241.03 339.47,-247.98"/>
</g>
<!-- Node32 -->
<g id="node32" class="node">
<title>Node32</title>
<g id="a_node32"><a xlink:href="rdcu__rmap_8c_a36f44335aa66dd49fb4903f7269bc5b1.html#a36f44335aa66dd49fb4903f7269bc5b1" target="_top" xlink:title="grab a slot in the transaction log">
<polygon fill="white" stroke="black" points="339,-190.5 339,-209.5 451,-209.5 451,-190.5 339,-190.5"/>
<text text-anchor="middle" x="395" y="-197.5" font-family="Helvetica,sans-Serif" font-size="10.00">trans_log_grab_slot</text>
</a>
</g>
</g>
<!-- Node20&#45;&gt;Node32 -->
<g id="edge38" class="edge">
<title>Node20&#45;&gt;Node32</title>
<path fill="none" stroke="midnightblue" d="M255.41,-247.45C274.41,-239.35 302.75,-227.69 328,-219 334.51,-216.76 341.45,-214.56 348.29,-212.5"/>
<polygon fill="midnightblue" stroke="midnightblue" points="349.56,-215.78 358.17,-209.6 347.59,-209.06 349.56,-215.78"/>
</g>
<!-- Node22 -->
<g id="node22" class="node">
<title>Node22</title>
<g id="a_node22"><a xlink:href="rdcu__rmap_8c_a1a064554031c2fa2dcb65541e0765c0f.html#a1a064554031c2fa2dcb65541e0765c0f" target="_top" xlink:title="n rmap command transaction">
<polygon fill="white" stroke="black" points="498,-171.5 498,-190.5 593,-190.5 593,-171.5 498,-171.5"/>
<text text-anchor="middle" x="545.5" y="-178.5" font-family="Helvetica,sans-Serif" font-size="10.00">rdcu_process_rx</text>
</a>
</g>
</g>
<!-- Node21&#45;&gt;Node22 -->
<g id="edge23" class="edge">
<title>Node21&#45;&gt;Node22</title>
<path fill="none" stroke="midnightblue" d="M432.98,-228.42C442.52,-225.66 452.72,-222.45 462,-219 480.61,-212.08 500.86,-202.78 516.64,-195.11"/>
<polygon fill="midnightblue" stroke="midnightblue" points="518.41,-198.14 525.84,-190.58 515.32,-191.86 518.41,-198.14"/>
</g>
<!-- Node22&#45;&gt;Node8 -->
<g id="edge26" class="edge">
<title>Node22&#45;&gt;Node8</title>
<path fill="none" stroke="midnightblue" d="M570.3,-190.6C586.76,-197.22 609.19,-206.2 629,-214 637.99,-217.54 647.73,-221.33 656.77,-224.83"/>
<polygon fill="midnightblue" stroke="midnightblue" points="655.65,-228.15 666.24,-228.49 658.17,-221.62 655.65,-228.15"/>
</g>
<!-- Node22&#45;&gt;Node14 -->
<g id="edge24" class="edge">
<title>Node22&#45;&gt;Node14</title>
<path fill="none" stroke="midnightblue" d="M593.07,-182.28C636.88,-185.11 703.29,-193.67 755,-219 793.4,-237.81 828.32,-274.59 846.92,-296.46"/>
<polygon fill="midnightblue" stroke="midnightblue" points="844.35,-298.85 853.43,-304.3 849.73,-294.37 844.35,-298.85"/>
</g>
<!-- Node23 -->
<g id="node23" class="node">
<title>Node23</title>
<g id="a_node23"><a xlink:href="rmap_8c_abf1868ec6873f9f189050cadc7e64a3b.html#abf1868ec6873f9f189050cadc7e64a3b" target="_top" xlink:title="calculate the CRC8 of a given buffer">
<polygon fill="white" stroke="black" points="658,-76.5 658,-95.5 726,-95.5 726,-76.5 658,-76.5"/>
<text text-anchor="middle" x="692" y="-83.5" font-family="Helvetica,sans-Serif" font-size="10.00">rmap_crc8</text>
</a>
</g>
</g>
<!-- Node22&#45;&gt;Node23 -->
<g id="edge25" class="edge">
<title>Node22&#45;&gt;Node23</title>
<path fill="none" stroke="midnightblue" d="M554.37,-171.36C567.95,-155.32 597.41,-123.12 629,-105 634.9,-101.61 641.48,-98.76 648.08,-96.39"/>
<polygon fill="midnightblue" stroke="midnightblue" points="649.27,-99.68 657.69,-93.25 647.09,-93.03 649.27,-99.68"/>
</g>
<!-- Node24 -->
<g id="node24" class="node">
<title>Node24</title>
<g id="a_node24"><a xlink:href="rmap_8c_a5e88a29337404518eceedf9b4af285bf.html#a5e88a29337404518eceedf9b4af285bf" target="_top" xlink:title=" ">
<polygon fill="white" stroke="black" points="644.5,-38.5 644.5,-57.5 739.5,-57.5 739.5,-38.5 644.5,-38.5"/>
<text text-anchor="middle" x="692" y="-45.5" font-family="Helvetica,sans-Serif" font-size="10.00">rmap_parse_pkt</text>
</a>
</g>
</g>
<!-- Node22&#45;&gt;Node24 -->
<g id="edge27" class="edge">
<title>Node22&#45;&gt;Node24</title>
<path fill="none" stroke="midnightblue" d="M550.76,-171.43C560.98,-149.55 589.06,-95.57 629,-67 631.7,-65.07 634.6,-63.33 637.62,-61.76"/>
<polygon fill="midnightblue" stroke="midnightblue" points="639.27,-64.86 646.96,-57.57 636.4,-58.48 639.27,-64.86"/>
</g>
<!-- Node29 -->
<g id="node29" class="node">
<title>Node29</title>
<g id="a_node29"><a xlink:href="rmap_8c_a46d3271304c12df042b57dbebaba67e1.html#a46d3271304c12df042b57dbebaba67e1" target="_top" xlink:title="create an rmap packet from a buffer">
<polygon fill="white" stroke="black" points="629.5,-380.5 629.5,-399.5 754.5,-399.5 754.5,-380.5 629.5,-380.5"/>
<text text-anchor="middle" x="692" y="-387.5" font-family="Helvetica,sans-Serif" font-size="10.00">rmap_pkt_from_buffer</text>
</a>
</g>
</g>
<!-- Node22&#45;&gt;Node29 -->
<g id="edge32" class="edge">
<title>Node22&#45;&gt;Node29</title>
<path fill="none" stroke="midnightblue" d="M547.8,-190.52C552.52,-221.4 571.62,-319.72 629,-371 630.91,-372.71 632.97,-374.26 635.14,-375.67"/>
<polygon fill="midnightblue" stroke="midnightblue" points="633.49,-378.76 643.95,-380.46 636.84,-372.61 633.49,-378.76"/>
</g>
<!-- Node30 -->
<g id="node30" class="node">
<title>Node30</title>
<g id="a_node30"><a xlink:href="rdcu__rmap_8c_acf9b176d8d9b24e9d07711f56aebccc0.html#acf9b176d8d9b24e9d07711f56aebccc0" target="_top" xlink:title="get the local address for a slot">
<polygon fill="white" stroke="black" points="637,-152.5 637,-171.5 747,-171.5 747,-152.5 637,-152.5"/>
<text text-anchor="middle" x="692" y="-159.5" font-family="Helvetica,sans-Serif" font-size="10.00">trans_log_get_addr</text>
</a>
</g>
</g>
<!-- Node22&#45;&gt;Node30 -->
<g id="edge36" class="edge">
<title>Node22&#45;&gt;Node30</title>
<path fill="none" stroke="midnightblue" d="M593.02,-174.88C603.69,-173.48 615.23,-171.96 626.51,-170.48"/>
<polygon fill="midnightblue" stroke="midnightblue" points="627.31,-173.9 636.77,-169.13 626.4,-166.96 627.31,-173.9"/>
</g>
<!-- Node31 -->
<g id="node31" class="node">
<title>Node31</title>
<g id="a_node31"><a xlink:href="rdcu__rmap_8c_a7012f58a1862cf07b00e299d24c199c2.html#a7012f58a1862cf07b00e299d24c199c2" target="_top" xlink:title="release a slot in the transaction log">
<polygon fill="white" stroke="black" points="629,-114.5 629,-133.5 755,-133.5 755,-114.5 629,-114.5"/>
<text text-anchor="middle" x="692" y="-121.5" font-family="Helvetica,sans-Serif" font-size="10.00">trans_log_release_slot</text>
</a>
</g>
</g>
<!-- Node22&#45;&gt;Node31 -->
<g id="edge37" class="edge">
<title>Node22&#45;&gt;Node31</title>
<path fill="none" stroke="midnightblue" d="M565.52,-171.35C582.05,-163.18 606.75,-151.49 629,-143 634.87,-140.76 641.12,-138.6 647.31,-136.58"/>
<polygon fill="midnightblue" stroke="midnightblue" points="648.45,-139.89 656.93,-133.54 646.34,-133.22 648.45,-139.89"/>
</g>
<!-- Node25 -->
<g id="node25" class="node">
<title>Node25</title>
<g id="a_node25"><a xlink:href="rmap_8c_abb4e19c17c7223212c3904bc4c0189d2.html#abb4e19c17c7223212c3904bc4c0189d2" target="_top" xlink:title=" ">
<polygon fill="white" stroke="black" points="806.5,-76.5 806.5,-95.5 917.5,-95.5 917.5,-76.5 806.5,-76.5"/>
<text text-anchor="middle" x="862" y="-83.5" font-family="Helvetica,sans-Serif" font-size="10.00">rmap_check_status</text>
</a>
</g>
</g>
<!-- Node24&#45;&gt;Node25 -->
<g id="edge28" class="edge">
<title>Node24&#45;&gt;Node25</title>
<path fill="none" stroke="midnightblue" d="M735.39,-57.59C757.76,-62.65 785.4,-68.9 809.05,-74.25"/>
<polygon fill="midnightblue" stroke="midnightblue" points="808.39,-77.69 818.91,-76.48 809.93,-70.86 808.39,-77.69"/>
</g>
<!-- Node26 -->
<g id="node26" class="node">
<title>Node26</title>
<g id="a_node26"><a xlink:href="rmap_8c_a20aa8b91dfb1bbad819759f97b853054.html#a20aa8b91dfb1bbad819759f97b853054" target="_top" xlink:title=" ">
<polygon fill="white" stroke="black" points="801,-38.5 801,-57.5 923,-57.5 923,-38.5 801,-38.5"/>
<text text-anchor="middle" x="862" y="-45.5" font-family="Helvetica,sans-Serif" font-size="10.00">rmap_parse_cmd_pkt</text>
</a>
</g>
</g>
<!-- Node24&#45;&gt;Node26 -->
<g id="edge29" class="edge">
<title>Node24&#45;&gt;Node26</title>
<path fill="none" stroke="midnightblue" d="M739.8,-48C755.62,-48 773.66,-48 790.89,-48"/>
<polygon fill="midnightblue" stroke="midnightblue" points="790.92,-51.5 800.92,-48 790.92,-44.5 790.92,-51.5"/>
</g>
<!-- Node27 -->
<g id="node27" class="node">
<title>Node27</title>
<g id="a_node27"><a xlink:href="rmap_8c_adef42426b46ee5ad5176ee76cff35c22.html#adef42426b46ee5ad5176ee76cff35c22" target="_top" xlink:title=" ">
<polygon fill="white" stroke="black" points="799.5,-0.5 799.5,-19.5 924.5,-19.5 924.5,-0.5 799.5,-0.5"/>
<text text-anchor="middle" x="862" y="-7.5" font-family="Helvetica,sans-Serif" font-size="10.00">rmap_parse_reply_pkt</text>
</a>
</g>
</g>
<!-- Node24&#45;&gt;Node27 -->
<g id="edge30" class="edge">
<title>Node24&#45;&gt;Node27</title>
<path fill="none" stroke="midnightblue" d="M735.39,-38.41C757.76,-33.35 785.4,-27.1 809.05,-21.75"/>
<polygon fill="midnightblue" stroke="midnightblue" points="809.93,-25.14 818.91,-19.52 808.39,-18.31 809.93,-25.14"/>
</g>
<!-- Node28 -->
<g id="node28" class="node">
<title>Node28</title>
<g id="a_node28"><a xlink:href="rmap_8c_a2ff278a5e094a9f585865d4d838e0e0e.html#a2ff278a5e094a9f585865d4d838e0e0e" target="_top" xlink:title=" ">
<polygon fill="white" stroke="black" points="969,-0.5 969,-19.5 1111,-19.5 1111,-0.5 969,-0.5"/>
<text text-anchor="middle" x="1040" y="-7.5" font-family="Helvetica,sans-Serif" font-size="10.00">rmap_process_read_reply</text>
</a>
</g>
</g>
<!-- Node27&#45;&gt;Node28 -->
<g id="edge31" class="edge">
<title>Node27&#45;&gt;Node28</title>
<path fill="none" stroke="midnightblue" d="M924.56,-10C935.6,-10 947.25,-10 958.73,-10"/>
<polygon fill="midnightblue" stroke="midnightblue" points="958.74,-13.5 968.74,-10 958.74,-6.5 958.74,-13.5"/>
</g>
<!-- Node29&#45;&gt;Node6 -->
<g id="edge35" class="edge">
<title>Node29&#45;&gt;Node6</title>
<path fill="none" stroke="midnightblue" d="M737.9,-399.53C744,-402 749.9,-405.1 755,-409 778.81,-427.19 772.78,-442.22 791,-466 807.39,-487.38 828.64,-509.84 843.41,-524.74"/>
<polygon fill="midnightblue" stroke="midnightblue" points="841.32,-527.61 850.87,-532.19 846.27,-522.65 841.32,-527.61"/>
</g>
<!-- Node29&#45;&gt;Node7 -->
<g id="edge34" class="edge">
<title>Node29&#45;&gt;Node7</title>
<path fill="none" stroke="midnightblue" d="M725.27,-399.58C734.87,-402.51 745.38,-405.81 755,-409 778.76,-416.89 805.27,-426.4 825.83,-433.93"/>
<polygon fill="midnightblue" stroke="midnightblue" points="824.82,-437.28 835.41,-437.45 827.23,-430.71 824.82,-437.28"/>
</g>
<!-- Node29&#45;&gt;Node14 -->
<g id="edge33" class="edge">
<title>Node29&#45;&gt;Node14</title>
<path fill="none" stroke="midnightblue" d="M728.51,-380.43C737.29,-377.7 746.58,-374.51 755,-371 784.06,-358.87 815.64,-341.27 836.7,-328.84"/>
<polygon fill="midnightblue" stroke="midnightblue" points="838.52,-331.83 845.32,-323.7 834.94,-325.82 838.52,-331.83"/>
</g>
</g>
</svg>
