<?xml version="1.0" encoding="UTF-8" standalone="no"?>
<!DOCTYPE svg PUBLIC "-//W3C//DTD SVG 1.1//EN"
 "http://www.w3.org/Graphics/SVG/1.1/DTD/svg11.dtd">
<!-- Generated by graphviz version 2.43.0 (0)
 -->
<!-- Title: rdcu_write_cmd_register_internal Pages: 1 -->
<svg width="1202pt" height="820pt"
 viewBox="0.00 0.00 1202.00 820.00" xmlns="http://www.w3.org/2000/svg" xmlns:xlink="http://www.w3.org/1999/xlink">
<g id="graph0" class="graph" transform="scale(1 1) rotate(0) translate(4 816)">
<title>rdcu_write_cmd_register_internal</title>
<polygon fill="white" stroke="transparent" points="-4,4 -4,-816 1198,-816 1198,4 -4,4"/>
<!-- Node1 -->
<g id="node1" class="node">
<title>Node1</title>
<g id="a_node1"><a xlink:title="generate a write command for an arbitrary register (internal)">
<polygon fill="#bfbfbf" stroke="black" points="1057,-374.5 1057,-404.5 1194,-404.5 1194,-374.5 1057,-374.5"/>
<text text-anchor="start" x="1065" y="-392.5" font-family="Helvetica,sans-Serif" font-size="10.00">rdcu_write_cmd_register</text>
<text text-anchor="middle" x="1125.5" y="-381.5" font-family="Helvetica,sans-Serif" font-size="10.00">_internal</text>
</a>
</g>
</g>
<!-- Node2 -->
<g id="node2" class="node">
<title>Node2</title>
<g id="a_node2"><a xlink:href="rdcu__cmd_8c_a2944d1828aac75e16575e1afe4a65855.html#a2944d1828aac75e16575e1afe4a65855" target="_top" xlink:title="create a command to write the RDCU adaptive parameter 1 register">
<polygon fill="white" stroke="black" points="872,-497.5 872,-527.5 1014,-527.5 1014,-497.5 872,-497.5"/>
<text text-anchor="start" x="880" y="-515.5" font-family="Helvetica,sans-Serif" font-size="10.00">rdcu_write_cmd_adaptive</text>
<text text-anchor="middle" x="943" y="-504.5" font-family="Helvetica,sans-Serif" font-size="10.00">_param1</text>
</a>
</g>
</g>
<!-- Node1&#45;&gt;Node2 -->
<g id="edge1" class="edge">
<title>Node1&#45;&gt;Node2</title>
<path fill="none" stroke="midnightblue" d="M1106,-412.54C1086.9,-434.92 1055.15,-468.37 1021,-488.5 1015.21,-491.91 1008.88,-494.89 1002.43,-497.47"/>
<polygon fill="midnightblue" stroke="midnightblue" points="1108.71,-414.76 1112.45,-404.85 1103.34,-410.27 1108.71,-414.76"/>
</g>
<!-- Node8 -->
<g id="node8" class="node">
<title>Node8</title>
<g id="a_node8"><a xlink:href="rdcu__cmd_8c_ad8a771d26933f108cd26ee57a4e99be5.html#ad8a771d26933f108cd26ee57a4e99be5" target="_top" xlink:title="create a command to write the RDCU adaptive parameter 2 register">
<polygon fill="white" stroke="black" points="872,-448.5 872,-478.5 1014,-478.5 1014,-448.5 872,-448.5"/>
<text text-anchor="start" x="880" y="-466.5" font-family="Helvetica,sans-Serif" font-size="10.00">rdcu_write_cmd_adaptive</text>
<text text-anchor="middle" x="943" y="-455.5" font-family="Helvetica,sans-Serif" font-size="10.00">_param2</text>
</a>
</g>
</g>
<!-- Node1&#45;&gt;Node8 -->
<g id="edge8" class="edge">
<title>Node1&#45;&gt;Node8</title>
<path fill="none" stroke="midnightblue" d="M1086.91,-409.32C1067.53,-419.11 1043.33,-430.68 1021,-439.5 1013.06,-442.64 1004.53,-445.64 996.14,-448.4"/>
<polygon fill="midnightblue" stroke="midnightblue" points="1088.7,-412.34 1096.01,-404.67 1085.51,-406.1 1088.7,-412.34"/>
</g>
<!-- Node10 -->
<g id="node10" class="node">
<title>Node10</title>
<g id="a_node10"><a xlink:href="rdcu__cmd_8c_ae70a8d9356aa151e035ccec420fc7a01.html#ae70a8d9356aa151e035ccec420fc7a01" target="_top" xlink:title="create a command to write the RDCU ADC control register">
<polygon fill="white" stroke="black" points="874.5,-214 874.5,-233 1011.5,-233 1011.5,-214 874.5,-214"/>
<text text-anchor="middle" x="943" y="-221" font-family="Helvetica,sans-Serif" font-size="10.00">rdcu_write_cmd_adc_ctrl</text>
</a>
</g>
</g>
<!-- Node1&#45;&gt;Node10 -->
<g id="edge11" class="edge">
<title>Node1&#45;&gt;Node10</title>
<path fill="none" stroke="midnightblue" d="M1113.87,-365.14C1098.31,-332.39 1066.19,-274.69 1021,-243.5 1014.63,-239.11 1007.37,-235.68 999.9,-233"/>
<polygon fill="midnightblue" stroke="midnightblue" points="1110.8,-366.83 1118.16,-374.44 1117.15,-363.9 1110.8,-366.83"/>
</g>
<!-- Node12 -->
<g id="node12" class="node">
<title>Node12</title>
<g id="a_node12"><a xlink:href="rdcu__cmd_8c_a90d3bc193d20e828f4fc91fa0bca84b6.html#a90d3bc193d20e828f4fc91fa0bca84b6" target="_top" xlink:title="create a command to write the RDCU compressor control register">
<polygon fill="white" stroke="black" points="867.5,-743 867.5,-762 1018.5,-762 1018.5,-743 867.5,-743"/>
<text text-anchor="middle" x="943" y="-750" font-family="Helvetica,sans-Serif" font-size="10.00">rdcu_write_cmd_compr_ctrl</text>
</a>
</g>
</g>
<!-- Node1&#45;&gt;Node12 -->
<g id="edge13" class="edge">
<title>Node1&#45;&gt;Node12</title>
<path fill="none" stroke="midnightblue" d="M1124.84,-414.8C1124.25,-478.28 1113.52,-645.52 1021,-733.5 1017.01,-737.3 1012.38,-740.37 1007.42,-742.85"/>
<polygon fill="midnightblue" stroke="midnightblue" points="1128.34,-414.53 1124.85,-404.53 1121.34,-414.52 1128.34,-414.53"/>
</g>
<!-- Node16 -->
<g id="node16" class="node">
<title>Node16</title>
<g id="a_node16"><a xlink:href="rdcu__cmd_8c_adfbdab2c1a18014b2a37db9df7c19c6d.html#adfbdab2c1a18014b2a37db9df7c19c6d" target="_top" xlink:title="create a command to write the RDCU compressed data buffer length register">
<polygon fill="white" stroke="black" points="878,-350.5 878,-380.5 1008,-380.5 1008,-350.5 878,-350.5"/>
<text text-anchor="start" x="886" y="-368.5" font-family="Helvetica,sans-Serif" font-size="10.00">rdcu_write_cmd_compr</text>
<text text-anchor="middle" x="943" y="-357.5" font-family="Helvetica,sans-Serif" font-size="10.00">_data_buf_len</text>
</a>
</g>
</g>
<!-- Node1&#45;&gt;Node16 -->
<g id="edge20" class="edge">
<title>Node1&#45;&gt;Node16</title>
<path fill="none" stroke="midnightblue" d="M1046.6,-379.14C1033.79,-377.44 1020.65,-375.69 1008.22,-374.04"/>
<polygon fill="midnightblue" stroke="midnightblue" points="1046.4,-382.65 1056.77,-380.5 1047.32,-375.71 1046.4,-382.65"/>
</g>
<!-- Node18 -->
<g id="node18" class="node">
<title>Node18</title>
<g id="a_node18"><a xlink:href="rdcu__cmd_8c_a654915f8967b0f41dfd90ce27f01203d.html#a654915f8967b0f41dfd90ce27f01203d" target="_top" xlink:title="create a command to write the RDCU compressed data buffer start address register">
<polygon fill="white" stroke="black" points="878,-301.5 878,-331.5 1008,-331.5 1008,-301.5 878,-301.5"/>
<text text-anchor="start" x="886" y="-319.5" font-family="Helvetica,sans-Serif" font-size="10.00">rdcu_write_cmd_compr</text>
<text text-anchor="middle" x="943" y="-308.5" font-family="Helvetica,sans-Serif" font-size="10.00">_data_buf_start_addr</text>
</a>
</g>
</g>
<!-- Node1&#45;&gt;Node18 -->
<g id="edge23" class="edge">
<title>Node1&#45;&gt;Node18</title>
<path fill="none" stroke="midnightblue" d="M1085.53,-370.08C1066.34,-360.86 1042.71,-350.02 1021,-341.5 1012.23,-338.06 1002.78,-334.71 993.6,-331.63"/>
<polygon fill="midnightblue" stroke="midnightblue" points="1084.05,-373.25 1094.57,-374.46 1087.1,-366.95 1084.05,-373.25"/>
</g>
<!-- Node20 -->
<g id="node20" class="node">
<title>Node20</title>
<g id="a_node20"><a xlink:href="rdcu__cmd_8c_a43c158ef3d80e32b9d18fce7c4730b00.html#a43c158ef3d80e32b9d18fce7c4730b00" target="_top" xlink:title="create a command to write the RDCU compressor parameter 1 register">
<polygon fill="white" stroke="black" points="865,-781.5 865,-811.5 1021,-811.5 1021,-781.5 865,-781.5"/>
<text text-anchor="start" x="873" y="-799.5" font-family="Helvetica,sans-Serif" font-size="10.00">rdcu_write_cmd_compressor</text>
<text text-anchor="middle" x="943" y="-788.5" font-family="Helvetica,sans-Serif" font-size="10.00">_param1</text>
</a>
</g>
</g>
<!-- Node1&#45;&gt;Node20 -->
<g id="edge26" class="edge">
<title>Node1&#45;&gt;Node20</title>
<path fill="none" stroke="midnightblue" d="M1125.35,-414.83C1126.21,-482.34 1119.05,-668.49 1021,-771.5 1017.32,-775.37 1013.03,-778.64 1008.4,-781.41"/>
<polygon fill="midnightblue" stroke="midnightblue" points="1128.85,-414.62 1125.15,-404.69 1121.85,-414.76 1128.85,-414.62"/>
</g>
<!-- Node22 -->
<g id="node22" class="node">
<title>Node22</title>
<g id="a_node22"><a xlink:href="rdcu__cmd_8c_afe4ea7360e3dd36f9addc5ebbd7c44e1.html#afe4ea7360e3dd36f9addc5ebbd7c44e1" target="_top" xlink:title="create a command to write the RDCU compressor parameter 2 register">
<polygon fill="white" stroke="black" points="865,-644.5 865,-674.5 1021,-674.5 1021,-644.5 865,-644.5"/>
<text text-anchor="start" x="873" y="-662.5" font-family="Helvetica,sans-Serif" font-size="10.00">rdcu_write_cmd_compressor</text>
<text text-anchor="middle" x="943" y="-651.5" font-family="Helvetica,sans-Serif" font-size="10.00">_param2</text>
</a>
</g>
</g>
<!-- Node1&#45;&gt;Node22 -->
<g id="edge29" class="edge">
<title>Node1&#45;&gt;Node22</title>
<path fill="none" stroke="midnightblue" d="M1120.98,-414.93C1112.75,-464.61 1087.65,-574.97 1021,-635.5 1017.27,-638.89 1013.06,-641.8 1008.59,-644.3"/>
<polygon fill="midnightblue" stroke="midnightblue" points="1124.48,-415.17 1122.56,-404.75 1117.56,-414.09 1124.48,-415.17"/>
</g>
<!-- Node24 -->
<g id="node24" class="node">
<title>Node24</title>
<g id="a_node24"><a xlink:href="rdcu__cmd_8c_a80517218458f16f59ee8eea57f339978.html#a80517218458f16f59ee8eea57f339978" target="_top" xlink:title="create a command to write the RDCU core control register">
<polygon fill="white" stroke="black" points="872.5,-176 872.5,-195 1013.5,-195 1013.5,-176 872.5,-176"/>
<text text-anchor="middle" x="943" y="-183" font-family="Helvetica,sans-Serif" font-size="10.00">rdcu_write_cmd_core_ctrl</text>
</a>
</g>
</g>
<!-- Node1&#45;&gt;Node24 -->
<g id="edge32" class="edge">
<title>Node1&#45;&gt;Node24</title>
<path fill="none" stroke="midnightblue" d="M1117.61,-364.51C1105.22,-324.37 1075.27,-245.87 1021,-204.5 1015.96,-200.66 1010.25,-197.59 1004.27,-195.13"/>
<polygon fill="midnightblue" stroke="midnightblue" points="1114.32,-365.7 1120.52,-374.29 1121.03,-363.71 1114.32,-365.7"/>
</g>
<!-- Node26 -->
<g id="node26" class="node">
<title>Node26</title>
<g id="a_node26"><a xlink:href="rdcu__cmd_8c_a66861216c6dd740f242702f61ef3a5ad.html#a66861216c6dd740f242702f61ef3a5ad" target="_top" xlink:title="create a command to write the RDCU data start address register">
<polygon fill="white" stroke="black" points="882.5,-693.5 882.5,-723.5 1003.5,-723.5 1003.5,-693.5 882.5,-693.5"/>
<text text-anchor="start" x="890.5" y="-711.5" font-family="Helvetica,sans-Serif" font-size="10.00">rdcu_write_cmd_data</text>
<text text-anchor="middle" x="943" y="-700.5" font-family="Helvetica,sans-Serif" font-size="10.00">_start_addr</text>
</a>
</g>
</g>
<!-- Node1&#45;&gt;Node26 -->
<g id="edge34" class="edge">
<title>Node1&#45;&gt;Node26</title>
<path fill="none" stroke="midnightblue" d="M1123.03,-414.72C1118.37,-471.25 1099.16,-609.05 1021,-684.5 1015.96,-689.36 1009.96,-693.24 1003.55,-696.33"/>
<polygon fill="midnightblue" stroke="midnightblue" points="1126.54,-414.77 1123.78,-404.54 1119.56,-414.25 1126.54,-414.77"/>
</g>
<!-- Node28 -->
<g id="node28" class="node">
<title>Node28</title>
<g id="a_node28"><a xlink:href="rdcu__cmd_8c_a0a7cce640f7386aa2da7678bb8df8974.html#a0a7cce640f7386aa2da7678bb8df8974" target="_top" xlink:title="create a command to write the RDCU LVDS control register">
<polygon fill="white" stroke="black" points="873,-138 873,-157 1013,-157 1013,-138 873,-138"/>
<text text-anchor="middle" x="943" y="-145" font-family="Helvetica,sans-Serif" font-size="10.00">rdcu_write_cmd_lvds_ctrl</text>
</a>
</g>
</g>
<!-- Node1&#45;&gt;Node28 -->
<g id="edge37" class="edge">
<title>Node1&#45;&gt;Node28</title>
<path fill="none" stroke="midnightblue" d="M1120.19,-364.46C1110.86,-318.03 1084.26,-218.62 1021,-166.5 1016.32,-162.65 1010.98,-159.56 1005.34,-157.08"/>
<polygon fill="midnightblue" stroke="midnightblue" points="1116.76,-365.13 1122.07,-374.29 1123.63,-363.81 1116.76,-365.13"/>
</g>
<!-- Node30 -->
<g id="node30" class="node">
<title>Node30</title>
<g id="a_node30"><a xlink:href="rdcu__cmd_8c_af20be70df2d9618f6c4bd4ca075dc27f.html#af20be70df2d9618f6c4bd4ca075dc27f" target="_top" xlink:title="create a command to write the RDCU model start address register">
<polygon fill="white" stroke="black" points="878,-546.5 878,-576.5 1008,-576.5 1008,-546.5 878,-546.5"/>
<text text-anchor="start" x="886" y="-564.5" font-family="Helvetica,sans-Serif" font-size="10.00">rdcu_write_cmd_model</text>
<text text-anchor="middle" x="943" y="-553.5" font-family="Helvetica,sans-Serif" font-size="10.00">_start_addr</text>
</a>
</g>
</g>
<!-- Node1&#45;&gt;Node30 -->
<g id="edge39" class="edge">
<title>Node1&#45;&gt;Node30</title>
<path fill="none" stroke="midnightblue" d="M1113.74,-413.88C1098.02,-446.72 1065.73,-504.8 1021,-537.5 1016.37,-540.89 1011.24,-543.81 1005.9,-546.32"/>
<polygon fill="midnightblue" stroke="midnightblue" points="1117.03,-415.1 1118.08,-404.56 1110.68,-412.15 1117.03,-415.1"/>
</g>
<!-- Node32 -->
<g id="node32" class="node">
<title>Node32</title>
<g id="a_node32"><a xlink:href="rdcu__cmd_8c_ade3530986dac8e497f5c3dcff2c53e69.html#ade3530986dac8e497f5c3dcff2c53e69" target="_top" xlink:title="create a command to write the RDCU updated/new model start address register">
<polygon fill="white" stroke="black" points="883.5,-595.5 883.5,-625.5 1002.5,-625.5 1002.5,-595.5 883.5,-595.5"/>
<text text-anchor="start" x="891.5" y="-613.5" font-family="Helvetica,sans-Serif" font-size="10.00">rdcu_write_cmd_new</text>
<text text-anchor="middle" x="943" y="-602.5" font-family="Helvetica,sans-Serif" font-size="10.00">_model_start_addr</text>
</a>
</g>
</g>
<!-- Node1&#45;&gt;Node32 -->
<g id="edge42" class="edge">
<title>Node1&#45;&gt;Node32</title>
<path fill="none" stroke="midnightblue" d="M1118.13,-414.5C1106.21,-456.27 1076.57,-540.21 1021,-586.5 1015.62,-590.98 1009.41,-594.63 1002.89,-597.59"/>
<polygon fill="midnightblue" stroke="midnightblue" points="1121.58,-415.18 1120.85,-404.61 1114.83,-413.33 1121.58,-415.18"/>
</g>
<!-- Node34 -->
<g id="node34" class="node">
<title>Node34</title>
<g id="a_node34"><a xlink:href="rdcu__cmd_8c_aa541ffd538036f3c511cb0932d3dd463.html#aa541ffd538036f3c511cb0932d3dd463" target="_top" xlink:title="create a command to write the RDCU number of samples register">
<polygon fill="white" stroke="black" points="882.5,-399.5 882.5,-429.5 1003.5,-429.5 1003.5,-399.5 882.5,-399.5"/>
<text text-anchor="start" x="890.5" y="-417.5" font-family="Helvetica,sans-Serif" font-size="10.00">rdcu_write_cmd_num</text>
<text text-anchor="middle" x="943" y="-406.5" font-family="Helvetica,sans-Serif" font-size="10.00">_samples</text>
</a>
</g>
</g>
<!-- Node1&#45;&gt;Node34 -->
<g id="edge45" class="edge">
<title>Node1&#45;&gt;Node34</title>
<path fill="none" stroke="midnightblue" d="M1046.82,-400.26C1032.31,-402.27 1017.36,-404.34 1003.5,-406.26"/>
<polygon fill="midnightblue" stroke="midnightblue" points="1047.35,-403.72 1056.77,-398.88 1046.39,-396.79 1047.35,-403.72"/>
</g>
<!-- Node36 -->
<g id="node36" class="node">
<title>Node36</title>
<g id="a_node36"><a xlink:href="rdcu__cmd_8c_a912b1c53908f00c48757ab2441f8c65d.html#a912b1c53908f00c48757ab2441f8c65d" target="_top" xlink:title="create a command to write the RDCU reset register">
<polygon fill="white" stroke="black" points="883,-88.5 883,-118.5 1003,-118.5 1003,-88.5 883,-88.5"/>
<text text-anchor="start" x="891" y="-106.5" font-family="Helvetica,sans-Serif" font-size="10.00">rdcu_write_cmd_rdcu</text>
<text text-anchor="middle" x="943" y="-95.5" font-family="Helvetica,sans-Serif" font-size="10.00">_reset</text>
</a>
</g>
</g>
<!-- Node1&#45;&gt;Node36 -->
<g id="edge48" class="edge">
<title>Node1&#45;&gt;Node36</title>
<path fill="none" stroke="midnightblue" d="M1121.65,-364.4C1114.45,-312.77 1090.86,-194.05 1021,-128.5 1015.88,-123.69 1009.82,-119.81 1003.38,-116.67"/>
<polygon fill="midnightblue" stroke="midnightblue" points="1118.18,-364.89 1122.94,-374.35 1125.12,-363.98 1118.18,-364.89"/>
</g>
<!-- Node38 -->
<g id="node38" class="node">
<title>Node38</title>
<g id="a_node38"><a xlink:href="rdcu__cmd_8c_a23abc9bd760c7257017e4baa8fdb8196.html#a23abc9bd760c7257017e4baa8fdb8196" target="_top" xlink:title="generate a write command for an arbitrary register">
<polygon fill="white" stroke="black" points="874.5,-50 874.5,-69 1011.5,-69 1011.5,-50 874.5,-50"/>
<text text-anchor="middle" x="943" y="-57" font-family="Helvetica,sans-Serif" font-size="10.00">rdcu_write_cmd_register</text>
</a>
</g>
</g>
<!-- Node1&#45;&gt;Node38 -->
<g id="edge50" class="edge">
<title>Node1&#45;&gt;Node38</title>
<path fill="none" stroke="midnightblue" d="M1123.79,-363.96C1120.7,-304.81 1104.56,-157.55 1021,-79.5 1016.36,-75.16 1010.9,-71.74 1005.06,-69.04"/>
<polygon fill="midnightblue" stroke="midnightblue" points="1120.3,-364.41 1124.23,-374.25 1127.3,-364.11 1120.3,-364.41"/>
</g>
<!-- Node39 -->
<g id="node39" class="node">
<title>Node39</title>
<g id="a_node39"><a xlink:href="rdcu__cmd_8c_a5638f9a8a446cd2eb6798aa33bfc2716.html#a5638f9a8a446cd2eb6798aa33bfc2716" target="_top" xlink:title="create a command to write the RDCU SPW link control register">
<polygon fill="white" stroke="black" points="883.5,-0.5 883.5,-30.5 1002.5,-30.5 1002.5,-0.5 883.5,-0.5"/>
<text text-anchor="start" x="891.5" y="-18.5" font-family="Helvetica,sans-Serif" font-size="10.00">rdcu_write_cmd_spw</text>
<text text-anchor="middle" x="943" y="-7.5" font-family="Helvetica,sans-Serif" font-size="10.00">_link_ctrl</text>
</a>
</g>
</g>
<!-- Node1&#45;&gt;Node39 -->
<g id="edge51" class="edge">
<title>Node1&#45;&gt;Node39</title>
<path fill="none" stroke="midnightblue" d="M1124.57,-363.8C1123.31,-300.01 1111.09,-132.93 1021,-40.5 1015.8,-35.17 1009.45,-30.97 1002.66,-27.67"/>
<polygon fill="midnightblue" stroke="midnightblue" points="1121.07,-364.18 1124.69,-374.14 1128.07,-364.09 1121.07,-364.18"/>
</g>
<!-- Node41 -->
<g id="node41" class="node">
<title>Node41</title>
<g id="a_node41"><a xlink:href="rdcu__cmd_8c_a465b5aa775d6c3e16ec3fa9622a2fd3e.html#a465b5aa775d6c3e16ec3fa9622a2fd3e" target="_top" xlink:title="create a command to write the SRAM EDAC Control register">
<polygon fill="white" stroke="black" points="881,-252.5 881,-282.5 1005,-282.5 1005,-252.5 881,-252.5"/>
<text text-anchor="start" x="889" y="-270.5" font-family="Helvetica,sans-Serif" font-size="10.00">rdcu_write_cmd_sram</text>
<text text-anchor="middle" x="943" y="-259.5" font-family="Helvetica,sans-Serif" font-size="10.00">_edac_ctrl</text>
</a>
</g>
</g>
<!-- Node1&#45;&gt;Node41 -->
<g id="edge53" class="edge">
<title>Node1&#45;&gt;Node41</title>
<path fill="none" stroke="midnightblue" d="M1105.28,-366.37C1086.01,-344.53 1054.47,-312.27 1021,-292.5 1014.59,-288.71 1007.53,-285.42 1000.37,-282.58"/>
<polygon fill="midnightblue" stroke="midnightblue" points="1102.85,-368.91 1112.04,-374.18 1108.14,-364.33 1102.85,-368.91"/>
</g>
<!-- Node3 -->
<g id="node3" class="node">
<title>Node3</title>
<g id="a_node3"><a xlink:href="rdcu__ctrl_8c_a250b39548d74140e0325d1ab0cb15d06.html#a250b39548d74140e0325d1ab0cb15d06" target="_top" xlink:title="sync the Adaptive Parameter 1 (write only)">
<polygon fill="white" stroke="black" points="504.5,-497.5 504.5,-527.5 617.5,-527.5 617.5,-497.5 504.5,-497.5"/>
<text text-anchor="start" x="512.5" y="-515.5" font-family="Helvetica,sans-Serif" font-size="10.00">rdcu_sync_adaptive</text>
<text text-anchor="middle" x="561" y="-504.5" font-family="Helvetica,sans-Serif" font-size="10.00">_param1</text>
</a>
</g>
</g>
<!-- Node2&#45;&gt;Node3 -->
<g id="edge2" class="edge">
<title>Node2&#45;&gt;Node3</title>
<path fill="none" stroke="midnightblue" d="M861.74,-512.5C788.4,-512.5 681.88,-512.5 617.54,-512.5"/>
<polygon fill="midnightblue" stroke="midnightblue" points="861.86,-516 871.86,-512.5 861.86,-509 861.86,-516"/>
</g>
<!-- Node4 -->
<g id="node4" class="node">
<title>Node4</title>
<g id="a_node4"><a xlink:href="cmp__rdcu_8c_a1b450ab652a1da5f914786ce577458f9.html#a1b450ab652a1da5f914786ce577458f9" target="_top" xlink:title="set up RDCU compression register">
<polygon fill="white" stroke="black" points="320,-541.5 320,-571.5 445,-571.5 445,-541.5 320,-541.5"/>
<text text-anchor="start" x="328" y="-559.5" font-family="Helvetica,sans-Serif" font-size="10.00">rdcu_set_compression</text>
<text text-anchor="middle" x="382.5" y="-548.5" font-family="Helvetica,sans-Serif" font-size="10.00">_register</text>
</a>
</g>
</g>
<!-- Node3&#45;&gt;Node4 -->
<g id="edge3" class="edge">
<title>Node3&#45;&gt;Node4</title>
<path fill="none" stroke="midnightblue" d="M494.07,-528.94C477.61,-533.04 460.05,-537.42 443.87,-541.45"/>
<polygon fill="midnightblue" stroke="midnightblue" points="495.3,-532.24 504.15,-526.42 493.6,-525.44 495.3,-532.24"/>
</g>
<!-- Node5 -->
<g id="node5" class="node">
<title>Node5</title>
<g id="a_node5"><a xlink:href="cmp__rdcu_8h_a85aeb890a333d637dd7ffba03729e93a.html#a85aeb890a333d637dd7ffba03729e93a" target="_top" xlink:title="compressing data with the help of the RDCU hardware compressor">
<polygon fill="white" stroke="black" points="158,-585 158,-604 275,-604 275,-585 158,-585"/>
<text text-anchor="middle" x="216.5" y="-592" font-family="Helvetica,sans-Serif" font-size="10.00">rdcu_compress_data</text>
</a>
</g>
</g>
<!-- Node4&#45;&gt;Node5 -->
<g id="edge4" class="edge">
<title>Node4&#45;&gt;Node5</title>
<path fill="none" stroke="midnightblue" d="M309.82,-573.11C292.43,-577.14 274.42,-581.31 258.96,-584.89"/>
<polygon fill="midnightblue" stroke="midnightblue" points="311.01,-576.42 319.97,-570.76 309.43,-569.61 311.01,-576.42"/>
</g>
<!-- Node6 -->
<g id="node6" class="node">
<title>Node6</title>
<g id="a_node6"><a xlink:href="cmp__rdcu_8c_ab69cf44ac326e0cebdef002e8f2ea2cb.html#ab69cf44ac326e0cebdef002e8f2ea2cb" target="_top" xlink:title="compressing data with the help of the RDCU hardware compressor; read data from the last compression b...">
<polygon fill="white" stroke="black" points="0,-579.5 0,-609.5 117,-609.5 117,-579.5 0,-579.5"/>
<text text-anchor="start" x="8" y="-597.5" font-family="Helvetica,sans-Serif" font-size="10.00">rdcu_compress_data</text>
<text text-anchor="middle" x="58.5" y="-586.5" font-family="Helvetica,sans-Serif" font-size="10.00">_parallel</text>
</a>
</g>
</g>
<!-- Node4&#45;&gt;Node6 -->
<g id="edge6" class="edge">
<title>Node4&#45;&gt;Node6</title>
<path fill="none" stroke="midnightblue" d="M309.71,-560.3C264.57,-563.22 205.21,-568.05 153,-575.5 141.36,-577.16 128.98,-579.36 117.17,-581.68"/>
<polygon fill="midnightblue" stroke="midnightblue" points="309.94,-563.79 319.7,-559.67 309.5,-556.81 309.94,-563.79"/>
</g>
<!-- Node7 -->
<g id="node7" class="node">
<title>Node7</title>
<g id="a_node7"><a xlink:href="cmp__rdcu_8c_af59f75c76a057d49a54b54800dc59556.html#af59f75c76a057d49a54b54800dc59556" target="_top" xlink:title="inject a SRAM edac multi bit error into the RDCU SRAM">
<polygon fill="white" stroke="black" points="153,-506 153,-525 280,-525 280,-506 153,-506"/>
<text text-anchor="middle" x="216.5" y="-513" font-family="Helvetica,sans-Serif" font-size="10.00">rdcu_inject_edac_error</text>
</a>
</g>
</g>
<!-- Node4&#45;&gt;Node7 -->
<g id="edge7" class="edge">
<title>Node4&#45;&gt;Node7</title>
<path fill="none" stroke="midnightblue" d="M311.47,-538.99C292.34,-534.21 272.33,-529.21 255.72,-525.05"/>
<polygon fill="midnightblue" stroke="midnightblue" points="310.81,-542.44 321.36,-541.47 312.51,-535.64 310.81,-542.44"/>
</g>
<!-- Node5&#45;&gt;Node6 -->
<g id="edge5" class="edge">
<title>Node5&#45;&gt;Node6</title>
<path fill="none" stroke="midnightblue" d="M147.76,-594.5C137.57,-594.5 127.13,-594.5 117.17,-594.5"/>
<polygon fill="midnightblue" stroke="midnightblue" points="147.85,-598 157.85,-594.5 147.85,-591 147.85,-598"/>
</g>
<!-- Node9 -->
<g id="node9" class="node">
<title>Node9</title>
<g id="a_node9"><a xlink:href="rdcu__ctrl_8c_aa124665a5ea16eeec312b16523a93b14.html#aa124665a5ea16eeec312b16523a93b14" target="_top" xlink:title="sync the Adaptive Parameter 2 (write only)">
<polygon fill="white" stroke="black" points="504.5,-448.5 504.5,-478.5 617.5,-478.5 617.5,-448.5 504.5,-448.5"/>
<text text-anchor="start" x="512.5" y="-466.5" font-family="Helvetica,sans-Serif" font-size="10.00">rdcu_sync_adaptive</text>
<text text-anchor="middle" x="561" y="-455.5" font-family="Helvetica,sans-Serif" font-size="10.00">_param2</text>
</a>
</g>
</g>
<!-- Node8&#45;&gt;Node9 -->
<g id="edge9" class="edge">
<title>Node8&#45;&gt;Node9</title>
<path fill="none" stroke="midnightblue" d="M861.74,-463.5C788.4,-463.5 681.88,-463.5 617.54,-463.5"/>
<polygon fill="midnightblue" stroke="midnightblue" points="861.86,-467 871.86,-463.5 861.86,-460 861.86,-467"/>
</g>
<!-- Node9&#45;&gt;Node4 -->
<g id="edge10" class="edge">
<title>Node9&#45;&gt;Node4</title>
<path fill="none" stroke="midnightblue" d="M499.33,-482.15C494.41,-484.13 489.58,-486.25 485,-488.5 454.53,-503.44 422.5,-526.27 402.76,-541.29"/>
<polygon fill="midnightblue" stroke="midnightblue" points="500.75,-485.35 508.83,-478.5 498.24,-478.81 500.75,-485.35"/>
</g>
<!-- Node11 -->
<g id="node11" class="node">
<title>Node11</title>
<g id="a_node11"><a xlink:href="rdcu__ctrl_8c_a9d13b49a29f7f873bcdb11f98b977dde.html#a9d13b49a29f7f873bcdb11f98b977dde" target="_top" xlink:title="sync the ADC Control register (write only)">
<polygon fill="white" stroke="black" points="696.5,-214 696.5,-233 805.5,-233 805.5,-214 696.5,-214"/>
<text text-anchor="middle" x="751" y="-221" font-family="Helvetica,sans-Serif" font-size="10.00">rdcu_sync_adc_ctrl</text>
</a>
</g>
</g>
<!-- Node10&#45;&gt;Node11 -->
<g id="edge12" class="edge">
<title>Node10&#45;&gt;Node11</title>
<path fill="none" stroke="midnightblue" d="M864.28,-223.5C844.55,-223.5 823.8,-223.5 805.58,-223.5"/>
<polygon fill="midnightblue" stroke="midnightblue" points="864.48,-227 874.48,-223.5 864.48,-220 864.48,-227"/>
</g>
<!-- Node13 -->
<g id="node13" class="node">
<title>Node13</title>
<g id="a_node13"><a xlink:href="rdcu__ctrl_8c_a40aa43367024873e61200a4e3e28cd9a.html#a40aa43367024873e61200a4e3e28cd9a" target="_top" xlink:title="sync the Compressor Control register (write only)">
<polygon fill="white" stroke="black" points="690,-743 690,-762 812,-762 812,-743 690,-743"/>
<text text-anchor="middle" x="751" y="-750" font-family="Helvetica,sans-Serif" font-size="10.00">rdcu_sync_compr_ctrl</text>
</a>
</g>
</g>
<!-- Node12&#45;&gt;Node13 -->
<g id="edge14" class="edge">
<title>Node12&#45;&gt;Node13</title>
<path fill="none" stroke="midnightblue" d="M857.07,-752.5C841.96,-752.5 826.51,-752.5 812.26,-752.5"/>
<polygon fill="midnightblue" stroke="midnightblue" points="857.45,-756 867.45,-752.5 857.45,-749 857.45,-756"/>
</g>
<!-- Node14 -->
<g id="node14" class="node">
<title>Node14</title>
<g id="a_node14"><a xlink:href="cmp__rdcu_8h_a0ef52214c3b0da6e9fbc56d7fa05c971.html#a0ef52214c3b0da6e9fbc56d7fa05c971" target="_top" xlink:title="interrupt a data compression">
<polygon fill="white" stroke="black" points="485,-711 485,-730 637,-730 637,-711 485,-711"/>
<text text-anchor="middle" x="561" y="-718" font-family="Helvetica,sans-Serif" font-size="10.00">rdcu_interrupt_compression</text>
</a>
</g>
</g>
<!-- Node13&#45;&gt;Node14 -->
<g id="edge15" class="edge">
<title>Node13&#45;&gt;Node14</title>
<path fill="none" stroke="midnightblue" d="M684.04,-741.27C662.49,-737.6 638.76,-733.57 618.01,-730.03"/>
<polygon fill="midnightblue" stroke="midnightblue" points="683.66,-744.76 694.1,-742.99 684.83,-737.86 683.66,-744.76"/>
</g>
<!-- Node15 -->
<g id="node15" class="node">
<title>Node15</title>
<g id="a_node15"><a xlink:href="cmp__rdcu_8c_a2816c91a0cc8b4c6c06d9f3531840f28.html#a2816c91a0cc8b4c6c06d9f3531840f28" target="_top" xlink:title="start the RDCU data compressor">
<polygon fill="white" stroke="black" points="316,-623 316,-642 449,-642 449,-623 316,-623"/>
<text text-anchor="middle" x="382.5" y="-630" font-family="Helvetica,sans-Serif" font-size="10.00">rdcu_start_compression</text>
</a>
</g>
</g>
<!-- Node13&#45;&gt;Node15 -->
<g id="edge17" class="edge">
<title>Node13&#45;&gt;Node15</title>
<path fill="none" stroke="midnightblue" d="M722.69,-766.55C672.37,-790.33 563.03,-831.97 485,-789.5 424.85,-756.76 394.9,-671.33 386.23,-642.31"/>
<polygon fill="midnightblue" stroke="midnightblue" points="724.47,-769.58 731.94,-762.07 721.42,-763.28 724.47,-769.58"/>
</g>
<!-- Node14&#45;&gt;Node4 -->
<g id="edge16" class="edge">
<title>Node14&#45;&gt;Node4</title>
<path fill="none" stroke="midnightblue" d="M491.22,-706.16C489.03,-704.74 486.95,-703.2 485,-701.5 453.1,-673.79 473.6,-647.86 449,-613.5 437.15,-596.95 419.58,-582.01 405.62,-571.58"/>
<polygon fill="midnightblue" stroke="midnightblue" points="489.61,-709.27 500.06,-710.97 492.95,-703.12 489.61,-709.27"/>
</g>
<!-- Node15&#45;&gt;Node5 -->
<g id="edge18" class="edge">
<title>Node15&#45;&gt;Node5</title>
<path fill="none" stroke="midnightblue" d="M330.16,-620.6C307.11,-615.26 280.28,-609.05 258.59,-604.02"/>
<polygon fill="midnightblue" stroke="midnightblue" points="329.58,-624.06 340.12,-622.91 331.16,-617.24 329.58,-624.06"/>
</g>
<!-- Node15&#45;&gt;Node6 -->
<g id="edge19" class="edge">
<title>Node15&#45;&gt;Node6</title>
<path fill="none" stroke="midnightblue" d="M305.59,-628.43C261.01,-625.48 203.64,-620.72 153,-613.5 141.36,-611.84 128.98,-609.64 117.17,-607.32"/>
<polygon fill="midnightblue" stroke="midnightblue" points="305.57,-631.94 315.77,-629.09 306.02,-624.95 305.57,-631.94"/>
</g>
<!-- Node17 -->
<g id="node17" class="node">
<title>Node17</title>
<g id="a_node17"><a xlink:href="rdcu__ctrl_8c_a0dbd3a93474cc6ddad6fa719b67a3e30.html#a0dbd3a93474cc6ddad6fa719b67a3e30" target="_top" xlink:title="sync the Compressed Data Buffer Length (write only)">
<polygon fill="white" stroke="black" points="497,-356.5 497,-386.5 625,-386.5 625,-356.5 497,-356.5"/>
<text text-anchor="start" x="505" y="-374.5" font-family="Helvetica,sans-Serif" font-size="10.00">rdcu_sync_compr_data</text>
<text text-anchor="middle" x="561" y="-363.5" font-family="Helvetica,sans-Serif" font-size="10.00">_buf_len</text>
</a>
</g>
</g>
<!-- Node16&#45;&gt;Node17 -->
<g id="edge21" class="edge">
<title>Node16&#45;&gt;Node17</title>
<path fill="none" stroke="midnightblue" d="M867.79,-366.67C797.08,-367.79 691.78,-369.45 625.03,-370.5"/>
<polygon fill="midnightblue" stroke="midnightblue" points="868.02,-370.17 877.97,-366.51 867.91,-363.17 868.02,-370.17"/>
</g>
<!-- Node17&#45;&gt;Node4 -->
<g id="edge22" class="edge">
<title>Node17&#45;&gt;Node4</title>
<path fill="none" stroke="midnightblue" d="M503.9,-391.05C497.17,-394.63 490.69,-398.77 485,-403.5 437.23,-443.27 403.34,-511.22 389.9,-541.35"/>
<polygon fill="midnightblue" stroke="midnightblue" points="505.73,-394.05 513.17,-386.51 502.65,-387.77 505.73,-394.05"/>
</g>
<!-- Node19 -->
<g id="node19" class="node">
<title>Node19</title>
<g id="a_node19"><a xlink:href="rdcu__ctrl_8c_a5517cb396e46a4ec9d8e332da99b1b71.html#a5517cb396e46a4ec9d8e332da99b1b71" target="_top" xlink:title="sync the Compressed Data Buffer Start Address (write only)">
<polygon fill="white" stroke="black" points="497,-303.5 497,-333.5 625,-333.5 625,-303.5 497,-303.5"/>
<text text-anchor="start" x="505" y="-321.5" font-family="Helvetica,sans-Serif" font-size="10.00">rdcu_sync_compr_data</text>
<text text-anchor="middle" x="561" y="-310.5" font-family="Helvetica,sans-Serif" font-size="10.00">_buf_start_addr</text>
</a>
</g>
</g>
<!-- Node18&#45;&gt;Node19 -->
<g id="edge24" class="edge">
<title>Node18&#45;&gt;Node19</title>
<path fill="none" stroke="midnightblue" d="M867.79,-316.89C797.08,-317.26 691.78,-317.82 625.03,-318.17"/>
<polygon fill="midnightblue" stroke="midnightblue" points="867.99,-320.39 877.97,-316.84 867.95,-313.39 867.99,-320.39"/>
</g>
<!-- Node19&#45;&gt;Node4 -->
<g id="edge25" class="edge">
<title>Node19&#45;&gt;Node4</title>
<path fill="none" stroke="midnightblue" d="M496.87,-338.62C492.62,-341.24 488.6,-344.19 485,-347.5 469.27,-361.98 409.98,-495.81 390.07,-541.38"/>
<polygon fill="midnightblue" stroke="midnightblue" points="498.79,-341.56 505.88,-333.68 495.43,-335.42 498.79,-341.56"/>
</g>
<!-- Node21 -->
<g id="node21" class="node">
<title>Node21</title>
<g id="a_node21"><a xlink:href="rdcu__ctrl_8c_a71b592cc7e7ba04229e0dec75aa5f45d.html#a71b592cc7e7ba04229e0dec75aa5f45d" target="_top" xlink:title="sync the Compressor Parameter 1 (write only)">
<polygon fill="white" stroke="black" points="497,-749.5 497,-779.5 625,-779.5 625,-749.5 497,-749.5"/>
<text text-anchor="start" x="505" y="-767.5" font-family="Helvetica,sans-Serif" font-size="10.00">rdcu_sync_compressor</text>
<text text-anchor="middle" x="561" y="-756.5" font-family="Helvetica,sans-Serif" font-size="10.00">_param1</text>
</a>
</g>
</g>
<!-- Node20&#45;&gt;Node21 -->
<g id="edge27" class="edge">
<title>Node20&#45;&gt;Node21</title>
<path fill="none" stroke="midnightblue" d="M854.5,-789.13C784.42,-783.23 687.78,-775.09 625.1,-769.81"/>
<polygon fill="midnightblue" stroke="midnightblue" points="854.38,-792.63 864.64,-789.99 854.97,-785.66 854.38,-792.63"/>
</g>
<!-- Node21&#45;&gt;Node4 -->
<g id="edge28" class="edge">
<title>Node21&#45;&gt;Node4</title>
<path fill="none" stroke="midnightblue" d="M489.41,-743.6C487.86,-742.32 486.39,-740.95 485,-739.5 444.72,-697.43 480.26,-662.64 449,-613.5 438.24,-596.58 420.98,-581.86 406.88,-571.61"/>
<polygon fill="midnightblue" stroke="midnightblue" points="487.47,-746.52 497.67,-749.4 491.49,-740.79 487.47,-746.52"/>
</g>
<!-- Node23 -->
<g id="node23" class="node">
<title>Node23</title>
<g id="a_node23"><a xlink:href="rdcu__ctrl_8c_a237df8586f8676fab353691c40239afa.html#a237df8586f8676fab353691c40239afa" target="_top" xlink:title="sync the Compressor Parameter 2 (write only)">
<polygon fill="white" stroke="black" points="497,-623.5 497,-653.5 625,-653.5 625,-623.5 497,-623.5"/>
<text text-anchor="start" x="505" y="-641.5" font-family="Helvetica,sans-Serif" font-size="10.00">rdcu_sync_compressor</text>
<text text-anchor="middle" x="561" y="-630.5" font-family="Helvetica,sans-Serif" font-size="10.00">_param2</text>
</a>
</g>
</g>
<!-- Node22&#45;&gt;Node23 -->
<g id="edge30" class="edge">
<title>Node22&#45;&gt;Node23</title>
<path fill="none" stroke="midnightblue" d="M854.5,-654.66C784.42,-650.79 687.78,-645.45 625.1,-641.99"/>
<polygon fill="midnightblue" stroke="midnightblue" points="854.47,-658.17 864.64,-655.23 854.85,-651.18 854.47,-658.17"/>
</g>
<!-- Node23&#45;&gt;Node4 -->
<g id="edge31" class="edge">
<title>Node23&#45;&gt;Node4</title>
<path fill="none" stroke="midnightblue" d="M511.05,-619.68C502.31,-616.11 493.34,-612.3 485,-608.5 459.59,-596.94 431.38,-582.34 411.16,-571.55"/>
<polygon fill="midnightblue" stroke="midnightblue" points="509.81,-622.96 520.4,-623.46 512.43,-616.47 509.81,-622.96"/>
</g>
<!-- Node25 -->
<g id="node25" class="node">
<title>Node25</title>
<g id="a_node25"><a xlink:href="rdcu__ctrl_8c_a8ffa1634e968164187ef7d7d00008d22.html#a8ffa1634e968164187ef7d7d00008d22" target="_top" xlink:title="sync the Core Control register (write only)">
<polygon fill="white" stroke="black" points="694.5,-176 694.5,-195 807.5,-195 807.5,-176 694.5,-176"/>
<text text-anchor="middle" x="751" y="-183" font-family="Helvetica,sans-Serif" font-size="10.00">rdcu_sync_core_ctrl</text>
</a>
</g>
</g>
<!-- Node24&#45;&gt;Node25 -->
<g id="edge33" class="edge">
<title>Node24&#45;&gt;Node25</title>
<path fill="none" stroke="midnightblue" d="M862.24,-185.5C843.89,-185.5 824.76,-185.5 807.69,-185.5"/>
<polygon fill="midnightblue" stroke="midnightblue" points="862.33,-189 872.33,-185.5 862.33,-182 862.33,-189"/>
</g>
<!-- Node27 -->
<g id="node27" class="node">
<title>Node27</title>
<g id="a_node27"><a xlink:href="rdcu__ctrl_8c_a5fd392b4615444bb91b69f0612de8e86.html#a5fd392b4615444bb91b69f0612de8e86" target="_top" xlink:title="sync the Data Start Address (write only)">
<polygon fill="white" stroke="black" points="487.5,-673 487.5,-692 634.5,-692 634.5,-673 487.5,-673"/>
<text text-anchor="middle" x="561" y="-680" font-family="Helvetica,sans-Serif" font-size="10.00">rdcu_sync_data_start_addr</text>
</a>
</g>
</g>
<!-- Node26&#45;&gt;Node27 -->
<g id="edge35" class="edge">
<title>Node26&#45;&gt;Node27</title>
<path fill="none" stroke="midnightblue" d="M872.11,-703.72C804.7,-699.11 703.12,-692.16 634.76,-687.48"/>
<polygon fill="midnightblue" stroke="midnightblue" points="871.99,-707.22 882.21,-704.41 872.47,-700.23 871.99,-707.22"/>
</g>
<!-- Node27&#45;&gt;Node4 -->
<g id="edge36" class="edge">
<title>Node27&#45;&gt;Node4</title>
<path fill="none" stroke="midnightblue" d="M494.27,-668.86C491.03,-667.27 487.92,-665.49 485,-663.5 462.36,-648.1 467.45,-633.73 449,-613.5 434.88,-598.02 416.78,-582.54 403.19,-571.63"/>
<polygon fill="midnightblue" stroke="midnightblue" points="493.07,-672.15 503.64,-672.88 495.83,-665.72 493.07,-672.15"/>
</g>
<!-- Node29 -->
<g id="node29" class="node">
<title>Node29</title>
<g id="a_node29"><a xlink:href="rdcu__ctrl_8c_a658d8fbbc8a3803c821536b142ee1e95.html#a658d8fbbc8a3803c821536b142ee1e95" target="_top" xlink:title="sync the LVDS Control register (write only)">
<polygon fill="white" stroke="black" points="695,-138 695,-157 807,-157 807,-138 695,-138"/>
<text text-anchor="middle" x="751" y="-145" font-family="Helvetica,sans-Serif" font-size="10.00">rdcu_sync_lvds_ctrl</text>
</a>
</g>
</g>
<!-- Node28&#45;&gt;Node29 -->
<g id="edge38" class="edge">
<title>Node28&#45;&gt;Node29</title>
<path fill="none" stroke="midnightblue" d="M862.86,-147.5C844.11,-147.5 824.51,-147.5 807.1,-147.5"/>
<polygon fill="midnightblue" stroke="midnightblue" points="862.87,-151 872.87,-147.5 862.87,-144 862.87,-151"/>
</g>
<!-- Node31 -->
<g id="node31" class="node">
<title>Node31</title>
<g id="a_node31"><a xlink:href="rdcu__ctrl_8c_abf96f120b7bcaf13973cd8d2b815df18.html#abf96f120b7bcaf13973cd8d2b815df18" target="_top" xlink:title="sync the Model Start Address (write only)">
<polygon fill="white" stroke="black" points="673,-550 673,-569 829,-569 829,-550 673,-550"/>
<text text-anchor="middle" x="751" y="-557" font-family="Helvetica,sans-Serif" font-size="10.00">rdcu_sync_model_start_addr</text>
</a>
</g>
</g>
<!-- Node30&#45;&gt;Node31 -->
<g id="edge40" class="edge">
<title>Node30&#45;&gt;Node31</title>
<path fill="none" stroke="midnightblue" d="M867.91,-560.72C855.23,-560.59 842.03,-560.45 829.28,-560.31"/>
<polygon fill="midnightblue" stroke="midnightblue" points="867.9,-564.22 877.94,-560.83 867.98,-557.22 867.9,-564.22"/>
</g>
<!-- Node31&#45;&gt;Node4 -->
<g id="edge41" class="edge">
<title>Node31&#45;&gt;Node4</title>
<path fill="none" stroke="midnightblue" d="M662.6,-558.78C595.59,-558.24 504.78,-557.49 445.2,-557.01"/>
<polygon fill="midnightblue" stroke="midnightblue" points="662.69,-562.29 672.72,-558.87 662.75,-555.29 662.69,-562.29"/>
</g>
<!-- Node33 -->
<g id="node33" class="node">
<title>Node33</title>
<g id="a_node33"><a xlink:href="rdcu__ctrl_8c_a82510093df50ef3956f8f38eb73adc69.html#a82510093df50ef3956f8f38eb73adc69" target="_top" xlink:title="sync the Model Start Address (write only)">
<polygon fill="white" stroke="black" points="687.5,-592.5 687.5,-622.5 814.5,-622.5 814.5,-592.5 687.5,-592.5"/>
<text text-anchor="start" x="695.5" y="-610.5" font-family="Helvetica,sans-Serif" font-size="10.00">rdcu_sync_new_model</text>
<text text-anchor="middle" x="751" y="-599.5" font-family="Helvetica,sans-Serif" font-size="10.00">_start_addr</text>
</a>
</g>
</g>
<!-- Node32&#45;&gt;Node33 -->
<g id="edge43" class="edge">
<title>Node32&#45;&gt;Node33</title>
<path fill="none" stroke="midnightblue" d="M873.29,-609.42C854.13,-609.11 833.43,-608.79 814.65,-608.49"/>
<polygon fill="midnightblue" stroke="midnightblue" points="873.39,-612.92 883.44,-609.58 873.5,-605.92 873.39,-612.92"/>
</g>
<!-- Node33&#45;&gt;Node4 -->
<g id="edge44" class="edge">
<title>Node33&#45;&gt;Node4</title>
<path fill="none" stroke="midnightblue" d="M677.29,-597.86C624.03,-590.73 550,-580.72 485,-571.5 472.13,-569.67 458.34,-567.67 445.21,-565.74"/>
<polygon fill="midnightblue" stroke="midnightblue" points="676.95,-601.34 687.33,-599.2 677.88,-594.4 676.95,-601.34"/>
</g>
<!-- Node35 -->
<g id="node35" class="node">
<title>Node35</title>
<g id="a_node35"><a xlink:href="rdcu__ctrl_8c_af33a7536cb3bf1159d2776624422fba2.html#af33a7536cb3bf1159d2776624422fba2" target="_top" xlink:title="sync the Number of Samples (write only)">
<polygon fill="white" stroke="black" points="681.5,-406 681.5,-425 820.5,-425 820.5,-406 681.5,-406"/>
<text text-anchor="middle" x="751" y="-413" font-family="Helvetica,sans-Serif" font-size="10.00">rdcu_sync_num_samples</text>
</a>
</g>
</g>
<!-- Node34&#45;&gt;Node35 -->
<g id="edge46" class="edge">
<title>Node34&#45;&gt;Node35</title>
<path fill="none" stroke="midnightblue" d="M872.12,-414.87C855.33,-414.96 837.41,-415.05 820.67,-415.14"/>
<polygon fill="midnightblue" stroke="midnightblue" points="872.42,-418.37 882.4,-414.81 872.39,-411.37 872.42,-418.37"/>
</g>
<!-- Node35&#45;&gt;Node4 -->
<g id="edge47" class="edge">
<title>Node35&#45;&gt;Node4</title>
<path fill="none" stroke="midnightblue" d="M671.3,-407.65C616.21,-405.62 542.48,-410.06 485,-439.5 439.76,-462.67 406,-515.4 391.42,-541.41"/>
<polygon fill="midnightblue" stroke="midnightblue" points="671.21,-411.15 681.36,-408.1 671.53,-404.16 671.21,-411.15"/>
</g>
<!-- Node37 -->
<g id="node37" class="node">
<title>Node37</title>
<g id="a_node37"><a xlink:href="rdcu__ctrl_8c_a9660d6f7e4887405295af590f0dca6ac.html#a9660d6f7e4887405295af590f0dca6ac" target="_top" xlink:title="sync the RDCU Reset register (write only)">
<polygon fill="white" stroke="black" points="690,-94 690,-113 812,-113 812,-94 690,-94"/>
<text text-anchor="middle" x="751" y="-101" font-family="Helvetica,sans-Serif" font-size="10.00">rdcu_sync_rdcu_reset</text>
</a>
</g>
</g>
<!-- Node36&#45;&gt;Node37 -->
<g id="edge49" class="edge">
<title>Node36&#45;&gt;Node37</title>
<path fill="none" stroke="midnightblue" d="M872.69,-103.5C852.81,-103.5 831.3,-103.5 812.02,-103.5"/>
<polygon fill="midnightblue" stroke="midnightblue" points="872.92,-107 882.92,-103.5 872.92,-100 872.92,-107"/>
</g>
<!-- Node40 -->
<g id="node40" class="node">
<title>Node40</title>
<g id="a_node40"><a xlink:href="rdcu__ctrl_8c_af0f73c8eecde2434d94457fe2ae79d76.html#af0f73c8eecde2434d94457fe2ae79d76" target="_top" xlink:title="sync the SpW Link Control register (write only)">
<polygon fill="white" stroke="black" points="684,-6 684,-25 818,-25 818,-6 684,-6"/>
<text text-anchor="middle" x="751" y="-13" font-family="Helvetica,sans-Serif" font-size="10.00">rdcu_sync_spw_link_ctrl</text>
</a>
</g>
</g>
<!-- Node39&#45;&gt;Node40 -->
<g id="edge52" class="edge">
<title>Node39&#45;&gt;Node40</title>
<path fill="none" stroke="midnightblue" d="M873.35,-15.5C855.42,-15.5 836.14,-15.5 818.33,-15.5"/>
<polygon fill="midnightblue" stroke="midnightblue" points="873.44,-19 883.44,-15.5 873.44,-12 873.44,-19"/>
</g>
<!-- Node42 -->
<g id="node42" class="node">
<title>Node42</title>
<g id="a_node42"><a xlink:href="rdcu__ctrl_8c_af5a6e9a83c561870e1c437c36c2bf9af.html#af5a6e9a83c561870e1c437c36c2bf9af" target="_top" xlink:title="sync the SRAM EDAC Control (write only)">
<polygon fill="white" stroke="black" points="488.5,-263 488.5,-282 633.5,-282 633.5,-263 488.5,-263"/>
<text text-anchor="middle" x="561" y="-270" font-family="Helvetica,sans-Serif" font-size="10.00">rdcu_sync_sram_edac_ctrl</text>
</a>
</g>
</g>
<!-- Node41&#45;&gt;Node42 -->
<g id="edge54" class="edge">
<title>Node41&#45;&gt;Node42</title>
<path fill="none" stroke="midnightblue" d="M870.78,-268.44C802.99,-269.33 701.51,-270.66 633.59,-271.56"/>
<polygon fill="midnightblue" stroke="midnightblue" points="870.99,-271.93 880.95,-268.3 870.9,-264.94 870.99,-271.93"/>
</g>
<!-- Node42&#45;&gt;Node7 -->
<g id="edge55" class="edge">
<title>Node42&#45;&gt;Node7</title>
<path fill="none" stroke="midnightblue" d="M506.87,-285.15C499.33,-287.78 491.83,-290.88 485,-294.5 369.53,-355.78 257.61,-471.96 226.19,-505.94"/>
<polygon fill="midnightblue" stroke="midnightblue" points="507.95,-288.47 516.38,-282.06 505.79,-281.82 507.95,-288.47"/>
</g>
</g>
</svg>
