<?xml version="1.0" encoding="UTF-8" standalone="no"?>
<!DOCTYPE svg PUBLIC "-//W3C//DTD SVG 1.1//EN"
 "http://www.w3.org/Graphics/SVG/1.1/DTD/svg11.dtd">
<!-- Generated by graphviz version 2.43.0 (0)
 -->
<!-- Title: rdcu_sync_compr_error Pages: 1 -->
<svg width="1120pt" height="750pt"
 viewBox="0.00 0.00 1120.00 750.00" xmlns="http://www.w3.org/2000/svg" xmlns:xlink="http://www.w3.org/1999/xlink">
<g id="graph0" class="graph" transform="scale(1 1) rotate(0) translate(4 746)">
<title>rdcu_sync_compr_error</title>
<polygon fill="white" stroke="transparent" points="-4,4 -4,-746 1116,-746 1116,4 -4,4"/>
<!-- Node1 -->
<g id="node1" class="node">
<title>Node1</title>
<g id="a_node1"><a xlink:title="sync the Compression Error (read only)">
<polygon fill="#bfbfbf" stroke="black" points="0,-269.5 0,-288.5 130,-288.5 130,-269.5 0,-269.5"/>
<text text-anchor="middle" x="65" y="-276.5" font-family="Helvetica,sans-Serif" font-size="10.00">rdcu_sync_compr_error</text>
</a>
</g>
</g>
<!-- Node2 -->
<g id="node2" class="node">
<title>Node2</title>
<g id="a_node2"><a xlink:href="rdcu__cmd_8c_aec4806ecfa8d82569778cdc30d8854eb.html#aec4806ecfa8d82569778cdc30d8854eb" target="_top" xlink:title="create a command to read the RDCU compression error register">
<polygon fill="white" stroke="black" points="166,-387 166,-417 293,-417 293,-387 166,-387"/>
<text text-anchor="start" x="174" y="-405" font-family="Helvetica,sans-Serif" font-size="10.00">rdcu_read_cmd_compr</text>
<text text-anchor="middle" x="229.5" y="-394" font-family="Helvetica,sans-Serif" font-size="10.00">_error</text>
</a>
</g>
</g>
<!-- Node1&#45;&gt;Node2 -->
<g id="edge1" class="edge">
<title>Node1&#45;&gt;Node2</title>
<path fill="none" stroke="midnightblue" d="M78.75,-288.65C104.86,-308.42 164.96,-353.91 200.58,-380.86"/>
<polygon fill="midnightblue" stroke="midnightblue" points="198.55,-383.72 208.64,-386.97 202.78,-378.14 198.55,-383.72"/>
</g>
<!-- Node20 -->
<g id="node20" class="node">
<title>Node20</title>
<g id="a_node20"><a xlink:href="rdcu__rmap_8c_a533d1eb248d83ba3d406cefe7f3c9eb9.html#a533d1eb248d83ba3d406cefe7f3c9eb9" target="_top" xlink:title="submit a sync command">
<polygon fill="white" stroke="black" points="197,-247.5 197,-266.5 262,-266.5 262,-247.5 197,-247.5"/>
<text text-anchor="middle" x="229.5" y="-254.5" font-family="Helvetica,sans-Serif" font-size="10.00">rdcu_sync</text>
</a>
</g>
</g>
<!-- Node1&#45;&gt;Node20 -->
<g id="edge20" class="edge">
<title>Node1&#45;&gt;Node20</title>
<path fill="none" stroke="midnightblue" d="M130.22,-270.31C149.18,-267.74 169.43,-265 186.59,-262.67"/>
<polygon fill="midnightblue" stroke="midnightblue" points="187.4,-266.1 196.84,-261.29 186.46,-259.16 187.4,-266.1"/>
</g>
<!-- Node3 -->
<g id="node3" class="node">
<title>Node3</title>
<g id="a_node3"><a xlink:href="rdcu__cmd_8c_a3274188041d4484130e893afc5f1630f.html#a3274188041d4484130e893afc5f1630f" target="_top" xlink:title="generate a read command for an arbitrary register (internal)">
<polygon fill="white" stroke="black" points="329,-438 329,-468 463,-468 463,-438 329,-438"/>
<text text-anchor="start" x="337" y="-456" font-family="Helvetica,sans-Serif" font-size="10.00">rdcu_read_cmd_register</text>
<text text-anchor="middle" x="396" y="-445" font-family="Helvetica,sans-Serif" font-size="10.00">_internal</text>
</a>
</g>
</g>
<!-- Node2&#45;&gt;Node3 -->
<g id="edge2" class="edge">
<title>Node2&#45;&gt;Node3</title>
<path fill="none" stroke="midnightblue" d="M278.97,-417.03C297.12,-422.66 317.94,-429.11 336.89,-434.98"/>
<polygon fill="midnightblue" stroke="midnightblue" points="336.01,-438.38 346.6,-437.99 338.08,-431.69 336.01,-438.38"/>
</g>
<!-- Node4 -->
<g id="node4" class="node">
<title>Node4</title>
<g id="a_node4"><a xlink:href="rdcu__rmap_8c_ab224927e85a7cec5b6f90292c7de36c4.html#ab224927e85a7cec5b6f90292c7de36c4" target="_top" xlink:title="generate an rmap command packet">
<polygon fill="white" stroke="black" points="503,-494.5 503,-513.5 590,-513.5 590,-494.5 503,-494.5"/>
<text text-anchor="middle" x="546.5" y="-501.5" font-family="Helvetica,sans-Serif" font-size="10.00">rdcu_gen_cmd</text>
</a>
</g>
</g>
<!-- Node3&#45;&gt;Node4 -->
<g id="edge3" class="edge">
<title>Node3&#45;&gt;Node4</title>
<path fill="none" stroke="midnightblue" d="M440.75,-468.03C462.07,-475.35 487.46,-484.07 507.9,-491.09"/>
<polygon fill="midnightblue" stroke="midnightblue" points="506.9,-494.44 517.49,-494.38 509.17,-487.82 506.9,-494.44"/>
</g>
<!-- Node5 -->
<g id="node5" class="node">
<title>Node5</title>
<g id="a_node5"><a xlink:href="rmap_8c_aa17375d153cc3473cbbe4dfe1056c527.html#aa17375d153cc3473cbbe4dfe1056c527" target="_top" xlink:title="build an rmap header">
<polygon fill="white" stroke="black" points="647,-646.5 647,-665.5 739,-665.5 739,-646.5 647,-646.5"/>
<text text-anchor="middle" x="693" y="-653.5" font-family="Helvetica,sans-Serif" font-size="10.00">rmap_build_hdr</text>
</a>
</g>
</g>
<!-- Node4&#45;&gt;Node5 -->
<g id="edge4" class="edge">
<title>Node4&#45;&gt;Node5</title>
<path fill="none" stroke="midnightblue" d="M550.76,-513.68C559.52,-538.17 585.88,-603 630,-637 632.34,-638.8 634.85,-640.44 637.48,-641.92"/>
<polygon fill="midnightblue" stroke="midnightblue" points="636.22,-645.19 646.75,-646.38 639.25,-638.89 636.22,-645.19"/>
</g>
<!-- Node7 -->
<g id="node7" class="node">
<title>Node7</title>
<g id="a_node7"><a xlink:href="rmap_8c_aba944cf978de0b264ea5bb3a784bce0f.html#aba944cf978de0b264ea5bb3a784bce0f" target="_top" xlink:title="create an RMAP packet and set defaults">
<polygon fill="white" stroke="black" points="805,-437.5 805,-456.5 921,-456.5 921,-437.5 805,-437.5"/>
<text text-anchor="middle" x="863" y="-444.5" font-family="Helvetica,sans-Serif" font-size="10.00">rmap_create_packet</text>
</a>
</g>
</g>
<!-- Node4&#45;&gt;Node7 -->
<g id="edge6" class="edge">
<title>Node4&#45;&gt;Node7</title>
<path fill="none" stroke="midnightblue" d="M575.93,-513.53C616.8,-525.69 694.06,-542.91 756,-523 792.03,-511.42 826.19,-482.57 845.57,-463.93"/>
<polygon fill="midnightblue" stroke="midnightblue" points="848.28,-466.17 852.93,-456.65 843.36,-461.19 848.28,-466.17"/>
</g>
<!-- Node8 -->
<g id="node8" class="node">
<title>Node8</title>
<g id="a_node8"><a xlink:href="rmap_8c_a1def9af549819e7fdbda12af8bdc9c0e.html#a1def9af549819e7fdbda12af8bdc9c0e" target="_top" xlink:title="completely destroys an RMAP packet">
<polygon fill="white" stroke="black" points="637,-228.5 637,-247.5 749,-247.5 749,-228.5 637,-228.5"/>
<text text-anchor="middle" x="693" y="-235.5" font-family="Helvetica,sans-Serif" font-size="10.00">rmap_erase_packet</text>
</a>
</g>
</g>
<!-- Node4&#45;&gt;Node8 -->
<g id="edge7" class="edge">
<title>Node4&#45;&gt;Node8</title>
<path fill="none" stroke="midnightblue" d="M549.72,-494.09C557.09,-462.7 582.97,-363.5 630,-295 641,-278.98 657.29,-264.23 670.41,-253.75"/>
<polygon fill="midnightblue" stroke="midnightblue" points="672.71,-256.4 678.48,-247.51 668.43,-250.86 672.71,-256.4"/>
</g>
<!-- Node9 -->
<g id="node9" class="node">
<title>Node9</title>
<g id="a_node9"><a xlink:href="rmap_8c_aab7e23f061291d39568ad2df700bc777.html#aab7e23f061291d39568ad2df700bc777" target="_top" xlink:title="set an RMAP command">
<polygon fill="white" stroke="black" points="648.5,-684.5 648.5,-703.5 737.5,-703.5 737.5,-684.5 648.5,-684.5"/>
<text text-anchor="middle" x="693" y="-691.5" font-family="Helvetica,sans-Serif" font-size="10.00">rmap_set_cmd</text>
</a>
</g>
</g>
<!-- Node4&#45;&gt;Node9 -->
<g id="edge8" class="edge">
<title>Node4&#45;&gt;Node9</title>
<path fill="none" stroke="midnightblue" d="M549.36,-513.79C555.4,-542.91 577.23,-629.7 630,-675 632.81,-677.42 635.93,-679.52 639.22,-681.36"/>
<polygon fill="midnightblue" stroke="midnightblue" points="637.74,-684.53 648.27,-685.64 640.72,-678.2 637.74,-684.53"/>
</g>
<!-- Node11 -->
<g id="node11" class="node">
<title>Node11</title>
<g id="a_node11"><a xlink:href="rmap_8c_acf641aae92829ae864b6c3d8f94d86e2.html#acf641aae92829ae864b6c3d8f94d86e2" target="_top" xlink:title="set a data address">
<polygon fill="white" stroke="black" points="635,-608.5 635,-627.5 751,-627.5 751,-608.5 635,-608.5"/>
<text text-anchor="middle" x="693" y="-615.5" font-family="Helvetica,sans-Serif" font-size="10.00">rmap_set_data_addr</text>
</a>
</g>
</g>
<!-- Node4&#45;&gt;Node11 -->
<g id="edge10" class="edge">
<title>Node4&#45;&gt;Node11</title>
<path fill="none" stroke="midnightblue" d="M553.24,-513.66C565.11,-532.81 594.29,-575.78 630,-599 633.16,-601.05 636.55,-602.9 640.06,-604.55"/>
<polygon fill="midnightblue" stroke="midnightblue" points="638.98,-607.88 649.56,-608.48 641.66,-601.42 638.98,-607.88"/>
</g>
<!-- Node12 -->
<g id="node12" class="node">
<title>Node12</title>
<g id="a_node12"><a xlink:href="rmap_8c_a6833f065640f652aa1a929309e592f7a.html#a6833f065640f652aa1a929309e592f7a" target="_top" xlink:title="set an RMAP command">
<polygon fill="white" stroke="black" points="638,-570.5 638,-589.5 748,-589.5 748,-570.5 638,-570.5"/>
<text text-anchor="middle" x="693" y="-577.5" font-family="Helvetica,sans-Serif" font-size="10.00">rmap_set_data_len</text>
</a>
</g>
</g>
<!-- Node4&#45;&gt;Node12 -->
<g id="edge11" class="edge">
<title>Node4&#45;&gt;Node12</title>
<path fill="none" stroke="midnightblue" d="M561.04,-513.68C577,-524.82 604.59,-543.22 630,-556 637.78,-559.91 646.36,-563.6 654.6,-566.87"/>
<polygon fill="midnightblue" stroke="midnightblue" points="653.45,-570.17 664.04,-570.48 655.95,-563.64 653.45,-570.17"/>
</g>
<!-- Node13 -->
<g id="node13" class="node">
<title>Node13</title>
<g id="a_node13"><a xlink:href="rmap_8c_a5f0081b9928da5e50fc8b231b57f3a80.html#a5f0081b9928da5e50fc8b231b57f3a80" target="_top" xlink:title="set the destination address path">
<polygon fill="white" stroke="black" points="635,-342.5 635,-361.5 751,-361.5 751,-342.5 635,-342.5"/>
<text text-anchor="middle" x="693" y="-349.5" font-family="Helvetica,sans-Serif" font-size="10.00">rmap_set_dest_path</text>
</a>
</g>
</g>
<!-- Node4&#45;&gt;Node13 -->
<g id="edge12" class="edge">
<title>Node4&#45;&gt;Node13</title>
<path fill="none" stroke="midnightblue" d="M550.76,-494.32C559.52,-469.83 585.88,-405 630,-371 632.34,-369.2 634.85,-367.56 637.48,-366.08"/>
<polygon fill="midnightblue" stroke="midnightblue" points="639.25,-369.11 646.75,-361.62 636.22,-362.81 639.25,-369.11"/>
</g>
<!-- Node15 -->
<g id="node15" class="node">
<title>Node15</title>
<g id="a_node15"><a xlink:href="rmap_8c_a2da8e7b48411d382b54848795f85795d.html#a2da8e7b48411d382b54848795f85795d" target="_top" xlink:title="set the destination (target) logical address">
<polygon fill="white" stroke="black" points="651.5,-494.5 651.5,-513.5 734.5,-513.5 734.5,-494.5 651.5,-494.5"/>
<text text-anchor="middle" x="693" y="-501.5" font-family="Helvetica,sans-Serif" font-size="10.00">rmap_set_dst</text>
</a>
</g>
</g>
<!-- Node4&#45;&gt;Node15 -->
<g id="edge14" class="edge">
<title>Node4&#45;&gt;Node15</title>
<path fill="none" stroke="midnightblue" d="M590.07,-504C606.07,-504 624.41,-504 641.09,-504"/>
<polygon fill="midnightblue" stroke="midnightblue" points="641.22,-507.5 651.22,-504 641.22,-500.5 641.22,-507.5"/>
</g>
<!-- Node16 -->
<g id="node16" class="node">
<title>Node16</title>
<g id="a_node16"><a xlink:href="rmap_8c_a15021c9dfccddc44786dfd37834bcd7e.html#a15021c9dfccddc44786dfd37834bcd7e" target="_top" xlink:title="set the command authorisation key">
<polygon fill="white" stroke="black" points="650.5,-456.5 650.5,-475.5 735.5,-475.5 735.5,-456.5 650.5,-456.5"/>
<text text-anchor="middle" x="693" y="-463.5" font-family="Helvetica,sans-Serif" font-size="10.00">rmap_set_key</text>
</a>
</g>
</g>
<!-- Node4&#45;&gt;Node16 -->
<g id="edge15" class="edge">
<title>Node4&#45;&gt;Node16</title>
<path fill="none" stroke="midnightblue" d="M583.96,-494.41C602.77,-489.46 625.91,-483.38 645.95,-478.11"/>
<polygon fill="midnightblue" stroke="midnightblue" points="647.02,-481.45 655.8,-475.52 645.24,-474.68 647.02,-481.45"/>
</g>
<!-- Node17 -->
<g id="node17" class="node">
<title>Node17</title>
<g id="a_node17"><a xlink:href="rmap_8c_a56c47830e67d01e469231e5e7e1d3a34.html#a56c47830e67d01e469231e5e7e1d3a34" target="_top" xlink:title="set the reply address path">
<polygon fill="white" stroke="black" points="633.5,-304.5 633.5,-323.5 752.5,-323.5 752.5,-304.5 633.5,-304.5"/>
<text text-anchor="middle" x="693" y="-311.5" font-family="Helvetica,sans-Serif" font-size="10.00">rmap_set_reply_path</text>
</a>
</g>
</g>
<!-- Node4&#45;&gt;Node17 -->
<g id="edge16" class="edge">
<title>Node4&#45;&gt;Node17</title>
<path fill="none" stroke="midnightblue" d="M549.36,-494.21C555.4,-465.09 577.23,-378.3 630,-333 631.98,-331.3 634.11,-329.75 636.35,-328.34"/>
<polygon fill="midnightblue" stroke="midnightblue" points="638.2,-331.32 645.41,-323.56 634.93,-325.13 638.2,-331.32"/>
</g>
<!-- Node18 -->
<g id="node18" class="node">
<title>Node18</title>
<g id="a_node18"><a xlink:href="rmap_8c_adae0030440ca4e7ad34622e505acbb2c.html#adae0030440ca4e7ad34622e505acbb2c" target="_top" xlink:title="set the source (initiator) logical address">
<polygon fill="white" stroke="black" points="652,-418.5 652,-437.5 734,-437.5 734,-418.5 652,-418.5"/>
<text text-anchor="middle" x="693" y="-425.5" font-family="Helvetica,sans-Serif" font-size="10.00">rmap_set_src</text>
</a>
</g>
</g>
<!-- Node4&#45;&gt;Node18 -->
<g id="edge18" class="edge">
<title>Node4&#45;&gt;Node18</title>
<path fill="none" stroke="midnightblue" d="M558.82,-494.48C574.1,-482.04 602.58,-460.28 630,-447 634.63,-444.76 639.58,-442.71 644.6,-440.86"/>
<polygon fill="midnightblue" stroke="midnightblue" points="645.92,-444.1 654.24,-437.54 643.65,-437.48 645.92,-444.1"/>
</g>
<!-- Node19 -->
<g id="node19" class="node">
<title>Node19</title>
<g id="a_node19"><a xlink:href="rmap_8c_a7b4c31714493ce6cc19d4aa825ab50aa.html#a7b4c31714493ce6cc19d4aa825ab50aa" target="_top" xlink:title="set an RMAP transaction identifier">
<polygon fill="white" stroke="black" points="648.5,-722.5 648.5,-741.5 737.5,-741.5 737.5,-722.5 648.5,-722.5"/>
<text text-anchor="middle" x="693" y="-729.5" font-family="Helvetica,sans-Serif" font-size="10.00">rmap_set_tr_id</text>
</a>
</g>
</g>
<!-- Node4&#45;&gt;Node19 -->
<g id="edge19" class="edge">
<title>Node4&#45;&gt;Node19</title>
<path fill="none" stroke="midnightblue" d="M548.38,-513.52C551.93,-546.34 568.12,-655.81 630,-713 632.77,-715.56 635.87,-717.77 639.17,-719.69"/>
<polygon fill="midnightblue" stroke="midnightblue" points="637.77,-722.9 648.3,-724.09 640.82,-716.59 637.77,-722.9"/>
</g>
<!-- Node6 -->
<g id="node6" class="node">
<title>Node6</title>
<g id="a_node6"><a xlink:href="rmap_8c_a0ec3c28e83818f02e00d4c79d82d938a.html#a0ec3c28e83818f02e00d4c79d82d938a" target="_top" xlink:title="get the minimum header size given the RMAP instruction">
<polygon fill="white" stroke="black" points="796.5,-532.5 796.5,-551.5 929.5,-551.5 929.5,-532.5 796.5,-532.5"/>
<text text-anchor="middle" x="863" y="-539.5" font-family="Helvetica,sans-Serif" font-size="10.00">rmap_get_min_hdr_size</text>
</a>
</g>
</g>
<!-- Node5&#45;&gt;Node6 -->
<g id="edge5" class="edge">
<title>Node5&#45;&gt;Node6</title>
<path fill="none" stroke="midnightblue" d="M734.42,-646.4C741.83,-643.87 749.33,-640.76 756,-637 793.04,-616.08 828.2,-580.34 847.26,-559.17"/>
<polygon fill="midnightblue" stroke="midnightblue" points="849.96,-561.39 853.96,-551.58 844.72,-556.75 849.96,-561.39"/>
</g>
<!-- Node10 -->
<g id="node10" class="node">
<title>Node10</title>
<g id="a_node10"><a xlink:href="rmap_8c_a667ce871110961f2a611d0244791e20f.html#a667ce871110961f2a611d0244791e20f" target="_top" xlink:title="valiidates a command code">
<polygon fill="white" stroke="black" points="792,-684.5 792,-703.5 934,-703.5 934,-684.5 792,-684.5"/>
<text text-anchor="middle" x="863" y="-691.5" font-family="Helvetica,sans-Serif" font-size="10.00">rmap_validate_cmd_code</text>
</a>
</g>
</g>
<!-- Node9&#45;&gt;Node10 -->
<g id="edge9" class="edge">
<title>Node9&#45;&gt;Node10</title>
<path fill="none" stroke="midnightblue" d="M737.7,-694C751.13,-694 766.36,-694 781.44,-694"/>
<polygon fill="midnightblue" stroke="midnightblue" points="781.83,-697.5 791.83,-694 781.83,-690.5 781.83,-697.5"/>
</g>
<!-- Node14 -->
<g id="node14" class="node">
<title>Node14</title>
<g id="a_node14"><a xlink:href="test__cmp__max__used__bits__list_8c_a7ac38fce3243a7dcf448301ee9ffd392.html#a7ac38fce3243a7dcf448301ee9ffd392" target="_top" xlink:title=" ">
<polygon fill="white" stroke="black" points="838,-304.5 838,-323.5 888,-323.5 888,-304.5 838,-304.5"/>
<text text-anchor="middle" x="863" y="-311.5" font-family="Helvetica,sans-Serif" font-size="10.00">malloc</text>
</a>
</g>
</g>
<!-- Node13&#45;&gt;Node14 -->
<g id="edge13" class="edge">
<title>Node13&#45;&gt;Node14</title>
<path fill="none" stroke="midnightblue" d="M736.39,-342.41C764.71,-336.01 801.47,-327.69 827.9,-321.71"/>
<polygon fill="midnightblue" stroke="midnightblue" points="828.85,-325.09 837.83,-319.47 827.3,-318.26 828.85,-325.09"/>
</g>
<!-- Node17&#45;&gt;Node14 -->
<g id="edge17" class="edge">
<title>Node17&#45;&gt;Node14</title>
<path fill="none" stroke="midnightblue" d="M752.76,-314C777.69,-314 805.89,-314 827.39,-314"/>
<polygon fill="midnightblue" stroke="midnightblue" points="827.67,-317.5 837.67,-314 827.67,-310.5 827.67,-317.5"/>
</g>
<!-- Node20&#45;&gt;Node14 -->
<g id="edge21" class="edge">
<title>Node20&#45;&gt;Node14</title>
<path fill="none" stroke="midnightblue" d="M262.01,-258.12C343.79,-261.28 569.49,-271.61 756,-295 780.12,-298.03 807.09,-302.88 827.78,-306.92"/>
<polygon fill="midnightblue" stroke="midnightblue" points="827.2,-310.38 837.69,-308.89 828.57,-303.51 827.2,-310.38"/>
</g>
<!-- Node21 -->
<g id="node21" class="node">
<title>Node21</title>
<g id="a_node21"><a xlink:href="rdcu__rmap_8c_a95fad3cd9b6bbe562e1a73e3f1c108a8.html#a95fad3cd9b6bbe562e1a73e3f1c108a8" target="_top" xlink:title="submit an rmap command transaction">
<polygon fill="white" stroke="black" points="350,-228.5 350,-247.5 442,-247.5 442,-228.5 350,-228.5"/>
<text text-anchor="middle" x="396" y="-235.5" font-family="Helvetica,sans-Serif" font-size="10.00">rdcu_submit_tx</text>
</a>
</g>
</g>
<!-- Node20&#45;&gt;Node21 -->
<g id="edge22" class="edge">
<title>Node20&#45;&gt;Node21</title>
<path fill="none" stroke="midnightblue" d="M262.22,-253.34C284.14,-250.8 313.89,-247.37 339.67,-244.39"/>
<polygon fill="midnightblue" stroke="midnightblue" points="340.16,-247.86 349.7,-243.23 339.36,-240.9 340.16,-247.86"/>
</g>
<!-- Node32 -->
<g id="node32" class="node">
<title>Node32</title>
<g id="a_node32"><a xlink:href="rdcu__rmap_8c_a36f44335aa66dd49fb4903f7269bc5b1.html#a36f44335aa66dd49fb4903f7269bc5b1" target="_top" xlink:title="grab a slot in the transaction log">
<polygon fill="white" stroke="black" points="340,-190.5 340,-209.5 452,-209.5 452,-190.5 340,-190.5"/>
<text text-anchor="middle" x="396" y="-197.5" font-family="Helvetica,sans-Serif" font-size="10.00">trans_log_grab_slot</text>
</a>
</g>
</g>
<!-- Node20&#45;&gt;Node32 -->
<g id="edge38" class="edge">
<title>Node20&#45;&gt;Node32</title>
<path fill="none" stroke="midnightblue" d="M253.77,-247.36C273.6,-239.3 302.94,-227.76 329,-219 335.61,-216.78 342.64,-214.58 349.55,-212.51"/>
<polygon fill="midnightblue" stroke="midnightblue" points="350.93,-215.76 359.54,-209.59 348.96,-209.04 350.93,-215.76"/>
</g>
<!-- Node22 -->
<g id="node22" class="node">
<title>Node22</title>
<g id="a_node22"><a xlink:href="rdcu__rmap_8c_a1a064554031c2fa2dcb65541e0765c0f.html#a1a064554031c2fa2dcb65541e0765c0f" target="_top" xlink:title="n rmap command transaction">
<polygon fill="white" stroke="black" points="499,-171.5 499,-190.5 594,-190.5 594,-171.5 499,-171.5"/>
<text text-anchor="middle" x="546.5" y="-178.5" font-family="Helvetica,sans-Serif" font-size="10.00">rdcu_process_rx</text>
</a>
</g>
</g>
<!-- Node21&#45;&gt;Node22 -->
<g id="edge23" class="edge">
<title>Node21&#45;&gt;Node22</title>
<path fill="none" stroke="midnightblue" d="M433.98,-228.42C443.52,-225.66 453.72,-222.45 463,-219 481.61,-212.08 501.86,-202.78 517.64,-195.11"/>
<polygon fill="midnightblue" stroke="midnightblue" points="519.41,-198.14 526.84,-190.58 516.32,-191.86 519.41,-198.14"/>
</g>
<!-- Node22&#45;&gt;Node8 -->
<g id="edge26" class="edge">
<title>Node22&#45;&gt;Node8</title>
<path fill="none" stroke="midnightblue" d="M571.3,-190.6C587.76,-197.22 610.19,-206.2 630,-214 638.99,-217.54 648.73,-221.33 657.77,-224.83"/>
<polygon fill="midnightblue" stroke="midnightblue" points="656.65,-228.15 667.24,-228.49 659.17,-221.62 656.65,-228.15"/>
</g>
<!-- Node22&#45;&gt;Node14 -->
<g id="edge24" class="edge">
<title>Node22&#45;&gt;Node14</title>
<path fill="none" stroke="midnightblue" d="M594.07,-182.28C637.88,-185.11 704.29,-193.67 756,-219 794.4,-237.81 829.32,-274.59 847.92,-296.46"/>
<polygon fill="midnightblue" stroke="midnightblue" points="845.35,-298.85 854.43,-304.3 850.73,-294.37 845.35,-298.85"/>
</g>
<!-- Node23 -->
<g id="node23" class="node">
<title>Node23</title>
<g id="a_node23"><a xlink:href="rmap_8c_abf1868ec6873f9f189050cadc7e64a3b.html#abf1868ec6873f9f189050cadc7e64a3b" target="_top" xlink:title="calculate the CRC8 of a given buffer">
<polygon fill="white" stroke="black" points="659,-76.5 659,-95.5 727,-95.5 727,-76.5 659,-76.5"/>
<text text-anchor="middle" x="693" y="-83.5" font-family="Helvetica,sans-Serif" font-size="10.00">rmap_crc8</text>
</a>
</g>
</g>
<!-- Node22&#45;&gt;Node23 -->
<g id="edge25" class="edge">
<title>Node22&#45;&gt;Node23</title>
<path fill="none" stroke="midnightblue" d="M555.37,-171.36C568.95,-155.32 598.41,-123.12 630,-105 635.9,-101.61 642.48,-98.76 649.08,-96.39"/>
<polygon fill="midnightblue" stroke="midnightblue" points="650.27,-99.68 658.69,-93.25 648.09,-93.03 650.27,-99.68"/>
</g>
<!-- Node24 -->
<g id="node24" class="node">
<title>Node24</title>
<g id="a_node24"><a xlink:href="rmap_8c_a5e88a29337404518eceedf9b4af285bf.html#a5e88a29337404518eceedf9b4af285bf" target="_top" xlink:title=" ">
<polygon fill="white" stroke="black" points="645.5,-38.5 645.5,-57.5 740.5,-57.5 740.5,-38.5 645.5,-38.5"/>
<text text-anchor="middle" x="693" y="-45.5" font-family="Helvetica,sans-Serif" font-size="10.00">rmap_parse_pkt</text>
</a>
</g>
</g>
<!-- Node22&#45;&gt;Node24 -->
<g id="edge27" class="edge">
<title>Node22&#45;&gt;Node24</title>
<path fill="none" stroke="midnightblue" d="M551.76,-171.43C561.98,-149.55 590.06,-95.57 630,-67 632.7,-65.07 635.6,-63.33 638.62,-61.76"/>
<polygon fill="midnightblue" stroke="midnightblue" points="640.27,-64.86 647.96,-57.57 637.4,-58.48 640.27,-64.86"/>
</g>
<!-- Node29 -->
<g id="node29" class="node">
<title>Node29</title>
<g id="a_node29"><a xlink:href="rmap_8c_a46d3271304c12df042b57dbebaba67e1.html#a46d3271304c12df042b57dbebaba67e1" target="_top" xlink:title="create an rmap packet from a buffer">
<polygon fill="white" stroke="black" points="630.5,-380.5 630.5,-399.5 755.5,-399.5 755.5,-380.5 630.5,-380.5"/>
<text text-anchor="middle" x="693" y="-387.5" font-family="Helvetica,sans-Serif" font-size="10.00">rmap_pkt_from_buffer</text>
</a>
</g>
</g>
<!-- Node22&#45;&gt;Node29 -->
<g id="edge32" class="edge">
<title>Node22&#45;&gt;Node29</title>
<path fill="none" stroke="midnightblue" d="M548.8,-190.52C553.52,-221.4 572.62,-319.72 630,-371 631.91,-372.71 633.97,-374.26 636.14,-375.67"/>
<polygon fill="midnightblue" stroke="midnightblue" points="634.49,-378.76 644.95,-380.46 637.84,-372.61 634.49,-378.76"/>
</g>
<!-- Node30 -->
<g id="node30" class="node">
<title>Node30</title>
<g id="a_node30"><a xlink:href="rdcu__rmap_8c_acf9b176d8d9b24e9d07711f56aebccc0.html#acf9b176d8d9b24e9d07711f56aebccc0" target="_top" xlink:title="get the local address for a slot">
<polygon fill="white" stroke="black" points="638,-152.5 638,-171.5 748,-171.5 748,-152.5 638,-152.5"/>
<text text-anchor="middle" x="693" y="-159.5" font-family="Helvetica,sans-Serif" font-size="10.00">trans_log_get_addr</text>
</a>
</g>
</g>
<!-- Node22&#45;&gt;Node30 -->
<g id="edge36" class="edge">
<title>Node22&#45;&gt;Node30</title>
<path fill="none" stroke="midnightblue" d="M594.02,-174.88C604.69,-173.48 616.23,-171.96 627.51,-170.48"/>
<polygon fill="midnightblue" stroke="midnightblue" points="628.31,-173.9 637.77,-169.13 627.4,-166.96 628.31,-173.9"/>
</g>
<!-- Node31 -->
<g id="node31" class="node">
<title>Node31</title>
<g id="a_node31"><a xlink:href="rdcu__rmap_8c_a7012f58a1862cf07b00e299d24c199c2.html#a7012f58a1862cf07b00e299d24c199c2" target="_top" xlink:title="release a slot in the transaction log">
<polygon fill="white" stroke="black" points="630,-114.5 630,-133.5 756,-133.5 756,-114.5 630,-114.5"/>
<text text-anchor="middle" x="693" y="-121.5" font-family="Helvetica,sans-Serif" font-size="10.00">trans_log_release_slot</text>
</a>
</g>
</g>
<!-- Node22&#45;&gt;Node31 -->
<g id="edge37" class="edge">
<title>Node22&#45;&gt;Node31</title>
<path fill="none" stroke="midnightblue" d="M566.52,-171.35C583.05,-163.18 607.75,-151.49 630,-143 635.87,-140.76 642.12,-138.6 648.31,-136.58"/>
<polygon fill="midnightblue" stroke="midnightblue" points="649.45,-139.89 657.93,-133.54 647.34,-133.22 649.45,-139.89"/>
</g>
<!-- Node25 -->
<g id="node25" class="node">
<title>Node25</title>
<g id="a_node25"><a xlink:href="rmap_8c_abb4e19c17c7223212c3904bc4c0189d2.html#abb4e19c17c7223212c3904bc4c0189d2" target="_top" xlink:title=" ">
<polygon fill="white" stroke="black" points="807.5,-76.5 807.5,-95.5 918.5,-95.5 918.5,-76.5 807.5,-76.5"/>
<text text-anchor="middle" x="863" y="-83.5" font-family="Helvetica,sans-Serif" font-size="10.00">rmap_check_status</text>
</a>
</g>
</g>
<!-- Node24&#45;&gt;Node25 -->
<g id="edge28" class="edge">
<title>Node24&#45;&gt;Node25</title>
<path fill="none" stroke="midnightblue" d="M736.39,-57.59C758.76,-62.65 786.4,-68.9 810.05,-74.25"/>
<polygon fill="midnightblue" stroke="midnightblue" points="809.39,-77.69 819.91,-76.48 810.93,-70.86 809.39,-77.69"/>
</g>
<!-- Node26 -->
<g id="node26" class="node">
<title>Node26</title>
<g id="a_node26"><a xlink:href="rmap_8c_a20aa8b91dfb1bbad819759f97b853054.html#a20aa8b91dfb1bbad819759f97b853054" target="_top" xlink:title=" ">
<polygon fill="white" stroke="black" points="802,-38.5 802,-57.5 924,-57.5 924,-38.5 802,-38.5"/>
<text text-anchor="middle" x="863" y="-45.5" font-family="Helvetica,sans-Serif" font-size="10.00">rmap_parse_cmd_pkt</text>
</a>
</g>
</g>
<!-- Node24&#45;&gt;Node26 -->
<g id="edge29" class="edge">
<title>Node24&#45;&gt;Node26</title>
<path fill="none" stroke="midnightblue" d="M740.8,-48C756.62,-48 774.66,-48 791.89,-48"/>
<polygon fill="midnightblue" stroke="midnightblue" points="791.92,-51.5 801.92,-48 791.92,-44.5 791.92,-51.5"/>
</g>
<!-- Node27 -->
<g id="node27" class="node">
<title>Node27</title>
<g id="a_node27"><a xlink:href="rmap_8c_adef42426b46ee5ad5176ee76cff35c22.html#adef42426b46ee5ad5176ee76cff35c22" target="_top" xlink:title=" ">
<polygon fill="white" stroke="black" points="800.5,-0.5 800.5,-19.5 925.5,-19.5 925.5,-0.5 800.5,-0.5"/>
<text text-anchor="middle" x="863" y="-7.5" font-family="Helvetica,sans-Serif" font-size="10.00">rmap_parse_reply_pkt</text>
</a>
</g>
</g>
<!-- Node24&#45;&gt;Node27 -->
<g id="edge30" class="edge">
<title>Node24&#45;&gt;Node27</title>
<path fill="none" stroke="midnightblue" d="M736.39,-38.41C758.76,-33.35 786.4,-27.1 810.05,-21.75"/>
<polygon fill="midnightblue" stroke="midnightblue" points="810.93,-25.14 819.91,-19.52 809.39,-18.31 810.93,-25.14"/>
</g>
<!-- Node28 -->
<g id="node28" class="node">
<title>Node28</title>
<g id="a_node28"><a xlink:href="rmap_8c_a2ff278a5e094a9f585865d4d838e0e0e.html#a2ff278a5e094a9f585865d4d838e0e0e" target="_top" xlink:title=" ">
<polygon fill="white" stroke="black" points="970,-0.5 970,-19.5 1112,-19.5 1112,-0.5 970,-0.5"/>
<text text-anchor="middle" x="1041" y="-7.5" font-family="Helvetica,sans-Serif" font-size="10.00">rmap_process_read_reply</text>
</a>
</g>
</g>
<!-- Node27&#45;&gt;Node28 -->
<g id="edge31" class="edge">
<title>Node27&#45;&gt;Node28</title>
<path fill="none" stroke="midnightblue" d="M925.56,-10C936.6,-10 948.25,-10 959.73,-10"/>
<polygon fill="midnightblue" stroke="midnightblue" points="959.74,-13.5 969.74,-10 959.74,-6.5 959.74,-13.5"/>
</g>
<!-- Node29&#45;&gt;Node6 -->
<g id="edge35" class="edge">
<title>Node29&#45;&gt;Node6</title>
<path fill="none" stroke="midnightblue" d="M738.9,-399.53C745,-402 750.9,-405.1 756,-409 779.81,-427.19 773.78,-442.22 792,-466 808.39,-487.38 829.64,-509.84 844.41,-524.74"/>
<polygon fill="midnightblue" stroke="midnightblue" points="842.32,-527.61 851.87,-532.19 847.27,-522.65 842.32,-527.61"/>
</g>
<!-- Node29&#45;&gt;Node7 -->
<g id="edge34" class="edge">
<title>Node29&#45;&gt;Node7</title>
<path fill="none" stroke="midnightblue" d="M726.27,-399.58C735.87,-402.51 746.38,-405.81 756,-409 779.76,-416.89 806.27,-426.4 826.83,-433.93"/>
<polygon fill="midnightblue" stroke="midnightblue" points="825.82,-437.28 836.41,-437.45 828.23,-430.71 825.82,-437.28"/>
</g>
<!-- Node29&#45;&gt;Node14 -->
<g id="edge33" class="edge">
<title>Node29&#45;&gt;Node14</title>
<path fill="none" stroke="midnightblue" d="M729.51,-380.43C738.29,-377.7 747.58,-374.51 756,-371 785.06,-358.87 816.64,-341.27 837.7,-328.84"/>
<polygon fill="midnightblue" stroke="midnightblue" points="839.52,-331.83 846.32,-323.7 835.94,-325.82 839.52,-331.83"/>
</g>
</g>
</svg>
