<?xml version="1.0" encoding="UTF-8" standalone="no"?>
<!DOCTYPE svg PUBLIC "-//W3C//DTD SVG 1.1//EN"
 "http://www.w3.org/Graphics/SVG/1.1/DTD/svg11.dtd">
<!-- Generated by graphviz version 2.43.0 (0)
 -->
<!-- Title: rdcu_cmd.h Pages: 1 -->
<svg width="410pt" height="84pt"
 viewBox="0.00 0.00 410.00 84.00" xmlns="http://www.w3.org/2000/svg" xmlns:xlink="http://www.w3.org/1999/xlink">
<g id="graph0" class="graph" transform="scale(1 1) rotate(0) translate(4 80)">
<title>rdcu_cmd.h</title>
<polygon fill="white" stroke="transparent" points="-4,4 -4,-80 406,-80 406,4 -4,4"/>
<!-- Node1 -->
<g id="node1" class="node">
<title>Node1</title>
<g id="a_node1"><a xlink:title="RMAP RDCU RMAP command library header file.">
<polygon fill="#bfbfbf" stroke="black" points="153.5,-56.5 153.5,-75.5 226.5,-75.5 226.5,-56.5 153.5,-56.5"/>
<text text-anchor="middle" x="190" y="-63.5" font-family="Helvetica,sans-Serif" font-size="10.00">rdcu_cmd.h</text>
</a>
</g>
</g>
<!-- Node2 -->
<g id="node2" class="node">
<title>Node2</title>
<g id="a_node2"><a xlink:href="cmp__rdcu__cfg_8c.html" target="_top" xlink:title="hardware compressor configuration library">
<polygon fill="white" stroke="black" points="0,-0.5 0,-19.5 92,-19.5 92,-0.5 0,-0.5"/>
<text text-anchor="middle" x="46" y="-7.5" font-family="Helvetica,sans-Serif" font-size="10.00">cmp_rdcu_cfg.c</text>
</a>
</g>
</g>
<!-- Node1&#45;&gt;Node2 -->
<g id="edge1" class="edge">
<title>Node1&#45;&gt;Node2</title>
<path fill="none" stroke="midnightblue" d="M157.75,-52.91C130.68,-42.75 92.68,-28.51 68.71,-19.52"/>
<polygon fill="midnightblue" stroke="midnightblue" points="156.59,-56.21 167.18,-56.44 159.05,-49.66 156.59,-56.21"/>
</g>
<!-- Node3 -->
<g id="node3" class="node">
<title>Node3</title>
<g id="a_node3"><a xlink:href="rdcu__cmd_8c.html" target="_top" xlink:title="RMAP RDCU RMAP command library.">
<polygon fill="white" stroke="black" points="110,-0.5 110,-19.5 182,-19.5 182,-0.5 110,-0.5"/>
<text text-anchor="middle" x="146" y="-7.5" font-family="Helvetica,sans-Serif" font-size="10.00">rdcu_cmd.c</text>
</a>
</g>
</g>
<!-- Node1&#45;&gt;Node3 -->
<g id="edge2" class="edge">
<title>Node1&#45;&gt;Node3</title>
<path fill="none" stroke="midnightblue" d="M176.27,-48.14C168.6,-38.74 159.37,-27.4 153.13,-19.75"/>
<polygon fill="midnightblue" stroke="midnightblue" points="173.7,-50.54 182.73,-56.08 179.13,-46.12 173.7,-50.54"/>
</g>
<!-- Node4 -->
<g id="node4" class="node">
<title>Node4</title>
<g id="a_node4"><a xlink:href="rdcu__ctrl_8c.html" target="_top" xlink:title="RMAP RDCU control library.">
<polygon fill="white" stroke="black" points="200.5,-0.5 200.5,-19.5 267.5,-19.5 267.5,-0.5 200.5,-0.5"/>
<text text-anchor="middle" x="234" y="-7.5" font-family="Helvetica,sans-Serif" font-size="10.00">rdcu_ctrl.c</text>
</a>
</g>
</g>
<!-- Node1&#45;&gt;Node4 -->
<g id="edge3" class="edge">
<title>Node1&#45;&gt;Node4</title>
<path fill="none" stroke="midnightblue" d="M203.73,-48.14C211.4,-38.74 220.63,-27.4 226.87,-19.75"/>
<polygon fill="midnightblue" stroke="midnightblue" points="200.87,-46.12 197.27,-56.08 206.3,-50.54 200.87,-46.12"/>
</g>
<!-- Node5 -->
<g id="node5" class="node">
<title>Node5</title>
<g id="a_node5"><a xlink:href="test__cmp__rdcu__cfg_8c.html" target="_top" xlink:title="hardware compressor configuration tests">
<polygon fill="white" stroke="black" points="286,-0.5 286,-19.5 402,-19.5 402,-0.5 286,-0.5"/>
<text text-anchor="middle" x="344" y="-7.5" font-family="Helvetica,sans-Serif" font-size="10.00">test_cmp_rdcu_cfg.c</text>
</a>
</g>
</g>
<!-- Node1&#45;&gt;Node5 -->
<g id="edge4" class="edge">
<title>Node1&#45;&gt;Node5</title>
<path fill="none" stroke="midnightblue" d="M224.11,-53.04C253.09,-42.88 293.96,-28.55 319.71,-19.52"/>
<polygon fill="midnightblue" stroke="midnightblue" points="222.68,-49.83 214.4,-56.44 225,-56.44 222.68,-49.83"/>
</g>
</g>
</svg>
