<?xml version="1.0" encoding="UTF-8" standalone="no"?>
<!DOCTYPE svg PUBLIC "-//W3C//DTD SVG 1.1//EN"
 "http://www.w3.org/Graphics/SVG/1.1/DTD/svg11.dtd">
<!-- Generated by graphviz version 2.43.0 (0)
 -->
<!-- Title: rdcu_sync_adc_values Pages: 1 -->
<!--zoomable 750 -->
<svg id="main" version="1.1" xmlns="http://www.w3.org/2000/svg" xmlns:xlink="http://www.w3.org/1999/xlink" xml:space="preserve" onload="init(evt)">
<style type="text/css"><![CDATA[
.edge:hover path { stroke: red; }
.edge:hover polygon { stroke: red; fill: red; }
]]></style>
<script type="text/javascript"><![CDATA[
var edges = document.getElementsByTagName('g');
if (edges && edges.length) {
  for (var i=0;i<edges.length;i++) {
    if (edges[i].id.substr(0,4)=='edge') {
      edges[i].setAttribute('class','edge');
    }
  }
}
]]></script>
        <defs>
                <circle id="rim" cx="0" cy="0" r="7"/>
                <circle id="rim2" cx="0" cy="0" r="3.5"/>
                <g id="zoomPlus">
                        <use xlink:href="#rim" fill="#404040">
                                <set attributeName="fill" to="#808080" begin="zoomplus.mouseover" end="zoomplus.mouseout"/>
                        </use>
                        <path d="M-4,0h8M0,-4v8" fill="none" stroke="white" stroke-width="1.5" pointer-events="none"/>
                </g>
                <g id="zoomMin">
                        <use xlink:href="#rim" fill="#404040">
                                <set attributeName="fill" to="#808080" begin="zoomminus.mouseover" end="zoomminus.mouseout"/>
                        </use>
                        <path d="M-4,0h8" fill="none" stroke="white" stroke-width="1.5" pointer-events="none"/>
                </g>
                <g id="dirArrow">
                        <path fill="none" stroke="white" stroke-width="1.5" d="M0,-3.0v7 M-2.5,-0.5L0,-3.0L2.5,-0.5"/>
                </g>
               <g id="resetDef">
                       <use xlink:href="#rim2" fill="#404040">
                               <set attributeName="fill" to="#808080" begin="reset.mouseover" end="reset.mouseout"/>
                       </use>
               </g>
        </defs>

<script type="text/javascript">
var viewWidth = 1150;
var viewHeight = 750;
var sectionId = 'dynsection-0';
</script>
<script xlink:href="svgpan.js"/>
<svg id="graph" class="graph">
<g id="viewport">
<title>rdcu_sync_adc_values</title>
<polygon fill="white" stroke="transparent" points="-4,4 -4,-746 1146,-746 1146,4 -4,4"/>
<!-- Node1 -->
<g id="node1" class="node">
<title>Node1</title>
<g id="a_node1"><a xlink:title="sync an ADC values register (read only)">
<polygon fill="#bfbfbf" stroke="black" points="0,-389.5 0,-408.5 125,-408.5 125,-389.5 0,-389.5"/>
<text text-anchor="middle" x="62.5" y="-396.5" font-family="Helvetica,sans-Serif" font-size="10.00">rdcu_sync_adc_values</text>
</a>
</g>
</g>
<!-- Node2 -->
<g id="node2" class="node">
<title>Node2</title>
<g id="a_node2"><a xlink:href="rdcu__cmd_8c_a59bbf6a366a3182782581096ac401ae6.html#a59bbf6a366a3182782581096ac401ae6" target="_top" xlink:title="create a command to read the RDCU ADC values 1 register">
<polygon fill="white" stroke="black" points="161,-351.5 161,-370.5 323,-370.5 323,-351.5 161,-351.5"/>
<text text-anchor="middle" x="242" y="-358.5" font-family="Helvetica,sans-Serif" font-size="10.00">rdcu_read_cmd_adc_values_1</text>
</a>
</g>
</g>
<!-- Node1&#45;&gt;Node2 -->
<g id="edge1" class="edge">
<title>Node1&#45;&gt;Node2</title>
<path fill="none" stroke="midnightblue" d="M108.29,-389.41C132.03,-384.33 161.38,-378.04 186.44,-372.68"/>
<polygon fill="midnightblue" stroke="midnightblue" points="187.49,-376.04 196.53,-370.52 186.02,-369.19 187.49,-376.04"/>
</g>
<!-- Node20 -->
<g id="node20" class="node">
<title>Node20</title>
<g id="a_node20"><a xlink:href="rdcu__cmd_8c_a0093173983638b18fdb8dd4f58a8da0e.html#a0093173983638b18fdb8dd4f58a8da0e" target="_top" xlink:title="create a command to read the RDCU ADC values 2 register">
<polygon fill="white" stroke="black" points="161,-465.5 161,-484.5 323,-484.5 323,-465.5 161,-465.5"/>
<text text-anchor="middle" x="242" y="-472.5" font-family="Helvetica,sans-Serif" font-size="10.00">rdcu_read_cmd_adc_values_2</text>
</a>
</g>
</g>
<!-- Node1&#45;&gt;Node20 -->
<g id="edge20" class="edge">
<title>Node1&#45;&gt;Node20</title>
<path fill="none" stroke="midnightblue" d="M77.04,-408.68C95.28,-421.29 129.15,-443.24 161,-456 167.32,-458.53 174.06,-460.78 180.85,-462.76"/>
<polygon fill="midnightblue" stroke="midnightblue" points="180.22,-466.22 190.79,-465.48 182.06,-459.47 180.22,-466.22"/>
</g>
<!-- Node21 -->
<g id="node21" class="node">
<title>Node21</title>
<g id="a_node21"><a xlink:href="rdcu__cmd_8c_a12955406283adc54c096d6915a89fbd3.html#a12955406283adc54c096d6915a89fbd3" target="_top" xlink:title="create a command to read the RDCU ADC values 3 register">
<polygon fill="white" stroke="black" points="161,-427.5 161,-446.5 323,-446.5 323,-427.5 161,-427.5"/>
<text text-anchor="middle" x="242" y="-434.5" font-family="Helvetica,sans-Serif" font-size="10.00">rdcu_read_cmd_adc_values_3</text>
</a>
</g>
</g>
<!-- Node1&#45;&gt;Node21 -->
<g id="edge22" class="edge">
<title>Node1&#45;&gt;Node21</title>
<path fill="none" stroke="midnightblue" d="M108.29,-408.59C132.03,-413.67 161.38,-419.96 186.44,-425.32"/>
<polygon fill="midnightblue" stroke="midnightblue" points="186.02,-428.81 196.53,-427.48 187.49,-421.96 186.02,-428.81"/>
</g>
<!-- Node22 -->
<g id="node22" class="node">
<title>Node22</title>
<g id="a_node22"><a xlink:href="rdcu__cmd_8c_a77e029864dbbf2a9280f0bc8fa1e4272.html#a77e029864dbbf2a9280f0bc8fa1e4272" target="_top" xlink:title="create a command to read the RDCU ADC values 4 register">
<polygon fill="white" stroke="black" points="161,-389.5 161,-408.5 323,-408.5 323,-389.5 161,-389.5"/>
<text text-anchor="middle" x="242" y="-396.5" font-family="Helvetica,sans-Serif" font-size="10.00">rdcu_read_cmd_adc_values_4</text>
</a>
</g>
</g>
<!-- Node1&#45;&gt;Node22 -->
<g id="edge24" class="edge">
<title>Node1&#45;&gt;Node22</title>
<path fill="none" stroke="midnightblue" d="M125.08,-399C133.36,-399 141.98,-399 150.63,-399"/>
<polygon fill="midnightblue" stroke="midnightblue" points="150.77,-402.5 160.77,-399 150.77,-395.5 150.77,-402.5"/>
</g>
<!-- Node23 -->
<g id="node23" class="node">
<title>Node23</title>
<g id="a_node23"><a xlink:href="rdcu__rmap_8c_a533d1eb248d83ba3d406cefe7f3c9eb9.html#a533d1eb248d83ba3d406cefe7f3c9eb9" target="_top" xlink:title="submit a sync command">
<polygon fill="white" stroke="black" points="209.5,-247.5 209.5,-266.5 274.5,-266.5 274.5,-247.5 209.5,-247.5"/>
<text text-anchor="middle" x="242" y="-254.5" font-family="Helvetica,sans-Serif" font-size="10.00">rdcu_sync</text>
</a>
</g>
</g>
<!-- Node1&#45;&gt;Node23 -->
<g id="edge26" class="edge">
<title>Node1&#45;&gt;Node23</title>
<path fill="none" stroke="midnightblue" d="M75.42,-389.46C105.21,-365.63 183.19,-303.25 220.51,-273.39"/>
<polygon fill="midnightblue" stroke="midnightblue" points="223.04,-275.85 228.66,-266.87 218.67,-270.39 223.04,-275.85"/>
</g>
<!-- Node3 -->
<g id="node3" class="node">
<title>Node3</title>
<g id="a_node3"><a xlink:href="rdcu__cmd_8c_a3274188041d4484130e893afc5f1630f.html#a3274188041d4484130e893afc5f1630f" target="_top" xlink:title="generate a read command for an arbitrary register (internal)">
<polygon fill="white" stroke="black" points="359,-422 359,-452 493,-452 493,-422 359,-422"/>
<text text-anchor="start" x="367" y="-440" font-family="Helvetica,sans-Serif" font-size="10.00">rdcu_read_cmd_register</text>
<text text-anchor="middle" x="426" y="-429" font-family="Helvetica,sans-Serif" font-size="10.00">_internal</text>
</a>
</g>
</g>
<!-- Node2&#45;&gt;Node3 -->
<g id="edge2" class="edge">
<title>Node2&#45;&gt;Node3</title>
<path fill="none" stroke="midnightblue" d="M292.73,-370.56C302.9,-373.14 313.42,-376.27 323,-380 347.92,-389.7 374.22,-404.53 393.87,-416.62"/>
<polygon fill="midnightblue" stroke="midnightblue" points="392.07,-419.63 402.4,-421.96 395.78,-413.69 392.07,-419.63"/>
</g>
<!-- Node4 -->
<g id="node4" class="node">
<title>Node4</title>
<g id="a_node4"><a xlink:href="rdcu__rmap_8c_ab224927e85a7cec5b6f90292c7de36c4.html#ab224927e85a7cec5b6f90292c7de36c4" target="_top" xlink:title="generate an rmap command packet">
<polygon fill="white" stroke="black" points="533,-494.5 533,-513.5 620,-513.5 620,-494.5 533,-494.5"/>
<text text-anchor="middle" x="576.5" y="-501.5" font-family="Helvetica,sans-Serif" font-size="10.00">rdcu_gen_cmd</text>
</a>
</g>
</g>
<!-- Node3&#45;&gt;Node4 -->
<g id="edge3" class="edge">
<title>Node3&#45;&gt;Node4</title>
<path fill="none" stroke="midnightblue" d="M460.33,-452.04C485.69,-463.48 520.32,-479.11 544.97,-490.23"/>
<polygon fill="midnightblue" stroke="midnightblue" points="543.66,-493.47 554.21,-494.4 546.54,-487.09 543.66,-493.47"/>
</g>
<!-- Node5 -->
<g id="node5" class="node">
<title>Node5</title>
<g id="a_node5"><a xlink:href="rmap_8c_aa17375d153cc3473cbbe4dfe1056c527.html#aa17375d153cc3473cbbe4dfe1056c527" target="_top" xlink:title="build an rmap header">
<polygon fill="white" stroke="black" points="677,-646.5 677,-665.5 769,-665.5 769,-646.5 677,-646.5"/>
<text text-anchor="middle" x="723" y="-653.5" font-family="Helvetica,sans-Serif" font-size="10.00">rmap_build_hdr</text>
</a>
</g>
</g>
<!-- Node4&#45;&gt;Node5 -->
<g id="edge4" class="edge">
<title>Node4&#45;&gt;Node5</title>
<path fill="none" stroke="midnightblue" d="M580.76,-513.68C589.52,-538.17 615.88,-603 660,-637 662.34,-638.8 664.85,-640.44 667.48,-641.92"/>
<polygon fill="midnightblue" stroke="midnightblue" points="666.22,-645.19 676.75,-646.38 669.25,-638.89 666.22,-645.19"/>
</g>
<!-- Node7 -->
<g id="node7" class="node">
<title>Node7</title>
<g id="a_node7"><a xlink:href="rmap_8c_aba944cf978de0b264ea5bb3a784bce0f.html#aba944cf978de0b264ea5bb3a784bce0f" target="_top" xlink:title="create an RMAP packet and set defaults">
<polygon fill="white" stroke="black" points="835,-437.5 835,-456.5 951,-456.5 951,-437.5 835,-437.5"/>
<text text-anchor="middle" x="893" y="-444.5" font-family="Helvetica,sans-Serif" font-size="10.00">rmap_create_packet</text>
</a>
</g>
</g>
<!-- Node4&#45;&gt;Node7 -->
<g id="edge6" class="edge">
<title>Node4&#45;&gt;Node7</title>
<path fill="none" stroke="midnightblue" d="M605.93,-513.53C646.8,-525.69 724.06,-542.91 786,-523 822.03,-511.42 856.19,-482.57 875.57,-463.93"/>
<polygon fill="midnightblue" stroke="midnightblue" points="878.28,-466.17 882.93,-456.65 873.36,-461.19 878.28,-466.17"/>
</g>
<!-- Node8 -->
<g id="node8" class="node">
<title>Node8</title>
<g id="a_node8"><a xlink:href="rmap_8c_a1def9af549819e7fdbda12af8bdc9c0e.html#a1def9af549819e7fdbda12af8bdc9c0e" target="_top" xlink:title="completely destroys an RMAP packet">
<polygon fill="white" stroke="black" points="667,-228.5 667,-247.5 779,-247.5 779,-228.5 667,-228.5"/>
<text text-anchor="middle" x="723" y="-235.5" font-family="Helvetica,sans-Serif" font-size="10.00">rmap_erase_packet</text>
</a>
</g>
</g>
<!-- Node4&#45;&gt;Node8 -->
<g id="edge7" class="edge">
<title>Node4&#45;&gt;Node8</title>
<path fill="none" stroke="midnightblue" d="M579.72,-494.09C587.09,-462.7 612.97,-363.5 660,-295 671,-278.98 687.29,-264.23 700.41,-253.75"/>
<polygon fill="midnightblue" stroke="midnightblue" points="702.71,-256.4 708.48,-247.51 698.43,-250.86 702.71,-256.4"/>
</g>
<!-- Node9 -->
<g id="node9" class="node">
<title>Node9</title>
<g id="a_node9"><a xlink:href="rmap_8c_aab7e23f061291d39568ad2df700bc777.html#aab7e23f061291d39568ad2df700bc777" target="_top" xlink:title="set an RMAP command">
<polygon fill="white" stroke="black" points="678.5,-684.5 678.5,-703.5 767.5,-703.5 767.5,-684.5 678.5,-684.5"/>
<text text-anchor="middle" x="723" y="-691.5" font-family="Helvetica,sans-Serif" font-size="10.00">rmap_set_cmd</text>
</a>
</g>
</g>
<!-- Node4&#45;&gt;Node9 -->
<g id="edge8" class="edge">
<title>Node4&#45;&gt;Node9</title>
<path fill="none" stroke="midnightblue" d="M579.36,-513.79C585.4,-542.91 607.23,-629.7 660,-675 662.81,-677.42 665.93,-679.52 669.22,-681.36"/>
<polygon fill="midnightblue" stroke="midnightblue" points="667.74,-684.53 678.27,-685.64 670.72,-678.2 667.74,-684.53"/>
</g>
<!-- Node11 -->
<g id="node11" class="node">
<title>Node11</title>
<g id="a_node11"><a xlink:href="rmap_8c_acf641aae92829ae864b6c3d8f94d86e2.html#acf641aae92829ae864b6c3d8f94d86e2" target="_top" xlink:title="set a data address">
<polygon fill="white" stroke="black" points="665,-608.5 665,-627.5 781,-627.5 781,-608.5 665,-608.5"/>
<text text-anchor="middle" x="723" y="-615.5" font-family="Helvetica,sans-Serif" font-size="10.00">rmap_set_data_addr</text>
</a>
</g>
</g>
<!-- Node4&#45;&gt;Node11 -->
<g id="edge10" class="edge">
<title>Node4&#45;&gt;Node11</title>
<path fill="none" stroke="midnightblue" d="M583.24,-513.66C595.11,-532.81 624.29,-575.78 660,-599 663.16,-601.05 666.55,-602.9 670.06,-604.55"/>
<polygon fill="midnightblue" stroke="midnightblue" points="668.98,-607.88 679.56,-608.48 671.66,-601.42 668.98,-607.88"/>
</g>
<!-- Node12 -->
<g id="node12" class="node">
<title>Node12</title>
<g id="a_node12"><a xlink:href="rmap_8c_a6833f065640f652aa1a929309e592f7a.html#a6833f065640f652aa1a929309e592f7a" target="_top" xlink:title="set an RMAP command">
<polygon fill="white" stroke="black" points="668,-570.5 668,-589.5 778,-589.5 778,-570.5 668,-570.5"/>
<text text-anchor="middle" x="723" y="-577.5" font-family="Helvetica,sans-Serif" font-size="10.00">rmap_set_data_len</text>
</a>
</g>
</g>
<!-- Node4&#45;&gt;Node12 -->
<g id="edge11" class="edge">
<title>Node4&#45;&gt;Node12</title>
<path fill="none" stroke="midnightblue" d="M591.04,-513.68C607,-524.82 634.59,-543.22 660,-556 667.78,-559.91 676.36,-563.6 684.6,-566.87"/>
<polygon fill="midnightblue" stroke="midnightblue" points="683.45,-570.17 694.04,-570.48 685.95,-563.64 683.45,-570.17"/>
</g>
<!-- Node13 -->
<g id="node13" class="node">
<title>Node13</title>
<g id="a_node13"><a xlink:href="rmap_8c_a5f0081b9928da5e50fc8b231b57f3a80.html#a5f0081b9928da5e50fc8b231b57f3a80" target="_top" xlink:title="set the destination address path">
<polygon fill="white" stroke="black" points="665,-342.5 665,-361.5 781,-361.5 781,-342.5 665,-342.5"/>
<text text-anchor="middle" x="723" y="-349.5" font-family="Helvetica,sans-Serif" font-size="10.00">rmap_set_dest_path</text>
</a>
</g>
</g>
<!-- Node4&#45;&gt;Node13 -->
<g id="edge12" class="edge">
<title>Node4&#45;&gt;Node13</title>
<path fill="none" stroke="midnightblue" d="M580.76,-494.32C589.52,-469.83 615.88,-405 660,-371 662.34,-369.2 664.85,-367.56 667.48,-366.08"/>
<polygon fill="midnightblue" stroke="midnightblue" points="669.25,-369.11 676.75,-361.62 666.22,-362.81 669.25,-369.11"/>
</g>
<!-- Node15 -->
<g id="node15" class="node">
<title>Node15</title>
<g id="a_node15"><a xlink:href="rmap_8c_a2da8e7b48411d382b54848795f85795d.html#a2da8e7b48411d382b54848795f85795d" target="_top" xlink:title="set the destination (target) logical address">
<polygon fill="white" stroke="black" points="681.5,-494.5 681.5,-513.5 764.5,-513.5 764.5,-494.5 681.5,-494.5"/>
<text text-anchor="middle" x="723" y="-501.5" font-family="Helvetica,sans-Serif" font-size="10.00">rmap_set_dst</text>
</a>
</g>
</g>
<!-- Node4&#45;&gt;Node15 -->
<g id="edge14" class="edge">
<title>Node4&#45;&gt;Node15</title>
<path fill="none" stroke="midnightblue" d="M620.07,-504C636.07,-504 654.41,-504 671.09,-504"/>
<polygon fill="midnightblue" stroke="midnightblue" points="671.22,-507.5 681.22,-504 671.22,-500.5 671.22,-507.5"/>
</g>
<!-- Node16 -->
<g id="node16" class="node">
<title>Node16</title>
<g id="a_node16"><a xlink:href="rmap_8c_a15021c9dfccddc44786dfd37834bcd7e.html#a15021c9dfccddc44786dfd37834bcd7e" target="_top" xlink:title="set the command authorisation key">
<polygon fill="white" stroke="black" points="680.5,-456.5 680.5,-475.5 765.5,-475.5 765.5,-456.5 680.5,-456.5"/>
<text text-anchor="middle" x="723" y="-463.5" font-family="Helvetica,sans-Serif" font-size="10.00">rmap_set_key</text>
</a>
</g>
</g>
<!-- Node4&#45;&gt;Node16 -->
<g id="edge15" class="edge">
<title>Node4&#45;&gt;Node16</title>
<path fill="none" stroke="midnightblue" d="M613.96,-494.41C632.77,-489.46 655.91,-483.38 675.95,-478.11"/>
<polygon fill="midnightblue" stroke="midnightblue" points="677.02,-481.45 685.8,-475.52 675.24,-474.68 677.02,-481.45"/>
</g>
<!-- Node17 -->
<g id="node17" class="node">
<title>Node17</title>
<g id="a_node17"><a xlink:href="rmap_8c_a56c47830e67d01e469231e5e7e1d3a34.html#a56c47830e67d01e469231e5e7e1d3a34" target="_top" xlink:title="set the reply address path">
<polygon fill="white" stroke="black" points="663.5,-304.5 663.5,-323.5 782.5,-323.5 782.5,-304.5 663.5,-304.5"/>
<text text-anchor="middle" x="723" y="-311.5" font-family="Helvetica,sans-Serif" font-size="10.00">rmap_set_reply_path</text>
</a>
</g>
</g>
<!-- Node4&#45;&gt;Node17 -->
<g id="edge16" class="edge">
<title>Node4&#45;&gt;Node17</title>
<path fill="none" stroke="midnightblue" d="M579.36,-494.21C585.4,-465.09 607.23,-378.3 660,-333 661.98,-331.3 664.11,-329.75 666.35,-328.34"/>
<polygon fill="midnightblue" stroke="midnightblue" points="668.2,-331.32 675.41,-323.56 664.93,-325.13 668.2,-331.32"/>
</g>
<!-- Node18 -->
<g id="node18" class="node">
<title>Node18</title>
<g id="a_node18"><a xlink:href="rmap_8c_adae0030440ca4e7ad34622e505acbb2c.html#adae0030440ca4e7ad34622e505acbb2c" target="_top" xlink:title="set the source (initiator) logical address">
<polygon fill="white" stroke="black" points="682,-418.5 682,-437.5 764,-437.5 764,-418.5 682,-418.5"/>
<text text-anchor="middle" x="723" y="-425.5" font-family="Helvetica,sans-Serif" font-size="10.00">rmap_set_src</text>
</a>
</g>
</g>
<!-- Node4&#45;&gt;Node18 -->
<g id="edge18" class="edge">
<title>Node4&#45;&gt;Node18</title>
<path fill="none" stroke="midnightblue" d="M588.82,-494.48C604.1,-482.04 632.58,-460.28 660,-447 664.63,-444.76 669.58,-442.71 674.6,-440.86"/>
<polygon fill="midnightblue" stroke="midnightblue" points="675.92,-444.1 684.24,-437.54 673.65,-437.48 675.92,-444.1"/>
</g>
<!-- Node19 -->
<g id="node19" class="node">
<title>Node19</title>
<g id="a_node19"><a xlink:href="rmap_8c_a7b4c31714493ce6cc19d4aa825ab50aa.html#a7b4c31714493ce6cc19d4aa825ab50aa" target="_top" xlink:title="set an RMAP transaction identifier">
<polygon fill="white" stroke="black" points="678.5,-722.5 678.5,-741.5 767.5,-741.5 767.5,-722.5 678.5,-722.5"/>
<text text-anchor="middle" x="723" y="-729.5" font-family="Helvetica,sans-Serif" font-size="10.00">rmap_set_tr_id</text>
</a>
</g>
</g>
<!-- Node4&#45;&gt;Node19 -->
<g id="edge19" class="edge">
<title>Node4&#45;&gt;Node19</title>
<path fill="none" stroke="midnightblue" d="M578.38,-513.52C581.93,-546.34 598.12,-655.81 660,-713 662.77,-715.56 665.87,-717.77 669.17,-719.69"/>
<polygon fill="midnightblue" stroke="midnightblue" points="667.77,-722.9 678.3,-724.09 670.82,-716.59 667.77,-722.9"/>
</g>
<!-- Node6 -->
<g id="node6" class="node">
<title>Node6</title>
<g id="a_node6"><a xlink:href="rmap_8c_a0ec3c28e83818f02e00d4c79d82d938a.html#a0ec3c28e83818f02e00d4c79d82d938a" target="_top" xlink:title="get the minimum header size given the RMAP instruction">
<polygon fill="white" stroke="black" points="826.5,-532.5 826.5,-551.5 959.5,-551.5 959.5,-532.5 826.5,-532.5"/>
<text text-anchor="middle" x="893" y="-539.5" font-family="Helvetica,sans-Serif" font-size="10.00">rmap_get_min_hdr_size</text>
</a>
</g>
</g>
<!-- Node5&#45;&gt;Node6 -->
<g id="edge5" class="edge">
<title>Node5&#45;&gt;Node6</title>
<path fill="none" stroke="midnightblue" d="M764.42,-646.4C771.83,-643.87 779.33,-640.76 786,-637 823.04,-616.08 858.2,-580.34 877.26,-559.17"/>
<polygon fill="midnightblue" stroke="midnightblue" points="879.96,-561.39 883.96,-551.58 874.72,-556.75 879.96,-561.39"/>
</g>
<!-- Node10 -->
<g id="node10" class="node">
<title>Node10</title>
<g id="a_node10"><a xlink:href="rmap_8c_a667ce871110961f2a611d0244791e20f.html#a667ce871110961f2a611d0244791e20f" target="_top" xlink:title="valiidates a command code">
<polygon fill="white" stroke="black" points="822,-684.5 822,-703.5 964,-703.5 964,-684.5 822,-684.5"/>
<text text-anchor="middle" x="893" y="-691.5" font-family="Helvetica,sans-Serif" font-size="10.00">rmap_validate_cmd_code</text>
</a>
</g>
</g>
<!-- Node9&#45;&gt;Node10 -->
<g id="edge9" class="edge">
<title>Node9&#45;&gt;Node10</title>
<path fill="none" stroke="midnightblue" d="M767.7,-694C781.13,-694 796.36,-694 811.44,-694"/>
<polygon fill="midnightblue" stroke="midnightblue" points="811.83,-697.5 821.83,-694 811.83,-690.5 811.83,-697.5"/>
</g>
<!-- Node14 -->
<g id="node14" class="node">
<title>Node14</title>
<g id="a_node14"><a xlink:href="test__cmp__max__used__bits__list_8c_a7ac38fce3243a7dcf448301ee9ffd392.html#a7ac38fce3243a7dcf448301ee9ffd392" target="_top" xlink:title=" ">
<polygon fill="white" stroke="black" points="868,-304.5 868,-323.5 918,-323.5 918,-304.5 868,-304.5"/>
<text text-anchor="middle" x="893" y="-311.5" font-family="Helvetica,sans-Serif" font-size="10.00">malloc</text>
</a>
</g>
</g>
<!-- Node13&#45;&gt;Node14 -->
<g id="edge13" class="edge">
<title>Node13&#45;&gt;Node14</title>
<path fill="none" stroke="midnightblue" d="M766.39,-342.41C794.71,-336.01 831.47,-327.69 857.9,-321.71"/>
<polygon fill="midnightblue" stroke="midnightblue" points="858.85,-325.09 867.83,-319.47 857.3,-318.26 858.85,-325.09"/>
</g>
<!-- Node17&#45;&gt;Node14 -->
<g id="edge17" class="edge">
<title>Node17&#45;&gt;Node14</title>
<path fill="none" stroke="midnightblue" d="M782.76,-314C807.69,-314 835.89,-314 857.39,-314"/>
<polygon fill="midnightblue" stroke="midnightblue" points="857.67,-317.5 867.67,-314 857.67,-310.5 857.67,-317.5"/>
</g>
<!-- Node20&#45;&gt;Node3 -->
<g id="edge21" class="edge">
<title>Node20&#45;&gt;Node3</title>
<path fill="none" stroke="midnightblue" d="M288.93,-465.41C307.12,-461.61 328.52,-457.14 348.9,-452.89"/>
<polygon fill="midnightblue" stroke="midnightblue" points="349.73,-456.29 358.8,-450.82 348.3,-449.44 349.73,-456.29"/>
</g>
<!-- Node21&#45;&gt;Node3 -->
<g id="edge23" class="edge">
<title>Node21&#45;&gt;Node3</title>
<path fill="none" stroke="midnightblue" d="M323.09,-437C331.57,-437 340.17,-437 348.6,-437"/>
<polygon fill="midnightblue" stroke="midnightblue" points="348.78,-440.5 358.78,-437 348.78,-433.5 348.78,-440.5"/>
</g>
<!-- Node22&#45;&gt;Node3 -->
<g id="edge25" class="edge">
<title>Node22&#45;&gt;Node3</title>
<path fill="none" stroke="midnightblue" d="M288.93,-408.59C307.12,-412.39 328.52,-416.86 348.9,-421.11"/>
<polygon fill="midnightblue" stroke="midnightblue" points="348.3,-424.56 358.8,-423.18 349.73,-417.71 348.3,-424.56"/>
</g>
<!-- Node23&#45;&gt;Node14 -->
<g id="edge27" class="edge">
<title>Node23&#45;&gt;Node14</title>
<path fill="none" stroke="midnightblue" d="M274.64,-258.02C358.36,-260.99 592.58,-270.97 786,-295 810.13,-298 837.09,-302.85 857.79,-306.9"/>
<polygon fill="midnightblue" stroke="midnightblue" points="857.2,-310.36 867.69,-308.88 858.57,-303.49 857.2,-310.36"/>
</g>
<!-- Node24 -->
<g id="node24" class="node">
<title>Node24</title>
<g id="a_node24"><a xlink:href="rdcu__rmap_8c_a95fad3cd9b6bbe562e1a73e3f1c108a8.html#a95fad3cd9b6bbe562e1a73e3f1c108a8" target="_top" xlink:title="submit an rmap command transaction">
<polygon fill="white" stroke="black" points="380,-228.5 380,-247.5 472,-247.5 472,-228.5 380,-228.5"/>
<text text-anchor="middle" x="426" y="-235.5" font-family="Helvetica,sans-Serif" font-size="10.00">rdcu_submit_tx</text>
</a>
</g>
</g>
<!-- Node23&#45;&gt;Node24 -->
<g id="edge28" class="edge">
<title>Node23&#45;&gt;Node24</title>
<path fill="none" stroke="midnightblue" d="M274.7,-253.69C300.78,-250.97 338.36,-247.04 369.42,-243.8"/>
<polygon fill="midnightblue" stroke="midnightblue" points="370.1,-247.25 379.68,-242.73 369.37,-240.29 370.1,-247.25"/>
</g>
<!-- Node35 -->
<g id="node35" class="node">
<title>Node35</title>
<g id="a_node35"><a xlink:href="rdcu__rmap_8c_a36f44335aa66dd49fb4903f7269bc5b1.html#a36f44335aa66dd49fb4903f7269bc5b1" target="_top" xlink:title="grab a slot in the transaction log">
<polygon fill="white" stroke="black" points="370,-190.5 370,-209.5 482,-209.5 482,-190.5 370,-190.5"/>
<text text-anchor="middle" x="426" y="-197.5" font-family="Helvetica,sans-Serif" font-size="10.00">trans_log_grab_slot</text>
</a>
</g>
</g>
<!-- Node23&#45;&gt;Node35 -->
<g id="edge44" class="edge">
<title>Node23&#45;&gt;Node35</title>
<path fill="none" stroke="midnightblue" d="M271.04,-247.5C294.47,-239.63 328.82,-228.28 359,-219 366.21,-216.78 373.89,-214.5 381.36,-212.32"/>
<polygon fill="midnightblue" stroke="midnightblue" points="382.38,-215.67 391.01,-209.53 380.44,-208.94 382.38,-215.67"/>
</g>
<!-- Node25 -->
<g id="node25" class="node">
<title>Node25</title>
<g id="a_node25"><a xlink:href="rdcu__rmap_8c_a1a064554031c2fa2dcb65541e0765c0f.html#a1a064554031c2fa2dcb65541e0765c0f" target="_top" xlink:title="n rmap command transaction">
<polygon fill="white" stroke="black" points="529,-171.5 529,-190.5 624,-190.5 624,-171.5 529,-171.5"/>
<text text-anchor="middle" x="576.5" y="-178.5" font-family="Helvetica,sans-Serif" font-size="10.00">rdcu_process_rx</text>
</a>
</g>
</g>
<!-- Node24&#45;&gt;Node25 -->
<g id="edge29" class="edge">
<title>Node24&#45;&gt;Node25</title>
<path fill="none" stroke="midnightblue" d="M463.98,-228.42C473.52,-225.66 483.72,-222.45 493,-219 511.61,-212.08 531.86,-202.78 547.64,-195.11"/>
<polygon fill="midnightblue" stroke="midnightblue" points="549.41,-198.14 556.84,-190.58 546.32,-191.86 549.41,-198.14"/>
</g>
<!-- Node25&#45;&gt;Node8 -->
<g id="edge32" class="edge">
<title>Node25&#45;&gt;Node8</title>
<path fill="none" stroke="midnightblue" d="M601.3,-190.6C617.76,-197.22 640.19,-206.2 660,-214 668.99,-217.54 678.73,-221.33 687.77,-224.83"/>
<polygon fill="midnightblue" stroke="midnightblue" points="686.65,-228.15 697.24,-228.49 689.17,-221.62 686.65,-228.15"/>
</g>
<!-- Node25&#45;&gt;Node14 -->
<g id="edge30" class="edge">
<title>Node25&#45;&gt;Node14</title>
<path fill="none" stroke="midnightblue" d="M624.07,-182.28C667.88,-185.11 734.29,-193.67 786,-219 824.4,-237.81 859.32,-274.59 877.92,-296.46"/>
<polygon fill="midnightblue" stroke="midnightblue" points="875.35,-298.85 884.43,-304.3 880.73,-294.37 875.35,-298.85"/>
</g>
<!-- Node26 -->
<g id="node26" class="node">
<title>Node26</title>
<g id="a_node26"><a xlink:href="rmap_8c_abf1868ec6873f9f189050cadc7e64a3b.html#abf1868ec6873f9f189050cadc7e64a3b" target="_top" xlink:title="calculate the CRC8 of a given buffer">
<polygon fill="white" stroke="black" points="689,-76.5 689,-95.5 757,-95.5 757,-76.5 689,-76.5"/>
<text text-anchor="middle" x="723" y="-83.5" font-family="Helvetica,sans-Serif" font-size="10.00">rmap_crc8</text>
</a>
</g>
</g>
<!-- Node25&#45;&gt;Node26 -->
<g id="edge31" class="edge">
<title>Node25&#45;&gt;Node26</title>
<path fill="none" stroke="midnightblue" d="M585.37,-171.36C598.95,-155.32 628.41,-123.12 660,-105 665.9,-101.61 672.48,-98.76 679.08,-96.39"/>
<polygon fill="midnightblue" stroke="midnightblue" points="680.27,-99.68 688.69,-93.25 678.09,-93.03 680.27,-99.68"/>
</g>
<!-- Node27 -->
<g id="node27" class="node">
<title>Node27</title>
<g id="a_node27"><a xlink:href="rmap_8c_a5e88a29337404518eceedf9b4af285bf.html#a5e88a29337404518eceedf9b4af285bf" target="_top" xlink:title=" ">
<polygon fill="white" stroke="black" points="675.5,-38.5 675.5,-57.5 770.5,-57.5 770.5,-38.5 675.5,-38.5"/>
<text text-anchor="middle" x="723" y="-45.5" font-family="Helvetica,sans-Serif" font-size="10.00">rmap_parse_pkt</text>
</a>
</g>
</g>
<!-- Node25&#45;&gt;Node27 -->
<g id="edge33" class="edge">
<title>Node25&#45;&gt;Node27</title>
<path fill="none" stroke="midnightblue" d="M581.76,-171.43C591.98,-149.55 620.06,-95.57 660,-67 662.7,-65.07 665.6,-63.33 668.62,-61.76"/>
<polygon fill="midnightblue" stroke="midnightblue" points="670.27,-64.86 677.96,-57.57 667.4,-58.48 670.27,-64.86"/>
</g>
<!-- Node32 -->
<g id="node32" class="node">
<title>Node32</title>
<g id="a_node32"><a xlink:href="rmap_8c_a46d3271304c12df042b57dbebaba67e1.html#a46d3271304c12df042b57dbebaba67e1" target="_top" xlink:title="create an rmap packet from a buffer">
<polygon fill="white" stroke="black" points="660.5,-380.5 660.5,-399.5 785.5,-399.5 785.5,-380.5 660.5,-380.5"/>
<text text-anchor="middle" x="723" y="-387.5" font-family="Helvetica,sans-Serif" font-size="10.00">rmap_pkt_from_buffer</text>
</a>
</g>
</g>
<!-- Node25&#45;&gt;Node32 -->
<g id="edge38" class="edge">
<title>Node25&#45;&gt;Node32</title>
<path fill="none" stroke="midnightblue" d="M578.8,-190.52C583.52,-221.4 602.62,-319.72 660,-371 661.91,-372.71 663.97,-374.26 666.14,-375.67"/>
<polygon fill="midnightblue" stroke="midnightblue" points="664.49,-378.76 674.95,-380.46 667.84,-372.61 664.49,-378.76"/>
</g>
<!-- Node33 -->
<g id="node33" class="node">
<title>Node33</title>
<g id="a_node33"><a xlink:href="rdcu__rmap_8c_acf9b176d8d9b24e9d07711f56aebccc0.html#acf9b176d8d9b24e9d07711f56aebccc0" target="_top" xlink:title="get the local address for a slot">
<polygon fill="white" stroke="black" points="668,-152.5 668,-171.5 778,-171.5 778,-152.5 668,-152.5"/>
<text text-anchor="middle" x="723" y="-159.5" font-family="Helvetica,sans-Serif" font-size="10.00">trans_log_get_addr</text>
</a>
</g>
</g>
<!-- Node25&#45;&gt;Node33 -->
<g id="edge42" class="edge">
<title>Node25&#45;&gt;Node33</title>
<path fill="none" stroke="midnightblue" d="M624.02,-174.88C634.69,-173.48 646.23,-171.96 657.51,-170.48"/>
<polygon fill="midnightblue" stroke="midnightblue" points="658.31,-173.9 667.77,-169.13 657.4,-166.96 658.31,-173.9"/>
</g>
<!-- Node34 -->
<g id="node34" class="node">
<title>Node34</title>
<g id="a_node34"><a xlink:href="rdcu__rmap_8c_a7012f58a1862cf07b00e299d24c199c2.html#a7012f58a1862cf07b00e299d24c199c2" target="_top" xlink:title="release a slot in the transaction log">
<polygon fill="white" stroke="black" points="660,-114.5 660,-133.5 786,-133.5 786,-114.5 660,-114.5"/>
<text text-anchor="middle" x="723" y="-121.5" font-family="Helvetica,sans-Serif" font-size="10.00">trans_log_release_slot</text>
</a>
</g>
</g>
<!-- Node25&#45;&gt;Node34 -->
<g id="edge43" class="edge">
<title>Node25&#45;&gt;Node34</title>
<path fill="none" stroke="midnightblue" d="M596.52,-171.35C613.05,-163.18 637.75,-151.49 660,-143 665.87,-140.76 672.12,-138.6 678.31,-136.58"/>
<polygon fill="midnightblue" stroke="midnightblue" points="679.45,-139.89 687.93,-133.54 677.34,-133.22 679.45,-139.89"/>
</g>
<!-- Node28 -->
<g id="node28" class="node">
<title>Node28</title>
<g id="a_node28"><a xlink:href="rmap_8c_abb4e19c17c7223212c3904bc4c0189d2.html#abb4e19c17c7223212c3904bc4c0189d2" target="_top" xlink:title=" ">
<polygon fill="white" stroke="black" points="837.5,-76.5 837.5,-95.5 948.5,-95.5 948.5,-76.5 837.5,-76.5"/>
<text text-anchor="middle" x="893" y="-83.5" font-family="Helvetica,sans-Serif" font-size="10.00">rmap_check_status</text>
</a>
</g>
</g>
<!-- Node27&#45;&gt;Node28 -->
<g id="edge34" class="edge">
<title>Node27&#45;&gt;Node28</title>
<path fill="none" stroke="midnightblue" d="M766.39,-57.59C788.76,-62.65 816.4,-68.9 840.05,-74.25"/>
<polygon fill="midnightblue" stroke="midnightblue" points="839.39,-77.69 849.91,-76.48 840.93,-70.86 839.39,-77.69"/>
</g>
<!-- Node29 -->
<g id="node29" class="node">
<title>Node29</title>
<g id="a_node29"><a xlink:href="rmap_8c_a20aa8b91dfb1bbad819759f97b853054.html#a20aa8b91dfb1bbad819759f97b853054" target="_top" xlink:title=" ">
<polygon fill="white" stroke="black" points="832,-38.5 832,-57.5 954,-57.5 954,-38.5 832,-38.5"/>
<text text-anchor="middle" x="893" y="-45.5" font-family="Helvetica,sans-Serif" font-size="10.00">rmap_parse_cmd_pkt</text>
</a>
</g>
</g>
<!-- Node27&#45;&gt;Node29 -->
<g id="edge35" class="edge">
<title>Node27&#45;&gt;Node29</title>
<path fill="none" stroke="midnightblue" d="M770.8,-48C786.62,-48 804.66,-48 821.89,-48"/>
<polygon fill="midnightblue" stroke="midnightblue" points="821.92,-51.5 831.92,-48 821.92,-44.5 821.92,-51.5"/>
</g>
<!-- Node30 -->
<g id="node30" class="node">
<title>Node30</title>
<g id="a_node30"><a xlink:href="rmap_8c_adef42426b46ee5ad5176ee76cff35c22.html#adef42426b46ee5ad5176ee76cff35c22" target="_top" xlink:title=" ">
<polygon fill="white" stroke="black" points="830.5,-0.5 830.5,-19.5 955.5,-19.5 955.5,-0.5 830.5,-0.5"/>
<text text-anchor="middle" x="893" y="-7.5" font-family="Helvetica,sans-Serif" font-size="10.00">rmap_parse_reply_pkt</text>
</a>
</g>
</g>
<!-- Node27&#45;&gt;Node30 -->
<g id="edge36" class="edge">
<title>Node27&#45;&gt;Node30</title>
<path fill="none" stroke="midnightblue" d="M766.39,-38.41C788.76,-33.35 816.4,-27.1 840.05,-21.75"/>
<polygon fill="midnightblue" stroke="midnightblue" points="840.93,-25.14 849.91,-19.52 839.39,-18.31 840.93,-25.14"/>
</g>
<!-- Node31 -->
<g id="node31" class="node">
<title>Node31</title>
<g id="a_node31"><a xlink:href="rmap_8c_a2ff278a5e094a9f585865d4d838e0e0e.html#a2ff278a5e094a9f585865d4d838e0e0e" target="_top" xlink:title=" ">
<polygon fill="white" stroke="black" points="1000,-0.5 1000,-19.5 1142,-19.5 1142,-0.5 1000,-0.5"/>
<text text-anchor="middle" x="1071" y="-7.5" font-family="Helvetica,sans-Serif" font-size="10.00">rmap_process_read_reply</text>
</a>
</g>
</g>
<!-- Node30&#45;&gt;Node31 -->
<g id="edge37" class="edge">
<title>Node30&#45;&gt;Node31</title>
<path fill="none" stroke="midnightblue" d="M955.56,-10C966.6,-10 978.25,-10 989.73,-10"/>
<polygon fill="midnightblue" stroke="midnightblue" points="989.74,-13.5 999.74,-10 989.74,-6.5 989.74,-13.5"/>
</g>
<!-- Node32&#45;&gt;Node6 -->
<g id="edge41" class="edge">
<title>Node32&#45;&gt;Node6</title>
<path fill="none" stroke="midnightblue" d="M768.9,-399.53C775,-402 780.9,-405.1 786,-409 809.81,-427.19 803.78,-442.22 822,-466 838.39,-487.38 859.64,-509.84 874.41,-524.74"/>
<polygon fill="midnightblue" stroke="midnightblue" points="872.32,-527.61 881.87,-532.19 877.27,-522.65 872.32,-527.61"/>
</g>
<!-- Node32&#45;&gt;Node7 -->
<g id="edge40" class="edge">
<title>Node32&#45;&gt;Node7</title>
<path fill="none" stroke="midnightblue" d="M756.27,-399.58C765.87,-402.51 776.38,-405.81 786,-409 809.76,-416.89 836.27,-426.4 856.83,-433.93"/>
<polygon fill="midnightblue" stroke="midnightblue" points="855.82,-437.28 866.41,-437.45 858.23,-430.71 855.82,-437.28"/>
</g>
<!-- Node32&#45;&gt;Node14 -->
<g id="edge39" class="edge">
<title>Node32&#45;&gt;Node14</title>
<path fill="none" stroke="midnightblue" d="M759.51,-380.43C768.29,-377.7 777.58,-374.51 786,-371 815.06,-358.87 846.64,-341.27 867.7,-328.84"/>
<polygon fill="midnightblue" stroke="midnightblue" points="869.52,-331.83 876.32,-323.7 865.94,-325.82 869.52,-331.83"/>
</g>
</g>
</svg>
        <g id="navigator" transform="translate(0 0)" fill="#404254">
                <rect fill="#f2f5e9" fill-opacity="0.5" stroke="#606060" stroke-width=".5" x="0" y="0" width="60" height="60"/>
                <use id="zoomplus" xlink:href="#zoomPlus" x="17" y="9" onmousedown="handleZoom(evt,'in')"/>
                <use id="zoomminus" xlink:href="#zoomMin" x="42" y="9" onmousedown="handleZoom(evt,'out')"/>
                <use id="reset" xlink:href="#resetDef" x="30" y="36" onmousedown="handleReset()"/>
                <g id="arrowUp" xlink:href="#dirArrow" transform="translate(30 24)" onmousedown="handlePan(0,-1)">
                  <use xlink:href="#rim" fill="#404040">
                        <set attributeName="fill" to="#808080" begin="arrowUp.mouseover" end="arrowUp.mouseout"/>
                  </use>
                  <path fill="none" stroke="white" stroke-width="1.5" d="M0,-3.0v7 M-2.5,-0.5L0,-3.0L2.5,-0.5"/>
                </g>
                <g id="arrowRight" xlink:href="#dirArrow" transform="rotate(90) translate(36 -43)" onmousedown="handlePan(1,0)">
                  <use xlink:href="#rim" fill="#404040">
                        <set attributeName="fill" to="#808080" begin="arrowRight.mouseover" end="arrowRight.mouseout"/>
                  </use>
                  <path fill="none" stroke="white" stroke-width="1.5" d="M0,-3.0v7 M-2.5,-0.5L0,-3.0L2.5,-0.5"/>
                </g>
                <g id="arrowDown" xlink:href="#dirArrow" transform="rotate(180) translate(-30 -48)" onmousedown="handlePan(0,1)">
                  <use xlink:href="#rim" fill="#404040">
                        <set attributeName="fill" to="#808080" begin="arrowDown.mouseover" end="arrowDown.mouseout"/>
                  </use>
                  <path fill="none" stroke="white" stroke-width="1.5" d="M0,-3.0v7 M-2.5,-0.5L0,-3.0L2.5,-0.5"/>
                </g>
                <g id="arrowLeft" xlink:href="#dirArrow" transform="rotate(270) translate(-36 17)" onmousedown="handlePan(-1,0)">
                  <use xlink:href="#rim" fill="#404040">
                        <set attributeName="fill" to="#808080" begin="arrowLeft.mouseover" end="arrowLeft.mouseout"/>
                  </use>
                  <path fill="none" stroke="white" stroke-width="1.5" d="M0,-3.0v7 M-2.5,-0.5L0,-3.0L2.5,-0.5"/>
                </g>
        </g>
        <svg viewBox="0 0 15 15" width="100%" height="30px" preserveAspectRatio="xMaxYMin meet">
         <g id="arrow_out" transform="scale(0.3 0.3)">
          <a xlink:href="rdcu__ctrl_8c_a477c7702d240d6cfe815e26ee39598e2_a477c7702d240d6cfe815e26ee39598e2_cgraph_org.svg" target="_base">
           <rect id="button" ry="5" rx="5" y="6" x="6" height="38" width="38"
                fill="#f2f5e9" fill-opacity="0.5" stroke="#606060" stroke-width="1.0"/>
           <path id="arrow"
             d="M 11.500037,31.436501 C 11.940474,20.09759 22.043105,11.32322 32.158766,21.979434 L 37.068811,17.246167 C 37.068811,17.246167 37.088388,32 37.088388,32 L 22.160133,31.978069 C 22.160133,31.978069 26.997745,27.140456 26.997745,27.140456 C 18.528582,18.264221 13.291696,25.230495 11.500037,31.436501 z"
             style="fill:#404040;"/>
          </a>
         </g>
        </svg>
</svg>
