<?xml version="1.0" encoding="UTF-8" standalone="no"?>
<!DOCTYPE svg PUBLIC "-//W3C//DTD SVG 1.1//EN"
 "http://www.w3.org/Graphics/SVG/1.1/DTD/svg11.dtd">
<!-- Generated by graphviz version 2.43.0 (0)
 -->
<!-- Title: rdcu_sync_data Pages: 1 -->
<!--zoomable 257 -->
<svg id="main" version="1.1" xmlns="http://www.w3.org/2000/svg" xmlns:xlink="http://www.w3.org/1999/xlink" xml:space="preserve" onload="init(evt)">
<style type="text/css"><![CDATA[
.edge:hover path { stroke: red; }
.edge:hover polygon { stroke: red; fill: red; }
]]></style>
<script type="text/javascript"><![CDATA[
var edges = document.getElementsByTagName('g');
if (edges && edges.length) {
  for (var i=0;i<edges.length;i++) {
    if (edges[i].id.substr(0,4)=='edge') {
      edges[i].setAttribute('class','edge');
    }
  }
}
]]></script>
        <defs>
                <circle id="rim" cx="0" cy="0" r="7"/>
                <circle id="rim2" cx="0" cy="0" r="3.5"/>
                <g id="zoomPlus">
                        <use xlink:href="#rim" fill="#404040">
                                <set attributeName="fill" to="#808080" begin="zoomplus.mouseover" end="zoomplus.mouseout"/>
                        </use>
                        <path d="M-4,0h8M0,-4v8" fill="none" stroke="white" stroke-width="1.5" pointer-events="none"/>
                </g>
                <g id="zoomMin">
                        <use xlink:href="#rim" fill="#404040">
                                <set attributeName="fill" to="#808080" begin="zoomminus.mouseover" end="zoomminus.mouseout"/>
                        </use>
                        <path d="M-4,0h8" fill="none" stroke="white" stroke-width="1.5" pointer-events="none"/>
                </g>
                <g id="dirArrow">
                        <path fill="none" stroke="white" stroke-width="1.5" d="M0,-3.0v7 M-2.5,-0.5L0,-3.0L2.5,-0.5"/>
                </g>
               <g id="resetDef">
                       <use xlink:href="#rim2" fill="#404040">
                               <set attributeName="fill" to="#808080" begin="reset.mouseover" end="reset.mouseout"/>
                       </use>
               </g>
        </defs>

<script type="text/javascript">
var viewWidth = 888;
var viewHeight = 257;
var sectionId = 'dynsection-0';
</script>
<script xlink:href="svgpan.js"/>
<svg id="graph" class="graph">
<g id="viewport">
<title>rdcu_sync_data</title>
<polygon fill="white" stroke="transparent" points="-4,4 -4,-252.65 884,-252.65 884,4 -4,4"/>
<!-- Node1 -->
<g id="node1" class="node">
<title>Node1</title>
<g id="a_node1"><a xlink:title="submit a data sync command">
<polygon fill="#bfbfbf" stroke="black" points="0,-152.5 0,-171.5 92,-171.5 92,-152.5 0,-152.5"/>
<text text-anchor="middle" x="46" y="-159.5" font-family="Helvetica,sans-Serif" font-size="10.00">rdcu_sync_data</text>
</a>
</g>
</g>
<!-- Node2 -->
<g id="node2" class="node">
<title>Node2</title>
<g id="a_node2"><a xlink:href="test__cmp__max__used__bits__list_8c_a7ac38fce3243a7dcf448301ee9ffd392.html#a7ac38fce3243a7dcf448301ee9ffd392" target="_top" xlink:title=" ">
<polygon fill="white" stroke="black" points="610.5,-228.5 610.5,-247.5 660.5,-247.5 660.5,-228.5 610.5,-228.5"/>
<text text-anchor="middle" x="635.5" y="-235.5" font-family="Helvetica,sans-Serif" font-size="10.00">malloc</text>
</a>
</g>
</g>
<!-- Node1&#45;&gt;Node2 -->
<g id="edge1" class="edge">
<title>Node1&#45;&gt;Node2</title>
<path fill="none" stroke="midnightblue" d="M77.89,-171.63C139.64,-190.31 283.05,-230.9 407,-245 462.64,-251.33 477.03,-246.93 533,-245 555.45,-244.23 580.63,-242.5 600.3,-240.95"/>
<polygon fill="midnightblue" stroke="midnightblue" points="600.64,-244.43 610.32,-240.14 600.08,-237.45 600.64,-244.43"/>
</g>
<!-- Node3 -->
<g id="node3" class="node">
<title>Node3</title>
<g id="a_node3"><a xlink:href="rdcu__rmap_8c_a1a064554031c2fa2dcb65541e0765c0f.html#a1a064554031c2fa2dcb65541e0765c0f" target="_top" xlink:title="n rmap command transaction">
<polygon fill="white" stroke="black" points="276,-133.5 276,-152.5 371,-152.5 371,-133.5 276,-133.5"/>
<text text-anchor="middle" x="323.5" y="-140.5" font-family="Helvetica,sans-Serif" font-size="10.00">rdcu_process_rx</text>
</a>
</g>
</g>
<!-- Node1&#45;&gt;Node3 -->
<g id="edge2" class="edge">
<title>Node1&#45;&gt;Node3</title>
<path fill="none" stroke="midnightblue" d="M92.01,-164.87C131.23,-166.68 189.56,-167.73 240,-162 252.91,-160.53 266.73,-157.81 279.31,-154.88"/>
<polygon fill="midnightblue" stroke="midnightblue" points="280.19,-158.27 289.08,-152.51 278.54,-151.47 280.19,-158.27"/>
</g>
<!-- Node16 -->
<g id="node16" class="node">
<title>Node16</title>
<g id="a_node16"><a xlink:href="rdcu__rmap_8c_a95fad3cd9b6bbe562e1a73e3f1c108a8.html#a95fad3cd9b6bbe562e1a73e3f1c108a8" target="_top" xlink:title="submit an rmap command transaction">
<polygon fill="white" stroke="black" points="138,-133.5 138,-152.5 230,-152.5 230,-133.5 138,-133.5"/>
<text text-anchor="middle" x="184" y="-140.5" font-family="Helvetica,sans-Serif" font-size="10.00">rdcu_submit_tx</text>
</a>
</g>
</g>
<!-- Node1&#45;&gt;Node16 -->
<g id="edge17" class="edge">
<title>Node1&#45;&gt;Node16</title>
<path fill="none" stroke="midnightblue" d="M92.29,-155.67C103.64,-154.09 115.95,-152.37 127.73,-150.72"/>
<polygon fill="midnightblue" stroke="midnightblue" points="128.49,-154.15 137.91,-149.3 127.52,-147.22 128.49,-154.15"/>
</g>
<!-- Node17 -->
<g id="node17" class="node">
<title>Node17</title>
<g id="a_node17"><a xlink:href="rdcu__rmap_8c_a36f44335aa66dd49fb4903f7269bc5b1.html#a36f44335aa66dd49fb4903f7269bc5b1" target="_top" xlink:title="grab a slot in the transaction log">
<polygon fill="white" stroke="black" points="128,-95.5 128,-114.5 240,-114.5 240,-95.5 128,-95.5"/>
<text text-anchor="middle" x="184" y="-102.5" font-family="Helvetica,sans-Serif" font-size="10.00">trans_log_grab_slot</text>
</a>
</g>
</g>
<!-- Node1&#45;&gt;Node17 -->
<g id="edge19" class="edge">
<title>Node1&#45;&gt;Node17</title>
<path fill="none" stroke="midnightblue" d="M66.06,-152.36C82.31,-144.3 106.41,-132.76 128,-124 133.09,-121.93 138.5,-119.89 143.86,-117.95"/>
<polygon fill="midnightblue" stroke="midnightblue" points="145.12,-121.21 153.39,-114.59 142.79,-114.61 145.12,-121.21"/>
</g>
<!-- Node3&#45;&gt;Node2 -->
<g id="edge3" class="edge">
<title>Node3&#45;&gt;Node2</title>
<path fill="none" stroke="midnightblue" d="M331.37,-152.58C344.09,-169.46 373.12,-204.12 407,-219 470.8,-247.02 554.26,-245.52 600.29,-241.82"/>
<polygon fill="midnightblue" stroke="midnightblue" points="600.69,-245.3 610.34,-240.93 600.07,-238.33 600.69,-245.3"/>
</g>
<!-- Node4 -->
<g id="node4" class="node">
<title>Node4</title>
<g id="a_node4"><a xlink:href="rmap_8c_abf1868ec6873f9f189050cadc7e64a3b.html#abf1868ec6873f9f189050cadc7e64a3b" target="_top" xlink:title="calculate the CRC8 of a given buffer">
<polygon fill="white" stroke="black" points="436,-152.5 436,-171.5 504,-171.5 504,-152.5 436,-152.5"/>
<text text-anchor="middle" x="470" y="-159.5" font-family="Helvetica,sans-Serif" font-size="10.00">rmap_crc8</text>
</a>
</g>
</g>
<!-- Node3&#45;&gt;Node4 -->
<g id="edge4" class="edge">
<title>Node3&#45;&gt;Node4</title>
<path fill="none" stroke="midnightblue" d="M371.02,-149.12C388.51,-151.42 408.31,-154.02 425.52,-156.28"/>
<polygon fill="midnightblue" stroke="midnightblue" points="425.48,-159.81 435.85,-157.64 426.39,-152.87 425.48,-159.81"/>
</g>
<!-- Node5 -->
<g id="node5" class="node">
<title>Node5</title>
<g id="a_node5"><a xlink:href="rmap_8c_a1def9af549819e7fdbda12af8bdc9c0e.html#a1def9af549819e7fdbda12af8bdc9c0e" target="_top" xlink:title="completely destroys an RMAP packet">
<polygon fill="white" stroke="black" points="414,-114.5 414,-133.5 526,-133.5 526,-114.5 414,-114.5"/>
<text text-anchor="middle" x="470" y="-121.5" font-family="Helvetica,sans-Serif" font-size="10.00">rmap_erase_packet</text>
</a>
</g>
</g>
<!-- Node3&#45;&gt;Node5 -->
<g id="edge5" class="edge">
<title>Node3&#45;&gt;Node5</title>
<path fill="none" stroke="midnightblue" d="M371.02,-136.88C381.44,-135.51 392.68,-134.03 403.71,-132.58"/>
<polygon fill="midnightblue" stroke="midnightblue" points="404.29,-136.04 413.74,-131.27 403.37,-129.1 404.29,-136.04"/>
</g>
<!-- Node6 -->
<g id="node6" class="node">
<title>Node6</title>
<g id="a_node6"><a xlink:href="rmap_8c_a5e88a29337404518eceedf9b4af285bf.html#a5e88a29337404518eceedf9b4af285bf" target="_top" xlink:title=" ">
<polygon fill="white" stroke="black" points="422.5,-76.5 422.5,-95.5 517.5,-95.5 517.5,-76.5 422.5,-76.5"/>
<text text-anchor="middle" x="470" y="-83.5" font-family="Helvetica,sans-Serif" font-size="10.00">rmap_parse_pkt</text>
</a>
</g>
</g>
<!-- Node3&#45;&gt;Node6 -->
<g id="edge6" class="edge">
<title>Node3&#45;&gt;Node6</title>
<path fill="none" stroke="midnightblue" d="M343.52,-133.35C360.05,-125.18 384.75,-113.49 407,-105 412.87,-102.76 419.12,-100.6 425.31,-98.58"/>
<polygon fill="midnightblue" stroke="midnightblue" points="426.45,-101.89 434.93,-95.54 424.34,-95.22 426.45,-101.89"/>
</g>
<!-- Node11 -->
<g id="node11" class="node">
<title>Node11</title>
<g id="a_node11"><a xlink:href="rmap_8c_a46d3271304c12df042b57dbebaba67e1.html#a46d3271304c12df042b57dbebaba67e1" target="_top" xlink:title="create an rmap packet from a buffer">
<polygon fill="white" stroke="black" points="407.5,-190.5 407.5,-209.5 532.5,-209.5 532.5,-190.5 407.5,-190.5"/>
<text text-anchor="middle" x="470" y="-197.5" font-family="Helvetica,sans-Serif" font-size="10.00">rmap_pkt_from_buffer</text>
</a>
</g>
</g>
<!-- Node3&#45;&gt;Node11 -->
<g id="edge11" class="edge">
<title>Node3&#45;&gt;Node11</title>
<path fill="none" stroke="midnightblue" d="M343.52,-152.65C360.05,-160.82 384.75,-172.51 407,-181 412.87,-183.24 419.12,-185.4 425.31,-187.42"/>
<polygon fill="midnightblue" stroke="midnightblue" points="424.34,-190.78 434.93,-190.46 426.45,-184.11 424.34,-190.78"/>
</g>
<!-- Node14 -->
<g id="node14" class="node">
<title>Node14</title>
<g id="a_node14"><a xlink:href="rdcu__rmap_8c_acf9b176d8d9b24e9d07711f56aebccc0.html#acf9b176d8d9b24e9d07711f56aebccc0" target="_top" xlink:title="get the local address for a slot">
<polygon fill="white" stroke="black" points="415,-38.5 415,-57.5 525,-57.5 525,-38.5 415,-38.5"/>
<text text-anchor="middle" x="470" y="-45.5" font-family="Helvetica,sans-Serif" font-size="10.00">trans_log_get_addr</text>
</a>
</g>
</g>
<!-- Node3&#45;&gt;Node14 -->
<g id="edge15" class="edge">
<title>Node3&#45;&gt;Node14</title>
<path fill="none" stroke="midnightblue" d="M332.37,-133.36C345.95,-117.32 375.41,-85.12 407,-67 410.74,-64.86 414.74,-62.93 418.85,-61.2"/>
<polygon fill="midnightblue" stroke="midnightblue" points="420.43,-64.34 428.54,-57.53 417.95,-57.8 420.43,-64.34"/>
</g>
<!-- Node15 -->
<g id="node15" class="node">
<title>Node15</title>
<g id="a_node15"><a xlink:href="rdcu__rmap_8c_a7012f58a1862cf07b00e299d24c199c2.html#a7012f58a1862cf07b00e299d24c199c2" target="_top" xlink:title="release a slot in the transaction log">
<polygon fill="white" stroke="black" points="407,-0.5 407,-19.5 533,-19.5 533,-0.5 407,-0.5"/>
<text text-anchor="middle" x="470" y="-7.5" font-family="Helvetica,sans-Serif" font-size="10.00">trans_log_release_slot</text>
</a>
</g>
</g>
<!-- Node3&#45;&gt;Node15 -->
<g id="edge16" class="edge">
<title>Node3&#45;&gt;Node15</title>
<path fill="none" stroke="midnightblue" d="M328.76,-133.43C338.98,-111.55 367.06,-57.57 407,-29 409.7,-27.07 412.6,-25.33 415.62,-23.76"/>
<polygon fill="midnightblue" stroke="midnightblue" points="417.27,-26.86 424.96,-19.57 414.4,-20.48 417.27,-26.86"/>
</g>
<!-- Node7 -->
<g id="node7" class="node">
<title>Node7</title>
<g id="a_node7"><a xlink:href="rmap_8c_abb4e19c17c7223212c3904bc4c0189d2.html#abb4e19c17c7223212c3904bc4c0189d2" target="_top" xlink:title=" ">
<polygon fill="white" stroke="black" points="580,-114.5 580,-133.5 691,-133.5 691,-114.5 580,-114.5"/>
<text text-anchor="middle" x="635.5" y="-121.5" font-family="Helvetica,sans-Serif" font-size="10.00">rmap_check_status</text>
</a>
</g>
</g>
<!-- Node6&#45;&gt;Node7 -->
<g id="edge7" class="edge">
<title>Node6&#45;&gt;Node7</title>
<path fill="none" stroke="midnightblue" d="M512.26,-95.59C533.93,-100.63 560.68,-106.84 583.63,-112.18"/>
<polygon fill="midnightblue" stroke="midnightblue" points="583.01,-115.63 593.54,-114.48 584.59,-108.81 583.01,-115.63"/>
</g>
<!-- Node8 -->
<g id="node8" class="node">
<title>Node8</title>
<g id="a_node8"><a xlink:href="rmap_8c_a20aa8b91dfb1bbad819759f97b853054.html#a20aa8b91dfb1bbad819759f97b853054" target="_top" xlink:title=" ">
<polygon fill="white" stroke="black" points="574.5,-76.5 574.5,-95.5 696.5,-95.5 696.5,-76.5 574.5,-76.5"/>
<text text-anchor="middle" x="635.5" y="-83.5" font-family="Helvetica,sans-Serif" font-size="10.00">rmap_parse_cmd_pkt</text>
</a>
</g>
</g>
<!-- Node6&#45;&gt;Node8 -->
<g id="edge8" class="edge">
<title>Node6&#45;&gt;Node8</title>
<path fill="none" stroke="midnightblue" d="M517.85,-86C532.33,-86 548.6,-86 564.29,-86"/>
<polygon fill="midnightblue" stroke="midnightblue" points="564.5,-89.5 574.5,-86 564.5,-82.5 564.5,-89.5"/>
</g>
<!-- Node9 -->
<g id="node9" class="node">
<title>Node9</title>
<g id="a_node9"><a xlink:href="rmap_8c_adef42426b46ee5ad5176ee76cff35c22.html#adef42426b46ee5ad5176ee76cff35c22" target="_top" xlink:title=" ">
<polygon fill="white" stroke="black" points="573,-38.5 573,-57.5 698,-57.5 698,-38.5 573,-38.5"/>
<text text-anchor="middle" x="635.5" y="-45.5" font-family="Helvetica,sans-Serif" font-size="10.00">rmap_parse_reply_pkt</text>
</a>
</g>
</g>
<!-- Node6&#45;&gt;Node9 -->
<g id="edge9" class="edge">
<title>Node6&#45;&gt;Node9</title>
<path fill="none" stroke="midnightblue" d="M512.26,-76.41C533.93,-71.37 560.68,-65.16 583.63,-59.82"/>
<polygon fill="midnightblue" stroke="midnightblue" points="584.59,-63.19 593.54,-57.52 583.01,-56.37 584.59,-63.19"/>
</g>
<!-- Node10 -->
<g id="node10" class="node">
<title>Node10</title>
<g id="a_node10"><a xlink:href="rmap_8c_a2ff278a5e094a9f585865d4d838e0e0e.html#a2ff278a5e094a9f585865d4d838e0e0e" target="_top" xlink:title=" ">
<polygon fill="white" stroke="black" points="738,-38.5 738,-57.5 880,-57.5 880,-38.5 738,-38.5"/>
<text text-anchor="middle" x="809" y="-45.5" font-family="Helvetica,sans-Serif" font-size="10.00">rmap_process_read_reply</text>
</a>
</g>
</g>
<!-- Node9&#45;&gt;Node10 -->
<g id="edge10" class="edge">
<title>Node9&#45;&gt;Node10</title>
<path fill="none" stroke="midnightblue" d="M698.42,-48C707.89,-48 717.78,-48 727.58,-48"/>
<polygon fill="midnightblue" stroke="midnightblue" points="727.73,-51.5 737.73,-48 727.73,-44.5 727.73,-51.5"/>
</g>
<!-- Node11&#45;&gt;Node2 -->
<g id="edge12" class="edge">
<title>Node11&#45;&gt;Node2</title>
<path fill="none" stroke="midnightblue" d="M512.26,-209.59C539.36,-215.89 574.41,-224.04 600.03,-229.99"/>
<polygon fill="midnightblue" stroke="midnightblue" points="599.5,-233.46 610.03,-232.31 601.09,-226.64 599.5,-233.46"/>
</g>
<!-- Node12 -->
<g id="node12" class="node">
<title>Node12</title>
<g id="a_node12"><a xlink:href="rmap_8c_aba944cf978de0b264ea5bb3a784bce0f.html#aba944cf978de0b264ea5bb3a784bce0f" target="_top" xlink:title="create an RMAP packet and set defaults">
<polygon fill="white" stroke="black" points="577.5,-190.5 577.5,-209.5 693.5,-209.5 693.5,-190.5 577.5,-190.5"/>
<text text-anchor="middle" x="635.5" y="-197.5" font-family="Helvetica,sans-Serif" font-size="10.00">rmap_create_packet</text>
</a>
</g>
</g>
<!-- Node11&#45;&gt;Node12 -->
<g id="edge13" class="edge">
<title>Node11&#45;&gt;Node12</title>
<path fill="none" stroke="midnightblue" d="M532.81,-200C544.03,-200 555.78,-200 567.14,-200"/>
<polygon fill="midnightblue" stroke="midnightblue" points="567.45,-203.5 577.45,-200 567.45,-196.5 567.45,-203.5"/>
</g>
<!-- Node13 -->
<g id="node13" class="node">
<title>Node13</title>
<g id="a_node13"><a xlink:href="rmap_8c_a0ec3c28e83818f02e00d4c79d82d938a.html#a0ec3c28e83818f02e00d4c79d82d938a" target="_top" xlink:title="get the minimum header size given the RMAP instruction">
<polygon fill="white" stroke="black" points="569,-152.5 569,-171.5 702,-171.5 702,-152.5 569,-152.5"/>
<text text-anchor="middle" x="635.5" y="-159.5" font-family="Helvetica,sans-Serif" font-size="10.00">rmap_get_min_hdr_size</text>
</a>
</g>
</g>
<!-- Node11&#45;&gt;Node13 -->
<g id="edge14" class="edge">
<title>Node11&#45;&gt;Node13</title>
<path fill="none" stroke="midnightblue" d="M512.26,-190.41C533.93,-185.37 560.68,-179.16 583.63,-173.82"/>
<polygon fill="midnightblue" stroke="midnightblue" points="584.59,-177.19 593.54,-171.52 583.01,-170.37 584.59,-177.19"/>
</g>
<!-- Node16&#45;&gt;Node3 -->
<g id="edge18" class="edge">
<title>Node16&#45;&gt;Node3</title>
<path fill="none" stroke="midnightblue" d="M230.02,-143C241.41,-143 253.79,-143 265.68,-143"/>
<polygon fill="midnightblue" stroke="midnightblue" points="265.96,-146.5 275.96,-143 265.96,-139.5 265.96,-146.5"/>
</g>
</g>
</svg>
        <g id="navigator" transform="translate(0 0)" fill="#404254">
                <rect fill="#f2f5e9" fill-opacity="0.5" stroke="#606060" stroke-width=".5" x="0" y="0" width="60" height="60"/>
                <use id="zoomplus" xlink:href="#zoomPlus" x="17" y="9" onmousedown="handleZoom(evt,'in')"/>
                <use id="zoomminus" xlink:href="#zoomMin" x="42" y="9" onmousedown="handleZoom(evt,'out')"/>
                <use id="reset" xlink:href="#resetDef" x="30" y="36" onmousedown="handleReset()"/>
                <g id="arrowUp" xlink:href="#dirArrow" transform="translate(30 24)" onmousedown="handlePan(0,-1)">
                  <use xlink:href="#rim" fill="#404040">
                        <set attributeName="fill" to="#808080" begin="arrowUp.mouseover" end="arrowUp.mouseout"/>
                  </use>
                  <path fill="none" stroke="white" stroke-width="1.5" d="M0,-3.0v7 M-2.5,-0.5L0,-3.0L2.5,-0.5"/>
                </g>
                <g id="arrowRight" xlink:href="#dirArrow" transform="rotate(90) translate(36 -43)" onmousedown="handlePan(1,0)">
                  <use xlink:href="#rim" fill="#404040">
                        <set attributeName="fill" to="#808080" begin="arrowRight.mouseover" end="arrowRight.mouseout"/>
                  </use>
                  <path fill="none" stroke="white" stroke-width="1.5" d="M0,-3.0v7 M-2.5,-0.5L0,-3.0L2.5,-0.5"/>
                </g>
                <g id="arrowDown" xlink:href="#dirArrow" transform="rotate(180) translate(-30 -48)" onmousedown="handlePan(0,1)">
                  <use xlink:href="#rim" fill="#404040">
                        <set attributeName="fill" to="#808080" begin="arrowDown.mouseover" end="arrowDown.mouseout"/>
                  </use>
                  <path fill="none" stroke="white" stroke-width="1.5" d="M0,-3.0v7 M-2.5,-0.5L0,-3.0L2.5,-0.5"/>
                </g>
                <g id="arrowLeft" xlink:href="#dirArrow" transform="rotate(270) translate(-36 17)" onmousedown="handlePan(-1,0)">
                  <use xlink:href="#rim" fill="#404040">
                        <set attributeName="fill" to="#808080" begin="arrowLeft.mouseover" end="arrowLeft.mouseout"/>
                  </use>
                  <path fill="none" stroke="white" stroke-width="1.5" d="M0,-3.0v7 M-2.5,-0.5L0,-3.0L2.5,-0.5"/>
                </g>
        </g>
        <svg viewBox="0 0 15 15" width="100%" height="30px" preserveAspectRatio="xMaxYMin meet">
         <g id="arrow_out" transform="scale(0.3 0.3)">
          <a xlink:href="rdcu__rmap_8c_a9494bec87a3b44e5a6bb06a76193806e_a9494bec87a3b44e5a6bb06a76193806e_cgraph_org.svg" target="_base">
           <rect id="button" ry="5" rx="5" y="6" x="6" height="38" width="38"
                fill="#f2f5e9" fill-opacity="0.5" stroke="#606060" stroke-width="1.0"/>
           <path id="arrow"
             d="M 11.500037,31.436501 C 11.940474,20.09759 22.043105,11.32322 32.158766,21.979434 L 37.068811,17.246167 C 37.068811,17.246167 37.088388,32 37.088388,32 L 22.160133,31.978069 C 22.160133,31.978069 26.997745,27.140456 26.997745,27.140456 C 18.528582,18.264221 13.291696,25.230495 11.500037,31.436501 z"
             style="fill:#404040;"/>
          </a>
         </g>
        </svg>
</svg>
