<?xml version="1.0" encoding="UTF-8" standalone="no"?>
<!DOCTYPE svg PUBLIC "-//W3C//DTD SVG 1.1//EN"
 "http://www.w3.org/Graphics/SVG/1.1/DTD/svg11.dtd">
<!-- Generated by graphviz version 2.43.0 (0)
 -->
<!-- Title: rdcu_cmd.c Pages: 1 -->
<svg width="383pt" height="140pt"
 viewBox="0.00 0.00 382.50 140.00" xmlns="http://www.w3.org/2000/svg" xmlns:xlink="http://www.w3.org/1999/xlink">
<g id="graph0" class="graph" transform="scale(1 1) rotate(0) translate(4 136)">
<title>rdcu_cmd.c</title>
<polygon fill="white" stroke="transparent" points="-4,4 -4,-136 378.5,-136 378.5,4 -4,4"/>
<!-- Node1 -->
<g id="node1" class="node">
<title>Node1</title>
<g id="a_node1"><a xlink:title="RMAP RDCU RMAP command library.">
<polygon fill="#bfbfbf" stroke="black" points="93.5,-112.5 93.5,-131.5 165.5,-131.5 165.5,-112.5 93.5,-112.5"/>
<text text-anchor="middle" x="129.5" y="-119.5" font-family="Helvetica,sans-Serif" font-size="10.00">rdcu_cmd.c</text>
</a>
</g>
</g>
<!-- Node2 -->
<g id="node2" class="node">
<title>Node2</title>
<g id="a_node2"><a xlink:href="rmap_8h.html" target="_top" xlink:title="rmap command/reply helper functions">
<polygon fill="white" stroke="black" points="186,-56.5 186,-75.5 237,-75.5 237,-56.5 186,-56.5"/>
<text text-anchor="middle" x="211.5" y="-63.5" font-family="Helvetica,sans-Serif" font-size="10.00">rmap.h</text>
</a>
</g>
</g>
<!-- Node1&#45;&gt;Node2 -->
<g id="edge1" class="edge">
<title>Node1&#45;&gt;Node2</title>
<path fill="none" stroke="midnightblue" d="M142.67,-112.32C155.35,-103.98 174.73,-91.21 189.71,-81.35"/>
<polygon fill="midnightblue" stroke="midnightblue" points="191.93,-84.08 198.36,-75.65 188.08,-78.23 191.93,-84.08"/>
</g>
<!-- Node6 -->
<g id="node6" class="node">
<title>Node6</title>
<g id="a_node6"><a xlink:href="rdcu__cmd_8h.html" target="_top" xlink:title="RMAP RDCU RMAP command library header file.">
<polygon fill="white" stroke="black" points="0,-56.5 0,-75.5 73,-75.5 73,-56.5 0,-56.5"/>
<text text-anchor="middle" x="36.5" y="-63.5" font-family="Helvetica,sans-Serif" font-size="10.00">rdcu_cmd.h</text>
</a>
</g>
</g>
<!-- Node1&#45;&gt;Node6 -->
<g id="edge5" class="edge">
<title>Node1&#45;&gt;Node6</title>
<path fill="none" stroke="midnightblue" d="M114.56,-112.32C99.91,-103.82 77.37,-90.73 60.26,-80.8"/>
<polygon fill="midnightblue" stroke="midnightblue" points="61.81,-77.65 51.4,-75.65 58.3,-83.7 61.81,-77.65"/>
</g>
<!-- Node7 -->
<g id="node7" class="node">
<title>Node7</title>
<g id="a_node7"><a xlink:href="rdcu__rmap_8h.html" target="_top" xlink:title="RMAP RDCU link interface header file.">
<polygon fill="white" stroke="black" points="91,-56.5 91,-75.5 168,-75.5 168,-56.5 91,-56.5"/>
<text text-anchor="middle" x="129.5" y="-63.5" font-family="Helvetica,sans-Serif" font-size="10.00">rdcu_rmap.h</text>
</a>
</g>
</g>
<!-- Node1&#45;&gt;Node7 -->
<g id="edge7" class="edge">
<title>Node1&#45;&gt;Node7</title>
<path fill="none" stroke="midnightblue" d="M129.5,-112.08C129.5,-105.01 129.5,-94.86 129.5,-85.99"/>
<polygon fill="midnightblue" stroke="midnightblue" points="133,-85.75 129.5,-75.75 126,-85.75 133,-85.75"/>
</g>
<!-- Node3 -->
<g id="node3" class="node">
<title>Node3</title>
<g id="a_node3"><a xlink:title=" ">
<polygon fill="white" stroke="#bfbfbf" points="103,-0.5 103,-19.5 156,-19.5 156,-0.5 103,-0.5"/>
<text text-anchor="middle" x="129.5" y="-7.5" font-family="Helvetica,sans-Serif" font-size="10.00">stdint.h</text>
</a>
</g>
</g>
<!-- Node2&#45;&gt;Node3 -->
<g id="edge2" class="edge">
<title>Node2&#45;&gt;Node3</title>
<path fill="none" stroke="midnightblue" d="M198.33,-56.32C185.65,-47.98 166.27,-35.21 151.29,-25.35"/>
<polygon fill="midnightblue" stroke="midnightblue" points="152.92,-22.23 142.64,-19.65 149.07,-28.08 152.92,-22.23"/>
</g>
<!-- Node4 -->
<g id="node4" class="node">
<title>Node4</title>
<g id="a_node4"><a xlink:title=" ">
<polygon fill="white" stroke="#bfbfbf" points="178.5,-0.5 178.5,-19.5 234.5,-19.5 234.5,-0.5 178.5,-0.5"/>
<text text-anchor="middle" x="206.5" y="-7.5" font-family="Helvetica,sans-Serif" font-size="10.00">stddef.h</text>
</a>
</g>
</g>
<!-- Node2&#45;&gt;Node4 -->
<g id="edge3" class="edge">
<title>Node2&#45;&gt;Node4</title>
<path fill="none" stroke="midnightblue" d="M210.67,-56.08C210.02,-49.01 209.08,-38.86 208.26,-29.99"/>
<polygon fill="midnightblue" stroke="midnightblue" points="211.72,-29.39 207.31,-19.75 204.75,-30.03 211.72,-29.39"/>
</g>
<!-- Node5 -->
<g id="node5" class="node">
<title>Node5</title>
<g id="a_node5"><a xlink:href="compiler_8h.html" target="_top" xlink:title="a collection of preprocessor macros">
<polygon fill="white" stroke="black" points="252.5,-0.5 252.5,-19.5 374.5,-19.5 374.5,-0.5 252.5,-0.5"/>
<text text-anchor="middle" x="313.5" y="-7.5" font-family="Helvetica,sans-Serif" font-size="10.00">../common/compiler.h</text>
</a>
</g>
</g>
<!-- Node2&#45;&gt;Node5 -->
<g id="edge4" class="edge">
<title>Node2&#45;&gt;Node5</title>
<path fill="none" stroke="midnightblue" d="M227.89,-56.32C244.17,-47.7 269.37,-34.36 288.22,-24.39"/>
<polygon fill="midnightblue" stroke="midnightblue" points="289.95,-27.43 297.15,-19.65 286.68,-21.24 289.95,-27.43"/>
</g>
<!-- Node6&#45;&gt;Node3 -->
<g id="edge6" class="edge">
<title>Node6&#45;&gt;Node3</title>
<path fill="none" stroke="midnightblue" d="M51.44,-56.32C66.09,-47.82 88.63,-34.73 105.74,-24.8"/>
<polygon fill="midnightblue" stroke="midnightblue" points="107.7,-27.7 114.6,-19.65 104.19,-21.65 107.7,-27.7"/>
</g>
<!-- Node7&#45;&gt;Node3 -->
<g id="edge8" class="edge">
<title>Node7&#45;&gt;Node3</title>
<path fill="none" stroke="midnightblue" d="M129.5,-56.08C129.5,-49.01 129.5,-38.86 129.5,-29.99"/>
<polygon fill="midnightblue" stroke="midnightblue" points="133,-29.75 129.5,-19.75 126,-29.75 133,-29.75"/>
</g>
</g>
</svg>
