<?xml version="1.0" encoding="UTF-8" standalone="no"?>
<!DOCTYPE svg PUBLIC "-//W3C//DTD SVG 1.1//EN"
 "http://www.w3.org/Graphics/SVG/1.1/DTD/svg11.dtd">
<!-- Generated by graphviz version 2.43.0 (0)
 -->
<!-- Title: rdcu_sync_mirror_to_sram Pages: 1 -->
<!--zoomable 750 -->
<svg id="main" version="1.1" xmlns="http://www.w3.org/2000/svg" xmlns:xlink="http://www.w3.org/1999/xlink" xml:space="preserve" onload="init(evt)">
<style type="text/css"><![CDATA[
.edge:hover path { stroke: red; }
.edge:hover polygon { stroke: red; fill: red; }
]]></style>
<script type="text/javascript"><![CDATA[
var edges = document.getElementsByTagName('g');
if (edges && edges.length) {
  for (var i=0;i<edges.length;i++) {
    if (edges[i].id.substr(0,4)=='edge') {
      edges[i].setAttribute('class','edge');
    }
  }
}
]]></script>
        <defs>
                <circle id="rim" cx="0" cy="0" r="7"/>
                <circle id="rim2" cx="0" cy="0" r="3.5"/>
                <g id="zoomPlus">
                        <use xlink:href="#rim" fill="#404040">
                                <set attributeName="fill" to="#808080" begin="zoomplus.mouseover" end="zoomplus.mouseout"/>
                        </use>
                        <path d="M-4,0h8M0,-4v8" fill="none" stroke="white" stroke-width="1.5" pointer-events="none"/>
                </g>
                <g id="zoomMin">
                        <use xlink:href="#rim" fill="#404040">
                                <set attributeName="fill" to="#808080" begin="zoomminus.mouseover" end="zoomminus.mouseout"/>
                        </use>
                        <path d="M-4,0h8" fill="none" stroke="white" stroke-width="1.5" pointer-events="none"/>
                </g>
                <g id="dirArrow">
                        <path fill="none" stroke="white" stroke-width="1.5" d="M0,-3.0v7 M-2.5,-0.5L0,-3.0L2.5,-0.5"/>
                </g>
               <g id="resetDef">
                       <use xlink:href="#rim2" fill="#404040">
                               <set attributeName="fill" to="#808080" begin="reset.mouseover" end="reset.mouseout"/>
                       </use>
               </g>
        </defs>

<script type="text/javascript">
var viewWidth = 1117;
var viewHeight = 750;
var sectionId = 'dynsection-0';
</script>
<script xlink:href="svgpan.js"/>
<svg id="graph" class="graph">
<g id="viewport">
<title>rdcu_sync_mirror_to_sram</title>
<polygon fill="white" stroke="transparent" points="-4,4 -4,-746 1113,-746 1113,4 -4,4"/>
<!-- Node1 -->
<g id="node1" class="node">
<title>Node1</title>
<g id="a_node1"><a xlink:title="sync a range of 32 bit words of the local mirror to the remote SRAM">
<polygon fill="#bfbfbf" stroke="black" points="0,-548.5 0,-567.5 146,-567.5 146,-548.5 0,-548.5"/>
<text text-anchor="middle" x="73" y="-555.5" font-family="Helvetica,sans-Serif" font-size="10.00">rdcu_sync_mirror_to_sram</text>
</a>
</g>
</g>
<!-- Node2 -->
<g id="node2" class="node">
<title>Node2</title>
<g id="a_node2"><a xlink:href="rdcu__rmap_8c_a9494bec87a3b44e5a6bb06a76193806e.html#a9494bec87a3b44e5a6bb06a76193806e" target="_top" xlink:title="submit a data sync command">
<polygon fill="white" stroke="black" points="196.5,-589.5 196.5,-608.5 288.5,-608.5 288.5,-589.5 196.5,-589.5"/>
<text text-anchor="middle" x="242.5" y="-596.5" font-family="Helvetica,sans-Serif" font-size="10.00">rdcu_sync_data</text>
</a>
</g>
</g>
<!-- Node1&#45;&gt;Node2 -->
<g id="edge1" class="edge">
<title>Node1&#45;&gt;Node2</title>
<path fill="none" stroke="midnightblue" d="M112.85,-567.51C136.65,-573.34 167.33,-580.84 192.75,-587.07"/>
<polygon fill="midnightblue" stroke="midnightblue" points="192.03,-590.49 202.57,-589.47 193.69,-583.69 192.03,-590.49"/>
</g>
<!-- Node19 -->
<g id="node19" class="node">
<title>Node19</title>
<g id="a_node19"><a xlink:href="rdcu__cmd_8c_a8a2bdc35e60b4f50569ea96395254e08.html#a8a2bdc35e60b4f50569ea96395254e08" target="_top" xlink:title="create a command to write arbitrary data to the RDCU">
<polygon fill="white" stroke="black" points="182,-529.5 182,-548.5 303,-548.5 303,-529.5 182,-529.5"/>
<text text-anchor="middle" x="242.5" y="-536.5" font-family="Helvetica,sans-Serif" font-size="10.00">rdcu_write_cmd_data</text>
</a>
</g>
</g>
<!-- Node1&#45;&gt;Node19 -->
<g id="edge21" class="edge">
<title>Node1&#45;&gt;Node19</title>
<path fill="none" stroke="midnightblue" d="M146.01,-549.83C154.61,-548.86 163.38,-547.86 171.95,-546.89"/>
<polygon fill="midnightblue" stroke="midnightblue" points="172.35,-550.37 181.89,-545.76 171.56,-543.41 172.35,-550.37"/>
</g>
<!-- Node3 -->
<g id="node3" class="node">
<title>Node3</title>
<g id="a_node3"><a xlink:href="test__cmp__max__used__bits__list_8c_a7ac38fce3243a7dcf448301ee9ffd392.html#a7ac38fce3243a7dcf448301ee9ffd392" target="_top" xlink:title=" ">
<polygon fill="white" stroke="black" points="835,-418.5 835,-437.5 885,-437.5 885,-418.5 835,-418.5"/>
<text text-anchor="middle" x="860" y="-425.5" font-family="Helvetica,sans-Serif" font-size="10.00">malloc</text>
</a>
</g>
</g>
<!-- Node2&#45;&gt;Node3 -->
<g id="edge2" class="edge">
<title>Node2&#45;&gt;Node3</title>
<path fill="none" stroke="midnightblue" d="M286.49,-608.5C394.73,-631.46 675.43,-684.63 753,-637 822.21,-594.5 847.94,-491.2 855.91,-447.76"/>
<polygon fill="midnightblue" stroke="midnightblue" points="859.37,-448.3 857.61,-437.86 852.47,-447.12 859.37,-448.3"/>
</g>
<!-- Node4 -->
<g id="node4" class="node">
<title>Node4</title>
<g id="a_node4"><a xlink:href="rdcu__rmap_8c_a1a064554031c2fa2dcb65541e0765c0f.html#a1a064554031c2fa2dcb65541e0765c0f" target="_top" xlink:title="n rmap command transaction">
<polygon fill="white" stroke="black" points="496,-551.5 496,-570.5 591,-570.5 591,-551.5 496,-551.5"/>
<text text-anchor="middle" x="543.5" y="-558.5" font-family="Helvetica,sans-Serif" font-size="10.00">rdcu_process_rx</text>
</a>
</g>
</g>
<!-- Node2&#45;&gt;Node4 -->
<g id="edge3" class="edge">
<title>Node2&#45;&gt;Node4</title>
<path fill="none" stroke="midnightblue" d="M286.6,-589.44C302.95,-586.08 321.77,-582.51 339,-580 388.36,-572.8 444.88,-567.78 485.81,-564.72"/>
<polygon fill="midnightblue" stroke="midnightblue" points="486.15,-568.2 495.86,-563.98 485.63,-561.22 486.15,-568.2"/>
</g>
<!-- Node17 -->
<g id="node17" class="node">
<title>Node17</title>
<g id="a_node17"><a xlink:href="rdcu__rmap_8c_a95fad3cd9b6bbe562e1a73e3f1c108a8.html#a95fad3cd9b6bbe562e1a73e3f1c108a8" target="_top" xlink:title="submit an rmap command transaction">
<polygon fill="white" stroke="black" points="353.5,-589.5 353.5,-608.5 445.5,-608.5 445.5,-589.5 353.5,-589.5"/>
<text text-anchor="middle" x="399.5" y="-596.5" font-family="Helvetica,sans-Serif" font-size="10.00">rdcu_submit_tx</text>
</a>
</g>
</g>
<!-- Node2&#45;&gt;Node17 -->
<g id="edge18" class="edge">
<title>Node2&#45;&gt;Node17</title>
<path fill="none" stroke="midnightblue" d="M288.75,-599C305.86,-599 325.52,-599 343.44,-599"/>
<polygon fill="midnightblue" stroke="midnightblue" points="343.46,-602.5 353.46,-599 343.46,-595.5 343.46,-602.5"/>
</g>
<!-- Node18 -->
<g id="node18" class="node">
<title>Node18</title>
<g id="a_node18"><a xlink:href="rdcu__rmap_8c_a36f44335aa66dd49fb4903f7269bc5b1.html#a36f44335aa66dd49fb4903f7269bc5b1" target="_top" xlink:title="grab a slot in the transaction log">
<polygon fill="white" stroke="black" points="343.5,-684.5 343.5,-703.5 455.5,-703.5 455.5,-684.5 343.5,-684.5"/>
<text text-anchor="middle" x="399.5" y="-691.5" font-family="Helvetica,sans-Serif" font-size="10.00">trans_log_grab_slot</text>
</a>
</g>
</g>
<!-- Node2&#45;&gt;Node18 -->
<g id="edge20" class="edge">
<title>Node2&#45;&gt;Node18</title>
<path fill="none" stroke="midnightblue" d="M254.32,-608.51C271.4,-623.17 306.03,-651.5 339,-670 345.97,-673.91 353.7,-677.51 361.22,-680.67"/>
<polygon fill="midnightblue" stroke="midnightblue" points="359.98,-683.95 370.57,-684.43 362.59,-677.45 359.98,-683.95"/>
</g>
<!-- Node4&#45;&gt;Node3 -->
<g id="edge4" class="edge">
<title>Node4&#45;&gt;Node3</title>
<path fill="none" stroke="midnightblue" d="M563.19,-551.49C579.7,-543.3 604.59,-531.49 627,-523 681.69,-502.27 698.97,-507.41 753,-485 782.25,-472.87 814.03,-455.12 835.08,-442.66"/>
<polygon fill="midnightblue" stroke="midnightblue" points="836.9,-445.65 843.68,-437.51 833.3,-439.65 836.9,-445.65"/>
</g>
<!-- Node5 -->
<g id="node5" class="node">
<title>Node5</title>
<g id="a_node5"><a xlink:href="rmap_8c_abf1868ec6873f9f189050cadc7e64a3b.html#abf1868ec6873f9f189050cadc7e64a3b" target="_top" xlink:title="calculate the CRC8 of a given buffer">
<polygon fill="white" stroke="black" points="656,-570.5 656,-589.5 724,-589.5 724,-570.5 656,-570.5"/>
<text text-anchor="middle" x="690" y="-577.5" font-family="Helvetica,sans-Serif" font-size="10.00">rmap_crc8</text>
</a>
</g>
</g>
<!-- Node4&#45;&gt;Node5 -->
<g id="edge5" class="edge">
<title>Node4&#45;&gt;Node5</title>
<path fill="none" stroke="midnightblue" d="M591.02,-567.12C608.51,-569.42 628.31,-572.02 645.52,-574.28"/>
<polygon fill="midnightblue" stroke="midnightblue" points="645.48,-577.81 655.85,-575.64 646.39,-570.87 645.48,-577.81"/>
</g>
<!-- Node6 -->
<g id="node6" class="node">
<title>Node6</title>
<g id="a_node6"><a xlink:href="rmap_8c_a1def9af549819e7fdbda12af8bdc9c0e.html#a1def9af549819e7fdbda12af8bdc9c0e" target="_top" xlink:title="completely destroys an RMAP packet">
<polygon fill="white" stroke="black" points="634,-456.5 634,-475.5 746,-475.5 746,-456.5 634,-456.5"/>
<text text-anchor="middle" x="690" y="-463.5" font-family="Helvetica,sans-Serif" font-size="10.00">rmap_erase_packet</text>
</a>
</g>
</g>
<!-- Node4&#45;&gt;Node6 -->
<g id="edge6" class="edge">
<title>Node4&#45;&gt;Node6</title>
<path fill="none" stroke="midnightblue" d="M553.8,-551.06C568.25,-536.11 597.5,-507.68 627,-490 633.75,-485.95 641.31,-482.36 648.76,-479.26"/>
<polygon fill="midnightblue" stroke="midnightblue" points="650.04,-482.52 658.07,-475.61 647.48,-476 650.04,-482.52"/>
</g>
<!-- Node7 -->
<g id="node7" class="node">
<title>Node7</title>
<g id="a_node7"><a xlink:href="rmap_8c_a5e88a29337404518eceedf9b4af285bf.html#a5e88a29337404518eceedf9b4af285bf" target="_top" xlink:title=" ">
<polygon fill="white" stroke="black" points="642.5,-684.5 642.5,-703.5 737.5,-703.5 737.5,-684.5 642.5,-684.5"/>
<text text-anchor="middle" x="690" y="-691.5" font-family="Helvetica,sans-Serif" font-size="10.00">rmap_parse_pkt</text>
</a>
</g>
</g>
<!-- Node4&#45;&gt;Node7 -->
<g id="edge7" class="edge">
<title>Node4&#45;&gt;Node7</title>
<path fill="none" stroke="midnightblue" d="M554.92,-570.6C570.56,-585.02 601.06,-613.13 627,-637 641.83,-650.65 658.66,-666.12 671.04,-677.5"/>
<polygon fill="midnightblue" stroke="midnightblue" points="668.73,-680.13 678.47,-684.32 673.47,-674.98 668.73,-680.13"/>
</g>
<!-- Node12 -->
<g id="node12" class="node">
<title>Node12</title>
<g id="a_node12"><a xlink:href="rmap_8c_a46d3271304c12df042b57dbebaba67e1.html#a46d3271304c12df042b57dbebaba67e1" target="_top" xlink:title="create an rmap packet from a buffer">
<polygon fill="white" stroke="black" points="627.5,-342.5 627.5,-361.5 752.5,-361.5 752.5,-342.5 627.5,-342.5"/>
<text text-anchor="middle" x="690" y="-349.5" font-family="Helvetica,sans-Serif" font-size="10.00">rmap_pkt_from_buffer</text>
</a>
</g>
</g>
<!-- Node4&#45;&gt;Node12 -->
<g id="edge12" class="edge">
<title>Node4&#45;&gt;Node12</title>
<path fill="none" stroke="midnightblue" d="M545.8,-551.48C550.52,-520.6 569.62,-422.28 627,-371 628.91,-369.29 630.97,-367.74 633.14,-366.33"/>
<polygon fill="midnightblue" stroke="midnightblue" points="634.84,-369.39 641.95,-361.54 631.49,-363.24 634.84,-369.39"/>
</g>
<!-- Node15 -->
<g id="node15" class="node">
<title>Node15</title>
<g id="a_node15"><a xlink:href="rdcu__rmap_8c_acf9b176d8d9b24e9d07711f56aebccc0.html#acf9b176d8d9b24e9d07711f56aebccc0" target="_top" xlink:title="get the local address for a slot">
<polygon fill="white" stroke="black" points="635,-532.5 635,-551.5 745,-551.5 745,-532.5 635,-532.5"/>
<text text-anchor="middle" x="690" y="-539.5" font-family="Helvetica,sans-Serif" font-size="10.00">trans_log_get_addr</text>
</a>
</g>
</g>
<!-- Node4&#45;&gt;Node15 -->
<g id="edge16" class="edge">
<title>Node4&#45;&gt;Node15</title>
<path fill="none" stroke="midnightblue" d="M591.02,-554.88C601.69,-553.48 613.23,-551.96 624.51,-550.48"/>
<polygon fill="midnightblue" stroke="midnightblue" points="625.31,-553.9 634.77,-549.13 624.4,-546.96 625.31,-553.9"/>
</g>
<!-- Node16 -->
<g id="node16" class="node">
<title>Node16</title>
<g id="a_node16"><a xlink:href="rdcu__rmap_8c_a7012f58a1862cf07b00e299d24c199c2.html#a7012f58a1862cf07b00e299d24c199c2" target="_top" xlink:title="release a slot in the transaction log">
<polygon fill="white" stroke="black" points="627,-608.5 627,-627.5 753,-627.5 753,-608.5 627,-608.5"/>
<text text-anchor="middle" x="690" y="-615.5" font-family="Helvetica,sans-Serif" font-size="10.00">trans_log_release_slot</text>
</a>
</g>
</g>
<!-- Node4&#45;&gt;Node16 -->
<g id="edge17" class="edge">
<title>Node4&#45;&gt;Node16</title>
<path fill="none" stroke="midnightblue" d="M563.52,-570.65C580.05,-578.82 604.75,-590.51 627,-599 632.87,-601.24 639.12,-603.4 645.31,-605.42"/>
<polygon fill="midnightblue" stroke="midnightblue" points="644.34,-608.78 654.93,-608.46 646.45,-602.11 644.34,-608.78"/>
</g>
<!-- Node8 -->
<g id="node8" class="node">
<title>Node8</title>
<g id="a_node8"><a xlink:href="rmap_8c_abb4e19c17c7223212c3904bc4c0189d2.html#abb4e19c17c7223212c3904bc4c0189d2" target="_top" xlink:title=" ">
<polygon fill="white" stroke="black" points="804.5,-684.5 804.5,-703.5 915.5,-703.5 915.5,-684.5 804.5,-684.5"/>
<text text-anchor="middle" x="860" y="-691.5" font-family="Helvetica,sans-Serif" font-size="10.00">rmap_check_status</text>
</a>
</g>
</g>
<!-- Node7&#45;&gt;Node8 -->
<g id="edge8" class="edge">
<title>Node7&#45;&gt;Node8</title>
<path fill="none" stroke="midnightblue" d="M737.8,-694C755.33,-694 775.57,-694 794.42,-694"/>
<polygon fill="midnightblue" stroke="midnightblue" points="794.43,-697.5 804.43,-694 794.43,-690.5 794.43,-697.5"/>
</g>
<!-- Node9 -->
<g id="node9" class="node">
<title>Node9</title>
<g id="a_node9"><a xlink:href="rmap_8c_a20aa8b91dfb1bbad819759f97b853054.html#a20aa8b91dfb1bbad819759f97b853054" target="_top" xlink:title=" ">
<polygon fill="white" stroke="black" points="799,-646.5 799,-665.5 921,-665.5 921,-646.5 799,-646.5"/>
<text text-anchor="middle" x="860" y="-653.5" font-family="Helvetica,sans-Serif" font-size="10.00">rmap_parse_cmd_pkt</text>
</a>
</g>
</g>
<!-- Node7&#45;&gt;Node9 -->
<g id="edge9" class="edge">
<title>Node7&#45;&gt;Node9</title>
<path fill="none" stroke="midnightblue" d="M733.39,-684.41C755.76,-679.35 783.4,-673.1 807.05,-667.75"/>
<polygon fill="midnightblue" stroke="midnightblue" points="807.93,-671.14 816.91,-665.52 806.39,-664.31 807.93,-671.14"/>
</g>
<!-- Node10 -->
<g id="node10" class="node">
<title>Node10</title>
<g id="a_node10"><a xlink:href="rmap_8c_adef42426b46ee5ad5176ee76cff35c22.html#adef42426b46ee5ad5176ee76cff35c22" target="_top" xlink:title=" ">
<polygon fill="white" stroke="black" points="797.5,-722.5 797.5,-741.5 922.5,-741.5 922.5,-722.5 797.5,-722.5"/>
<text text-anchor="middle" x="860" y="-729.5" font-family="Helvetica,sans-Serif" font-size="10.00">rmap_parse_reply_pkt</text>
</a>
</g>
</g>
<!-- Node7&#45;&gt;Node10 -->
<g id="edge10" class="edge">
<title>Node7&#45;&gt;Node10</title>
<path fill="none" stroke="midnightblue" d="M733.39,-703.59C755.76,-708.65 783.4,-714.9 807.05,-720.25"/>
<polygon fill="midnightblue" stroke="midnightblue" points="806.39,-723.69 816.91,-722.48 807.93,-716.86 806.39,-723.69"/>
</g>
<!-- Node11 -->
<g id="node11" class="node">
<title>Node11</title>
<g id="a_node11"><a xlink:href="rmap_8c_a2ff278a5e094a9f585865d4d838e0e0e.html#a2ff278a5e094a9f585865d4d838e0e0e" target="_top" xlink:title=" ">
<polygon fill="white" stroke="black" points="967,-722.5 967,-741.5 1109,-741.5 1109,-722.5 967,-722.5"/>
<text text-anchor="middle" x="1038" y="-729.5" font-family="Helvetica,sans-Serif" font-size="10.00">rmap_process_read_reply</text>
</a>
</g>
</g>
<!-- Node10&#45;&gt;Node11 -->
<g id="edge11" class="edge">
<title>Node10&#45;&gt;Node11</title>
<path fill="none" stroke="midnightblue" d="M922.56,-732C933.6,-732 945.25,-732 956.73,-732"/>
<polygon fill="midnightblue" stroke="midnightblue" points="956.74,-735.5 966.74,-732 956.74,-728.5 956.74,-735.5"/>
</g>
<!-- Node12&#45;&gt;Node3 -->
<g id="edge13" class="edge">
<title>Node12&#45;&gt;Node3</title>
<path fill="none" stroke="midnightblue" d="M726.51,-361.57C735.29,-364.3 744.58,-367.49 753,-371 782.06,-383.13 813.64,-400.73 834.7,-413.16"/>
<polygon fill="midnightblue" stroke="midnightblue" points="832.94,-416.18 843.32,-418.3 836.52,-410.17 832.94,-416.18"/>
</g>
<!-- Node13 -->
<g id="node13" class="node">
<title>Node13</title>
<g id="a_node13"><a xlink:href="rmap_8c_aba944cf978de0b264ea5bb3a784bce0f.html#aba944cf978de0b264ea5bb3a784bce0f" target="_top" xlink:title="create an RMAP packet and set defaults">
<polygon fill="white" stroke="black" points="802,-228.5 802,-247.5 918,-247.5 918,-228.5 802,-228.5"/>
<text text-anchor="middle" x="860" y="-235.5" font-family="Helvetica,sans-Serif" font-size="10.00">rmap_create_packet</text>
</a>
</g>
</g>
<!-- Node12&#45;&gt;Node13 -->
<g id="edge14" class="edge">
<title>Node12&#45;&gt;Node13</title>
<path fill="none" stroke="midnightblue" d="M731.42,-342.4C738.83,-339.87 746.33,-336.76 753,-333 790.04,-312.08 825.2,-276.34 844.26,-255.17"/>
<polygon fill="midnightblue" stroke="midnightblue" points="846.96,-257.39 850.96,-247.58 841.72,-252.75 846.96,-257.39"/>
</g>
<!-- Node14 -->
<g id="node14" class="node">
<title>Node14</title>
<g id="a_node14"><a xlink:href="rmap_8c_a0ec3c28e83818f02e00d4c79d82d938a.html#a0ec3c28e83818f02e00d4c79d82d938a" target="_top" xlink:title="get the minimum header size given the RMAP instruction">
<polygon fill="white" stroke="black" points="793.5,-133.5 793.5,-152.5 926.5,-152.5 926.5,-133.5 793.5,-133.5"/>
<text text-anchor="middle" x="860" y="-140.5" font-family="Helvetica,sans-Serif" font-size="10.00">rmap_get_min_hdr_size</text>
</a>
</g>
</g>
<!-- Node12&#45;&gt;Node14 -->
<g id="edge15" class="edge">
<title>Node12&#45;&gt;Node14</title>
<path fill="none" stroke="midnightblue" d="M739.37,-342.44C744.39,-339.98 749.08,-336.88 753,-333 790.73,-295.59 762.36,-264.97 789,-219 802.48,-195.74 824.17,-173.66 839.83,-159.36"/>
<polygon fill="midnightblue" stroke="midnightblue" points="842.26,-161.89 847.4,-152.62 837.6,-156.66 842.26,-161.89"/>
</g>
<!-- Node17&#45;&gt;Node4 -->
<g id="edge19" class="edge">
<title>Node17&#45;&gt;Node4</title>
<path fill="none" stroke="midnightblue" d="M436.33,-589.41C454.66,-584.51 477.18,-578.48 496.75,-573.24"/>
<polygon fill="midnightblue" stroke="midnightblue" points="497.92,-576.55 506.68,-570.59 496.11,-569.79 497.92,-576.55"/>
</g>
<!-- Node20 -->
<g id="node20" class="node">
<title>Node20</title>
<g id="a_node20"><a xlink:href="rdcu__cmd_8c_acf34d113aa558e87f377436d69083f4f.html#acf34d113aa558e87f377436d69083f4f" target="_top" xlink:title="create a command to write arbitrary data to the RDCU (internal)">
<polygon fill="white" stroke="black" points="339,-372 339,-402 460,-402 460,-372 339,-372"/>
<text text-anchor="start" x="347" y="-390" font-family="Helvetica,sans-Serif" font-size="10.00">rdcu_write_cmd_data</text>
<text text-anchor="middle" x="399.5" y="-379" font-family="Helvetica,sans-Serif" font-size="10.00">_internal</text>
</a>
</g>
</g>
<!-- Node19&#45;&gt;Node20 -->
<g id="edge22" class="edge">
<title>Node19&#45;&gt;Node20</title>
<path fill="none" stroke="midnightblue" d="M253.2,-529.49C277.47,-505.68 341.38,-443.01 375.79,-409.27"/>
<polygon fill="midnightblue" stroke="midnightblue" points="378.38,-411.64 383.06,-402.14 373.47,-406.64 378.38,-411.64"/>
</g>
<!-- Node21 -->
<g id="node21" class="node">
<title>Node21</title>
<g id="a_node21"><a xlink:href="rdcu__rmap_8c_ab224927e85a7cec5b6f90292c7de36c4.html#ab224927e85a7cec5b6f90292c7de36c4" target="_top" xlink:title="generate an rmap command packet">
<polygon fill="white" stroke="black" points="500,-228.5 500,-247.5 587,-247.5 587,-228.5 500,-228.5"/>
<text text-anchor="middle" x="543.5" y="-235.5" font-family="Helvetica,sans-Serif" font-size="10.00">rdcu_gen_cmd</text>
</a>
</g>
</g>
<!-- Node20&#45;&gt;Node21 -->
<g id="edge23" class="edge">
<title>Node20&#45;&gt;Node21</title>
<path fill="none" stroke="midnightblue" d="M414.9,-371.89C441.45,-344.03 497.98,-284.72 526.02,-255.29"/>
<polygon fill="midnightblue" stroke="midnightblue" points="528.76,-257.49 533.12,-247.84 523.69,-252.66 528.76,-257.49"/>
</g>
<!-- Node21&#45;&gt;Node6 -->
<g id="edge27" class="edge">
<title>Node21&#45;&gt;Node6</title>
<path fill="none" stroke="midnightblue" d="M545.38,-247.52C548.93,-280.34 565.12,-389.81 627,-447 628.71,-448.58 630.55,-450.03 632.49,-451.37"/>
<polygon fill="midnightblue" stroke="midnightblue" points="631.08,-454.59 641.51,-456.46 634.53,-448.49 631.08,-454.59"/>
</g>
<!-- Node21&#45;&gt;Node13 -->
<g id="edge26" class="edge">
<title>Node21&#45;&gt;Node13</title>
<path fill="none" stroke="midnightblue" d="M549.23,-228.34C559.82,-207.96 587.65,-160.95 627,-143 677.95,-119.76 700.7,-122.99 753,-143 793.34,-158.43 828.01,-197.08 845.95,-220.05"/>
<polygon fill="midnightblue" stroke="midnightblue" points="843.35,-222.42 852.18,-228.27 848.93,-218.19 843.35,-222.42"/>
</g>
<!-- Node22 -->
<g id="node22" class="node">
<title>Node22</title>
<g id="a_node22"><a xlink:href="rmap_8c_aa17375d153cc3473cbbe4dfe1056c527.html#aa17375d153cc3473cbbe4dfe1056c527" target="_top" xlink:title="build an rmap header">
<polygon fill="white" stroke="black" points="644,-76.5 644,-95.5 736,-95.5 736,-76.5 644,-76.5"/>
<text text-anchor="middle" x="690" y="-83.5" font-family="Helvetica,sans-Serif" font-size="10.00">rmap_build_hdr</text>
</a>
</g>
</g>
<!-- Node21&#45;&gt;Node22 -->
<g id="edge24" class="edge">
<title>Node21&#45;&gt;Node22</title>
<path fill="none" stroke="midnightblue" d="M548.29,-228.17C557.9,-204.53 585.4,-143.91 627,-110 631.99,-105.93 637.75,-102.5 643.71,-99.61"/>
<polygon fill="midnightblue" stroke="midnightblue" points="645.36,-102.71 653.15,-95.52 642.58,-96.29 645.36,-102.71"/>
</g>
<!-- Node23 -->
<g id="node23" class="node">
<title>Node23</title>
<g id="a_node23"><a xlink:href="rmap_8c_aab7e23f061291d39568ad2df700bc777.html#aab7e23f061291d39568ad2df700bc777" target="_top" xlink:title="set an RMAP command">
<polygon fill="white" stroke="black" points="645.5,-38.5 645.5,-57.5 734.5,-57.5 734.5,-38.5 645.5,-38.5"/>
<text text-anchor="middle" x="690" y="-45.5" font-family="Helvetica,sans-Serif" font-size="10.00">rmap_set_cmd</text>
</a>
</g>
</g>
<!-- Node21&#45;&gt;Node23 -->
<g id="edge28" class="edge">
<title>Node21&#45;&gt;Node23</title>
<path fill="none" stroke="midnightblue" d="M546.36,-228.21C552.4,-199.09 574.23,-112.3 627,-67 629.81,-64.58 632.93,-62.48 636.22,-60.64"/>
<polygon fill="midnightblue" stroke="midnightblue" points="637.72,-63.8 645.27,-56.36 634.74,-57.47 637.72,-63.8"/>
</g>
<!-- Node25 -->
<g id="node25" class="node">
<title>Node25</title>
<g id="a_node25"><a xlink:href="rmap_8c_acf641aae92829ae864b6c3d8f94d86e2.html#acf641aae92829ae864b6c3d8f94d86e2" target="_top" xlink:title="set a data address">
<polygon fill="white" stroke="black" points="632,-228.5 632,-247.5 748,-247.5 748,-228.5 632,-228.5"/>
<text text-anchor="middle" x="690" y="-235.5" font-family="Helvetica,sans-Serif" font-size="10.00">rmap_set_data_addr</text>
</a>
</g>
</g>
<!-- Node21&#45;&gt;Node25 -->
<g id="edge30" class="edge">
<title>Node21&#45;&gt;Node25</title>
<path fill="none" stroke="midnightblue" d="M587.07,-238C597.95,-238 609.92,-238 621.72,-238"/>
<polygon fill="midnightblue" stroke="midnightblue" points="622,-241.5 632,-238 622,-234.5 622,-241.5"/>
</g>
<!-- Node26 -->
<g id="node26" class="node">
<title>Node26</title>
<g id="a_node26"><a xlink:href="rmap_8c_a6833f065640f652aa1a929309e592f7a.html#a6833f065640f652aa1a929309e592f7a" target="_top" xlink:title="set an RMAP command">
<polygon fill="white" stroke="black" points="635,-190.5 635,-209.5 745,-209.5 745,-190.5 635,-190.5"/>
<text text-anchor="middle" x="690" y="-197.5" font-family="Helvetica,sans-Serif" font-size="10.00">rmap_set_data_len</text>
</a>
</g>
</g>
<!-- Node21&#45;&gt;Node26 -->
<g id="edge31" class="edge">
<title>Node21&#45;&gt;Node26</title>
<path fill="none" stroke="midnightblue" d="M580.96,-228.41C599.77,-223.46 622.91,-217.38 642.95,-212.11"/>
<polygon fill="midnightblue" stroke="midnightblue" points="644.02,-215.45 652.8,-209.52 642.24,-208.68 644.02,-215.45"/>
</g>
<!-- Node27 -->
<g id="node27" class="node">
<title>Node27</title>
<g id="a_node27"><a xlink:href="rmap_8c_a5f0081b9928da5e50fc8b231b57f3a80.html#a5f0081b9928da5e50fc8b231b57f3a80" target="_top" xlink:title="set the destination address path">
<polygon fill="white" stroke="black" points="632,-418.5 632,-437.5 748,-437.5 748,-418.5 632,-418.5"/>
<text text-anchor="middle" x="690" y="-425.5" font-family="Helvetica,sans-Serif" font-size="10.00">rmap_set_dest_path</text>
</a>
</g>
</g>
<!-- Node21&#45;&gt;Node27 -->
<g id="edge32" class="edge">
<title>Node21&#45;&gt;Node27</title>
<path fill="none" stroke="midnightblue" d="M546.36,-247.79C552.4,-276.91 574.23,-363.7 627,-409 628.98,-410.7 631.11,-412.25 633.35,-413.66"/>
<polygon fill="midnightblue" stroke="midnightblue" points="631.93,-416.87 642.41,-418.44 635.2,-410.68 631.93,-416.87"/>
</g>
<!-- Node28 -->
<g id="node28" class="node">
<title>Node28</title>
<g id="a_node28"><a xlink:href="rmap_8c_a2da8e7b48411d382b54848795f85795d.html#a2da8e7b48411d382b54848795f85795d" target="_top" xlink:title="set the destination (target) logical address">
<polygon fill="white" stroke="black" points="648.5,-152.5 648.5,-171.5 731.5,-171.5 731.5,-152.5 648.5,-152.5"/>
<text text-anchor="middle" x="690" y="-159.5" font-family="Helvetica,sans-Serif" font-size="10.00">rmap_set_dst</text>
</a>
</g>
</g>
<!-- Node21&#45;&gt;Node28 -->
<g id="edge34" class="edge">
<title>Node21&#45;&gt;Node28</title>
<path fill="none" stroke="midnightblue" d="M555.82,-228.48C571.1,-216.04 599.58,-194.28 627,-181 631.63,-178.76 636.58,-176.71 641.6,-174.86"/>
<polygon fill="midnightblue" stroke="midnightblue" points="642.92,-178.1 651.24,-171.54 640.65,-171.48 642.92,-178.1"/>
</g>
<!-- Node29 -->
<g id="node29" class="node">
<title>Node29</title>
<g id="a_node29"><a xlink:href="rmap_8c_a15021c9dfccddc44786dfd37834bcd7e.html#a15021c9dfccddc44786dfd37834bcd7e" target="_top" xlink:title="set the command authorisation key">
<polygon fill="white" stroke="black" points="647.5,-0.5 647.5,-19.5 732.5,-19.5 732.5,-0.5 647.5,-0.5"/>
<text text-anchor="middle" x="690" y="-7.5" font-family="Helvetica,sans-Serif" font-size="10.00">rmap_set_key</text>
</a>
</g>
</g>
<!-- Node21&#45;&gt;Node29 -->
<g id="edge35" class="edge">
<title>Node21&#45;&gt;Node29</title>
<path fill="none" stroke="midnightblue" d="M545.38,-228.48C548.93,-195.66 565.12,-86.19 627,-29 630.21,-26.03 633.87,-23.53 637.77,-21.42"/>
<polygon fill="midnightblue" stroke="midnightblue" points="639.54,-24.46 647.22,-17.16 636.66,-18.08 639.54,-24.46"/>
</g>
<!-- Node30 -->
<g id="node30" class="node">
<title>Node30</title>
<g id="a_node30"><a xlink:href="rmap_8c_a56c47830e67d01e469231e5e7e1d3a34.html#a56c47830e67d01e469231e5e7e1d3a34" target="_top" xlink:title="set the reply address path">
<polygon fill="white" stroke="black" points="630.5,-380.5 630.5,-399.5 749.5,-399.5 749.5,-380.5 630.5,-380.5"/>
<text text-anchor="middle" x="690" y="-387.5" font-family="Helvetica,sans-Serif" font-size="10.00">rmap_set_reply_path</text>
</a>
</g>
</g>
<!-- Node21&#45;&gt;Node30 -->
<g id="edge36" class="edge">
<title>Node21&#45;&gt;Node30</title>
<path fill="none" stroke="midnightblue" d="M547.76,-247.68C556.52,-272.17 582.88,-337 627,-371 629.34,-372.8 631.85,-374.44 634.48,-375.92"/>
<polygon fill="midnightblue" stroke="midnightblue" points="633.22,-379.19 643.75,-380.38 636.25,-372.89 633.22,-379.19"/>
</g>
<!-- Node31 -->
<g id="node31" class="node">
<title>Node31</title>
<g id="a_node31"><a xlink:href="rmap_8c_adae0030440ca4e7ad34622e505acbb2c.html#adae0030440ca4e7ad34622e505acbb2c" target="_top" xlink:title="set the source (initiator) logical address">
<polygon fill="white" stroke="black" points="649,-304.5 649,-323.5 731,-323.5 731,-304.5 649,-304.5"/>
<text text-anchor="middle" x="690" y="-311.5" font-family="Helvetica,sans-Serif" font-size="10.00">rmap_set_src</text>
</a>
</g>
</g>
<!-- Node21&#45;&gt;Node31 -->
<g id="edge38" class="edge">
<title>Node21&#45;&gt;Node31</title>
<path fill="none" stroke="midnightblue" d="M555.82,-247.52C571.1,-259.96 599.58,-281.72 627,-295 631.63,-297.24 636.58,-299.29 641.6,-301.14"/>
<polygon fill="midnightblue" stroke="midnightblue" points="640.65,-304.52 651.24,-304.46 642.92,-297.9 640.65,-304.52"/>
</g>
<!-- Node32 -->
<g id="node32" class="node">
<title>Node32</title>
<g id="a_node32"><a xlink:href="rmap_8c_a7b4c31714493ce6cc19d4aa825ab50aa.html#a7b4c31714493ce6cc19d4aa825ab50aa" target="_top" xlink:title="set an RMAP transaction identifier">
<polygon fill="white" stroke="black" points="645.5,-266.5 645.5,-285.5 734.5,-285.5 734.5,-266.5 645.5,-266.5"/>
<text text-anchor="middle" x="690" y="-273.5" font-family="Helvetica,sans-Serif" font-size="10.00">rmap_set_tr_id</text>
</a>
</g>
</g>
<!-- Node21&#45;&gt;Node32 -->
<g id="edge39" class="edge">
<title>Node21&#45;&gt;Node32</title>
<path fill="none" stroke="midnightblue" d="M580.96,-247.59C599.77,-252.54 622.91,-258.62 642.95,-263.89"/>
<polygon fill="midnightblue" stroke="midnightblue" points="642.24,-267.32 652.8,-266.48 644.02,-260.55 642.24,-267.32"/>
</g>
<!-- Node22&#45;&gt;Node14 -->
<g id="edge25" class="edge">
<title>Node22&#45;&gt;Node14</title>
<path fill="none" stroke="midnightblue" d="M719.12,-95.54C747.1,-105.03 790.23,-119.67 821.2,-130.17"/>
<polygon fill="midnightblue" stroke="midnightblue" points="820.19,-133.53 830.79,-133.43 822.44,-126.9 820.19,-133.53"/>
</g>
<!-- Node24 -->
<g id="node24" class="node">
<title>Node24</title>
<g id="a_node24"><a xlink:href="rmap_8c_a667ce871110961f2a611d0244791e20f.html#a667ce871110961f2a611d0244791e20f" target="_top" xlink:title="valiidates a command code">
<polygon fill="white" stroke="black" points="789,-38.5 789,-57.5 931,-57.5 931,-38.5 789,-38.5"/>
<text text-anchor="middle" x="860" y="-45.5" font-family="Helvetica,sans-Serif" font-size="10.00">rmap_validate_cmd_code</text>
</a>
</g>
</g>
<!-- Node23&#45;&gt;Node24 -->
<g id="edge29" class="edge">
<title>Node23&#45;&gt;Node24</title>
<path fill="none" stroke="midnightblue" d="M734.7,-48C748.13,-48 763.36,-48 778.44,-48"/>
<polygon fill="midnightblue" stroke="midnightblue" points="778.83,-51.5 788.83,-48 778.83,-44.5 778.83,-51.5"/>
</g>
<!-- Node27&#45;&gt;Node3 -->
<g id="edge33" class="edge">
<title>Node27&#45;&gt;Node3</title>
<path fill="none" stroke="midnightblue" d="M748.35,-428C773.67,-428 802.6,-428 824.52,-428"/>
<polygon fill="midnightblue" stroke="midnightblue" points="824.68,-431.5 834.68,-428 824.68,-424.5 824.68,-431.5"/>
</g>
<!-- Node30&#45;&gt;Node3 -->
<g id="edge37" class="edge">
<title>Node30&#45;&gt;Node3</title>
<path fill="none" stroke="midnightblue" d="M733.39,-399.59C761.71,-405.99 798.47,-414.31 824.9,-420.29"/>
<polygon fill="midnightblue" stroke="midnightblue" points="824.3,-423.74 834.83,-422.53 825.85,-416.91 824.3,-423.74"/>
</g>
</g>
</svg>
        <g id="navigator" transform="translate(0 0)" fill="#404254">
                <rect fill="#f2f5e9" fill-opacity="0.5" stroke="#606060" stroke-width=".5" x="0" y="0" width="60" height="60"/>
                <use id="zoomplus" xlink:href="#zoomPlus" x="17" y="9" onmousedown="handleZoom(evt,'in')"/>
                <use id="zoomminus" xlink:href="#zoomMin" x="42" y="9" onmousedown="handleZoom(evt,'out')"/>
                <use id="reset" xlink:href="#resetDef" x="30" y="36" onmousedown="handleReset()"/>
                <g id="arrowUp" xlink:href="#dirArrow" transform="translate(30 24)" onmousedown="handlePan(0,-1)">
                  <use xlink:href="#rim" fill="#404040">
                        <set attributeName="fill" to="#808080" begin="arrowUp.mouseover" end="arrowUp.mouseout"/>
                  </use>
                  <path fill="none" stroke="white" stroke-width="1.5" d="M0,-3.0v7 M-2.5,-0.5L0,-3.0L2.5,-0.5"/>
                </g>
                <g id="arrowRight" xlink:href="#dirArrow" transform="rotate(90) translate(36 -43)" onmousedown="handlePan(1,0)">
                  <use xlink:href="#rim" fill="#404040">
                        <set attributeName="fill" to="#808080" begin="arrowRight.mouseover" end="arrowRight.mouseout"/>
                  </use>
                  <path fill="none" stroke="white" stroke-width="1.5" d="M0,-3.0v7 M-2.5,-0.5L0,-3.0L2.5,-0.5"/>
                </g>
                <g id="arrowDown" xlink:href="#dirArrow" transform="rotate(180) translate(-30 -48)" onmousedown="handlePan(0,1)">
                  <use xlink:href="#rim" fill="#404040">
                        <set attributeName="fill" to="#808080" begin="arrowDown.mouseover" end="arrowDown.mouseout"/>
                  </use>
                  <path fill="none" stroke="white" stroke-width="1.5" d="M0,-3.0v7 M-2.5,-0.5L0,-3.0L2.5,-0.5"/>
                </g>
                <g id="arrowLeft" xlink:href="#dirArrow" transform="rotate(270) translate(-36 17)" onmousedown="handlePan(-1,0)">
                  <use xlink:href="#rim" fill="#404040">
                        <set attributeName="fill" to="#808080" begin="arrowLeft.mouseover" end="arrowLeft.mouseout"/>
                  </use>
                  <path fill="none" stroke="white" stroke-width="1.5" d="M0,-3.0v7 M-2.5,-0.5L0,-3.0L2.5,-0.5"/>
                </g>
        </g>
        <svg viewBox="0 0 15 15" width="100%" height="30px" preserveAspectRatio="xMaxYMin meet">
         <g id="arrow_out" transform="scale(0.3 0.3)">
          <a xlink:href="rdcu__ctrl_8h_ad5c3a06d535b0f8aa6d5bcaadfdca1f3_ad5c3a06d535b0f8aa6d5bcaadfdca1f3_cgraph_org.svg" target="_base">
           <rect id="button" ry="5" rx="5" y="6" x="6" height="38" width="38"
                fill="#f2f5e9" fill-opacity="0.5" stroke="#606060" stroke-width="1.0"/>
           <path id="arrow"
             d="M 11.500037,31.436501 C 11.940474,20.09759 22.043105,11.32322 32.158766,21.979434 L 37.068811,17.246167 C 37.068811,17.246167 37.088388,32 37.088388,32 L 22.160133,31.978069 C 22.160133,31.978069 26.997745,27.140456 26.997745,27.140456 C 18.528582,18.264221 13.291696,25.230495 11.500037,31.436501 z"
             style="fill:#404040;"/>
          </a>
         </g>
        </svg>
</svg>
