<?xml version="1.0" encoding="UTF-8" standalone="no"?>
<!DOCTYPE svg PUBLIC "-//W3C//DTD SVG 1.1//EN"
 "http://www.w3.org/Graphics/SVG/1.1/DTD/svg11.dtd">
<!-- Generated by graphviz version 2.43.0 (0)
 -->
<!-- Title: rdcu_read_cmd_adc_status Pages: 1 -->
<svg width="783pt" height="446pt"
 viewBox="0.00 0.00 783.00 446.00" xmlns="http://www.w3.org/2000/svg" xmlns:xlink="http://www.w3.org/1999/xlink">
<g id="graph0" class="graph" transform="scale(1 1) rotate(0) translate(4 442)">
<title>rdcu_read_cmd_adc_status</title>
<polygon fill="white" stroke="transparent" points="-4,4 -4,-442 779,-442 779,4 -4,4"/>
<!-- Node1 -->
<g id="node1" class="node">
<title>Node1</title>
<g id="a_node1"><a xlink:title="create a command to read the RDCU ADC status register">
<polygon fill="#bfbfbf" stroke="black" points="0,-209.5 0,-228.5 149,-228.5 149,-209.5 0,-209.5"/>
<text text-anchor="middle" x="74.5" y="-216.5" font-family="Helvetica,sans-Serif" font-size="10.00">rdcu_read_cmd_adc_status</text>
</a>
</g>
</g>
<!-- Node2 -->
<g id="node2" class="node">
<title>Node2</title>
<g id="a_node2"><a xlink:href="rdcu__cmd_8c_a3274188041d4484130e893afc5f1630f.html#a3274188041d4484130e893afc5f1630f" target="_top" xlink:title="generate a read command for an arbitrary register (internal)">
<polygon fill="white" stroke="black" points="185,-204 185,-234 319,-234 319,-204 185,-204"/>
<text text-anchor="start" x="193" y="-222" font-family="Helvetica,sans-Serif" font-size="10.00">rdcu_read_cmd_register</text>
<text text-anchor="middle" x="252" y="-211" font-family="Helvetica,sans-Serif" font-size="10.00">_internal</text>
</a>
</g>
</g>
<!-- Node1&#45;&gt;Node2 -->
<g id="edge1" class="edge">
<title>Node1&#45;&gt;Node2</title>
<path fill="none" stroke="midnightblue" d="M149.16,-219C157.57,-219 166.15,-219 174.58,-219"/>
<polygon fill="midnightblue" stroke="midnightblue" points="174.78,-222.5 184.78,-219 174.78,-215.5 174.78,-222.5"/>
</g>
<!-- Node3 -->
<g id="node3" class="node">
<title>Node3</title>
<g id="a_node3"><a xlink:href="rdcu__rmap_8c_ab224927e85a7cec5b6f90292c7de36c4.html#ab224927e85a7cec5b6f90292c7de36c4" target="_top" xlink:title="generate an rmap command packet">
<polygon fill="white" stroke="black" points="355,-209.5 355,-228.5 442,-228.5 442,-209.5 355,-209.5"/>
<text text-anchor="middle" x="398.5" y="-216.5" font-family="Helvetica,sans-Serif" font-size="10.00">rdcu_gen_cmd</text>
</a>
</g>
</g>
<!-- Node2&#45;&gt;Node3 -->
<g id="edge2" class="edge">
<title>Node2&#45;&gt;Node3</title>
<path fill="none" stroke="midnightblue" d="M319.33,-219C327.78,-219 336.34,-219 344.54,-219"/>
<polygon fill="midnightblue" stroke="midnightblue" points="344.7,-222.5 354.7,-219 344.7,-215.5 344.7,-222.5"/>
</g>
<!-- Node4 -->
<g id="node4" class="node">
<title>Node4</title>
<g id="a_node4"><a xlink:href="rmap_8c_aa17375d153cc3473cbbe4dfe1056c527.html#aa17375d153cc3473cbbe4dfe1056c527" target="_top" xlink:title="build an rmap header">
<polygon fill="white" stroke="black" points="491.5,-418.5 491.5,-437.5 583.5,-437.5 583.5,-418.5 491.5,-418.5"/>
<text text-anchor="middle" x="537.5" y="-425.5" font-family="Helvetica,sans-Serif" font-size="10.00">rmap_build_hdr</text>
</a>
</g>
</g>
<!-- Node3&#45;&gt;Node4 -->
<g id="edge3" class="edge">
<title>Node3&#45;&gt;Node4</title>
<path fill="none" stroke="midnightblue" d="M400.68,-228.91C404.91,-260.12 422.2,-357.38 478,-409 479.72,-410.59 481.57,-412.05 483.53,-413.38"/>
<polygon fill="midnightblue" stroke="midnightblue" points="482.18,-416.64 492.62,-418.49 485.62,-410.54 482.18,-416.64"/>
</g>
<!-- Node6 -->
<g id="node6" class="node">
<title>Node6</title>
<g id="a_node6"><a xlink:href="rmap_8c_aba944cf978de0b264ea5bb3a784bce0f.html#aba944cf978de0b264ea5bb3a784bce0f" target="_top" xlink:title="create an RMAP packet and set defaults">
<polygon fill="white" stroke="black" points="479.5,-380.5 479.5,-399.5 595.5,-399.5 595.5,-380.5 479.5,-380.5"/>
<text text-anchor="middle" x="537.5" y="-387.5" font-family="Helvetica,sans-Serif" font-size="10.00">rmap_create_packet</text>
</a>
</g>
</g>
<!-- Node3&#45;&gt;Node6 -->
<g id="edge5" class="edge">
<title>Node3&#45;&gt;Node6</title>
<path fill="none" stroke="midnightblue" d="M401.78,-228.81C408.52,-255.66 430.91,-331.01 478,-371 479.99,-372.69 482.14,-374.24 484.4,-375.64"/>
<polygon fill="midnightblue" stroke="midnightblue" points="483.04,-378.88 493.52,-380.42 486.28,-372.68 483.04,-378.88"/>
</g>
<!-- Node7 -->
<g id="node7" class="node">
<title>Node7</title>
<g id="a_node7"><a xlink:href="rmap_8c_a1def9af549819e7fdbda12af8bdc9c0e.html#a1def9af549819e7fdbda12af8bdc9c0e" target="_top" xlink:title="completely destroys an RMAP packet">
<polygon fill="white" stroke="black" points="481.5,-342.5 481.5,-361.5 593.5,-361.5 593.5,-342.5 481.5,-342.5"/>
<text text-anchor="middle" x="537.5" y="-349.5" font-family="Helvetica,sans-Serif" font-size="10.00">rmap_erase_packet</text>
</a>
</g>
</g>
<!-- Node3&#45;&gt;Node7 -->
<g id="edge6" class="edge">
<title>Node3&#45;&gt;Node7</title>
<path fill="none" stroke="midnightblue" d="M403.45,-228.53C412.97,-250.31 439.28,-304.12 478,-333 480.49,-334.86 483.16,-336.53 485.96,-338.05"/>
<polygon fill="midnightblue" stroke="midnightblue" points="484.63,-341.3 495.17,-342.38 487.6,-334.96 484.63,-341.3"/>
</g>
<!-- Node8 -->
<g id="node8" class="node">
<title>Node8</title>
<g id="a_node8"><a xlink:href="rmap_8c_aab7e23f061291d39568ad2df700bc777.html#aab7e23f061291d39568ad2df700bc777" target="_top" xlink:title="set an RMAP command">
<polygon fill="white" stroke="black" points="493,-304.5 493,-323.5 582,-323.5 582,-304.5 493,-304.5"/>
<text text-anchor="middle" x="537.5" y="-311.5" font-family="Helvetica,sans-Serif" font-size="10.00">rmap_set_cmd</text>
</a>
</g>
</g>
<!-- Node3&#45;&gt;Node8 -->
<g id="edge7" class="edge">
<title>Node3&#45;&gt;Node8</title>
<path fill="none" stroke="midnightblue" d="M406.91,-228.6C419.73,-244.59 447.6,-276.71 478,-295 481.45,-297.08 485.16,-298.96 488.97,-300.65"/>
<polygon fill="midnightblue" stroke="midnightblue" points="487.98,-304.02 498.57,-304.48 490.57,-297.52 487.98,-304.02"/>
</g>
<!-- Node10 -->
<g id="node10" class="node">
<title>Node10</title>
<g id="a_node10"><a xlink:href="rmap_8c_acf641aae92829ae864b6c3d8f94d86e2.html#acf641aae92829ae864b6c3d8f94d86e2" target="_top" xlink:title="set a data address">
<polygon fill="white" stroke="black" points="479.5,-266.5 479.5,-285.5 595.5,-285.5 595.5,-266.5 479.5,-266.5"/>
<text text-anchor="middle" x="537.5" y="-273.5" font-family="Helvetica,sans-Serif" font-size="10.00">rmap_set_data_addr</text>
</a>
</g>
</g>
<!-- Node3&#45;&gt;Node10 -->
<g id="edge9" class="edge">
<title>Node3&#45;&gt;Node10</title>
<path fill="none" stroke="midnightblue" d="M417.58,-228.63C433.29,-236.78 456.79,-248.47 478,-257 483.39,-259.17 489.14,-261.28 494.85,-263.25"/>
<polygon fill="midnightblue" stroke="midnightblue" points="493.74,-266.57 504.34,-266.43 495.97,-259.93 493.74,-266.57"/>
</g>
<!-- Node11 -->
<g id="node11" class="node">
<title>Node11</title>
<g id="a_node11"><a xlink:href="rmap_8c_a6833f065640f652aa1a929309e592f7a.html#a6833f065640f652aa1a929309e592f7a" target="_top" xlink:title="set an RMAP command">
<polygon fill="white" stroke="black" points="482.5,-228.5 482.5,-247.5 592.5,-247.5 592.5,-228.5 482.5,-228.5"/>
<text text-anchor="middle" x="537.5" y="-235.5" font-family="Helvetica,sans-Serif" font-size="10.00">rmap_set_data_len</text>
</a>
</g>
</g>
<!-- Node3&#45;&gt;Node11 -->
<g id="edge10" class="edge">
<title>Node3&#45;&gt;Node11</title>
<path fill="none" stroke="midnightblue" d="M442.1,-224.91C451.64,-226.23 461.97,-227.66 472.18,-229.08"/>
<polygon fill="midnightblue" stroke="midnightblue" points="471.92,-232.58 482.31,-230.48 472.88,-225.64 471.92,-232.58"/>
</g>
<!-- Node12 -->
<g id="node12" class="node">
<title>Node12</title>
<g id="a_node12"><a xlink:href="rmap_8c_a5f0081b9928da5e50fc8b231b57f3a80.html#a5f0081b9928da5e50fc8b231b57f3a80" target="_top" xlink:title="set the destination address path">
<polygon fill="white" stroke="black" points="479.5,-190.5 479.5,-209.5 595.5,-209.5 595.5,-190.5 479.5,-190.5"/>
<text text-anchor="middle" x="537.5" y="-197.5" font-family="Helvetica,sans-Serif" font-size="10.00">rmap_set_dest_path</text>
</a>
</g>
</g>
<!-- Node3&#45;&gt;Node12 -->
<g id="edge11" class="edge">
<title>Node3&#45;&gt;Node12</title>
<path fill="none" stroke="midnightblue" d="M442.1,-213.09C450.75,-211.89 460.05,-210.6 469.32,-209.32"/>
<polygon fill="midnightblue" stroke="midnightblue" points="469.9,-212.77 479.33,-207.93 468.94,-205.84 469.9,-212.77"/>
</g>
<!-- Node14 -->
<g id="node14" class="node">
<title>Node14</title>
<g id="a_node14"><a xlink:href="rmap_8c_a2da8e7b48411d382b54848795f85795d.html#a2da8e7b48411d382b54848795f85795d" target="_top" xlink:title="set the destination (target) logical address">
<polygon fill="white" stroke="black" points="496,-152.5 496,-171.5 579,-171.5 579,-152.5 496,-152.5"/>
<text text-anchor="middle" x="537.5" y="-159.5" font-family="Helvetica,sans-Serif" font-size="10.00">rmap_set_dst</text>
</a>
</g>
</g>
<!-- Node3&#45;&gt;Node14 -->
<g id="edge13" class="edge">
<title>Node3&#45;&gt;Node14</title>
<path fill="none" stroke="midnightblue" d="M417.58,-209.37C433.29,-201.22 456.79,-189.53 478,-181 483.39,-178.83 489.14,-176.72 494.85,-174.75"/>
<polygon fill="midnightblue" stroke="midnightblue" points="495.97,-178.07 504.34,-171.57 493.74,-171.43 495.97,-178.07"/>
</g>
<!-- Node15 -->
<g id="node15" class="node">
<title>Node15</title>
<g id="a_node15"><a xlink:href="rmap_8c_a15021c9dfccddc44786dfd37834bcd7e.html#a15021c9dfccddc44786dfd37834bcd7e" target="_top" xlink:title="set the command authorisation key">
<polygon fill="white" stroke="black" points="495,-114.5 495,-133.5 580,-133.5 580,-114.5 495,-114.5"/>
<text text-anchor="middle" x="537.5" y="-121.5" font-family="Helvetica,sans-Serif" font-size="10.00">rmap_set_key</text>
</a>
</g>
</g>
<!-- Node3&#45;&gt;Node15 -->
<g id="edge14" class="edge">
<title>Node3&#45;&gt;Node15</title>
<path fill="none" stroke="midnightblue" d="M406.91,-209.4C419.73,-193.41 447.6,-161.29 478,-143 481.45,-140.92 485.16,-139.04 488.97,-137.35"/>
<polygon fill="midnightblue" stroke="midnightblue" points="490.57,-140.48 498.57,-133.52 487.98,-133.98 490.57,-140.48"/>
</g>
<!-- Node16 -->
<g id="node16" class="node">
<title>Node16</title>
<g id="a_node16"><a xlink:href="rmap_8c_a56c47830e67d01e469231e5e7e1d3a34.html#a56c47830e67d01e469231e5e7e1d3a34" target="_top" xlink:title="set the reply address path">
<polygon fill="white" stroke="black" points="478,-76.5 478,-95.5 597,-95.5 597,-76.5 478,-76.5"/>
<text text-anchor="middle" x="537.5" y="-83.5" font-family="Helvetica,sans-Serif" font-size="10.00">rmap_set_reply_path</text>
</a>
</g>
</g>
<!-- Node3&#45;&gt;Node16 -->
<g id="edge15" class="edge">
<title>Node3&#45;&gt;Node16</title>
<path fill="none" stroke="midnightblue" d="M403.45,-209.47C412.97,-187.69 439.28,-133.88 478,-105 480.49,-103.14 483.16,-101.47 485.96,-99.95"/>
<polygon fill="midnightblue" stroke="midnightblue" points="487.6,-103.04 495.17,-95.62 484.63,-96.7 487.6,-103.04"/>
</g>
<!-- Node17 -->
<g id="node17" class="node">
<title>Node17</title>
<g id="a_node17"><a xlink:href="rmap_8c_adae0030440ca4e7ad34622e505acbb2c.html#adae0030440ca4e7ad34622e505acbb2c" target="_top" xlink:title="set the source (initiator) logical address">
<polygon fill="white" stroke="black" points="496.5,-38.5 496.5,-57.5 578.5,-57.5 578.5,-38.5 496.5,-38.5"/>
<text text-anchor="middle" x="537.5" y="-45.5" font-family="Helvetica,sans-Serif" font-size="10.00">rmap_set_src</text>
</a>
</g>
</g>
<!-- Node3&#45;&gt;Node17 -->
<g id="edge17" class="edge">
<title>Node3&#45;&gt;Node17</title>
<path fill="none" stroke="midnightblue" d="M401.78,-209.19C408.52,-182.34 430.91,-106.99 478,-67 480.73,-64.68 483.74,-62.65 486.93,-60.86"/>
<polygon fill="midnightblue" stroke="midnightblue" points="488.7,-63.89 496.23,-56.44 485.7,-57.57 488.7,-63.89"/>
</g>
<!-- Node18 -->
<g id="node18" class="node">
<title>Node18</title>
<g id="a_node18"><a xlink:href="rmap_8c_a7b4c31714493ce6cc19d4aa825ab50aa.html#a7b4c31714493ce6cc19d4aa825ab50aa" target="_top" xlink:title="set an RMAP transaction identifier">
<polygon fill="white" stroke="black" points="493,-0.5 493,-19.5 582,-19.5 582,-0.5 493,-0.5"/>
<text text-anchor="middle" x="537.5" y="-7.5" font-family="Helvetica,sans-Serif" font-size="10.00">rmap_set_tr_id</text>
</a>
</g>
</g>
<!-- Node3&#45;&gt;Node18 -->
<g id="edge18" class="edge">
<title>Node3&#45;&gt;Node18</title>
<path fill="none" stroke="midnightblue" d="M400.68,-209.09C404.91,-177.88 422.2,-80.62 478,-29 479.89,-27.26 481.93,-25.67 484.1,-24.23"/>
<polygon fill="midnightblue" stroke="midnightblue" points="485.85,-27.26 492.91,-19.37 482.47,-21.13 485.85,-27.26"/>
</g>
<!-- Node5 -->
<g id="node5" class="node">
<title>Node5</title>
<g id="a_node5"><a xlink:href="rmap_8c_a0ec3c28e83818f02e00d4c79d82d938a.html#a0ec3c28e83818f02e00d4c79d82d938a" target="_top" xlink:title="get the minimum header size given the RMAP instruction">
<polygon fill="white" stroke="black" points="637.5,-418.5 637.5,-437.5 770.5,-437.5 770.5,-418.5 637.5,-418.5"/>
<text text-anchor="middle" x="704" y="-425.5" font-family="Helvetica,sans-Serif" font-size="10.00">rmap_get_min_hdr_size</text>
</a>
</g>
</g>
<!-- Node4&#45;&gt;Node5 -->
<g id="edge4" class="edge">
<title>Node4&#45;&gt;Node5</title>
<path fill="none" stroke="midnightblue" d="M583.89,-428C597.33,-428 612.43,-428 627.25,-428"/>
<polygon fill="midnightblue" stroke="midnightblue" points="627.44,-431.5 637.44,-428 627.44,-424.5 627.44,-431.5"/>
</g>
<!-- Node9 -->
<g id="node9" class="node">
<title>Node9</title>
<g id="a_node9"><a xlink:href="rmap_8c_a667ce871110961f2a611d0244791e20f.html#a667ce871110961f2a611d0244791e20f" target="_top" xlink:title="valiidates a command code">
<polygon fill="white" stroke="black" points="633,-304.5 633,-323.5 775,-323.5 775,-304.5 633,-304.5"/>
<text text-anchor="middle" x="704" y="-311.5" font-family="Helvetica,sans-Serif" font-size="10.00">rmap_validate_cmd_code</text>
</a>
</g>
</g>
<!-- Node8&#45;&gt;Node9 -->
<g id="edge8" class="edge">
<title>Node8&#45;&gt;Node9</title>
<path fill="none" stroke="midnightblue" d="M582.15,-314C594.64,-314 608.65,-314 622.6,-314"/>
<polygon fill="midnightblue" stroke="midnightblue" points="622.72,-317.5 632.72,-314 622.72,-310.5 622.72,-317.5"/>
</g>
<!-- Node13 -->
<g id="node13" class="node">
<title>Node13</title>
<g id="a_node13"><a xlink:href="test__cmp__max__used__bits__list_8c_a7ac38fce3243a7dcf448301ee9ffd392.html#a7ac38fce3243a7dcf448301ee9ffd392" target="_top" xlink:title=" ">
<polygon fill="white" stroke="black" points="679,-133.5 679,-152.5 729,-152.5 729,-133.5 679,-133.5"/>
<text text-anchor="middle" x="704" y="-140.5" font-family="Helvetica,sans-Serif" font-size="10.00">malloc</text>
</a>
</g>
</g>
<!-- Node12&#45;&gt;Node13 -->
<g id="edge12" class="edge">
<title>Node12&#45;&gt;Node13</title>
<path fill="none" stroke="midnightblue" d="M568.62,-190.41C577.75,-187.45 587.8,-184.14 597,-181 621.17,-172.75 648.27,-163.02 669.02,-155.48"/>
<polygon fill="midnightblue" stroke="midnightblue" points="670.46,-158.68 678.65,-151.96 668.06,-152.1 670.46,-158.68"/>
</g>
<!-- Node16&#45;&gt;Node13 -->
<g id="edge16" class="edge">
<title>Node16&#45;&gt;Node13</title>
<path fill="none" stroke="midnightblue" d="M568.62,-95.59C577.75,-98.55 587.8,-101.86 597,-105 621.17,-113.25 648.27,-122.98 669.02,-130.52"/>
<polygon fill="midnightblue" stroke="midnightblue" points="668.06,-133.9 678.65,-134.04 670.46,-127.32 668.06,-133.9"/>
</g>
</g>
</svg>
