<?xml version="1.0" encoding="UTF-8" standalone="no"?>
<!DOCTYPE svg PUBLIC "-//W3C//DTD SVG 1.1//EN"
 "http://www.w3.org/Graphics/SVG/1.1/DTD/svg11.dtd">
<!-- Generated by graphviz version 2.43.0 (0)
 -->
<!-- Title: rdcu_sync_data_start_addr Pages: 1 -->
<svg width="1134pt" height="750pt"
 viewBox="0.00 0.00 1134.00 750.00" xmlns="http://www.w3.org/2000/svg" xmlns:xlink="http://www.w3.org/1999/xlink">
<g id="graph0" class="graph" transform="scale(1 1) rotate(0) translate(4 746)">
<title>rdcu_sync_data_start_addr</title>
<polygon fill="white" stroke="transparent" points="-4,4 -4,-746 1130,-746 1130,4 -4,4"/>
<!-- Node1 -->
<g id="node1" class="node">
<title>Node1</title>
<g id="a_node1"><a xlink:title="sync the Data Start Address (write only)">
<polygon fill="#bfbfbf" stroke="black" points="0,-586.5 0,-605.5 147,-605.5 147,-586.5 0,-586.5"/>
<text text-anchor="middle" x="73.5" y="-593.5" font-family="Helvetica,sans-Serif" font-size="10.00">rdcu_sync_data_start_addr</text>
</a>
</g>
</g>
<!-- Node2 -->
<g id="node2" class="node">
<title>Node2</title>
<g id="a_node2"><a xlink:href="rdcu__rmap_8c_a533d1eb248d83ba3d406cefe7f3c9eb9.html#a533d1eb248d83ba3d406cefe7f3c9eb9" target="_top" xlink:title="submit a sync command">
<polygon fill="white" stroke="black" points="211,-608.5 211,-627.5 276,-627.5 276,-608.5 211,-608.5"/>
<text text-anchor="middle" x="243.5" y="-615.5" font-family="Helvetica,sans-Serif" font-size="10.00">rdcu_sync</text>
</a>
</g>
</g>
<!-- Node1&#45;&gt;Node2 -->
<g id="edge1" class="edge">
<title>Node1&#45;&gt;Node2</title>
<path fill="none" stroke="midnightblue" d="M147.21,-605.52C165.4,-607.9 184.3,-610.38 200.43,-612.49"/>
<polygon fill="midnightblue" stroke="midnightblue" points="200.23,-615.99 210.6,-613.82 201.14,-609.05 200.23,-615.99"/>
</g>
<!-- Node19 -->
<g id="node19" class="node">
<title>Node19</title>
<g id="a_node19"><a xlink:href="rdcu__cmd_8c_a66861216c6dd740f242702f61ef3a5ad.html#a66861216c6dd740f242702f61ef3a5ad" target="_top" xlink:title="create a command to write the RDCU data start address register">
<polygon fill="white" stroke="black" points="183,-559 183,-589 304,-589 304,-559 183,-559"/>
<text text-anchor="start" x="191" y="-577" font-family="Helvetica,sans-Serif" font-size="10.00">rdcu_write_cmd_data</text>
<text text-anchor="middle" x="243.5" y="-566" font-family="Helvetica,sans-Serif" font-size="10.00">_start_addr</text>
</a>
</g>
</g>
<!-- Node1&#45;&gt;Node19 -->
<g id="edge20" class="edge">
<title>Node1&#45;&gt;Node19</title>
<path fill="none" stroke="midnightblue" d="M147.21,-586.48C155.66,-585.37 164.26,-584.25 172.67,-583.14"/>
<polygon fill="midnightblue" stroke="midnightblue" points="173.34,-586.59 182.81,-581.82 172.44,-579.65 173.34,-586.59"/>
</g>
<!-- Node3 -->
<g id="node3" class="node">
<title>Node3</title>
<g id="a_node3"><a xlink:href="test__cmp__max__used__bits__list_8c_a7ac38fce3243a7dcf448301ee9ffd392.html#a7ac38fce3243a7dcf448301ee9ffd392" target="_top" xlink:title=" ">
<polygon fill="white" stroke="black" points="852,-418.5 852,-437.5 902,-437.5 902,-418.5 852,-418.5"/>
<text text-anchor="middle" x="877" y="-425.5" font-family="Helvetica,sans-Serif" font-size="10.00">malloc</text>
</a>
</g>
</g>
<!-- Node2&#45;&gt;Node3 -->
<g id="edge2" class="edge">
<title>Node2&#45;&gt;Node3</title>
<path fill="none" stroke="midnightblue" d="M276.27,-623.61C376.93,-640.72 686.95,-688 770,-637 839.21,-594.5 864.94,-491.2 872.91,-447.76"/>
<polygon fill="midnightblue" stroke="midnightblue" points="876.37,-448.3 874.61,-437.86 869.47,-447.12 876.37,-448.3"/>
</g>
<!-- Node4 -->
<g id="node4" class="node">
<title>Node4</title>
<g id="a_node4"><a xlink:href="rdcu__rmap_8c_a95fad3cd9b6bbe562e1a73e3f1c108a8.html#a95fad3cd9b6bbe562e1a73e3f1c108a8" target="_top" xlink:title="submit an rmap command transaction">
<polygon fill="white" stroke="black" points="362.5,-570.5 362.5,-589.5 454.5,-589.5 454.5,-570.5 362.5,-570.5"/>
<text text-anchor="middle" x="408.5" y="-577.5" font-family="Helvetica,sans-Serif" font-size="10.00">rdcu_submit_tx</text>
</a>
</g>
</g>
<!-- Node2&#45;&gt;Node4 -->
<g id="edge3" class="edge">
<title>Node2&#45;&gt;Node4</title>
<path fill="none" stroke="midnightblue" d="M276.31,-610.58C299.15,-605.26 330.41,-597.97 356.68,-591.85"/>
<polygon fill="midnightblue" stroke="midnightblue" points="357.54,-595.24 366.48,-589.56 355.95,-588.42 357.54,-595.24"/>
</g>
<!-- Node18 -->
<g id="node18" class="node">
<title>Node18</title>
<g id="a_node18"><a xlink:href="rdcu__rmap_8c_a36f44335aa66dd49fb4903f7269bc5b1.html#a36f44335aa66dd49fb4903f7269bc5b1" target="_top" xlink:title="grab a slot in the transaction log">
<polygon fill="white" stroke="black" points="352.5,-684.5 352.5,-703.5 464.5,-703.5 464.5,-684.5 352.5,-684.5"/>
<text text-anchor="middle" x="408.5" y="-691.5" font-family="Helvetica,sans-Serif" font-size="10.00">trans_log_grab_slot</text>
</a>
</g>
</g>
<!-- Node2&#45;&gt;Node18 -->
<g id="edge19" class="edge">
<title>Node2&#45;&gt;Node18</title>
<path fill="none" stroke="midnightblue" d="M260.33,-627.62C278.96,-638.71 311.04,-657.06 340,-670 348.93,-673.99 358.75,-677.8 368.07,-681.15"/>
<polygon fill="midnightblue" stroke="midnightblue" points="366.94,-684.46 377.53,-684.48 369.26,-677.86 366.94,-684.46"/>
</g>
<!-- Node5 -->
<g id="node5" class="node">
<title>Node5</title>
<g id="a_node5"><a xlink:href="rdcu__rmap_8c_a1a064554031c2fa2dcb65541e0765c0f.html#a1a064554031c2fa2dcb65541e0765c0f" target="_top" xlink:title="n rmap command transaction">
<polygon fill="white" stroke="black" points="513,-551.5 513,-570.5 608,-570.5 608,-551.5 513,-551.5"/>
<text text-anchor="middle" x="560.5" y="-558.5" font-family="Helvetica,sans-Serif" font-size="10.00">rdcu_process_rx</text>
</a>
</g>
</g>
<!-- Node4&#45;&gt;Node5 -->
<g id="edge4" class="edge">
<title>Node4&#45;&gt;Node5</title>
<path fill="none" stroke="midnightblue" d="M454.5,-574.3C469.65,-572.38 486.76,-570.21 502.69,-568.2"/>
<polygon fill="midnightblue" stroke="midnightblue" points="503.49,-571.62 512.97,-566.89 502.61,-564.68 503.49,-571.62"/>
</g>
<!-- Node5&#45;&gt;Node3 -->
<g id="edge5" class="edge">
<title>Node5&#45;&gt;Node3</title>
<path fill="none" stroke="midnightblue" d="M580.19,-551.49C596.7,-543.3 621.59,-531.49 644,-523 698.69,-502.27 715.97,-507.41 770,-485 799.25,-472.87 831.03,-455.12 852.08,-442.66"/>
<polygon fill="midnightblue" stroke="midnightblue" points="853.9,-445.65 860.68,-437.51 850.3,-439.65 853.9,-445.65"/>
</g>
<!-- Node6 -->
<g id="node6" class="node">
<title>Node6</title>
<g id="a_node6"><a xlink:href="rmap_8c_abf1868ec6873f9f189050cadc7e64a3b.html#abf1868ec6873f9f189050cadc7e64a3b" target="_top" xlink:title="calculate the CRC8 of a given buffer">
<polygon fill="white" stroke="black" points="673,-570.5 673,-589.5 741,-589.5 741,-570.5 673,-570.5"/>
<text text-anchor="middle" x="707" y="-577.5" font-family="Helvetica,sans-Serif" font-size="10.00">rmap_crc8</text>
</a>
</g>
</g>
<!-- Node5&#45;&gt;Node6 -->
<g id="edge6" class="edge">
<title>Node5&#45;&gt;Node6</title>
<path fill="none" stroke="midnightblue" d="M608.02,-567.12C625.51,-569.42 645.31,-572.02 662.52,-574.28"/>
<polygon fill="midnightblue" stroke="midnightblue" points="662.48,-577.81 672.85,-575.64 663.39,-570.87 662.48,-577.81"/>
</g>
<!-- Node7 -->
<g id="node7" class="node">
<title>Node7</title>
<g id="a_node7"><a xlink:href="rmap_8c_a1def9af549819e7fdbda12af8bdc9c0e.html#a1def9af549819e7fdbda12af8bdc9c0e" target="_top" xlink:title="completely destroys an RMAP packet">
<polygon fill="white" stroke="black" points="651,-456.5 651,-475.5 763,-475.5 763,-456.5 651,-456.5"/>
<text text-anchor="middle" x="707" y="-463.5" font-family="Helvetica,sans-Serif" font-size="10.00">rmap_erase_packet</text>
</a>
</g>
</g>
<!-- Node5&#45;&gt;Node7 -->
<g id="edge7" class="edge">
<title>Node5&#45;&gt;Node7</title>
<path fill="none" stroke="midnightblue" d="M570.8,-551.06C585.25,-536.11 614.5,-507.68 644,-490 650.75,-485.95 658.31,-482.36 665.76,-479.26"/>
<polygon fill="midnightblue" stroke="midnightblue" points="667.04,-482.52 675.07,-475.61 664.48,-476 667.04,-482.52"/>
</g>
<!-- Node8 -->
<g id="node8" class="node">
<title>Node8</title>
<g id="a_node8"><a xlink:href="rmap_8c_a5e88a29337404518eceedf9b4af285bf.html#a5e88a29337404518eceedf9b4af285bf" target="_top" xlink:title=" ">
<polygon fill="white" stroke="black" points="659.5,-684.5 659.5,-703.5 754.5,-703.5 754.5,-684.5 659.5,-684.5"/>
<text text-anchor="middle" x="707" y="-691.5" font-family="Helvetica,sans-Serif" font-size="10.00">rmap_parse_pkt</text>
</a>
</g>
</g>
<!-- Node5&#45;&gt;Node8 -->
<g id="edge8" class="edge">
<title>Node5&#45;&gt;Node8</title>
<path fill="none" stroke="midnightblue" d="M571.92,-570.6C587.56,-585.02 618.06,-613.13 644,-637 658.83,-650.65 675.66,-666.12 688.04,-677.5"/>
<polygon fill="midnightblue" stroke="midnightblue" points="685.73,-680.13 695.47,-684.32 690.47,-674.98 685.73,-680.13"/>
</g>
<!-- Node13 -->
<g id="node13" class="node">
<title>Node13</title>
<g id="a_node13"><a xlink:href="rmap_8c_a46d3271304c12df042b57dbebaba67e1.html#a46d3271304c12df042b57dbebaba67e1" target="_top" xlink:title="create an rmap packet from a buffer">
<polygon fill="white" stroke="black" points="644.5,-342.5 644.5,-361.5 769.5,-361.5 769.5,-342.5 644.5,-342.5"/>
<text text-anchor="middle" x="707" y="-349.5" font-family="Helvetica,sans-Serif" font-size="10.00">rmap_pkt_from_buffer</text>
</a>
</g>
</g>
<!-- Node5&#45;&gt;Node13 -->
<g id="edge13" class="edge">
<title>Node5&#45;&gt;Node13</title>
<path fill="none" stroke="midnightblue" d="M562.8,-551.48C567.52,-520.6 586.62,-422.28 644,-371 645.91,-369.29 647.97,-367.74 650.14,-366.33"/>
<polygon fill="midnightblue" stroke="midnightblue" points="651.84,-369.39 658.95,-361.54 648.49,-363.24 651.84,-369.39"/>
</g>
<!-- Node16 -->
<g id="node16" class="node">
<title>Node16</title>
<g id="a_node16"><a xlink:href="rdcu__rmap_8c_acf9b176d8d9b24e9d07711f56aebccc0.html#acf9b176d8d9b24e9d07711f56aebccc0" target="_top" xlink:title="get the local address for a slot">
<polygon fill="white" stroke="black" points="652,-532.5 652,-551.5 762,-551.5 762,-532.5 652,-532.5"/>
<text text-anchor="middle" x="707" y="-539.5" font-family="Helvetica,sans-Serif" font-size="10.00">trans_log_get_addr</text>
</a>
</g>
</g>
<!-- Node5&#45;&gt;Node16 -->
<g id="edge17" class="edge">
<title>Node5&#45;&gt;Node16</title>
<path fill="none" stroke="midnightblue" d="M608.02,-554.88C618.69,-553.48 630.23,-551.96 641.51,-550.48"/>
<polygon fill="midnightblue" stroke="midnightblue" points="642.31,-553.9 651.77,-549.13 641.4,-546.96 642.31,-553.9"/>
</g>
<!-- Node17 -->
<g id="node17" class="node">
<title>Node17</title>
<g id="a_node17"><a xlink:href="rdcu__rmap_8c_a7012f58a1862cf07b00e299d24c199c2.html#a7012f58a1862cf07b00e299d24c199c2" target="_top" xlink:title="release a slot in the transaction log">
<polygon fill="white" stroke="black" points="644,-608.5 644,-627.5 770,-627.5 770,-608.5 644,-608.5"/>
<text text-anchor="middle" x="707" y="-615.5" font-family="Helvetica,sans-Serif" font-size="10.00">trans_log_release_slot</text>
</a>
</g>
</g>
<!-- Node5&#45;&gt;Node17 -->
<g id="edge18" class="edge">
<title>Node5&#45;&gt;Node17</title>
<path fill="none" stroke="midnightblue" d="M580.52,-570.65C597.05,-578.82 621.75,-590.51 644,-599 649.87,-601.24 656.12,-603.4 662.31,-605.42"/>
<polygon fill="midnightblue" stroke="midnightblue" points="661.34,-608.78 671.93,-608.46 663.45,-602.11 661.34,-608.78"/>
</g>
<!-- Node9 -->
<g id="node9" class="node">
<title>Node9</title>
<g id="a_node9"><a xlink:href="rmap_8c_abb4e19c17c7223212c3904bc4c0189d2.html#abb4e19c17c7223212c3904bc4c0189d2" target="_top" xlink:title=" ">
<polygon fill="white" stroke="black" points="821.5,-684.5 821.5,-703.5 932.5,-703.5 932.5,-684.5 821.5,-684.5"/>
<text text-anchor="middle" x="877" y="-691.5" font-family="Helvetica,sans-Serif" font-size="10.00">rmap_check_status</text>
</a>
</g>
</g>
<!-- Node8&#45;&gt;Node9 -->
<g id="edge9" class="edge">
<title>Node8&#45;&gt;Node9</title>
<path fill="none" stroke="midnightblue" d="M754.8,-694C772.33,-694 792.57,-694 811.42,-694"/>
<polygon fill="midnightblue" stroke="midnightblue" points="811.43,-697.5 821.43,-694 811.43,-690.5 811.43,-697.5"/>
</g>
<!-- Node10 -->
<g id="node10" class="node">
<title>Node10</title>
<g id="a_node10"><a xlink:href="rmap_8c_a20aa8b91dfb1bbad819759f97b853054.html#a20aa8b91dfb1bbad819759f97b853054" target="_top" xlink:title=" ">
<polygon fill="white" stroke="black" points="816,-646.5 816,-665.5 938,-665.5 938,-646.5 816,-646.5"/>
<text text-anchor="middle" x="877" y="-653.5" font-family="Helvetica,sans-Serif" font-size="10.00">rmap_parse_cmd_pkt</text>
</a>
</g>
</g>
<!-- Node8&#45;&gt;Node10 -->
<g id="edge10" class="edge">
<title>Node8&#45;&gt;Node10</title>
<path fill="none" stroke="midnightblue" d="M750.39,-684.41C772.76,-679.35 800.4,-673.1 824.05,-667.75"/>
<polygon fill="midnightblue" stroke="midnightblue" points="824.93,-671.14 833.91,-665.52 823.39,-664.31 824.93,-671.14"/>
</g>
<!-- Node11 -->
<g id="node11" class="node">
<title>Node11</title>
<g id="a_node11"><a xlink:href="rmap_8c_adef42426b46ee5ad5176ee76cff35c22.html#adef42426b46ee5ad5176ee76cff35c22" target="_top" xlink:title=" ">
<polygon fill="white" stroke="black" points="814.5,-722.5 814.5,-741.5 939.5,-741.5 939.5,-722.5 814.5,-722.5"/>
<text text-anchor="middle" x="877" y="-729.5" font-family="Helvetica,sans-Serif" font-size="10.00">rmap_parse_reply_pkt</text>
</a>
</g>
</g>
<!-- Node8&#45;&gt;Node11 -->
<g id="edge11" class="edge">
<title>Node8&#45;&gt;Node11</title>
<path fill="none" stroke="midnightblue" d="M750.39,-703.59C772.76,-708.65 800.4,-714.9 824.05,-720.25"/>
<polygon fill="midnightblue" stroke="midnightblue" points="823.39,-723.69 833.91,-722.48 824.93,-716.86 823.39,-723.69"/>
</g>
<!-- Node12 -->
<g id="node12" class="node">
<title>Node12</title>
<g id="a_node12"><a xlink:href="rmap_8c_a2ff278a5e094a9f585865d4d838e0e0e.html#a2ff278a5e094a9f585865d4d838e0e0e" target="_top" xlink:title=" ">
<polygon fill="white" stroke="black" points="984,-722.5 984,-741.5 1126,-741.5 1126,-722.5 984,-722.5"/>
<text text-anchor="middle" x="1055" y="-729.5" font-family="Helvetica,sans-Serif" font-size="10.00">rmap_process_read_reply</text>
</a>
</g>
</g>
<!-- Node11&#45;&gt;Node12 -->
<g id="edge12" class="edge">
<title>Node11&#45;&gt;Node12</title>
<path fill="none" stroke="midnightblue" d="M939.56,-732C950.6,-732 962.25,-732 973.73,-732"/>
<polygon fill="midnightblue" stroke="midnightblue" points="973.74,-735.5 983.74,-732 973.74,-728.5 973.74,-735.5"/>
</g>
<!-- Node13&#45;&gt;Node3 -->
<g id="edge14" class="edge">
<title>Node13&#45;&gt;Node3</title>
<path fill="none" stroke="midnightblue" d="M743.51,-361.57C752.29,-364.3 761.58,-367.49 770,-371 799.06,-383.13 830.64,-400.73 851.7,-413.16"/>
<polygon fill="midnightblue" stroke="midnightblue" points="849.94,-416.18 860.32,-418.3 853.52,-410.17 849.94,-416.18"/>
</g>
<!-- Node14 -->
<g id="node14" class="node">
<title>Node14</title>
<g id="a_node14"><a xlink:href="rmap_8c_aba944cf978de0b264ea5bb3a784bce0f.html#aba944cf978de0b264ea5bb3a784bce0f" target="_top" xlink:title="create an RMAP packet and set defaults">
<polygon fill="white" stroke="black" points="819,-228.5 819,-247.5 935,-247.5 935,-228.5 819,-228.5"/>
<text text-anchor="middle" x="877" y="-235.5" font-family="Helvetica,sans-Serif" font-size="10.00">rmap_create_packet</text>
</a>
</g>
</g>
<!-- Node13&#45;&gt;Node14 -->
<g id="edge15" class="edge">
<title>Node13&#45;&gt;Node14</title>
<path fill="none" stroke="midnightblue" d="M748.42,-342.4C755.83,-339.87 763.33,-336.76 770,-333 807.04,-312.08 842.2,-276.34 861.26,-255.17"/>
<polygon fill="midnightblue" stroke="midnightblue" points="863.96,-257.39 867.96,-247.58 858.72,-252.75 863.96,-257.39"/>
</g>
<!-- Node15 -->
<g id="node15" class="node">
<title>Node15</title>
<g id="a_node15"><a xlink:href="rmap_8c_a0ec3c28e83818f02e00d4c79d82d938a.html#a0ec3c28e83818f02e00d4c79d82d938a" target="_top" xlink:title="get the minimum header size given the RMAP instruction">
<polygon fill="white" stroke="black" points="810.5,-133.5 810.5,-152.5 943.5,-152.5 943.5,-133.5 810.5,-133.5"/>
<text text-anchor="middle" x="877" y="-140.5" font-family="Helvetica,sans-Serif" font-size="10.00">rmap_get_min_hdr_size</text>
</a>
</g>
</g>
<!-- Node13&#45;&gt;Node15 -->
<g id="edge16" class="edge">
<title>Node13&#45;&gt;Node15</title>
<path fill="none" stroke="midnightblue" d="M756.37,-342.44C761.39,-339.98 766.08,-336.88 770,-333 807.73,-295.59 779.36,-264.97 806,-219 819.48,-195.74 841.17,-173.66 856.83,-159.36"/>
<polygon fill="midnightblue" stroke="midnightblue" points="859.26,-161.89 864.4,-152.62 854.6,-156.66 859.26,-161.89"/>
</g>
<!-- Node20 -->
<g id="node20" class="node">
<title>Node20</title>
<g id="a_node20"><a xlink:href="rdcu__cmd_8c_a690d79ff983a96fdd40db6396e9c70e9.html#a690d79ff983a96fdd40db6396e9c70e9" target="_top" xlink:title="generate a write command for an arbitrary register (internal)">
<polygon fill="white" stroke="black" points="340,-353 340,-383 477,-383 477,-353 340,-353"/>
<text text-anchor="start" x="348" y="-371" font-family="Helvetica,sans-Serif" font-size="10.00">rdcu_write_cmd_register</text>
<text text-anchor="middle" x="408.5" y="-360" font-family="Helvetica,sans-Serif" font-size="10.00">_internal</text>
</a>
</g>
</g>
<!-- Node19&#45;&gt;Node20 -->
<g id="edge21" class="edge">
<title>Node19&#45;&gt;Node20</title>
<path fill="none" stroke="midnightblue" d="M256.49,-558.85C284.69,-523.21 355.39,-433.86 389.09,-391.27"/>
<polygon fill="midnightblue" stroke="midnightblue" points="392.04,-393.18 395.5,-383.17 386.55,-388.84 392.04,-393.18"/>
</g>
<!-- Node21 -->
<g id="node21" class="node">
<title>Node21</title>
<g id="a_node21"><a xlink:href="rdcu__rmap_8c_ab224927e85a7cec5b6f90292c7de36c4.html#ab224927e85a7cec5b6f90292c7de36c4" target="_top" xlink:title="generate an rmap command packet">
<polygon fill="white" stroke="black" points="517,-228.5 517,-247.5 604,-247.5 604,-228.5 517,-228.5"/>
<text text-anchor="middle" x="560.5" y="-235.5" font-family="Helvetica,sans-Serif" font-size="10.00">rdcu_gen_cmd</text>
</a>
</g>
</g>
<!-- Node20&#45;&gt;Node21 -->
<g id="edge22" class="edge">
<title>Node20&#45;&gt;Node21</title>
<path fill="none" stroke="midnightblue" d="M427,-352.83C455.42,-328.21 511.36,-279.72 540.63,-254.35"/>
<polygon fill="midnightblue" stroke="midnightblue" points="543.2,-256.76 548.47,-247.56 538.62,-251.47 543.2,-256.76"/>
</g>
<!-- Node21&#45;&gt;Node7 -->
<g id="edge26" class="edge">
<title>Node21&#45;&gt;Node7</title>
<path fill="none" stroke="midnightblue" d="M562.38,-247.52C565.93,-280.34 582.12,-389.81 644,-447 645.71,-448.58 647.55,-450.03 649.49,-451.37"/>
<polygon fill="midnightblue" stroke="midnightblue" points="648.08,-454.59 658.51,-456.46 651.53,-448.49 648.08,-454.59"/>
</g>
<!-- Node21&#45;&gt;Node14 -->
<g id="edge25" class="edge">
<title>Node21&#45;&gt;Node14</title>
<path fill="none" stroke="midnightblue" d="M566.23,-228.34C576.82,-207.96 604.65,-160.95 644,-143 694.95,-119.76 717.7,-122.99 770,-143 810.34,-158.43 845.01,-197.08 862.95,-220.05"/>
<polygon fill="midnightblue" stroke="midnightblue" points="860.35,-222.42 869.18,-228.27 865.93,-218.19 860.35,-222.42"/>
</g>
<!-- Node22 -->
<g id="node22" class="node">
<title>Node22</title>
<g id="a_node22"><a xlink:href="rmap_8c_aa17375d153cc3473cbbe4dfe1056c527.html#aa17375d153cc3473cbbe4dfe1056c527" target="_top" xlink:title="build an rmap header">
<polygon fill="white" stroke="black" points="661,-76.5 661,-95.5 753,-95.5 753,-76.5 661,-76.5"/>
<text text-anchor="middle" x="707" y="-83.5" font-family="Helvetica,sans-Serif" font-size="10.00">rmap_build_hdr</text>
</a>
</g>
</g>
<!-- Node21&#45;&gt;Node22 -->
<g id="edge23" class="edge">
<title>Node21&#45;&gt;Node22</title>
<path fill="none" stroke="midnightblue" d="M565.29,-228.17C574.9,-204.53 602.4,-143.91 644,-110 648.99,-105.93 654.75,-102.5 660.71,-99.61"/>
<polygon fill="midnightblue" stroke="midnightblue" points="662.36,-102.71 670.15,-95.52 659.58,-96.29 662.36,-102.71"/>
</g>
<!-- Node23 -->
<g id="node23" class="node">
<title>Node23</title>
<g id="a_node23"><a xlink:href="rmap_8c_aab7e23f061291d39568ad2df700bc777.html#aab7e23f061291d39568ad2df700bc777" target="_top" xlink:title="set an RMAP command">
<polygon fill="white" stroke="black" points="662.5,-38.5 662.5,-57.5 751.5,-57.5 751.5,-38.5 662.5,-38.5"/>
<text text-anchor="middle" x="707" y="-45.5" font-family="Helvetica,sans-Serif" font-size="10.00">rmap_set_cmd</text>
</a>
</g>
</g>
<!-- Node21&#45;&gt;Node23 -->
<g id="edge27" class="edge">
<title>Node21&#45;&gt;Node23</title>
<path fill="none" stroke="midnightblue" d="M563.36,-228.21C569.4,-199.09 591.23,-112.3 644,-67 646.81,-64.58 649.93,-62.48 653.22,-60.64"/>
<polygon fill="midnightblue" stroke="midnightblue" points="654.72,-63.8 662.27,-56.36 651.74,-57.47 654.72,-63.8"/>
</g>
<!-- Node25 -->
<g id="node25" class="node">
<title>Node25</title>
<g id="a_node25"><a xlink:href="rmap_8c_acf641aae92829ae864b6c3d8f94d86e2.html#acf641aae92829ae864b6c3d8f94d86e2" target="_top" xlink:title="set a data address">
<polygon fill="white" stroke="black" points="649,-228.5 649,-247.5 765,-247.5 765,-228.5 649,-228.5"/>
<text text-anchor="middle" x="707" y="-235.5" font-family="Helvetica,sans-Serif" font-size="10.00">rmap_set_data_addr</text>
</a>
</g>
</g>
<!-- Node21&#45;&gt;Node25 -->
<g id="edge29" class="edge">
<title>Node21&#45;&gt;Node25</title>
<path fill="none" stroke="midnightblue" d="M604.07,-238C614.95,-238 626.92,-238 638.72,-238"/>
<polygon fill="midnightblue" stroke="midnightblue" points="639,-241.5 649,-238 639,-234.5 639,-241.5"/>
</g>
<!-- Node26 -->
<g id="node26" class="node">
<title>Node26</title>
<g id="a_node26"><a xlink:href="rmap_8c_a6833f065640f652aa1a929309e592f7a.html#a6833f065640f652aa1a929309e592f7a" target="_top" xlink:title="set an RMAP command">
<polygon fill="white" stroke="black" points="652,-190.5 652,-209.5 762,-209.5 762,-190.5 652,-190.5"/>
<text text-anchor="middle" x="707" y="-197.5" font-family="Helvetica,sans-Serif" font-size="10.00">rmap_set_data_len</text>
</a>
</g>
</g>
<!-- Node21&#45;&gt;Node26 -->
<g id="edge30" class="edge">
<title>Node21&#45;&gt;Node26</title>
<path fill="none" stroke="midnightblue" d="M597.96,-228.41C616.77,-223.46 639.91,-217.38 659.95,-212.11"/>
<polygon fill="midnightblue" stroke="midnightblue" points="661.02,-215.45 669.8,-209.52 659.24,-208.68 661.02,-215.45"/>
</g>
<!-- Node27 -->
<g id="node27" class="node">
<title>Node27</title>
<g id="a_node27"><a xlink:href="rmap_8c_a5f0081b9928da5e50fc8b231b57f3a80.html#a5f0081b9928da5e50fc8b231b57f3a80" target="_top" xlink:title="set the destination address path">
<polygon fill="white" stroke="black" points="649,-418.5 649,-437.5 765,-437.5 765,-418.5 649,-418.5"/>
<text text-anchor="middle" x="707" y="-425.5" font-family="Helvetica,sans-Serif" font-size="10.00">rmap_set_dest_path</text>
</a>
</g>
</g>
<!-- Node21&#45;&gt;Node27 -->
<g id="edge31" class="edge">
<title>Node21&#45;&gt;Node27</title>
<path fill="none" stroke="midnightblue" d="M563.36,-247.79C569.4,-276.91 591.23,-363.7 644,-409 645.98,-410.7 648.11,-412.25 650.35,-413.66"/>
<polygon fill="midnightblue" stroke="midnightblue" points="648.93,-416.87 659.41,-418.44 652.2,-410.68 648.93,-416.87"/>
</g>
<!-- Node28 -->
<g id="node28" class="node">
<title>Node28</title>
<g id="a_node28"><a xlink:href="rmap_8c_a2da8e7b48411d382b54848795f85795d.html#a2da8e7b48411d382b54848795f85795d" target="_top" xlink:title="set the destination (target) logical address">
<polygon fill="white" stroke="black" points="665.5,-152.5 665.5,-171.5 748.5,-171.5 748.5,-152.5 665.5,-152.5"/>
<text text-anchor="middle" x="707" y="-159.5" font-family="Helvetica,sans-Serif" font-size="10.00">rmap_set_dst</text>
</a>
</g>
</g>
<!-- Node21&#45;&gt;Node28 -->
<g id="edge33" class="edge">
<title>Node21&#45;&gt;Node28</title>
<path fill="none" stroke="midnightblue" d="M572.82,-228.48C588.1,-216.04 616.58,-194.28 644,-181 648.63,-178.76 653.58,-176.71 658.6,-174.86"/>
<polygon fill="midnightblue" stroke="midnightblue" points="659.92,-178.1 668.24,-171.54 657.65,-171.48 659.92,-178.1"/>
</g>
<!-- Node29 -->
<g id="node29" class="node">
<title>Node29</title>
<g id="a_node29"><a xlink:href="rmap_8c_a15021c9dfccddc44786dfd37834bcd7e.html#a15021c9dfccddc44786dfd37834bcd7e" target="_top" xlink:title="set the command authorisation key">
<polygon fill="white" stroke="black" points="664.5,-0.5 664.5,-19.5 749.5,-19.5 749.5,-0.5 664.5,-0.5"/>
<text text-anchor="middle" x="707" y="-7.5" font-family="Helvetica,sans-Serif" font-size="10.00">rmap_set_key</text>
</a>
</g>
</g>
<!-- Node21&#45;&gt;Node29 -->
<g id="edge34" class="edge">
<title>Node21&#45;&gt;Node29</title>
<path fill="none" stroke="midnightblue" d="M562.38,-228.48C565.93,-195.66 582.12,-86.19 644,-29 647.21,-26.03 650.87,-23.53 654.77,-21.42"/>
<polygon fill="midnightblue" stroke="midnightblue" points="656.54,-24.46 664.22,-17.16 653.66,-18.08 656.54,-24.46"/>
</g>
<!-- Node30 -->
<g id="node30" class="node">
<title>Node30</title>
<g id="a_node30"><a xlink:href="rmap_8c_a56c47830e67d01e469231e5e7e1d3a34.html#a56c47830e67d01e469231e5e7e1d3a34" target="_top" xlink:title="set the reply address path">
<polygon fill="white" stroke="black" points="647.5,-380.5 647.5,-399.5 766.5,-399.5 766.5,-380.5 647.5,-380.5"/>
<text text-anchor="middle" x="707" y="-387.5" font-family="Helvetica,sans-Serif" font-size="10.00">rmap_set_reply_path</text>
</a>
</g>
</g>
<!-- Node21&#45;&gt;Node30 -->
<g id="edge35" class="edge">
<title>Node21&#45;&gt;Node30</title>
<path fill="none" stroke="midnightblue" d="M564.76,-247.68C573.52,-272.17 599.88,-337 644,-371 646.34,-372.8 648.85,-374.44 651.48,-375.92"/>
<polygon fill="midnightblue" stroke="midnightblue" points="650.22,-379.19 660.75,-380.38 653.25,-372.89 650.22,-379.19"/>
</g>
<!-- Node31 -->
<g id="node31" class="node">
<title>Node31</title>
<g id="a_node31"><a xlink:href="rmap_8c_adae0030440ca4e7ad34622e505acbb2c.html#adae0030440ca4e7ad34622e505acbb2c" target="_top" xlink:title="set the source (initiator) logical address">
<polygon fill="white" stroke="black" points="666,-304.5 666,-323.5 748,-323.5 748,-304.5 666,-304.5"/>
<text text-anchor="middle" x="707" y="-311.5" font-family="Helvetica,sans-Serif" font-size="10.00">rmap_set_src</text>
</a>
</g>
</g>
<!-- Node21&#45;&gt;Node31 -->
<g id="edge37" class="edge">
<title>Node21&#45;&gt;Node31</title>
<path fill="none" stroke="midnightblue" d="M572.82,-247.52C588.1,-259.96 616.58,-281.72 644,-295 648.63,-297.24 653.58,-299.29 658.6,-301.14"/>
<polygon fill="midnightblue" stroke="midnightblue" points="657.65,-304.52 668.24,-304.46 659.92,-297.9 657.65,-304.52"/>
</g>
<!-- Node32 -->
<g id="node32" class="node">
<title>Node32</title>
<g id="a_node32"><a xlink:href="rmap_8c_a7b4c31714493ce6cc19d4aa825ab50aa.html#a7b4c31714493ce6cc19d4aa825ab50aa" target="_top" xlink:title="set an RMAP transaction identifier">
<polygon fill="white" stroke="black" points="662.5,-266.5 662.5,-285.5 751.5,-285.5 751.5,-266.5 662.5,-266.5"/>
<text text-anchor="middle" x="707" y="-273.5" font-family="Helvetica,sans-Serif" font-size="10.00">rmap_set_tr_id</text>
</a>
</g>
</g>
<!-- Node21&#45;&gt;Node32 -->
<g id="edge38" class="edge">
<title>Node21&#45;&gt;Node32</title>
<path fill="none" stroke="midnightblue" d="M597.96,-247.59C616.77,-252.54 639.91,-258.62 659.95,-263.89"/>
<polygon fill="midnightblue" stroke="midnightblue" points="659.24,-267.32 669.8,-266.48 661.02,-260.55 659.24,-267.32"/>
</g>
<!-- Node22&#45;&gt;Node15 -->
<g id="edge24" class="edge">
<title>Node22&#45;&gt;Node15</title>
<path fill="none" stroke="midnightblue" d="M736.12,-95.54C764.1,-105.03 807.23,-119.67 838.2,-130.17"/>
<polygon fill="midnightblue" stroke="midnightblue" points="837.19,-133.53 847.79,-133.43 839.44,-126.9 837.19,-133.53"/>
</g>
<!-- Node24 -->
<g id="node24" class="node">
<title>Node24</title>
<g id="a_node24"><a xlink:href="rmap_8c_a667ce871110961f2a611d0244791e20f.html#a667ce871110961f2a611d0244791e20f" target="_top" xlink:title="valiidates a command code">
<polygon fill="white" stroke="black" points="806,-38.5 806,-57.5 948,-57.5 948,-38.5 806,-38.5"/>
<text text-anchor="middle" x="877" y="-45.5" font-family="Helvetica,sans-Serif" font-size="10.00">rmap_validate_cmd_code</text>
</a>
</g>
</g>
<!-- Node23&#45;&gt;Node24 -->
<g id="edge28" class="edge">
<title>Node23&#45;&gt;Node24</title>
<path fill="none" stroke="midnightblue" d="M751.7,-48C765.13,-48 780.36,-48 795.44,-48"/>
<polygon fill="midnightblue" stroke="midnightblue" points="795.83,-51.5 805.83,-48 795.83,-44.5 795.83,-51.5"/>
</g>
<!-- Node27&#45;&gt;Node3 -->
<g id="edge32" class="edge">
<title>Node27&#45;&gt;Node3</title>
<path fill="none" stroke="midnightblue" d="M765.35,-428C790.67,-428 819.6,-428 841.52,-428"/>
<polygon fill="midnightblue" stroke="midnightblue" points="841.68,-431.5 851.68,-428 841.68,-424.5 841.68,-431.5"/>
</g>
<!-- Node30&#45;&gt;Node3 -->
<g id="edge36" class="edge">
<title>Node30&#45;&gt;Node3</title>
<path fill="none" stroke="midnightblue" d="M750.39,-399.59C778.71,-405.99 815.47,-414.31 841.9,-420.29"/>
<polygon fill="midnightblue" stroke="midnightblue" points="841.3,-423.74 851.83,-422.53 842.85,-416.91 841.3,-423.74"/>
</g>
</g>
</svg>
