<?xml version="1.0" encoding="UTF-8" standalone="no"?>
<!DOCTYPE svg PUBLIC "-//W3C//DTD SVG 1.1//EN"
 "http://www.w3.org/Graphics/SVG/1.1/DTD/svg11.dtd">
<!-- Generated by graphviz version 2.43.0 (0)
 -->
<!-- Title: rdcu_gen_cmd Pages: 1 -->
<svg width="428pt" height="446pt"
 viewBox="0.00 0.00 428.00 446.00" xmlns="http://www.w3.org/2000/svg" xmlns:xlink="http://www.w3.org/1999/xlink">
<g id="graph0" class="graph" transform="scale(1 1) rotate(0) translate(4 442)">
<title>rdcu_gen_cmd</title>
<polygon fill="white" stroke="transparent" points="-4,4 -4,-442 424,-442 424,4 -4,4"/>
<!-- Node1 -->
<g id="node1" class="node">
<title>Node1</title>
<g id="a_node1"><a xlink:title="generate an rmap command packet">
<polygon fill="#bfbfbf" stroke="black" points="0,-209.5 0,-228.5 87,-228.5 87,-209.5 0,-209.5"/>
<text text-anchor="middle" x="43.5" y="-216.5" font-family="Helvetica,sans-Serif" font-size="10.00">rdcu_gen_cmd</text>
</a>
</g>
</g>
<!-- Node2 -->
<g id="node2" class="node">
<title>Node2</title>
<g id="a_node2"><a xlink:href="rmap_8c_aa17375d153cc3473cbbe4dfe1056c527.html#aa17375d153cc3473cbbe4dfe1056c527" target="_top" xlink:title="build an rmap header">
<polygon fill="white" stroke="black" points="136.5,-418.5 136.5,-437.5 228.5,-437.5 228.5,-418.5 136.5,-418.5"/>
<text text-anchor="middle" x="182.5" y="-425.5" font-family="Helvetica,sans-Serif" font-size="10.00">rmap_build_hdr</text>
</a>
</g>
</g>
<!-- Node1&#45;&gt;Node2 -->
<g id="edge1" class="edge">
<title>Node1&#45;&gt;Node2</title>
<path fill="none" stroke="midnightblue" d="M45.68,-228.91C49.91,-260.12 67.2,-357.38 123,-409 124.72,-410.59 126.57,-412.05 128.53,-413.38"/>
<polygon fill="midnightblue" stroke="midnightblue" points="127.18,-416.64 137.62,-418.49 130.62,-410.54 127.18,-416.64"/>
</g>
<!-- Node4 -->
<g id="node4" class="node">
<title>Node4</title>
<g id="a_node4"><a xlink:href="rmap_8c_aba944cf978de0b264ea5bb3a784bce0f.html#aba944cf978de0b264ea5bb3a784bce0f" target="_top" xlink:title="create an RMAP packet and set defaults">
<polygon fill="white" stroke="black" points="124.5,-380.5 124.5,-399.5 240.5,-399.5 240.5,-380.5 124.5,-380.5"/>
<text text-anchor="middle" x="182.5" y="-387.5" font-family="Helvetica,sans-Serif" font-size="10.00">rmap_create_packet</text>
</a>
</g>
</g>
<!-- Node1&#45;&gt;Node4 -->
<g id="edge3" class="edge">
<title>Node1&#45;&gt;Node4</title>
<path fill="none" stroke="midnightblue" d="M46.78,-228.81C53.52,-255.66 75.91,-331.01 123,-371 124.99,-372.69 127.14,-374.24 129.4,-375.64"/>
<polygon fill="midnightblue" stroke="midnightblue" points="128.04,-378.88 138.52,-380.42 131.28,-372.68 128.04,-378.88"/>
</g>
<!-- Node5 -->
<g id="node5" class="node">
<title>Node5</title>
<g id="a_node5"><a xlink:href="rmap_8c_a1def9af549819e7fdbda12af8bdc9c0e.html#a1def9af549819e7fdbda12af8bdc9c0e" target="_top" xlink:title="completely destroys an RMAP packet">
<polygon fill="white" stroke="black" points="126.5,-342.5 126.5,-361.5 238.5,-361.5 238.5,-342.5 126.5,-342.5"/>
<text text-anchor="middle" x="182.5" y="-349.5" font-family="Helvetica,sans-Serif" font-size="10.00">rmap_erase_packet</text>
</a>
</g>
</g>
<!-- Node1&#45;&gt;Node5 -->
<g id="edge4" class="edge">
<title>Node1&#45;&gt;Node5</title>
<path fill="none" stroke="midnightblue" d="M48.45,-228.53C57.97,-250.31 84.28,-304.12 123,-333 125.49,-334.86 128.16,-336.53 130.96,-338.05"/>
<polygon fill="midnightblue" stroke="midnightblue" points="129.63,-341.3 140.17,-342.38 132.6,-334.96 129.63,-341.3"/>
</g>
<!-- Node6 -->
<g id="node6" class="node">
<title>Node6</title>
<g id="a_node6"><a xlink:href="rmap_8c_aab7e23f061291d39568ad2df700bc777.html#aab7e23f061291d39568ad2df700bc777" target="_top" xlink:title="set an RMAP command">
<polygon fill="white" stroke="black" points="138,-304.5 138,-323.5 227,-323.5 227,-304.5 138,-304.5"/>
<text text-anchor="middle" x="182.5" y="-311.5" font-family="Helvetica,sans-Serif" font-size="10.00">rmap_set_cmd</text>
</a>
</g>
</g>
<!-- Node1&#45;&gt;Node6 -->
<g id="edge5" class="edge">
<title>Node1&#45;&gt;Node6</title>
<path fill="none" stroke="midnightblue" d="M51.91,-228.6C64.73,-244.59 92.6,-276.71 123,-295 126.45,-297.08 130.16,-298.96 133.97,-300.65"/>
<polygon fill="midnightblue" stroke="midnightblue" points="132.98,-304.02 143.57,-304.48 135.57,-297.52 132.98,-304.02"/>
</g>
<!-- Node8 -->
<g id="node8" class="node">
<title>Node8</title>
<g id="a_node8"><a xlink:href="rmap_8c_acf641aae92829ae864b6c3d8f94d86e2.html#acf641aae92829ae864b6c3d8f94d86e2" target="_top" xlink:title="set a data address">
<polygon fill="white" stroke="black" points="124.5,-266.5 124.5,-285.5 240.5,-285.5 240.5,-266.5 124.5,-266.5"/>
<text text-anchor="middle" x="182.5" y="-273.5" font-family="Helvetica,sans-Serif" font-size="10.00">rmap_set_data_addr</text>
</a>
</g>
</g>
<!-- Node1&#45;&gt;Node8 -->
<g id="edge7" class="edge">
<title>Node1&#45;&gt;Node8</title>
<path fill="none" stroke="midnightblue" d="M62.58,-228.63C78.29,-236.78 101.79,-248.47 123,-257 128.39,-259.17 134.14,-261.28 139.85,-263.25"/>
<polygon fill="midnightblue" stroke="midnightblue" points="138.74,-266.57 149.34,-266.43 140.97,-259.93 138.74,-266.57"/>
</g>
<!-- Node9 -->
<g id="node9" class="node">
<title>Node9</title>
<g id="a_node9"><a xlink:href="rmap_8c_a6833f065640f652aa1a929309e592f7a.html#a6833f065640f652aa1a929309e592f7a" target="_top" xlink:title="set an RMAP command">
<polygon fill="white" stroke="black" points="127.5,-228.5 127.5,-247.5 237.5,-247.5 237.5,-228.5 127.5,-228.5"/>
<text text-anchor="middle" x="182.5" y="-235.5" font-family="Helvetica,sans-Serif" font-size="10.00">rmap_set_data_len</text>
</a>
</g>
</g>
<!-- Node1&#45;&gt;Node9 -->
<g id="edge8" class="edge">
<title>Node1&#45;&gt;Node9</title>
<path fill="none" stroke="midnightblue" d="M87.1,-224.91C96.64,-226.23 106.97,-227.66 117.18,-229.08"/>
<polygon fill="midnightblue" stroke="midnightblue" points="116.92,-232.58 127.31,-230.48 117.88,-225.64 116.92,-232.58"/>
</g>
<!-- Node10 -->
<g id="node10" class="node">
<title>Node10</title>
<g id="a_node10"><a xlink:href="rmap_8c_a5f0081b9928da5e50fc8b231b57f3a80.html#a5f0081b9928da5e50fc8b231b57f3a80" target="_top" xlink:title="set the destination address path">
<polygon fill="white" stroke="black" points="124.5,-190.5 124.5,-209.5 240.5,-209.5 240.5,-190.5 124.5,-190.5"/>
<text text-anchor="middle" x="182.5" y="-197.5" font-family="Helvetica,sans-Serif" font-size="10.00">rmap_set_dest_path</text>
</a>
</g>
</g>
<!-- Node1&#45;&gt;Node10 -->
<g id="edge9" class="edge">
<title>Node1&#45;&gt;Node10</title>
<path fill="none" stroke="midnightblue" d="M87.1,-213.09C95.75,-211.89 105.05,-210.6 114.32,-209.32"/>
<polygon fill="midnightblue" stroke="midnightblue" points="114.9,-212.77 124.33,-207.93 113.94,-205.84 114.9,-212.77"/>
</g>
<!-- Node12 -->
<g id="node12" class="node">
<title>Node12</title>
<g id="a_node12"><a xlink:href="rmap_8c_a2da8e7b48411d382b54848795f85795d.html#a2da8e7b48411d382b54848795f85795d" target="_top" xlink:title="set the destination (target) logical address">
<polygon fill="white" stroke="black" points="141,-152.5 141,-171.5 224,-171.5 224,-152.5 141,-152.5"/>
<text text-anchor="middle" x="182.5" y="-159.5" font-family="Helvetica,sans-Serif" font-size="10.00">rmap_set_dst</text>
</a>
</g>
</g>
<!-- Node1&#45;&gt;Node12 -->
<g id="edge11" class="edge">
<title>Node1&#45;&gt;Node12</title>
<path fill="none" stroke="midnightblue" d="M62.58,-209.37C78.29,-201.22 101.79,-189.53 123,-181 128.39,-178.83 134.14,-176.72 139.85,-174.75"/>
<polygon fill="midnightblue" stroke="midnightblue" points="140.97,-178.07 149.34,-171.57 138.74,-171.43 140.97,-178.07"/>
</g>
<!-- Node13 -->
<g id="node13" class="node">
<title>Node13</title>
<g id="a_node13"><a xlink:href="rmap_8c_a15021c9dfccddc44786dfd37834bcd7e.html#a15021c9dfccddc44786dfd37834bcd7e" target="_top" xlink:title="set the command authorisation key">
<polygon fill="white" stroke="black" points="140,-114.5 140,-133.5 225,-133.5 225,-114.5 140,-114.5"/>
<text text-anchor="middle" x="182.5" y="-121.5" font-family="Helvetica,sans-Serif" font-size="10.00">rmap_set_key</text>
</a>
</g>
</g>
<!-- Node1&#45;&gt;Node13 -->
<g id="edge12" class="edge">
<title>Node1&#45;&gt;Node13</title>
<path fill="none" stroke="midnightblue" d="M51.91,-209.4C64.73,-193.41 92.6,-161.29 123,-143 126.45,-140.92 130.16,-139.04 133.97,-137.35"/>
<polygon fill="midnightblue" stroke="midnightblue" points="135.57,-140.48 143.57,-133.52 132.98,-133.98 135.57,-140.48"/>
</g>
<!-- Node14 -->
<g id="node14" class="node">
<title>Node14</title>
<g id="a_node14"><a xlink:href="rmap_8c_a56c47830e67d01e469231e5e7e1d3a34.html#a56c47830e67d01e469231e5e7e1d3a34" target="_top" xlink:title="set the reply address path">
<polygon fill="white" stroke="black" points="123,-76.5 123,-95.5 242,-95.5 242,-76.5 123,-76.5"/>
<text text-anchor="middle" x="182.5" y="-83.5" font-family="Helvetica,sans-Serif" font-size="10.00">rmap_set_reply_path</text>
</a>
</g>
</g>
<!-- Node1&#45;&gt;Node14 -->
<g id="edge13" class="edge">
<title>Node1&#45;&gt;Node14</title>
<path fill="none" stroke="midnightblue" d="M48.45,-209.47C57.97,-187.69 84.28,-133.88 123,-105 125.49,-103.14 128.16,-101.47 130.96,-99.95"/>
<polygon fill="midnightblue" stroke="midnightblue" points="132.6,-103.04 140.17,-95.62 129.63,-96.7 132.6,-103.04"/>
</g>
<!-- Node15 -->
<g id="node15" class="node">
<title>Node15</title>
<g id="a_node15"><a xlink:href="rmap_8c_adae0030440ca4e7ad34622e505acbb2c.html#adae0030440ca4e7ad34622e505acbb2c" target="_top" xlink:title="set the source (initiator) logical address">
<polygon fill="white" stroke="black" points="141.5,-38.5 141.5,-57.5 223.5,-57.5 223.5,-38.5 141.5,-38.5"/>
<text text-anchor="middle" x="182.5" y="-45.5" font-family="Helvetica,sans-Serif" font-size="10.00">rmap_set_src</text>
</a>
</g>
</g>
<!-- Node1&#45;&gt;Node15 -->
<g id="edge15" class="edge">
<title>Node1&#45;&gt;Node15</title>
<path fill="none" stroke="midnightblue" d="M46.78,-209.19C53.52,-182.34 75.91,-106.99 123,-67 125.73,-64.68 128.74,-62.65 131.93,-60.86"/>
<polygon fill="midnightblue" stroke="midnightblue" points="133.7,-63.89 141.23,-56.44 130.7,-57.57 133.7,-63.89"/>
</g>
<!-- Node16 -->
<g id="node16" class="node">
<title>Node16</title>
<g id="a_node16"><a xlink:href="rmap_8c_a7b4c31714493ce6cc19d4aa825ab50aa.html#a7b4c31714493ce6cc19d4aa825ab50aa" target="_top" xlink:title="set an RMAP transaction identifier">
<polygon fill="white" stroke="black" points="138,-0.5 138,-19.5 227,-19.5 227,-0.5 138,-0.5"/>
<text text-anchor="middle" x="182.5" y="-7.5" font-family="Helvetica,sans-Serif" font-size="10.00">rmap_set_tr_id</text>
</a>
</g>
</g>
<!-- Node1&#45;&gt;Node16 -->
<g id="edge16" class="edge">
<title>Node1&#45;&gt;Node16</title>
<path fill="none" stroke="midnightblue" d="M45.68,-209.09C49.91,-177.88 67.2,-80.62 123,-29 124.89,-27.26 126.93,-25.67 129.1,-24.23"/>
<polygon fill="midnightblue" stroke="midnightblue" points="130.85,-27.26 137.91,-19.37 127.47,-21.13 130.85,-27.26"/>
</g>
<!-- Node3 -->
<g id="node3" class="node">
<title>Node3</title>
<g id="a_node3"><a xlink:href="rmap_8c_a0ec3c28e83818f02e00d4c79d82d938a.html#a0ec3c28e83818f02e00d4c79d82d938a" target="_top" xlink:title="get the minimum header size given the RMAP instruction">
<polygon fill="white" stroke="black" points="282.5,-418.5 282.5,-437.5 415.5,-437.5 415.5,-418.5 282.5,-418.5"/>
<text text-anchor="middle" x="349" y="-425.5" font-family="Helvetica,sans-Serif" font-size="10.00">rmap_get_min_hdr_size</text>
</a>
</g>
</g>
<!-- Node2&#45;&gt;Node3 -->
<g id="edge2" class="edge">
<title>Node2&#45;&gt;Node3</title>
<path fill="none" stroke="midnightblue" d="M228.89,-428C242.33,-428 257.43,-428 272.25,-428"/>
<polygon fill="midnightblue" stroke="midnightblue" points="272.44,-431.5 282.44,-428 272.44,-424.5 272.44,-431.5"/>
</g>
<!-- Node7 -->
<g id="node7" class="node">
<title>Node7</title>
<g id="a_node7"><a xlink:href="rmap_8c_a667ce871110961f2a611d0244791e20f.html#a667ce871110961f2a611d0244791e20f" target="_top" xlink:title="valiidates a command code">
<polygon fill="white" stroke="black" points="278,-304.5 278,-323.5 420,-323.5 420,-304.5 278,-304.5"/>
<text text-anchor="middle" x="349" y="-311.5" font-family="Helvetica,sans-Serif" font-size="10.00">rmap_validate_cmd_code</text>
</a>
</g>
</g>
<!-- Node6&#45;&gt;Node7 -->
<g id="edge6" class="edge">
<title>Node6&#45;&gt;Node7</title>
<path fill="none" stroke="midnightblue" d="M227.15,-314C239.64,-314 253.65,-314 267.6,-314"/>
<polygon fill="midnightblue" stroke="midnightblue" points="267.72,-317.5 277.72,-314 267.72,-310.5 267.72,-317.5"/>
</g>
<!-- Node11 -->
<g id="node11" class="node">
<title>Node11</title>
<g id="a_node11"><a xlink:href="test__cmp__max__used__bits__list_8c_a7ac38fce3243a7dcf448301ee9ffd392.html#a7ac38fce3243a7dcf448301ee9ffd392" target="_top" xlink:title=" ">
<polygon fill="white" stroke="black" points="324,-133.5 324,-152.5 374,-152.5 374,-133.5 324,-133.5"/>
<text text-anchor="middle" x="349" y="-140.5" font-family="Helvetica,sans-Serif" font-size="10.00">malloc</text>
</a>
</g>
</g>
<!-- Node10&#45;&gt;Node11 -->
<g id="edge10" class="edge">
<title>Node10&#45;&gt;Node11</title>
<path fill="none" stroke="midnightblue" d="M213.62,-190.41C222.75,-187.45 232.8,-184.14 242,-181 266.17,-172.75 293.27,-163.02 314.02,-155.48"/>
<polygon fill="midnightblue" stroke="midnightblue" points="315.46,-158.68 323.65,-151.96 313.06,-152.1 315.46,-158.68"/>
</g>
<!-- Node14&#45;&gt;Node11 -->
<g id="edge14" class="edge">
<title>Node14&#45;&gt;Node11</title>
<path fill="none" stroke="midnightblue" d="M213.62,-95.59C222.75,-98.55 232.8,-101.86 242,-105 266.17,-113.25 293.27,-122.98 314.02,-130.52"/>
<polygon fill="midnightblue" stroke="midnightblue" points="313.06,-133.9 323.65,-134.04 315.46,-127.32 313.06,-133.9"/>
</g>
</g>
</svg>
