<?xml version="1.0" encoding="UTF-8" standalone="no"?>
<!DOCTYPE svg PUBLIC "-//W3C//DTD SVG 1.1//EN"
 "http://www.w3.org/Graphics/SVG/1.1/DTD/svg11.dtd">
<!-- Generated by graphviz version 2.43.0 (0)
 -->
<!-- Title: rdcu_read_cmd_adc_values_1 Pages: 1 -->
<!--zoomable 446 -->
<svg id="main" version="1.1" xmlns="http://www.w3.org/2000/svg" xmlns:xlink="http://www.w3.org/1999/xlink" xml:space="preserve" onload="init(evt)">
<style type="text/css"><![CDATA[
.edge:hover path { stroke: red; }
.edge:hover polygon { stroke: red; fill: red; }
]]></style>
<script type="text/javascript"><![CDATA[
var edges = document.getElementsByTagName('g');
if (edges && edges.length) {
  for (var i=0;i<edges.length;i++) {
    if (edges[i].id.substr(0,4)=='edge') {
      edges[i].setAttribute('class','edge');
    }
  }
}
]]></script>
        <defs>
                <circle id="rim" cx="0" cy="0" r="7"/>
                <circle id="rim2" cx="0" cy="0" r="3.5"/>
                <g id="zoomPlus">
                        <use xlink:href="#rim" fill="#404040">
                                <set attributeName="fill" to="#808080" begin="zoomplus.mouseover" end="zoomplus.mouseout"/>
                        </use>
                        <path d="M-4,0h8M0,-4v8" fill="none" stroke="white" stroke-width="1.5" pointer-events="none"/>
                </g>
                <g id="zoomMin">
                        <use xlink:href="#rim" fill="#404040">
                                <set attributeName="fill" to="#808080" begin="zoomminus.mouseover" end="zoomminus.mouseout"/>
                        </use>
                        <path d="M-4,0h8" fill="none" stroke="white" stroke-width="1.5" pointer-events="none"/>
                </g>
                <g id="dirArrow">
                        <path fill="none" stroke="white" stroke-width="1.5" d="M0,-3.0v7 M-2.5,-0.5L0,-3.0L2.5,-0.5"/>
                </g>
               <g id="resetDef">
                       <use xlink:href="#rim2" fill="#404040">
                               <set attributeName="fill" to="#808080" begin="reset.mouseover" end="reset.mouseout"/>
                       </use>
               </g>
        </defs>

<script type="text/javascript">
var viewWidth = 796;
var viewHeight = 446;
var sectionId = 'dynsection-0';
</script>
<script xlink:href="svgpan.js"/>
<svg id="graph" class="graph">
<g id="viewport">
<title>rdcu_read_cmd_adc_values_1</title>
<polygon fill="white" stroke="transparent" points="-4,4 -4,-442 792,-442 792,4 -4,4"/>
<!-- Node1 -->
<g id="node1" class="node">
<title>Node1</title>
<g id="a_node1"><a xlink:title="create a command to read the RDCU ADC values 1 register">
<polygon fill="#bfbfbf" stroke="black" points="0,-209.5 0,-228.5 162,-228.5 162,-209.5 0,-209.5"/>
<text text-anchor="middle" x="81" y="-216.5" font-family="Helvetica,sans-Serif" font-size="10.00">rdcu_read_cmd_adc_values_1</text>
</a>
</g>
</g>
<!-- Node2 -->
<g id="node2" class="node">
<title>Node2</title>
<g id="a_node2"><a xlink:href="rdcu__cmd_8c_a3274188041d4484130e893afc5f1630f.html#a3274188041d4484130e893afc5f1630f" target="_top" xlink:title="generate a read command for an arbitrary register (internal)">
<polygon fill="white" stroke="black" points="198,-204 198,-234 332,-234 332,-204 198,-204"/>
<text text-anchor="start" x="206" y="-222" font-family="Helvetica,sans-Serif" font-size="10.00">rdcu_read_cmd_register</text>
<text text-anchor="middle" x="265" y="-211" font-family="Helvetica,sans-Serif" font-size="10.00">_internal</text>
</a>
</g>
</g>
<!-- Node1&#45;&gt;Node2 -->
<g id="edge1" class="edge">
<title>Node1&#45;&gt;Node2</title>
<path fill="none" stroke="midnightblue" d="M162.09,-219C170.57,-219 179.17,-219 187.6,-219"/>
<polygon fill="midnightblue" stroke="midnightblue" points="187.78,-222.5 197.78,-219 187.78,-215.5 187.78,-222.5"/>
</g>
<!-- Node3 -->
<g id="node3" class="node">
<title>Node3</title>
<g id="a_node3"><a xlink:href="rdcu__rmap_8c_ab224927e85a7cec5b6f90292c7de36c4.html#ab224927e85a7cec5b6f90292c7de36c4" target="_top" xlink:title="generate an rmap command packet">
<polygon fill="white" stroke="black" points="368,-209.5 368,-228.5 455,-228.5 455,-209.5 368,-209.5"/>
<text text-anchor="middle" x="411.5" y="-216.5" font-family="Helvetica,sans-Serif" font-size="10.00">rdcu_gen_cmd</text>
</a>
</g>
</g>
<!-- Node2&#45;&gt;Node3 -->
<g id="edge2" class="edge">
<title>Node2&#45;&gt;Node3</title>
<path fill="none" stroke="midnightblue" d="M332.33,-219C340.78,-219 349.34,-219 357.54,-219"/>
<polygon fill="midnightblue" stroke="midnightblue" points="357.7,-222.5 367.7,-219 357.7,-215.5 357.7,-222.5"/>
</g>
<!-- Node4 -->
<g id="node4" class="node">
<title>Node4</title>
<g id="a_node4"><a xlink:href="rmap_8c_aa17375d153cc3473cbbe4dfe1056c527.html#aa17375d153cc3473cbbe4dfe1056c527" target="_top" xlink:title="build an rmap header">
<polygon fill="white" stroke="black" points="504.5,-418.5 504.5,-437.5 596.5,-437.5 596.5,-418.5 504.5,-418.5"/>
<text text-anchor="middle" x="550.5" y="-425.5" font-family="Helvetica,sans-Serif" font-size="10.00">rmap_build_hdr</text>
</a>
</g>
</g>
<!-- Node3&#45;&gt;Node4 -->
<g id="edge3" class="edge">
<title>Node3&#45;&gt;Node4</title>
<path fill="none" stroke="midnightblue" d="M413.68,-228.91C417.91,-260.12 435.2,-357.38 491,-409 492.72,-410.59 494.57,-412.05 496.53,-413.38"/>
<polygon fill="midnightblue" stroke="midnightblue" points="495.18,-416.64 505.62,-418.49 498.62,-410.54 495.18,-416.64"/>
</g>
<!-- Node6 -->
<g id="node6" class="node">
<title>Node6</title>
<g id="a_node6"><a xlink:href="rmap_8c_aba944cf978de0b264ea5bb3a784bce0f.html#aba944cf978de0b264ea5bb3a784bce0f" target="_top" xlink:title="create an RMAP packet and set defaults">
<polygon fill="white" stroke="black" points="492.5,-380.5 492.5,-399.5 608.5,-399.5 608.5,-380.5 492.5,-380.5"/>
<text text-anchor="middle" x="550.5" y="-387.5" font-family="Helvetica,sans-Serif" font-size="10.00">rmap_create_packet</text>
</a>
</g>
</g>
<!-- Node3&#45;&gt;Node6 -->
<g id="edge5" class="edge">
<title>Node3&#45;&gt;Node6</title>
<path fill="none" stroke="midnightblue" d="M414.78,-228.81C421.52,-255.66 443.91,-331.01 491,-371 492.99,-372.69 495.14,-374.24 497.4,-375.64"/>
<polygon fill="midnightblue" stroke="midnightblue" points="496.04,-378.88 506.52,-380.42 499.28,-372.68 496.04,-378.88"/>
</g>
<!-- Node7 -->
<g id="node7" class="node">
<title>Node7</title>
<g id="a_node7"><a xlink:href="rmap_8c_a1def9af549819e7fdbda12af8bdc9c0e.html#a1def9af549819e7fdbda12af8bdc9c0e" target="_top" xlink:title="completely destroys an RMAP packet">
<polygon fill="white" stroke="black" points="494.5,-342.5 494.5,-361.5 606.5,-361.5 606.5,-342.5 494.5,-342.5"/>
<text text-anchor="middle" x="550.5" y="-349.5" font-family="Helvetica,sans-Serif" font-size="10.00">rmap_erase_packet</text>
</a>
</g>
</g>
<!-- Node3&#45;&gt;Node7 -->
<g id="edge6" class="edge">
<title>Node3&#45;&gt;Node7</title>
<path fill="none" stroke="midnightblue" d="M416.45,-228.53C425.97,-250.31 452.28,-304.12 491,-333 493.49,-334.86 496.16,-336.53 498.96,-338.05"/>
<polygon fill="midnightblue" stroke="midnightblue" points="497.63,-341.3 508.17,-342.38 500.6,-334.96 497.63,-341.3"/>
</g>
<!-- Node8 -->
<g id="node8" class="node">
<title>Node8</title>
<g id="a_node8"><a xlink:href="rmap_8c_aab7e23f061291d39568ad2df700bc777.html#aab7e23f061291d39568ad2df700bc777" target="_top" xlink:title="set an RMAP command">
<polygon fill="white" stroke="black" points="506,-304.5 506,-323.5 595,-323.5 595,-304.5 506,-304.5"/>
<text text-anchor="middle" x="550.5" y="-311.5" font-family="Helvetica,sans-Serif" font-size="10.00">rmap_set_cmd</text>
</a>
</g>
</g>
<!-- Node3&#45;&gt;Node8 -->
<g id="edge7" class="edge">
<title>Node3&#45;&gt;Node8</title>
<path fill="none" stroke="midnightblue" d="M419.91,-228.6C432.73,-244.59 460.6,-276.71 491,-295 494.45,-297.08 498.16,-298.96 501.97,-300.65"/>
<polygon fill="midnightblue" stroke="midnightblue" points="500.98,-304.02 511.57,-304.48 503.57,-297.52 500.98,-304.02"/>
</g>
<!-- Node10 -->
<g id="node10" class="node">
<title>Node10</title>
<g id="a_node10"><a xlink:href="rmap_8c_acf641aae92829ae864b6c3d8f94d86e2.html#acf641aae92829ae864b6c3d8f94d86e2" target="_top" xlink:title="set a data address">
<polygon fill="white" stroke="black" points="492.5,-266.5 492.5,-285.5 608.5,-285.5 608.5,-266.5 492.5,-266.5"/>
<text text-anchor="middle" x="550.5" y="-273.5" font-family="Helvetica,sans-Serif" font-size="10.00">rmap_set_data_addr</text>
</a>
</g>
</g>
<!-- Node3&#45;&gt;Node10 -->
<g id="edge9" class="edge">
<title>Node3&#45;&gt;Node10</title>
<path fill="none" stroke="midnightblue" d="M430.58,-228.63C446.29,-236.78 469.79,-248.47 491,-257 496.39,-259.17 502.14,-261.28 507.85,-263.25"/>
<polygon fill="midnightblue" stroke="midnightblue" points="506.74,-266.57 517.34,-266.43 508.97,-259.93 506.74,-266.57"/>
</g>
<!-- Node11 -->
<g id="node11" class="node">
<title>Node11</title>
<g id="a_node11"><a xlink:href="rmap_8c_a6833f065640f652aa1a929309e592f7a.html#a6833f065640f652aa1a929309e592f7a" target="_top" xlink:title="set an RMAP command">
<polygon fill="white" stroke="black" points="495.5,-228.5 495.5,-247.5 605.5,-247.5 605.5,-228.5 495.5,-228.5"/>
<text text-anchor="middle" x="550.5" y="-235.5" font-family="Helvetica,sans-Serif" font-size="10.00">rmap_set_data_len</text>
</a>
</g>
</g>
<!-- Node3&#45;&gt;Node11 -->
<g id="edge10" class="edge">
<title>Node3&#45;&gt;Node11</title>
<path fill="none" stroke="midnightblue" d="M455.1,-224.91C464.64,-226.23 474.97,-227.66 485.18,-229.08"/>
<polygon fill="midnightblue" stroke="midnightblue" points="484.92,-232.58 495.31,-230.48 485.88,-225.64 484.92,-232.58"/>
</g>
<!-- Node12 -->
<g id="node12" class="node">
<title>Node12</title>
<g id="a_node12"><a xlink:href="rmap_8c_a5f0081b9928da5e50fc8b231b57f3a80.html#a5f0081b9928da5e50fc8b231b57f3a80" target="_top" xlink:title="set the destination address path">
<polygon fill="white" stroke="black" points="492.5,-190.5 492.5,-209.5 608.5,-209.5 608.5,-190.5 492.5,-190.5"/>
<text text-anchor="middle" x="550.5" y="-197.5" font-family="Helvetica,sans-Serif" font-size="10.00">rmap_set_dest_path</text>
</a>
</g>
</g>
<!-- Node3&#45;&gt;Node12 -->
<g id="edge11" class="edge">
<title>Node3&#45;&gt;Node12</title>
<path fill="none" stroke="midnightblue" d="M455.1,-213.09C463.75,-211.89 473.05,-210.6 482.32,-209.32"/>
<polygon fill="midnightblue" stroke="midnightblue" points="482.9,-212.77 492.33,-207.93 481.94,-205.84 482.9,-212.77"/>
</g>
<!-- Node14 -->
<g id="node14" class="node">
<title>Node14</title>
<g id="a_node14"><a xlink:href="rmap_8c_a2da8e7b48411d382b54848795f85795d.html#a2da8e7b48411d382b54848795f85795d" target="_top" xlink:title="set the destination (target) logical address">
<polygon fill="white" stroke="black" points="509,-152.5 509,-171.5 592,-171.5 592,-152.5 509,-152.5"/>
<text text-anchor="middle" x="550.5" y="-159.5" font-family="Helvetica,sans-Serif" font-size="10.00">rmap_set_dst</text>
</a>
</g>
</g>
<!-- Node3&#45;&gt;Node14 -->
<g id="edge13" class="edge">
<title>Node3&#45;&gt;Node14</title>
<path fill="none" stroke="midnightblue" d="M430.58,-209.37C446.29,-201.22 469.79,-189.53 491,-181 496.39,-178.83 502.14,-176.72 507.85,-174.75"/>
<polygon fill="midnightblue" stroke="midnightblue" points="508.97,-178.07 517.34,-171.57 506.74,-171.43 508.97,-178.07"/>
</g>
<!-- Node15 -->
<g id="node15" class="node">
<title>Node15</title>
<g id="a_node15"><a xlink:href="rmap_8c_a15021c9dfccddc44786dfd37834bcd7e.html#a15021c9dfccddc44786dfd37834bcd7e" target="_top" xlink:title="set the command authorisation key">
<polygon fill="white" stroke="black" points="508,-114.5 508,-133.5 593,-133.5 593,-114.5 508,-114.5"/>
<text text-anchor="middle" x="550.5" y="-121.5" font-family="Helvetica,sans-Serif" font-size="10.00">rmap_set_key</text>
</a>
</g>
</g>
<!-- Node3&#45;&gt;Node15 -->
<g id="edge14" class="edge">
<title>Node3&#45;&gt;Node15</title>
<path fill="none" stroke="midnightblue" d="M419.91,-209.4C432.73,-193.41 460.6,-161.29 491,-143 494.45,-140.92 498.16,-139.04 501.97,-137.35"/>
<polygon fill="midnightblue" stroke="midnightblue" points="503.57,-140.48 511.57,-133.52 500.98,-133.98 503.57,-140.48"/>
</g>
<!-- Node16 -->
<g id="node16" class="node">
<title>Node16</title>
<g id="a_node16"><a xlink:href="rmap_8c_a56c47830e67d01e469231e5e7e1d3a34.html#a56c47830e67d01e469231e5e7e1d3a34" target="_top" xlink:title="set the reply address path">
<polygon fill="white" stroke="black" points="491,-76.5 491,-95.5 610,-95.5 610,-76.5 491,-76.5"/>
<text text-anchor="middle" x="550.5" y="-83.5" font-family="Helvetica,sans-Serif" font-size="10.00">rmap_set_reply_path</text>
</a>
</g>
</g>
<!-- Node3&#45;&gt;Node16 -->
<g id="edge15" class="edge">
<title>Node3&#45;&gt;Node16</title>
<path fill="none" stroke="midnightblue" d="M416.45,-209.47C425.97,-187.69 452.28,-133.88 491,-105 493.49,-103.14 496.16,-101.47 498.96,-99.95"/>
<polygon fill="midnightblue" stroke="midnightblue" points="500.6,-103.04 508.17,-95.62 497.63,-96.7 500.6,-103.04"/>
</g>
<!-- Node17 -->
<g id="node17" class="node">
<title>Node17</title>
<g id="a_node17"><a xlink:href="rmap_8c_adae0030440ca4e7ad34622e505acbb2c.html#adae0030440ca4e7ad34622e505acbb2c" target="_top" xlink:title="set the source (initiator) logical address">
<polygon fill="white" stroke="black" points="509.5,-38.5 509.5,-57.5 591.5,-57.5 591.5,-38.5 509.5,-38.5"/>
<text text-anchor="middle" x="550.5" y="-45.5" font-family="Helvetica,sans-Serif" font-size="10.00">rmap_set_src</text>
</a>
</g>
</g>
<!-- Node3&#45;&gt;Node17 -->
<g id="edge17" class="edge">
<title>Node3&#45;&gt;Node17</title>
<path fill="none" stroke="midnightblue" d="M414.78,-209.19C421.52,-182.34 443.91,-106.99 491,-67 493.73,-64.68 496.74,-62.65 499.93,-60.86"/>
<polygon fill="midnightblue" stroke="midnightblue" points="501.7,-63.89 509.23,-56.44 498.7,-57.57 501.7,-63.89"/>
</g>
<!-- Node18 -->
<g id="node18" class="node">
<title>Node18</title>
<g id="a_node18"><a xlink:href="rmap_8c_a7b4c31714493ce6cc19d4aa825ab50aa.html#a7b4c31714493ce6cc19d4aa825ab50aa" target="_top" xlink:title="set an RMAP transaction identifier">
<polygon fill="white" stroke="black" points="506,-0.5 506,-19.5 595,-19.5 595,-0.5 506,-0.5"/>
<text text-anchor="middle" x="550.5" y="-7.5" font-family="Helvetica,sans-Serif" font-size="10.00">rmap_set_tr_id</text>
</a>
</g>
</g>
<!-- Node3&#45;&gt;Node18 -->
<g id="edge18" class="edge">
<title>Node3&#45;&gt;Node18</title>
<path fill="none" stroke="midnightblue" d="M413.68,-209.09C417.91,-177.88 435.2,-80.62 491,-29 492.89,-27.26 494.93,-25.67 497.1,-24.23"/>
<polygon fill="midnightblue" stroke="midnightblue" points="498.85,-27.26 505.91,-19.37 495.47,-21.13 498.85,-27.26"/>
</g>
<!-- Node5 -->
<g id="node5" class="node">
<title>Node5</title>
<g id="a_node5"><a xlink:href="rmap_8c_a0ec3c28e83818f02e00d4c79d82d938a.html#a0ec3c28e83818f02e00d4c79d82d938a" target="_top" xlink:title="get the minimum header size given the RMAP instruction">
<polygon fill="white" stroke="black" points="650.5,-418.5 650.5,-437.5 783.5,-437.5 783.5,-418.5 650.5,-418.5"/>
<text text-anchor="middle" x="717" y="-425.5" font-family="Helvetica,sans-Serif" font-size="10.00">rmap_get_min_hdr_size</text>
</a>
</g>
</g>
<!-- Node4&#45;&gt;Node5 -->
<g id="edge4" class="edge">
<title>Node4&#45;&gt;Node5</title>
<path fill="none" stroke="midnightblue" d="M596.89,-428C610.33,-428 625.43,-428 640.25,-428"/>
<polygon fill="midnightblue" stroke="midnightblue" points="640.44,-431.5 650.44,-428 640.44,-424.5 640.44,-431.5"/>
</g>
<!-- Node9 -->
<g id="node9" class="node">
<title>Node9</title>
<g id="a_node9"><a xlink:href="rmap_8c_a667ce871110961f2a611d0244791e20f.html#a667ce871110961f2a611d0244791e20f" target="_top" xlink:title="valiidates a command code">
<polygon fill="white" stroke="black" points="646,-304.5 646,-323.5 788,-323.5 788,-304.5 646,-304.5"/>
<text text-anchor="middle" x="717" y="-311.5" font-family="Helvetica,sans-Serif" font-size="10.00">rmap_validate_cmd_code</text>
</a>
</g>
</g>
<!-- Node8&#45;&gt;Node9 -->
<g id="edge8" class="edge">
<title>Node8&#45;&gt;Node9</title>
<path fill="none" stroke="midnightblue" d="M595.15,-314C607.64,-314 621.65,-314 635.6,-314"/>
<polygon fill="midnightblue" stroke="midnightblue" points="635.72,-317.5 645.72,-314 635.72,-310.5 635.72,-317.5"/>
</g>
<!-- Node13 -->
<g id="node13" class="node">
<title>Node13</title>
<g id="a_node13"><a xlink:href="test__cmp__max__used__bits__list_8c_a7ac38fce3243a7dcf448301ee9ffd392.html#a7ac38fce3243a7dcf448301ee9ffd392" target="_top" xlink:title=" ">
<polygon fill="white" stroke="black" points="692,-133.5 692,-152.5 742,-152.5 742,-133.5 692,-133.5"/>
<text text-anchor="middle" x="717" y="-140.5" font-family="Helvetica,sans-Serif" font-size="10.00">malloc</text>
</a>
</g>
</g>
<!-- Node12&#45;&gt;Node13 -->
<g id="edge12" class="edge">
<title>Node12&#45;&gt;Node13</title>
<path fill="none" stroke="midnightblue" d="M581.62,-190.41C590.75,-187.45 600.8,-184.14 610,-181 634.17,-172.75 661.27,-163.02 682.02,-155.48"/>
<polygon fill="midnightblue" stroke="midnightblue" points="683.46,-158.68 691.65,-151.96 681.06,-152.1 683.46,-158.68"/>
</g>
<!-- Node16&#45;&gt;Node13 -->
<g id="edge16" class="edge">
<title>Node16&#45;&gt;Node13</title>
<path fill="none" stroke="midnightblue" d="M581.62,-95.59C590.75,-98.55 600.8,-101.86 610,-105 634.17,-113.25 661.27,-122.98 682.02,-130.52"/>
<polygon fill="midnightblue" stroke="midnightblue" points="681.06,-133.9 691.65,-134.04 683.46,-127.32 681.06,-133.9"/>
</g>
</g>
</svg>
        <g id="navigator" transform="translate(0 0)" fill="#404254">
                <rect fill="#f2f5e9" fill-opacity="0.5" stroke="#606060" stroke-width=".5" x="0" y="0" width="60" height="60"/>
                <use id="zoomplus" xlink:href="#zoomPlus" x="17" y="9" onmousedown="handleZoom(evt,'in')"/>
                <use id="zoomminus" xlink:href="#zoomMin" x="42" y="9" onmousedown="handleZoom(evt,'out')"/>
                <use id="reset" xlink:href="#resetDef" x="30" y="36" onmousedown="handleReset()"/>
                <g id="arrowUp" xlink:href="#dirArrow" transform="translate(30 24)" onmousedown="handlePan(0,-1)">
                  <use xlink:href="#rim" fill="#404040">
                        <set attributeName="fill" to="#808080" begin="arrowUp.mouseover" end="arrowUp.mouseout"/>
                  </use>
                  <path fill="none" stroke="white" stroke-width="1.5" d="M0,-3.0v7 M-2.5,-0.5L0,-3.0L2.5,-0.5"/>
                </g>
                <g id="arrowRight" xlink:href="#dirArrow" transform="rotate(90) translate(36 -43)" onmousedown="handlePan(1,0)">
                  <use xlink:href="#rim" fill="#404040">
                        <set attributeName="fill" to="#808080" begin="arrowRight.mouseover" end="arrowRight.mouseout"/>
                  </use>
                  <path fill="none" stroke="white" stroke-width="1.5" d="M0,-3.0v7 M-2.5,-0.5L0,-3.0L2.5,-0.5"/>
                </g>
                <g id="arrowDown" xlink:href="#dirArrow" transform="rotate(180) translate(-30 -48)" onmousedown="handlePan(0,1)">
                  <use xlink:href="#rim" fill="#404040">
                        <set attributeName="fill" to="#808080" begin="arrowDown.mouseover" end="arrowDown.mouseout"/>
                  </use>
                  <path fill="none" stroke="white" stroke-width="1.5" d="M0,-3.0v7 M-2.5,-0.5L0,-3.0L2.5,-0.5"/>
                </g>
                <g id="arrowLeft" xlink:href="#dirArrow" transform="rotate(270) translate(-36 17)" onmousedown="handlePan(-1,0)">
                  <use xlink:href="#rim" fill="#404040">
                        <set attributeName="fill" to="#808080" begin="arrowLeft.mouseover" end="arrowLeft.mouseout"/>
                  </use>
                  <path fill="none" stroke="white" stroke-width="1.5" d="M0,-3.0v7 M-2.5,-0.5L0,-3.0L2.5,-0.5"/>
                </g>
        </g>
        <svg viewBox="0 0 15 15" width="100%" height="30px" preserveAspectRatio="xMaxYMin meet">
         <g id="arrow_out" transform="scale(0.3 0.3)">
          <a xlink:href="rdcu__cmd_8c_a59bbf6a366a3182782581096ac401ae6_a59bbf6a366a3182782581096ac401ae6_cgraph_org.svg" target="_base">
           <rect id="button" ry="5" rx="5" y="6" x="6" height="38" width="38"
                fill="#f2f5e9" fill-opacity="0.5" stroke="#606060" stroke-width="1.0"/>
           <path id="arrow"
             d="M 11.500037,31.436501 C 11.940474,20.09759 22.043105,11.32322 32.158766,21.979434 L 37.068811,17.246167 C 37.068811,17.246167 37.088388,32 37.088388,32 L 22.160133,31.978069 C 22.160133,31.978069 26.997745,27.140456 26.997745,27.140456 C 18.528582,18.264221 13.291696,25.230495 11.500037,31.436501 z"
             style="fill:#404040;"/>
          </a>
         </g>
        </svg>
</svg>
