<?xml version="1.0" encoding="UTF-8" standalone="no"?>
<!DOCTYPE svg PUBLIC "-//W3C//DTD SVG 1.1//EN"
 "http://www.w3.org/Graphics/SVG/1.1/DTD/svg11.dtd">
<!-- Generated by graphviz version 2.43.0 (0)
 -->
<!-- Title: rdcu_sync_compr_data_start_addr Pages: 1 -->
<!--zoomable 750 -->
<svg id="main" version="1.1" xmlns="http://www.w3.org/2000/svg" xmlns:xlink="http://www.w3.org/1999/xlink" xml:space="preserve" onload="init(evt)">
<style type="text/css"><![CDATA[
.edge:hover path { stroke: red; }
.edge:hover polygon { stroke: red; fill: red; }
]]></style>
<script type="text/javascript"><![CDATA[
var edges = document.getElementsByTagName('g');
if (edges && edges.length) {
  for (var i=0;i<edges.length;i++) {
    if (edges[i].id.substr(0,4)=='edge') {
      edges[i].setAttribute('class','edge');
    }
  }
}
]]></script>
        <defs>
                <circle id="rim" cx="0" cy="0" r="7"/>
                <circle id="rim2" cx="0" cy="0" r="3.5"/>
                <g id="zoomPlus">
                        <use xlink:href="#rim" fill="#404040">
                                <set attributeName="fill" to="#808080" begin="zoomplus.mouseover" end="zoomplus.mouseout"/>
                        </use>
                        <path d="M-4,0h8M0,-4v8" fill="none" stroke="white" stroke-width="1.5" pointer-events="none"/>
                </g>
                <g id="zoomMin">
                        <use xlink:href="#rim" fill="#404040">
                                <set attributeName="fill" to="#808080" begin="zoomminus.mouseover" end="zoomminus.mouseout"/>
                        </use>
                        <path d="M-4,0h8" fill="none" stroke="white" stroke-width="1.5" pointer-events="none"/>
                </g>
                <g id="dirArrow">
                        <path fill="none" stroke="white" stroke-width="1.5" d="M0,-3.0v7 M-2.5,-0.5L0,-3.0L2.5,-0.5"/>
                </g>
               <g id="resetDef">
                       <use xlink:href="#rim2" fill="#404040">
                               <set attributeName="fill" to="#808080" begin="reset.mouseover" end="reset.mouseout"/>
                       </use>
               </g>
        </defs>

<script type="text/javascript">
var viewWidth = 1118;
var viewHeight = 750;
var sectionId = 'dynsection-0';
</script>
<script xlink:href="svgpan.js"/>
<svg id="graph" class="graph">
<g id="viewport">
<title>rdcu_sync_compr_data_start_addr</title>
<polygon fill="white" stroke="transparent" points="-4,4 -4,-746 1114,-746 1114,4 -4,4"/>
<!-- Node1 -->
<g id="node1" class="node">
<title>Node1</title>
<g id="a_node1"><a xlink:title="sync the Compressed Data Start Address (read only)">
<polygon fill="#bfbfbf" stroke="black" points="0,-264 0,-294 128,-294 128,-264 0,-264"/>
<text text-anchor="start" x="8" y="-282" font-family="Helvetica,sans-Serif" font-size="10.00">rdcu_sync_compr_data</text>
<text text-anchor="middle" x="64" y="-271" font-family="Helvetica,sans-Serif" font-size="10.00">_start_addr</text>
</a>
</g>
</g>
<!-- Node2 -->
<g id="node2" class="node">
<title>Node2</title>
<g id="a_node2"><a xlink:href="rdcu__cmd_8c_a78501ca0e919698834cc00287d186d1e.html#a78501ca0e919698834cc00287d186d1e" target="_top" xlink:title="create a command to read the RDCU compressed data start address register">
<polygon fill="white" stroke="black" points="164,-387 164,-417 291,-417 291,-387 164,-387"/>
<text text-anchor="start" x="172" y="-405" font-family="Helvetica,sans-Serif" font-size="10.00">rdcu_read_cmd_compr</text>
<text text-anchor="middle" x="227.5" y="-394" font-family="Helvetica,sans-Serif" font-size="10.00">_data_start_addr</text>
</a>
</g>
</g>
<!-- Node1&#45;&gt;Node2 -->
<g id="edge1" class="edge">
<title>Node1&#45;&gt;Node2</title>
<path fill="none" stroke="midnightblue" d="M84.8,-294.08C113.26,-315.75 165.85,-355.81 198.34,-380.55"/>
<polygon fill="midnightblue" stroke="midnightblue" points="196.46,-383.52 206.53,-386.79 200.7,-377.95 196.46,-383.52"/>
</g>
<!-- Node20 -->
<g id="node20" class="node">
<title>Node20</title>
<g id="a_node20"><a xlink:href="rdcu__rmap_8c_a533d1eb248d83ba3d406cefe7f3c9eb9.html#a533d1eb248d83ba3d406cefe7f3c9eb9" target="_top" xlink:title="submit a sync command">
<polygon fill="white" stroke="black" points="195,-247.5 195,-266.5 260,-266.5 260,-247.5 195,-247.5"/>
<text text-anchor="middle" x="227.5" y="-254.5" font-family="Helvetica,sans-Serif" font-size="10.00">rdcu_sync</text>
</a>
</g>
</g>
<!-- Node1&#45;&gt;Node20 -->
<g id="edge20" class="edge">
<title>Node1&#45;&gt;Node20</title>
<path fill="none" stroke="midnightblue" d="M128.37,-270.37C147.25,-267.8 167.46,-265.04 184.6,-262.71"/>
<polygon fill="midnightblue" stroke="midnightblue" points="185.41,-266.13 194.84,-261.31 184.46,-259.19 185.41,-266.13"/>
</g>
<!-- Node3 -->
<g id="node3" class="node">
<title>Node3</title>
<g id="a_node3"><a xlink:href="rdcu__cmd_8c_a3274188041d4484130e893afc5f1630f.html#a3274188041d4484130e893afc5f1630f" target="_top" xlink:title="generate a read command for an arbitrary register (internal)">
<polygon fill="white" stroke="black" points="327,-438 327,-468 461,-468 461,-438 327,-438"/>
<text text-anchor="start" x="335" y="-456" font-family="Helvetica,sans-Serif" font-size="10.00">rdcu_read_cmd_register</text>
<text text-anchor="middle" x="394" y="-445" font-family="Helvetica,sans-Serif" font-size="10.00">_internal</text>
</a>
</g>
</g>
<!-- Node2&#45;&gt;Node3 -->
<g id="edge2" class="edge">
<title>Node2&#45;&gt;Node3</title>
<path fill="none" stroke="midnightblue" d="M276.97,-417.03C295.12,-422.66 315.94,-429.11 334.89,-434.98"/>
<polygon fill="midnightblue" stroke="midnightblue" points="334.01,-438.38 344.6,-437.99 336.08,-431.69 334.01,-438.38"/>
</g>
<!-- Node4 -->
<g id="node4" class="node">
<title>Node4</title>
<g id="a_node4"><a xlink:href="rdcu__rmap_8c_ab224927e85a7cec5b6f90292c7de36c4.html#ab224927e85a7cec5b6f90292c7de36c4" target="_top" xlink:title="generate an rmap command packet">
<polygon fill="white" stroke="black" points="501,-494.5 501,-513.5 588,-513.5 588,-494.5 501,-494.5"/>
<text text-anchor="middle" x="544.5" y="-501.5" font-family="Helvetica,sans-Serif" font-size="10.00">rdcu_gen_cmd</text>
</a>
</g>
</g>
<!-- Node3&#45;&gt;Node4 -->
<g id="edge3" class="edge">
<title>Node3&#45;&gt;Node4</title>
<path fill="none" stroke="midnightblue" d="M438.75,-468.03C460.07,-475.35 485.46,-484.07 505.9,-491.09"/>
<polygon fill="midnightblue" stroke="midnightblue" points="504.9,-494.44 515.49,-494.38 507.17,-487.82 504.9,-494.44"/>
</g>
<!-- Node5 -->
<g id="node5" class="node">
<title>Node5</title>
<g id="a_node5"><a xlink:href="rmap_8c_aa17375d153cc3473cbbe4dfe1056c527.html#aa17375d153cc3473cbbe4dfe1056c527" target="_top" xlink:title="build an rmap header">
<polygon fill="white" stroke="black" points="645,-646.5 645,-665.5 737,-665.5 737,-646.5 645,-646.5"/>
<text text-anchor="middle" x="691" y="-653.5" font-family="Helvetica,sans-Serif" font-size="10.00">rmap_build_hdr</text>
</a>
</g>
</g>
<!-- Node4&#45;&gt;Node5 -->
<g id="edge4" class="edge">
<title>Node4&#45;&gt;Node5</title>
<path fill="none" stroke="midnightblue" d="M548.76,-513.68C557.52,-538.17 583.88,-603 628,-637 630.34,-638.8 632.85,-640.44 635.48,-641.92"/>
<polygon fill="midnightblue" stroke="midnightblue" points="634.22,-645.19 644.75,-646.38 637.25,-638.89 634.22,-645.19"/>
</g>
<!-- Node7 -->
<g id="node7" class="node">
<title>Node7</title>
<g id="a_node7"><a xlink:href="rmap_8c_aba944cf978de0b264ea5bb3a784bce0f.html#aba944cf978de0b264ea5bb3a784bce0f" target="_top" xlink:title="create an RMAP packet and set defaults">
<polygon fill="white" stroke="black" points="803,-437.5 803,-456.5 919,-456.5 919,-437.5 803,-437.5"/>
<text text-anchor="middle" x="861" y="-444.5" font-family="Helvetica,sans-Serif" font-size="10.00">rmap_create_packet</text>
</a>
</g>
</g>
<!-- Node4&#45;&gt;Node7 -->
<g id="edge6" class="edge">
<title>Node4&#45;&gt;Node7</title>
<path fill="none" stroke="midnightblue" d="M573.93,-513.53C614.8,-525.69 692.06,-542.91 754,-523 790.03,-511.42 824.19,-482.57 843.57,-463.93"/>
<polygon fill="midnightblue" stroke="midnightblue" points="846.28,-466.17 850.93,-456.65 841.36,-461.19 846.28,-466.17"/>
</g>
<!-- Node8 -->
<g id="node8" class="node">
<title>Node8</title>
<g id="a_node8"><a xlink:href="rmap_8c_a1def9af549819e7fdbda12af8bdc9c0e.html#a1def9af549819e7fdbda12af8bdc9c0e" target="_top" xlink:title="completely destroys an RMAP packet">
<polygon fill="white" stroke="black" points="635,-228.5 635,-247.5 747,-247.5 747,-228.5 635,-228.5"/>
<text text-anchor="middle" x="691" y="-235.5" font-family="Helvetica,sans-Serif" font-size="10.00">rmap_erase_packet</text>
</a>
</g>
</g>
<!-- Node4&#45;&gt;Node8 -->
<g id="edge7" class="edge">
<title>Node4&#45;&gt;Node8</title>
<path fill="none" stroke="midnightblue" d="M547.72,-494.09C555.09,-462.7 580.97,-363.5 628,-295 639,-278.98 655.29,-264.23 668.41,-253.75"/>
<polygon fill="midnightblue" stroke="midnightblue" points="670.71,-256.4 676.48,-247.51 666.43,-250.86 670.71,-256.4"/>
</g>
<!-- Node9 -->
<g id="node9" class="node">
<title>Node9</title>
<g id="a_node9"><a xlink:href="rmap_8c_aab7e23f061291d39568ad2df700bc777.html#aab7e23f061291d39568ad2df700bc777" target="_top" xlink:title="set an RMAP command">
<polygon fill="white" stroke="black" points="646.5,-684.5 646.5,-703.5 735.5,-703.5 735.5,-684.5 646.5,-684.5"/>
<text text-anchor="middle" x="691" y="-691.5" font-family="Helvetica,sans-Serif" font-size="10.00">rmap_set_cmd</text>
</a>
</g>
</g>
<!-- Node4&#45;&gt;Node9 -->
<g id="edge8" class="edge">
<title>Node4&#45;&gt;Node9</title>
<path fill="none" stroke="midnightblue" d="M547.36,-513.79C553.4,-542.91 575.23,-629.7 628,-675 630.81,-677.42 633.93,-679.52 637.22,-681.36"/>
<polygon fill="midnightblue" stroke="midnightblue" points="635.74,-684.53 646.27,-685.64 638.72,-678.2 635.74,-684.53"/>
</g>
<!-- Node11 -->
<g id="node11" class="node">
<title>Node11</title>
<g id="a_node11"><a xlink:href="rmap_8c_acf641aae92829ae864b6c3d8f94d86e2.html#acf641aae92829ae864b6c3d8f94d86e2" target="_top" xlink:title="set a data address">
<polygon fill="white" stroke="black" points="633,-608.5 633,-627.5 749,-627.5 749,-608.5 633,-608.5"/>
<text text-anchor="middle" x="691" y="-615.5" font-family="Helvetica,sans-Serif" font-size="10.00">rmap_set_data_addr</text>
</a>
</g>
</g>
<!-- Node4&#45;&gt;Node11 -->
<g id="edge10" class="edge">
<title>Node4&#45;&gt;Node11</title>
<path fill="none" stroke="midnightblue" d="M551.24,-513.66C563.11,-532.81 592.29,-575.78 628,-599 631.16,-601.05 634.55,-602.9 638.06,-604.55"/>
<polygon fill="midnightblue" stroke="midnightblue" points="636.98,-607.88 647.56,-608.48 639.66,-601.42 636.98,-607.88"/>
</g>
<!-- Node12 -->
<g id="node12" class="node">
<title>Node12</title>
<g id="a_node12"><a xlink:href="rmap_8c_a6833f065640f652aa1a929309e592f7a.html#a6833f065640f652aa1a929309e592f7a" target="_top" xlink:title="set an RMAP command">
<polygon fill="white" stroke="black" points="636,-570.5 636,-589.5 746,-589.5 746,-570.5 636,-570.5"/>
<text text-anchor="middle" x="691" y="-577.5" font-family="Helvetica,sans-Serif" font-size="10.00">rmap_set_data_len</text>
</a>
</g>
</g>
<!-- Node4&#45;&gt;Node12 -->
<g id="edge11" class="edge">
<title>Node4&#45;&gt;Node12</title>
<path fill="none" stroke="midnightblue" d="M559.04,-513.68C575,-524.82 602.59,-543.22 628,-556 635.78,-559.91 644.36,-563.6 652.6,-566.87"/>
<polygon fill="midnightblue" stroke="midnightblue" points="651.45,-570.17 662.04,-570.48 653.95,-563.64 651.45,-570.17"/>
</g>
<!-- Node13 -->
<g id="node13" class="node">
<title>Node13</title>
<g id="a_node13"><a xlink:href="rmap_8c_a5f0081b9928da5e50fc8b231b57f3a80.html#a5f0081b9928da5e50fc8b231b57f3a80" target="_top" xlink:title="set the destination address path">
<polygon fill="white" stroke="black" points="633,-342.5 633,-361.5 749,-361.5 749,-342.5 633,-342.5"/>
<text text-anchor="middle" x="691" y="-349.5" font-family="Helvetica,sans-Serif" font-size="10.00">rmap_set_dest_path</text>
</a>
</g>
</g>
<!-- Node4&#45;&gt;Node13 -->
<g id="edge12" class="edge">
<title>Node4&#45;&gt;Node13</title>
<path fill="none" stroke="midnightblue" d="M548.76,-494.32C557.52,-469.83 583.88,-405 628,-371 630.34,-369.2 632.85,-367.56 635.48,-366.08"/>
<polygon fill="midnightblue" stroke="midnightblue" points="637.25,-369.11 644.75,-361.62 634.22,-362.81 637.25,-369.11"/>
</g>
<!-- Node15 -->
<g id="node15" class="node">
<title>Node15</title>
<g id="a_node15"><a xlink:href="rmap_8c_a2da8e7b48411d382b54848795f85795d.html#a2da8e7b48411d382b54848795f85795d" target="_top" xlink:title="set the destination (target) logical address">
<polygon fill="white" stroke="black" points="649.5,-494.5 649.5,-513.5 732.5,-513.5 732.5,-494.5 649.5,-494.5"/>
<text text-anchor="middle" x="691" y="-501.5" font-family="Helvetica,sans-Serif" font-size="10.00">rmap_set_dst</text>
</a>
</g>
</g>
<!-- Node4&#45;&gt;Node15 -->
<g id="edge14" class="edge">
<title>Node4&#45;&gt;Node15</title>
<path fill="none" stroke="midnightblue" d="M588.07,-504C604.07,-504 622.41,-504 639.09,-504"/>
<polygon fill="midnightblue" stroke="midnightblue" points="639.22,-507.5 649.22,-504 639.22,-500.5 639.22,-507.5"/>
</g>
<!-- Node16 -->
<g id="node16" class="node">
<title>Node16</title>
<g id="a_node16"><a xlink:href="rmap_8c_a15021c9dfccddc44786dfd37834bcd7e.html#a15021c9dfccddc44786dfd37834bcd7e" target="_top" xlink:title="set the command authorisation key">
<polygon fill="white" stroke="black" points="648.5,-456.5 648.5,-475.5 733.5,-475.5 733.5,-456.5 648.5,-456.5"/>
<text text-anchor="middle" x="691" y="-463.5" font-family="Helvetica,sans-Serif" font-size="10.00">rmap_set_key</text>
</a>
</g>
</g>
<!-- Node4&#45;&gt;Node16 -->
<g id="edge15" class="edge">
<title>Node4&#45;&gt;Node16</title>
<path fill="none" stroke="midnightblue" d="M581.96,-494.41C600.77,-489.46 623.91,-483.38 643.95,-478.11"/>
<polygon fill="midnightblue" stroke="midnightblue" points="645.02,-481.45 653.8,-475.52 643.24,-474.68 645.02,-481.45"/>
</g>
<!-- Node17 -->
<g id="node17" class="node">
<title>Node17</title>
<g id="a_node17"><a xlink:href="rmap_8c_a56c47830e67d01e469231e5e7e1d3a34.html#a56c47830e67d01e469231e5e7e1d3a34" target="_top" xlink:title="set the reply address path">
<polygon fill="white" stroke="black" points="631.5,-304.5 631.5,-323.5 750.5,-323.5 750.5,-304.5 631.5,-304.5"/>
<text text-anchor="middle" x="691" y="-311.5" font-family="Helvetica,sans-Serif" font-size="10.00">rmap_set_reply_path</text>
</a>
</g>
</g>
<!-- Node4&#45;&gt;Node17 -->
<g id="edge16" class="edge">
<title>Node4&#45;&gt;Node17</title>
<path fill="none" stroke="midnightblue" d="M547.36,-494.21C553.4,-465.09 575.23,-378.3 628,-333 629.98,-331.3 632.11,-329.75 634.35,-328.34"/>
<polygon fill="midnightblue" stroke="midnightblue" points="636.2,-331.32 643.41,-323.56 632.93,-325.13 636.2,-331.32"/>
</g>
<!-- Node18 -->
<g id="node18" class="node">
<title>Node18</title>
<g id="a_node18"><a xlink:href="rmap_8c_adae0030440ca4e7ad34622e505acbb2c.html#adae0030440ca4e7ad34622e505acbb2c" target="_top" xlink:title="set the source (initiator) logical address">
<polygon fill="white" stroke="black" points="650,-418.5 650,-437.5 732,-437.5 732,-418.5 650,-418.5"/>
<text text-anchor="middle" x="691" y="-425.5" font-family="Helvetica,sans-Serif" font-size="10.00">rmap_set_src</text>
</a>
</g>
</g>
<!-- Node4&#45;&gt;Node18 -->
<g id="edge18" class="edge">
<title>Node4&#45;&gt;Node18</title>
<path fill="none" stroke="midnightblue" d="M556.82,-494.48C572.1,-482.04 600.58,-460.28 628,-447 632.63,-444.76 637.58,-442.71 642.6,-440.86"/>
<polygon fill="midnightblue" stroke="midnightblue" points="643.92,-444.1 652.24,-437.54 641.65,-437.48 643.92,-444.1"/>
</g>
<!-- Node19 -->
<g id="node19" class="node">
<title>Node19</title>
<g id="a_node19"><a xlink:href="rmap_8c_a7b4c31714493ce6cc19d4aa825ab50aa.html#a7b4c31714493ce6cc19d4aa825ab50aa" target="_top" xlink:title="set an RMAP transaction identifier">
<polygon fill="white" stroke="black" points="646.5,-722.5 646.5,-741.5 735.5,-741.5 735.5,-722.5 646.5,-722.5"/>
<text text-anchor="middle" x="691" y="-729.5" font-family="Helvetica,sans-Serif" font-size="10.00">rmap_set_tr_id</text>
</a>
</g>
</g>
<!-- Node4&#45;&gt;Node19 -->
<g id="edge19" class="edge">
<title>Node4&#45;&gt;Node19</title>
<path fill="none" stroke="midnightblue" d="M546.38,-513.52C549.93,-546.34 566.12,-655.81 628,-713 630.77,-715.56 633.87,-717.77 637.17,-719.69"/>
<polygon fill="midnightblue" stroke="midnightblue" points="635.77,-722.9 646.3,-724.09 638.82,-716.59 635.77,-722.9"/>
</g>
<!-- Node6 -->
<g id="node6" class="node">
<title>Node6</title>
<g id="a_node6"><a xlink:href="rmap_8c_a0ec3c28e83818f02e00d4c79d82d938a.html#a0ec3c28e83818f02e00d4c79d82d938a" target="_top" xlink:title="get the minimum header size given the RMAP instruction">
<polygon fill="white" stroke="black" points="794.5,-532.5 794.5,-551.5 927.5,-551.5 927.5,-532.5 794.5,-532.5"/>
<text text-anchor="middle" x="861" y="-539.5" font-family="Helvetica,sans-Serif" font-size="10.00">rmap_get_min_hdr_size</text>
</a>
</g>
</g>
<!-- Node5&#45;&gt;Node6 -->
<g id="edge5" class="edge">
<title>Node5&#45;&gt;Node6</title>
<path fill="none" stroke="midnightblue" d="M732.42,-646.4C739.83,-643.87 747.33,-640.76 754,-637 791.04,-616.08 826.2,-580.34 845.26,-559.17"/>
<polygon fill="midnightblue" stroke="midnightblue" points="847.96,-561.39 851.96,-551.58 842.72,-556.75 847.96,-561.39"/>
</g>
<!-- Node10 -->
<g id="node10" class="node">
<title>Node10</title>
<g id="a_node10"><a xlink:href="rmap_8c_a667ce871110961f2a611d0244791e20f.html#a667ce871110961f2a611d0244791e20f" target="_top" xlink:title="valiidates a command code">
<polygon fill="white" stroke="black" points="790,-684.5 790,-703.5 932,-703.5 932,-684.5 790,-684.5"/>
<text text-anchor="middle" x="861" y="-691.5" font-family="Helvetica,sans-Serif" font-size="10.00">rmap_validate_cmd_code</text>
</a>
</g>
</g>
<!-- Node9&#45;&gt;Node10 -->
<g id="edge9" class="edge">
<title>Node9&#45;&gt;Node10</title>
<path fill="none" stroke="midnightblue" d="M735.7,-694C749.13,-694 764.36,-694 779.44,-694"/>
<polygon fill="midnightblue" stroke="midnightblue" points="779.83,-697.5 789.83,-694 779.83,-690.5 779.83,-697.5"/>
</g>
<!-- Node14 -->
<g id="node14" class="node">
<title>Node14</title>
<g id="a_node14"><a xlink:href="test__cmp__max__used__bits__list_8c_a7ac38fce3243a7dcf448301ee9ffd392.html#a7ac38fce3243a7dcf448301ee9ffd392" target="_top" xlink:title=" ">
<polygon fill="white" stroke="black" points="836,-304.5 836,-323.5 886,-323.5 886,-304.5 836,-304.5"/>
<text text-anchor="middle" x="861" y="-311.5" font-family="Helvetica,sans-Serif" font-size="10.00">malloc</text>
</a>
</g>
</g>
<!-- Node13&#45;&gt;Node14 -->
<g id="edge13" class="edge">
<title>Node13&#45;&gt;Node14</title>
<path fill="none" stroke="midnightblue" d="M734.39,-342.41C762.71,-336.01 799.47,-327.69 825.9,-321.71"/>
<polygon fill="midnightblue" stroke="midnightblue" points="826.85,-325.09 835.83,-319.47 825.3,-318.26 826.85,-325.09"/>
</g>
<!-- Node17&#45;&gt;Node14 -->
<g id="edge17" class="edge">
<title>Node17&#45;&gt;Node14</title>
<path fill="none" stroke="midnightblue" d="M750.76,-314C775.69,-314 803.89,-314 825.39,-314"/>
<polygon fill="midnightblue" stroke="midnightblue" points="825.67,-317.5 835.67,-314 825.67,-310.5 825.67,-317.5"/>
</g>
<!-- Node20&#45;&gt;Node14 -->
<g id="edge21" class="edge">
<title>Node20&#45;&gt;Node14</title>
<path fill="none" stroke="midnightblue" d="M260.01,-258.12C341.79,-261.28 567.49,-271.61 754,-295 778.12,-298.03 805.09,-302.88 825.78,-306.92"/>
<polygon fill="midnightblue" stroke="midnightblue" points="825.2,-310.38 835.69,-308.89 826.57,-303.51 825.2,-310.38"/>
</g>
<!-- Node21 -->
<g id="node21" class="node">
<title>Node21</title>
<g id="a_node21"><a xlink:href="rdcu__rmap_8c_a95fad3cd9b6bbe562e1a73e3f1c108a8.html#a95fad3cd9b6bbe562e1a73e3f1c108a8" target="_top" xlink:title="submit an rmap command transaction">
<polygon fill="white" stroke="black" points="348,-228.5 348,-247.5 440,-247.5 440,-228.5 348,-228.5"/>
<text text-anchor="middle" x="394" y="-235.5" font-family="Helvetica,sans-Serif" font-size="10.00">rdcu_submit_tx</text>
</a>
</g>
</g>
<!-- Node20&#45;&gt;Node21 -->
<g id="edge22" class="edge">
<title>Node20&#45;&gt;Node21</title>
<path fill="none" stroke="midnightblue" d="M260.22,-253.34C282.14,-250.8 311.89,-247.37 337.67,-244.39"/>
<polygon fill="midnightblue" stroke="midnightblue" points="338.16,-247.86 347.7,-243.23 337.36,-240.9 338.16,-247.86"/>
</g>
<!-- Node32 -->
<g id="node32" class="node">
<title>Node32</title>
<g id="a_node32"><a xlink:href="rdcu__rmap_8c_a36f44335aa66dd49fb4903f7269bc5b1.html#a36f44335aa66dd49fb4903f7269bc5b1" target="_top" xlink:title="grab a slot in the transaction log">
<polygon fill="white" stroke="black" points="338,-190.5 338,-209.5 450,-209.5 450,-190.5 338,-190.5"/>
<text text-anchor="middle" x="394" y="-197.5" font-family="Helvetica,sans-Serif" font-size="10.00">trans_log_grab_slot</text>
</a>
</g>
</g>
<!-- Node20&#45;&gt;Node32 -->
<g id="edge38" class="edge">
<title>Node20&#45;&gt;Node32</title>
<path fill="none" stroke="midnightblue" d="M251.77,-247.36C271.6,-239.3 300.94,-227.76 327,-219 333.61,-216.78 340.64,-214.58 347.55,-212.51"/>
<polygon fill="midnightblue" stroke="midnightblue" points="348.93,-215.76 357.54,-209.59 346.96,-209.04 348.93,-215.76"/>
</g>
<!-- Node22 -->
<g id="node22" class="node">
<title>Node22</title>
<g id="a_node22"><a xlink:href="rdcu__rmap_8c_a1a064554031c2fa2dcb65541e0765c0f.html#a1a064554031c2fa2dcb65541e0765c0f" target="_top" xlink:title="n rmap command transaction">
<polygon fill="white" stroke="black" points="497,-171.5 497,-190.5 592,-190.5 592,-171.5 497,-171.5"/>
<text text-anchor="middle" x="544.5" y="-178.5" font-family="Helvetica,sans-Serif" font-size="10.00">rdcu_process_rx</text>
</a>
</g>
</g>
<!-- Node21&#45;&gt;Node22 -->
<g id="edge23" class="edge">
<title>Node21&#45;&gt;Node22</title>
<path fill="none" stroke="midnightblue" d="M431.98,-228.42C441.52,-225.66 451.72,-222.45 461,-219 479.61,-212.08 499.86,-202.78 515.64,-195.11"/>
<polygon fill="midnightblue" stroke="midnightblue" points="517.41,-198.14 524.84,-190.58 514.32,-191.86 517.41,-198.14"/>
</g>
<!-- Node22&#45;&gt;Node8 -->
<g id="edge26" class="edge">
<title>Node22&#45;&gt;Node8</title>
<path fill="none" stroke="midnightblue" d="M569.3,-190.6C585.76,-197.22 608.19,-206.2 628,-214 636.99,-217.54 646.73,-221.33 655.77,-224.83"/>
<polygon fill="midnightblue" stroke="midnightblue" points="654.65,-228.15 665.24,-228.49 657.17,-221.62 654.65,-228.15"/>
</g>
<!-- Node22&#45;&gt;Node14 -->
<g id="edge24" class="edge">
<title>Node22&#45;&gt;Node14</title>
<path fill="none" stroke="midnightblue" d="M592.07,-182.28C635.88,-185.11 702.29,-193.67 754,-219 792.4,-237.81 827.32,-274.59 845.92,-296.46"/>
<polygon fill="midnightblue" stroke="midnightblue" points="843.35,-298.85 852.43,-304.3 848.73,-294.37 843.35,-298.85"/>
</g>
<!-- Node23 -->
<g id="node23" class="node">
<title>Node23</title>
<g id="a_node23"><a xlink:href="rmap_8c_abf1868ec6873f9f189050cadc7e64a3b.html#abf1868ec6873f9f189050cadc7e64a3b" target="_top" xlink:title="calculate the CRC8 of a given buffer">
<polygon fill="white" stroke="black" points="657,-76.5 657,-95.5 725,-95.5 725,-76.5 657,-76.5"/>
<text text-anchor="middle" x="691" y="-83.5" font-family="Helvetica,sans-Serif" font-size="10.00">rmap_crc8</text>
</a>
</g>
</g>
<!-- Node22&#45;&gt;Node23 -->
<g id="edge25" class="edge">
<title>Node22&#45;&gt;Node23</title>
<path fill="none" stroke="midnightblue" d="M553.37,-171.36C566.95,-155.32 596.41,-123.12 628,-105 633.9,-101.61 640.48,-98.76 647.08,-96.39"/>
<polygon fill="midnightblue" stroke="midnightblue" points="648.27,-99.68 656.69,-93.25 646.09,-93.03 648.27,-99.68"/>
</g>
<!-- Node24 -->
<g id="node24" class="node">
<title>Node24</title>
<g id="a_node24"><a xlink:href="rmap_8c_a5e88a29337404518eceedf9b4af285bf.html#a5e88a29337404518eceedf9b4af285bf" target="_top" xlink:title=" ">
<polygon fill="white" stroke="black" points="643.5,-38.5 643.5,-57.5 738.5,-57.5 738.5,-38.5 643.5,-38.5"/>
<text text-anchor="middle" x="691" y="-45.5" font-family="Helvetica,sans-Serif" font-size="10.00">rmap_parse_pkt</text>
</a>
</g>
</g>
<!-- Node22&#45;&gt;Node24 -->
<g id="edge27" class="edge">
<title>Node22&#45;&gt;Node24</title>
<path fill="none" stroke="midnightblue" d="M549.76,-171.43C559.98,-149.55 588.06,-95.57 628,-67 630.7,-65.07 633.6,-63.33 636.62,-61.76"/>
<polygon fill="midnightblue" stroke="midnightblue" points="638.27,-64.86 645.96,-57.57 635.4,-58.48 638.27,-64.86"/>
</g>
<!-- Node29 -->
<g id="node29" class="node">
<title>Node29</title>
<g id="a_node29"><a xlink:href="rmap_8c_a46d3271304c12df042b57dbebaba67e1.html#a46d3271304c12df042b57dbebaba67e1" target="_top" xlink:title="create an rmap packet from a buffer">
<polygon fill="white" stroke="black" points="628.5,-380.5 628.5,-399.5 753.5,-399.5 753.5,-380.5 628.5,-380.5"/>
<text text-anchor="middle" x="691" y="-387.5" font-family="Helvetica,sans-Serif" font-size="10.00">rmap_pkt_from_buffer</text>
</a>
</g>
</g>
<!-- Node22&#45;&gt;Node29 -->
<g id="edge32" class="edge">
<title>Node22&#45;&gt;Node29</title>
<path fill="none" stroke="midnightblue" d="M546.8,-190.52C551.52,-221.4 570.62,-319.72 628,-371 629.91,-372.71 631.97,-374.26 634.14,-375.67"/>
<polygon fill="midnightblue" stroke="midnightblue" points="632.49,-378.76 642.95,-380.46 635.84,-372.61 632.49,-378.76"/>
</g>
<!-- Node30 -->
<g id="node30" class="node">
<title>Node30</title>
<g id="a_node30"><a xlink:href="rdcu__rmap_8c_acf9b176d8d9b24e9d07711f56aebccc0.html#acf9b176d8d9b24e9d07711f56aebccc0" target="_top" xlink:title="get the local address for a slot">
<polygon fill="white" stroke="black" points="636,-152.5 636,-171.5 746,-171.5 746,-152.5 636,-152.5"/>
<text text-anchor="middle" x="691" y="-159.5" font-family="Helvetica,sans-Serif" font-size="10.00">trans_log_get_addr</text>
</a>
</g>
</g>
<!-- Node22&#45;&gt;Node30 -->
<g id="edge36" class="edge">
<title>Node22&#45;&gt;Node30</title>
<path fill="none" stroke="midnightblue" d="M592.02,-174.88C602.69,-173.48 614.23,-171.96 625.51,-170.48"/>
<polygon fill="midnightblue" stroke="midnightblue" points="626.31,-173.9 635.77,-169.13 625.4,-166.96 626.31,-173.9"/>
</g>
<!-- Node31 -->
<g id="node31" class="node">
<title>Node31</title>
<g id="a_node31"><a xlink:href="rdcu__rmap_8c_a7012f58a1862cf07b00e299d24c199c2.html#a7012f58a1862cf07b00e299d24c199c2" target="_top" xlink:title="release a slot in the transaction log">
<polygon fill="white" stroke="black" points="628,-114.5 628,-133.5 754,-133.5 754,-114.5 628,-114.5"/>
<text text-anchor="middle" x="691" y="-121.5" font-family="Helvetica,sans-Serif" font-size="10.00">trans_log_release_slot</text>
</a>
</g>
</g>
<!-- Node22&#45;&gt;Node31 -->
<g id="edge37" class="edge">
<title>Node22&#45;&gt;Node31</title>
<path fill="none" stroke="midnightblue" d="M564.52,-171.35C581.05,-163.18 605.75,-151.49 628,-143 633.87,-140.76 640.12,-138.6 646.31,-136.58"/>
<polygon fill="midnightblue" stroke="midnightblue" points="647.45,-139.89 655.93,-133.54 645.34,-133.22 647.45,-139.89"/>
</g>
<!-- Node25 -->
<g id="node25" class="node">
<title>Node25</title>
<g id="a_node25"><a xlink:href="rmap_8c_abb4e19c17c7223212c3904bc4c0189d2.html#abb4e19c17c7223212c3904bc4c0189d2" target="_top" xlink:title=" ">
<polygon fill="white" stroke="black" points="805.5,-76.5 805.5,-95.5 916.5,-95.5 916.5,-76.5 805.5,-76.5"/>
<text text-anchor="middle" x="861" y="-83.5" font-family="Helvetica,sans-Serif" font-size="10.00">rmap_check_status</text>
</a>
</g>
</g>
<!-- Node24&#45;&gt;Node25 -->
<g id="edge28" class="edge">
<title>Node24&#45;&gt;Node25</title>
<path fill="none" stroke="midnightblue" d="M734.39,-57.59C756.76,-62.65 784.4,-68.9 808.05,-74.25"/>
<polygon fill="midnightblue" stroke="midnightblue" points="807.39,-77.69 817.91,-76.48 808.93,-70.86 807.39,-77.69"/>
</g>
<!-- Node26 -->
<g id="node26" class="node">
<title>Node26</title>
<g id="a_node26"><a xlink:href="rmap_8c_a20aa8b91dfb1bbad819759f97b853054.html#a20aa8b91dfb1bbad819759f97b853054" target="_top" xlink:title=" ">
<polygon fill="white" stroke="black" points="800,-38.5 800,-57.5 922,-57.5 922,-38.5 800,-38.5"/>
<text text-anchor="middle" x="861" y="-45.5" font-family="Helvetica,sans-Serif" font-size="10.00">rmap_parse_cmd_pkt</text>
</a>
</g>
</g>
<!-- Node24&#45;&gt;Node26 -->
<g id="edge29" class="edge">
<title>Node24&#45;&gt;Node26</title>
<path fill="none" stroke="midnightblue" d="M738.8,-48C754.62,-48 772.66,-48 789.89,-48"/>
<polygon fill="midnightblue" stroke="midnightblue" points="789.92,-51.5 799.92,-48 789.92,-44.5 789.92,-51.5"/>
</g>
<!-- Node27 -->
<g id="node27" class="node">
<title>Node27</title>
<g id="a_node27"><a xlink:href="rmap_8c_adef42426b46ee5ad5176ee76cff35c22.html#adef42426b46ee5ad5176ee76cff35c22" target="_top" xlink:title=" ">
<polygon fill="white" stroke="black" points="798.5,-0.5 798.5,-19.5 923.5,-19.5 923.5,-0.5 798.5,-0.5"/>
<text text-anchor="middle" x="861" y="-7.5" font-family="Helvetica,sans-Serif" font-size="10.00">rmap_parse_reply_pkt</text>
</a>
</g>
</g>
<!-- Node24&#45;&gt;Node27 -->
<g id="edge30" class="edge">
<title>Node24&#45;&gt;Node27</title>
<path fill="none" stroke="midnightblue" d="M734.39,-38.41C756.76,-33.35 784.4,-27.1 808.05,-21.75"/>
<polygon fill="midnightblue" stroke="midnightblue" points="808.93,-25.14 817.91,-19.52 807.39,-18.31 808.93,-25.14"/>
</g>
<!-- Node28 -->
<g id="node28" class="node">
<title>Node28</title>
<g id="a_node28"><a xlink:href="rmap_8c_a2ff278a5e094a9f585865d4d838e0e0e.html#a2ff278a5e094a9f585865d4d838e0e0e" target="_top" xlink:title=" ">
<polygon fill="white" stroke="black" points="968,-0.5 968,-19.5 1110,-19.5 1110,-0.5 968,-0.5"/>
<text text-anchor="middle" x="1039" y="-7.5" font-family="Helvetica,sans-Serif" font-size="10.00">rmap_process_read_reply</text>
</a>
</g>
</g>
<!-- Node27&#45;&gt;Node28 -->
<g id="edge31" class="edge">
<title>Node27&#45;&gt;Node28</title>
<path fill="none" stroke="midnightblue" d="M923.56,-10C934.6,-10 946.25,-10 957.73,-10"/>
<polygon fill="midnightblue" stroke="midnightblue" points="957.74,-13.5 967.74,-10 957.74,-6.5 957.74,-13.5"/>
</g>
<!-- Node29&#45;&gt;Node6 -->
<g id="edge35" class="edge">
<title>Node29&#45;&gt;Node6</title>
<path fill="none" stroke="midnightblue" d="M736.9,-399.53C743,-402 748.9,-405.1 754,-409 777.81,-427.19 771.78,-442.22 790,-466 806.39,-487.38 827.64,-509.84 842.41,-524.74"/>
<polygon fill="midnightblue" stroke="midnightblue" points="840.32,-527.61 849.87,-532.19 845.27,-522.65 840.32,-527.61"/>
</g>
<!-- Node29&#45;&gt;Node7 -->
<g id="edge34" class="edge">
<title>Node29&#45;&gt;Node7</title>
<path fill="none" stroke="midnightblue" d="M724.27,-399.58C733.87,-402.51 744.38,-405.81 754,-409 777.76,-416.89 804.27,-426.4 824.83,-433.93"/>
<polygon fill="midnightblue" stroke="midnightblue" points="823.82,-437.28 834.41,-437.45 826.23,-430.71 823.82,-437.28"/>
</g>
<!-- Node29&#45;&gt;Node14 -->
<g id="edge33" class="edge">
<title>Node29&#45;&gt;Node14</title>
<path fill="none" stroke="midnightblue" d="M727.51,-380.43C736.29,-377.7 745.58,-374.51 754,-371 783.06,-358.87 814.64,-341.27 835.7,-328.84"/>
<polygon fill="midnightblue" stroke="midnightblue" points="837.52,-331.83 844.32,-323.7 833.94,-325.82 837.52,-331.83"/>
</g>
</g>
</svg>
        <g id="navigator" transform="translate(0 0)" fill="#404254">
                <rect fill="#f2f5e9" fill-opacity="0.5" stroke="#606060" stroke-width=".5" x="0" y="0" width="60" height="60"/>
                <use id="zoomplus" xlink:href="#zoomPlus" x="17" y="9" onmousedown="handleZoom(evt,'in')"/>
                <use id="zoomminus" xlink:href="#zoomMin" x="42" y="9" onmousedown="handleZoom(evt,'out')"/>
                <use id="reset" xlink:href="#resetDef" x="30" y="36" onmousedown="handleReset()"/>
                <g id="arrowUp" xlink:href="#dirArrow" transform="translate(30 24)" onmousedown="handlePan(0,-1)">
                  <use xlink:href="#rim" fill="#404040">
                        <set attributeName="fill" to="#808080" begin="arrowUp.mouseover" end="arrowUp.mouseout"/>
                  </use>
                  <path fill="none" stroke="white" stroke-width="1.5" d="M0,-3.0v7 M-2.5,-0.5L0,-3.0L2.5,-0.5"/>
                </g>
                <g id="arrowRight" xlink:href="#dirArrow" transform="rotate(90) translate(36 -43)" onmousedown="handlePan(1,0)">
                  <use xlink:href="#rim" fill="#404040">
                        <set attributeName="fill" to="#808080" begin="arrowRight.mouseover" end="arrowRight.mouseout"/>
                  </use>
                  <path fill="none" stroke="white" stroke-width="1.5" d="M0,-3.0v7 M-2.5,-0.5L0,-3.0L2.5,-0.5"/>
                </g>
                <g id="arrowDown" xlink:href="#dirArrow" transform="rotate(180) translate(-30 -48)" onmousedown="handlePan(0,1)">
                  <use xlink:href="#rim" fill="#404040">
                        <set attributeName="fill" to="#808080" begin="arrowDown.mouseover" end="arrowDown.mouseout"/>
                  </use>
                  <path fill="none" stroke="white" stroke-width="1.5" d="M0,-3.0v7 M-2.5,-0.5L0,-3.0L2.5,-0.5"/>
                </g>
                <g id="arrowLeft" xlink:href="#dirArrow" transform="rotate(270) translate(-36 17)" onmousedown="handlePan(-1,0)">
                  <use xlink:href="#rim" fill="#404040">
                        <set attributeName="fill" to="#808080" begin="arrowLeft.mouseover" end="arrowLeft.mouseout"/>
                  </use>
                  <path fill="none" stroke="white" stroke-width="1.5" d="M0,-3.0v7 M-2.5,-0.5L0,-3.0L2.5,-0.5"/>
                </g>
        </g>
        <svg viewBox="0 0 15 15" width="100%" height="30px" preserveAspectRatio="xMaxYMin meet">
         <g id="arrow_out" transform="scale(0.3 0.3)">
          <a xlink:href="rdcu__ctrl_8c_acdcc51329fc9b3999f43e62f05485e5d_acdcc51329fc9b3999f43e62f05485e5d_cgraph_org.svg" target="_base">
           <rect id="button" ry="5" rx="5" y="6" x="6" height="38" width="38"
                fill="#f2f5e9" fill-opacity="0.5" stroke="#606060" stroke-width="1.0"/>
           <path id="arrow"
             d="M 11.500037,31.436501 C 11.940474,20.09759 22.043105,11.32322 32.158766,21.979434 L 37.068811,17.246167 C 37.068811,17.246167 37.088388,32 37.088388,32 L 22.160133,31.978069 C 22.160133,31.978069 26.997745,27.140456 26.997745,27.140456 C 18.528582,18.264221 13.291696,25.230495 11.500037,31.436501 z"
             style="fill:#404040;"/>
          </a>
         </g>
        </svg>
</svg>
