<?xml version="1.0" encoding="UTF-8" standalone="no"?>
<!DOCTYPE svg PUBLIC "-//W3C//DTD SVG 1.1//EN"
 "http://www.w3.org/Graphics/SVG/1.1/DTD/svg11.dtd">
<!-- Generated by graphviz version 2.43.0 (0)
 -->
<!-- Title: rdcu_rmap.c Pages: 1 -->
<svg width="647pt" height="140pt"
 viewBox="0.00 0.00 647.00 140.00" xmlns="http://www.w3.org/2000/svg" xmlns:xlink="http://www.w3.org/1999/xlink">
<g id="graph0" class="graph" transform="scale(1 1) rotate(0) translate(4 136)">
<title>rdcu_rmap.c</title>
<polygon fill="white" stroke="transparent" points="-4,4 -4,-136 643,-136 643,4 -4,4"/>
<!-- Node1 -->
<g id="node1" class="node">
<title>Node1</title>
<g id="a_node1"><a xlink:title="RMAP RDCU link interface.">
<polygon fill="#bfbfbf" stroke="black" points="181.5,-112.5 181.5,-131.5 258.5,-131.5 258.5,-112.5 181.5,-112.5"/>
<text text-anchor="middle" x="220" y="-119.5" font-family="Helvetica,sans-Serif" font-size="10.00">rdcu_rmap.c</text>
</a>
</g>
</g>
<!-- Node2 -->
<g id="node2" class="node">
<title>Node2</title>
<g id="a_node2"><a xlink:title=" ">
<polygon fill="white" stroke="#bfbfbf" points="0,-56.5 0,-75.5 50,-75.5 50,-56.5 0,-56.5"/>
<text text-anchor="middle" x="25" y="-63.5" font-family="Helvetica,sans-Serif" font-size="10.00">stdio.h</text>
</a>
</g>
</g>
<!-- Node1&#45;&gt;Node2 -->
<g id="edge1" class="edge">
<title>Node1&#45;&gt;Node2</title>
<path fill="none" stroke="midnightblue" d="M189.1,-112.44C153.96,-102.71 96.7,-86.86 59.96,-76.68"/>
<polygon fill="midnightblue" stroke="midnightblue" points="60.74,-73.27 50.17,-73.97 58.88,-80.01 60.74,-73.27"/>
</g>
<!-- Node3 -->
<g id="node3" class="node">
<title>Node3</title>
<g id="a_node3"><a xlink:title=" ">
<polygon fill="white" stroke="#bfbfbf" points="68.5,-56.5 68.5,-75.5 121.5,-75.5 121.5,-56.5 68.5,-56.5"/>
<text text-anchor="middle" x="95" y="-63.5" font-family="Helvetica,sans-Serif" font-size="10.00">stdlib.h</text>
</a>
</g>
</g>
<!-- Node1&#45;&gt;Node3 -->
<g id="edge2" class="edge">
<title>Node1&#45;&gt;Node3</title>
<path fill="none" stroke="midnightblue" d="M200.19,-112.44C179.71,-103.6 147.52,-89.69 124.14,-79.59"/>
<polygon fill="midnightblue" stroke="midnightblue" points="125.28,-76.27 114.71,-75.52 122.51,-82.7 125.28,-76.27"/>
</g>
<!-- Node4 -->
<g id="node4" class="node">
<title>Node4</title>
<g id="a_node4"><a xlink:title=" ">
<polygon fill="white" stroke="#bfbfbf" points="139.5,-56.5 139.5,-75.5 192.5,-75.5 192.5,-56.5 139.5,-56.5"/>
<text text-anchor="middle" x="166" y="-63.5" font-family="Helvetica,sans-Serif" font-size="10.00">string.h</text>
</a>
</g>
</g>
<!-- Node1&#45;&gt;Node4 -->
<g id="edge3" class="edge">
<title>Node1&#45;&gt;Node4</title>
<path fill="none" stroke="midnightblue" d="M211.08,-112.08C203.22,-104.22 191.57,-92.57 182.08,-83.08"/>
<polygon fill="midnightblue" stroke="midnightblue" points="184.3,-80.35 174.75,-75.75 179.35,-85.3 184.3,-80.35"/>
</g>
<!-- Node5 -->
<g id="node5" class="node">
<title>Node5</title>
<g id="a_node5"><a xlink:href="byteorder_8h.html" target="_top" xlink:title="This is a set of macros for consistent endianness conversion. They work for both little and big endia...">
<polygon fill="white" stroke="black" points="210.5,-56.5 210.5,-75.5 337.5,-75.5 337.5,-56.5 210.5,-56.5"/>
<text text-anchor="middle" x="274" y="-63.5" font-family="Helvetica,sans-Serif" font-size="10.00">../common/byteorder.h</text>
</a>
</g>
</g>
<!-- Node1&#45;&gt;Node5 -->
<g id="edge4" class="edge">
<title>Node1&#45;&gt;Node5</title>
<path fill="none" stroke="midnightblue" d="M228.92,-112.08C236.78,-104.22 248.43,-92.57 257.92,-83.08"/>
<polygon fill="midnightblue" stroke="midnightblue" points="260.65,-85.3 265.25,-75.75 255.7,-80.35 260.65,-85.3"/>
</g>
<!-- Node7 -->
<g id="node7" class="node">
<title>Node7</title>
<g id="a_node7"><a xlink:href="rmap_8h.html" target="_top" xlink:title="rmap command/reply helper functions">
<polygon fill="white" stroke="black" points="450.5,-56.5 450.5,-75.5 501.5,-75.5 501.5,-56.5 450.5,-56.5"/>
<text text-anchor="middle" x="476" y="-63.5" font-family="Helvetica,sans-Serif" font-size="10.00">rmap.h</text>
</a>
</g>
</g>
<!-- Node1&#45;&gt;Node7 -->
<g id="edge6" class="edge">
<title>Node1&#45;&gt;Node7</title>
<path fill="none" stroke="midnightblue" d="M258.85,-113.71C301.11,-105.64 370.85,-91.93 440.58,-76"/>
<polygon fill="midnightblue" stroke="midnightblue" points="441.46,-79.39 450.42,-73.74 439.89,-72.57 441.46,-79.39"/>
</g>
<!-- Node10 -->
<g id="node10" class="node">
<title>Node10</title>
<g id="a_node10"><a xlink:href="rdcu__rmap_8h.html" target="_top" xlink:title="RMAP RDCU link interface header file.">
<polygon fill="white" stroke="black" points="355.5,-56.5 355.5,-75.5 432.5,-75.5 432.5,-56.5 355.5,-56.5"/>
<text text-anchor="middle" x="394" y="-63.5" font-family="Helvetica,sans-Serif" font-size="10.00">rdcu_rmap.h</text>
</a>
</g>
</g>
<!-- Node1&#45;&gt;Node10 -->
<g id="edge10" class="edge">
<title>Node1&#45;&gt;Node10</title>
<path fill="none" stroke="midnightblue" d="M247.57,-112.44C277.1,-103.28 324.12,-88.69 356.88,-78.52"/>
<polygon fill="midnightblue" stroke="midnightblue" points="358.04,-81.82 366.56,-75.52 355.97,-75.14 358.04,-81.82"/>
</g>
<!-- Node6 -->
<g id="node6" class="node">
<title>Node6</title>
<g id="a_node6"><a xlink:title=" ">
<polygon fill="white" stroke="#bfbfbf" points="367.5,-0.5 367.5,-19.5 420.5,-19.5 420.5,-0.5 367.5,-0.5"/>
<text text-anchor="middle" x="394" y="-7.5" font-family="Helvetica,sans-Serif" font-size="10.00">stdint.h</text>
</a>
</g>
</g>
<!-- Node5&#45;&gt;Node6 -->
<g id="edge5" class="edge">
<title>Node5&#45;&gt;Node6</title>
<path fill="none" stroke="midnightblue" d="M293.01,-56.44C312.59,-47.64 343.31,-33.81 365.73,-23.72"/>
<polygon fill="midnightblue" stroke="midnightblue" points="367.39,-26.81 375.07,-19.52 364.52,-20.43 367.39,-26.81"/>
</g>
<!-- Node7&#45;&gt;Node6 -->
<g id="edge7" class="edge">
<title>Node7&#45;&gt;Node6</title>
<path fill="none" stroke="midnightblue" d="M462.83,-56.32C450.15,-47.98 430.77,-35.21 415.79,-25.35"/>
<polygon fill="midnightblue" stroke="midnightblue" points="417.42,-22.23 407.14,-19.65 413.57,-28.08 417.42,-22.23"/>
</g>
<!-- Node8 -->
<g id="node8" class="node">
<title>Node8</title>
<g id="a_node8"><a xlink:title=" ">
<polygon fill="white" stroke="#bfbfbf" points="443,-0.5 443,-19.5 499,-19.5 499,-0.5 443,-0.5"/>
<text text-anchor="middle" x="471" y="-7.5" font-family="Helvetica,sans-Serif" font-size="10.00">stddef.h</text>
</a>
</g>
</g>
<!-- Node7&#45;&gt;Node8 -->
<g id="edge8" class="edge">
<title>Node7&#45;&gt;Node8</title>
<path fill="none" stroke="midnightblue" d="M475.17,-56.08C474.52,-49.01 473.58,-38.86 472.76,-29.99"/>
<polygon fill="midnightblue" stroke="midnightblue" points="476.22,-29.39 471.81,-19.75 469.25,-30.03 476.22,-29.39"/>
</g>
<!-- Node9 -->
<g id="node9" class="node">
<title>Node9</title>
<g id="a_node9"><a xlink:href="compiler_8h.html" target="_top" xlink:title="a collection of preprocessor macros">
<polygon fill="white" stroke="black" points="517,-0.5 517,-19.5 639,-19.5 639,-0.5 517,-0.5"/>
<text text-anchor="middle" x="578" y="-7.5" font-family="Helvetica,sans-Serif" font-size="10.00">../common/compiler.h</text>
</a>
</g>
</g>
<!-- Node7&#45;&gt;Node9 -->
<g id="edge9" class="edge">
<title>Node7&#45;&gt;Node9</title>
<path fill="none" stroke="midnightblue" d="M492.39,-56.32C508.67,-47.7 533.87,-34.36 552.72,-24.39"/>
<polygon fill="midnightblue" stroke="midnightblue" points="554.45,-27.43 561.65,-19.65 551.18,-21.24 554.45,-27.43"/>
</g>
<!-- Node10&#45;&gt;Node6 -->
<g id="edge11" class="edge">
<title>Node10&#45;&gt;Node6</title>
<path fill="none" stroke="midnightblue" d="M394,-56.08C394,-49.01 394,-38.86 394,-29.99"/>
<polygon fill="midnightblue" stroke="midnightblue" points="397.5,-29.75 394,-19.75 390.5,-29.75 397.5,-29.75"/>
</g>
</g>
</svg>
