<?xml version="1.0" encoding="UTF-8" standalone="no"?>
<!DOCTYPE svg PUBLIC "-//W3C//DTD SVG 1.1//EN"
 "http://www.w3.org/Graphics/SVG/1.1/DTD/svg11.dtd">
<!-- Generated by graphviz version 2.43.0 (0)
 -->
<!-- Title: rdcu_sync_rdcu_reset Pages: 1 -->
<!--zoomable 750 -->
<svg id="main" version="1.1" xmlns="http://www.w3.org/2000/svg" xmlns:xlink="http://www.w3.org/1999/xlink" xml:space="preserve" onload="init(evt)">
<style type="text/css"><![CDATA[
.edge:hover path { stroke: red; }
.edge:hover polygon { stroke: red; fill: red; }
]]></style>
<script type="text/javascript"><![CDATA[
var edges = document.getElementsByTagName('g');
if (edges && edges.length) {
  for (var i=0;i<edges.length;i++) {
    if (edges[i].id.substr(0,4)=='edge') {
      edges[i].setAttribute('class','edge');
    }
  }
}
]]></script>
        <defs>
                <circle id="rim" cx="0" cy="0" r="7"/>
                <circle id="rim2" cx="0" cy="0" r="3.5"/>
                <g id="zoomPlus">
                        <use xlink:href="#rim" fill="#404040">
                                <set attributeName="fill" to="#808080" begin="zoomplus.mouseover" end="zoomplus.mouseout"/>
                        </use>
                        <path d="M-4,0h8M0,-4v8" fill="none" stroke="white" stroke-width="1.5" pointer-events="none"/>
                </g>
                <g id="zoomMin">
                        <use xlink:href="#rim" fill="#404040">
                                <set attributeName="fill" to="#808080" begin="zoomminus.mouseover" end="zoomminus.mouseout"/>
                        </use>
                        <path d="M-4,0h8" fill="none" stroke="white" stroke-width="1.5" pointer-events="none"/>
                </g>
                <g id="dirArrow">
                        <path fill="none" stroke="white" stroke-width="1.5" d="M0,-3.0v7 M-2.5,-0.5L0,-3.0L2.5,-0.5"/>
                </g>
               <g id="resetDef">
                       <use xlink:href="#rim2" fill="#404040">
                               <set attributeName="fill" to="#808080" begin="reset.mouseover" end="reset.mouseout"/>
                       </use>
               </g>
        </defs>

<script type="text/javascript">
var viewWidth = 1108;
var viewHeight = 750;
var sectionId = 'dynsection-0';
</script>
<script xlink:href="svgpan.js"/>
<svg id="graph" class="graph">
<g id="viewport">
<title>rdcu_sync_rdcu_reset</title>
<polygon fill="white" stroke="transparent" points="-4,4 -4,-746 1104,-746 1104,4 -4,4"/>
<!-- Node1 -->
<g id="node1" class="node">
<title>Node1</title>
<g id="a_node1"><a xlink:title="sync the RDCU Reset register (write only)">
<polygon fill="#bfbfbf" stroke="black" points="0,-586.5 0,-605.5 122,-605.5 122,-586.5 0,-586.5"/>
<text text-anchor="middle" x="61" y="-593.5" font-family="Helvetica,sans-Serif" font-size="10.00">rdcu_sync_rdcu_reset</text>
</a>
</g>
</g>
<!-- Node2 -->
<g id="node2" class="node">
<title>Node2</title>
<g id="a_node2"><a xlink:href="rdcu__rmap_8c_a533d1eb248d83ba3d406cefe7f3c9eb9.html#a533d1eb248d83ba3d406cefe7f3c9eb9" target="_top" xlink:title="submit a sync command">
<polygon fill="white" stroke="black" points="185.5,-608.5 185.5,-627.5 250.5,-627.5 250.5,-608.5 185.5,-608.5"/>
<text text-anchor="middle" x="218" y="-615.5" font-family="Helvetica,sans-Serif" font-size="10.00">rdcu_sync</text>
</a>
</g>
</g>
<!-- Node1&#45;&gt;Node2 -->
<g id="edge1" class="edge">
<title>Node1&#45;&gt;Node2</title>
<path fill="none" stroke="midnightblue" d="M122.37,-604.57C139.94,-607.06 158.75,-609.73 174.93,-612.03"/>
<polygon fill="midnightblue" stroke="midnightblue" points="174.76,-615.54 185.15,-613.48 175.74,-608.61 174.76,-615.54"/>
</g>
<!-- Node19 -->
<g id="node19" class="node">
<title>Node19</title>
<g id="a_node19"><a xlink:href="rdcu__cmd_8c_a912b1c53908f00c48757ab2441f8c65d.html#a912b1c53908f00c48757ab2441f8c65d" target="_top" xlink:title="create a command to write the RDCU reset register">
<polygon fill="white" stroke="black" points="158,-559 158,-589 278,-589 278,-559 158,-559"/>
<text text-anchor="start" x="166" y="-577" font-family="Helvetica,sans-Serif" font-size="10.00">rdcu_write_cmd_rdcu</text>
<text text-anchor="middle" x="218" y="-566" font-family="Helvetica,sans-Serif" font-size="10.00">_reset</text>
</a>
</g>
</g>
<!-- Node1&#45;&gt;Node19 -->
<g id="edge20" class="edge">
<title>Node1&#45;&gt;Node19</title>
<path fill="none" stroke="midnightblue" d="M122.37,-587.43C130.74,-586.24 139.39,-585.02 147.91,-583.81"/>
<polygon fill="midnightblue" stroke="midnightblue" points="148.4,-587.27 157.81,-582.4 147.42,-580.34 148.4,-587.27"/>
</g>
<!-- Node3 -->
<g id="node3" class="node">
<title>Node3</title>
<g id="a_node3"><a xlink:href="test__cmp__max__used__bits__list_8c_a7ac38fce3243a7dcf448301ee9ffd392.html#a7ac38fce3243a7dcf448301ee9ffd392" target="_top" xlink:title=" ">
<polygon fill="white" stroke="black" points="826,-418.5 826,-437.5 876,-437.5 876,-418.5 826,-418.5"/>
<text text-anchor="middle" x="851" y="-425.5" font-family="Helvetica,sans-Serif" font-size="10.00">malloc</text>
</a>
</g>
</g>
<!-- Node2&#45;&gt;Node3 -->
<g id="edge2" class="edge">
<title>Node2&#45;&gt;Node3</title>
<path fill="none" stroke="midnightblue" d="M250.74,-623.61C351.3,-640.7 661.03,-687.95 744,-637 813.21,-594.5 838.94,-491.2 846.91,-447.76"/>
<polygon fill="midnightblue" stroke="midnightblue" points="850.37,-448.3 848.61,-437.86 843.47,-447.12 850.37,-448.3"/>
</g>
<!-- Node4 -->
<g id="node4" class="node">
<title>Node4</title>
<g id="a_node4"><a xlink:href="rdcu__rmap_8c_a95fad3cd9b6bbe562e1a73e3f1c108a8.html#a95fad3cd9b6bbe562e1a73e3f1c108a8" target="_top" xlink:title="submit an rmap command transaction">
<polygon fill="white" stroke="black" points="336.5,-570.5 336.5,-589.5 428.5,-589.5 428.5,-570.5 336.5,-570.5"/>
<text text-anchor="middle" x="382.5" y="-577.5" font-family="Helvetica,sans-Serif" font-size="10.00">rdcu_submit_tx</text>
</a>
</g>
</g>
<!-- Node2&#45;&gt;Node4 -->
<g id="edge3" class="edge">
<title>Node2&#45;&gt;Node4</title>
<path fill="none" stroke="midnightblue" d="M250.72,-610.58C273.49,-605.26 304.65,-597.97 330.84,-591.85"/>
<polygon fill="midnightblue" stroke="midnightblue" points="331.67,-595.25 340.61,-589.56 330.07,-588.43 331.67,-595.25"/>
</g>
<!-- Node18 -->
<g id="node18" class="node">
<title>Node18</title>
<g id="a_node18"><a xlink:href="rdcu__rmap_8c_a36f44335aa66dd49fb4903f7269bc5b1.html#a36f44335aa66dd49fb4903f7269bc5b1" target="_top" xlink:title="grab a slot in the transaction log">
<polygon fill="white" stroke="black" points="326.5,-684.5 326.5,-703.5 438.5,-703.5 438.5,-684.5 326.5,-684.5"/>
<text text-anchor="middle" x="382.5" y="-691.5" font-family="Helvetica,sans-Serif" font-size="10.00">trans_log_grab_slot</text>
</a>
</g>
</g>
<!-- Node2&#45;&gt;Node18 -->
<g id="edge19" class="edge">
<title>Node2&#45;&gt;Node18</title>
<path fill="none" stroke="midnightblue" d="M234.74,-627.63C253.27,-638.73 285.17,-657.08 314,-670 322.93,-674 332.75,-677.81 342.06,-681.17"/>
<polygon fill="midnightblue" stroke="midnightblue" points="340.93,-684.48 351.53,-684.49 343.25,-677.87 340.93,-684.48"/>
</g>
<!-- Node5 -->
<g id="node5" class="node">
<title>Node5</title>
<g id="a_node5"><a xlink:href="rdcu__rmap_8c_a1a064554031c2fa2dcb65541e0765c0f.html#a1a064554031c2fa2dcb65541e0765c0f" target="_top" xlink:title="n rmap command transaction">
<polygon fill="white" stroke="black" points="487,-551.5 487,-570.5 582,-570.5 582,-551.5 487,-551.5"/>
<text text-anchor="middle" x="534.5" y="-558.5" font-family="Helvetica,sans-Serif" font-size="10.00">rdcu_process_rx</text>
</a>
</g>
</g>
<!-- Node4&#45;&gt;Node5 -->
<g id="edge4" class="edge">
<title>Node4&#45;&gt;Node5</title>
<path fill="none" stroke="midnightblue" d="M428.5,-574.3C443.65,-572.38 460.76,-570.21 476.69,-568.2"/>
<polygon fill="midnightblue" stroke="midnightblue" points="477.49,-571.62 486.97,-566.89 476.61,-564.68 477.49,-571.62"/>
</g>
<!-- Node5&#45;&gt;Node3 -->
<g id="edge5" class="edge">
<title>Node5&#45;&gt;Node3</title>
<path fill="none" stroke="midnightblue" d="M554.19,-551.49C570.7,-543.3 595.59,-531.49 618,-523 672.69,-502.27 689.97,-507.41 744,-485 773.25,-472.87 805.03,-455.12 826.08,-442.66"/>
<polygon fill="midnightblue" stroke="midnightblue" points="827.9,-445.65 834.68,-437.51 824.3,-439.65 827.9,-445.65"/>
</g>
<!-- Node6 -->
<g id="node6" class="node">
<title>Node6</title>
<g id="a_node6"><a xlink:href="rmap_8c_abf1868ec6873f9f189050cadc7e64a3b.html#abf1868ec6873f9f189050cadc7e64a3b" target="_top" xlink:title="calculate the CRC8 of a given buffer">
<polygon fill="white" stroke="black" points="647,-570.5 647,-589.5 715,-589.5 715,-570.5 647,-570.5"/>
<text text-anchor="middle" x="681" y="-577.5" font-family="Helvetica,sans-Serif" font-size="10.00">rmap_crc8</text>
</a>
</g>
</g>
<!-- Node5&#45;&gt;Node6 -->
<g id="edge6" class="edge">
<title>Node5&#45;&gt;Node6</title>
<path fill="none" stroke="midnightblue" d="M582.02,-567.12C599.51,-569.42 619.31,-572.02 636.52,-574.28"/>
<polygon fill="midnightblue" stroke="midnightblue" points="636.48,-577.81 646.85,-575.64 637.39,-570.87 636.48,-577.81"/>
</g>
<!-- Node7 -->
<g id="node7" class="node">
<title>Node7</title>
<g id="a_node7"><a xlink:href="rmap_8c_a1def9af549819e7fdbda12af8bdc9c0e.html#a1def9af549819e7fdbda12af8bdc9c0e" target="_top" xlink:title="completely destroys an RMAP packet">
<polygon fill="white" stroke="black" points="625,-456.5 625,-475.5 737,-475.5 737,-456.5 625,-456.5"/>
<text text-anchor="middle" x="681" y="-463.5" font-family="Helvetica,sans-Serif" font-size="10.00">rmap_erase_packet</text>
</a>
</g>
</g>
<!-- Node5&#45;&gt;Node7 -->
<g id="edge7" class="edge">
<title>Node5&#45;&gt;Node7</title>
<path fill="none" stroke="midnightblue" d="M544.8,-551.06C559.25,-536.11 588.5,-507.68 618,-490 624.75,-485.95 632.31,-482.36 639.76,-479.26"/>
<polygon fill="midnightblue" stroke="midnightblue" points="641.04,-482.52 649.07,-475.61 638.48,-476 641.04,-482.52"/>
</g>
<!-- Node8 -->
<g id="node8" class="node">
<title>Node8</title>
<g id="a_node8"><a xlink:href="rmap_8c_a5e88a29337404518eceedf9b4af285bf.html#a5e88a29337404518eceedf9b4af285bf" target="_top" xlink:title=" ">
<polygon fill="white" stroke="black" points="633.5,-684.5 633.5,-703.5 728.5,-703.5 728.5,-684.5 633.5,-684.5"/>
<text text-anchor="middle" x="681" y="-691.5" font-family="Helvetica,sans-Serif" font-size="10.00">rmap_parse_pkt</text>
</a>
</g>
</g>
<!-- Node5&#45;&gt;Node8 -->
<g id="edge8" class="edge">
<title>Node5&#45;&gt;Node8</title>
<path fill="none" stroke="midnightblue" d="M545.92,-570.6C561.56,-585.02 592.06,-613.13 618,-637 632.83,-650.65 649.66,-666.12 662.04,-677.5"/>
<polygon fill="midnightblue" stroke="midnightblue" points="659.73,-680.13 669.47,-684.32 664.47,-674.98 659.73,-680.13"/>
</g>
<!-- Node13 -->
<g id="node13" class="node">
<title>Node13</title>
<g id="a_node13"><a xlink:href="rmap_8c_a46d3271304c12df042b57dbebaba67e1.html#a46d3271304c12df042b57dbebaba67e1" target="_top" xlink:title="create an rmap packet from a buffer">
<polygon fill="white" stroke="black" points="618.5,-342.5 618.5,-361.5 743.5,-361.5 743.5,-342.5 618.5,-342.5"/>
<text text-anchor="middle" x="681" y="-349.5" font-family="Helvetica,sans-Serif" font-size="10.00">rmap_pkt_from_buffer</text>
</a>
</g>
</g>
<!-- Node5&#45;&gt;Node13 -->
<g id="edge13" class="edge">
<title>Node5&#45;&gt;Node13</title>
<path fill="none" stroke="midnightblue" d="M536.8,-551.48C541.52,-520.6 560.62,-422.28 618,-371 619.91,-369.29 621.97,-367.74 624.14,-366.33"/>
<polygon fill="midnightblue" stroke="midnightblue" points="625.84,-369.39 632.95,-361.54 622.49,-363.24 625.84,-369.39"/>
</g>
<!-- Node16 -->
<g id="node16" class="node">
<title>Node16</title>
<g id="a_node16"><a xlink:href="rdcu__rmap_8c_acf9b176d8d9b24e9d07711f56aebccc0.html#acf9b176d8d9b24e9d07711f56aebccc0" target="_top" xlink:title="get the local address for a slot">
<polygon fill="white" stroke="black" points="626,-532.5 626,-551.5 736,-551.5 736,-532.5 626,-532.5"/>
<text text-anchor="middle" x="681" y="-539.5" font-family="Helvetica,sans-Serif" font-size="10.00">trans_log_get_addr</text>
</a>
</g>
</g>
<!-- Node5&#45;&gt;Node16 -->
<g id="edge17" class="edge">
<title>Node5&#45;&gt;Node16</title>
<path fill="none" stroke="midnightblue" d="M582.02,-554.88C592.69,-553.48 604.23,-551.96 615.51,-550.48"/>
<polygon fill="midnightblue" stroke="midnightblue" points="616.31,-553.9 625.77,-549.13 615.4,-546.96 616.31,-553.9"/>
</g>
<!-- Node17 -->
<g id="node17" class="node">
<title>Node17</title>
<g id="a_node17"><a xlink:href="rdcu__rmap_8c_a7012f58a1862cf07b00e299d24c199c2.html#a7012f58a1862cf07b00e299d24c199c2" target="_top" xlink:title="release a slot in the transaction log">
<polygon fill="white" stroke="black" points="618,-608.5 618,-627.5 744,-627.5 744,-608.5 618,-608.5"/>
<text text-anchor="middle" x="681" y="-615.5" font-family="Helvetica,sans-Serif" font-size="10.00">trans_log_release_slot</text>
</a>
</g>
</g>
<!-- Node5&#45;&gt;Node17 -->
<g id="edge18" class="edge">
<title>Node5&#45;&gt;Node17</title>
<path fill="none" stroke="midnightblue" d="M554.52,-570.65C571.05,-578.82 595.75,-590.51 618,-599 623.87,-601.24 630.12,-603.4 636.31,-605.42"/>
<polygon fill="midnightblue" stroke="midnightblue" points="635.34,-608.78 645.93,-608.46 637.45,-602.11 635.34,-608.78"/>
</g>
<!-- Node9 -->
<g id="node9" class="node">
<title>Node9</title>
<g id="a_node9"><a xlink:href="rmap_8c_abb4e19c17c7223212c3904bc4c0189d2.html#abb4e19c17c7223212c3904bc4c0189d2" target="_top" xlink:title=" ">
<polygon fill="white" stroke="black" points="795.5,-684.5 795.5,-703.5 906.5,-703.5 906.5,-684.5 795.5,-684.5"/>
<text text-anchor="middle" x="851" y="-691.5" font-family="Helvetica,sans-Serif" font-size="10.00">rmap_check_status</text>
</a>
</g>
</g>
<!-- Node8&#45;&gt;Node9 -->
<g id="edge9" class="edge">
<title>Node8&#45;&gt;Node9</title>
<path fill="none" stroke="midnightblue" d="M728.8,-694C746.33,-694 766.57,-694 785.42,-694"/>
<polygon fill="midnightblue" stroke="midnightblue" points="785.43,-697.5 795.43,-694 785.43,-690.5 785.43,-697.5"/>
</g>
<!-- Node10 -->
<g id="node10" class="node">
<title>Node10</title>
<g id="a_node10"><a xlink:href="rmap_8c_a20aa8b91dfb1bbad819759f97b853054.html#a20aa8b91dfb1bbad819759f97b853054" target="_top" xlink:title=" ">
<polygon fill="white" stroke="black" points="790,-646.5 790,-665.5 912,-665.5 912,-646.5 790,-646.5"/>
<text text-anchor="middle" x="851" y="-653.5" font-family="Helvetica,sans-Serif" font-size="10.00">rmap_parse_cmd_pkt</text>
</a>
</g>
</g>
<!-- Node8&#45;&gt;Node10 -->
<g id="edge10" class="edge">
<title>Node8&#45;&gt;Node10</title>
<path fill="none" stroke="midnightblue" d="M724.39,-684.41C746.76,-679.35 774.4,-673.1 798.05,-667.75"/>
<polygon fill="midnightblue" stroke="midnightblue" points="798.93,-671.14 807.91,-665.52 797.39,-664.31 798.93,-671.14"/>
</g>
<!-- Node11 -->
<g id="node11" class="node">
<title>Node11</title>
<g id="a_node11"><a xlink:href="rmap_8c_adef42426b46ee5ad5176ee76cff35c22.html#adef42426b46ee5ad5176ee76cff35c22" target="_top" xlink:title=" ">
<polygon fill="white" stroke="black" points="788.5,-722.5 788.5,-741.5 913.5,-741.5 913.5,-722.5 788.5,-722.5"/>
<text text-anchor="middle" x="851" y="-729.5" font-family="Helvetica,sans-Serif" font-size="10.00">rmap_parse_reply_pkt</text>
</a>
</g>
</g>
<!-- Node8&#45;&gt;Node11 -->
<g id="edge11" class="edge">
<title>Node8&#45;&gt;Node11</title>
<path fill="none" stroke="midnightblue" d="M724.39,-703.59C746.76,-708.65 774.4,-714.9 798.05,-720.25"/>
<polygon fill="midnightblue" stroke="midnightblue" points="797.39,-723.69 807.91,-722.48 798.93,-716.86 797.39,-723.69"/>
</g>
<!-- Node12 -->
<g id="node12" class="node">
<title>Node12</title>
<g id="a_node12"><a xlink:href="rmap_8c_a2ff278a5e094a9f585865d4d838e0e0e.html#a2ff278a5e094a9f585865d4d838e0e0e" target="_top" xlink:title=" ">
<polygon fill="white" stroke="black" points="958,-722.5 958,-741.5 1100,-741.5 1100,-722.5 958,-722.5"/>
<text text-anchor="middle" x="1029" y="-729.5" font-family="Helvetica,sans-Serif" font-size="10.00">rmap_process_read_reply</text>
</a>
</g>
</g>
<!-- Node11&#45;&gt;Node12 -->
<g id="edge12" class="edge">
<title>Node11&#45;&gt;Node12</title>
<path fill="none" stroke="midnightblue" d="M913.56,-732C924.6,-732 936.25,-732 947.73,-732"/>
<polygon fill="midnightblue" stroke="midnightblue" points="947.74,-735.5 957.74,-732 947.74,-728.5 947.74,-735.5"/>
</g>
<!-- Node13&#45;&gt;Node3 -->
<g id="edge14" class="edge">
<title>Node13&#45;&gt;Node3</title>
<path fill="none" stroke="midnightblue" d="M717.51,-361.57C726.29,-364.3 735.58,-367.49 744,-371 773.06,-383.13 804.64,-400.73 825.7,-413.16"/>
<polygon fill="midnightblue" stroke="midnightblue" points="823.94,-416.18 834.32,-418.3 827.52,-410.17 823.94,-416.18"/>
</g>
<!-- Node14 -->
<g id="node14" class="node">
<title>Node14</title>
<g id="a_node14"><a xlink:href="rmap_8c_aba944cf978de0b264ea5bb3a784bce0f.html#aba944cf978de0b264ea5bb3a784bce0f" target="_top" xlink:title="create an RMAP packet and set defaults">
<polygon fill="white" stroke="black" points="793,-228.5 793,-247.5 909,-247.5 909,-228.5 793,-228.5"/>
<text text-anchor="middle" x="851" y="-235.5" font-family="Helvetica,sans-Serif" font-size="10.00">rmap_create_packet</text>
</a>
</g>
</g>
<!-- Node13&#45;&gt;Node14 -->
<g id="edge15" class="edge">
<title>Node13&#45;&gt;Node14</title>
<path fill="none" stroke="midnightblue" d="M722.42,-342.4C729.83,-339.87 737.33,-336.76 744,-333 781.04,-312.08 816.2,-276.34 835.26,-255.17"/>
<polygon fill="midnightblue" stroke="midnightblue" points="837.96,-257.39 841.96,-247.58 832.72,-252.75 837.96,-257.39"/>
</g>
<!-- Node15 -->
<g id="node15" class="node">
<title>Node15</title>
<g id="a_node15"><a xlink:href="rmap_8c_a0ec3c28e83818f02e00d4c79d82d938a.html#a0ec3c28e83818f02e00d4c79d82d938a" target="_top" xlink:title="get the minimum header size given the RMAP instruction">
<polygon fill="white" stroke="black" points="784.5,-133.5 784.5,-152.5 917.5,-152.5 917.5,-133.5 784.5,-133.5"/>
<text text-anchor="middle" x="851" y="-140.5" font-family="Helvetica,sans-Serif" font-size="10.00">rmap_get_min_hdr_size</text>
</a>
</g>
</g>
<!-- Node13&#45;&gt;Node15 -->
<g id="edge16" class="edge">
<title>Node13&#45;&gt;Node15</title>
<path fill="none" stroke="midnightblue" d="M730.37,-342.44C735.39,-339.98 740.08,-336.88 744,-333 781.73,-295.59 753.36,-264.97 780,-219 793.48,-195.74 815.17,-173.66 830.83,-159.36"/>
<polygon fill="midnightblue" stroke="midnightblue" points="833.26,-161.89 838.4,-152.62 828.6,-156.66 833.26,-161.89"/>
</g>
<!-- Node20 -->
<g id="node20" class="node">
<title>Node20</title>
<g id="a_node20"><a xlink:href="rdcu__cmd_8c_a690d79ff983a96fdd40db6396e9c70e9.html#a690d79ff983a96fdd40db6396e9c70e9" target="_top" xlink:title="generate a write command for an arbitrary register (internal)">
<polygon fill="white" stroke="black" points="314,-353 314,-383 451,-383 451,-353 314,-353"/>
<text text-anchor="start" x="322" y="-371" font-family="Helvetica,sans-Serif" font-size="10.00">rdcu_write_cmd_register</text>
<text text-anchor="middle" x="382.5" y="-360" font-family="Helvetica,sans-Serif" font-size="10.00">_internal</text>
</a>
</g>
</g>
<!-- Node19&#45;&gt;Node20 -->
<g id="edge21" class="edge">
<title>Node19&#45;&gt;Node20</title>
<path fill="none" stroke="midnightblue" d="M230.95,-558.85C259.06,-523.21 329.55,-433.86 363.14,-391.27"/>
<polygon fill="midnightblue" stroke="midnightblue" points="366.09,-393.19 369.53,-383.17 360.59,-388.85 366.09,-393.19"/>
</g>
<!-- Node21 -->
<g id="node21" class="node">
<title>Node21</title>
<g id="a_node21"><a xlink:href="rdcu__rmap_8c_ab224927e85a7cec5b6f90292c7de36c4.html#ab224927e85a7cec5b6f90292c7de36c4" target="_top" xlink:title="generate an rmap command packet">
<polygon fill="white" stroke="black" points="491,-228.5 491,-247.5 578,-247.5 578,-228.5 491,-228.5"/>
<text text-anchor="middle" x="534.5" y="-235.5" font-family="Helvetica,sans-Serif" font-size="10.00">rdcu_gen_cmd</text>
</a>
</g>
</g>
<!-- Node20&#45;&gt;Node21 -->
<g id="edge22" class="edge">
<title>Node20&#45;&gt;Node21</title>
<path fill="none" stroke="midnightblue" d="M401,-352.83C429.42,-328.21 485.36,-279.72 514.63,-254.35"/>
<polygon fill="midnightblue" stroke="midnightblue" points="517.2,-256.76 522.47,-247.56 512.62,-251.47 517.2,-256.76"/>
</g>
<!-- Node21&#45;&gt;Node7 -->
<g id="edge26" class="edge">
<title>Node21&#45;&gt;Node7</title>
<path fill="none" stroke="midnightblue" d="M536.38,-247.52C539.93,-280.34 556.12,-389.81 618,-447 619.71,-448.58 621.55,-450.03 623.49,-451.37"/>
<polygon fill="midnightblue" stroke="midnightblue" points="622.08,-454.59 632.51,-456.46 625.53,-448.49 622.08,-454.59"/>
</g>
<!-- Node21&#45;&gt;Node14 -->
<g id="edge25" class="edge">
<title>Node21&#45;&gt;Node14</title>
<path fill="none" stroke="midnightblue" d="M540.23,-228.34C550.82,-207.96 578.65,-160.95 618,-143 668.95,-119.76 691.7,-122.99 744,-143 784.34,-158.43 819.01,-197.08 836.95,-220.05"/>
<polygon fill="midnightblue" stroke="midnightblue" points="834.35,-222.42 843.18,-228.27 839.93,-218.19 834.35,-222.42"/>
</g>
<!-- Node22 -->
<g id="node22" class="node">
<title>Node22</title>
<g id="a_node22"><a xlink:href="rmap_8c_aa17375d153cc3473cbbe4dfe1056c527.html#aa17375d153cc3473cbbe4dfe1056c527" target="_top" xlink:title="build an rmap header">
<polygon fill="white" stroke="black" points="635,-76.5 635,-95.5 727,-95.5 727,-76.5 635,-76.5"/>
<text text-anchor="middle" x="681" y="-83.5" font-family="Helvetica,sans-Serif" font-size="10.00">rmap_build_hdr</text>
</a>
</g>
</g>
<!-- Node21&#45;&gt;Node22 -->
<g id="edge23" class="edge">
<title>Node21&#45;&gt;Node22</title>
<path fill="none" stroke="midnightblue" d="M539.29,-228.17C548.9,-204.53 576.4,-143.91 618,-110 622.99,-105.93 628.75,-102.5 634.71,-99.61"/>
<polygon fill="midnightblue" stroke="midnightblue" points="636.36,-102.71 644.15,-95.52 633.58,-96.29 636.36,-102.71"/>
</g>
<!-- Node23 -->
<g id="node23" class="node">
<title>Node23</title>
<g id="a_node23"><a xlink:href="rmap_8c_aab7e23f061291d39568ad2df700bc777.html#aab7e23f061291d39568ad2df700bc777" target="_top" xlink:title="set an RMAP command">
<polygon fill="white" stroke="black" points="636.5,-38.5 636.5,-57.5 725.5,-57.5 725.5,-38.5 636.5,-38.5"/>
<text text-anchor="middle" x="681" y="-45.5" font-family="Helvetica,sans-Serif" font-size="10.00">rmap_set_cmd</text>
</a>
</g>
</g>
<!-- Node21&#45;&gt;Node23 -->
<g id="edge27" class="edge">
<title>Node21&#45;&gt;Node23</title>
<path fill="none" stroke="midnightblue" d="M537.36,-228.21C543.4,-199.09 565.23,-112.3 618,-67 620.81,-64.58 623.93,-62.48 627.22,-60.64"/>
<polygon fill="midnightblue" stroke="midnightblue" points="628.72,-63.8 636.27,-56.36 625.74,-57.47 628.72,-63.8"/>
</g>
<!-- Node25 -->
<g id="node25" class="node">
<title>Node25</title>
<g id="a_node25"><a xlink:href="rmap_8c_acf641aae92829ae864b6c3d8f94d86e2.html#acf641aae92829ae864b6c3d8f94d86e2" target="_top" xlink:title="set a data address">
<polygon fill="white" stroke="black" points="623,-228.5 623,-247.5 739,-247.5 739,-228.5 623,-228.5"/>
<text text-anchor="middle" x="681" y="-235.5" font-family="Helvetica,sans-Serif" font-size="10.00">rmap_set_data_addr</text>
</a>
</g>
</g>
<!-- Node21&#45;&gt;Node25 -->
<g id="edge29" class="edge">
<title>Node21&#45;&gt;Node25</title>
<path fill="none" stroke="midnightblue" d="M578.07,-238C588.95,-238 600.92,-238 612.72,-238"/>
<polygon fill="midnightblue" stroke="midnightblue" points="613,-241.5 623,-238 613,-234.5 613,-241.5"/>
</g>
<!-- Node26 -->
<g id="node26" class="node">
<title>Node26</title>
<g id="a_node26"><a xlink:href="rmap_8c_a6833f065640f652aa1a929309e592f7a.html#a6833f065640f652aa1a929309e592f7a" target="_top" xlink:title="set an RMAP command">
<polygon fill="white" stroke="black" points="626,-190.5 626,-209.5 736,-209.5 736,-190.5 626,-190.5"/>
<text text-anchor="middle" x="681" y="-197.5" font-family="Helvetica,sans-Serif" font-size="10.00">rmap_set_data_len</text>
</a>
</g>
</g>
<!-- Node21&#45;&gt;Node26 -->
<g id="edge30" class="edge">
<title>Node21&#45;&gt;Node26</title>
<path fill="none" stroke="midnightblue" d="M571.96,-228.41C590.77,-223.46 613.91,-217.38 633.95,-212.11"/>
<polygon fill="midnightblue" stroke="midnightblue" points="635.02,-215.45 643.8,-209.52 633.24,-208.68 635.02,-215.45"/>
</g>
<!-- Node27 -->
<g id="node27" class="node">
<title>Node27</title>
<g id="a_node27"><a xlink:href="rmap_8c_a5f0081b9928da5e50fc8b231b57f3a80.html#a5f0081b9928da5e50fc8b231b57f3a80" target="_top" xlink:title="set the destination address path">
<polygon fill="white" stroke="black" points="623,-418.5 623,-437.5 739,-437.5 739,-418.5 623,-418.5"/>
<text text-anchor="middle" x="681" y="-425.5" font-family="Helvetica,sans-Serif" font-size="10.00">rmap_set_dest_path</text>
</a>
</g>
</g>
<!-- Node21&#45;&gt;Node27 -->
<g id="edge31" class="edge">
<title>Node21&#45;&gt;Node27</title>
<path fill="none" stroke="midnightblue" d="M537.36,-247.79C543.4,-276.91 565.23,-363.7 618,-409 619.98,-410.7 622.11,-412.25 624.35,-413.66"/>
<polygon fill="midnightblue" stroke="midnightblue" points="622.93,-416.87 633.41,-418.44 626.2,-410.68 622.93,-416.87"/>
</g>
<!-- Node28 -->
<g id="node28" class="node">
<title>Node28</title>
<g id="a_node28"><a xlink:href="rmap_8c_a2da8e7b48411d382b54848795f85795d.html#a2da8e7b48411d382b54848795f85795d" target="_top" xlink:title="set the destination (target) logical address">
<polygon fill="white" stroke="black" points="639.5,-152.5 639.5,-171.5 722.5,-171.5 722.5,-152.5 639.5,-152.5"/>
<text text-anchor="middle" x="681" y="-159.5" font-family="Helvetica,sans-Serif" font-size="10.00">rmap_set_dst</text>
</a>
</g>
</g>
<!-- Node21&#45;&gt;Node28 -->
<g id="edge33" class="edge">
<title>Node21&#45;&gt;Node28</title>
<path fill="none" stroke="midnightblue" d="M546.82,-228.48C562.1,-216.04 590.58,-194.28 618,-181 622.63,-178.76 627.58,-176.71 632.6,-174.86"/>
<polygon fill="midnightblue" stroke="midnightblue" points="633.92,-178.1 642.24,-171.54 631.65,-171.48 633.92,-178.1"/>
</g>
<!-- Node29 -->
<g id="node29" class="node">
<title>Node29</title>
<g id="a_node29"><a xlink:href="rmap_8c_a15021c9dfccddc44786dfd37834bcd7e.html#a15021c9dfccddc44786dfd37834bcd7e" target="_top" xlink:title="set the command authorisation key">
<polygon fill="white" stroke="black" points="638.5,-0.5 638.5,-19.5 723.5,-19.5 723.5,-0.5 638.5,-0.5"/>
<text text-anchor="middle" x="681" y="-7.5" font-family="Helvetica,sans-Serif" font-size="10.00">rmap_set_key</text>
</a>
</g>
</g>
<!-- Node21&#45;&gt;Node29 -->
<g id="edge34" class="edge">
<title>Node21&#45;&gt;Node29</title>
<path fill="none" stroke="midnightblue" d="M536.38,-228.48C539.93,-195.66 556.12,-86.19 618,-29 621.21,-26.03 624.87,-23.53 628.77,-21.42"/>
<polygon fill="midnightblue" stroke="midnightblue" points="630.54,-24.46 638.22,-17.16 627.66,-18.08 630.54,-24.46"/>
</g>
<!-- Node30 -->
<g id="node30" class="node">
<title>Node30</title>
<g id="a_node30"><a xlink:href="rmap_8c_a56c47830e67d01e469231e5e7e1d3a34.html#a56c47830e67d01e469231e5e7e1d3a34" target="_top" xlink:title="set the reply address path">
<polygon fill="white" stroke="black" points="621.5,-380.5 621.5,-399.5 740.5,-399.5 740.5,-380.5 621.5,-380.5"/>
<text text-anchor="middle" x="681" y="-387.5" font-family="Helvetica,sans-Serif" font-size="10.00">rmap_set_reply_path</text>
</a>
</g>
</g>
<!-- Node21&#45;&gt;Node30 -->
<g id="edge35" class="edge">
<title>Node21&#45;&gt;Node30</title>
<path fill="none" stroke="midnightblue" d="M538.76,-247.68C547.52,-272.17 573.88,-337 618,-371 620.34,-372.8 622.85,-374.44 625.48,-375.92"/>
<polygon fill="midnightblue" stroke="midnightblue" points="624.22,-379.19 634.75,-380.38 627.25,-372.89 624.22,-379.19"/>
</g>
<!-- Node31 -->
<g id="node31" class="node">
<title>Node31</title>
<g id="a_node31"><a xlink:href="rmap_8c_adae0030440ca4e7ad34622e505acbb2c.html#adae0030440ca4e7ad34622e505acbb2c" target="_top" xlink:title="set the source (initiator) logical address">
<polygon fill="white" stroke="black" points="640,-304.5 640,-323.5 722,-323.5 722,-304.5 640,-304.5"/>
<text text-anchor="middle" x="681" y="-311.5" font-family="Helvetica,sans-Serif" font-size="10.00">rmap_set_src</text>
</a>
</g>
</g>
<!-- Node21&#45;&gt;Node31 -->
<g id="edge37" class="edge">
<title>Node21&#45;&gt;Node31</title>
<path fill="none" stroke="midnightblue" d="M546.82,-247.52C562.1,-259.96 590.58,-281.72 618,-295 622.63,-297.24 627.58,-299.29 632.6,-301.14"/>
<polygon fill="midnightblue" stroke="midnightblue" points="631.65,-304.52 642.24,-304.46 633.92,-297.9 631.65,-304.52"/>
</g>
<!-- Node32 -->
<g id="node32" class="node">
<title>Node32</title>
<g id="a_node32"><a xlink:href="rmap_8c_a7b4c31714493ce6cc19d4aa825ab50aa.html#a7b4c31714493ce6cc19d4aa825ab50aa" target="_top" xlink:title="set an RMAP transaction identifier">
<polygon fill="white" stroke="black" points="636.5,-266.5 636.5,-285.5 725.5,-285.5 725.5,-266.5 636.5,-266.5"/>
<text text-anchor="middle" x="681" y="-273.5" font-family="Helvetica,sans-Serif" font-size="10.00">rmap_set_tr_id</text>
</a>
</g>
</g>
<!-- Node21&#45;&gt;Node32 -->
<g id="edge38" class="edge">
<title>Node21&#45;&gt;Node32</title>
<path fill="none" stroke="midnightblue" d="M571.96,-247.59C590.77,-252.54 613.91,-258.62 633.95,-263.89"/>
<polygon fill="midnightblue" stroke="midnightblue" points="633.24,-267.32 643.8,-266.48 635.02,-260.55 633.24,-267.32"/>
</g>
<!-- Node22&#45;&gt;Node15 -->
<g id="edge24" class="edge">
<title>Node22&#45;&gt;Node15</title>
<path fill="none" stroke="midnightblue" d="M710.12,-95.54C738.1,-105.03 781.23,-119.67 812.2,-130.17"/>
<polygon fill="midnightblue" stroke="midnightblue" points="811.19,-133.53 821.79,-133.43 813.44,-126.9 811.19,-133.53"/>
</g>
<!-- Node24 -->
<g id="node24" class="node">
<title>Node24</title>
<g id="a_node24"><a xlink:href="rmap_8c_a667ce871110961f2a611d0244791e20f.html#a667ce871110961f2a611d0244791e20f" target="_top" xlink:title="valiidates a command code">
<polygon fill="white" stroke="black" points="780,-38.5 780,-57.5 922,-57.5 922,-38.5 780,-38.5"/>
<text text-anchor="middle" x="851" y="-45.5" font-family="Helvetica,sans-Serif" font-size="10.00">rmap_validate_cmd_code</text>
</a>
</g>
</g>
<!-- Node23&#45;&gt;Node24 -->
<g id="edge28" class="edge">
<title>Node23&#45;&gt;Node24</title>
<path fill="none" stroke="midnightblue" d="M725.7,-48C739.13,-48 754.36,-48 769.44,-48"/>
<polygon fill="midnightblue" stroke="midnightblue" points="769.83,-51.5 779.83,-48 769.83,-44.5 769.83,-51.5"/>
</g>
<!-- Node27&#45;&gt;Node3 -->
<g id="edge32" class="edge">
<title>Node27&#45;&gt;Node3</title>
<path fill="none" stroke="midnightblue" d="M739.35,-428C764.67,-428 793.6,-428 815.52,-428"/>
<polygon fill="midnightblue" stroke="midnightblue" points="815.68,-431.5 825.68,-428 815.68,-424.5 815.68,-431.5"/>
</g>
<!-- Node30&#45;&gt;Node3 -->
<g id="edge36" class="edge">
<title>Node30&#45;&gt;Node3</title>
<path fill="none" stroke="midnightblue" d="M724.39,-399.59C752.71,-405.99 789.47,-414.31 815.9,-420.29"/>
<polygon fill="midnightblue" stroke="midnightblue" points="815.3,-423.74 825.83,-422.53 816.85,-416.91 815.3,-423.74"/>
</g>
</g>
</svg>
        <g id="navigator" transform="translate(0 0)" fill="#404254">
                <rect fill="#f2f5e9" fill-opacity="0.5" stroke="#606060" stroke-width=".5" x="0" y="0" width="60" height="60"/>
                <use id="zoomplus" xlink:href="#zoomPlus" x="17" y="9" onmousedown="handleZoom(evt,'in')"/>
                <use id="zoomminus" xlink:href="#zoomMin" x="42" y="9" onmousedown="handleZoom(evt,'out')"/>
                <use id="reset" xlink:href="#resetDef" x="30" y="36" onmousedown="handleReset()"/>
                <g id="arrowUp" xlink:href="#dirArrow" transform="translate(30 24)" onmousedown="handlePan(0,-1)">
                  <use xlink:href="#rim" fill="#404040">
                        <set attributeName="fill" to="#808080" begin="arrowUp.mouseover" end="arrowUp.mouseout"/>
                  </use>
                  <path fill="none" stroke="white" stroke-width="1.5" d="M0,-3.0v7 M-2.5,-0.5L0,-3.0L2.5,-0.5"/>
                </g>
                <g id="arrowRight" xlink:href="#dirArrow" transform="rotate(90) translate(36 -43)" onmousedown="handlePan(1,0)">
                  <use xlink:href="#rim" fill="#404040">
                        <set attributeName="fill" to="#808080" begin="arrowRight.mouseover" end="arrowRight.mouseout"/>
                  </use>
                  <path fill="none" stroke="white" stroke-width="1.5" d="M0,-3.0v7 M-2.5,-0.5L0,-3.0L2.5,-0.5"/>
                </g>
                <g id="arrowDown" xlink:href="#dirArrow" transform="rotate(180) translate(-30 -48)" onmousedown="handlePan(0,1)">
                  <use xlink:href="#rim" fill="#404040">
                        <set attributeName="fill" to="#808080" begin="arrowDown.mouseover" end="arrowDown.mouseout"/>
                  </use>
                  <path fill="none" stroke="white" stroke-width="1.5" d="M0,-3.0v7 M-2.5,-0.5L0,-3.0L2.5,-0.5"/>
                </g>
                <g id="arrowLeft" xlink:href="#dirArrow" transform="rotate(270) translate(-36 17)" onmousedown="handlePan(-1,0)">
                  <use xlink:href="#rim" fill="#404040">
                        <set attributeName="fill" to="#808080" begin="arrowLeft.mouseover" end="arrowLeft.mouseout"/>
                  </use>
                  <path fill="none" stroke="white" stroke-width="1.5" d="M0,-3.0v7 M-2.5,-0.5L0,-3.0L2.5,-0.5"/>
                </g>
        </g>
        <svg viewBox="0 0 15 15" width="100%" height="30px" preserveAspectRatio="xMaxYMin meet">
         <g id="arrow_out" transform="scale(0.3 0.3)">
          <a xlink:href="rdcu__ctrl_8c_a9660d6f7e4887405295af590f0dca6ac_a9660d6f7e4887405295af590f0dca6ac_cgraph_org.svg" target="_base">
           <rect id="button" ry="5" rx="5" y="6" x="6" height="38" width="38"
                fill="#f2f5e9" fill-opacity="0.5" stroke="#606060" stroke-width="1.0"/>
           <path id="arrow"
             d="M 11.500037,31.436501 C 11.940474,20.09759 22.043105,11.32322 32.158766,21.979434 L 37.068811,17.246167 C 37.068811,17.246167 37.088388,32 37.088388,32 L 22.160133,31.978069 C 22.160133,31.978069 26.997745,27.140456 26.997745,27.140456 C 18.528582,18.264221 13.291696,25.230495 11.500037,31.436501 z"
             style="fill:#404040;"/>
          </a>
         </g>
        </svg>
</svg>
