<?xml version="1.0" encoding="UTF-8" standalone="no"?>
<!DOCTYPE svg PUBLIC "-//W3C//DTD SVG 1.1//EN"
 "http://www.w3.org/Graphics/SVG/1.1/DTD/svg11.dtd">
<!-- Generated by graphviz version 2.43.0 (0)
 -->
<!-- Title: rdcu_write_sram_16 Pages: 1 -->
<svg width="586pt" height="91pt"
 viewBox="0.00 0.00 586.00 90.50" xmlns="http://www.w3.org/2000/svg" xmlns:xlink="http://www.w3.org/1999/xlink">
<g id="graph0" class="graph" transform="scale(1 1) rotate(0) translate(4 86.5)">
<title>rdcu_write_sram_16</title>
<polygon fill="white" stroke="transparent" points="-4,4 -4,-86.5 582,-86.5 582,4 -4,4"/>
<!-- Node1 -->
<g id="node1" class="node">
<title>Node1</title>
<g id="a_node1"><a xlink:title="write uint16_t formatted data to the local SRAM mirror. This function is endian&#45;safe.">
<polygon fill="#bfbfbf" stroke="black" points="463,-57.5 463,-76.5 578,-76.5 578,-57.5 463,-57.5"/>
<text text-anchor="middle" x="520.5" y="-64.5" font-family="Helvetica,sans-Serif" font-size="10.00">rdcu_write_sram_16</text>
</a>
</g>
</g>
<!-- Node2 -->
<g id="node2" class="node">
<title>Node2</title>
<g id="a_node2"><a xlink:href="cmp__rdcu_8c_ab69cf44ac326e0cebdef002e8f2ea2cb.html#ab69cf44ac326e0cebdef002e8f2ea2cb" target="_top" xlink:title="compressing data with the help of the RDCU hardware compressor; read data from the last compression b...">
<polygon fill="white" stroke="black" points="0,-52 0,-82 117,-82 117,-52 0,-52"/>
<text text-anchor="start" x="8" y="-70" font-family="Helvetica,sans-Serif" font-size="10.00">rdcu_compress_data</text>
<text text-anchor="middle" x="58.5" y="-59" font-family="Helvetica,sans-Serif" font-size="10.00">_parallel</text>
</a>
</g>
</g>
<!-- Node1&#45;&gt;Node2 -->
<g id="edge1" class="edge">
<title>Node1&#45;&gt;Node2</title>
<path fill="none" stroke="midnightblue" d="M452.5,-67C362.14,-67 202.71,-67 117.32,-67"/>
<polygon fill="midnightblue" stroke="midnightblue" points="452.63,-70.5 462.63,-67 452.63,-63.5 452.63,-70.5"/>
</g>
<!-- Node3 -->
<g id="node3" class="node">
<title>Node3</title>
<g id="a_node3"><a xlink:href="cmp__rdcu_8c_aa257971c693045ef23e6c79879b32473.html#aa257971c693045ef23e6c79879b32473" target="_top" xlink:title="set up RDCU SRAM for compression">
<polygon fill="white" stroke="black" points="316,-38.5 316,-57.5 427,-57.5 427,-38.5 316,-38.5"/>
<text text-anchor="middle" x="371.5" y="-45.5" font-family="Helvetica,sans-Serif" font-size="10.00">rdcu_transfer_sram</text>
</a>
</g>
</g>
<!-- Node1&#45;&gt;Node3 -->
<g id="edge2" class="edge">
<title>Node1&#45;&gt;Node3</title>
<path fill="none" stroke="midnightblue" d="M452.74,-58.37C444.21,-57.27 435.56,-56.15 427.25,-55.08"/>
<polygon fill="midnightblue" stroke="midnightblue" points="452.3,-61.84 462.67,-59.65 453.2,-54.9 452.3,-61.84"/>
</g>
<!-- Node4 -->
<g id="node4" class="node">
<title>Node4</title>
<g id="a_node4"><a xlink:href="cmp__rdcu_8h_a85aeb890a333d637dd7ffba03729e93a.html#a85aeb890a333d637dd7ffba03729e93a" target="_top" xlink:title="compressing data with the help of the RDCU hardware compressor">
<polygon fill="white" stroke="black" points="158,-38.5 158,-57.5 275,-57.5 275,-38.5 158,-38.5"/>
<text text-anchor="middle" x="216.5" y="-45.5" font-family="Helvetica,sans-Serif" font-size="10.00">rdcu_compress_data</text>
</a>
</g>
</g>
<!-- Node3&#45;&gt;Node4 -->
<g id="edge3" class="edge">
<title>Node3&#45;&gt;Node4</title>
<path fill="none" stroke="midnightblue" d="M305.64,-48C295.47,-48 285.01,-48 275.02,-48"/>
<polygon fill="midnightblue" stroke="midnightblue" points="305.7,-51.5 315.7,-48 305.7,-44.5 305.7,-51.5"/>
</g>
<!-- Node5 -->
<g id="node5" class="node">
<title>Node5</title>
<g id="a_node5"><a xlink:href="cmp__rdcu_8c_af59f75c76a057d49a54b54800dc59556.html#af59f75c76a057d49a54b54800dc59556" target="_top" xlink:title="inject a SRAM edac multi bit error into the RDCU SRAM">
<polygon fill="white" stroke="black" points="153,-0.5 153,-19.5 280,-19.5 280,-0.5 153,-0.5"/>
<text text-anchor="middle" x="216.5" y="-7.5" font-family="Helvetica,sans-Serif" font-size="10.00">rdcu_inject_edac_error</text>
</a>
</g>
</g>
<!-- Node3&#45;&gt;Node5 -->
<g id="edge5" class="edge">
<title>Node3&#45;&gt;Node5</title>
<path fill="none" stroke="midnightblue" d="M322.02,-35.96C300.65,-30.65 275.89,-24.5 255.83,-19.52"/>
<polygon fill="midnightblue" stroke="midnightblue" points="321.34,-39.4 331.89,-38.41 323.03,-32.6 321.34,-39.4"/>
</g>
<!-- Node4&#45;&gt;Node2 -->
<g id="edge4" class="edge">
<title>Node4&#45;&gt;Node2</title>
<path fill="none" stroke="midnightblue" d="M147.76,-56.25C137.57,-57.49 127.13,-58.76 117.17,-59.98"/>
<polygon fill="midnightblue" stroke="midnightblue" points="148.35,-59.7 157.85,-55.02 147.5,-52.76 148.35,-59.7"/>
</g>
</g>
</svg>
