<?xml version="1.0" encoding="UTF-8" standalone="no"?>
<!DOCTYPE svg PUBLIC "-//W3C//DTD SVG 1.1//EN"
 "http://www.w3.org/Graphics/SVG/1.1/DTD/svg11.dtd">
<!-- Generated by graphviz version 2.43.0 (0)
 -->
<!-- Title: rdcu_bit_to_byte Pages: 1 -->
<svg width="270pt" height="137pt"
 viewBox="0.00 0.00 270.00 137.00" xmlns="http://www.w3.org/2000/svg" xmlns:xlink="http://www.w3.org/1999/xlink">
<g id="graph0" class="graph" transform="scale(1 1) rotate(0) translate(4 133)">
<title>rdcu_bit_to_byte</title>
<polygon fill="white" stroke="transparent" points="-4,4 -4,-133 266,-133 266,4 -4,4"/>
<!-- Node1 -->
<g id="node1" class="node">
<title>Node1</title>
<g id="a_node1"><a xlink:title="get the need bytes for the given bits">
<polygon fill="#bfbfbf" stroke="black" points="164,-55 164,-74 262,-74 262,-55 164,-55"/>
<text text-anchor="middle" x="213" y="-62" font-family="Helvetica,sans-Serif" font-size="10.00">rdcu_bit_to_byte</text>
</a>
</g>
</g>
<!-- Node2 -->
<g id="node2" class="node">
<title>Node2</title>
<g id="a_node2"><a xlink:href="rdcu__ctrl_8c_ad11bde1425421bd9521ebf4dcdf2adaa.html#ad11bde1425421bd9521ebf4dcdf2adaa" target="_top" xlink:title="get compressed data adaptive 1 size in bytes">
<polygon fill="white" stroke="black" points="0,-98.5 0,-128.5 128,-128.5 128,-98.5 0,-98.5"/>
<text text-anchor="start" x="8" y="-116.5" font-family="Helvetica,sans-Serif" font-size="10.00">rdcu_get_compr_data</text>
<text text-anchor="middle" x="64" y="-105.5" font-family="Helvetica,sans-Serif" font-size="10.00">_adaptive_1_size_byte</text>
</a>
</g>
</g>
<!-- Node1&#45;&gt;Node2 -->
<g id="edge1" class="edge">
<title>Node1&#45;&gt;Node2</title>
<path fill="none" stroke="midnightblue" d="M173.57,-77.31C154.13,-83.79 130.41,-91.7 110.11,-98.46"/>
<polygon fill="midnightblue" stroke="midnightblue" points="174.93,-80.55 183.31,-74.06 172.71,-73.91 174.93,-80.55"/>
</g>
<!-- Node3 -->
<g id="node3" class="node">
<title>Node3</title>
<g id="a_node3"><a xlink:href="rdcu__ctrl_8c_a2afeb796923de22a636404c0e19a07a1.html#a2afeb796923de22a636404c0e19a07a1" target="_top" xlink:title="get compressed data adaptive 2 size in bytes">
<polygon fill="white" stroke="black" points="0,-49.5 0,-79.5 128,-79.5 128,-49.5 0,-49.5"/>
<text text-anchor="start" x="8" y="-67.5" font-family="Helvetica,sans-Serif" font-size="10.00">rdcu_get_compr_data</text>
<text text-anchor="middle" x="64" y="-56.5" font-family="Helvetica,sans-Serif" font-size="10.00">_adaptive_2_size_byte</text>
</a>
</g>
</g>
<!-- Node1&#45;&gt;Node3 -->
<g id="edge2" class="edge">
<title>Node1&#45;&gt;Node3</title>
<path fill="none" stroke="midnightblue" d="M153.79,-64.5C145.39,-64.5 136.71,-64.5 128.22,-64.5"/>
<polygon fill="midnightblue" stroke="midnightblue" points="153.87,-68 163.87,-64.5 153.87,-61 153.87,-68"/>
</g>
<!-- Node4 -->
<g id="node4" class="node">
<title>Node4</title>
<g id="a_node4"><a xlink:href="rdcu__ctrl_8c_a4a3946c95d251569c864133b8756ef28.html#a4a3946c95d251569c864133b8756ef28" target="_top" xlink:title="get compressed data size in bytes">
<polygon fill="white" stroke="black" points="3,-0.5 3,-30.5 125,-30.5 125,-0.5 3,-0.5"/>
<text text-anchor="start" x="11" y="-18.5" font-family="Helvetica,sans-Serif" font-size="10.00">rdcu_get_compr_data</text>
<text text-anchor="middle" x="64" y="-7.5" font-family="Helvetica,sans-Serif" font-size="10.00">_size_byte</text>
</a>
</g>
</g>
<!-- Node1&#45;&gt;Node4 -->
<g id="edge3" class="edge">
<title>Node1&#45;&gt;Node4</title>
<path fill="none" stroke="midnightblue" d="M173.57,-51.69C154.13,-45.21 130.41,-37.3 110.11,-30.54"/>
<polygon fill="midnightblue" stroke="midnightblue" points="172.71,-55.09 183.31,-54.94 174.93,-48.45 172.71,-55.09"/>
</g>
</g>
</svg>
