<?xml version="1.0" encoding="UTF-8" standalone="no"?>
<!DOCTYPE svg PUBLIC "-//W3C//DTD SVG 1.1//EN"
 "http://www.w3.org/Graphics/SVG/1.1/DTD/svg11.dtd">
<!-- Generated by graphviz version 2.43.0 (0)
 -->
<!-- Title: rdcu_sync_core_ctrl Pages: 1 -->
<svg width="1120pt" height="750pt"
 viewBox="0.00 0.00 1120.00 750.00" xmlns="http://www.w3.org/2000/svg" xmlns:xlink="http://www.w3.org/1999/xlink">
<g id="graph0" class="graph" transform="scale(1 1) rotate(0) translate(4 746)">
<title>rdcu_sync_core_ctrl</title>
<polygon fill="white" stroke="transparent" points="-4,4 -4,-746 1116,-746 1116,4 -4,4"/>
<!-- Node1 -->
<g id="node1" class="node">
<title>Node1</title>
<g id="a_node1"><a xlink:title="sync the Core Control register (write only)">
<polygon fill="#bfbfbf" stroke="black" points="0,-586.5 0,-605.5 113,-605.5 113,-586.5 0,-586.5"/>
<text text-anchor="middle" x="56.5" y="-593.5" font-family="Helvetica,sans-Serif" font-size="10.00">rdcu_sync_core_ctrl</text>
</a>
</g>
</g>
<!-- Node2 -->
<g id="node2" class="node">
<title>Node2</title>
<g id="a_node2"><a xlink:href="rdcu__rmap_8c_a533d1eb248d83ba3d406cefe7f3c9eb9.html#a533d1eb248d83ba3d406cefe7f3c9eb9" target="_top" xlink:title="submit a sync command">
<polygon fill="white" stroke="black" points="187,-608.5 187,-627.5 252,-627.5 252,-608.5 187,-608.5"/>
<text text-anchor="middle" x="219.5" y="-615.5" font-family="Helvetica,sans-Serif" font-size="10.00">rdcu_sync</text>
</a>
</g>
</g>
<!-- Node1&#45;&gt;Node2 -->
<g id="edge1" class="edge">
<title>Node1&#45;&gt;Node2</title>
<path fill="none" stroke="midnightblue" d="M113.36,-603.63C134.14,-606.47 157.36,-609.64 176.67,-612.28"/>
<polygon fill="midnightblue" stroke="midnightblue" points="176.29,-615.76 186.67,-613.65 177.24,-608.83 176.29,-615.76"/>
</g>
<!-- Node19 -->
<g id="node19" class="node">
<title>Node19</title>
<g id="a_node19"><a xlink:href="rdcu__cmd_8c_a80517218458f16f59ee8eea57f339978.html#a80517218458f16f59ee8eea57f339978" target="_top" xlink:title="create a command to write the RDCU core control register">
<polygon fill="white" stroke="black" points="149,-567.5 149,-586.5 290,-586.5 290,-567.5 149,-567.5"/>
<text text-anchor="middle" x="219.5" y="-574.5" font-family="Helvetica,sans-Serif" font-size="10.00">rdcu_write_cmd_core_ctrl</text>
</a>
</g>
</g>
<!-- Node1&#45;&gt;Node19 -->
<g id="edge20" class="edge">
<title>Node1&#45;&gt;Node19</title>
<path fill="none" stroke="midnightblue" d="M113.36,-589.41C121.58,-588.44 130.19,-587.42 138.78,-586.41"/>
<polygon fill="midnightblue" stroke="midnightblue" points="139.32,-589.87 148.84,-585.22 138.5,-582.92 139.32,-589.87"/>
</g>
<!-- Node3 -->
<g id="node3" class="node">
<title>Node3</title>
<g id="a_node3"><a xlink:href="test__cmp__max__used__bits__list_8c_a7ac38fce3243a7dcf448301ee9ffd392.html#a7ac38fce3243a7dcf448301ee9ffd392" target="_top" xlink:title=" ">
<polygon fill="white" stroke="black" points="838,-418.5 838,-437.5 888,-437.5 888,-418.5 838,-418.5"/>
<text text-anchor="middle" x="863" y="-425.5" font-family="Helvetica,sans-Serif" font-size="10.00">malloc</text>
</a>
</g>
</g>
<!-- Node2&#45;&gt;Node3 -->
<g id="edge2" class="edge">
<title>Node2&#45;&gt;Node3</title>
<path fill="none" stroke="midnightblue" d="M252.16,-623.57C353.96,-640.81 671.18,-689.09 756,-637 825.21,-594.5 850.94,-491.2 858.91,-447.76"/>
<polygon fill="midnightblue" stroke="midnightblue" points="862.37,-448.3 860.61,-437.86 855.47,-447.12 862.37,-448.3"/>
</g>
<!-- Node4 -->
<g id="node4" class="node">
<title>Node4</title>
<g id="a_node4"><a xlink:href="rdcu__rmap_8c_a95fad3cd9b6bbe562e1a73e3f1c108a8.html#a95fad3cd9b6bbe562e1a73e3f1c108a8" target="_top" xlink:title="submit an rmap command transaction">
<polygon fill="white" stroke="black" points="348.5,-570.5 348.5,-589.5 440.5,-589.5 440.5,-570.5 348.5,-570.5"/>
<text text-anchor="middle" x="394.5" y="-577.5" font-family="Helvetica,sans-Serif" font-size="10.00">rdcu_submit_tx</text>
</a>
</g>
</g>
<!-- Node2&#45;&gt;Node4 -->
<g id="edge3" class="edge">
<title>Node2&#45;&gt;Node4</title>
<path fill="none" stroke="midnightblue" d="M252.23,-611.03C276.84,-605.63 311.49,-598.01 340.32,-591.68"/>
<polygon fill="midnightblue" stroke="midnightblue" points="341.23,-595.07 350.24,-589.5 339.72,-588.23 341.23,-595.07"/>
</g>
<!-- Node18 -->
<g id="node18" class="node">
<title>Node18</title>
<g id="a_node18"><a xlink:href="rdcu__rmap_8c_a36f44335aa66dd49fb4903f7269bc5b1.html#a36f44335aa66dd49fb4903f7269bc5b1" target="_top" xlink:title="grab a slot in the transaction log">
<polygon fill="white" stroke="black" points="338.5,-684.5 338.5,-703.5 450.5,-703.5 450.5,-684.5 338.5,-684.5"/>
<text text-anchor="middle" x="394.5" y="-691.5" font-family="Helvetica,sans-Serif" font-size="10.00">trans_log_grab_slot</text>
</a>
</g>
</g>
<!-- Node2&#45;&gt;Node18 -->
<g id="edge19" class="edge">
<title>Node2&#45;&gt;Node18</title>
<path fill="none" stroke="midnightblue" d="M238.5,-627.67C259.26,-638.64 294.59,-656.73 326,-670 335.18,-673.88 345.23,-677.68 354.71,-681.08"/>
<polygon fill="midnightblue" stroke="midnightblue" points="353.72,-684.44 364.31,-684.45 356.04,-677.83 353.72,-684.44"/>
</g>
<!-- Node5 -->
<g id="node5" class="node">
<title>Node5</title>
<g id="a_node5"><a xlink:href="rdcu__rmap_8c_a1a064554031c2fa2dcb65541e0765c0f.html#a1a064554031c2fa2dcb65541e0765c0f" target="_top" xlink:title="n rmap command transaction">
<polygon fill="white" stroke="black" points="499,-551.5 499,-570.5 594,-570.5 594,-551.5 499,-551.5"/>
<text text-anchor="middle" x="546.5" y="-558.5" font-family="Helvetica,sans-Serif" font-size="10.00">rdcu_process_rx</text>
</a>
</g>
</g>
<!-- Node4&#45;&gt;Node5 -->
<g id="edge4" class="edge">
<title>Node4&#45;&gt;Node5</title>
<path fill="none" stroke="midnightblue" d="M440.5,-574.3C455.65,-572.38 472.76,-570.21 488.69,-568.2"/>
<polygon fill="midnightblue" stroke="midnightblue" points="489.49,-571.62 498.97,-566.89 488.61,-564.68 489.49,-571.62"/>
</g>
<!-- Node5&#45;&gt;Node3 -->
<g id="edge5" class="edge">
<title>Node5&#45;&gt;Node3</title>
<path fill="none" stroke="midnightblue" d="M566.19,-551.49C582.7,-543.3 607.59,-531.49 630,-523 684.69,-502.27 701.97,-507.41 756,-485 785.25,-472.87 817.03,-455.12 838.08,-442.66"/>
<polygon fill="midnightblue" stroke="midnightblue" points="839.9,-445.65 846.68,-437.51 836.3,-439.65 839.9,-445.65"/>
</g>
<!-- Node6 -->
<g id="node6" class="node">
<title>Node6</title>
<g id="a_node6"><a xlink:href="rmap_8c_abf1868ec6873f9f189050cadc7e64a3b.html#abf1868ec6873f9f189050cadc7e64a3b" target="_top" xlink:title="calculate the CRC8 of a given buffer">
<polygon fill="white" stroke="black" points="659,-570.5 659,-589.5 727,-589.5 727,-570.5 659,-570.5"/>
<text text-anchor="middle" x="693" y="-577.5" font-family="Helvetica,sans-Serif" font-size="10.00">rmap_crc8</text>
</a>
</g>
</g>
<!-- Node5&#45;&gt;Node6 -->
<g id="edge6" class="edge">
<title>Node5&#45;&gt;Node6</title>
<path fill="none" stroke="midnightblue" d="M594.02,-567.12C611.51,-569.42 631.31,-572.02 648.52,-574.28"/>
<polygon fill="midnightblue" stroke="midnightblue" points="648.48,-577.81 658.85,-575.64 649.39,-570.87 648.48,-577.81"/>
</g>
<!-- Node7 -->
<g id="node7" class="node">
<title>Node7</title>
<g id="a_node7"><a xlink:href="rmap_8c_a1def9af549819e7fdbda12af8bdc9c0e.html#a1def9af549819e7fdbda12af8bdc9c0e" target="_top" xlink:title="completely destroys an RMAP packet">
<polygon fill="white" stroke="black" points="637,-456.5 637,-475.5 749,-475.5 749,-456.5 637,-456.5"/>
<text text-anchor="middle" x="693" y="-463.5" font-family="Helvetica,sans-Serif" font-size="10.00">rmap_erase_packet</text>
</a>
</g>
</g>
<!-- Node5&#45;&gt;Node7 -->
<g id="edge7" class="edge">
<title>Node5&#45;&gt;Node7</title>
<path fill="none" stroke="midnightblue" d="M556.8,-551.06C571.25,-536.11 600.5,-507.68 630,-490 636.75,-485.95 644.31,-482.36 651.76,-479.26"/>
<polygon fill="midnightblue" stroke="midnightblue" points="653.04,-482.52 661.07,-475.61 650.48,-476 653.04,-482.52"/>
</g>
<!-- Node8 -->
<g id="node8" class="node">
<title>Node8</title>
<g id="a_node8"><a xlink:href="rmap_8c_a5e88a29337404518eceedf9b4af285bf.html#a5e88a29337404518eceedf9b4af285bf" target="_top" xlink:title=" ">
<polygon fill="white" stroke="black" points="645.5,-684.5 645.5,-703.5 740.5,-703.5 740.5,-684.5 645.5,-684.5"/>
<text text-anchor="middle" x="693" y="-691.5" font-family="Helvetica,sans-Serif" font-size="10.00">rmap_parse_pkt</text>
</a>
</g>
</g>
<!-- Node5&#45;&gt;Node8 -->
<g id="edge8" class="edge">
<title>Node5&#45;&gt;Node8</title>
<path fill="none" stroke="midnightblue" d="M557.92,-570.6C573.56,-585.02 604.06,-613.13 630,-637 644.83,-650.65 661.66,-666.12 674.04,-677.5"/>
<polygon fill="midnightblue" stroke="midnightblue" points="671.73,-680.13 681.47,-684.32 676.47,-674.98 671.73,-680.13"/>
</g>
<!-- Node13 -->
<g id="node13" class="node">
<title>Node13</title>
<g id="a_node13"><a xlink:href="rmap_8c_a46d3271304c12df042b57dbebaba67e1.html#a46d3271304c12df042b57dbebaba67e1" target="_top" xlink:title="create an rmap packet from a buffer">
<polygon fill="white" stroke="black" points="630.5,-342.5 630.5,-361.5 755.5,-361.5 755.5,-342.5 630.5,-342.5"/>
<text text-anchor="middle" x="693" y="-349.5" font-family="Helvetica,sans-Serif" font-size="10.00">rmap_pkt_from_buffer</text>
</a>
</g>
</g>
<!-- Node5&#45;&gt;Node13 -->
<g id="edge13" class="edge">
<title>Node5&#45;&gt;Node13</title>
<path fill="none" stroke="midnightblue" d="M548.8,-551.48C553.52,-520.6 572.62,-422.28 630,-371 631.91,-369.29 633.97,-367.74 636.14,-366.33"/>
<polygon fill="midnightblue" stroke="midnightblue" points="637.84,-369.39 644.95,-361.54 634.49,-363.24 637.84,-369.39"/>
</g>
<!-- Node16 -->
<g id="node16" class="node">
<title>Node16</title>
<g id="a_node16"><a xlink:href="rdcu__rmap_8c_acf9b176d8d9b24e9d07711f56aebccc0.html#acf9b176d8d9b24e9d07711f56aebccc0" target="_top" xlink:title="get the local address for a slot">
<polygon fill="white" stroke="black" points="638,-532.5 638,-551.5 748,-551.5 748,-532.5 638,-532.5"/>
<text text-anchor="middle" x="693" y="-539.5" font-family="Helvetica,sans-Serif" font-size="10.00">trans_log_get_addr</text>
</a>
</g>
</g>
<!-- Node5&#45;&gt;Node16 -->
<g id="edge17" class="edge">
<title>Node5&#45;&gt;Node16</title>
<path fill="none" stroke="midnightblue" d="M594.02,-554.88C604.69,-553.48 616.23,-551.96 627.51,-550.48"/>
<polygon fill="midnightblue" stroke="midnightblue" points="628.31,-553.9 637.77,-549.13 627.4,-546.96 628.31,-553.9"/>
</g>
<!-- Node17 -->
<g id="node17" class="node">
<title>Node17</title>
<g id="a_node17"><a xlink:href="rdcu__rmap_8c_a7012f58a1862cf07b00e299d24c199c2.html#a7012f58a1862cf07b00e299d24c199c2" target="_top" xlink:title="release a slot in the transaction log">
<polygon fill="white" stroke="black" points="630,-608.5 630,-627.5 756,-627.5 756,-608.5 630,-608.5"/>
<text text-anchor="middle" x="693" y="-615.5" font-family="Helvetica,sans-Serif" font-size="10.00">trans_log_release_slot</text>
</a>
</g>
</g>
<!-- Node5&#45;&gt;Node17 -->
<g id="edge18" class="edge">
<title>Node5&#45;&gt;Node17</title>
<path fill="none" stroke="midnightblue" d="M566.52,-570.65C583.05,-578.82 607.75,-590.51 630,-599 635.87,-601.24 642.12,-603.4 648.31,-605.42"/>
<polygon fill="midnightblue" stroke="midnightblue" points="647.34,-608.78 657.93,-608.46 649.45,-602.11 647.34,-608.78"/>
</g>
<!-- Node9 -->
<g id="node9" class="node">
<title>Node9</title>
<g id="a_node9"><a xlink:href="rmap_8c_abb4e19c17c7223212c3904bc4c0189d2.html#abb4e19c17c7223212c3904bc4c0189d2" target="_top" xlink:title=" ">
<polygon fill="white" stroke="black" points="807.5,-684.5 807.5,-703.5 918.5,-703.5 918.5,-684.5 807.5,-684.5"/>
<text text-anchor="middle" x="863" y="-691.5" font-family="Helvetica,sans-Serif" font-size="10.00">rmap_check_status</text>
</a>
</g>
</g>
<!-- Node8&#45;&gt;Node9 -->
<g id="edge9" class="edge">
<title>Node8&#45;&gt;Node9</title>
<path fill="none" stroke="midnightblue" d="M740.8,-694C758.33,-694 778.57,-694 797.42,-694"/>
<polygon fill="midnightblue" stroke="midnightblue" points="797.43,-697.5 807.43,-694 797.43,-690.5 797.43,-697.5"/>
</g>
<!-- Node10 -->
<g id="node10" class="node">
<title>Node10</title>
<g id="a_node10"><a xlink:href="rmap_8c_a20aa8b91dfb1bbad819759f97b853054.html#a20aa8b91dfb1bbad819759f97b853054" target="_top" xlink:title=" ">
<polygon fill="white" stroke="black" points="802,-646.5 802,-665.5 924,-665.5 924,-646.5 802,-646.5"/>
<text text-anchor="middle" x="863" y="-653.5" font-family="Helvetica,sans-Serif" font-size="10.00">rmap_parse_cmd_pkt</text>
</a>
</g>
</g>
<!-- Node8&#45;&gt;Node10 -->
<g id="edge10" class="edge">
<title>Node8&#45;&gt;Node10</title>
<path fill="none" stroke="midnightblue" d="M736.39,-684.41C758.76,-679.35 786.4,-673.1 810.05,-667.75"/>
<polygon fill="midnightblue" stroke="midnightblue" points="810.93,-671.14 819.91,-665.52 809.39,-664.31 810.93,-671.14"/>
</g>
<!-- Node11 -->
<g id="node11" class="node">
<title>Node11</title>
<g id="a_node11"><a xlink:href="rmap_8c_adef42426b46ee5ad5176ee76cff35c22.html#adef42426b46ee5ad5176ee76cff35c22" target="_top" xlink:title=" ">
<polygon fill="white" stroke="black" points="800.5,-722.5 800.5,-741.5 925.5,-741.5 925.5,-722.5 800.5,-722.5"/>
<text text-anchor="middle" x="863" y="-729.5" font-family="Helvetica,sans-Serif" font-size="10.00">rmap_parse_reply_pkt</text>
</a>
</g>
</g>
<!-- Node8&#45;&gt;Node11 -->
<g id="edge11" class="edge">
<title>Node8&#45;&gt;Node11</title>
<path fill="none" stroke="midnightblue" d="M736.39,-703.59C758.76,-708.65 786.4,-714.9 810.05,-720.25"/>
<polygon fill="midnightblue" stroke="midnightblue" points="809.39,-723.69 819.91,-722.48 810.93,-716.86 809.39,-723.69"/>
</g>
<!-- Node12 -->
<g id="node12" class="node">
<title>Node12</title>
<g id="a_node12"><a xlink:href="rmap_8c_a2ff278a5e094a9f585865d4d838e0e0e.html#a2ff278a5e094a9f585865d4d838e0e0e" target="_top" xlink:title=" ">
<polygon fill="white" stroke="black" points="970,-722.5 970,-741.5 1112,-741.5 1112,-722.5 970,-722.5"/>
<text text-anchor="middle" x="1041" y="-729.5" font-family="Helvetica,sans-Serif" font-size="10.00">rmap_process_read_reply</text>
</a>
</g>
</g>
<!-- Node11&#45;&gt;Node12 -->
<g id="edge12" class="edge">
<title>Node11&#45;&gt;Node12</title>
<path fill="none" stroke="midnightblue" d="M925.56,-732C936.6,-732 948.25,-732 959.73,-732"/>
<polygon fill="midnightblue" stroke="midnightblue" points="959.74,-735.5 969.74,-732 959.74,-728.5 959.74,-735.5"/>
</g>
<!-- Node13&#45;&gt;Node3 -->
<g id="edge14" class="edge">
<title>Node13&#45;&gt;Node3</title>
<path fill="none" stroke="midnightblue" d="M729.51,-361.57C738.29,-364.3 747.58,-367.49 756,-371 785.06,-383.13 816.64,-400.73 837.7,-413.16"/>
<polygon fill="midnightblue" stroke="midnightblue" points="835.94,-416.18 846.32,-418.3 839.52,-410.17 835.94,-416.18"/>
</g>
<!-- Node14 -->
<g id="node14" class="node">
<title>Node14</title>
<g id="a_node14"><a xlink:href="rmap_8c_aba944cf978de0b264ea5bb3a784bce0f.html#aba944cf978de0b264ea5bb3a784bce0f" target="_top" xlink:title="create an RMAP packet and set defaults">
<polygon fill="white" stroke="black" points="805,-228.5 805,-247.5 921,-247.5 921,-228.5 805,-228.5"/>
<text text-anchor="middle" x="863" y="-235.5" font-family="Helvetica,sans-Serif" font-size="10.00">rmap_create_packet</text>
</a>
</g>
</g>
<!-- Node13&#45;&gt;Node14 -->
<g id="edge15" class="edge">
<title>Node13&#45;&gt;Node14</title>
<path fill="none" stroke="midnightblue" d="M734.42,-342.4C741.83,-339.87 749.33,-336.76 756,-333 793.04,-312.08 828.2,-276.34 847.26,-255.17"/>
<polygon fill="midnightblue" stroke="midnightblue" points="849.96,-257.39 853.96,-247.58 844.72,-252.75 849.96,-257.39"/>
</g>
<!-- Node15 -->
<g id="node15" class="node">
<title>Node15</title>
<g id="a_node15"><a xlink:href="rmap_8c_a0ec3c28e83818f02e00d4c79d82d938a.html#a0ec3c28e83818f02e00d4c79d82d938a" target="_top" xlink:title="get the minimum header size given the RMAP instruction">
<polygon fill="white" stroke="black" points="796.5,-133.5 796.5,-152.5 929.5,-152.5 929.5,-133.5 796.5,-133.5"/>
<text text-anchor="middle" x="863" y="-140.5" font-family="Helvetica,sans-Serif" font-size="10.00">rmap_get_min_hdr_size</text>
</a>
</g>
</g>
<!-- Node13&#45;&gt;Node15 -->
<g id="edge16" class="edge">
<title>Node13&#45;&gt;Node15</title>
<path fill="none" stroke="midnightblue" d="M742.37,-342.44C747.39,-339.98 752.08,-336.88 756,-333 793.73,-295.59 765.36,-264.97 792,-219 805.48,-195.74 827.17,-173.66 842.83,-159.36"/>
<polygon fill="midnightblue" stroke="midnightblue" points="845.26,-161.89 850.4,-152.62 840.6,-156.66 845.26,-161.89"/>
</g>
<!-- Node20 -->
<g id="node20" class="node">
<title>Node20</title>
<g id="a_node20"><a xlink:href="rdcu__cmd_8c_a690d79ff983a96fdd40db6396e9c70e9.html#a690d79ff983a96fdd40db6396e9c70e9" target="_top" xlink:title="generate a write command for an arbitrary register (internal)">
<polygon fill="white" stroke="black" points="326,-353 326,-383 463,-383 463,-353 326,-353"/>
<text text-anchor="start" x="334" y="-371" font-family="Helvetica,sans-Serif" font-size="10.00">rdcu_write_cmd_register</text>
<text text-anchor="middle" x="394.5" y="-360" font-family="Helvetica,sans-Serif" font-size="10.00">_internal</text>
</a>
</g>
</g>
<!-- Node19&#45;&gt;Node20 -->
<g id="edge21" class="edge">
<title>Node19&#45;&gt;Node20</title>
<path fill="none" stroke="midnightblue" d="M228.38,-567.48C254.21,-536.28 336.76,-436.55 374.43,-391.04"/>
<polygon fill="midnightblue" stroke="midnightblue" points="377.24,-393.13 380.92,-383.2 371.85,-388.67 377.24,-393.13"/>
</g>
<!-- Node21 -->
<g id="node21" class="node">
<title>Node21</title>
<g id="a_node21"><a xlink:href="rdcu__rmap_8c_ab224927e85a7cec5b6f90292c7de36c4.html#ab224927e85a7cec5b6f90292c7de36c4" target="_top" xlink:title="generate an rmap command packet">
<polygon fill="white" stroke="black" points="503,-228.5 503,-247.5 590,-247.5 590,-228.5 503,-228.5"/>
<text text-anchor="middle" x="546.5" y="-235.5" font-family="Helvetica,sans-Serif" font-size="10.00">rdcu_gen_cmd</text>
</a>
</g>
</g>
<!-- Node20&#45;&gt;Node21 -->
<g id="edge22" class="edge">
<title>Node20&#45;&gt;Node21</title>
<path fill="none" stroke="midnightblue" d="M413,-352.83C441.42,-328.21 497.36,-279.72 526.63,-254.35"/>
<polygon fill="midnightblue" stroke="midnightblue" points="529.2,-256.76 534.47,-247.56 524.62,-251.47 529.2,-256.76"/>
</g>
<!-- Node21&#45;&gt;Node7 -->
<g id="edge26" class="edge">
<title>Node21&#45;&gt;Node7</title>
<path fill="none" stroke="midnightblue" d="M548.38,-247.52C551.93,-280.34 568.12,-389.81 630,-447 631.71,-448.58 633.55,-450.03 635.49,-451.37"/>
<polygon fill="midnightblue" stroke="midnightblue" points="634.08,-454.59 644.51,-456.46 637.53,-448.49 634.08,-454.59"/>
</g>
<!-- Node21&#45;&gt;Node14 -->
<g id="edge25" class="edge">
<title>Node21&#45;&gt;Node14</title>
<path fill="none" stroke="midnightblue" d="M552.23,-228.34C562.82,-207.96 590.65,-160.95 630,-143 680.95,-119.76 703.7,-122.99 756,-143 796.34,-158.43 831.01,-197.08 848.95,-220.05"/>
<polygon fill="midnightblue" stroke="midnightblue" points="846.35,-222.42 855.18,-228.27 851.93,-218.19 846.35,-222.42"/>
</g>
<!-- Node22 -->
<g id="node22" class="node">
<title>Node22</title>
<g id="a_node22"><a xlink:href="rmap_8c_aa17375d153cc3473cbbe4dfe1056c527.html#aa17375d153cc3473cbbe4dfe1056c527" target="_top" xlink:title="build an rmap header">
<polygon fill="white" stroke="black" points="647,-76.5 647,-95.5 739,-95.5 739,-76.5 647,-76.5"/>
<text text-anchor="middle" x="693" y="-83.5" font-family="Helvetica,sans-Serif" font-size="10.00">rmap_build_hdr</text>
</a>
</g>
</g>
<!-- Node21&#45;&gt;Node22 -->
<g id="edge23" class="edge">
<title>Node21&#45;&gt;Node22</title>
<path fill="none" stroke="midnightblue" d="M551.29,-228.17C560.9,-204.53 588.4,-143.91 630,-110 634.99,-105.93 640.75,-102.5 646.71,-99.61"/>
<polygon fill="midnightblue" stroke="midnightblue" points="648.36,-102.71 656.15,-95.52 645.58,-96.29 648.36,-102.71"/>
</g>
<!-- Node23 -->
<g id="node23" class="node">
<title>Node23</title>
<g id="a_node23"><a xlink:href="rmap_8c_aab7e23f061291d39568ad2df700bc777.html#aab7e23f061291d39568ad2df700bc777" target="_top" xlink:title="set an RMAP command">
<polygon fill="white" stroke="black" points="648.5,-38.5 648.5,-57.5 737.5,-57.5 737.5,-38.5 648.5,-38.5"/>
<text text-anchor="middle" x="693" y="-45.5" font-family="Helvetica,sans-Serif" font-size="10.00">rmap_set_cmd</text>
</a>
</g>
</g>
<!-- Node21&#45;&gt;Node23 -->
<g id="edge27" class="edge">
<title>Node21&#45;&gt;Node23</title>
<path fill="none" stroke="midnightblue" d="M549.36,-228.21C555.4,-199.09 577.23,-112.3 630,-67 632.81,-64.58 635.93,-62.48 639.22,-60.64"/>
<polygon fill="midnightblue" stroke="midnightblue" points="640.72,-63.8 648.27,-56.36 637.74,-57.47 640.72,-63.8"/>
</g>
<!-- Node25 -->
<g id="node25" class="node">
<title>Node25</title>
<g id="a_node25"><a xlink:href="rmap_8c_acf641aae92829ae864b6c3d8f94d86e2.html#acf641aae92829ae864b6c3d8f94d86e2" target="_top" xlink:title="set a data address">
<polygon fill="white" stroke="black" points="635,-228.5 635,-247.5 751,-247.5 751,-228.5 635,-228.5"/>
<text text-anchor="middle" x="693" y="-235.5" font-family="Helvetica,sans-Serif" font-size="10.00">rmap_set_data_addr</text>
</a>
</g>
</g>
<!-- Node21&#45;&gt;Node25 -->
<g id="edge29" class="edge">
<title>Node21&#45;&gt;Node25</title>
<path fill="none" stroke="midnightblue" d="M590.07,-238C600.95,-238 612.92,-238 624.72,-238"/>
<polygon fill="midnightblue" stroke="midnightblue" points="625,-241.5 635,-238 625,-234.5 625,-241.5"/>
</g>
<!-- Node26 -->
<g id="node26" class="node">
<title>Node26</title>
<g id="a_node26"><a xlink:href="rmap_8c_a6833f065640f652aa1a929309e592f7a.html#a6833f065640f652aa1a929309e592f7a" target="_top" xlink:title="set an RMAP command">
<polygon fill="white" stroke="black" points="638,-190.5 638,-209.5 748,-209.5 748,-190.5 638,-190.5"/>
<text text-anchor="middle" x="693" y="-197.5" font-family="Helvetica,sans-Serif" font-size="10.00">rmap_set_data_len</text>
</a>
</g>
</g>
<!-- Node21&#45;&gt;Node26 -->
<g id="edge30" class="edge">
<title>Node21&#45;&gt;Node26</title>
<path fill="none" stroke="midnightblue" d="M583.96,-228.41C602.77,-223.46 625.91,-217.38 645.95,-212.11"/>
<polygon fill="midnightblue" stroke="midnightblue" points="647.02,-215.45 655.8,-209.52 645.24,-208.68 647.02,-215.45"/>
</g>
<!-- Node27 -->
<g id="node27" class="node">
<title>Node27</title>
<g id="a_node27"><a xlink:href="rmap_8c_a5f0081b9928da5e50fc8b231b57f3a80.html#a5f0081b9928da5e50fc8b231b57f3a80" target="_top" xlink:title="set the destination address path">
<polygon fill="white" stroke="black" points="635,-418.5 635,-437.5 751,-437.5 751,-418.5 635,-418.5"/>
<text text-anchor="middle" x="693" y="-425.5" font-family="Helvetica,sans-Serif" font-size="10.00">rmap_set_dest_path</text>
</a>
</g>
</g>
<!-- Node21&#45;&gt;Node27 -->
<g id="edge31" class="edge">
<title>Node21&#45;&gt;Node27</title>
<path fill="none" stroke="midnightblue" d="M549.36,-247.79C555.4,-276.91 577.23,-363.7 630,-409 631.98,-410.7 634.11,-412.25 636.35,-413.66"/>
<polygon fill="midnightblue" stroke="midnightblue" points="634.93,-416.87 645.41,-418.44 638.2,-410.68 634.93,-416.87"/>
</g>
<!-- Node28 -->
<g id="node28" class="node">
<title>Node28</title>
<g id="a_node28"><a xlink:href="rmap_8c_a2da8e7b48411d382b54848795f85795d.html#a2da8e7b48411d382b54848795f85795d" target="_top" xlink:title="set the destination (target) logical address">
<polygon fill="white" stroke="black" points="651.5,-152.5 651.5,-171.5 734.5,-171.5 734.5,-152.5 651.5,-152.5"/>
<text text-anchor="middle" x="693" y="-159.5" font-family="Helvetica,sans-Serif" font-size="10.00">rmap_set_dst</text>
</a>
</g>
</g>
<!-- Node21&#45;&gt;Node28 -->
<g id="edge33" class="edge">
<title>Node21&#45;&gt;Node28</title>
<path fill="none" stroke="midnightblue" d="M558.82,-228.48C574.1,-216.04 602.58,-194.28 630,-181 634.63,-178.76 639.58,-176.71 644.6,-174.86"/>
<polygon fill="midnightblue" stroke="midnightblue" points="645.92,-178.1 654.24,-171.54 643.65,-171.48 645.92,-178.1"/>
</g>
<!-- Node29 -->
<g id="node29" class="node">
<title>Node29</title>
<g id="a_node29"><a xlink:href="rmap_8c_a15021c9dfccddc44786dfd37834bcd7e.html#a15021c9dfccddc44786dfd37834bcd7e" target="_top" xlink:title="set the command authorisation key">
<polygon fill="white" stroke="black" points="650.5,-0.5 650.5,-19.5 735.5,-19.5 735.5,-0.5 650.5,-0.5"/>
<text text-anchor="middle" x="693" y="-7.5" font-family="Helvetica,sans-Serif" font-size="10.00">rmap_set_key</text>
</a>
</g>
</g>
<!-- Node21&#45;&gt;Node29 -->
<g id="edge34" class="edge">
<title>Node21&#45;&gt;Node29</title>
<path fill="none" stroke="midnightblue" d="M548.38,-228.48C551.93,-195.66 568.12,-86.19 630,-29 633.21,-26.03 636.87,-23.53 640.77,-21.42"/>
<polygon fill="midnightblue" stroke="midnightblue" points="642.54,-24.46 650.22,-17.16 639.66,-18.08 642.54,-24.46"/>
</g>
<!-- Node30 -->
<g id="node30" class="node">
<title>Node30</title>
<g id="a_node30"><a xlink:href="rmap_8c_a56c47830e67d01e469231e5e7e1d3a34.html#a56c47830e67d01e469231e5e7e1d3a34" target="_top" xlink:title="set the reply address path">
<polygon fill="white" stroke="black" points="633.5,-380.5 633.5,-399.5 752.5,-399.5 752.5,-380.5 633.5,-380.5"/>
<text text-anchor="middle" x="693" y="-387.5" font-family="Helvetica,sans-Serif" font-size="10.00">rmap_set_reply_path</text>
</a>
</g>
</g>
<!-- Node21&#45;&gt;Node30 -->
<g id="edge35" class="edge">
<title>Node21&#45;&gt;Node30</title>
<path fill="none" stroke="midnightblue" d="M550.76,-247.68C559.52,-272.17 585.88,-337 630,-371 632.34,-372.8 634.85,-374.44 637.48,-375.92"/>
<polygon fill="midnightblue" stroke="midnightblue" points="636.22,-379.19 646.75,-380.38 639.25,-372.89 636.22,-379.19"/>
</g>
<!-- Node31 -->
<g id="node31" class="node">
<title>Node31</title>
<g id="a_node31"><a xlink:href="rmap_8c_adae0030440ca4e7ad34622e505acbb2c.html#adae0030440ca4e7ad34622e505acbb2c" target="_top" xlink:title="set the source (initiator) logical address">
<polygon fill="white" stroke="black" points="652,-304.5 652,-323.5 734,-323.5 734,-304.5 652,-304.5"/>
<text text-anchor="middle" x="693" y="-311.5" font-family="Helvetica,sans-Serif" font-size="10.00">rmap_set_src</text>
</a>
</g>
</g>
<!-- Node21&#45;&gt;Node31 -->
<g id="edge37" class="edge">
<title>Node21&#45;&gt;Node31</title>
<path fill="none" stroke="midnightblue" d="M558.82,-247.52C574.1,-259.96 602.58,-281.72 630,-295 634.63,-297.24 639.58,-299.29 644.6,-301.14"/>
<polygon fill="midnightblue" stroke="midnightblue" points="643.65,-304.52 654.24,-304.46 645.92,-297.9 643.65,-304.52"/>
</g>
<!-- Node32 -->
<g id="node32" class="node">
<title>Node32</title>
<g id="a_node32"><a xlink:href="rmap_8c_a7b4c31714493ce6cc19d4aa825ab50aa.html#a7b4c31714493ce6cc19d4aa825ab50aa" target="_top" xlink:title="set an RMAP transaction identifier">
<polygon fill="white" stroke="black" points="648.5,-266.5 648.5,-285.5 737.5,-285.5 737.5,-266.5 648.5,-266.5"/>
<text text-anchor="middle" x="693" y="-273.5" font-family="Helvetica,sans-Serif" font-size="10.00">rmap_set_tr_id</text>
</a>
</g>
</g>
<!-- Node21&#45;&gt;Node32 -->
<g id="edge38" class="edge">
<title>Node21&#45;&gt;Node32</title>
<path fill="none" stroke="midnightblue" d="M583.96,-247.59C602.77,-252.54 625.91,-258.62 645.95,-263.89"/>
<polygon fill="midnightblue" stroke="midnightblue" points="645.24,-267.32 655.8,-266.48 647.02,-260.55 645.24,-267.32"/>
</g>
<!-- Node22&#45;&gt;Node15 -->
<g id="edge24" class="edge">
<title>Node22&#45;&gt;Node15</title>
<path fill="none" stroke="midnightblue" d="M722.12,-95.54C750.1,-105.03 793.23,-119.67 824.2,-130.17"/>
<polygon fill="midnightblue" stroke="midnightblue" points="823.19,-133.53 833.79,-133.43 825.44,-126.9 823.19,-133.53"/>
</g>
<!-- Node24 -->
<g id="node24" class="node">
<title>Node24</title>
<g id="a_node24"><a xlink:href="rmap_8c_a667ce871110961f2a611d0244791e20f.html#a667ce871110961f2a611d0244791e20f" target="_top" xlink:title="valiidates a command code">
<polygon fill="white" stroke="black" points="792,-38.5 792,-57.5 934,-57.5 934,-38.5 792,-38.5"/>
<text text-anchor="middle" x="863" y="-45.5" font-family="Helvetica,sans-Serif" font-size="10.00">rmap_validate_cmd_code</text>
</a>
</g>
</g>
<!-- Node23&#45;&gt;Node24 -->
<g id="edge28" class="edge">
<title>Node23&#45;&gt;Node24</title>
<path fill="none" stroke="midnightblue" d="M737.7,-48C751.13,-48 766.36,-48 781.44,-48"/>
<polygon fill="midnightblue" stroke="midnightblue" points="781.83,-51.5 791.83,-48 781.83,-44.5 781.83,-51.5"/>
</g>
<!-- Node27&#45;&gt;Node3 -->
<g id="edge32" class="edge">
<title>Node27&#45;&gt;Node3</title>
<path fill="none" stroke="midnightblue" d="M751.35,-428C776.67,-428 805.6,-428 827.52,-428"/>
<polygon fill="midnightblue" stroke="midnightblue" points="827.68,-431.5 837.68,-428 827.68,-424.5 827.68,-431.5"/>
</g>
<!-- Node30&#45;&gt;Node3 -->
<g id="edge36" class="edge">
<title>Node30&#45;&gt;Node3</title>
<path fill="none" stroke="midnightblue" d="M736.39,-399.59C764.71,-405.99 801.47,-414.31 827.9,-420.29"/>
<polygon fill="midnightblue" stroke="midnightblue" points="827.3,-423.74 837.83,-422.53 828.85,-416.91 827.3,-423.74"/>
</g>
</g>
</svg>
