<?xml version="1.0" encoding="UTF-8" standalone="no"?>
<!DOCTYPE svg PUBLIC "-//W3C//DTD SVG 1.1//EN"
 "http://www.w3.org/Graphics/SVG/1.1/DTD/svg11.dtd">
<!-- Generated by graphviz version 2.43.0 (0)
 -->
<!-- Title: rdcu_read_cmd_spw_link_status Pages: 1 -->
<svg width="773pt" height="446pt"
 viewBox="0.00 0.00 773.00 446.00" xmlns="http://www.w3.org/2000/svg" xmlns:xlink="http://www.w3.org/1999/xlink">
<g id="graph0" class="graph" transform="scale(1 1) rotate(0) translate(4 442)">
<title>rdcu_read_cmd_spw_link_status</title>
<polygon fill="white" stroke="transparent" points="-4,4 -4,-442 769,-442 769,4 -4,4"/>
<!-- Node1 -->
<g id="node1" class="node">
<title>Node1</title>
<g id="a_node1"><a xlink:title="create a command to read the RDCU SPW link status register">
<polygon fill="#bfbfbf" stroke="black" points="0,-204 0,-234 139,-234 139,-204 0,-204"/>
<text text-anchor="start" x="8" y="-222" font-family="Helvetica,sans-Serif" font-size="10.00">rdcu_read_cmd_spw_link</text>
<text text-anchor="middle" x="69.5" y="-211" font-family="Helvetica,sans-Serif" font-size="10.00">_status</text>
</a>
</g>
</g>
<!-- Node2 -->
<g id="node2" class="node">
<title>Node2</title>
<g id="a_node2"><a xlink:href="rdcu__cmd_8c_a3274188041d4484130e893afc5f1630f.html#a3274188041d4484130e893afc5f1630f" target="_top" xlink:title="generate a read command for an arbitrary register (internal)">
<polygon fill="white" stroke="black" points="175,-204 175,-234 309,-234 309,-204 175,-204"/>
<text text-anchor="start" x="183" y="-222" font-family="Helvetica,sans-Serif" font-size="10.00">rdcu_read_cmd_register</text>
<text text-anchor="middle" x="242" y="-211" font-family="Helvetica,sans-Serif" font-size="10.00">_internal</text>
</a>
</g>
</g>
<!-- Node1&#45;&gt;Node2 -->
<g id="edge1" class="edge">
<title>Node1&#45;&gt;Node2</title>
<path fill="none" stroke="midnightblue" d="M139.36,-219C147.7,-219 156.26,-219 164.71,-219"/>
<polygon fill="midnightblue" stroke="midnightblue" points="164.93,-222.5 174.93,-219 164.93,-215.5 164.93,-222.5"/>
</g>
<!-- Node3 -->
<g id="node3" class="node">
<title>Node3</title>
<g id="a_node3"><a xlink:href="rdcu__rmap_8c_ab224927e85a7cec5b6f90292c7de36c4.html#ab224927e85a7cec5b6f90292c7de36c4" target="_top" xlink:title="generate an rmap command packet">
<polygon fill="white" stroke="black" points="345,-209.5 345,-228.5 432,-228.5 432,-209.5 345,-209.5"/>
<text text-anchor="middle" x="388.5" y="-216.5" font-family="Helvetica,sans-Serif" font-size="10.00">rdcu_gen_cmd</text>
</a>
</g>
</g>
<!-- Node2&#45;&gt;Node3 -->
<g id="edge2" class="edge">
<title>Node2&#45;&gt;Node3</title>
<path fill="none" stroke="midnightblue" d="M309.33,-219C317.78,-219 326.34,-219 334.54,-219"/>
<polygon fill="midnightblue" stroke="midnightblue" points="334.7,-222.5 344.7,-219 334.7,-215.5 334.7,-222.5"/>
</g>
<!-- Node4 -->
<g id="node4" class="node">
<title>Node4</title>
<g id="a_node4"><a xlink:href="rmap_8c_aa17375d153cc3473cbbe4dfe1056c527.html#aa17375d153cc3473cbbe4dfe1056c527" target="_top" xlink:title="build an rmap header">
<polygon fill="white" stroke="black" points="481.5,-418.5 481.5,-437.5 573.5,-437.5 573.5,-418.5 481.5,-418.5"/>
<text text-anchor="middle" x="527.5" y="-425.5" font-family="Helvetica,sans-Serif" font-size="10.00">rmap_build_hdr</text>
</a>
</g>
</g>
<!-- Node3&#45;&gt;Node4 -->
<g id="edge3" class="edge">
<title>Node3&#45;&gt;Node4</title>
<path fill="none" stroke="midnightblue" d="M390.68,-228.91C394.91,-260.12 412.2,-357.38 468,-409 469.72,-410.59 471.57,-412.05 473.53,-413.38"/>
<polygon fill="midnightblue" stroke="midnightblue" points="472.18,-416.64 482.62,-418.49 475.62,-410.54 472.18,-416.64"/>
</g>
<!-- Node6 -->
<g id="node6" class="node">
<title>Node6</title>
<g id="a_node6"><a xlink:href="rmap_8c_aba944cf978de0b264ea5bb3a784bce0f.html#aba944cf978de0b264ea5bb3a784bce0f" target="_top" xlink:title="create an RMAP packet and set defaults">
<polygon fill="white" stroke="black" points="469.5,-380.5 469.5,-399.5 585.5,-399.5 585.5,-380.5 469.5,-380.5"/>
<text text-anchor="middle" x="527.5" y="-387.5" font-family="Helvetica,sans-Serif" font-size="10.00">rmap_create_packet</text>
</a>
</g>
</g>
<!-- Node3&#45;&gt;Node6 -->
<g id="edge5" class="edge">
<title>Node3&#45;&gt;Node6</title>
<path fill="none" stroke="midnightblue" d="M391.78,-228.81C398.52,-255.66 420.91,-331.01 468,-371 469.99,-372.69 472.14,-374.24 474.4,-375.64"/>
<polygon fill="midnightblue" stroke="midnightblue" points="473.04,-378.88 483.52,-380.42 476.28,-372.68 473.04,-378.88"/>
</g>
<!-- Node7 -->
<g id="node7" class="node">
<title>Node7</title>
<g id="a_node7"><a xlink:href="rmap_8c_a1def9af549819e7fdbda12af8bdc9c0e.html#a1def9af549819e7fdbda12af8bdc9c0e" target="_top" xlink:title="completely destroys an RMAP packet">
<polygon fill="white" stroke="black" points="471.5,-342.5 471.5,-361.5 583.5,-361.5 583.5,-342.5 471.5,-342.5"/>
<text text-anchor="middle" x="527.5" y="-349.5" font-family="Helvetica,sans-Serif" font-size="10.00">rmap_erase_packet</text>
</a>
</g>
</g>
<!-- Node3&#45;&gt;Node7 -->
<g id="edge6" class="edge">
<title>Node3&#45;&gt;Node7</title>
<path fill="none" stroke="midnightblue" d="M393.45,-228.53C402.97,-250.31 429.28,-304.12 468,-333 470.49,-334.86 473.16,-336.53 475.96,-338.05"/>
<polygon fill="midnightblue" stroke="midnightblue" points="474.63,-341.3 485.17,-342.38 477.6,-334.96 474.63,-341.3"/>
</g>
<!-- Node8 -->
<g id="node8" class="node">
<title>Node8</title>
<g id="a_node8"><a xlink:href="rmap_8c_aab7e23f061291d39568ad2df700bc777.html#aab7e23f061291d39568ad2df700bc777" target="_top" xlink:title="set an RMAP command">
<polygon fill="white" stroke="black" points="483,-304.5 483,-323.5 572,-323.5 572,-304.5 483,-304.5"/>
<text text-anchor="middle" x="527.5" y="-311.5" font-family="Helvetica,sans-Serif" font-size="10.00">rmap_set_cmd</text>
</a>
</g>
</g>
<!-- Node3&#45;&gt;Node8 -->
<g id="edge7" class="edge">
<title>Node3&#45;&gt;Node8</title>
<path fill="none" stroke="midnightblue" d="M396.91,-228.6C409.73,-244.59 437.6,-276.71 468,-295 471.45,-297.08 475.16,-298.96 478.97,-300.65"/>
<polygon fill="midnightblue" stroke="midnightblue" points="477.98,-304.02 488.57,-304.48 480.57,-297.52 477.98,-304.02"/>
</g>
<!-- Node10 -->
<g id="node10" class="node">
<title>Node10</title>
<g id="a_node10"><a xlink:href="rmap_8c_acf641aae92829ae864b6c3d8f94d86e2.html#acf641aae92829ae864b6c3d8f94d86e2" target="_top" xlink:title="set a data address">
<polygon fill="white" stroke="black" points="469.5,-266.5 469.5,-285.5 585.5,-285.5 585.5,-266.5 469.5,-266.5"/>
<text text-anchor="middle" x="527.5" y="-273.5" font-family="Helvetica,sans-Serif" font-size="10.00">rmap_set_data_addr</text>
</a>
</g>
</g>
<!-- Node3&#45;&gt;Node10 -->
<g id="edge9" class="edge">
<title>Node3&#45;&gt;Node10</title>
<path fill="none" stroke="midnightblue" d="M407.58,-228.63C423.29,-236.78 446.79,-248.47 468,-257 473.39,-259.17 479.14,-261.28 484.85,-263.25"/>
<polygon fill="midnightblue" stroke="midnightblue" points="483.74,-266.57 494.34,-266.43 485.97,-259.93 483.74,-266.57"/>
</g>
<!-- Node11 -->
<g id="node11" class="node">
<title>Node11</title>
<g id="a_node11"><a xlink:href="rmap_8c_a6833f065640f652aa1a929309e592f7a.html#a6833f065640f652aa1a929309e592f7a" target="_top" xlink:title="set an RMAP command">
<polygon fill="white" stroke="black" points="472.5,-228.5 472.5,-247.5 582.5,-247.5 582.5,-228.5 472.5,-228.5"/>
<text text-anchor="middle" x="527.5" y="-235.5" font-family="Helvetica,sans-Serif" font-size="10.00">rmap_set_data_len</text>
</a>
</g>
</g>
<!-- Node3&#45;&gt;Node11 -->
<g id="edge10" class="edge">
<title>Node3&#45;&gt;Node11</title>
<path fill="none" stroke="midnightblue" d="M432.1,-224.91C441.64,-226.23 451.97,-227.66 462.18,-229.08"/>
<polygon fill="midnightblue" stroke="midnightblue" points="461.92,-232.58 472.31,-230.48 462.88,-225.64 461.92,-232.58"/>
</g>
<!-- Node12 -->
<g id="node12" class="node">
<title>Node12</title>
<g id="a_node12"><a xlink:href="rmap_8c_a5f0081b9928da5e50fc8b231b57f3a80.html#a5f0081b9928da5e50fc8b231b57f3a80" target="_top" xlink:title="set the destination address path">
<polygon fill="white" stroke="black" points="469.5,-190.5 469.5,-209.5 585.5,-209.5 585.5,-190.5 469.5,-190.5"/>
<text text-anchor="middle" x="527.5" y="-197.5" font-family="Helvetica,sans-Serif" font-size="10.00">rmap_set_dest_path</text>
</a>
</g>
</g>
<!-- Node3&#45;&gt;Node12 -->
<g id="edge11" class="edge">
<title>Node3&#45;&gt;Node12</title>
<path fill="none" stroke="midnightblue" d="M432.1,-213.09C440.75,-211.89 450.05,-210.6 459.32,-209.32"/>
<polygon fill="midnightblue" stroke="midnightblue" points="459.9,-212.77 469.33,-207.93 458.94,-205.84 459.9,-212.77"/>
</g>
<!-- Node14 -->
<g id="node14" class="node">
<title>Node14</title>
<g id="a_node14"><a xlink:href="rmap_8c_a2da8e7b48411d382b54848795f85795d.html#a2da8e7b48411d382b54848795f85795d" target="_top" xlink:title="set the destination (target) logical address">
<polygon fill="white" stroke="black" points="486,-152.5 486,-171.5 569,-171.5 569,-152.5 486,-152.5"/>
<text text-anchor="middle" x="527.5" y="-159.5" font-family="Helvetica,sans-Serif" font-size="10.00">rmap_set_dst</text>
</a>
</g>
</g>
<!-- Node3&#45;&gt;Node14 -->
<g id="edge13" class="edge">
<title>Node3&#45;&gt;Node14</title>
<path fill="none" stroke="midnightblue" d="M407.58,-209.37C423.29,-201.22 446.79,-189.53 468,-181 473.39,-178.83 479.14,-176.72 484.85,-174.75"/>
<polygon fill="midnightblue" stroke="midnightblue" points="485.97,-178.07 494.34,-171.57 483.74,-171.43 485.97,-178.07"/>
</g>
<!-- Node15 -->
<g id="node15" class="node">
<title>Node15</title>
<g id="a_node15"><a xlink:href="rmap_8c_a15021c9dfccddc44786dfd37834bcd7e.html#a15021c9dfccddc44786dfd37834bcd7e" target="_top" xlink:title="set the command authorisation key">
<polygon fill="white" stroke="black" points="485,-114.5 485,-133.5 570,-133.5 570,-114.5 485,-114.5"/>
<text text-anchor="middle" x="527.5" y="-121.5" font-family="Helvetica,sans-Serif" font-size="10.00">rmap_set_key</text>
</a>
</g>
</g>
<!-- Node3&#45;&gt;Node15 -->
<g id="edge14" class="edge">
<title>Node3&#45;&gt;Node15</title>
<path fill="none" stroke="midnightblue" d="M396.91,-209.4C409.73,-193.41 437.6,-161.29 468,-143 471.45,-140.92 475.16,-139.04 478.97,-137.35"/>
<polygon fill="midnightblue" stroke="midnightblue" points="480.57,-140.48 488.57,-133.52 477.98,-133.98 480.57,-140.48"/>
</g>
<!-- Node16 -->
<g id="node16" class="node">
<title>Node16</title>
<g id="a_node16"><a xlink:href="rmap_8c_a56c47830e67d01e469231e5e7e1d3a34.html#a56c47830e67d01e469231e5e7e1d3a34" target="_top" xlink:title="set the reply address path">
<polygon fill="white" stroke="black" points="468,-76.5 468,-95.5 587,-95.5 587,-76.5 468,-76.5"/>
<text text-anchor="middle" x="527.5" y="-83.5" font-family="Helvetica,sans-Serif" font-size="10.00">rmap_set_reply_path</text>
</a>
</g>
</g>
<!-- Node3&#45;&gt;Node16 -->
<g id="edge15" class="edge">
<title>Node3&#45;&gt;Node16</title>
<path fill="none" stroke="midnightblue" d="M393.45,-209.47C402.97,-187.69 429.28,-133.88 468,-105 470.49,-103.14 473.16,-101.47 475.96,-99.95"/>
<polygon fill="midnightblue" stroke="midnightblue" points="477.6,-103.04 485.17,-95.62 474.63,-96.7 477.6,-103.04"/>
</g>
<!-- Node17 -->
<g id="node17" class="node">
<title>Node17</title>
<g id="a_node17"><a xlink:href="rmap_8c_adae0030440ca4e7ad34622e505acbb2c.html#adae0030440ca4e7ad34622e505acbb2c" target="_top" xlink:title="set the source (initiator) logical address">
<polygon fill="white" stroke="black" points="486.5,-38.5 486.5,-57.5 568.5,-57.5 568.5,-38.5 486.5,-38.5"/>
<text text-anchor="middle" x="527.5" y="-45.5" font-family="Helvetica,sans-Serif" font-size="10.00">rmap_set_src</text>
</a>
</g>
</g>
<!-- Node3&#45;&gt;Node17 -->
<g id="edge17" class="edge">
<title>Node3&#45;&gt;Node17</title>
<path fill="none" stroke="midnightblue" d="M391.78,-209.19C398.52,-182.34 420.91,-106.99 468,-67 470.73,-64.68 473.74,-62.65 476.93,-60.86"/>
<polygon fill="midnightblue" stroke="midnightblue" points="478.7,-63.89 486.23,-56.44 475.7,-57.57 478.7,-63.89"/>
</g>
<!-- Node18 -->
<g id="node18" class="node">
<title>Node18</title>
<g id="a_node18"><a xlink:href="rmap_8c_a7b4c31714493ce6cc19d4aa825ab50aa.html#a7b4c31714493ce6cc19d4aa825ab50aa" target="_top" xlink:title="set an RMAP transaction identifier">
<polygon fill="white" stroke="black" points="483,-0.5 483,-19.5 572,-19.5 572,-0.5 483,-0.5"/>
<text text-anchor="middle" x="527.5" y="-7.5" font-family="Helvetica,sans-Serif" font-size="10.00">rmap_set_tr_id</text>
</a>
</g>
</g>
<!-- Node3&#45;&gt;Node18 -->
<g id="edge18" class="edge">
<title>Node3&#45;&gt;Node18</title>
<path fill="none" stroke="midnightblue" d="M390.68,-209.09C394.91,-177.88 412.2,-80.62 468,-29 469.89,-27.26 471.93,-25.67 474.1,-24.23"/>
<polygon fill="midnightblue" stroke="midnightblue" points="475.85,-27.26 482.91,-19.37 472.47,-21.13 475.85,-27.26"/>
</g>
<!-- Node5 -->
<g id="node5" class="node">
<title>Node5</title>
<g id="a_node5"><a xlink:href="rmap_8c_a0ec3c28e83818f02e00d4c79d82d938a.html#a0ec3c28e83818f02e00d4c79d82d938a" target="_top" xlink:title="get the minimum header size given the RMAP instruction">
<polygon fill="white" stroke="black" points="627.5,-418.5 627.5,-437.5 760.5,-437.5 760.5,-418.5 627.5,-418.5"/>
<text text-anchor="middle" x="694" y="-425.5" font-family="Helvetica,sans-Serif" font-size="10.00">rmap_get_min_hdr_size</text>
</a>
</g>
</g>
<!-- Node4&#45;&gt;Node5 -->
<g id="edge4" class="edge">
<title>Node4&#45;&gt;Node5</title>
<path fill="none" stroke="midnightblue" d="M573.89,-428C587.33,-428 602.43,-428 617.25,-428"/>
<polygon fill="midnightblue" stroke="midnightblue" points="617.44,-431.5 627.44,-428 617.44,-424.5 617.44,-431.5"/>
</g>
<!-- Node9 -->
<g id="node9" class="node">
<title>Node9</title>
<g id="a_node9"><a xlink:href="rmap_8c_a667ce871110961f2a611d0244791e20f.html#a667ce871110961f2a611d0244791e20f" target="_top" xlink:title="valiidates a command code">
<polygon fill="white" stroke="black" points="623,-304.5 623,-323.5 765,-323.5 765,-304.5 623,-304.5"/>
<text text-anchor="middle" x="694" y="-311.5" font-family="Helvetica,sans-Serif" font-size="10.00">rmap_validate_cmd_code</text>
</a>
</g>
</g>
<!-- Node8&#45;&gt;Node9 -->
<g id="edge8" class="edge">
<title>Node8&#45;&gt;Node9</title>
<path fill="none" stroke="midnightblue" d="M572.15,-314C584.64,-314 598.65,-314 612.6,-314"/>
<polygon fill="midnightblue" stroke="midnightblue" points="612.72,-317.5 622.72,-314 612.72,-310.5 612.72,-317.5"/>
</g>
<!-- Node13 -->
<g id="node13" class="node">
<title>Node13</title>
<g id="a_node13"><a xlink:href="test__cmp__max__used__bits__list_8c_a7ac38fce3243a7dcf448301ee9ffd392.html#a7ac38fce3243a7dcf448301ee9ffd392" target="_top" xlink:title=" ">
<polygon fill="white" stroke="black" points="669,-133.5 669,-152.5 719,-152.5 719,-133.5 669,-133.5"/>
<text text-anchor="middle" x="694" y="-140.5" font-family="Helvetica,sans-Serif" font-size="10.00">malloc</text>
</a>
</g>
</g>
<!-- Node12&#45;&gt;Node13 -->
<g id="edge12" class="edge">
<title>Node12&#45;&gt;Node13</title>
<path fill="none" stroke="midnightblue" d="M558.62,-190.41C567.75,-187.45 577.8,-184.14 587,-181 611.17,-172.75 638.27,-163.02 659.02,-155.48"/>
<polygon fill="midnightblue" stroke="midnightblue" points="660.46,-158.68 668.65,-151.96 658.06,-152.1 660.46,-158.68"/>
</g>
<!-- Node16&#45;&gt;Node13 -->
<g id="edge16" class="edge">
<title>Node16&#45;&gt;Node13</title>
<path fill="none" stroke="midnightblue" d="M558.62,-95.59C567.75,-98.55 577.8,-101.86 587,-105 611.17,-113.25 638.27,-122.98 659.02,-130.52"/>
<polygon fill="midnightblue" stroke="midnightblue" points="658.06,-133.9 668.65,-134.04 660.46,-127.32 658.06,-133.9"/>
</g>
</g>
</svg>
