<?xml version="1.0" encoding="UTF-8" standalone="no"?>
<!DOCTYPE svg PUBLIC "-//W3C//DTD SVG 1.1//EN"
 "http://www.w3.org/Graphics/SVG/1.1/DTD/svg11.dtd">
<!-- Generated by graphviz version 2.43.0 (0)
 -->
<!-- Title: rdcu_read_cmd_lvds_core_status Pages: 1 -->
<svg width="750pt" height="446pt"
 viewBox="0.00 0.00 750.00 446.00" xmlns="http://www.w3.org/2000/svg" xmlns:xlink="http://www.w3.org/1999/xlink">
<g id="graph0" class="graph" transform="scale(1 1) rotate(0) translate(4 442)">
<title>rdcu_read_cmd_lvds_core_status</title>
<polygon fill="white" stroke="transparent" points="-4,4 -4,-442 746,-442 746,4 -4,4"/>
<!-- Node1 -->
<g id="node1" class="node">
<title>Node1</title>
<g id="a_node1"><a xlink:title="create a command to read the RDCU LVDS core status register">
<polygon fill="#bfbfbf" stroke="black" points="0,-204 0,-234 116,-234 116,-204 0,-204"/>
<text text-anchor="start" x="8" y="-222" font-family="Helvetica,sans-Serif" font-size="10.00">rdcu_read_cmd_lvds</text>
<text text-anchor="middle" x="58" y="-211" font-family="Helvetica,sans-Serif" font-size="10.00">_core_status</text>
</a>
</g>
</g>
<!-- Node2 -->
<g id="node2" class="node">
<title>Node2</title>
<g id="a_node2"><a xlink:href="rdcu__cmd_8c_a3274188041d4484130e893afc5f1630f.html#a3274188041d4484130e893afc5f1630f" target="_top" xlink:title="generate a read command for an arbitrary register (internal)">
<polygon fill="white" stroke="black" points="152,-204 152,-234 286,-234 286,-204 152,-204"/>
<text text-anchor="start" x="160" y="-222" font-family="Helvetica,sans-Serif" font-size="10.00">rdcu_read_cmd_register</text>
<text text-anchor="middle" x="219" y="-211" font-family="Helvetica,sans-Serif" font-size="10.00">_internal</text>
</a>
</g>
</g>
<!-- Node1&#45;&gt;Node2 -->
<g id="edge1" class="edge">
<title>Node1&#45;&gt;Node2</title>
<path fill="none" stroke="midnightblue" d="M116.4,-219C124.56,-219 133.06,-219 141.51,-219"/>
<polygon fill="midnightblue" stroke="midnightblue" points="141.76,-222.5 151.76,-219 141.76,-215.5 141.76,-222.5"/>
</g>
<!-- Node3 -->
<g id="node3" class="node">
<title>Node3</title>
<g id="a_node3"><a xlink:href="rdcu__rmap_8c_ab224927e85a7cec5b6f90292c7de36c4.html#ab224927e85a7cec5b6f90292c7de36c4" target="_top" xlink:title="generate an rmap command packet">
<polygon fill="white" stroke="black" points="322,-209.5 322,-228.5 409,-228.5 409,-209.5 322,-209.5"/>
<text text-anchor="middle" x="365.5" y="-216.5" font-family="Helvetica,sans-Serif" font-size="10.00">rdcu_gen_cmd</text>
</a>
</g>
</g>
<!-- Node2&#45;&gt;Node3 -->
<g id="edge2" class="edge">
<title>Node2&#45;&gt;Node3</title>
<path fill="none" stroke="midnightblue" d="M286.33,-219C294.78,-219 303.34,-219 311.54,-219"/>
<polygon fill="midnightblue" stroke="midnightblue" points="311.7,-222.5 321.7,-219 311.7,-215.5 311.7,-222.5"/>
</g>
<!-- Node4 -->
<g id="node4" class="node">
<title>Node4</title>
<g id="a_node4"><a xlink:href="rmap_8c_aa17375d153cc3473cbbe4dfe1056c527.html#aa17375d153cc3473cbbe4dfe1056c527" target="_top" xlink:title="build an rmap header">
<polygon fill="white" stroke="black" points="458.5,-418.5 458.5,-437.5 550.5,-437.5 550.5,-418.5 458.5,-418.5"/>
<text text-anchor="middle" x="504.5" y="-425.5" font-family="Helvetica,sans-Serif" font-size="10.00">rmap_build_hdr</text>
</a>
</g>
</g>
<!-- Node3&#45;&gt;Node4 -->
<g id="edge3" class="edge">
<title>Node3&#45;&gt;Node4</title>
<path fill="none" stroke="midnightblue" d="M367.68,-228.91C371.91,-260.12 389.2,-357.38 445,-409 446.72,-410.59 448.57,-412.05 450.53,-413.38"/>
<polygon fill="midnightblue" stroke="midnightblue" points="449.18,-416.64 459.62,-418.49 452.62,-410.54 449.18,-416.64"/>
</g>
<!-- Node6 -->
<g id="node6" class="node">
<title>Node6</title>
<g id="a_node6"><a xlink:href="rmap_8c_aba944cf978de0b264ea5bb3a784bce0f.html#aba944cf978de0b264ea5bb3a784bce0f" target="_top" xlink:title="create an RMAP packet and set defaults">
<polygon fill="white" stroke="black" points="446.5,-380.5 446.5,-399.5 562.5,-399.5 562.5,-380.5 446.5,-380.5"/>
<text text-anchor="middle" x="504.5" y="-387.5" font-family="Helvetica,sans-Serif" font-size="10.00">rmap_create_packet</text>
</a>
</g>
</g>
<!-- Node3&#45;&gt;Node6 -->
<g id="edge5" class="edge">
<title>Node3&#45;&gt;Node6</title>
<path fill="none" stroke="midnightblue" d="M368.78,-228.81C375.52,-255.66 397.91,-331.01 445,-371 446.99,-372.69 449.14,-374.24 451.4,-375.64"/>
<polygon fill="midnightblue" stroke="midnightblue" points="450.04,-378.88 460.52,-380.42 453.28,-372.68 450.04,-378.88"/>
</g>
<!-- Node7 -->
<g id="node7" class="node">
<title>Node7</title>
<g id="a_node7"><a xlink:href="rmap_8c_a1def9af549819e7fdbda12af8bdc9c0e.html#a1def9af549819e7fdbda12af8bdc9c0e" target="_top" xlink:title="completely destroys an RMAP packet">
<polygon fill="white" stroke="black" points="448.5,-342.5 448.5,-361.5 560.5,-361.5 560.5,-342.5 448.5,-342.5"/>
<text text-anchor="middle" x="504.5" y="-349.5" font-family="Helvetica,sans-Serif" font-size="10.00">rmap_erase_packet</text>
</a>
</g>
</g>
<!-- Node3&#45;&gt;Node7 -->
<g id="edge6" class="edge">
<title>Node3&#45;&gt;Node7</title>
<path fill="none" stroke="midnightblue" d="M370.45,-228.53C379.97,-250.31 406.28,-304.12 445,-333 447.49,-334.86 450.16,-336.53 452.96,-338.05"/>
<polygon fill="midnightblue" stroke="midnightblue" points="451.63,-341.3 462.17,-342.38 454.6,-334.96 451.63,-341.3"/>
</g>
<!-- Node8 -->
<g id="node8" class="node">
<title>Node8</title>
<g id="a_node8"><a xlink:href="rmap_8c_aab7e23f061291d39568ad2df700bc777.html#aab7e23f061291d39568ad2df700bc777" target="_top" xlink:title="set an RMAP command">
<polygon fill="white" stroke="black" points="460,-304.5 460,-323.5 549,-323.5 549,-304.5 460,-304.5"/>
<text text-anchor="middle" x="504.5" y="-311.5" font-family="Helvetica,sans-Serif" font-size="10.00">rmap_set_cmd</text>
</a>
</g>
</g>
<!-- Node3&#45;&gt;Node8 -->
<g id="edge7" class="edge">
<title>Node3&#45;&gt;Node8</title>
<path fill="none" stroke="midnightblue" d="M373.91,-228.6C386.73,-244.59 414.6,-276.71 445,-295 448.45,-297.08 452.16,-298.96 455.97,-300.65"/>
<polygon fill="midnightblue" stroke="midnightblue" points="454.98,-304.02 465.57,-304.48 457.57,-297.52 454.98,-304.02"/>
</g>
<!-- Node10 -->
<g id="node10" class="node">
<title>Node10</title>
<g id="a_node10"><a xlink:href="rmap_8c_acf641aae92829ae864b6c3d8f94d86e2.html#acf641aae92829ae864b6c3d8f94d86e2" target="_top" xlink:title="set a data address">
<polygon fill="white" stroke="black" points="446.5,-266.5 446.5,-285.5 562.5,-285.5 562.5,-266.5 446.5,-266.5"/>
<text text-anchor="middle" x="504.5" y="-273.5" font-family="Helvetica,sans-Serif" font-size="10.00">rmap_set_data_addr</text>
</a>
</g>
</g>
<!-- Node3&#45;&gt;Node10 -->
<g id="edge9" class="edge">
<title>Node3&#45;&gt;Node10</title>
<path fill="none" stroke="midnightblue" d="M384.58,-228.63C400.29,-236.78 423.79,-248.47 445,-257 450.39,-259.17 456.14,-261.28 461.85,-263.25"/>
<polygon fill="midnightblue" stroke="midnightblue" points="460.74,-266.57 471.34,-266.43 462.97,-259.93 460.74,-266.57"/>
</g>
<!-- Node11 -->
<g id="node11" class="node">
<title>Node11</title>
<g id="a_node11"><a xlink:href="rmap_8c_a6833f065640f652aa1a929309e592f7a.html#a6833f065640f652aa1a929309e592f7a" target="_top" xlink:title="set an RMAP command">
<polygon fill="white" stroke="black" points="449.5,-228.5 449.5,-247.5 559.5,-247.5 559.5,-228.5 449.5,-228.5"/>
<text text-anchor="middle" x="504.5" y="-235.5" font-family="Helvetica,sans-Serif" font-size="10.00">rmap_set_data_len</text>
</a>
</g>
</g>
<!-- Node3&#45;&gt;Node11 -->
<g id="edge10" class="edge">
<title>Node3&#45;&gt;Node11</title>
<path fill="none" stroke="midnightblue" d="M409.1,-224.91C418.64,-226.23 428.97,-227.66 439.18,-229.08"/>
<polygon fill="midnightblue" stroke="midnightblue" points="438.92,-232.58 449.31,-230.48 439.88,-225.64 438.92,-232.58"/>
</g>
<!-- Node12 -->
<g id="node12" class="node">
<title>Node12</title>
<g id="a_node12"><a xlink:href="rmap_8c_a5f0081b9928da5e50fc8b231b57f3a80.html#a5f0081b9928da5e50fc8b231b57f3a80" target="_top" xlink:title="set the destination address path">
<polygon fill="white" stroke="black" points="446.5,-190.5 446.5,-209.5 562.5,-209.5 562.5,-190.5 446.5,-190.5"/>
<text text-anchor="middle" x="504.5" y="-197.5" font-family="Helvetica,sans-Serif" font-size="10.00">rmap_set_dest_path</text>
</a>
</g>
</g>
<!-- Node3&#45;&gt;Node12 -->
<g id="edge11" class="edge">
<title>Node3&#45;&gt;Node12</title>
<path fill="none" stroke="midnightblue" d="M409.1,-213.09C417.75,-211.89 427.05,-210.6 436.32,-209.32"/>
<polygon fill="midnightblue" stroke="midnightblue" points="436.9,-212.77 446.33,-207.93 435.94,-205.84 436.9,-212.77"/>
</g>
<!-- Node14 -->
<g id="node14" class="node">
<title>Node14</title>
<g id="a_node14"><a xlink:href="rmap_8c_a2da8e7b48411d382b54848795f85795d.html#a2da8e7b48411d382b54848795f85795d" target="_top" xlink:title="set the destination (target) logical address">
<polygon fill="white" stroke="black" points="463,-152.5 463,-171.5 546,-171.5 546,-152.5 463,-152.5"/>
<text text-anchor="middle" x="504.5" y="-159.5" font-family="Helvetica,sans-Serif" font-size="10.00">rmap_set_dst</text>
</a>
</g>
</g>
<!-- Node3&#45;&gt;Node14 -->
<g id="edge13" class="edge">
<title>Node3&#45;&gt;Node14</title>
<path fill="none" stroke="midnightblue" d="M384.58,-209.37C400.29,-201.22 423.79,-189.53 445,-181 450.39,-178.83 456.14,-176.72 461.85,-174.75"/>
<polygon fill="midnightblue" stroke="midnightblue" points="462.97,-178.07 471.34,-171.57 460.74,-171.43 462.97,-178.07"/>
</g>
<!-- Node15 -->
<g id="node15" class="node">
<title>Node15</title>
<g id="a_node15"><a xlink:href="rmap_8c_a15021c9dfccddc44786dfd37834bcd7e.html#a15021c9dfccddc44786dfd37834bcd7e" target="_top" xlink:title="set the command authorisation key">
<polygon fill="white" stroke="black" points="462,-114.5 462,-133.5 547,-133.5 547,-114.5 462,-114.5"/>
<text text-anchor="middle" x="504.5" y="-121.5" font-family="Helvetica,sans-Serif" font-size="10.00">rmap_set_key</text>
</a>
</g>
</g>
<!-- Node3&#45;&gt;Node15 -->
<g id="edge14" class="edge">
<title>Node3&#45;&gt;Node15</title>
<path fill="none" stroke="midnightblue" d="M373.91,-209.4C386.73,-193.41 414.6,-161.29 445,-143 448.45,-140.92 452.16,-139.04 455.97,-137.35"/>
<polygon fill="midnightblue" stroke="midnightblue" points="457.57,-140.48 465.57,-133.52 454.98,-133.98 457.57,-140.48"/>
</g>
<!-- Node16 -->
<g id="node16" class="node">
<title>Node16</title>
<g id="a_node16"><a xlink:href="rmap_8c_a56c47830e67d01e469231e5e7e1d3a34.html#a56c47830e67d01e469231e5e7e1d3a34" target="_top" xlink:title="set the reply address path">
<polygon fill="white" stroke="black" points="445,-76.5 445,-95.5 564,-95.5 564,-76.5 445,-76.5"/>
<text text-anchor="middle" x="504.5" y="-83.5" font-family="Helvetica,sans-Serif" font-size="10.00">rmap_set_reply_path</text>
</a>
</g>
</g>
<!-- Node3&#45;&gt;Node16 -->
<g id="edge15" class="edge">
<title>Node3&#45;&gt;Node16</title>
<path fill="none" stroke="midnightblue" d="M370.45,-209.47C379.97,-187.69 406.28,-133.88 445,-105 447.49,-103.14 450.16,-101.47 452.96,-99.95"/>
<polygon fill="midnightblue" stroke="midnightblue" points="454.6,-103.04 462.17,-95.62 451.63,-96.7 454.6,-103.04"/>
</g>
<!-- Node17 -->
<g id="node17" class="node">
<title>Node17</title>
<g id="a_node17"><a xlink:href="rmap_8c_adae0030440ca4e7ad34622e505acbb2c.html#adae0030440ca4e7ad34622e505acbb2c" target="_top" xlink:title="set the source (initiator) logical address">
<polygon fill="white" stroke="black" points="463.5,-38.5 463.5,-57.5 545.5,-57.5 545.5,-38.5 463.5,-38.5"/>
<text text-anchor="middle" x="504.5" y="-45.5" font-family="Helvetica,sans-Serif" font-size="10.00">rmap_set_src</text>
</a>
</g>
</g>
<!-- Node3&#45;&gt;Node17 -->
<g id="edge17" class="edge">
<title>Node3&#45;&gt;Node17</title>
<path fill="none" stroke="midnightblue" d="M368.78,-209.19C375.52,-182.34 397.91,-106.99 445,-67 447.73,-64.68 450.74,-62.65 453.93,-60.86"/>
<polygon fill="midnightblue" stroke="midnightblue" points="455.7,-63.89 463.23,-56.44 452.7,-57.57 455.7,-63.89"/>
</g>
<!-- Node18 -->
<g id="node18" class="node">
<title>Node18</title>
<g id="a_node18"><a xlink:href="rmap_8c_a7b4c31714493ce6cc19d4aa825ab50aa.html#a7b4c31714493ce6cc19d4aa825ab50aa" target="_top" xlink:title="set an RMAP transaction identifier">
<polygon fill="white" stroke="black" points="460,-0.5 460,-19.5 549,-19.5 549,-0.5 460,-0.5"/>
<text text-anchor="middle" x="504.5" y="-7.5" font-family="Helvetica,sans-Serif" font-size="10.00">rmap_set_tr_id</text>
</a>
</g>
</g>
<!-- Node3&#45;&gt;Node18 -->
<g id="edge18" class="edge">
<title>Node3&#45;&gt;Node18</title>
<path fill="none" stroke="midnightblue" d="M367.68,-209.09C371.91,-177.88 389.2,-80.62 445,-29 446.89,-27.26 448.93,-25.67 451.1,-24.23"/>
<polygon fill="midnightblue" stroke="midnightblue" points="452.85,-27.26 459.91,-19.37 449.47,-21.13 452.85,-27.26"/>
</g>
<!-- Node5 -->
<g id="node5" class="node">
<title>Node5</title>
<g id="a_node5"><a xlink:href="rmap_8c_a0ec3c28e83818f02e00d4c79d82d938a.html#a0ec3c28e83818f02e00d4c79d82d938a" target="_top" xlink:title="get the minimum header size given the RMAP instruction">
<polygon fill="white" stroke="black" points="604.5,-418.5 604.5,-437.5 737.5,-437.5 737.5,-418.5 604.5,-418.5"/>
<text text-anchor="middle" x="671" y="-425.5" font-family="Helvetica,sans-Serif" font-size="10.00">rmap_get_min_hdr_size</text>
</a>
</g>
</g>
<!-- Node4&#45;&gt;Node5 -->
<g id="edge4" class="edge">
<title>Node4&#45;&gt;Node5</title>
<path fill="none" stroke="midnightblue" d="M550.89,-428C564.33,-428 579.43,-428 594.25,-428"/>
<polygon fill="midnightblue" stroke="midnightblue" points="594.44,-431.5 604.44,-428 594.44,-424.5 594.44,-431.5"/>
</g>
<!-- Node9 -->
<g id="node9" class="node">
<title>Node9</title>
<g id="a_node9"><a xlink:href="rmap_8c_a667ce871110961f2a611d0244791e20f.html#a667ce871110961f2a611d0244791e20f" target="_top" xlink:title="valiidates a command code">
<polygon fill="white" stroke="black" points="600,-304.5 600,-323.5 742,-323.5 742,-304.5 600,-304.5"/>
<text text-anchor="middle" x="671" y="-311.5" font-family="Helvetica,sans-Serif" font-size="10.00">rmap_validate_cmd_code</text>
</a>
</g>
</g>
<!-- Node8&#45;&gt;Node9 -->
<g id="edge8" class="edge">
<title>Node8&#45;&gt;Node9</title>
<path fill="none" stroke="midnightblue" d="M549.15,-314C561.64,-314 575.65,-314 589.6,-314"/>
<polygon fill="midnightblue" stroke="midnightblue" points="589.72,-317.5 599.72,-314 589.72,-310.5 589.72,-317.5"/>
</g>
<!-- Node13 -->
<g id="node13" class="node">
<title>Node13</title>
<g id="a_node13"><a xlink:href="test__cmp__max__used__bits__list_8c_a7ac38fce3243a7dcf448301ee9ffd392.html#a7ac38fce3243a7dcf448301ee9ffd392" target="_top" xlink:title=" ">
<polygon fill="white" stroke="black" points="646,-133.5 646,-152.5 696,-152.5 696,-133.5 646,-133.5"/>
<text text-anchor="middle" x="671" y="-140.5" font-family="Helvetica,sans-Serif" font-size="10.00">malloc</text>
</a>
</g>
</g>
<!-- Node12&#45;&gt;Node13 -->
<g id="edge12" class="edge">
<title>Node12&#45;&gt;Node13</title>
<path fill="none" stroke="midnightblue" d="M535.62,-190.41C544.75,-187.45 554.8,-184.14 564,-181 588.17,-172.75 615.27,-163.02 636.02,-155.48"/>
<polygon fill="midnightblue" stroke="midnightblue" points="637.46,-158.68 645.65,-151.96 635.06,-152.1 637.46,-158.68"/>
</g>
<!-- Node16&#45;&gt;Node13 -->
<g id="edge16" class="edge">
<title>Node16&#45;&gt;Node13</title>
<path fill="none" stroke="midnightblue" d="M535.62,-95.59C544.75,-98.55 554.8,-101.86 564,-105 588.17,-113.25 615.27,-122.98 636.02,-130.52"/>
<polygon fill="midnightblue" stroke="midnightblue" points="635.06,-133.9 645.65,-134.04 637.46,-127.32 635.06,-133.9"/>
</g>
</g>
</svg>
