<?xml version="1.0" encoding="UTF-8" standalone="no"?>
<!DOCTYPE svg PUBLIC "-//W3C//DTD SVG 1.1//EN"
 "http://www.w3.org/Graphics/SVG/1.1/DTD/svg11.dtd">
<!-- Generated by graphviz version 2.43.0 (0)
 -->
<!-- Title: rdcu_read_cmd_data_internal Pages: 1 -->
<svg width="794pt" height="140pt"
 viewBox="0.00 0.00 794.00 139.50" xmlns="http://www.w3.org/2000/svg" xmlns:xlink="http://www.w3.org/1999/xlink">
<g id="graph0" class="graph" transform="scale(1 1) rotate(0) translate(4 135.5)">
<title>rdcu_read_cmd_data_internal</title>
<polygon fill="white" stroke="transparent" points="-4,4 -4,-135.5 790,-135.5 790,4 -4,4"/>
<!-- Node1 -->
<g id="node1" class="node">
<title>Node1</title>
<g id="a_node1"><a xlink:title="create a command to read arbitrary data to the RDCU (internal)">
<polygon fill="#bfbfbf" stroke="black" points="668,-71 668,-101 786,-101 786,-71 668,-71"/>
<text text-anchor="start" x="676" y="-89" font-family="Helvetica,sans-Serif" font-size="10.00">rdcu_read_cmd_data</text>
<text text-anchor="middle" x="727" y="-78" font-family="Helvetica,sans-Serif" font-size="10.00">_internal</text>
</a>
</g>
</g>
<!-- Node2 -->
<g id="node2" class="node">
<title>Node2</title>
<g id="a_node2"><a xlink:href="rdcu__cmd_8c_a0529d01908536a90bebeb44f114342c7.html#a0529d01908536a90bebeb44f114342c7" target="_top" xlink:title="create a command to read arbitrary data to the RDCU">
<polygon fill="white" stroke="black" points="514,-76.5 514,-95.5 632,-95.5 632,-76.5 514,-76.5"/>
<text text-anchor="middle" x="573" y="-83.5" font-family="Helvetica,sans-Serif" font-size="10.00">rdcu_read_cmd_data</text>
</a>
</g>
</g>
<!-- Node1&#45;&gt;Node2 -->
<g id="edge1" class="edge">
<title>Node1&#45;&gt;Node2</title>
<path fill="none" stroke="midnightblue" d="M657.46,-86C649.01,-86 640.45,-86 632.18,-86"/>
<polygon fill="midnightblue" stroke="midnightblue" points="657.67,-89.5 667.67,-86 657.67,-82.5 657.67,-89.5"/>
</g>
<!-- Node3 -->
<g id="node3" class="node">
<title>Node3</title>
<g id="a_node3"><a xlink:href="rdcu__ctrl_8c_a6633b7b026950cffc57092377e3350ec.html#a6633b7b026950cffc57092377e3350ec" target="_top" xlink:title="sync a range of 32 bit words of the remote SRAM to the local mirror and form the local mirror to the ...">
<polygon fill="white" stroke="black" points="339.5,-101 339.5,-131 470.5,-131 470.5,-101 339.5,-101"/>
<text text-anchor="start" x="347.5" y="-119" font-family="Helvetica,sans-Serif" font-size="10.00">rdcu_sync_sram_mirror</text>
<text text-anchor="middle" x="405" y="-108" font-family="Helvetica,sans-Serif" font-size="10.00">_parallel</text>
</a>
</g>
</g>
<!-- Node2&#45;&gt;Node3 -->
<g id="edge2" class="edge">
<title>Node2&#45;&gt;Node3</title>
<path fill="none" stroke="midnightblue" d="M509.1,-97.37C496.54,-99.64 483.31,-102.03 470.69,-104.31"/>
<polygon fill="midnightblue" stroke="midnightblue" points="509.8,-100.8 519.02,-95.57 508.56,-93.91 509.8,-100.8"/>
</g>
<!-- Node5 -->
<g id="node5" class="node">
<title>Node5</title>
<g id="a_node5"><a xlink:href="rdcu__ctrl_8c_a37c5108b5eb07978b60235fbe040c47d.html#a37c5108b5eb07978b60235fbe040c47d" target="_top" xlink:title="sync a range of 32 bit words of the remote SRAM to the local mirror">
<polygon fill="white" stroke="black" points="332,-54.5 332,-73.5 478,-73.5 478,-54.5 332,-54.5"/>
<text text-anchor="middle" x="405" y="-61.5" font-family="Helvetica,sans-Serif" font-size="10.00">rdcu_sync_sram_to_mirror</text>
</a>
</g>
</g>
<!-- Node2&#45;&gt;Node5 -->
<g id="edge4" class="edge">
<title>Node2&#45;&gt;Node5</title>
<path fill="none" stroke="midnightblue" d="M503.93,-76.98C495.3,-75.83 486.44,-74.66 477.75,-73.51"/>
<polygon fill="midnightblue" stroke="midnightblue" points="503.57,-80.46 513.94,-78.31 504.49,-73.52 503.57,-80.46"/>
</g>
<!-- Node4 -->
<g id="node4" class="node">
<title>Node4</title>
<g id="a_node4"><a xlink:href="cmp__rdcu_8c_ab69cf44ac326e0cebdef002e8f2ea2cb.html#ab69cf44ac326e0cebdef002e8f2ea2cb" target="_top" xlink:title="compressing data with the help of the RDCU hardware compressor; read data from the last compression b...">
<polygon fill="white" stroke="black" points="0,-52 0,-82 117,-82 117,-52 0,-52"/>
<text text-anchor="start" x="8" y="-70" font-family="Helvetica,sans-Serif" font-size="10.00">rdcu_compress_data</text>
<text text-anchor="middle" x="58.5" y="-59" font-family="Helvetica,sans-Serif" font-size="10.00">_parallel</text>
</a>
</g>
</g>
<!-- Node3&#45;&gt;Node4 -->
<g id="edge3" class="edge">
<title>Node3&#45;&gt;Node4</title>
<path fill="none" stroke="midnightblue" d="M329.11,-119.35C278.76,-119.98 211.21,-117.71 153,-105 130.75,-100.14 106.98,-90.42 88.98,-82.02"/>
<polygon fill="midnightblue" stroke="midnightblue" points="329.32,-122.84 339.26,-119.17 329.2,-115.84 329.32,-122.84"/>
</g>
<!-- Node6 -->
<g id="node6" class="node">
<title>Node6</title>
<g id="a_node6"><a xlink:href="cmp__rdcu_8c_af59f75c76a057d49a54b54800dc59556.html#af59f75c76a057d49a54b54800dc59556" target="_top" xlink:title="inject a SRAM edac multi bit error into the RDCU SRAM">
<polygon fill="white" stroke="black" points="161,-76.5 161,-95.5 288,-95.5 288,-76.5 161,-76.5"/>
<text text-anchor="middle" x="224.5" y="-83.5" font-family="Helvetica,sans-Serif" font-size="10.00">rdcu_inject_edac_error</text>
</a>
</g>
</g>
<!-- Node5&#45;&gt;Node6 -->
<g id="edge5" class="edge">
<title>Node5&#45;&gt;Node6</title>
<path fill="none" stroke="midnightblue" d="M321.97,-74.11C310.59,-75.51 299.05,-76.94 288.1,-78.28"/>
<polygon fill="midnightblue" stroke="midnightblue" points="322.41,-77.58 331.91,-72.88 321.56,-70.63 322.41,-77.58"/>
</g>
<!-- Node7 -->
<g id="node7" class="node">
<title>Node7</title>
<g id="a_node7"><a xlink:href="cmp__rdcu_8h_a468b8082ee6e0134519743425b2194c4.html#a468b8082ee6e0134519743425b2194c4" target="_top" xlink:title="read the compressed bitstream from the RDCU SRAM">
<polygon fill="white" stroke="black" points="153,-38.5 153,-57.5 296,-57.5 296,-38.5 153,-38.5"/>
<text text-anchor="middle" x="224.5" y="-45.5" font-family="Helvetica,sans-Serif" font-size="10.00">rdcu_read_cmp_bitstream</text>
</a>
</g>
</g>
<!-- Node5&#45;&gt;Node7 -->
<g id="edge6" class="edge">
<title>Node5&#45;&gt;Node7</title>
<path fill="none" stroke="midnightblue" d="M321.87,-56.64C313.27,-55.87 304.58,-55.09 296.12,-54.33"/>
<polygon fill="midnightblue" stroke="midnightblue" points="321.64,-60.13 331.91,-57.54 322.26,-53.16 321.64,-60.13"/>
</g>
<!-- Node8 -->
<g id="node8" class="node">
<title>Node8</title>
<g id="a_node8"><a xlink:href="cmp__rdcu_8h_ae37779561352f0c47d0c51fcc9789cc9.html#ae37779561352f0c47d0c51fcc9789cc9" target="_top" xlink:title="read the updated model from the RDCU SRAM">
<polygon fill="white" stroke="black" points="174,-0.5 174,-19.5 275,-19.5 275,-0.5 174,-0.5"/>
<text text-anchor="middle" x="224.5" y="-7.5" font-family="Helvetica,sans-Serif" font-size="10.00">rdcu_read_model</text>
</a>
</g>
</g>
<!-- Node5&#45;&gt;Node8 -->
<g id="edge7" class="edge">
<title>Node5&#45;&gt;Node8</title>
<path fill="none" stroke="midnightblue" d="M366.03,-51.18C345.4,-44.34 319.38,-35.94 296,-29 285.06,-25.76 273.1,-22.44 262.19,-19.51"/>
<polygon fill="midnightblue" stroke="midnightblue" points="365.1,-54.56 375.7,-54.4 367.31,-47.92 365.1,-54.56"/>
</g>
<!-- Node8&#45;&gt;Node4 -->
<g id="edge8" class="edge">
<title>Node8&#45;&gt;Node4</title>
<path fill="none" stroke="midnightblue" d="M175.14,-22.19C167.68,-24.31 160.1,-26.61 153,-29 133.07,-35.71 111.28,-44.48 93.75,-51.9"/>
<polygon fill="midnightblue" stroke="midnightblue" points="176.12,-25.55 184.82,-19.51 174.25,-18.8 176.12,-25.55"/>
</g>
</g>
</svg>
