<?xml version="1.0" encoding="UTF-8" standalone="no"?>
<!DOCTYPE svg PUBLIC "-//W3C//DTD SVG 1.1//EN"
 "http://www.w3.org/Graphics/SVG/1.1/DTD/svg11.dtd">
<!-- Generated by graphviz version 2.43.0 (0)
 -->
<!-- Title: rdcu_sync_adaptive_param1 Pages: 1 -->
<!--zoomable 750 -->
<svg id="main" version="1.1" xmlns="http://www.w3.org/2000/svg" xmlns:xlink="http://www.w3.org/1999/xlink" xml:space="preserve" onload="init(evt)">
<style type="text/css"><![CDATA[
.edge:hover path { stroke: red; }
.edge:hover polygon { stroke: red; fill: red; }
]]></style>
<script type="text/javascript"><![CDATA[
var edges = document.getElementsByTagName('g');
if (edges && edges.length) {
  for (var i=0;i<edges.length;i++) {
    if (edges[i].id.substr(0,4)=='edge') {
      edges[i].setAttribute('class','edge');
    }
  }
}
]]></script>
        <defs>
                <circle id="rim" cx="0" cy="0" r="7"/>
                <circle id="rim2" cx="0" cy="0" r="3.5"/>
                <g id="zoomPlus">
                        <use xlink:href="#rim" fill="#404040">
                                <set attributeName="fill" to="#808080" begin="zoomplus.mouseover" end="zoomplus.mouseout"/>
                        </use>
                        <path d="M-4,0h8M0,-4v8" fill="none" stroke="white" stroke-width="1.5" pointer-events="none"/>
                </g>
                <g id="zoomMin">
                        <use xlink:href="#rim" fill="#404040">
                                <set attributeName="fill" to="#808080" begin="zoomminus.mouseover" end="zoomminus.mouseout"/>
                        </use>
                        <path d="M-4,0h8" fill="none" stroke="white" stroke-width="1.5" pointer-events="none"/>
                </g>
                <g id="dirArrow">
                        <path fill="none" stroke="white" stroke-width="1.5" d="M0,-3.0v7 M-2.5,-0.5L0,-3.0L2.5,-0.5"/>
                </g>
               <g id="resetDef">
                       <use xlink:href="#rim2" fill="#404040">
                               <set attributeName="fill" to="#808080" begin="reset.mouseover" end="reset.mouseout"/>
                       </use>
               </g>
        </defs>

<script type="text/javascript">
var viewWidth = 1121;
var viewHeight = 750;
var sectionId = 'dynsection-0';
</script>
<script xlink:href="svgpan.js"/>
<svg id="graph" class="graph">
<g id="viewport">
<title>rdcu_sync_adaptive_param1</title>
<polygon fill="white" stroke="transparent" points="-4,4 -4,-746 1117,-746 1117,4 -4,4"/>
<!-- Node1 -->
<g id="node1" class="node">
<title>Node1</title>
<g id="a_node1"><a xlink:title="sync the Adaptive Parameter 1 (write only)">
<polygon fill="#bfbfbf" stroke="black" points="0,-581 0,-611 113,-611 113,-581 0,-581"/>
<text text-anchor="start" x="8" y="-599" font-family="Helvetica,sans-Serif" font-size="10.00">rdcu_sync_adaptive</text>
<text text-anchor="middle" x="56.5" y="-588" font-family="Helvetica,sans-Serif" font-size="10.00">_param1</text>
</a>
</g>
</g>
<!-- Node2 -->
<g id="node2" class="node">
<title>Node2</title>
<g id="a_node2"><a xlink:href="rdcu__rmap_8c_a533d1eb248d83ba3d406cefe7f3c9eb9.html#a533d1eb248d83ba3d406cefe7f3c9eb9" target="_top" xlink:title="submit a sync command">
<polygon fill="white" stroke="black" points="187.5,-608.5 187.5,-627.5 252.5,-627.5 252.5,-608.5 187.5,-608.5"/>
<text text-anchor="middle" x="220" y="-615.5" font-family="Helvetica,sans-Serif" font-size="10.00">rdcu_sync</text>
</a>
</g>
</g>
<!-- Node1&#45;&gt;Node2 -->
<g id="edge1" class="edge">
<title>Node1&#45;&gt;Node2</title>
<path fill="none" stroke="midnightblue" d="M113.08,-603.57C134.12,-606.44 157.69,-609.65 177.24,-612.31"/>
<polygon fill="midnightblue" stroke="midnightblue" points="176.98,-615.81 187.36,-613.69 177.92,-608.87 176.98,-615.81"/>
</g>
<!-- Node19 -->
<g id="node19" class="node">
<title>Node19</title>
<g id="a_node19"><a xlink:href="rdcu__cmd_8c_a2944d1828aac75e16575e1afe4a65855.html#a2944d1828aac75e16575e1afe4a65855" target="_top" xlink:title="create a command to write the RDCU adaptive parameter 1 register">
<polygon fill="white" stroke="black" points="149,-559 149,-589 291,-589 291,-559 149,-559"/>
<text text-anchor="start" x="157" y="-577" font-family="Helvetica,sans-Serif" font-size="10.00">rdcu_write_cmd_adaptive</text>
<text text-anchor="middle" x="220" y="-566" font-family="Helvetica,sans-Serif" font-size="10.00">_param1</text>
</a>
</g>
</g>
<!-- Node1&#45;&gt;Node19 -->
<g id="edge20" class="edge">
<title>Node1&#45;&gt;Node19</title>
<path fill="none" stroke="midnightblue" d="M113.08,-588.43C121.34,-587.3 130,-586.12 138.64,-584.95"/>
<polygon fill="midnightblue" stroke="midnightblue" points="139.33,-588.38 148.77,-583.57 138.39,-581.45 139.33,-588.38"/>
</g>
<!-- Node3 -->
<g id="node3" class="node">
<title>Node3</title>
<g id="a_node3"><a xlink:href="test__cmp__max__used__bits__list_8c_a7ac38fce3243a7dcf448301ee9ffd392.html#a7ac38fce3243a7dcf448301ee9ffd392" target="_top" xlink:title=" ">
<polygon fill="white" stroke="black" points="839,-418.5 839,-437.5 889,-437.5 889,-418.5 839,-418.5"/>
<text text-anchor="middle" x="864" y="-425.5" font-family="Helvetica,sans-Serif" font-size="10.00">malloc</text>
</a>
</g>
</g>
<!-- Node2&#45;&gt;Node3 -->
<g id="edge2" class="edge">
<title>Node2&#45;&gt;Node3</title>
<path fill="none" stroke="midnightblue" d="M252.69,-623.58C354.59,-640.83 672.1,-689.14 757,-637 826.21,-594.5 851.94,-491.2 859.91,-447.76"/>
<polygon fill="midnightblue" stroke="midnightblue" points="863.37,-448.3 861.61,-437.86 856.47,-447.12 863.37,-448.3"/>
</g>
<!-- Node4 -->
<g id="node4" class="node">
<title>Node4</title>
<g id="a_node4"><a xlink:href="rdcu__rmap_8c_a95fad3cd9b6bbe562e1a73e3f1c108a8.html#a95fad3cd9b6bbe562e1a73e3f1c108a8" target="_top" xlink:title="submit an rmap command transaction">
<polygon fill="white" stroke="black" points="349.5,-570.5 349.5,-589.5 441.5,-589.5 441.5,-570.5 349.5,-570.5"/>
<text text-anchor="middle" x="395.5" y="-577.5" font-family="Helvetica,sans-Serif" font-size="10.00">rdcu_submit_tx</text>
</a>
</g>
</g>
<!-- Node2&#45;&gt;Node4 -->
<g id="edge3" class="edge">
<title>Node2&#45;&gt;Node4</title>
<path fill="none" stroke="midnightblue" d="M252.82,-611.03C277.5,-605.63 312.25,-598.01 341.16,-591.68"/>
<polygon fill="midnightblue" stroke="midnightblue" points="342.1,-595.06 351.12,-589.5 340.6,-588.22 342.1,-595.06"/>
</g>
<!-- Node18 -->
<g id="node18" class="node">
<title>Node18</title>
<g id="a_node18"><a xlink:href="rdcu__rmap_8c_a36f44335aa66dd49fb4903f7269bc5b1.html#a36f44335aa66dd49fb4903f7269bc5b1" target="_top" xlink:title="grab a slot in the transaction log">
<polygon fill="white" stroke="black" points="339.5,-684.5 339.5,-703.5 451.5,-703.5 451.5,-684.5 339.5,-684.5"/>
<text text-anchor="middle" x="395.5" y="-691.5" font-family="Helvetica,sans-Serif" font-size="10.00">trans_log_grab_slot</text>
</a>
</g>
</g>
<!-- Node2&#45;&gt;Node18 -->
<g id="edge19" class="edge">
<title>Node2&#45;&gt;Node18</title>
<path fill="none" stroke="midnightblue" d="M239.09,-627.66C259.96,-638.63 295.46,-656.71 327,-670 336.19,-673.87 346.24,-677.67 355.71,-681.07"/>
<polygon fill="midnightblue" stroke="midnightblue" points="354.72,-684.43 365.32,-684.44 357.04,-677.82 354.72,-684.43"/>
</g>
<!-- Node5 -->
<g id="node5" class="node">
<title>Node5</title>
<g id="a_node5"><a xlink:href="rdcu__rmap_8c_a1a064554031c2fa2dcb65541e0765c0f.html#a1a064554031c2fa2dcb65541e0765c0f" target="_top" xlink:title="n rmap command transaction">
<polygon fill="white" stroke="black" points="500,-551.5 500,-570.5 595,-570.5 595,-551.5 500,-551.5"/>
<text text-anchor="middle" x="547.5" y="-558.5" font-family="Helvetica,sans-Serif" font-size="10.00">rdcu_process_rx</text>
</a>
</g>
</g>
<!-- Node4&#45;&gt;Node5 -->
<g id="edge4" class="edge">
<title>Node4&#45;&gt;Node5</title>
<path fill="none" stroke="midnightblue" d="M441.5,-574.3C456.65,-572.38 473.76,-570.21 489.69,-568.2"/>
<polygon fill="midnightblue" stroke="midnightblue" points="490.49,-571.62 499.97,-566.89 489.61,-564.68 490.49,-571.62"/>
</g>
<!-- Node5&#45;&gt;Node3 -->
<g id="edge5" class="edge">
<title>Node5&#45;&gt;Node3</title>
<path fill="none" stroke="midnightblue" d="M567.19,-551.49C583.7,-543.3 608.59,-531.49 631,-523 685.69,-502.27 702.97,-507.41 757,-485 786.25,-472.87 818.03,-455.12 839.08,-442.66"/>
<polygon fill="midnightblue" stroke="midnightblue" points="840.9,-445.65 847.68,-437.51 837.3,-439.65 840.9,-445.65"/>
</g>
<!-- Node6 -->
<g id="node6" class="node">
<title>Node6</title>
<g id="a_node6"><a xlink:href="rmap_8c_abf1868ec6873f9f189050cadc7e64a3b.html#abf1868ec6873f9f189050cadc7e64a3b" target="_top" xlink:title="calculate the CRC8 of a given buffer">
<polygon fill="white" stroke="black" points="660,-570.5 660,-589.5 728,-589.5 728,-570.5 660,-570.5"/>
<text text-anchor="middle" x="694" y="-577.5" font-family="Helvetica,sans-Serif" font-size="10.00">rmap_crc8</text>
</a>
</g>
</g>
<!-- Node5&#45;&gt;Node6 -->
<g id="edge6" class="edge">
<title>Node5&#45;&gt;Node6</title>
<path fill="none" stroke="midnightblue" d="M595.02,-567.12C612.51,-569.42 632.31,-572.02 649.52,-574.28"/>
<polygon fill="midnightblue" stroke="midnightblue" points="649.48,-577.81 659.85,-575.64 650.39,-570.87 649.48,-577.81"/>
</g>
<!-- Node7 -->
<g id="node7" class="node">
<title>Node7</title>
<g id="a_node7"><a xlink:href="rmap_8c_a1def9af549819e7fdbda12af8bdc9c0e.html#a1def9af549819e7fdbda12af8bdc9c0e" target="_top" xlink:title="completely destroys an RMAP packet">
<polygon fill="white" stroke="black" points="638,-456.5 638,-475.5 750,-475.5 750,-456.5 638,-456.5"/>
<text text-anchor="middle" x="694" y="-463.5" font-family="Helvetica,sans-Serif" font-size="10.00">rmap_erase_packet</text>
</a>
</g>
</g>
<!-- Node5&#45;&gt;Node7 -->
<g id="edge7" class="edge">
<title>Node5&#45;&gt;Node7</title>
<path fill="none" stroke="midnightblue" d="M557.8,-551.06C572.25,-536.11 601.5,-507.68 631,-490 637.75,-485.95 645.31,-482.36 652.76,-479.26"/>
<polygon fill="midnightblue" stroke="midnightblue" points="654.04,-482.52 662.07,-475.61 651.48,-476 654.04,-482.52"/>
</g>
<!-- Node8 -->
<g id="node8" class="node">
<title>Node8</title>
<g id="a_node8"><a xlink:href="rmap_8c_a5e88a29337404518eceedf9b4af285bf.html#a5e88a29337404518eceedf9b4af285bf" target="_top" xlink:title=" ">
<polygon fill="white" stroke="black" points="646.5,-684.5 646.5,-703.5 741.5,-703.5 741.5,-684.5 646.5,-684.5"/>
<text text-anchor="middle" x="694" y="-691.5" font-family="Helvetica,sans-Serif" font-size="10.00">rmap_parse_pkt</text>
</a>
</g>
</g>
<!-- Node5&#45;&gt;Node8 -->
<g id="edge8" class="edge">
<title>Node5&#45;&gt;Node8</title>
<path fill="none" stroke="midnightblue" d="M558.92,-570.6C574.56,-585.02 605.06,-613.13 631,-637 645.83,-650.65 662.66,-666.12 675.04,-677.5"/>
<polygon fill="midnightblue" stroke="midnightblue" points="672.73,-680.13 682.47,-684.32 677.47,-674.98 672.73,-680.13"/>
</g>
<!-- Node13 -->
<g id="node13" class="node">
<title>Node13</title>
<g id="a_node13"><a xlink:href="rmap_8c_a46d3271304c12df042b57dbebaba67e1.html#a46d3271304c12df042b57dbebaba67e1" target="_top" xlink:title="create an rmap packet from a buffer">
<polygon fill="white" stroke="black" points="631.5,-342.5 631.5,-361.5 756.5,-361.5 756.5,-342.5 631.5,-342.5"/>
<text text-anchor="middle" x="694" y="-349.5" font-family="Helvetica,sans-Serif" font-size="10.00">rmap_pkt_from_buffer</text>
</a>
</g>
</g>
<!-- Node5&#45;&gt;Node13 -->
<g id="edge13" class="edge">
<title>Node5&#45;&gt;Node13</title>
<path fill="none" stroke="midnightblue" d="M549.8,-551.48C554.52,-520.6 573.62,-422.28 631,-371 632.91,-369.29 634.97,-367.74 637.14,-366.33"/>
<polygon fill="midnightblue" stroke="midnightblue" points="638.84,-369.39 645.95,-361.54 635.49,-363.24 638.84,-369.39"/>
</g>
<!-- Node16 -->
<g id="node16" class="node">
<title>Node16</title>
<g id="a_node16"><a xlink:href="rdcu__rmap_8c_acf9b176d8d9b24e9d07711f56aebccc0.html#acf9b176d8d9b24e9d07711f56aebccc0" target="_top" xlink:title="get the local address for a slot">
<polygon fill="white" stroke="black" points="639,-532.5 639,-551.5 749,-551.5 749,-532.5 639,-532.5"/>
<text text-anchor="middle" x="694" y="-539.5" font-family="Helvetica,sans-Serif" font-size="10.00">trans_log_get_addr</text>
</a>
</g>
</g>
<!-- Node5&#45;&gt;Node16 -->
<g id="edge17" class="edge">
<title>Node5&#45;&gt;Node16</title>
<path fill="none" stroke="midnightblue" d="M595.02,-554.88C605.69,-553.48 617.23,-551.96 628.51,-550.48"/>
<polygon fill="midnightblue" stroke="midnightblue" points="629.31,-553.9 638.77,-549.13 628.4,-546.96 629.31,-553.9"/>
</g>
<!-- Node17 -->
<g id="node17" class="node">
<title>Node17</title>
<g id="a_node17"><a xlink:href="rdcu__rmap_8c_a7012f58a1862cf07b00e299d24c199c2.html#a7012f58a1862cf07b00e299d24c199c2" target="_top" xlink:title="release a slot in the transaction log">
<polygon fill="white" stroke="black" points="631,-608.5 631,-627.5 757,-627.5 757,-608.5 631,-608.5"/>
<text text-anchor="middle" x="694" y="-615.5" font-family="Helvetica,sans-Serif" font-size="10.00">trans_log_release_slot</text>
</a>
</g>
</g>
<!-- Node5&#45;&gt;Node17 -->
<g id="edge18" class="edge">
<title>Node5&#45;&gt;Node17</title>
<path fill="none" stroke="midnightblue" d="M567.52,-570.65C584.05,-578.82 608.75,-590.51 631,-599 636.87,-601.24 643.12,-603.4 649.31,-605.42"/>
<polygon fill="midnightblue" stroke="midnightblue" points="648.34,-608.78 658.93,-608.46 650.45,-602.11 648.34,-608.78"/>
</g>
<!-- Node9 -->
<g id="node9" class="node">
<title>Node9</title>
<g id="a_node9"><a xlink:href="rmap_8c_abb4e19c17c7223212c3904bc4c0189d2.html#abb4e19c17c7223212c3904bc4c0189d2" target="_top" xlink:title=" ">
<polygon fill="white" stroke="black" points="808.5,-684.5 808.5,-703.5 919.5,-703.5 919.5,-684.5 808.5,-684.5"/>
<text text-anchor="middle" x="864" y="-691.5" font-family="Helvetica,sans-Serif" font-size="10.00">rmap_check_status</text>
</a>
</g>
</g>
<!-- Node8&#45;&gt;Node9 -->
<g id="edge9" class="edge">
<title>Node8&#45;&gt;Node9</title>
<path fill="none" stroke="midnightblue" d="M741.8,-694C759.33,-694 779.57,-694 798.42,-694"/>
<polygon fill="midnightblue" stroke="midnightblue" points="798.43,-697.5 808.43,-694 798.43,-690.5 798.43,-697.5"/>
</g>
<!-- Node10 -->
<g id="node10" class="node">
<title>Node10</title>
<g id="a_node10"><a xlink:href="rmap_8c_a20aa8b91dfb1bbad819759f97b853054.html#a20aa8b91dfb1bbad819759f97b853054" target="_top" xlink:title=" ">
<polygon fill="white" stroke="black" points="803,-646.5 803,-665.5 925,-665.5 925,-646.5 803,-646.5"/>
<text text-anchor="middle" x="864" y="-653.5" font-family="Helvetica,sans-Serif" font-size="10.00">rmap_parse_cmd_pkt</text>
</a>
</g>
</g>
<!-- Node8&#45;&gt;Node10 -->
<g id="edge10" class="edge">
<title>Node8&#45;&gt;Node10</title>
<path fill="none" stroke="midnightblue" d="M737.39,-684.41C759.76,-679.35 787.4,-673.1 811.05,-667.75"/>
<polygon fill="midnightblue" stroke="midnightblue" points="811.93,-671.14 820.91,-665.52 810.39,-664.31 811.93,-671.14"/>
</g>
<!-- Node11 -->
<g id="node11" class="node">
<title>Node11</title>
<g id="a_node11"><a xlink:href="rmap_8c_adef42426b46ee5ad5176ee76cff35c22.html#adef42426b46ee5ad5176ee76cff35c22" target="_top" xlink:title=" ">
<polygon fill="white" stroke="black" points="801.5,-722.5 801.5,-741.5 926.5,-741.5 926.5,-722.5 801.5,-722.5"/>
<text text-anchor="middle" x="864" y="-729.5" font-family="Helvetica,sans-Serif" font-size="10.00">rmap_parse_reply_pkt</text>
</a>
</g>
</g>
<!-- Node8&#45;&gt;Node11 -->
<g id="edge11" class="edge">
<title>Node8&#45;&gt;Node11</title>
<path fill="none" stroke="midnightblue" d="M737.39,-703.59C759.76,-708.65 787.4,-714.9 811.05,-720.25"/>
<polygon fill="midnightblue" stroke="midnightblue" points="810.39,-723.69 820.91,-722.48 811.93,-716.86 810.39,-723.69"/>
</g>
<!-- Node12 -->
<g id="node12" class="node">
<title>Node12</title>
<g id="a_node12"><a xlink:href="rmap_8c_a2ff278a5e094a9f585865d4d838e0e0e.html#a2ff278a5e094a9f585865d4d838e0e0e" target="_top" xlink:title=" ">
<polygon fill="white" stroke="black" points="971,-722.5 971,-741.5 1113,-741.5 1113,-722.5 971,-722.5"/>
<text text-anchor="middle" x="1042" y="-729.5" font-family="Helvetica,sans-Serif" font-size="10.00">rmap_process_read_reply</text>
</a>
</g>
</g>
<!-- Node11&#45;&gt;Node12 -->
<g id="edge12" class="edge">
<title>Node11&#45;&gt;Node12</title>
<path fill="none" stroke="midnightblue" d="M926.56,-732C937.6,-732 949.25,-732 960.73,-732"/>
<polygon fill="midnightblue" stroke="midnightblue" points="960.74,-735.5 970.74,-732 960.74,-728.5 960.74,-735.5"/>
</g>
<!-- Node13&#45;&gt;Node3 -->
<g id="edge14" class="edge">
<title>Node13&#45;&gt;Node3</title>
<path fill="none" stroke="midnightblue" d="M730.51,-361.57C739.29,-364.3 748.58,-367.49 757,-371 786.06,-383.13 817.64,-400.73 838.7,-413.16"/>
<polygon fill="midnightblue" stroke="midnightblue" points="836.94,-416.18 847.32,-418.3 840.52,-410.17 836.94,-416.18"/>
</g>
<!-- Node14 -->
<g id="node14" class="node">
<title>Node14</title>
<g id="a_node14"><a xlink:href="rmap_8c_aba944cf978de0b264ea5bb3a784bce0f.html#aba944cf978de0b264ea5bb3a784bce0f" target="_top" xlink:title="create an RMAP packet and set defaults">
<polygon fill="white" stroke="black" points="806,-228.5 806,-247.5 922,-247.5 922,-228.5 806,-228.5"/>
<text text-anchor="middle" x="864" y="-235.5" font-family="Helvetica,sans-Serif" font-size="10.00">rmap_create_packet</text>
</a>
</g>
</g>
<!-- Node13&#45;&gt;Node14 -->
<g id="edge15" class="edge">
<title>Node13&#45;&gt;Node14</title>
<path fill="none" stroke="midnightblue" d="M735.42,-342.4C742.83,-339.87 750.33,-336.76 757,-333 794.04,-312.08 829.2,-276.34 848.26,-255.17"/>
<polygon fill="midnightblue" stroke="midnightblue" points="850.96,-257.39 854.96,-247.58 845.72,-252.75 850.96,-257.39"/>
</g>
<!-- Node15 -->
<g id="node15" class="node">
<title>Node15</title>
<g id="a_node15"><a xlink:href="rmap_8c_a0ec3c28e83818f02e00d4c79d82d938a.html#a0ec3c28e83818f02e00d4c79d82d938a" target="_top" xlink:title="get the minimum header size given the RMAP instruction">
<polygon fill="white" stroke="black" points="797.5,-133.5 797.5,-152.5 930.5,-152.5 930.5,-133.5 797.5,-133.5"/>
<text text-anchor="middle" x="864" y="-140.5" font-family="Helvetica,sans-Serif" font-size="10.00">rmap_get_min_hdr_size</text>
</a>
</g>
</g>
<!-- Node13&#45;&gt;Node15 -->
<g id="edge16" class="edge">
<title>Node13&#45;&gt;Node15</title>
<path fill="none" stroke="midnightblue" d="M743.37,-342.44C748.39,-339.98 753.08,-336.88 757,-333 794.73,-295.59 766.36,-264.97 793,-219 806.48,-195.74 828.17,-173.66 843.83,-159.36"/>
<polygon fill="midnightblue" stroke="midnightblue" points="846.26,-161.89 851.4,-152.62 841.6,-156.66 846.26,-161.89"/>
</g>
<!-- Node20 -->
<g id="node20" class="node">
<title>Node20</title>
<g id="a_node20"><a xlink:href="rdcu__cmd_8c_a690d79ff983a96fdd40db6396e9c70e9.html#a690d79ff983a96fdd40db6396e9c70e9" target="_top" xlink:title="generate a write command for an arbitrary register (internal)">
<polygon fill="white" stroke="black" points="327,-353 327,-383 464,-383 464,-353 327,-353"/>
<text text-anchor="start" x="335" y="-371" font-family="Helvetica,sans-Serif" font-size="10.00">rdcu_write_cmd_register</text>
<text text-anchor="middle" x="395.5" y="-360" font-family="Helvetica,sans-Serif" font-size="10.00">_internal</text>
</a>
</g>
</g>
<!-- Node19&#45;&gt;Node20 -->
<g id="edge21" class="edge">
<title>Node19&#45;&gt;Node20</title>
<path fill="none" stroke="midnightblue" d="M233.76,-558.85C263.84,-523.14 339.35,-433.48 375.12,-391.01"/>
<polygon fill="midnightblue" stroke="midnightblue" points="377.96,-393.07 381.72,-383.17 372.6,-388.56 377.96,-393.07"/>
</g>
<!-- Node21 -->
<g id="node21" class="node">
<title>Node21</title>
<g id="a_node21"><a xlink:href="rdcu__rmap_8c_ab224927e85a7cec5b6f90292c7de36c4.html#ab224927e85a7cec5b6f90292c7de36c4" target="_top" xlink:title="generate an rmap command packet">
<polygon fill="white" stroke="black" points="504,-228.5 504,-247.5 591,-247.5 591,-228.5 504,-228.5"/>
<text text-anchor="middle" x="547.5" y="-235.5" font-family="Helvetica,sans-Serif" font-size="10.00">rdcu_gen_cmd</text>
</a>
</g>
</g>
<!-- Node20&#45;&gt;Node21 -->
<g id="edge22" class="edge">
<title>Node20&#45;&gt;Node21</title>
<path fill="none" stroke="midnightblue" d="M414,-352.83C442.42,-328.21 498.36,-279.72 527.63,-254.35"/>
<polygon fill="midnightblue" stroke="midnightblue" points="530.2,-256.76 535.47,-247.56 525.62,-251.47 530.2,-256.76"/>
</g>
<!-- Node21&#45;&gt;Node7 -->
<g id="edge26" class="edge">
<title>Node21&#45;&gt;Node7</title>
<path fill="none" stroke="midnightblue" d="M549.38,-247.52C552.93,-280.34 569.12,-389.81 631,-447 632.71,-448.58 634.55,-450.03 636.49,-451.37"/>
<polygon fill="midnightblue" stroke="midnightblue" points="635.08,-454.59 645.51,-456.46 638.53,-448.49 635.08,-454.59"/>
</g>
<!-- Node21&#45;&gt;Node14 -->
<g id="edge25" class="edge">
<title>Node21&#45;&gt;Node14</title>
<path fill="none" stroke="midnightblue" d="M553.23,-228.34C563.82,-207.96 591.65,-160.95 631,-143 681.95,-119.76 704.7,-122.99 757,-143 797.34,-158.43 832.01,-197.08 849.95,-220.05"/>
<polygon fill="midnightblue" stroke="midnightblue" points="847.35,-222.42 856.18,-228.27 852.93,-218.19 847.35,-222.42"/>
</g>
<!-- Node22 -->
<g id="node22" class="node">
<title>Node22</title>
<g id="a_node22"><a xlink:href="rmap_8c_aa17375d153cc3473cbbe4dfe1056c527.html#aa17375d153cc3473cbbe4dfe1056c527" target="_top" xlink:title="build an rmap header">
<polygon fill="white" stroke="black" points="648,-76.5 648,-95.5 740,-95.5 740,-76.5 648,-76.5"/>
<text text-anchor="middle" x="694" y="-83.5" font-family="Helvetica,sans-Serif" font-size="10.00">rmap_build_hdr</text>
</a>
</g>
</g>
<!-- Node21&#45;&gt;Node22 -->
<g id="edge23" class="edge">
<title>Node21&#45;&gt;Node22</title>
<path fill="none" stroke="midnightblue" d="M552.29,-228.17C561.9,-204.53 589.4,-143.91 631,-110 635.99,-105.93 641.75,-102.5 647.71,-99.61"/>
<polygon fill="midnightblue" stroke="midnightblue" points="649.36,-102.71 657.15,-95.52 646.58,-96.29 649.36,-102.71"/>
</g>
<!-- Node23 -->
<g id="node23" class="node">
<title>Node23</title>
<g id="a_node23"><a xlink:href="rmap_8c_aab7e23f061291d39568ad2df700bc777.html#aab7e23f061291d39568ad2df700bc777" target="_top" xlink:title="set an RMAP command">
<polygon fill="white" stroke="black" points="649.5,-38.5 649.5,-57.5 738.5,-57.5 738.5,-38.5 649.5,-38.5"/>
<text text-anchor="middle" x="694" y="-45.5" font-family="Helvetica,sans-Serif" font-size="10.00">rmap_set_cmd</text>
</a>
</g>
</g>
<!-- Node21&#45;&gt;Node23 -->
<g id="edge27" class="edge">
<title>Node21&#45;&gt;Node23</title>
<path fill="none" stroke="midnightblue" d="M550.36,-228.21C556.4,-199.09 578.23,-112.3 631,-67 633.81,-64.58 636.93,-62.48 640.22,-60.64"/>
<polygon fill="midnightblue" stroke="midnightblue" points="641.72,-63.8 649.27,-56.36 638.74,-57.47 641.72,-63.8"/>
</g>
<!-- Node25 -->
<g id="node25" class="node">
<title>Node25</title>
<g id="a_node25"><a xlink:href="rmap_8c_acf641aae92829ae864b6c3d8f94d86e2.html#acf641aae92829ae864b6c3d8f94d86e2" target="_top" xlink:title="set a data address">
<polygon fill="white" stroke="black" points="636,-228.5 636,-247.5 752,-247.5 752,-228.5 636,-228.5"/>
<text text-anchor="middle" x="694" y="-235.5" font-family="Helvetica,sans-Serif" font-size="10.00">rmap_set_data_addr</text>
</a>
</g>
</g>
<!-- Node21&#45;&gt;Node25 -->
<g id="edge29" class="edge">
<title>Node21&#45;&gt;Node25</title>
<path fill="none" stroke="midnightblue" d="M591.07,-238C601.95,-238 613.92,-238 625.72,-238"/>
<polygon fill="midnightblue" stroke="midnightblue" points="626,-241.5 636,-238 626,-234.5 626,-241.5"/>
</g>
<!-- Node26 -->
<g id="node26" class="node">
<title>Node26</title>
<g id="a_node26"><a xlink:href="rmap_8c_a6833f065640f652aa1a929309e592f7a.html#a6833f065640f652aa1a929309e592f7a" target="_top" xlink:title="set an RMAP command">
<polygon fill="white" stroke="black" points="639,-190.5 639,-209.5 749,-209.5 749,-190.5 639,-190.5"/>
<text text-anchor="middle" x="694" y="-197.5" font-family="Helvetica,sans-Serif" font-size="10.00">rmap_set_data_len</text>
</a>
</g>
</g>
<!-- Node21&#45;&gt;Node26 -->
<g id="edge30" class="edge">
<title>Node21&#45;&gt;Node26</title>
<path fill="none" stroke="midnightblue" d="M584.96,-228.41C603.77,-223.46 626.91,-217.38 646.95,-212.11"/>
<polygon fill="midnightblue" stroke="midnightblue" points="648.02,-215.45 656.8,-209.52 646.24,-208.68 648.02,-215.45"/>
</g>
<!-- Node27 -->
<g id="node27" class="node">
<title>Node27</title>
<g id="a_node27"><a xlink:href="rmap_8c_a5f0081b9928da5e50fc8b231b57f3a80.html#a5f0081b9928da5e50fc8b231b57f3a80" target="_top" xlink:title="set the destination address path">
<polygon fill="white" stroke="black" points="636,-418.5 636,-437.5 752,-437.5 752,-418.5 636,-418.5"/>
<text text-anchor="middle" x="694" y="-425.5" font-family="Helvetica,sans-Serif" font-size="10.00">rmap_set_dest_path</text>
</a>
</g>
</g>
<!-- Node21&#45;&gt;Node27 -->
<g id="edge31" class="edge">
<title>Node21&#45;&gt;Node27</title>
<path fill="none" stroke="midnightblue" d="M550.36,-247.79C556.4,-276.91 578.23,-363.7 631,-409 632.98,-410.7 635.11,-412.25 637.35,-413.66"/>
<polygon fill="midnightblue" stroke="midnightblue" points="635.93,-416.87 646.41,-418.44 639.2,-410.68 635.93,-416.87"/>
</g>
<!-- Node28 -->
<g id="node28" class="node">
<title>Node28</title>
<g id="a_node28"><a xlink:href="rmap_8c_a2da8e7b48411d382b54848795f85795d.html#a2da8e7b48411d382b54848795f85795d" target="_top" xlink:title="set the destination (target) logical address">
<polygon fill="white" stroke="black" points="652.5,-152.5 652.5,-171.5 735.5,-171.5 735.5,-152.5 652.5,-152.5"/>
<text text-anchor="middle" x="694" y="-159.5" font-family="Helvetica,sans-Serif" font-size="10.00">rmap_set_dst</text>
</a>
</g>
</g>
<!-- Node21&#45;&gt;Node28 -->
<g id="edge33" class="edge">
<title>Node21&#45;&gt;Node28</title>
<path fill="none" stroke="midnightblue" d="M559.82,-228.48C575.1,-216.04 603.58,-194.28 631,-181 635.63,-178.76 640.58,-176.71 645.6,-174.86"/>
<polygon fill="midnightblue" stroke="midnightblue" points="646.92,-178.1 655.24,-171.54 644.65,-171.48 646.92,-178.1"/>
</g>
<!-- Node29 -->
<g id="node29" class="node">
<title>Node29</title>
<g id="a_node29"><a xlink:href="rmap_8c_a15021c9dfccddc44786dfd37834bcd7e.html#a15021c9dfccddc44786dfd37834bcd7e" target="_top" xlink:title="set the command authorisation key">
<polygon fill="white" stroke="black" points="651.5,-0.5 651.5,-19.5 736.5,-19.5 736.5,-0.5 651.5,-0.5"/>
<text text-anchor="middle" x="694" y="-7.5" font-family="Helvetica,sans-Serif" font-size="10.00">rmap_set_key</text>
</a>
</g>
</g>
<!-- Node21&#45;&gt;Node29 -->
<g id="edge34" class="edge">
<title>Node21&#45;&gt;Node29</title>
<path fill="none" stroke="midnightblue" d="M549.38,-228.48C552.93,-195.66 569.12,-86.19 631,-29 634.21,-26.03 637.87,-23.53 641.77,-21.42"/>
<polygon fill="midnightblue" stroke="midnightblue" points="643.54,-24.46 651.22,-17.16 640.66,-18.08 643.54,-24.46"/>
</g>
<!-- Node30 -->
<g id="node30" class="node">
<title>Node30</title>
<g id="a_node30"><a xlink:href="rmap_8c_a56c47830e67d01e469231e5e7e1d3a34.html#a56c47830e67d01e469231e5e7e1d3a34" target="_top" xlink:title="set the reply address path">
<polygon fill="white" stroke="black" points="634.5,-380.5 634.5,-399.5 753.5,-399.5 753.5,-380.5 634.5,-380.5"/>
<text text-anchor="middle" x="694" y="-387.5" font-family="Helvetica,sans-Serif" font-size="10.00">rmap_set_reply_path</text>
</a>
</g>
</g>
<!-- Node21&#45;&gt;Node30 -->
<g id="edge35" class="edge">
<title>Node21&#45;&gt;Node30</title>
<path fill="none" stroke="midnightblue" d="M551.76,-247.68C560.52,-272.17 586.88,-337 631,-371 633.34,-372.8 635.85,-374.44 638.48,-375.92"/>
<polygon fill="midnightblue" stroke="midnightblue" points="637.22,-379.19 647.75,-380.38 640.25,-372.89 637.22,-379.19"/>
</g>
<!-- Node31 -->
<g id="node31" class="node">
<title>Node31</title>
<g id="a_node31"><a xlink:href="rmap_8c_adae0030440ca4e7ad34622e505acbb2c.html#adae0030440ca4e7ad34622e505acbb2c" target="_top" xlink:title="set the source (initiator) logical address">
<polygon fill="white" stroke="black" points="653,-304.5 653,-323.5 735,-323.5 735,-304.5 653,-304.5"/>
<text text-anchor="middle" x="694" y="-311.5" font-family="Helvetica,sans-Serif" font-size="10.00">rmap_set_src</text>
</a>
</g>
</g>
<!-- Node21&#45;&gt;Node31 -->
<g id="edge37" class="edge">
<title>Node21&#45;&gt;Node31</title>
<path fill="none" stroke="midnightblue" d="M559.82,-247.52C575.1,-259.96 603.58,-281.72 631,-295 635.63,-297.24 640.58,-299.29 645.6,-301.14"/>
<polygon fill="midnightblue" stroke="midnightblue" points="644.65,-304.52 655.24,-304.46 646.92,-297.9 644.65,-304.52"/>
</g>
<!-- Node32 -->
<g id="node32" class="node">
<title>Node32</title>
<g id="a_node32"><a xlink:href="rmap_8c_a7b4c31714493ce6cc19d4aa825ab50aa.html#a7b4c31714493ce6cc19d4aa825ab50aa" target="_top" xlink:title="set an RMAP transaction identifier">
<polygon fill="white" stroke="black" points="649.5,-266.5 649.5,-285.5 738.5,-285.5 738.5,-266.5 649.5,-266.5"/>
<text text-anchor="middle" x="694" y="-273.5" font-family="Helvetica,sans-Serif" font-size="10.00">rmap_set_tr_id</text>
</a>
</g>
</g>
<!-- Node21&#45;&gt;Node32 -->
<g id="edge38" class="edge">
<title>Node21&#45;&gt;Node32</title>
<path fill="none" stroke="midnightblue" d="M584.96,-247.59C603.77,-252.54 626.91,-258.62 646.95,-263.89"/>
<polygon fill="midnightblue" stroke="midnightblue" points="646.24,-267.32 656.8,-266.48 648.02,-260.55 646.24,-267.32"/>
</g>
<!-- Node22&#45;&gt;Node15 -->
<g id="edge24" class="edge">
<title>Node22&#45;&gt;Node15</title>
<path fill="none" stroke="midnightblue" d="M723.12,-95.54C751.1,-105.03 794.23,-119.67 825.2,-130.17"/>
<polygon fill="midnightblue" stroke="midnightblue" points="824.19,-133.53 834.79,-133.43 826.44,-126.9 824.19,-133.53"/>
</g>
<!-- Node24 -->
<g id="node24" class="node">
<title>Node24</title>
<g id="a_node24"><a xlink:href="rmap_8c_a667ce871110961f2a611d0244791e20f.html#a667ce871110961f2a611d0244791e20f" target="_top" xlink:title="valiidates a command code">
<polygon fill="white" stroke="black" points="793,-38.5 793,-57.5 935,-57.5 935,-38.5 793,-38.5"/>
<text text-anchor="middle" x="864" y="-45.5" font-family="Helvetica,sans-Serif" font-size="10.00">rmap_validate_cmd_code</text>
</a>
</g>
</g>
<!-- Node23&#45;&gt;Node24 -->
<g id="edge28" class="edge">
<title>Node23&#45;&gt;Node24</title>
<path fill="none" stroke="midnightblue" d="M738.7,-48C752.13,-48 767.36,-48 782.44,-48"/>
<polygon fill="midnightblue" stroke="midnightblue" points="782.83,-51.5 792.83,-48 782.83,-44.5 782.83,-51.5"/>
</g>
<!-- Node27&#45;&gt;Node3 -->
<g id="edge32" class="edge">
<title>Node27&#45;&gt;Node3</title>
<path fill="none" stroke="midnightblue" d="M752.35,-428C777.67,-428 806.6,-428 828.52,-428"/>
<polygon fill="midnightblue" stroke="midnightblue" points="828.68,-431.5 838.68,-428 828.68,-424.5 828.68,-431.5"/>
</g>
<!-- Node30&#45;&gt;Node3 -->
<g id="edge36" class="edge">
<title>Node30&#45;&gt;Node3</title>
<path fill="none" stroke="midnightblue" d="M737.39,-399.59C765.71,-405.99 802.47,-414.31 828.9,-420.29"/>
<polygon fill="midnightblue" stroke="midnightblue" points="828.3,-423.74 838.83,-422.53 829.85,-416.91 828.3,-423.74"/>
</g>
</g>
</svg>
        <g id="navigator" transform="translate(0 0)" fill="#404254">
                <rect fill="#f2f5e9" fill-opacity="0.5" stroke="#606060" stroke-width=".5" x="0" y="0" width="60" height="60"/>
                <use id="zoomplus" xlink:href="#zoomPlus" x="17" y="9" onmousedown="handleZoom(evt,'in')"/>
                <use id="zoomminus" xlink:href="#zoomMin" x="42" y="9" onmousedown="handleZoom(evt,'out')"/>
                <use id="reset" xlink:href="#resetDef" x="30" y="36" onmousedown="handleReset()"/>
                <g id="arrowUp" xlink:href="#dirArrow" transform="translate(30 24)" onmousedown="handlePan(0,-1)">
                  <use xlink:href="#rim" fill="#404040">
                        <set attributeName="fill" to="#808080" begin="arrowUp.mouseover" end="arrowUp.mouseout"/>
                  </use>
                  <path fill="none" stroke="white" stroke-width="1.5" d="M0,-3.0v7 M-2.5,-0.5L0,-3.0L2.5,-0.5"/>
                </g>
                <g id="arrowRight" xlink:href="#dirArrow" transform="rotate(90) translate(36 -43)" onmousedown="handlePan(1,0)">
                  <use xlink:href="#rim" fill="#404040">
                        <set attributeName="fill" to="#808080" begin="arrowRight.mouseover" end="arrowRight.mouseout"/>
                  </use>
                  <path fill="none" stroke="white" stroke-width="1.5" d="M0,-3.0v7 M-2.5,-0.5L0,-3.0L2.5,-0.5"/>
                </g>
                <g id="arrowDown" xlink:href="#dirArrow" transform="rotate(180) translate(-30 -48)" onmousedown="handlePan(0,1)">
                  <use xlink:href="#rim" fill="#404040">
                        <set attributeName="fill" to="#808080" begin="arrowDown.mouseover" end="arrowDown.mouseout"/>
                  </use>
                  <path fill="none" stroke="white" stroke-width="1.5" d="M0,-3.0v7 M-2.5,-0.5L0,-3.0L2.5,-0.5"/>
                </g>
                <g id="arrowLeft" xlink:href="#dirArrow" transform="rotate(270) translate(-36 17)" onmousedown="handlePan(-1,0)">
                  <use xlink:href="#rim" fill="#404040">
                        <set attributeName="fill" to="#808080" begin="arrowLeft.mouseover" end="arrowLeft.mouseout"/>
                  </use>
                  <path fill="none" stroke="white" stroke-width="1.5" d="M0,-3.0v7 M-2.5,-0.5L0,-3.0L2.5,-0.5"/>
                </g>
        </g>
        <svg viewBox="0 0 15 15" width="100%" height="30px" preserveAspectRatio="xMaxYMin meet">
         <g id="arrow_out" transform="scale(0.3 0.3)">
          <a xlink:href="rdcu__ctrl_8h_a250b39548d74140e0325d1ab0cb15d06_a250b39548d74140e0325d1ab0cb15d06_cgraph_org.svg" target="_base">
           <rect id="button" ry="5" rx="5" y="6" x="6" height="38" width="38"
                fill="#f2f5e9" fill-opacity="0.5" stroke="#606060" stroke-width="1.0"/>
           <path id="arrow"
             d="M 11.500037,31.436501 C 11.940474,20.09759 22.043105,11.32322 32.158766,21.979434 L 37.068811,17.246167 C 37.068811,17.246167 37.088388,32 37.088388,32 L 22.160133,31.978069 C 22.160133,31.978069 26.997745,27.140456 26.997745,27.140456 C 18.528582,18.264221 13.291696,25.230495 11.500037,31.436501 z"
             style="fill:#404040;"/>
          </a>
         </g>
        </svg>
</svg>
