<?xml version="1.0" encoding="UTF-8" standalone="no"?>
<!DOCTYPE svg PUBLIC "-//W3C//DTD SVG 1.1//EN"
 "http://www.w3.org/Graphics/SVG/1.1/DTD/svg11.dtd">
<!-- Generated by graphviz version 2.43.0 (0)
 -->
<!-- Title: bit_peek_leading_ones Pages: 1 -->
<svg width="1680pt" height="792pt"
 viewBox="0.00 0.00 1680.00 791.50" xmlns="http://www.w3.org/2000/svg" xmlns:xlink="http://www.w3.org/1999/xlink">
<g id="graph0" class="graph" transform="scale(1 1) rotate(0) translate(4 787.5)">
<title>bit_peek_leading_ones</title>
<polygon fill="white" stroke="transparent" points="-4,4 -4,-787.5 1676,-787.5 1676,4 -4,4"/>
<!-- Node1 -->
<g id="node1" class="node">
<title>Node1</title>
<g id="a_node1"><a xlink:title="count the leading ones in the local register; local register is not modified">
<polygon fill="#bfbfbf" stroke="black" points="1544,-354.5 1544,-373.5 1672,-373.5 1672,-354.5 1544,-354.5"/>
<text text-anchor="middle" x="1608" y="-361.5" font-family="Helvetica,sans-Serif" font-size="10.00">bit_peek_leading_ones</text>
</a>
</g>
</g>
<!-- Node2 -->
<g id="node2" class="node">
<title>Node2</title>
<g id="a_node2"><a xlink:href="decmp_8c_ad77fca4bf62b97dc9fe6edabb0086709.html#ad77fca4bf62b97dc9fe6edabb0086709" target="_top" xlink:title="decode the next unary code word in the bitstream">
<polygon fill="white" stroke="black" points="1419,-354.5 1419,-373.5 1508,-373.5 1508,-354.5 1419,-354.5"/>
<text text-anchor="middle" x="1463.5" y="-361.5" font-family="Helvetica,sans-Serif" font-size="10.00">unary_decoder</text>
</a>
</g>
</g>
<!-- Node1&#45;&gt;Node2 -->
<g id="edge1" class="edge">
<title>Node1&#45;&gt;Node2</title>
<path fill="none" stroke="midnightblue" d="M1533.47,-364C1524.77,-364 1516.11,-364 1508.02,-364"/>
<polygon fill="midnightblue" stroke="midnightblue" points="1533.67,-367.5 1543.67,-364 1533.67,-360.5 1533.67,-367.5"/>
</g>
<!-- Node3 -->
<g id="node3" class="node">
<title>Node3</title>
<g id="a_node3"><a xlink:href="decmp_8c_ab8ea64d46b8170dc65694e3d0dec64ff.html#ab8ea64d46b8170dc65694e3d0dec64ff" target="_top" xlink:title="decode the next Golomb code word in the bitstream">
<polygon fill="white" stroke="black" points="1277.5,-411.5 1277.5,-430.5 1375.5,-430.5 1375.5,-411.5 1277.5,-411.5"/>
<text text-anchor="middle" x="1326.5" y="-418.5" font-family="Helvetica,sans-Serif" font-size="10.00">golomb_decoder</text>
</a>
</g>
</g>
<!-- Node2&#45;&gt;Node3 -->
<g id="edge2" class="edge">
<title>Node2&#45;&gt;Node3</title>
<path fill="none" stroke="midnightblue" d="M1430.58,-377.48C1405.85,-387.92 1372.2,-402.13 1350.17,-411.43"/>
<polygon fill="midnightblue" stroke="midnightblue" points="1432.05,-380.65 1439.9,-373.54 1429.33,-374.21 1432.05,-380.65"/>
</g>
<!-- Node4 -->
<g id="node4" class="node">
<title>Node4</title>
<g id="a_node4"><a xlink:href="decmp_8c_ac57439dd4b34cf8fb663756f2b7b2549.html#ac57439dd4b34cf8fb663756f2b7b2549" target="_top" xlink:title="select the decoder based on the used Golomb parameter">
<polygon fill="white" stroke="black" points="1128,-373.5 1128,-392.5 1218,-392.5 1218,-373.5 1128,-373.5"/>
<text text-anchor="middle" x="1173" y="-380.5" font-family="Helvetica,sans-Serif" font-size="10.00">select_decoder</text>
</a>
</g>
</g>
<!-- Node2&#45;&gt;Node4 -->
<g id="edge58" class="edge">
<title>Node2&#45;&gt;Node4</title>
<path fill="none" stroke="midnightblue" d="M1408.76,-367.54C1353.85,-371.16 1269.56,-376.71 1218.33,-380.08"/>
<polygon fill="midnightblue" stroke="midnightblue" points="1409.25,-371.01 1419,-366.87 1408.79,-364.03 1409.25,-371.01"/>
</g>
<!-- Node37 -->
<g id="node37" class="node">
<title>Node37</title>
<g id="a_node37"><a xlink:href="test__decmp_8c_a478c7a73858ab89879bbf135b15af825.html#a478c7a73858ab89879bbf135b15af825" target="_top" xlink:title=" ">
<polygon fill="white" stroke="black" points="950,-411.5 950,-430.5 1064,-430.5 1064,-411.5 950,-411.5"/>
<text text-anchor="middle" x="1007" y="-418.5" font-family="Helvetica,sans-Serif" font-size="10.00">test_select_decoder</text>
</a>
</g>
</g>
<!-- Node2&#45;&gt;Node37 -->
<g id="edge60" class="edge">
<title>Node2&#45;&gt;Node37</title>
<path fill="none" stroke="midnightblue" d="M1448.64,-381.77C1434.12,-399.17 1409.73,-425.18 1383,-440 1323.23,-473.14 1301.81,-469.49 1234,-478 1180.2,-484.75 1164.53,-491.45 1112,-478 1076.1,-468.81 1039.27,-444.36 1020.56,-430.66"/>
<polygon fill="midnightblue" stroke="midnightblue" points="1451.72,-383.53 1455.3,-373.55 1446.28,-379.12 1451.72,-383.53"/>
</g>
<!-- Node39 -->
<g id="node39" class="node">
<title>Node39</title>
<g id="a_node39"><a xlink:href="decmp_8c_a31e9c3bcbe70648b659fe3c8f4383045.html#a31e9c3bcbe70648b659fe3c8f4383045" target="_top" xlink:title="decode the next Rice code word in the bitstream">
<polygon fill="white" stroke="black" points="1287,-335.5 1287,-354.5 1366,-354.5 1366,-335.5 1287,-335.5"/>
<text text-anchor="middle" x="1326.5" y="-342.5" font-family="Helvetica,sans-Serif" font-size="10.00">rice_decoder</text>
</a>
</g>
</g>
<!-- Node2&#45;&gt;Node39 -->
<g id="edge54" class="edge">
<title>Node2&#45;&gt;Node39</title>
<path fill="none" stroke="midnightblue" d="M1408.52,-356.4C1394.33,-354.41 1379.31,-352.29 1366.11,-350.43"/>
<polygon fill="midnightblue" stroke="midnightblue" points="1408.28,-359.9 1418.67,-357.83 1409.25,-352.97 1408.28,-359.9"/>
</g>
<!-- Node40 -->
<g id="node40" class="node">
<title>Node40</title>
<g id="a_node40"><a xlink:href="test__decmp_8c_aa52255926b8c88fd9fd5bc1c1cfd91c7.html#aa52255926b8c88fd9fd5bc1c1cfd91c7" target="_top" xlink:title=" ">
<polygon fill="white" stroke="black" points="1121.5,-297.5 1121.5,-316.5 1224.5,-316.5 1224.5,-297.5 1121.5,-297.5"/>
<text text-anchor="middle" x="1173" y="-304.5" font-family="Helvetica,sans-Serif" font-size="10.00">test_rice_decoder</text>
</a>
</g>
</g>
<!-- Node2&#45;&gt;Node40 -->
<g id="edge59" class="edge">
<title>Node2&#45;&gt;Node40</title>
<path fill="none" stroke="midnightblue" d="M1437.91,-349.44C1422.64,-341.11 1402.3,-331.31 1383,-326 1330.3,-311.51 1267.61,-307.48 1224.72,-306.62"/>
<polygon fill="midnightblue" stroke="midnightblue" points="1436.28,-352.53 1446.71,-354.37 1439.71,-346.43 1436.28,-352.53"/>
</g>
<!-- Node41 -->
<g id="node41" class="node">
<title>Node41</title>
<g id="a_node41"><a xlink:href="test__decmp_8c_aa857ec2d75bb58526fdb946f733f4551.html#aa857ec2d75bb58526fdb946f733f4551" target="_top" xlink:title=" ">
<polygon fill="white" stroke="black" points="1270,-259.5 1270,-278.5 1383,-278.5 1383,-259.5 1270,-259.5"/>
<text text-anchor="middle" x="1326.5" y="-266.5" font-family="Helvetica,sans-Serif" font-size="10.00">test_unary_decoder</text>
</a>
</g>
</g>
<!-- Node2&#45;&gt;Node41 -->
<g id="edge61" class="edge">
<title>Node2&#45;&gt;Node41</title>
<path fill="none" stroke="midnightblue" d="M1446.42,-346.77C1431.21,-331.21 1407.17,-308.44 1383,-293 1374.15,-287.35 1363.75,-282.45 1354.36,-278.58"/>
<polygon fill="midnightblue" stroke="midnightblue" points="1444.08,-349.38 1453.53,-354.18 1449.13,-344.54 1444.08,-349.38"/>
</g>
<!-- Node3&#45;&gt;Node4 -->
<g id="edge3" class="edge">
<title>Node3&#45;&gt;Node4</title>
<path fill="none" stroke="midnightblue" d="M1277.5,-408.96C1256.33,-403.65 1231.81,-397.5 1211.95,-392.52"/>
<polygon fill="midnightblue" stroke="midnightblue" points="1276.72,-412.37 1287.27,-411.41 1278.42,-405.58 1276.72,-412.37"/>
</g>
<!-- Node3&#45;&gt;Node37 -->
<g id="edge53" class="edge">
<title>Node3&#45;&gt;Node37</title>
<path fill="none" stroke="midnightblue" d="M1267.2,-421C1209.35,-421 1121.29,-421 1064.19,-421"/>
<polygon fill="midnightblue" stroke="midnightblue" points="1267.28,-424.5 1277.28,-421 1267.28,-417.5 1267.28,-424.5"/>
</g>
<!-- Node38 -->
<g id="node38" class="node">
<title>Node38</title>
<g id="a_node38"><a xlink:href="test__decmp_8c_a0a6312a9d1b013bc9f35096fc9fbe3b9.html#a0a6312a9d1b013bc9f35096fc9fbe3b9" target="_top" xlink:title=" ">
<polygon fill="white" stroke="black" points="1112,-449.5 1112,-468.5 1234,-468.5 1234,-449.5 1112,-449.5"/>
<text text-anchor="middle" x="1173" y="-456.5" font-family="Helvetica,sans-Serif" font-size="10.00">test_golomb_decoder</text>
</a>
</g>
</g>
<!-- Node3&#45;&gt;Node38 -->
<g id="edge52" class="edge">
<title>Node3&#45;&gt;Node38</title>
<path fill="none" stroke="midnightblue" d="M1277.5,-433.04C1256.33,-438.35 1231.81,-444.5 1211.95,-449.48"/>
<polygon fill="midnightblue" stroke="midnightblue" points="1278.42,-436.42 1287.27,-430.59 1276.72,-429.63 1278.42,-436.42"/>
</g>
<!-- Node5 -->
<g id="node5" class="node">
<title>Node5</title>
<g id="a_node5"><a xlink:href="decmp_8c_ac9a6281c5fcfbf077cc63e0494274f20.html#ac9a6281c5fcfbf077cc63e0494274f20" target="_top" xlink:title="configure a decoder setup structure to have a setup to decode a vale">
<polygon fill="white" stroke="black" points="938,-373.5 938,-392.5 1076,-392.5 1076,-373.5 938,-373.5"/>
<text text-anchor="middle" x="1007" y="-380.5" font-family="Helvetica,sans-Serif" font-size="10.00">configure_decoder_setup</text>
</a>
</g>
</g>
<!-- Node4&#45;&gt;Node5 -->
<g id="edge4" class="edge">
<title>Node4&#45;&gt;Node5</title>
<path fill="none" stroke="midnightblue" d="M1117.31,-383C1104.12,-383 1089.88,-383 1076.16,-383"/>
<polygon fill="midnightblue" stroke="midnightblue" points="1117.62,-386.5 1127.62,-383 1117.62,-379.5 1117.62,-386.5"/>
</g>
<!-- Node4&#45;&gt;Node37 -->
<g id="edge51" class="edge">
<title>Node4&#45;&gt;Node37</title>
<path fill="none" stroke="midnightblue" d="M1120.66,-394.9C1097.61,-400.24 1070.78,-406.45 1049.09,-411.48"/>
<polygon fill="midnightblue" stroke="midnightblue" points="1121.66,-398.26 1130.62,-392.59 1120.08,-391.44 1121.66,-398.26"/>
</g>
<!-- Node6 -->
<g id="node6" class="node">
<title>Node6</title>
<g id="a_node6"><a xlink:href="decmp_8c_ae8bbe9e530e670af67db5d739f15f120.html#ae8bbe9e530e670af67db5d739f15f120" target="_top" xlink:title="decompress N&#45;CAM background data">
<polygon fill="white" stroke="black" points="764,-720.5 764,-739.5 902,-739.5 902,-720.5 764,-720.5"/>
<text text-anchor="middle" x="833" y="-727.5" font-family="Helvetica,sans-Serif" font-size="10.00">decompress_background</text>
</a>
</g>
</g>
<!-- Node5&#45;&gt;Node6 -->
<g id="edge5" class="edge">
<title>Node5&#45;&gt;Node6</title>
<path fill="none" stroke="midnightblue" d="M941.26,-398.63C940.11,-399.68 939.02,-400.81 938,-402 848.17,-507.11 991.83,-605.89 902,-711 898.73,-714.82 894.77,-717.9 890.42,-720.39"/>
<polygon fill="midnightblue" stroke="midnightblue" points="943.53,-401.31 949.58,-392.61 939.43,-395.63 943.53,-401.31"/>
</g>
<!-- Node17 -->
<g id="node17" class="node">
<title>Node17</title>
<g id="a_node17"><a xlink:href="decmp_8c_ac44d884cb830d9b0dbbca34c6db2de7d.html#ac44d884cb830d9b0dbbca34c6db2de7d" target="_top" xlink:title="decompress fast normal light flux (F_FX) data">
<polygon fill="white" stroke="black" points="783,-682.5 783,-701.5 883,-701.5 883,-682.5 783,-682.5"/>
<text text-anchor="middle" x="833" y="-689.5" font-family="Helvetica,sans-Serif" font-size="10.00">decompress_f_fx</text>
</a>
</g>
</g>
<!-- Node5&#45;&gt;Node17 -->
<g id="edge16" class="edge">
<title>Node5&#45;&gt;Node17</title>
<path fill="none" stroke="midnightblue" d="M941.28,-398.65C940.13,-399.7 939.03,-400.81 938,-402 858.32,-493.73 981.68,-581.27 902,-673 896.94,-678.83 890.25,-682.94 883.04,-685.83"/>
<polygon fill="midnightblue" stroke="midnightblue" points="943.55,-401.33 949.65,-392.67 939.48,-395.64 943.55,-401.33"/>
</g>
<!-- Node18 -->
<g id="node18" class="node">
<title>Node18</title>
<g id="a_node18"><a xlink:href="decmp_8c_a84e912fefa1f49f27885af0d855a4989.html#a84e912fefa1f49f27885af0d855a4989" target="_top" xlink:title="decompress F_FX_EFX data">
<polygon fill="white" stroke="black" points="772.5,-644.5 772.5,-663.5 893.5,-663.5 893.5,-644.5 772.5,-644.5"/>
<text text-anchor="middle" x="833" y="-651.5" font-family="Helvetica,sans-Serif" font-size="10.00">decompress_f_fx_efx</text>
</a>
</g>
</g>
<!-- Node5&#45;&gt;Node18 -->
<g id="edge18" class="edge">
<title>Node5&#45;&gt;Node18</title>
<path fill="none" stroke="midnightblue" d="M941.76,-398.29C940.43,-399.44 939.17,-400.68 938,-402 868.45,-480.37 971.55,-556.63 902,-635 898.58,-638.85 894.46,-641.95 889.95,-644.44"/>
<polygon fill="midnightblue" stroke="midnightblue" points="943.82,-401.12 950.05,-392.56 939.84,-395.37 943.82,-401.12"/>
</g>
<!-- Node19 -->
<g id="node19" class="node">
<title>Node19</title>
<g id="a_node19"><a xlink:href="decmp_8c_aac2934ca104c49490be71c4966d2b173.html#aac2934ca104c49490be71c4966d2b173" target="_top" xlink:title="decompress short F_FX_NCOB_ECOB data">
<polygon fill="white" stroke="black" points="772.5,-595 772.5,-625 893.5,-625 893.5,-595 772.5,-595"/>
<text text-anchor="start" x="780.5" y="-613" font-family="Helvetica,sans-Serif" font-size="10.00">decompress_f_fx_efx</text>
<text text-anchor="middle" x="833" y="-602" font-family="Helvetica,sans-Serif" font-size="10.00">_ncob_ecob</text>
</a>
</g>
</g>
<!-- Node5&#45;&gt;Node19 -->
<g id="edge20" class="edge">
<title>Node5&#45;&gt;Node19</title>
<path fill="none" stroke="midnightblue" d="M941.93,-398.27C940.54,-399.43 939.23,-400.67 938,-402 881.72,-462.86 955.8,-521.94 902,-585 898.73,-588.83 894.83,-592.07 890.56,-594.81"/>
<polygon fill="midnightblue" stroke="midnightblue" points="944.16,-400.99 950.54,-392.53 940.28,-395.17 944.16,-400.99"/>
</g>
<!-- Node20 -->
<g id="node20" class="node">
<title>Node20</title>
<g id="a_node20"><a xlink:href="decmp_8c_a8310f64826697fb15c590854c08b3ad9.html#a8310f64826697fb15c590854c08b3ad9" target="_top" xlink:title="decompress short F_FX_NCOB data">
<polygon fill="white" stroke="black" points="769,-556.5 769,-575.5 897,-575.5 897,-556.5 769,-556.5"/>
<text text-anchor="middle" x="833" y="-563.5" font-family="Helvetica,sans-Serif" font-size="10.00">decompress_f_fx_ncob</text>
</a>
</g>
</g>
<!-- Node5&#45;&gt;Node20 -->
<g id="edge22" class="edge">
<title>Node5&#45;&gt;Node20</title>
<path fill="none" stroke="midnightblue" d="M942.51,-397.96C940.92,-399.21 939.41,-400.55 938,-402 891.74,-449.63 948.26,-499.37 902,-547 898.24,-550.87 893.77,-553.97 888.93,-556.45"/>
<polygon fill="midnightblue" stroke="midnightblue" points="944.49,-400.85 951.07,-392.55 940.75,-394.94 944.49,-400.85"/>
</g>
<!-- Node21 -->
<g id="node21" class="node">
<title>Node21</title>
<g id="a_node21"><a xlink:href="decmp_8c_a62e230570f1d23f56fbe10fb238dbf1d.html#a62e230570f1d23f56fbe10fb238dbf1d" target="_top" xlink:title="decompress imagette data">
<polygon fill="white" stroke="black" points="770.5,-758.5 770.5,-777.5 895.5,-777.5 895.5,-758.5 770.5,-758.5"/>
<text text-anchor="middle" x="833" y="-765.5" font-family="Helvetica,sans-Serif" font-size="10.00">decompress_imagette</text>
</a>
</g>
</g>
<!-- Node5&#45;&gt;Node21 -->
<g id="edge24" class="edge">
<title>Node5&#45;&gt;Node21</title>
<path fill="none" stroke="midnightblue" d="M941.24,-398.61C940.09,-399.67 939.01,-400.8 938,-402 838.01,-520.5 1001.99,-630.5 902,-749 898.76,-752.84 894.81,-755.94 890.47,-758.43"/>
<polygon fill="midnightblue" stroke="midnightblue" points="943.51,-401.28 949.53,-392.57 939.39,-395.63 943.51,-401.28"/>
</g>
<!-- Node23 -->
<g id="node23" class="node">
<title>Node23</title>
<g id="a_node23"><a xlink:href="decmp_8c_a75f3c5c08234bce92e84d07a93e9a77d.html#a75f3c5c08234bce92e84d07a93e9a77d" target="_top" xlink:title="decompress long normal light flux (L_FX) data">
<polygon fill="white" stroke="black" points="783.5,-518.5 783.5,-537.5 882.5,-537.5 882.5,-518.5 783.5,-518.5"/>
<text text-anchor="middle" x="833" y="-525.5" font-family="Helvetica,sans-Serif" font-size="10.00">decompress_l_fx</text>
</a>
</g>
</g>
<!-- Node5&#45;&gt;Node23 -->
<g id="edge27" class="edge">
<title>Node5&#45;&gt;Node23</title>
<path fill="none" stroke="midnightblue" d="M943.32,-397.65C941.44,-398.97 939.66,-400.42 938,-402 901.61,-436.54 938.39,-474.46 902,-509 896.58,-514.15 889.88,-517.92 882.82,-520.68"/>
<polygon fill="midnightblue" stroke="midnightblue" points="945.18,-400.61 952.05,-392.54 941.65,-394.56 945.18,-400.61"/>
</g>
<!-- Node24 -->
<g id="node24" class="node">
<title>Node24</title>
<g id="a_node24"><a xlink:href="decmp_8c_aa06fff345fa7fd62fb4fd7a619c118fe.html#aa06fff345fa7fd62fb4fd7a619c118fe" target="_top" xlink:title="decompress L_FX_EFX data">
<polygon fill="white" stroke="black" points="773,-480.5 773,-499.5 893,-499.5 893,-480.5 773,-480.5"/>
<text text-anchor="middle" x="833" y="-487.5" font-family="Helvetica,sans-Serif" font-size="10.00">decompress_l_fx_efx</text>
</a>
</g>
</g>
<!-- Node5&#45;&gt;Node24 -->
<g id="edge29" class="edge">
<title>Node5&#45;&gt;Node24</title>
<path fill="none" stroke="midnightblue" d="M944.63,-397.37C942.31,-398.77 940.08,-400.31 938,-402 911.13,-423.78 928.87,-449.22 902,-471 897.24,-474.86 891.74,-477.94 885.98,-480.39"/>
<polygon fill="midnightblue" stroke="midnightblue" points="946.68,-400.26 954.02,-392.61 943.52,-394.01 946.68,-400.26"/>
</g>
<!-- Node25 -->
<g id="node25" class="node">
<title>Node25</title>
<g id="a_node25"><a xlink:href="decmp_8c_a36a5692cbd5d1e46805ba3f1dac23f60.html#a36a5692cbd5d1e46805ba3f1dac23f60" target="_top" xlink:title="decompress L_FX_EFX_NCOB_ECOB data">
<polygon fill="white" stroke="black" points="773,-431 773,-461 893,-461 893,-431 773,-431"/>
<text text-anchor="start" x="781" y="-449" font-family="Helvetica,sans-Serif" font-size="10.00">decompress_l_fx_efx</text>
<text text-anchor="middle" x="833" y="-438" font-family="Helvetica,sans-Serif" font-size="10.00">_ncob_ecob</text>
</a>
</g>
</g>
<!-- Node5&#45;&gt;Node25 -->
<g id="edge31" class="edge">
<title>Node5&#45;&gt;Node25</title>
<path fill="none" stroke="midnightblue" d="M956.5,-395.49C950.21,-397.47 943.9,-399.65 938,-402 921.19,-408.69 918.53,-413.64 902,-421 894.19,-424.48 885.73,-427.87 877.51,-430.98"/>
<polygon fill="midnightblue" stroke="midnightblue" points="957.76,-398.77 966.33,-392.55 955.75,-392.06 957.76,-398.77"/>
</g>
<!-- Node26 -->
<g id="node26" class="node">
<title>Node26</title>
<g id="a_node26"><a xlink:href="decmp_8c_a5883c910a0e8e829e60844e78da88e96.html#a5883c910a0e8e829e60844e78da88e96" target="_top" xlink:title="decompress L_FX_NCOB data">
<polygon fill="white" stroke="black" points="769,-392.5 769,-411.5 897,-411.5 897,-392.5 769,-392.5"/>
<text text-anchor="middle" x="833" y="-399.5" font-family="Helvetica,sans-Serif" font-size="10.00">decompress_l_fx_ncob</text>
</a>
</g>
</g>
<!-- Node5&#45;&gt;Node26 -->
<g id="edge33" class="edge">
<title>Node5&#45;&gt;Node26</title>
<path fill="none" stroke="midnightblue" d="M927.46,-391.68C917.33,-392.8 907.06,-393.93 897.21,-395.02"/>
<polygon fill="midnightblue" stroke="midnightblue" points="927.97,-395.14 937.53,-390.56 927.2,-388.18 927.97,-395.14"/>
</g>
<!-- Node27 -->
<g id="node27" class="node">
<title>Node27</title>
<g id="a_node27"><a xlink:href="decmp_8c_a47d0a8b2f718f7d4659a34a6b516c79d.html#a47d0a8b2f718f7d4659a34a6b516c79d" target="_top" xlink:title="decompress N&#45;CAM and F&#45;CAM offset data">
<polygon fill="white" stroke="black" points="778.5,-354.5 778.5,-373.5 887.5,-373.5 887.5,-354.5 778.5,-354.5"/>
<text text-anchor="middle" x="833" y="-361.5" font-family="Helvetica,sans-Serif" font-size="10.00">decompress_offset</text>
</a>
</g>
</g>
<!-- Node5&#45;&gt;Node27 -->
<g id="edge35" class="edge">
<title>Node5&#45;&gt;Node27</title>
<path fill="none" stroke="midnightblue" d="M927.33,-374.31C913.91,-372.83 900.25,-371.32 887.67,-369.93"/>
<polygon fill="midnightblue" stroke="midnightblue" points="927.2,-377.82 937.53,-375.44 927.97,-370.86 927.2,-377.82"/>
</g>
<!-- Node28 -->
<g id="node28" class="node">
<title>Node28</title>
<g id="a_node28"><a xlink:href="decmp_8c_ad57c4f63787216adcca82dca5a2c99ae.html#ad57c4f63787216adcca82dca5a2c99ae" target="_top" xlink:title="decompress short normal light flux (S_FX) data">
<polygon fill="white" stroke="black" points="782.5,-316.5 782.5,-335.5 883.5,-335.5 883.5,-316.5 782.5,-316.5"/>
<text text-anchor="middle" x="833" y="-323.5" font-family="Helvetica,sans-Serif" font-size="10.00">decompress_s_fx</text>
</a>
</g>
</g>
<!-- Node5&#45;&gt;Node28 -->
<g id="edge37" class="edge">
<title>Node5&#45;&gt;Node28</title>
<path fill="none" stroke="midnightblue" d="M971.99,-369.82C951.79,-362.17 925.59,-352.59 902,-345 891.73,-341.7 880.49,-338.42 870.15,-335.54"/>
<polygon fill="midnightblue" stroke="midnightblue" points="970.8,-373.11 981.39,-373.39 973.29,-366.56 970.8,-373.11"/>
</g>
<!-- Node29 -->
<g id="node29" class="node">
<title>Node29</title>
<g id="a_node29"><a xlink:href="decmp_8c_ae950fe1a6eeb3224f3491439a7149a1f.html#ae950fe1a6eeb3224f3491439a7149a1f" target="_top" xlink:title="decompress S_FX_EFX data">
<polygon fill="white" stroke="black" points="772,-278.5 772,-297.5 894,-297.5 894,-278.5 772,-278.5"/>
<text text-anchor="middle" x="833" y="-285.5" font-family="Helvetica,sans-Serif" font-size="10.00">decompress_s_fx_efx</text>
</a>
</g>
</g>
<!-- Node5&#45;&gt;Node29 -->
<g id="edge39" class="edge">
<title>Node5&#45;&gt;Node29</title>
<path fill="none" stroke="midnightblue" d="M988.01,-366.69C968.24,-349.58 934.92,-322.97 902,-307 894.28,-303.25 885.7,-300.14 877.3,-297.58"/>
<polygon fill="midnightblue" stroke="midnightblue" points="985.79,-369.41 995.61,-373.39 990.42,-364.15 985.79,-369.41"/>
</g>
<!-- Node30 -->
<g id="node30" class="node">
<title>Node30</title>
<g id="a_node30"><a xlink:href="decmp_8c_aee9e79676f49da2b257ad810955e4f09.html#aee9e79676f49da2b257ad810955e4f09" target="_top" xlink:title="decompress short S_FX_NCOB_ECOB data">
<polygon fill="white" stroke="black" points="772,-229 772,-259 894,-259 894,-229 772,-229"/>
<text text-anchor="start" x="780" y="-247" font-family="Helvetica,sans-Serif" font-size="10.00">decompress_s_fx_efx</text>
<text text-anchor="middle" x="833" y="-236" font-family="Helvetica,sans-Serif" font-size="10.00">_ncob_ecob</text>
</a>
</g>
</g>
<!-- Node5&#45;&gt;Node30 -->
<g id="edge41" class="edge">
<title>Node5&#45;&gt;Node30</title>
<path fill="none" stroke="midnightblue" d="M993.75,-364.83C976.14,-339.99 941.43,-295.5 902,-269 896.36,-265.21 890.08,-261.91 883.67,-259.06"/>
<polygon fill="midnightblue" stroke="midnightblue" points="991.05,-367.09 999.63,-373.31 996.8,-363.1 991.05,-367.09"/>
</g>
<!-- Node31 -->
<g id="node31" class="node">
<title>Node31</title>
<g id="a_node31"><a xlink:href="decmp_8c_a5075a002558af814210bd1c186a244f0.html#a5075a002558af814210bd1c186a244f0" target="_top" xlink:title="decompress short S_FX_NCOB data">
<polygon fill="white" stroke="black" points="768,-190.5 768,-209.5 898,-209.5 898,-190.5 768,-190.5"/>
<text text-anchor="middle" x="833" y="-197.5" font-family="Helvetica,sans-Serif" font-size="10.00">decompress_s_fx_ncob</text>
</a>
</g>
</g>
<!-- Node5&#45;&gt;Node31 -->
<g id="edge43" class="edge">
<title>Node5&#45;&gt;Node31</title>
<path fill="none" stroke="midnightblue" d="M999.14,-363.71C985.91,-329.27 953.5,-257.27 902,-219 896.79,-215.13 890.82,-212.04 884.63,-209.58"/>
<polygon fill="midnightblue" stroke="midnightblue" points="995.87,-364.95 1002.64,-373.11 1002.44,-362.51 995.87,-364.95"/>
</g>
<!-- Node32 -->
<g id="node32" class="node">
<title>Node32</title>
<g id="a_node32"><a xlink:href="decmp_8c_ab043a8a939e8818cf2875aecec205bb9.html#ab043a8a939e8818cf2875aecec205bb9" target="_top" xlink:title="decompress N&#45;CAM smearing data">
<polygon fill="white" stroke="black" points="769.5,-152.5 769.5,-171.5 896.5,-171.5 896.5,-152.5 769.5,-152.5"/>
<text text-anchor="middle" x="833" y="-159.5" font-family="Helvetica,sans-Serif" font-size="10.00">decompress_smearing</text>
</a>
</g>
</g>
<!-- Node5&#45;&gt;Node32 -->
<g id="edge45" class="edge">
<title>Node5&#45;&gt;Node32</title>
<path fill="none" stroke="midnightblue" d="M1001.5,-363.29C991.21,-322.8 962.09,-229.98 902,-181 897.25,-177.13 891.76,-174.04 886,-171.59"/>
<polygon fill="midnightblue" stroke="midnightblue" points="998.15,-364.35 1003.91,-373.24 1004.96,-362.7 998.15,-364.35"/>
</g>
<!-- Node33 -->
<g id="node33" class="node">
<title>Node33</title>
<g id="a_node33"><a xlink:href="test__decmp_8c_a2cf11f635ba073b682cac0e4ef9dfdbc.html#a2cf11f635ba073b682cac0e4ef9dfdbc" target="_top" xlink:title=" ">
<polygon fill="white" stroke="black" points="779.5,-114.5 779.5,-133.5 886.5,-133.5 886.5,-114.5 779.5,-114.5"/>
<text text-anchor="middle" x="833" y="-121.5" font-family="Helvetica,sans-Serif" font-size="10.00">test_decode_multi</text>
</a>
</g>
</g>
<!-- Node5&#45;&gt;Node33 -->
<g id="edge47" class="edge">
<title>Node5&#45;&gt;Node33</title>
<path fill="none" stroke="midnightblue" d="M1003.23,-363.1C995.77,-317.18 970.93,-203.11 902,-143 897.47,-139.05 892.19,-135.92 886.6,-133.43"/>
<polygon fill="midnightblue" stroke="midnightblue" points="999.77,-363.65 1004.74,-373.01 1006.69,-362.59 999.77,-363.65"/>
</g>
<!-- Node34 -->
<g id="node34" class="node">
<title>Node34</title>
<g id="a_node34"><a xlink:href="test__decmp_8c_a7ada560b6c0070a378eeff45b9dae044.html#a7ada560b6c0070a378eeff45b9dae044" target="_top" xlink:title=" ">
<polygon fill="white" stroke="black" points="782,-76.5 782,-95.5 884,-95.5 884,-76.5 782,-76.5"/>
<text text-anchor="middle" x="833" y="-83.5" font-family="Helvetica,sans-Serif" font-size="10.00">test_decode_zero</text>
</a>
</g>
</g>
<!-- Node5&#45;&gt;Node34 -->
<g id="edge48" class="edge">
<title>Node5&#45;&gt;Node34</title>
<path fill="none" stroke="midnightblue" d="M1004.56,-363.17C999.79,-312.38 980.01,-176.61 902,-105 896.85,-100.28 890.63,-96.71 884.06,-94.03"/>
<polygon fill="midnightblue" stroke="midnightblue" points="1001.1,-363.75 1005.42,-373.42 1008.07,-363.16 1001.1,-363.75"/>
</g>
<!-- Node35 -->
<g id="node35" class="node">
<title>Node35</title>
<g id="a_node35"><a xlink:href="test__decmp_8c_a29cac1eb3ce172274827f3bb9481294c.html#a29cac1eb3ce172274827f3bb9481294c" target="_top" xlink:title=" ">
<polygon fill="white" stroke="black" points="766,-38.5 766,-57.5 900,-57.5 900,-38.5 766,-38.5"/>
<text text-anchor="middle" x="833" y="-45.5" font-family="Helvetica,sans-Serif" font-size="10.00">test_multi_refill_needed</text>
</a>
</g>
</g>
<!-- Node5&#45;&gt;Node35 -->
<g id="edge49" class="edge">
<title>Node5&#45;&gt;Node35</title>
<path fill="none" stroke="midnightblue" d="M1005.58,-363.12C1003.32,-307.72 989.13,-150.26 902,-67 897.92,-63.1 893.12,-60 887.97,-57.52"/>
<polygon fill="midnightblue" stroke="midnightblue" points="1002.09,-363.44 1005.91,-373.33 1009.09,-363.22 1002.09,-363.44"/>
</g>
<!-- Node36 -->
<g id="node36" class="node">
<title>Node36</title>
<g id="a_node36"><a xlink:href="test__decmp_8c_a58e183d189a8362c6690c0a6205b6dcc.html#a58e183d189a8362c6690c0a6205b6dcc" target="_top" xlink:title=" ">
<polygon fill="white" stroke="black" points="768,-0.5 768,-19.5 898,-19.5 898,-0.5 768,-0.5"/>
<text text-anchor="middle" x="833" y="-7.5" font-family="Helvetica,sans-Serif" font-size="10.00">test_zero_refill_needed</text>
</a>
</g>
</g>
<!-- Node5&#45;&gt;Node36 -->
<g id="edge50" class="edge">
<title>Node5&#45;&gt;Node36</title>
<path fill="none" stroke="midnightblue" d="M1006.41,-363.18C1006.5,-303.55 998.39,-124.12 902,-29 898.07,-25.13 893.43,-22.03 888.43,-19.55"/>
<polygon fill="midnightblue" stroke="midnightblue" points="1002.9,-363.41 1006.3,-373.44 1009.9,-363.48 1002.9,-363.41"/>
</g>
<!-- Node7 -->
<g id="node7" class="node">
<title>Node7</title>
<g id="a_node7"><a xlink:href="decmp_8c_a74c8bbd7b2130f44b6672e960475f4be.html#a74c8bbd7b2130f44b6672e960475f4be" target="_top" xlink:title="decompress the data based on a compression configuration">
<polygon fill="white" stroke="black" points="570,-458.5 570,-477.5 728,-477.5 728,-458.5 570,-458.5"/>
<text text-anchor="middle" x="649" y="-465.5" font-family="Helvetica,sans-Serif" font-size="10.00">decompressed_data_internal</text>
</a>
</g>
</g>
<!-- Node6&#45;&gt;Node7 -->
<g id="edge6" class="edge">
<title>Node6&#45;&gt;Node7</title>
<path fill="none" stroke="midnightblue" d="M770.4,-715.65C768.15,-714.24 766.01,-712.7 764,-711 686.1,-645.08 658.05,-514.11 651.57,-477.63"/>
<polygon fill="midnightblue" stroke="midnightblue" points="769.03,-718.89 779.51,-720.43 772.28,-712.69 769.03,-718.89"/>
</g>
<!-- Node8 -->
<g id="node8" class="node">
<title>Node8</title>
<g id="a_node8"><a xlink:href="decmp_8h_aefe0fa39fdc295432f5e2e0f91f0b87f.html#aefe0fa39fdc295432f5e2e0f91f0b87f" target="_top" xlink:title="decompress a compression entity">
<polygon fill="white" stroke="black" points="402,-499.5 402,-518.5 534,-518.5 534,-499.5 402,-499.5"/>
<text text-anchor="middle" x="468" y="-506.5" font-family="Helvetica,sans-Serif" font-size="10.00">decompress_cmp_entiy</text>
</a>
</g>
</g>
<!-- Node7&#45;&gt;Node8 -->
<g id="edge7" class="edge">
<title>Node7&#45;&gt;Node8</title>
<path fill="none" stroke="midnightblue" d="M596.72,-479.75C569.42,-486 536.28,-493.59 510.6,-499.47"/>
<polygon fill="midnightblue" stroke="midnightblue" points="597.52,-483.15 606.48,-477.51 595.95,-476.33 597.52,-483.15"/>
</g>
<!-- Node15 -->
<g id="node15" class="node">
<title>Node15</title>
<g id="a_node15"><a xlink:href="decmp_8h_aa89132cfd22be6ede8bc4344e9c3336a.html#aa89132cfd22be6ede8bc4344e9c3336a" target="_top" xlink:title="decompress RDCU compressed data without a compression entity header">
<polygon fill="white" stroke="black" points="403.5,-439.5 403.5,-458.5 532.5,-458.5 532.5,-439.5 403.5,-439.5"/>
<text text-anchor="middle" x="468" y="-446.5" font-family="Helvetica,sans-Serif" font-size="10.00">decompress_rdcu_data</text>
</a>
</g>
</g>
<!-- Node7&#45;&gt;Node15 -->
<g id="edge14" class="edge">
<title>Node7&#45;&gt;Node15</title>
<path fill="none" stroke="midnightblue" d="M559.52,-458.61C550.43,-457.64 541.33,-456.68 532.59,-455.75"/>
<polygon fill="midnightblue" stroke="midnightblue" points="559.43,-462.12 569.75,-459.69 560.17,-455.16 559.43,-462.12"/>
</g>
<!-- Node9 -->
<g id="node9" class="node">
<title>Node9</title>
<g id="a_node9"><a xlink:href="test__cmp__decmp_8c_a50ba26014079160ca77b7d7fa76ce0f4.html#a50ba26014079160ca77b7d7fa76ce0f4" target="_top" xlink:title="compress the given configuration and decompress it afterwards; finally compare the results">
<polygon fill="white" stroke="black" points="195,-480.5 195,-499.5 353,-499.5 353,-480.5 195,-480.5"/>
<text text-anchor="middle" x="274" y="-487.5" font-family="Helvetica,sans-Serif" font-size="10.00">compression_decompression</text>
</a>
</g>
</g>
<!-- Node8&#45;&gt;Node9 -->
<g id="edge8" class="edge">
<title>Node8&#45;&gt;Node9</title>
<path fill="none" stroke="midnightblue" d="M391.94,-501.57C379.23,-500.31 366.02,-499.01 353.23,-497.74"/>
<polygon fill="midnightblue" stroke="midnightblue" points="391.7,-505.07 402,-502.57 392.39,-498.1 391.7,-505.07"/>
</g>
<!-- Node11 -->
<g id="node11" class="node">
<title>Node11</title>
<g id="a_node11"><a xlink:href="test__decmp_8c_a6e7a5e150e2c829836db3c42cdec2eec.html#a6e7a5e150e2c829836db3c42cdec2eec" target="_top" xlink:title=" ">
<polygon fill="white" stroke="black" points="182,-442.5 182,-461.5 366,-461.5 366,-442.5 182,-442.5"/>
<text text-anchor="middle" x="274" y="-449.5" font-family="Helvetica,sans-Serif" font-size="10.00">test_cmp_decmp_n_imagette_raw</text>
</a>
</g>
</g>
<!-- Node8&#45;&gt;Node11 -->
<g id="edge10" class="edge">
<title>Node8&#45;&gt;Node11</title>
<path fill="none" stroke="midnightblue" d="M435.08,-495.55C415.42,-487.62 389.55,-477.84 366,-471 353.76,-467.44 340.4,-464.27 327.79,-461.59"/>
<polygon fill="midnightblue" stroke="midnightblue" points="433.89,-498.84 444.47,-499.38 436.54,-492.36 433.89,-498.84"/>
</g>
<!-- Node12 -->
<g id="node12" class="node">
<title>Node12</title>
<g id="a_node12"><a xlink:href="test__decmp_8c_a1a33e2fcbf484c79dfe661b280386f6b.html#a1a33e2fcbf484c79dfe661b280386f6b" target="_top" xlink:title=" ">
<polygon fill="white" stroke="black" points="201,-594.5 201,-613.5 347,-613.5 347,-594.5 201,-594.5"/>
<text text-anchor="middle" x="274" y="-601.5" font-family="Helvetica,sans-Serif" font-size="10.00">test_cmp_decmp_s_fx_diff</text>
</a>
</g>
</g>
<!-- Node8&#45;&gt;Node12 -->
<g id="edge11" class="edge">
<title>Node8&#45;&gt;Node12</title>
<path fill="none" stroke="midnightblue" d="M449.86,-525.71C430.92,-543.21 398.73,-570.17 366,-585 357.47,-588.86 348.14,-591.95 338.8,-594.42"/>
<polygon fill="midnightblue" stroke="midnightblue" points="452.49,-528.04 457.36,-518.63 447.69,-522.95 452.49,-528.04"/>
</g>
<!-- Node13 -->
<g id="node13" class="node">
<title>Node13</title>
<g id="a_node13"><a xlink:href="test__decmp_8c_acfebf2fa7515f5449e0cfa594457b66b.html#acfebf2fa7515f5449e0cfa594457b66b" target="_top" xlink:title=" ">
<polygon fill="white" stroke="black" points="233,-556.5 233,-575.5 315,-575.5 315,-556.5 233,-556.5"/>
<text text-anchor="middle" x="274" y="-563.5" font-family="Helvetica,sans-Serif" font-size="10.00">test_s_fx_diff</text>
</a>
</g>
</g>
<!-- Node8&#45;&gt;Node13 -->
<g id="edge12" class="edge">
<title>Node8&#45;&gt;Node13</title>
<path fill="none" stroke="midnightblue" d="M435.08,-522.45C415.42,-530.38 389.55,-540.16 366,-547 349.57,-551.77 331.15,-555.85 315.19,-558.99"/>
<polygon fill="midnightblue" stroke="midnightblue" points="436.54,-525.64 444.47,-518.62 433.89,-519.16 436.54,-525.64"/>
</g>
<!-- Node14 -->
<g id="node14" class="node">
<title>Node14</title>
<g id="a_node14"><a xlink:href="test__decmp_8c_a953eeaad914985c0816dde26d47ffef0.html#a953eeaad914985c0816dde26d47ffef0" target="_top" xlink:title=" ">
<polygon fill="white" stroke="black" points="225.5,-518.5 225.5,-537.5 322.5,-537.5 322.5,-518.5 225.5,-518.5"/>
<text text-anchor="middle" x="274" y="-525.5" font-family="Helvetica,sans-Serif" font-size="10.00">test_s_fx_model</text>
</a>
</g>
</g>
<!-- Node8&#45;&gt;Node14 -->
<g id="edge13" class="edge">
<title>Node8&#45;&gt;Node14</title>
<path fill="none" stroke="midnightblue" d="M391.79,-516.44C368.51,-518.75 343.51,-521.22 322.64,-523.29"/>
<polygon fill="midnightblue" stroke="midnightblue" points="392.39,-519.9 402,-515.43 391.7,-512.93 392.39,-519.9"/>
</g>
<!-- Node10 -->
<g id="node10" class="node">
<title>Node10</title>
<g id="a_node10"><a xlink:href="test__cmp__decmp_8c_af3c162694b40683e0aa25c61a49cdafc.html#af3c162694b40683e0aa25c61a49cdafc" target="_top" xlink:title="random compression decompression test">
<polygon fill="white" stroke="black" points="0,-475 0,-505 146,-505 146,-475 0,-475"/>
<text text-anchor="start" x="8" y="-493" font-family="Helvetica,sans-Serif" font-size="10.00">test_random_compression</text>
<text text-anchor="middle" x="73" y="-482" font-family="Helvetica,sans-Serif" font-size="10.00">_decompression</text>
</a>
</g>
</g>
<!-- Node9&#45;&gt;Node10 -->
<g id="edge9" class="edge">
<title>Node9&#45;&gt;Node10</title>
<path fill="none" stroke="midnightblue" d="M184.63,-490C171.72,-490 158.55,-490 146.01,-490"/>
<polygon fill="midnightblue" stroke="midnightblue" points="184.92,-493.5 194.92,-490 184.92,-486.5 184.92,-493.5"/>
</g>
<!-- Node16 -->
<g id="node16" class="node">
<title>Node16</title>
<g id="a_node16"><a xlink:href="test__cmp__decmp_8c_abb20ed18a3c6ba0fc67ecef2d629dec0.html#abb20ed18a3c6ba0fc67ecef2d629dec0" target="_top" xlink:title=" ">
<polygon fill="white" stroke="black" points="201,-393 201,-423 347,-423 347,-393 201,-393"/>
<text text-anchor="start" x="209" y="-411" font-family="Helvetica,sans-Serif" font-size="10.00">test_random_compression</text>
<text text-anchor="middle" x="274" y="-400" font-family="Helvetica,sans-Serif" font-size="10.00">_decompression2</text>
</a>
</g>
</g>
<!-- Node15&#45;&gt;Node16 -->
<g id="edge15" class="edge">
<title>Node15&#45;&gt;Node16</title>
<path fill="none" stroke="midnightblue" d="M412.54,-437.37C391.73,-432.93 367.7,-427.8 345.61,-423.08"/>
<polygon fill="midnightblue" stroke="midnightblue" points="411.96,-440.83 422.47,-439.49 413.42,-433.98 411.96,-440.83"/>
</g>
<!-- Node17&#45;&gt;Node7 -->
<g id="edge17" class="edge">
<title>Node17&#45;&gt;Node7</title>
<path fill="none" stroke="midnightblue" d="M773.6,-679.19C770.2,-677.39 766.97,-675.34 764,-673 695.26,-618.78 661.57,-511.04 652.55,-477.92"/>
<polygon fill="midnightblue" stroke="midnightblue" points="772.35,-682.47 782.91,-683.39 775.23,-676.08 772.35,-682.47"/>
</g>
<!-- Node18&#45;&gt;Node7 -->
<g id="edge19" class="edge">
<title>Node18&#45;&gt;Node7</title>
<path fill="none" stroke="midnightblue" d="M772.57,-640.22C769.57,-638.66 766.69,-636.93 764,-635 703.81,-591.83 665.39,-506.38 653.75,-477.66"/>
<polygon fill="midnightblue" stroke="midnightblue" points="771.29,-643.48 781.85,-644.38 774.16,-637.1 771.29,-643.48"/>
</g>
<!-- Node19&#45;&gt;Node7 -->
<g id="edge21" class="edge">
<title>Node19&#45;&gt;Node7</title>
<path fill="none" stroke="midnightblue" d="M773.71,-590.61C770.35,-588.87 767.08,-587 764,-585 716.17,-553.98 673.17,-499.55 656.9,-477.59"/>
<polygon fill="midnightblue" stroke="midnightblue" points="772.27,-593.8 782.8,-594.93 775.27,-587.48 772.27,-593.8"/>
</g>
<!-- Node20&#45;&gt;Node7 -->
<g id="edge23" class="edge">
<title>Node20&#45;&gt;Node7</title>
<path fill="none" stroke="midnightblue" d="M779.74,-553.34C774.33,-551.45 768.99,-549.35 764,-547 723.03,-527.75 680.75,-494.17 661.18,-477.69"/>
<polygon fill="midnightblue" stroke="midnightblue" points="778.9,-556.74 789.49,-556.48 781.05,-550.08 778.9,-556.74"/>
</g>
<!-- Node21&#45;&gt;Node7 -->
<g id="edge25" class="edge">
<title>Node21&#45;&gt;Node7</title>
<path fill="none" stroke="midnightblue" d="M769.56,-753.31C767.61,-751.99 765.75,-750.56 764,-749 677.02,-671.33 655.21,-517.7 650.91,-477.7"/>
<polygon fill="midnightblue" stroke="midnightblue" points="768.19,-756.55 778.63,-758.36 771.6,-750.43 768.19,-756.55"/>
</g>
<!-- Node22 -->
<g id="node22" class="node">
<title>Node22</title>
<g id="a_node22"><a xlink:href="test__decmp_8c_a86f0175a42bc3897a2544ead6d1e3d5a.html#a86f0175a42bc3897a2544ead6d1e3d5a" target="_top" xlink:title=" ">
<polygon fill="white" stroke="black" points="574.5,-753 574.5,-783 723.5,-783 723.5,-753 574.5,-753"/>
<text text-anchor="start" x="582.5" y="-771" font-family="Helvetica,sans-Serif" font-size="10.00">test_decompress_imagette</text>
<text text-anchor="middle" x="649" y="-760" font-family="Helvetica,sans-Serif" font-size="10.00">_model</text>
</a>
</g>
</g>
<!-- Node21&#45;&gt;Node22 -->
<g id="edge26" class="edge">
<title>Node21&#45;&gt;Node22</title>
<path fill="none" stroke="midnightblue" d="M760.35,-768C748.25,-768 735.67,-768 723.52,-768"/>
<polygon fill="midnightblue" stroke="midnightblue" points="760.38,-771.5 770.38,-768 760.38,-764.5 760.38,-771.5"/>
</g>
<!-- Node23&#45;&gt;Node7 -->
<g id="edge28" class="edge">
<title>Node23&#45;&gt;Node7</title>
<path fill="none" stroke="midnightblue" d="M786.21,-515.7C778.76,-513.56 771.15,-511.28 764,-509 733.14,-499.15 698.16,-486.32 675.18,-477.65"/>
<polygon fill="midnightblue" stroke="midnightblue" points="785.28,-519.07 795.86,-518.43 787.19,-512.34 785.28,-519.07"/>
</g>
<!-- Node24&#45;&gt;Node7 -->
<g id="edge30" class="edge">
<title>Node24&#45;&gt;Node7</title>
<path fill="none" stroke="midnightblue" d="M762.66,-481.62C751.33,-480.25 739.53,-478.82 728.01,-477.43"/>
<polygon fill="midnightblue" stroke="midnightblue" points="762.56,-485.13 772.91,-482.86 763.4,-478.18 762.56,-485.13"/>
</g>
<!-- Node25&#45;&gt;Node7 -->
<g id="edge32" class="edge">
<title>Node25&#45;&gt;Node7</title>
<path fill="none" stroke="midnightblue" d="M762.66,-454.38C751.33,-455.75 739.53,-457.18 728.01,-458.57"/>
<polygon fill="midnightblue" stroke="midnightblue" points="763.4,-457.82 772.91,-453.14 762.56,-450.87 763.4,-457.82"/>
</g>
<!-- Node26&#45;&gt;Node7 -->
<g id="edge34" class="edge">
<title>Node26&#45;&gt;Node7</title>
<path fill="none" stroke="midnightblue" d="M787.43,-414.43C779.58,-416.81 771.52,-419.38 764,-422 731.55,-433.29 694.82,-448.57 672.04,-458.36"/>
<polygon fill="midnightblue" stroke="midnightblue" points="788.61,-417.73 797.2,-411.53 786.62,-411.02 788.61,-417.73"/>
</g>
<!-- Node27&#45;&gt;Node7 -->
<g id="edge36" class="edge">
<title>Node27&#45;&gt;Node7</title>
<path fill="none" stroke="midnightblue" d="M778.81,-376.79C773.71,-378.63 768.69,-380.69 764,-383 721.68,-403.79 679.05,-440.87 660.13,-458.36"/>
<polygon fill="midnightblue" stroke="midnightblue" points="780.28,-379.99 788.67,-373.52 778.08,-373.35 780.28,-379.99"/>
</g>
<!-- Node28&#45;&gt;Node7 -->
<g id="edge38" class="edge">
<title>Node28&#45;&gt;Node7</title>
<path fill="none" stroke="midnightblue" d="M774.89,-339.37C771.1,-341.03 767.43,-342.9 764,-345 713.55,-375.79 671.43,-435.09 656.15,-458.33"/>
<polygon fill="midnightblue" stroke="midnightblue" points="776.45,-342.52 784.5,-335.62 773.91,-335.99 776.45,-342.52"/>
</g>
<!-- Node29&#45;&gt;Node7 -->
<g id="edge40" class="edge">
<title>Node29&#45;&gt;Node7</title>
<path fill="none" stroke="midnightblue" d="M773.06,-301.6C769.89,-303.21 766.84,-305 764,-307 705.2,-348.41 666.16,-430.22 654.02,-458.28"/>
<polygon fill="midnightblue" stroke="midnightblue" points="774.51,-304.79 782.26,-297.57 771.7,-298.38 774.51,-304.79"/>
</g>
<!-- Node30&#45;&gt;Node7 -->
<g id="edge42" class="edge">
<title>Node30&#45;&gt;Node7</title>
<path fill="none" stroke="midnightblue" d="M770.26,-264.31C768.07,-265.77 765.98,-267.33 764,-269 698.91,-323.99 662.98,-426.1 652.94,-458.13"/>
<polygon fill="midnightblue" stroke="midnightblue" points="772.2,-267.23 779.06,-259.15 768.67,-261.18 772.2,-267.23"/>
</g>
<!-- Node31&#45;&gt;Node7 -->
<g id="edge44" class="edge">
<title>Node31&#45;&gt;Node7</title>
<path fill="none" stroke="midnightblue" d="M770.38,-214.32C768.14,-215.74 766,-217.29 764,-219 684.65,-286.78 657.56,-421.39 651.45,-458.39"/>
<polygon fill="midnightblue" stroke="midnightblue" points="772.27,-217.29 779.48,-209.53 769,-211.1 772.27,-217.29"/>
</g>
<!-- Node32&#45;&gt;Node7 -->
<g id="edge46" class="edge">
<title>Node32&#45;&gt;Node7</title>
<path fill="none" stroke="midnightblue" d="M769.55,-176.68C767.6,-178 765.74,-179.43 764,-181 675.51,-260.6 654.77,-417.97 650.82,-458.37"/>
<polygon fill="midnightblue" stroke="midnightblue" points="771.58,-179.55 778.6,-171.61 768.16,-173.44 771.58,-179.55"/>
</g>
<!-- Node39&#45;&gt;Node4 -->
<g id="edge55" class="edge">
<title>Node39&#45;&gt;Node4</title>
<path fill="none" stroke="midnightblue" d="M1277.5,-357.04C1256.33,-362.35 1231.81,-368.5 1211.95,-373.48"/>
<polygon fill="midnightblue" stroke="midnightblue" points="1278.42,-360.42 1287.27,-354.59 1276.72,-353.63 1278.42,-360.42"/>
</g>
<!-- Node39&#45;&gt;Node37 -->
<g id="edge57" class="edge">
<title>Node39&#45;&gt;Node37</title>
<path fill="none" stroke="midnightblue" d="M1276.62,-339.83C1231.58,-337.21 1164.05,-338.82 1112,-364 1091.06,-374.13 1095.92,-389.99 1076,-402 1069.6,-405.86 1062.38,-408.96 1055.11,-411.44"/>
<polygon fill="midnightblue" stroke="midnightblue" points="1276.5,-343.33 1286.71,-340.51 1276.97,-336.34 1276.5,-343.33"/>
</g>
<!-- Node39&#45;&gt;Node40 -->
<g id="edge56" class="edge">
<title>Node39&#45;&gt;Node40</title>
<path fill="none" stroke="midnightblue" d="M1277.5,-332.96C1256.33,-327.65 1231.81,-321.5 1211.95,-316.52"/>
<polygon fill="midnightblue" stroke="midnightblue" points="1276.72,-336.37 1287.27,-335.41 1278.42,-329.58 1276.72,-336.37"/>
</g>
</g>
</svg>
