<?xml version="1.0" encoding="UTF-8" standalone="no"?>
<!DOCTYPE svg PUBLIC "-//W3C//DTD SVG 1.1//EN"
 "http://www.w3.org/Graphics/SVG/1.1/DTD/svg11.dtd">
<!-- Generated by graphviz version 2.43.0 (0)
 -->
<!-- Title: rmap_set_dest_path Pages: 1 -->
<svg width="622pt" height="2000pt"
 viewBox="0.00 0.00 622.00 1999.50" xmlns="http://www.w3.org/2000/svg" xmlns:xlink="http://www.w3.org/1999/xlink">
<g id="graph0" class="graph" transform="scale(1 1) rotate(0) translate(4 1995.5)">
<title>rmap_set_dest_path</title>
<polygon fill="white" stroke="transparent" points="-4,4 -4,-1995.5 618,-1995.5 618,4 -4,4"/>
<!-- Node1 -->
<g id="node1" class="node">
<title>Node1</title>
<g id="a_node1"><a xlink:title="set the destination address path">
<polygon fill="#bfbfbf" stroke="black" points="498,-1205 498,-1224 614,-1224 614,-1205 498,-1205"/>
<text text-anchor="middle" x="556" y="-1212" font-family="Helvetica,sans-Serif" font-size="10.00">rmap_set_dest_path</text>
</a>
</g>
</g>
<!-- Node2 -->
<g id="node2" class="node">
<title>Node2</title>
<g id="a_node2"><a xlink:href="rdcu__rmap_8c_ab224927e85a7cec5b6f90292c7de36c4.html#ab224927e85a7cec5b6f90292c7de36c4" target="_top" xlink:title="generate an rmap command packet">
<polygon fill="white" stroke="black" points="375,-1205 375,-1224 462,-1224 462,-1205 375,-1205"/>
<text text-anchor="middle" x="418.5" y="-1212" font-family="Helvetica,sans-Serif" font-size="10.00">rdcu_gen_cmd</text>
</a>
</g>
</g>
<!-- Node1&#45;&gt;Node2 -->
<g id="edge1" class="edge">
<title>Node1&#45;&gt;Node2</title>
<path fill="none" stroke="midnightblue" d="M487.72,-1214.5C479,-1214.5 470.26,-1214.5 462.09,-1214.5"/>
<polygon fill="midnightblue" stroke="midnightblue" points="487.93,-1218 497.93,-1214.5 487.93,-1211 487.93,-1218"/>
</g>
<!-- Node3 -->
<g id="node3" class="node">
<title>Node3</title>
<g id="a_node3"><a xlink:href="rdcu__cmd_8c_abe170ae0642edcb2e3db4ffded12cc89.html#abe170ae0642edcb2e3db4ffded12cc89" target="_top" xlink:title="create a command to read arbitrary data to the RDCU (internal)">
<polygon fill="white" stroke="black" points="211.5,-1701.5 211.5,-1731.5 329.5,-1731.5 329.5,-1701.5 211.5,-1701.5"/>
<text text-anchor="start" x="219.5" y="-1719.5" font-family="Helvetica,sans-Serif" font-size="10.00">rdcu_read_cmd_data</text>
<text text-anchor="middle" x="270.5" y="-1708.5" font-family="Helvetica,sans-Serif" font-size="10.00">_internal</text>
</a>
</g>
</g>
<!-- Node2&#45;&gt;Node3 -->
<g id="edge2" class="edge">
<title>Node2&#45;&gt;Node3</title>
<path fill="none" stroke="midnightblue" d="M411.83,-1234.01C388.1,-1315.6 297.06,-1628.62 275.91,-1701.34"/>
<polygon fill="midnightblue" stroke="midnightblue" points="415.28,-1234.66 414.71,-1224.08 408.56,-1232.7 415.28,-1234.66"/>
</g>
<!-- Node11 -->
<g id="node5" class="node">
<title>Node11</title>
<g id="a_node5"><a xlink:href="rdcu__cmd_8c_a3274188041d4484130e893afc5f1630f.html#a3274188041d4484130e893afc5f1630f" target="_top" xlink:title="generate a read command for an arbitrary register (internal)">
<polygon fill="white" stroke="black" points="203.5,-1364.5 203.5,-1394.5 337.5,-1394.5 337.5,-1364.5 203.5,-1364.5"/>
<text text-anchor="start" x="211.5" y="-1382.5" font-family="Helvetica,sans-Serif" font-size="10.00">rdcu_read_cmd_register</text>
<text text-anchor="middle" x="270.5" y="-1371.5" font-family="Helvetica,sans-Serif" font-size="10.00">_internal</text>
</a>
</g>
</g>
<!-- Node2&#45;&gt;Node11 -->
<g id="edge4" class="edge">
<title>Node2&#45;&gt;Node11</title>
<path fill="none" stroke="midnightblue" d="M401.89,-1232.14C373.04,-1264.75 311.84,-1333.91 284.81,-1364.46"/>
<polygon fill="midnightblue" stroke="midnightblue" points="404.8,-1234.14 408.8,-1224.33 399.56,-1229.5 404.8,-1234.14"/>
</g>
<!-- Node62 -->
<g id="node31" class="node">
<title>Node62</title>
<g id="a_node31"><a xlink:href="rdcu__cmd_8c_acf34d113aa558e87f377436d69083f4f.html#acf34d113aa558e87f377436d69083f4f" target="_top" xlink:title="create a command to write arbitrary data to the RDCU (internal)">
<polygon fill="white" stroke="black" points="210,-918.5 210,-948.5 331,-948.5 331,-918.5 210,-918.5"/>
<text text-anchor="start" x="218" y="-936.5" font-family="Helvetica,sans-Serif" font-size="10.00">rdcu_write_cmd_data</text>
<text text-anchor="middle" x="270.5" y="-925.5" font-family="Helvetica,sans-Serif" font-size="10.00">_internal</text>
</a>
</g>
</g>
<!-- Node2&#45;&gt;Node62 -->
<g id="edge30" class="edge">
<title>Node2&#45;&gt;Node62</title>
<path fill="none" stroke="midnightblue" d="M407.71,-1195.65C380.45,-1143.2 304.09,-996.22 279.35,-948.6"/>
<polygon fill="midnightblue" stroke="midnightblue" points="404.76,-1197.57 412.47,-1204.83 410.97,-1194.34 404.76,-1197.57"/>
</g>
<!-- Node66 -->
<g id="node33" class="node">
<title>Node66</title>
<g id="a_node33"><a xlink:href="rdcu__cmd_8c_a690d79ff983a96fdd40db6396e9c70e9.html#a690d79ff983a96fdd40db6396e9c70e9" target="_top" xlink:title="generate a write command for an arbitrary register (internal)">
<polygon fill="white" stroke="red" points="202,-389.5 202,-419.5 339,-419.5 339,-389.5 202,-389.5"/>
<text text-anchor="start" x="210" y="-407.5" font-family="Helvetica,sans-Serif" font-size="10.00">rdcu_write_cmd_register</text>
<text text-anchor="middle" x="270.5" y="-396.5" font-family="Helvetica,sans-Serif" font-size="10.00">_internal</text>
</a>
</g>
</g>
<!-- Node2&#45;&gt;Node66 -->
<g id="edge32" class="edge">
<title>Node2&#45;&gt;Node66</title>
<path fill="none" stroke="midnightblue" d="M413.96,-1194.86C393.65,-1082.21 292.25,-519.64 274.24,-419.7"/>
<polygon fill="midnightblue" stroke="midnightblue" points="410.54,-1195.62 415.76,-1204.84 417.43,-1194.38 410.54,-1195.62"/>
</g>
<!-- Node4 -->
<g id="node4" class="node">
<title>Node4</title>
<g id="a_node4"><a xlink:href="rdcu__cmd_8c_a0529d01908536a90bebeb44f114342c7.html#a0529d01908536a90bebeb44f114342c7" target="_top" xlink:title="create a command to read arbitrary data to the RDCU">
<polygon fill="white" stroke="red" points="24,-1972 24,-1991 142,-1991 142,-1972 24,-1972"/>
<text text-anchor="middle" x="83" y="-1979" font-family="Helvetica,sans-Serif" font-size="10.00">rdcu_read_cmd_data</text>
</a>
</g>
</g>
<!-- Node3&#45;&gt;Node4 -->
<g id="edge3" class="edge">
<title>Node3&#45;&gt;Node4</title>
<path fill="none" stroke="midnightblue" d="M266.46,-1741.69C259.03,-1791.82 235.16,-1904.23 166,-1962.5 159.18,-1968.24 150.96,-1972.33 142.39,-1975.22"/>
<polygon fill="midnightblue" stroke="midnightblue" points="269.94,-1742.1 267.84,-1731.71 263,-1741.14 269.94,-1742.1"/>
</g>
<!-- Node12 -->
<g id="node6" class="node">
<title>Node12</title>
<g id="a_node6"><a xlink:href="rdcu__cmd_8c_a0216ef719dcc1744f9adfa7cc0904fda.html#a0216ef719dcc1744f9adfa7cc0904fda" target="_top" xlink:title="create a command to read the RDCU ADC status register">
<polygon fill="white" stroke="red" points="8.5,-1934 8.5,-1953 157.5,-1953 157.5,-1934 8.5,-1934"/>
<text text-anchor="middle" x="83" y="-1941" font-family="Helvetica,sans-Serif" font-size="10.00">rdcu_read_cmd_adc_status</text>
</a>
</g>
</g>
<!-- Node11&#45;&gt;Node12 -->
<g id="edge5" class="edge">
<title>Node11&#45;&gt;Node12</title>
<path fill="none" stroke="midnightblue" d="M263.56,-1404.61C251.15,-1457.6 221.94,-1584.86 202,-1692.5 192.5,-1743.8 201.51,-1886.27 166,-1924.5 162.52,-1928.25 158.46,-1931.33 154.04,-1933.85"/>
<polygon fill="midnightblue" stroke="midnightblue" points="267,-1405.28 265.88,-1394.74 260.19,-1403.68 267,-1405.28"/>
</g>
<!-- Node14 -->
<g id="node7" class="node">
<title>Node14</title>
<g id="a_node7"><a xlink:href="rdcu__cmd_8c_a59bbf6a366a3182782581096ac401ae6.html#a59bbf6a366a3182782581096ac401ae6" target="_top" xlink:title="create a command to read the RDCU ADC values 1 register">
<polygon fill="white" stroke="red" points="2,-1896 2,-1915 164,-1915 164,-1896 2,-1896"/>
<text text-anchor="middle" x="83" y="-1903" font-family="Helvetica,sans-Serif" font-size="10.00">rdcu_read_cmd_adc_values_1</text>
</a>
</g>
</g>
<!-- Node11&#45;&gt;Node14 -->
<g id="edge6" class="edge">
<title>Node11&#45;&gt;Node14</title>
<path fill="none" stroke="midnightblue" d="M263.82,-1404.66C251.88,-1457.74 223.53,-1585.16 202,-1692.5 184.75,-1778.48 226.62,-1823.14 166,-1886.5 162.36,-1890.3 158.13,-1893.41 153.53,-1895.94"/>
<polygon fill="midnightblue" stroke="midnightblue" points="267.26,-1405.3 266.04,-1394.77 260.43,-1403.76 267.26,-1405.3"/>
</g>
<!-- Node16 -->
<g id="node8" class="node">
<title>Node16</title>
<g id="a_node8"><a xlink:href="rdcu__cmd_8c_a0093173983638b18fdb8dd4f58a8da0e.html#a0093173983638b18fdb8dd4f58a8da0e" target="_top" xlink:title="create a command to read the RDCU ADC values 2 register">
<polygon fill="white" stroke="red" points="2,-1858 2,-1877 164,-1877 164,-1858 2,-1858"/>
<text text-anchor="middle" x="83" y="-1865" font-family="Helvetica,sans-Serif" font-size="10.00">rdcu_read_cmd_adc_values_2</text>
</a>
</g>
</g>
<!-- Node11&#45;&gt;Node16 -->
<g id="edge7" class="edge">
<title>Node11&#45;&gt;Node16</title>
<path fill="none" stroke="midnightblue" d="M264.12,-1404.27C243.17,-1500.79 168.02,-1846.46 166,-1848.5 162.3,-1852.24 158.02,-1855.3 153.39,-1857.81"/>
<polygon fill="midnightblue" stroke="midnightblue" points="267.55,-1405.01 266.25,-1394.5 260.7,-1403.53 267.55,-1405.01"/>
</g>
<!-- Node17 -->
<g id="node9" class="node">
<title>Node17</title>
<g id="a_node9"><a xlink:href="rdcu__cmd_8c_a12955406283adc54c096d6915a89fbd3.html#a12955406283adc54c096d6915a89fbd3" target="_top" xlink:title="create a command to read the RDCU ADC values 3 register">
<polygon fill="white" stroke="red" points="2,-1820 2,-1839 164,-1839 164,-1820 2,-1820"/>
<text text-anchor="middle" x="83" y="-1827" font-family="Helvetica,sans-Serif" font-size="10.00">rdcu_read_cmd_adc_values_3</text>
</a>
</g>
</g>
<!-- Node11&#45;&gt;Node17 -->
<g id="edge8" class="edge">
<title>Node11&#45;&gt;Node17</title>
<path fill="none" stroke="midnightblue" d="M264.23,-1404.62C245.27,-1494.54 180.86,-1795.75 166,-1810.5 162.16,-1814.31 157.72,-1817.41 152.93,-1819.94"/>
<polygon fill="midnightblue" stroke="midnightblue" points="267.67,-1405.25 266.31,-1394.74 260.82,-1403.8 267.67,-1405.25"/>
</g>
<!-- Node18 -->
<g id="node10" class="node">
<title>Node18</title>
<g id="a_node10"><a xlink:href="rdcu__cmd_8c_a77e029864dbbf2a9280f0bc8fa1e4272.html#a77e029864dbbf2a9280f0bc8fa1e4272" target="_top" xlink:title="create a command to read the RDCU ADC values 4 register">
<polygon fill="white" stroke="red" points="2,-1782 2,-1801 164,-1801 164,-1782 2,-1782"/>
<text text-anchor="middle" x="83" y="-1789" font-family="Helvetica,sans-Serif" font-size="10.00">rdcu_read_cmd_adc_values_4</text>
</a>
</g>
</g>
<!-- Node11&#45;&gt;Node18 -->
<g id="edge9" class="edge">
<title>Node11&#45;&gt;Node18</title>
<path fill="none" stroke="midnightblue" d="M264.45,-1404.65C247.64,-1487.2 193.19,-1746.1 166,-1772.5 162.12,-1776.27 157.65,-1779.34 152.84,-1781.84"/>
<polygon fill="midnightblue" stroke="midnightblue" points="267.92,-1405.13 266.48,-1394.63 261.06,-1403.74 267.92,-1405.13"/>
</g>
<!-- Node19 -->
<g id="node11" class="node">
<title>Node19</title>
<g id="a_node11"><a xlink:href="rdcu__cmd_8c_a72be2b85493e8b0898f5d2b5b0971e0a.html#a72be2b85493e8b0898f5d2b5b0971e0a" target="_top" xlink:title="create a command to read the RDCU compressed data adaptive 1 size register">
<polygon fill="white" stroke="red" points="19,-1732.5 19,-1762.5 147,-1762.5 147,-1732.5 19,-1732.5"/>
<text text-anchor="start" x="27" y="-1750.5" font-family="Helvetica,sans-Serif" font-size="10.00">rdcu_read_cmd_compr</text>
<text text-anchor="middle" x="83" y="-1739.5" font-family="Helvetica,sans-Serif" font-size="10.00">_data_adaptive_1_size</text>
</a>
</g>
</g>
<!-- Node11&#45;&gt;Node19 -->
<g id="edge10" class="edge">
<title>Node11&#45;&gt;Node19</title>
<path fill="none" stroke="midnightblue" d="M269.61,-1405C268.44,-1468.26 256.41,-1633.77 166,-1723.5 160.63,-1728.83 154.15,-1732.99 147.2,-1736.23"/>
<polygon fill="midnightblue" stroke="midnightblue" points="273.11,-1404.78 269.71,-1394.75 266.11,-1404.71 273.11,-1404.78"/>
</g>
<!-- Node22 -->
<g id="node12" class="node">
<title>Node22</title>
<g id="a_node12"><a xlink:href="rdcu__cmd_8c_a74e516b7241b64b758f665052f1c5bf8.html#a74e516b7241b64b758f665052f1c5bf8" target="_top" xlink:title="create a command to read the RDCU compressed data adaptive 2 size register">
<polygon fill="white" stroke="red" points="19,-1683.5 19,-1713.5 147,-1713.5 147,-1683.5 19,-1683.5"/>
<text text-anchor="start" x="27" y="-1701.5" font-family="Helvetica,sans-Serif" font-size="10.00">rdcu_read_cmd_compr</text>
<text text-anchor="middle" x="83" y="-1690.5" font-family="Helvetica,sans-Serif" font-size="10.00">_data_adaptive_2_size</text>
</a>
</g>
</g>
<!-- Node11&#45;&gt;Node22 -->
<g id="edge11" class="edge">
<title>Node11&#45;&gt;Node22</title>
<path fill="none" stroke="midnightblue" d="M268.12,-1404.81C263.66,-1461.55 244.81,-1599.73 166,-1674.5 160.62,-1679.6 154.21,-1683.63 147.39,-1686.8"/>
<polygon fill="midnightblue" stroke="midnightblue" points="271.63,-1404.82 268.84,-1394.6 264.65,-1404.33 271.63,-1404.82"/>
</g>
<!-- Node24 -->
<g id="node13" class="node">
<title>Node24</title>
<g id="a_node13"><a xlink:href="rdcu__cmd_8c_a4bdc6be33663c0a5fe3cb92b30f9a38d.html#a4bdc6be33663c0a5fe3cb92b30f9a38d" target="_top" xlink:title="create a command to read the RDCU compressed data size register">
<polygon fill="white" stroke="red" points="19.5,-1634.5 19.5,-1664.5 146.5,-1664.5 146.5,-1634.5 19.5,-1634.5"/>
<text text-anchor="start" x="27.5" y="-1652.5" font-family="Helvetica,sans-Serif" font-size="10.00">rdcu_read_cmd_compr</text>
<text text-anchor="middle" x="83" y="-1641.5" font-family="Helvetica,sans-Serif" font-size="10.00">_data_size</text>
</a>
</g>
</g>
<!-- Node11&#45;&gt;Node24 -->
<g id="edge12" class="edge">
<title>Node11&#45;&gt;Node24</title>
<path fill="none" stroke="midnightblue" d="M266.12,-1404.67C258.12,-1454.36 233.33,-1565.41 166,-1625.5 160.36,-1630.54 153.71,-1634.52 146.68,-1637.67"/>
<polygon fill="midnightblue" stroke="midnightblue" points="269.63,-1404.91 267.66,-1394.5 262.71,-1403.87 269.63,-1404.91"/>
</g>
<!-- Node26 -->
<g id="node14" class="node">
<title>Node26</title>
<g id="a_node14"><a xlink:href="rdcu__cmd_8c_a78501ca0e919698834cc00287d186d1e.html#a78501ca0e919698834cc00287d186d1e" target="_top" xlink:title="create a command to read the RDCU compressed data start address register">
<polygon fill="white" stroke="red" points="19.5,-1585.5 19.5,-1615.5 146.5,-1615.5 146.5,-1585.5 19.5,-1585.5"/>
<text text-anchor="start" x="27.5" y="-1603.5" font-family="Helvetica,sans-Serif" font-size="10.00">rdcu_read_cmd_compr</text>
<text text-anchor="middle" x="83" y="-1592.5" font-family="Helvetica,sans-Serif" font-size="10.00">_data_start_addr</text>
</a>
</g>
</g>
<!-- Node11&#45;&gt;Node26 -->
<g id="edge13" class="edge">
<title>Node11&#45;&gt;Node26</title>
<path fill="none" stroke="midnightblue" d="M263.29,-1404.34C251.55,-1446.18 222.09,-1530.59 166,-1576.5 160.26,-1581.2 153.64,-1584.98 146.69,-1588.01"/>
<polygon fill="midnightblue" stroke="midnightblue" points="266.68,-1405.24 265.9,-1394.67 259.92,-1403.42 266.68,-1405.24"/>
</g>
<!-- Node28 -->
<g id="node15" class="node">
<title>Node28</title>
<g id="a_node15"><a xlink:href="rdcu__cmd_8c_aec4806ecfa8d82569778cdc30d8854eb.html#aec4806ecfa8d82569778cdc30d8854eb" target="_top" xlink:title="create a command to read the RDCU compression error register">
<polygon fill="white" stroke="red" points="19.5,-1536.5 19.5,-1566.5 146.5,-1566.5 146.5,-1536.5 19.5,-1536.5"/>
<text text-anchor="start" x="27.5" y="-1554.5" font-family="Helvetica,sans-Serif" font-size="10.00">rdcu_read_cmd_compr</text>
<text text-anchor="middle" x="83" y="-1543.5" font-family="Helvetica,sans-Serif" font-size="10.00">_error</text>
</a>
</g>
</g>
<!-- Node11&#45;&gt;Node28 -->
<g id="edge14" class="edge">
<title>Node11&#45;&gt;Node28</title>
<path fill="none" stroke="midnightblue" d="M258.82,-1403.99C243.2,-1436.96 211.01,-1495.19 166,-1527.5 160.1,-1531.74 153.45,-1535.23 146.56,-1538.12"/>
<polygon fill="midnightblue" stroke="midnightblue" points="262.13,-1405.18 263.13,-1394.63 255.77,-1402.25 262.13,-1405.18"/>
</g>
<!-- Node30 -->
<g id="node16" class="node">
<title>Node30</title>
<g id="a_node16"><a xlink:href="rdcu__cmd_8c_a23db174de10a78d7ffcc343f46ead4ca.html#a23db174de10a78d7ffcc343f46ead4ca" target="_top" xlink:title="create a command to read the RDCU compressor status register">
<polygon fill="white" stroke="red" points="19.5,-1487.5 19.5,-1517.5 146.5,-1517.5 146.5,-1487.5 19.5,-1487.5"/>
<text text-anchor="start" x="27.5" y="-1505.5" font-family="Helvetica,sans-Serif" font-size="10.00">rdcu_read_cmd_compr</text>
<text text-anchor="middle" x="83" y="-1494.5" font-family="Helvetica,sans-Serif" font-size="10.00">_status</text>
</a>
</g>
</g>
<!-- Node11&#45;&gt;Node30 -->
<g id="edge15" class="edge">
<title>Node11&#45;&gt;Node30</title>
<path fill="none" stroke="midnightblue" d="M251.4,-1402.3C232.39,-1424.77 200.51,-1458.56 166,-1478.5 159.96,-1481.99 153.38,-1485 146.65,-1487.6"/>
<polygon fill="midnightblue" stroke="midnightblue" points="254.11,-1404.51 257.8,-1394.57 248.72,-1400.04 254.11,-1404.51"/>
</g>
<!-- Node33 -->
<g id="node17" class="node">
<title>Node33</title>
<g id="a_node17"><a xlink:href="rdcu__cmd_8c_aedffed5b4d844cf8dffed4117ec48089.html#aedffed5b4d844cf8dffed4117ec48089" target="_top" xlink:title="create a command to read the RDCU FPGA version register">
<polygon fill="white" stroke="red" points="24,-1438.5 24,-1468.5 142,-1468.5 142,-1438.5 24,-1438.5"/>
<text text-anchor="start" x="32" y="-1456.5" font-family="Helvetica,sans-Serif" font-size="10.00">rdcu_read_cmd_fpga</text>
<text text-anchor="middle" x="83" y="-1445.5" font-family="Helvetica,sans-Serif" font-size="10.00">_version</text>
</a>
</g>
</g>
<!-- Node11&#45;&gt;Node33 -->
<g id="edge16" class="edge">
<title>Node11&#45;&gt;Node33</title>
<path fill="none" stroke="midnightblue" d="M232.39,-1399.27C212.96,-1409.15 188.57,-1420.82 166,-1429.5 157.69,-1432.7 148.78,-1435.71 139.99,-1438.46"/>
<polygon fill="midnightblue" stroke="midnightblue" points="234.21,-1402.27 241.5,-1394.59 231.01,-1396.05 234.21,-1402.27"/>
</g>
<!-- Node35 -->
<g id="node18" class="node">
<title>Node35</title>
<g id="a_node18"><a xlink:href="rdcu__cmd_8c_a6aed9ddb33f8f95643b4470a6818b561.html#a6aed9ddb33f8f95643b4470a6818b561" target="_top" xlink:title="create a command to read the RDCU LVDS core status register">
<polygon fill="white" stroke="red" points="25,-1389.5 25,-1419.5 141,-1419.5 141,-1389.5 25,-1389.5"/>
<text text-anchor="start" x="33" y="-1407.5" font-family="Helvetica,sans-Serif" font-size="10.00">rdcu_read_cmd_lvds</text>
<text text-anchor="middle" x="83" y="-1396.5" font-family="Helvetica,sans-Serif" font-size="10.00">_core_status</text>
</a>
</g>
</g>
<!-- Node11&#45;&gt;Node35 -->
<g id="edge17" class="edge">
<title>Node11&#45;&gt;Node35</title>
<path fill="none" stroke="midnightblue" d="M193.2,-1389.78C175.83,-1392.12 157.66,-1394.57 141.24,-1396.79"/>
<polygon fill="midnightblue" stroke="midnightblue" points="193.87,-1393.22 203.32,-1388.42 192.94,-1386.29 193.87,-1393.22"/>
</g>
<!-- Node37 -->
<g id="node19" class="node">
<title>Node37</title>
<g id="a_node19"><a xlink:href="rdcu__cmd_8c_af2d361b4f536a99ae87968cf1f1a412b.html#af2d361b4f536a99ae87968cf1f1a412b" target="_top" xlink:title="create a command to read the RDCU updated model start address register">
<polygon fill="white" stroke="red" points="7,-1340.5 7,-1370.5 159,-1370.5 159,-1340.5 7,-1340.5"/>
<text text-anchor="start" x="15" y="-1358.5" font-family="Helvetica,sans-Serif" font-size="10.00">rdcu_read_cmd_new_model</text>
<text text-anchor="middle" x="83" y="-1347.5" font-family="Helvetica,sans-Serif" font-size="10.00">_addr_used</text>
</a>
</g>
</g>
<!-- Node11&#45;&gt;Node37 -->
<g id="edge18" class="edge">
<title>Node11&#45;&gt;Node37</title>
<path fill="none" stroke="midnightblue" d="M193.16,-1369.62C181.98,-1368.18 170.48,-1366.69 159.32,-1365.24"/>
<polygon fill="midnightblue" stroke="midnightblue" points="192.95,-1373.12 203.32,-1370.94 193.85,-1366.18 192.95,-1373.12"/>
</g>
<!-- Node39 -->
<g id="node20" class="node">
<title>Node39</title>
<g id="a_node20"><a xlink:href="rdcu__cmd_8c_a4129bfe37351e950a25bbe9ead3892f9.html#a4129bfe37351e950a25bbe9ead3892f9" target="_top" xlink:title="create a command to read the RDCU status register">
<polygon fill="white" stroke="red" points="24.5,-1291.5 24.5,-1321.5 141.5,-1321.5 141.5,-1291.5 24.5,-1291.5"/>
<text text-anchor="start" x="32.5" y="-1309.5" font-family="Helvetica,sans-Serif" font-size="10.00">rdcu_read_cmd_rdcu</text>
<text text-anchor="middle" x="83" y="-1298.5" font-family="Helvetica,sans-Serif" font-size="10.00">_status</text>
</a>
</g>
</g>
<!-- Node11&#45;&gt;Node39 -->
<g id="edge19" class="edge">
<title>Node11&#45;&gt;Node39</title>
<path fill="none" stroke="midnightblue" d="M230.6,-1359.91C211.42,-1350.65 187.78,-1339.83 166,-1331.5 156.82,-1327.99 146.93,-1324.63 137.3,-1321.58"/>
<polygon fill="midnightblue" stroke="midnightblue" points="229.11,-1363.07 239.63,-1364.31 232.18,-1356.78 229.11,-1363.07"/>
</g>
<!-- Node41 -->
<g id="node21" class="node">
<title>Node41</title>
<g id="a_node21"><a xlink:href="rdcu__cmd_8c_a5243e84a3de87f6f8a14f21efb7290d6.html#a5243e84a3de87f6f8a14f21efb7290d6" target="_top" xlink:title="generate a read command for an arbitrary register">
<polygon fill="white" stroke="black" points="16,-1253 16,-1272 150,-1272 150,-1253 16,-1253"/>
<text text-anchor="middle" x="83" y="-1260" font-family="Helvetica,sans-Serif" font-size="10.00">rdcu_read_cmd_register</text>
</a>
</g>
</g>
<!-- Node11&#45;&gt;Node41 -->
<g id="edge20" class="edge">
<title>Node11&#45;&gt;Node41</title>
<path fill="none" stroke="midnightblue" d="M250.91,-1356.19C231.91,-1333.93 200.38,-1301.11 166,-1282.5 158.01,-1278.18 149.08,-1274.77 140.14,-1272.1"/>
<polygon fill="midnightblue" stroke="midnightblue" points="248.47,-1358.72 257.56,-1364.15 253.84,-1354.23 248.47,-1358.72"/>
</g>
<!-- Node42 -->
<g id="node22" class="node">
<title>Node42</title>
<g id="a_node22"><a xlink:href="rdcu__cmd_8c_a681ccd56bc56f1fe99c09c5be1a1db63.html#a681ccd56bc56f1fe99c09c5be1a1db63" target="_top" xlink:title="create a command to read the RDCU RMAP last error register">
<polygon fill="white" stroke="red" points="22,-1203.5 22,-1233.5 144,-1233.5 144,-1203.5 22,-1203.5"/>
<text text-anchor="start" x="30" y="-1221.5" font-family="Helvetica,sans-Serif" font-size="10.00">rdcu_read_cmd_rmap</text>
<text text-anchor="middle" x="83" y="-1210.5" font-family="Helvetica,sans-Serif" font-size="10.00">_last_err</text>
</a>
</g>
</g>
<!-- Node11&#45;&gt;Node42 -->
<g id="edge21" class="edge">
<title>Node11&#45;&gt;Node42</title>
<path fill="none" stroke="midnightblue" d="M257.27,-1355.26C240.68,-1324.77 208.19,-1272.87 166,-1243.5 159.4,-1238.91 151.94,-1235.14 144.27,-1232.06"/>
<polygon fill="midnightblue" stroke="midnightblue" points="254.32,-1357.16 262.09,-1364.35 260.5,-1353.88 254.32,-1357.16"/>
</g>
<!-- Node44 -->
<g id="node23" class="node">
<title>Node44</title>
<g id="a_node23"><a xlink:href="rdcu__cmd_8c_ac6d3b0a97d702950111f86e5c9deaa18.html#ac6d3b0a97d702950111f86e5c9deaa18" target="_top" xlink:title="create a command to read the RDCU RMAP no reply error counter register">
<polygon fill="white" stroke="red" points="22,-1154.5 22,-1184.5 144,-1184.5 144,-1154.5 22,-1154.5"/>
<text text-anchor="start" x="30" y="-1172.5" font-family="Helvetica,sans-Serif" font-size="10.00">rdcu_read_cmd_rmap</text>
<text text-anchor="middle" x="83" y="-1161.5" font-family="Helvetica,sans-Serif" font-size="10.00">_no_reply_err_cntrs</text>
</a>
</g>
</g>
<!-- Node11&#45;&gt;Node44 -->
<g id="edge22" class="edge">
<title>Node11&#45;&gt;Node44</title>
<path fill="none" stroke="midnightblue" d="M262.26,-1354.54C249.45,-1314.79 219,-1237.22 166,-1194.5 159.51,-1189.27 151.94,-1185.13 144.06,-1181.86"/>
<polygon fill="midnightblue" stroke="midnightblue" points="258.96,-1355.73 265.28,-1364.24 265.65,-1353.65 258.96,-1355.73"/>
</g>
<!-- Node46 -->
<g id="node24" class="node">
<title>Node46</title>
<g id="a_node24"><a xlink:href="rdcu__cmd_8c_a613a6606d484088d04156f15b8284acd.html#a613a6606d484088d04156f15b8284acd" target="_top" xlink:title="create a command to read the RDCU RMAP packet error counter register">
<polygon fill="white" stroke="red" points="22,-1105.5 22,-1135.5 144,-1135.5 144,-1105.5 22,-1105.5"/>
<text text-anchor="start" x="30" y="-1123.5" font-family="Helvetica,sans-Serif" font-size="10.00">rdcu_read_cmd_rmap</text>
<text text-anchor="middle" x="83" y="-1112.5" font-family="Helvetica,sans-Serif" font-size="10.00">_pckt_err_cntrs</text>
</a>
</g>
</g>
<!-- Node11&#45;&gt;Node46 -->
<g id="edge23" class="edge">
<title>Node11&#45;&gt;Node46</title>
<path fill="none" stroke="midnightblue" d="M265.43,-1354.27C256.4,-1306.45 230.15,-1202.35 166,-1145.5 159.65,-1139.87 152.06,-1135.51 144.11,-1132.13"/>
<polygon fill="midnightblue" stroke="midnightblue" points="262.03,-1355.14 267.24,-1364.37 268.92,-1353.91 262.03,-1355.14"/>
</g>
<!-- Node48 -->
<g id="node25" class="node">
<title>Node48</title>
<g id="a_node25"><a xlink:href="rdcu__cmd_8c_a9a23215025204062c5bfc18ea2947369.html#a9a23215025204062c5bfc18ea2947369" target="_top" xlink:title="create a command to read the RDCU used number of samples register">
<polygon fill="white" stroke="red" points="0,-1067 0,-1086 166,-1086 166,-1067 0,-1067"/>
<text text-anchor="middle" x="83" y="-1074" font-family="Helvetica,sans-Serif" font-size="10.00">rdcu_read_cmd_samples_used</text>
</a>
</g>
</g>
<!-- Node11&#45;&gt;Node48 -->
<g id="edge24" class="edge">
<title>Node11&#45;&gt;Node48</title>
<path fill="none" stroke="midnightblue" d="M267.95,-1354.16C263.14,-1298.7 243.68,-1165.98 166,-1096.5 161.19,-1092.2 155.62,-1088.79 149.68,-1086.09"/>
<polygon fill="midnightblue" stroke="midnightblue" points="264.46,-1354.48 268.73,-1364.18 271.44,-1353.94 264.46,-1354.48"/>
</g>
<!-- Node50 -->
<g id="node26" class="node">
<title>Node50</title>
<g id="a_node26"><a xlink:href="rdcu__cmd_8c_a9605c97d8f8ae9b9deac69cf2967b5a3.html#a9605c97d8f8ae9b9deac69cf2967b5a3" target="_top" xlink:title="create a command to read the RDCU SPW error counters register">
<polygon fill="white" stroke="red" points="16,-1017.5 16,-1047.5 150,-1047.5 150,-1017.5 16,-1017.5"/>
<text text-anchor="start" x="24" y="-1035.5" font-family="Helvetica,sans-Serif" font-size="10.00">rdcu_read_cmd_spw_err</text>
<text text-anchor="middle" x="83" y="-1024.5" font-family="Helvetica,sans-Serif" font-size="10.00">_cntrs</text>
</a>
</g>
</g>
<!-- Node11&#45;&gt;Node50 -->
<g id="edge25" class="edge">
<title>Node11&#45;&gt;Node50</title>
<path fill="none" stroke="midnightblue" d="M268.92,-1354.03C266.15,-1293.71 250.67,-1140.9 166,-1057.5 161.44,-1053.01 156.1,-1049.32 150.37,-1046.29"/>
<polygon fill="midnightblue" stroke="midnightblue" points="265.43,-1354.32 269.31,-1364.19 272.43,-1354.06 265.43,-1354.32"/>
</g>
<!-- Node52 -->
<g id="node27" class="node">
<title>Node52</title>
<g id="a_node27"><a xlink:href="rdcu__cmd_8c_ac2bc907d35f361cc6176ad9bc5678a8c.html#ac2bc907d35f361cc6176ad9bc5678a8c" target="_top" xlink:title="create a command to read the RDCU SPW link status register">
<polygon fill="white" stroke="red" points="13.5,-968.5 13.5,-998.5 152.5,-998.5 152.5,-968.5 13.5,-968.5"/>
<text text-anchor="start" x="21.5" y="-986.5" font-family="Helvetica,sans-Serif" font-size="10.00">rdcu_read_cmd_spw_link</text>
<text text-anchor="middle" x="83" y="-975.5" font-family="Helvetica,sans-Serif" font-size="10.00">_status</text>
</a>
</g>
</g>
<!-- Node11&#45;&gt;Node52 -->
<g id="edge26" class="edge">
<title>Node11&#45;&gt;Node52</title>
<path fill="none" stroke="midnightblue" d="M270.21,-1353.93C270.62,-1287.37 262.27,-1107.1 166,-1008.5 162.05,-1004.45 157.46,-1001.06 152.52,-998.21"/>
<polygon fill="midnightblue" stroke="midnightblue" points="266.71,-1354.25 270.07,-1364.3 273.71,-1354.35 266.71,-1354.25"/>
</g>
<!-- Node54 -->
<g id="node28" class="node">
<title>Node54</title>
<g id="a_node28"><a xlink:href="rdcu__cmd_8c_aadc49549fc11a28677d51fb952819475.html#aadc49549fc11a28677d51fb952819475" target="_top" xlink:title="create a command to read the SRAM EDAC Status register">
<polygon fill="white" stroke="red" points="22.5,-919.5 22.5,-949.5 143.5,-949.5 143.5,-919.5 22.5,-919.5"/>
<text text-anchor="start" x="30.5" y="-937.5" font-family="Helvetica,sans-Serif" font-size="10.00">rdcu_read_cmd_sram</text>
<text text-anchor="middle" x="83" y="-926.5" font-family="Helvetica,sans-Serif" font-size="10.00">_edac_status</text>
</a>
</g>
</g>
<!-- Node11&#45;&gt;Node54 -->
<g id="edge27" class="edge">
<title>Node11&#45;&gt;Node54</title>
<path fill="none" stroke="midnightblue" d="M266.54,-1354.18C256.51,-1272.51 221.3,-1017.88 166,-959.5 159.86,-953.02 152.09,-948.2 143.8,-944.62"/>
<polygon fill="midnightblue" stroke="midnightblue" points="263.09,-1354.81 267.76,-1364.32 270.04,-1353.97 263.09,-1354.81"/>
</g>
<!-- Node56 -->
<g id="node29" class="node">
<title>Node56</title>
<g id="a_node29"><a xlink:href="rdcu__cmd_8c_aa22cbc05ef71a00a8c3f3c775ce07781.html#aa22cbc05ef71a00a8c3f3c775ce07781" target="_top" xlink:title="create a command to read the RDCU used parameter 1 register">
<polygon fill="white" stroke="red" points="23.5,-870.5 23.5,-900.5 142.5,-900.5 142.5,-870.5 23.5,-870.5"/>
<text text-anchor="start" x="31.5" y="-888.5" font-family="Helvetica,sans-Serif" font-size="10.00">rdcu_read_cmd_used</text>
<text text-anchor="middle" x="83" y="-877.5" font-family="Helvetica,sans-Serif" font-size="10.00">_param1</text>
</a>
</g>
</g>
<!-- Node11&#45;&gt;Node56 -->
<g id="edge28" class="edge">
<title>Node11&#45;&gt;Node56</title>
<path fill="none" stroke="midnightblue" d="M267.21,-1353.88C258.86,-1265.73 227.19,-976.71 166,-910.5 159.64,-903.61 151.44,-898.6 142.69,-894.96"/>
<polygon fill="midnightblue" stroke="midnightblue" points="263.75,-1354.42 268.16,-1364.05 270.72,-1353.77 263.75,-1354.42"/>
</g>
<!-- Node60 -->
<g id="node30" class="node">
<title>Node60</title>
<g id="a_node30"><a xlink:href="rdcu__cmd_8c_a94908117249b8e8c3434b03067948cfc.html#a94908117249b8e8c3434b03067948cfc" target="_top" xlink:title="create a command to read the RDCU unused parameter 2 register">
<polygon fill="white" stroke="red" points="23.5,-821.5 23.5,-851.5 142.5,-851.5 142.5,-821.5 23.5,-821.5"/>
<text text-anchor="start" x="31.5" y="-839.5" font-family="Helvetica,sans-Serif" font-size="10.00">rdcu_read_cmd_used</text>
<text text-anchor="middle" x="83" y="-828.5" font-family="Helvetica,sans-Serif" font-size="10.00">_param2</text>
</a>
</g>
</g>
<!-- Node11&#45;&gt;Node60 -->
<g id="edge29" class="edge">
<title>Node11&#45;&gt;Node60</title>
<path fill="none" stroke="midnightblue" d="M266.04,-1354.52C252.19,-1256.14 199.94,-898.96 166,-861.5 159.71,-854.55 151.54,-849.51 142.81,-845.85"/>
<polygon fill="midnightblue" stroke="midnightblue" points="262.58,-1355.04 267.43,-1364.46 269.51,-1354.07 262.58,-1355.04"/>
</g>
<!-- Node63 -->
<g id="node32" class="node">
<title>Node63</title>
<g id="a_node32"><a xlink:href="rdcu__cmd_8c_a8a2bdc35e60b4f50569ea96395254e08.html#a8a2bdc35e60b4f50569ea96395254e08" target="_top" xlink:title="create a command to write arbitrary data to the RDCU">
<polygon fill="white" stroke="red" points="22.5,-783 22.5,-802 143.5,-802 143.5,-783 22.5,-783"/>
<text text-anchor="middle" x="83" y="-790" font-family="Helvetica,sans-Serif" font-size="10.00">rdcu_write_cmd_data</text>
</a>
</g>
</g>
<!-- Node62&#45;&gt;Node63 -->
<g id="edge31" class="edge">
<title>Node62&#45;&gt;Node63</title>
<path fill="none" stroke="midnightblue" d="M255.52,-909.51C238.12,-881.81 205.78,-836.95 166,-812.5 158.88,-808.13 150.87,-804.71 142.72,-802.04"/>
<polygon fill="midnightblue" stroke="midnightblue" points="252.63,-911.49 260.84,-918.18 258.6,-907.83 252.63,-911.49"/>
</g>
<!-- Node67 -->
<g id="node34" class="node">
<title>Node67</title>
<g id="a_node34"><a xlink:href="rdcu__cmd_8c_a2944d1828aac75e16575e1afe4a65855.html#a2944d1828aac75e16575e1afe4a65855" target="_top" xlink:title="create a command to write the RDCU adaptive parameter 1 register">
<polygon fill="white" stroke="red" points="12,-733.5 12,-763.5 154,-763.5 154,-733.5 12,-733.5"/>
<text text-anchor="start" x="20" y="-751.5" font-family="Helvetica,sans-Serif" font-size="10.00">rdcu_write_cmd_adaptive</text>
<text text-anchor="middle" x="83" y="-740.5" font-family="Helvetica,sans-Serif" font-size="10.00">_param1</text>
</a>
</g>
</g>
<!-- Node66&#45;&gt;Node67 -->
<g id="edge33" class="edge">
<title>Node66&#45;&gt;Node67</title>
<path fill="none" stroke="midnightblue" d="M268.93,-429.87C266.18,-489.97 250.73,-642.12 166,-724.5 162.49,-727.91 158.52,-730.84 154.27,-733.36"/>
<polygon fill="midnightblue" stroke="midnightblue" points="272.43,-429.89 269.31,-419.76 265.44,-429.62 272.43,-429.89"/>
</g>
<!-- Node69 -->
<g id="node35" class="node">
<title>Node69</title>
<g id="a_node35"><a xlink:href="rdcu__cmd_8c_ad8a771d26933f108cd26ee57a4e99be5.html#ad8a771d26933f108cd26ee57a4e99be5" target="_top" xlink:title="create a command to write the RDCU adaptive parameter 2 register">
<polygon fill="white" stroke="red" points="12,-684.5 12,-714.5 154,-714.5 154,-684.5 12,-684.5"/>
<text text-anchor="start" x="20" y="-702.5" font-family="Helvetica,sans-Serif" font-size="10.00">rdcu_write_cmd_adaptive</text>
<text text-anchor="middle" x="83" y="-691.5" font-family="Helvetica,sans-Serif" font-size="10.00">_param2</text>
</a>
</g>
</g>
<!-- Node66&#45;&gt;Node69 -->
<g id="edge34" class="edge">
<title>Node66&#45;&gt;Node69</title>
<path fill="none" stroke="midnightblue" d="M267.11,-429.8C260.74,-482.96 238.51,-606.91 166,-674.5 161.86,-678.36 157.15,-681.62 152.12,-684.38"/>
<polygon fill="midnightblue" stroke="midnightblue" points="270.62,-429.9 268.25,-419.58 263.67,-429.13 270.62,-429.9"/>
</g>
<!-- Node71 -->
<g id="node36" class="node">
<title>Node71</title>
<g id="a_node36"><a xlink:href="rdcu__cmd_8c_ae70a8d9356aa151e035ccec420fc7a01.html#ae70a8d9356aa151e035ccec420fc7a01" target="_top" xlink:title="create a command to write the RDCU ADC control register">
<polygon fill="white" stroke="red" points="14.5,-646 14.5,-665 151.5,-665 151.5,-646 14.5,-646"/>
<text text-anchor="middle" x="83" y="-653" font-family="Helvetica,sans-Serif" font-size="10.00">rdcu_write_cmd_adc_ctrl</text>
</a>
</g>
</g>
<!-- Node66&#45;&gt;Node71 -->
<g id="edge35" class="edge">
<title>Node66&#45;&gt;Node71</title>
<path fill="none" stroke="midnightblue" d="M265.76,-429.62C257.25,-477.58 231.81,-582.25 166,-636.5 161.38,-640.31 156.13,-643.39 150.58,-645.87"/>
<polygon fill="midnightblue" stroke="midnightblue" points="269.22,-430.2 267.41,-419.76 262.31,-429.04 269.22,-430.2"/>
</g>
<!-- Node73 -->
<g id="node37" class="node">
<title>Node73</title>
<g id="a_node37"><a xlink:href="rdcu__cmd_8c_a90d3bc193d20e828f4fc91fa0bca84b6.html#a90d3bc193d20e828f4fc91fa0bca84b6" target="_top" xlink:title="create a command to write the RDCU compressor control register">
<polygon fill="white" stroke="red" points="7.5,-608 7.5,-627 158.5,-627 158.5,-608 7.5,-608"/>
<text text-anchor="middle" x="83" y="-615" font-family="Helvetica,sans-Serif" font-size="10.00">rdcu_write_cmd_compr_ctrl</text>
</a>
</g>
</g>
<!-- Node66&#45;&gt;Node73 -->
<g id="edge36" class="edge">
<title>Node66&#45;&gt;Node73</title>
<path fill="none" stroke="midnightblue" d="M263.38,-429.58C251.83,-471.39 222.71,-555.01 166,-598.5 161.01,-602.32 155.39,-605.4 149.48,-607.87"/>
<polygon fill="midnightblue" stroke="midnightblue" points="266.83,-430.23 266,-419.67 260.06,-428.44 266.83,-430.23"/>
</g>
<!-- Node77 -->
<g id="node38" class="node">
<title>Node77</title>
<g id="a_node38"><a xlink:href="rdcu__cmd_8c_adfbdab2c1a18014b2a37db9df7c19c6d.html#adfbdab2c1a18014b2a37db9df7c19c6d" target="_top" xlink:title="create a command to write the RDCU compressed data buffer length register">
<polygon fill="white" stroke="red" points="18,-558.5 18,-588.5 148,-588.5 148,-558.5 18,-558.5"/>
<text text-anchor="start" x="26" y="-576.5" font-family="Helvetica,sans-Serif" font-size="10.00">rdcu_write_cmd_compr</text>
<text text-anchor="middle" x="83" y="-565.5" font-family="Helvetica,sans-Serif" font-size="10.00">_data_buf_len</text>
</a>
</g>
</g>
<!-- Node66&#45;&gt;Node77 -->
<g id="edge37" class="edge">
<title>Node66&#45;&gt;Node77</title>
<path fill="none" stroke="midnightblue" d="M258.44,-429C242.58,-461.38 210.33,-518 166,-549.5 160.56,-553.37 154.5,-556.62 148.2,-559.34"/>
<polygon fill="midnightblue" stroke="midnightblue" points="261.69,-430.31 262.83,-419.78 255.37,-427.3 261.69,-430.31"/>
</g>
<!-- Node79 -->
<g id="node39" class="node">
<title>Node79</title>
<g id="a_node39"><a xlink:href="rdcu__cmd_8c_a654915f8967b0f41dfd90ce27f01203d.html#a654915f8967b0f41dfd90ce27f01203d" target="_top" xlink:title="create a command to write the RDCU compressed data buffer start address register">
<polygon fill="white" stroke="red" points="18,-509.5 18,-539.5 148,-539.5 148,-509.5 18,-509.5"/>
<text text-anchor="start" x="26" y="-527.5" font-family="Helvetica,sans-Serif" font-size="10.00">rdcu_write_cmd_compr</text>
<text text-anchor="middle" x="83" y="-516.5" font-family="Helvetica,sans-Serif" font-size="10.00">_data_buf_start_addr</text>
</a>
</g>
</g>
<!-- Node66&#45;&gt;Node79 -->
<g id="edge38" class="edge">
<title>Node66&#45;&gt;Node79</title>
<path fill="none" stroke="midnightblue" d="M250.36,-427.6C231.14,-449.36 199.64,-481.4 166,-500.5 160.07,-503.87 153.62,-506.8 147.03,-509.35"/>
<polygon fill="midnightblue" stroke="midnightblue" points="253.2,-429.66 257.1,-419.81 247.91,-425.08 253.2,-429.66"/>
</g>
<!-- Node81 -->
<g id="node40" class="node">
<title>Node81</title>
<g id="a_node40"><a xlink:href="rdcu__cmd_8c_a43c158ef3d80e32b9d18fce7c4730b00.html#a43c158ef3d80e32b9d18fce7c4730b00" target="_top" xlink:title="create a command to write the RDCU compressor parameter 1 register">
<polygon fill="white" stroke="red" points="5,-460.5 5,-490.5 161,-490.5 161,-460.5 5,-460.5"/>
<text text-anchor="start" x="13" y="-478.5" font-family="Helvetica,sans-Serif" font-size="10.00">rdcu_write_cmd_compressor</text>
<text text-anchor="middle" x="83" y="-467.5" font-family="Helvetica,sans-Serif" font-size="10.00">_param1</text>
</a>
</g>
</g>
<!-- Node66&#45;&gt;Node81 -->
<g id="edge39" class="edge">
<title>Node66&#45;&gt;Node81</title>
<path fill="none" stroke="midnightblue" d="M229.92,-424.07C210.86,-433.07 187.52,-443.51 166,-451.5 157.52,-454.65 148.42,-457.66 139.49,-460.42"/>
<polygon fill="midnightblue" stroke="midnightblue" points="231.67,-427.11 239.18,-419.64 228.65,-420.79 231.67,-427.11"/>
</g>
<!-- Node83 -->
<g id="node41" class="node">
<title>Node83</title>
<g id="a_node41"><a xlink:href="rdcu__cmd_8c_afe4ea7360e3dd36f9addc5ebbd7c44e1.html#afe4ea7360e3dd36f9addc5ebbd7c44e1" target="_top" xlink:title="create a command to write the RDCU compressor parameter 2 register">
<polygon fill="white" stroke="red" points="5,-411.5 5,-441.5 161,-441.5 161,-411.5 5,-411.5"/>
<text text-anchor="start" x="13" y="-429.5" font-family="Helvetica,sans-Serif" font-size="10.00">rdcu_write_cmd_compressor</text>
<text text-anchor="middle" x="83" y="-418.5" font-family="Helvetica,sans-Serif" font-size="10.00">_param2</text>
</a>
</g>
</g>
<!-- Node66&#45;&gt;Node83 -->
<g id="edge40" class="edge">
<title>Node66&#45;&gt;Node83</title>
<path fill="none" stroke="midnightblue" d="M191.77,-413.72C181.69,-414.91 171.37,-416.14 161.31,-417.33"/>
<polygon fill="midnightblue" stroke="midnightblue" points="192.22,-417.19 201.74,-412.54 191.4,-410.24 192.22,-417.19"/>
</g>
<!-- Node85 -->
<g id="node42" class="node">
<title>Node85</title>
<g id="a_node42"><a xlink:href="rdcu__cmd_8c_a80517218458f16f59ee8eea57f339978.html#a80517218458f16f59ee8eea57f339978" target="_top" xlink:title="create a command to write the RDCU core control register">
<polygon fill="white" stroke="red" points="12.5,-373 12.5,-392 153.5,-392 153.5,-373 12.5,-373"/>
<text text-anchor="middle" x="83" y="-380" font-family="Helvetica,sans-Serif" font-size="10.00">rdcu_write_cmd_core_ctrl</text>
</a>
</g>
</g>
<!-- Node66&#45;&gt;Node85 -->
<g id="edge41" class="edge">
<title>Node66&#45;&gt;Node85</title>
<path fill="none" stroke="midnightblue" d="M191.74,-395.28C179.13,-393.78 166.15,-392.24 153.75,-390.77"/>
<polygon fill="midnightblue" stroke="midnightblue" points="191.4,-398.76 201.74,-396.46 192.22,-391.81 191.4,-398.76"/>
</g>
<!-- Node87 -->
<g id="node43" class="node">
<title>Node87</title>
<g id="a_node43"><a xlink:href="rdcu__cmd_8c_a66861216c6dd740f242702f61ef3a5ad.html#a66861216c6dd740f242702f61ef3a5ad" target="_top" xlink:title="create a command to write the RDCU data start address register">
<polygon fill="white" stroke="red" points="22.5,-323.5 22.5,-353.5 143.5,-353.5 143.5,-323.5 22.5,-323.5"/>
<text text-anchor="start" x="30.5" y="-341.5" font-family="Helvetica,sans-Serif" font-size="10.00">rdcu_write_cmd_data</text>
<text text-anchor="middle" x="83" y="-330.5" font-family="Helvetica,sans-Serif" font-size="10.00">_start_addr</text>
</a>
</g>
</g>
<!-- Node66&#45;&gt;Node87 -->
<g id="edge42" class="edge">
<title>Node66&#45;&gt;Node87</title>
<path fill="none" stroke="midnightblue" d="M223.75,-385.45C205.86,-378.25 185.09,-370.18 166,-363.5 156.31,-360.11 145.88,-356.73 135.82,-353.6"/>
<polygon fill="midnightblue" stroke="midnightblue" points="222.79,-388.84 233.37,-389.35 225.42,-382.35 222.79,-388.84"/>
</g>
<!-- Node89 -->
<g id="node44" class="node">
<title>Node89</title>
<g id="a_node44"><a xlink:href="rdcu__cmd_8c_a0a7cce640f7386aa2da7678bb8df8974.html#a0a7cce640f7386aa2da7678bb8df8974" target="_top" xlink:title="create a command to write the RDCU LVDS control register">
<polygon fill="white" stroke="red" points="13,-285 13,-304 153,-304 153,-285 13,-285"/>
<text text-anchor="middle" x="83" y="-292" font-family="Helvetica,sans-Serif" font-size="10.00">rdcu_write_cmd_lvds_ctrl</text>
</a>
</g>
</g>
<!-- Node66&#45;&gt;Node89 -->
<g id="edge43" class="edge">
<title>Node66&#45;&gt;Node89</title>
<path fill="none" stroke="midnightblue" d="M249.59,-381.87C230.23,-361.28 199.01,-331.58 166,-314.5 157.67,-310.19 148.38,-306.79 139.13,-304.1"/>
<polygon fill="midnightblue" stroke="midnightblue" points="247.05,-384.28 256.4,-389.27 252.2,-379.54 247.05,-384.28"/>
</g>
<!-- Node91 -->
<g id="node45" class="node">
<title>Node91</title>
<g id="a_node45"><a xlink:href="rdcu__cmd_8c_af20be70df2d9618f6c4bd4ca075dc27f.html#af20be70df2d9618f6c4bd4ca075dc27f" target="_top" xlink:title="create a command to write the RDCU model start address register">
<polygon fill="white" stroke="red" points="18,-235.5 18,-265.5 148,-265.5 148,-235.5 18,-235.5"/>
<text text-anchor="start" x="26" y="-253.5" font-family="Helvetica,sans-Serif" font-size="10.00">rdcu_write_cmd_model</text>
<text text-anchor="middle" x="83" y="-242.5" font-family="Helvetica,sans-Serif" font-size="10.00">_start_addr</text>
</a>
</g>
</g>
<!-- Node66&#45;&gt;Node91 -->
<g id="edge44" class="edge">
<title>Node66&#45;&gt;Node91</title>
<path fill="none" stroke="midnightblue" d="M256.43,-380.61C239.35,-351.59 206.76,-303.1 166,-275.5 160.33,-271.66 154.05,-268.39 147.57,-265.62"/>
<polygon fill="midnightblue" stroke="midnightblue" points="253.4,-382.37 261.42,-389.3 259.47,-378.88 253.4,-382.37"/>
</g>
<!-- Node93 -->
<g id="node46" class="node">
<title>Node93</title>
<g id="a_node46"><a xlink:href="rdcu__cmd_8c_ade3530986dac8e497f5c3dcff2c53e69.html#ade3530986dac8e497f5c3dcff2c53e69" target="_top" xlink:title="create a command to write the RDCU updated/new model start address register">
<polygon fill="white" stroke="red" points="23.5,-186.5 23.5,-216.5 142.5,-216.5 142.5,-186.5 23.5,-186.5"/>
<text text-anchor="start" x="31.5" y="-204.5" font-family="Helvetica,sans-Serif" font-size="10.00">rdcu_write_cmd_new</text>
<text text-anchor="middle" x="83" y="-193.5" font-family="Helvetica,sans-Serif" font-size="10.00">_model_start_addr</text>
</a>
</g>
</g>
<!-- Node66&#45;&gt;Node93 -->
<g id="edge45" class="edge">
<title>Node66&#45;&gt;Node93</title>
<path fill="none" stroke="midnightblue" d="M261.62,-379.41C248.22,-340.84 217.35,-267.18 166,-226.5 159.12,-221.05 151.05,-216.78 142.71,-213.44"/>
<polygon fill="midnightblue" stroke="midnightblue" points="258.44,-380.94 264.94,-389.3 265.07,-378.71 258.44,-380.94"/>
</g>
<!-- Node95 -->
<g id="node47" class="node">
<title>Node95</title>
<g id="a_node47"><a xlink:href="rdcu__cmd_8c_aa541ffd538036f3c511cb0932d3dd463.html#aa541ffd538036f3c511cb0932d3dd463" target="_top" xlink:title="create a command to write the RDCU number of samples register">
<polygon fill="white" stroke="red" points="22.5,-137.5 22.5,-167.5 143.5,-167.5 143.5,-137.5 22.5,-137.5"/>
<text text-anchor="start" x="30.5" y="-155.5" font-family="Helvetica,sans-Serif" font-size="10.00">rdcu_write_cmd_num</text>
<text text-anchor="middle" x="83" y="-144.5" font-family="Helvetica,sans-Serif" font-size="10.00">_samples</text>
</a>
</g>
</g>
<!-- Node66&#45;&gt;Node95 -->
<g id="edge46" class="edge">
<title>Node66&#45;&gt;Node95</title>
<path fill="none" stroke="midnightblue" d="M265.06,-379.34C255.51,-332.63 228.56,-232.31 166,-177.5 159.51,-171.81 151.75,-167.42 143.63,-164.02"/>
<polygon fill="midnightblue" stroke="midnightblue" points="261.64,-380.08 266.99,-389.23 268.51,-378.74 261.64,-380.08"/>
</g>
<!-- Node97 -->
<g id="node48" class="node">
<title>Node97</title>
<g id="a_node48"><a xlink:href="rdcu__cmd_8c_a912b1c53908f00c48757ab2441f8c65d.html#a912b1c53908f00c48757ab2441f8c65d" target="_top" xlink:title="create a command to write the RDCU reset register">
<polygon fill="white" stroke="red" points="23,-88.5 23,-118.5 143,-118.5 143,-88.5 23,-88.5"/>
<text text-anchor="start" x="31" y="-106.5" font-family="Helvetica,sans-Serif" font-size="10.00">rdcu_write_cmd_rdcu</text>
<text text-anchor="middle" x="83" y="-95.5" font-family="Helvetica,sans-Serif" font-size="10.00">_reset</text>
</a>
</g>
</g>
<!-- Node66&#45;&gt;Node97 -->
<g id="edge47" class="edge">
<title>Node66&#45;&gt;Node97</title>
<path fill="none" stroke="midnightblue" d="M267.37,-379.37C261.46,-325.47 239.99,-197.98 166,-128.5 159.49,-122.39 151.53,-117.77 143.15,-114.27"/>
<polygon fill="midnightblue" stroke="midnightblue" points="263.9,-379.83 268.39,-389.42 270.87,-379.12 263.9,-379.83"/>
</g>
<!-- Node99 -->
<g id="node49" class="node">
<title>Node99</title>
<g id="a_node49"><a xlink:href="rdcu__cmd_8c_a23abc9bd760c7257017e4baa8fdb8196.html#a23abc9bd760c7257017e4baa8fdb8196" target="_top" xlink:title="generate a write command for an arbitrary register">
<polygon fill="white" stroke="black" points="14.5,-50 14.5,-69 151.5,-69 151.5,-50 14.5,-50"/>
<text text-anchor="middle" x="83" y="-57" font-family="Helvetica,sans-Serif" font-size="10.00">rdcu_write_cmd_register</text>
</a>
</g>
</g>
<!-- Node66&#45;&gt;Node99 -->
<g id="edge48" class="edge">
<title>Node66&#45;&gt;Node99</title>
<path fill="none" stroke="midnightblue" d="M269.33,-378.91C267.45,-317.62 253.83,-161.46 166,-79.5 161.39,-75.2 156.02,-71.78 150.27,-69.07"/>
<polygon fill="midnightblue" stroke="midnightblue" points="265.83,-379.29 269.55,-389.21 272.83,-379.13 265.83,-379.29"/>
</g>
<!-- Node100 -->
<g id="node50" class="node">
<title>Node100</title>
<g id="a_node50"><a xlink:href="rdcu__cmd_8c_a5638f9a8a446cd2eb6798aa33bfc2716.html#a5638f9a8a446cd2eb6798aa33bfc2716" target="_top" xlink:title="create a command to write the RDCU SPW link control register">
<polygon fill="white" stroke="red" points="23.5,-0.5 23.5,-30.5 142.5,-30.5 142.5,-0.5 23.5,-0.5"/>
<text text-anchor="start" x="31.5" y="-18.5" font-family="Helvetica,sans-Serif" font-size="10.00">rdcu_write_cmd_spw</text>
<text text-anchor="middle" x="83" y="-7.5" font-family="Helvetica,sans-Serif" font-size="10.00">_link_ctrl</text>
</a>
</g>
</g>
<!-- Node66&#45;&gt;Node100 -->
<g id="edge49" class="edge">
<title>Node66&#45;&gt;Node100</title>
<path fill="none" stroke="midnightblue" d="M270.05,-378.95C270.01,-313.26 260.61,-136.92 166,-40.5 159.54,-33.91 151.4,-29.05 142.77,-25.46"/>
<polygon fill="midnightblue" stroke="midnightblue" points="266.54,-379.17 269.97,-389.2 273.54,-379.22 266.54,-379.17"/>
</g>
</g>
</svg>
