<?xml version="1.0" encoding="UTF-8" standalone="no"?>
<!DOCTYPE svg PUBLIC "-//W3C//DTD SVG 1.1//EN"
 "http://www.w3.org/Graphics/SVG/1.1/DTD/svg11.dtd">
<!-- Generated by graphviz version 2.43.0 (0)
 -->
<!-- Title: cmp_cfg Pages: 1 -->
<svg width="159pt" height="391pt"
 viewBox="0.00 0.00 158.50 391.00" xmlns="http://www.w3.org/2000/svg" xmlns:xlink="http://www.w3.org/1999/xlink">
<g id="graph0" class="graph" transform="scale(1 1) rotate(0) translate(4 387)">
<title>cmp_cfg</title>
<polygon fill="white" stroke="transparent" points="-4,4 -4,-387 154.5,-387 154.5,4 -4,4"/>
<!-- Node1 -->
<g id="node1" class="node">
<title>Node1</title>
<g id="a_node1"><a xlink:title="The cmp_cfg structure can contain the complete configuration of the HW as well as the SW compressor.">
<polygon fill="#bfbfbf" stroke="black" points="0,-0.5 0,-167.5 131,-167.5 131,-0.5 0,-0.5"/>
<text text-anchor="middle" x="65.5" y="-155.5" font-family="Helvetica,sans-Serif" font-size="10.00">cmp_cfg</text>
<polyline fill="none" stroke="black" points="0,-148.5 131,-148.5 "/>
<text text-anchor="start" x="8" y="-136.5" font-family="Helvetica,sans-Serif" font-size="10.00">+ input_buf</text>
<text text-anchor="start" x="8" y="-125.5" font-family="Helvetica,sans-Serif" font-size="10.00">+ model_buf</text>
<text text-anchor="start" x="8" y="-114.5" font-family="Helvetica,sans-Serif" font-size="10.00">+ icu_new_model_buf</text>
<text text-anchor="start" x="8" y="-103.5" font-family="Helvetica,sans-Serif" font-size="10.00">+ icu_output_buf</text>
<text text-anchor="start" x="8" y="-92.5" font-family="Helvetica,sans-Serif" font-size="10.00">+ samples</text>
<text text-anchor="start" x="8" y="-81.5" font-family="Helvetica,sans-Serif" font-size="10.00">+ buffer_length</text>
<text text-anchor="start" x="8" y="-70.5" font-family="Helvetica,sans-Serif" font-size="10.00">+ rdcu_data_adr</text>
<text text-anchor="start" x="8" y="-59.5" font-family="Helvetica,sans-Serif" font-size="10.00">+ rdcu_model_adr</text>
<text text-anchor="start" x="8" y="-48.5" font-family="Helvetica,sans-Serif" font-size="10.00">+ rdcu_new_model_adr</text>
<text text-anchor="start" x="8" y="-37.5" font-family="Helvetica,sans-Serif" font-size="10.00">+ rdcu_buffer_adr</text>
<text text-anchor="start" x="8" y="-26.5" font-family="Helvetica,sans-Serif" font-size="10.00">and 28 more...</text>
<polyline fill="none" stroke="black" points="0,-19.5 131,-19.5 "/>
<text text-anchor="middle" x="65.5" y="-7.5" font-family="Helvetica,sans-Serif" font-size="10.00"> </text>
</a>
</g>
</g>
<!-- Node2 -->
<g id="node2" class="node">
<title>Node2</title>
<g id="a_node2"><a xlink:href="structcmp__max__used__bits.html" target="_top" xlink:title="Structure holding the maximum length of the different data product types in bits.">
<polygon fill="white" stroke="black" points="7.5,-215.5 7.5,-382.5 123.5,-382.5 123.5,-215.5 7.5,-215.5"/>
<text text-anchor="middle" x="65.5" y="-370.5" font-family="Helvetica,sans-Serif" font-size="10.00">cmp_max_used_bits</text>
<polyline fill="none" stroke="black" points="7.5,-363.5 123.5,-363.5 "/>
<text text-anchor="start" x="15.5" y="-351.5" font-family="Helvetica,sans-Serif" font-size="10.00">+ version</text>
<text text-anchor="start" x="15.5" y="-340.5" font-family="Helvetica,sans-Serif" font-size="10.00">+ s_exp_flags</text>
<text text-anchor="start" x="15.5" y="-329.5" font-family="Helvetica,sans-Serif" font-size="10.00">+ s_fx</text>
<text text-anchor="start" x="15.5" y="-318.5" font-family="Helvetica,sans-Serif" font-size="10.00">+ s_efx</text>
<text text-anchor="start" x="15.5" y="-307.5" font-family="Helvetica,sans-Serif" font-size="10.00">+ s_ncob</text>
<text text-anchor="start" x="15.5" y="-296.5" font-family="Helvetica,sans-Serif" font-size="10.00">+ s_ecob</text>
<text text-anchor="start" x="15.5" y="-285.5" font-family="Helvetica,sans-Serif" font-size="10.00">+ f_fx</text>
<text text-anchor="start" x="15.5" y="-274.5" font-family="Helvetica,sans-Serif" font-size="10.00">+ f_efx</text>
<text text-anchor="start" x="15.5" y="-263.5" font-family="Helvetica,sans-Serif" font-size="10.00">+ f_ncob</text>
<text text-anchor="start" x="15.5" y="-252.5" font-family="Helvetica,sans-Serif" font-size="10.00">+ f_ecob</text>
<text text-anchor="start" x="15.5" y="-241.5" font-family="Helvetica,sans-Serif" font-size="10.00">and 23 more...</text>
<polyline fill="none" stroke="black" points="7.5,-234.5 123.5,-234.5 "/>
<text text-anchor="middle" x="65.5" y="-222.5" font-family="Helvetica,sans-Serif" font-size="10.00"> </text>
</a>
</g>
</g>
<!-- Node2&#45;&gt;Node1 -->
<g id="edge1" class="edge">
<title>Node2&#45;&gt;Node1</title>
<path fill="none" stroke="#404040" d="M65.5,-215.34C65.5,-203.71 65.5,-191.68 65.5,-179.85"/>
<polygon fill="none" stroke="#404040" points="65.5,-179.61 61.5,-173.61 65.5,-167.61 69.5,-173.61 65.5,-179.61"/>
<text text-anchor="middle" x="108" y="-189" font-family="Helvetica,sans-Serif" font-size="10.00"> +max_used_bits</text>
</g>
</g>
</svg>
