<?xml version="1.0" encoding="UTF-8" standalone="no"?>
<!DOCTYPE svg PUBLIC "-//W3C//DTD SVG 1.1//EN"
 "http://www.w3.org/Graphics/SVG/1.1/DTD/svg11.dtd">
<!-- Generated by graphviz version 2.43.0 (0)
 -->
<!-- Title: list_head Pages: 1 -->
<svg width="121pt" height="66pt"
 viewBox="0.00 0.00 121.00 66.00" xmlns="http://www.w3.org/2000/svg" xmlns:xlink="http://www.w3.org/1999/xlink">
<g id="graph0" class="graph" transform="scale(1 1) rotate(0) translate(4 62)">
<title>list_head</title>
<polygon fill="white" stroke="transparent" points="-4,4 -4,-62 117,-62 117,4 -4,4"/>
<!-- Node1 -->
<g id="node1" class="node">
<title>Node1</title>
<g id="a_node1"><a xlink:title=" ">
<polygon fill="#bfbfbf" stroke="black" points="0,-0.5 0,-57.5 61,-57.5 61,-0.5 0,-0.5"/>
<text text-anchor="middle" x="30.5" y="-45.5" font-family="Helvetica,sans-Serif" font-size="10.00">list_head</text>
<polyline fill="none" stroke="black" points="0,-38.5 61,-38.5 "/>
<text text-anchor="middle" x="30.5" y="-26.5" font-family="Helvetica,sans-Serif" font-size="10.00"> </text>
<polyline fill="none" stroke="black" points="0,-19.5 61,-19.5 "/>
<text text-anchor="middle" x="30.5" y="-7.5" font-family="Helvetica,sans-Serif" font-size="10.00"> </text>
</a>
</g>
</g>
<!-- Node1&#45;&gt;Node1 -->
<g id="edge1" class="edge">
<title>Node1&#45;&gt;Node1</title>
<path fill="none" stroke="#404040" d="M61.28,-39.5C71.17,-39.39 79,-35.89 79,-29 79,-25.34 76.79,-22.64 73.24,-20.89"/>
<polygon fill="none" stroke="#404040" points="73.05,-20.85 66.38,-23.6 61.28,-18.5 67.95,-15.76 73.05,-20.85"/>
<text text-anchor="middle" x="96" y="-32" font-family="Helvetica,sans-Serif" font-size="10.00"> +next</text>
<text text-anchor="middle" x="96" y="-21" font-family="Helvetica,sans-Serif" font-size="10.00">+prev</text>
</g>
</g>
</svg>
