<?xml version="1.0" encoding="UTF-8" standalone="no"?>
<!DOCTYPE svg PUBLIC "-//W3C//DTD SVG 1.1//EN"
 "http://www.w3.org/Graphics/SVG/1.1/DTD/svg11.dtd">
<!-- Generated by graphviz version 2.43.0 (0)
 -->
<!-- Title: cmp_entity Pages: 1 -->
<svg width="421pt" height="446pt"
 viewBox="0.00 0.00 421.00 446.00" xmlns="http://www.w3.org/2000/svg" xmlns:xlink="http://www.w3.org/1999/xlink">
<g id="graph0" class="graph" transform="scale(1 1) rotate(0) translate(4 442)">
<title>cmp_entity</title>
<polygon fill="white" stroke="transparent" points="-4,4 -4,-442 417,-442 417,4 -4,4"/>
<!-- Node1 -->
<g id="node1" class="node">
<title>Node1</title>
<g id="a_node1"><a xlink:title="definition of the compression entity format">
<polygon fill="#bfbfbf" stroke="black" points="142,-0.5 142,-178.5 285,-178.5 285,-0.5 142,-0.5"/>
<text text-anchor="middle" x="213.5" y="-166.5" font-family="Helvetica,sans-Serif" font-size="10.00">cmp_entity</text>
<polyline fill="none" stroke="black" points="142,-159.5 285,-159.5 "/>
<text text-anchor="start" x="150" y="-147.5" font-family="Helvetica,sans-Serif" font-size="10.00">+ version_id</text>
<text text-anchor="start" x="150" y="-136.5" font-family="Helvetica,sans-Serif" font-size="10.00">+ cmp_ent_size</text>
<text text-anchor="start" x="150" y="-125.5" font-family="Helvetica,sans-Serif" font-size="10.00">+ original_size</text>
<text text-anchor="start" x="150" y="-114.5" font-family="Helvetica,sans-Serif" font-size="10.00">+ start_timestamp</text>
<text text-anchor="start" x="150" y="-103.5" font-family="Helvetica,sans-Serif" font-size="10.00">+ end_timestamp</text>
<text text-anchor="start" x="150" y="-92.5" font-family="Helvetica,sans-Serif" font-size="10.00">+ data_type</text>
<text text-anchor="start" x="150" y="-81.5" font-family="Helvetica,sans-Serif" font-size="10.00">+ cmp_mode_used</text>
<text text-anchor="start" x="150" y="-70.5" font-family="Helvetica,sans-Serif" font-size="10.00">+ model_value_used</text>
<text text-anchor="start" x="150" y="-59.5" font-family="Helvetica,sans-Serif" font-size="10.00">+ model_id</text>
<text text-anchor="start" x="150" y="-48.5" font-family="Helvetica,sans-Serif" font-size="10.00">+ model_counter</text>
<text text-anchor="start" x="150" y="-37.5" font-family="Helvetica,sans-Serif" font-size="10.00">+ max_used_bits_version</text>
<text text-anchor="start" x="150" y="-26.5" font-family="Helvetica,sans-Serif" font-size="10.00">+ lossy_cmp_par_used</text>
<polyline fill="none" stroke="black" points="142,-19.5 285,-19.5 "/>
<text text-anchor="middle" x="213.5" y="-7.5" font-family="Helvetica,sans-Serif" font-size="10.00"> </text>
</a>
</g>
</g>
<!-- Node2 -->
<g id="node2" class="node">
<title>Node2</title>
<g id="a_node2"><a xlink:href="structimagette__header.html" target="_top" xlink:title="imagette specific part of compression entity">
<polygon fill="white" stroke="black" points="0,-254 0,-421 137,-421 137,-254 0,-254"/>
<text text-anchor="middle" x="68.5" y="-409" font-family="Helvetica,sans-Serif" font-size="10.00">imagette_header</text>
<polyline fill="none" stroke="black" points="0,-402 137,-402 "/>
<text text-anchor="start" x="8" y="-390" font-family="Helvetica,sans-Serif" font-size="10.00">+ spill_used</text>
<text text-anchor="start" x="8" y="-379" font-family="Helvetica,sans-Serif" font-size="10.00">+ golomb_par_used</text>
<text text-anchor="start" x="8" y="-368" font-family="Helvetica,sans-Serif" font-size="10.00">+ spare1</text>
<text text-anchor="start" x="8" y="-357" font-family="Helvetica,sans-Serif" font-size="10.00">+ ima_cmp_dat</text>
<text text-anchor="start" x="8" y="-346" font-family="Helvetica,sans-Serif" font-size="10.00">+ ap1_spill_used</text>
<text text-anchor="start" x="8" y="-335" font-family="Helvetica,sans-Serif" font-size="10.00">+ ap1_golomb_par_used</text>
<text text-anchor="start" x="8" y="-324" font-family="Helvetica,sans-Serif" font-size="10.00">+ ap2_spill_used</text>
<text text-anchor="start" x="8" y="-313" font-family="Helvetica,sans-Serif" font-size="10.00">+ ap2_golomb_par_used</text>
<text text-anchor="start" x="8" y="-302" font-family="Helvetica,sans-Serif" font-size="10.00">+ spare2</text>
<text text-anchor="start" x="8" y="-291" font-family="Helvetica,sans-Serif" font-size="10.00">+ spare3</text>
<text text-anchor="start" x="8" y="-280" font-family="Helvetica,sans-Serif" font-size="10.00">+ ap_ima_cmp_data</text>
<polyline fill="none" stroke="black" points="0,-273 137,-273 "/>
<text text-anchor="middle" x="68.5" y="-261" font-family="Helvetica,sans-Serif" font-size="10.00"> </text>
</a>
</g>
</g>
<!-- Node2&#45;&gt;Node1 -->
<g id="edge1" class="edge">
<title>Node2&#45;&gt;Node1</title>
<path fill="none" stroke="#404040" d="M117.19,-253.9C129.42,-233.15 142.67,-210.67 155.31,-189.22"/>
<polygon fill="none" stroke="#404040" points="155.37,-189.12 154.97,-181.92 161.46,-178.78 161.86,-185.98 155.37,-189.12"/>
<text text-anchor="middle" x="166" y="-205.5" font-family="Helvetica,sans-Serif" font-size="10.00"> +ima</text>
</g>
<!-- Node3 -->
<g id="node3" class="node">
<title>Node3</title>
<g id="a_node3"><a xlink:href="structtimestamp__cmp__ent.html" target="_top" xlink:title="PALTO CUC timestamp format.">
<polygon fill="white" stroke="black" points="155,-303.5 155,-371.5 272,-371.5 272,-303.5 155,-303.5"/>
<text text-anchor="middle" x="213.5" y="-359.5" font-family="Helvetica,sans-Serif" font-size="10.00">timestamp_cmp_ent</text>
<polyline fill="none" stroke="black" points="155,-352.5 272,-352.5 "/>
<text text-anchor="start" x="163" y="-340.5" font-family="Helvetica,sans-Serif" font-size="10.00">+ coarse</text>
<text text-anchor="start" x="163" y="-329.5" font-family="Helvetica,sans-Serif" font-size="10.00">+ fine</text>
<polyline fill="none" stroke="black" points="155,-322.5 272,-322.5 "/>
<text text-anchor="middle" x="213.5" y="-310.5" font-family="Helvetica,sans-Serif" font-size="10.00"> </text>
</a>
</g>
</g>
<!-- Node3&#45;&gt;Node1 -->
<g id="edge2" class="edge">
<title>Node3&#45;&gt;Node1</title>
<path fill="none" stroke="#404040" d="M213.5,-303.32C213.5,-274.38 213.5,-230.85 213.5,-190.68"/>
<polygon fill="none" stroke="#404040" points="213.5,-190.62 209.5,-184.62 213.5,-178.62 217.5,-184.62 213.5,-190.62"/>
<text text-anchor="middle" x="243" y="-211" font-family="Helvetica,sans-Serif" font-size="10.00"> +end_time</text>
<text text-anchor="middle" x="243" y="-200" font-family="Helvetica,sans-Serif" font-size="10.00">+start_time</text>
</g>
<!-- Node4 -->
<g id="node4" class="node">
<title>Node4</title>
<g id="a_node4"><a xlink:href="structnon__imagette__header.html" target="_top" xlink:title="non&#45;imagette specific part of compression entity">
<polygon fill="white" stroke="black" points="290,-237.5 290,-437.5 413,-437.5 413,-237.5 290,-237.5"/>
<text text-anchor="middle" x="351.5" y="-425.5" font-family="Helvetica,sans-Serif" font-size="10.00">non_imagette_header</text>
<polyline fill="none" stroke="black" points="290,-418.5 413,-418.5 "/>
<text text-anchor="start" x="298" y="-406.5" font-family="Helvetica,sans-Serif" font-size="10.00">+ spill_1_used</text>
<text text-anchor="start" x="298" y="-395.5" font-family="Helvetica,sans-Serif" font-size="10.00">+ cmp_par_1_used</text>
<text text-anchor="start" x="298" y="-384.5" font-family="Helvetica,sans-Serif" font-size="10.00">+ spill_2_used</text>
<text text-anchor="start" x="298" y="-373.5" font-family="Helvetica,sans-Serif" font-size="10.00">+ cmp_par_2_used</text>
<text text-anchor="start" x="298" y="-362.5" font-family="Helvetica,sans-Serif" font-size="10.00">+ spill_3_used</text>
<text text-anchor="start" x="298" y="-351.5" font-family="Helvetica,sans-Serif" font-size="10.00">+ cmp_par_3_used</text>
<text text-anchor="start" x="298" y="-340.5" font-family="Helvetica,sans-Serif" font-size="10.00">+ spill_4_used</text>
<text text-anchor="start" x="298" y="-329.5" font-family="Helvetica,sans-Serif" font-size="10.00">+ cmp_par_4_used</text>
<text text-anchor="start" x="298" y="-318.5" font-family="Helvetica,sans-Serif" font-size="10.00">+ spill_5_used</text>
<text text-anchor="start" x="298" y="-307.5" font-family="Helvetica,sans-Serif" font-size="10.00">+ cmp_par_5_used</text>
<text text-anchor="start" x="298" y="-296.5" font-family="Helvetica,sans-Serif" font-size="10.00">+ spill_6_used</text>
<text text-anchor="start" x="298" y="-285.5" font-family="Helvetica,sans-Serif" font-size="10.00">+ cmp_par_6_used</text>
<text text-anchor="start" x="298" y="-274.5" font-family="Helvetica,sans-Serif" font-size="10.00">+ spare</text>
<text text-anchor="start" x="298" y="-263.5" font-family="Helvetica,sans-Serif" font-size="10.00">+ cmp_data</text>
<polyline fill="none" stroke="black" points="290,-256.5 413,-256.5 "/>
<text text-anchor="middle" x="351.5" y="-244.5" font-family="Helvetica,sans-Serif" font-size="10.00"> </text>
</a>
</g>
</g>
<!-- Node4&#45;&gt;Node1 -->
<g id="edge3" class="edge">
<title>Node4&#45;&gt;Node1</title>
<path fill="none" stroke="#404040" d="M298.73,-237.16C291.35,-223.61 283.8,-209.93 276.5,-197 275.07,-194.47 273.62,-191.92 272.16,-189.34"/>
<polygon fill="none" stroke="#404040" points="272.01,-189.08 265.55,-185.87 266.03,-178.67 272.49,-181.89 272.01,-189.08"/>
<text text-anchor="middle" x="313.5" y="-205.5" font-family="Helvetica,sans-Serif" font-size="10.00"> +non_ima</text>
</g>
</g>
</svg>
