<?xml version="1.0" encoding="UTF-8" standalone="no"?>
<!DOCTYPE svg PUBLIC "-//W3C//DTD SVG 1.1//EN"
 "http://www.w3.org/Graphics/SVG/1.1/DTD/svg11.dtd">
<!-- Generated by graphviz version 2.43.0 (0)
 -->
<!-- Title: rmap_pkt Pages: 1 -->
<svg width="108pt" height="314pt"
 viewBox="0.00 0.00 108.00 314.00" xmlns="http://www.w3.org/2000/svg" xmlns:xlink="http://www.w3.org/1999/xlink">
<g id="graph0" class="graph" transform="scale(1 1) rotate(0) translate(4 310)">
<title>rmap_pkt</title>
<polygon fill="white" stroke="transparent" points="-4,4 -4,-310 104,-310 104,4 -4,4"/>
<!-- Node1 -->
<g id="node1" class="node">
<title>Node1</title>
<g id="a_node1"><a xlink:title="This structure holds the relevant contents of an RMAP packet.">
<polygon fill="#bfbfbf" stroke="black" points="9.5,-0.5 9.5,-167.5 90.5,-167.5 90.5,-0.5 9.5,-0.5"/>
<text text-anchor="middle" x="50" y="-155.5" font-family="Helvetica,sans-Serif" font-size="10.00">rmap_pkt</text>
<polyline fill="none" stroke="black" points="9.5,-148.5 90.5,-148.5 "/>
<text text-anchor="start" x="17.5" y="-136.5" font-family="Helvetica,sans-Serif" font-size="10.00">+ path</text>
<text text-anchor="start" x="17.5" y="-125.5" font-family="Helvetica,sans-Serif" font-size="10.00">+ path_len</text>
<text text-anchor="start" x="17.5" y="-114.5" font-family="Helvetica,sans-Serif" font-size="10.00">+ dst</text>
<text text-anchor="start" x="17.5" y="-103.5" font-family="Helvetica,sans-Serif" font-size="10.00">+ proto_id</text>
<text text-anchor="start" x="17.5" y="-92.5" font-family="Helvetica,sans-Serif" font-size="10.00">+ instruction</text>
<text text-anchor="start" x="17.5" y="-81.5" font-family="Helvetica,sans-Serif" font-size="10.00">+ @14</text>
<text text-anchor="start" x="17.5" y="-70.5" font-family="Helvetica,sans-Serif" font-size="10.00">+ key</text>
<text text-anchor="start" x="17.5" y="-59.5" font-family="Helvetica,sans-Serif" font-size="10.00">+ status</text>
<text text-anchor="start" x="17.5" y="-48.5" font-family="Helvetica,sans-Serif" font-size="10.00">+ @16</text>
<text text-anchor="start" x="17.5" y="-37.5" font-family="Helvetica,sans-Serif" font-size="10.00">+ src</text>
<text text-anchor="start" x="17.5" y="-26.5" font-family="Helvetica,sans-Serif" font-size="10.00">and 8 more...</text>
<polyline fill="none" stroke="black" points="9.5,-19.5 90.5,-19.5 "/>
<text text-anchor="middle" x="50" y="-7.5" font-family="Helvetica,sans-Serif" font-size="10.00"> </text>
</a>
</g>
</g>
<!-- Node2 -->
<g id="node2" class="node">
<title>Node2</title>
<g id="a_node2"><a xlink:href="structrmap__instruction.html" target="_top" xlink:title="RMAP header instruction field definition.">
<polygon fill="white" stroke="black" points="0,-215.5 0,-305.5 100,-305.5 100,-215.5 0,-215.5"/>
<text text-anchor="middle" x="50" y="-293.5" font-family="Helvetica,sans-Serif" font-size="10.00">rmap_instruction</text>
<polyline fill="none" stroke="black" points="0,-286.5 100,-286.5 "/>
<text text-anchor="start" x="8" y="-274.5" font-family="Helvetica,sans-Serif" font-size="10.00">+ reserved</text>
<text text-anchor="start" x="8" y="-263.5" font-family="Helvetica,sans-Serif" font-size="10.00">+ cmd_resp</text>
<text text-anchor="start" x="8" y="-252.5" font-family="Helvetica,sans-Serif" font-size="10.00">+ cmd</text>
<text text-anchor="start" x="8" y="-241.5" font-family="Helvetica,sans-Serif" font-size="10.00">+ reply_addr_len</text>
<polyline fill="none" stroke="black" points="0,-234.5 100,-234.5 "/>
<text text-anchor="middle" x="50" y="-222.5" font-family="Helvetica,sans-Serif" font-size="10.00"> </text>
</a>
</g>
</g>
<!-- Node2&#45;&gt;Node1 -->
<g id="edge1" class="edge">
<title>Node2&#45;&gt;Node1</title>
<path fill="none" stroke="#404040" d="M50,-215.47C50,-204.56 50,-192.45 50,-180.13"/>
<polygon fill="none" stroke="#404040" points="50,-179.78 46,-173.78 50,-167.78 54,-173.78 50,-179.78"/>
<text text-anchor="middle" x="59.5" y="-189" font-family="Helvetica,sans-Serif" font-size="10.00"> +ri</text>
</g>
</g>
</svg>
